<?xml version="1.0" encoding="utf-8" standalone="no"?>
<!DOCTYPE svg PUBLIC "-//W3C//DTD SVG 1.1//EN"
  "http://www.w3.org/Graphics/SVG/1.1/DTD/svg11.dtd">
<svg xmlns:xlink="http://www.w3.org/1999/xlink" width="360pt" height="360pt" viewBox="0 0 360 360" xmlns="http://www.w3.org/2000/svg" version="1.1">
 <metadata>
  <rdf:RDF xmlns:dc="http://purl.org/dc/elements/1.1/" xmlns:cc="http://creativecommons.org/ns#" xmlns:rdf="http://www.w3.org/1999/02/22-rdf-syntax-ns#">
   <cc:Work>
    <dc:type rdf:resource="http://purl.org/dc/dcmitype/StillImage"/>
    <dc:date>2022-04-10T19:53:35.222043</dc:date>
    <dc:format>image/svg+xml</dc:format>
    <dc:creator>
     <cc:Agent>
      <dc:title>Matplotlib v3.5.1, https://matplotlib.org/</dc:title>
     </cc:Agent>
    </dc:creator>
   </cc:Work>
  </rdf:RDF>
 </metadata>
 <defs>
  <style type="text/css">*{stroke-linejoin: round; stroke-linecap: butt}</style>
 </defs>
 <g id="figure_1">
  <g id="patch_1">
   <path d="M 0 360 
L 360 360 
L 360 0 
L 0 0 
z
" style="fill: #ffffff"/>
  </g>
  <g id="axes_1">
   <g id="patch_2">
    <path d="M 45 320.4 
L 324 320.4 
L 324 43.2 
L 45 43.2 
z
" style="fill: #ffffff"/>
   </g>
   <g id="PathCollection_1">
    <defs>
     <path id="m673f3f5401" d="M 0 0.5 
C 0.132602 0.5 0.25979 0.447317 0.353553 0.353553 
C 0.447317 0.25979 0.5 0.132602 0.5 0 
C 0.5 -0.132602 0.447317 -0.25979 0.353553 -0.353553 
C 0.25979 -0.447317 0.132602 -0.5 0 -0.5 
C -0.132602 -0.5 -0.25979 -0.447317 -0.353553 -0.353553 
C -0.447317 -0.25979 -0.5 -0.132602 -0.5 0 
C -0.5 0.132602 -0.447317 0.25979 -0.353553 0.353553 
C -0.25979 0.447317 -0.132602 0.5 0 0.5 
z
" style="stroke: #ff0000"/>
    </defs>
    <g clip-path="url(#p4ad42f2373)">
     <use xlink:href="#m673f3f5401" x="225.852502" y="181.336455" style="fill: #ff0000; stroke: #ff0000"/>
     <use xlink:href="#m673f3f5401" x="226.127526" y="177.308608" style="fill: #ff0000; stroke: #ff0000"/>
     <use xlink:href="#m673f3f5401" x="226.375307" y="173.152882" style="fill: #ff0000; stroke: #ff0000"/>
     <use xlink:href="#m673f3f5401" x="226.553867" y="168.802471" style="fill: #ff0000; stroke: #ff0000"/>
     <use xlink:href="#m673f3f5401" x="226.535805" y="164.228995" style="fill: #ff0000; stroke: #ff0000"/>
     <use xlink:href="#m673f3f5401" x="226.131576" y="159.475249" style="fill: #ff0000; stroke: #ff0000"/>
     <use xlink:href="#m673f3f5401" x="225.137426" y="154.668307" style="fill: #ff0000; stroke: #ff0000"/>
     <use xlink:href="#m673f3f5401" x="223.39419" y="150.003173" style="fill: #ff0000; stroke: #ff0000"/>
     <use xlink:href="#m673f3f5401" x="220.839259" y="145.695188" style="fill: #ff0000; stroke: #ff0000"/>
     <use xlink:href="#m673f3f5401" x="217.531059" y="141.912492" style="fill: #ff0000; stroke: #ff0000"/>
     <use xlink:href="#m673f3f5401" x="213.629086" y="138.716698" style="fill: #ff0000; stroke: #ff0000"/>
     <use xlink:href="#m673f3f5401" x="209.330695" y="136.048433" style="fill: #ff0000; stroke: #ff0000"/>
     <use xlink:href="#m673f3f5401" x="204.793329" y="133.779202" style="fill: #ff0000; stroke: #ff0000"/>
     <use xlink:href="#m673f3f5401" x="200.087025" y="131.812529" style="fill: #ff0000; stroke: #ff0000"/>
     <use xlink:href="#m673f3f5401" x="195.208532" y="130.178752" style="fill: #ff0000; stroke: #ff0000"/>
     <use xlink:href="#m673f3f5401" x="190.148698" y="129.060732" style="fill: #ff0000; stroke: #ff0000"/>
     <use xlink:href="#m673f3f5401" x="184.966555" y="128.724486" style="fill: #ff0000; stroke: #ff0000"/>
     <use xlink:href="#m673f3f5401" x="179.816964" y="129.3891" style="fill: #ff0000; stroke: #ff0000"/>
     <use xlink:href="#m673f3f5401" x="174.911432" y="131.112068" style="fill: #ff0000; stroke: #ff0000"/>
     <use xlink:href="#m673f3f5401" x="170.439704" y="133.756802" style="fill: #ff0000; stroke: #ff0000"/>
     <use xlink:href="#m673f3f5401" x="166.504939" y="137.05372" style="fill: #ff0000; stroke: #ff0000"/>
     <use xlink:href="#m673f3f5401" x="163.108788" y="140.707274" style="fill: #ff0000; stroke: #ff0000"/>
     <use xlink:href="#m673f3f5401" x="160.181841" y="144.482818" style="fill: #ff0000; stroke: #ff0000"/>
     <use xlink:href="#m673f3f5401" x="157.625922" y="148.23673" style="fill: #ff0000; stroke: #ff0000"/>
     <use xlink:href="#m673f3f5401" x="155.338301" y="151.899351" style="fill: #ff0000; stroke: #ff0000"/>
     <use xlink:href="#m673f3f5401" x="153.213718" y="155.445696" style="fill: #ff0000; stroke: #ff0000"/>
     <use xlink:href="#m673f3f5401" x="151.142289" y="158.881613" style="fill: #ff0000; stroke: #ff0000"/>
     <use xlink:href="#m673f3f5401" x="149.023338" y="162.248354" style="fill: #ff0000; stroke: #ff0000"/>
     <use xlink:href="#m673f3f5401" x="146.799117" y="165.628981" style="fill: #ff0000; stroke: #ff0000"/>
     <use xlink:href="#m673f3f5401" x="144.492566" y="169.138015" style="fill: #ff0000; stroke: #ff0000"/>
     <use xlink:href="#m673f3f5401" x="142.223496" y="172.889184" style="fill: #ff0000; stroke: #ff0000"/>
     <use xlink:href="#m673f3f5401" x="140.184216" y="176.954235" style="fill: #ff0000; stroke: #ff0000"/>
     <use xlink:href="#m673f3f5401" x="138.576644" y="181.336455" style="fill: #ff0000; stroke: #ff0000"/>
     <use xlink:href="#m673f3f5401" x="137.537971" y="185.977625" style="fill: #ff0000; stroke: #ff0000"/>
     <use xlink:href="#m673f3f5401" x="137.095551" y="190.797156" style="fill: #ff0000; stroke: #ff0000"/>
     <use xlink:href="#m673f3f5401" x="137.180566" y="195.738655" style="fill: #ff0000; stroke: #ff0000"/>
     <use xlink:href="#m673f3f5401" x="137.696326" y="200.790102" style="fill: #ff0000; stroke: #ff0000"/>
     <use xlink:href="#m673f3f5401" x="138.601499" y="205.959206" style="fill: #ff0000; stroke: #ff0000"/>
     <use xlink:href="#m673f3f5401" x="139.957342" y="211.216623" style="fill: #ff0000; stroke: #ff0000"/>
     <use xlink:href="#m673f3f5401" x="141.910824" y="216.443413" style="fill: #ff0000; stroke: #ff0000"/>
     <use xlink:href="#m673f3f5401" x="144.626119" y="221.41663" style="fill: #ff0000; stroke: #ff0000"/>
     <use xlink:href="#m673f3f5401" x="148.20507" y="225.84146" style="fill: #ff0000; stroke: #ff0000"/>
     <use xlink:href="#m673f3f5401" x="152.635228" y="229.411529" style="fill: #ff0000; stroke: #ff0000"/>
     <use xlink:href="#m673f3f5401" x="157.779907" y="231.87095" style="fill: #ff0000; stroke: #ff0000"/>
     <use xlink:href="#m673f3f5401" x="163.402015" y="233.061981" style="fill: #ff0000; stroke: #ff0000"/>
     <use xlink:href="#m673f3f5401" x="169.206623" y="232.954806" style="fill: #ff0000; stroke: #ff0000"/>
     <use xlink:href="#m673f3f5401" x="174.891674" y="231.659528" style="fill: #ff0000; stroke: #ff0000"/>
     <use xlink:href="#m673f3f5401" x="180.200201" y="229.417843" style="fill: #ff0000; stroke: #ff0000"/>
     <use xlink:href="#m673f3f5401" x="184.966555" y="226.57172" style="fill: #ff0000; stroke: #ff0000"/>
     <use xlink:href="#m673f3f5401" x="189.147274" y="223.510153" style="fill: #ff0000; stroke: #ff0000"/>
     <use xlink:href="#m673f3f5401" x="192.827152" y="220.599387" style="fill: #ff0000; stroke: #ff0000"/>
     <use xlink:href="#m673f3f5401" x="196.193078" y="218.106575" style="fill: #ff0000; stroke: #ff0000"/>
     <use xlink:href="#m673f3f5401" x="199.473991" y="216.134542" style="fill: #ff0000; stroke: #ff0000"/>
     <use xlink:href="#m673f3f5401" x="202.858205" y="214.593423" style="fill: #ff0000; stroke: #ff0000"/>
     <use xlink:href="#m673f3f5401" x="206.416695" y="213.231745" style="fill: #ff0000; stroke: #ff0000"/>
     <use xlink:href="#m673f3f5401" x="210.069354" y="211.726963" style="fill: #ff0000; stroke: #ff0000"/>
     <use xlink:href="#m673f3f5401" x="213.616876" y="209.801935" style="fill: #ff0000; stroke: #ff0000"/>
     <use xlink:href="#m673f3f5401" x="216.825619" y="207.313828" style="fill: #ff0000; stroke: #ff0000"/>
     <use xlink:href="#m673f3f5401" x="219.51968" y="204.275162" style="fill: #ff0000; stroke: #ff0000"/>
     <use xlink:href="#m673f3f5401" x="221.631156" y="200.807656" style="fill: #ff0000; stroke: #ff0000"/>
     <use xlink:href="#m673f3f5401" x="223.191567" y="197.067623" style="fill: #ff0000; stroke: #ff0000"/>
     <use xlink:href="#m673f3f5401" x="224.288594" y="193.187709" style="fill: #ff0000; stroke: #ff0000"/>
     <use xlink:href="#m673f3f5401" x="225.027242" y="189.253611" style="fill: #ff0000; stroke: #ff0000"/>
     <use xlink:href="#m673f3f5401" x="225.514077" y="185.304272" style="fill: #ff0000; stroke: #ff0000"/>
    </g>
   </g>
   <g id="matplotlib.axis_1">
    <g id="xtick_1">
     <g id="line2d_1">
      <defs>
       <path id="m1e9e66855f" d="M 0 0 
L 0 3.5 
" style="stroke: #000000; stroke-width: 0.8"/>
      </defs>
      <g>
       <use xlink:href="#m1e9e66855f" x="45" y="320.4" style="stroke: #000000; stroke-width: 0.8"/>
      </g>
     </g>
     <g id="text_1">
      <!-- −3 -->
      <g transform="translate(37.628906 334.998438)scale(0.1 -0.1)">
       <defs>
        <path id="DejaVuSans-2212" d="M 678 2272 
L 4684 2272 
L 4684 1741 
L 678 1741 
L 678 2272 
z
" transform="scale(0.015625)"/>
        <path id="DejaVuSans-33" d="M 2597 2516 
Q 3050 2419 3304 2112 
Q 3559 1806 3559 1356 
Q 3559 666 3084 287 
Q 2609 -91 1734 -91 
Q 1441 -91 1130 -33 
Q 819 25 488 141 
L 488 750 
Q 750 597 1062 519 
Q 1375 441 1716 441 
Q 2309 441 2620 675 
Q 2931 909 2931 1356 
Q 2931 1769 2642 2001 
Q 2353 2234 1838 2234 
L 1294 2234 
L 1294 2753 
L 1863 2753 
Q 2328 2753 2575 2939 
Q 2822 3125 2822 3475 
Q 2822 3834 2567 4026 
Q 2313 4219 1838 4219 
Q 1578 4219 1281 4162 
Q 984 4106 628 3988 
L 628 4550 
Q 988 4650 1302 4700 
Q 1616 4750 1894 4750 
Q 2613 4750 3031 4423 
Q 3450 4097 3450 3541 
Q 3450 3153 3228 2886 
Q 3006 2619 2597 2516 
z
" transform="scale(0.015625)"/>
       </defs>
       <use xlink:href="#DejaVuSans-2212"/>
       <use xlink:href="#DejaVuSans-33" x="83.789062"/>
      </g>
     </g>
    </g>
    <g id="xtick_2">
     <g id="line2d_2">
      <g>
       <use xlink:href="#m1e9e66855f" x="91.655518" y="320.4" style="stroke: #000000; stroke-width: 0.8"/>
      </g>
     </g>
     <g id="text_2">
      <!-- −2 -->
      <g transform="translate(84.284425 334.998438)scale(0.1 -0.1)">
       <defs>
        <path id="DejaVuSans-32" d="M 1228 531 
L 3431 531 
L 3431 0 
L 469 0 
L 469 531 
Q 828 903 1448 1529 
Q 2069 2156 2228 2338 
Q 2531 2678 2651 2914 
Q 2772 3150 2772 3378 
Q 2772 3750 2511 3984 
Q 2250 4219 1831 4219 
Q 1534 4219 1204 4116 
Q 875 4013 500 3803 
L 500 4441 
Q 881 4594 1212 4672 
Q 1544 4750 1819 4750 
Q 2544 4750 2975 4387 
Q 3406 4025 3406 3419 
Q 3406 3131 3298 2873 
Q 3191 2616 2906 2266 
Q 2828 2175 2409 1742 
Q 1991 1309 1228 531 
z
" transform="scale(0.015625)"/>
       </defs>
       <use xlink:href="#DejaVuSans-2212"/>
       <use xlink:href="#DejaVuSans-32" x="83.789062"/>
      </g>
     </g>
    </g>
    <g id="xtick_3">
     <g id="line2d_3">
      <g>
       <use xlink:href="#m1e9e66855f" x="138.311037" y="320.4" style="stroke: #000000; stroke-width: 0.8"/>
      </g>
     </g>
     <g id="text_3">
      <!-- −1 -->
      <g transform="translate(130.939943 334.998438)scale(0.1 -0.1)">
       <defs>
        <path id="DejaVuSans-31" d="M 794 531 
L 1825 531 
L 1825 4091 
L 703 3866 
L 703 4441 
L 1819 4666 
L 2450 4666 
L 2450 531 
L 3481 531 
L 3481 0 
L 794 0 
L 794 531 
z
" transform="scale(0.015625)"/>
       </defs>
       <use xlink:href="#DejaVuSans-2212"/>
       <use xlink:href="#DejaVuSans-31" x="83.789062"/>
      </g>
     </g>
    </g>
    <g id="xtick_4">
     <g id="line2d_4">
      <g>
       <use xlink:href="#m1e9e66855f" x="184.966555" y="320.4" style="stroke: #000000; stroke-width: 0.8"/>
      </g>
     </g>
     <g id="text_4">
      <!-- 0 -->
      <g transform="translate(181.785305 334.998438)scale(0.1 -0.1)">
       <defs>
        <path id="DejaVuSans-30" d="M 2034 4250 
Q 1547 4250 1301 3770 
Q 1056 3291 1056 2328 
Q 1056 1369 1301 889 
Q 1547 409 2034 409 
Q 2525 409 2770 889 
Q 3016 1369 3016 2328 
Q 3016 3291 2770 3770 
Q 2525 4250 2034 4250 
z
M 2034 4750 
Q 2819 4750 3233 4129 
Q 3647 3509 3647 2328 
Q 3647 1150 3233 529 
Q 2819 -91 2034 -91 
Q 1250 -91 836 529 
Q 422 1150 422 2328 
Q 422 3509 836 4129 
Q 1250 4750 2034 4750 
z
" transform="scale(0.015625)"/>
       </defs>
       <use xlink:href="#DejaVuSans-30"/>
      </g>
     </g>
    </g>
    <g id="xtick_5">
     <g id="line2d_5">
      <g>
       <use xlink:href="#m1e9e66855f" x="231.622074" y="320.4" style="stroke: #000000; stroke-width: 0.8"/>
      </g>
     </g>
     <g id="text_5">
      <!-- 1 -->
      <g transform="translate(228.440824 334.998438)scale(0.1 -0.1)">
       <use xlink:href="#DejaVuSans-31"/>
      </g>
     </g>
    </g>
    <g id="xtick_6">
     <g id="line2d_6">
      <g>
       <use xlink:href="#m1e9e66855f" x="278.277592" y="320.4" style="stroke: #000000; stroke-width: 0.8"/>
      </g>
     </g>
     <g id="text_6">
      <!-- 2 -->
      <g transform="translate(275.096342 334.998438)scale(0.1 -0.1)">
       <use xlink:href="#DejaVuSans-32"/>
      </g>
     </g>
    </g>
   </g>
   <g id="matplotlib.axis_2">
    <g id="ytick_1">
     <g id="line2d_7">
      <defs>
       <path id="m1ba675d2b0" d="M 0 0 
L -3.5 0 
" style="stroke: #000000; stroke-width: 0.8"/>
      </defs>
      <g>
       <use xlink:href="#m1ba675d2b0" x="45" y="320.4" style="stroke: #000000; stroke-width: 0.8"/>
      </g>
     </g>
     <g id="text_7">
      <!-- −3 -->
      <g transform="translate(23.257812 324.199219)scale(0.1 -0.1)">
       <use xlink:href="#DejaVuSans-2212"/>
       <use xlink:href="#DejaVuSans-33" x="83.789062"/>
      </g>
     </g>
    </g>
    <g id="ytick_2">
     <g id="line2d_8">
      <g>
       <use xlink:href="#m1ba675d2b0" x="45" y="274.045485" style="stroke: #000000; stroke-width: 0.8"/>
      </g>
     </g>
     <g id="text_8">
      <!-- −2 -->
      <g transform="translate(23.257812 277.844704)scale(0.1 -0.1)">
       <use xlink:href="#DejaVuSans-2212"/>
       <use xlink:href="#DejaVuSans-32" x="83.789062"/>
      </g>
     </g>
    </g>
    <g id="ytick_3">
     <g id="line2d_9">
      <g>
       <use xlink:href="#m1ba675d2b0" x="45" y="227.69097" style="stroke: #000000; stroke-width: 0.8"/>
      </g>
     </g>
     <g id="text_9">
      <!-- −1 -->
      <g transform="translate(23.257812 231.490189)scale(0.1 -0.1)">
       <use xlink:href="#DejaVuSans-2212"/>
       <use xlink:href="#DejaVuSans-31" x="83.789062"/>
      </g>
     </g>
    </g>
    <g id="ytick_4">
     <g id="line2d_10">
      <g>
       <use xlink:href="#m1ba675d2b0" x="45" y="181.336455" style="stroke: #000000; stroke-width: 0.8"/>
      </g>
     </g>
     <g id="text_10">
      <!-- 0 -->
      <g transform="translate(31.6375 185.135674)scale(0.1 -0.1)">
       <use xlink:href="#DejaVuSans-30"/>
      </g>
     </g>
    </g>
    <g id="ytick_5">
     <g id="line2d_11">
      <g>
       <use xlink:href="#m1ba675d2b0" x="45" y="134.98194" style="stroke: #000000; stroke-width: 0.8"/>
      </g>
     </g>
     <g id="text_11">
      <!-- 1 -->
      <g transform="translate(31.6375 138.781159)scale(0.1 -0.1)">
       <use xlink:href="#DejaVuSans-31"/>
      </g>
     </g>
    </g>
    <g id="ytick_6">
     <g id="line2d_12">
      <g>
       <use xlink:href="#m1ba675d2b0" x="45" y="88.627425" style="stroke: #000000; stroke-width: 0.8"/>
      </g>
     </g>
     <g id="text_12">
      <!-- 2 -->
      <g transform="translate(31.6375 92.426643)scale(0.1 -0.1)">
       <use xlink:href="#DejaVuSans-32"/>
      </g>
     </g>
    </g>
   </g>
   <g id="PathCollection_2">
    <path d="M 167.237458 206.854259 
L 166.40066 206.367893 
L 166.304348 206.310993 
L 165.371237 205.759713 
L 164.832727 205.440803 
L 164.438127 205.183344 
L 163.505017 204.562597 
L 163.440967 204.513712 
L 162.571906 203.866455 
L 162.281546 203.586622 
L 161.638796 202.965261 
L 161.398989 202.659532 
L 161.371918 201.732441 
L 161.355595 200.805351 
L 161.339338 199.878261 
L 161.32314 198.951171 
L 161.439472 198.02408 
L 161.609763 197.09699 
L 161.638796 196.989347 
L 161.861894 196.1699 
L 162.203314 195.242809 
L 162.484654 194.315719 
L 162.571906 193.763476 
L 162.639791 193.388629 
L 162.69844 192.461538 
L 162.847105 191.534448 
L 162.9558 190.607358 
L 163.14482 189.680268 
L 163.278333 188.753177 
L 163.403745 187.826087 
L 163.505017 187.105295 
L 163.534488 186.898997 
L 163.670679 185.971906 
L 163.873472 185.044816 
L 164.084563 184.117726 
L 164.289873 183.190635 
L 164.438127 182.523094 
L 164.496243 182.263545 
L 164.702953 181.336455 
L 164.90537 180.409365 
L 165.045638 179.482274 
L 165.33774 178.555184 
L 165.371237 178.511474 
L 166.261162 177.628094 
L 166.304348 177.585375 
L 167.205677 176.701003 
L 167.237458 176.672678 
L 168.170569 175.87234 
L 168.292406 175.773913 
L 168.935126 174.846823 
L 169.103679 174.54163 
L 169.407015 173.919732 
L 169.867104 172.992642 
L 170.036789 172.630906 
L 170.290263 172.065552 
L 170.736151 171.138462 
L 170.9699 170.653148 
L 171.228545 170.211371 
L 171.805741 169.284281 
L 171.90301 169.128052 
L 172.410367 168.357191 
L 172.83612 167.626153 
L 172.945008 167.4301 
L 173.333577 166.50301 
L 173.700702 165.57592 
L 173.769231 165.396177 
L 174.082547 164.648829 
L 174.477772 163.721739 
L 174.702341 163.274067 
L 174.980115 162.794649 
L 175.635452 162.045689 
L 175.792755 161.867559 
L 176.568562 161.009348 
L 176.6286 160.940468 
L 177.361293 160.013378 
L 177.501672 159.788295 
L 177.987723 159.086288 
L 178.434783 158.31529 
L 178.528703 158.159197 
L 179.161565 157.232107 
L 179.367893 157.028634 
L 180.198918 156.305017 
L 180.301003 156.2106 
L 181.234114 155.545343 
L 181.436347 155.377926 
L 182.167224 154.800425 
L 182.704519 154.450836 
L 183.100334 154.187159 
L 184.033445 153.547807 
L 184.069907 153.523746 
L 184.966555 153.066682 
L 185.899666 152.945172 
L 186.832776 152.885202 
L 187.765886 152.85469 
L 188.698997 152.783183 
L 189.632107 153.064478 
L 190.565217 153.471307 
L 190.890886 153.523746 
L 191.498328 153.622569 
L 192.431438 153.727847 
L 193.364548 154.081094 
L 193.967129 154.450836 
L 194.297659 154.69759 
L 195.032962 155.377926 
L 195.230769 155.562927 
L 195.945348 156.305017 
L 196.16388 156.531959 
L 196.838075 157.232107 
L 197.09699 157.500989 
L 197.847127 158.159197 
L 198.0301 158.331024 
L 198.74206 159.086288 
L 198.963211 159.326317 
L 199.55487 160.013378 
L 199.896321 160.552913 
L 200.111844 160.940468 
L 200.695057 161.867559 
L 200.829431 162.042822 
L 201.429304 162.794649 
L 201.762542 163.216822 
L 202.14063 163.721739 
L 202.695652 164.536279 
L 202.76651 164.648829 
L 203.275922 165.57592 
L 203.558194 166.50301 
L 203.617409 167.4301 
L 203.628763 167.543631 
L 203.720451 168.357191 
L 203.917936 169.284281 
L 204.094343 170.211371 
L 204.254521 171.138462 
L 204.371 172.065552 
L 204.213279 172.992642 
L 203.918567 173.919732 
L 203.759238 174.846823 
L 203.659297 175.773913 
L 203.628763 176.057129 
L 203.559344 176.701003 
L 203.446909 177.628094 
L 203.280363 178.555184 
L 203.135336 179.482274 
L 203.006847 180.409365 
L 202.917077 181.336455 
L 202.695652 181.82734 
L 202.436026 182.263545 
L 201.762542 183.069806 
L 201.664568 183.190635 
L 200.927801 184.117726 
L 200.829431 184.241505 
L 200.183642 185.044816 
L 199.896321 185.433544 
L 199.497915 185.971906 
L 198.963211 186.730064 
L 198.843998 186.898997 
L 198.189765 187.826087 
L 198.0301 188.05234 
L 197.538589 188.753177 
L 197.09699 189.20145 
L 196.540765 189.680268 
L 196.16388 189.946459 
L 195.230769 190.553721 
L 195.14861 190.607358 
L 194.297659 191.16942 
L 193.757483 191.534448 
L 193.364548 191.848797 
L 192.805451 192.461538 
L 192.431438 192.918986 
L 192.055136 193.388629 
L 191.498328 194.08066 
L 191.309026 194.315719 
L 190.565217 195.232985 
L 190.557248 195.242809 
L 189.805802 196.1699 
L 189.632107 196.383976 
L 188.783127 197.09699 
L 188.698997 197.150508 
L 187.765886 197.736504 
L 187.29225 198.02408 
L 186.832776 198.289583 
L 185.899666 198.862502 
L 185.76878 198.951171 
L 184.966555 199.510653 
L 184.439456 199.878261 
L 184.033445 200.161422 
L 183.110141 200.805351 
L 183.100334 200.812191 
L 182.167224 201.462956 
L 181.780819 201.732441 
L 181.234114 202.097811 
L 180.301003 202.531538 
L 180.030133 202.659532 
L 179.367893 202.986608 
L 178.434783 203.487319 
L 178.236567 203.586622 
L 177.501672 203.986539 
L 176.568562 204.470874 
L 176.483299 204.513712 
L 175.635452 204.925256 
L 174.702341 205.298123 
L 174.283721 205.440803 
L 173.769231 205.61611 
L 172.83612 205.950219 
L 171.90301 206.337886 
L 171.819933 206.367893 
L 170.9699 206.686886 
L 170.036789 206.893431 
L 169.103679 207.014021 
L 168.170569 207.127219 
L 167.237458 206.854259 
z
" clip-path="url(#p4ad42f2373)" style="fill: none; stroke-dasharray: 5.55,2.4; stroke-dashoffset: 0; stroke: #000000; stroke-width: 1.5"/>
   </g>
   <g id="PathCollection_3">
    <path d="M 162.571906 231.46123 
L 159.772575 230.96754 
L 156.040134 229.987911 
L 152.600707 228.61806 
L 149.297697 226.76388 
L 145.133957 223.055518 
L 142.976589 219.545429 
L 140.177258 214.189795 
L 139.209651 211.930435 
L 138.568084 207.294983 
L 138.246909 205.440803 
L 137.857338 203.586622 
L 137.454783 199.878261 
L 137.535493 197.09699 
L 136.661278 191.534448 
L 136.59298 190.607358 
L 136.868937 187.826087 
L 137.214863 186.898997 
L 137.680937 185.044816 
L 138.311037 183.127646 
L 138.666638 182.263545 
L 140.22672 179.482274 
L 140.994357 177.628094 
L 141.387966 174.846823 
L 141.656979 173.919732 
L 144.842809 166.99316 
L 146.944636 163.721739 
L 147.951265 161.867559 
L 150.919164 157.232107 
L 151.447656 156.305017 
L 152.307692 153.980123 
L 153.753406 150.742475 
L 155.302848 148.888294 
L 157.906355 145.957582 
L 159.772575 143.960913 
L 163.082761 139.617391 
L 163.957597 138.690301 
L 165.371237 137.019234 
L 168.170569 134.788879 
L 170.41236 133.127759 
L 171.90301 132.415206 
L 173.769231 131.827563 
L 175.635452 131.196778 
L 177.501672 130.557579 
L 180.301003 129.852721 
L 184.033445 129.111793 
L 187.765886 128.914915 
L 192.431438 129.645973 
L 194.297659 130.076853 
L 199.896321 131.65214 
L 205.494983 134.236864 
L 207.361204 135.355778 
L 209.227425 136.15914 
L 211.293882 136.83612 
L 212.959866 137.968884 
L 215.199309 139.617391 
L 216.005476 140.544482 
L 218.558528 144.012671 
L 221.454712 147.961204 
L 223.22408 151.854993 
L 223.800056 153.523746 
L 224.157191 154.510178 
L 225.798055 158.159197 
L 226.626338 161.867559 
L 228.231009 170.211371 
L 228.232874 171.138462 
L 227.377686 175.773913 
L 227.087386 182.263545 
L 226.581514 187.826087 
L 224.636838 192.461538 
L 223.665418 195.242809 
L 221.923621 198.951171 
L 221.239803 199.878261 
L 213.766897 207.294983 
L 212.026756 209.435853 
L 208.107218 212.857525 
L 201.762542 217.846469 
L 196.658356 220.274247 
L 192.431438 221.95941 
L 190.565217 223.063898 
L 186.832776 225.490154 
L 184.033445 226.897957 
L 180.979721 228.61806 
L 178.434783 229.841366 
L 175.635452 230.96234 
L 173.769231 231.25286 
L 169.103679 231.792638 
L 167.237458 231.812499 
L 163.505017 231.616302 
L 162.571906 231.46123 
L 162.571906 231.46123 
" clip-path="url(#p4ad42f2373)" style="fill: none; stroke: #000000; stroke-width: 1.5"/>
   </g>
   <g id="PathCollection_4">
    <path d="M 162.571906 254.61963 
L 161.964253 254.576589 
L 161.638796 254.553122 
L 160.705686 254.473873 
L 159.772575 254.394505 
L 158.839465 254.31389 
L 157.906355 254.130563 
L 156.973244 253.934259 
L 156.040134 253.727575 
L 155.770097 253.649498 
L 155.107023 253.45282 
L 154.173913 253.131147 
L 153.240803 252.809453 
L 152.988309 252.722408 
L 152.307692 252.487846 
L 151.374582 252.167398 
L 150.441472 251.848306 
L 150.285836 251.795318 
L 149.508361 251.528929 
L 148.575251 251.193454 
L 147.678163 250.868227 
L 147.64214 250.855168 
L 146.70903 250.511301 
L 145.77592 250.133173 
L 145.308722 249.941137 
L 144.842809 249.749625 
L 143.909699 249.366081 
L 143.071279 249.014047 
L 142.976589 248.974132 
L 142.043478 248.518058 
L 141.307117 248.086957 
L 141.110368 247.971049 
L 140.177258 247.421339 
L 139.733407 247.159866 
L 139.244147 246.871641 
L 138.311037 246.32192 
L 138.161673 246.232776 
L 137.377926 245.750262 
L 136.680236 245.305686 
L 136.444816 245.155678 
L 135.511706 244.561116 
L 135.276318 244.378595 
L 134.578595 243.76556 
L 134.225814 243.451505 
L 133.645485 242.933015 
L 133.198345 242.524415 
L 132.712375 242.080326 
L 132.183826 241.597324 
L 131.779264 241.22722 
L 131.170902 240.670234 
L 130.846154 240.37122 
L 130.167679 239.743144 
L 129.913043 239.507162 
L 129.167321 238.816054 
L 128.979933 238.637807 
L 128.193749 237.888963 
L 128.046823 237.749928 
L 127.208788 236.961873 
L 127.113712 236.864494 
L 126.464208 236.034783 
L 126.180602 235.5498 
L 125.922077 235.107692 
L 125.379935 234.180602 
L 125.247492 233.954115 
L 124.837801 233.253512 
L 124.314381 232.358424 
L 124.295667 232.326421 
L 123.753533 231.399331 
L 123.381271 230.762741 
L 123.211394 230.472241 
L 122.65368 229.545151 
L 122.448161 229.229674 
L 122.04972 228.61806 
L 121.51505 227.797362 
L 121.445738 227.69097 
L 120.871898 226.76388 
L 120.58194 226.200196 
L 120.39843 225.836789 
L 119.944089 224.909699 
L 119.648829 224.29975 
L 119.496072 223.982609 
L 119.04952 223.055518 
L 118.715719 222.333931 
L 118.632194 222.128428 
L 118.476574 221.201338 
L 118.313846 220.274247 
L 118.07729 219.347157 
L 117.841341 218.420067 
L 117.782609 218.16322 
L 117.634793 217.492977 
L 117.422599 216.565886 
L 117.163268 215.638796 
L 116.878561 214.711706 
L 116.849498 214.617696 
L 116.591951 213.784615 
L 116.30534 212.857525 
L 116.090126 211.930435 
L 115.968383 211.003344 
L 115.916388 210.642365 
L 115.833837 210.076254 
L 115.673715 209.149164 
L 115.531272 208.222074 
L 115.419957 207.294983 
L 115.310927 206.367893 
L 115.212397 205.440803 
L 115.117403 204.513712 
L 114.983278 203.631259 
L 114.976574 203.586622 
L 114.813859 202.659532 
L 114.704914 201.732441 
L 114.683819 200.805351 
L 114.663094 199.878261 
L 114.523478 198.951171 
L 114.32479 198.02408 
L 114.125124 197.09699 
L 114.050167 196.697595 
L 113.953513 196.1699 
L 113.822447 195.242809 
L 113.689816 194.315719 
L 113.557624 193.388629 
L 113.424205 192.461538 
L 113.290658 191.534448 
L 113.307991 190.607358 
L 113.343768 189.680268 
L 113.386175 188.753177 
L 113.454448 187.826087 
L 113.622339 186.898997 
L 113.818542 185.971906 
L 114.017962 185.044816 
L 114.050167 184.894192 
L 114.218776 184.117726 
L 114.422459 183.190635 
L 114.624818 182.263545 
L 114.848628 181.336455 
L 114.983278 181.066473 
L 115.302367 180.409365 
L 115.649452 179.482274 
L 115.916388 178.610373 
L 115.933606 178.555184 
L 116.193753 177.628094 
L 116.449534 176.701003 
L 116.702332 175.773913 
L 116.812364 174.846823 
L 116.849498 174.584522 
L 116.949015 173.919732 
L 117.090828 172.992642 
L 117.237979 172.065552 
L 117.386979 171.138462 
L 117.535183 170.211371 
L 117.782609 169.567244 
L 117.897557 169.284281 
L 118.298524 168.357191 
L 118.695387 167.4301 
L 118.715719 167.383804 
L 119.118844 166.50301 
L 119.541804 165.57592 
L 119.648829 165.339442 
L 119.960187 164.648829 
L 120.294876 163.721739 
L 120.58194 162.807033 
L 120.585869 162.794649 
L 120.881831 161.867559 
L 121.177446 160.940468 
L 121.458644 160.013378 
L 121.51505 159.823235 
L 121.737025 159.086288 
L 122.017959 158.159197 
L 122.330561 157.232107 
L 122.448161 157.053406 
L 123.027867 156.305017 
L 123.381271 155.853317 
L 123.75348 155.377926 
L 124.314381 154.643323 
L 124.458026 154.450836 
L 125.127837 153.523746 
L 125.247492 153.361097 
L 125.809856 152.596656 
L 126.180602 152.092694 
L 126.491884 151.669565 
L 127.113712 150.802492 
L 127.151447 150.742475 
L 127.614252 149.815385 
L 128.046823 148.968005 
L 128.087966 148.888294 
L 128.567663 147.961204 
L 128.979933 147.164421 
L 129.047356 147.034114 
L 129.527059 146.107023 
L 129.913043 145.37994 
L 130.028213 145.179933 
L 130.643585 144.252843 
L 130.846154 143.942748 
L 131.204817 143.325753 
L 131.593039 142.398662 
L 131.779264 141.95017 
L 131.977988 141.471572 
L 132.362917 140.544482 
L 132.712375 139.702824 
L 132.750277 139.617391 
L 133.362329 138.690301 
L 133.645485 138.286681 
L 134.005118 137.763211 
L 134.578595 136.955355 
L 134.666455 136.83612 
L 135.381032 135.90903 
L 135.511706 135.739489 
L 136.09559 134.98194 
L 136.444816 134.52885 
L 136.810158 134.054849 
L 137.377926 133.318225 
L 137.524729 133.127759 
L 138.2393 132.200669 
L 138.311037 132.1076 
L 138.953881 131.273579 
L 139.244147 130.896986 
L 139.676922 130.346488 
L 140.177258 129.74396 
L 140.453796 129.419398 
L 141.110368 128.598615 
L 141.195085 128.492308 
L 141.934215 127.565217 
L 142.043478 127.424918 
L 142.653497 126.638127 
L 142.976589 126.217342 
L 143.367597 125.711037 
L 143.909699 125.107476 
L 144.205953 124.783946 
L 144.842809 124.033491 
L 144.994905 123.856856 
L 145.77592 122.976917 
L 145.824663 122.929766 
L 146.70903 122.222494 
L 147.001839 122.002676 
L 147.64214 121.521976 
L 148.236721 121.075585 
L 148.575251 120.825474 
L 149.482054 120.148495 
L 149.508361 120.128907 
L 150.441472 119.434087 
L 150.727093 119.221405 
L 151.374582 118.739248 
L 151.972094 118.294314 
L 152.307692 118.041854 
L 153.225391 117.367224 
L 153.240803 117.355694 
L 154.173913 116.66377 
L 154.474704 116.440134 
L 155.107023 115.97001 
L 155.721643 115.513043 
L 156.040134 115.27625 
L 156.967582 114.585953 
L 156.973244 114.581812 
L 157.906355 114.028112 
L 158.650336 113.658863 
L 158.839465 113.564993 
L 159.772575 113.011133 
L 160.355219 112.731773 
L 160.705686 112.563733 
L 161.638796 112.116313 
L 162.288724 111.804682 
L 162.571906 111.668903 
L 163.505017 111.221479 
L 164.223735 110.877592 
L 164.438127 110.779676 
L 165.371237 110.474607 
L 166.304348 110.180969 
L 167.070012 109.950502 
L 167.237458 109.899089 
L 168.170569 109.645543 
L 169.103679 109.356422 
L 169.937696 109.023411 
L 170.036789 108.983284 
L 170.9699 108.621233 
L 171.90301 108.295259 
L 172.472492 108.096321 
L 172.83612 107.970771 
L 173.769231 107.724797 
L 174.702341 107.510685 
L 175.635452 107.301265 
L 176.233912 107.169231 
L 176.568562 107.096302 
L 177.501672 106.954007 
L 178.434783 106.819262 
L 179.367893 106.726406 
L 180.301003 106.633434 
L 181.234114 106.535315 
L 182.167224 106.491718 
L 183.100334 106.448958 
L 184.033445 106.406213 
L 184.966555 106.319823 
L 185.899666 106.387324 
L 186.832776 106.457327 
L 187.765886 106.52732 
L 188.698997 106.59733 
L 189.632107 106.667332 
L 190.565217 106.737345 
L 191.498328 106.807338 
L 192.431438 106.877338 
L 193.364548 106.947339 
L 194.297659 107.017338 
L 195.230769 107.087342 
L 196.16388 107.15746 
L 196.26135 107.169231 
L 197.09699 107.272497 
L 198.0301 107.365383 
L 198.963211 107.460745 
L 199.896321 107.478411 
L 200.829431 107.498951 
L 201.762542 107.544119 
L 202.695652 107.606608 
L 203.628763 107.741762 
L 204.561873 108.019371 
L 204.792709 108.096321 
L 205.494983 108.336336 
L 206.428094 108.655683 
L 207.361204 108.975028 
L 207.479696 109.023411 
L 208.294314 109.364832 
L 209.227425 109.775858 
L 209.630287 109.950502 
L 210.160535 110.178422 
L 211.093645 110.535387 
L 211.948771 110.877592 
L 212.026756 110.909645 
L 212.959866 111.293181 
L 213.892977 111.682618 
L 214.09632 111.804682 
L 214.826087 112.275222 
L 215.530349 112.731773 
L 215.759197 112.876576 
L 216.692308 113.486097 
L 216.947096 113.658863 
L 217.625418 114.121698 
L 218.305802 114.585953 
L 218.558528 114.758397 
L 219.491639 115.365478 
L 219.752035 115.513043 
L 220.424749 115.890695 
L 221.35786 116.427064 
L 221.378985 116.440134 
L 222.29097 116.99178 
L 222.923408 117.367224 
L 223.22408 117.547387 
L 224.157191 118.108174 
L 224.466907 118.294314 
L 225.090301 118.66897 
L 226.009537 119.221405 
L 226.023411 119.229743 
L 226.956522 119.793752 
L 227.53136 120.148495 
L 227.889632 120.369589 
L 228.822742 120.945863 
L 229.033654 121.075585 
L 229.755853 121.521277 
L 230.58803 122.002676 
L 230.688963 122.068979 
L 231.557183 122.929766 
L 231.622074 122.999783 
L 232.437629 123.856856 
L 232.555184 123.980182 
L 233.310503 124.783946 
L 233.488294 124.977397 
L 234.172182 125.711037 
L 234.421405 125.974114 
L 235.021353 126.638127 
L 235.354515 127.046135 
L 235.778393 127.565217 
L 236.287625 128.188835 
L 236.535433 128.492308 
L 237.220736 129.331527 
L 237.29249 129.419398 
L 238.049543 130.346488 
L 238.153846 130.479122 
L 238.751423 131.273579 
L 239.086957 131.727469 
L 239.439256 132.200669 
L 240.020067 132.977977 
L 240.12613 133.127759 
L 240.628 134.054849 
L 240.953177 134.706287 
L 241.099838 134.98194 
L 241.646693 135.90903 
L 241.886288 136.324314 
L 242.177871 136.83612 
L 242.700748 137.763211 
L 242.819398 137.974458 
L 243.221134 138.690301 
L 243.731647 139.617391 
L 243.752508 139.655276 
L 244.235454 140.544482 
L 244.685619 141.405623 
L 244.718938 141.471572 
L 245.15559 142.398662 
L 245.592226 143.325753 
L 245.618729 143.382023 
L 246.020673 144.252843 
L 246.333385 145.179933 
L 246.551839 145.86022 
L 246.631094 146.107023 
L 246.928804 147.034114 
L 247.226529 147.961204 
L 247.48495 148.768713 
L 247.522948 148.888294 
L 247.80087 149.815385 
L 248.078573 150.742475 
L 248.41518 151.669565 
L 248.41806 151.676756 
L 248.793787 152.596656 
L 249.106109 153.523746 
L 249.296908 154.450836 
L 249.351171 154.735804 
L 249.475257 155.377926 
L 249.639581 156.305017 
L 249.803731 157.232107 
L 249.96787 158.159197 
L 250.144698 159.086288 
L 250.284281 159.711802 
L 250.350904 160.013378 
L 250.529923 160.940468 
L 250.708944 161.867559 
L 250.876918 162.794649 
L 251.0161 163.721739 
L 251.144412 164.648829 
L 251.217391 165.18207 
L 251.271371 165.57592 
L 251.401078 166.50301 
L 251.538019 167.4301 
L 251.681872 168.357191 
L 251.790199 169.284281 
L 251.686361 170.211371 
L 251.582525 171.138462 
L 251.478687 172.065552 
L 251.374846 172.992642 
L 251.270999 173.919732 
L 251.217391 174.398335 
L 251.167157 174.846823 
L 251.06332 175.773913 
L 250.959479 176.701003 
L 250.9527 177.628094 
L 250.967765 178.555184 
L 250.951662 179.482274 
L 250.922365 180.409365 
L 250.841433 181.336455 
L 250.769185 182.263545 
L 250.724266 183.190635 
L 250.670111 184.117726 
L 250.613294 185.044816 
L 250.556483 185.971906 
L 250.501377 186.898997 
L 250.454963 187.826087 
L 250.399271 188.753177 
L 250.336346 189.680268 
L 250.284281 190.46359 
L 250.274725 190.607358 
L 250.213105 191.534448 
L 250.15148 192.461538 
L 250.086576 193.388629 
L 249.7217 194.315719 
L 249.351171 195.129149 
L 249.300904 195.242809 
L 248.864305 196.1699 
L 248.427693 197.09699 
L 248.41806 197.118355 
L 247.994555 198.02408 
L 247.581867 198.951171 
L 247.48495 199.164175 
L 247.170967 199.878261 
L 246.82701 200.805351 
L 246.551839 201.547019 
L 246.483045 201.732441 
L 246.151497 202.659532 
L 245.848862 203.586622 
L 245.618729 204.291668 
L 245.546251 204.513712 
L 245.235423 205.440803 
L 244.9063 206.367893 
L 244.685619 206.989485 
L 244.577158 207.294983 
L 244.248032 208.222074 
L 243.918914 209.149164 
L 243.752508 209.563333 
L 243.53949 210.076254 
L 242.998995 211.003344 
L 242.819398 211.283054 
L 242.403728 211.930435 
L 241.886288 212.688365 
L 241.763876 212.857525 
L 241.090897 213.784615 
L 240.953177 213.974336 
L 240.397239 214.711706 
L 240.020067 215.112947 
L 239.469702 215.638796 
L 239.086957 215.993307 
L 238.468757 216.565886 
L 238.153846 216.857562 
L 237.462827 217.492977 
L 237.220736 217.69583 
L 236.287625 218.393412 
L 236.252983 218.420067 
L 235.354515 219.112176 
L 235.048933 219.347157 
L 234.421405 219.828104 
L 233.868084 220.274247 
L 233.488294 220.591062 
L 232.781619 221.201338 
L 232.555184 221.433509 
L 231.950091 222.128428 
L 231.622074 222.505317 
L 231.139242 223.055518 
L 230.688963 223.573541 
L 230.329956 223.982609 
L 229.755853 224.644108 
L 229.523091 224.909699 
L 228.822742 225.715323 
L 228.71647 225.836789 
L 227.904428 226.76388 
L 227.889632 226.780913 
L 227.041921 227.69097 
L 226.956522 227.771094 
L 226.023411 228.548381 
L 225.939841 228.61806 
L 225.090301 229.325877 
L 224.827356 229.545151 
L 224.157191 230.097018 
L 223.677752 230.472241 
L 223.22408 230.798049 
L 222.373884 231.399331 
L 222.29097 231.458144 
L 221.35786 232.103567 
L 221.035837 232.326421 
L 220.424749 232.749316 
L 219.696207 233.253512 
L 219.491639 233.395086 
L 218.558528 234.040839 
L 218.356572 234.180602 
L 217.625418 234.707147 
L 217.106616 235.107692 
L 216.692308 235.431072 
L 215.896045 236.034783 
L 215.759197 236.139827 
L 214.826087 236.856083 
L 214.688266 236.961873 
L 213.892977 237.472158 
L 212.959866 237.818473 
L 212.762715 237.888963 
L 212.026756 238.148247 
L 211.093645 238.456102 
L 210.160535 238.777413 
L 210.069487 238.816054 
L 209.227425 239.171749 
L 208.294314 239.583376 
L 207.946047 239.743144 
L 207.361204 240.015776 
L 206.428094 240.450773 
L 205.943512 240.670234 
L 205.494983 240.870802 
L 204.561873 241.276154 
L 203.822527 241.597324 
L 203.628763 241.681484 
L 202.695652 242.104821 
L 201.879581 242.524415 
L 201.762542 242.58462 
L 200.829431 243.090494 
L 200.196426 243.451505 
L 199.896321 243.622656 
L 198.963211 244.158241 
L 198.582662 244.378595 
L 198.0301 244.698562 
L 197.09699 245.232862 
L 196.966296 245.305686 
L 196.16388 245.753805 
L 195.306207 246.232776 
L 195.230769 246.275596 
L 194.297659 246.805237 
L 193.69119 247.159866 
L 193.364548 247.352179 
L 192.431438 247.933979 
L 192.10914 248.086957 
L 191.498328 248.368617 
L 190.565217 248.799435 
L 190.102433 249.014047 
L 189.632107 249.232153 
L 188.698997 249.664882 
L 188.103305 249.941137 
L 187.765886 250.097617 
L 186.832776 250.53035 
L 186.104204 250.868227 
L 185.899666 250.963082 
L 184.966555 251.395815 
L 184.105074 251.795318 
L 184.033445 251.828535 
L 183.100334 252.261277 
L 182.167224 252.657535 
L 181.960115 252.722408 
L 181.234114 252.933312 
L 180.301003 253.05952 
L 179.367893 253.185732 
L 178.434783 253.311939 
L 177.501672 253.438152 
L 176.568562 253.525148 
L 175.635452 253.598708 
L 175.289246 253.649498 
L 174.702341 253.735599 
L 173.769231 253.872466 
L 172.83612 254.009335 
L 171.90301 254.146228 
L 170.9699 254.283108 
L 170.036789 254.419982 
L 169.103679 254.531667 
L 168.713044 254.576589 
L 168.170569 254.638973 
L 167.237458 254.728268 
L 166.304348 254.758595 
L 165.371237 254.724489 
L 164.438127 254.689613 
L 163.505017 254.654629 
L 162.571906 254.61963 
z
" clip-path="url(#p4ad42f2373)" style="fill: none; stroke: #000000; stroke-width: 1.5"/>
   </g>
   <g id="patch_3">
    <path d="M 45 320.4 
L 45 43.2 
" style="fill: none; stroke: #000000; stroke-width: 0.8; stroke-linejoin: miter; stroke-linecap: square"/>
   </g>
   <g id="patch_4">
    <path d="M 324 320.4 
L 324 43.2 
" style="fill: none; stroke: #000000; stroke-width: 0.8; stroke-linejoin: miter; stroke-linecap: square"/>
   </g>
   <g id="patch_5">
    <path d="M 45 320.4 
L 324 320.4 
" style="fill: none; stroke: #000000; stroke-width: 0.8; stroke-linejoin: miter; stroke-linecap: square"/>
   </g>
   <g id="patch_6">
    <path d="M 45 43.2 
L 324 43.2 
" style="fill: none; stroke: #000000; stroke-width: 0.8; stroke-linejoin: miter; stroke-linecap: square"/>
   </g>
  </g>
 </g>
 <defs>
  <clipPath id="p4ad42f2373">
   <rect x="45" y="43.2" width="279" height="277.2"/>
  </clipPath>
 </defs>
</svg>
