<?xml version="1.0" encoding="utf-8" standalone="no"?>
<!DOCTYPE svg PUBLIC "-//W3C//DTD SVG 1.1//EN"
  "http://www.w3.org/Graphics/SVG/1.1/DTD/svg11.dtd">
<svg xmlns:xlink="http://www.w3.org/1999/xlink" width="360pt" height="360pt" viewBox="0 0 360 360" xmlns="http://www.w3.org/2000/svg" version="1.1">
 <metadata>
  <rdf:RDF xmlns:dc="http://purl.org/dc/elements/1.1/" xmlns:cc="http://creativecommons.org/ns#" xmlns:rdf="http://www.w3.org/1999/02/22-rdf-syntax-ns#">
   <cc:Work>
    <dc:type rdf:resource="http://purl.org/dc/dcmitype/StillImage"/>
    <dc:date>2022-04-10T19:53:35.704608</dc:date>
    <dc:format>image/svg+xml</dc:format>
    <dc:creator>
     <cc:Agent>
      <dc:title>Matplotlib v3.5.1, https://matplotlib.org/</dc:title>
     </cc:Agent>
    </dc:creator>
   </cc:Work>
  </rdf:RDF>
 </metadata>
 <defs>
  <style type="text/css">*{stroke-linejoin: round; stroke-linecap: butt}</style>
 </defs>
 <g id="figure_1">
  <g id="patch_1">
   <path d="M 0 360 
L 360 360 
L 360 0 
L 0 0 
z
" style="fill: #ffffff"/>
  </g>
  <g id="axes_1">
   <g id="patch_2">
    <path d="M 45 320.4 
L 324 320.4 
L 324 43.2 
L 45 43.2 
z
" style="fill: #ffffff"/>
   </g>
   <g id="PathCollection_1">
    <defs>
     <path id="mf2517e0831" d="M 0 0.5 
C 0.132602 0.5 0.25979 0.447317 0.353553 0.353553 
C 0.447317 0.25979 0.5 0.132602 0.5 0 
C 0.5 -0.132602 0.447317 -0.25979 0.353553 -0.353553 
C 0.25979 -0.447317 0.132602 -0.5 0 -0.5 
C -0.132602 -0.5 -0.25979 -0.447317 -0.353553 -0.353553 
C -0.447317 -0.25979 -0.5 -0.132602 -0.5 0 
C -0.5 0.132602 -0.447317 0.25979 -0.353553 0.353553 
C -0.25979 0.447317 -0.132602 0.5 0 0.5 
z
" style="stroke: #ff0000"/>
    </defs>
    <g clip-path="url(#p979d891cb4)">
     <use xlink:href="#mf2517e0831" x="228.014398" y="181.336455" style="fill: #ff0000; stroke: #ff0000"/>
     <use xlink:href="#mf2517e0831" x="226.800717" y="177.242732" style="fill: #ff0000; stroke: #ff0000"/>
     <use xlink:href="#mf2517e0831" x="225.04913" y="173.414973" style="fill: #ff0000; stroke: #ff0000"/>
     <use xlink:href="#mf2517e0831" x="223.022318" y="169.866843" style="fill: #ff0000; stroke: #ff0000"/>
     <use xlink:href="#mf2517e0831" x="220.927079" y="166.537217" style="fill: #ff0000; stroke: #ff0000"/>
     <use xlink:href="#mf2517e0831" x="218.858504" y="163.337706" style="fill: #ff0000; stroke: #ff0000"/>
     <use xlink:href="#mf2517e0831" x="216.792218" y="160.208422" style="fill: #ff0000; stroke: #ff0000"/>
     <use xlink:href="#mf2517e0831" x="214.62" y="157.157507" style="fill: #ff0000; stroke: #ff0000"/>
     <use xlink:href="#mf2517e0831" x="212.208644" y="154.270122" style="fill: #ff0000; stroke: #ff0000"/>
     <use xlink:href="#mf2517e0831" x="209.458372" y="151.685628" style="fill: #ff0000; stroke: #ff0000"/>
     <use xlink:href="#mf2517e0831" x="206.340725" y="149.554128" style="fill: #ff0000; stroke: #ff0000"/>
     <use xlink:href="#mf2517e0831" x="202.904786" y="147.992902" style="fill: #ff0000; stroke: #ff0000"/>
     <use xlink:href="#mf2517e0831" x="199.255268" y="147.063005" style="fill: #ff0000; stroke: #ff0000"/>
     <use xlink:href="#mf2517e0831" x="195.519735" y="146.771729" style="fill: #ff0000; stroke: #ff0000"/>
     <use xlink:href="#mf2517e0831" x="191.823459" y="147.08687" style="fill: #ff0000; stroke: #ff0000"/>
     <use xlink:href="#mf2517e0831" x="188.276866" y="147.943145" style="fill: #ff0000; stroke: #ff0000"/>
     <use xlink:href="#mf2517e0831" x="184.966555" y="149.236" style="fill: #ff0000; stroke: #ff0000"/>
     <use xlink:href="#mf2517e0831" x="181.941158" y="150.817258" style="fill: #ff0000; stroke: #ff0000"/>
     <use xlink:href="#mf2517e0831" x="179.195194" y="152.509052" style="fill: #ff0000; stroke: #ff0000"/>
     <use xlink:href="#mf2517e0831" x="176.662137" y="154.137078" style="fill: #ff0000; stroke: #ff0000"/>
     <use xlink:href="#mf2517e0831" x="174.224067" y="155.569114" style="fill: #ff0000; stroke: #ff0000"/>
     <use xlink:href="#mf2517e0831" x="171.735915" y="156.743363" style="fill: #ff0000; stroke: #ff0000"/>
     <use xlink:href="#mf2517e0831" x="169.05649" y="157.67898" style="fill: #ff0000; stroke: #ff0000"/>
     <use xlink:href="#mf2517e0831" x="166.077547" y="158.468625" style="fill: #ff0000; stroke: #ff0000"/>
     <use xlink:href="#mf2517e0831" x="162.744223" y="159.257492" style="fill: #ff0000; stroke: #ff0000"/>
     <use xlink:href="#mf2517e0831" x="159.065335" y="160.217012" style="fill: #ff0000; stroke: #ff0000"/>
     <use xlink:href="#mf2517e0831" x="155.118707" y="161.521429" style="fill: #ff0000; stroke: #ff0000"/>
     <use xlink:href="#mf2517e0831" x="151.057301" y="163.328516" style="fill: #ff0000; stroke: #ff0000"/>
     <use xlink:href="#mf2517e0831" x="147.11104" y="165.75735" style="fill: #ff0000; stroke: #ff0000"/>
     <use xlink:href="#mf2517e0831" x="143.565772" y="168.858689" style="fill: #ff0000; stroke: #ff0000"/>
     <use xlink:href="#mf2517e0831" x="140.704572" y="172.589001" style="fill: #ff0000; stroke: #ff0000"/>
     <use xlink:href="#mf2517e0831" x="138.724156" y="176.81136" style="fill: #ff0000; stroke: #ff0000"/>
     <use xlink:href="#mf2517e0831" x="137.669831" y="181.336455" style="fill: #ff0000; stroke: #ff0000"/>
     <use xlink:href="#mf2517e0831" x="137.433609" y="185.987838" style="fill: #ff0000; stroke: #ff0000"/>
     <use xlink:href="#mf2517e0831" x="137.823549" y="190.653283" style="fill: #ff0000; stroke: #ff0000"/>
     <use xlink:href="#mf2517e0831" x="138.665756" y="195.291035" style="fill: #ff0000; stroke: #ff0000"/>
     <use xlink:href="#mf2517e0831" x="139.881527" y="199.890802" style="fill: #ff0000; stroke: #ff0000"/>
     <use xlink:href="#mf2517e0831" x="141.502284" y="204.418707" style="fill: #ff0000; stroke: #ff0000"/>
     <use xlink:href="#mf2517e0831" x="143.623642" y="208.782684" style="fill: #ff0000; stroke: #ff0000"/>
     <use xlink:href="#mf2517e0831" x="146.330234" y="212.839896" style="fill: #ff0000; stroke: #ff0000"/>
     <use xlink:href="#mf2517e0831" x="149.632637" y="216.442412" style="fill: #ff0000; stroke: #ff0000"/>
     <use xlink:href="#mf2517e0831" x="153.447697" y="219.494515" style="fill: #ff0000; stroke: #ff0000"/>
     <use xlink:href="#mf2517e0831" x="157.628801" y="221.986334" style="fill: #ff0000; stroke: #ff0000"/>
     <use xlink:href="#mf2517e0831" x="162.024045" y="223.981953" style="fill: #ff0000; stroke: #ff0000"/>
     <use xlink:href="#mf2517e0831" x="166.525592" y="225.569649" style="fill: #ff0000; stroke: #ff0000"/>
     <use xlink:href="#mf2517e0831" x="171.083953" y="226.806004" style="fill: #ff0000; stroke: #ff0000"/>
     <use xlink:href="#mf2517e0831" x="175.687255" y="227.685678" style="fill: #ff0000; stroke: #ff0000"/>
     <use xlink:href="#mf2517e0831" x="180.326157" y="228.147244" style="fill: #ff0000; stroke: #ff0000"/>
     <use xlink:href="#mf2517e0831" x="184.966555" y="228.102753" style="fill: #ff0000; stroke: #ff0000"/>
     <use xlink:href="#mf2517e0831" x="189.539974" y="227.471576" style="fill: #ff0000; stroke: #ff0000"/>
     <use xlink:href="#mf2517e0831" x="193.949954" y="226.207679" style="fill: #ff0000; stroke: #ff0000"/>
     <use xlink:href="#mf2517e0831" x="198.090203" y="224.32021" style="fill: #ff0000; stroke: #ff0000"/>
     <use xlink:href="#mf2517e0831" x="201.872512" y="221.887724" style="fill: #ff0000; stroke: #ff0000"/>
     <use xlink:href="#mf2517e0831" x="205.260021" y="219.057915" style="fill: #ff0000; stroke: #ff0000"/>
     <use xlink:href="#mf2517e0831" x="208.292461" y="216.020915" style="fill: #ff0000; stroke: #ff0000"/>
     <use xlink:href="#mf2517e0831" x="211.084315" y="212.955717" style="fill: #ff0000; stroke: #ff0000"/>
     <use xlink:href="#mf2517e0831" x="213.785849" y="209.969818" style="fill: #ff0000; stroke: #ff0000"/>
     <use xlink:href="#mf2517e0831" x="216.518207" y="207.06317" style="fill: #ff0000; stroke: #ff0000"/>
     <use xlink:href="#mf2517e0831" x="219.311637" y="204.137049" style="fill: #ff0000; stroke: #ff0000"/>
     <use xlink:href="#mf2517e0831" x="222.075529" y="201.043646" style="fill: #ff0000; stroke: #ff0000"/>
     <use xlink:href="#mf2517e0831" x="224.612208" y="197.652275" style="fill: #ff0000; stroke: #ff0000"/>
     <use xlink:href="#mf2517e0831" x="226.667458" y="193.904674" style="fill: #ff0000; stroke: #ff0000"/>
     <use xlink:href="#mf2517e0831" x="228.000839" y="189.84128" style="fill: #ff0000; stroke: #ff0000"/>
     <use xlink:href="#mf2517e0831" x="228.456553" y="185.592211" style="fill: #ff0000; stroke: #ff0000"/>
    </g>
   </g>
   <g id="matplotlib.axis_1">
    <g id="xtick_1">
     <g id="line2d_1">
      <defs>
       <path id="mfdf28a5de9" d="M 0 0 
L 0 3.5 
" style="stroke: #000000; stroke-width: 0.8"/>
      </defs>
      <g>
       <use xlink:href="#mfdf28a5de9" x="45" y="320.4" style="stroke: #000000; stroke-width: 0.8"/>
      </g>
     </g>
     <g id="text_1">
      <!-- −3 -->
      <g transform="translate(37.628906 334.998438)scale(0.1 -0.1)">
       <defs>
        <path id="DejaVuSans-2212" d="M 678 2272 
L 4684 2272 
L 4684 1741 
L 678 1741 
L 678 2272 
z
" transform="scale(0.015625)"/>
        <path id="DejaVuSans-33" d="M 2597 2516 
Q 3050 2419 3304 2112 
Q 3559 1806 3559 1356 
Q 3559 666 3084 287 
Q 2609 -91 1734 -91 
Q 1441 -91 1130 -33 
Q 819 25 488 141 
L 488 750 
Q 750 597 1062 519 
Q 1375 441 1716 441 
Q 2309 441 2620 675 
Q 2931 909 2931 1356 
Q 2931 1769 2642 2001 
Q 2353 2234 1838 2234 
L 1294 2234 
L 1294 2753 
L 1863 2753 
Q 2328 2753 2575 2939 
Q 2822 3125 2822 3475 
Q 2822 3834 2567 4026 
Q 2313 4219 1838 4219 
Q 1578 4219 1281 4162 
Q 984 4106 628 3988 
L 628 4550 
Q 988 4650 1302 4700 
Q 1616 4750 1894 4750 
Q 2613 4750 3031 4423 
Q 3450 4097 3450 3541 
Q 3450 3153 3228 2886 
Q 3006 2619 2597 2516 
z
" transform="scale(0.015625)"/>
       </defs>
       <use xlink:href="#DejaVuSans-2212"/>
       <use xlink:href="#DejaVuSans-33" x="83.789062"/>
      </g>
     </g>
    </g>
    <g id="xtick_2">
     <g id="line2d_2">
      <g>
       <use xlink:href="#mfdf28a5de9" x="91.655518" y="320.4" style="stroke: #000000; stroke-width: 0.8"/>
      </g>
     </g>
     <g id="text_2">
      <!-- −2 -->
      <g transform="translate(84.284425 334.998438)scale(0.1 -0.1)">
       <defs>
        <path id="DejaVuSans-32" d="M 1228 531 
L 3431 531 
L 3431 0 
L 469 0 
L 469 531 
Q 828 903 1448 1529 
Q 2069 2156 2228 2338 
Q 2531 2678 2651 2914 
Q 2772 3150 2772 3378 
Q 2772 3750 2511 3984 
Q 2250 4219 1831 4219 
Q 1534 4219 1204 4116 
Q 875 4013 500 3803 
L 500 4441 
Q 881 4594 1212 4672 
Q 1544 4750 1819 4750 
Q 2544 4750 2975 4387 
Q 3406 4025 3406 3419 
Q 3406 3131 3298 2873 
Q 3191 2616 2906 2266 
Q 2828 2175 2409 1742 
Q 1991 1309 1228 531 
z
" transform="scale(0.015625)"/>
       </defs>
       <use xlink:href="#DejaVuSans-2212"/>
       <use xlink:href="#DejaVuSans-32" x="83.789062"/>
      </g>
     </g>
    </g>
    <g id="xtick_3">
     <g id="line2d_3">
      <g>
       <use xlink:href="#mfdf28a5de9" x="138.311037" y="320.4" style="stroke: #000000; stroke-width: 0.8"/>
      </g>
     </g>
     <g id="text_3">
      <!-- −1 -->
      <g transform="translate(130.939943 334.998438)scale(0.1 -0.1)">
       <defs>
        <path id="DejaVuSans-31" d="M 794 531 
L 1825 531 
L 1825 4091 
L 703 3866 
L 703 4441 
L 1819 4666 
L 2450 4666 
L 2450 531 
L 3481 531 
L 3481 0 
L 794 0 
L 794 531 
z
" transform="scale(0.015625)"/>
       </defs>
       <use xlink:href="#DejaVuSans-2212"/>
       <use xlink:href="#DejaVuSans-31" x="83.789062"/>
      </g>
     </g>
    </g>
    <g id="xtick_4">
     <g id="line2d_4">
      <g>
       <use xlink:href="#mfdf28a5de9" x="184.966555" y="320.4" style="stroke: #000000; stroke-width: 0.8"/>
      </g>
     </g>
     <g id="text_4">
      <!-- 0 -->
      <g transform="translate(181.785305 334.998438)scale(0.1 -0.1)">
       <defs>
        <path id="DejaVuSans-30" d="M 2034 4250 
Q 1547 4250 1301 3770 
Q 1056 3291 1056 2328 
Q 1056 1369 1301 889 
Q 1547 409 2034 409 
Q 2525 409 2770 889 
Q 3016 1369 3016 2328 
Q 3016 3291 2770 3770 
Q 2525 4250 2034 4250 
z
M 2034 4750 
Q 2819 4750 3233 4129 
Q 3647 3509 3647 2328 
Q 3647 1150 3233 529 
Q 2819 -91 2034 -91 
Q 1250 -91 836 529 
Q 422 1150 422 2328 
Q 422 3509 836 4129 
Q 1250 4750 2034 4750 
z
" transform="scale(0.015625)"/>
       </defs>
       <use xlink:href="#DejaVuSans-30"/>
      </g>
     </g>
    </g>
    <g id="xtick_5">
     <g id="line2d_5">
      <g>
       <use xlink:href="#mfdf28a5de9" x="231.622074" y="320.4" style="stroke: #000000; stroke-width: 0.8"/>
      </g>
     </g>
     <g id="text_5">
      <!-- 1 -->
      <g transform="translate(228.440824 334.998438)scale(0.1 -0.1)">
       <use xlink:href="#DejaVuSans-31"/>
      </g>
     </g>
    </g>
    <g id="xtick_6">
     <g id="line2d_6">
      <g>
       <use xlink:href="#mfdf28a5de9" x="278.277592" y="320.4" style="stroke: #000000; stroke-width: 0.8"/>
      </g>
     </g>
     <g id="text_6">
      <!-- 2 -->
      <g transform="translate(275.096342 334.998438)scale(0.1 -0.1)">
       <use xlink:href="#DejaVuSans-32"/>
      </g>
     </g>
    </g>
   </g>
   <g id="matplotlib.axis_2">
    <g id="ytick_1">
     <g id="line2d_7">
      <defs>
       <path id="m1540e42a9c" d="M 0 0 
L -3.5 0 
" style="stroke: #000000; stroke-width: 0.8"/>
      </defs>
      <g>
       <use xlink:href="#m1540e42a9c" x="45" y="320.4" style="stroke: #000000; stroke-width: 0.8"/>
      </g>
     </g>
     <g id="text_7">
      <!-- −3 -->
      <g transform="translate(23.257812 324.199219)scale(0.1 -0.1)">
       <use xlink:href="#DejaVuSans-2212"/>
       <use xlink:href="#DejaVuSans-33" x="83.789062"/>
      </g>
     </g>
    </g>
    <g id="ytick_2">
     <g id="line2d_8">
      <g>
       <use xlink:href="#m1540e42a9c" x="45" y="274.045485" style="stroke: #000000; stroke-width: 0.8"/>
      </g>
     </g>
     <g id="text_8">
      <!-- −2 -->
      <g transform="translate(23.257812 277.844704)scale(0.1 -0.1)">
       <use xlink:href="#DejaVuSans-2212"/>
       <use xlink:href="#DejaVuSans-32" x="83.789062"/>
      </g>
     </g>
    </g>
    <g id="ytick_3">
     <g id="line2d_9">
      <g>
       <use xlink:href="#m1540e42a9c" x="45" y="227.69097" style="stroke: #000000; stroke-width: 0.8"/>
      </g>
     </g>
     <g id="text_9">
      <!-- −1 -->
      <g transform="translate(23.257812 231.490189)scale(0.1 -0.1)">
       <use xlink:href="#DejaVuSans-2212"/>
       <use xlink:href="#DejaVuSans-31" x="83.789062"/>
      </g>
     </g>
    </g>
    <g id="ytick_4">
     <g id="line2d_10">
      <g>
       <use xlink:href="#m1540e42a9c" x="45" y="181.336455" style="stroke: #000000; stroke-width: 0.8"/>
      </g>
     </g>
     <g id="text_10">
      <!-- 0 -->
      <g transform="translate(31.6375 185.135674)scale(0.1 -0.1)">
       <use xlink:href="#DejaVuSans-30"/>
      </g>
     </g>
    </g>
    <g id="ytick_5">
     <g id="line2d_11">
      <g>
       <use xlink:href="#m1540e42a9c" x="45" y="134.98194" style="stroke: #000000; stroke-width: 0.8"/>
      </g>
     </g>
     <g id="text_11">
      <!-- 1 -->
      <g transform="translate(31.6375 138.781159)scale(0.1 -0.1)">
       <use xlink:href="#DejaVuSans-31"/>
      </g>
     </g>
    </g>
    <g id="ytick_6">
     <g id="line2d_12">
      <g>
       <use xlink:href="#m1540e42a9c" x="45" y="88.627425" style="stroke: #000000; stroke-width: 0.8"/>
      </g>
     </g>
     <g id="text_12">
      <!-- 2 -->
      <g transform="translate(31.6375 92.426643)scale(0.1 -0.1)">
       <use xlink:href="#DejaVuSans-32"/>
      </g>
     </g>
    </g>
   </g>
   <g id="PathCollection_2">
    <path d="M 173.769231 204.022062 
L 172.900772 203.586622 
L 172.83612 203.554115 
L 171.90301 203.067486 
L 171.092863 202.659532 
L 170.9699 202.603372 
L 170.036789 202.340743 
L 169.103679 202.05895 
L 168.261644 201.732441 
L 168.170569 201.694114 
L 167.237458 200.856789 
L 167.194594 200.805351 
L 166.468505 199.878261 
L 166.304348 199.671418 
L 165.757065 198.951171 
L 165.371237 198.487979 
L 165.013275 198.02408 
L 164.438127 197.401366 
L 164.158248 197.09699 
L 163.629533 196.1699 
L 163.505017 195.929514 
L 163.141174 195.242809 
L 162.920827 194.315719 
L 162.729382 193.388629 
L 162.571906 192.821931 
L 162.465079 192.461538 
L 162.167425 191.534448 
L 162.014806 190.607358 
L 161.912583 189.680268 
L 161.992147 188.753177 
L 162.571906 188.061634 
L 162.792165 187.826087 
L 163.505017 187.194784 
L 163.840308 186.898997 
L 164.438127 186.371608 
L 164.891215 185.971906 
L 165.371237 185.489515 
L 165.798162 185.044816 
L 166.304348 184.310982 
L 166.438918 184.117726 
L 167.237458 183.368244 
L 167.48883 183.190635 
L 168.170569 182.819273 
L 169.103679 182.323075 
L 169.187961 182.263545 
L 170.036789 181.628363 
L 170.41281 181.336455 
L 170.9699 180.90676 
L 171.582131 180.409365 
L 171.90301 180.165785 
L 172.805268 179.482274 
L 172.83612 179.461715 
L 173.769231 178.918951 
L 174.54586 178.555184 
L 174.702341 178.482776 
L 175.635452 178.051005 
L 176.457942 177.628094 
L 176.568562 177.569219 
L 177.501672 177.04614 
L 178.388462 176.701003 
L 178.434783 176.683952 
L 179.367893 176.255954 
L 180.301003 175.846983 
L 180.440865 175.773913 
L 181.234114 175.354816 
L 182.167224 174.948152 
L 182.559771 174.846823 
L 183.100334 174.685984 
L 184.033445 174.375428 
L 184.966555 174.052171 
L 185.354365 173.919732 
L 185.899666 173.734388 
L 186.832776 173.395319 
L 187.319658 172.992642 
L 187.765886 172.663435 
L 188.698997 172.235325 
L 189.555404 172.065552 
L 189.632107 172.052497 
L 190.565217 171.899667 
L 191.498328 172.033926 
L 191.64742 172.065552 
L 192.431438 172.23186 
L 193.364548 172.474481 
L 194.297659 172.686463 
L 195.230769 172.799832 
L 195.851874 172.992642 
L 196.16388 173.089515 
L 197.09699 173.410336 
L 198.0301 173.756363 
L 198.210563 173.919732 
L 198.910878 174.846823 
L 198.963211 174.92102 
L 199.555677 175.773913 
L 199.896321 176.224466 
L 200.281037 176.701003 
L 200.829431 177.333258 
L 201.08516 177.628094 
L 201.762542 178.409056 
L 201.889112 178.555184 
L 202.693159 179.482274 
L 202.695652 179.485449 
L 203.374648 180.409365 
L 203.624709 181.336455 
L 203.532029 182.263545 
L 203.448054 183.190635 
L 203.447433 184.117726 
L 203.492894 185.044816 
L 203.536586 185.971906 
L 203.200275 186.898997 
L 202.695652 187.735038 
L 202.63886 187.826087 
L 201.987715 188.753177 
L 201.762542 189.035977 
L 201.232031 189.680268 
L 200.829431 190.175351 
L 200.491731 190.607358 
L 199.896321 191.38642 
L 199.78268 191.534448 
L 198.963211 192.334242 
L 198.821199 192.461538 
L 198.0301 193.172491 
L 197.803786 193.388629 
L 197.09699 193.964431 
L 196.558697 194.315719 
L 196.16388 194.578335 
L 195.230769 195.19884 
L 195.164854 195.242809 
L 194.297659 195.886175 
L 193.96374 196.1699 
L 193.364548 196.745284 
L 192.998301 197.09699 
L 192.431438 197.671288 
L 192.082291 198.02408 
L 191.498328 198.66659 
L 191.091424 198.951171 
L 190.565217 199.246278 
L 189.632107 199.829649 
L 189.559001 199.878261 
L 188.698997 200.459974 
L 188.192486 200.805351 
L 187.765886 201.117182 
L 186.97661 201.732441 
L 186.832776 201.856618 
L 185.899666 202.628458 
L 185.860275 202.659532 
L 184.966555 203.297884 
L 184.536871 203.586622 
L 184.033445 203.905501 
L 183.100334 203.984116 
L 182.167224 204.026669 
L 181.234114 204.075993 
L 180.301003 204.12533 
L 179.367893 204.177786 
L 178.434783 204.244973 
L 177.501672 204.298379 
L 176.568562 204.353975 
L 175.635452 204.409463 
L 174.702341 204.334487 
L 173.769231 204.022062 
z
" clip-path="url(#p979d891cb4)" style="fill: none; stroke-dasharray: 5.55,2.4; stroke-dashoffset: 0; stroke: #000000; stroke-width: 1.5"/>
   </g>
   <g id="PathCollection_3">
    <path d="M 171.90301 227.83683 
L 171.088523 227.69097 
L 170.9699 227.663921 
L 170.036789 227.474873 
L 169.103679 227.308478 
L 168.170569 227.067539 
L 167.377502 226.76388 
L 167.237458 226.703461 
L 166.304348 226.401713 
L 165.371237 226.027075 
L 164.991392 225.836789 
L 164.438127 225.621435 
L 163.505017 225.29782 
L 162.863587 224.909699 
L 162.571906 224.759376 
L 161.638796 224.2311 
L 161.217818 223.982609 
L 160.705686 223.759412 
L 159.772575 223.319487 
L 159.227251 223.055518 
L 158.839465 222.922604 
L 157.906355 222.535386 
L 157.268259 222.128428 
L 156.973244 221.982345 
L 156.040134 221.412493 
L 155.683464 221.201338 
L 155.107023 220.938592 
L 154.173913 220.303151 
L 154.123772 220.274247 
L 153.240803 219.865944 
L 152.447135 219.347157 
L 152.307692 219.260604 
L 151.374582 218.789583 
L 150.881821 218.420067 
L 150.441472 218.112282 
L 149.717234 217.492977 
L 149.508361 217.322769 
L 148.681453 216.565886 
L 148.575251 216.464424 
L 147.787503 215.638796 
L 147.64214 215.444972 
L 147.113006 214.711706 
L 146.728099 213.784615 
L 146.70903 213.76336 
L 146.101137 212.857525 
L 145.77592 212.185088 
L 145.616607 211.930435 
L 145.07603 211.003344 
L 144.842809 210.723304 
L 144.294686 210.076254 
L 143.909699 209.578645 
L 143.55127 209.149164 
L 142.976589 208.380186 
L 142.844348 208.222074 
L 142.206417 207.294983 
L 142.043478 207.132457 
L 141.393824 206.367893 
L 141.110368 205.834081 
L 140.881251 205.440803 
L 140.51997 204.513712 
L 140.177258 203.646919 
L 140.152193 203.586622 
L 139.774705 202.659532 
L 139.309984 201.732441 
L 139.244147 201.630701 
L 138.826772 200.805351 
L 138.386733 199.878261 
L 138.311037 199.749929 
L 137.947296 198.951171 
L 137.637676 198.02408 
L 137.377926 197.369266 
L 137.281554 197.09699 
L 136.940421 196.1699 
L 136.889035 195.242809 
L 136.926022 194.315719 
L 136.961499 193.388629 
L 136.999815 192.461538 
L 137.028681 191.534448 
L 137.06376 190.607358 
L 137.112749 189.680268 
L 137.206099 188.753177 
L 137.260376 187.826087 
L 137.307225 186.898997 
L 137.339903 185.971906 
L 137.367488 185.044816 
L 137.377926 184.707037 
L 137.481544 184.117726 
L 137.812989 183.190635 
L 138.068529 182.263545 
L 138.299408 181.336455 
L 138.311037 181.222025 
L 138.544473 180.409365 
L 138.758836 179.482274 
L 138.995548 178.555184 
L 139.244147 177.805136 
L 139.324168 177.628094 
L 139.714734 176.701003 
L 140.043216 175.773913 
L 140.177258 175.373844 
L 140.393934 174.846823 
L 140.70541 173.919732 
L 141.110368 173.460314 
L 141.526149 172.992642 
L 142.043478 172.418354 
L 142.356472 172.065552 
L 142.976589 171.36821 
L 143.179165 171.138462 
L 143.909699 170.30739 
L 144.006236 170.211371 
L 144.792076 169.284281 
L 144.842809 169.225006 
L 145.565137 168.357191 
L 145.77592 168.118739 
L 146.381146 167.4301 
L 146.70903 167.049059 
L 147.154612 166.50301 
L 147.64214 165.938808 
L 147.960803 165.57592 
L 148.575251 164.972879 
L 148.938251 164.648829 
L 149.508361 164.172761 
L 150.441472 163.722828 
L 150.442917 163.721739 
L 151.374582 163.177671 
L 152.307692 162.875496 
L 152.44623 162.794649 
L 153.240803 162.370071 
L 154.173913 162.095993 
L 154.824867 161.867559 
L 155.107023 161.732661 
L 156.040134 161.361568 
L 156.973244 161.013519 
L 157.08816 160.940468 
L 157.906355 160.46648 
L 158.839465 160.10533 
L 158.984522 160.013378 
L 159.772575 159.557704 
L 160.705686 159.18706 
L 160.872128 159.086288 
L 161.638796 158.673385 
L 162.571906 158.328556 
L 162.886937 158.159197 
L 163.505017 157.827016 
L 164.438127 157.514204 
L 165.230695 157.232107 
L 165.371237 157.165871 
L 166.304348 156.804786 
L 167.237458 156.548275 
L 167.731445 156.305017 
L 168.170569 156.039911 
L 169.103679 155.581898 
L 169.481413 155.377926 
L 170.036789 155.034933 
L 170.9699 154.604393 
L 171.225598 154.450836 
L 171.90301 154.027238 
L 172.83612 153.698406 
L 173.269205 153.523746 
L 173.769231 153.299263 
L 174.702341 152.953733 
L 175.635452 152.669149 
L 175.771358 152.596656 
L 176.568562 152.262006 
L 177.501672 151.938363 
L 178.166545 151.669565 
L 178.434783 151.537161 
L 179.367893 151.185684 
L 180.301003 150.869335 
L 180.585453 150.742475 
L 181.234114 150.476121 
L 182.167224 150.180959 
L 183.100334 149.902406 
L 183.233783 149.815385 
L 184.033445 149.408742 
L 184.966555 148.947441 
L 185.055395 148.888294 
L 185.899666 148.475796 
L 186.832776 148.112957 
L 187.178943 147.961204 
L 187.765886 147.738054 
L 188.698997 147.614946 
L 189.632107 147.552971 
L 190.565217 147.496558 
L 191.498328 147.444634 
L 192.431438 147.383896 
L 193.364548 147.307538 
L 194.297659 147.296218 
L 195.230769 147.318731 
L 196.16388 147.339404 
L 197.09699 147.355464 
L 198.0301 147.411003 
L 198.963211 147.583838 
L 199.896321 147.717923 
L 200.829431 147.78238 
L 201.621186 147.961204 
L 201.762542 148.002863 
L 202.695652 148.20994 
L 203.628763 148.424896 
L 204.561873 148.620028 
L 205.208301 148.888294 
L 205.494983 149.010001 
L 206.428094 149.522196 
L 206.878495 149.815385 
L 207.361204 150.119284 
L 208.294314 150.700488 
L 208.352123 150.742475 
L 209.227425 151.280539 
L 209.85971 151.669565 
L 210.160535 151.852756 
L 211.093645 152.453389 
L 211.27502 152.596656 
L 212.026756 153.123323 
L 212.576957 153.523746 
L 212.959866 153.800859 
L 213.806568 154.450836 
L 213.892977 154.531288 
L 214.726375 155.377926 
L 214.826087 155.494104 
L 215.386914 156.305017 
L 215.759197 156.843305 
L 216.054799 157.232107 
L 216.692308 158.129506 
L 216.71752 158.159197 
L 217.437754 159.086288 
L 217.625418 159.301841 
L 218.208141 160.013378 
L 218.558528 160.441224 
L 218.996271 160.940468 
L 219.491639 161.564815 
L 219.754837 161.867559 
L 220.424749 162.633185 
L 220.559863 162.794649 
L 221.054943 163.721739 
L 221.35786 164.297875 
L 221.578167 164.648829 
L 222.004551 165.57592 
L 222.29097 166.120991 
L 222.523302 166.50301 
L 222.921975 167.4301 
L 223.22408 168.07253 
L 223.386354 168.357191 
L 223.827894 169.284281 
L 224.157191 169.980744 
L 224.287209 170.211371 
L 224.701232 171.138462 
L 225.090301 171.971699 
L 225.143761 172.065552 
L 225.589811 172.992642 
L 226.023411 173.730013 
L 226.148986 173.919732 
L 226.50288 174.846823 
L 226.846464 175.773913 
L 226.956522 175.99234 
L 227.240728 176.701003 
L 227.536835 177.628094 
L 227.855576 178.555184 
L 227.889632 178.623728 
L 228.192871 179.482274 
L 228.20709 180.409365 
L 228.186836 181.336455 
L 228.145867 182.263545 
L 228.085011 183.190635 
L 228.010788 184.117726 
L 227.928017 185.044816 
L 227.889632 185.325368 
L 227.795047 185.971906 
L 227.696438 186.898997 
L 227.618438 187.826087 
L 227.529503 188.753177 
L 227.441586 189.680268 
L 227.30989 190.607358 
L 227.160501 191.534448 
L 226.956522 192.12202 
L 226.838418 192.461538 
L 226.390225 193.388629 
L 226.023411 194.048264 
L 225.875337 194.315719 
L 225.568523 195.242809 
L 225.2173 196.1699 
L 225.090301 196.401224 
L 224.810669 197.09699 
L 224.47504 198.02408 
L 224.157191 198.573622 
L 223.979249 198.951171 
L 223.615363 199.878261 
L 223.22408 200.639731 
L 223.139809 200.805351 
L 222.75363 201.732441 
L 222.29097 202.569106 
L 222.233265 202.659532 
L 221.397492 203.586622 
L 221.35786 203.628908 
L 220.650039 204.513712 
L 220.424749 204.778512 
L 219.92526 205.440803 
L 219.491639 206.038782 
L 219.254576 206.367893 
L 218.582387 207.294983 
L 218.558528 207.32161 
L 217.751615 208.222074 
L 217.625418 208.352133 
L 216.872143 209.149164 
L 216.692308 209.327626 
L 215.922138 210.076254 
L 215.759197 210.231429 
L 214.962817 211.003344 
L 214.826087 211.158369 
L 214.240534 211.930435 
L 213.892977 212.406417 
L 213.555669 212.857525 
L 212.959866 213.507435 
L 212.656928 213.784615 
L 212.026756 214.363948 
L 211.659314 214.711706 
L 211.093645 215.257026 
L 210.702412 215.638796 
L 210.160535 216.16236 
L 209.746812 216.565886 
L 209.227425 217.07413 
L 208.789008 217.492977 
L 208.294314 217.976377 
L 207.825464 218.420067 
L 207.361204 218.796955 
L 206.663683 219.347157 
L 206.428094 219.532793 
L 205.494983 220.255197 
L 205.473096 220.274247 
L 204.561873 220.916046 
L 203.878485 221.201338 
L 203.628763 221.308777 
L 202.695652 221.689264 
L 201.762542 222.019901 
L 201.512214 222.128428 
L 200.829431 222.381689 
L 199.896321 222.722606 
L 199.029822 223.055518 
L 198.963211 223.074107 
L 198.0301 223.521166 
L 197.09699 223.918605 
L 196.982377 223.982609 
L 196.16388 224.356116 
L 195.230769 224.719471 
L 194.790357 224.909699 
L 194.297659 225.11786 
L 193.364548 225.488769 
L 192.431438 225.81368 
L 192.383798 225.836789 
L 191.498328 226.179536 
L 190.565217 226.565265 
L 189.632107 226.678827 
L 188.698997 226.668759 
L 187.765886 226.678711 
L 187.100987 226.76388 
L 186.832776 226.771857 
L 185.899666 226.883749 
L 184.966555 227.077281 
L 184.033445 227.209204 
L 183.100334 227.338253 
L 182.167224 227.438767 
L 181.234114 227.56489 
L 180.556642 227.69097 
L 180.301003 227.702895 
L 179.367893 227.813355 
L 178.434783 228.012692 
L 177.501672 228.154043 
L 176.568562 228.206544 
L 175.635452 228.13814 
L 174.702341 228.078604 
L 173.769231 228.017206 
L 172.83612 227.961081 
L 171.90301 227.83683 
z
" clip-path="url(#p979d891cb4)" style="fill: none; stroke: #000000; stroke-width: 1.5"/>
   </g>
   <g id="PathCollection_4">
    <path d="M 170.036789 250.890854 
L 169.899878 250.868227 
L 169.103679 250.736644 
L 168.170569 250.582409 
L 167.237458 250.428192 
L 166.304348 250.273971 
L 165.371237 250.119732 
L 164.438127 249.965511 
L 164.290664 249.941137 
L 163.505017 249.811284 
L 162.571906 249.657057 
L 161.638796 249.502835 
L 160.705686 249.25325 
L 160.082668 249.014047 
L 159.772575 248.885833 
L 158.839465 248.475507 
L 157.963978 248.086957 
L 157.906355 248.061264 
L 156.973244 247.62027 
L 156.040134 247.171488 
L 156.015662 247.159866 
L 155.107023 246.728613 
L 154.173913 246.286073 
L 154.06171 246.232776 
L 153.240803 245.842845 
L 152.307692 245.399207 
L 152.112434 245.305686 
L 151.374582 244.946024 
L 150.441472 244.470237 
L 150.207634 244.378595 
L 149.508361 244.125972 
L 148.575251 243.856989 
L 147.64214 243.539981 
L 147.421511 243.451505 
L 146.70903 243.161134 
L 145.77592 242.752807 
L 145.32595 242.524415 
L 144.842809 242.253352 
L 143.909699 241.677496 
L 143.778171 241.597324 
L 142.976589 241.101097 
L 142.273662 240.670234 
L 142.043478 240.528269 
L 141.110368 239.947147 
L 140.778959 239.743144 
L 140.177258 239.36807 
L 139.291698 238.816054 
L 139.244147 238.78603 
L 138.311037 238.18985 
L 137.838846 237.888963 
L 137.377926 237.570078 
L 136.66999 236.961873 
L 136.444816 236.751792 
L 135.716152 236.034783 
L 135.511706 235.833559 
L 134.785864 235.107692 
L 134.578595 234.903342 
L 133.845283 234.180602 
L 133.645485 233.984521 
L 132.918532 233.253512 
L 132.712375 233.039792 
L 132.025359 232.326421 
L 131.779264 232.076959 
L 131.096931 231.399331 
L 130.846154 231.161782 
L 130.118216 230.472241 
L 129.913043 230.266763 
L 129.33204 229.545151 
L 128.979933 228.976805 
L 128.757677 228.61806 
L 128.181939 227.69097 
L 128.046823 227.473537 
L 127.604949 226.76388 
L 127.113712 225.972378 
L 127.029393 225.836789 
L 126.463759 224.909699 
L 126.180602 224.401543 
L 125.930481 223.982609 
L 125.283832 223.055518 
L 125.247492 223.003819 
L 124.626083 222.128428 
L 124.314381 221.689514 
L 123.967692 221.201338 
L 123.381271 220.375596 
L 123.309457 220.274247 
L 122.610151 219.347157 
L 122.448161 219.168395 
L 121.751195 218.420067 
L 121.51505 218.166518 
L 120.871622 217.492977 
L 120.58194 217.082631 
L 120.302702 216.565886 
L 119.985847 215.638796 
L 119.668993 214.711706 
L 119.648829 214.652707 
L 119.352152 213.784615 
L 119.035285 212.857525 
L 118.718444 211.930435 
L 118.715719 211.92286 
L 118.375761 211.003344 
L 118.027886 210.076254 
L 117.782609 209.423513 
L 117.678464 209.149164 
L 117.326546 208.222074 
L 117.015519 207.294983 
L 116.849498 206.443733 
L 116.834832 206.367893 
L 116.661519 205.440803 
L 116.343825 204.513712 
L 116.012138 203.586622 
L 115.916388 203.285403 
L 115.717442 202.659532 
L 115.422738 201.732441 
L 115.12805 200.805351 
L 114.983278 200.364539 
L 114.820594 199.878261 
L 114.440732 198.951171 
L 114.067259 198.02408 
L 114.050167 197.945154 
L 113.870903 197.09699 
L 113.708152 196.1699 
L 113.700369 195.242809 
L 113.692581 194.315719 
L 113.686553 193.388629 
L 113.706021 192.461538 
L 113.757161 191.534448 
L 113.808299 190.607358 
L 113.859432 189.680268 
L 113.910577 188.753177 
L 113.964732 187.826087 
L 114.039781 186.898997 
L 114.050167 186.607902 
L 114.073062 185.971906 
L 114.110443 185.044816 
L 114.149093 184.117726 
L 114.197296 183.190635 
L 114.250203 182.263545 
L 114.300308 181.336455 
L 114.26428 180.409365 
L 114.291466 179.482274 
L 114.394266 178.555184 
L 114.559895 177.628094 
L 114.786847 176.701003 
L 114.983278 175.967747 
L 115.037761 175.773913 
L 115.357149 174.846823 
L 115.67413 173.919732 
L 115.916388 173.214559 
L 115.993484 172.992642 
L 116.312676 172.065552 
L 116.629614 171.138462 
L 116.849498 170.498413 
L 116.949206 170.211371 
L 117.268188 169.284281 
L 117.585102 168.357191 
L 117.782609 167.782282 
L 117.904927 167.4301 
L 118.227734 166.50301 
L 118.560962 165.57592 
L 118.715719 165.157704 
L 118.922403 164.648829 
L 119.648829 163.72917 
L 119.65536 163.721739 
L 120.507673 162.794649 
L 120.58194 162.704332 
L 121.19542 161.867559 
L 121.51505 161.399749 
L 121.828849 160.940468 
L 122.448161 160.034018 
L 122.462263 160.013378 
L 123.095696 159.086288 
L 123.381271 158.668316 
L 123.729117 158.159197 
L 124.314381 157.302583 
L 124.362532 157.232107 
L 124.962229 156.305017 
L 125.247492 155.844413 
L 125.536397 155.377926 
L 126.14064 154.450836 
L 126.180602 154.393544 
L 126.818609 153.523746 
L 127.113712 153.155701 
L 127.581028 152.596656 
L 128.046823 152.051894 
L 128.379437 151.669565 
L 128.979933 151.001245 
L 129.212441 150.742475 
L 129.913043 150.026449 
L 130.145596 149.815385 
L 130.846154 149.21675 
L 131.272601 148.888294 
L 131.779264 148.528196 
L 132.577047 147.961204 
L 132.712375 147.864231 
L 133.645485 147.172278 
L 133.827733 147.034114 
L 134.578595 146.464885 
L 135.050641 146.107023 
L 135.511706 145.75749 
L 136.273551 145.179933 
L 136.444816 145.050098 
L 137.377926 144.342692 
L 137.500558 144.252843 
L 138.311037 143.673332 
L 139.147705 143.325753 
L 139.244147 143.292231 
L 140.177258 142.967903 
L 141.110368 142.643572 
L 141.814981 142.398662 
L 142.043478 142.319241 
L 142.976589 141.981672 
L 143.909699 141.532827 
L 144.03065 141.471572 
L 144.842809 141.060256 
L 145.77592 140.587702 
L 145.861264 140.544482 
L 146.70903 140.115138 
L 147.64214 139.642572 
L 147.691325 139.617391 
L 148.575251 139.145314 
L 149.371327 138.690301 
L 149.508361 138.613639 
L 150.441472 138.084924 
L 151.000783 137.763211 
L 151.374582 137.55259 
L 152.307692 136.991203 
L 152.543361 136.83612 
L 153.240803 136.364308 
L 153.96633 135.90903 
L 154.173913 135.781239 
L 155.107023 135.258435 
L 155.616949 134.98194 
L 156.040134 134.759965 
L 156.973244 134.244199 
L 157.312009 134.054849 
L 157.906355 133.72667 
L 158.839465 133.202097 
L 158.964597 133.127759 
L 159.772575 132.646113 
L 160.675378 132.200669 
L 160.705686 132.187263 
L 161.638796 131.800793 
L 162.571906 131.412424 
L 162.919447 131.273579 
L 163.505017 131.035557 
L 164.438127 130.677979 
L 165.303178 130.346488 
L 165.371237 130.320449 
L 166.304348 130.022936 
L 167.237458 129.966071 
L 168.170569 129.909608 
L 169.103679 129.812259 
L 170.036789 129.603407 
L 170.498576 129.419398 
L 170.9699 129.226915 
L 171.90301 128.869903 
L 172.83612 128.527378 
L 172.931513 128.492308 
L 173.769231 128.190949 
L 174.702341 127.89418 
L 175.635452 127.60217 
L 175.752511 127.565217 
L 176.568562 127.306085 
L 177.501672 127.009806 
L 178.434783 126.713515 
L 178.672194 126.638127 
L 179.367893 126.419532 
L 180.301003 126.123795 
L 181.234114 125.924029 
L 182.167224 125.756513 
L 182.506 125.711037 
L 183.100334 125.631459 
L 184.033445 125.517227 
L 184.966555 125.206093 
L 185.899666 124.960775 
L 186.832776 124.814937 
L 187.031058 124.783946 
L 187.765886 124.669096 
L 188.698997 124.542148 
L 189.632107 124.443187 
L 190.565217 124.352066 
L 191.498328 124.307835 
L 192.431438 124.233863 
L 193.364548 124.143104 
L 194.297659 124.059221 
L 195.230769 124.039631 
L 196.16388 124.072443 
L 197.09699 124.094129 
L 198.0301 124.118513 
L 198.963211 124.142979 
L 199.896321 124.167533 
L 200.829431 124.192076 
L 201.762542 124.279206 
L 202.695652 124.509891 
L 203.628763 124.740562 
L 203.786516 124.783946 
L 204.561873 125.001472 
L 205.494983 125.275492 
L 206.428094 125.545894 
L 207.026092 125.711037 
L 207.361204 125.803581 
L 208.294314 126.021091 
L 209.227425 126.204154 
L 210.160535 126.399528 
L 211.093645 126.573854 
L 211.42921 126.638127 
L 212.026756 126.754484 
L 212.959866 126.947687 
L 213.892977 127.142008 
L 214.826087 127.505677 
L 214.957579 127.565217 
L 215.759197 127.936316 
L 216.692308 128.473058 
L 216.724931 128.492308 
L 217.625418 129.023634 
L 218.296129 129.419398 
L 218.558528 129.574186 
L 219.491639 130.125696 
L 219.866151 130.346488 
L 220.424749 130.678144 
L 221.35786 131.23808 
L 221.416965 131.273579 
L 222.29097 131.798515 
L 222.960534 132.200669 
L 223.22408 132.358959 
L 224.157191 132.919393 
L 224.504119 133.127759 
L 225.090301 133.479831 
L 226.023411 134.042772 
L 226.042983 134.054849 
L 226.956522 134.618571 
L 227.545382 134.98194 
L 227.889632 135.184132 
L 228.822742 135.877589 
L 228.850484 135.90903 
L 229.577642 136.83612 
L 229.755853 137.055508 
L 230.341165 137.763211 
L 230.688963 138.185226 
L 231.10521 138.690301 
L 231.622074 139.317483 
L 231.86923 139.617391 
L 232.555184 140.449726 
L 232.633276 140.544482 
L 233.397309 141.471572 
L 233.488294 141.581979 
L 234.161337 142.398662 
L 234.421405 142.714231 
L 234.925366 143.325753 
L 235.354515 143.846491 
L 235.689403 144.252843 
L 236.287625 144.905769 
L 236.555332 145.179933 
L 237.220736 145.860667 
L 237.461549 146.107023 
L 238.153846 146.815267 
L 238.367766 147.034114 
L 239.086957 147.772654 
L 239.268534 147.961204 
L 239.97491 148.888294 
L 240.020067 148.967197 
L 240.498907 149.815385 
L 240.953177 150.620076 
L 241.022278 150.742475 
L 241.545693 151.669565 
L 241.886288 152.306772 
L 242.040177 152.596656 
L 242.513033 153.523746 
L 242.819398 154.181602 
L 242.94152 154.450836 
L 243.338863 155.377926 
L 243.736206 156.305017 
L 243.752508 156.342635 
L 244.144207 157.232107 
L 244.59558 158.159197 
L 244.685619 158.336 
L 245.057583 159.086288 
L 245.517213 160.013378 
L 245.618729 160.245032 
L 245.911288 160.940468 
L 246.30157 161.867559 
L 246.551839 162.443451 
L 246.703276 162.794649 
L 247.096655 163.721739 
L 247.48495 164.614709 
L 247.500173 164.648829 
L 247.917858 165.57592 
L 248.335091 166.50301 
L 248.41806 166.695291 
L 248.739122 167.4301 
L 249.096169 168.357191 
L 249.298705 169.284281 
L 249.351171 169.529962 
L 249.496687 170.211371 
L 249.694668 171.138462 
L 249.89265 172.065552 
L 250.09062 172.992642 
L 250.284281 173.900217 
L 250.288446 173.919732 
L 250.554247 174.846823 
L 250.858227 175.773913 
L 251.135166 176.701003 
L 251.217391 176.987632 
L 251.40112 177.628094 
L 251.501158 178.555184 
L 251.49736 179.482274 
L 251.535124 180.409365 
L 251.573602 181.336455 
L 251.575503 182.263545 
L 251.577409 183.190635 
L 251.579311 184.117726 
L 251.581212 185.044816 
L 251.583275 185.971906 
L 251.583942 186.898997 
L 251.549378 187.826087 
L 251.50953 188.753177 
L 251.46437 189.680268 
L 251.386103 190.607358 
L 251.285346 191.534448 
L 251.217391 192.159619 
L 251.184573 192.461538 
L 251.104416 193.388629 
L 251.030482 194.315719 
L 250.960918 195.242809 
L 250.891372 196.1699 
L 250.821824 197.09699 
L 250.74656 198.02408 
L 250.402822 198.951171 
L 250.284281 199.208959 
L 249.97651 199.878261 
L 249.550174 200.805351 
L 249.351171 201.238103 
L 249.123848 201.732441 
L 248.708599 202.659532 
L 248.41806 203.434532 
L 248.361909 203.586622 
L 248.019606 204.513712 
L 247.711066 205.440803 
L 247.48495 206.185364 
L 247.42963 206.367893 
L 247.144882 207.294983 
L 246.825085 208.222074 
L 246.551839 208.922337 
L 246.455873 209.149164 
L 246.042168 210.076254 
L 245.628454 211.003344 
L 245.618729 211.025139 
L 245.214766 211.930435 
L 244.800653 212.857525 
L 244.685619 213.048573 
L 244.20796 213.784615 
L 243.752508 214.465601 
L 243.583292 214.711706 
L 242.904187 215.638796 
L 242.819398 215.740476 
L 242.128374 216.565886 
L 241.886288 216.860645 
L 241.368833 217.492977 
L 240.953177 217.988673 
L 240.540526 218.420067 
L 240.020067 218.936959 
L 239.630124 219.347157 
L 239.086957 219.936964 
L 238.775598 220.274247 
L 238.153846 220.948438 
L 237.920406 221.201338 
L 237.220736 221.94676 
L 237.054728 222.128428 
L 236.287625 223.014271 
L 236.252682 223.055518 
L 235.46724 223.982609 
L 235.354515 224.11567 
L 234.681833 224.909699 
L 234.421405 225.224414 
L 233.937593 225.836789 
L 233.488294 226.434713 
L 233.23113 226.76388 
L 232.555184 227.62906 
L 232.506815 227.69097 
L 231.724165 228.61806 
L 231.622074 228.728651 
L 230.868318 229.545151 
L 230.688963 229.739437 
L 230.012489 230.472241 
L 229.755853 230.75033 
L 229.171617 231.399331 
L 228.822742 231.79433 
L 228.267188 232.326421 
L 227.889632 232.640972 
L 227.145659 233.253512 
L 226.956522 233.409239 
L 226.023411 234.177519 
L 226.019678 234.180602 
L 225.090301 234.946672 
L 224.895394 235.107692 
L 224.157191 235.717299 
L 223.772931 236.034783 
L 223.22408 236.491475 
L 222.658147 236.961873 
L 222.29097 237.251738 
L 221.433008 237.888963 
L 221.35786 237.944643 
L 220.424749 238.637083 
L 220.197015 238.816054 
L 219.491639 239.384813 
L 219.047084 239.743144 
L 218.558528 240.13694 
L 217.896934 240.670234 
L 217.625418 240.889012 
L 216.692308 241.424723 
L 216.25422 241.597324 
L 215.759197 241.792309 
L 214.826087 242.160006 
L 213.901128 242.524415 
L 213.892977 242.52762 
L 212.959866 242.895274 
L 212.026756 243.262415 
L 211.52397 243.451505 
L 211.093645 243.614449 
L 210.160535 243.96142 
L 209.227425 244.308396 
L 209.037824 244.378595 
L 208.294314 244.647871 
L 207.361204 244.989574 
L 206.678711 245.305686 
L 206.428094 245.424464 
L 205.494983 245.866697 
L 204.722559 246.232776 
L 204.561873 246.30893 
L 203.628763 246.751181 
L 202.766458 247.159866 
L 202.695652 247.193424 
L 201.762542 247.634529 
L 200.829431 248.049491 
L 200.745178 248.086957 
L 199.896321 248.464426 
L 198.963211 248.878835 
L 198.649772 249.014047 
L 198.0301 249.278175 
L 197.09699 249.608035 
L 196.16388 249.724127 
L 195.230769 249.81389 
L 194.297659 249.807421 
L 193.364548 249.831486 
L 192.431438 249.874547 
L 191.498328 249.917581 
L 190.987661 249.941137 
L 190.565217 249.960622 
L 189.632107 250.003751 
L 188.698997 250.028968 
L 187.765886 250.042664 
L 186.832776 250.056029 
L 185.899666 250.06939 
L 184.966555 250.082759 
L 184.033445 250.153727 
L 183.100334 250.256026 
L 182.167224 250.358328 
L 181.234114 250.460628 
L 180.301003 250.553713 
L 179.367893 250.607115 
L 178.434783 250.702021 
L 177.501672 250.831109 
L 177.233349 250.868227 
L 176.568562 250.961625 
L 175.635452 251.094239 
L 174.702341 251.228662 
L 173.769231 251.200629 
L 172.83612 251.146262 
L 171.90301 251.09145 
L 170.9699 251.028795 
L 170.036789 250.890854 
z
" clip-path="url(#p979d891cb4)" style="fill: none; stroke: #000000; stroke-width: 1.5"/>
   </g>
   <g id="patch_3">
    <path d="M 45 320.4 
L 45 43.2 
" style="fill: none; stroke: #000000; stroke-width: 0.8; stroke-linejoin: miter; stroke-linecap: square"/>
   </g>
   <g id="patch_4">
    <path d="M 324 320.4 
L 324 43.2 
" style="fill: none; stroke: #000000; stroke-width: 0.8; stroke-linejoin: miter; stroke-linecap: square"/>
   </g>
   <g id="patch_5">
    <path d="M 45 320.4 
L 324 320.4 
" style="fill: none; stroke: #000000; stroke-width: 0.8; stroke-linejoin: miter; stroke-linecap: square"/>
   </g>
   <g id="patch_6">
    <path d="M 45 43.2 
L 324 43.2 
" style="fill: none; stroke: #000000; stroke-width: 0.8; stroke-linejoin: miter; stroke-linecap: square"/>
   </g>
  </g>
 </g>
 <defs>
  <clipPath id="p979d891cb4">
   <rect x="45" y="43.2" width="279" height="277.2"/>
  </clipPath>
 </defs>
</svg>
