<?xml version="1.0" encoding="utf-8" standalone="no"?>
<!DOCTYPE svg PUBLIC "-//W3C//DTD SVG 1.1//EN"
  "http://www.w3.org/Graphics/SVG/1.1/DTD/svg11.dtd">
<svg xmlns:xlink="http://www.w3.org/1999/xlink" width="360pt" height="360pt" viewBox="0 0 360 360" xmlns="http://www.w3.org/2000/svg" version="1.1">
 <metadata>
  <rdf:RDF xmlns:dc="http://purl.org/dc/elements/1.1/" xmlns:cc="http://creativecommons.org/ns#" xmlns:rdf="http://www.w3.org/1999/02/22-rdf-syntax-ns#">
   <cc:Work>
    <dc:type rdf:resource="http://purl.org/dc/dcmitype/StillImage"/>
    <dc:date>2022-04-10T19:53:36.256351</dc:date>
    <dc:format>image/svg+xml</dc:format>
    <dc:creator>
     <cc:Agent>
      <dc:title>Matplotlib v3.5.1, https://matplotlib.org/</dc:title>
     </cc:Agent>
    </dc:creator>
   </cc:Work>
  </rdf:RDF>
 </metadata>
 <defs>
  <style type="text/css">*{stroke-linejoin: round; stroke-linecap: butt}</style>
 </defs>
 <g id="figure_1">
  <g id="patch_1">
   <path d="M 0 360 
L 360 360 
L 360 0 
L 0 0 
z
" style="fill: #ffffff"/>
  </g>
  <g id="axes_1">
   <g id="patch_2">
    <path d="M 45 320.4 
L 324 320.4 
L 324 43.2 
L 45 43.2 
z
" style="fill: #ffffff"/>
   </g>
   <g id="PathCollection_1">
    <defs>
     <path id="m6a22e91eb0" d="M 0 0.5 
C 0.132602 0.5 0.25979 0.447317 0.353553 0.353553 
C 0.447317 0.25979 0.5 0.132602 0.5 0 
C 0.5 -0.132602 0.447317 -0.25979 0.353553 -0.353553 
C 0.25979 -0.447317 0.132602 -0.5 0 -0.5 
C -0.132602 -0.5 -0.25979 -0.447317 -0.353553 -0.353553 
C -0.447317 -0.25979 -0.5 -0.132602 -0.5 0 
C -0.5 0.132602 -0.447317 0.25979 -0.353553 0.353553 
C -0.25979 0.447317 -0.132602 0.5 0 0.5 
z
" style="stroke: #ff0000"/>
    </defs>
    <g clip-path="url(#p16af8619a2)">
     <use xlink:href="#m6a22e91eb0" x="212.329662" y="181.336455" style="fill: #ff0000; stroke: #ff0000"/>
     <use xlink:href="#m6a22e91eb0" x="212.569175" y="178.635374" style="fill: #ff0000; stroke: #ff0000"/>
     <use xlink:href="#m6a22e91eb0" x="213.183676" y="175.759932" style="fill: #ff0000; stroke: #ff0000"/>
     <use xlink:href="#m6a22e91eb0" x="213.999033" y="172.586368" style="fill: #ff0000; stroke: #ff0000"/>
     <use xlink:href="#m6a22e91eb0" x="214.715319" y="169.093612" style="fill: #ff0000; stroke: #ff0000"/>
     <use xlink:href="#m6a22e91eb0" x="215.007184" y="165.382998" style="fill: #ff0000; stroke: #ff0000"/>
     <use xlink:href="#m6a22e91eb0" x="214.63663" y="161.639448" style="fill: #ff0000; stroke: #ff0000"/>
     <use xlink:href="#m6a22e91eb0" x="213.523763" y="158.051362" style="fill: #ff0000; stroke: #ff0000"/>
     <use xlink:href="#m6a22e91eb0" x="211.743184" y="154.732578" style="fill: #ff0000; stroke: #ff0000"/>
     <use xlink:href="#m6a22e91eb0" x="209.455366" y="151.689266" style="fill: #ff0000; stroke: #ff0000"/>
     <use xlink:href="#m6a22e91eb0" x="206.815716" y="148.847841" style="fill: #ff0000; stroke: #ff0000"/>
     <use xlink:href="#m6a22e91eb0" x="203.909673" y="146.12502" style="fill: #ff0000; stroke: #ff0000"/>
     <use xlink:href="#m6a22e91eb0" x="200.740976" y="143.49933" style="fill: #ff0000; stroke: #ff0000"/>
     <use xlink:href="#m6a22e91eb0" x="197.268042" y="141.045518" style="fill: #ff0000; stroke: #ff0000"/>
     <use xlink:href="#m6a22e91eb0" x="193.459287" y="138.916067" style="fill: #ff0000; stroke: #ff0000"/>
     <use xlink:href="#m6a22e91eb0" x="189.333535" y="137.283821" style="fill: #ff0000; stroke: #ff0000"/>
     <use xlink:href="#m6a22e91eb0" x="184.966555" y="136.280331" style="fill: #ff0000; stroke: #ff0000"/>
     <use xlink:href="#m6a22e91eb0" x="180.46872" y="135.9638" style="fill: #ff0000; stroke: #ff0000"/>
     <use xlink:href="#m6a22e91eb0" x="175.955895" y="136.329064" style="fill: #ff0000; stroke: #ff0000"/>
     <use xlink:href="#m6a22e91eb0" x="171.534961" y="137.344086" style="fill: #ff0000; stroke: #ff0000"/>
     <use xlink:href="#m6a22e91eb0" x="167.309064" y="138.982526" style="fill: #ff0000; stroke: #ff0000"/>
     <use xlink:href="#m6a22e91eb0" x="163.389698" y="141.229429" style="fill: #ff0000; stroke: #ff0000"/>
     <use xlink:href="#m6a22e91eb0" x="159.897115" y="144.059445" style="fill: #ff0000; stroke: #ff0000"/>
     <use xlink:href="#m6a22e91eb0" x="156.940181" y="147.406543" style="fill: #ff0000; stroke: #ff0000"/>
     <use xlink:href="#m6a22e91eb0" x="154.582217" y="151.148145" style="fill: #ff0000; stroke: #ff0000"/>
     <use xlink:href="#m6a22e91eb0" x="152.809006" y="155.115701" style="fill: #ff0000; stroke: #ff0000"/>
     <use xlink:href="#m6a22e91eb0" x="151.514555" y="159.128749" style="fill: #ff0000; stroke: #ff0000"/>
     <use xlink:href="#m6a22e91eb0" x="150.513441" y="163.039692" style="fill: #ff0000; stroke: #ff0000"/>
     <use xlink:href="#m6a22e91eb0" x="149.580025" y="166.773439" style="fill: #ff0000; stroke: #ff0000"/>
     <use xlink:href="#m6a22e91eb0" x="148.505975" y="170.347615" style="fill: #ff0000; stroke: #ff0000"/>
     <use xlink:href="#m6a22e91eb0" x="147.159726" y="173.864727" style="fill: #ff0000; stroke: #ff0000"/>
     <use xlink:href="#m6a22e91eb0" x="145.528948" y="177.477249" style="fill: #ff0000; stroke: #ff0000"/>
     <use xlink:href="#m6a22e91eb0" x="143.732195" y="181.336455" style="fill: #ff0000; stroke: #ff0000"/>
     <use xlink:href="#m6a22e91eb0" x="141.996005" y="185.54138" style="fill: #ff0000; stroke: #ff0000"/>
     <use xlink:href="#m6a22e91eb0" x="140.604479" y="190.10369" style="fill: #ff0000; stroke: #ff0000"/>
     <use xlink:href="#m6a22e91eb0" x="139.837017" y="194.938029" style="fill: #ff0000; stroke: #ff0000"/>
     <use xlink:href="#m6a22e91eb0" x="139.913481" y="199.877652" style="fill: #ff0000; stroke: #ff0000"/>
     <use xlink:href="#m6a22e91eb0" x="140.960725" y="204.706309" style="fill: #ff0000; stroke: #ff0000"/>
     <use xlink:href="#m6a22e91eb0" x="143.002041" y="209.195345" style="fill: #ff0000; stroke: #ff0000"/>
     <use xlink:href="#m6a22e91eb0" x="145.961826" y="213.140291" style="fill: #ff0000; stroke: #ff0000"/>
     <use xlink:href="#m6a22e91eb0" x="149.679778" y="216.395575" style="fill: #ff0000; stroke: #ff0000"/>
     <use xlink:href="#m6a22e91eb0" x="153.937395" y="218.901666" style="fill: #ff0000; stroke: #ff0000"/>
     <use xlink:href="#m6a22e91eb0" x="158.49996" y="220.690965" style="fill: #ff0000; stroke: #ff0000"/>
     <use xlink:href="#m6a22e91eb0" x="163.165004" y="221.861141" style="fill: #ff0000; stroke: #ff0000"/>
     <use xlink:href="#m6a22e91eb0" x="167.795857" y="222.522743" style="fill: #ff0000; stroke: #ff0000"/>
     <use xlink:href="#m6a22e91eb0" x="172.322875" y="222.748177" style="fill: #ff0000; stroke: #ff0000"/>
     <use xlink:href="#m6a22e91eb0" x="176.715056" y="222.551912" style="fill: #ff0000; stroke: #ff0000"/>
     <use xlink:href="#m6a22e91eb0" x="180.94421" y="221.912529" style="fill: #ff0000; stroke: #ff0000"/>
     <use xlink:href="#m6a22e91eb0" x="184.966555" y="220.820538" style="fill: #ff0000; stroke: #ff0000"/>
     <use xlink:href="#m6a22e91eb0" x="188.73196" y="219.320597" style="fill: #ff0000; stroke: #ff0000"/>
     <use xlink:href="#m6a22e91eb0" x="192.210865" y="217.521093" style="fill: #ff0000; stroke: #ff0000"/>
     <use xlink:href="#m6a22e91eb0" x="195.41661" y="215.563415" style="fill: #ff0000; stroke: #ff0000"/>
     <use xlink:href="#m6a22e91eb0" x="198.403415" y="213.566618" style="fill: #ff0000; stroke: #ff0000"/>
     <use xlink:href="#m6a22e91eb0" x="201.236012" y="211.578093" style="fill: #ff0000; stroke: #ff0000"/>
     <use xlink:href="#m6a22e91eb0" x="203.946238" y="209.558298" style="fill: #ff0000; stroke: #ff0000"/>
     <use xlink:href="#m6a22e91eb0" x="206.501976" y="207.408144" style="fill: #ff0000; stroke: #ff0000"/>
     <use xlink:href="#m6a22e91eb0" x="208.806965" y="205.023056" style="fill: #ff0000; stroke: #ff0000"/>
     <use xlink:href="#m6a22e91eb0" x="210.73134" y="202.34465" style="fill: #ff0000; stroke: #ff0000"/>
     <use xlink:href="#m6a22e91eb0" x="212.156856" y="199.38722" style="fill: #ff0000; stroke: #ff0000"/>
     <use xlink:href="#m6a22e91eb0" x="213.018522" y="196.233807" style="fill: #ff0000; stroke: #ff0000"/>
     <use xlink:href="#m6a22e91eb0" x="213.332662" y="193.010277" style="fill: #ff0000; stroke: #ff0000"/>
     <use xlink:href="#m6a22e91eb0" x="213.208422" y="189.84826" style="fill: #ff0000; stroke: #ff0000"/>
     <use xlink:href="#m6a22e91eb0" x="212.839225" y="186.844904" style="fill: #ff0000; stroke: #ff0000"/>
     <use xlink:href="#m6a22e91eb0" x="212.468636" y="184.027698" style="fill: #ff0000; stroke: #ff0000"/>
    </g>
   </g>
   <g id="matplotlib.axis_1">
    <g id="xtick_1">
     <g id="line2d_1">
      <defs>
       <path id="m5f72c7ac26" d="M 0 0 
L 0 3.5 
" style="stroke: #000000; stroke-width: 0.8"/>
      </defs>
      <g>
       <use xlink:href="#m5f72c7ac26" x="45" y="320.4" style="stroke: #000000; stroke-width: 0.8"/>
      </g>
     </g>
     <g id="text_1">
      <!-- −3 -->
      <g transform="translate(37.628906 334.998438)scale(0.1 -0.1)">
       <defs>
        <path id="DejaVuSans-2212" d="M 678 2272 
L 4684 2272 
L 4684 1741 
L 678 1741 
L 678 2272 
z
" transform="scale(0.015625)"/>
        <path id="DejaVuSans-33" d="M 2597 2516 
Q 3050 2419 3304 2112 
Q 3559 1806 3559 1356 
Q 3559 666 3084 287 
Q 2609 -91 1734 -91 
Q 1441 -91 1130 -33 
Q 819 25 488 141 
L 488 750 
Q 750 597 1062 519 
Q 1375 441 1716 441 
Q 2309 441 2620 675 
Q 2931 909 2931 1356 
Q 2931 1769 2642 2001 
Q 2353 2234 1838 2234 
L 1294 2234 
L 1294 2753 
L 1863 2753 
Q 2328 2753 2575 2939 
Q 2822 3125 2822 3475 
Q 2822 3834 2567 4026 
Q 2313 4219 1838 4219 
Q 1578 4219 1281 4162 
Q 984 4106 628 3988 
L 628 4550 
Q 988 4650 1302 4700 
Q 1616 4750 1894 4750 
Q 2613 4750 3031 4423 
Q 3450 4097 3450 3541 
Q 3450 3153 3228 2886 
Q 3006 2619 2597 2516 
z
" transform="scale(0.015625)"/>
       </defs>
       <use xlink:href="#DejaVuSans-2212"/>
       <use xlink:href="#DejaVuSans-33" x="83.789062"/>
      </g>
     </g>
    </g>
    <g id="xtick_2">
     <g id="line2d_2">
      <g>
       <use xlink:href="#m5f72c7ac26" x="91.655518" y="320.4" style="stroke: #000000; stroke-width: 0.8"/>
      </g>
     </g>
     <g id="text_2">
      <!-- −2 -->
      <g transform="translate(84.284425 334.998438)scale(0.1 -0.1)">
       <defs>
        <path id="DejaVuSans-32" d="M 1228 531 
L 3431 531 
L 3431 0 
L 469 0 
L 469 531 
Q 828 903 1448 1529 
Q 2069 2156 2228 2338 
Q 2531 2678 2651 2914 
Q 2772 3150 2772 3378 
Q 2772 3750 2511 3984 
Q 2250 4219 1831 4219 
Q 1534 4219 1204 4116 
Q 875 4013 500 3803 
L 500 4441 
Q 881 4594 1212 4672 
Q 1544 4750 1819 4750 
Q 2544 4750 2975 4387 
Q 3406 4025 3406 3419 
Q 3406 3131 3298 2873 
Q 3191 2616 2906 2266 
Q 2828 2175 2409 1742 
Q 1991 1309 1228 531 
z
" transform="scale(0.015625)"/>
       </defs>
       <use xlink:href="#DejaVuSans-2212"/>
       <use xlink:href="#DejaVuSans-32" x="83.789062"/>
      </g>
     </g>
    </g>
    <g id="xtick_3">
     <g id="line2d_3">
      <g>
       <use xlink:href="#m5f72c7ac26" x="138.311037" y="320.4" style="stroke: #000000; stroke-width: 0.8"/>
      </g>
     </g>
     <g id="text_3">
      <!-- −1 -->
      <g transform="translate(130.939943 334.998438)scale(0.1 -0.1)">
       <defs>
        <path id="DejaVuSans-31" d="M 794 531 
L 1825 531 
L 1825 4091 
L 703 3866 
L 703 4441 
L 1819 4666 
L 2450 4666 
L 2450 531 
L 3481 531 
L 3481 0 
L 794 0 
L 794 531 
z
" transform="scale(0.015625)"/>
       </defs>
       <use xlink:href="#DejaVuSans-2212"/>
       <use xlink:href="#DejaVuSans-31" x="83.789062"/>
      </g>
     </g>
    </g>
    <g id="xtick_4">
     <g id="line2d_4">
      <g>
       <use xlink:href="#m5f72c7ac26" x="184.966555" y="320.4" style="stroke: #000000; stroke-width: 0.8"/>
      </g>
     </g>
     <g id="text_4">
      <!-- 0 -->
      <g transform="translate(181.785305 334.998438)scale(0.1 -0.1)">
       <defs>
        <path id="DejaVuSans-30" d="M 2034 4250 
Q 1547 4250 1301 3770 
Q 1056 3291 1056 2328 
Q 1056 1369 1301 889 
Q 1547 409 2034 409 
Q 2525 409 2770 889 
Q 3016 1369 3016 2328 
Q 3016 3291 2770 3770 
Q 2525 4250 2034 4250 
z
M 2034 4750 
Q 2819 4750 3233 4129 
Q 3647 3509 3647 2328 
Q 3647 1150 3233 529 
Q 2819 -91 2034 -91 
Q 1250 -91 836 529 
Q 422 1150 422 2328 
Q 422 3509 836 4129 
Q 1250 4750 2034 4750 
z
" transform="scale(0.015625)"/>
       </defs>
       <use xlink:href="#DejaVuSans-30"/>
      </g>
     </g>
    </g>
    <g id="xtick_5">
     <g id="line2d_5">
      <g>
       <use xlink:href="#m5f72c7ac26" x="231.622074" y="320.4" style="stroke: #000000; stroke-width: 0.8"/>
      </g>
     </g>
     <g id="text_5">
      <!-- 1 -->
      <g transform="translate(228.440824 334.998438)scale(0.1 -0.1)">
       <use xlink:href="#DejaVuSans-31"/>
      </g>
     </g>
    </g>
    <g id="xtick_6">
     <g id="line2d_6">
      <g>
       <use xlink:href="#m5f72c7ac26" x="278.277592" y="320.4" style="stroke: #000000; stroke-width: 0.8"/>
      </g>
     </g>
     <g id="text_6">
      <!-- 2 -->
      <g transform="translate(275.096342 334.998438)scale(0.1 -0.1)">
       <use xlink:href="#DejaVuSans-32"/>
      </g>
     </g>
    </g>
   </g>
   <g id="matplotlib.axis_2">
    <g id="ytick_1">
     <g id="line2d_7">
      <defs>
       <path id="m1ec91f4777" d="M 0 0 
L -3.5 0 
" style="stroke: #000000; stroke-width: 0.8"/>
      </defs>
      <g>
       <use xlink:href="#m1ec91f4777" x="45" y="320.4" style="stroke: #000000; stroke-width: 0.8"/>
      </g>
     </g>
     <g id="text_7">
      <!-- −3 -->
      <g transform="translate(23.257812 324.199219)scale(0.1 -0.1)">
       <use xlink:href="#DejaVuSans-2212"/>
       <use xlink:href="#DejaVuSans-33" x="83.789062"/>
      </g>
     </g>
    </g>
    <g id="ytick_2">
     <g id="line2d_8">
      <g>
       <use xlink:href="#m1ec91f4777" x="45" y="274.045485" style="stroke: #000000; stroke-width: 0.8"/>
      </g>
     </g>
     <g id="text_8">
      <!-- −2 -->
      <g transform="translate(23.257812 277.844704)scale(0.1 -0.1)">
       <use xlink:href="#DejaVuSans-2212"/>
       <use xlink:href="#DejaVuSans-32" x="83.789062"/>
      </g>
     </g>
    </g>
    <g id="ytick_3">
     <g id="line2d_9">
      <g>
       <use xlink:href="#m1ec91f4777" x="45" y="227.69097" style="stroke: #000000; stroke-width: 0.8"/>
      </g>
     </g>
     <g id="text_9">
      <!-- −1 -->
      <g transform="translate(23.257812 231.490189)scale(0.1 -0.1)">
       <use xlink:href="#DejaVuSans-2212"/>
       <use xlink:href="#DejaVuSans-31" x="83.789062"/>
      </g>
     </g>
    </g>
    <g id="ytick_4">
     <g id="line2d_10">
      <g>
       <use xlink:href="#m1ec91f4777" x="45" y="181.336455" style="stroke: #000000; stroke-width: 0.8"/>
      </g>
     </g>
     <g id="text_10">
      <!-- 0 -->
      <g transform="translate(31.6375 185.135674)scale(0.1 -0.1)">
       <use xlink:href="#DejaVuSans-30"/>
      </g>
     </g>
    </g>
    <g id="ytick_5">
     <g id="line2d_11">
      <g>
       <use xlink:href="#m1ec91f4777" x="45" y="134.98194" style="stroke: #000000; stroke-width: 0.8"/>
      </g>
     </g>
     <g id="text_11">
      <!-- 1 -->
      <g transform="translate(31.6375 138.781159)scale(0.1 -0.1)">
       <use xlink:href="#DejaVuSans-31"/>
      </g>
     </g>
    </g>
    <g id="ytick_6">
     <g id="line2d_12">
      <g>
       <use xlink:href="#m1ec91f4777" x="45" y="88.627425" style="stroke: #000000; stroke-width: 0.8"/>
      </g>
     </g>
     <g id="text_12">
      <!-- 2 -->
      <g transform="translate(31.6375 92.426643)scale(0.1 -0.1)">
       <use xlink:href="#DejaVuSans-32"/>
      </g>
     </g>
    </g>
   </g>
   <g id="PathCollection_2">
    <path d="M 170.9699 199.977119 
L 170.229146 199.878261 
L 170.036789 199.841406 
L 169.103679 199.45626 
L 168.170569 198.972402 
L 168.136175 198.951171 
L 167.237458 198.333146 
L 166.804454 198.02408 
L 166.304348 197.653628 
L 165.554642 197.09699 
L 165.371237 196.946183 
L 164.818648 196.1699 
L 165.016446 195.242809 
L 165.276656 194.315719 
L 165.371237 193.978747 
L 165.53365 193.388629 
L 165.729712 192.461538 
L 165.995226 191.534448 
L 166.197069 190.607358 
L 166.292745 189.680268 
L 166.304348 189.621861 
L 166.478532 188.753177 
L 166.649564 187.826087 
L 166.800654 186.898997 
L 166.92863 185.971906 
L 167.126684 185.044816 
L 167.237458 184.547278 
L 167.335366 184.117726 
L 167.539508 183.190635 
L 167.782 182.263545 
L 168.113023 181.336455 
L 168.170569 181.277723 
L 168.855546 180.409365 
L 169.103679 179.993099 
L 169.409996 179.482274 
L 169.875116 178.555184 
L 170.036789 178.100548 
L 170.237736 177.628094 
L 170.685306 176.701003 
L 170.9699 176.092548 
L 171.120507 175.773913 
L 171.575263 174.846823 
L 171.90301 174.188584 
L 172.035438 173.919732 
L 172.475871 172.992642 
L 172.83612 172.355244 
L 173.016559 172.065552 
L 173.553175 171.138462 
L 173.769231 170.732903 
L 174.051181 170.211371 
L 174.554843 169.284281 
L 174.702341 168.738056 
L 174.797395 168.357191 
L 174.99744 167.4301 
L 175.185856 166.50301 
L 175.368657 165.57592 
L 175.586567 164.648829 
L 175.635452 164.432128 
L 175.802146 163.721739 
L 176.024858 162.794649 
L 176.436704 161.867559 
L 176.568562 161.711421 
L 177.277949 160.940468 
L 177.501672 160.693858 
L 178.33198 160.013378 
L 178.434783 159.940623 
L 179.367893 159.490486 
L 180.281808 159.086288 
L 180.301003 159.077542 
L 180.335561 159.086288 
L 181.234114 159.312288 
L 182.167224 159.724703 
L 182.68386 160.013378 
L 183.100334 160.231096 
L 184.033445 160.780493 
L 184.461209 160.940468 
L 184.966555 161.144015 
L 185.899666 161.305047 
L 186.717991 161.867559 
L 186.832776 161.971003 
L 187.523632 162.794649 
L 187.765886 163.290101 
L 187.977252 163.721739 
L 188.446009 164.648829 
L 188.698997 165.149837 
L 188.917373 165.57592 
L 189.386474 166.50301 
L 189.632107 167.020239 
L 189.808433 167.4301 
L 190.206926 168.357191 
L 190.565217 169.143492 
L 190.633461 169.284281 
L 191.225126 170.211371 
L 191.498328 170.617984 
L 191.940357 171.138462 
L 192.18816 172.065552 
L 192.05055 172.992642 
L 191.845366 173.919732 
L 191.76186 174.846823 
L 191.680314 175.773913 
L 191.548403 176.701003 
L 191.498328 176.894115 
L 191.278603 177.628094 
L 191.15846 178.555184 
L 191.18541 179.482274 
L 191.212365 180.409365 
L 191.245638 181.336455 
L 191.284192 182.263545 
L 191.304787 183.190635 
L 191.208673 184.117726 
L 191.089744 185.044816 
L 190.828398 185.971906 
L 190.565217 186.711795 
L 190.498632 186.898997 
L 190.168889 187.826087 
L 189.825594 188.753177 
L 189.632107 189.264884 
L 189.472252 189.680268 
L 188.968608 190.607358 
L 188.698997 191.075835 
L 188.393426 191.534448 
L 187.765886 192.336234 
L 187.662073 192.461538 
L 186.848099 193.388629 
L 186.832776 193.406297 
L 186.034116 194.315719 
L 185.899666 194.430568 
L 184.966555 194.71683 
L 184.033445 195.039609 
L 183.436684 195.242809 
L 183.100334 195.362474 
L 182.167224 195.653337 
L 181.234114 196.009532 
L 180.850686 196.1699 
L 180.301003 196.399979 
L 179.367893 196.729594 
L 178.434783 197.048668 
L 178.348684 197.09699 
L 177.501672 197.549704 
L 176.747504 198.02408 
L 176.568562 198.133871 
L 175.635452 198.694065 
L 175.224775 198.951171 
L 174.702341 199.257988 
L 173.769231 199.708803 
L 172.838615 199.878261 
L 172.83612 199.878711 
L 171.90301 199.972256 
L 170.9699 199.977119 
z
" clip-path="url(#p16af8619a2)" style="fill: none; stroke-dasharray: 5.55,2.4; stroke-dashoffset: 0; stroke: #000000; stroke-width: 1.5"/>
   </g>
   <g id="PathCollection_3">
    <path d="M 165.371237 224.114045 
L 164.968887 223.982609 
L 164.438127 223.826706 
L 163.505017 223.726996 
L 162.571906 223.599709 
L 161.638796 223.365157 
L 161.005722 223.055518 
L 160.705686 222.920048 
L 159.772575 222.679035 
L 158.839465 222.276668 
L 158.550033 222.128428 
L 157.906355 221.889648 
L 156.973244 221.527971 
L 156.390832 221.201338 
L 156.040134 221.025666 
L 155.107023 220.74035 
L 154.198589 220.274247 
L 154.173913 220.258715 
L 153.240803 219.928707 
L 152.307692 219.456158 
L 152.14984 219.347157 
L 151.374582 218.858747 
L 150.859519 218.420067 
L 150.441472 218.093774 
L 149.740459 217.492977 
L 149.508361 217.307588 
L 148.6107 216.565886 
L 148.575251 216.530606 
L 147.65033 215.638796 
L 147.64214 215.630004 
L 147.052247 214.711706 
L 146.70903 214.086318 
L 146.512398 213.784615 
L 146.070861 212.857525 
L 145.77592 212.389058 
L 145.469679 211.930435 
L 145.048287 211.003344 
L 144.842809 210.719379 
L 144.445072 210.076254 
L 143.986991 209.149164 
L 143.909699 209.056038 
L 143.436552 208.222074 
L 142.976589 207.402006 
L 142.93322 207.294983 
L 142.41676 206.367893 
L 142.130798 205.440803 
L 142.043478 205.128889 
L 141.948866 204.513712 
L 141.634792 203.586622 
L 141.351781 202.659532 
L 141.110368 201.867601 
L 141.075448 201.732441 
L 140.792353 200.805351 
L 140.566332 199.878261 
L 140.461184 198.951171 
L 140.337768 198.02408 
L 140.319477 197.09699 
L 140.363297 196.1699 
L 140.529966 195.242809 
L 140.727169 194.315719 
L 140.80875 193.388629 
L 140.825986 192.461538 
L 140.857502 191.534448 
L 140.914666 190.607358 
L 140.986144 189.680268 
L 141.035266 188.753177 
L 141.072267 187.826087 
L 141.09273 186.898997 
L 141.10543 185.971906 
L 141.110368 185.744315 
L 141.18542 185.044816 
L 141.281306 184.117726 
L 141.399099 183.190635 
L 141.686642 182.263545 
L 142.043478 181.413716 
L 142.093952 181.336455 
L 142.618275 180.409365 
L 142.976589 179.78924 
L 143.164805 179.482274 
L 143.657024 178.555184 
L 143.909699 178.143772 
L 144.188838 177.628094 
L 144.624792 176.701003 
L 144.842809 176.30223 
L 145.10285 175.773913 
L 145.487434 174.846823 
L 145.77592 174.285108 
L 145.963331 173.919732 
L 146.269871 172.992642 
L 146.686587 172.065552 
L 146.70903 172.020303 
L 147.039003 171.138462 
L 147.381558 170.211371 
L 147.64214 169.620503 
L 147.786129 169.284281 
L 147.896378 168.357191 
L 147.971891 167.4301 
L 148.260412 166.50301 
L 148.575251 165.926577 
L 148.788162 165.57592 
L 148.939984 164.648829 
L 149.359341 163.721739 
L 149.508361 163.480512 
L 149.858823 162.794649 
L 150.441472 161.921899 
L 150.483696 161.867559 
L 150.930329 160.940468 
L 151.374582 160.10332 
L 151.428626 160.013378 
L 151.716971 159.086288 
L 152.049526 158.159197 
L 152.307692 157.60646 
L 152.472516 157.232107 
L 152.75644 156.305017 
L 153.103904 155.377926 
L 153.240803 155.07113 
L 153.466564 154.450836 
L 153.737339 153.523746 
L 154.074878 152.596656 
L 154.173913 152.376528 
L 154.426352 151.669565 
L 154.703762 150.742475 
L 155.107023 150.006811 
L 155.226391 149.815385 
L 155.754104 148.888294 
L 156.040134 148.482675 
L 156.374402 147.961204 
L 156.967552 147.034114 
L 156.973244 147.026727 
L 157.615296 146.107023 
L 157.906355 145.72529 
L 158.288201 145.179933 
L 158.839465 144.385879 
L 158.946514 144.252843 
L 159.772575 143.435185 
L 159.896729 143.325753 
L 160.705686 142.59298 
L 160.930927 142.398662 
L 161.638796 141.862089 
L 162.174302 141.471572 
L 162.571906 141.171508 
L 163.42116 140.544482 
L 163.505017 140.475387 
L 164.438127 139.776643 
L 164.649402 139.617391 
L 165.371237 139.066387 
L 165.855576 138.690301 
L 166.304348 138.348199 
L 167.174475 137.763211 
L 167.237458 137.719323 
L 168.170569 137.276066 
L 169.103679 136.865982 
L 169.159137 136.83612 
L 170.036789 136.478213 
L 170.9699 136.136229 
L 171.5506 135.90903 
L 171.90301 135.764344 
L 172.83612 135.581552 
L 173.769231 135.428475 
L 174.702341 135.29483 
L 175.635452 135.191635 
L 176.568562 135.068583 
L 177.106986 134.98194 
L 177.501672 134.929145 
L 178.434783 134.765265 
L 179.367893 134.597567 
L 180.301003 134.660151 
L 181.234114 134.731992 
L 182.167224 134.865422 
L 182.863134 134.98194 
L 183.100334 135.037484 
L 184.033445 135.218199 
L 184.966555 135.36202 
L 185.899666 135.552832 
L 186.832776 135.78042 
L 187.10347 135.90903 
L 187.765886 136.192049 
L 188.698997 136.479513 
L 189.632107 136.787034 
L 189.749815 136.83612 
L 190.565217 137.127884 
L 191.498328 137.501885 
L 192.058438 137.763211 
L 192.431438 137.941038 
L 193.364548 138.333025 
L 194.088598 138.690301 
L 194.297659 138.803217 
L 195.230769 139.23512 
L 196.024055 139.617391 
L 196.16388 139.696432 
L 197.09699 140.131329 
L 197.903147 140.544482 
L 198.0301 140.621042 
L 198.963211 141.224066 
L 199.348579 141.471572 
L 199.896321 141.757161 
L 200.829431 142.116009 
L 201.540952 142.398662 
L 201.762542 142.510879 
L 202.695652 143.037144 
L 203.140378 143.325753 
L 203.628763 143.634182 
L 204.561873 144.240509 
L 204.579965 144.252843 
L 205.494983 144.826464 
L 205.960288 145.179933 
L 206.428094 145.692373 
L 206.690334 146.107023 
L 207.219881 147.034114 
L 207.361204 147.208294 
L 207.851954 147.961204 
L 208.294314 148.609047 
L 208.501293 148.888294 
L 209.128166 149.815385 
L 209.227425 149.928162 
L 209.803449 150.742475 
L 210.160535 151.247286 
L 210.466033 151.669565 
L 211.093645 152.510233 
L 211.168139 152.596656 
L 211.895159 153.523746 
L 212.026756 153.741846 
L 212.351891 154.450836 
L 212.636691 155.377926 
L 212.959866 156.146377 
L 213.02498 156.305017 
L 213.351217 157.232107 
L 213.621264 158.159197 
L 213.892977 158.806593 
L 214.010235 159.086288 
L 214.297444 160.013378 
L 214.55284 160.940468 
L 214.826087 161.85711 
L 214.829544 161.867559 
L 215.096275 162.794649 
L 215.274815 163.721739 
L 215.47499 164.648829 
L 215.656661 165.57592 
L 215.759197 165.916958 
L 215.906071 166.50301 
L 216.071711 167.4301 
L 216.18004 168.357191 
L 216.286495 169.284281 
L 216.222634 170.211371 
L 216.058951 171.138462 
L 215.835184 172.065552 
L 215.759197 172.304356 
L 215.556483 172.992642 
L 215.31567 173.919732 
L 215.097549 174.846823 
L 215.017514 175.773913 
L 214.943966 176.701003 
L 214.953349 177.628094 
L 214.96637 178.555184 
L 214.952701 179.482274 
L 214.892666 180.409365 
L 214.826087 181.092393 
L 214.799558 181.336455 
L 214.713882 182.263545 
L 214.647676 183.190635 
L 214.616251 184.117726 
L 214.599018 185.044816 
L 214.567002 185.971906 
L 214.489706 186.898997 
L 214.424126 187.826087 
L 214.425563 188.753177 
L 214.437089 189.680268 
L 214.490448 190.607358 
L 214.471282 191.534448 
L 214.121134 192.461538 
L 213.892977 192.924666 
L 213.692204 193.388629 
L 213.358408 194.315719 
L 213.019594 195.242809 
L 212.959866 195.366886 
L 212.665154 196.1699 
L 212.40614 197.09699 
L 212.076632 198.02408 
L 212.026756 198.149907 
L 211.788293 198.951171 
L 211.602024 199.878261 
L 211.164846 200.805351 
L 211.093645 200.911174 
L 210.656547 201.732441 
L 210.160535 202.517715 
L 210.07784 202.659532 
L 209.577694 203.586622 
L 209.227425 204.105175 
L 208.979944 204.513712 
L 208.437462 205.440803 
L 208.294314 205.626464 
L 207.810953 206.367893 
L 207.361204 207.037157 
L 207.18886 207.294983 
L 206.584034 208.222074 
L 206.428094 208.433205 
L 205.949429 209.149164 
L 205.494983 209.827121 
L 205.32967 210.076254 
L 204.689819 211.003344 
L 204.561873 211.137905 
L 203.680403 211.930435 
L 203.628763 211.974861 
L 202.695652 212.710981 
L 202.516928 212.857525 
L 201.762542 213.523069 
L 201.467539 213.784615 
L 200.829431 214.340278 
L 200.409443 214.711706 
L 199.896321 215.141279 
L 199.293213 215.638796 
L 198.963211 215.865617 
L 198.0301 216.306829 
L 197.491508 216.565886 
L 197.09699 216.749277 
L 196.16388 217.145042 
L 195.309424 217.492977 
L 195.230769 217.527866 
L 194.297659 217.905166 
L 193.364548 218.273841 
L 193.04164 218.420067 
L 192.431438 218.686969 
L 191.498328 218.985558 
L 190.565217 219.138623 
L 189.632107 219.312745 
L 189.489612 219.347157 
L 188.698997 219.506015 
L 187.765886 219.711084 
L 186.832776 220.044857 
L 186.30263 220.274247 
L 185.899666 220.463346 
L 184.966555 220.882106 
L 184.17256 221.201338 
L 184.033445 221.265327 
L 183.100334 221.651842 
L 182.167224 222.055442 
L 182.042477 222.128428 
L 181.234114 222.5245 
L 180.301003 222.796057 
L 179.367893 222.9127 
L 178.60694 223.055518 
L 178.434783 223.086015 
L 177.501672 223.253032 
L 176.568562 223.392943 
L 175.635452 223.532656 
L 174.702341 223.672397 
L 173.769231 223.776663 
L 172.83612 223.925234 
L 172.58023 223.982609 
L 171.90301 224.122107 
L 170.9699 224.288077 
L 170.036789 224.42459 
L 169.103679 224.442124 
L 168.170569 224.423941 
L 167.237458 224.388808 
L 166.304348 224.312568 
L 165.371237 224.114045 
z
" clip-path="url(#p16af8619a2)" style="fill: none; stroke: #000000; stroke-width: 1.5"/>
   </g>
   <g id="PathCollection_4">
    <path d="M 163.505017 247.189687 
L 163.324172 247.159866 
L 162.571906 247.03554 
L 161.638796 246.874481 
L 160.705686 246.712608 
L 159.772575 246.55074 
L 158.839465 246.294642 
L 158.625135 246.232776 
L 157.906355 246.0253 
L 156.973244 245.752724 
L 156.040134 245.401459 
L 155.829042 245.305686 
L 155.107023 244.978107 
L 154.173913 244.554748 
L 153.5624 244.378595 
L 153.240803 244.294076 
L 152.307692 244.068842 
L 151.374582 243.819873 
L 150.441472 243.552961 
L 150.086774 243.451505 
L 149.508361 243.286057 
L 148.575251 243.019126 
L 147.64214 242.722949 
L 147.126554 242.524415 
L 146.70903 242.360683 
L 145.77592 241.970857 
L 144.940384 241.597324 
L 144.842809 241.553774 
L 143.909699 241.14196 
L 142.976589 240.730126 
L 142.840882 240.670234 
L 142.043478 240.316407 
L 141.110368 239.796758 
L 141.022369 239.743144 
L 140.177258 239.228255 
L 139.500657 238.816054 
L 139.244147 238.65978 
L 138.311037 237.993591 
L 138.191017 237.888963 
L 137.377926 237.178451 
L 137.130079 236.961873 
L 136.444816 236.363053 
L 136.076614 236.034783 
L 135.511706 235.519982 
L 135.061405 235.107692 
L 134.578595 234.664689 
L 134.054475 234.180602 
L 133.645485 233.797077 
L 133.070587 233.253512 
L 132.712375 232.910855 
L 132.101402 232.326421 
L 131.779264 232.018178 
L 131.128414 231.399331 
L 130.846154 231.137009 
L 130.13071 230.472241 
L 129.913043 230.260812 
L 129.324014 229.545151 
L 128.979933 229.017358 
L 128.728888 228.61806 
L 128.139345 227.69097 
L 128.046823 227.55069 
L 127.545293 226.76388 
L 127.113712 226.086795 
L 126.954354 225.836789 
L 126.370974 224.909699 
L 126.180602 224.565628 
L 125.863752 223.982609 
L 125.35989 223.055518 
L 125.247492 222.838441 
L 124.885695 222.128428 
L 124.431439 221.201338 
L 124.314381 220.962428 
L 123.977204 220.274247 
L 123.525672 219.347157 
L 123.381271 219.046775 
L 123.083384 218.420067 
L 122.605993 217.492977 
L 122.448161 217.240844 
L 121.991989 216.565886 
L 121.554035 215.638796 
L 121.51505 215.514997 
L 121.262095 214.711706 
L 120.961156 213.784615 
L 120.644308 212.857525 
L 120.58194 212.685127 
L 120.304673 211.930435 
L 119.961517 211.003344 
L 119.648829 210.158536 
L 119.618201 210.076254 
L 119.266047 209.149164 
L 118.904122 208.222074 
L 118.715719 207.570466 
L 118.639398 207.294983 
L 118.446822 206.367893 
L 118.294946 205.440803 
L 118.152873 204.513712 
L 118.013927 203.586622 
L 117.874999 202.659532 
L 117.782609 202.043058 
L 117.73616 201.732441 
L 117.605323 200.805351 
L 117.474095 199.878261 
L 117.271204 198.951171 
L 117.102956 198.02408 
L 117.222438 197.09699 
L 117.239508 196.1699 
L 117.197265 195.242809 
L 117.15503 194.315719 
L 117.112787 193.388629 
L 117.086196 192.461538 
L 117.09795 191.534448 
L 117.109709 190.607358 
L 117.121474 189.680268 
L 117.133234 188.753177 
L 117.171512 187.826087 
L 117.328229 186.898997 
L 117.503115 185.971906 
L 117.665892 185.044816 
L 117.782609 184.375813 
L 117.829153 184.117726 
L 117.996345 183.190635 
L 118.168693 182.263545 
L 118.344929 181.336455 
L 118.571363 180.409365 
L 118.715719 180.037844 
L 118.932651 179.482274 
L 119.250961 178.555184 
L 119.437791 177.628094 
L 119.648829 176.90781 
L 119.709936 176.701003 
L 119.969177 175.773913 
L 120.216012 174.846823 
L 120.330094 173.919732 
L 120.398773 172.992642 
L 120.579766 172.065552 
L 120.58194 172.05911 
L 120.892579 171.138462 
L 121.206749 170.211371 
L 121.51505 169.311307 
L 121.524292 169.284281 
L 121.843074 168.357191 
L 122.16428 167.4301 
L 122.448161 166.699199 
L 122.529314 166.50301 
L 122.929337 165.57592 
L 123.329537 164.648829 
L 123.381271 164.528991 
L 123.729749 163.721739 
L 124.116775 162.794649 
L 124.314381 162.160103 
L 124.399952 161.867559 
L 124.671109 160.940468 
L 124.942281 160.013378 
L 125.205146 159.086288 
L 125.247492 158.933858 
L 125.462692 158.159197 
L 125.720237 157.232107 
L 126.053773 156.305017 
L 126.180602 156.098004 
L 126.631461 155.377926 
L 127.113712 154.561264 
L 127.175123 154.450836 
L 127.631882 153.523746 
L 128.046823 152.680233 
L 128.087936 152.596656 
L 128.544997 151.669565 
L 128.979933 150.799203 
L 129.008387 150.742475 
L 129.476384 149.815385 
L 129.913043 148.960351 
L 129.950065 148.888294 
L 130.426394 147.961204 
L 130.821567 147.034114 
L 130.846154 146.96667 
L 131.171529 146.107023 
L 131.566513 145.179933 
L 131.779264 144.685854 
L 131.965717 144.252843 
L 132.364924 143.325753 
L 132.712375 142.51884 
L 132.763769 142.398662 
L 133.148337 141.471572 
L 133.522105 140.544482 
L 133.645485 140.222533 
L 133.873143 139.617391 
L 134.271291 138.690301 
L 134.578595 138.252505 
L 134.953732 137.763211 
L 135.511706 137.03835 
L 135.667378 136.83612 
L 136.349758 135.90903 
L 136.444816 135.771965 
L 136.98979 134.98194 
L 137.377926 134.419275 
L 137.629323 134.054849 
L 138.268839 133.127759 
L 138.311037 133.066245 
L 138.900377 132.200669 
L 139.244147 131.688727 
L 139.522919 131.273579 
L 140.106479 130.346488 
L 140.177258 130.244268 
L 140.766137 129.419398 
L 141.110368 128.937309 
L 141.428124 128.492308 
L 142.043478 127.630528 
L 142.090112 127.565217 
L 142.873097 126.638127 
L 142.976589 126.536775 
L 143.909699 125.722782 
L 143.925697 125.711037 
L 144.842809 125.086075 
L 145.288439 124.783946 
L 145.77592 124.453446 
L 146.63806 123.856856 
L 146.70903 123.806756 
L 147.64214 123.139342 
L 147.935154 122.929766 
L 148.575251 122.471943 
L 149.231346 122.002676 
L 149.508361 121.804543 
L 150.441472 121.137132 
L 150.523939 121.075585 
L 151.374582 120.416695 
L 151.710366 120.148495 
L 152.307692 119.671388 
L 152.871079 119.221405 
L 153.240803 118.93175 
L 154.173913 118.366011 
L 154.308519 118.294314 
L 155.107023 117.867494 
L 156.040134 117.410109 
L 156.127627 117.367224 
L 156.973244 116.952752 
L 157.906355 116.495379 
L 158.019068 116.440134 
L 158.839465 116.038019 
L 159.772575 115.574535 
L 159.894998 115.513043 
L 160.705686 115.102098 
L 161.638796 114.645116 
L 161.790872 114.585953 
L 162.571906 114.296227 
L 163.505017 113.992453 
L 164.438127 113.68869 
L 164.536877 113.658863 
L 165.371237 113.41899 
L 166.304348 113.171677 
L 167.237458 112.986997 
L 168.170569 112.808009 
L 168.66648 112.731773 
L 169.103679 112.663811 
L 170.036789 112.529103 
L 170.9699 112.415055 
L 171.90301 112.329824 
L 172.83612 112.176045 
L 173.769231 112.007245 
L 174.702341 111.817778 
L 174.781181 111.804682 
L 175.635452 111.657776 
L 176.568562 111.564731 
L 177.501672 111.626706 
L 178.434783 111.719724 
L 179.367893 111.803502 
L 179.381105 111.804682 
L 180.301003 111.886858 
L 181.234114 111.970236 
L 182.167224 112.053594 
L 183.100334 112.136969 
L 184.033445 112.220341 
L 184.966555 112.303705 
L 185.899666 112.387069 
L 186.832776 112.471866 
L 187.765886 112.578187 
L 188.353885 112.731773 
L 188.698997 112.823458 
L 189.632107 113.055735 
L 190.565217 113.285826 
L 191.498328 113.504374 
L 192.431438 113.613579 
L 192.776865 113.658863 
L 193.364548 113.735904 
L 194.297659 113.858244 
L 195.230769 113.96578 
L 196.16388 114.119274 
L 197.09699 114.44313 
L 197.500621 114.585953 
L 198.0301 114.775569 
L 198.963211 115.11534 
L 199.896321 115.457369 
L 200.031076 115.513043 
L 200.829431 115.849599 
L 201.762542 116.257959 
L 202.223706 116.440134 
L 202.695652 116.624629 
L 203.628763 116.974685 
L 204.561873 117.324364 
L 204.676329 117.367224 
L 205.494983 117.666526 
L 206.428094 118.110084 
L 206.73805 118.294314 
L 207.361204 118.664694 
L 208.290974 119.221405 
L 208.294314 119.223468 
L 209.227425 119.825945 
L 209.707437 120.148495 
L 210.160535 120.457661 
L 211.066119 121.075585 
L 211.093645 121.094368 
L 212.026756 121.731033 
L 212.398017 122.002676 
L 212.959866 122.406779 
L 213.657184 122.929766 
L 213.892977 123.106947 
L 214.826087 123.818496 
L 214.884012 123.856856 
L 215.759197 124.385188 
L 216.414461 124.783946 
L 216.692308 124.951069 
L 217.625418 125.51072 
L 217.950613 125.711037 
L 218.558528 126.082689 
L 219.456776 126.638127 
L 219.491639 126.659685 
L 220.424749 127.236692 
L 220.864967 127.565217 
L 221.35786 128.017246 
L 221.807019 128.492308 
L 222.29097 129.003641 
L 222.684472 129.419398 
L 223.22408 129.989524 
L 223.562413 130.346488 
L 224.157191 130.946581 
L 224.485472 131.273579 
L 225.090301 131.913841 
L 225.350176 132.200669 
L 226.023411 133.032148 
L 226.100827 133.127759 
L 226.851489 134.054849 
L 226.956522 134.184573 
L 227.602111 134.98194 
L 227.889632 135.337045 
L 228.352773 135.90903 
L 228.822742 136.489459 
L 229.110859 136.83612 
L 229.755853 137.672992 
L 229.824368 137.763211 
L 230.529274 138.690301 
L 230.688963 138.893429 
L 231.221895 139.617391 
L 231.622074 140.408267 
L 231.686999 140.544482 
L 232.128892 141.471572 
L 232.555184 142.36596 
L 232.570771 142.398662 
L 233.01659 143.325753 
L 233.488294 144.164088 
L 233.539972 144.252843 
L 234.061009 145.179933 
L 234.421405 145.834413 
L 234.571516 146.107023 
L 235.066471 147.034114 
L 235.354515 147.622789 
L 235.517094 147.961204 
L 235.958098 148.888294 
L 236.287625 149.676897 
L 236.343953 149.815385 
L 236.662332 150.742475 
L 236.96962 151.669565 
L 237.220736 152.450285 
L 237.267739 152.596656 
L 237.565455 153.523746 
L 237.863165 154.450836 
L 238.153846 155.356025 
L 238.160876 155.377926 
L 238.450373 156.305017 
L 238.729119 157.232107 
L 238.979983 158.159197 
L 239.086957 158.996585 
L 239.097913 159.086288 
L 239.145934 160.013378 
L 239.193954 160.940468 
L 239.332194 161.867559 
L 239.496336 162.794649 
L 239.623443 163.721739 
L 239.743851 164.648829 
L 239.864261 165.57592 
L 239.984665 166.50301 
L 240.020067 166.775636 
L 240.105054 167.4301 
L 240.137524 168.357191 
L 240.020067 169.093307 
L 239.98934 169.284281 
L 239.829711 170.211371 
L 239.681962 171.138462 
L 239.594466 172.065552 
L 239.506972 172.992642 
L 239.419463 173.919732 
L 239.326739 174.846823 
L 239.225138 175.773913 
L 239.164673 176.701003 
L 239.169084 177.628094 
L 239.174074 178.555184 
L 239.179796 179.482274 
L 239.173 180.409365 
L 239.145912 181.336455 
L 239.118288 182.263545 
L 239.086957 182.621638 
L 239.037526 183.190635 
L 238.950369 184.117726 
L 238.863981 185.044816 
L 238.788849 185.971906 
L 238.715302 186.898997 
L 238.643306 187.826087 
L 238.540245 188.753177 
L 238.425948 189.680268 
L 238.311658 190.607358 
L 238.197359 191.534448 
L 238.153846 191.887431 
L 238.083076 192.461538 
L 237.968989 193.388629 
L 237.857271 194.315719 
L 237.79235 195.242809 
L 237.701355 196.1699 
L 237.638368 197.09699 
L 237.396375 198.02408 
L 237.220736 198.702154 
L 237.157529 198.951171 
L 236.935756 199.878261 
L 236.713983 200.805351 
L 236.467302 201.732441 
L 236.287625 202.305104 
L 236.171933 202.659532 
L 235.869317 203.586622 
L 235.560514 204.513712 
L 235.354515 205.07451 
L 235.216674 205.440803 
L 234.845086 206.367893 
L 234.473497 207.294983 
L 234.421405 207.424957 
L 234.101922 208.222074 
L 233.730329 209.149164 
L 233.488294 209.753036 
L 233.349543 210.076254 
L 232.775312 211.003344 
L 232.555184 211.309203 
L 232.104227 211.930435 
L 231.622074 212.594615 
L 231.431996 212.857525 
L 230.73095 213.784615 
L 230.688963 213.842358 
L 230.156919 214.711706 
L 229.755853 215.523025 
L 229.696323 215.638796 
L 229.137614 216.565886 
L 228.822742 217.055214 
L 228.53841 217.492977 
L 227.974218 218.420067 
L 227.889632 218.559063 
L 227.383255 219.347157 
L 226.956522 219.937643 
L 226.703604 220.274247 
L 226.023411 221.179558 
L 226.007238 221.201338 
L 225.331178 222.128428 
L 225.090301 222.464021 
L 224.665737 223.055518 
L 224.157191 223.764027 
L 224.000304 223.982609 
L 223.316328 224.909699 
L 223.22408 225.020113 
L 222.529315 225.836789 
L 222.29097 226.116964 
L 221.740658 226.76388 
L 221.35786 227.213857 
L 220.951974 227.69097 
L 220.424749 228.310732 
L 220.16331 228.61806 
L 219.491639 229.397025 
L 219.339471 229.545151 
L 218.558528 230.190585 
L 218.199342 230.472241 
L 217.625418 230.910121 
L 216.940088 231.399331 
L 216.692308 231.569313 
L 215.759197 232.208584 
L 215.588045 232.326421 
L 214.826087 232.855579 
L 214.313289 233.253512 
L 213.892977 233.6027 
L 213.178972 234.180602 
L 212.959866 234.357435 
L 212.033483 235.107692 
L 212.026756 235.113125 
L 211.093645 235.801215 
L 210.557997 236.034783 
L 210.160535 236.189332 
L 209.227425 236.557818 
L 208.294314 236.927464 
L 208.206983 236.961873 
L 207.361204 237.293251 
L 206.428094 237.662764 
L 205.954007 237.888963 
L 205.494983 238.111838 
L 204.561873 238.5617 
L 204.044057 238.816054 
L 203.628763 239.021093 
L 202.695652 239.507312 
L 202.204788 239.743144 
L 201.762542 239.950474 
L 200.829431 240.383691 
L 200.212242 240.670234 
L 199.896321 240.816911 
L 198.963211 241.230181 
L 198.123412 241.597324 
L 198.0301 241.638119 
L 197.09699 241.971291 
L 196.16388 242.213037 
L 195.230769 242.449743 
L 194.936398 242.524415 
L 194.297659 242.686478 
L 193.364548 242.919588 
L 192.431438 243.139026 
L 191.51582 243.451505 
L 191.498328 243.457738 
L 190.565217 243.828069 
L 189.632107 244.203658 
L 189.217465 244.378595 
L 188.698997 244.598553 
L 187.765886 244.993136 
L 186.832776 245.230589 
L 186.280709 245.305686 
L 185.899666 245.357519 
L 184.966555 245.484438 
L 184.033445 245.611359 
L 183.100334 245.73828 
L 182.167224 245.865204 
L 181.234114 245.994006 
L 180.301003 246.121069 
L 179.370722 246.232776 
L 179.367893 246.233116 
L 178.434783 246.330531 
L 177.501672 246.387166 
L 176.568562 246.443787 
L 175.635452 246.500394 
L 174.702341 246.587705 
L 173.769231 246.724599 
L 172.83612 246.861474 
L 171.90301 246.998354 
L 170.9699 247.13524 
L 170.802015 247.159866 
L 170.036789 247.272115 
L 169.103679 247.408995 
L 168.170569 247.525885 
L 167.237458 247.596722 
L 166.304348 247.519816 
L 165.371237 247.442895 
L 164.438127 247.339122 
L 163.505017 247.189687 
z
" clip-path="url(#p16af8619a2)" style="fill: none; stroke: #000000; stroke-width: 1.5"/>
   </g>
   <g id="patch_3">
    <path d="M 45 320.4 
L 45 43.2 
" style="fill: none; stroke: #000000; stroke-width: 0.8; stroke-linejoin: miter; stroke-linecap: square"/>
   </g>
   <g id="patch_4">
    <path d="M 324 320.4 
L 324 43.2 
" style="fill: none; stroke: #000000; stroke-width: 0.8; stroke-linejoin: miter; stroke-linecap: square"/>
   </g>
   <g id="patch_5">
    <path d="M 45 320.4 
L 324 320.4 
" style="fill: none; stroke: #000000; stroke-width: 0.8; stroke-linejoin: miter; stroke-linecap: square"/>
   </g>
   <g id="patch_6">
    <path d="M 45 43.2 
L 324 43.2 
" style="fill: none; stroke: #000000; stroke-width: 0.8; stroke-linejoin: miter; stroke-linecap: square"/>
   </g>
  </g>
 </g>
 <defs>
  <clipPath id="p16af8619a2">
   <rect x="45" y="43.2" width="279" height="277.2"/>
  </clipPath>
 </defs>
</svg>
