<?xml version="1.0" encoding="utf-8" standalone="no"?>
<!DOCTYPE svg PUBLIC "-//W3C//DTD SVG 1.1//EN"
  "http://www.w3.org/Graphics/SVG/1.1/DTD/svg11.dtd">
<svg xmlns:xlink="http://www.w3.org/1999/xlink" width="360pt" height="360pt" viewBox="0 0 360 360" xmlns="http://www.w3.org/2000/svg" version="1.1">
 <metadata>
  <rdf:RDF xmlns:dc="http://purl.org/dc/elements/1.1/" xmlns:cc="http://creativecommons.org/ns#" xmlns:rdf="http://www.w3.org/1999/02/22-rdf-syntax-ns#">
   <cc:Work>
    <dc:type rdf:resource="http://purl.org/dc/dcmitype/StillImage"/>
    <dc:date>2022-04-10T19:53:35.869562</dc:date>
    <dc:format>image/svg+xml</dc:format>
    <dc:creator>
     <cc:Agent>
      <dc:title>Matplotlib v3.5.1, https://matplotlib.org/</dc:title>
     </cc:Agent>
    </dc:creator>
   </cc:Work>
  </rdf:RDF>
 </metadata>
 <defs>
  <style type="text/css">*{stroke-linejoin: round; stroke-linecap: butt}</style>
 </defs>
 <g id="figure_1">
  <g id="patch_1">
   <path d="M 0 360 
L 360 360 
L 360 0 
L 0 0 
z
" style="fill: #ffffff"/>
  </g>
  <g id="axes_1">
   <g id="patch_2">
    <path d="M 45 320.4 
L 324 320.4 
L 324 43.2 
L 45 43.2 
z
" style="fill: #ffffff"/>
   </g>
   <g id="PathCollection_1">
    <defs>
     <path id="m0b0fbd3201" d="M 0 0.5 
C 0.132602 0.5 0.25979 0.447317 0.353553 0.353553 
C 0.447317 0.25979 0.5 0.132602 0.5 0 
C 0.5 -0.132602 0.447317 -0.25979 0.353553 -0.353553 
C 0.25979 -0.447317 0.132602 -0.5 0 -0.5 
C -0.132602 -0.5 -0.25979 -0.447317 -0.353553 -0.353553 
C -0.447317 -0.25979 -0.5 -0.132602 -0.5 0 
C -0.5 0.132602 -0.447317 0.25979 -0.353553 0.353553 
C -0.25979 0.447317 -0.132602 0.5 0 0.5 
z
" style="stroke: #ff0000"/>
    </defs>
    <g clip-path="url(#pd94d187b11)">
     <use xlink:href="#m0b0fbd3201" x="220.729976" y="181.336455" style="fill: #ff0000; stroke: #ff0000"/>
     <use xlink:href="#m0b0fbd3201" x="220.208245" y="177.887845" style="fill: #ff0000; stroke: #ff0000"/>
     <use xlink:href="#m0b0fbd3201" x="219.798045" y="174.45274" style="fill: #ff0000; stroke: #ff0000"/>
     <use xlink:href="#m0b0fbd3201" x="219.593759" y="170.900175" style="fill: #ff0000; stroke: #ff0000"/>
     <use xlink:href="#m0b0fbd3201" x="219.580156" y="167.091531" style="fill: #ff0000; stroke: #ff0000"/>
     <use xlink:href="#m0b0fbd3201" x="219.619491" y="162.933574" style="fill: #ff0000; stroke: #ff0000"/>
     <use xlink:href="#m0b0fbd3201" x="219.475797" y="158.42688" style="fill: #ff0000; stroke: #ff0000"/>
     <use xlink:href="#m0b0fbd3201" x="218.871874" y="153.690597" style="fill: #ff0000; stroke: #ff0000"/>
     <use xlink:href="#m0b0fbd3201" x="217.55946" y="148.953827" style="fill: #ff0000; stroke: #ff0000"/>
     <use xlink:href="#m0b0fbd3201" x="215.379545" y="144.517206" style="fill: #ff0000; stroke: #ff0000"/>
     <use xlink:href="#m0b0fbd3201" x="212.296662" y="140.697945" style="fill: #ff0000; stroke: #ff0000"/>
     <use xlink:href="#m0b0fbd3201" x="208.402404" y="137.77394" style="fill: #ff0000; stroke: #ff0000"/>
     <use xlink:href="#m0b0fbd3201" x="203.893273" y="135.938111" style="fill: #ff0000; stroke: #ff0000"/>
     <use xlink:href="#m0b0fbd3201" x="199.03225" y="135.267224" style="fill: #ff0000; stroke: #ff0000"/>
     <use xlink:href="#m0b0fbd3201" x="194.101822" y="135.706663" style="fill: #ff0000; stroke: #ff0000"/>
     <use xlink:href="#m0b0fbd3201" x="189.354159" y="137.075772" style="fill: #ff0000; stroke: #ff0000"/>
     <use xlink:href="#m0b0fbd3201" x="184.966555" y="139.100592" style="fill: #ff0000; stroke: #ff0000"/>
     <use xlink:href="#m0b0fbd3201" x="181.014979" y="141.474275" style="fill: #ff0000; stroke: #ff0000"/>
     <use xlink:href="#m0b0fbd3201" x="177.477756" y="143.930615" style="fill: #ff0000; stroke: #ff0000"/>
     <use xlink:href="#m0b0fbd3201" x="174.270388" y="146.303404" style="fill: #ff0000; stroke: #ff0000"/>
     <use xlink:href="#m0b0fbd3201" x="171.295837" y="148.545351" style="fill: #ff0000; stroke: #ff0000"/>
     <use xlink:href="#m0b0fbd3201" x="168.484216" y="150.699112" style="fill: #ff0000; stroke: #ff0000"/>
     <use xlink:href="#m0b0fbd3201" x="165.802501" y="152.84046" style="fill: #ff0000; stroke: #ff0000"/>
     <use xlink:href="#m0b0fbd3201" x="163.237235" y="155.030023" style="fill: #ff0000; stroke: #ff0000"/>
     <use xlink:href="#m0b0fbd3201" x="160.7744" y="157.300378" style="fill: #ff0000; stroke: #ff0000"/>
     <use xlink:href="#m0b0fbd3201" x="158.401508" y="159.675738" style="fill: #ff0000; stroke: #ff0000"/>
     <use xlink:href="#m0b0fbd3201" x="156.135301" y="162.196313" style="fill: #ff0000; stroke: #ff0000"/>
     <use xlink:href="#m0b0fbd3201" x="154.052687" y="164.919253" style="fill: #ff0000; stroke: #ff0000"/>
     <use xlink:href="#m0b0fbd3201" x="152.294601" y="167.890599" style="fill: #ff0000; stroke: #ff0000"/>
     <use xlink:href="#m0b0fbd3201" x="151.028279" y="171.107811" style="fill: #ff0000; stroke: #ff0000"/>
     <use xlink:href="#m0b0fbd3201" x="150.380736" y="174.501292" style="fill: #ff0000; stroke: #ff0000"/>
     <use xlink:href="#m0b0fbd3201" x="150.376798" y="177.95164" style="fill: #ff0000; stroke: #ff0000"/>
     <use xlink:href="#m0b0fbd3201" x="150.916585" y="181.336455" style="fill: #ff0000; stroke: #ff0000"/>
     <use xlink:href="#m0b0fbd3201" x="151.809281" y="184.581092" style="fill: #ff0000; stroke: #ff0000"/>
     <use xlink:href="#m0b0fbd3201" x="152.85154" y="187.683315" style="fill: #ff0000; stroke: #ff0000"/>
     <use xlink:href="#m0b0fbd3201" x="153.914703" y="190.69516" style="fill: #ff0000; stroke: #ff0000"/>
     <use xlink:href="#m0b0fbd3201" x="154.998796" y="193.669423" style="fill: #ff0000; stroke: #ff0000"/>
     <use xlink:href="#m0b0fbd3201" x="156.227549" y="196.598668" style="fill: #ff0000; stroke: #ff0000"/>
     <use xlink:href="#m0b0fbd3201" x="157.788744" y="199.378929" style="fill: #ff0000; stroke: #ff0000"/>
     <use xlink:href="#m0b0fbd3201" x="159.849451" y="201.816542" style="fill: #ff0000; stroke: #ff0000"/>
     <use xlink:href="#m0b0fbd3201" x="162.481841" y="203.676106" style="fill: #ff0000; stroke: #ff0000"/>
     <use xlink:href="#m0b0fbd3201" x="165.624096" y="204.753253" style="fill: #ff0000; stroke: #ff0000"/>
     <use xlink:href="#m0b0fbd3201" x="169.085348" y="204.95102" style="fill: #ff0000; stroke: #ff0000"/>
     <use xlink:href="#m0b0fbd3201" x="172.592597" y="204.337147" style="fill: #ff0000; stroke: #ff0000"/>
     <use xlink:href="#m0b0fbd3201" x="175.868611" y="203.159129" style="fill: #ff0000; stroke: #ff0000"/>
     <use xlink:href="#m0b0fbd3201" x="178.71852" y="201.800584" style="fill: #ff0000; stroke: #ff0000"/>
     <use xlink:href="#m0b0fbd3201" x="181.093451" y="200.682242" style="fill: #ff0000; stroke: #ff0000"/>
     <use xlink:href="#m0b0fbd3201" x="183.102678" y="200.13863" style="fill: #ff0000; stroke: #ff0000"/>
     <use xlink:href="#m0b0fbd3201" x="184.966555" y="200.320279" style="fill: #ff0000; stroke: #ff0000"/>
     <use xlink:href="#m0b0fbd3201" x="186.932192" y="201.16514" style="fill: #ff0000; stroke: #ff0000"/>
     <use xlink:href="#m0b0fbd3201" x="189.193479" y="202.449538" style="fill: #ff0000; stroke: #ff0000"/>
     <use xlink:href="#m0b0fbd3201" x="191.851318" y="203.88605" style="fill: #ff0000; stroke: #ff0000"/>
     <use xlink:href="#m0b0fbd3201" x="194.9204" y="205.212126" style="fill: #ff0000; stroke: #ff0000"/>
     <use xlink:href="#m0b0fbd3201" x="198.357434" y="206.227398" style="fill: #ff0000; stroke: #ff0000"/>
     <use xlink:href="#m0b0fbd3201" x="202.077752" y="206.779953" style="fill: #ff0000; stroke: #ff0000"/>
     <use xlink:href="#m0b0fbd3201" x="205.948802" y="206.738448" style="fill: #ff0000; stroke: #ff0000"/>
     <use xlink:href="#m0b0fbd3201" x="209.779312" y="205.989129" style="fill: #ff0000; stroke: #ff0000"/>
     <use xlink:href="#m0b0fbd3201" x="213.3327" y="204.465758" style="fill: #ff0000; stroke: #ff0000"/>
     <use xlink:href="#m0b0fbd3201" x="216.373509" y="202.18652" style="fill: #ff0000; stroke: #ff0000"/>
     <use xlink:href="#m0b0fbd3201" x="218.726294" y="199.264992" style="fill: #ff0000; stroke: #ff0000"/>
     <use xlink:href="#m0b0fbd3201" x="220.315696" y="195.884083" style="fill: #ff0000; stroke: #ff0000"/>
     <use xlink:href="#m0b0fbd3201" x="221.171862" y="192.248358" style="fill: #ff0000; stroke: #ff0000"/>
     <use xlink:href="#m0b0fbd3201" x="221.409132" y="188.538567" style="fill: #ff0000; stroke: #ff0000"/>
     <use xlink:href="#m0b0fbd3201" x="221.196338" y="184.881756" style="fill: #ff0000; stroke: #ff0000"/>
    </g>
   </g>
   <g id="matplotlib.axis_1">
    <g id="xtick_1">
     <g id="line2d_1">
      <defs>
       <path id="m4923774feb" d="M 0 0 
L 0 3.5 
" style="stroke: #000000; stroke-width: 0.8"/>
      </defs>
      <g>
       <use xlink:href="#m4923774feb" x="45" y="320.4" style="stroke: #000000; stroke-width: 0.8"/>
      </g>
     </g>
     <g id="text_1">
      <!-- −3 -->
      <g transform="translate(37.628906 334.998438)scale(0.1 -0.1)">
       <defs>
        <path id="DejaVuSans-2212" d="M 678 2272 
L 4684 2272 
L 4684 1741 
L 678 1741 
L 678 2272 
z
" transform="scale(0.015625)"/>
        <path id="DejaVuSans-33" d="M 2597 2516 
Q 3050 2419 3304 2112 
Q 3559 1806 3559 1356 
Q 3559 666 3084 287 
Q 2609 -91 1734 -91 
Q 1441 -91 1130 -33 
Q 819 25 488 141 
L 488 750 
Q 750 597 1062 519 
Q 1375 441 1716 441 
Q 2309 441 2620 675 
Q 2931 909 2931 1356 
Q 2931 1769 2642 2001 
Q 2353 2234 1838 2234 
L 1294 2234 
L 1294 2753 
L 1863 2753 
Q 2328 2753 2575 2939 
Q 2822 3125 2822 3475 
Q 2822 3834 2567 4026 
Q 2313 4219 1838 4219 
Q 1578 4219 1281 4162 
Q 984 4106 628 3988 
L 628 4550 
Q 988 4650 1302 4700 
Q 1616 4750 1894 4750 
Q 2613 4750 3031 4423 
Q 3450 4097 3450 3541 
Q 3450 3153 3228 2886 
Q 3006 2619 2597 2516 
z
" transform="scale(0.015625)"/>
       </defs>
       <use xlink:href="#DejaVuSans-2212"/>
       <use xlink:href="#DejaVuSans-33" x="83.789062"/>
      </g>
     </g>
    </g>
    <g id="xtick_2">
     <g id="line2d_2">
      <g>
       <use xlink:href="#m4923774feb" x="91.655518" y="320.4" style="stroke: #000000; stroke-width: 0.8"/>
      </g>
     </g>
     <g id="text_2">
      <!-- −2 -->
      <g transform="translate(84.284425 334.998438)scale(0.1 -0.1)">
       <defs>
        <path id="DejaVuSans-32" d="M 1228 531 
L 3431 531 
L 3431 0 
L 469 0 
L 469 531 
Q 828 903 1448 1529 
Q 2069 2156 2228 2338 
Q 2531 2678 2651 2914 
Q 2772 3150 2772 3378 
Q 2772 3750 2511 3984 
Q 2250 4219 1831 4219 
Q 1534 4219 1204 4116 
Q 875 4013 500 3803 
L 500 4441 
Q 881 4594 1212 4672 
Q 1544 4750 1819 4750 
Q 2544 4750 2975 4387 
Q 3406 4025 3406 3419 
Q 3406 3131 3298 2873 
Q 3191 2616 2906 2266 
Q 2828 2175 2409 1742 
Q 1991 1309 1228 531 
z
" transform="scale(0.015625)"/>
       </defs>
       <use xlink:href="#DejaVuSans-2212"/>
       <use xlink:href="#DejaVuSans-32" x="83.789062"/>
      </g>
     </g>
    </g>
    <g id="xtick_3">
     <g id="line2d_3">
      <g>
       <use xlink:href="#m4923774feb" x="138.311037" y="320.4" style="stroke: #000000; stroke-width: 0.8"/>
      </g>
     </g>
     <g id="text_3">
      <!-- −1 -->
      <g transform="translate(130.939943 334.998438)scale(0.1 -0.1)">
       <defs>
        <path id="DejaVuSans-31" d="M 794 531 
L 1825 531 
L 1825 4091 
L 703 3866 
L 703 4441 
L 1819 4666 
L 2450 4666 
L 2450 531 
L 3481 531 
L 3481 0 
L 794 0 
L 794 531 
z
" transform="scale(0.015625)"/>
       </defs>
       <use xlink:href="#DejaVuSans-2212"/>
       <use xlink:href="#DejaVuSans-31" x="83.789062"/>
      </g>
     </g>
    </g>
    <g id="xtick_4">
     <g id="line2d_4">
      <g>
       <use xlink:href="#m4923774feb" x="184.966555" y="320.4" style="stroke: #000000; stroke-width: 0.8"/>
      </g>
     </g>
     <g id="text_4">
      <!-- 0 -->
      <g transform="translate(181.785305 334.998438)scale(0.1 -0.1)">
       <defs>
        <path id="DejaVuSans-30" d="M 2034 4250 
Q 1547 4250 1301 3770 
Q 1056 3291 1056 2328 
Q 1056 1369 1301 889 
Q 1547 409 2034 409 
Q 2525 409 2770 889 
Q 3016 1369 3016 2328 
Q 3016 3291 2770 3770 
Q 2525 4250 2034 4250 
z
M 2034 4750 
Q 2819 4750 3233 4129 
Q 3647 3509 3647 2328 
Q 3647 1150 3233 529 
Q 2819 -91 2034 -91 
Q 1250 -91 836 529 
Q 422 1150 422 2328 
Q 422 3509 836 4129 
Q 1250 4750 2034 4750 
z
" transform="scale(0.015625)"/>
       </defs>
       <use xlink:href="#DejaVuSans-30"/>
      </g>
     </g>
    </g>
    <g id="xtick_5">
     <g id="line2d_5">
      <g>
       <use xlink:href="#m4923774feb" x="231.622074" y="320.4" style="stroke: #000000; stroke-width: 0.8"/>
      </g>
     </g>
     <g id="text_5">
      <!-- 1 -->
      <g transform="translate(228.440824 334.998438)scale(0.1 -0.1)">
       <use xlink:href="#DejaVuSans-31"/>
      </g>
     </g>
    </g>
    <g id="xtick_6">
     <g id="line2d_6">
      <g>
       <use xlink:href="#m4923774feb" x="278.277592" y="320.4" style="stroke: #000000; stroke-width: 0.8"/>
      </g>
     </g>
     <g id="text_6">
      <!-- 2 -->
      <g transform="translate(275.096342 334.998438)scale(0.1 -0.1)">
       <use xlink:href="#DejaVuSans-32"/>
      </g>
     </g>
    </g>
   </g>
   <g id="matplotlib.axis_2">
    <g id="ytick_1">
     <g id="line2d_7">
      <defs>
       <path id="md1cfa038b4" d="M 0 0 
L -3.5 0 
" style="stroke: #000000; stroke-width: 0.8"/>
      </defs>
      <g>
       <use xlink:href="#md1cfa038b4" x="45" y="320.4" style="stroke: #000000; stroke-width: 0.8"/>
      </g>
     </g>
     <g id="text_7">
      <!-- −3 -->
      <g transform="translate(23.257812 324.199219)scale(0.1 -0.1)">
       <use xlink:href="#DejaVuSans-2212"/>
       <use xlink:href="#DejaVuSans-33" x="83.789062"/>
      </g>
     </g>
    </g>
    <g id="ytick_2">
     <g id="line2d_8">
      <g>
       <use xlink:href="#md1cfa038b4" x="45" y="274.045485" style="stroke: #000000; stroke-width: 0.8"/>
      </g>
     </g>
     <g id="text_8">
      <!-- −2 -->
      <g transform="translate(23.257812 277.844704)scale(0.1 -0.1)">
       <use xlink:href="#DejaVuSans-2212"/>
       <use xlink:href="#DejaVuSans-32" x="83.789062"/>
      </g>
     </g>
    </g>
    <g id="ytick_3">
     <g id="line2d_9">
      <g>
       <use xlink:href="#md1cfa038b4" x="45" y="227.69097" style="stroke: #000000; stroke-width: 0.8"/>
      </g>
     </g>
     <g id="text_9">
      <!-- −1 -->
      <g transform="translate(23.257812 231.490189)scale(0.1 -0.1)">
       <use xlink:href="#DejaVuSans-2212"/>
       <use xlink:href="#DejaVuSans-31" x="83.789062"/>
      </g>
     </g>
    </g>
    <g id="ytick_4">
     <g id="line2d_10">
      <g>
       <use xlink:href="#md1cfa038b4" x="45" y="181.336455" style="stroke: #000000; stroke-width: 0.8"/>
      </g>
     </g>
     <g id="text_10">
      <!-- 0 -->
      <g transform="translate(31.6375 185.135674)scale(0.1 -0.1)">
       <use xlink:href="#DejaVuSans-30"/>
      </g>
     </g>
    </g>
    <g id="ytick_5">
     <g id="line2d_11">
      <g>
       <use xlink:href="#md1cfa038b4" x="45" y="134.98194" style="stroke: #000000; stroke-width: 0.8"/>
      </g>
     </g>
     <g id="text_11">
      <!-- 1 -->
      <g transform="translate(31.6375 138.781159)scale(0.1 -0.1)">
       <use xlink:href="#DejaVuSans-31"/>
      </g>
     </g>
    </g>
    <g id="ytick_6">
     <g id="line2d_12">
      <g>
       <use xlink:href="#md1cfa038b4" x="45" y="88.627425" style="stroke: #000000; stroke-width: 0.8"/>
      </g>
     </g>
     <g id="text_12">
      <!-- 2 -->
      <g transform="translate(31.6375 92.426643)scale(0.1 -0.1)">
       <use xlink:href="#DejaVuSans-32"/>
      </g>
     </g>
    </g>
   </g>
   <g id="PathCollection_2">
    <path d="M 185.899666 181.403263 
L 185.47953 181.336455 
L 184.966555 181.247932 
L 184.033445 181.218974 
L 183.100334 181.196 
L 182.167224 181.20248 
L 181.234114 181.247857 
L 180.301003 181.196771 
L 179.367893 181.110904 
L 178.434783 181.066461 
L 177.501672 181.014772 
L 176.568562 180.548829 
L 176.477645 180.409365 
L 176.528804 179.482274 
L 176.568562 178.761958 
L 176.579975 178.555184 
L 176.634826 177.628094 
L 177.063833 176.701003 
L 177.501672 176.104641 
L 177.780172 175.773913 
L 178.434783 175.275822 
L 179.291517 174.846823 
L 179.367893 174.812179 
L 180.301003 174.30065 
L 180.981934 173.919732 
L 181.234114 173.784728 
L 182.167224 173.235374 
L 182.573385 172.992642 
L 183.100334 172.559802 
L 183.606894 172.065552 
L 184.033445 171.648178 
L 184.594836 171.138462 
L 184.966555 170.781504 
L 185.528085 170.211371 
L 185.899666 169.723249 
L 186.18089 169.284281 
L 186.779154 168.357191 
L 186.832776 168.261134 
L 187.341935 167.4301 
L 187.765886 166.782419 
L 187.98986 166.50301 
L 188.698997 165.833334 
L 188.94485 165.57592 
L 189.632107 164.851915 
L 189.822608 164.648829 
L 190.565217 163.823055 
L 190.662736 163.721739 
L 191.498328 162.853589 
L 191.555058 162.794649 
L 192.431438 161.884139 
L 192.447681 161.867559 
L 193.364548 161.106659 
L 193.701089 160.940468 
L 194.297659 160.700368 
L 195.230769 160.57108 
L 196.16388 160.53248 
L 197.09699 160.9165 
L 197.110595 160.940468 
L 197.622705 161.867559 
L 198.0301 162.605096 
L 198.123797 162.794649 
L 198.519754 163.721739 
L 198.818713 164.648829 
L 198.963211 165.313539 
L 199.007442 165.57592 
L 199.025193 166.50301 
L 198.963211 166.918174 
L 198.877879 167.4301 
L 198.674813 168.357191 
L 198.330562 169.284281 
L 198.0301 170.160393 
L 198.013247 170.211371 
L 197.765125 171.138462 
L 197.666267 172.065552 
L 197.634982 172.992642 
L 197.630702 173.919732 
L 197.593553 174.846823 
L 197.218332 175.773913 
L 197.09699 176.073718 
L 196.792061 176.701003 
L 196.309628 177.628094 
L 196.16388 177.884468 
L 195.769159 178.555184 
L 195.230769 179.470008 
L 195.224256 179.482274 
L 194.623538 180.409365 
L 194.297659 180.737323 
L 193.470017 181.336455 
L 193.364548 181.378474 
L 192.431438 181.555575 
L 191.498328 181.662521 
L 190.565217 181.699318 
L 189.632107 181.730939 
L 188.698997 181.75724 
L 187.765886 181.677935 
L 186.832776 181.557237 
L 185.899666 181.403263 
z
" clip-path="url(#pd94d187b11)" style="fill: none; stroke-dasharray: 5.55,2.4; stroke-dashoffset: 0; stroke: #000000; stroke-width: 1.5"/>
   </g>
   <g id="PathCollection_3">
    <path d="M 200.829431 207.47223 
L 200.130419 207.294983 
L 199.896321 207.237839 
L 198.963211 207.05718 
L 198.0301 206.905072 
L 197.09699 206.715876 
L 196.16388 206.460007 
L 195.8774 206.367893 
L 195.230769 206.221128 
L 194.297659 206.09256 
L 193.364548 205.89389 
L 192.431438 205.552412 
L 192.085092 205.440803 
L 191.498328 205.317103 
L 190.565217 205.148283 
L 189.632107 204.87193 
L 188.698997 204.55254 
L 188.539614 204.513712 
L 187.765886 204.357973 
L 186.832776 204.142092 
L 185.899666 203.966591 
L 184.966555 203.811617 
L 184.033445 203.646396 
L 183.615175 203.586622 
L 183.100334 203.529267 
L 182.167224 203.584759 
L 182.155954 203.586622 
L 181.234114 203.795834 
L 180.301003 204.004946 
L 179.367893 204.241823 
L 178.434783 204.503366 
L 178.284229 204.513712 
L 177.501672 204.574124 
L 176.568562 204.629658 
L 175.635452 204.685082 
L 174.702341 204.740413 
L 173.769231 204.78149 
L 172.83612 204.825132 
L 171.90301 204.86908 
L 170.9699 204.904803 
L 170.036789 204.856644 
L 169.103679 204.646515 
L 168.444166 204.513712 
L 168.170569 204.458063 
L 167.237458 204.196338 
L 166.304348 203.963039 
L 165.429897 203.586622 
L 165.371237 203.554483 
L 164.438127 202.986681 
L 163.69448 202.659532 
L 163.505017 202.596454 
L 162.571906 202.233351 
L 161.638796 201.882265 
L 161.239639 201.732441 
L 160.705686 201.565414 
L 159.772575 201.170089 
L 159.0546 200.805351 
L 158.839465 200.713879 
L 157.906355 200.017512 
L 157.768259 199.878261 
L 156.991435 198.951171 
L 156.973244 198.92655 
L 156.282393 198.02408 
L 156.040134 197.648919 
L 155.637254 197.09699 
L 155.107023 196.275618 
L 155.034607 196.1699 
L 154.303756 195.242809 
L 154.173913 195.080148 
L 153.556603 194.315719 
L 153.240803 193.871559 
L 152.910616 193.388629 
L 152.614456 192.461538 
L 152.368347 191.534448 
L 152.307692 191.429391 
L 151.883924 190.607358 
L 151.60989 189.680268 
L 151.432351 188.753177 
L 151.374582 188.645863 
L 150.937486 187.826087 
L 150.695911 186.898997 
L 150.441472 185.992019 
L 150.433197 185.971906 
L 150.090654 185.044816 
L 149.980171 184.117726 
L 149.796981 183.190635 
L 149.719478 182.263545 
L 149.644931 181.336455 
L 149.508361 180.42378 
L 149.505547 180.409365 
L 149.342322 179.482274 
L 149.212865 178.555184 
L 149.111496 177.628094 
L 149.028512 176.701003 
L 149.082726 175.773913 
L 149.443724 174.846823 
L 149.508361 174.704243 
L 149.763721 173.919732 
L 150.00119 172.992642 
L 150.330232 172.065552 
L 150.441472 171.814355 
L 150.675397 171.138462 
L 150.986599 170.211371 
L 151.374582 169.453519 
L 151.471643 169.284281 
L 151.793387 168.357191 
L 152.219669 167.4301 
L 152.307692 167.296886 
L 152.765607 166.50301 
L 153.240803 165.837774 
L 153.418611 165.57592 
L 153.860168 164.648829 
L 154.173913 164.3025 
L 154.73207 163.721739 
L 155.107023 163.348812 
L 155.652927 162.794649 
L 156.040134 162.406729 
L 156.609672 161.867559 
L 156.973244 161.486074 
L 157.363885 160.940468 
L 157.906355 160.143053 
L 158.00712 160.013378 
L 158.519917 159.086288 
L 158.839465 158.616457 
L 159.101531 158.159197 
L 159.578609 157.232107 
L 159.772575 156.949941 
L 160.114479 156.305017 
L 160.463396 155.377926 
L 160.705686 154.974983 
L 161.034106 154.450836 
L 161.638796 153.616962 
L 161.712513 153.523746 
L 162.49726 152.596656 
L 162.571906 152.529629 
L 163.505017 151.803798 
L 163.677543 151.669565 
L 164.438127 151.069586 
L 164.872258 150.742475 
L 165.371237 150.365922 
L 166.239176 149.815385 
L 166.304348 149.767374 
L 167.237458 149.16697 
L 167.66985 148.888294 
L 168.170569 148.553714 
L 169.103679 148.005085 
L 169.152551 147.961204 
L 170.036789 147.16698 
L 170.187913 147.034114 
L 170.9699 146.332736 
L 171.243829 146.107023 
L 171.90301 145.563288 
L 172.367758 145.179933 
L 172.83612 144.798104 
L 173.512832 144.252843 
L 173.769231 144.043294 
L 174.702341 143.382457 
L 174.77444 143.325753 
L 175.635452 142.653769 
L 175.941944 142.398662 
L 176.568562 141.882993 
L 177.079725 141.471572 
L 177.501672 141.147202 
L 178.278364 140.544482 
L 178.434783 140.414151 
L 179.367893 139.701663 
L 179.472071 139.617391 
L 180.301003 139.02118 
L 180.953198 138.690301 
L 181.234114 138.54746 
L 182.167224 138.255777 
L 183.100334 137.975085 
L 183.711513 137.763211 
L 184.033445 137.647205 
L 184.966555 137.303122 
L 185.899666 136.930035 
L 186.064169 136.83612 
L 186.832776 136.500441 
L 187.765886 136.270345 
L 188.698997 136.231218 
L 189.632107 136.208385 
L 190.565217 136.190568 
L 191.498328 136.194654 
L 192.431438 136.215111 
L 193.364548 136.268844 
L 194.297659 136.323449 
L 195.230769 136.363939 
L 196.16388 136.319219 
L 197.09699 136.274335 
L 198.0301 136.231705 
L 198.963211 136.246529 
L 199.896321 136.287238 
L 200.829431 136.517709 
L 201.762542 136.732826 
L 202.154561 136.83612 
L 202.695652 136.990931 
L 203.628763 137.174715 
L 204.561873 137.38188 
L 205.494983 137.713559 
L 205.598759 137.763211 
L 206.428094 138.106027 
L 207.361204 138.464499 
L 207.905833 138.690301 
L 208.294314 138.865885 
L 209.227425 139.258903 
L 209.978788 139.617391 
L 210.160535 139.749786 
L 211.093645 140.099509 
L 211.665123 140.544482 
L 212.026756 141.05412 
L 212.313007 141.471572 
L 212.858748 142.398662 
L 212.959866 142.526904 
L 213.452854 143.325753 
L 213.892977 143.968656 
L 214.094181 144.252843 
L 214.707492 145.179933 
L 214.826087 145.318215 
L 215.394965 146.107023 
L 215.759197 146.61471 
L 216.061386 147.034114 
L 216.660254 147.961204 
L 216.692308 147.997523 
L 217.236934 148.888294 
L 217.625418 149.51764 
L 217.827632 149.815385 
L 218.25831 150.742475 
L 218.558528 151.453522 
L 218.659027 151.669565 
L 219.013919 152.596656 
L 219.308429 153.523746 
L 219.491639 153.882555 
L 219.745266 154.450836 
L 220.057307 155.377926 
L 220.420457 156.305017 
L 220.424749 156.312687 
L 220.775146 157.232107 
L 220.926292 158.159197 
L 221.062341 159.086288 
L 221.162443 160.013378 
L 221.279398 160.940468 
L 221.185927 161.867559 
L 221.108587 162.794649 
L 221.087781 163.721739 
L 221.149278 164.648829 
L 221.24547 165.57592 
L 221.35786 166.097951 
L 221.437195 166.50301 
L 221.579606 167.4301 
L 221.677765 168.357191 
L 221.767606 169.284281 
L 221.869583 170.211371 
L 221.968153 171.138462 
L 222.056865 172.065552 
L 222.268485 172.992642 
L 222.29097 173.451563 
L 222.312595 173.919732 
L 222.314577 174.846823 
L 222.316546 175.773913 
L 222.318512 176.701003 
L 222.320484 177.628094 
L 222.322459 178.555184 
L 222.324414 179.482274 
L 222.361365 180.409365 
L 222.447923 181.336455 
L 222.527085 182.263545 
L 222.571556 183.190635 
L 222.600064 184.117726 
L 222.649441 185.044816 
L 222.691111 185.971906 
L 222.757005 186.898997 
L 222.842356 187.826087 
L 222.927559 188.753177 
L 222.894955 189.680268 
L 222.700984 190.607358 
L 222.476316 191.534448 
L 222.29097 192.073892 
L 222.172734 192.461538 
L 221.942965 193.388629 
L 221.659385 194.315719 
L 221.35786 194.949356 
L 221.229214 195.242809 
L 220.784385 196.1699 
L 220.424749 196.722246 
L 220.230322 197.09699 
L 219.741143 198.02408 
L 219.491639 198.395701 
L 219.200757 198.951171 
L 218.695294 199.878261 
L 218.558528 200.056081 
L 217.695516 200.805351 
L 217.625418 200.858077 
L 216.692308 201.461338 
L 216.280093 201.732441 
L 215.759197 202.069531 
L 214.826087 202.579102 
L 214.67063 202.659532 
L 213.892977 203.059399 
L 212.959866 203.508872 
L 212.795217 203.586622 
L 212.026756 203.965438 
L 211.093645 204.370264 
L 210.771203 204.513712 
L 210.160535 204.802326 
L 209.227425 205.201751 
L 208.65674 205.440803 
L 208.294314 205.606706 
L 207.361204 205.958922 
L 206.428094 206.315992 
L 206.294899 206.367893 
L 205.494983 206.690023 
L 204.561873 207.040963 
L 203.628763 207.243265 
L 203.210199 207.294983 
L 202.695652 207.367264 
L 201.762542 207.460577 
L 200.829431 207.47223 
z
" clip-path="url(#pd94d187b11)" style="fill: none; stroke: #000000; stroke-width: 1.5"/>
   </g>
   <g id="PathCollection_4">
    <path d="M 201.762542 229.586013 
L 201.375133 229.545151 
L 200.829431 229.488185 
L 199.896321 229.389918 
L 198.963211 229.288117 
L 198.0301 229.16946 
L 197.09699 229.053011 
L 196.16388 229.001305 
L 195.230769 228.969124 
L 194.297659 228.937683 
L 193.364548 228.906231 
L 192.431438 228.874788 
L 191.498328 228.843347 
L 190.565217 228.811893 
L 189.632107 228.780457 
L 188.698997 228.754736 
L 187.765886 228.772301 
L 186.832776 228.899911 
L 185.899666 229.02177 
L 184.966555 229.126448 
L 184.033445 229.189258 
L 183.100334 229.246368 
L 182.167224 229.331131 
L 181.234114 229.426261 
L 180.301003 229.390153 
L 179.367893 229.314587 
L 178.434783 229.22884 
L 177.501672 229.141591 
L 176.568562 229.054346 
L 175.635452 228.975615 
L 174.702341 228.901306 
L 173.769231 228.793447 
L 172.83612 228.680858 
L 172.315607 228.61806 
L 171.90301 228.568283 
L 170.9699 228.455708 
L 170.036789 228.348147 
L 169.103679 228.363134 
L 168.170569 228.426289 
L 167.237458 228.434437 
L 166.304348 228.325687 
L 165.371237 228.193503 
L 164.438127 228.061323 
L 163.505017 227.85323 
L 162.841185 227.69097 
L 162.571906 227.625055 
L 161.638796 227.395595 
L 160.705686 227.165813 
L 159.772575 226.930119 
L 159.117978 226.76388 
L 158.839465 226.693149 
L 157.906355 226.456176 
L 156.973244 226.219196 
L 156.040134 225.982237 
L 155.545207 225.836789 
L 155.107023 225.702868 
L 154.173913 225.354549 
L 153.240803 225.002895 
L 152.993501 224.909699 
L 152.307692 224.651249 
L 151.374582 224.299591 
L 150.533453 223.982609 
L 150.441472 223.943949 
L 149.508361 223.397103 
L 149.065645 223.055518 
L 148.575251 222.661839 
L 147.913564 222.128428 
L 147.64214 221.909618 
L 146.763551 221.201338 
L 146.70903 221.157387 
L 145.77592 220.405142 
L 145.616174 220.274247 
L 144.842809 219.612023 
L 144.53424 219.347157 
L 143.909699 218.811092 
L 143.461586 218.420067 
L 142.976589 217.937297 
L 142.492171 217.492977 
L 142.043478 217.167135 
L 141.171293 216.565886 
L 141.110368 216.524109 
L 140.177258 215.880333 
L 139.852651 215.638796 
L 139.244147 215.171566 
L 138.735128 214.711706 
L 138.311037 214.179376 
L 138.034361 213.784615 
L 137.416408 212.857525 
L 137.377926 212.798762 
L 136.811109 211.930435 
L 136.444816 211.373164 
L 136.202822 211.003344 
L 135.591394 210.076254 
L 135.511706 209.955765 
L 134.978252 209.149164 
L 134.578595 208.544889 
L 134.365093 208.222074 
L 133.751957 207.294983 
L 133.645485 207.134002 
L 133.138788 206.367893 
L 132.712375 205.723146 
L 132.526429 205.440803 
L 131.941944 204.513712 
L 131.779264 204.127841 
L 131.592144 203.586622 
L 131.44543 202.659532 
L 131.214566 201.732441 
L 130.905667 200.805351 
L 130.846154 200.629875 
L 130.591244 199.878261 
L 130.275976 198.951171 
L 129.959178 198.02408 
L 129.913043 197.889395 
L 129.636265 197.09699 
L 129.312435 196.1699 
L 129.05908 195.242809 
L 128.979933 195.007698 
L 128.746989 194.315719 
L 128.434908 193.388629 
L 128.122802 192.461538 
L 128.046823 192.235842 
L 127.805767 191.534448 
L 127.469397 190.607358 
L 127.115366 189.680268 
L 127.113712 189.67588 
L 126.772963 188.753177 
L 126.467364 187.826087 
L 126.180602 187.012883 
L 126.140411 186.898997 
L 125.766921 185.971906 
L 125.552722 185.044816 
L 125.555923 184.117726 
L 125.553216 183.190635 
L 125.547463 182.263545 
L 125.484815 181.336455 
L 125.347376 180.409365 
L 125.369868 179.482274 
L 125.432203 178.555184 
L 125.42733 177.628094 
L 125.425475 176.701003 
L 125.416959 175.773913 
L 125.399731 174.846823 
L 125.380572 173.919732 
L 125.36142 172.992642 
L 125.34227 172.065552 
L 125.518033 171.138462 
L 125.779467 170.211371 
L 126.0409 169.284281 
L 126.180602 168.795613 
L 126.310709 168.357191 
L 126.58761 167.4301 
L 126.859093 166.50301 
L 127.113712 165.634711 
L 127.130952 165.57592 
L 127.410778 164.648829 
L 127.705461 163.721739 
L 128.000149 162.794649 
L 128.046823 162.6478 
L 128.302653 161.867559 
L 128.621963 160.940468 
L 128.946255 160.013378 
L 128.979933 159.919702 
L 129.288053 159.086288 
L 129.688257 158.159197 
L 129.913043 157.655682 
L 130.104205 157.232107 
L 130.525539 156.305017 
L 130.846154 155.818256 
L 131.159387 155.377926 
L 131.779264 154.525777 
L 131.832023 154.450836 
L 132.478207 153.523746 
L 132.712375 153.162349 
L 133.07388 152.596656 
L 133.645485 151.705488 
L 133.668862 151.669565 
L 134.28184 150.742475 
L 134.578595 150.331037 
L 134.981583 149.815385 
L 135.511706 149.146183 
L 135.718141 148.888294 
L 136.444816 147.982409 
L 136.461876 147.961204 
L 137.282418 147.034114 
L 137.377926 146.936486 
L 138.236521 146.107023 
L 138.311037 146.015883 
L 138.857567 145.179933 
L 139.244147 144.55071 
L 139.432346 144.252843 
L 140.047696 143.325753 
L 140.177258 143.127967 
L 140.600314 142.398662 
L 141.004362 141.471572 
L 141.110368 141.267376 
L 141.540696 140.544482 
L 142.043478 139.885739 
L 142.248293 139.617391 
L 142.95589 138.690301 
L 142.976589 138.663181 
L 143.663486 137.763211 
L 143.909699 137.477006 
L 144.544163 136.83612 
L 144.842809 136.541093 
L 145.48261 135.90903 
L 145.77592 135.619261 
L 146.42106 134.98194 
L 146.70903 134.697465 
L 147.359521 134.054849 
L 147.64214 133.775654 
L 148.297975 133.127759 
L 148.575251 132.853832 
L 149.236422 132.200669 
L 149.508361 131.936137 
L 150.245404 131.273579 
L 150.441472 131.11482 
L 151.374582 130.359255 
L 151.390348 130.346488 
L 152.307692 129.604199 
L 152.526154 129.419398 
L 153.240803 128.771962 
L 153.564997 128.492308 
L 154.173913 128.016615 
L 154.770314 127.565217 
L 155.107023 127.31037 
L 155.995235 126.638127 
L 156.040134 126.604459 
L 156.973244 125.954953 
L 157.300117 125.711037 
L 157.906355 125.255103 
L 158.532829 124.783946 
L 158.839465 124.553334 
L 159.772575 123.952454 
L 159.941505 123.856856 
L 160.705686 123.424399 
L 161.579741 122.929766 
L 161.638796 122.896346 
L 162.571906 122.3683 
L 163.245238 122.002676 
L 163.505017 121.861072 
L 164.438127 121.381154 
L 164.884238 121.075585 
L 165.371237 120.730756 
L 166.169351 120.148495 
L 166.304348 120.05001 
L 167.237458 119.505241 
L 167.831343 119.221405 
L 168.170569 119.061879 
L 169.103679 118.658202 
L 169.90801 118.294314 
L 170.036789 118.235397 
L 170.9699 117.808498 
L 171.90301 117.381603 
L 171.934439 117.367224 
L 172.83612 116.958573 
L 173.769231 116.586853 
L 174.173936 116.440134 
L 174.702341 116.249875 
L 175.635452 115.907375 
L 176.568562 115.550577 
L 176.676471 115.513043 
L 177.501672 115.225438 
L 178.434783 114.902082 
L 179.367893 114.616731 
L 179.491234 114.585953 
L 180.301003 114.383888 
L 181.234114 114.151033 
L 182.167224 114.008057 
L 183.100334 113.8799 
L 184.033445 113.748232 
L 184.457594 113.658863 
L 184.966555 113.556796 
L 185.899666 113.513156 
L 186.832776 113.469504 
L 187.765886 113.425855 
L 188.698997 113.382206 
L 189.632107 113.338573 
L 190.565217 113.294926 
L 191.498328 113.250654 
L 192.431438 113.203397 
L 193.364548 113.155705 
L 194.297659 113.093585 
L 195.230769 112.958596 
L 196.16388 112.830359 
L 197.09699 112.755479 
L 197.397904 112.731773 
L 198.0301 112.683082 
L 198.963211 112.611223 
L 199.896321 112.565285 
L 200.829431 112.525408 
L 201.762542 112.602538 
L 202.695652 112.731123 
L 202.698459 112.731773 
L 203.628763 112.95498 
L 204.561873 113.328262 
L 205.365331 113.658863 
L 205.494983 113.711732 
L 206.428094 114.104257 
L 207.361204 114.463494 
L 207.696703 114.585953 
L 208.294314 114.802653 
L 209.227425 115.122008 
L 210.160535 115.452048 
L 210.328252 115.513043 
L 211.093645 115.794441 
L 212.026756 116.107912 
L 212.959866 116.320971 
L 213.509378 116.440134 
L 213.892977 116.523059 
L 214.826087 116.89354 
L 215.759197 117.330035 
L 215.838698 117.367224 
L 216.692308 117.766533 
L 217.625418 118.203037 
L 217.820538 118.294314 
L 218.558528 118.643004 
L 219.491639 119.095674 
L 219.74584 119.221405 
L 220.424749 119.558737 
L 221.35786 120.027175 
L 221.599339 120.148495 
L 222.29097 120.500933 
L 223.22408 120.977791 
L 223.389384 121.075585 
L 224.157191 121.554566 
L 224.890756 122.002676 
L 225.090301 122.123862 
L 226.023411 122.735078 
L 226.22854 122.929766 
L 226.956522 123.77237 
L 227.030416 123.856856 
L 227.859284 124.783946 
L 227.889632 124.817865 
L 228.688815 125.711037 
L 228.822742 125.860712 
L 229.518353 126.638127 
L 229.755853 126.90944 
L 230.322258 127.565217 
L 230.688963 127.994463 
L 231.114276 128.492308 
L 231.622074 129.086702 
L 231.906298 129.419398 
L 232.555184 130.154896 
L 232.721397 130.346488 
L 233.424059 131.273579 
L 233.488294 131.360321 
L 234.090993 132.200669 
L 234.421405 132.680757 
L 234.729213 133.127759 
L 235.354515 134.036049 
L 235.367458 134.054849 
L 236.013362 134.98194 
L 236.287625 135.365948 
L 236.681558 135.90903 
L 237.220736 136.65236 
L 237.347776 136.83612 
L 237.809582 137.763211 
L 238.153846 138.533087 
L 238.224787 138.690301 
L 238.643124 139.617391 
L 239.06145 140.544482 
L 239.086957 140.601005 
L 239.479793 141.471572 
L 239.894099 142.398662 
L 240.020067 142.685571 
L 240.301135 143.325753 
L 240.708161 144.252843 
L 240.953177 144.865989 
L 241.074572 145.179933 
L 241.423599 146.107023 
L 241.772635 147.034114 
L 241.886288 147.336004 
L 242.120809 147.961204 
L 242.443425 148.888294 
L 242.633198 149.815385 
L 242.811955 150.742475 
L 242.819398 150.770578 
L 243.077871 151.669565 
L 243.390883 152.596656 
L 243.701575 153.523746 
L 243.752508 153.681227 
L 244.001369 154.450836 
L 244.298925 155.377926 
L 244.584104 156.305017 
L 244.685619 156.758172 
L 244.785849 157.232107 
L 244.876129 158.159197 
L 244.964009 159.086288 
L 245.076973 160.013378 
L 245.197381 160.940468 
L 245.317781 161.867559 
L 245.438185 162.794649 
L 245.558594 163.721739 
L 245.618729 164.184793 
L 245.679182 164.648829 
L 245.801591 165.57592 
L 245.957446 166.50301 
L 246.140636 167.4301 
L 246.323819 168.357191 
L 246.507 169.284281 
L 246.551839 169.511201 
L 246.690198 170.211371 
L 246.873389 171.138462 
L 246.87304 172.065552 
L 246.797334 172.992642 
L 246.721627 173.919732 
L 246.75797 174.846823 
L 246.808886 175.773913 
L 246.859804 176.701003 
L 246.910725 177.628094 
L 246.961637 178.555184 
L 247.012549 179.482274 
L 247.058204 180.409365 
L 247.088249 181.336455 
L 247.067661 182.263545 
L 247.028869 183.190635 
L 247.005981 184.117726 
L 246.95654 185.044816 
L 246.891036 185.971906 
L 246.874219 186.898997 
L 246.87005 187.826087 
L 246.866199 188.753177 
L 246.862401 189.680268 
L 246.876393 190.607358 
L 246.912262 191.534448 
L 246.885462 192.461538 
L 246.816228 193.388629 
L 246.746995 194.315719 
L 246.721287 195.242809 
L 246.551839 195.886089 
L 246.471419 196.1699 
L 246.164991 197.09699 
L 245.858551 198.02408 
L 245.618729 198.754481 
L 245.555379 198.951171 
L 245.286648 199.878261 
L 245.017907 200.805351 
L 244.749177 201.732441 
L 244.685619 201.951709 
L 244.480441 202.659532 
L 244.205674 203.586622 
L 243.899459 204.513712 
L 243.752508 205.017724 
L 243.622175 205.440803 
L 243.199036 206.367893 
L 242.819398 207.180791 
L 242.765735 207.294983 
L 242.292403 208.222074 
L 241.886288 209.013333 
L 241.816573 209.149164 
L 241.334274 210.076254 
L 240.953177 210.734709 
L 240.796991 211.003344 
L 240.226026 211.930435 
L 240.020067 212.223429 
L 239.556838 212.857525 
L 239.086957 213.452707 
L 238.808677 213.784615 
L 238.153846 214.553953 
L 238.019573 214.711706 
L 237.23049 215.638796 
L 237.220736 215.650109 
L 236.351893 216.565886 
L 236.287625 216.626836 
L 235.377169 217.492977 
L 235.354515 217.515269 
L 234.421405 218.411733 
L 234.412255 218.420067 
L 233.488294 219.312226 
L 233.456028 219.347157 
L 232.677797 220.274247 
L 232.555184 220.417174 
L 231.879726 221.201338 
L 231.622074 221.487996 
L 230.804443 222.128428 
L 230.688963 222.205409 
L 229.755853 222.830773 
L 229.420499 223.055518 
L 228.822742 223.443533 
L 227.889632 223.914604 
L 227.740859 223.982609 
L 226.956522 224.335198 
L 226.023411 224.723933 
L 225.534174 224.909699 
L 225.090301 225.071642 
L 224.157191 225.412084 
L 223.22408 225.753 
L 222.99308 225.836789 
L 222.29097 226.092942 
L 221.35786 226.420329 
L 220.424749 226.738486 
L 220.350481 226.76388 
L 219.491639 227.059798 
L 218.558528 227.373148 
L 217.625418 227.660042 
L 217.522347 227.69097 
L 216.692308 227.944048 
L 215.759197 228.210373 
L 214.826087 228.478324 
L 214.3395 228.61806 
L 213.892977 228.746556 
L 212.959866 229.01426 
L 212.026756 229.258468 
L 211.093645 229.519882 
L 211.014346 229.545151 
L 210.160535 229.813588 
L 209.227425 230.028327 
L 208.294314 230.186998 
L 207.361204 230.274048 
L 206.428094 230.242016 
L 205.494983 230.13979 
L 204.561873 229.998207 
L 203.628763 229.85734 
L 202.695652 229.715793 
L 201.762542 229.586013 
z
" clip-path="url(#pd94d187b11)" style="fill: none; stroke: #000000; stroke-width: 1.5"/>
   </g>
   <g id="patch_3">
    <path d="M 45 320.4 
L 45 43.2 
" style="fill: none; stroke: #000000; stroke-width: 0.8; stroke-linejoin: miter; stroke-linecap: square"/>
   </g>
   <g id="patch_4">
    <path d="M 324 320.4 
L 324 43.2 
" style="fill: none; stroke: #000000; stroke-width: 0.8; stroke-linejoin: miter; stroke-linecap: square"/>
   </g>
   <g id="patch_5">
    <path d="M 45 320.4 
L 324 320.4 
" style="fill: none; stroke: #000000; stroke-width: 0.8; stroke-linejoin: miter; stroke-linecap: square"/>
   </g>
   <g id="patch_6">
    <path d="M 45 43.2 
L 324 43.2 
" style="fill: none; stroke: #000000; stroke-width: 0.8; stroke-linejoin: miter; stroke-linecap: square"/>
   </g>
  </g>
 </g>
 <defs>
  <clipPath id="pd94d187b11">
   <rect x="45" y="43.2" width="279" height="277.2"/>
  </clipPath>
 </defs>
</svg>
