<?xml version="1.0" encoding="utf-8" standalone="no"?>
<!DOCTYPE svg PUBLIC "-//W3C//DTD SVG 1.1//EN"
  "http://www.w3.org/Graphics/SVG/1.1/DTD/svg11.dtd">
<svg xmlns:xlink="http://www.w3.org/1999/xlink" width="360pt" height="360pt" viewBox="0 0 360 360" xmlns="http://www.w3.org/2000/svg" version="1.1">
 <metadata>
  <rdf:RDF xmlns:dc="http://purl.org/dc/elements/1.1/" xmlns:cc="http://creativecommons.org/ns#" xmlns:rdf="http://www.w3.org/1999/02/22-rdf-syntax-ns#">
   <cc:Work>
    <dc:type rdf:resource="http://purl.org/dc/dcmitype/StillImage"/>
    <dc:date>2022-04-10T19:53:35.512259</dc:date>
    <dc:format>image/svg+xml</dc:format>
    <dc:creator>
     <cc:Agent>
      <dc:title>Matplotlib v3.5.1, https://matplotlib.org/</dc:title>
     </cc:Agent>
    </dc:creator>
   </cc:Work>
  </rdf:RDF>
 </metadata>
 <defs>
  <style type="text/css">*{stroke-linejoin: round; stroke-linecap: butt}</style>
 </defs>
 <g id="figure_1">
  <g id="patch_1">
   <path d="M 0 360 
L 360 360 
L 360 0 
L 0 0 
z
" style="fill: #ffffff"/>
  </g>
  <g id="axes_1">
   <g id="patch_2">
    <path d="M 45 320.4 
L 324 320.4 
L 324 43.2 
L 45 43.2 
z
" style="fill: #ffffff"/>
   </g>
   <g id="PathCollection_1">
    <defs>
     <path id="m76befe8040" d="M 0 0.5 
C 0.132602 0.5 0.25979 0.447317 0.353553 0.353553 
C 0.447317 0.25979 0.5 0.132602 0.5 0 
C 0.5 -0.132602 0.447317 -0.25979 0.353553 -0.353553 
C 0.25979 -0.447317 0.132602 -0.5 0 -0.5 
C -0.132602 -0.5 -0.25979 -0.447317 -0.353553 -0.353553 
C -0.447317 -0.25979 -0.5 -0.132602 -0.5 0 
C -0.5 0.132602 -0.447317 0.25979 -0.353553 0.353553 
C -0.25979 0.447317 -0.132602 0.5 0 0.5 
z
" style="stroke: #ff0000"/>
    </defs>
    <g clip-path="url(#pc80171de1f)">
     <use xlink:href="#m76befe8040" x="239.452284" y="181.336455" style="fill: #ff0000; stroke: #ff0000"/>
     <use xlink:href="#m76befe8040" x="237.632179" y="176.182809" style="fill: #ff0000; stroke: #ff0000"/>
     <use xlink:href="#m76befe8040" x="235.10756" y="171.427135" style="fill: #ff0000; stroke: #ff0000"/>
     <use xlink:href="#m76befe8040" x="232.226286" y="167.092863" style="fill: #ff0000; stroke: #ff0000"/>
     <use xlink:href="#m76befe8040" x="229.339653" y="163.075096" style="fill: #ff0000; stroke: #ff0000"/>
     <use xlink:href="#m76befe8040" x="226.72636" y="159.159381" style="fill: #ff0000; stroke: #ff0000"/>
     <use xlink:href="#m76befe8040" x="224.514564" y="155.081805" style="fill: #ff0000; stroke: #ff0000"/>
     <use xlink:href="#m76befe8040" x="222.636001" y="150.621388" style="fill: #ff0000; stroke: #ff0000"/>
     <use xlink:href="#m76befe8040" x="220.843419" y="145.691055" style="fill: #ff0000; stroke: #ff0000"/>
     <use xlink:href="#m76befe8040" x="218.792565" y="140.38526" style="fill: #ff0000; stroke: #ff0000"/>
     <use xlink:href="#m76befe8040" x="216.153899" y="134.962427" style="fill: #ff0000; stroke: #ff0000"/>
     <use xlink:href="#m76befe8040" x="212.704892" y="129.776482" style="fill: #ff0000; stroke: #ff0000"/>
     <use xlink:href="#m76befe8040" x="208.371532" y="125.196389" style="fill: #ff0000; stroke: #ff0000"/>
     <use xlink:href="#m76befe8040" x="203.221252" y="121.547027" style="fill: #ff0000; stroke: #ff0000"/>
     <use xlink:href="#m76befe8040" x="197.431143" y="119.077022" style="fill: #ff0000; stroke: #ff0000"/>
     <use xlink:href="#m76befe8040" x="191.251408" y="117.936954" style="fill: #ff0000; stroke: #ff0000"/>
     <use xlink:href="#m76befe8040" x="184.966555" y="118.155973" style="fill: #ff0000; stroke: #ff0000"/>
     <use xlink:href="#m76befe8040" x="178.849312" y="119.627749" style="fill: #ff0000; stroke: #ff0000"/>
     <use xlink:href="#m76befe8040" x="173.113009" y="122.129119" style="fill: #ff0000; stroke: #ff0000"/>
     <use xlink:href="#m76befe8040" x="167.881799" y="125.378922" style="fill: #ff0000; stroke: #ff0000"/>
     <use xlink:href="#m76befe8040" x="163.194988" y="129.114347" style="fill: #ff0000; stroke: #ff0000"/>
     <use xlink:href="#m76befe8040" x="159.041362" y="133.14675" style="fill: #ff0000; stroke: #ff0000"/>
     <use xlink:href="#m76befe8040" x="155.400126" y="137.372646" style="fill: #ff0000; stroke: #ff0000"/>
     <use xlink:href="#m76befe8040" x="152.263348" y="141.744572" style="fill: #ff0000; stroke: #ff0000"/>
     <use xlink:href="#m76befe8040" x="149.629975" y="146.227852" style="fill: #ff0000; stroke: #ff0000"/>
     <use xlink:href="#m76befe8040" x="147.480384" y="150.770828" style="fill: #ff0000; stroke: #ff0000"/>
     <use xlink:href="#m76befe8040" x="145.750665" y="155.302288" style="fill: #ff0000; stroke: #ff0000"/>
     <use xlink:href="#m76befe8040" x="144.323624" y="159.752511" style="fill: #ff0000; stroke: #ff0000"/>
     <use xlink:href="#m76befe8040" x="143.043716" y="164.083479" style="fill: #ff0000; stroke: #ff0000"/>
     <use xlink:href="#m76befe8040" x="141.753591" y="168.312517" style="fill: #ff0000; stroke: #ff0000"/>
     <use xlink:href="#m76befe8040" x="140.344716" y="172.517883" style="fill: #ff0000; stroke: #ff0000"/>
     <use xlink:href="#m76befe8040" x="138.810191" y="176.819779" style="fill: #ff0000; stroke: #ff0000"/>
     <use xlink:href="#m76befe8040" x="137.281255" y="181.336455" style="fill: #ff0000; stroke: #ff0000"/>
     <use xlink:href="#m76befe8040" x="136.025353" y="186.125644" style="fill: #ff0000; stroke: #ff0000"/>
     <use xlink:href="#m76befe8040" x="135.392872" y="191.133655" style="fill: #ff0000; stroke: #ff0000"/>
     <use xlink:href="#m76befe8040" x="135.721902" y="196.178282" style="fill: #ff0000; stroke: #ff0000"/>
     <use xlink:href="#m76befe8040" x="137.232101" y="200.98115" style="fill: #ff0000; stroke: #ff0000"/>
     <use xlink:href="#m76befe8040" x="139.945862" y="205.245265" style="fill: #ff0000; stroke: #ff0000"/>
     <use xlink:href="#m76befe8040" x="143.665671" y="208.754782" style="fill: #ff0000; stroke: #ff0000"/>
     <use xlink:href="#m76befe8040" x="148.018497" y="211.463314" style="fill: #ff0000; stroke: #ff0000"/>
     <use xlink:href="#m76befe8040" x="152.55797" y="213.535952" style="fill: #ff0000; stroke: #ff0000"/>
     <use xlink:href="#m76befe8040" x="156.895502" y="215.320457" style="fill: #ff0000; stroke: #ff0000"/>
     <use xlink:href="#m76befe8040" x="160.817281" y="217.245224" style="fill: #ff0000; stroke: #ff0000"/>
     <use xlink:href="#m76befe8040" x="164.343139" y="219.671226" style="fill: #ff0000; stroke: #ff0000"/>
     <use xlink:href="#m76befe8040" x="167.701098" y="222.750038" style="fill: #ff0000; stroke: #ff0000"/>
     <use xlink:href="#m76befe8040" x="171.224372" y="226.34609" style="fill: #ff0000; stroke: #ff0000"/>
     <use xlink:href="#m76befe8040" x="175.211885" y="230.060106" style="fill: #ff0000; stroke: #ff0000"/>
     <use xlink:href="#m76befe8040" x="179.810629" y="233.347721" style="fill: #ff0000; stroke: #ff0000"/>
     <use xlink:href="#m76befe8040" x="184.966555" y="235.684255" style="fill: #ff0000; stroke: #ff0000"/>
     <use xlink:href="#m76befe8040" x="190.455708" y="236.7092" style="fill: #ff0000; stroke: #ff0000"/>
     <use xlink:href="#m76befe8040" x="195.970853" y="236.30188" style="fill: #ff0000; stroke: #ff0000"/>
     <use xlink:href="#m76befe8040" x="201.221984" y="234.577701" style="fill: #ff0000; stroke: #ff0000"/>
     <use xlink:href="#m76befe8040" x="206.015871" y="231.826144" style="fill: #ff0000; stroke: #ff0000"/>
     <use xlink:href="#m76befe8040" x="210.297733" y="228.422005" style="fill: #ff0000; stroke: #ff0000"/>
     <use xlink:href="#m76befe8040" x="214.151921" y="224.733642" style="fill: #ff0000; stroke: #ff0000"/>
     <use xlink:href="#m76befe8040" x="217.763112" y="221.041352" style="fill: #ff0000; stroke: #ff0000"/>
     <use xlink:href="#m76befe8040" x="221.342272" y="217.47749" style="fill: #ff0000; stroke: #ff0000"/>
     <use xlink:href="#m76befe8040" x="225.032713" y="214.005763" style="fill: #ff0000; stroke: #ff0000"/>
     <use xlink:href="#m76befe8040" x="228.828869" y="210.455233" style="fill: #ff0000; stroke: #ff0000"/>
     <use xlink:href="#m76befe8040" x="232.546865" y="206.604582" style="fill: #ff0000; stroke: #ff0000"/>
     <use xlink:href="#m76befe8040" x="235.866939" y="202.284061" style="fill: #ff0000; stroke: #ff0000"/>
     <use xlink:href="#m76befe8040" x="238.431026" y="197.450091" style="fill: #ff0000; stroke: #ff0000"/>
     <use xlink:href="#m76befe8040" x="239.950933" y="192.202966" style="fill: #ff0000; stroke: #ff0000"/>
     <use xlink:href="#m76befe8040" x="240.283196" y="186.749519" style="fill: #ff0000; stroke: #ff0000"/>
    </g>
   </g>
   <g id="matplotlib.axis_1">
    <g id="xtick_1">
     <g id="line2d_1">
      <defs>
       <path id="m316d5538e9" d="M 0 0 
L 0 3.5 
" style="stroke: #000000; stroke-width: 0.8"/>
      </defs>
      <g>
       <use xlink:href="#m316d5538e9" x="45" y="320.4" style="stroke: #000000; stroke-width: 0.8"/>
      </g>
     </g>
     <g id="text_1">
      <!-- −3 -->
      <g transform="translate(37.628906 334.998438)scale(0.1 -0.1)">
       <defs>
        <path id="DejaVuSans-2212" d="M 678 2272 
L 4684 2272 
L 4684 1741 
L 678 1741 
L 678 2272 
z
" transform="scale(0.015625)"/>
        <path id="DejaVuSans-33" d="M 2597 2516 
Q 3050 2419 3304 2112 
Q 3559 1806 3559 1356 
Q 3559 666 3084 287 
Q 2609 -91 1734 -91 
Q 1441 -91 1130 -33 
Q 819 25 488 141 
L 488 750 
Q 750 597 1062 519 
Q 1375 441 1716 441 
Q 2309 441 2620 675 
Q 2931 909 2931 1356 
Q 2931 1769 2642 2001 
Q 2353 2234 1838 2234 
L 1294 2234 
L 1294 2753 
L 1863 2753 
Q 2328 2753 2575 2939 
Q 2822 3125 2822 3475 
Q 2822 3834 2567 4026 
Q 2313 4219 1838 4219 
Q 1578 4219 1281 4162 
Q 984 4106 628 3988 
L 628 4550 
Q 988 4650 1302 4700 
Q 1616 4750 1894 4750 
Q 2613 4750 3031 4423 
Q 3450 4097 3450 3541 
Q 3450 3153 3228 2886 
Q 3006 2619 2597 2516 
z
" transform="scale(0.015625)"/>
       </defs>
       <use xlink:href="#DejaVuSans-2212"/>
       <use xlink:href="#DejaVuSans-33" x="83.789062"/>
      </g>
     </g>
    </g>
    <g id="xtick_2">
     <g id="line2d_2">
      <g>
       <use xlink:href="#m316d5538e9" x="91.655518" y="320.4" style="stroke: #000000; stroke-width: 0.8"/>
      </g>
     </g>
     <g id="text_2">
      <!-- −2 -->
      <g transform="translate(84.284425 334.998438)scale(0.1 -0.1)">
       <defs>
        <path id="DejaVuSans-32" d="M 1228 531 
L 3431 531 
L 3431 0 
L 469 0 
L 469 531 
Q 828 903 1448 1529 
Q 2069 2156 2228 2338 
Q 2531 2678 2651 2914 
Q 2772 3150 2772 3378 
Q 2772 3750 2511 3984 
Q 2250 4219 1831 4219 
Q 1534 4219 1204 4116 
Q 875 4013 500 3803 
L 500 4441 
Q 881 4594 1212 4672 
Q 1544 4750 1819 4750 
Q 2544 4750 2975 4387 
Q 3406 4025 3406 3419 
Q 3406 3131 3298 2873 
Q 3191 2616 2906 2266 
Q 2828 2175 2409 1742 
Q 1991 1309 1228 531 
z
" transform="scale(0.015625)"/>
       </defs>
       <use xlink:href="#DejaVuSans-2212"/>
       <use xlink:href="#DejaVuSans-32" x="83.789062"/>
      </g>
     </g>
    </g>
    <g id="xtick_3">
     <g id="line2d_3">
      <g>
       <use xlink:href="#m316d5538e9" x="138.311037" y="320.4" style="stroke: #000000; stroke-width: 0.8"/>
      </g>
     </g>
     <g id="text_3">
      <!-- −1 -->
      <g transform="translate(130.939943 334.998438)scale(0.1 -0.1)">
       <defs>
        <path id="DejaVuSans-31" d="M 794 531 
L 1825 531 
L 1825 4091 
L 703 3866 
L 703 4441 
L 1819 4666 
L 2450 4666 
L 2450 531 
L 3481 531 
L 3481 0 
L 794 0 
L 794 531 
z
" transform="scale(0.015625)"/>
       </defs>
       <use xlink:href="#DejaVuSans-2212"/>
       <use xlink:href="#DejaVuSans-31" x="83.789062"/>
      </g>
     </g>
    </g>
    <g id="xtick_4">
     <g id="line2d_4">
      <g>
       <use xlink:href="#m316d5538e9" x="184.966555" y="320.4" style="stroke: #000000; stroke-width: 0.8"/>
      </g>
     </g>
     <g id="text_4">
      <!-- 0 -->
      <g transform="translate(181.785305 334.998438)scale(0.1 -0.1)">
       <defs>
        <path id="DejaVuSans-30" d="M 2034 4250 
Q 1547 4250 1301 3770 
Q 1056 3291 1056 2328 
Q 1056 1369 1301 889 
Q 1547 409 2034 409 
Q 2525 409 2770 889 
Q 3016 1369 3016 2328 
Q 3016 3291 2770 3770 
Q 2525 4250 2034 4250 
z
M 2034 4750 
Q 2819 4750 3233 4129 
Q 3647 3509 3647 2328 
Q 3647 1150 3233 529 
Q 2819 -91 2034 -91 
Q 1250 -91 836 529 
Q 422 1150 422 2328 
Q 422 3509 836 4129 
Q 1250 4750 2034 4750 
z
" transform="scale(0.015625)"/>
       </defs>
       <use xlink:href="#DejaVuSans-30"/>
      </g>
     </g>
    </g>
    <g id="xtick_5">
     <g id="line2d_5">
      <g>
       <use xlink:href="#m316d5538e9" x="231.622074" y="320.4" style="stroke: #000000; stroke-width: 0.8"/>
      </g>
     </g>
     <g id="text_5">
      <!-- 1 -->
      <g transform="translate(228.440824 334.998438)scale(0.1 -0.1)">
       <use xlink:href="#DejaVuSans-31"/>
      </g>
     </g>
    </g>
    <g id="xtick_6">
     <g id="line2d_6">
      <g>
       <use xlink:href="#m316d5538e9" x="278.277592" y="320.4" style="stroke: #000000; stroke-width: 0.8"/>
      </g>
     </g>
     <g id="text_6">
      <!-- 2 -->
      <g transform="translate(275.096342 334.998438)scale(0.1 -0.1)">
       <use xlink:href="#DejaVuSans-32"/>
      </g>
     </g>
    </g>
   </g>
   <g id="matplotlib.axis_2">
    <g id="ytick_1">
     <g id="line2d_7">
      <defs>
       <path id="m053f46cd4f" d="M 0 0 
L -3.5 0 
" style="stroke: #000000; stroke-width: 0.8"/>
      </defs>
      <g>
       <use xlink:href="#m053f46cd4f" x="45" y="320.4" style="stroke: #000000; stroke-width: 0.8"/>
      </g>
     </g>
     <g id="text_7">
      <!-- −3 -->
      <g transform="translate(23.257812 324.199219)scale(0.1 -0.1)">
       <use xlink:href="#DejaVuSans-2212"/>
       <use xlink:href="#DejaVuSans-33" x="83.789062"/>
      </g>
     </g>
    </g>
    <g id="ytick_2">
     <g id="line2d_8">
      <g>
       <use xlink:href="#m053f46cd4f" x="45" y="274.045485" style="stroke: #000000; stroke-width: 0.8"/>
      </g>
     </g>
     <g id="text_8">
      <!-- −2 -->
      <g transform="translate(23.257812 277.844704)scale(0.1 -0.1)">
       <use xlink:href="#DejaVuSans-2212"/>
       <use xlink:href="#DejaVuSans-32" x="83.789062"/>
      </g>
     </g>
    </g>
    <g id="ytick_3">
     <g id="line2d_9">
      <g>
       <use xlink:href="#m053f46cd4f" x="45" y="227.69097" style="stroke: #000000; stroke-width: 0.8"/>
      </g>
     </g>
     <g id="text_9">
      <!-- −1 -->
      <g transform="translate(23.257812 231.490189)scale(0.1 -0.1)">
       <use xlink:href="#DejaVuSans-2212"/>
       <use xlink:href="#DejaVuSans-31" x="83.789062"/>
      </g>
     </g>
    </g>
    <g id="ytick_4">
     <g id="line2d_10">
      <g>
       <use xlink:href="#m053f46cd4f" x="45" y="181.336455" style="stroke: #000000; stroke-width: 0.8"/>
      </g>
     </g>
     <g id="text_10">
      <!-- 0 -->
      <g transform="translate(31.6375 185.135674)scale(0.1 -0.1)">
       <use xlink:href="#DejaVuSans-30"/>
      </g>
     </g>
    </g>
    <g id="ytick_5">
     <g id="line2d_11">
      <g>
       <use xlink:href="#m053f46cd4f" x="45" y="134.98194" style="stroke: #000000; stroke-width: 0.8"/>
      </g>
     </g>
     <g id="text_11">
      <!-- 1 -->
      <g transform="translate(31.6375 138.781159)scale(0.1 -0.1)">
       <use xlink:href="#DejaVuSans-31"/>
      </g>
     </g>
    </g>
    <g id="ytick_6">
     <g id="line2d_12">
      <g>
       <use xlink:href="#m053f46cd4f" x="45" y="88.627425" style="stroke: #000000; stroke-width: 0.8"/>
      </g>
     </g>
     <g id="text_12">
      <!-- 2 -->
      <g transform="translate(31.6375 92.426643)scale(0.1 -0.1)">
       <use xlink:href="#DejaVuSans-32"/>
      </g>
     </g>
    </g>
   </g>
   <g id="PathCollection_2">
    <path d="M 188.698997 210.417532 
L 187.985978 210.076254 
L 187.765886 209.981963 
L 186.832776 209.39433 
L 186.539534 209.149164 
L 185.899666 208.659528 
L 185.278549 208.222074 
L 184.966555 208.005473 
L 184.033445 207.376583 
L 183.90664 207.294983 
L 183.100334 206.753098 
L 182.517789 206.367893 
L 182.167224 206.133572 
L 181.234114 205.509238 
L 181.130544 205.440803 
L 180.301003 204.888721 
L 179.728047 204.513712 
L 179.367893 204.276161 
L 178.434783 203.753657 
L 178.163398 203.586622 
L 177.501672 203.179316 
L 176.633926 202.659532 
L 176.568562 202.619961 
L 175.635452 202.074254 
L 175.050992 201.732441 
L 174.702341 201.527046 
L 173.769231 200.952516 
L 173.535051 200.805351 
L 172.83612 200.354527 
L 172.17643 199.878261 
L 171.90301 199.675901 
L 170.9699 198.960886 
L 170.956069 198.951171 
L 170.036789 198.329341 
L 169.607931 198.02408 
L 169.103679 197.654102 
L 168.338315 197.09699 
L 168.170569 196.987794 
L 167.237458 196.538475 
L 166.472028 196.1699 
L 166.304348 196.091065 
L 165.371237 195.680187 
L 164.568612 195.242809 
L 164.438127 195.130565 
L 163.751736 194.315719 
L 163.505017 193.548687 
L 163.453533 193.388629 
L 163.155336 192.461538 
L 162.726463 191.534448 
L 162.571906 191.13227 
L 162.369576 190.607358 
L 162.160657 189.680268 
L 162.093215 188.753177 
L 162.203054 187.826087 
L 162.300931 186.898997 
L 162.378391 185.971906 
L 162.415896 185.044816 
L 162.405184 184.117726 
L 162.395357 183.190635 
L 162.351506 182.263545 
L 162.243608 181.336455 
L 162.127711 180.409365 
L 162.148669 179.482274 
L 162.254234 178.555184 
L 162.3625 177.628094 
L 162.571906 176.788722 
L 162.593315 176.701003 
L 163.096899 175.773913 
L 163.505017 175.178133 
L 163.728908 174.846823 
L 164.34464 173.919732 
L 164.438127 173.773209 
L 164.928895 172.992642 
L 165.339946 172.065552 
L 165.371237 171.981552 
L 165.678086 171.138462 
L 165.983086 170.211371 
L 166.269847 169.284281 
L 166.304348 169.172272 
L 166.582922 168.357191 
L 167.014053 167.4301 
L 167.237458 166.964129 
L 167.437744 166.50301 
L 167.922887 165.57592 
L 168.170569 165.196608 
L 168.574841 164.648829 
L 169.103679 163.932266 
L 169.246022 163.721739 
L 169.567418 162.794649 
L 169.775023 161.867559 
L 170.006813 160.940468 
L 170.036789 160.790967 
L 170.170399 160.013378 
L 170.297157 159.086288 
L 170.392104 158.159197 
L 170.446176 157.232107 
L 170.498162 156.305017 
L 170.670063 155.377926 
L 170.9699 154.584717 
L 171.01989 154.450836 
L 171.365379 153.523746 
L 171.705495 152.596656 
L 171.90301 151.78116 
L 171.932467 151.669565 
L 172.20712 150.742475 
L 172.715308 149.815385 
L 172.83612 149.59974 
L 173.228483 148.888294 
L 173.756798 147.961204 
L 173.769231 147.940986 
L 174.473923 147.034114 
L 174.702341 146.746404 
L 175.333099 146.107023 
L 175.635452 145.860544 
L 176.472314 145.179933 
L 176.568562 145.101656 
L 177.501672 144.376753 
L 177.713694 144.252843 
L 178.434783 143.84457 
L 179.351113 143.325753 
L 179.367893 143.316252 
L 180.301003 142.776115 
L 180.944853 142.398662 
L 181.234114 142.228183 
L 182.167224 141.72164 
L 182.629396 141.471572 
L 183.100334 141.216755 
L 184.033445 140.764663 
L 184.562213 140.544482 
L 184.966555 140.389093 
L 185.899666 140.03913 
L 186.832776 139.763393 
L 187.765886 139.936908 
L 188.698997 140.200988 
L 189.632107 140.466694 
L 189.806693 140.544482 
L 190.565217 140.890189 
L 191.498328 141.317695 
L 191.861605 141.471572 
L 192.431438 141.803678 
L 193.266741 142.398662 
L 193.364548 142.476143 
L 194.2705 143.325753 
L 194.297659 143.371143 
L 194.696223 144.252843 
L 195.172514 145.179933 
L 195.230769 145.295617 
L 195.681308 146.107023 
L 196.16388 146.918127 
L 196.232297 147.034114 
L 196.717668 147.961204 
L 197.09699 148.705217 
L 197.193981 148.888294 
L 197.705762 149.815385 
L 198.0301 150.403201 
L 198.215223 150.742475 
L 198.667678 151.669565 
L 198.963211 152.401997 
L 199.034846 152.596656 
L 199.376015 153.523746 
L 199.717187 154.450836 
L 199.896321 154.937609 
L 200.061955 155.377926 
L 200.446033 156.305017 
L 200.829431 157.223343 
L 200.833346 157.232107 
L 201.269234 158.159197 
L 201.68343 159.086288 
L 201.762542 159.265838 
L 202.091916 160.013378 
L 202.512298 160.940468 
L 202.695652 161.30371 
L 202.986781 161.867559 
L 203.465307 162.794649 
L 203.628763 163.110919 
L 203.94415 163.721739 
L 204.410185 164.648829 
L 204.561873 165.065495 
L 204.727899 165.57592 
L 205.059598 166.50301 
L 205.402201 167.4301 
L 205.494983 167.689553 
L 205.726149 168.357191 
L 206.141302 169.284281 
L 206.428094 169.728446 
L 206.745178 170.211371 
L 207.331384 171.138462 
L 207.361204 171.190216 
L 207.86556 172.065552 
L 208.294314 172.85352 
L 208.371879 172.992642 
L 208.859047 173.919732 
L 209.227425 174.620762 
L 209.346215 174.846823 
L 209.833382 175.773913 
L 210.160535 176.34558 
L 210.364266 176.701003 
L 210.925217 177.628094 
L 211.093645 177.897735 
L 211.496455 178.555184 
L 212.026756 179.382648 
L 212.089578 179.482274 
L 212.744108 180.409365 
L 212.959866 180.720255 
L 213.373104 181.336455 
L 213.741009 182.263545 
L 213.892977 183.049823 
L 213.920192 183.190635 
L 214.099372 184.117726 
L 214.278546 185.044816 
L 214.464827 185.971906 
L 214.665788 186.898997 
L 214.590044 187.826087 
L 214.302998 188.753177 
L 214.030404 189.680268 
L 213.892977 190.124859 
L 213.734131 190.607358 
L 213.391083 191.534448 
L 213.002651 192.461538 
L 212.959866 192.526054 
L 212.293373 193.388629 
L 212.026756 193.717648 
L 211.578433 194.315719 
L 211.093645 194.861059 
L 210.693405 195.242809 
L 210.160535 195.721608 
L 209.661626 196.1699 
L 209.227425 196.560048 
L 208.629854 197.09699 
L 208.294314 197.389335 
L 207.556528 198.02408 
L 207.361204 198.199201 
L 206.532752 198.951171 
L 206.428094 199.039839 
L 205.494983 199.858667 
L 205.476155 199.878261 
L 204.654029 200.805351 
L 204.561873 200.92475 
L 203.877541 201.732441 
L 203.628763 202.047042 
L 203.018399 202.659532 
L 202.695652 202.952105 
L 201.942447 203.586622 
L 201.762542 203.741957 
L 200.847822 204.513712 
L 200.829431 204.529542 
L 199.896321 205.310671 
L 199.754403 205.440803 
L 198.963211 206.247039 
L 198.869244 206.367893 
L 198.214476 207.294983 
L 198.0301 207.556322 
L 197.515825 208.222074 
L 197.09699 208.704275 
L 196.693015 209.149164 
L 196.16388 209.737465 
L 195.851488 210.076254 
L 195.230769 210.571883 
L 194.297659 210.89916 
L 193.364548 211.002103 
L 192.431438 210.992775 
L 191.498328 210.972576 
L 190.565217 210.909314 
L 189.632107 210.633673 
L 188.698997 210.417532 
z
" clip-path="url(#pc80171de1f)" style="fill: none; stroke-dasharray: 5.55,2.4; stroke-dashoffset: 0; stroke: #000000; stroke-width: 1.5"/>
   </g>
   <g id="PathCollection_3">
    <path d="M 194.297659 236.061687 
L 193.481744 236.034783 
L 193.364548 236.013276 
L 192.431438 235.878631 
L 191.498328 235.776237 
L 190.565217 235.679856 
L 189.632107 235.530665 
L 188.698997 235.118872 
L 188.55207 235.107692 
L 187.765886 234.838827 
L 186.832776 234.585311 
L 185.899666 234.204212 
L 185.546297 234.180602 
L 184.966555 233.977612 
L 184.033445 233.75133 
L 183.100334 233.367091 
L 182.598452 233.253512 
L 182.167224 233.082916 
L 181.234114 232.725017 
L 180.301003 232.32652 
L 180.299809 232.326421 
L 179.367893 231.950465 
L 178.434783 231.507439 
L 178.067667 231.399331 
L 177.501672 231.15785 
L 176.568562 230.638869 
L 176.299072 230.472241 
L 175.635452 230.070408 
L 174.770367 229.545151 
L 174.702341 229.497639 
L 173.769231 228.967665 
L 173.242023 228.61806 
L 172.83612 228.37187 
L 171.90301 227.835057 
L 171.693446 227.69097 
L 170.9699 227.241682 
L 170.304268 226.76388 
L 170.036789 226.590597 
L 169.103679 226.044539 
L 168.753166 225.836789 
L 168.170569 225.545525 
L 167.375183 224.909699 
L 167.237458 224.799441 
L 166.353832 223.982609 
L 166.304348 223.936469 
L 165.377649 223.055518 
L 165.371237 223.049668 
L 164.438127 222.212427 
L 164.342074 222.128428 
L 163.505017 221.394968 
L 163.263194 221.201338 
L 162.571906 220.675519 
L 162.004089 220.274247 
L 161.638796 220.007924 
L 160.724035 219.347157 
L 160.705686 219.333407 
L 159.772575 218.593657 
L 159.559631 218.420067 
L 158.839465 217.845947 
L 158.353952 217.492977 
L 157.906355 217.239476 
L 156.973244 216.835259 
L 156.415224 216.565886 
L 156.040134 216.390408 
L 155.107023 215.932982 
L 154.549483 215.638796 
L 154.173913 215.472052 
L 153.240803 214.960314 
L 152.761275 214.711706 
L 152.307692 214.533347 
L 151.374582 214.016024 
L 150.920529 213.784615 
L 150.441472 213.610893 
L 149.508361 213.15207 
L 148.981363 212.857525 
L 148.575251 212.677998 
L 147.64214 212.074526 
L 147.456762 211.930435 
L 146.70903 211.48094 
L 146.15656 211.003344 
L 145.77592 210.708819 
L 145.159835 210.076254 
L 144.842809 209.724577 
L 144.280991 209.149164 
L 143.909699 208.828231 
L 143.258424 208.222074 
L 142.976589 207.956478 
L 142.314589 207.294983 
L 142.043478 207.021138 
L 141.398714 206.367893 
L 141.110368 206.075392 
L 140.491068 205.440803 
L 140.177258 204.969301 
L 139.93696 204.513712 
L 139.589636 203.586622 
L 139.244147 202.810658 
L 139.223758 202.659532 
L 138.795068 201.732441 
L 138.490216 200.805351 
L 138.311037 200.38405 
L 138.142301 199.878261 
L 137.793633 198.951171 
L 137.623822 198.02408 
L 137.453774 197.09699 
L 137.377926 196.580815 
L 137.366052 196.1699 
L 137.35386 195.242809 
L 137.154636 194.315719 
L 136.962357 193.388629 
L 136.812353 192.461538 
L 136.694341 191.534448 
L 136.532451 190.607358 
L 136.444816 190.233294 
L 136.418608 189.680268 
L 136.242359 188.753177 
L 135.978898 187.826087 
L 135.808804 186.898997 
L 135.658004 185.971906 
L 135.68247 185.044816 
L 135.777338 184.117726 
L 135.851088 183.190635 
L 135.928456 182.263545 
L 136.019971 181.336455 
L 136.264145 180.409365 
L 136.426137 179.482274 
L 136.444816 178.816059 
L 136.509995 178.555184 
L 136.682299 177.628094 
L 137.004208 176.701003 
L 137.376758 175.773913 
L 137.377926 175.752382 
L 137.73468 174.846823 
L 138.182641 173.919732 
L 138.311037 173.383836 
L 138.502978 172.992642 
L 138.830388 172.065552 
L 139.244147 171.40767 
L 139.450526 171.138462 
L 140.134817 170.211371 
L 140.177258 170.132252 
L 140.712248 169.284281 
L 141.110368 168.650222 
L 141.301268 168.357191 
L 141.808412 167.4301 
L 142.043478 166.953648 
L 142.256232 166.50301 
L 142.544421 165.57592 
L 142.638661 164.648829 
L 142.976589 163.782467 
L 143.005218 163.721739 
L 143.348772 162.794649 
L 143.526867 161.867559 
L 143.741661 160.940468 
L 143.909699 160.367844 
L 144.033086 160.013378 
L 144.241189 159.086288 
L 144.413339 158.159197 
L 144.642747 157.232107 
L 144.842809 156.366432 
L 144.863595 156.305017 
L 145.007373 155.377926 
L 145.443029 154.450836 
L 145.77592 153.924201 
L 146.016212 153.523746 
L 146.500212 152.596656 
L 146.70903 152.278476 
L 147.049088 151.669565 
L 147.423874 150.742475 
L 147.64214 150.295095 
L 147.861458 149.815385 
L 148.138774 148.888294 
L 148.497169 147.961204 
L 148.575251 147.806304 
L 148.875446 147.034114 
L 149.204929 146.107023 
L 149.508361 145.470482 
L 149.657168 145.179933 
L 150.025981 144.252843 
L 150.441472 143.695241 
L 150.709337 143.325753 
L 151.321833 142.398662 
L 151.374582 142.329143 
L 151.951965 141.471572 
L 152.307692 141.008082 
L 152.693132 140.544482 
L 153.240803 139.876611 
L 153.437042 139.617391 
L 154.128589 138.690301 
L 154.173913 138.636393 
L 154.824584 137.763211 
L 155.107023 137.404685 
L 155.536734 136.83612 
L 156.040134 136.170057 
L 156.237415 135.90903 
L 156.933171 134.98194 
L 156.973244 134.934563 
L 157.635012 134.054849 
L 157.906355 133.700796 
L 158.339451 133.127759 
L 158.839465 132.466173 
L 159.033015 132.200669 
L 159.669726 131.273579 
L 159.772575 131.141582 
L 160.440899 130.346488 
L 160.705686 130.07196 
L 161.217997 129.419398 
L 161.638796 128.870354 
L 161.940933 128.492308 
L 162.571906 127.799939 
L 162.826038 127.565217 
L 163.505017 126.962504 
L 163.884471 126.638127 
L 164.438127 126.17436 
L 164.988837 125.711037 
L 165.371237 125.386608 
L 166.081584 124.783946 
L 166.304348 124.594952 
L 167.174327 123.856856 
L 167.237458 123.800841 
L 168.170569 123.167254 
L 168.569099 122.929766 
L 169.103679 122.611207 
L 170.036789 122.170257 
L 170.402356 122.002676 
L 170.9699 121.76233 
L 171.90301 121.367166 
L 172.591539 121.075585 
L 172.83612 120.966747 
L 173.769231 120.674415 
L 174.702341 120.444831 
L 175.563609 120.148495 
L 175.635452 120.123331 
L 176.568562 119.82769 
L 177.501672 119.570588 
L 178.434783 119.349843 
L 178.988783 119.221405 
L 179.367893 119.146891 
L 180.301003 118.981566 
L 181.234114 118.823297 
L 182.167224 118.65746 
L 183.100334 118.517685 
L 184.033445 118.359148 
L 184.292578 118.294314 
L 184.966555 118.164175 
L 185.899666 118.142822 
L 186.832776 118.122024 
L 187.765886 118.101772 
L 188.698997 118.082048 
L 189.632107 118.062825 
L 190.565217 118.041081 
L 191.498328 118.029347 
L 192.431438 118.051344 
L 193.364548 118.032745 
L 194.297659 118.17563 
L 194.880706 118.294314 
L 195.230769 118.374709 
L 196.16388 118.536713 
L 197.09699 118.713995 
L 198.0301 118.979405 
L 198.613582 119.221405 
L 198.963211 119.37366 
L 199.896321 119.921605 
L 200.247521 120.148495 
L 200.829431 120.526333 
L 201.623138 121.075585 
L 201.762542 121.179753 
L 202.695652 121.843067 
L 202.910706 122.002676 
L 203.628763 122.519558 
L 204.168232 122.929766 
L 204.561873 123.217353 
L 205.407617 123.856856 
L 205.494983 123.930733 
L 206.428094 124.531684 
L 206.816837 124.783946 
L 207.361204 125.136573 
L 208.248047 125.711037 
L 208.294314 125.750146 
L 209.227425 126.345461 
L 209.679237 126.638127 
L 210.160535 126.960933 
L 210.809487 127.565217 
L 211.093645 127.893532 
L 211.544688 128.492308 
L 212.026756 129.204538 
L 212.176071 129.419398 
L 212.81704 130.346488 
L 212.959866 130.512673 
L 213.483219 131.273579 
L 213.892977 131.898587 
L 214.093202 132.200669 
L 214.546356 133.127759 
L 214.826087 133.605637 
L 215.082559 134.054849 
L 215.530283 134.98194 
L 215.759197 135.344495 
L 216.080883 135.90903 
L 216.559415 136.83612 
L 216.692308 137.011812 
L 217.127013 137.763211 
L 217.625418 138.648628 
L 217.653346 138.690301 
L 218.136571 139.617391 
L 218.475814 140.544482 
L 218.558528 140.683358 
L 218.905063 141.471572 
L 219.206778 142.398662 
L 219.491639 142.909038 
L 219.751656 143.325753 
L 220.282249 144.252843 
L 220.424749 144.420386 
L 220.941889 145.179933 
L 221.35786 145.824326 
L 221.569522 146.107023 
L 222.095752 147.034114 
L 222.29097 147.2935 
L 222.746726 147.961204 
L 223.22408 148.731614 
L 223.338227 148.888294 
L 223.8958 149.815385 
L 224.157191 150.19471 
L 224.549788 150.742475 
L 225.090301 151.629181 
L 225.118651 151.669565 
L 225.660524 152.596656 
L 226.023411 153.327533 
L 226.144554 153.523746 
L 226.610995 154.450836 
L 226.956522 155.162351 
L 227.096916 155.377926 
L 227.689308 156.305017 
L 227.889632 156.58616 
L 228.327315 157.232107 
L 228.822742 158.008748 
L 228.930851 158.159197 
L 229.504231 159.086288 
L 229.755853 159.485013 
L 230.09986 160.013378 
L 230.663592 160.940468 
L 230.688963 160.984451 
L 231.051376 161.867559 
L 231.362665 162.794649 
L 231.622074 163.473795 
L 231.72562 163.721739 
L 232.043617 164.648829 
L 232.356051 165.57592 
L 232.555184 166.178635 
L 232.662611 166.50301 
L 233.000733 167.4301 
L 233.298057 168.357191 
L 233.488294 168.863504 
L 233.646017 169.284281 
L 234.000184 170.211371 
L 234.348682 171.138462 
L 234.421405 171.285859 
L 234.745855 172.065552 
L 235.11435 172.992642 
L 235.354515 173.61019 
L 235.501298 173.919732 
L 235.833891 174.846823 
L 236.130905 175.773913 
L 236.287625 176.109363 
L 236.558751 176.701003 
L 236.86806 177.628094 
L 237.156623 178.555184 
L 237.220736 178.676491 
L 237.552047 179.482274 
L 237.764456 180.409365 
L 237.794134 181.336455 
L 237.817883 182.263545 
L 237.836965 183.190635 
L 237.821273 184.117726 
L 237.779594 185.044816 
L 237.736081 185.971906 
L 237.691773 186.898997 
L 237.643071 187.826087 
L 237.568722 188.753177 
L 237.431028 189.680268 
L 237.312812 190.607358 
L 237.223546 191.534448 
L 237.220736 191.564967 
L 237.139219 192.461538 
L 237.002224 193.388629 
L 236.701334 194.315719 
L 236.287625 195.125368 
L 236.220354 195.242809 
L 236.026245 196.1699 
L 235.757583 197.09699 
L 235.363762 198.02408 
L 235.354515 198.043898 
L 235.064782 198.951171 
L 234.594811 199.878261 
L 234.421405 200.198021 
L 234.197929 200.805351 
L 233.879968 201.732441 
L 233.488294 202.456512 
L 233.388362 202.659532 
L 232.903666 203.586622 
L 232.555184 204.057474 
L 232.283803 204.513712 
L 231.728699 205.440803 
L 231.622074 205.581964 
L 231.142507 206.367893 
L 230.688963 207.039356 
L 230.528126 207.294983 
L 229.947126 208.222074 
L 229.755853 208.481121 
L 229.343635 209.149164 
L 228.822742 209.82496 
L 228.587124 210.076254 
L 227.889632 210.751596 
L 227.625068 211.003344 
L 226.956522 211.6738 
L 226.711354 211.930435 
L 226.023411 212.666248 
L 225.843406 212.857525 
L 225.090301 213.653319 
L 224.967183 213.784615 
L 224.246133 214.711706 
L 224.157191 214.836137 
L 223.609428 215.638796 
L 223.22408 216.131994 
L 222.895484 216.565886 
L 222.29097 217.327772 
L 222.164987 217.492977 
L 221.42581 218.420067 
L 221.35786 218.5044 
L 220.708372 219.347157 
L 220.424749 219.700872 
L 219.977611 220.274247 
L 219.491639 220.880266 
L 219.238709 221.201338 
L 218.558528 221.950067 
L 218.360772 222.128428 
L 217.625418 222.764634 
L 217.258345 223.055518 
L 216.692308 223.488262 
L 216.024773 223.982609 
L 215.759197 224.184145 
L 214.846279 224.909699 
L 214.826087 224.927274 
L 213.892977 225.761832 
L 213.80934 225.836789 
L 212.959866 226.605366 
L 212.778702 226.76388 
L 212.026756 227.441277 
L 211.739543 227.69097 
L 211.093645 228.24021 
L 210.599468 228.61806 
L 210.160535 228.944621 
L 209.299962 229.545151 
L 209.227425 229.598235 
L 208.294314 230.315801 
L 208.104734 230.472241 
L 207.361204 231.01341 
L 206.428094 231.37882 
L 206.397501 231.399331 
L 205.494983 231.857543 
L 204.561873 232.209689 
L 204.363499 232.326421 
L 203.628763 232.698397 
L 202.695652 233.063977 
L 202.335402 233.253512 
L 201.762542 233.548953 
L 200.829431 233.960434 
L 200.332166 234.180602 
L 199.896321 234.375961 
L 198.963211 234.745108 
L 198.0301 235.028709 
L 197.887806 235.107692 
L 197.09699 235.456427 
L 196.16388 235.761235 
L 195.364295 236.034783 
L 195.230769 236.058694 
L 194.297659 236.061687 
z
" clip-path="url(#pc80171de1f)" style="fill: none; stroke: #000000; stroke-width: 1.5"/>
   </g>
   <g id="PathCollection_4">
    <path d="M 194.297659 258.391493 
L 190.565217 257.973224 
L 184.033445 257.441332 
L 180.301003 256.415848 
L 174.702341 254.469783 
L 170.9699 253.043126 
L 168.14456 251.795318 
L 165.304147 250.868227 
L 163.505017 249.89074 
L 157.656393 246.232776 
L 155.107023 244.308675 
L 151.374582 241.76731 
L 147.032914 238.816054 
L 145.093247 237.888963 
L 143.909699 237.161601 
L 136.341193 232.326421 
L 134.80553 231.399331 
L 128.046823 226.174599 
L 127.09304 224.909699 
L 125.120902 222.128428 
L 119.648829 215.987356 
L 119.419252 215.638796 
L 116.071785 206.367893 
L 115.345675 201.732441 
L 114.680887 198.02408 
L 113.368816 192.461538 
L 112.927678 189.680268 
L 112.88118 185.044816 
L 113.117057 179.419187 
L 112.957083 178.555184 
L 112.974229 177.628094 
L 114.526652 170.211371 
L 115.150827 168.357191 
L 115.307361 167.4301 
L 121.911681 151.669565 
L 122.98851 147.961204 
L 123.13843 147.034114 
L 124.439391 144.252843 
L 127.640051 137.763211 
L 129.384374 133.127759 
L 130.846154 131.265544 
L 133.052175 128.492308 
L 137.564546 122.002676 
L 139.252847 119.221405 
L 140.478829 117.367224 
L 141.17091 116.440134 
L 143.821017 113.658863 
L 145.072816 112.731773 
L 148.707114 109.950502 
L 156.973244 103.429084 
L 158.929608 101.606689 
L 160.214759 100.679599 
L 161.638796 99.868446 
L 165.371237 98.987063 
L 170.3179 97.898328 
L 174.021118 96.971237 
L 177.501672 96.225592 
L 181.234114 95.837738 
L 185.899666 95.879831 
L 191.498328 95.646198 
L 194.297659 95.343214 
L 199.414544 95.117057 
L 201.762542 95.377834 
L 202.695652 95.616681 
L 203.631989 96.044147 
L 214.826087 102.85822 
L 217.625418 104.506405 
L 221.35786 106.655148 
L 222.29097 107.290059 
L 224.256741 109.023411 
L 225.221197 109.950502 
L 231.867534 118.294314 
L 235.354515 123.071672 
L 238.785927 128.492308 
L 241.886288 135.17642 
L 244.12971 138.690301 
L 247.48495 143.705719 
L 249.351171 146.225877 
L 250.50356 147.961204 
L 253.45709 153.523746 
L 254.949833 156.599516 
L 255.454482 158.159197 
L 256.17368 160.940468 
L 257.749164 168.464197 
L 258.698209 171.138462 
L 260.548495 175.576834 
L 261.601465 178.555184 
L 261.740916 181.336455 
L 261.735262 185.044816 
L 261.471669 193.388629 
L 261.083727 196.1699 
L 260.826951 198.951171 
L 259.412674 202.659532 
L 258.026613 206.367893 
L 257.086254 209.149164 
L 255.651703 212.857525 
L 252.979853 217.492977 
L 250.980562 220.274247 
L 246.504628 225.836789 
L 241.886288 230.91325 
L 236.287625 237.913779 
L 234.405932 239.743144 
L 233.285693 240.670234 
L 229.755853 243.209146 
L 219.981265 250.868227 
L 218.558528 251.464239 
L 215.476275 252.722408 
L 210.160535 255.257942 
L 201.762542 258.710451 
L 200.829431 258.859994 
L 198.0301 258.804873 
L 195.230769 258.511315 
L 194.297659 258.391493 
L 194.297659 258.391493 
" clip-path="url(#pc80171de1f)" style="fill: none; stroke: #000000; stroke-width: 1.5"/>
   </g>
   <g id="patch_3">
    <path d="M 45 320.4 
L 45 43.2 
" style="fill: none; stroke: #000000; stroke-width: 0.8; stroke-linejoin: miter; stroke-linecap: square"/>
   </g>
   <g id="patch_4">
    <path d="M 324 320.4 
L 324 43.2 
" style="fill: none; stroke: #000000; stroke-width: 0.8; stroke-linejoin: miter; stroke-linecap: square"/>
   </g>
   <g id="patch_5">
    <path d="M 45 320.4 
L 324 320.4 
" style="fill: none; stroke: #000000; stroke-width: 0.8; stroke-linejoin: miter; stroke-linecap: square"/>
   </g>
   <g id="patch_6">
    <path d="M 45 43.2 
L 324 43.2 
" style="fill: none; stroke: #000000; stroke-width: 0.8; stroke-linejoin: miter; stroke-linecap: square"/>
   </g>
  </g>
 </g>
 <defs>
  <clipPath id="pc80171de1f">
   <rect x="45" y="43.2" width="279" height="277.2"/>
  </clipPath>
 </defs>
</svg>
