<?xml version="1.0" encoding="utf-8" standalone="no"?>
<!DOCTYPE svg PUBLIC "-//W3C//DTD SVG 1.1//EN"
  "http://www.w3.org/Graphics/SVG/1.1/DTD/svg11.dtd">
<svg xmlns:xlink="http://www.w3.org/1999/xlink" width="360pt" height="360pt" viewBox="0 0 360 360" xmlns="http://www.w3.org/2000/svg" version="1.1">
 <metadata>
  <rdf:RDF xmlns:dc="http://purl.org/dc/elements/1.1/" xmlns:cc="http://creativecommons.org/ns#" xmlns:rdf="http://www.w3.org/1999/02/22-rdf-syntax-ns#">
   <cc:Work>
    <dc:type rdf:resource="http://purl.org/dc/dcmitype/StillImage"/>
    <dc:date>2022-04-10T19:53:35.028203</dc:date>
    <dc:format>image/svg+xml</dc:format>
    <dc:creator>
     <cc:Agent>
      <dc:title>Matplotlib v3.5.1, https://matplotlib.org/</dc:title>
     </cc:Agent>
    </dc:creator>
   </cc:Work>
  </rdf:RDF>
 </metadata>
 <defs>
  <style type="text/css">*{stroke-linejoin: round; stroke-linecap: butt}</style>
 </defs>
 <g id="figure_1">
  <g id="patch_1">
   <path d="M 0 360 
L 360 360 
L 360 0 
L 0 0 
z
" style="fill: #ffffff"/>
  </g>
  <g id="axes_1">
   <g id="patch_2">
    <path d="M 45 320.4 
L 324 320.4 
L 324 43.2 
L 45 43.2 
z
" style="fill: #ffffff"/>
   </g>
   <g id="PathCollection_1">
    <defs>
     <path id="mae6753e617" d="M 0 0.5 
C 0.132602 0.5 0.25979 0.447317 0.353553 0.353553 
C 0.447317 0.25979 0.5 0.132602 0.5 0 
C 0.5 -0.132602 0.447317 -0.25979 0.353553 -0.353553 
C 0.25979 -0.447317 0.132602 -0.5 0 -0.5 
C -0.132602 -0.5 -0.25979 -0.447317 -0.353553 -0.353553 
C -0.447317 -0.25979 -0.5 -0.132602 -0.5 0 
C -0.5 0.132602 -0.447317 0.25979 -0.353553 0.353553 
C -0.25979 0.447317 -0.132602 0.5 0 0.5 
z
" style="stroke: #ff0000"/>
    </defs>
    <g clip-path="url(#p73af2a9fab)">
     <use xlink:href="#mae6753e617" x="235.10744" y="181.336455" style="fill: #ff0000; stroke: #ff0000"/>
     <use xlink:href="#mae6753e617" x="234.458252" y="176.493397" style="fill: #ff0000; stroke: #ff0000"/>
     <use xlink:href="#mae6753e617" x="233.16492" y="171.811057" style="fill: #ff0000; stroke: #ff0000"/>
     <use xlink:href="#mae6753e617" x="231.252604" y="167.386321" style="fill: #ff0000; stroke: #ff0000"/>
     <use xlink:href="#mae6753e617" x="228.803707" y="163.29566" style="fill: #ff0000; stroke: #ff0000"/>
     <use xlink:href="#mae6753e617" x="225.962132" y="159.565234" style="fill: #ff0000; stroke: #ff0000"/>
     <use xlink:href="#mae6753e617" x="222.911529" y="156.146008" style="fill: #ff0000; stroke: #ff0000"/>
     <use xlink:href="#mae6753e617" x="219.82732" y="152.911542" style="fill: #ff0000; stroke: #ff0000"/>
     <use xlink:href="#mae6753e617" x="216.819165" y="149.689346" style="fill: #ff0000; stroke: #ff0000"/>
     <use xlink:href="#mae6753e617" x="213.88758" y="146.323441" style="fill: #ff0000; stroke: #ff0000"/>
     <use xlink:href="#mae6753e617" x="210.91584" y="142.75116" style="fill: #ff0000; stroke: #ff0000"/>
     <use xlink:href="#mae6753e617" x="207.708219" y="139.06429" style="fill: #ff0000; stroke: #ff0000"/>
     <use xlink:href="#mae6753e617" x="204.066812" y="135.521854" style="fill: #ff0000; stroke: #ff0000"/>
     <use xlink:href="#mae6753e617" x="199.877404" y="132.4991" style="fill: #ff0000; stroke: #ff0000"/>
     <use xlink:href="#mae6753e617" x="195.166281" y="130.389795" style="fill: #ff0000; stroke: #ff0000"/>
     <use xlink:href="#mae6753e617" x="190.104775" y="129.503808" style="fill: #ff0000; stroke: #ff0000"/>
     <use xlink:href="#mae6753e617" x="184.966555" y="129.999797" style="fill: #ff0000; stroke: #ff0000"/>
     <use xlink:href="#mae6753e617" x="180.062699" y="131.867993" style="fill: #ff0000; stroke: #ff0000"/>
     <use xlink:href="#mae6753e617" x="175.680193" y="134.95196" style="fill: #ff0000; stroke: #ff0000"/>
     <use xlink:href="#mae6753e617" x="172.036556" y="138.986955" style="fill: #ff0000; stroke: #ff0000"/>
     <use xlink:href="#mae6753e617" x="169.24981" y="143.637673" style="fill: #ff0000; stroke: #ff0000"/>
     <use xlink:href="#mae6753e617" x="167.318292" y="148.531893" style="fill: #ff0000; stroke: #ff0000"/>
     <use xlink:href="#mae6753e617" x="166.110271" y="153.298099" style="fill: #ff0000; stroke: #ff0000"/>
     <use xlink:href="#mae6753e617" x="165.372511" y="157.615078" style="fill: #ff0000; stroke: #ff0000"/>
     <use xlink:href="#mae6753e617" x="164.768571" y="161.26878" style="fill: #ff0000; stroke: #ff0000"/>
     <use xlink:href="#mae6753e617" x="163.946228" y="164.196814" style="fill: #ff0000; stroke: #ff0000"/>
     <use xlink:href="#mae6753e617" x="162.614917" y="166.497922" style="fill: #ff0000; stroke: #ff0000"/>
     <use xlink:href="#mae6753e617" x="160.603162" y="168.397966" style="fill: #ff0000; stroke: #ff0000"/>
     <use xlink:href="#mae6753e617" x="157.874107" y="170.186796" style="fill: #ff0000; stroke: #ff0000"/>
     <use xlink:href="#mae6753e617" x="154.502261" y="172.154833" style="fill: #ff0000; stroke: #ff0000"/>
     <use xlink:href="#mae6753e617" x="150.638728" y="174.552279" style="fill: #ff0000; stroke: #ff0000"/>
     <use xlink:href="#mae6753e617" x="146.494608" y="177.571745" style="fill: #ff0000; stroke: #ff0000"/>
     <use xlink:href="#mae6753e617" x="142.34931" y="181.336455" style="fill: #ff0000; stroke: #ff0000"/>
     <use xlink:href="#mae6753e617" x="138.561842" y="185.877433" style="fill: #ff0000; stroke: #ff0000"/>
     <use xlink:href="#mae6753e617" x="135.553902" y="191.101831" style="fill: #ff0000; stroke: #ff0000"/>
     <use xlink:href="#mae6753e617" x="133.749436" y="196.772762" style="fill: #ff0000; stroke: #ff0000"/>
     <use xlink:href="#mae6753e617" x="133.481434" y="202.524704" style="fill: #ff0000; stroke: #ff0000"/>
     <use xlink:href="#mae6753e617" x="134.896768" y="207.92665" style="fill: #ff0000; stroke: #ff0000"/>
     <use xlink:href="#mae6753e617" x="137.897646" y="212.583989" style="fill: #ff0000; stroke: #ff0000"/>
     <use xlink:href="#mae6753e617" x="142.152196" y="216.246602" style="fill: #ff0000; stroke: #ff0000"/>
     <use xlink:href="#mae6753e617" x="147.183305" y="218.875943" style="fill: #ff0000; stroke: #ff0000"/>
     <use xlink:href="#mae6753e617" x="152.507653" y="220.632572" style="fill: #ff0000; stroke: #ff0000"/>
     <use xlink:href="#mae6753e617" x="157.765705" y="221.782766" style="fill: #ff0000; stroke: #ff0000"/>
     <use xlink:href="#mae6753e617" x="162.783498" y="222.570284" style="fill: #ff0000; stroke: #ff0000"/>
     <use xlink:href="#mae6753e617" x="167.545108" y="223.124199" style="fill: #ff0000; stroke: #ff0000"/>
     <use xlink:href="#mae6753e617" x="172.107634" y="223.453152" style="fill: #ff0000; stroke: #ff0000"/>
     <use xlink:href="#mae6753e617" x="176.521145" y="223.520475" style="fill: #ff0000; stroke: #ff0000"/>
     <use xlink:href="#mae6753e617" x="180.802576" y="223.341283" style="fill: #ff0000; stroke: #ff0000"/>
     <use xlink:href="#mae6753e617" x="184.966555" y="223.029799" style="fill: #ff0000; stroke: #ff0000"/>
     <use xlink:href="#mae6753e617" x="189.073074" y="222.761645" style="fill: #ff0000; stroke: #ff0000"/>
     <use xlink:href="#mae6753e617" x="193.242498" y="222.674004" style="fill: #ff0000; stroke: #ff0000"/>
     <use xlink:href="#mae6753e617" x="197.615515" y="222.765467" style="fill: #ff0000; stroke: #ff0000"/>
     <use xlink:href="#mae6753e617" x="202.276029" y="222.855615" style="fill: #ff0000; stroke: #ff0000"/>
     <use xlink:href="#mae6753e617" x="207.181663" y="222.629859" style="fill: #ff0000; stroke: #ff0000"/>
     <use xlink:href="#mae6753e617" x="212.146108" y="221.751097" style="fill: #ff0000; stroke: #ff0000"/>
     <use xlink:href="#mae6753e617" x="216.891744" y="219.986436" style="fill: #ff0000; stroke: #ff0000"/>
     <use xlink:href="#mae6753e617" x="221.151389" y="217.287839" style="fill: #ff0000; stroke: #ff0000"/>
     <use xlink:href="#mae6753e617" x="224.765455" y="213.787844" style="fill: #ff0000; stroke: #ff0000"/>
     <use xlink:href="#mae6753e617" x="227.719092" y="209.718487" style="fill: #ff0000; stroke: #ff0000"/>
     <use xlink:href="#mae6753e617" x="230.100822" y="205.30558" style="fill: #ff0000; stroke: #ff0000"/>
     <use xlink:href="#mae6753e617" x="232.016096" y="200.69928" style="fill: #ff0000; stroke: #ff0000"/>
     <use xlink:href="#mae6753e617" x="233.515337" y="195.968553" style="fill: #ff0000; stroke: #ff0000"/>
     <use xlink:href="#mae6753e617" x="234.575718" y="191.140667" style="fill: #ff0000; stroke: #ff0000"/>
     <use xlink:href="#mae6753e617" x="235.130071" y="186.245255" style="fill: #ff0000; stroke: #ff0000"/>
    </g>
   </g>
   <g id="matplotlib.axis_1">
    <g id="xtick_1">
     <g id="line2d_1">
      <defs>
       <path id="m60206bb4c4" d="M 0 0 
L 0 3.5 
" style="stroke: #000000; stroke-width: 0.8"/>
      </defs>
      <g>
       <use xlink:href="#m60206bb4c4" x="45" y="320.4" style="stroke: #000000; stroke-width: 0.8"/>
      </g>
     </g>
     <g id="text_1">
      <!-- −3 -->
      <g transform="translate(37.628906 334.998438)scale(0.1 -0.1)">
       <defs>
        <path id="DejaVuSans-2212" d="M 678 2272 
L 4684 2272 
L 4684 1741 
L 678 1741 
L 678 2272 
z
" transform="scale(0.015625)"/>
        <path id="DejaVuSans-33" d="M 2597 2516 
Q 3050 2419 3304 2112 
Q 3559 1806 3559 1356 
Q 3559 666 3084 287 
Q 2609 -91 1734 -91 
Q 1441 -91 1130 -33 
Q 819 25 488 141 
L 488 750 
Q 750 597 1062 519 
Q 1375 441 1716 441 
Q 2309 441 2620 675 
Q 2931 909 2931 1356 
Q 2931 1769 2642 2001 
Q 2353 2234 1838 2234 
L 1294 2234 
L 1294 2753 
L 1863 2753 
Q 2328 2753 2575 2939 
Q 2822 3125 2822 3475 
Q 2822 3834 2567 4026 
Q 2313 4219 1838 4219 
Q 1578 4219 1281 4162 
Q 984 4106 628 3988 
L 628 4550 
Q 988 4650 1302 4700 
Q 1616 4750 1894 4750 
Q 2613 4750 3031 4423 
Q 3450 4097 3450 3541 
Q 3450 3153 3228 2886 
Q 3006 2619 2597 2516 
z
" transform="scale(0.015625)"/>
       </defs>
       <use xlink:href="#DejaVuSans-2212"/>
       <use xlink:href="#DejaVuSans-33" x="83.789062"/>
      </g>
     </g>
    </g>
    <g id="xtick_2">
     <g id="line2d_2">
      <g>
       <use xlink:href="#m60206bb4c4" x="91.655518" y="320.4" style="stroke: #000000; stroke-width: 0.8"/>
      </g>
     </g>
     <g id="text_2">
      <!-- −2 -->
      <g transform="translate(84.284425 334.998438)scale(0.1 -0.1)">
       <defs>
        <path id="DejaVuSans-32" d="M 1228 531 
L 3431 531 
L 3431 0 
L 469 0 
L 469 531 
Q 828 903 1448 1529 
Q 2069 2156 2228 2338 
Q 2531 2678 2651 2914 
Q 2772 3150 2772 3378 
Q 2772 3750 2511 3984 
Q 2250 4219 1831 4219 
Q 1534 4219 1204 4116 
Q 875 4013 500 3803 
L 500 4441 
Q 881 4594 1212 4672 
Q 1544 4750 1819 4750 
Q 2544 4750 2975 4387 
Q 3406 4025 3406 3419 
Q 3406 3131 3298 2873 
Q 3191 2616 2906 2266 
Q 2828 2175 2409 1742 
Q 1991 1309 1228 531 
z
" transform="scale(0.015625)"/>
       </defs>
       <use xlink:href="#DejaVuSans-2212"/>
       <use xlink:href="#DejaVuSans-32" x="83.789062"/>
      </g>
     </g>
    </g>
    <g id="xtick_3">
     <g id="line2d_3">
      <g>
       <use xlink:href="#m60206bb4c4" x="138.311037" y="320.4" style="stroke: #000000; stroke-width: 0.8"/>
      </g>
     </g>
     <g id="text_3">
      <!-- −1 -->
      <g transform="translate(130.939943 334.998438)scale(0.1 -0.1)">
       <defs>
        <path id="DejaVuSans-31" d="M 794 531 
L 1825 531 
L 1825 4091 
L 703 3866 
L 703 4441 
L 1819 4666 
L 2450 4666 
L 2450 531 
L 3481 531 
L 3481 0 
L 794 0 
L 794 531 
z
" transform="scale(0.015625)"/>
       </defs>
       <use xlink:href="#DejaVuSans-2212"/>
       <use xlink:href="#DejaVuSans-31" x="83.789062"/>
      </g>
     </g>
    </g>
    <g id="xtick_4">
     <g id="line2d_4">
      <g>
       <use xlink:href="#m60206bb4c4" x="184.966555" y="320.4" style="stroke: #000000; stroke-width: 0.8"/>
      </g>
     </g>
     <g id="text_4">
      <!-- 0 -->
      <g transform="translate(181.785305 334.998438)scale(0.1 -0.1)">
       <defs>
        <path id="DejaVuSans-30" d="M 2034 4250 
Q 1547 4250 1301 3770 
Q 1056 3291 1056 2328 
Q 1056 1369 1301 889 
Q 1547 409 2034 409 
Q 2525 409 2770 889 
Q 3016 1369 3016 2328 
Q 3016 3291 2770 3770 
Q 2525 4250 2034 4250 
z
M 2034 4750 
Q 2819 4750 3233 4129 
Q 3647 3509 3647 2328 
Q 3647 1150 3233 529 
Q 2819 -91 2034 -91 
Q 1250 -91 836 529 
Q 422 1150 422 2328 
Q 422 3509 836 4129 
Q 1250 4750 2034 4750 
z
" transform="scale(0.015625)"/>
       </defs>
       <use xlink:href="#DejaVuSans-30"/>
      </g>
     </g>
    </g>
    <g id="xtick_5">
     <g id="line2d_5">
      <g>
       <use xlink:href="#m60206bb4c4" x="231.622074" y="320.4" style="stroke: #000000; stroke-width: 0.8"/>
      </g>
     </g>
     <g id="text_5">
      <!-- 1 -->
      <g transform="translate(228.440824 334.998438)scale(0.1 -0.1)">
       <use xlink:href="#DejaVuSans-31"/>
      </g>
     </g>
    </g>
    <g id="xtick_6">
     <g id="line2d_6">
      <g>
       <use xlink:href="#m60206bb4c4" x="278.277592" y="320.4" style="stroke: #000000; stroke-width: 0.8"/>
      </g>
     </g>
     <g id="text_6">
      <!-- 2 -->
      <g transform="translate(275.096342 334.998438)scale(0.1 -0.1)">
       <use xlink:href="#DejaVuSans-32"/>
      </g>
     </g>
    </g>
   </g>
   <g id="matplotlib.axis_2">
    <g id="ytick_1">
     <g id="line2d_7">
      <defs>
       <path id="m9364aa8747" d="M 0 0 
L -3.5 0 
" style="stroke: #000000; stroke-width: 0.8"/>
      </defs>
      <g>
       <use xlink:href="#m9364aa8747" x="45" y="320.4" style="stroke: #000000; stroke-width: 0.8"/>
      </g>
     </g>
     <g id="text_7">
      <!-- −3 -->
      <g transform="translate(23.257812 324.199219)scale(0.1 -0.1)">
       <use xlink:href="#DejaVuSans-2212"/>
       <use xlink:href="#DejaVuSans-33" x="83.789062"/>
      </g>
     </g>
    </g>
    <g id="ytick_2">
     <g id="line2d_8">
      <g>
       <use xlink:href="#m9364aa8747" x="45" y="274.045485" style="stroke: #000000; stroke-width: 0.8"/>
      </g>
     </g>
     <g id="text_8">
      <!-- −2 -->
      <g transform="translate(23.257812 277.844704)scale(0.1 -0.1)">
       <use xlink:href="#DejaVuSans-2212"/>
       <use xlink:href="#DejaVuSans-32" x="83.789062"/>
      </g>
     </g>
    </g>
    <g id="ytick_3">
     <g id="line2d_9">
      <g>
       <use xlink:href="#m9364aa8747" x="45" y="227.69097" style="stroke: #000000; stroke-width: 0.8"/>
      </g>
     </g>
     <g id="text_9">
      <!-- −1 -->
      <g transform="translate(23.257812 231.490189)scale(0.1 -0.1)">
       <use xlink:href="#DejaVuSans-2212"/>
       <use xlink:href="#DejaVuSans-31" x="83.789062"/>
      </g>
     </g>
    </g>
    <g id="ytick_4">
     <g id="line2d_10">
      <g>
       <use xlink:href="#m9364aa8747" x="45" y="181.336455" style="stroke: #000000; stroke-width: 0.8"/>
      </g>
     </g>
     <g id="text_10">
      <!-- 0 -->
      <g transform="translate(31.6375 185.135674)scale(0.1 -0.1)">
       <use xlink:href="#DejaVuSans-30"/>
      </g>
     </g>
    </g>
    <g id="ytick_5">
     <g id="line2d_11">
      <g>
       <use xlink:href="#m9364aa8747" x="45" y="134.98194" style="stroke: #000000; stroke-width: 0.8"/>
      </g>
     </g>
     <g id="text_11">
      <!-- 1 -->
      <g transform="translate(31.6375 138.781159)scale(0.1 -0.1)">
       <use xlink:href="#DejaVuSans-31"/>
      </g>
     </g>
    </g>
    <g id="ytick_6">
     <g id="line2d_12">
      <g>
       <use xlink:href="#m9364aa8747" x="45" y="88.627425" style="stroke: #000000; stroke-width: 0.8"/>
      </g>
     </g>
     <g id="text_12">
      <!-- 2 -->
      <g transform="translate(31.6375 92.426643)scale(0.1 -0.1)">
       <use xlink:href="#DejaVuSans-32"/>
      </g>
     </g>
    </g>
   </g>
   <g id="PathCollection_2">
    <path d="M 165.371237 200.011823 
L 165.030957 199.878261 
L 164.438127 199.497178 
L 163.618759 198.951171 
L 163.505017 198.865356 
L 162.571906 198.181324 
L 162.395088 198.02408 
L 161.638796 197.468898 
L 160.935453 197.09699 
L 160.705686 196.950311 
L 160.160847 196.1699 
L 160.178604 195.242809 
L 160.248884 194.315719 
L 160.538803 193.388629 
L 160.705686 193.089336 
L 161.104832 192.461538 
L 161.638796 191.686504 
L 161.744985 191.534448 
L 162.408011 190.607358 
L 162.571906 190.436495 
L 163.484521 189.680268 
L 163.505017 189.668551 
L 164.438127 189.129613 
L 165.099986 188.753177 
L 165.371237 188.596141 
L 166.304348 188.072564 
L 166.73609 187.826087 
L 167.237458 187.501472 
L 168.113676 186.898997 
L 168.170569 186.857697 
L 169.103679 186.124705 
L 169.307818 185.971906 
L 170.036789 185.484048 
L 170.697261 185.044816 
L 170.9699 184.871612 
L 171.90301 184.265741 
L 172.134081 184.117726 
L 172.83612 183.686439 
L 173.592331 183.190635 
L 173.769231 183.080041 
L 174.702341 182.621715 
L 175.635452 182.310696 
L 175.767283 182.263545 
L 176.568562 181.955944 
L 177.501672 181.391289 
L 177.561522 181.336455 
L 178.32885 180.409365 
L 178.434783 180.276393 
L 179.036921 179.482274 
L 179.367893 179.010873 
L 179.760813 178.555184 
L 180.301003 177.862567 
L 180.503133 177.628094 
L 181.234114 176.730808 
L 181.253042 176.701003 
L 181.821677 175.773913 
L 182.167224 175.212054 
L 182.368474 174.846823 
L 182.794739 173.919732 
L 183.100334 173.275161 
L 183.243963 172.992642 
L 183.728602 172.065552 
L 184.033445 171.490634 
L 184.221896 171.138462 
L 184.617435 170.211371 
L 184.880036 169.284281 
L 184.966555 168.889818 
L 185.093385 168.357191 
L 185.27988 167.4301 
L 185.50144 166.50301 
L 185.701159 165.57592 
L 185.899666 164.858378 
L 185.95103 164.648829 
L 186.143397 163.721739 
L 186.340047 162.794649 
L 186.536887 161.867559 
L 186.743696 160.940468 
L 186.832776 160.559619 
L 187.005818 160.013378 
L 187.697987 159.086288 
L 187.765886 159.00276 
L 188.503771 158.159197 
L 188.698997 157.932985 
L 189.310993 157.232107 
L 189.632107 156.851082 
L 190.106657 156.305017 
L 190.565217 155.802443 
L 191.498328 155.457417 
L 192.431438 155.763601 
L 193.364548 156.0698 
L 194.081368 156.305017 
L 194.297659 156.375989 
L 195.230769 156.711404 
L 195.886653 157.232107 
L 196.16388 157.550918 
L 196.562532 158.159197 
L 197.09699 158.940804 
L 197.171116 159.086288 
L 197.555696 160.013378 
L 197.913148 160.940468 
L 198.0301 161.215204 
L 198.373371 161.867559 
L 198.855281 162.794649 
L 198.963211 163.020173 
L 199.245699 163.721739 
L 199.591342 164.648829 
L 199.896321 165.454055 
L 199.946054 165.57592 
L 200.32413 166.50301 
L 200.70281 167.4301 
L 200.829431 167.731211 
L 201.106537 168.357191 
L 201.606752 169.284281 
L 201.762542 169.537708 
L 202.113006 170.211371 
L 202.564162 171.138462 
L 202.695652 171.370571 
L 203.146862 172.065552 
L 203.628763 172.476156 
L 204.29404 172.992642 
L 204.561873 173.202725 
L 205.472549 173.919732 
L 205.494983 173.937875 
L 206.428094 174.77265 
L 206.510228 174.846823 
L 207.30376 175.773913 
L 207.361204 175.873158 
L 207.833134 176.701003 
L 208.294314 177.582513 
L 208.318161 177.628094 
L 208.803183 178.555184 
L 209.227425 179.36609 
L 209.288208 179.482274 
L 209.505493 180.409365 
L 209.582249 181.336455 
L 209.681564 182.263545 
L 209.835841 183.190635 
L 209.977918 184.117726 
L 210.128046 185.044816 
L 210.160535 185.201757 
L 210.312386 185.971906 
L 210.160535 186.563278 
L 210.043911 186.898997 
L 209.514735 187.826087 
L 209.227425 188.247996 
L 208.863416 188.753177 
L 208.294314 189.610392 
L 208.24504 189.680268 
L 207.593659 190.607358 
L 207.361204 190.986265 
L 207.049942 191.534448 
L 206.705262 192.461538 
L 206.428094 193.28103 
L 206.390627 193.388629 
L 205.988169 194.315719 
L 205.494983 195.124915 
L 205.422268 195.242809 
L 204.807509 196.1699 
L 204.561873 196.524242 
L 203.97006 197.09699 
L 203.628763 197.315397 
L 202.695652 197.67403 
L 201.762542 197.980578 
L 201.60748 198.02408 
L 200.829431 198.211707 
L 199.896321 198.29962 
L 198.963211 198.427945 
L 198.0301 198.545409 
L 197.09699 198.639109 
L 196.16388 198.63286 
L 195.230769 198.543591 
L 194.297659 198.527629 
L 193.364548 198.542087 
L 192.431438 198.57038 
L 191.498328 198.598695 
L 190.565217 198.626536 
L 189.632107 198.65737 
L 188.698997 198.690224 
L 187.765886 198.798362 
L 186.832776 198.944864 
L 186.792612 198.951171 
L 185.899666 199.086254 
L 184.966555 199.41468 
L 184.033445 199.7812 
L 183.417184 199.878261 
L 183.100334 199.925038 
L 182.167224 200.016553 
L 181.234114 200.109877 
L 180.301003 200.202636 
L 179.367893 200.294577 
L 178.434783 200.386411 
L 177.501672 200.478133 
L 176.568562 200.569757 
L 175.635452 200.623736 
L 174.702341 200.626956 
L 173.769231 200.629497 
L 172.83612 200.650467 
L 171.90301 200.674506 
L 170.9699 200.638016 
L 170.036789 200.600444 
L 169.103679 200.534734 
L 168.170569 200.453409 
L 167.237458 200.327821 
L 166.304348 200.176096 
L 165.371237 200.011823 
z
" clip-path="url(#p73af2a9fab)" style="fill: none; stroke-dasharray: 5.55,2.4; stroke-dashoffset: 0; stroke: #000000; stroke-width: 1.5"/>
   </g>
   <g id="PathCollection_3">
    <path d="M 159.772575 224.170482 
L 159.15882 223.982609 
L 158.839465 223.902488 
L 157.906355 223.715239 
L 156.973244 223.452831 
L 156.040134 223.102924 
L 155.923289 223.055518 
L 155.107023 222.82926 
L 154.173913 222.462302 
L 153.565417 222.128428 
L 153.240803 221.967597 
L 152.307692 221.685308 
L 151.374582 221.229667 
L 151.312746 221.201338 
L 150.441472 220.889025 
L 149.508361 220.502496 
L 149.119488 220.274247 
L 148.575251 219.996161 
L 147.64214 219.478247 
L 147.440377 219.347157 
L 146.70903 218.941439 
L 145.959895 218.420067 
L 145.77592 218.283899 
L 144.871771 217.492977 
L 144.842809 217.464151 
L 143.998296 216.565886 
L 143.909699 216.477716 
L 143.117608 215.638796 
L 142.976589 215.49847 
L 142.230947 214.711706 
L 142.043478 214.470124 
L 141.621288 213.784615 
L 141.130102 212.857525 
L 141.110368 212.837907 
L 140.419996 211.930435 
L 140.177258 211.688915 
L 139.488355 211.003344 
L 139.244147 210.760325 
L 138.548113 210.076254 
L 138.311037 209.838787 
L 137.615415 209.149164 
L 137.377926 208.908519 
L 136.699626 208.222074 
L 136.444816 207.965067 
L 135.787027 207.294983 
L 135.511706 206.972372 
L 135.086392 206.367893 
L 134.767972 205.440803 
L 134.578595 204.950897 
L 134.54075 204.513712 
L 134.172493 203.586622 
L 133.982445 202.659532 
L 133.937588 201.732441 
L 133.993498 200.805351 
L 134.121585 199.878261 
L 134.252408 198.951171 
L 134.466559 198.02408 
L 134.578595 197.446006 
L 134.725818 197.09699 
L 134.992213 196.1699 
L 135.360916 195.242809 
L 135.511706 194.582523 
L 135.629932 194.315719 
L 135.904057 193.388629 
L 136.260874 192.461538 
L 136.444816 191.751931 
L 136.544431 191.534448 
L 136.730597 190.607358 
L 136.981365 189.680268 
L 137.341893 188.753177 
L 137.377926 188.402949 
L 137.607007 187.826087 
L 137.846441 186.898997 
L 138.205978 185.971906 
L 138.311037 185.504325 
L 138.550231 185.044816 
L 139.235724 184.117726 
L 139.244147 184.073887 
L 139.902691 183.190635 
L 140.177258 182.86305 
L 140.719473 182.263545 
L 141.110368 181.837433 
L 141.564117 181.336455 
L 142.043478 180.807201 
L 142.405972 180.409365 
L 142.976589 179.798618 
L 143.27452 179.482274 
L 143.909699 178.807848 
L 144.147658 178.555184 
L 144.842809 177.817073 
L 145.025399 177.628094 
L 145.77592 176.829765 
L 145.905298 176.701003 
L 146.70903 175.841909 
L 146.777344 175.773913 
L 147.64214 174.888057 
L 147.689034 174.846823 
L 148.575251 174.208126 
L 149.017523 173.919732 
L 149.508361 173.511073 
L 150.441472 173.015203 
L 150.470111 172.992642 
L 151.374582 172.384803 
L 152.027677 172.065552 
L 152.307692 171.885729 
L 153.240803 171.36641 
L 153.703083 171.138462 
L 154.173913 170.833452 
L 155.107023 170.39871 
L 155.443669 170.211371 
L 156.040134 169.79177 
L 156.973244 169.326808 
L 157.033919 169.284281 
L 157.906355 168.706617 
L 158.40353 168.357191 
L 158.839465 167.956345 
L 159.405138 167.4301 
L 159.772575 167.02776 
L 160.246135 166.50301 
L 160.705686 165.930749 
L 160.945652 165.57592 
L 161.27994 164.648829 
L 161.638796 163.883476 
L 161.705034 163.721739 
L 162.073009 162.794649 
L 162.432203 161.867559 
L 162.571906 161.565706 
L 162.806847 160.940468 
L 163.387718 160.013378 
L 163.505017 159.862394 
L 163.861608 159.086288 
L 164.115027 158.159197 
L 164.438127 157.406072 
L 164.529805 157.232107 
L 164.833963 156.305017 
L 165.128882 155.377926 
L 165.371237 154.782694 
L 165.513338 154.450836 
L 165.770551 153.523746 
L 165.98911 152.596656 
L 166.256069 151.669565 
L 166.304348 151.525175 
L 166.542899 150.742475 
L 166.761014 149.815385 
L 167.023173 148.888294 
L 167.237458 148.509689 
L 167.540923 147.961204 
L 168.041246 147.034114 
L 168.170569 146.82396 
L 168.559052 146.107023 
L 169.019337 145.179933 
L 169.103679 145.028554 
L 169.482114 144.252843 
L 169.922683 143.325753 
L 170.036789 143.115884 
L 170.3911 142.398662 
L 170.866034 141.471572 
L 170.9699 141.29652 
L 171.373414 140.544482 
L 171.848822 139.617391 
L 171.90301 139.523236 
L 172.333417 138.690301 
L 172.808023 137.763211 
L 172.83612 137.720248 
L 173.548898 136.83612 
L 173.769231 136.626385 
L 174.552641 135.90903 
L 174.702341 135.775787 
L 175.594242 134.98194 
L 175.635452 134.94544 
L 176.568562 134.164342 
L 176.700039 134.054849 
L 177.501672 133.430578 
L 177.844345 133.127759 
L 178.434783 132.605989 
L 178.893453 132.200669 
L 179.367893 131.781415 
L 180.007505 131.273579 
L 180.301003 131.058465 
L 181.234114 130.71718 
L 182.167224 130.524382 
L 182.909659 130.346488 
L 183.100334 130.303878 
L 184.033445 130.12368 
L 184.966555 129.944163 
L 185.899666 129.762768 
L 186.832776 129.604453 
L 187.665997 129.419398 
L 187.765886 129.397981 
L 188.698997 129.213496 
L 189.632107 129.028085 
L 190.565217 128.838674 
L 191.498328 128.815739 
L 192.431438 128.837539 
L 193.364548 128.896285 
L 194.297659 128.958722 
L 195.230769 129.047819 
L 196.16388 129.141166 
L 197.057974 129.419398 
L 197.09699 129.43643 
L 198.0301 129.76587 
L 198.963211 130.147258 
L 199.310043 130.346488 
L 199.896321 130.662051 
L 200.829431 131.150927 
L 201.002706 131.273579 
L 201.762542 131.824518 
L 202.157898 132.200669 
L 202.695652 132.713966 
L 203.130633 133.127759 
L 203.628763 133.602267 
L 204.104547 134.054849 
L 204.561873 134.490467 
L 205.077944 134.98194 
L 205.494983 135.344611 
L 206.253363 135.90903 
L 206.428094 136.04182 
L 207.361204 136.704215 
L 207.528488 136.83612 
L 208.294314 137.413674 
L 208.658526 137.763211 
L 209.227425 138.272039 
L 209.67721 138.690301 
L 210.160535 139.122349 
L 210.669382 139.617391 
L 211.093645 140.119388 
L 211.452921 140.544482 
L 212.026756 141.223443 
L 212.249276 141.471572 
L 212.959866 142.32466 
L 213.025035 142.398662 
L 213.748803 143.325753 
L 213.892977 143.521415 
L 214.329344 144.252843 
L 214.826087 145.086348 
L 214.893316 145.179933 
L 215.500885 146.107023 
L 215.759197 146.486735 
L 216.134903 147.034114 
L 216.692308 147.822473 
L 216.80252 147.961204 
L 217.434493 148.888294 
L 217.625418 149.117873 
L 218.160018 149.815385 
L 218.558528 150.263628 
L 218.987456 150.742475 
L 219.491639 151.307693 
L 219.82811 151.669565 
L 220.424749 152.346884 
L 220.655173 152.596656 
L 221.35786 153.400814 
L 221.470744 153.523746 
L 222.271642 154.450836 
L 222.29097 154.469802 
L 223.077951 155.377926 
L 223.22408 155.523532 
L 223.893267 156.305017 
L 224.157191 156.723296 
L 224.47108 157.232107 
L 224.989674 158.159197 
L 225.090301 158.271679 
L 225.603519 159.086288 
L 226.023411 159.751467 
L 226.214165 160.013378 
L 226.736122 160.940468 
L 226.956522 161.251006 
L 227.341371 161.867559 
L 227.806683 162.794649 
L 227.889632 162.902685 
L 228.316239 163.721739 
L 228.743894 164.648829 
L 228.822742 164.779482 
L 229.179655 165.57592 
L 229.570748 166.50301 
L 229.755853 166.86052 
L 230.017984 167.4301 
L 230.412435 168.357191 
L 230.688963 169.077921 
L 230.775786 169.284281 
L 230.966727 170.211371 
L 231.216076 171.138462 
L 231.408172 172.065552 
L 231.622074 172.932351 
L 231.637784 172.992642 
L 231.909861 173.919732 
L 232.289846 174.846823 
L 232.555184 175.452152 
L 232.715142 175.773913 
L 233.086114 176.701003 
L 233.47708 177.628094 
L 233.488294 177.656313 
L 233.762758 178.555184 
L 233.82966 179.482274 
L 233.866876 180.409365 
L 233.877358 181.336455 
L 233.854362 182.263545 
L 233.831403 183.190635 
L 233.783699 184.117726 
L 233.721443 185.044816 
L 233.654136 185.971906 
L 233.622273 186.898997 
L 233.590387 187.826087 
L 233.560063 188.753177 
L 233.532614 189.680268 
L 233.503736 190.607358 
L 233.488294 191.07872 
L 233.472479 191.534448 
L 233.322075 192.461538 
L 233.108022 193.388629 
L 232.715399 194.315719 
L 232.555184 194.678745 
L 232.37715 195.242809 
L 232.102407 196.1699 
L 231.622074 197.051283 
L 231.594656 197.09699 
L 231.32648 198.02408 
L 230.804017 198.951171 
L 230.688963 199.15528 
L 230.390463 199.878261 
L 229.831727 200.805351 
L 229.755853 200.949331 
L 229.463528 201.732441 
L 229.006385 202.659532 
L 228.822742 203.009699 
L 228.611595 203.586622 
L 228.221905 204.513712 
L 227.889632 204.943335 
L 227.577412 205.440803 
L 226.956522 206.329169 
L 226.931388 206.367893 
L 226.390237 207.294983 
L 226.023411 207.828818 
L 225.790268 208.222074 
L 225.186321 209.149164 
L 225.090301 209.270162 
L 224.564734 210.076254 
L 224.157191 210.732099 
L 224.010523 211.003344 
L 223.488972 211.930435 
L 223.22408 212.37041 
L 222.950207 212.857525 
L 222.29097 213.763873 
L 222.27579 213.784615 
L 221.586971 214.711706 
L 221.35786 214.996557 
L 220.826046 215.638796 
L 220.424749 216.062967 
L 219.957468 216.565886 
L 219.491639 217.051265 
L 219.077346 217.492977 
L 218.558528 218.052298 
L 218.236008 218.420067 
L 217.625418 219.003155 
L 216.767489 219.347157 
L 216.692308 219.375046 
L 215.759197 219.704923 
L 214.826087 219.986393 
L 213.892977 220.245358 
L 213.809738 220.274247 
L 212.959866 220.536877 
L 212.026756 220.827612 
L 211.093645 221.090484 
L 210.728883 221.201338 
L 210.160535 221.35746 
L 209.227425 221.588876 
L 208.294314 221.803938 
L 207.361204 221.988345 
L 206.792669 222.128428 
L 206.428094 222.214852 
L 205.494983 222.422308 
L 204.561873 222.612923 
L 203.628763 222.836733 
L 203.012165 223.055518 
L 202.695652 223.17574 
L 201.762542 223.375743 
L 200.829431 223.536452 
L 199.896321 223.678435 
L 198.963211 223.806499 
L 198.0301 223.939332 
L 197.784389 223.982609 
L 197.09699 224.086749 
L 196.16388 224.232614 
L 195.230769 224.336316 
L 194.297659 224.425172 
L 193.364548 224.511116 
L 192.431438 224.592759 
L 191.498328 224.690119 
L 190.565217 224.588555 
L 189.632107 224.458787 
L 188.698997 224.324253 
L 187.765886 224.193187 
L 186.832776 224.123603 
L 185.899666 224.04615 
L 185.547882 223.982609 
L 184.966555 223.874889 
L 184.033445 223.74433 
L 183.100334 223.587894 
L 182.167224 223.435597 
L 181.234114 223.419068 
L 180.301003 223.429983 
L 179.367893 223.520644 
L 178.434783 223.610877 
L 177.501672 223.713258 
L 176.568562 223.802456 
L 175.635452 223.914861 
L 175.182288 223.982609 
L 174.702341 224.06359 
L 173.769231 224.071914 
L 172.83612 224.011033 
L 171.90301 224.135256 
L 170.9699 224.249001 
L 170.036789 224.354213 
L 169.103679 224.44772 
L 168.170569 224.478256 
L 167.237458 224.508991 
L 166.304348 224.543523 
L 165.371237 224.578317 
L 164.438127 224.610505 
L 163.505017 224.636069 
L 162.571906 224.596373 
L 161.638796 224.518656 
L 160.705686 224.356499 
L 159.772575 224.170482 
z
" clip-path="url(#p73af2a9fab)" style="fill: none; stroke: #000000; stroke-width: 1.5"/>
   </g>
   <g id="PathCollection_4">
    <path d="M 167.237458 248.100324 
L 167.166088 248.086957 
L 166.304348 247.925551 
L 165.371237 247.74507 
L 164.438127 247.542563 
L 163.505017 247.338649 
L 162.686782 247.159866 
L 162.571906 247.134765 
L 161.638796 246.937073 
L 160.705686 246.867408 
L 159.772575 246.840266 
L 158.839465 246.808011 
L 157.906355 246.775709 
L 156.973244 246.743409 
L 156.040134 246.709226 
L 155.107023 246.669261 
L 154.173913 246.62892 
L 153.240803 246.558832 
L 152.307692 246.334339 
L 151.948596 246.232776 
L 151.374582 246.068581 
L 150.441472 245.801661 
L 149.508361 245.534745 
L 148.701856 245.305686 
L 148.575251 245.269785 
L 147.64214 244.99363 
L 146.70903 244.639386 
L 146.031145 244.378595 
L 145.77592 244.280406 
L 144.842809 243.920266 
L 143.909699 243.509109 
L 143.785523 243.451505 
L 142.976589 243.065664 
L 142.043478 242.618182 
L 141.847954 242.524415 
L 141.110368 242.170686 
L 140.177258 241.723193 
L 139.917609 241.597324 
L 139.244147 241.254566 
L 138.311037 240.679519 
L 138.296077 240.670234 
L 137.377926 240.090614 
L 136.815745 239.743144 
L 136.444816 239.5157 
L 135.511706 238.943928 
L 135.303785 238.816054 
L 134.578595 238.371455 
L 133.79591 237.888963 
L 133.645485 237.796362 
L 132.712375 237.220634 
L 132.342292 236.961873 
L 131.779264 236.511861 
L 131.24703 236.034783 
L 130.846154 235.667774 
L 130.248453 235.107692 
L 129.913043 234.793391 
L 129.259116 234.180602 
L 128.979933 233.924126 
L 128.244074 233.253512 
L 128.046823 233.074814 
L 127.220727 232.326421 
L 127.113712 232.229475 
L 126.197355 231.399331 
L 126.180602 231.384154 
L 125.247492 230.538817 
L 125.173999 230.472241 
L 124.314381 229.658686 
L 124.196264 229.545151 
L 123.510581 228.61806 
L 123.381271 228.358376 
L 123.050022 227.69097 
L 122.589877 226.76388 
L 122.448161 226.478348 
L 122.129742 225.836789 
L 121.586828 224.909699 
L 121.51505 224.818613 
L 120.799884 223.982609 
L 120.58194 223.720223 
L 120.052595 223.055518 
L 119.648829 222.544204 
L 119.323237 222.128428 
L 118.715719 221.344166 
L 118.60599 221.201338 
L 117.893737 220.274247 
L 117.782609 220.129596 
L 117.181485 219.347157 
L 116.849498 218.915037 
L 116.469235 218.420067 
L 115.916388 217.700475 
L 115.756969 217.492977 
L 115.279422 216.565886 
L 114.983278 215.701234 
L 114.962977 215.638796 
L 114.650297 214.711706 
L 114.327051 213.784615 
L 114.050167 213.000387 
L 113.999981 212.857525 
L 113.655603 211.930435 
L 113.305461 211.003344 
L 113.117057 210.510597 
L 112.953704 210.076254 
L 112.777642 209.149164 
L 112.638215 208.222074 
L 112.503066 207.294983 
L 112.36915 206.367893 
L 112.235231 205.440803 
L 112.183946 205.084077 
L 112.099619 204.513712 
L 111.952441 203.586622 
L 111.808899 202.659532 
L 111.717163 201.732441 
L 111.702281 200.805351 
L 111.647297 199.878261 
L 111.709469 198.951171 
L 111.867792 198.02408 
L 112.027892 197.09699 
L 112.183946 196.296268 
L 112.20929 196.1699 
L 112.53536 195.242809 
L 112.905727 194.315719 
L 113.117057 193.417418 
L 113.124088 193.388629 
L 113.319275 192.461538 
L 113.512586 191.534448 
L 113.704006 190.607358 
L 113.895026 189.680268 
L 114.050167 188.934096 
L 114.08835 188.753177 
L 114.282887 187.826087 
L 114.483094 186.898997 
L 114.720434 185.971906 
L 114.970143 185.044816 
L 114.983278 184.996051 
L 115.221525 184.117726 
L 115.459079 183.190635 
L 115.708898 182.263545 
L 115.916388 181.477163 
L 115.955612 181.336455 
L 116.443441 180.409365 
L 116.849498 179.638199 
L 116.93188 179.482274 
L 117.412545 178.555184 
L 117.782609 177.843247 
L 117.894287 177.628094 
L 118.450676 176.701003 
L 118.715719 176.28442 
L 119.040522 175.773913 
L 119.630364 174.846823 
L 119.648829 174.8178 
L 120.233123 173.919732 
L 120.58194 173.397767 
L 120.856228 172.992642 
L 121.48391 172.065552 
L 121.51505 172.019558 
L 122.111585 171.138462 
L 122.448161 170.641337 
L 122.739264 170.211371 
L 123.36694 169.284281 
L 123.381271 169.263395 
L 124.009826 168.357191 
L 124.314381 167.923653 
L 124.661108 167.4301 
L 125.247492 166.595727 
L 125.312651 166.50301 
L 125.964192 165.57592 
L 126.180602 165.252234 
L 126.575219 164.648829 
L 127.011072 163.721739 
L 127.113712 163.503416 
L 127.446924 162.794649 
L 127.902765 161.867559 
L 128.046823 161.647881 
L 128.634811 160.940468 
L 128.979933 160.624752 
L 129.648257 160.013378 
L 129.913043 159.772577 
L 130.687312 159.086288 
L 130.846154 158.940082 
L 131.670539 158.159197 
L 131.779264 158.051792 
L 132.673742 157.232107 
L 132.712375 157.200558 
L 133.645485 156.461971 
L 133.843776 156.305017 
L 134.578595 155.723383 
L 135.015033 155.377926 
L 135.511706 154.984789 
L 136.18629 154.450836 
L 136.444816 154.246206 
L 137.311749 153.523746 
L 137.377926 153.456985 
L 138.151145 152.596656 
L 138.311037 152.423706 
L 139.020112 151.669565 
L 139.244147 151.438064 
L 139.916285 150.742475 
L 140.177258 150.442493 
L 140.625665 149.815385 
L 141.110368 148.976269 
L 141.161185 148.888294 
L 141.696713 147.961204 
L 142.043478 147.360877 
L 142.232222 147.034114 
L 142.767743 146.107023 
L 142.976589 145.70022 
L 143.213441 145.179933 
L 143.533876 144.252843 
L 143.862979 143.325753 
L 143.909699 143.204534 
L 144.220941 142.398662 
L 144.579009 141.471572 
L 144.842809 140.788569 
L 144.937084 140.544482 
L 145.295151 139.617391 
L 145.653217 138.690301 
L 145.77592 138.372604 
L 146.011281 137.763211 
L 146.538584 136.83612 
L 146.70903 136.589699 
L 147.179835 135.90903 
L 147.64214 135.240649 
L 147.821085 134.98194 
L 148.462354 134.054849 
L 148.575251 133.893973 
L 149.122408 133.127759 
L 149.508361 132.560692 
L 149.749122 132.200669 
L 150.370061 131.273579 
L 150.441472 131.167034 
L 150.991438 130.346488 
L 151.374582 129.766937 
L 151.603527 129.419398 
L 152.213576 128.492308 
L 152.307692 128.346304 
L 152.814394 127.565217 
L 153.240803 126.865665 
L 153.381954 126.638127 
L 153.957368 125.711037 
L 154.173913 125.376274 
L 154.568443 124.783946 
L 155.107023 124.001077 
L 155.206243 123.856856 
L 155.851542 122.929766 
L 156.040134 122.693432 
L 156.569322 122.002676 
L 156.973244 121.450803 
L 157.239234 121.075585 
L 157.906355 120.337669 
L 158.103808 120.148495 
L 158.839465 119.443679 
L 159.071474 119.221405 
L 159.772575 118.549721 
L 160.036811 118.294314 
L 160.705686 117.645577 
L 160.991782 117.367224 
L 161.638796 116.737737 
L 161.944684 116.440134 
L 162.571906 115.829886 
L 162.897568 115.513043 
L 163.505017 114.92206 
L 163.854981 114.585953 
L 164.438127 114.027117 
L 164.934065 113.658863 
L 165.371237 113.347022 
L 166.225567 112.731773 
L 166.304348 112.675422 
L 167.237458 112.025326 
L 167.658513 111.804682 
L 168.170569 111.567628 
L 169.103679 111.147935 
L 169.723943 110.877592 
L 170.036789 110.7393 
L 170.9699 110.365866 
L 171.847732 109.950502 
L 171.90301 109.923715 
L 172.83612 109.455157 
L 173.696876 109.023411 
L 173.769231 108.987341 
L 174.702341 108.544355 
L 175.635452 108.286193 
L 176.37802 108.096321 
L 176.568562 108.0476 
L 177.501672 107.806186 
L 178.434783 107.631392 
L 179.367893 107.462188 
L 180.301003 107.292213 
L 180.941267 107.169231 
L 181.234114 107.113114 
L 182.167224 106.932291 
L 183.100334 106.73261 
L 184.033445 106.542123 
L 184.966555 106.320263 
L 185.280103 106.24214 
L 185.899666 106.087772 
L 186.832776 105.855271 
L 187.765886 105.659608 
L 188.698997 105.624627 
L 189.632107 105.589634 
L 190.565217 105.554641 
L 191.498328 105.51966 
L 192.431438 105.522671 
L 193.364548 105.556673 
L 194.297659 105.601662 
L 195.230769 105.646416 
L 196.16388 105.69647 
L 197.09699 105.732918 
L 198.0301 105.885926 
L 198.963211 106.064303 
L 199.89354 106.24214 
L 199.896321 106.242672 
L 200.829431 106.421034 
L 201.762542 106.599422 
L 202.695652 106.817659 
L 203.628763 107.087476 
L 203.911498 107.169231 
L 204.561873 107.357292 
L 205.494983 107.627126 
L 206.428094 108.064324 
L 206.485523 108.096321 
L 207.361204 108.585264 
L 208.132044 109.023411 
L 208.294314 109.117677 
L 209.227425 109.6694 
L 209.589583 109.950502 
L 210.160535 110.451603 
L 210.635268 110.877592 
L 211.093645 111.289401 
L 211.779141 111.804682 
L 212.026756 111.989505 
L 212.959866 112.698707 
L 213.002993 112.731773 
L 213.892977 113.398459 
L 214.240303 113.658863 
L 214.826087 114.097769 
L 215.477641 114.585953 
L 215.759197 114.796913 
L 216.686699 115.513043 
L 216.692308 115.517275 
L 217.625418 116.126986 
L 218.120021 116.440134 
L 218.558528 116.717764 
L 219.465835 117.367224 
L 219.491639 117.387652 
L 220.424749 118.210211 
L 220.518687 118.294314 
L 221.35786 119.045634 
L 221.554175 119.221405 
L 222.29097 119.881072 
L 222.586109 120.148495 
L 223.22408 120.73564 
L 223.585582 121.075585 
L 224.157191 121.613119 
L 224.580724 122.002676 
L 225.090301 122.448948 
L 225.690387 122.929766 
L 226.023411 123.196604 
L 226.847415 123.856856 
L 226.956522 123.94428 
L 227.889632 124.691923 
L 228.004482 124.783946 
L 228.822742 125.439582 
L 229.134518 125.711037 
L 229.755853 126.332977 
L 230.028807 126.638127 
L 230.688963 127.392676 
L 230.840109 127.565217 
L 231.622074 128.485048 
L 231.628015 128.492308 
L 232.340281 129.419398 
L 232.555184 129.730786 
L 232.980112 130.346488 
L 233.488294 131.08283 
L 233.619935 131.273579 
L 234.27557 132.200669 
L 234.421405 132.39351 
L 234.984867 133.127759 
L 235.354515 133.609448 
L 235.696319 134.054849 
L 236.287625 134.825384 
L 236.409243 134.98194 
L 237.119219 135.90903 
L 237.220736 136.040601 
L 237.848952 136.83612 
L 238.153846 137.225837 
L 238.57972 137.763211 
L 239.086957 138.403249 
L 239.314446 138.690301 
L 240.020067 139.580657 
L 240.049377 139.617391 
L 240.800971 140.544482 
L 240.953177 140.728805 
L 241.567505 141.471572 
L 241.886288 141.844509 
L 242.29615 142.398662 
L 242.819398 143.238737 
L 242.873027 143.325753 
L 243.443021 144.252843 
L 243.752508 144.731437 
L 244.052376 145.179933 
L 244.685619 146.101883 
L 244.68915 146.107023 
L 245.316257 147.034114 
L 245.618729 147.481947 
L 245.942438 147.961204 
L 246.551839 148.863426 
L 246.568633 148.888294 
L 247.191436 149.815385 
L 247.48495 150.265638 
L 247.783797 150.742475 
L 248.332727 151.669565 
L 248.41806 151.817428 
L 248.874748 152.596656 
L 249.351171 153.438806 
L 249.399434 153.523746 
L 249.838421 154.450836 
L 250.256104 155.377926 
L 250.284281 155.440645 
L 250.673 156.305017 
L 251.088466 157.232107 
L 251.217391 157.52629 
L 251.484203 158.159197 
L 251.848919 159.086288 
L 252.150502 159.897583 
L 252.194198 160.013378 
L 252.530083 160.940468 
L 252.872361 161.867559 
L 253.083612 162.431491 
L 253.220279 162.794649 
L 253.56918 163.721739 
L 253.833959 164.648829 
L 254.016722 165.334856 
L 254.080944 165.57592 
L 254.327956 166.50301 
L 254.535782 167.4301 
L 254.719079 168.357191 
L 254.902267 169.284281 
L 254.949833 169.525024 
L 255.085442 170.211371 
L 255.268644 171.138462 
L 255.451829 172.065552 
L 255.635019 172.992642 
L 255.818204 173.919732 
L 255.882943 174.175479 
L 256.049685 174.846823 
L 256.417773 175.773913 
L 256.792101 176.701003 
L 256.816054 176.873912 
L 256.920357 177.628094 
L 257.043539 178.555184 
L 257.166739 179.482274 
L 257.290053 180.409365 
L 257.415536 181.336455 
L 257.51249 182.263545 
L 257.578322 183.190635 
L 257.584411 184.117726 
L 257.543801 185.044816 
L 257.503178 185.971906 
L 257.462562 186.898997 
L 257.421931 187.826087 
L 257.381318 188.753177 
L 257.340695 189.680268 
L 257.300074 190.607358 
L 257.259449 191.534448 
L 257.218823 192.461538 
L 257.178206 193.388629 
L 257.133556 194.315719 
L 257.020129 195.242809 
L 256.904135 196.1699 
L 256.816054 196.873929 
L 256.788146 197.09699 
L 256.649559 198.02408 
L 256.269586 198.951171 
L 255.933328 199.878261 
L 255.882943 200.02041 
L 255.604722 200.805351 
L 255.316128 201.732441 
L 255.065295 202.659532 
L 254.949833 203.086281 
L 254.814455 203.586622 
L 254.56229 204.513712 
L 254.270966 205.440803 
L 254.016722 206.228507 
L 253.971304 206.367893 
L 253.67103 207.294983 
L 253.33167 208.222074 
L 253.083612 208.844028 
L 252.961911 209.149164 
L 252.592138 210.076254 
L 252.222364 211.003344 
L 252.150502 211.187318 
L 251.871205 211.930435 
L 251.524623 212.857525 
L 251.217391 213.651905 
L 251.165623 213.784615 
L 250.757811 214.711706 
L 250.284281 215.463747 
L 250.168342 215.638796 
L 249.554322 216.565886 
L 249.351171 216.867095 
L 248.92018 217.492977 
L 248.41806 218.176884 
L 248.238646 218.420067 
L 247.527958 219.347157 
L 247.48495 219.403264 
L 246.779139 220.274247 
L 246.551839 220.548796 
L 246.062961 221.201338 
L 245.618729 221.887592 
L 245.46293 222.128428 
L 244.94192 223.055518 
L 244.685619 223.523433 
L 244.431726 223.982609 
L 243.930142 224.909699 
L 243.752508 225.233768 
L 243.38514 225.836789 
L 242.819398 226.675299 
L 242.759027 226.76388 
L 242.12393 227.69097 
L 241.886288 228.044402 
L 241.484011 228.61806 
L 240.953177 229.263378 
L 240.70525 229.545151 
L 240.020067 230.32117 
L 239.888415 230.472241 
L 239.086957 231.391937 
L 239.080513 231.399331 
L 238.272601 232.326421 
L 238.153846 232.449238 
L 237.341149 233.253512 
L 237.220736 233.371137 
L 236.392098 234.180602 
L 236.287625 234.282656 
L 235.443015 235.107692 
L 235.354515 235.194142 
L 234.489917 236.034783 
L 234.421405 236.100142 
L 233.511533 236.961873 
L 233.488294 236.983883 
L 232.555184 237.777145 
L 232.395617 237.888963 
L 231.622074 238.419211 
L 231.04317 238.816054 
L 230.688963 239.058865 
L 229.755853 239.588458 
L 229.291218 239.743144 
L 228.822742 239.893345 
L 227.889632 240.192508 
L 226.956522 240.482258 
L 226.327566 240.670234 
L 226.023411 240.761137 
L 225.090301 241.040034 
L 224.157191 241.318915 
L 223.225661 241.597324 
L 223.22408 241.597797 
L 222.29097 241.87669 
L 221.35786 242.167258 
L 220.424749 242.502937 
L 220.366795 242.524415 
L 219.491639 242.848745 
L 218.558528 243.194744 
L 217.869062 243.451505 
L 217.625418 243.542247 
L 216.692308 243.886481 
L 215.759197 244.21032 
L 215.242937 244.378595 
L 214.826087 244.512302 
L 213.892977 244.803862 
L 212.959866 245.095432 
L 212.286941 245.305686 
L 212.026756 245.388021 
L 211.093645 245.764736 
L 210.160535 246.161091 
L 209.991784 246.232776 
L 209.227425 246.557462 
L 208.294314 246.928636 
L 207.361204 247.098833 
L 206.906986 247.159866 
L 206.428094 247.224205 
L 205.494983 247.349278 
L 204.561873 247.474351 
L 203.628763 247.591861 
L 202.695652 247.670706 
L 201.762542 247.751589 
L 200.829431 247.843388 
L 199.896321 247.945963 
L 198.963211 248.052236 
L 198.0301 248.082948 
L 197.09699 247.947023 
L 196.16388 247.858646 
L 195.230769 247.815223 
L 194.297659 247.771804 
L 193.364548 247.728391 
L 192.431438 247.68497 
L 191.498328 247.641557 
L 190.565217 247.604037 
L 189.632107 247.583343 
L 188.698997 247.598343 
L 187.765886 247.613352 
L 186.832776 247.62836 
L 185.899666 247.643361 
L 184.966555 247.658361 
L 184.033445 247.673369 
L 183.100334 247.680285 
L 182.167224 247.810857 
L 181.234114 247.939483 
L 180.301003 248.074457 
L 180.21536 248.086957 
L 179.367893 248.211509 
L 178.434783 248.348634 
L 177.501672 248.450948 
L 176.568562 248.514191 
L 175.635452 248.550784 
L 174.702341 248.587371 
L 173.769231 248.623689 
L 172.83612 248.657798 
L 171.90301 248.628182 
L 170.9699 248.611316 
L 170.036789 248.60019 
L 169.103679 248.449859 
L 168.170569 248.275083 
L 167.237458 248.100324 
z
" clip-path="url(#p73af2a9fab)" style="fill: none; stroke: #000000; stroke-width: 1.5"/>
   </g>
   <g id="patch_3">
    <path d="M 45 320.4 
L 45 43.2 
" style="fill: none; stroke: #000000; stroke-width: 0.8; stroke-linejoin: miter; stroke-linecap: square"/>
   </g>
   <g id="patch_4">
    <path d="M 324 320.4 
L 324 43.2 
" style="fill: none; stroke: #000000; stroke-width: 0.8; stroke-linejoin: miter; stroke-linecap: square"/>
   </g>
   <g id="patch_5">
    <path d="M 45 320.4 
L 324 320.4 
" style="fill: none; stroke: #000000; stroke-width: 0.8; stroke-linejoin: miter; stroke-linecap: square"/>
   </g>
   <g id="patch_6">
    <path d="M 45 43.2 
L 324 43.2 
" style="fill: none; stroke: #000000; stroke-width: 0.8; stroke-linejoin: miter; stroke-linecap: square"/>
   </g>
  </g>
 </g>
 <defs>
  <clipPath id="p73af2a9fab">
   <rect x="45" y="43.2" width="279" height="277.2"/>
  </clipPath>
 </defs>
</svg>
