<?xml version="1.0" encoding="utf-8" standalone="no"?>
<!DOCTYPE svg PUBLIC "-//W3C//DTD SVG 1.1//EN"
  "http://www.w3.org/Graphics/SVG/1.1/DTD/svg11.dtd">
<svg xmlns:xlink="http://www.w3.org/1999/xlink" width="360pt" height="360pt" viewBox="0 0 360 360" xmlns="http://www.w3.org/2000/svg" version="1.1">
 <metadata>
  <rdf:RDF xmlns:dc="http://purl.org/dc/elements/1.1/" xmlns:cc="http://creativecommons.org/ns#" xmlns:rdf="http://www.w3.org/1999/02/22-rdf-syntax-ns#">
   <cc:Work>
    <dc:type rdf:resource="http://purl.org/dc/dcmitype/StillImage"/>
    <dc:date>2022-04-03T22:41:47.076874</dc:date>
    <dc:format>image/svg+xml</dc:format>
    <dc:creator>
     <cc:Agent>
      <dc:title>Matplotlib v3.5.1, https://matplotlib.org/</dc:title>
     </cc:Agent>
    </dc:creator>
   </cc:Work>
  </rdf:RDF>
 </metadata>
 <defs>
  <style type="text/css">*{stroke-linejoin: round; stroke-linecap: butt}</style>
 </defs>
 <g id="figure_1">
  <g id="patch_1">
   <path d="M 0 360 
L 360 360 
L 360 0 
L 0 0 
z
" style="fill: #ffffff"/>
  </g>
  <g id="axes_1">
   <g id="patch_2">
    <path d="M 45 320.4 
L 324 320.4 
L 324 43.2 
L 45 43.2 
z
" style="fill: #ffffff"/>
   </g>
   <g id="PathCollection_1">
    <defs>
     <path id="ma527894a33" d="M 0 0.5 
C 0.132602 0.5 0.25979 0.447317 0.353553 0.353553 
C 0.447317 0.25979 0.5 0.132602 0.5 0 
C 0.5 -0.132602 0.447317 -0.25979 0.353553 -0.353553 
C 0.25979 -0.447317 0.132602 -0.5 0 -0.5 
C -0.132602 -0.5 -0.25979 -0.447317 -0.353553 -0.353553 
C -0.447317 -0.25979 -0.5 -0.132602 -0.5 0 
C -0.5 0.132602 -0.447317 0.25979 -0.353553 0.353553 
C -0.25979 0.447317 -0.132602 0.5 0 0.5 
z
" style="stroke: #ff0000"/>
    </defs>
    <g clip-path="url(#p8141a109f8)">
     <use xlink:href="#ma527894a33" x="247.568015" y="181.568614" style="fill: #ff0000; stroke: #ff0000"/>
     <use xlink:href="#ma527894a33" x="247.125945" y="175.463081" style="fill: #ff0000; stroke: #ff0000"/>
     <use xlink:href="#ma527894a33" x="246.036043" y="169.453329" style="fill: #ff0000; stroke: #ff0000"/>
     <use xlink:href="#ma527894a33" x="244.474418" y="163.563138" style="fill: #ff0000; stroke: #ff0000"/>
     <use xlink:href="#ma527894a33" x="242.584649" y="157.76023" style="fill: #ff0000; stroke: #ff0000"/>
     <use xlink:href="#ma527894a33" x="240.428125" y="151.990953" style="fill: #ff0000; stroke: #ff0000"/>
     <use xlink:href="#ma527894a33" x="237.960609" y="146.232444" style="fill: #ff0000; stroke: #ff0000"/>
     <use xlink:href="#ma527894a33" x="235.045513" y="140.5445" style="fill: #ff0000; stroke: #ff0000"/>
     <use xlink:href="#ma527894a33" x="231.506304" y="135.096963" style="fill: #ff0000; stroke: #ff0000"/>
     <use xlink:href="#ma527894a33" x="227.204044" y="130.15124" style="fill: #ff0000; stroke: #ff0000"/>
     <use xlink:href="#ma527894a33" x="222.107567" y="125.994326" style="fill: #ff0000; stroke: #ff0000"/>
     <use xlink:href="#ma527894a33" x="216.320924" y="122.852827" style="fill: #ff0000; stroke: #ff0000"/>
     <use xlink:href="#ma527894a33" x="210.054911" y="120.830248" style="fill: #ff0000; stroke: #ff0000"/>
     <use xlink:href="#ma527894a33" x="203.562443" y="119.896361" style="fill: #ff0000; stroke: #ff0000"/>
     <use xlink:href="#ma527894a33" x="197.074606" y="119.922903" style="fill: #ff0000; stroke: #ff0000"/>
     <use xlink:href="#ma527894a33" x="190.763477" y="120.734051" style="fill: #ff0000; stroke: #ff0000"/>
     <use xlink:href="#ma527894a33" x="184.732888" y="122.143249" style="fill: #ff0000; stroke: #ff0000"/>
     <use xlink:href="#ma527894a33" x="179.02333" y="123.972494" style="fill: #ff0000; stroke: #ff0000"/>
     <use xlink:href="#ma527894a33" x="173.621857" y="126.070068" style="fill: #ff0000; stroke: #ff0000"/>
     <use xlink:href="#ma527894a33" x="168.481154" y="128.339472" style="fill: #ff0000; stroke: #ff0000"/>
     <use xlink:href="#ma527894a33" x="163.555282" y="130.771203" style="fill: #ff0000; stroke: #ff0000"/>
     <use xlink:href="#ma527894a33" x="158.847068" y="133.452095" style="fill: #ff0000; stroke: #ff0000"/>
     <use xlink:href="#ma527894a33" x="154.445023" y="136.532066" style="fill: #ff0000; stroke: #ff0000"/>
     <use xlink:href="#ma527894a33" x="150.522819" y="140.15246" style="fill: #ff0000; stroke: #ff0000"/>
     <use xlink:href="#ma527894a33" x="147.289165" y="144.366464" style="fill: #ff0000; stroke: #ff0000"/>
     <use xlink:href="#ma527894a33" x="144.903262" y="149.092171" style="fill: #ff0000; stroke: #ff0000"/>
     <use xlink:href="#ma527894a33" x="143.395184" y="154.125844" style="fill: #ff0000; stroke: #ff0000"/>
     <use xlink:href="#ma527894a33" x="142.635472" y="159.212248" style="fill: #ff0000; stroke: #ff0000"/>
     <use xlink:href="#ma527894a33" x="142.376285" y="164.137126" style="fill: #ff0000; stroke: #ff0000"/>
     <use xlink:href="#ma527894a33" x="142.347348" y="168.794053" style="fill: #ff0000; stroke: #ff0000"/>
     <use xlink:href="#ma527894a33" x="142.358279" y="173.19416" style="fill: #ff0000; stroke: #ff0000"/>
     <use xlink:href="#ma527894a33" x="142.357447" y="177.421924" style="fill: #ff0000; stroke: #ff0000"/>
     <use xlink:href="#ma527894a33" x="142.426117" y="181.568614" style="fill: #ff0000; stroke: #ff0000"/>
     <use xlink:href="#ma527894a33" x="142.722094" y="185.679622" style="fill: #ff0000; stroke: #ff0000"/>
     <use xlink:href="#ma527894a33" x="143.405315" y="189.736144" style="fill: #ff0000; stroke: #ff0000"/>
     <use xlink:href="#ma527894a33" x="144.574554" y="193.671919" style="fill: #ff0000; stroke: #ff0000"/>
     <use xlink:href="#ma527894a33" x="146.232627" y="197.413059" style="fill: #ff0000; stroke: #ff0000"/>
     <use xlink:href="#ma527894a33" x="148.28839" y="200.922927" style="fill: #ff0000; stroke: #ff0000"/>
     <use xlink:href="#ma527894a33" x="150.596439" y="204.230704" style="fill: #ff0000; stroke: #ff0000"/>
     <use xlink:href="#ma527894a33" x="153.023263" y="207.424138" style="fill: #ff0000; stroke: #ff0000"/>
     <use xlink:href="#ma527894a33" x="155.512904" y="210.600082" style="fill: #ff0000; stroke: #ff0000"/>
     <use xlink:href="#ma527894a33" x="158.117126" y="213.79078" style="fill: #ff0000; stroke: #ff0000"/>
     <use xlink:href="#ma527894a33" x="160.967364" y="216.906766" style="fill: #ff0000; stroke: #ff0000"/>
     <use xlink:href="#ma527894a33" x="164.197828" y="219.739149" style="fill: #ff0000; stroke: #ff0000"/>
     <use xlink:href="#ma527894a33" x="167.86234" y="222.034952" style="fill: #ff0000; stroke: #ff0000"/>
     <use xlink:href="#ma527894a33" x="171.896134" y="223.612709" style="fill: #ff0000; stroke: #ff0000"/>
     <use xlink:href="#ma527894a33" x="176.147119" y="224.453718" style="fill: #ff0000; stroke: #ff0000"/>
     <use xlink:href="#ma527894a33" x="180.455809" y="224.714362" style="fill: #ff0000; stroke: #ff0000"/>
     <use xlink:href="#ma527894a33" x="184.732888" y="224.652697" style="fill: #ff0000; stroke: #ff0000"/>
     <use xlink:href="#ma527894a33" x="188.990128" y="224.514227" style="fill: #ff0000; stroke: #ff0000"/>
     <use xlink:href="#ma527894a33" x="193.315837" y="224.43963" style="fill: #ff0000; stroke: #ff0000"/>
     <use xlink:href="#ma527894a33" x="197.819916" y="224.432425" style="fill: #ff0000; stroke: #ff0000"/>
     <use xlink:href="#ma527894a33" x="202.5819" y="224.381932" style="fill: #ff0000; stroke: #ff0000"/>
     <use xlink:href="#ma527894a33" x="207.619965" y="224.111073" style="fill: #ff0000; stroke: #ff0000"/>
     <use xlink:href="#ma527894a33" x="212.880689" y="223.422993" style="fill: #ff0000; stroke: #ff0000"/>
     <use xlink:href="#ma527894a33" x="218.244621" y="222.139333" style="fill: #ff0000; stroke: #ff0000"/>
     <use xlink:href="#ma527894a33" x="223.547067" y="220.132379" style="fill: #ff0000; stroke: #ff0000"/>
     <use xlink:href="#ma527894a33" x="228.612067" y="217.346998" style="fill: #ff0000; stroke: #ff0000"/>
     <use xlink:href="#ma527894a33" x="233.286343" y="213.80169" style="fill: #ff0000; stroke: #ff0000"/>
     <use xlink:href="#ma527894a33" x="237.453458" y="209.566542" style="fill: #ff0000; stroke: #ff0000"/>
     <use xlink:href="#ma527894a33" x="241.020879" y="204.733443" style="fill: #ff0000; stroke: #ff0000"/>
     <use xlink:href="#ma527894a33" x="243.896877" y="199.400026" style="fill: #ff0000; stroke: #ff0000"/>
     <use xlink:href="#ma527894a33" x="245.985597" y="193.67393" style="fill: #ff0000; stroke: #ff0000"/>
     <use xlink:href="#ma527894a33" x="247.213074" y="187.682674" style="fill: #ff0000; stroke: #ff0000"/>
    </g>
   </g>
   <g id="matplotlib.axis_1">
    <g id="xtick_1">
     <g id="line2d_1">
      <defs>
       <path id="m2edcc8997c" d="M 0 0 
L 0 3.5 
" style="stroke: #000000; stroke-width: 0.8"/>
      </defs>
      <g>
       <use xlink:href="#m2edcc8997c" x="45" y="320.4" style="stroke: #000000; stroke-width: 0.8"/>
      </g>
     </g>
     <g id="text_1">
      <!-- −3 -->
      <g transform="translate(37.628906 334.998438)scale(0.1 -0.1)">
       <defs>
        <path id="DejaVuSans-2212" d="M 678 2272 
L 4684 2272 
L 4684 1741 
L 678 1741 
L 678 2272 
z
" transform="scale(0.015625)"/>
        <path id="DejaVuSans-33" d="M 2597 2516 
Q 3050 2419 3304 2112 
Q 3559 1806 3559 1356 
Q 3559 666 3084 287 
Q 2609 -91 1734 -91 
Q 1441 -91 1130 -33 
Q 819 25 488 141 
L 488 750 
Q 750 597 1062 519 
Q 1375 441 1716 441 
Q 2309 441 2620 675 
Q 2931 909 2931 1356 
Q 2931 1769 2642 2001 
Q 2353 2234 1838 2234 
L 1294 2234 
L 1294 2753 
L 1863 2753 
Q 2328 2753 2575 2939 
Q 2822 3125 2822 3475 
Q 2822 3834 2567 4026 
Q 2313 4219 1838 4219 
Q 1578 4219 1281 4162 
Q 984 4106 628 3988 
L 628 4550 
Q 988 4650 1302 4700 
Q 1616 4750 1894 4750 
Q 2613 4750 3031 4423 
Q 3450 4097 3450 3541 
Q 3450 3153 3228 2886 
Q 3006 2619 2597 2516 
z
" transform="scale(0.015625)"/>
       </defs>
       <use xlink:href="#DejaVuSans-2212"/>
       <use xlink:href="#DejaVuSans-33" x="83.789062"/>
      </g>
     </g>
    </g>
    <g id="xtick_2">
     <g id="line2d_2">
      <g>
       <use xlink:href="#m2edcc8997c" x="91.577629" y="320.4" style="stroke: #000000; stroke-width: 0.8"/>
      </g>
     </g>
     <g id="text_2">
      <!-- −2 -->
      <g transform="translate(84.206536 334.998438)scale(0.1 -0.1)">
       <defs>
        <path id="DejaVuSans-32" d="M 1228 531 
L 3431 531 
L 3431 0 
L 469 0 
L 469 531 
Q 828 903 1448 1529 
Q 2069 2156 2228 2338 
Q 2531 2678 2651 2914 
Q 2772 3150 2772 3378 
Q 2772 3750 2511 3984 
Q 2250 4219 1831 4219 
Q 1534 4219 1204 4116 
Q 875 4013 500 3803 
L 500 4441 
Q 881 4594 1212 4672 
Q 1544 4750 1819 4750 
Q 2544 4750 2975 4387 
Q 3406 4025 3406 3419 
Q 3406 3131 3298 2873 
Q 3191 2616 2906 2266 
Q 2828 2175 2409 1742 
Q 1991 1309 1228 531 
z
" transform="scale(0.015625)"/>
       </defs>
       <use xlink:href="#DejaVuSans-2212"/>
       <use xlink:href="#DejaVuSans-32" x="83.789062"/>
      </g>
     </g>
    </g>
    <g id="xtick_3">
     <g id="line2d_3">
      <g>
       <use xlink:href="#m2edcc8997c" x="138.155259" y="320.4" style="stroke: #000000; stroke-width: 0.8"/>
      </g>
     </g>
     <g id="text_3">
      <!-- −1 -->
      <g transform="translate(130.784165 334.998438)scale(0.1 -0.1)">
       <defs>
        <path id="DejaVuSans-31" d="M 794 531 
L 1825 531 
L 1825 4091 
L 703 3866 
L 703 4441 
L 1819 4666 
L 2450 4666 
L 2450 531 
L 3481 531 
L 3481 0 
L 794 0 
L 794 531 
z
" transform="scale(0.015625)"/>
       </defs>
       <use xlink:href="#DejaVuSans-2212"/>
       <use xlink:href="#DejaVuSans-31" x="83.789062"/>
      </g>
     </g>
    </g>
    <g id="xtick_4">
     <g id="line2d_4">
      <g>
       <use xlink:href="#m2edcc8997c" x="184.732888" y="320.4" style="stroke: #000000; stroke-width: 0.8"/>
      </g>
     </g>
     <g id="text_4">
      <!-- 0 -->
      <g transform="translate(181.551638 334.998438)scale(0.1 -0.1)">
       <defs>
        <path id="DejaVuSans-30" d="M 2034 4250 
Q 1547 4250 1301 3770 
Q 1056 3291 1056 2328 
Q 1056 1369 1301 889 
Q 1547 409 2034 409 
Q 2525 409 2770 889 
Q 3016 1369 3016 2328 
Q 3016 3291 2770 3770 
Q 2525 4250 2034 4250 
z
M 2034 4750 
Q 2819 4750 3233 4129 
Q 3647 3509 3647 2328 
Q 3647 1150 3233 529 
Q 2819 -91 2034 -91 
Q 1250 -91 836 529 
Q 422 1150 422 2328 
Q 422 3509 836 4129 
Q 1250 4750 2034 4750 
z
" transform="scale(0.015625)"/>
       </defs>
       <use xlink:href="#DejaVuSans-30"/>
      </g>
     </g>
    </g>
    <g id="xtick_5">
     <g id="line2d_5">
      <g>
       <use xlink:href="#m2edcc8997c" x="231.310518" y="320.4" style="stroke: #000000; stroke-width: 0.8"/>
      </g>
     </g>
     <g id="text_5">
      <!-- 1 -->
      <g transform="translate(228.129268 334.998438)scale(0.1 -0.1)">
       <use xlink:href="#DejaVuSans-31"/>
      </g>
     </g>
    </g>
    <g id="xtick_6">
     <g id="line2d_6">
      <g>
       <use xlink:href="#m2edcc8997c" x="277.888147" y="320.4" style="stroke: #000000; stroke-width: 0.8"/>
      </g>
     </g>
     <g id="text_6">
      <!-- 2 -->
      <g transform="translate(274.706897 334.998438)scale(0.1 -0.1)">
       <use xlink:href="#DejaVuSans-32"/>
      </g>
     </g>
    </g>
   </g>
   <g id="matplotlib.axis_2">
    <g id="ytick_1">
     <g id="line2d_7">
      <defs>
       <path id="m257f8f7241" d="M 0 0 
L -3.5 0 
" style="stroke: #000000; stroke-width: 0.8"/>
      </defs>
      <g>
       <use xlink:href="#m257f8f7241" x="45" y="320.4" style="stroke: #000000; stroke-width: 0.8"/>
      </g>
     </g>
     <g id="text_7">
      <!-- −3 -->
      <g transform="translate(23.257812 324.199219)scale(0.1 -0.1)">
       <use xlink:href="#DejaVuSans-2212"/>
       <use xlink:href="#DejaVuSans-33" x="83.789062"/>
      </g>
     </g>
    </g>
    <g id="ytick_2">
     <g id="line2d_8">
      <g>
       <use xlink:href="#m257f8f7241" x="45" y="274.122871" style="stroke: #000000; stroke-width: 0.8"/>
      </g>
     </g>
     <g id="text_8">
      <!-- −2 -->
      <g transform="translate(23.257812 277.92209)scale(0.1 -0.1)">
       <use xlink:href="#DejaVuSans-2212"/>
       <use xlink:href="#DejaVuSans-32" x="83.789062"/>
      </g>
     </g>
    </g>
    <g id="ytick_3">
     <g id="line2d_9">
      <g>
       <use xlink:href="#m257f8f7241" x="45" y="227.845743" style="stroke: #000000; stroke-width: 0.8"/>
      </g>
     </g>
     <g id="text_9">
      <!-- −1 -->
      <g transform="translate(23.257812 231.644962)scale(0.1 -0.1)">
       <use xlink:href="#DejaVuSans-2212"/>
       <use xlink:href="#DejaVuSans-31" x="83.789062"/>
      </g>
     </g>
    </g>
    <g id="ytick_4">
     <g id="line2d_10">
      <g>
       <use xlink:href="#m257f8f7241" x="45" y="181.568614" style="stroke: #000000; stroke-width: 0.8"/>
      </g>
     </g>
     <g id="text_10">
      <!-- 0 -->
      <g transform="translate(31.6375 185.367833)scale(0.1 -0.1)">
       <use xlink:href="#DejaVuSans-30"/>
      </g>
     </g>
    </g>
    <g id="ytick_5">
     <g id="line2d_11">
      <g>
       <use xlink:href="#m257f8f7241" x="45" y="135.291486" style="stroke: #000000; stroke-width: 0.8"/>
      </g>
     </g>
     <g id="text_11">
      <!-- 1 -->
      <g transform="translate(31.6375 139.090705)scale(0.1 -0.1)">
       <use xlink:href="#DejaVuSans-31"/>
      </g>
     </g>
    </g>
    <g id="ytick_6">
     <g id="line2d_12">
      <g>
       <use xlink:href="#m257f8f7241" x="45" y="89.014357" style="stroke: #000000; stroke-width: 0.8"/>
      </g>
     </g>
     <g id="text_12">
      <!-- 2 -->
      <g transform="translate(31.6375 92.813576)scale(0.1 -0.1)">
       <use xlink:href="#DejaVuSans-32"/>
      </g>
     </g>
    </g>
   </g>
   <g id="PathCollection_2">
    <path d="M 204.295492 200.085741 
L 204.176415 200.079466 
L 203.829716 200.061471 
L 203.36394 200.037294 
L 202.898164 200.016537 
L 202.432387 200.001801 
L 201.966611 199.988571 
L 201.500835 199.987534 
L 201.035058 199.997411 
L 200.569282 200.007292 
L 200.103506 200.017175 
L 199.63773 199.999437 
L 199.171953 199.899273 
L 198.706177 199.784356 
L 198.240401 199.669439 
L 198.026616 199.616694 
L 197.774624 199.554523 
L 197.308848 199.439605 
L 196.843072 199.324686 
L 196.377295 199.209767 
L 196.150957 199.153923 
L 195.911519 199.094849 
L 195.445743 198.979708 
L 194.979967 198.859713 
L 194.51419 198.750055 
L 194.241228 198.691152 
L 194.048414 198.649489 
L 193.582638 198.547442 
L 193.116861 198.393648 
L 192.790671 198.228381 
L 192.651085 198.141062 
L 192.185309 197.84969 
L 192.050899 197.765609 
L 191.719533 197.55832 
L 191.311133 197.302838 
L 191.253756 197.266945 
L 190.78798 196.975573 
L 190.571366 196.840067 
L 190.322204 196.684283 
L 189.856427 196.405174 
L 189.809531 196.377295 
L 189.390651 196.128287 
L 189.031065 195.914524 
L 188.924875 195.851397 
L 188.459098 195.574508 
L 188.252601 195.451753 
L 187.993322 195.297621 
L 187.527546 195.020732 
L 187.474137 194.988982 
L 187.06177 194.719453 
L 186.832124 194.52621 
L 186.595993 194.29092 
L 186.368645 194.063439 
L 186.130217 193.79588 
L 185.959914 193.600668 
L 185.664441 193.215829 
L 185.613436 193.137896 
L 185.306302 192.675125 
L 185.198664 192.50577 
L 184.847354 192.212354 
L 184.732888 192.116753 
L 184.293247 191.749583 
L 184.267112 191.727754 
L 183.801336 191.594984 
L 183.335559 191.578978 
L 182.869783 191.565031 
L 182.404007 191.542674 
L 181.93823 191.500735 
L 181.577625 191.286811 
L 181.472454 191.220886 
L 181.006678 190.857823 
L 180.963649 190.82404 
L 180.540902 190.492126 
L 180.374241 190.361269 
L 180.075125 190.126412 
L 179.784838 189.898497 
L 179.609349 189.760715 
L 179.195428 189.435726 
L 179.143573 189.395012 
L 178.677796 189.029315 
L 178.606014 188.972955 
L 178.21202 188.663603 
L 177.746244 188.528576 
L 177.562579 188.510184 
L 177.280467 188.482065 
L 176.814691 188.429816 
L 176.348915 188.368755 
L 175.883139 188.296439 
L 175.417362 188.198639 
L 174.951586 188.093834 
L 174.745276 188.047412 
L 174.48581 187.989032 
L 174.020033 187.884236 
L 173.554257 187.779428 
L 173.088481 187.67462 
L 172.626305 187.584641 
L 172.622705 187.583896 
L 172.156928 187.530806 
L 171.691152 187.358421 
L 171.532914 187.12187 
L 171.29491 186.659098 
L 171.225376 186.48346 
L 171.11523 186.196327 
L 170.962707 185.733556 
L 170.798535 185.270785 
L 170.759599 185.113509 
L 170.707482 184.808013 
L 170.709089 184.345242 
L 170.710695 183.882471 
L 170.712301 183.419699 
L 170.713911 182.956928 
L 170.693508 182.494157 
L 170.669385 182.031386 
L 170.697974 181.568614 
L 170.759599 181.379579 
L 170.832247 181.105843 
L 171.001106 180.643072 
L 170.797973 180.180301 
L 170.759599 180.111919 
L 170.53828 179.717529 
L 170.293823 179.281917 
L 170.278581 179.254758 
L 169.999272 178.791987 
L 169.828047 178.558353 
L 169.675423 178.329215 
L 169.36227 177.908379 
L 169.339876 177.866444 
L 169.148572 177.403673 
L 168.957266 176.940902 
L 168.896494 176.793888 
L 168.765966 176.47813 
L 168.574657 176.015359 
L 168.430718 175.76587 
L 168.311639 175.552588 
L 167.964942 175.15681 
L 167.912437 175.089816 
L 167.568663 174.627045 
L 167.499165 174.528071 
L 167.264659 174.164274 
L 167.033389 173.96566 
L 166.705516 173.701503 
L 166.567613 173.59131 
L 166.101836 173.300212 
L 165.990373 173.238731 
L 165.63606 173.043302 
L 165.170284 172.783088 
L 165.158734 172.77596 
L 164.704508 172.313829 
L 164.704021 172.313189 
L 164.526137 171.850417 
L 164.317741 171.387646 
L 164.238731 171.22383 
L 164.084174 170.924875 
L 163.772955 170.462583 
L 163.772632 170.462104 
L 163.575845 169.999332 
L 163.503628 169.536561 
L 163.431701 169.07379 
L 163.35938 168.611018 
L 163.307179 168.278544 
L 163.286835 168.148247 
L 163.214587 167.685476 
L 163.142332 167.222705 
L 163.070189 166.759933 
L 162.998329 166.297162 
L 162.926077 165.834391 
L 162.923528 165.371619 
L 162.935761 164.908848 
L 163.030605 164.446077 
L 163.156108 163.983306 
L 163.307179 163.527848 
L 163.309967 163.520534 
L 163.569911 163.057763 
L 163.772955 162.649917 
L 163.802347 162.594992 
L 164.068766 162.13222 
L 164.238731 161.810935 
L 164.320091 161.669449 
L 164.569295 161.206678 
L 164.704508 160.962194 
L 164.833742 160.743907 
L 165.074079 160.281135 
L 165.170284 160.110375 
L 165.342088 159.818364 
L 165.586161 159.355593 
L 165.63606 159.266235 
L 165.84605 158.892821 
L 166.099307 158.43005 
L 166.101836 158.425479 
L 166.349931 157.967279 
L 166.567613 157.582706 
L 166.614135 157.504508 
L 166.860693 157.041736 
L 167.033389 156.733383 
L 167.121115 156.578965 
L 167.372481 156.116194 
L 167.499165 155.887502 
L 167.626167 155.653422 
L 167.885321 155.190651 
L 167.964942 155.045292 
L 168.135031 154.72788 
L 168.426122 154.265109 
L 168.430718 154.257949 
L 168.724738 153.802337 
L 168.896494 153.533982 
L 169.021586 153.339566 
L 169.36227 152.89961 
L 169.386918 152.876795 
L 169.828047 152.557886 
L 170.03341 152.414023 
L 170.293823 152.24249 
L 170.699413 151.951252 
L 170.759599 151.910471 
L 171.225376 151.571271 
L 171.338319 151.488481 
L 171.691152 151.231331 
L 171.971754 151.02571 
L 172.156928 150.890552 
L 172.605785 150.562938 
L 172.622705 150.550589 
L 173.088481 150.210794 
L 173.239822 150.100167 
L 173.554257 149.890165 
L 174.020033 149.681182 
L 174.147316 149.637396 
L 174.48581 149.52396 
L 174.951586 149.367918 
L 175.417362 149.211957 
L 175.528198 149.174624 
L 175.883139 149.055675 
L 176.348915 148.899912 
L 176.814691 148.743696 
L 176.909083 148.711853 
L 177.280467 148.587389 
L 177.746244 148.431888 
L 178.21202 148.275531 
L 178.290488 148.249082 
L 178.677796 148.119637 
L 179.143573 147.964807 
L 179.609349 147.808443 
L 179.675309 147.786311 
L 180.075125 147.653207 
L 180.540902 147.498046 
L 181.006678 147.341351 
L 181.05997 147.323539 
L 181.472454 147.185067 
L 181.93823 147.03127 
L 182.404007 146.874734 
L 182.445866 146.860768 
L 182.869783 146.7066 
L 183.335559 146.556235 
L 183.801336 146.408644 
L 183.83796 146.397997 
L 184.267112 146.242915 
L 184.732888 146.086919 
L 185.198664 145.93581 
L 185.20049 145.935225 
L 185.664441 145.770768 
L 186.130217 145.604724 
L 186.502301 145.472454 
L 186.595993 145.439357 
L 187.06177 145.273573 
L 187.527546 145.108004 
L 187.804121 145.009683 
L 187.993322 144.942597 
L 188.459098 144.776849 
L 188.924875 144.611273 
L 189.105931 144.546912 
L 189.390651 144.445699 
L 189.856427 144.280118 
L 190.322204 144.114503 
L 190.407668 144.08414 
L 190.78798 143.948894 
L 191.253756 143.783094 
L 191.708477 143.621369 
L 191.719533 143.617433 
L 192.185309 143.451522 
L 192.651085 143.260268 
L 192.883287 143.158598 
L 193.116861 143.056325 
L 193.582638 142.852383 
L 193.940194 142.695826 
L 194.048414 142.648442 
L 194.51419 142.444512 
L 194.979967 142.334473 
L 195.445743 142.289348 
L 195.911519 142.244226 
L 196.026839 142.233055 
L 196.377295 142.199107 
L 196.843072 142.153984 
L 197.308848 142.109828 
L 197.774624 142.18839 
L 198.031418 142.233055 
L 198.240401 142.269403 
L 198.706177 142.35041 
L 199.171953 142.431425 
L 199.63773 142.518952 
L 200.103506 142.601637 
L 200.569282 142.649007 
L 201.010381 142.695826 
L 201.035058 142.698446 
L 201.500835 142.748056 
L 201.966611 142.822505 
L 202.432387 142.976342 
L 202.898164 143.129968 
L 202.985027 143.158598 
L 203.36394 143.283385 
L 203.829716 143.436768 
L 204.139272 143.621369 
L 204.295492 143.713814 
L 204.761269 144.024071 
L 204.851449 144.08414 
L 205.227045 144.334325 
L 205.546189 144.546912 
L 205.692821 144.644585 
L 206.158598 144.954837 
L 206.240936 145.009683 
L 206.624374 145.265096 
L 206.935675 145.472454 
L 207.09015 145.575349 
L 207.555927 145.885605 
L 207.63042 145.935225 
L 208.021703 146.195861 
L 208.325165 146.397997 
L 208.487479 146.51626 
L 208.818652 146.860768 
L 208.953255 147.038099 
L 209.164404 147.323539 
L 209.368164 147.786311 
L 209.419032 147.916746 
L 209.547248 148.249082 
L 209.724301 148.711853 
L 209.884808 149.131955 
L 209.903281 149.174624 
L 210.102752 149.637396 
L 210.300609 150.100167 
L 210.350584 150.217655 
L 210.540025 150.562938 
L 210.816361 150.939103 
L 210.997289 151.02571 
L 211.282137 151.156715 
L 211.747913 151.370938 
L 212.003493 151.488481 
L 212.213689 151.585149 
L 212.679466 151.799373 
L 212.976644 151.951252 
L 213.145242 152.035953 
L 213.57573 152.414023 
L 213.611018 152.445716 
L 213.894655 152.876795 
L 214.076795 153.15363 
L 214.19913 153.339566 
L 214.50362 153.802337 
L 214.542571 153.861538 
L 214.8081 154.265109 
L 214.999257 154.72788 
L 215.008347 154.753743 
L 215.143983 155.190651 
L 215.211754 155.653422 
L 215.282924 156.116194 
L 215.417394 156.578965 
L 215.474124 156.764407 
L 215.558962 157.041736 
L 215.700534 157.504508 
L 215.842101 157.967279 
L 215.9399 158.286964 
L 215.983673 158.43005 
L 216.147548 158.892821 
L 216.334891 159.355593 
L 216.405676 159.525615 
L 216.527556 159.818364 
L 216.705228 160.281135 
L 216.85251 160.743907 
L 216.871452 160.801038 
L 217.005949 161.206678 
L 217.337229 161.598229 
L 217.398553 161.669449 
L 217.803005 162.125456 
L 217.809062 162.13222 
L 218.228008 162.594992 
L 218.268781 162.674353 
L 218.442453 163.057763 
L 218.652078 163.520534 
L 218.734558 163.702621 
L 218.878967 163.983306 
L 219.135938 164.446077 
L 219.200334 164.556078 
L 219.406847 164.908848 
L 219.66611 165.351721 
L 219.677659 165.371619 
L 219.946621 165.834391 
L 220.131886 166.1288 
L 220.24216 166.297162 
L 220.557653 166.759933 
L 220.597663 166.818619 
L 220.873148 167.222705 
L 221.063439 167.501823 
L 221.188644 167.685476 
L 221.407046 168.148247 
L 221.529215 168.508539 
L 221.563965 168.611018 
L 221.72089 169.07379 
L 221.877808 169.536561 
L 221.994992 169.882141 
L 222.03473 169.999332 
L 222.191648 170.462104 
L 222.329447 170.924875 
L 222.369128 171.387646 
L 222.408811 171.850417 
L 222.448497 172.313189 
L 222.460768 172.456278 
L 222.486502 172.77596 
L 222.462859 173.238731 
L 222.460768 173.253879 
L 222.398979 173.701503 
L 222.335102 174.164274 
L 222.271219 174.627045 
L 222.20734 175.089816 
L 222.143458 175.552588 
L 222.002434 176.015359 
L 221.994992 176.026727 
L 221.699464 176.47813 
L 221.529215 176.738176 
L 221.396493 176.940902 
L 221.093527 177.403673 
L 221.063439 177.44963 
L 220.790554 177.866444 
L 220.597663 178.161075 
L 220.487583 178.329215 
L 220.173096 178.791987 
L 220.131886 178.841876 
L 219.760069 179.254758 
L 219.66611 179.334565 
L 219.230921 179.717529 
L 219.200334 179.744621 
L 218.734558 180.18007 
L 218.734311 180.180301 
L 218.324452 180.643072 
L 218.268781 180.76998 
L 218.12145 181.105843 
L 217.918445 181.568614 
L 217.803005 181.831762 
L 217.715434 182.031386 
L 217.51243 182.494157 
L 217.337229 182.893544 
L 217.309424 182.956928 
L 217.106412 183.419699 
L 216.903407 183.882471 
L 216.871452 183.955317 
L 216.700403 184.345242 
L 216.499335 184.808013 
L 216.405676 185.024728 
L 216.299914 185.270785 
L 216.108729 185.733556 
L 215.9399 186.157369 
L 215.924381 186.196327 
L 215.740034 186.659098 
L 215.555691 187.12187 
L 215.474124 187.326638 
L 215.371351 187.584641 
L 215.187002 188.047412 
L 215.008347 188.495896 
L 215.002656 188.510184 
L 214.818314 188.972955 
L 214.633972 189.435726 
L 214.542571 189.665175 
L 214.449627 189.898497 
L 214.265282 190.361269 
L 214.080934 190.82404 
L 214.076795 190.834432 
L 213.896589 191.286811 
L 213.712244 191.749583 
L 213.611018 192.003698 
L 213.5279 192.212354 
L 213.34355 192.675125 
L 213.159213 193.137896 
L 213.145242 193.170898 
L 212.95729 193.600668 
L 212.747543 194.063439 
L 212.679466 194.213642 
L 212.537801 194.52621 
L 212.328056 194.988982 
L 212.213689 195.235368 
L 212.105212 195.451753 
L 211.882988 195.914524 
L 211.747913 196.278399 
L 211.709733 196.377295 
L 211.531075 196.840067 
L 211.352414 197.302838 
L 211.282137 197.484877 
L 211.094114 197.765609 
L 210.816361 198.077382 
L 210.681254 198.228381 
L 210.350584 198.597952 
L 210.267199 198.691152 
L 209.884808 199.118539 
L 209.853149 199.153923 
L 209.439094 199.616694 
L 209.419032 199.629465 
L 208.953255 199.830906 
L 208.487479 199.899068 
L 208.021703 199.960514 
L 207.555927 200.021954 
L 207.119963 200.079466 
L 207.09015 200.083399 
L 206.624374 200.144842 
L 206.158598 200.182354 
L 205.692821 200.158179 
L 205.227045 200.134 
L 204.761269 200.109824 
L 204.295492 200.085741 
z
" clip-path="url(#p8141a109f8)" style="fill: none; stroke-dasharray: 5.55,2.4; stroke-dashoffset: 0; stroke: #000000; stroke-width: 1.5"/>
   </g>
   <g id="PathCollection_3">
    <path d="M 194.979967 224.618048 
L 186.130217 224.414608 
L 184.267112 224.549133 
L 179.609349 224.149409 
L 178.21202 224.024134 
L 172.622705 223.407319 
L 169.36227 222.190266 
L 161.444073 218.98429 
L 159.115192 217.630296 
L 158.649416 217.190771 
L 157.853269 215.813689 
L 154.786245 210.260434 
L 151.613753 206.558264 
L 150.128615 205.16995 
L 145.923567 198.691152 
L 144.541794 195.451753 
L 143.943539 189.435726 
L 143.494881 187.584641 
L 143.609873 181.568614 
L 142.693399 176.940902 
L 141.784111 175.552588 
L 142.084682 175.089816 
L 142.009226 167.222705 
L 142.216625 165.371619 
L 142.813022 162.039644 
L 143.897185 158.43005 
L 145.288799 151.02571 
L 145.989825 149.637396 
L 149.385503 143.621369 
L 154.725162 135.754257 
L 156.786311 134.09551 
L 158.649416 133.03588 
L 159.115192 132.955359 
L 188.924875 121.852054 
L 197.308848 121.308791 
L 199.171953 121.090671 
L 202.898164 121.399408 
L 203.829716 121.433107 
L 205.227045 121.565207 
L 211.747913 121.682823 
L 212.884741 122.33389 
L 215.008347 123.757944 
L 219.200334 127.183655 
L 223.858097 128.615001 
L 224.323873 128.846646 
L 229.913189 133.618993 
L 234.288182 137.605342 
L 238.297162 143.319261 
L 240.375544 148.711853 
L 241.378412 150.562938 
L 241.950119 151.951252 
L 242.410485 157.504508 
L 242.71433 163.057763 
L 242.693547 164.446077 
L 244.105167 169.536561 
L 244.156297 171.387646 
L 244.685213 172.77596 
L 245.555621 175.089816 
L 247.652451 182.956928 
L 247.843317 183.882471 
L 247.534514 186.659098 
L 246.363485 194.063439 
L 246.18829 195.451753 
L 245.749311 196.377295 
L 245.681925 196.840067 
L 244.840352 198.228381 
L 242.954925 201.672462 
L 242.945333 201.930551 
L 242.489149 202.57208 
L 242.479156 202.856093 
L 242.023372 203.471683 
L 242.013018 203.781636 
L 241.557596 204.335854 
L 241.519457 204.707179 
L 240.626043 205.714858 
L 240.151607 206.558264 
L 239.363417 207.483806 
L 239.15619 207.946578 
L 238.667699 209.797663 
L 237.831386 210.787956 
L 235.502504 212.996826 
L 235.414068 213.037062 
L 235.036728 213.081556 
L 234.105175 213.629871 
L 231.268662 214.888147 
L 228.51586 215.875756 
L 227.564955 216.276461 
L 226.652755 217.210566 
L 223.822825 220.441402 
L 222.460768 221.652759 
L 219.66611 223.016796 
L 218.268781 223.597168 
L 215.474124 224.510786 
L 211.282137 224.752935 
L 196.377295 224.782506 
L 194.979967 224.618048 
L 194.979967 224.618048 
" clip-path="url(#p8141a109f8)" style="fill: none; stroke: #000000; stroke-width: 1.5"/>
   </g>
   <g id="PathCollection_4">
    <path d="M 193.582638 248.695236 
L 193.433779 248.670451 
L 193.116861 248.615149 
L 192.651085 248.52954 
L 192.185309 248.443935 
L 191.719533 248.358324 
L 191.253756 248.272725 
L 190.899855 248.207679 
L 190.78798 248.187117 
L 190.322204 248.101509 
L 189.856427 248.015908 
L 189.390651 247.930304 
L 188.924875 247.8447 
L 188.459098 247.759096 
L 188.381906 247.744908 
L 187.993322 247.67344 
L 187.527546 247.587793 
L 187.06177 247.502147 
L 186.595993 247.416519 
L 186.130217 247.3309 
L 185.86496 247.282137 
L 185.664441 247.245129 
L 185.198664 247.188812 
L 184.732888 247.156982 
L 184.267112 247.125125 
L 183.801336 247.09324 
L 183.335559 247.061323 
L 182.869783 247.029374 
L 182.404007 246.997375 
L 181.93823 246.965314 
L 181.472454 246.933241 
L 181.006678 246.901165 
L 180.540902 246.86909 
L 180.075125 246.837009 
L 179.7474 246.819366 
L 179.609349 246.812209 
L 179.143573 246.791535 
L 178.677796 246.770867 
L 178.21202 246.7502 
L 177.746244 246.729522 
L 177.280467 246.708851 
L 176.814691 246.688183 
L 176.348915 246.667513 
L 175.883139 246.64684 
L 175.417362 246.626167 
L 174.951586 246.6055 
L 174.48581 246.584835 
L 174.020033 246.564159 
L 173.554257 246.543487 
L 173.088481 246.522818 
L 172.622705 246.50215 
L 172.156928 246.481479 
L 171.691152 246.460809 
L 171.225376 246.440137 
L 170.759599 246.419466 
L 170.293823 246.398798 
L 169.828047 246.378118 
L 169.36227 246.357452 
L 169.342925 246.356594 
L 168.896494 246.336792 
L 168.430718 246.316121 
L 167.964942 246.295443 
L 167.499165 246.273876 
L 167.033389 246.249498 
L 166.567613 246.21264 
L 166.101836 246.175437 
L 165.63606 246.138247 
L 165.170284 246.101042 
L 164.704508 246.062745 
L 164.238731 245.969779 
L 164.021386 245.893823 
L 163.772955 245.807006 
L 163.307179 245.644238 
L 162.841402 245.481469 
L 162.697126 245.431052 
L 162.375626 245.318703 
L 161.90985 245.155933 
L 161.444073 244.993165 
L 161.372864 244.96828 
L 160.978297 244.830395 
L 160.512521 244.667624 
L 160.048613 244.505509 
L 160.046745 244.504856 
L 159.580968 244.266941 
L 159.181216 244.042738 
L 159.115192 244.005707 
L 158.649416 243.744472 
L 158.356103 243.579967 
L 158.183639 243.483241 
L 157.717863 243.222007 
L 157.530982 243.117195 
L 157.252087 242.960773 
L 156.786311 242.699539 
L 156.70587 242.654424 
L 156.320534 242.438306 
L 155.880755 242.191653 
L 155.854758 242.177072 
L 155.388982 241.915844 
L 155.055639 241.728881 
L 154.923205 241.654603 
L 154.457429 241.39337 
L 154.230527 241.26611 
L 153.991653 241.132135 
L 153.525876 240.870896 
L 153.405423 240.803339 
L 153.0601 240.609668 
L 152.594324 240.348436 
L 152.580294 240.340568 
L 152.128548 240.087198 
L 151.75519 239.877796 
L 151.662771 239.825964 
L 151.196995 239.564729 
L 150.930071 239.415025 
L 150.731219 239.303499 
L 150.265442 239.042263 
L 150.104957 238.952254 
L 149.799666 238.781026 
L 149.33389 238.519792 
L 149.279849 238.489482 
L 148.868114 238.258559 
L 148.454729 238.026711 
L 148.402337 237.997328 
L 147.936561 237.736095 
L 147.629608 237.56394 
L 147.470785 237.474862 
L 147.005008 237.213624 
L 146.8045 237.101169 
L 146.539232 236.95239 
L 146.073456 236.691164 
L 145.979373 236.638397 
L 145.607679 236.429931 
L 145.154267 236.175626 
L 145.141903 236.168691 
L 144.676127 235.907456 
L 144.329158 235.712855 
L 144.210351 235.646221 
L 143.744574 235.384962 
L 143.504045 235.250083 
L 143.278798 235.123755 
L 142.813022 234.858611 
L 142.684921 234.787312 
L 142.347245 234.598532 
L 141.881469 234.347841 
L 141.838154 234.324541 
L 141.415693 234.097146 
L 140.949917 233.869408 
L 140.93319 233.86177 
L 140.48414 233.656612 
L 140.018364 233.443812 
L 139.920284 233.398998 
L 139.552588 233.230999 
L 139.086811 233.018197 
L 138.907405 232.936227 
L 138.621035 232.788899 
L 138.181354 232.473456 
L 138.155259 232.451866 
L 137.689482 232.066517 
L 137.622 232.010684 
L 137.223706 231.681172 
L 137.062632 231.547913 
L 136.75793 231.295822 
L 136.503275 231.085142 
L 136.292154 230.91048 
L 135.943903 230.622371 
L 135.826377 230.525135 
L 135.384543 230.159599 
L 135.360601 230.139792 
L 134.894825 229.754427 
L 134.825204 229.696828 
L 134.429048 229.369077 
L 134.265851 229.234057 
L 133.963272 228.983724 
L 133.7065 228.771285 
L 133.497496 228.59837 
L 133.147128 228.308514 
L 133.03172 228.213034 
L 132.58777 227.845743 
L 132.565943 227.827685 
L 132.100167 227.442334 
L 132.028414 227.382972 
L 131.634391 227.057978 
L 131.463561 226.9202 
L 131.168614 226.635501 
L 131.032038 226.457429 
L 130.702838 226.014682 
L 130.687949 225.994658 
L 130.422547 225.531886 
L 130.237062 225.100628 
L 130.223508 225.069115 
L 130.024472 224.606344 
L 129.825429 224.143573 
L 129.771285 224.017683 
L 129.626399 223.680801 
L 129.427361 223.21803 
L 129.305509 222.940854 
L 129.219141 222.755259 
L 128.999817 222.292487 
L 128.839733 221.954597 
L 128.780957 221.829716 
L 128.562851 221.366945 
L 128.373957 220.96693 
L 128.346415 220.904174 
L 128.147764 220.441402 
L 127.956637 219.978631 
L 127.90818 219.858448 
L 127.772681 219.51586 
L 127.589645 219.053088 
L 127.442404 218.680822 
L 127.406606 218.590317 
L 127.223568 218.127546 
L 127.040544 217.664775 
L 126.976628 217.503198 
L 126.857503 217.202003 
L 126.674528 216.739232 
L 126.510851 216.325595 
L 126.491418 216.276461 
L 126.308563 215.813689 
L 126.125518 215.350918 
L 126.045075 215.147506 
L 125.942637 214.888147 
L 125.759722 214.425376 
L 125.579299 213.968921 
L 125.576805 213.962604 
L 125.394001 213.499833 
L 125.211151 213.037062 
L 125.113523 212.789935 
L 125.028331 212.57429 
L 124.845503 212.111519 
L 124.654419 211.648748 
L 124.647746 211.634409 
L 124.439039 211.185977 
L 124.22366 210.723205 
L 124.18197 210.633628 
L 124.012233 210.260434 
L 123.821551 209.797663 
L 123.716194 209.533893 
L 123.636706 209.334891 
L 123.451875 208.87212 
L 123.267038 208.409349 
L 123.250417 208.367737 
L 123.082198 207.946578 
L 122.897358 207.483806 
L 122.784641 207.201595 
L 122.712525 207.021035 
L 122.527689 206.558264 
L 122.342844 206.095492 
L 122.318865 206.035455 
L 122.158014 205.632721 
L 121.973176 205.16995 
L 121.853088 204.869299 
L 121.788432 204.707179 
L 121.603831 204.244407 
L 121.41918 203.781636 
L 121.387312 203.66773 
L 121.297334 203.318865 
L 121.235191 202.856093 
L 121.173289 202.393322 
L 121.111381 201.930551 
L 121.049478 201.46778 
L 120.987575 201.005008 
L 120.925672 200.542237 
L 120.921536 200.511315 
L 120.863765 200.079466 
L 120.801865 199.616694 
L 120.739956 199.153923 
L 120.678052 198.691152 
L 120.616145 198.228381 
L 120.554239 197.765609 
L 120.492126 197.302838 
L 120.45576 197.059494 
L 120.423311 196.840067 
L 120.378559 196.377295 
L 120.359939 195.914524 
L 120.342323 195.451753 
L 120.324701 194.988982 
L 120.307084 194.52621 
L 120.288121 194.063439 
L 120.266017 193.600668 
L 120.243917 193.137896 
L 120.221812 192.675125 
L 120.199713 192.212354 
L 120.177609 191.749583 
L 120.150536 191.286811 
L 120.11955 190.82404 
L 120.088572 190.361269 
L 120.057583 189.898497 
L 119.989983 189.512881 
L 119.975847 189.435726 
L 119.881903 188.972955 
L 119.787952 188.510184 
L 119.693996 188.047412 
L 119.600044 187.584641 
L 119.524207 187.211086 
L 119.506095 187.12187 
L 119.412143 186.659098 
L 119.318193 186.196327 
L 119.224239 185.733556 
L 119.130293 185.270785 
L 119.058431 184.916824 
L 119.036339 184.808013 
L 118.942381 184.345242 
L 118.848427 183.882471 
L 118.754474 183.419699 
L 118.660523 182.956928 
L 118.592654 182.622637 
L 118.56657 182.494157 
L 118.474295 182.031386 
L 118.38299 181.568614 
L 118.291685 181.105843 
L 118.20039 180.643072 
L 118.126878 180.27046 
L 118.109091 180.180301 
L 118.017788 179.717529 
L 117.926491 179.254758 
L 117.835192 178.791987 
L 117.779763 178.329215 
L 117.747697 177.866444 
L 117.715627 177.403673 
L 117.683561 176.940902 
L 117.661102 176.616831 
L 117.651489 176.47813 
L 117.619432 176.015359 
L 117.58736 175.552588 
L 117.55529 175.089816 
L 117.51888 174.627045 
L 117.459984 174.164274 
L 117.401079 173.701503 
L 117.340311 173.238731 
L 117.274085 172.77596 
L 117.20716 172.313189 
L 117.195326 172.231355 
L 117.140238 171.850417 
L 117.073326 171.387646 
L 117.006412 170.924875 
L 116.939492 170.462104 
L 116.956471 169.999332 
L 117.01789 169.536561 
L 117.085722 169.07379 
L 117.170613 168.611018 
L 117.195326 168.532737 
L 117.316919 168.148247 
L 117.463256 167.685476 
L 117.609592 167.222705 
L 117.661102 167.059816 
L 117.755932 166.759933 
L 117.902269 166.297162 
L 118.048609 165.834391 
L 118.126878 165.586872 
L 118.194945 165.371619 
L 118.341286 164.908848 
L 118.487624 164.446077 
L 118.592654 164.113925 
L 118.633959 163.983306 
L 118.7803 163.520534 
L 118.926635 163.057763 
L 119.058431 162.641002 
L 119.072981 162.594992 
L 119.219314 162.13222 
L 119.36565 161.669449 
L 119.511983 161.206678 
L 119.524207 161.168022 
L 119.658323 160.743907 
L 119.800369 160.281135 
L 119.906544 159.818364 
L 119.989983 159.429054 
L 120.005728 159.355593 
L 120.104922 158.892821 
L 120.204112 158.43005 
L 120.303305 157.967279 
L 120.4025 157.504508 
L 120.45576 157.256049 
L 120.501441 157.041736 
L 120.593018 156.578965 
L 120.683525 156.116194 
L 120.774022 155.653422 
L 120.864523 155.190651 
L 120.921536 154.899081 
L 120.955013 154.72788 
L 121.045515 154.265109 
L 121.136019 153.802337 
L 121.226509 153.339566 
L 121.317015 152.876795 
L 121.387312 152.517099 
L 121.407331 152.414023 
L 121.495844 151.951252 
L 121.584364 151.488481 
L 121.672882 151.02571 
L 121.761396 150.562938 
L 121.849914 150.100167 
L 121.853088 150.08357 
L 121.938436 149.637396 
L 122.026953 149.174624 
L 122.119993 148.711853 
L 122.281457 148.249082 
L 122.318865 148.153603 
L 122.46277 147.786311 
L 122.644078 147.323539 
L 122.784641 146.964764 
L 122.825385 146.860768 
L 123.006687 146.397997 
L 123.187987 145.935225 
L 123.250417 145.775879 
L 123.369296 145.472454 
L 123.550594 145.009683 
L 123.716194 144.586992 
L 123.731897 144.546912 
L 123.912653 144.08414 
L 124.088515 143.621369 
L 124.18197 143.233119 
L 124.197865 143.158598 
L 124.296566 142.695826 
L 124.395269 142.233055 
L 124.493971 141.770284 
L 124.592675 141.307513 
L 124.647746 141.049322 
L 124.691383 140.844741 
L 124.790089 140.38197 
L 124.888791 139.919199 
L 124.987493 139.456427 
L 125.086201 138.993656 
L 125.113523 138.865558 
L 125.187227 138.530885 
L 125.3136 138.068114 
L 125.441428 137.605342 
L 125.569259 137.142571 
L 125.579299 137.106226 
L 125.69709 136.6798 
L 125.824924 136.217028 
L 125.952749 135.754257 
L 126.045075 135.420021 
L 126.084572 135.291486 
L 126.30696 134.828715 
L 126.510851 134.43878 
L 126.548938 134.365943 
L 126.790927 133.903172 
L 126.976628 133.548033 
L 127.035534 133.440401 
L 127.360296 132.977629 
L 127.442404 132.865897 
L 127.700363 132.514858 
L 127.90818 132.232056 
L 128.040434 132.052087 
L 128.373957 131.598224 
L 128.380503 131.589316 
L 128.720569 131.126544 
L 128.839733 130.964384 
L 129.060641 130.663773 
L 129.305509 130.330561 
L 129.400715 130.201002 
L 129.740782 129.73823 
L 129.771285 129.696721 
L 130.080851 129.275459 
L 130.237062 129.062879 
L 130.420915 128.812688 
L 130.702838 128.429051 
L 130.760989 128.349917 
L 131.101062 127.887145 
L 131.168614 127.79522 
L 131.441134 127.424374 
L 131.634391 127.16139 
L 131.781207 126.961603 
L 132.100167 126.527565 
L 132.121282 126.498831 
L 132.46135 126.03606 
L 132.565943 125.893725 
L 132.801419 125.573289 
L 133.03172 125.259891 
L 133.141486 125.110518 
L 133.481562 124.647746 
L 133.497496 124.626063 
L 133.821631 124.184975 
L 133.963272 123.992229 
L 134.161703 123.722204 
L 134.429048 123.358392 
L 134.501769 123.259432 
L 134.841838 122.796661 
L 134.894825 122.724556 
L 135.181904 122.33389 
L 135.360601 122.090705 
L 135.521962 121.871119 
L 135.826377 121.456882 
L 135.862044 121.408347 
L 136.292154 120.94979 
L 136.296865 120.945576 
L 136.75793 120.533459 
L 136.814601 120.482805 
L 137.223706 120.117137 
L 137.332344 120.020033 
L 137.689482 119.700804 
L 137.850071 119.557262 
L 138.155259 119.280562 
L 138.357416 119.094491 
L 138.621035 118.850691 
L 138.85782 118.63172 
L 139.086811 118.419956 
L 139.358231 118.168948 
L 139.552588 117.989209 
L 139.858629 117.706177 
L 140.018364 117.558456 
L 140.35904 117.243406 
L 140.48414 117.127712 
L 140.859446 116.780634 
L 140.949917 116.696969 
L 141.359845 116.317863 
L 141.415693 116.266215 
L 141.860242 115.855092 
L 141.881469 115.835462 
L 142.347245 115.404721 
L 142.360655 115.392321 
L 142.813022 114.973978 
L 142.861064 114.929549 
L 143.278798 114.543905 
L 143.378832 114.466778 
L 143.744574 114.209474 
L 144.036645 114.004007 
L 144.210351 113.881804 
L 144.676127 113.554125 
L 144.694449 113.541235 
L 145.141903 113.226451 
L 145.352257 113.078464 
L 145.607679 112.898777 
L 146.010084 112.615693 
L 146.073456 112.574262 
L 146.539232 112.369806 
L 147.005008 112.192995 
L 147.110572 112.152922 
L 147.470785 112.016182 
L 147.936561 111.839373 
L 148.329635 111.69015 
L 148.402337 111.662551 
L 148.868114 111.485744 
L 149.33389 111.30893 
L 149.548723 111.227379 
L 149.799666 111.13212 
L 150.265442 110.955307 
L 150.731219 110.778495 
L 150.767801 110.764608 
L 151.196995 110.601684 
L 151.662771 110.424872 
L 151.986892 110.301836 
L 152.128548 110.248065 
L 152.594324 110.071252 
L 153.0601 109.894449 
L 153.206002 109.839065 
L 153.525876 109.717638 
L 153.991653 109.540822 
L 154.425082 109.376294 
L 154.457429 109.364015 
L 154.923205 109.187194 
L 155.388982 109.010387 
L 155.644174 108.913523 
L 155.854758 108.833587 
L 156.320534 108.656765 
L 156.786311 108.479962 
L 156.863258 108.450751 
L 157.252087 108.303141 
L 157.717863 108.126324 
L 158.082308 107.98798 
L 158.183639 107.949515 
L 158.649416 107.772702 
L 159.115192 107.595896 
L 159.301397 107.525209 
L 159.580968 107.419081 
L 160.046745 107.242266 
L 160.512521 107.06545 
L 160.520458 107.062437 
L 160.978297 106.888642 
L 161.444073 106.711832 
L 161.739555 106.599666 
L 161.90985 106.535021 
L 162.375626 106.358205 
L 162.841402 106.181398 
L 162.958632 106.136895 
L 163.307179 106.00458 
L 163.772955 105.827766 
L 164.177709 105.674124 
L 164.238731 105.650959 
L 164.704508 105.474152 
L 165.170284 105.297334 
L 165.396779 105.211352 
L 165.63606 105.120519 
L 166.101836 104.943712 
L 166.567613 104.766903 
L 166.615877 104.748581 
L 167.033389 104.590084 
L 167.499165 104.413281 
L 167.834967 104.28581 
L 167.964942 104.236472 
L 168.430718 104.059658 
L 168.896494 103.882845 
L 169.054037 103.823038 
L 169.36227 103.706027 
L 169.828047 103.529229 
L 170.27314 103.360267 
L 170.293823 103.352415 
L 170.759599 103.175604 
L 171.225376 102.998782 
L 171.492203 102.897496 
L 171.691152 102.821978 
L 172.156928 102.645159 
L 172.622705 102.46835 
L 172.711286 102.434725 
L 173.088481 102.291536 
L 173.554257 102.114718 
L 173.930339 101.971953 
L 174.020033 101.937904 
L 174.48581 101.761086 
L 174.951586 101.584278 
L 175.149413 101.509182 
L 175.417362 101.407468 
L 175.883139 101.23065 
L 176.348915 101.053848 
L 176.368505 101.046411 
L 176.814691 100.877027 
L 177.280467 100.700219 
L 177.58758 100.583639 
L 177.746244 100.523408 
L 178.21202 100.346589 
L 178.677796 100.169786 
L 178.806652 100.120868 
L 179.143573 99.992961 
L 179.609349 99.816155 
L 180.025712 99.658097 
L 180.075125 99.639338 
L 180.540902 99.462532 
L 181.006678 99.285719 
L 181.244792 99.195326 
L 181.472454 99.108902 
L 181.93823 98.993278 
L 182.404007 98.956929 
L 182.869783 98.920585 
L 183.335559 98.884235 
L 183.801336 98.847876 
L 184.267112 98.802922 
L 184.732888 98.735684 
L 184.75397 98.732554 
L 185.198664 98.666541 
L 185.664441 98.597401 
L 186.130217 98.528251 
L 186.595993 98.459111 
L 187.06177 98.389961 
L 187.527546 98.320817 
L 187.87136 98.269783 
L 187.993322 98.251679 
L 188.459098 98.182535 
L 188.924875 98.113386 
L 189.390651 98.04424 
L 189.856427 97.975092 
L 190.322204 97.905953 
L 190.78798 97.836801 
L 190.988637 97.807012 
L 191.253756 97.767634 
L 191.719533 97.694856 
L 192.185309 97.610628 
L 192.651085 97.522012 
L 193.116861 97.429638 
L 193.54749 97.34424 
L 193.582638 97.33727 
L 194.048414 97.244887 
L 194.51419 97.152692 
L 194.979967 97.088072 
L 195.445743 97.025845 
L 195.911519 96.963611 
L 196.377295 96.901383 
L 196.526346 96.881469 
L 196.843072 96.839153 
L 197.308848 96.776926 
L 197.774624 96.714696 
L 198.240401 96.652457 
L 198.706177 96.571559 
L 199.171953 96.485308 
L 199.525862 96.418698 
L 199.63773 96.397529 
L 200.103506 96.347231 
L 200.569282 96.328183 
L 201.035058 96.309136 
L 201.500835 96.290087 
L 201.966611 96.271036 
L 202.432387 96.251999 
L 202.898164 96.278018 
L 203.36394 96.31018 
L 203.829716 96.334366 
L 204.295492 96.354032 
L 204.761269 96.373693 
L 205.227045 96.393353 
L 205.692821 96.413022 
L 206.158598 96.411363 
L 206.624374 96.38498 
L 207.09015 96.35583 
L 207.555927 96.304648 
L 208.021703 96.25223 
L 208.487479 96.19981 
L 208.953255 96.147497 
L 209.419032 96.095316 
L 209.884808 96.043134 
L 210.350584 95.990942 
L 210.663195 95.955927 
L 210.816361 95.938771 
L 210.953899 95.955927 
L 211.282137 95.996472 
L 211.747913 96.058494 
L 212.213689 96.120517 
L 212.679466 96.182535 
L 213.145242 96.244554 
L 213.611018 96.306731 
L 214.076795 96.341354 
L 214.542571 96.379139 
L 215.008311 96.418698 
L 215.008347 96.418701 
L 215.474124 96.514079 
L 215.9399 96.814031 
L 216.035523 96.881469 
L 216.405676 97.142511 
L 216.691731 97.34424 
L 216.871452 97.470982 
L 217.337229 97.799466 
L 217.347928 97.807012 
L 217.803005 98.127936 
L 218.004135 98.269783 
L 218.268781 98.456426 
L 218.660322 98.732554 
L 218.734558 98.784909 
L 219.200334 99.113393 
L 219.316513 99.195326 
L 219.66611 99.441863 
L 219.97273 99.658097 
L 220.131886 99.77034 
L 220.597663 100.098821 
L 220.628926 100.120868 
L 221.063439 100.427296 
L 221.285124 100.583639 
L 221.529215 100.755783 
L 221.94133 101.046411 
L 221.994992 101.084253 
L 222.460768 101.412743 
L 222.597516 101.509182 
L 222.926544 101.741219 
L 223.253718 101.971953 
L 223.392321 102.069956 
L 223.858097 102.405786 
L 223.898163 102.434725 
L 224.323873 102.742212 
L 224.538858 102.897496 
L 224.789649 103.078637 
L 225.179559 103.360267 
L 225.255426 103.415066 
L 225.721202 103.751494 
L 225.820253 103.823038 
L 226.186978 104.087926 
L 226.460944 104.28581 
L 226.652755 104.424353 
L 227.101624 104.748581 
L 227.118531 104.760793 
L 227.584307 105.042046 
L 228.050083 105.169441 
L 228.203295 105.211352 
L 228.51586 105.296855 
L 228.981636 105.424252 
L 229.447412 105.551652 
L 229.846413 105.674124 
L 229.913189 105.694677 
L 230.378965 105.841312 
L 230.844741 105.987941 
L 231.310518 106.134568 
L 231.317909 106.136895 
L 231.776294 106.2812 
L 232.24207 106.427838 
L 232.707846 106.57446 
L 232.787912 106.599666 
L 233.173623 106.721095 
L 233.639399 106.867728 
L 234.105175 107.014349 
L 234.257929 107.062437 
L 234.570952 107.160982 
L 235.036728 107.30761 
L 235.502504 107.454248 
L 235.727916 107.525209 
L 235.96828 107.600877 
L 236.434057 107.747504 
L 236.899833 107.894139 
L 237.197936 107.98798 
L 237.365609 108.040762 
L 237.831386 108.18739 
L 238.297162 108.334011 
L 238.667969 108.450751 
L 238.762938 108.48065 
L 239.228715 108.62728 
L 239.694491 108.773902 
L 240.137979 108.913523 
L 240.160267 108.920628 
L 240.626043 109.138007 
L 240.969675 109.376294 
L 241.09182 109.460994 
L 241.557596 109.783969 
L 241.637049 109.839065 
L 242.023372 110.106966 
L 242.304395 110.301836 
L 242.489149 110.429948 
L 242.916016 110.764608 
L 242.954925 110.799264 
L 243.420701 111.219803 
L 243.429092 111.227379 
L 243.886477 111.64035 
L 243.941634 111.69015 
L 244.352254 112.0609 
L 244.454172 112.152922 
L 244.81803 112.481447 
L 244.966711 112.615693 
L 245.283806 112.902002 
L 245.479249 113.078464 
L 245.749583 113.32254 
L 245.991796 113.541235 
L 246.215359 113.743099 
L 246.504325 114.004007 
L 246.681135 114.163646 
L 247.016869 114.466778 
L 247.146912 114.584194 
L 247.46425 114.929549 
L 247.612688 115.0966 
L 247.873549 115.392321 
L 248.078464 115.624628 
L 248.28176 115.855092 
L 248.54424 116.152646 
L 248.68998 116.317863 
L 249.010017 116.680667 
L 249.098199 116.780634 
L 249.475793 117.208686 
L 249.50642 117.243406 
L 249.918678 117.706177 
L 249.941569 117.731245 
L 250.36869 118.168948 
L 250.407346 118.208562 
L 250.820272 118.63172 
L 250.873122 118.685879 
L 251.271868 119.094491 
L 251.338898 119.163182 
L 251.723444 119.557262 
L 251.804674 119.640506 
L 252.175028 120.020033 
L 252.270451 120.117818 
L 252.626625 120.482805 
L 252.736227 120.595123 
L 253.074318 120.945576 
L 253.202003 121.081373 
L 253.479527 121.408347 
L 253.66778 121.630138 
L 253.872325 121.871119 
L 254.133556 122.178885 
L 254.26512 122.33389 
L 254.599332 122.727657 
L 254.657901 122.796661 
L 255.050693 123.259432 
L 255.065109 123.276416 
L 255.44349 123.722204 
L 255.530885 123.825168 
L 255.836282 124.184975 
L 255.996661 124.373928 
L 256.229069 124.647746 
L 256.462437 124.922691 
L 256.621862 125.110518 
L 256.928214 125.471445 
L 257.014659 125.573289 
L 257.39399 126.020211 
L 257.407442 126.03606 
L 257.804597 126.498831 
L 257.859766 126.562459 
L 258.205851 126.961603 
L 258.325543 127.099641 
L 258.607122 127.424374 
L 258.791319 127.713385 
L 258.890447 127.887145 
L 259.128336 128.349917 
L 259.257095 128.600409 
L 259.366213 128.812688 
L 259.604105 129.275459 
L 259.722871 129.506499 
L 259.84199 129.73823 
L 260.079867 130.201002 
L 260.188648 130.412617 
L 260.317755 130.663773 
L 260.555633 131.126544 
L 260.654424 131.318721 
L 260.793522 131.589316 
L 260.972274 132.052087 
L 261.1202 132.497742 
L 261.125881 132.514858 
L 261.279465 132.977629 
L 261.433051 133.440401 
L 261.585977 133.901176 
L 261.586639 133.903172 
L 261.740235 134.365943 
L 261.893825 134.828715 
L 262.047426 135.291486 
L 262.051753 135.304524 
L 262.200734 135.754257 
L 262.352261 136.217028 
L 262.50327 136.6798 
L 262.517529 136.718311 
L 262.681205 137.142571 
L 262.866732 137.605342 
L 262.983306 137.896104 
L 263.052267 138.068114 
L 263.237792 138.530885 
L 263.423319 138.993656 
L 263.449082 139.057917 
L 263.608848 139.456427 
L 263.794382 139.919199 
L 263.914858 140.219703 
L 263.979912 140.38197 
L 264.165443 140.844741 
L 264.361592 141.307513 
L 264.380634 141.349371 
L 264.575375 141.770284 
L 264.789465 142.233055 
L 264.846411 142.356136 
L 265.003571 142.695826 
L 265.217663 143.158598 
L 265.312187 143.362908 
L 265.431763 143.621369 
L 265.645858 144.08414 
L 265.777963 144.369671 
L 265.859969 144.546912 
L 266.074065 145.009683 
L 266.24374 145.376439 
L 266.28816 145.472454 
L 266.468926 145.935225 
L 266.53994 146.397997 
L 266.577649 146.860768 
L 266.613892 147.323539 
L 266.674347 147.786311 
L 266.709516 148.055498 
L 266.734808 148.249082 
L 266.795263 148.711853 
L 266.855723 149.174624 
L 266.91617 149.637396 
L 266.976634 150.100167 
L 267.037091 150.562938 
L 267.097542 151.02571 
L 267.158 151.488481 
L 267.175292 151.62084 
L 267.218458 151.951252 
L 267.27891 152.414023 
L 267.339371 152.876795 
L 267.39982 153.339566 
L 267.460277 153.802337 
L 267.520732 154.265109 
L 267.581196 154.72788 
L 267.641068 155.186261 
L 267.641642 155.190651 
L 267.702102 155.653422 
L 267.75034 156.116194 
L 267.775808 156.578965 
L 267.801265 157.041736 
L 267.826734 157.504508 
L 267.852192 157.967279 
L 267.877651 158.43005 
L 267.903111 158.892821 
L 267.928571 159.355593 
L 267.956775 159.818364 
L 267.990111 160.281135 
L 268.023461 160.743907 
L 268.056809 161.206678 
L 268.090151 161.669449 
L 268.106845 161.90113 
L 268.124597 162.13222 
L 268.258124 162.594992 
L 268.402076 163.057763 
L 268.546024 163.520534 
L 268.572621 163.606038 
L 268.68998 163.983306 
L 268.833922 164.446077 
L 268.977878 164.908848 
L 269.038397 165.160475 
L 269.090102 165.371619 
L 269.170775 165.834391 
L 269.252375 166.297162 
L 269.358557 166.759933 
L 269.504174 167.120632 
L 269.545382 167.222705 
L 269.732204 167.685476 
L 269.919032 168.148247 
L 269.96995 168.274371 
L 270.105854 168.611018 
L 270.292674 169.07379 
L 270.435726 169.428137 
L 270.479498 169.536561 
L 270.666324 169.999332 
L 270.853143 170.462104 
L 270.901503 170.581889 
L 271.039975 170.924875 
L 271.226805 171.387646 
L 271.367279 171.735613 
L 271.413626 171.850417 
L 271.600452 172.313189 
L 271.743603 172.77596 
L 271.819523 173.238731 
L 271.833055 173.321232 
L 271.895427 173.701503 
L 271.971338 174.164274 
L 272.047245 174.627045 
L 272.123152 175.089816 
L 272.199069 175.552588 
L 272.274979 176.015359 
L 272.298831 176.164745 
L 272.343615 176.47813 
L 272.358531 176.940902 
L 272.373447 177.403673 
L 272.388358 177.866444 
L 272.403277 178.329215 
L 272.4182 178.791987 
L 272.433109 179.254758 
L 272.448029 179.717529 
L 272.462939 180.180301 
L 272.477858 180.643072 
L 272.492777 181.105843 
L 272.507691 181.568614 
L 272.522611 182.031386 
L 272.537525 182.494157 
L 272.552987 182.956928 
L 272.577869 183.419699 
L 272.605787 183.882471 
L 272.633697 184.345242 
L 272.661614 184.808013 
L 272.689529 185.270785 
L 272.717441 185.733556 
L 272.745349 186.196327 
L 272.764608 186.515499 
L 272.773272 186.659098 
L 272.80118 187.12187 
L 272.829092 187.584641 
L 272.857006 188.047412 
L 272.890962 188.510184 
L 272.92437 188.972955 
L 272.957264 189.435726 
L 272.992557 189.898497 
L 272.909719 190.361269 
L 272.81358 190.82404 
L 272.764608 191.059786 
L 272.717447 191.286811 
L 272.621307 191.749583 
L 272.52517 192.212354 
L 272.429031 192.675125 
L 272.332896 193.137896 
L 272.298831 193.301861 
L 272.236756 193.600668 
L 272.140625 194.063439 
L 272.044489 194.52621 
L 271.948362 194.988982 
L 271.852219 195.451753 
L 271.833055 195.544002 
L 271.756084 195.914524 
L 271.659951 196.377295 
L 271.563818 196.840067 
L 271.467687 197.302838 
L 271.371542 197.765609 
L 271.367279 197.786134 
L 271.275414 198.228381 
L 271.15884 198.691152 
L 271.019511 199.153923 
L 270.901503 199.545873 
L 270.88018 199.616694 
L 270.74085 200.079466 
L 270.60152 200.542237 
L 270.462188 201.005008 
L 270.435726 201.092902 
L 270.322864 201.46778 
L 270.183533 201.930551 
L 270.045977 202.393322 
L 269.96995 202.639942 
L 269.904868 202.856093 
L 269.772219 203.318865 
L 269.63284 203.781636 
L 269.504174 204.226376 
L 269.499091 204.244407 
L 269.365113 204.707179 
L 269.231273 205.16995 
L 269.097432 205.632721 
L 269.038397 205.836825 
L 268.96358 206.095492 
L 268.80915 206.558264 
L 268.579751 207.021035 
L 268.572621 207.036031 
L 268.359733 207.483806 
L 268.139707 207.946578 
L 268.106845 208.015698 
L 267.919686 208.409349 
L 267.699667 208.87212 
L 267.641068 208.995366 
L 267.479644 209.334891 
L 267.259622 209.797663 
L 267.175292 209.975028 
L 267.039593 210.260434 
L 266.819571 210.723205 
L 266.709516 210.954685 
L 266.599552 211.185977 
L 266.379532 211.648748 
L 266.24374 211.922312 
L 266.139113 212.111519 
L 265.821007 212.57429 
L 265.777963 212.636905 
L 265.50288 213.037062 
L 265.312187 213.314474 
L 265.184772 213.499833 
L 264.866647 213.962604 
L 264.846411 213.992043 
L 264.548534 214.425376 
L 264.380634 214.669626 
L 264.230418 214.888147 
L 263.914858 215.349742 
L 263.914053 215.350918 
L 263.601104 215.813689 
L 263.449082 216.038496 
L 263.288167 216.276461 
L 262.983306 216.727275 
L 262.97522 216.739232 
L 262.662283 217.202003 
L 262.517529 217.416059 
L 262.349336 217.664775 
L 262.051753 218.104827 
L 262.036389 218.127546 
L 261.723445 218.590317 
L 261.585977 218.778058 
L 261.3721 219.053088 
L 261.1202 219.341248 
L 260.967558 219.51586 
L 260.654424 219.874065 
L 260.563018 219.978631 
L 260.188648 220.406881 
L 260.15847 220.441402 
L 259.753927 220.904174 
L 259.722871 220.939699 
L 259.349391 221.366945 
L 259.257095 221.472522 
L 258.944844 221.829716 
L 258.791319 222.005346 
L 258.540308 222.292487 
L 258.325543 222.538161 
L 258.135763 222.755259 
L 257.859766 223.070423 
L 257.707051 223.21803 
L 257.39399 223.440204 
L 257.050119 223.680801 
L 256.928214 223.748324 
L 256.462437 223.942377 
L 255.996661 224.136437 
L 255.979535 224.143573 
L 255.530885 224.33501 
L 255.065109 224.553481 
L 254.958611 224.606344 
L 254.599332 224.811536 
L 254.226337 225.069115 
L 254.133556 225.152919 
L 253.713987 225.531886 
L 253.66778 225.573622 
L 253.202003 225.994312 
L 253.20162 225.994658 
L 252.736227 226.41501 
L 252.689262 226.457429 
L 252.270451 226.835714 
L 252.17691 226.9202 
L 251.804674 227.256407 
L 251.664548 227.382972 
L 251.338898 227.677107 
L 251.152194 227.845743 
L 250.873122 228.097806 
L 250.639837 228.308514 
L 250.407346 228.518507 
L 250.127478 228.771285 
L 249.941569 228.939197 
L 249.615118 229.234057 
L 249.475793 229.3599 
L 249.102759 229.696828 
L 249.010017 229.780595 
L 248.5904 230.159599 
L 248.54424 230.201292 
L 248.078464 230.621996 
L 248.07805 230.622371 
L 247.612688 231.023027 
L 247.538836 231.085142 
L 247.146912 231.414787 
L 246.988629 231.547913 
L 246.681135 231.806534 
L 246.438413 232.010684 
L 246.215359 232.198289 
L 245.8882 232.473456 
L 245.749583 232.590047 
L 245.33799 232.936227 
L 245.283806 232.9818 
L 244.81803 233.373554 
L 244.787778 233.398998 
L 244.352254 233.765315 
L 244.237575 233.86177 
L 243.886477 234.157075 
L 243.687368 234.324541 
L 243.420701 234.548828 
L 243.137152 234.787312 
L 242.954925 234.940576 
L 242.586943 235.250083 
L 242.489149 235.332003 
L 242.023372 235.676639 
L 241.968588 235.712855 
L 241.557596 235.981878 
L 241.261602 236.175626 
L 241.09182 236.28676 
L 240.645505 236.638397 
L 240.626043 236.656317 
L 240.19568 237.101169 
L 240.160267 237.137773 
L 239.747983 237.56394 
L 239.694491 237.619235 
L 239.300282 238.026711 
L 239.228715 238.100687 
L 238.852587 238.489482 
L 238.762938 238.574013 
L 238.302107 238.952254 
L 238.297162 238.956199 
L 237.831386 239.320622 
L 237.690045 239.415025 
L 237.365609 239.630465 
L 236.993154 239.877796 
L 236.899833 239.939766 
L 236.434057 240.249061 
L 236.296255 240.340568 
L 235.96828 240.558359 
L 235.599363 240.803339 
L 235.502504 240.867657 
L 235.036728 241.176959 
L 234.887913 241.26611 
L 234.570952 241.442594 
L 234.105175 241.681353 
L 234.012451 241.728881 
L 233.639399 241.922367 
L 233.173623 242.168641 
L 233.130611 242.191653 
L 232.707846 242.423046 
L 232.285106 242.654424 
L 232.24207 242.677979 
L 231.776294 242.932908 
L 231.439583 243.117195 
L 231.310518 243.187835 
L 230.844741 243.442759 
L 230.594046 243.579967 
L 230.378965 243.697687 
L 229.913189 243.95262 
L 229.748535 244.042738 
L 229.447412 244.207549 
L 228.981636 244.462479 
L 228.903014 244.505509 
L 228.51586 244.717408 
L 228.05749 244.96828 
L 228.050083 244.972317 
L 227.584307 245.226157 
L 227.208285 245.431052 
L 227.118531 245.479756 
L 226.652755 245.73251 
L 226.355483 245.893823 
L 226.186978 245.98526 
L 225.721202 246.230691 
L 225.42653 246.356594 
L 225.255426 246.428991 
L 224.789649 246.621248 
L 224.323873 246.749077 
L 224.020669 246.819366 
L 223.858097 246.857053 
L 223.392321 246.965027 
L 222.926544 247.073001 
L 222.460768 247.159512 
L 221.994992 247.234817 
L 221.529215 247.24606 
L 221.063439 247.253865 
L 220.597663 247.278677 
L 220.569666 247.282137 
L 220.131886 247.336794 
L 219.66611 247.394958 
L 219.200334 247.453115 
L 218.734558 247.511271 
L 218.268781 247.569428 
L 217.803005 247.627585 
L 217.337229 247.685736 
L 216.871452 247.743898 
L 216.863363 247.744908 
L 216.405676 247.802061 
L 215.9399 247.860218 
L 215.474124 247.91837 
L 215.008347 247.976532 
L 214.542571 248.034688 
L 214.076795 248.092846 
L 213.611018 248.151005 
L 213.157099 248.207679 
L 213.145242 248.20916 
L 212.679466 248.267317 
L 212.213689 248.325475 
L 211.747913 248.383635 
L 211.282137 248.441791 
L 210.816361 248.499946 
L 210.350584 248.558098 
L 209.884808 248.587295 
L 209.419032 248.601397 
L 208.953255 248.615513 
L 208.487479 248.629615 
L 208.021703 248.643726 
L 207.555927 248.657833 
L 207.139207 248.670451 
L 207.09015 248.671936 
L 206.624374 248.686045 
L 206.158598 248.700154 
L 205.692821 248.714261 
L 205.227045 248.728367 
L 204.761269 248.742472 
L 204.295492 248.756576 
L 203.829716 248.770686 
L 203.36394 248.784795 
L 202.898164 248.7989 
L 202.432387 248.813008 
L 201.966611 248.827112 
L 201.500835 248.841219 
L 201.035058 248.855326 
L 200.569282 248.869432 
L 200.103506 248.883541 
L 199.63773 248.897646 
L 199.171953 248.911751 
L 198.706177 248.925861 
L 198.240401 248.939965 
L 197.774624 248.954077 
L 197.308848 248.968182 
L 196.843072 248.990036 
L 196.377295 249.020526 
L 195.911519 249.005851 
L 195.445743 248.943726 
L 194.979967 248.881606 
L 194.51419 248.819481 
L 194.048414 248.757357 
L 193.582638 248.695236 
z
" clip-path="url(#p8141a109f8)" style="fill: none; stroke: #000000; stroke-width: 1.5"/>
   </g>
   <g id="patch_3">
    <path d="M 45 320.4 
L 45 43.2 
" style="fill: none; stroke: #000000; stroke-width: 0.8; stroke-linejoin: miter; stroke-linecap: square"/>
   </g>
   <g id="patch_4">
    <path d="M 324 320.4 
L 324 43.2 
" style="fill: none; stroke: #000000; stroke-width: 0.8; stroke-linejoin: miter; stroke-linecap: square"/>
   </g>
   <g id="patch_5">
    <path d="M 45 320.4 
L 324 320.4 
" style="fill: none; stroke: #000000; stroke-width: 0.8; stroke-linejoin: miter; stroke-linecap: square"/>
   </g>
   <g id="patch_6">
    <path d="M 45 43.2 
L 324 43.2 
" style="fill: none; stroke: #000000; stroke-width: 0.8; stroke-linejoin: miter; stroke-linecap: square"/>
   </g>
  </g>
 </g>
 <defs>
  <clipPath id="p8141a109f8">
   <rect x="45" y="43.2" width="279" height="277.2"/>
  </clipPath>
 </defs>
</svg>
