<?xml version="1.0" encoding="utf-8" standalone="no"?>
<!DOCTYPE svg PUBLIC "-//W3C//DTD SVG 1.1//EN"
  "http://www.w3.org/Graphics/SVG/1.1/DTD/svg11.dtd">
<svg xmlns:xlink="http://www.w3.org/1999/xlink" width="360pt" height="360pt" viewBox="0 0 360 360" xmlns="http://www.w3.org/2000/svg" version="1.1">
 <metadata>
  <rdf:RDF xmlns:dc="http://purl.org/dc/elements/1.1/" xmlns:cc="http://creativecommons.org/ns#" xmlns:rdf="http://www.w3.org/1999/02/22-rdf-syntax-ns#">
   <cc:Work>
    <dc:type rdf:resource="http://purl.org/dc/dcmitype/StillImage"/>
    <dc:date>2022-04-10T19:53:34.775150</dc:date>
    <dc:format>image/svg+xml</dc:format>
    <dc:creator>
     <cc:Agent>
      <dc:title>Matplotlib v3.5.1, https://matplotlib.org/</dc:title>
     </cc:Agent>
    </dc:creator>
   </cc:Work>
  </rdf:RDF>
 </metadata>
 <defs>
  <style type="text/css">*{stroke-linejoin: round; stroke-linecap: butt}</style>
 </defs>
 <g id="figure_1">
  <g id="patch_1">
   <path d="M 0 360 
L 360 360 
L 360 0 
L 0 0 
z
" style="fill: #ffffff"/>
  </g>
  <g id="axes_1">
   <g id="patch_2">
    <path d="M 45 320.4 
L 324 320.4 
L 324 43.2 
L 45 43.2 
z
" style="fill: #ffffff"/>
   </g>
   <g id="PathCollection_1">
    <defs>
     <path id="m107836b287" d="M 0 0.5 
C 0.132602 0.5 0.25979 0.447317 0.353553 0.353553 
C 0.447317 0.25979 0.5 0.132602 0.5 0 
C 0.5 -0.132602 0.447317 -0.25979 0.353553 -0.353553 
C 0.25979 -0.447317 0.132602 -0.5 0 -0.5 
C -0.132602 -0.5 -0.25979 -0.447317 -0.353553 -0.353553 
C -0.447317 -0.25979 -0.5 -0.132602 -0.5 0 
C -0.5 0.132602 -0.447317 0.25979 -0.353553 0.353553 
C -0.25979 0.447317 -0.132602 0.5 0 0.5 
z
" style="stroke: #ff0000"/>
    </defs>
    <g clip-path="url(#p946f757fcc)">
     <use xlink:href="#m107836b287" x="234.530924" y="181.336455" style="fill: #ff0000; stroke: #ff0000"/>
     <use xlink:href="#m107836b287" x="234.614885" y="176.478069" style="fill: #ff0000; stroke: #ff0000"/>
     <use xlink:href="#m107836b287" x="233.685155" y="171.708244" style="fill: #ff0000; stroke: #ff0000"/>
     <use xlink:href="#m107836b287" x="231.691368" y="167.254082" style="fill: #ff0000; stroke: #ff0000"/>
     <use xlink:href="#m107836b287" x="228.758659" y="163.314199" style="fill: #ff0000; stroke: #ff0000"/>
     <use xlink:href="#m107836b287" x="225.187553" y="159.976584" style="fill: #ff0000; stroke: #ff0000"/>
     <use xlink:href="#m107836b287" x="221.37064" y="157.168955" style="fill: #ff0000; stroke: #ff0000"/>
     <use xlink:href="#m107836b287" x="217.657284" y="154.680955" style="fill: #ff0000; stroke: #ff0000"/>
     <use xlink:href="#m107836b287" x="214.237208" y="152.254645" style="fill: #ff0000; stroke: #ff0000"/>
     <use xlink:href="#m107836b287" x="211.103209" y="149.694318" style="fill: #ff0000; stroke: #ff0000"/>
     <use xlink:href="#m107836b287" x="208.099843" y="146.938407" style="fill: #ff0000; stroke: #ff0000"/>
     <use xlink:href="#m107836b287" x="205.015323" y="144.069839" style="fill: #ff0000; stroke: #ff0000"/>
     <use xlink:href="#m107836b287" x="201.665374" y="141.282034" style="fill: #ff0000; stroke: #ff0000"/>
     <use xlink:href="#m107836b287" x="197.944395" y="138.830264" style="fill: #ff0000; stroke: #ff0000"/>
     <use xlink:href="#m107836b287" x="193.846594" y="136.981505" style="fill: #ff0000; stroke: #ff0000"/>
     <use xlink:href="#m107836b287" x="189.464941" y="135.958242" style="fill: #ff0000; stroke: #ff0000"/>
     <use xlink:href="#m107836b287" x="184.966555" y="135.875716" style="fill: #ff0000; stroke: #ff0000"/>
     <use xlink:href="#m107836b287" x="180.541009" y="136.693019" style="fill: #ff0000; stroke: #ff0000"/>
     <use xlink:href="#m107836b287" x="176.332706" y="138.2112" style="fill: #ff0000; stroke: #ff0000"/>
     <use xlink:href="#m107836b287" x="172.387633" y="140.136834" style="fill: #ff0000; stroke: #ff0000"/>
     <use xlink:href="#m107836b287" x="168.646913" y="142.191542" style="fill: #ff0000; stroke: #ff0000"/>
     <use xlink:href="#m107836b287" x="164.99553" y="144.214347" style="fill: #ff0000; stroke: #ff0000"/>
     <use xlink:href="#m107836b287" x="161.338485" y="146.202691" style="fill: #ff0000; stroke: #ff0000"/>
     <use xlink:href="#m107836b287" x="157.656954" y="148.274299" style="fill: #ff0000; stroke: #ff0000"/>
     <use xlink:href="#m107836b287" x="154.010756" y="150.58037" style="fill: #ff0000; stroke: #ff0000"/>
     <use xlink:href="#m107836b287" x="150.49133" y="153.225905" style="fill: #ff0000; stroke: #ff0000"/>
     <use xlink:href="#m107836b287" x="147.161993" y="156.239223" style="fill: #ff0000; stroke: #ff0000"/>
     <use xlink:href="#m107836b287" x="144.025694" y="159.594291" style="fill: #ff0000; stroke: #ff0000"/>
     <use xlink:href="#m107836b287" x="141.036163" y="163.257288" style="fill: #ff0000; stroke: #ff0000"/>
     <use xlink:href="#m107836b287" x="138.138657" y="167.223013" style="fill: #ff0000; stroke: #ff0000"/>
     <use xlink:href="#m107836b287" x="135.313827" y="171.523633" style="fill: #ff0000; stroke: #ff0000"/>
     <use xlink:href="#m107836b287" x="132.606276" y="176.212689" style="fill: #ff0000; stroke: #ff0000"/>
     <use xlink:href="#m107836b287" x="130.1351" y="181.336455" style="fill: #ff0000; stroke: #ff0000"/>
     <use xlink:href="#m107836b287" x="128.091382" y="186.90203" style="fill: #ff0000; stroke: #ff0000"/>
     <use xlink:href="#m107836b287" x="126.723195" y="192.847035" style="fill: #ff0000; stroke: #ff0000"/>
     <use xlink:href="#m107836b287" x="126.301084" y="199.017618" style="fill: #ff0000; stroke: #ff0000"/>
     <use xlink:href="#m107836b287" x="127.05962" y="205.167545" style="fill: #ff0000; stroke: #ff0000"/>
     <use xlink:href="#m107836b287" x="129.126933" y="210.990794" style="fill: #ff0000; stroke: #ff0000"/>
     <use xlink:href="#m107836b287" x="132.471832" y="216.186012" style="fill: #ff0000; stroke: #ff0000"/>
     <use xlink:href="#m107836b287" x="136.899405" y="220.529645" style="fill: #ff0000; stroke: #ff0000"/>
     <use xlink:href="#m107836b287" x="142.103849" y="223.922628" style="fill: #ff0000; stroke: #ff0000"/>
     <use xlink:href="#m107836b287" x="147.754567" y="226.386858" style="fill: #ff0000; stroke: #ff0000"/>
     <use xlink:href="#m107836b287" x="153.572173" y="228.018339" style="fill: #ff0000; stroke: #ff0000"/>
     <use xlink:href="#m107836b287" x="159.361534" y="228.931025" style="fill: #ff0000; stroke: #ff0000"/>
     <use xlink:href="#m107836b287" x="165.001503" y="229.225387" style="fill: #ff0000; stroke: #ff0000"/>
     <use xlink:href="#m107836b287" x="170.417529" y="228.988738" style="fill: #ff0000; stroke: #ff0000"/>
     <use xlink:href="#m107836b287" x="175.56281" y="228.30727" style="fill: #ff0000; stroke: #ff0000"/>
     <use xlink:href="#m107836b287" x="180.413271" y="227.268466" style="fill: #ff0000; stroke: #ff0000"/>
     <use xlink:href="#m107836b287" x="184.966555" y="225.952695" style="fill: #ff0000; stroke: #ff0000"/>
     <use xlink:href="#m107836b287" x="189.238219" y="224.427578" style="fill: #ff0000; stroke: #ff0000"/>
     <use xlink:href="#m107836b287" x="193.258171" y="222.752291" style="fill: #ff0000; stroke: #ff0000"/>
     <use xlink:href="#m107836b287" x="197.071365" y="220.98322" style="fill: #ff0000; stroke: #ff0000"/>
     <use xlink:href="#m107836b287" x="200.738711" y="219.168147" style="fill: #ff0000; stroke: #ff0000"/>
     <use xlink:href="#m107836b287" x="204.329185" y="217.327678" style="fill: #ff0000; stroke: #ff0000"/>
     <use xlink:href="#m107836b287" x="207.89975" y="215.436975" style="fill: #ff0000; stroke: #ff0000"/>
     <use xlink:href="#m107836b287" x="211.471121" y="213.424001" style="fill: #ff0000; stroke: #ff0000"/>
     <use xlink:href="#m107836b287" x="215.01461" y="211.190651" style="fill: #ff0000; stroke: #ff0000"/>
     <use xlink:href="#m107836b287" x="218.461257" y="208.647502" style="fill: #ff0000; stroke: #ff0000"/>
     <use xlink:href="#m107836b287" x="221.730143" y="205.742617" style="fill: #ff0000; stroke: #ff0000"/>
     <use xlink:href="#m107836b287" x="224.757518" y="202.46795" style="fill: #ff0000; stroke: #ff0000"/>
     <use xlink:href="#m107836b287" x="227.505441" y="198.84296" style="fill: #ff0000; stroke: #ff0000"/>
     <use xlink:href="#m107836b287" x="229.942739" y="194.891809" style="fill: #ff0000; stroke: #ff0000"/>
     <use xlink:href="#m107836b287" x="232.010911" y="190.633787" style="fill: #ff0000; stroke: #ff0000"/>
     <use xlink:href="#m107836b287" x="233.59702" y="186.095236" style="fill: #ff0000; stroke: #ff0000"/>
    </g>
   </g>
   <g id="matplotlib.axis_1">
    <g id="xtick_1">
     <g id="line2d_1">
      <defs>
       <path id="m56762c43ce" d="M 0 0 
L 0 3.5 
" style="stroke: #000000; stroke-width: 0.8"/>
      </defs>
      <g>
       <use xlink:href="#m56762c43ce" x="45" y="320.4" style="stroke: #000000; stroke-width: 0.8"/>
      </g>
     </g>
     <g id="text_1">
      <!-- −3 -->
      <g transform="translate(37.628906 334.998438)scale(0.1 -0.1)">
       <defs>
        <path id="DejaVuSans-2212" d="M 678 2272 
L 4684 2272 
L 4684 1741 
L 678 1741 
L 678 2272 
z
" transform="scale(0.015625)"/>
        <path id="DejaVuSans-33" d="M 2597 2516 
Q 3050 2419 3304 2112 
Q 3559 1806 3559 1356 
Q 3559 666 3084 287 
Q 2609 -91 1734 -91 
Q 1441 -91 1130 -33 
Q 819 25 488 141 
L 488 750 
Q 750 597 1062 519 
Q 1375 441 1716 441 
Q 2309 441 2620 675 
Q 2931 909 2931 1356 
Q 2931 1769 2642 2001 
Q 2353 2234 1838 2234 
L 1294 2234 
L 1294 2753 
L 1863 2753 
Q 2328 2753 2575 2939 
Q 2822 3125 2822 3475 
Q 2822 3834 2567 4026 
Q 2313 4219 1838 4219 
Q 1578 4219 1281 4162 
Q 984 4106 628 3988 
L 628 4550 
Q 988 4650 1302 4700 
Q 1616 4750 1894 4750 
Q 2613 4750 3031 4423 
Q 3450 4097 3450 3541 
Q 3450 3153 3228 2886 
Q 3006 2619 2597 2516 
z
" transform="scale(0.015625)"/>
       </defs>
       <use xlink:href="#DejaVuSans-2212"/>
       <use xlink:href="#DejaVuSans-33" x="83.789062"/>
      </g>
     </g>
    </g>
    <g id="xtick_2">
     <g id="line2d_2">
      <g>
       <use xlink:href="#m56762c43ce" x="91.655518" y="320.4" style="stroke: #000000; stroke-width: 0.8"/>
      </g>
     </g>
     <g id="text_2">
      <!-- −2 -->
      <g transform="translate(84.284425 334.998438)scale(0.1 -0.1)">
       <defs>
        <path id="DejaVuSans-32" d="M 1228 531 
L 3431 531 
L 3431 0 
L 469 0 
L 469 531 
Q 828 903 1448 1529 
Q 2069 2156 2228 2338 
Q 2531 2678 2651 2914 
Q 2772 3150 2772 3378 
Q 2772 3750 2511 3984 
Q 2250 4219 1831 4219 
Q 1534 4219 1204 4116 
Q 875 4013 500 3803 
L 500 4441 
Q 881 4594 1212 4672 
Q 1544 4750 1819 4750 
Q 2544 4750 2975 4387 
Q 3406 4025 3406 3419 
Q 3406 3131 3298 2873 
Q 3191 2616 2906 2266 
Q 2828 2175 2409 1742 
Q 1991 1309 1228 531 
z
" transform="scale(0.015625)"/>
       </defs>
       <use xlink:href="#DejaVuSans-2212"/>
       <use xlink:href="#DejaVuSans-32" x="83.789062"/>
      </g>
     </g>
    </g>
    <g id="xtick_3">
     <g id="line2d_3">
      <g>
       <use xlink:href="#m56762c43ce" x="138.311037" y="320.4" style="stroke: #000000; stroke-width: 0.8"/>
      </g>
     </g>
     <g id="text_3">
      <!-- −1 -->
      <g transform="translate(130.939943 334.998438)scale(0.1 -0.1)">
       <defs>
        <path id="DejaVuSans-31" d="M 794 531 
L 1825 531 
L 1825 4091 
L 703 3866 
L 703 4441 
L 1819 4666 
L 2450 4666 
L 2450 531 
L 3481 531 
L 3481 0 
L 794 0 
L 794 531 
z
" transform="scale(0.015625)"/>
       </defs>
       <use xlink:href="#DejaVuSans-2212"/>
       <use xlink:href="#DejaVuSans-31" x="83.789062"/>
      </g>
     </g>
    </g>
    <g id="xtick_4">
     <g id="line2d_4">
      <g>
       <use xlink:href="#m56762c43ce" x="184.966555" y="320.4" style="stroke: #000000; stroke-width: 0.8"/>
      </g>
     </g>
     <g id="text_4">
      <!-- 0 -->
      <g transform="translate(181.785305 334.998438)scale(0.1 -0.1)">
       <defs>
        <path id="DejaVuSans-30" d="M 2034 4250 
Q 1547 4250 1301 3770 
Q 1056 3291 1056 2328 
Q 1056 1369 1301 889 
Q 1547 409 2034 409 
Q 2525 409 2770 889 
Q 3016 1369 3016 2328 
Q 3016 3291 2770 3770 
Q 2525 4250 2034 4250 
z
M 2034 4750 
Q 2819 4750 3233 4129 
Q 3647 3509 3647 2328 
Q 3647 1150 3233 529 
Q 2819 -91 2034 -91 
Q 1250 -91 836 529 
Q 422 1150 422 2328 
Q 422 3509 836 4129 
Q 1250 4750 2034 4750 
z
" transform="scale(0.015625)"/>
       </defs>
       <use xlink:href="#DejaVuSans-30"/>
      </g>
     </g>
    </g>
    <g id="xtick_5">
     <g id="line2d_5">
      <g>
       <use xlink:href="#m56762c43ce" x="231.622074" y="320.4" style="stroke: #000000; stroke-width: 0.8"/>
      </g>
     </g>
     <g id="text_5">
      <!-- 1 -->
      <g transform="translate(228.440824 334.998438)scale(0.1 -0.1)">
       <use xlink:href="#DejaVuSans-31"/>
      </g>
     </g>
    </g>
    <g id="xtick_6">
     <g id="line2d_6">
      <g>
       <use xlink:href="#m56762c43ce" x="278.277592" y="320.4" style="stroke: #000000; stroke-width: 0.8"/>
      </g>
     </g>
     <g id="text_6">
      <!-- 2 -->
      <g transform="translate(275.096342 334.998438)scale(0.1 -0.1)">
       <use xlink:href="#DejaVuSans-32"/>
      </g>
     </g>
    </g>
   </g>
   <g id="matplotlib.axis_2">
    <g id="ytick_1">
     <g id="line2d_7">
      <defs>
       <path id="mfb06b8effc" d="M 0 0 
L -3.5 0 
" style="stroke: #000000; stroke-width: 0.8"/>
      </defs>
      <g>
       <use xlink:href="#mfb06b8effc" x="45" y="320.4" style="stroke: #000000; stroke-width: 0.8"/>
      </g>
     </g>
     <g id="text_7">
      <!-- −3 -->
      <g transform="translate(23.257812 324.199219)scale(0.1 -0.1)">
       <use xlink:href="#DejaVuSans-2212"/>
       <use xlink:href="#DejaVuSans-33" x="83.789062"/>
      </g>
     </g>
    </g>
    <g id="ytick_2">
     <g id="line2d_8">
      <g>
       <use xlink:href="#mfb06b8effc" x="45" y="274.045485" style="stroke: #000000; stroke-width: 0.8"/>
      </g>
     </g>
     <g id="text_8">
      <!-- −2 -->
      <g transform="translate(23.257812 277.844704)scale(0.1 -0.1)">
       <use xlink:href="#DejaVuSans-2212"/>
       <use xlink:href="#DejaVuSans-32" x="83.789062"/>
      </g>
     </g>
    </g>
    <g id="ytick_3">
     <g id="line2d_9">
      <g>
       <use xlink:href="#mfb06b8effc" x="45" y="227.69097" style="stroke: #000000; stroke-width: 0.8"/>
      </g>
     </g>
     <g id="text_9">
      <!-- −1 -->
      <g transform="translate(23.257812 231.490189)scale(0.1 -0.1)">
       <use xlink:href="#DejaVuSans-2212"/>
       <use xlink:href="#DejaVuSans-31" x="83.789062"/>
      </g>
     </g>
    </g>
    <g id="ytick_4">
     <g id="line2d_10">
      <g>
       <use xlink:href="#mfb06b8effc" x="45" y="181.336455" style="stroke: #000000; stroke-width: 0.8"/>
      </g>
     </g>
     <g id="text_10">
      <!-- 0 -->
      <g transform="translate(31.6375 185.135674)scale(0.1 -0.1)">
       <use xlink:href="#DejaVuSans-30"/>
      </g>
     </g>
    </g>
    <g id="ytick_5">
     <g id="line2d_11">
      <g>
       <use xlink:href="#mfb06b8effc" x="45" y="134.98194" style="stroke: #000000; stroke-width: 0.8"/>
      </g>
     </g>
     <g id="text_11">
      <!-- 1 -->
      <g transform="translate(31.6375 138.781159)scale(0.1 -0.1)">
       <use xlink:href="#DejaVuSans-31"/>
      </g>
     </g>
    </g>
    <g id="ytick_6">
     <g id="line2d_12">
      <g>
       <use xlink:href="#mfb06b8effc" x="45" y="88.627425" style="stroke: #000000; stroke-width: 0.8"/>
      </g>
     </g>
     <g id="text_12">
      <!-- 2 -->
      <g transform="translate(31.6375 92.426643)scale(0.1 -0.1)">
       <use xlink:href="#DejaVuSans-32"/>
      </g>
     </g>
    </g>
   </g>
   <g id="PathCollection_2">
    <path d="M 161.638796 204.572511 
L 157.906355 204.021873 
L 156.973244 203.845634 
L 156.040134 203.469577 
L 154.173913 202.11445 
L 152.307692 200.566003 
L 151.214303 199.878261 
L 149.508361 197.69061 
L 149.205334 197.09699 
L 149.508361 195.213086 
L 149.727751 194.315719 
L 150.441472 192.668499 
L 151.493751 190.607358 
L 152.409699 187.826087 
L 153.404037 185.044816 
L 154.173913 184.054648 
L 155.388254 183.190635 
L 158.839465 180.167491 
L 163.505017 177.764636 
L 166.425966 174.846823 
L 168.260287 172.992642 
L 169.495582 172.065552 
L 170.9699 170.383612 
L 171.90301 169.098182 
L 174.702341 166.075159 
L 176.568562 165.062549 
L 178.434783 164.045372 
L 179.367893 163.544757 
L 181.234114 162.865853 
L 183.100334 162.386726 
L 184.966555 162.385717 
L 187.765886 162.830155 
L 189.917409 162.794649 
L 190.565217 162.983572 
L 191.892219 163.721739 
L 192.431438 164.225482 
L 194.088339 166.50301 
L 195.370101 167.4301 
L 196.16388 167.978595 
L 198.963211 169.296806 
L 203.628763 171.18376 
L 204.561873 172.087801 
L 208.877078 177.628094 
L 209.170843 178.555184 
L 209.227425 179.588826 
L 209.036999 181.336455 
L 208.294314 182.52442 
L 204.561873 187.099705 
L 201.490115 190.607358 
L 199.896321 191.919806 
L 194.297659 194.92243 
L 189.150506 198.951171 
L 188.698997 199.129219 
L 185.82259 200.805351 
L 182.167224 203.084792 
L 180.301003 203.953321 
L 179.367893 204.238016 
L 172.83612 205.20472 
L 170.036789 205.11894 
L 163.505017 204.693079 
L 161.638796 204.572511 
L 161.638796 204.572511 
" clip-path="url(#p946f757fcc)" style="fill: none; stroke-dasharray: 5.55,2.4; stroke-dashoffset: 0; stroke: #000000; stroke-width: 1.5"/>
   </g>
   <g id="PathCollection_3">
    <path d="M 155.107023 228.635073 
L 154.96574 228.61806 
L 154.173913 228.469719 
L 153.240803 228.322508 
L 152.307692 228.119782 
L 151.374582 227.701638 
L 151.33859 227.69097 
L 150.441472 227.301334 
L 149.508361 226.860467 
L 149.249006 226.76388 
L 148.575251 226.470015 
L 147.64214 226.061621 
L 147.208828 225.836789 
L 146.70903 225.582342 
L 145.77592 225.011181 
L 145.590351 224.909699 
L 144.842809 224.47409 
L 144.042297 223.982609 
L 143.909699 223.88147 
L 142.976589 223.383325 
L 142.426438 223.055518 
L 142.043478 222.829323 
L 141.110368 222.306577 
L 140.822694 222.128428 
L 140.177258 221.761062 
L 139.340367 221.201338 
L 139.244147 221.122426 
L 138.311037 220.552564 
L 137.86901 220.274247 
L 137.377926 219.965703 
L 136.453679 219.347157 
L 136.444816 219.339296 
L 135.511706 218.695098 
L 135.203134 218.420067 
L 134.578595 217.785954 
L 134.309984 217.492977 
L 133.645485 216.748634 
L 133.611312 216.565886 
L 133.040616 215.638796 
L 132.712375 215.057276 
L 132.656909 214.711706 
L 131.947447 213.784615 
L 131.779264 213.58657 
L 131.275156 212.857525 
L 130.846154 212.266787 
L 130.714716 211.930435 
L 129.979612 211.003344 
L 129.913043 210.932847 
L 129.324596 210.076254 
L 128.979933 209.602757 
L 128.63396 209.149164 
L 128.046823 208.519357 
L 127.836089 208.222074 
L 127.113712 207.449964 
L 127.051255 207.294983 
L 126.496634 206.367893 
L 126.19326 205.440803 
L 126.180602 205.411039 
L 126.091384 204.513712 
L 125.670675 203.586622 
L 125.479287 202.659532 
L 125.389995 201.732441 
L 125.247492 200.903598 
L 125.246824 200.805351 
L 125.235357 199.878261 
L 125.201756 198.951171 
L 125.238947 198.02408 
L 125.247492 197.549275 
L 125.393917 197.09699 
L 125.583927 196.1699 
L 125.776159 195.242809 
L 126.143102 194.315719 
L 126.163154 193.388629 
L 126.162004 192.461538 
L 126.161667 191.534448 
L 126.164004 190.607358 
L 126.167679 189.680268 
L 126.178639 188.753177 
L 126.180602 188.552095 
L 126.3082 187.826087 
L 126.407081 186.898997 
L 126.568645 185.971906 
L 127.06817 185.044816 
L 127.113712 184.551653 
L 127.327704 184.117726 
L 127.6567 183.190635 
L 128.045154 182.263545 
L 128.046823 182.196135 
L 128.384065 181.336455 
L 128.890678 180.409365 
L 128.979933 179.872253 
L 129.183728 179.482274 
L 129.897862 178.555184 
L 129.913043 178.433065 
L 130.583338 177.628094 
L 130.846154 177.329642 
L 131.399746 176.701003 
L 131.779264 176.274414 
L 132.220569 175.773913 
L 132.712375 175.234872 
L 133.070187 174.846823 
L 133.645485 174.235679 
L 133.937353 173.919732 
L 134.578595 173.285711 
L 134.854332 172.992642 
L 135.511706 172.290354 
L 135.739273 172.065552 
L 136.444816 171.18249 
L 136.488707 171.138462 
L 137.081374 170.211371 
L 137.377926 169.662519 
L 137.588559 169.284281 
L 138.177685 168.357191 
L 138.311037 168.216157 
L 139.060631 167.4301 
L 139.244147 167.2357 
L 139.933223 166.50301 
L 140.177258 166.244564 
L 140.804137 165.57592 
L 141.110368 165.250442 
L 141.67993 164.648829 
L 142.043478 164.255854 
L 142.547956 163.721739 
L 142.976589 163.227623 
L 143.273899 162.794649 
L 143.794855 161.867559 
L 143.909699 161.687929 
L 144.2995 160.940468 
L 144.842809 160.169453 
L 144.969295 160.013378 
L 145.77592 159.124301 
L 145.814471 159.086288 
L 146.70903 158.179811 
L 146.730981 158.159197 
L 147.64214 157.479318 
L 147.987736 157.232107 
L 148.575251 156.747389 
L 149.156161 156.305017 
L 149.508361 156.004584 
L 150.176227 155.377926 
L 150.441472 155.078788 
L 150.92733 154.450836 
L 151.374582 153.931302 
L 151.69748 153.523746 
L 152.307692 152.754678 
L 152.434868 152.596656 
L 153.203901 151.669565 
L 153.240803 151.63 
L 154.010894 150.742475 
L 154.173913 150.568647 
L 154.834319 149.815385 
L 155.107023 149.525981 
L 155.687627 148.888294 
L 156.040134 148.501497 
L 156.545512 147.961204 
L 156.973244 147.556664 
L 157.674061 147.034114 
L 157.906355 146.859785 
L 158.839465 146.265044 
L 159.100588 146.107023 
L 159.772575 145.69367 
L 160.657268 145.179933 
L 160.705686 145.14727 
L 161.638796 144.600129 
L 162.206374 144.252843 
L 162.571906 144.027371 
L 163.505017 143.452475 
L 163.68925 143.325753 
L 164.438127 142.830567 
L 165.371237 142.422573 
L 165.413907 142.398662 
L 166.304348 141.972363 
L 167.009983 141.471572 
L 167.237458 141.294224 
L 168.170569 140.606882 
L 168.27518 140.544482 
L 169.103679 140.138939 
L 170.036789 139.7111 
L 170.255369 139.617391 
L 170.9699 139.354059 
L 171.90301 139.072387 
L 172.83612 138.795419 
L 173.131762 138.690301 
L 173.769231 138.493998 
L 174.702341 138.255673 
L 175.635452 138.00937 
L 176.568562 137.831659 
L 176.819442 137.763211 
L 177.501672 137.613453 
L 178.434783 137.437639 
L 179.367893 137.323558 
L 180.301003 137.196268 
L 181.234114 137.111915 
L 182.167224 137.08767 
L 183.100334 137.078163 
L 184.033445 137.067714 
L 184.966555 137.05247 
L 185.899666 137.014828 
L 186.832776 137.068335 
L 187.765886 137.228757 
L 188.698997 137.409524 
L 189.632107 137.617131 
L 190.071026 137.763211 
L 190.565217 137.92162 
L 191.498328 138.2561 
L 192.431438 138.476124 
L 193.148703 138.690301 
L 193.364548 138.764618 
L 194.297659 138.997788 
L 195.230769 139.269249 
L 195.994314 139.617391 
L 196.16388 139.708356 
L 197.09699 140.080123 
L 198.0301 140.472708 
L 198.168117 140.544482 
L 198.963211 140.864253 
L 199.896321 141.230039 
L 200.261161 141.471572 
L 200.829431 141.791275 
L 201.762542 142.239762 
L 202.102912 142.398662 
L 202.695652 142.678679 
L 203.628763 143.097716 
L 204.106759 143.325753 
L 204.561873 143.523674 
L 205.494983 143.91045 
L 205.978184 144.252843 
L 206.428094 144.591684 
L 207.215419 145.179933 
L 207.361204 145.288998 
L 208.294314 145.960827 
L 208.479939 146.107023 
L 209.227425 146.653579 
L 209.81008 147.034114 
L 210.160535 147.253754 
L 211.093645 147.824425 
L 211.279172 147.961204 
L 212.026756 148.442588 
L 212.676672 148.888294 
L 212.959866 149.077945 
L 213.892977 149.748574 
L 213.975028 149.815385 
L 214.826087 150.428014 
L 215.24355 150.742475 
L 215.759197 151.103483 
L 216.681933 151.669565 
L 216.692308 151.679626 
L 217.625418 152.181343 
L 218.361707 152.596656 
L 218.558528 152.744062 
L 219.491639 153.432256 
L 219.58259 153.523746 
L 220.424749 154.379918 
L 220.496191 154.450836 
L 221.35786 155.327381 
L 221.408312 155.377926 
L 222.29097 156.276514 
L 222.319416 156.305017 
L 223.22408 157.226364 
L 223.229811 157.232107 
L 224.138958 158.159197 
L 224.157191 158.177252 
L 225.049075 159.086288 
L 225.090301 159.127041 
L 225.90168 160.013378 
L 226.023411 160.169982 
L 226.490635 160.940468 
L 226.956522 161.757778 
L 227.032034 161.867559 
L 227.558126 162.794649 
L 227.889632 163.379666 
L 228.113051 163.721739 
L 228.563429 164.648829 
L 228.822742 165.071353 
L 229.131062 165.57592 
L 229.530639 166.50301 
L 229.755853 166.963651 
L 229.982392 167.4301 
L 230.380725 168.357191 
L 230.688963 168.994221 
L 230.845307 169.284281 
L 231.278042 170.211371 
L 231.622074 170.919818 
L 231.736797 171.138462 
L 232.039231 172.065552 
L 232.223973 172.992642 
L 232.347891 173.919732 
L 232.499463 174.846823 
L 232.555184 175.086912 
L 232.679554 175.773913 
L 232.878767 176.701003 
L 233.038317 177.628094 
L 233.01913 178.555184 
L 232.98439 179.482274 
L 232.944787 180.409365 
L 232.902648 181.336455 
L 232.840073 182.263545 
L 232.770379 183.190635 
L 232.692305 184.117726 
L 232.604045 185.044816 
L 232.555184 185.51046 
L 232.50191 185.971906 
L 232.368841 186.898997 
L 232.007412 187.826087 
L 231.622074 188.364011 
L 231.384874 188.753177 
L 230.834922 189.680268 
L 230.688963 189.880263 
L 230.264253 190.607358 
L 229.755853 191.34394 
L 229.618929 191.534448 
L 229.119232 192.461538 
L 228.822742 192.863324 
L 228.526739 193.388629 
L 227.980445 194.315719 
L 227.889632 194.464172 
L 227.550999 195.242809 
L 227.075277 196.1699 
L 226.956522 196.366838 
L 226.598377 197.09699 
L 226.023411 198.022667 
L 226.022394 198.02408 
L 225.51984 198.951171 
L 225.090301 199.504146 
L 224.85176 199.878261 
L 224.157191 200.788925 
L 224.143749 200.805351 
L 223.235224 201.732441 
L 223.22408 201.743348 
L 222.294703 202.659532 
L 222.29097 202.663442 
L 221.518864 203.586622 
L 221.35786 203.761769 
L 220.74904 204.513712 
L 220.424749 204.857054 
L 219.879072 205.440803 
L 219.491639 205.861683 
L 219.031594 206.367893 
L 218.558528 206.869922 
L 218.166785 207.294983 
L 217.625418 207.864822 
L 217.289179 208.222074 
L 216.692308 208.818426 
L 216.361859 209.149164 
L 215.759197 209.748461 
L 215.458949 210.076254 
L 214.826087 210.830936 
L 214.651426 211.003344 
L 213.892977 211.696215 
L 213.634966 211.930435 
L 212.959866 212.546849 
L 212.620376 212.857525 
L 212.026756 213.386765 
L 211.572677 213.784615 
L 211.093645 214.176431 
L 210.442398 214.711706 
L 210.160535 214.941894 
L 209.312684 215.638796 
L 209.227425 215.709098 
L 208.294314 216.460914 
L 208.166768 216.565886 
L 207.361204 217.224018 
L 207.014723 217.492977 
L 206.428094 217.945569 
L 205.810474 218.420067 
L 205.494983 218.674685 
L 204.695293 219.347157 
L 204.561873 219.454724 
L 203.628763 220.169248 
L 203.475896 220.274247 
L 202.695652 220.73295 
L 201.762542 221.014103 
L 201.166906 221.201338 
L 200.829431 221.274933 
L 199.896321 221.52604 
L 198.963211 221.831885 
L 198.048445 222.128428 
L 198.0301 222.13214 
L 197.09699 222.47355 
L 196.16388 222.78834 
L 195.35882 223.055518 
L 195.230769 223.081664 
L 194.297659 223.439479 
L 193.364548 223.737502 
L 192.620918 223.982609 
L 192.431438 224.023478 
L 191.498328 224.365678 
L 190.565217 224.660156 
L 189.811371 224.909699 
L 189.632107 224.947974 
L 188.698997 225.293264 
L 187.765886 225.707251 
L 187.530033 225.836789 
L 186.832776 226.162239 
L 185.899666 226.414442 
L 184.966555 226.615044 
L 184.033445 226.72393 
L 183.650046 226.76388 
L 183.100334 226.784635 
L 182.167224 226.846651 
L 181.234114 226.968954 
L 180.301003 227.044594 
L 179.367893 227.1331 
L 178.434783 227.272747 
L 177.501672 227.403004 
L 176.568562 227.526122 
L 175.709567 227.69097 
L 175.635452 227.697728 
L 174.702341 227.834385 
L 173.769231 228.007718 
L 172.83612 228.151045 
L 171.90301 228.29645 
L 170.9699 228.366371 
L 170.036789 228.320062 
L 169.103679 228.248008 
L 168.170569 228.187843 
L 167.237458 228.260081 
L 166.304348 228.35211 
L 165.371237 228.426329 
L 164.438127 228.509094 
L 163.505017 228.612831 
L 163.463505 228.61806 
L 162.571906 228.721646 
L 161.638796 228.822335 
L 160.705686 228.917396 
L 159.772575 228.962929 
L 158.839465 228.964769 
L 157.906355 228.921588 
L 156.973244 228.870105 
L 156.040134 228.798613 
L 155.107023 228.635073 
z
" clip-path="url(#p946f757fcc)" style="fill: none; stroke: #000000; stroke-width: 1.5"/>
   </g>
   <g id="PathCollection_4">
    <path d="M 151.374582 250.925165 
L 150.860097 250.868227 
L 150.441472 250.821497 
L 149.508361 250.651106 
L 148.575251 250.480295 
L 147.64214 250.308477 
L 146.70903 250.070077 
L 146.278555 249.941137 
L 145.77592 249.790578 
L 144.842809 249.497892 
L 143.909699 249.131963 
L 143.609017 249.014047 
L 142.976589 248.766036 
L 142.043478 248.400113 
L 141.244902 248.086957 
L 141.110368 248.034202 
L 140.177258 247.668264 
L 139.244147 247.302345 
L 138.888748 247.159866 
L 138.311037 246.92736 
L 137.377926 246.50391 
L 136.883866 246.232776 
L 136.444816 245.976422 
L 135.511706 245.39674 
L 135.368806 245.305686 
L 134.578595 244.802156 
L 133.909398 244.378595 
L 133.645485 244.21178 
L 132.712375 243.623117 
L 132.440333 243.451505 
L 131.779264 243.034481 
L 130.970751 242.524415 
L 130.846154 242.445811 
L 129.913043 241.85717 
L 129.501125 241.597324 
L 128.979933 241.268552 
L 128.046823 240.679953 
L 128.031549 240.670234 
L 127.113712 240.073387 
L 126.599967 239.743144 
L 126.180602 239.476694 
L 125.247492 238.880072 
L 125.147369 238.816054 
L 124.314381 238.283436 
L 123.697438 237.888963 
L 123.381271 237.68681 
L 122.468187 236.961873 
L 122.448161 236.943556 
L 121.51505 236.069165 
L 121.47836 236.034783 
L 120.58194 235.194763 
L 120.48902 235.107692 
L 119.648829 234.337854 
L 119.47583 234.180602 
L 118.715719 233.491244 
L 118.453277 233.253512 
L 117.782609 232.643955 
L 117.432843 232.326421 
L 116.849498 231.796293 
L 116.412679 231.399331 
L 115.916388 230.915401 
L 115.549049 230.472241 
L 114.983278 229.603764 
L 114.945093 229.545151 
L 114.388192 228.61806 
L 114.050167 227.976289 
L 113.905753 227.69097 
L 113.399313 226.76388 
L 113.117057 226.293693 
L 112.842778 225.836789 
L 112.286252 224.909699 
L 112.183946 224.739272 
L 111.729725 223.982609 
L 111.250836 223.184857 
L 111.173196 223.055518 
L 110.61667 222.128428 
L 110.317726 221.657143 
L 110.002629 221.201338 
L 109.384615 220.441003 
L 109.246406 220.274247 
L 108.472884 219.347157 
L 108.451505 219.321535 
L 107.699344 218.420067 
L 107.518395 218.203194 
L 106.931195 217.492977 
L 106.585284 216.880997 
L 106.436665 216.565886 
L 106.092512 215.638796 
L 105.748357 214.711706 
L 105.652174 214.452611 
L 105.404193 213.784615 
L 105.061029 212.857525 
L 104.754723 211.930435 
L 104.719064 211.805475 
L 104.504112 211.003344 
L 104.349827 210.076254 
L 104.229825 209.149164 
L 104.097635 208.222074 
L 103.967189 207.294983 
L 103.834939 206.367893 
L 103.785953 205.996881 
L 103.712264 205.440803 
L 103.592079 204.513712 
L 103.473331 203.586622 
L 103.355861 202.659532 
L 103.233114 201.732441 
L 103.038823 200.805351 
L 102.909774 199.878261 
L 102.909928 198.951171 
L 103.050556 198.02408 
L 103.193224 197.09699 
L 103.295764 196.1699 
L 103.341114 195.242809 
L 103.410815 194.315719 
L 103.484206 193.388629 
L 103.557586 192.461538 
L 103.630951 191.534448 
L 103.781734 190.607358 
L 103.785953 190.587025 
L 103.974122 189.680268 
L 104.166534 188.753177 
L 104.358925 187.826087 
L 104.567111 186.898997 
L 104.719064 186.178006 
L 104.762642 185.971906 
L 104.956221 185.044816 
L 105.142402 184.117726 
L 105.313184 183.190635 
L 105.489902 182.263545 
L 105.652174 181.421556 
L 105.668558 181.336455 
L 105.850275 180.409365 
L 106.032032 179.482274 
L 106.213781 178.555184 
L 106.395528 177.628094 
L 106.585284 176.811868 
L 106.611929 176.701003 
L 106.875248 175.773913 
L 107.370818 174.846823 
L 107.518395 174.611287 
L 107.951699 173.919732 
L 108.451505 173.122016 
L 108.532564 172.992642 
L 109.113447 172.065552 
L 109.384615 171.632774 
L 109.694334 171.138462 
L 110.275211 170.211371 
L 110.317726 170.142545 
L 110.838976 169.284281 
L 111.231728 168.357191 
L 111.250836 168.312086 
L 111.624483 167.4301 
L 112.01724 166.50301 
L 112.183946 166.109507 
L 112.410193 165.57592 
L 112.813921 164.648829 
L 113.117057 163.973082 
L 113.231726 163.721739 
L 113.654677 162.794649 
L 114.050167 161.927735 
L 114.07762 161.867559 
L 114.500583 160.940468 
L 114.923535 160.013378 
L 114.983278 159.882424 
L 115.382702 159.086288 
L 115.916388 158.475314 
L 116.210872 158.159197 
L 116.849498 157.472239 
L 117.07254 157.232107 
L 117.782609 156.490368 
L 117.977841 156.305017 
L 118.715719 155.494608 
L 118.809631 155.377926 
L 119.555812 154.450836 
L 119.648829 154.335456 
L 120.303266 153.523746 
L 120.58194 153.176201 
L 121.035573 152.596656 
L 121.51505 151.9432 
L 121.716199 151.669565 
L 122.396465 150.742475 
L 122.448161 150.674237 
L 123.124496 149.815385 
L 123.381271 149.499992 
L 123.879276 148.888294 
L 124.314381 148.399237 
L 124.721155 147.961204 
L 125.247492 147.394407 
L 125.582063 147.034114 
L 126.180602 146.308578 
L 126.328932 146.107023 
L 126.987903 145.179933 
L 127.113712 145.017881 
L 127.771319 144.252843 
L 128.046823 143.952767 
L 128.622488 143.325753 
L 128.979933 142.936422 
L 129.473645 142.398662 
L 129.913043 141.920077 
L 130.324832 141.471572 
L 130.846154 140.903756 
L 131.176006 140.544482 
L 131.779264 139.88741 
L 132.02717 139.617391 
L 132.712375 138.876992 
L 132.877062 138.690301 
L 133.641952 137.763211 
L 133.645485 137.758911 
L 134.380057 136.83612 
L 134.578595 136.578532 
L 135.103575 135.90903 
L 135.511706 135.416297 
L 135.897435 134.98194 
L 136.444816 134.365552 
L 136.720736 134.054849 
L 137.377926 133.314805 
L 137.544034 133.127759 
L 138.311037 132.264064 
L 138.367334 132.200669 
L 139.224201 131.273579 
L 139.244147 131.254753 
L 140.177258 130.409429 
L 140.258566 130.346488 
L 141.110368 129.786077 
L 141.708171 129.419398 
L 142.043478 129.211892 
L 142.976589 128.631338 
L 143.199901 128.492308 
L 143.909699 128.048334 
L 144.635975 127.565217 
L 144.842809 127.422162 
L 145.77592 126.779729 
L 145.9989 126.638127 
L 146.70903 126.192501 
L 147.421193 125.711037 
L 147.64214 125.553777 
L 148.575251 124.918627 
L 148.781444 124.783946 
L 149.508361 124.328258 
L 150.260338 123.856856 
L 150.441472 123.74137 
L 151.374582 123.107229 
L 151.623003 122.929766 
L 152.307692 122.436142 
L 152.908938 122.002676 
L 153.240803 121.763418 
L 154.173913 121.09072 
L 154.198739 121.075585 
L 155.107023 120.5861 
L 156.032111 120.148495 
L 156.040134 120.144682 
L 156.973244 119.68352 
L 157.889021 119.221405 
L 157.906355 119.212698 
L 158.839465 118.782364 
L 159.772575 118.491852 
L 160.407108 118.294314 
L 160.705686 118.201365 
L 161.638796 117.914002 
L 162.571906 117.603635 
L 163.387369 117.367224 
L 163.505017 117.333117 
L 164.438127 117.066155 
L 165.371237 116.834128 
L 166.304348 116.570451 
L 166.772362 116.440134 
L 167.237458 116.31229 
L 168.170569 116.065193 
L 169.103679 115.818105 
L 170.036789 115.570999 
L 170.25565 115.513043 
L 170.9699 115.323907 
L 171.90301 115.124661 
L 172.83612 114.951816 
L 173.769231 114.778966 
L 174.702341 114.606114 
L 174.820176 114.585953 
L 175.635452 114.452927 
L 176.568562 114.313681 
L 177.501672 114.174426 
L 178.434783 114.035159 
L 179.367893 113.906912 
L 180.301003 113.769372 
L 181.234114 113.679037 
L 181.447837 113.658863 
L 182.167224 113.590957 
L 183.100334 113.502862 
L 184.033445 113.414128 
L 184.966555 113.322784 
L 185.899666 113.231403 
L 186.832776 113.140009 
L 187.765886 113.122985 
L 188.698997 113.297033 
L 189.632107 113.472141 
L 190.565217 113.647289 
L 190.623083 113.658863 
L 191.498328 113.835537 
L 192.431438 114.025287 
L 193.364548 114.218052 
L 194.297659 114.435597 
L 194.942596 114.585953 
L 195.230769 114.653277 
L 196.16388 114.876315 
L 197.09699 115.062725 
L 198.0301 115.238751 
L 198.963211 115.429888 
L 199.290194 115.513043 
L 199.896321 115.672779 
L 200.829431 115.970049 
L 201.762542 116.267326 
L 202.299039 116.440134 
L 202.695652 116.57121 
L 203.628763 116.822883 
L 204.561873 117.181298 
L 204.950209 117.367224 
L 205.494983 117.628049 
L 206.428094 118.074799 
L 206.886604 118.294314 
L 207.361204 118.521538 
L 208.294314 118.965832 
L 208.854384 119.221405 
L 209.227425 119.402646 
L 210.160535 119.890654 
L 210.748068 120.148495 
L 211.093645 120.299085 
L 212.026756 120.705689 
L 212.805955 121.075585 
L 212.959866 121.148353 
L 213.892977 121.595251 
L 214.826087 121.971688 
L 214.900507 122.002676 
L 215.759197 122.396088 
L 216.543628 122.929766 
L 216.692308 123.032979 
L 217.625418 123.680744 
L 217.875915 123.856856 
L 218.558528 124.337153 
L 219.185789 124.783946 
L 219.491639 125.001801 
L 220.424749 125.643977 
L 220.533253 125.711037 
L 221.35786 126.214013 
L 222.053163 126.638127 
L 222.29097 126.783183 
L 223.22408 127.352344 
L 223.573073 127.565217 
L 224.157191 127.921504 
L 225.090301 128.485572 
L 225.101641 128.492308 
L 226.023411 129.039005 
L 226.657965 129.419398 
L 226.956522 129.593982 
L 227.889632 130.117847 
L 228.298907 130.346488 
L 228.822742 130.690527 
L 229.592169 131.273579 
L 229.755853 131.397983 
L 230.688963 132.108513 
L 230.81037 132.200669 
L 231.622074 132.816804 
L 232.03174 133.127759 
L 232.555184 133.511236 
L 233.410337 134.054849 
L 233.488294 134.103047 
L 234.421405 134.946584 
L 234.450685 134.98194 
L 235.218448 135.90903 
L 235.354515 136.066572 
L 236.038608 136.83612 
L 236.287625 137.120322 
L 236.854163 137.763211 
L 237.220736 138.144657 
L 237.75412 138.690301 
L 238.153846 139.09923 
L 238.660335 139.617391 
L 239.086957 140.053837 
L 239.566554 140.544482 
L 240.020067 141.00845 
L 240.470413 141.471572 
L 240.953177 141.971963 
L 241.364842 142.398662 
L 241.886288 142.939149 
L 242.259271 143.325753 
L 242.819398 143.913462 
L 243.145199 144.252843 
L 243.752508 144.895282 
L 243.983345 145.179933 
L 244.527216 146.107023 
L 244.685619 146.394945 
L 245.035985 147.034114 
L 245.544184 147.961204 
L 245.618729 148.087022 
L 246.104528 148.888294 
L 246.551839 149.563444 
L 246.719153 149.815385 
L 247.337322 150.742475 
L 247.48495 150.963504 
L 247.932548 151.669565 
L 248.41806 152.528519 
L 248.456258 152.596656 
L 248.976004 153.523746 
L 249.351171 154.192951 
L 249.495746 154.450836 
L 250.015488 155.377926 
L 250.284281 155.863143 
L 250.529621 156.305017 
L 250.968582 157.232107 
L 251.217391 157.801902 
L 251.373411 158.159197 
L 251.778245 159.086288 
L 252.150502 159.945494 
L 252.180113 160.013378 
L 252.548284 160.940468 
L 252.912256 161.867559 
L 253.083612 162.266322 
L 253.310645 162.794649 
L 253.707499 163.721739 
L 254.016722 164.474016 
L 254.089549 164.648829 
L 254.413303 165.57592 
L 254.611291 166.50301 
L 254.793122 167.4301 
L 254.949833 168.328748 
L 254.954688 168.357191 
L 255.112952 169.284281 
L 255.267604 170.211371 
L 255.41147 171.138462 
L 255.555319 172.065552 
L 255.699162 172.992642 
L 255.843027 173.919732 
L 255.882943 174.106456 
L 256.037595 174.846823 
L 256.246988 175.773913 
L 256.183683 176.701003 
L 256.116109 177.628094 
L 256.132426 178.555184 
L 256.122715 179.482274 
L 256.113161 180.409365 
L 256.103781 181.336455 
L 256.0973 182.263545 
L 256.100112 183.190635 
L 256.102931 184.117726 
L 256.105747 185.044816 
L 256.102645 185.971906 
L 256.063206 186.898997 
L 256.019344 187.826087 
L 255.975462 188.753177 
L 255.931609 189.680268 
L 255.887756 190.607358 
L 255.882943 190.709088 
L 255.843897 191.534448 
L 255.800033 192.461538 
L 255.668029 193.388629 
L 255.21786 194.315719 
L 254.949833 194.867712 
L 254.765173 195.242809 
L 254.263904 196.1699 
L 254.016722 196.636181 
L 253.772049 197.09699 
L 253.245799 198.02408 
L 253.083612 198.300463 
L 252.701774 198.951171 
L 252.157754 199.878261 
L 252.150502 199.892127 
L 251.66946 200.805351 
L 251.217391 201.704018 
L 251.203093 201.732441 
L 250.76396 202.659532 
L 250.360448 203.586622 
L 250.284281 203.774042 
L 249.972851 204.513712 
L 249.585083 205.440803 
L 249.351171 205.967683 
L 249.17421 206.367893 
L 248.760498 207.294983 
L 248.41806 208.062335 
L 248.346777 208.222074 
L 247.933084 209.149164 
L 247.519359 210.076254 
L 247.48495 210.153363 
L 247.105651 211.003344 
L 246.623344 211.930435 
L 246.551839 212.040613 
L 246.021688 212.857525 
L 245.618729 213.460039 
L 245.388559 213.784615 
L 244.685619 214.60583 
L 244.588216 214.711706 
L 243.752508 215.611533 
L 243.727841 215.638796 
L 242.85057 216.565886 
L 242.819398 216.597682 
L 241.886288 217.48793 
L 241.880839 217.492977 
L 240.953177 218.352171 
L 240.879871 218.420067 
L 240.020067 219.216445 
L 239.878948 219.347157 
L 239.086957 220.08072 
L 238.877267 220.274247 
L 238.153846 220.94401 
L 237.874663 221.201338 
L 237.220736 221.80549 
L 236.874771 222.128428 
L 236.287625 222.685036 
L 235.887102 223.055518 
L 235.354515 223.531838 
L 234.861568 223.982609 
L 234.421405 224.456908 
L 234.038242 224.909699 
L 233.488294 225.568035 
L 233.261336 225.836789 
L 232.555184 226.660266 
L 232.463148 226.76388 
L 231.622074 227.683081 
L 231.614859 227.69097 
L 230.765935 228.61806 
L 230.688963 228.703339 
L 229.886662 229.545151 
L 229.755853 229.66619 
L 228.822742 230.442315 
L 228.786846 230.472241 
L 227.889632 231.219656 
L 227.674136 231.399331 
L 226.956522 231.952057 
L 226.444202 232.326421 
L 226.023411 232.633693 
L 225.17874 233.253512 
L 225.090301 233.320777 
L 224.157191 233.976151 
L 223.847441 234.180602 
L 223.22408 234.592054 
L 222.442897 235.107692 
L 222.29097 235.207975 
L 221.35786 235.823896 
L 221.052377 236.034783 
L 220.424749 236.493993 
L 219.815214 236.961873 
L 219.491639 237.210247 
L 218.607432 237.888963 
L 218.558528 237.926502 
L 217.625418 238.64276 
L 217.399666 238.816054 
L 216.692308 239.359024 
L 216.191886 239.743144 
L 215.759197 240.075274 
L 214.826087 240.628889 
L 214.715839 240.670234 
L 213.892977 240.975203 
L 212.959866 241.304866 
L 212.120899 241.597324 
L 212.026756 241.629623 
L 211.093645 241.946845 
L 210.160535 242.258832 
L 209.366267 242.524415 
L 209.227425 242.570839 
L 208.294314 242.876617 
L 207.361204 243.185172 
L 206.726467 243.451505 
L 206.428094 243.577461 
L 205.494983 243.971368 
L 204.561873 244.341858 
L 204.462594 244.378595 
L 203.628763 244.693441 
L 202.695652 245.0533 
L 202.066113 245.305686 
L 201.762542 245.42608 
L 200.829431 245.806055 
L 199.896321 246.186051 
L 199.777823 246.232776 
L 198.963211 246.557684 
L 198.0301 246.917899 
L 197.403326 247.159866 
L 197.09699 247.280172 
L 196.16388 247.691341 
L 195.292371 248.086957 
L 195.230769 248.114921 
L 194.297659 248.538509 
L 193.364548 248.771965 
L 192.431438 248.898601 
L 191.58083 249.014047 
L 191.498328 249.025244 
L 190.565217 249.163163 
L 189.632107 249.240267 
L 188.698997 249.284471 
L 187.765886 249.32869 
L 186.832776 249.45495 
L 185.899666 249.612424 
L 184.966555 249.761002 
L 184.033445 249.887943 
L 183.562247 249.941137 
L 183.100334 249.993386 
L 182.167224 250.099753 
L 181.234114 250.207945 
L 180.301003 250.31915 
L 179.367893 250.432818 
L 178.434783 250.546951 
L 177.501672 250.661076 
L 176.568562 250.775052 
L 175.799508 250.868227 
L 175.635452 250.888098 
L 174.702341 250.998696 
L 173.769231 251.109257 
L 172.83612 251.219815 
L 171.90301 251.325064 
L 170.9699 251.44547 
L 170.036789 251.560047 
L 169.103679 251.61511 
L 168.170569 251.607868 
L 167.237458 251.600612 
L 166.304348 251.59338 
L 165.371237 251.586117 
L 164.438127 251.578865 
L 163.505017 251.571628 
L 162.571906 251.540758 
L 161.638796 251.50483 
L 160.705686 251.4689 
L 159.772575 251.432973 
L 158.839465 251.397047 
L 157.906355 251.355899 
L 156.973244 251.207584 
L 156.040134 251.112043 
L 155.107023 251.087872 
L 154.173913 251.055532 
L 153.240803 251.023276 
L 152.307692 250.990707 
L 151.374582 250.925165 
z
" clip-path="url(#p946f757fcc)" style="fill: none; stroke: #000000; stroke-width: 1.5"/>
   </g>
   <g id="patch_3">
    <path d="M 45 320.4 
L 45 43.2 
" style="fill: none; stroke: #000000; stroke-width: 0.8; stroke-linejoin: miter; stroke-linecap: square"/>
   </g>
   <g id="patch_4">
    <path d="M 324 320.4 
L 324 43.2 
" style="fill: none; stroke: #000000; stroke-width: 0.8; stroke-linejoin: miter; stroke-linecap: square"/>
   </g>
   <g id="patch_5">
    <path d="M 45 320.4 
L 324 320.4 
" style="fill: none; stroke: #000000; stroke-width: 0.8; stroke-linejoin: miter; stroke-linecap: square"/>
   </g>
   <g id="patch_6">
    <path d="M 45 43.2 
L 324 43.2 
" style="fill: none; stroke: #000000; stroke-width: 0.8; stroke-linejoin: miter; stroke-linecap: square"/>
   </g>
  </g>
 </g>
 <defs>
  <clipPath id="p946f757fcc">
   <rect x="45" y="43.2" width="279" height="277.2"/>
  </clipPath>
 </defs>
</svg>
