<?xml version="1.0" encoding="utf-8" standalone="no"?>
<!DOCTYPE svg PUBLIC "-//W3C//DTD SVG 1.1//EN"
  "http://www.w3.org/Graphics/SVG/1.1/DTD/svg11.dtd">
<svg xmlns:xlink="http://www.w3.org/1999/xlink" width="360pt" height="360pt" viewBox="0 0 360 360" xmlns="http://www.w3.org/2000/svg" version="1.1">
 <metadata>
  <rdf:RDF xmlns:dc="http://purl.org/dc/elements/1.1/" xmlns:cc="http://creativecommons.org/ns#" xmlns:rdf="http://www.w3.org/1999/02/22-rdf-syntax-ns#">
   <cc:Work>
    <dc:type rdf:resource="http://purl.org/dc/dcmitype/StillImage"/>
    <dc:date>2022-04-03T22:41:47.232561</dc:date>
    <dc:format>image/svg+xml</dc:format>
    <dc:creator>
     <cc:Agent>
      <dc:title>Matplotlib v3.5.1, https://matplotlib.org/</dc:title>
     </cc:Agent>
    </dc:creator>
   </cc:Work>
  </rdf:RDF>
 </metadata>
 <defs>
  <style type="text/css">*{stroke-linejoin: round; stroke-linecap: butt}</style>
 </defs>
 <g id="figure_1">
  <g id="patch_1">
   <path d="M 0 360 
L 360 360 
L 360 0 
L 0 0 
z
" style="fill: #ffffff"/>
  </g>
  <g id="axes_1">
   <g id="patch_2">
    <path d="M 45 320.4 
L 324 320.4 
L 324 43.2 
L 45 43.2 
z
" style="fill: #ffffff"/>
   </g>
   <g id="PathCollection_1">
    <defs>
     <path id="mcfc3bee620" d="M 0 0.5 
C 0.132602 0.5 0.25979 0.447317 0.353553 0.353553 
C 0.447317 0.25979 0.5 0.132602 0.5 0 
C 0.5 -0.132602 0.447317 -0.25979 0.353553 -0.353553 
C 0.25979 -0.447317 0.132602 -0.5 0 -0.5 
C -0.132602 -0.5 -0.25979 -0.447317 -0.353553 -0.353553 
C -0.447317 -0.25979 -0.5 -0.132602 -0.5 0 
C -0.5 0.132602 -0.447317 0.25979 -0.353553 0.353553 
C -0.25979 0.447317 -0.132602 0.5 0 0.5 
z
" style="stroke: #ff0000"/>
    </defs>
    <g clip-path="url(#p97a59cedfb)">
     <use xlink:href="#mcfc3bee620" x="236.242182" y="181.568614" style="fill: #ff0000; stroke: #ff0000"/>
     <use xlink:href="#mcfc3bee620" x="236.484445" y="176.504415" style="fill: #ff0000; stroke: #ff0000"/>
     <use xlink:href="#mcfc3bee620" x="235.695731" y="171.496875" style="fill: #ff0000; stroke: #ff0000"/>
     <use xlink:href="#mcfc3bee620" x="233.857892" y="166.762849" style="fill: #ff0000; stroke: #ff0000"/>
     <use xlink:href="#mcfc3bee620" x="231.081323" y="162.494323" style="fill: #ff0000; stroke: #ff0000"/>
     <use xlink:href="#mcfc3bee620" x="227.585625" y="158.811125" style="fill: #ff0000; stroke: #ff0000"/>
     <use xlink:href="#mcfc3bee620" x="223.660233" y="155.726003" style="fill: #ff0000; stroke: #ff0000"/>
     <use xlink:href="#mcfc3bee620" x="219.60799" y="153.132011" style="fill: #ff0000; stroke: #ff0000"/>
     <use xlink:href="#mcfc3bee620" x="215.680427" y="150.820737" style="fill: #ff0000; stroke: #ff0000"/>
     <use xlink:href="#mcfc3bee620" x="212.02103" y="148.532438" style="fill: #ff0000; stroke: #ff0000"/>
     <use xlink:href="#mcfc3bee620" x="208.633724" y="146.029261" style="fill: #ff0000; stroke: #ff0000"/>
     <use xlink:href="#mcfc3bee620" x="205.387879" y="143.175153" style="fill: #ff0000; stroke: #ff0000"/>
     <use xlink:href="#mcfc3bee620" x="202.062731" y="140.000595" style="fill: #ff0000; stroke: #ff0000"/>
     <use xlink:href="#mcfc3bee620" x="198.423781" y="136.726968" style="fill: #ff0000; stroke: #ff0000"/>
     <use xlink:href="#mcfc3bee620" x="194.310308" y="133.730309" style="fill: #ff0000; stroke: #ff0000"/>
     <use xlink:href="#mcfc3bee620" x="189.701779" y="131.444099" style="fill: #ff0000; stroke: #ff0000"/>
     <use xlink:href="#mcfc3bee620" x="184.732888" y="130.230384" style="fill: #ff0000; stroke: #ff0000"/>
     <use xlink:href="#mcfc3bee620" x="179.647619" y="130.270115" style="fill: #ff0000; stroke: #ff0000"/>
     <use xlink:href="#mcfc3bee620" x="174.712953" y="131.519992" style="fill: #ff0000; stroke: #ff0000"/>
     <use xlink:href="#mcfc3bee620" x="170.133846" y="133.752518" style="fill: #ff0000; stroke: #ff0000"/>
     <use xlink:href="#mcfc3bee620" x="166.008118" y="136.654668" style="fill: #ff0000; stroke: #ff0000"/>
     <use xlink:href="#mcfc3bee620" x="162.333692" y="139.933026" style="fill: #ff0000; stroke: #ff0000"/>
     <use xlink:href="#mcfc3bee620" x="159.048416" y="143.377083" style="fill: #ff0000; stroke: #ff0000"/>
     <use xlink:href="#mcfc3bee620" x="156.067299" y="146.864842" style="fill: #ff0000; stroke: #ff0000"/>
     <use xlink:href="#mcfc3bee620" x="153.294339" y="150.332895" style="fill: #ff0000; stroke: #ff0000"/>
     <use xlink:href="#mcfc3bee620" x="150.615127" y="153.749535" style="fill: #ff0000; stroke: #ff0000"/>
     <use xlink:href="#mcfc3bee620" x="147.897153" y="157.114555" style="fill: #ff0000; stroke: #ff0000"/>
     <use xlink:href="#mcfc3bee620" x="145.019223" y="160.478169" style="fill: #ff0000; stroke: #ff0000"/>
     <use xlink:href="#mcfc3bee620" x="141.924306" y="163.951118" style="fill: #ff0000; stroke: #ff0000"/>
     <use xlink:href="#mcfc3bee620" x="138.66507" y="167.684253" style="fill: #ff0000; stroke: #ff0000"/>
     <use xlink:href="#mcfc3bee620" x="135.410409" y="171.821059" style="fill: #ff0000; stroke: #ff0000"/>
     <use xlink:href="#mcfc3bee620" x="132.405903" y="176.448106" style="fill: #ff0000; stroke: #ff0000"/>
     <use xlink:href="#mcfc3bee620" x="129.911186" y="181.568614" style="fill: #ff0000; stroke: #ff0000"/>
     <use xlink:href="#mcfc3bee620" x="128.148285" y="187.105756" style="fill: #ff0000; stroke: #ff0000"/>
     <use xlink:href="#mcfc3bee620" x="127.280032" y="192.922968" style="fill: #ff0000; stroke: #ff0000"/>
     <use xlink:href="#mcfc3bee620" x="127.412278" y="198.844451" style="fill: #ff0000; stroke: #ff0000"/>
     <use xlink:href="#mcfc3bee620" x="128.600239" y="204.669513" style="fill: #ff0000; stroke: #ff0000"/>
     <use xlink:href="#mcfc3bee620" x="130.845839" y="210.186015" style="fill: #ff0000; stroke: #ff0000"/>
     <use xlink:href="#mcfc3bee620" x="134.088531" y="215.189773" style="fill: #ff0000; stroke: #ff0000"/>
     <use xlink:href="#mcfc3bee620" x="138.20102" y="219.509959" style="fill: #ff0000; stroke: #ff0000"/>
     <use xlink:href="#mcfc3bee620" x="142.997973" y="223.034272" style="fill: #ff0000; stroke: #ff0000"/>
     <use xlink:href="#mcfc3bee620" x="148.257324" y="225.727472" style="fill: #ff0000; stroke: #ff0000"/>
     <use xlink:href="#mcfc3bee620" x="153.749348" y="227.639596" style="fill: #ff0000; stroke: #ff0000"/>
     <use xlink:href="#mcfc3bee620" x="159.269528" y="228.899866" style="fill: #ff0000; stroke: #ff0000"/>
     <use xlink:href="#mcfc3bee620" x="164.670952" y="229.689936" style="fill: #ff0000; stroke: #ff0000"/>
     <use xlink:href="#mcfc3bee620" x="169.886693" y="230.194211" style="fill: #ff0000; stroke: #ff0000"/>
     <use xlink:href="#mcfc3bee620" x="174.928738" y="230.539415" style="fill: #ff0000; stroke: #ff0000"/>
     <use xlink:href="#mcfc3bee620" x="179.857444" y="230.750471" style="fill: #ff0000; stroke: #ff0000"/>
     <use xlink:href="#mcfc3bee620" x="184.732888" y="230.748463" style="fill: #ff0000; stroke: #ff0000"/>
     <use xlink:href="#mcfc3bee620" x="189.573061" y="230.394661" style="fill: #ff0000; stroke: #ff0000"/>
     <use xlink:href="#mcfc3bee620" x="194.340387" y="229.557161" style="fill: #ff0000; stroke: #ff0000"/>
     <use xlink:href="#mcfc3bee620" x="198.959455" y="228.164748" style="fill: #ff0000; stroke: #ff0000"/>
     <use xlink:href="#mcfc3bee620" x="203.349947" y="226.2242" style="fill: #ff0000; stroke: #ff0000"/>
     <use xlink:href="#mcfc3bee620" x="207.453602" y="223.801839" style="fill: #ff0000; stroke: #ff0000"/>
     <use xlink:href="#mcfc3bee620" x="211.24381" y="220.989036" style="fill: #ff0000; stroke: #ff0000"/>
     <use xlink:href="#mcfc3bee620" x="214.721226" y="217.873763" style="fill: #ff0000; stroke: #ff0000"/>
     <use xlink:href="#mcfc3bee620" x="217.90662" y="214.528322" style="fill: #ff0000; stroke: #ff0000"/>
     <use xlink:href="#mcfc3bee620" x="220.838679" y="211.008702" style="fill: #ff0000; stroke: #ff0000"/>
     <use xlink:href="#mcfc3bee620" x="223.57392" y="207.353925" style="fill: #ff0000; stroke: #ff0000"/>
     <use xlink:href="#mcfc3bee620" x="226.17735" y="203.578221" style="fill: #ff0000; stroke: #ff0000"/>
     <use xlink:href="#mcfc3bee620" x="228.694645" y="199.660689" style="fill: #ff0000; stroke: #ff0000"/>
     <use xlink:href="#mcfc3bee620" x="231.110689" y="195.546402" style="fill: #ff0000; stroke: #ff0000"/>
     <use xlink:href="#mcfc3bee620" x="233.316458" y="191.17014" style="fill: #ff0000; stroke: #ff0000"/>
     <use xlink:href="#mcfc3bee620" x="235.110243" y="186.49834" style="fill: #ff0000; stroke: #ff0000"/>
    </g>
   </g>
   <g id="matplotlib.axis_1">
    <g id="xtick_1">
     <g id="line2d_1">
      <defs>
       <path id="md90eb8d6fb" d="M 0 0 
L 0 3.5 
" style="stroke: #000000; stroke-width: 0.8"/>
      </defs>
      <g>
       <use xlink:href="#md90eb8d6fb" x="45" y="320.4" style="stroke: #000000; stroke-width: 0.8"/>
      </g>
     </g>
     <g id="text_1">
      <!-- −3 -->
      <g transform="translate(37.628906 334.998438)scale(0.1 -0.1)">
       <defs>
        <path id="DejaVuSans-2212" d="M 678 2272 
L 4684 2272 
L 4684 1741 
L 678 1741 
L 678 2272 
z
" transform="scale(0.015625)"/>
        <path id="DejaVuSans-33" d="M 2597 2516 
Q 3050 2419 3304 2112 
Q 3559 1806 3559 1356 
Q 3559 666 3084 287 
Q 2609 -91 1734 -91 
Q 1441 -91 1130 -33 
Q 819 25 488 141 
L 488 750 
Q 750 597 1062 519 
Q 1375 441 1716 441 
Q 2309 441 2620 675 
Q 2931 909 2931 1356 
Q 2931 1769 2642 2001 
Q 2353 2234 1838 2234 
L 1294 2234 
L 1294 2753 
L 1863 2753 
Q 2328 2753 2575 2939 
Q 2822 3125 2822 3475 
Q 2822 3834 2567 4026 
Q 2313 4219 1838 4219 
Q 1578 4219 1281 4162 
Q 984 4106 628 3988 
L 628 4550 
Q 988 4650 1302 4700 
Q 1616 4750 1894 4750 
Q 2613 4750 3031 4423 
Q 3450 4097 3450 3541 
Q 3450 3153 3228 2886 
Q 3006 2619 2597 2516 
z
" transform="scale(0.015625)"/>
       </defs>
       <use xlink:href="#DejaVuSans-2212"/>
       <use xlink:href="#DejaVuSans-33" x="83.789062"/>
      </g>
     </g>
    </g>
    <g id="xtick_2">
     <g id="line2d_2">
      <g>
       <use xlink:href="#md90eb8d6fb" x="91.577629" y="320.4" style="stroke: #000000; stroke-width: 0.8"/>
      </g>
     </g>
     <g id="text_2">
      <!-- −2 -->
      <g transform="translate(84.206536 334.998438)scale(0.1 -0.1)">
       <defs>
        <path id="DejaVuSans-32" d="M 1228 531 
L 3431 531 
L 3431 0 
L 469 0 
L 469 531 
Q 828 903 1448 1529 
Q 2069 2156 2228 2338 
Q 2531 2678 2651 2914 
Q 2772 3150 2772 3378 
Q 2772 3750 2511 3984 
Q 2250 4219 1831 4219 
Q 1534 4219 1204 4116 
Q 875 4013 500 3803 
L 500 4441 
Q 881 4594 1212 4672 
Q 1544 4750 1819 4750 
Q 2544 4750 2975 4387 
Q 3406 4025 3406 3419 
Q 3406 3131 3298 2873 
Q 3191 2616 2906 2266 
Q 2828 2175 2409 1742 
Q 1991 1309 1228 531 
z
" transform="scale(0.015625)"/>
       </defs>
       <use xlink:href="#DejaVuSans-2212"/>
       <use xlink:href="#DejaVuSans-32" x="83.789062"/>
      </g>
     </g>
    </g>
    <g id="xtick_3">
     <g id="line2d_3">
      <g>
       <use xlink:href="#md90eb8d6fb" x="138.155259" y="320.4" style="stroke: #000000; stroke-width: 0.8"/>
      </g>
     </g>
     <g id="text_3">
      <!-- −1 -->
      <g transform="translate(130.784165 334.998438)scale(0.1 -0.1)">
       <defs>
        <path id="DejaVuSans-31" d="M 794 531 
L 1825 531 
L 1825 4091 
L 703 3866 
L 703 4441 
L 1819 4666 
L 2450 4666 
L 2450 531 
L 3481 531 
L 3481 0 
L 794 0 
L 794 531 
z
" transform="scale(0.015625)"/>
       </defs>
       <use xlink:href="#DejaVuSans-2212"/>
       <use xlink:href="#DejaVuSans-31" x="83.789062"/>
      </g>
     </g>
    </g>
    <g id="xtick_4">
     <g id="line2d_4">
      <g>
       <use xlink:href="#md90eb8d6fb" x="184.732888" y="320.4" style="stroke: #000000; stroke-width: 0.8"/>
      </g>
     </g>
     <g id="text_4">
      <!-- 0 -->
      <g transform="translate(181.551638 334.998438)scale(0.1 -0.1)">
       <defs>
        <path id="DejaVuSans-30" d="M 2034 4250 
Q 1547 4250 1301 3770 
Q 1056 3291 1056 2328 
Q 1056 1369 1301 889 
Q 1547 409 2034 409 
Q 2525 409 2770 889 
Q 3016 1369 3016 2328 
Q 3016 3291 2770 3770 
Q 2525 4250 2034 4250 
z
M 2034 4750 
Q 2819 4750 3233 4129 
Q 3647 3509 3647 2328 
Q 3647 1150 3233 529 
Q 2819 -91 2034 -91 
Q 1250 -91 836 529 
Q 422 1150 422 2328 
Q 422 3509 836 4129 
Q 1250 4750 2034 4750 
z
" transform="scale(0.015625)"/>
       </defs>
       <use xlink:href="#DejaVuSans-30"/>
      </g>
     </g>
    </g>
    <g id="xtick_5">
     <g id="line2d_5">
      <g>
       <use xlink:href="#md90eb8d6fb" x="231.310518" y="320.4" style="stroke: #000000; stroke-width: 0.8"/>
      </g>
     </g>
     <g id="text_5">
      <!-- 1 -->
      <g transform="translate(228.129268 334.998438)scale(0.1 -0.1)">
       <use xlink:href="#DejaVuSans-31"/>
      </g>
     </g>
    </g>
    <g id="xtick_6">
     <g id="line2d_6">
      <g>
       <use xlink:href="#md90eb8d6fb" x="277.888147" y="320.4" style="stroke: #000000; stroke-width: 0.8"/>
      </g>
     </g>
     <g id="text_6">
      <!-- 2 -->
      <g transform="translate(274.706897 334.998438)scale(0.1 -0.1)">
       <use xlink:href="#DejaVuSans-32"/>
      </g>
     </g>
    </g>
   </g>
   <g id="matplotlib.axis_2">
    <g id="ytick_1">
     <g id="line2d_7">
      <defs>
       <path id="m6c0175da98" d="M 0 0 
L -3.5 0 
" style="stroke: #000000; stroke-width: 0.8"/>
      </defs>
      <g>
       <use xlink:href="#m6c0175da98" x="45" y="320.4" style="stroke: #000000; stroke-width: 0.8"/>
      </g>
     </g>
     <g id="text_7">
      <!-- −3 -->
      <g transform="translate(23.257812 324.199219)scale(0.1 -0.1)">
       <use xlink:href="#DejaVuSans-2212"/>
       <use xlink:href="#DejaVuSans-33" x="83.789062"/>
      </g>
     </g>
    </g>
    <g id="ytick_2">
     <g id="line2d_8">
      <g>
       <use xlink:href="#m6c0175da98" x="45" y="274.122871" style="stroke: #000000; stroke-width: 0.8"/>
      </g>
     </g>
     <g id="text_8">
      <!-- −2 -->
      <g transform="translate(23.257812 277.92209)scale(0.1 -0.1)">
       <use xlink:href="#DejaVuSans-2212"/>
       <use xlink:href="#DejaVuSans-32" x="83.789062"/>
      </g>
     </g>
    </g>
    <g id="ytick_3">
     <g id="line2d_9">
      <g>
       <use xlink:href="#m6c0175da98" x="45" y="227.845743" style="stroke: #000000; stroke-width: 0.8"/>
      </g>
     </g>
     <g id="text_9">
      <!-- −1 -->
      <g transform="translate(23.257812 231.644962)scale(0.1 -0.1)">
       <use xlink:href="#DejaVuSans-2212"/>
       <use xlink:href="#DejaVuSans-31" x="83.789062"/>
      </g>
     </g>
    </g>
    <g id="ytick_4">
     <g id="line2d_10">
      <g>
       <use xlink:href="#m6c0175da98" x="45" y="181.568614" style="stroke: #000000; stroke-width: 0.8"/>
      </g>
     </g>
     <g id="text_10">
      <!-- 0 -->
      <g transform="translate(31.6375 185.367833)scale(0.1 -0.1)">
       <use xlink:href="#DejaVuSans-30"/>
      </g>
     </g>
    </g>
    <g id="ytick_5">
     <g id="line2d_11">
      <g>
       <use xlink:href="#m6c0175da98" x="45" y="135.291486" style="stroke: #000000; stroke-width: 0.8"/>
      </g>
     </g>
     <g id="text_11">
      <!-- 1 -->
      <g transform="translate(31.6375 139.090705)scale(0.1 -0.1)">
       <use xlink:href="#DejaVuSans-31"/>
      </g>
     </g>
    </g>
    <g id="ytick_6">
     <g id="line2d_12">
      <g>
       <use xlink:href="#m6c0175da98" x="45" y="89.014357" style="stroke: #000000; stroke-width: 0.8"/>
      </g>
     </g>
     <g id="text_12">
      <!-- 2 -->
      <g transform="translate(31.6375 92.813576)scale(0.1 -0.1)">
       <use xlink:href="#DejaVuSans-32"/>
      </g>
     </g>
    </g>
   </g>
   <g id="PathCollection_2">
    <path d="M 161.90985 206.684032 
L 161.596744 206.558264 
L 161.444073 206.495604 
L 160.978297 206.304809 
L 160.512521 206.113663 
L 160.469219 206.095492 
L 160.046745 205.885018 
L 159.739877 205.632721 
L 159.580968 205.469553 
L 159.278335 205.16995 
L 159.115192 205.003137 
L 158.808806 204.707179 
L 158.649416 204.567773 
L 158.270131 204.244407 
L 158.183639 204.171672 
L 157.720754 203.781636 
L 157.717863 203.779186 
L 157.252087 203.384498 
L 157.174634 203.318865 
L 156.786311 202.989811 
L 156.66395 202.856093 
L 156.413495 202.393322 
L 156.320534 202.20632 
L 156.183454 201.930551 
L 155.956524 201.46778 
L 155.854758 201.164078 
L 155.805602 201.005008 
L 155.624752 200.542237 
L 155.443912 200.079466 
L 155.388982 199.938907 
L 155.263064 199.616694 
L 155.082217 199.153923 
L 154.923205 198.747018 
L 154.901374 198.691152 
L 154.747372 198.228381 
L 154.6282 197.765609 
L 154.509025 197.302838 
L 154.457429 197.102475 
L 154.389859 196.840067 
L 154.270689 196.377295 
L 154.151516 195.914524 
L 154.032348 195.451753 
L 153.991653 195.293719 
L 153.91318 194.988982 
L 153.845614 194.52621 
L 153.803577 194.063439 
L 153.761533 193.600668 
L 153.719486 193.137896 
L 153.677443 192.675125 
L 153.635403 192.212354 
L 153.593354 191.749583 
L 153.551319 191.286811 
L 153.525876 191.006726 
L 153.509282 190.82404 
L 153.467235 190.361269 
L 153.425196 189.898497 
L 153.383155 189.435726 
L 153.341115 188.972955 
L 153.322742 188.510184 
L 153.425524 188.047412 
L 153.520062 187.584641 
L 153.525876 187.56832 
L 153.7007 187.12187 
L 153.897842 186.659098 
L 153.991653 186.450912 
L 154.108725 186.196327 
L 154.314892 185.733556 
L 154.457429 185.417237 
L 154.523422 185.270785 
L 154.731951 184.808013 
L 154.923205 184.383582 
L 154.940482 184.345242 
L 155.152866 183.882471 
L 155.388982 183.439182 
L 155.401021 183.419699 
L 155.778026 182.956928 
L 155.854758 182.86274 
L 156.15504 182.494157 
L 156.320534 182.291013 
L 156.53205 182.031386 
L 156.786311 181.719286 
L 156.909058 181.568614 
L 157.221037 181.105843 
L 157.252087 181.042194 
L 157.446788 180.643072 
L 157.672536 180.180301 
L 157.717863 180.08738 
L 157.898284 179.717529 
L 158.124036 179.254758 
L 158.183639 179.132578 
L 158.349788 178.791987 
L 158.575535 178.329215 
L 158.649416 178.177766 
L 158.801285 177.866444 
L 159.027033 177.403673 
L 159.115192 177.230165 
L 159.259263 176.940902 
L 159.514343 176.47813 
L 159.580968 176.360869 
L 159.790231 176.015359 
L 160.046745 175.729773 
L 160.220641 175.552588 
L 160.512521 175.255194 
L 160.674829 175.089816 
L 160.978297 174.780609 
L 161.129014 174.627045 
L 161.444073 174.306028 
L 161.583196 174.164274 
L 161.90985 173.83145 
L 162.037387 173.701503 
L 162.375626 173.356864 
L 162.491565 173.238731 
L 162.841402 172.882276 
L 162.945746 172.77596 
L 163.307179 172.407698 
L 163.399935 172.313189 
L 163.772955 171.933111 
L 163.854113 171.850417 
L 164.238731 171.458532 
L 164.308302 171.387646 
L 164.704508 170.98395 
L 164.762487 170.924875 
L 165.170284 170.509365 
L 165.216669 170.462104 
L 165.63606 170.034788 
L 165.670858 169.999332 
L 166.101836 169.560199 
L 166.125036 169.536561 
L 166.567613 169.085618 
L 166.579222 169.07379 
L 167.033389 168.611041 
L 167.033411 168.611018 
L 167.487591 168.148247 
L 167.499165 168.136454 
L 167.941782 167.685476 
L 167.964942 167.661879 
L 168.395964 167.222705 
L 168.430718 167.187293 
L 168.850142 166.759933 
L 168.896494 166.712705 
L 169.304342 166.297162 
L 169.36227 166.238138 
L 169.758526 165.834391 
L 169.828047 165.763555 
L 170.212707 165.371619 
L 170.293823 165.277302 
L 170.587229 164.908848 
L 170.759599 164.674936 
L 170.928246 164.446077 
L 171.225376 163.996709 
L 171.233221 163.983306 
L 171.470726 163.520534 
L 171.691152 163.091052 
L 171.708237 163.057763 
L 171.94575 162.594992 
L 172.156928 162.183527 
L 172.186659 162.13222 
L 172.579313 161.669449 
L 172.622705 161.62335 
L 173.015279 161.206678 
L 173.088481 161.128932 
L 173.451219 160.743907 
L 173.554257 160.634538 
L 173.887213 160.281135 
L 174.020033 160.140157 
L 174.323199 159.818364 
L 174.48581 159.645766 
L 174.770256 159.355593 
L 174.951586 159.169051 
L 175.283707 158.892821 
L 175.417362 158.781724 
L 175.840136 158.43005 
L 175.883139 158.394441 
L 176.348915 158.008044 
L 176.416355 157.967279 
L 176.814691 157.749162 
L 177.257333 157.504508 
L 177.280467 157.491849 
L 177.746244 157.231209 
L 178.078621 157.041736 
L 178.21202 156.966261 
L 178.677796 156.743602 
L 179.143573 156.649327 
L 179.491154 156.578965 
L 179.609349 156.555038 
L 180.075125 156.460747 
L 180.540902 156.365165 
L 181.006678 156.262561 
L 181.472454 156.159843 
L 181.670407 156.116194 
L 181.93823 156.057136 
L 182.404007 155.991423 
L 182.869783 156.00209 
L 183.335559 156.012763 
L 183.801336 156.023443 
L 184.267112 156.034112 
L 184.732888 156.044785 
L 185.198664 156.055456 
L 185.664441 156.06613 
L 186.130217 156.076809 
L 186.595993 156.087481 
L 187.06177 156.098159 
L 187.527546 156.109609 
L 187.676815 156.116194 
L 187.993322 156.130222 
L 188.459098 156.249869 
L 188.924875 156.470692 
L 189.151008 156.578965 
L 189.390651 156.710485 
L 189.856427 156.993097 
L 189.95224 157.041736 
L 190.322204 157.226589 
L 190.78798 157.459316 
L 190.847724 157.504508 
L 191.253756 157.806252 
L 191.416437 157.967279 
L 191.719533 158.265683 
L 191.875021 158.43005 
L 192.185309 158.758052 
L 192.3128 158.892821 
L 192.651085 159.250421 
L 192.750576 159.355593 
L 193.116861 159.742797 
L 193.188346 159.818364 
L 193.582638 160.235165 
L 193.626124 160.281135 
L 194.048414 160.727538 
L 194.063898 160.743907 
L 194.501506 161.206678 
L 194.51419 161.220147 
L 194.937444 161.669449 
L 194.979967 161.714601 
L 195.373267 162.13222 
L 195.445743 162.209178 
L 195.809092 162.594992 
L 195.911519 162.703752 
L 196.244908 163.057763 
L 196.377295 163.198338 
L 196.680727 163.520534 
L 196.843072 163.692918 
L 197.116546 163.983306 
L 197.308848 164.187074 
L 197.552797 164.446077 
L 197.774624 164.680927 
L 197.989344 164.908848 
L 198.240401 165.174599 
L 198.426262 165.371619 
L 198.706177 165.667895 
L 198.863481 165.834391 
L 199.171953 166.160887 
L 199.300704 166.297162 
L 199.63773 166.653875 
L 199.732694 166.759933 
L 200.003339 167.222705 
L 200.103506 167.434172 
L 200.222544 167.685476 
L 200.441741 168.148247 
L 200.569282 168.417505 
L 200.660945 168.611018 
L 200.898483 169.07379 
L 201.035058 169.307181 
L 201.169284 169.536561 
L 201.440074 169.999332 
L 201.500835 170.129606 
L 201.64786 170.462104 
L 201.818351 170.924875 
L 201.966611 171.327297 
L 201.988845 171.387646 
L 202.159335 171.850417 
L 202.325127 172.313189 
L 202.403541 172.77596 
L 202.432387 172.879176 
L 202.541342 173.238731 
L 202.681575 173.701503 
L 202.821805 174.164274 
L 202.898164 174.416265 
L 202.962034 174.627045 
L 203.102264 175.089816 
L 203.242494 175.552588 
L 203.36394 175.953378 
L 203.382721 176.015359 
L 203.522954 176.47813 
L 203.66318 176.940902 
L 203.803411 177.403673 
L 203.829716 177.490479 
L 203.943644 177.866444 
L 204.083873 178.329215 
L 204.215073 178.791987 
L 204.241391 179.254758 
L 204.262084 179.717529 
L 204.282775 180.180301 
L 204.295492 180.464766 
L 204.303464 180.643072 
L 204.324159 181.105843 
L 204.344851 181.568614 
L 204.365543 182.031386 
L 204.386234 182.494157 
L 204.406928 182.956928 
L 204.436159 183.419699 
L 204.470342 183.882471 
L 204.504518 184.345242 
L 204.570237 184.808013 
L 204.690421 185.270785 
L 204.761269 185.542088 
L 204.811268 185.733556 
L 204.93561 186.196327 
L 204.968894 186.659098 
L 204.959992 187.12187 
L 204.940239 187.584641 
L 204.920484 188.047412 
L 204.89988 188.510184 
L 204.858103 188.972955 
L 204.761269 189.321133 
L 204.725478 189.435726 
L 204.581347 189.898497 
L 204.43821 190.361269 
L 204.451729 190.82404 
L 204.398308 191.286811 
L 204.295492 191.668275 
L 204.276033 191.749583 
L 204.14425 192.212354 
L 203.980112 192.675125 
L 203.829716 192.916479 
L 203.716144 193.137896 
L 203.36394 193.530884 
L 203.313445 193.600668 
L 202.993175 194.063439 
L 202.898164 194.172383 
L 202.591543 194.52621 
L 202.432387 194.707362 
L 201.966611 194.986976 
L 201.96345 194.988982 
L 201.618708 195.451753 
L 201.500835 195.610823 
L 201.275792 195.914524 
L 201.035058 196.239393 
L 200.932871 196.377295 
L 200.569282 196.838862 
L 200.567313 196.840067 
L 200.103506 197.010383 
L 199.63773 197.08145 
L 199.171953 197.273482 
L 199.104435 197.302838 
L 198.706177 197.476 
L 198.240401 197.678919 
L 198.04238 197.765609 
L 197.774624 197.88364 
L 197.308848 198.093741 
L 197.01726 198.228381 
L 196.843072 198.311885 
L 196.377295 198.535181 
L 196.051935 198.691152 
L 195.911519 198.758465 
L 195.445743 199.013739 
L 195.194329 199.153923 
L 194.979967 199.271436 
L 194.51419 199.486034 
L 194.220122 199.616694 
L 194.048414 199.68598 
L 193.582638 199.873921 
L 193.116861 200.061869 
L 193.06886 200.079466 
L 192.651085 200.239761 
L 192.185309 200.372091 
L 191.719533 200.503783 
L 191.585429 200.542237 
L 191.253756 200.6423 
L 190.78798 200.78282 
L 190.322204 200.92529 
L 190.074003 201.005008 
L 189.856427 201.092334 
L 189.390651 201.279999 
L 188.927051 201.46778 
L 188.924875 201.468723 
L 188.459098 201.668582 
L 187.993322 201.593728 
L 187.527546 201.488473 
L 187.409443 201.46778 
L 187.06177 201.394772 
L 186.595993 201.296967 
L 186.130217 201.199157 
L 185.664441 201.122262 
L 185.198664 201.240603 
L 184.732888 201.375683 
L 184.415307 201.46778 
L 184.267112 201.510755 
L 183.801336 201.645829 
L 183.335559 201.780897 
L 182.869783 201.915968 
L 182.819493 201.930551 
L 182.404007 202.051037 
L 181.93823 202.186113 
L 181.472454 202.231849 
L 181.006678 202.249027 
L 180.540902 202.266206 
L 180.075125 202.283386 
L 179.609349 202.300567 
L 179.143573 202.317742 
L 178.677796 202.334923 
L 178.21202 202.352107 
L 177.746244 202.369283 
L 177.280467 202.386557 
L 177.247689 202.393322 
L 176.814691 202.488248 
L 176.348915 202.624009 
L 175.883139 202.751174 
L 175.473878 202.856093 
L 175.417362 202.866701 
L 174.951586 202.954115 
L 174.48581 203.041535 
L 174.020033 203.105462 
L 173.554257 203.206473 
L 173.088481 203.307585 
L 172.622705 203.311277 
L 172.550735 203.318865 
L 172.156928 203.360383 
L 171.691152 203.405471 
L 171.225376 203.44599 
L 170.759599 203.535419 
L 170.293823 203.693711 
L 170.062096 203.781636 
L 169.828047 203.877688 
L 169.36227 204.068839 
L 168.934463 204.244407 
L 168.896494 204.259989 
L 168.430718 204.451143 
L 167.964942 204.642296 
L 167.82112 204.707179 
L 167.499165 204.846698 
L 167.033389 205.075907 
L 166.843341 205.16995 
L 166.567613 205.306388 
L 166.101836 205.536873 
L 165.908142 205.632721 
L 165.63606 205.767358 
L 165.170284 205.997846 
L 164.972959 206.095492 
L 164.704508 206.228335 
L 164.238731 206.458814 
L 163.934583 206.558264 
L 163.772955 206.619595 
L 163.307179 206.660531 
L 162.841402 206.694106 
L 162.375626 206.723497 
L 161.90985 206.684032 
z
" clip-path="url(#p97a59cedfb)" style="fill: none; stroke-dasharray: 5.55,2.4; stroke-dashoffset: 0; stroke: #000000; stroke-width: 1.5"/>
   </g>
   <g id="PathCollection_3">
    <path d="M 180.075125 231.164044 
L 179.830944 231.085142 
L 179.609349 231.05965 
L 179.143573 231.001392 
L 178.677796 230.995886 
L 178.21202 230.983136 
L 177.746244 230.969245 
L 177.280467 230.954052 
L 176.814691 230.937364 
L 176.348915 230.909403 
L 175.883139 230.846026 
L 175.417362 230.728821 
L 175.183748 230.622371 
L 174.951586 230.58131 
L 174.48581 230.498944 
L 174.020033 230.461603 
L 173.554257 230.48423 
L 173.088481 230.510395 
L 172.622705 230.579224 
L 172.156928 230.58968 
L 171.691152 230.514093 
L 171.225376 230.472745 
L 170.759599 230.433801 
L 170.293823 230.375237 
L 169.828047 230.277232 
L 169.506891 230.159599 
L 169.36227 230.136129 
L 168.896494 230.060536 
L 168.430718 229.999369 
L 167.964942 229.961442 
L 167.499165 229.906215 
L 167.033389 229.836445 
L 166.567613 229.760465 
L 166.278447 229.696828 
L 166.101836 229.682114 
L 165.63606 229.640777 
L 165.170284 229.645201 
L 164.704508 229.61558 
L 164.238731 229.56687 
L 163.772955 229.485566 
L 163.307179 229.322523 
L 163.164843 229.234057 
L 162.841402 229.176011 
L 162.375626 229.11984 
L 161.90985 229.07733 
L 161.444073 229.015267 
L 160.978297 228.916105 
L 160.59804 228.771285 
L 160.512521 228.754391 
L 160.046745 228.662627 
L 159.580968 228.577784 
L 159.115192 228.515357 
L 158.649416 228.432208 
L 158.271717 228.308514 
L 158.183639 228.283128 
L 157.717863 228.141485 
L 157.252087 228.03091 
L 156.786311 227.91799 
L 156.628338 227.845743 
L 156.320534 227.726997 
L 155.854758 227.590335 
L 155.388982 227.467803 
L 155.216894 227.382972 
L 154.923205 227.275613 
L 154.457429 227.123427 
L 154.094199 226.9202 
L 153.991653 226.866891 
L 153.525876 226.707449 
L 153.0601 226.685992 
L 152.594324 226.655707 
L 152.128548 226.591814 
L 151.691788 226.457429 
L 151.662771 226.454291 
L 151.196995 226.383963 
L 150.731219 226.256623 
L 150.265442 226.206591 
L 149.799666 226.133221 
L 149.33389 226.000367 
L 149.319824 225.994658 
L 148.868114 225.928393 
L 148.402337 225.861133 
L 147.936561 225.828995 
L 147.470785 225.742549 
L 147.253695 225.531886 
L 147.005008 225.345081 
L 146.637625 225.069115 
L 146.539232 224.995205 
L 146.073456 224.683498 
L 145.993464 224.606344 
L 145.607679 224.350364 
L 145.395277 224.143573 
L 145.141903 223.95556 
L 144.789449 223.680801 
L 144.676127 223.595679 
L 144.210351 223.278403 
L 144.147571 223.21803 
L 143.744574 222.959362 
L 143.534651 222.755259 
L 143.278798 222.568578 
L 142.941265 222.292487 
L 142.813022 222.196154 
L 142.347245 221.86961 
L 142.305611 221.829716 
L 141.881469 221.56605 
L 141.676515 221.366945 
L 141.415693 221.172549 
L 141.123683 220.904174 
L 140.949917 220.764621 
L 140.559105 220.441402 
L 140.48414 220.379161 
L 140.018364 220.012806 
L 139.983339 219.978631 
L 139.552588 219.63479 
L 139.414442 219.51586 
L 139.086811 219.179491 
L 138.927808 219.053088 
L 138.621035 218.735047 
L 138.424009 218.590317 
L 138.155259 218.306632 
L 137.867061 218.127546 
L 137.689482 217.868838 
L 137.377149 217.664775 
L 137.227078 217.202003 
L 137.223706 217.196765 
L 136.768207 216.739232 
L 136.75793 216.716158 
L 136.325984 216.276461 
L 136.29438 215.813689 
L 136.292154 215.810388 
L 135.8341 215.350918 
L 135.826377 215.335935 
L 135.383902 214.888147 
L 135.360601 214.529112 
L 135.279211 214.425376 
L 134.900559 213.962604 
L 134.894825 213.952541 
L 134.445884 213.499833 
L 134.429048 213.431565 
L 134.054482 213.037062 
L 133.967415 212.57429 
L 133.963272 212.568164 
L 133.507899 212.111519 
L 133.497496 212.091689 
L 133.059112 211.648748 
L 133.03172 211.367131 
L 132.876216 211.185977 
L 132.569718 210.723205 
L 132.565943 210.71759 
L 132.110004 210.260434 
L 132.100167 210.241163 
L 131.664757 209.797663 
L 131.636041 209.334891 
L 131.634391 209.332056 
L 131.17784 208.87212 
L 131.168614 208.839533 
L 130.755836 208.409349 
L 130.705774 207.946578 
L 130.702838 207.940992 
L 130.250608 207.483806 
L 130.237062 207.350256 
L 129.954061 207.021035 
L 129.780684 206.558264 
L 129.772048 206.095492 
L 129.771285 206.091993 
L 129.336233 205.632721 
L 129.309207 205.16995 
L 129.305509 204.928937 
L 129.210803 204.707179 
L 128.852937 204.244407 
L 128.839733 203.838323 
L 128.815524 203.781636 
L 128.617883 203.318865 
L 128.376764 202.856093 
L 128.373957 202.730536 
L 128.251069 202.393322 
L 128.088034 201.930551 
L 127.909256 201.46778 
L 127.90818 201.420036 
L 127.761957 201.005008 
L 127.598928 200.542237 
L 127.442404 200.097963 
L 127.435887 200.079466 
L 127.272851 199.616694 
L 127.115024 199.153923 
L 126.980216 198.691152 
L 126.976628 198.564105 
L 126.898596 198.228381 
L 126.791037 197.765609 
L 126.683481 197.302838 
L 126.613856 196.840067 
L 126.646219 196.377295 
L 126.67858 195.914524 
L 126.710947 195.451753 
L 126.743302 194.988982 
L 126.775662 194.52621 
L 126.866623 194.063439 
L 126.963722 193.600668 
L 126.976628 193.539155 
L 127.007081 193.137896 
L 127.157912 192.675125 
L 127.257022 192.212354 
L 127.423208 191.749583 
L 127.442404 191.7016 
L 127.608341 191.286811 
L 127.793467 190.82404 
L 127.90818 190.537287 
L 127.978596 190.361269 
L 128.163723 189.898497 
L 128.348854 189.435726 
L 128.373957 189.372977 
L 128.533982 188.972955 
L 128.719117 188.510184 
L 128.839733 188.208665 
L 128.904239 188.047412 
L 129.089372 187.584641 
L 129.274503 187.12187 
L 129.305509 187.044363 
L 129.45963 186.659098 
L 129.644756 186.196327 
L 129.771285 185.880033 
L 129.829882 185.733556 
L 130.015007 185.270785 
L 130.200138 184.808013 
L 130.237062 184.710408 
L 130.368397 184.345242 
L 130.525744 183.882471 
L 130.683089 183.419699 
L 130.702838 183.361617 
L 130.840438 182.956928 
L 131.002954 182.494157 
L 131.168614 182.092529 
L 131.189563 182.031386 
L 131.428355 181.568614 
L 131.634391 181.190179 
L 131.680307 181.105843 
L 131.93225 180.643072 
L 132.100167 180.334643 
L 132.184196 180.180301 
L 132.436145 179.717529 
L 132.565943 179.479118 
L 132.688089 179.254758 
L 132.940031 178.791987 
L 133.03172 178.623573 
L 133.191977 178.329215 
L 133.443928 177.866444 
L 133.497496 177.768049 
L 133.695865 177.403673 
L 133.947817 176.940902 
L 133.963272 176.912514 
L 134.19976 176.47813 
L 134.429048 176.056988 
L 134.430407 176.015359 
L 134.703656 175.552588 
L 134.894825 175.201457 
L 134.898847 175.089816 
L 135.20754 174.627045 
L 135.360601 174.345903 
L 135.367906 174.164274 
L 135.711434 173.701503 
L 135.826377 173.490373 
L 135.837829 173.238731 
L 136.235351 172.77596 
L 136.292154 172.704467 
L 136.624578 172.313189 
L 136.75793 172.15369 
L 136.831699 171.850417 
L 137.223706 171.422267 
L 137.227793 171.387646 
L 137.589419 170.924875 
L 137.689482 170.751124 
L 137.697436 170.462104 
L 138.122431 169.999332 
L 138.155259 169.942329 
L 138.168553 169.536561 
L 138.621035 169.075783 
L 138.62187 169.07379 
L 138.639692 168.611018 
L 139.086811 168.152173 
L 139.088219 168.148247 
L 139.103541 167.685476 
L 139.552588 167.226584 
L 139.554109 167.222705 
L 139.567826 166.759933 
L 140.018364 166.301005 
L 140.019987 166.297162 
L 140.035449 165.834391 
L 140.48414 165.383367 
L 140.490941 165.371619 
L 140.949917 164.912737 
L 140.952659 164.908848 
L 140.988561 164.446077 
L 141.415693 164.014417 
L 141.430136 163.983306 
L 141.881469 163.530596 
L 141.887857 163.520534 
L 142.347245 163.062638 
L 142.352093 163.057763 
L 142.813022 162.599587 
L 142.817592 162.594992 
L 143.253051 162.13222 
L 143.278798 162.106242 
L 143.595379 161.669449 
L 143.744574 161.51954 
L 143.99011 161.206678 
L 144.210351 160.98591 
L 144.409578 160.743907 
L 144.676127 160.477135 
L 144.84287 160.281135 
L 145.141903 159.982177 
L 145.284524 159.818364 
L 145.607679 159.495552 
L 145.731745 159.355593 
L 146.073456 159.014455 
L 146.182765 158.892821 
L 146.539232 158.53713 
L 146.636545 158.43005 
L 147.005008 158.062534 
L 147.092377 157.967279 
L 147.470785 157.589972 
L 147.549806 157.504508 
L 147.936561 157.118983 
L 148.008445 157.041736 
L 148.402337 156.649191 
L 148.46804 156.578965 
L 148.868114 156.180343 
L 148.921654 156.116194 
L 149.33389 155.696858 
L 149.352677 155.653422 
L 149.799666 155.203598 
L 149.807927 155.190651 
L 150.265442 154.732346 
L 150.268726 154.72788 
L 150.32525 154.265109 
L 150.731219 153.848017 
L 150.749403 153.802337 
L 151.196995 153.351558 
L 151.204479 153.339566 
L 151.662771 152.88034 
L 151.665351 152.876795 
L 151.727911 152.414023 
L 152.128548 151.999981 
L 152.14605 151.951252 
L 152.594324 151.499392 
L 152.60097 151.488481 
L 153.0601 151.028262 
L 153.061937 151.02571 
L 153.132789 150.562938 
L 153.525876 150.153275 
L 153.542607 150.100167 
L 153.991653 149.646102 
L 153.99526 149.637396 
L 154.053973 149.174624 
L 154.457429 148.76416 
L 154.4752 148.711853 
L 154.624287 148.249082 
L 154.923205 147.945948 
L 155.032329 147.786311 
L 155.388982 147.429157 
L 155.469316 147.323539 
L 155.854758 146.938283 
L 155.917382 146.860768 
L 156.320534 146.458274 
L 156.371167 146.397997 
L 156.786311 145.983857 
L 156.828285 145.935225 
L 157.252087 145.51291 
L 157.287715 145.472454 
L 157.717863 145.044222 
L 157.748756 145.009683 
L 158.183639 144.576832 
L 158.210733 144.546912 
L 158.649416 144.110356 
L 158.673392 144.08414 
L 159.115192 143.644546 
L 159.136564 143.621369 
L 159.431881 143.158598 
L 159.580968 143.007773 
L 159.760878 142.695826 
L 160.046745 142.408807 
L 160.17033 142.233055 
L 160.512521 141.890547 
L 160.605364 141.770284 
L 160.978297 141.397635 
L 161.051791 141.307513 
L 161.444073 140.915996 
L 161.504306 140.844741 
L 161.90985 140.440776 
L 161.960852 140.38197 
L 162.375626 139.968955 
L 162.419606 139.919199 
L 162.841402 139.499303 
L 162.879865 139.456427 
L 163.307179 139.031128 
L 163.341189 138.993656 
L 163.772955 138.563997 
L 163.803298 138.530885 
L 164.238731 138.089747 
L 164.258683 138.068114 
L 164.559508 137.605342 
L 164.704508 137.459296 
L 165.170284 137.160115 
L 165.192064 137.142571 
L 165.63606 136.721712 
L 165.690334 136.6798 
L 166.101836 136.279134 
L 166.188754 136.217028 
L 166.567613 135.850805 
L 166.717496 135.754257 
L 167.033389 135.439943 
L 167.347517 135.291486 
L 167.499165 135.121158 
L 167.964942 134.848058 
L 168.185618 134.828715 
L 168.430718 134.605665 
L 168.896494 134.396083 
L 169.36227 134.378673 
L 169.610821 134.365943 
L 169.828047 134.20623 
L 170.293823 133.930517 
L 170.759599 133.913573 
L 170.797477 133.903172 
L 171.225376 133.496835 
L 171.691152 133.455865 
L 171.967127 133.440401 
L 172.156928 133.298228 
L 172.622705 133.003665 
L 173.088481 132.98752 
L 173.123241 132.977629 
L 173.554257 132.567625 
L 174.020033 132.529641 
L 174.222545 132.514858 
L 174.48581 132.304934 
L 174.951586 132.07888 
L 175.417362 132.064454 
L 175.883139 132.059187 
L 175.919734 132.052087 
L 176.348915 131.654964 
L 176.814691 131.618873 
L 177.280467 131.606422 
L 177.746244 131.600114 
L 178.21202 131.596857 
L 178.249791 131.589316 
L 178.677796 131.193359 
L 179.143573 131.157375 
L 179.609349 131.144667 
L 180.075125 131.138171 
L 180.540902 131.13145 
L 181.006678 131.134811 
L 181.472454 131.143154 
L 181.93823 131.166311 
L 182.404007 131.55949 
L 182.45176 131.589316 
L 182.869783 131.602544 
L 183.335559 131.617946 
L 183.801336 131.698588 
L 184.195979 132.052087 
L 184.267112 132.062766 
L 184.732888 132.07383 
L 185.198664 132.111906 
L 185.62863 132.514858 
L 185.664441 132.523547 
L 186.130217 132.531921 
L 186.595993 132.554654 
L 187.06177 132.865706 
L 187.220854 132.977629 
L 187.527546 132.991305 
L 187.993322 133.006587 
L 188.459098 133.082896 
L 188.855311 133.440401 
L 188.924875 133.451511 
L 189.390651 133.462564 
L 189.856427 133.499814 
L 190.281756 133.903172 
L 190.322204 133.914835 
L 190.78798 133.954644 
L 191.216469 134.365943 
L 191.253756 134.379578 
L 191.719533 134.438933 
L 192.131314 134.828715 
L 192.185309 134.844357 
L 192.651085 134.951333 
L 193.022479 135.291486 
L 193.116861 135.309689 
L 193.582638 135.653347 
L 193.710959 135.754257 
L 194.048414 135.778141 
L 194.498454 136.217028 
L 194.51419 136.225084 
L 194.979967 136.266904 
L 195.410181 136.6798 
L 195.445743 136.692842 
L 195.904355 137.142571 
L 195.911519 137.146913 
L 196.377295 137.166112 
L 196.828421 137.605342 
L 196.843072 137.612647 
L 197.308848 137.664211 
L 197.726054 138.068114 
L 197.774624 138.101136 
L 198.210563 138.530885 
L 198.240401 138.552823 
L 198.688788 138.993656 
L 198.706177 139.006625 
L 199.162593 139.456427 
L 199.171953 139.463858 
L 199.634459 139.919199 
L 199.63773 139.921778 
L 200.103506 139.94555 
L 200.554451 140.38197 
L 200.569282 140.388345 
L 201.035058 140.507656 
L 201.411512 140.844741 
L 201.500835 140.858609 
L 201.960525 141.307513 
L 201.966611 141.310766 
L 202.432387 141.343106 
L 202.877191 141.770284 
L 202.898164 141.777996 
L 203.362109 142.233055 
L 203.36394 142.234166 
L 203.829716 142.250324 
L 204.287306 142.695826 
L 204.295492 142.699873 
L 204.761269 142.748148 
L 205.19471 143.158598 
L 205.227045 143.16798 
L 205.689005 143.621369 
L 205.692821 143.624242 
L 206.158598 143.739916 
L 206.536599 144.08414 
L 206.624374 144.101161 
L 207.081135 144.546912 
L 207.09015 144.551835 
L 207.555599 145.009683 
L 207.555927 145.009906 
L 208.021703 145.035193 
L 208.473152 145.472454 
L 208.487479 145.47902 
L 208.952174 145.935225 
L 208.953255 145.935921 
L 209.419032 145.981263 
L 209.857297 146.397997 
L 209.884808 146.407008 
L 210.347543 146.860768 
L 210.350584 146.862654 
L 210.816361 147.266968 
L 210.893623 147.323539 
L 211.282137 147.348912 
L 211.732952 147.786311 
L 211.747913 147.793227 
L 212.211915 148.249082 
L 212.213689 148.250226 
L 212.679466 148.63113 
L 212.789712 148.711853 
L 213.145242 148.732662 
L 213.599628 149.174624 
L 213.611018 149.180206 
L 214.076104 149.637396 
L 214.076795 149.63785 
L 214.542571 149.877512 
L 214.814698 150.100167 
L 215.008347 150.117269 
L 215.46562 150.562938 
L 215.474124 150.567318 
L 215.934821 151.02571 
L 215.9399 151.037754 
L 216.380059 151.488481 
L 216.405676 151.882054 
L 216.453383 151.951252 
L 216.867936 152.414023 
L 216.871452 152.421908 
L 217.318012 152.876795 
L 217.337229 153.235917 
L 217.408409 153.339566 
L 217.800453 153.802337 
L 217.803005 153.807648 
L 218.265518 154.265109 
L 218.268781 154.266984 
L 218.734558 154.626446 
L 218.888716 154.72788 
L 219.200334 154.744887 
L 219.661923 155.190651 
L 219.66611 155.192436 
L 220.131886 155.545874 
L 220.295339 155.653422 
L 220.597663 155.673079 
L 221.059053 156.116194 
L 221.063439 156.117873 
L 221.529215 156.465293 
L 221.681787 156.578965 
L 221.994992 156.607172 
L 222.442977 157.041736 
L 222.460768 157.055374 
L 222.913169 157.504508 
L 222.926544 157.520179 
L 223.376959 157.967279 
L 223.392321 157.985879 
L 223.839876 158.43005 
L 223.858097 158.453228 
L 224.301176 158.892821 
L 224.323873 158.924167 
L 224.758965 159.355593 
L 224.789649 159.405645 
L 225.206415 159.818364 
L 225.255426 159.941397 
L 225.600223 160.281135 
L 225.721202 160.400338 
L 226.069901 160.743907 
L 226.186978 160.859264 
L 226.539568 161.206678 
L 226.652755 161.318204 
L 227.00923 161.669449 
L 227.118531 161.777143 
L 227.47892 162.13222 
L 227.584307 162.233947 
L 227.973297 162.594992 
L 228.050083 162.663946 
L 228.488642 163.057763 
L 228.51586 163.082205 
L 228.981636 163.500478 
L 229.00397 163.520534 
L 229.447412 163.923739 
L 229.506474 163.983306 
L 229.913189 164.436999 
L 229.920203 164.446077 
L 230.165791 164.908848 
L 230.377876 165.371619 
L 230.378965 165.38044 
L 230.584166 165.834391 
L 230.809846 166.297162 
L 230.844741 166.363106 
L 231.05796 166.759933 
L 231.306615 167.222705 
L 231.310518 167.229683 
L 231.556555 167.685476 
L 231.765329 168.148247 
L 231.776294 168.172554 
L 231.974082 168.611018 
L 232.182845 169.07379 
L 232.24207 169.209594 
L 232.384017 169.536561 
L 232.549668 169.999332 
L 232.707846 170.441221 
L 232.715322 170.462104 
L 232.880972 170.924875 
L 233.046623 171.387646 
L 233.173623 171.742433 
L 233.212277 171.850417 
L 233.377928 172.313189 
L 233.543575 172.77596 
L 233.639399 173.043663 
L 233.709224 173.238731 
L 233.874883 173.701503 
L 234.040534 174.164274 
L 234.105175 174.344862 
L 234.206182 174.627045 
L 234.371833 175.089816 
L 234.537486 175.552588 
L 234.570952 175.646081 
L 234.703135 176.015359 
L 234.868791 176.47813 
L 235.034857 176.940902 
L 235.036728 176.947289 
L 235.200096 177.403673 
L 235.36574 177.866444 
L 235.502504 178.248498 
L 235.531398 178.329215 
L 235.697046 178.791987 
L 235.862702 179.254758 
L 235.96828 179.549709 
L 236.028353 179.717529 
L 236.194009 180.180301 
L 236.359658 180.643072 
L 236.434057 180.850919 
L 236.525309 181.105843 
L 236.690961 181.568614 
L 236.725073 182.031386 
L 236.741186 182.494157 
L 236.851425 182.956928 
L 236.899833 183.043608 
L 237.304783 183.419699 
L 237.365609 183.502735 
L 237.500803 183.882471 
L 237.443794 184.345242 
L 237.409328 184.808013 
L 237.365609 184.972782 
L 237.288034 185.270785 
L 237.158778 185.733556 
L 237.029517 186.196327 
L 236.899833 186.464374 
L 236.771939 186.659098 
L 236.434057 187.045799 
L 236.361653 187.12187 
L 235.96828 187.507537 
L 235.881609 187.584641 
L 235.502504 187.921904 
L 235.361419 188.047412 
L 235.036728 188.336256 
L 234.84122 188.510184 
L 234.570952 188.88244 
L 234.504128 188.972955 
L 234.391749 189.435726 
L 234.322097 189.898497 
L 234.313647 190.361269 
L 234.291314 190.82404 
L 234.161213 191.286811 
L 234.105175 191.525029 
L 234.052352 191.749583 
L 233.94348 192.212354 
L 233.834612 192.675125 
L 233.725739 193.137896 
L 233.639399 193.504937 
L 233.61688 193.600668 
L 233.508014 194.063439 
L 233.399142 194.52621 
L 233.290277 194.988982 
L 233.181403 195.451753 
L 233.173623 195.484827 
L 233.072539 195.914524 
L 232.963667 196.377295 
L 232.854802 196.840067 
L 232.745935 197.302838 
L 232.707846 197.357688 
L 232.418707 197.765609 
L 232.24207 197.947844 
L 231.970155 198.228381 
L 231.776294 198.42839 
L 231.521596 198.691152 
L 231.48765 199.153923 
L 231.520559 199.616694 
L 231.566639 200.079466 
L 231.656858 200.542237 
L 231.747079 201.005008 
L 231.776294 201.154866 
L 231.832172 201.46778 
L 231.807549 201.930551 
L 231.776294 201.967109 
L 231.324618 202.393322 
L 231.310518 202.407984 
L 230.844741 202.783501 
L 230.736092 202.856093 
L 230.378965 203.075131 
L 229.952653 203.318865 
L 229.913189 203.338471 
L 229.447412 203.604984 
L 229.135456 203.781636 
L 228.981636 203.86874 
L 228.51586 204.132501 
L 228.318248 204.244407 
L 228.050083 204.396268 
L 227.584307 204.660022 
L 227.501031 204.707179 
L 227.118531 204.923787 
L 226.683834 205.16995 
L 226.652755 205.187733 
L 226.186978 205.444199 
L 225.794785 205.632721 
L 225.721202 205.668193 
L 225.255426 205.892711 
L 224.881682 206.095492 
L 224.789649 206.157856 
L 224.323873 206.49125 
L 224.238151 206.558264 
L 223.858097 206.845632 
L 223.626377 207.021035 
L 223.392321 207.19821 
L 223.01503 207.483806 
L 222.926544 207.550788 
L 222.460768 207.903363 
L 222.403677 207.946578 
L 221.994992 208.296248 
L 221.874929 208.409349 
L 221.529215 208.747625 
L 221.40198 208.87212 
L 221.063439 209.20337 
L 220.929027 209.334891 
L 220.597663 209.659138 
L 220.456093 209.797663 
L 220.131886 210.114881 
L 219.98313 210.260434 
L 219.66611 210.570633 
L 219.53337 210.723205 
L 219.200334 211.093086 
L 219.11957 211.185977 
L 218.734558 211.617635 
L 218.706744 211.648748 
L 218.289834 212.111519 
L 218.268781 212.13136 
L 217.803005 212.562888 
L 217.790698 212.57429 
L 217.337229 212.994416 
L 217.291198 213.037062 
L 216.871452 213.425941 
L 216.791694 213.499833 
L 216.405676 213.857471 
L 216.292201 213.962604 
L 215.9399 214.289 
L 215.794019 214.425376 
L 215.474124 214.740385 
L 215.335986 214.888147 
L 215.008347 215.238619 
L 214.903364 215.350918 
L 214.542571 215.736853 
L 214.470739 215.813689 
L 214.076795 216.23508 
L 214.03811 216.276461 
L 213.611018 216.733318 
L 213.605489 216.739232 
L 213.172858 217.202003 
L 213.145242 217.230811 
L 212.739532 217.664775 
L 212.679466 217.731177 
L 212.339016 218.127546 
L 212.213689 218.273456 
L 211.963236 218.590317 
L 211.747913 218.866319 
L 211.58161 219.053088 
L 211.282137 219.349844 
L 211.114602 219.51586 
L 210.816361 219.811401 
L 210.647604 219.978631 
L 210.350584 220.272958 
L 210.180601 220.441402 
L 209.884808 220.734513 
L 209.713597 220.904174 
L 209.419032 221.196078 
L 209.246602 221.366945 
L 208.953255 221.657631 
L 208.7796 221.829716 
L 208.487479 222.119195 
L 208.312602 222.292487 
L 208.021703 222.529355 
L 207.692171 222.755259 
L 207.555927 222.84203 
L 207.09015 223.138681 
L 206.965561 223.21803 
L 206.624374 223.435321 
L 206.238935 223.680801 
L 206.158598 223.731967 
L 205.692821 224.028611 
L 205.512316 224.143573 
L 205.227045 224.325255 
L 204.785693 224.606344 
L 204.761269 224.6219 
L 204.295492 224.918546 
L 204.059075 225.069115 
L 203.829716 225.215213 
L 203.36394 225.511835 
L 203.332456 225.531886 
L 202.898164 225.808718 
L 202.606388 225.994658 
L 202.432387 226.068747 
L 201.966611 226.402436 
L 201.880328 226.457429 
L 201.500835 226.594233 
L 201.035058 226.644149 
L 200.569282 226.618477 
L 200.103506 226.620709 
L 199.63773 226.627189 
L 199.171953 226.638778 
L 198.706177 226.665496 
L 198.240401 226.864769 
L 198.140253 226.9202 
L 197.774624 227.119152 
L 197.308848 227.277601 
L 196.999092 227.382972 
L 196.843072 227.436045 
L 196.377295 227.594491 
L 195.911519 227.752934 
L 195.638694 227.845743 
L 195.445743 227.911381 
L 194.979967 228.069824 
L 194.51419 228.228272 
L 194.278306 228.308514 
L 194.048414 228.386719 
L 193.582638 228.532206 
L 193.116861 228.628325 
L 192.651085 228.700283 
L 192.185309 228.768652 
L 192.038763 228.771285 
L 191.719533 228.802805 
L 191.253756 228.848797 
L 190.78798 229.178717 
L 190.322204 229.211245 
L 189.856427 229.221428 
L 189.813701 229.234057 
L 189.390651 229.598093 
L 188.924875 229.650879 
L 188.459098 229.668474 
L 188.369416 229.696828 
L 187.993322 230.024528 
L 187.527546 230.079568 
L 187.06177 230.094026 
L 186.595993 230.103513 
L 186.130217 230.144327 
L 186.012008 230.159599 
L 185.664441 230.336774 
L 185.198664 230.439697 
L 184.732888 230.500115 
L 184.267112 230.536908 
L 183.801336 230.558665 
L 183.479282 230.622371 
L 183.335559 230.736683 
L 182.869783 230.903327 
L 182.404007 230.966372 
L 181.93823 230.992402 
L 181.472454 231.018029 
L 181.256988 231.085142 
L 181.006678 231.253792 
L 180.540902 231.19556 
L 180.075125 231.164044 
z
" clip-path="url(#p97a59cedfb)" style="fill: none; stroke: #000000; stroke-width: 1.5"/>
   </g>
   <g id="PathCollection_4">
    <path d="M 169.828047 257.54382 
L 169.626934 257.463105 
L 169.36227 257.356043 
L 168.896494 257.167641 
L 168.482875 257.000334 
L 168.430718 256.979237 
L 167.964942 256.790829 
L 167.499165 256.602421 
L 167.338831 256.537563 
L 167.033389 256.414007 
L 166.567613 256.225605 
L 166.194784 256.074791 
L 166.101836 256.037193 
L 165.63606 255.848784 
L 165.170284 255.660381 
L 165.050731 255.61202 
L 164.704508 255.471969 
L 164.238731 255.283561 
L 163.906682 255.149249 
L 163.772955 255.095157 
L 163.307179 254.906745 
L 162.841402 254.718326 
L 162.762664 254.686477 
L 162.375626 254.529928 
L 161.90985 254.341519 
L 161.618591 254.223706 
L 161.444073 254.153115 
L 160.978297 253.964704 
L 160.512521 253.776305 
L 160.474525 253.760935 
L 160.046745 253.587884 
L 159.580968 253.399479 
L 159.330493 253.298164 
L 159.115192 253.211073 
L 158.649416 253.022663 
L 158.183639 252.877895 
L 158.008927 252.835392 
L 157.717863 252.764654 
L 157.252087 252.651463 
L 156.786311 252.538262 
L 156.320534 252.425069 
L 156.104704 252.372621 
L 155.854758 252.311882 
L 155.388982 252.198674 
L 154.923205 252.106743 
L 154.457429 252.057817 
L 153.991653 252.024536 
L 153.525876 251.991251 
L 153.0601 251.957975 
L 152.594324 251.924691 
L 152.386606 251.90985 
L 152.128548 251.891411 
L 151.662771 251.857252 
L 151.196995 251.724486 
L 150.731219 251.5781 
L 150.314335 251.447078 
L 150.265442 251.431712 
L 149.799666 251.285331 
L 149.33389 251.138942 
L 148.868114 250.992559 
L 148.841857 250.984307 
L 148.402337 250.846173 
L 147.936561 250.699784 
L 147.470785 250.553396 
L 147.369408 250.521536 
L 147.005008 250.407015 
L 146.539232 250.244418 
L 146.175539 250.058765 
L 146.073456 249.999922 
L 145.607679 249.647255 
L 145.539978 249.595993 
L 145.141903 249.294578 
L 144.928806 249.133222 
L 144.676127 248.941901 
L 144.317618 248.670451 
L 144.210351 248.589234 
L 143.744574 248.23657 
L 143.706419 248.207679 
L 143.278798 247.883905 
L 143.095218 247.744908 
L 142.813022 247.53124 
L 142.484026 247.282137 
L 142.347245 247.178572 
L 141.881469 246.825895 
L 141.872845 246.819366 
L 141.415693 246.473229 
L 141.261653 246.356594 
L 140.949917 246.120556 
L 140.650464 245.893823 
L 140.48414 245.778465 
L 140.018364 245.499341 
L 139.895198 245.431052 
L 139.552588 245.241859 
L 139.086811 244.984643 
L 139.057181 244.96828 
L 138.621035 244.727439 
L 138.219157 244.505509 
L 138.155259 244.470223 
L 137.689482 244.213021 
L 137.405177 244.042738 
L 137.223706 243.925536 
L 136.75793 243.60833 
L 136.716283 243.579967 
L 136.292154 243.291125 
L 136.036756 243.117195 
L 135.826377 242.973917 
L 135.360601 242.656708 
L 135.357247 242.654424 
L 134.894825 242.339499 
L 134.677725 242.191653 
L 134.429048 242.022301 
L 133.998198 241.728881 
L 133.963272 241.705096 
L 133.497496 241.387887 
L 133.318678 241.26611 
L 133.03172 241.070678 
L 132.639176 240.803339 
L 132.565943 240.753467 
L 132.100167 240.436263 
L 131.959651 240.340568 
L 131.634391 240.119057 
L 131.280138 239.877796 
L 131.168614 239.801844 
L 130.702838 239.484641 
L 130.600616 239.415025 
L 130.237062 239.167432 
L 129.921094 238.952254 
L 129.771285 238.85023 
L 129.305509 238.533012 
L 129.241592 238.489482 
L 128.839733 238.215805 
L 128.562074 238.026711 
L 128.373957 237.898597 
L 127.90818 237.581387 
L 127.882561 237.56394 
L 127.442404 237.264182 
L 127.203041 237.101169 
L 126.976628 236.946974 
L 126.523509 236.638397 
L 126.510851 236.629778 
L 126.045075 236.31257 
L 125.843988 236.175626 
L 125.579299 235.995364 
L 125.164472 235.712855 
L 125.113523 235.678157 
L 124.647746 235.36095 
L 124.484955 235.250083 
L 124.18197 235.04374 
L 123.80544 234.787312 
L 123.716194 234.72585 
L 123.250417 234.35114 
L 123.221848 234.324541 
L 122.784641 233.903807 
L 122.740972 233.86177 
L 122.318865 233.455444 
L 122.260225 233.398998 
L 121.853088 233.007078 
L 121.779488 232.936227 
L 121.387312 232.558712 
L 121.298744 232.473456 
L 120.921536 232.110349 
L 120.818003 232.010684 
L 120.45576 231.643628 
L 120.369048 231.547913 
L 119.989983 231.088728 
L 119.987038 231.085142 
L 119.606926 230.622371 
L 119.524207 230.521662 
L 119.226822 230.159599 
L 119.058431 229.954588 
L 118.846713 229.696828 
L 118.592654 229.387509 
L 118.466616 229.234057 
L 118.126878 228.820444 
L 118.086501 228.771285 
L 117.706406 228.308514 
L 117.661102 228.253355 
L 117.326298 227.845743 
L 117.195326 227.686288 
L 116.946195 227.382972 
L 116.729549 227.119212 
L 116.566085 226.9202 
L 116.263773 226.552151 
L 116.18597 226.457429 
L 115.805863 225.994658 
L 115.797997 225.985081 
L 115.425761 225.531886 
L 115.33222 225.418001 
L 115.060124 225.069115 
L 114.866444 224.789142 
L 114.740002 224.606344 
L 114.419919 224.143573 
L 114.400668 224.115741 
L 114.099826 223.680801 
L 113.934891 223.442352 
L 113.779729 223.21803 
L 113.469115 222.768962 
L 113.459636 222.755259 
L 113.139552 222.292487 
L 113.003339 222.095563 
L 112.819455 221.829716 
L 112.537563 221.422166 
L 112.499367 221.366945 
L 112.179278 220.904174 
L 112.071786 220.748766 
L 111.85919 220.441402 
L 111.60601 220.075362 
L 111.539103 219.978631 
L 111.219023 219.51586 
L 111.140234 219.401951 
L 110.899376 219.053088 
L 110.674457 218.646978 
L 110.643279 218.590317 
L 110.388632 218.127546 
L 110.208681 217.800525 
L 110.133986 217.664775 
L 109.879343 217.202003 
L 109.742905 216.954048 
L 109.624698 216.739232 
L 109.370051 216.276461 
L 109.277129 216.10759 
L 109.115546 215.813689 
L 108.861077 215.350918 
L 108.811352 215.260498 
L 108.606773 214.888147 
L 108.352517 214.425376 
L 108.345576 214.412713 
L 108.098891 213.962604 
L 107.8798 213.56278 
L 107.845306 213.499833 
L 107.591719 213.037062 
L 107.414023 212.71277 
L 107.338141 212.57429 
L 107.084555 212.111519 
L 106.948247 211.862777 
L 106.830963 211.648748 
L 106.577387 211.185977 
L 106.482471 211.012768 
L 106.323797 210.723205 
L 106.070213 210.260434 
L 106.016694 210.162762 
L 105.816639 209.797663 
L 105.563058 209.334891 
L 105.550918 209.312738 
L 105.309469 208.87212 
L 105.095509 208.409349 
L 105.085142 208.383889 
L 104.907072 207.946578 
L 104.718618 207.483806 
L 104.619366 207.243152 
L 104.528184 207.021035 
L 104.344412 206.558264 
L 104.185062 206.095492 
L 104.153589 206.004086 
L 104.025723 205.632721 
L 103.866364 205.16995 
L 103.707013 204.707179 
L 103.687813 204.644767 
L 103.56681 204.244407 
L 103.472769 203.781636 
L 103.483493 203.318865 
L 103.494214 202.856093 
L 103.504941 202.393322 
L 103.515665 201.930551 
L 103.526392 201.46778 
L 103.537122 201.005008 
L 103.547844 200.542237 
L 103.558566 200.079466 
L 103.569301 199.616694 
L 103.580028 199.153923 
L 103.590758 198.691152 
L 103.60148 198.228381 
L 103.612204 197.765609 
L 103.622928 197.302838 
L 103.633656 196.840067 
L 103.644391 196.377295 
L 103.687813 195.94752 
L 103.69112 195.914524 
L 103.750447 195.451753 
L 103.809774 194.988982 
L 103.873684 194.52621 
L 103.946016 194.063439 
L 104.020328 193.600668 
L 104.094631 193.137896 
L 104.153589 192.770649 
L 104.168925 192.675125 
L 104.243231 192.212354 
L 104.317539 191.749583 
L 104.39184 191.286811 
L 104.46614 190.82404 
L 104.540454 190.361269 
L 104.614753 189.898497 
L 104.619366 189.86977 
L 104.689066 189.435726 
L 104.763361 188.972955 
L 104.837675 188.510184 
L 104.911969 188.047412 
L 104.987113 187.584641 
L 105.064022 187.12187 
L 105.085142 187.008111 
L 105.149938 186.659098 
L 105.23584 186.196327 
L 105.32175 185.733556 
L 105.407658 185.270785 
L 105.493555 184.808013 
L 105.550918 184.498983 
L 105.579456 184.345242 
L 105.665357 183.882471 
L 105.751276 183.419699 
L 105.837178 182.956928 
L 105.923094 182.494157 
L 106.008979 182.031386 
L 106.016694 181.989828 
L 106.094897 181.568614 
L 106.169287 181.105843 
L 106.241497 180.643072 
L 106.313695 180.180301 
L 106.423051 179.717529 
L 106.482471 179.537811 
L 106.576057 179.254758 
L 106.729066 178.791987 
L 106.926165 178.329215 
L 106.948247 178.28347 
L 107.149554 177.866444 
L 107.372955 177.403673 
L 107.414023 177.318593 
L 107.596344 176.940902 
L 107.819748 176.47813 
L 107.8798 176.357479 
L 108.051815 176.015359 
L 108.296727 175.552588 
L 108.345576 175.460288 
L 108.54165 175.089816 
L 108.786571 174.627045 
L 108.811352 174.580222 
L 109.031489 174.164274 
L 109.276397 173.701503 
L 109.277129 173.700121 
L 109.521323 173.238731 
L 109.742905 172.820051 
L 109.766239 172.77596 
L 110.011159 172.313189 
L 110.208681 171.939964 
L 110.256072 171.850417 
L 110.500989 171.387646 
L 110.674457 171.059898 
L 110.745921 170.924875 
L 110.990834 170.462104 
L 111.140234 170.179801 
L 111.235744 169.999332 
L 111.480659 169.536561 
L 111.60601 169.299726 
L 111.725588 169.07379 
L 111.970491 168.611018 
L 112.071786 168.419618 
L 112.215414 168.148247 
L 112.460336 167.685476 
L 112.537563 167.539555 
L 112.705248 167.222705 
L 112.950169 166.759933 
L 113.003339 166.659465 
L 113.195083 166.297162 
L 113.439994 165.834391 
L 113.469115 165.779367 
L 113.684916 165.371619 
L 113.929829 164.908848 
L 113.934891 164.899283 
L 114.174747 164.446077 
L 114.400668 164.019205 
L 114.419668 163.983306 
L 114.664591 163.520534 
L 114.866444 163.139142 
L 114.909516 163.057763 
L 115.154434 162.594992 
L 115.33222 162.259068 
L 115.399355 162.13222 
L 115.644281 161.669449 
L 115.797997 161.376119 
L 115.89167 161.206678 
L 116.178703 160.743907 
L 116.263773 160.597108 
L 116.43925 160.281135 
L 116.683447 159.818364 
L 116.729549 159.730999 
L 116.927652 159.355593 
L 117.171862 158.892821 
L 117.195326 158.848356 
L 117.41605 158.43005 
L 117.660256 157.967279 
L 117.661102 157.965676 
L 117.904442 157.504508 
L 118.126878 157.082976 
L 118.14864 157.041736 
L 118.39284 156.578965 
L 118.592654 156.200306 
L 118.63704 156.116194 
L 118.881242 155.653422 
L 119.058431 155.317632 
L 119.127075 155.190651 
L 119.494234 154.72788 
L 119.524207 154.694537 
L 119.904218 154.265109 
L 119.989983 154.165788 
L 120.293767 153.802337 
L 120.45576 153.608535 
L 120.680579 153.339566 
L 120.921536 153.051286 
L 121.067387 152.876795 
L 121.387312 152.494038 
L 121.454192 152.414023 
L 121.840994 151.951252 
L 121.853088 151.936782 
L 122.2278 151.488481 
L 122.318865 151.379531 
L 122.614612 151.02571 
L 122.784641 150.822291 
L 123.001418 150.562938 
L 123.250417 150.265041 
L 123.388228 150.100167 
L 123.716194 149.707791 
L 123.775033 149.637396 
L 124.161829 149.174624 
L 124.18197 149.150529 
L 124.548635 148.711853 
L 124.647746 148.593279 
L 124.935462 148.249082 
L 125.113523 148.036046 
L 125.322257 147.786311 
L 125.579299 147.478787 
L 125.709061 147.323539 
L 126.045075 146.921534 
L 126.095866 146.860768 
L 126.482675 146.397997 
L 126.510851 146.359454 
L 126.805675 145.935225 
L 126.976628 145.683888 
L 127.120439 145.472454 
L 127.435197 145.009683 
L 127.442404 144.999087 
L 127.749953 144.546912 
L 127.90818 144.31428 
L 128.067455 144.08414 
L 128.373957 143.701397 
L 128.448043 143.621369 
L 128.839733 143.198265 
L 128.876455 143.158598 
L 129.304859 142.695826 
L 129.305509 142.695124 
L 129.733268 142.233055 
L 129.771285 142.191595 
L 130.130631 141.770284 
L 130.237062 141.640938 
L 130.511428 141.307513 
L 130.702838 141.074897 
L 130.89222 140.844741 
L 131.168614 140.508843 
L 131.273013 140.38197 
L 131.634391 139.942783 
L 131.653797 139.919199 
L 132.034598 139.456427 
L 132.100167 139.376739 
L 132.415382 138.993656 
L 132.565943 138.810688 
L 132.796179 138.530885 
L 133.03172 138.244628 
L 133.176966 138.068114 
L 133.497496 137.678585 
L 133.557764 137.605342 
L 133.938551 137.142571 
L 133.963272 137.112527 
L 134.319356 136.6798 
L 134.429048 136.546495 
L 134.700152 136.217028 
L 134.894825 135.980439 
L 135.080928 135.754257 
L 135.360601 135.414362 
L 135.461709 135.291486 
L 135.816348 134.828715 
L 135.826377 134.812984 
L 136.094829 134.365943 
L 136.292154 134.03737 
L 136.374698 133.903172 
L 136.748867 133.440401 
L 136.75793 133.430691 
L 137.1808 132.977629 
L 137.223706 132.931661 
L 137.612752 132.514858 
L 137.689482 132.432651 
L 138.044698 132.052087 
L 138.155259 131.93364 
L 138.476649 131.589316 
L 138.621035 131.43463 
L 138.908594 131.126544 
L 139.086811 130.935602 
L 139.340531 130.663773 
L 139.552588 130.436587 
L 139.772482 130.201002 
L 140.018364 129.93757 
L 140.204425 129.73823 
L 140.48414 129.438556 
L 140.636377 129.275459 
L 140.949917 128.939549 
L 141.068324 128.812688 
L 141.415693 128.440523 
L 141.500263 128.349917 
L 141.881469 127.941488 
L 141.932192 127.887145 
L 142.347245 127.442482 
L 142.364148 127.424374 
L 142.796108 126.961603 
L 142.813022 126.943482 
L 143.228056 126.498831 
L 143.278798 126.444469 
L 143.659992 126.03606 
L 143.744574 125.94544 
L 144.09193 125.573289 
L 144.210351 125.44642 
L 144.523879 125.110518 
L 144.676127 124.947402 
L 144.955827 124.647746 
L 145.141903 124.448394 
L 145.387773 124.184975 
L 145.607679 123.949378 
L 145.819727 123.722204 
L 146.073456 123.450355 
L 146.251656 123.259432 
L 146.539232 122.951336 
L 146.683605 122.796661 
L 147.005008 122.45232 
L 147.11555 122.33389 
L 147.470785 121.953307 
L 147.545587 121.871119 
L 147.936561 121.414184 
L 147.941484 121.408347 
L 148.331791 120.945576 
L 148.402337 120.861935 
L 148.722117 120.482805 
L 148.868114 120.309713 
L 149.112446 120.020033 
L 149.33389 119.757488 
L 149.502768 119.557262 
L 149.799666 119.205252 
L 149.912824 119.094491 
L 150.265442 118.815396 
L 150.497848 118.63172 
L 150.731219 118.447276 
L 151.1541 118.168948 
L 151.196995 118.14335 
L 151.662771 117.869891 
L 151.941644 117.706177 
L 152.128548 117.596455 
L 152.594324 117.32301 
L 152.72992 117.243406 
L 153.0601 117.049561 
L 153.518165 116.780634 
L 153.525876 116.776107 
L 153.991653 116.502667 
L 154.306435 116.317863 
L 154.457429 116.229861 
L 154.923205 115.957815 
L 155.098674 115.855092 
L 155.388982 115.690128 
L 155.854758 115.42546 
L 155.913078 115.392321 
L 156.320534 115.160795 
L 156.727518 114.929549 
L 156.786311 114.896143 
L 157.252087 114.631464 
L 157.541907 114.466778 
L 157.717863 114.366794 
L 158.183639 114.102134 
L 158.3824 114.004007 
L 158.649416 113.880399 
L 159.115192 113.683267 
L 159.450758 113.541235 
L 159.580968 113.486125 
L 160.046745 113.288988 
L 160.512521 113.09185 
L 160.544146 113.078464 
L 160.978297 112.894712 
L 161.444073 112.697588 
L 161.637564 112.615693 
L 161.90985 112.500449 
L 162.375626 112.303318 
L 162.730953 112.152922 
L 162.841402 112.106174 
L 163.307179 111.909039 
L 163.772955 111.711916 
L 163.824379 111.69015 
L 164.238731 111.514772 
L 164.704508 111.317637 
L 164.91775 111.227379 
L 165.170284 111.120493 
L 165.63606 110.923367 
L 166.01117 110.764608 
L 166.101836 110.726233 
L 166.567613 110.529091 
L 167.033389 110.331957 
L 167.104556 110.301836 
L 167.499165 110.13482 
L 167.964942 109.937687 
L 168.197957 109.839065 
L 168.430718 109.740551 
L 168.896494 109.543411 
L 169.291327 109.376294 
L 169.36227 109.34578 
L 169.828047 109.149649 
L 170.293823 108.988895 
L 170.529701 108.913523 
L 170.759599 108.84006 
L 171.225376 108.691212 
L 171.691152 108.542361 
L 171.977831 108.450751 
L 172.156928 108.393519 
L 172.622705 108.244663 
L 173.088481 108.095819 
L 173.425933 107.98798 
L 173.554257 107.946846 
L 174.020033 107.850197 
L 174.48581 107.798913 
L 174.951586 107.747621 
L 175.417362 107.696329 
L 175.883139 107.653897 
L 176.348915 107.632294 
L 176.814691 107.628448 
L 177.280467 107.681305 
L 177.746244 107.732232 
L 178.21202 107.782032 
L 178.677796 107.831833 
L 179.143573 107.896284 
L 179.609349 107.987447 
L 179.612071 107.98798 
L 180.075125 108.078137 
L 180.540902 108.169069 
L 181.006678 108.260237 
L 181.472454 108.351659 
L 181.93823 108.443269 
L 181.976455 108.450751 
L 182.404007 108.533135 
L 182.869783 108.623092 
L 183.335559 108.713322 
L 183.801336 108.803769 
L 184.267112 108.894456 
L 184.364865 108.913523 
L 184.732888 108.984819 
L 185.198664 109.075041 
L 185.664441 109.16527 
L 186.130217 109.255505 
L 186.595993 109.345733 
L 186.753743 109.376294 
L 187.06177 109.435967 
L 187.527546 109.526196 
L 187.993322 109.616426 
L 188.459098 109.706656 
L 188.924875 109.796886 
L 189.096306 109.839065 
L 189.390651 109.911133 
L 189.856427 110.06207 
L 190.322204 110.213019 
L 190.596268 110.301836 
L 190.78798 110.363965 
L 191.253756 110.513155 
L 191.719533 110.663159 
L 192.008241 110.764608 
L 192.185309 110.830203 
L 192.651085 111.005351 
L 193.116861 111.17998 
L 193.243277 111.227379 
L 193.582638 111.354623 
L 194.048414 111.529263 
L 194.477511 111.69015 
L 194.51419 111.703903 
L 194.979967 111.878528 
L 195.445743 112.053178 
L 195.711761 112.152922 
L 195.911519 112.227821 
L 196.377295 112.402444 
L 196.843072 112.577081 
L 196.946053 112.615693 
L 197.308848 112.75172 
L 197.774624 112.926358 
L 198.180311 113.078464 
L 198.240401 113.100994 
L 198.706177 113.275638 
L 199.171953 113.450272 
L 199.414569 113.541235 
L 199.63773 113.624906 
L 200.103506 113.799549 
L 200.569282 113.97867 
L 200.633693 114.004007 
L 201.035058 114.161465 
L 201.500835 114.338687 
L 201.859202 114.466778 
L 201.966611 114.505168 
L 202.432387 114.671662 
L 202.898164 114.838147 
L 203.153864 114.929549 
L 203.36394 115.004641 
L 203.829716 115.171224 
L 204.295492 115.337884 
L 204.447627 115.392321 
L 204.761269 115.504552 
L 205.227045 115.67123 
L 205.692821 115.837904 
L 205.740856 115.855092 
L 206.158598 116.004566 
L 206.624374 116.171235 
L 207.034161 116.317863 
L 207.09015 116.337896 
L 207.555927 116.504567 
L 208.021703 116.671239 
L 208.335344 116.780634 
L 208.487479 116.833068 
L 208.953255 116.985826 
L 209.419032 117.138593 
L 209.781704 117.243406 
L 209.884808 117.272952 
L 210.350584 117.396158 
L 210.816361 117.51937 
L 211.282137 117.642568 
L 211.480641 117.706177 
L 211.747913 117.794356 
L 212.213689 117.97543 
L 212.679466 118.159005 
L 212.704695 118.168948 
L 213.145242 118.342579 
L 213.611018 118.526318 
L 213.868565 118.63172 
L 214.076795 118.727704 
L 214.542571 119.035028 
L 214.632693 119.094491 
L 215.008347 119.342349 
L 215.323846 119.557262 
L 215.474124 119.660365 
L 215.9399 119.987506 
L 215.98621 120.020033 
L 216.405676 120.314651 
L 216.64509 120.482805 
L 216.871452 120.641793 
L 217.303965 120.945576 
L 217.337229 120.968939 
L 217.803005 121.296079 
L 217.962851 121.408347 
L 218.268781 121.623227 
L 218.621728 121.871119 
L 218.734558 121.950364 
L 219.200334 122.277509 
L 219.280606 122.33389 
L 219.66611 122.604667 
L 219.939469 122.796661 
L 220.131886 122.931805 
L 220.597663 123.258946 
L 220.598355 123.259432 
L 221.063439 123.586093 
L 221.257226 123.722204 
L 221.529215 123.913244 
L 221.916102 124.184975 
L 221.994992 124.240383 
L 222.460768 124.567538 
L 222.574969 124.647746 
L 222.926544 124.894681 
L 223.233856 125.110518 
L 223.392321 125.221813 
L 223.858097 125.548953 
L 223.892743 125.573289 
L 224.323873 125.876112 
L 224.551604 126.03606 
L 224.789649 126.203259 
L 225.210467 126.498831 
L 225.255426 126.531187 
L 225.721202 126.907069 
L 225.781795 126.961603 
L 226.186978 127.326277 
L 226.295979 127.424374 
L 226.652755 127.745472 
L 226.810161 127.887145 
L 227.118531 128.164677 
L 227.335581 128.349917 
L 227.584307 128.53034 
L 228.050083 128.699402 
L 228.362211 128.812688 
L 228.51586 128.868455 
L 228.981636 129.037504 
L 229.447412 129.219462 
L 229.565583 129.275459 
L 229.913189 129.440179 
L 230.378965 129.660913 
L 230.542125 129.73823 
L 230.844741 129.881631 
L 231.310518 130.102355 
L 231.498258 130.201002 
L 231.776294 130.352997 
L 232.237539 130.663773 
L 232.24207 130.667646 
L 232.625079 131.126544 
L 232.707846 131.2271 
L 233.005989 131.589316 
L 233.173623 131.792982 
L 233.386886 132.052087 
L 233.639399 132.358867 
L 233.770896 132.514858 
L 234.105175 132.900929 
L 234.175028 132.977629 
L 234.570952 133.412377 
L 234.596473 133.440401 
L 235.017928 133.903172 
L 235.036728 133.923815 
L 235.439389 134.365943 
L 235.502504 134.435245 
L 235.860844 134.828715 
L 235.96828 134.946691 
L 236.282292 135.291486 
L 236.434057 135.458139 
L 236.703736 135.754257 
L 236.899833 135.969597 
L 237.125171 136.217028 
L 237.365609 136.481058 
L 237.546602 136.6798 
L 237.831386 136.992518 
L 237.96804 137.142571 
L 238.297162 137.504013 
L 238.389444 137.605342 
L 238.762938 138.015482 
L 238.810868 138.068114 
L 239.228715 138.526982 
L 239.232268 138.530885 
L 239.65357 138.993656 
L 239.694491 139.038607 
L 240.074844 139.456427 
L 240.160267 139.550263 
L 240.504605 139.919199 
L 240.626043 140.045553 
L 240.956283 140.38197 
L 241.09182 140.520039 
L 241.410571 140.844741 
L 241.557596 140.994518 
L 241.864843 141.307513 
L 242.023372 141.465007 
L 242.347241 141.770284 
L 242.489149 141.899386 
L 242.855907 142.233055 
L 242.954925 142.323137 
L 243.364588 142.695826 
L 243.420701 142.746875 
L 243.87327 143.158598 
L 243.886477 143.170614 
L 244.352254 143.594367 
L 244.381934 143.621369 
L 244.81803 144.018112 
L 244.890607 144.08414 
L 245.283806 144.441852 
L 245.397281 144.546912 
L 245.749583 144.876891 
L 245.884796 145.009683 
L 246.215359 145.334325 
L 246.356008 145.472454 
L 246.681135 145.791754 
L 246.827224 145.935225 
L 247.146912 146.249183 
L 247.298444 146.397997 
L 247.612688 146.706603 
L 247.769659 146.860768 
L 248.078464 147.197893 
L 248.18371 147.323539 
L 248.54424 147.75394 
L 248.571675 147.786311 
L 248.983206 148.249082 
L 249.010017 148.278661 
L 249.404482 148.711853 
L 249.475793 148.795143 
L 249.745777 149.174624 
L 249.941569 149.523287 
L 250.005431 149.637396 
L 250.266001 150.100167 
L 250.407346 150.351199 
L 250.526568 150.562938 
L 250.787142 151.02571 
L 250.873122 151.178415 
L 251.047705 151.488481 
L 251.30826 151.951252 
L 251.338898 152.005666 
L 251.568826 152.414023 
L 251.804674 152.832887 
L 251.829397 152.876795 
L 252.089953 153.339566 
L 252.270451 153.660119 
L 252.35053 153.802337 
L 252.611077 154.265109 
L 252.736227 154.487367 
L 252.871654 154.72788 
L 253.132209 155.190651 
L 253.202003 155.314611 
L 253.392774 155.653422 
L 253.60499 156.116194 
L 253.66778 156.248729 
L 253.822836 156.578965 
L 254.044272 157.041736 
L 254.133556 157.22833 
L 254.26571 157.504508 
L 254.487153 157.967279 
L 254.599332 158.201708 
L 254.708597 158.43005 
L 254.930035 158.892821 
L 255.065109 159.17509 
L 255.151483 159.355593 
L 255.372922 159.818364 
L 255.530885 160.148471 
L 255.591652 160.281135 
L 255.720737 160.743907 
L 255.844484 161.206678 
L 255.968909 161.669449 
L 255.996661 161.768198 
L 256.100453 162.13222 
L 256.23239 162.594992 
L 256.367208 163.057763 
L 256.462437 163.315795 
L 256.538496 163.520534 
L 256.710412 163.983306 
L 256.88232 164.446077 
L 256.928214 164.569616 
L 257.054233 164.908848 
L 257.226163 165.371619 
L 257.39399 165.810664 
L 257.403007 165.834391 
L 257.581566 166.297162 
L 257.760138 166.759933 
L 257.859766 167.007692 
L 257.945053 167.222705 
L 258.137448 167.685476 
L 258.325543 168.137906 
L 258.329841 168.148247 
L 258.497341 168.611018 
L 258.66368 169.07379 
L 258.791319 169.428882 
L 258.830024 169.536561 
L 258.996368 169.999332 
L 259.162711 170.462104 
L 259.257095 170.724684 
L 259.329053 170.924875 
L 259.495392 171.387646 
L 259.661734 171.850417 
L 259.722871 172.020502 
L 259.828077 172.313189 
L 259.99442 172.77596 
L 260.160758 173.238731 
L 260.188648 173.316319 
L 260.327109 173.701503 
L 260.493449 174.164274 
L 260.654424 174.612113 
L 260.659791 174.627045 
L 260.826131 175.089816 
L 260.992471 175.552588 
L 261.1202 175.907922 
L 261.15882 176.015359 
L 261.325158 176.47813 
L 261.446059 176.940902 
L 261.499876 177.403673 
L 261.553696 177.866444 
L 261.585977 178.144044 
L 261.607509 178.329215 
L 261.661336 178.791987 
L 261.715154 179.254758 
L 261.768973 179.717529 
L 261.822787 180.180301 
L 261.941282 180.643072 
L 262.027021 181.105843 
L 262.051753 181.316103 
L 262.081454 181.568614 
L 262.135887 182.031386 
L 262.190315 182.494157 
L 262.244746 182.956928 
L 262.299176 183.419699 
L 262.353607 183.882471 
L 262.408037 184.345242 
L 262.485003 184.808013 
L 262.517529 184.981563 
L 262.5716 185.270785 
L 262.658139 185.733556 
L 262.744686 186.196327 
L 262.831253 186.659098 
L 262.917831 187.12187 
L 262.983306 187.47175 
L 263.004403 187.584641 
L 263.090875 188.047412 
L 263.177362 188.510184 
L 263.263841 188.972955 
L 263.35032 189.435726 
L 263.436792 189.898497 
L 263.449082 189.964268 
L 263.523271 190.361269 
L 263.51986 190.82404 
L 263.498912 191.286811 
L 263.477969 191.749583 
L 263.521009 192.212354 
L 263.568421 192.675125 
L 263.615832 193.137896 
L 263.663237 193.600668 
L 263.710644 194.063439 
L 263.758044 194.52621 
L 263.805453 194.988982 
L 263.852856 195.451753 
L 263.900258 195.914524 
L 263.914858 196.057034 
L 263.947668 196.377295 
L 263.995067 196.840067 
L 264.042474 197.302838 
L 264.089884 197.765609 
L 264.133791 198.228381 
L 264.156774 198.691152 
L 264.168347 199.153923 
L 264.177565 199.616694 
L 264.056169 200.079466 
L 263.926507 200.542237 
L 263.914858 200.583808 
L 263.796833 201.005008 
L 263.66716 201.46778 
L 263.537496 201.930551 
L 263.449082 202.246084 
L 263.407825 202.393322 
L 263.278156 202.856093 
L 263.148482 203.318865 
L 263.018822 203.781636 
L 262.983306 203.908382 
L 262.889145 204.244407 
L 262.759475 204.707179 
L 262.604134 205.16995 
L 262.517529 205.370143 
L 262.401113 205.632721 
L 262.197785 206.095492 
L 262.051753 206.427862 
L 261.994457 206.558264 
L 261.791128 207.021035 
L 261.587795 207.483806 
L 261.585977 207.487944 
L 261.38447 207.946578 
L 261.181147 208.409349 
L 261.1202 208.548054 
L 260.962131 208.87212 
L 260.654424 209.291419 
L 260.617348 209.334891 
L 260.222667 209.797663 
L 260.188648 209.837558 
L 259.827987 210.260434 
L 259.722871 210.383359 
L 259.428163 210.723205 
L 259.257095 210.919869 
L 259.02563 211.185977 
L 258.791319 211.455347 
L 258.623088 211.648748 
L 258.325543 211.990812 
L 258.220546 212.111519 
L 257.859766 212.532597 
L 257.826912 212.57429 
L 257.482843 213.037062 
L 257.39399 213.158246 
L 257.143535 213.499833 
L 256.928214 213.793503 
L 256.804229 213.962604 
L 256.462437 214.404454 
L 256.44526 214.425376 
L 256.016071 214.888147 
L 255.996661 214.909075 
L 255.586874 215.350918 
L 255.530885 215.411288 
L 255.157678 215.813689 
L 255.065109 215.9135 
L 254.728487 216.276461 
L 254.599332 216.415721 
L 254.299287 216.739232 
L 254.133556 216.917925 
L 253.87009 217.202003 
L 253.66778 217.420146 
L 253.440901 217.664775 
L 253.202003 217.922363 
L 253.011707 218.127546 
L 252.736227 218.384291 
L 252.478906 218.590317 
L 252.270451 218.757094 
L 251.900497 219.053088 
L 251.804674 219.129755 
L 251.338898 219.502415 
L 251.322188 219.51586 
L 250.873122 219.879202 
L 250.750404 219.978631 
L 250.407346 220.256577 
L 250.179218 220.441402 
L 249.941569 220.633945 
L 249.608042 220.904174 
L 249.475793 221.011323 
L 249.036857 221.366945 
L 249.010017 221.388691 
L 248.54424 221.771825 
L 248.476738 221.829716 
L 248.078464 222.191118 
L 247.96675 222.292487 
L 247.612688 222.613756 
L 247.456749 222.755259 
L 247.146912 223.036415 
L 246.946765 223.21803 
L 246.681135 223.45906 
L 246.429297 223.680801 
L 246.215359 223.87442 
L 245.868199 224.143573 
L 245.749583 224.214924 
L 245.283806 224.46787 
L 245.028815 224.606344 
L 244.81803 224.720814 
L 244.352254 224.973762 
L 244.17667 225.069115 
L 243.886477 225.22671 
L 243.420701 225.479651 
L 243.324513 225.531886 
L 242.954925 225.732594 
L 242.489149 225.985528 
L 242.472338 225.994658 
L 242.023372 226.238488 
L 241.620193 226.457429 
L 241.557596 226.491422 
L 241.09182 226.744378 
L 240.76806 226.9202 
L 240.626043 226.997324 
L 240.160267 227.25026 
L 239.915886 227.382972 
L 239.694491 227.503204 
L 239.228715 227.756158 
L 239.063751 227.845743 
L 238.762938 228.009096 
L 238.297162 228.262045 
L 238.211594 228.308514 
L 237.831386 228.514995 
L 237.365609 228.767939 
L 237.359447 228.771285 
L 236.899833 229.020887 
L 236.507285 229.234057 
L 236.434057 229.273823 
L 235.96828 229.526766 
L 235.655134 229.696828 
L 235.502504 229.779718 
L 235.036728 230.032657 
L 234.802983 230.159599 
L 234.570952 230.285608 
L 234.105175 230.538553 
L 233.950831 230.622371 
L 233.639399 230.791707 
L 233.173623 231.051665 
L 233.11382 231.085142 
L 232.707846 231.312394 
L 232.287109 231.547913 
L 232.24207 231.573126 
L 231.776294 231.833859 
L 231.460415 232.010684 
L 231.310518 232.094596 
L 230.844741 232.425093 
L 230.78772 232.473456 
L 230.378965 232.820134 
L 230.242087 232.936227 
L 229.913189 233.215178 
L 229.696458 233.398998 
L 229.447412 233.610235 
L 229.150845 233.86177 
L 228.981636 234.005286 
L 228.605228 234.324541 
L 228.51586 234.400339 
L 228.059606 234.787312 
L 228.050083 234.795388 
L 227.584307 235.190432 
L 227.513343 235.250083 
L 227.118531 235.579351 
L 226.957243 235.712855 
L 226.652755 235.964895 
L 226.37074 236.175626 
L 226.186978 236.289401 
L 225.721202 236.514038 
L 225.463364 236.638397 
L 225.255426 236.73869 
L 224.789649 236.963326 
L 224.503845 237.101169 
L 224.323873 237.188255 
L 223.858097 237.458817 
L 223.679272 237.56394 
L 223.392321 237.732628 
L 222.926544 238.006437 
L 222.892057 238.026711 
L 222.460768 238.280257 
L 222.161699 238.489482 
L 221.994992 238.615676 
L 221.570622 238.952254 
L 221.529215 238.985096 
L 221.063439 239.354524 
L 220.987435 239.415025 
L 220.597663 239.726286 
L 220.408291 239.877796 
L 220.131886 240.098937 
L 219.829873 240.340568 
L 219.66611 240.471587 
L 219.251443 240.803339 
L 219.200334 240.844229 
L 218.734558 241.216892 
L 218.673039 241.26611 
L 218.268781 241.589539 
L 218.09462 241.728881 
L 217.803005 241.962191 
L 217.516202 242.191653 
L 217.337229 242.334845 
L 216.937787 242.654424 
L 216.871452 242.707496 
L 216.405676 243.080144 
L 216.359367 243.117195 
L 215.9399 243.452796 
L 215.780949 243.579967 
L 215.474124 243.825452 
L 215.202541 244.042738 
L 215.008347 244.198104 
L 214.604863 244.505509 
L 214.542571 244.55098 
L 214.076795 244.842716 
L 213.851373 244.96828 
L 213.611018 245.093854 
L 213.145242 245.327442 
L 212.938641 245.431052 
L 212.679466 245.561028 
L 212.213689 245.794613 
L 212.015866 245.893823 
L 211.747913 246.028204 
L 211.282137 246.261792 
L 211.093096 246.356594 
L 210.816361 246.495375 
L 210.350584 246.728964 
L 210.192078 246.819366 
L 209.884808 247.02126 
L 209.500016 247.282137 
L 209.419032 247.33704 
L 208.953255 247.652826 
L 208.817438 247.744908 
L 208.487479 247.96861 
L 208.134849 248.207679 
L 208.021703 248.28439 
L 207.555927 248.600174 
L 207.452272 248.670451 
L 207.09015 248.915959 
L 206.769686 249.133222 
L 206.624374 249.231739 
L 206.158598 249.547527 
L 206.087112 249.595993 
L 205.692821 249.863311 
L 205.404524 250.058765 
L 205.227045 250.179091 
L 204.761269 250.49488 
L 204.721953 250.521536 
L 204.295492 250.810665 
L 204.039376 250.984307 
L 203.829716 251.126452 
L 203.36394 251.44224 
L 203.356804 251.447078 
L 202.898164 251.758016 
L 202.674212 251.90985 
L 202.432387 252.073802 
L 201.977264 252.372621 
L 201.966611 252.379213 
L 201.500835 252.568165 
L 201.035058 252.751222 
L 200.820087 252.835392 
L 200.569282 252.921823 
L 200.103506 253.066955 
L 199.63773 253.209384 
L 199.347389 253.298164 
L 199.171953 253.351807 
L 198.706177 253.49423 
L 198.240401 253.636658 
L 197.833969 253.760935 
L 197.774624 253.779081 
L 197.308848 253.919426 
L 196.843072 254.056754 
L 196.377295 254.191934 
L 196.265625 254.223706 
L 195.911519 254.324457 
L 195.445743 254.456985 
L 194.979967 254.589511 
L 194.639149 254.686477 
L 194.51419 254.72203 
L 194.048414 254.85455 
L 193.582638 254.987082 
L 193.116861 255.119607 
L 193.012676 255.149249 
L 192.651085 255.252129 
L 192.185309 255.384655 
L 191.719533 255.517106 
L 191.385529 255.61202 
L 191.253756 255.649457 
L 190.78798 255.781725 
L 190.322204 255.913961 
L 189.856427 255.965964 
L 189.390651 256.009891 
L 188.924875 256.053826 
L 188.702603 256.074791 
L 188.459098 256.097759 
L 187.993322 256.141689 
L 187.527546 256.18562 
L 187.06177 256.229554 
L 186.595993 256.273491 
L 186.130217 256.317421 
L 185.664441 256.361352 
L 185.198664 256.405287 
L 184.732888 256.449221 
L 184.267112 256.493155 
L 183.801336 256.537082 
L 183.796239 256.537563 
L 183.335559 256.581021 
L 182.869783 256.624951 
L 182.404007 256.668882 
L 181.93823 256.712816 
L 181.472454 256.756751 
L 181.006678 256.800686 
L 180.540902 256.844613 
L 180.075125 256.88855 
L 179.609349 256.93248 
L 179.143573 256.97641 
L 178.889935 257.000334 
L 178.677796 257.020343 
L 178.21202 257.064276 
L 177.746244 257.1082 
L 177.280467 257.15214 
L 176.814691 257.196073 
L 176.348915 257.24 
L 175.883139 257.283937 
L 175.417362 257.327871 
L 174.951586 257.371796 
L 174.48581 257.415731 
L 174.020033 257.459666 
L 173.983571 257.463105 
L 173.554257 257.503599 
L 173.088481 257.547531 
L 172.622705 257.59147 
L 172.156928 257.635397 
L 171.691152 257.67933 
L 171.225376 257.696258 
L 170.759599 257.66157 
L 170.293823 257.626888 
L 169.828047 257.54382 
z
" clip-path="url(#p97a59cedfb)" style="fill: none; stroke: #000000; stroke-width: 1.5"/>
   </g>
   <g id="patch_3">
    <path d="M 45 320.4 
L 45 43.2 
" style="fill: none; stroke: #000000; stroke-width: 0.8; stroke-linejoin: miter; stroke-linecap: square"/>
   </g>
   <g id="patch_4">
    <path d="M 324 320.4 
L 324 43.2 
" style="fill: none; stroke: #000000; stroke-width: 0.8; stroke-linejoin: miter; stroke-linecap: square"/>
   </g>
   <g id="patch_5">
    <path d="M 45 320.4 
L 324 320.4 
" style="fill: none; stroke: #000000; stroke-width: 0.8; stroke-linejoin: miter; stroke-linecap: square"/>
   </g>
   <g id="patch_6">
    <path d="M 45 43.2 
L 324 43.2 
" style="fill: none; stroke: #000000; stroke-width: 0.8; stroke-linejoin: miter; stroke-linecap: square"/>
   </g>
  </g>
 </g>
 <defs>
  <clipPath id="p97a59cedfb">
   <rect x="45" y="43.2" width="279" height="277.2"/>
  </clipPath>
 </defs>
</svg>
