<?xml version="1.0" encoding="utf-8" standalone="no"?>
<!DOCTYPE svg PUBLIC "-//W3C//DTD SVG 1.1//EN"
  "http://www.w3.org/Graphics/SVG/1.1/DTD/svg11.dtd">
<svg xmlns:xlink="http://www.w3.org/1999/xlink" width="360pt" height="360pt" viewBox="0 0 360 360" xmlns="http://www.w3.org/2000/svg" version="1.1">
 <metadata>
  <rdf:RDF xmlns:dc="http://purl.org/dc/elements/1.1/" xmlns:cc="http://creativecommons.org/ns#" xmlns:rdf="http://www.w3.org/1999/02/22-rdf-syntax-ns#">
   <cc:Work>
    <dc:type rdf:resource="http://purl.org/dc/dcmitype/StillImage"/>
    <dc:date>2022-04-10T19:53:30.276491</dc:date>
    <dc:format>image/svg+xml</dc:format>
    <dc:creator>
     <cc:Agent>
      <dc:title>Matplotlib v3.5.1, https://matplotlib.org/</dc:title>
     </cc:Agent>
    </dc:creator>
   </cc:Work>
  </rdf:RDF>
 </metadata>
 <defs>
  <style type="text/css">*{stroke-linejoin: round; stroke-linecap: butt}</style>
 </defs>
 <g id="figure_1">
  <g id="patch_1">
   <path d="M 0 360 
L 360 360 
L 360 0 
L 0 0 
z
" style="fill: #ffffff"/>
  </g>
  <g id="axes_1">
   <g id="patch_2">
    <path d="M 45 320.4 
L 324 320.4 
L 324 43.2 
L 45 43.2 
z
" style="fill: #ffffff"/>
   </g>
   <g id="PathCollection_1">
    <defs>
     <path id="mfbe37af4eb" d="M 0 0.5 
C 0.132602 0.5 0.25979 0.447317 0.353553 0.353553 
C 0.447317 0.25979 0.5 0.132602 0.5 0 
C 0.5 -0.132602 0.447317 -0.25979 0.353553 -0.353553 
C 0.25979 -0.447317 0.132602 -0.5 0 -0.5 
C -0.132602 -0.5 -0.25979 -0.447317 -0.353553 -0.353553 
C -0.447317 -0.25979 -0.5 -0.132602 -0.5 0 
C -0.5 0.132602 -0.447317 0.25979 -0.353553 0.353553 
C -0.25979 0.447317 -0.132602 0.5 0 0.5 
z
" style="stroke: #ff0000"/>
    </defs>
    <g clip-path="url(#pc8f216e499)">
     <use xlink:href="#mfbe37af4eb" x="236.846989" y="181.336455" style="fill: #ff0000; stroke: #ff0000"/>
     <use xlink:href="#mfbe37af4eb" x="236.582869" y="176.28549" style="fill: #ff0000; stroke: #ff0000"/>
     <use xlink:href="#mfbe37af4eb" x="235.977443" y="171.255221" style="fill: #ff0000; stroke: #ff0000"/>
     <use xlink:href="#mfbe37af4eb" x="234.752046" y="166.331625" style="fill: #ff0000; stroke: #ff0000"/>
     <use xlink:href="#mfbe37af4eb" x="232.747133" y="161.672778" style="fill: #ff0000; stroke: #ff0000"/>
     <use xlink:href="#mfbe37af4eb" x="229.982097" y="157.430381" style="fill: #ff0000; stroke: #ff0000"/>
     <use xlink:href="#mfbe37af4eb" x="226.632712" y="153.675635" style="fill: #ff0000; stroke: #ff0000"/>
     <use xlink:href="#mfbe37af4eb" x="222.948302" y="150.366742" style="fill: #ff0000; stroke: #ff0000"/>
     <use xlink:href="#mfbe37af4eb" x="219.155337" y="147.368246" style="fill: #ff0000; stroke: #ff0000"/>
     <use xlink:href="#mfbe37af4eb" x="215.388768" y="144.50604" style="fill: #ff0000; stroke: #ff0000"/>
     <use xlink:href="#mfbe37af4eb" x="211.668954" y="141.631316" style="fill: #ff0000; stroke: #ff0000"/>
     <use xlink:href="#mfbe37af4eb" x="207.919623" y="138.671332" style="fill: #ff0000; stroke: #ff0000"/>
     <use xlink:href="#mfbe37af4eb" x="204.011163" y="135.655336" style="fill: #ff0000; stroke: #ff0000"/>
     <use xlink:href="#mfbe37af4eb" x="199.812084" y="132.713042" style="fill: #ff0000; stroke: #ff0000"/>
     <use xlink:href="#mfbe37af4eb" x="195.234562" y="130.048735" style="fill: #ff0000; stroke: #ff0000"/>
     <use xlink:href="#mfbe37af4eb" x="190.264038" y="127.897217" style="fill: #ff0000; stroke: #ff0000"/>
     <use xlink:href="#mfbe37af4eb" x="184.966555" y="126.470387" style="fill: #ff0000; stroke: #ff0000"/>
     <use xlink:href="#mfbe37af4eb" x="179.471797" y="125.907171" style="fill: #ff0000; stroke: #ff0000"/>
     <use xlink:href="#mfbe37af4eb" x="173.936649" y="126.243119" style="fill: #ff0000; stroke: #ff0000"/>
     <use xlink:href="#mfbe37af4eb" x="168.502966" y="127.413425" style="fill: #ff0000; stroke: #ff0000"/>
     <use xlink:href="#mfbe37af4eb" x="163.268456" y="129.290569" style="fill: #ff0000; stroke: #ff0000"/>
     <use xlink:href="#mfbe37af4eb" x="158.284729" y="131.740322" style="fill: #ff0000; stroke: #ff0000"/>
     <use xlink:href="#mfbe37af4eb" x="153.582141" y="134.669392" style="fill: #ff0000; stroke: #ff0000"/>
     <use xlink:href="#mfbe37af4eb" x="149.205478" y="138.042585" style="fill: #ff0000; stroke: #ff0000"/>
     <use xlink:href="#mfbe37af4eb" x="145.23813" y="141.864342" style="fill: #ff0000; stroke: #ff0000"/>
     <use xlink:href="#mfbe37af4eb" x="141.798687" y="146.138062" style="fill: #ff0000; stroke: #ff0000"/>
     <use xlink:href="#mfbe37af4eb" x="139.009543" y="150.827074" style="fill: #ff0000; stroke: #ff0000"/>
     <use xlink:href="#mfbe37af4eb" x="136.954271" y="155.838923" style="fill: #ff0000; stroke: #ff0000"/>
     <use xlink:href="#mfbe37af4eb" x="135.649001" y="161.040248" style="fill: #ff0000; stroke: #ff0000"/>
     <use xlink:href="#mfbe37af4eb" x="135.044662" y="166.290515" style="fill: #ff0000; stroke: #ff0000"/>
     <use xlink:href="#mfbe37af4eb" x="135.055817" y="171.472643" style="fill: #ff0000; stroke: #ff0000"/>
     <use xlink:href="#mfbe37af4eb" x="135.594274" y="176.505082" style="fill: #ff0000; stroke: #ff0000"/>
     <use xlink:href="#mfbe37af4eb" x="136.58625" y="181.336455" style="fill: #ff0000; stroke: #ff0000"/>
     <use xlink:href="#mfbe37af4eb" x="137.967659" y="185.935578" style="fill: #ff0000; stroke: #ff0000"/>
     <use xlink:href="#mfbe37af4eb" x="139.66833" y="190.288701" style="fill: #ff0000; stroke: #ff0000"/>
     <use xlink:href="#mfbe37af4eb" x="141.601783" y="194.406147" style="fill: #ff0000; stroke: #ff0000"/>
     <use xlink:href="#mfbe37af4eb" x="143.672293" y="198.330746" style="fill: #ff0000; stroke: #ff0000"/>
     <use xlink:href="#mfbe37af4eb" x="145.799648" y="202.136537" style="fill: #ff0000; stroke: #ff0000"/>
     <use xlink:href="#mfbe37af4eb" x="147.94956" y="205.910846" style="fill: #ff0000; stroke: #ff0000"/>
     <use xlink:href="#mfbe37af4eb" x="150.151675" y="209.723954" style="fill: #ff0000; stroke: #ff0000"/>
     <use xlink:href="#mfbe37af4eb" x="152.492916" y="213.600587" style="fill: #ff0000; stroke: #ff0000"/>
     <use xlink:href="#mfbe37af4eb" x="155.088831" y="217.507688" style="fill: #ff0000; stroke: #ff0000"/>
     <use xlink:href="#mfbe37af4eb" x="158.048454" y="221.362331" style="fill: #ff0000; stroke: #ff0000"/>
     <use xlink:href="#mfbe37af4eb" x="161.449156" y="225.050557" style="fill: #ff0000; stroke: #ff0000"/>
     <use xlink:href="#mfbe37af4eb" x="165.327219" y="228.444112" style="fill: #ff0000; stroke: #ff0000"/>
     <use xlink:href="#mfbe37af4eb" x="169.67783" y="231.411464" style="fill: #ff0000; stroke: #ff0000"/>
     <use xlink:href="#mfbe37af4eb" x="174.456621" y="233.832579" style="fill: #ff0000; stroke: #ff0000"/>
     <use xlink:href="#mfbe37af4eb" x="179.584704" y="235.626775" style="fill: #ff0000; stroke: #ff0000"/>
     <use xlink:href="#mfbe37af4eb" x="184.966555" y="236.784634" style="fill: #ff0000; stroke: #ff0000"/>
     <use xlink:href="#mfbe37af4eb" x="190.521792" y="237.375824" style="fill: #ff0000; stroke: #ff0000"/>
     <use xlink:href="#mfbe37af4eb" x="196.212737" y="237.510066" style="fill: #ff0000; stroke: #ff0000"/>
     <use xlink:href="#mfbe37af4eb" x="202.041246" y="237.26102" style="fill: #ff0000; stroke: #ff0000"/>
     <use xlink:href="#mfbe37af4eb" x="208.004425" y="236.595966" style="fill: #ff0000; stroke: #ff0000"/>
     <use xlink:href="#mfbe37af4eb" x="214.029166" y="235.357987" style="fill: #ff0000; stroke: #ff0000"/>
     <use xlink:href="#mfbe37af4eb" x="219.925244" y="233.318286" style="fill: #ff0000; stroke: #ff0000"/>
     <use xlink:href="#mfbe37af4eb" x="225.391259" y="230.276308" style="fill: #ff0000; stroke: #ff0000"/>
     <use xlink:href="#mfbe37af4eb" x="230.080921" y="226.15976" style="fill: #ff0000; stroke: #ff0000"/>
     <use xlink:href="#mfbe37af4eb" x="233.705475" y="221.077394" style="fill: #ff0000; stroke: #ff0000"/>
     <use xlink:href="#mfbe37af4eb" x="236.128874" y="215.301471" style="fill: #ff0000; stroke: #ff0000"/>
     <use xlink:href="#mfbe37af4eb" x="237.415385" y="209.190071" style="fill: #ff0000; stroke: #ff0000"/>
     <use xlink:href="#mfbe37af4eb" x="237.811357" y="203.084269" style="fill: #ff0000; stroke: #ff0000"/>
     <use xlink:href="#mfbe37af4eb" x="237.668888" y="197.22039" style="fill: #ff0000; stroke: #ff0000"/>
     <use xlink:href="#mfbe37af4eb" x="237.336226" y="191.686224" style="fill: #ff0000; stroke: #ff0000"/>
     <use xlink:href="#mfbe37af4eb" x="237.047379" y="186.432875" style="fill: #ff0000; stroke: #ff0000"/>
    </g>
   </g>
   <g id="matplotlib.axis_1">
    <g id="xtick_1">
     <g id="line2d_1">
      <defs>
       <path id="me6c45a9861" d="M 0 0 
L 0 3.5 
" style="stroke: #000000; stroke-width: 0.8"/>
      </defs>
      <g>
       <use xlink:href="#me6c45a9861" x="45" y="320.4" style="stroke: #000000; stroke-width: 0.8"/>
      </g>
     </g>
     <g id="text_1">
      <!-- −3 -->
      <g transform="translate(37.628906 334.998438)scale(0.1 -0.1)">
       <defs>
        <path id="DejaVuSans-2212" d="M 678 2272 
L 4684 2272 
L 4684 1741 
L 678 1741 
L 678 2272 
z
" transform="scale(0.015625)"/>
        <path id="DejaVuSans-33" d="M 2597 2516 
Q 3050 2419 3304 2112 
Q 3559 1806 3559 1356 
Q 3559 666 3084 287 
Q 2609 -91 1734 -91 
Q 1441 -91 1130 -33 
Q 819 25 488 141 
L 488 750 
Q 750 597 1062 519 
Q 1375 441 1716 441 
Q 2309 441 2620 675 
Q 2931 909 2931 1356 
Q 2931 1769 2642 2001 
Q 2353 2234 1838 2234 
L 1294 2234 
L 1294 2753 
L 1863 2753 
Q 2328 2753 2575 2939 
Q 2822 3125 2822 3475 
Q 2822 3834 2567 4026 
Q 2313 4219 1838 4219 
Q 1578 4219 1281 4162 
Q 984 4106 628 3988 
L 628 4550 
Q 988 4650 1302 4700 
Q 1616 4750 1894 4750 
Q 2613 4750 3031 4423 
Q 3450 4097 3450 3541 
Q 3450 3153 3228 2886 
Q 3006 2619 2597 2516 
z
" transform="scale(0.015625)"/>
       </defs>
       <use xlink:href="#DejaVuSans-2212"/>
       <use xlink:href="#DejaVuSans-33" x="83.789062"/>
      </g>
     </g>
    </g>
    <g id="xtick_2">
     <g id="line2d_2">
      <g>
       <use xlink:href="#me6c45a9861" x="91.655518" y="320.4" style="stroke: #000000; stroke-width: 0.8"/>
      </g>
     </g>
     <g id="text_2">
      <!-- −2 -->
      <g transform="translate(84.284425 334.998438)scale(0.1 -0.1)">
       <defs>
        <path id="DejaVuSans-32" d="M 1228 531 
L 3431 531 
L 3431 0 
L 469 0 
L 469 531 
Q 828 903 1448 1529 
Q 2069 2156 2228 2338 
Q 2531 2678 2651 2914 
Q 2772 3150 2772 3378 
Q 2772 3750 2511 3984 
Q 2250 4219 1831 4219 
Q 1534 4219 1204 4116 
Q 875 4013 500 3803 
L 500 4441 
Q 881 4594 1212 4672 
Q 1544 4750 1819 4750 
Q 2544 4750 2975 4387 
Q 3406 4025 3406 3419 
Q 3406 3131 3298 2873 
Q 3191 2616 2906 2266 
Q 2828 2175 2409 1742 
Q 1991 1309 1228 531 
z
" transform="scale(0.015625)"/>
       </defs>
       <use xlink:href="#DejaVuSans-2212"/>
       <use xlink:href="#DejaVuSans-32" x="83.789062"/>
      </g>
     </g>
    </g>
    <g id="xtick_3">
     <g id="line2d_3">
      <g>
       <use xlink:href="#me6c45a9861" x="138.311037" y="320.4" style="stroke: #000000; stroke-width: 0.8"/>
      </g>
     </g>
     <g id="text_3">
      <!-- −1 -->
      <g transform="translate(130.939943 334.998438)scale(0.1 -0.1)">
       <defs>
        <path id="DejaVuSans-31" d="M 794 531 
L 1825 531 
L 1825 4091 
L 703 3866 
L 703 4441 
L 1819 4666 
L 2450 4666 
L 2450 531 
L 3481 531 
L 3481 0 
L 794 0 
L 794 531 
z
" transform="scale(0.015625)"/>
       </defs>
       <use xlink:href="#DejaVuSans-2212"/>
       <use xlink:href="#DejaVuSans-31" x="83.789062"/>
      </g>
     </g>
    </g>
    <g id="xtick_4">
     <g id="line2d_4">
      <g>
       <use xlink:href="#me6c45a9861" x="184.966555" y="320.4" style="stroke: #000000; stroke-width: 0.8"/>
      </g>
     </g>
     <g id="text_4">
      <!-- 0 -->
      <g transform="translate(181.785305 334.998438)scale(0.1 -0.1)">
       <defs>
        <path id="DejaVuSans-30" d="M 2034 4250 
Q 1547 4250 1301 3770 
Q 1056 3291 1056 2328 
Q 1056 1369 1301 889 
Q 1547 409 2034 409 
Q 2525 409 2770 889 
Q 3016 1369 3016 2328 
Q 3016 3291 2770 3770 
Q 2525 4250 2034 4250 
z
M 2034 4750 
Q 2819 4750 3233 4129 
Q 3647 3509 3647 2328 
Q 3647 1150 3233 529 
Q 2819 -91 2034 -91 
Q 1250 -91 836 529 
Q 422 1150 422 2328 
Q 422 3509 836 4129 
Q 1250 4750 2034 4750 
z
" transform="scale(0.015625)"/>
       </defs>
       <use xlink:href="#DejaVuSans-30"/>
      </g>
     </g>
    </g>
    <g id="xtick_5">
     <g id="line2d_5">
      <g>
       <use xlink:href="#me6c45a9861" x="231.622074" y="320.4" style="stroke: #000000; stroke-width: 0.8"/>
      </g>
     </g>
     <g id="text_5">
      <!-- 1 -->
      <g transform="translate(228.440824 334.998438)scale(0.1 -0.1)">
       <use xlink:href="#DejaVuSans-31"/>
      </g>
     </g>
    </g>
    <g id="xtick_6">
     <g id="line2d_6">
      <g>
       <use xlink:href="#me6c45a9861" x="278.277592" y="320.4" style="stroke: #000000; stroke-width: 0.8"/>
      </g>
     </g>
     <g id="text_6">
      <!-- 2 -->
      <g transform="translate(275.096342 334.998438)scale(0.1 -0.1)">
       <use xlink:href="#DejaVuSans-32"/>
      </g>
     </g>
    </g>
   </g>
   <g id="matplotlib.axis_2">
    <g id="ytick_1">
     <g id="line2d_7">
      <defs>
       <path id="m82555c7f89" d="M 0 0 
L -3.5 0 
" style="stroke: #000000; stroke-width: 0.8"/>
      </defs>
      <g>
       <use xlink:href="#m82555c7f89" x="45" y="320.4" style="stroke: #000000; stroke-width: 0.8"/>
      </g>
     </g>
     <g id="text_7">
      <!-- −3 -->
      <g transform="translate(23.257812 324.199219)scale(0.1 -0.1)">
       <use xlink:href="#DejaVuSans-2212"/>
       <use xlink:href="#DejaVuSans-33" x="83.789062"/>
      </g>
     </g>
    </g>
    <g id="ytick_2">
     <g id="line2d_8">
      <g>
       <use xlink:href="#m82555c7f89" x="45" y="274.045485" style="stroke: #000000; stroke-width: 0.8"/>
      </g>
     </g>
     <g id="text_8">
      <!-- −2 -->
      <g transform="translate(23.257812 277.844704)scale(0.1 -0.1)">
       <use xlink:href="#DejaVuSans-2212"/>
       <use xlink:href="#DejaVuSans-32" x="83.789062"/>
      </g>
     </g>
    </g>
    <g id="ytick_3">
     <g id="line2d_9">
      <g>
       <use xlink:href="#m82555c7f89" x="45" y="227.69097" style="stroke: #000000; stroke-width: 0.8"/>
      </g>
     </g>
     <g id="text_9">
      <!-- −1 -->
      <g transform="translate(23.257812 231.490189)scale(0.1 -0.1)">
       <use xlink:href="#DejaVuSans-2212"/>
       <use xlink:href="#DejaVuSans-31" x="83.789062"/>
      </g>
     </g>
    </g>
    <g id="ytick_4">
     <g id="line2d_10">
      <g>
       <use xlink:href="#m82555c7f89" x="45" y="181.336455" style="stroke: #000000; stroke-width: 0.8"/>
      </g>
     </g>
     <g id="text_10">
      <!-- 0 -->
      <g transform="translate(31.6375 185.135674)scale(0.1 -0.1)">
       <use xlink:href="#DejaVuSans-30"/>
      </g>
     </g>
    </g>
    <g id="ytick_5">
     <g id="line2d_11">
      <g>
       <use xlink:href="#m82555c7f89" x="45" y="134.98194" style="stroke: #000000; stroke-width: 0.8"/>
      </g>
     </g>
     <g id="text_11">
      <!-- 1 -->
      <g transform="translate(31.6375 138.781159)scale(0.1 -0.1)">
       <use xlink:href="#DejaVuSans-31"/>
      </g>
     </g>
    </g>
    <g id="ytick_6">
     <g id="line2d_12">
      <g>
       <use xlink:href="#m82555c7f89" x="45" y="88.627425" style="stroke: #000000; stroke-width: 0.8"/>
      </g>
     </g>
     <g id="text_12">
      <!-- 2 -->
      <g transform="translate(31.6375 92.426643)scale(0.1 -0.1)">
       <use xlink:href="#DejaVuSans-32"/>
      </g>
     </g>
    </g>
   </g>
   <g id="PathCollection_2">
    <path d="M 187.765886 215.807087 
L 187.382382 215.638796 
L 186.832776 215.395876 
L 185.899666 214.900858 
L 185.578171 214.711706 
L 184.966555 214.351946 
L 184.033445 213.837341 
L 183.940012 213.784615 
L 183.100334 213.262589 
L 182.610265 212.857525 
L 182.167224 212.491101 
L 181.493144 211.930435 
L 181.234114 211.707278 
L 180.422972 211.003344 
L 180.301003 210.89194 
L 179.452659 210.076254 
L 179.367893 209.996899 
L 178.48699 209.149164 
L 178.434783 209.09703 
L 177.545347 208.222074 
L 177.501672 208.178014 
L 176.685072 207.294983 
L 176.568562 207.160714 
L 175.880602 206.367893 
L 175.635452 206.085378 
L 175.041213 205.440803 
L 174.702341 205.088801 
L 174.117663 204.513712 
L 173.769231 204.164728 
L 173.347434 203.586622 
L 172.83612 202.832014 
L 172.717183 202.659532 
L 172.04394 201.732441 
L 171.90301 201.40049 
L 171.69693 200.805351 
L 171.411659 199.878261 
L 171.161776 198.951171 
L 170.9699 198.518659 
L 170.711374 198.02408 
L 170.22377 197.09699 
L 170.036789 196.740195 
L 169.737921 196.1699 
L 169.252064 195.242809 
L 169.103679 194.959665 
L 168.799797 194.315719 
L 168.371268 193.388629 
L 168.170569 192.946589 
L 167.958602 192.461538 
L 167.553463 191.534448 
L 167.237458 190.811313 
L 167.149387 190.607358 
L 166.756964 189.680268 
L 166.342967 188.753177 
L 166.304348 188.688484 
L 165.758734 187.826087 
L 165.371237 187.331292 
L 165.026975 186.898997 
L 164.438127 186.156043 
L 164.286331 185.971906 
L 163.505886 185.044816 
L 163.505017 185.043696 
L 162.737789 184.117726 
L 162.571906 183.753729 
L 162.329017 183.190635 
L 161.886175 182.263545 
L 161.638796 181.775031 
L 161.424334 181.336455 
L 160.978511 180.409365 
L 160.705686 179.864798 
L 160.531436 179.482274 
L 160.126142 178.555184 
L 159.772575 177.765096 
L 159.712077 177.628094 
L 159.304105 176.701003 
L 158.897102 175.773913 
L 158.839465 175.649428 
L 158.474297 174.846823 
L 158.004382 173.919732 
L 157.906355 173.378112 
L 157.844789 172.992642 
L 157.906355 172.317054 
L 157.931393 172.065552 
L 158.040748 171.138462 
L 158.389459 170.211371 
L 158.674203 169.284281 
L 158.839465 168.543968 
L 158.899305 168.357191 
L 159.200444 167.4301 
L 159.50725 166.50301 
L 159.772575 165.688037 
L 159.814179 165.57592 
L 160.414897 164.648829 
L 160.705686 164.293127 
L 161.118281 163.721739 
L 161.638796 163.057378 
L 161.826911 162.794649 
L 162.571906 162.019999 
L 162.700912 161.867559 
L 163.383219 160.940468 
L 163.505017 160.772792 
L 163.966294 160.013378 
L 164.438127 159.256171 
L 164.527418 159.086288 
L 164.776919 158.159197 
L 165.034216 157.232107 
L 165.371237 156.466323 
L 165.431149 156.305017 
L 166.171943 155.377926 
L 166.304348 155.211424 
L 166.888532 154.450836 
L 167.237458 154.017938 
L 167.617973 153.523746 
L 168.170569 152.855153 
L 168.436825 152.596656 
L 169.103679 152.011023 
L 169.579183 151.669565 
L 170.036789 151.337494 
L 170.82088 150.742475 
L 170.9699 150.62209 
L 171.90301 149.851337 
L 171.948727 149.815385 
L 172.83612 149.206651 
L 173.769231 149.023039 
L 174.538499 148.888294 
L 174.702341 148.85936 
L 175.635452 148.69439 
L 176.568562 148.65305 
L 177.501672 148.686868 
L 178.434783 148.751149 
L 179.367893 148.815431 
L 180.301003 148.879721 
L 180.425441 148.888294 
L 181.234114 148.970643 
L 182.167224 149.194022 
L 183.100334 149.757345 
L 183.186426 149.815385 
L 184.033445 150.32055 
L 184.842762 150.742475 
L 184.966555 150.797459 
L 185.899666 151.308526 
L 186.370726 151.669565 
L 186.832776 152.008004 
L 187.635248 152.596656 
L 187.765886 152.692381 
L 188.698997 153.342429 
L 189.052248 153.523746 
L 189.632107 153.810833 
L 190.565217 154.382915 
L 190.666345 154.450836 
L 191.498328 155.009619 
L 192.039067 155.377926 
L 192.431438 155.650905 
L 193.364548 156.199337 
L 193.528067 156.305017 
L 194.297659 156.822187 
L 194.769561 157.232107 
L 195.230769 157.694255 
L 195.682426 158.159197 
L 196.16388 158.686125 
L 196.548626 159.086288 
L 197.09699 159.766285 
L 197.367122 160.013378 
L 198.0301 160.676656 
L 198.288256 160.940468 
L 198.963211 161.645272 
L 199.180121 161.867559 
L 199.896321 162.468821 
L 200.416966 162.794649 
L 200.829431 163.029099 
L 201.762542 163.561103 
L 202.077365 163.721739 
L 202.695652 164.04539 
L 203.628763 164.380845 
L 204.365877 164.648829 
L 204.561873 164.761591 
L 205.309622 165.57592 
L 205.494983 165.789695 
L 206.009609 166.50301 
L 206.428094 167.043865 
L 206.703515 167.4301 
L 207.361204 168.338955 
L 207.373782 168.357191 
L 207.974036 169.284281 
L 208.294314 169.743783 
L 208.604399 170.211371 
L 209.227425 171.085759 
L 209.262184 171.138462 
L 209.88959 172.065552 
L 210.160535 172.492494 
L 210.436146 172.992642 
L 210.709427 173.919732 
L 210.988805 174.846823 
L 211.093645 175.062342 
L 211.429373 175.773913 
L 211.94399 176.701003 
L 212.026756 176.856881 
L 212.432481 177.628094 
L 212.928466 178.555184 
L 212.959866 178.614361 
L 213.420395 179.482274 
L 213.620766 180.409365 
L 213.653421 181.336455 
L 213.726369 182.263545 
L 213.814118 183.190635 
L 213.892977 183.711288 
L 213.951871 184.117726 
L 214.131526 185.044816 
L 214.311177 185.971906 
L 214.486203 186.898997 
L 214.636312 187.826087 
L 214.786687 188.753177 
L 214.826087 189.003692 
L 214.931033 189.680268 
L 215.07479 190.607358 
L 215.26895 191.534448 
L 215.517046 192.461538 
L 215.759197 193.326939 
L 215.776275 193.388629 
L 216.045045 194.315719 
L 216.356666 195.242809 
L 216.648102 196.1699 
L 216.692308 196.298808 
L 216.967044 197.09699 
L 217.161966 198.02408 
L 217.101229 198.951171 
L 217.025132 199.878261 
L 216.828249 200.805351 
L 216.692308 201.379471 
L 216.608731 201.732441 
L 216.381775 202.659532 
L 216.107046 203.586622 
L 215.802548 204.513712 
L 215.759197 204.617102 
L 215.375276 205.440803 
L 214.826087 206.309209 
L 214.778041 206.367893 
L 214.017528 207.294983 
L 213.892977 207.464891 
L 213.372702 208.222074 
L 212.959866 208.809797 
L 212.72844 209.149164 
L 212.026756 210.048762 
L 212.005312 210.076254 
L 211.12237 211.003344 
L 211.093645 211.023993 
L 210.160535 211.726954 
L 209.893988 211.930435 
L 209.227425 212.389922 
L 208.515495 212.857525 
L 208.294314 212.979924 
L 207.361204 213.249947 
L 206.428094 213.525539 
L 205.566825 213.784615 
L 205.494983 213.808061 
L 204.561873 214.099524 
L 203.628763 214.368677 
L 202.695652 214.630412 
L 202.381533 214.711706 
L 201.762542 214.888126 
L 200.829431 215.141545 
L 199.896321 215.378184 
L 198.963211 215.606697 
L 198.833572 215.638796 
L 198.0301 215.857563 
L 197.09699 216.116827 
L 196.16388 216.271625 
L 195.230769 216.219738 
L 194.297659 216.212039 
L 193.364548 216.221746 
L 192.431438 216.190782 
L 191.498328 216.199147 
L 190.565217 216.263306 
L 189.632107 216.26871 
L 188.698997 216.138062 
L 187.765886 215.807087 
z
" clip-path="url(#pc8f216e499)" style="fill: none; stroke-dasharray: 5.55,2.4; stroke-dashoffset: 0; stroke: #000000; stroke-width: 1.5"/>
   </g>
   <g id="PathCollection_3">
    <path d="M 192.431438 238.906593 
L 191.671769 238.816054 
L 191.498328 238.776268 
L 190.565217 238.607693 
L 189.632107 238.524398 
L 188.698997 238.441093 
L 187.765886 238.341106 
L 186.832776 238.23844 
L 185.899666 238.125325 
L 184.966555 237.948734 
L 184.658147 237.888963 
L 184.033445 237.663075 
L 183.100334 237.315406 
L 182.239943 236.961873 
L 182.167224 236.922444 
L 181.234114 236.576525 
L 180.301003 236.237783 
L 179.799811 236.034783 
L 179.367893 235.85455 
L 178.434783 235.531497 
L 177.501672 235.131041 
L 177.460041 235.107692 
L 176.568562 234.70284 
L 175.635452 234.269002 
L 175.442516 234.180602 
L 174.702341 233.922903 
L 173.769231 233.661345 
L 173.014573 233.253512 
L 172.83612 233.156538 
L 171.90301 232.470727 
L 171.711734 232.326421 
L 170.9699 231.777994 
L 170.472512 231.399331 
L 170.036789 231.067309 
L 169.292681 230.472241 
L 169.103679 230.320907 
L 168.170569 229.564217 
L 168.147443 229.545151 
L 167.237458 228.853907 
L 166.892497 228.61806 
L 166.304348 228.227433 
L 165.62826 227.69097 
L 165.371237 227.488495 
L 164.520486 226.76388 
L 164.438127 226.691917 
L 163.505017 225.865684 
L 163.471269 225.836789 
L 162.571906 225.074037 
L 162.372323 224.909699 
L 161.638796 224.317757 
L 161.228572 223.982609 
L 160.705686 223.55967 
L 160.080033 223.055518 
L 159.772575 222.804646 
L 158.996608 222.128428 
L 158.839465 221.969132 
L 158.078763 221.201338 
L 157.906355 221.0269 
L 157.16451 220.274247 
L 156.973244 220.079119 
L 156.261007 219.347157 
L 156.040134 219.08124 
L 155.574125 218.420067 
L 155.107023 217.775418 
L 154.904049 217.492977 
L 154.310664 216.565886 
L 154.173913 216.260664 
L 153.905677 215.638796 
L 153.526186 214.711706 
L 153.240803 214.081871 
L 153.085598 213.784615 
L 152.589577 212.857525 
L 152.307692 212.30659 
L 152.105176 211.930435 
L 151.464527 211.003344 
L 151.374582 210.877958 
L 150.769902 210.076254 
L 150.441472 209.196151 
L 150.422891 209.149164 
L 150.056715 208.222074 
L 149.661116 207.294983 
L 149.508361 206.806572 
L 149.33179 206.367893 
L 148.740825 205.440803 
L 148.575251 205.142043 
L 148.16851 204.513712 
L 147.64214 203.614902 
L 147.624294 203.586622 
L 146.991371 202.659532 
L 146.70903 202.106888 
L 146.477389 201.732441 
L 145.897017 200.805351 
L 145.77592 200.574154 
L 145.332033 199.878261 
L 144.908676 198.951171 
L 144.842809 198.853608 
L 144.226362 198.02408 
L 143.909699 197.528199 
L 143.59246 197.09699 
L 143.015262 196.1699 
L 142.976589 196.122448 
L 142.302467 195.242809 
L 142.043478 194.86642 
L 141.611792 194.315719 
L 141.110368 193.560167 
L 140.981337 193.388629 
L 140.375824 192.461538 
L 140.177258 192.06809 
L 139.860322 191.534448 
L 139.520431 190.607358 
L 139.29839 189.680268 
L 139.244147 189.530759 
L 138.980373 188.753177 
L 138.695873 187.826087 
L 138.351072 186.898997 
L 138.311037 186.826339 
L 137.933074 185.971906 
L 137.630042 185.044816 
L 137.377926 184.529582 
L 137.220914 184.117726 
L 136.851125 183.190635 
L 136.541605 182.263545 
L 136.444816 182.074298 
L 136.177072 181.336455 
L 135.843637 180.409365 
L 135.550547 179.482274 
L 135.511706 179.37702 
L 135.390374 178.555184 
L 135.281745 177.628094 
L 135.090274 176.701003 
L 134.950208 175.773913 
L 134.831592 174.846823 
L 134.578595 174.356739 
L 134.467855 173.919732 
L 134.042027 172.992642 
L 133.755045 172.065552 
L 133.645485 171.82154 
L 133.588623 171.138462 
L 133.569447 170.211371 
L 133.5547 169.284281 
L 133.536016 168.357191 
L 133.499745 167.4301 
L 133.5087 166.50301 
L 133.644167 165.57592 
L 133.645485 165.529361 
L 133.919605 164.648829 
L 134.153435 163.721739 
L 134.528309 162.794649 
L 134.578595 162.266698 
L 134.735776 161.867559 
L 135.071504 160.940468 
L 135.492129 160.013378 
L 135.511706 159.826892 
L 135.778374 159.086288 
L 135.96425 158.159197 
L 136.264048 157.232107 
L 136.439948 156.305017 
L 136.444816 156.20392 
L 136.688815 155.377926 
L 137.014406 154.450836 
L 137.377926 153.826669 
L 137.582563 153.523746 
L 138.081944 152.596656 
L 138.311037 152.180724 
L 138.594792 151.669565 
L 139.092239 150.742475 
L 139.244147 150.545551 
L 139.858271 149.815385 
L 140.177258 149.437569 
L 140.640542 148.888294 
L 141.110368 148.331936 
L 141.423125 147.961204 
L 142.043478 147.226721 
L 142.217179 147.034114 
L 142.976589 146.123171 
L 142.992857 146.107023 
L 143.737808 145.179933 
L 143.909699 144.975963 
L 144.496561 144.252843 
L 144.842809 143.845301 
L 145.288702 143.325753 
L 145.77592 142.808222 
L 146.153115 142.398662 
L 146.70903 141.819274 
L 147.068291 141.471572 
L 147.64214 140.921 
L 148.027673 140.544482 
L 148.575251 140.009961 
L 148.967787 139.617391 
L 149.508361 139.075134 
L 149.886587 138.690301 
L 150.441472 138.106128 
L 150.748401 137.763211 
L 151.374582 137.059975 
L 151.575317 136.83612 
L 152.307692 136.155575 
L 152.635999 135.90903 
L 153.240803 135.465276 
L 154.025479 134.98194 
L 154.173913 134.879175 
L 155.107023 134.369761 
L 155.694301 134.054849 
L 156.040134 133.837636 
L 156.9712 133.127759 
L 156.973244 133.125934 
L 157.906355 132.281781 
L 157.992057 132.200669 
L 158.839465 131.43805 
L 159.035428 131.273579 
L 159.772575 130.731525 
L 160.438867 130.346488 
L 160.705686 130.177661 
L 161.638796 129.765746 
L 162.420002 129.419398 
L 162.571906 129.341634 
L 163.505017 128.95114 
L 164.438127 128.583878 
L 164.621776 128.492308 
L 165.371237 128.186447 
L 166.304348 127.827383 
L 166.96773 127.565217 
L 167.237458 127.445608 
L 168.170569 127.208247 
L 169.103679 127.028249 
L 170.036789 126.863998 
L 170.869523 126.638127 
L 170.9699 126.609018 
L 171.90301 126.363295 
L 172.83612 126.13919 
L 173.769231 125.925301 
L 174.587028 125.711037 
L 174.702341 125.679484 
L 175.635452 125.499849 
L 176.568562 125.353489 
L 177.501672 125.281238 
L 178.434783 125.269965 
L 179.367893 125.258696 
L 180.301003 125.249252 
L 181.234114 125.31869 
L 182.167224 125.393038 
L 183.100334 125.566506 
L 183.454167 125.711037 
L 184.033445 125.939778 
L 184.966555 126.331799 
L 185.817165 126.638127 
L 185.899666 126.675799 
L 186.832776 127.003537 
L 187.765886 127.357534 
L 188.268876 127.565217 
L 188.698997 127.744426 
L 189.632107 128.107931 
L 190.565217 128.472686 
L 190.606035 128.492308 
L 191.498328 128.849615 
L 192.431438 129.238607 
L 192.748817 129.419398 
L 193.364548 129.727073 
L 194.297659 130.146289 
L 194.815078 130.346488 
L 195.230769 130.503832 
L 196.16388 130.805236 
L 197.09699 131.229868 
L 197.175277 131.273579 
L 198.0301 131.65054 
L 198.963211 132.088528 
L 199.125882 132.200669 
L 199.896321 132.671269 
L 200.605654 133.127759 
L 200.829431 133.28037 
L 201.762542 133.849757 
L 202.051127 134.054849 
L 202.695652 134.468225 
L 203.496618 134.98194 
L 203.628763 135.078591 
L 204.561873 135.651604 
L 204.940238 135.90903 
L 205.494983 136.265446 
L 206.28306 136.83612 
L 206.428094 136.953188 
L 207.256004 137.763211 
L 207.361204 137.917694 
L 207.871691 138.690301 
L 208.294314 139.290126 
L 208.554628 139.617391 
L 209.227425 140.252467 
L 209.597044 140.544482 
L 210.160535 140.926862 
L 210.972187 141.471572 
L 211.093645 141.564136 
L 212.026756 142.165373 
L 212.352948 142.398662 
L 212.959866 142.806241 
L 213.712408 143.325753 
L 213.892977 143.460319 
L 214.826087 144.097274 
L 215.017027 144.252843 
L 215.759197 144.8065 
L 216.225975 145.179933 
L 216.692308 145.549586 
L 217.395532 146.107023 
L 217.625418 146.308878 
L 218.558528 147.0228 
L 218.572002 147.034114 
L 219.491639 147.723368 
L 219.785282 147.961204 
L 220.424749 148.427551 
L 221.160566 148.888294 
L 221.35786 149.050633 
L 222.29097 149.656545 
L 222.455128 149.815385 
L 223.22408 150.58623 
L 223.377375 150.742475 
L 224.157191 151.556617 
L 224.267939 151.669565 
L 225.090301 152.531249 
L 225.154388 152.596656 
L 226.010884 153.523746 
L 226.023411 153.536092 
L 226.864124 154.450836 
L 226.956522 154.541971 
L 227.731124 155.377926 
L 227.889632 155.534826 
L 228.608006 156.305017 
L 228.822742 156.538411 
L 229.466784 157.232107 
L 229.755853 157.554276 
L 230.211552 158.159197 
L 230.688963 159.003661 
L 230.745022 159.086288 
L 231.21314 160.013378 
L 231.622074 160.797977 
L 231.714126 160.940468 
L 232.179488 161.867559 
L 232.555184 162.583086 
L 232.692525 162.794649 
L 233.130744 163.721739 
L 233.488294 164.504913 
L 233.569548 164.648829 
L 233.931667 165.57592 
L 234.297469 166.50301 
L 234.421405 166.750223 
L 234.702174 167.4301 
L 235.053938 168.357191 
L 235.354515 169.069887 
L 235.462504 169.284281 
L 235.713892 170.211371 
L 235.934321 171.138462 
L 236.147361 172.065552 
L 236.287625 172.500491 
L 236.452802 172.992642 
L 236.670736 173.919732 
L 236.834639 174.846823 
L 237.000219 175.773913 
L 237.210149 176.701003 
L 237.220736 176.719645 
L 237.595427 177.628094 
L 237.770151 178.555184 
L 237.786542 179.482274 
L 237.802363 180.409365 
L 237.818548 181.336455 
L 237.828893 182.263545 
L 237.817627 183.190635 
L 237.784948 184.117726 
L 237.74916 185.044816 
L 237.724295 185.971906 
L 237.748337 186.898997 
L 237.775062 187.826087 
L 237.798576 188.753177 
L 237.819572 189.680268 
L 237.839846 190.607358 
L 237.855247 191.534448 
L 237.86203 192.461538 
L 237.880083 193.388629 
L 237.919351 194.315719 
L 237.970792 195.242809 
L 238.073925 196.1699 
L 238.153846 196.7349 
L 238.206943 197.09699 
L 238.328407 198.02408 
L 238.443657 198.951171 
L 238.557192 199.878261 
L 238.65921 200.805351 
L 238.751389 201.732441 
L 238.835078 202.659532 
L 238.805456 203.586622 
L 238.493636 204.513712 
L 238.153846 205.230738 
L 238.068552 205.440803 
L 237.86449 206.367893 
L 237.538777 207.294983 
L 237.238808 208.222074 
L 237.220736 208.283979 
L 237.043032 209.149164 
L 236.881304 210.076254 
L 236.680721 211.003344 
L 236.454388 211.930435 
L 236.287625 212.358944 
L 236.142705 212.857525 
L 235.916313 213.784615 
L 235.643588 214.711706 
L 235.354515 215.368642 
L 235.254473 215.638796 
L 234.926136 216.565886 
L 234.627601 217.492977 
L 234.421405 218.020441 
L 234.29221 218.420067 
L 233.985058 219.347157 
L 233.719479 220.274247 
L 233.488294 220.836678 
L 233.345603 221.201338 
L 232.816368 222.128428 
L 232.555184 222.537236 
L 232.240359 223.055518 
L 231.622074 223.957115 
L 231.603553 223.982609 
L 230.892361 224.909699 
L 230.688963 225.145503 
L 229.968397 225.836789 
L 229.755853 226.02452 
L 228.929722 226.76388 
L 228.822742 226.856473 
L 227.889632 227.679886 
L 227.877306 227.69097 
L 226.956522 228.530597 
L 226.858564 228.61806 
L 226.023411 229.384833 
L 225.843849 229.545151 
L 225.090301 230.235526 
L 224.824516 230.472241 
L 224.157191 231.075079 
L 223.77775 231.399331 
L 223.22408 231.87858 
L 222.703201 232.326421 
L 222.29097 232.682936 
L 221.619455 233.253512 
L 221.35786 233.453031 
L 220.424749 233.872203 
L 219.491639 234.104184 
L 219.249746 234.180602 
L 218.558528 234.378211 
L 217.625418 234.667281 
L 216.692308 234.91141 
L 215.952817 235.107692 
L 215.759197 235.153153 
L 214.826087 235.443481 
L 213.892977 235.684074 
L 212.959866 235.848447 
L 212.236192 236.034783 
L 212.026756 236.078294 
L 211.093645 236.39927 
L 210.160535 236.679576 
L 209.227425 236.919046 
L 209.115075 236.961873 
L 208.294314 237.228031 
L 207.361204 237.514602 
L 206.428094 237.754271 
L 206.050971 237.888963 
L 205.494983 238.075085 
L 204.561873 238.378102 
L 203.628763 238.614392 
L 202.695652 238.749081 
L 201.762542 238.751037 
L 200.829431 238.753074 
L 199.896321 238.765863 
L 199.513872 238.816054 
L 198.963211 238.849916 
L 198.0301 238.976376 
L 197.09699 239.095576 
L 196.16388 239.200287 
L 195.230769 239.295481 
L 194.297659 239.248987 
L 193.364548 239.098696 
L 192.431438 238.906593 
z
" clip-path="url(#pc8f216e499)" style="fill: none; stroke: #000000; stroke-width: 1.5"/>
   </g>
   <g id="PathCollection_4">
    <path d="M 196.16388 262.110444 
L 195.292387 261.993311 
L 195.230769 261.985094 
L 194.297659 261.819441 
L 193.364548 261.653724 
L 192.431438 261.492752 
L 191.498328 261.404933 
L 190.565217 261.28863 
L 189.632107 261.138821 
L 189.179857 261.066221 
L 188.698997 260.989027 
L 187.765886 260.839194 
L 186.832776 260.714284 
L 185.899666 260.655032 
L 184.966555 260.595776 
L 184.033445 260.536525 
L 183.100334 260.477278 
L 182.167224 260.418006 
L 181.234114 260.288647 
L 180.672109 260.13913 
L 180.301003 260.036111 
L 179.367893 259.695946 
L 178.434783 259.337174 
L 178.113236 259.21204 
L 177.501672 258.974044 
L 176.568562 258.594713 
L 175.808819 258.28495 
L 175.635452 258.21451 
L 174.702341 257.97133 
L 173.769231 257.7287 
L 172.83612 257.482507 
L 172.363704 257.35786 
L 171.90301 257.236306 
L 170.9699 256.986398 
L 170.036789 256.718194 
L 169.103679 256.449189 
L 169.034872 256.430769 
L 168.170569 256.198754 
L 167.237458 255.944789 
L 166.304348 255.68981 
L 165.62323 255.503679 
L 165.371237 255.434514 
L 164.438127 255.148941 
L 163.505017 254.756898 
L 163.185696 254.576589 
L 162.571906 254.204008 
L 161.844715 253.649498 
L 161.638796 253.490573 
L 160.705686 252.770402 
L 160.643499 252.722408 
L 159.772575 252.055678 
L 159.379566 251.795318 
L 158.839465 251.446595 
L 157.943719 250.868227 
L 157.906355 250.844102 
L 156.973244 250.240762 
L 156.510199 249.941137 
L 156.040134 249.63697 
L 155.107023 249.033183 
L 155.077451 249.014047 
L 154.173913 248.418181 
L 153.679793 248.086957 
L 153.240803 247.783286 
L 152.409476 247.159866 
L 152.307692 247.081418 
L 151.374582 246.362232 
L 151.20662 246.232776 
L 150.441472 245.639999 
L 150.042981 245.305686 
L 149.508361 244.845523 
L 148.966401 244.378595 
L 148.575251 244.041676 
L 147.893369 243.451505 
L 147.64214 243.238014 
L 146.806961 242.524415 
L 146.70903 242.441467 
L 145.77592 241.621436 
L 145.749841 241.597324 
L 144.842809 240.758694 
L 144.74713 240.670234 
L 143.909699 239.895983 
L 143.752142 239.743144 
L 142.976589 238.956841 
L 142.83703 238.816054 
L 142.043478 238.019151 
L 141.911761 237.888963 
L 141.110368 237.075594 
L 140.99425 236.961873 
L 140.177258 236.161757 
L 140.047604 236.034783 
L 139.244147 235.247926 
L 139.100956 235.107692 
L 138.311037 234.334084 
L 138.154318 234.180602 
L 137.377926 233.420258 
L 137.209683 233.253512 
L 136.444816 232.505395 
L 136.261104 232.326421 
L 135.511706 231.435291 
L 135.487836 231.399331 
L 134.9965 230.472241 
L 134.578595 229.68371 
L 134.505162 229.545151 
L 134.02105 228.61806 
L 133.645485 227.878895 
L 133.55 227.69097 
L 133.078941 226.76388 
L 132.712375 226.042404 
L 132.607906 225.836789 
L 132.097783 224.909699 
L 131.779264 224.440259 
L 131.461309 223.982609 
L 130.846154 223.095357 
L 130.818646 223.055518 
L 130.174017 222.128428 
L 129.913043 221.754284 
L 129.527356 221.201338 
L 128.979933 220.416537 
L 128.88343 220.274247 
L 128.455939 219.347157 
L 128.099005 218.420067 
L 128.046823 218.285132 
L 127.734921 217.492977 
L 127.370203 216.565886 
L 127.113712 215.929199 
L 126.997008 215.638796 
L 126.612722 214.711706 
L 126.22848 213.784615 
L 126.180602 213.65383 
L 125.888348 212.857525 
L 125.550462 211.930435 
L 125.247492 211.21331 
L 125.153674 211.003344 
L 124.713754 210.076254 
L 124.314381 209.253589 
L 124.26076 209.149164 
L 123.533265 208.222074 
L 123.381271 208.038266 
L 122.771572 207.294983 
L 122.448161 206.892561 
L 122.03662 206.367893 
L 121.51505 205.702944 
L 121.309428 205.440803 
L 120.58223 204.513712 
L 120.58194 204.513342 
L 119.855043 203.586622 
L 119.648829 203.323723 
L 119.127857 202.659532 
L 118.715719 201.936486 
L 118.604133 201.732441 
L 118.050752 200.805351 
L 117.782609 200.265436 
L 117.614065 199.878261 
L 117.290718 198.951171 
L 116.970443 198.02408 
L 116.849498 197.674485 
L 116.650041 197.09699 
L 116.256089 196.1699 
L 115.916388 195.370519 
L 115.862117 195.242809 
L 115.623946 194.315719 
L 115.402617 193.388629 
L 115.181298 192.461538 
L 114.983278 191.632113 
L 114.95996 191.534448 
L 114.747263 190.607358 
L 114.560815 189.680268 
L 114.420442 188.753177 
L 114.282052 187.826087 
L 114.129547 186.898997 
L 114.050167 186.415651 
L 113.977315 185.971906 
L 113.826265 185.044816 
L 113.626459 184.117726 
L 113.117057 183.22278 
L 113.098894 183.190635 
L 112.568617 182.263545 
L 112.183946 181.515151 
L 112.092099 181.336455 
L 111.793843 180.409365 
L 111.601521 179.482274 
L 111.417282 178.555184 
L 111.250836 177.629963 
L 111.25051 177.628094 
L 111.109891 176.701003 
L 110.969257 175.773913 
L 110.828634 174.846823 
L 110.743007 173.919732 
L 110.758754 172.992642 
L 110.774521 172.065552 
L 110.790277 171.138462 
L 110.813282 170.211371 
L 110.846538 169.284281 
L 110.866159 168.357191 
L 110.881216 167.4301 
L 110.898971 166.50301 
L 110.916743 165.57592 
L 110.970023 164.648829 
L 111.066336 163.721739 
L 111.177675 162.794649 
L 111.250836 162.557867 
L 111.474598 161.867559 
L 111.835775 160.940468 
L 112.126611 160.013378 
L 112.183946 159.793836 
L 112.36873 159.086288 
L 112.610839 158.159197 
L 112.852955 157.232107 
L 113.095076 156.305017 
L 113.117057 156.220849 
L 113.337197 155.377926 
L 113.588289 154.450836 
L 113.847256 153.523746 
L 114.050167 152.797322 
L 114.10622 152.596656 
L 114.365191 151.669565 
L 114.624162 150.742475 
L 114.883127 149.815385 
L 114.983278 149.467138 
L 115.155185 148.888294 
L 115.437681 147.961204 
L 115.720167 147.034114 
L 115.916388 146.633688 
L 116.181781 146.107023 
L 116.614698 145.179933 
L 116.849498 144.677109 
L 117.04762 144.252843 
L 117.480537 143.325753 
L 117.782609 142.687332 
L 117.919551 142.398662 
L 118.359437 141.471572 
L 118.715719 140.720679 
L 118.799321 140.544482 
L 119.25769 139.617391 
L 119.648829 139.017633 
L 119.877741 138.690301 
L 120.558856 137.763211 
L 120.58194 137.732166 
L 121.265464 136.83612 
L 121.51505 136.512217 
L 121.980957 135.90903 
L 122.448161 135.309429 
L 122.70616 134.98194 
L 123.381271 134.115088 
L 123.427448 134.054849 
L 124.136484 133.127759 
L 124.314381 132.895571 
L 124.84582 132.200669 
L 125.247492 131.676705 
L 125.554909 131.273579 
L 126.180602 130.42783 
L 126.240316 130.346488 
L 126.974447 129.419398 
L 127.113712 129.263522 
L 127.813426 128.492308 
L 128.046823 128.227548 
L 128.591796 127.565217 
L 128.979933 127.068984 
L 129.311774 126.638127 
L 129.913043 125.85511 
L 130.023474 125.711037 
L 130.73553 124.783946 
L 130.846154 124.639446 
L 131.446593 123.856856 
L 131.779264 123.433156 
L 132.19349 122.929766 
L 132.712375 122.340711 
L 133.003769 122.002676 
L 133.645485 121.267999 
L 133.828417 121.075585 
L 134.578595 120.325939 
L 134.754077 120.148495 
L 135.511706 119.399795 
L 135.733449 119.221405 
L 136.444816 118.733061 
L 137.082288 118.294314 
L 137.377926 118.091058 
L 138.311037 117.448094 
L 138.428009 117.367224 
L 139.244147 116.803541 
L 139.769574 116.440134 
L 140.177258 116.160702 
L 141.110368 115.525594 
L 141.130194 115.513043 
L 142.043478 114.924186 
L 142.545266 114.585953 
L 142.976589 114.288385 
L 143.889055 113.658863 
L 143.909699 113.64462 
L 144.842809 113.00087 
L 145.217799 112.731773 
L 145.77592 112.318344 
L 146.56915 111.804682 
L 146.70903 111.726707 
L 147.64214 111.319685 
L 148.575251 110.917068 
L 148.666737 110.877592 
L 149.508361 110.514426 
L 150.441472 110.111793 
L 150.815277 109.950502 
L 151.374582 109.709168 
L 152.307692 109.237205 
L 152.653376 109.023411 
L 153.240803 108.676909 
L 154.173913 108.24531 
L 154.496022 108.096321 
L 155.107023 107.813701 
L 156.040134 107.399921 
L 156.593306 107.169231 
L 156.973244 107.010783 
L 157.906355 106.621621 
L 158.816282 106.24214 
L 158.839465 106.232472 
L 159.772575 105.844309 
L 160.705686 105.473117 
L 161.102444 105.31505 
L 161.638796 105.098413 
L 162.571906 104.809296 
L 163.505017 104.60505 
L 164.438127 104.415924 
L 164.588849 104.38796 
L 165.371237 104.242945 
L 166.304348 104.069675 
L 167.237458 103.89655 
L 168.170569 103.723423 
L 169.103679 103.550311 
L 169.585684 103.46087 
L 170.036789 103.377162 
L 170.9699 103.204032 
L 171.90301 103.030918 
L 172.83612 102.857789 
L 173.769231 102.684655 
L 174.582416 102.533779 
L 174.702341 102.511529 
L 175.635452 102.338417 
L 176.568562 102.159818 
L 177.501672 101.989791 
L 178.434783 101.964866 
L 179.367893 102.011737 
L 180.301003 102.10866 
L 181.234114 102.294345 
L 182.167224 102.477493 
L 182.57074 102.533779 
L 183.100334 102.607776 
L 184.033445 102.736577 
L 184.966555 102.870622 
L 185.899666 103.008549 
L 186.832776 103.157525 
L 187.765886 103.313227 
L 188.650654 103.46087 
L 188.698997 103.468937 
L 189.632107 103.624645 
L 190.565217 103.780362 
L 191.498328 103.936071 
L 192.431438 104.091774 
L 193.364548 104.247295 
L 194.20863 104.38796 
L 194.297659 104.403009 
L 195.230769 104.617154 
L 196.16388 104.871488 
L 197.09699 105.177631 
L 197.50889 105.31505 
L 198.0301 105.488941 
L 198.963211 105.800257 
L 199.896321 106.111652 
L 200.184872 106.24214 
L 200.829431 106.542237 
L 201.762542 107.065899 
L 201.946668 107.169231 
L 202.695652 107.589557 
L 203.598649 108.096321 
L 203.628763 108.113221 
L 204.561873 108.636893 
L 205.219158 109.023411 
L 205.494983 109.199185 
L 206.428094 109.856287 
L 206.562119 109.950502 
L 207.361204 110.503027 
L 207.897363 110.877592 
L 208.294314 111.154901 
L 209.224436 111.804682 
L 209.227425 111.806771 
L 210.160535 112.441798 
L 210.67288 112.731773 
L 211.093645 112.959668 
L 212.026756 113.46507 
L 212.384568 113.658863 
L 212.959866 113.984204 
L 213.892977 114.58271 
L 213.898016 114.585953 
L 214.826087 115.183347 
L 215.338279 115.513043 
L 215.759197 115.78399 
L 216.692308 116.384631 
L 216.778532 116.440134 
L 217.625418 116.985272 
L 218.218795 117.367224 
L 218.558528 117.585908 
L 219.491639 118.185302 
L 219.687292 118.294314 
L 220.424749 118.72733 
L 221.143076 119.221405 
L 221.35786 119.368115 
L 222.29097 120.010941 
L 222.48583 120.148495 
L 223.22408 120.668255 
L 223.786347 121.075585 
L 224.157191 121.344647 
L 225.066003 122.002676 
L 225.090301 122.020269 
L 226.023411 122.692124 
L 226.390581 122.929766 
L 226.956522 123.277312 
L 227.889632 123.850329 
L 227.90026 123.856856 
L 228.822742 124.423357 
L 229.409927 124.783946 
L 229.755853 124.996377 
L 230.688963 125.569397 
L 230.91961 125.711037 
L 231.622074 126.206337 
L 232.135188 126.638127 
L 232.555184 127.059381 
L 233.055155 127.565217 
L 233.488294 128.011262 
L 233.955415 128.492308 
L 234.421405 128.886469 
L 235.12604 129.419398 
L 235.354515 129.589567 
L 236.287625 130.284546 
L 236.370792 130.346488 
L 237.220736 130.979515 
L 237.529498 131.273579 
L 238.153846 132.007967 
L 238.303039 132.200669 
L 239.026918 133.127759 
L 239.086957 133.200975 
L 239.801565 134.054849 
L 240.020067 134.315931 
L 240.570337 134.98194 
L 240.953177 135.414739 
L 241.40685 135.90903 
L 241.886288 136.442492 
L 242.255537 136.83612 
L 242.819398 137.438281 
L 243.127701 137.763211 
L 243.752508 138.428061 
L 243.998938 138.690301 
L 244.685619 139.421012 
L 244.870172 139.617391 
L 245.618729 140.413934 
L 245.741411 140.544482 
L 246.551839 141.406873 
L 246.612641 141.471572 
L 247.483897 142.398662 
L 247.48495 142.399985 
L 248.108185 143.325753 
L 248.41806 143.775809 
L 248.746507 144.252843 
L 249.351171 145.131041 
L 249.384657 145.179933 
L 249.997383 146.107023 
L 250.284281 146.558585 
L 250.58492 147.034114 
L 251.161609 147.961204 
L 251.217391 148.051389 
L 251.734004 148.888294 
L 252.150502 149.563022 
L 252.30749 149.815385 
L 252.884712 150.742475 
L 253.083612 151.090502 
L 253.403634 151.669565 
L 253.915993 152.596656 
L 254.016722 152.778917 
L 254.428362 153.523746 
L 254.845973 154.450836 
L 254.949833 154.710649 
L 255.220355 155.377926 
L 255.585208 156.305017 
L 255.882943 157.098266 
L 255.933178 157.232107 
L 256.273204 158.159197 
L 256.584246 159.086288 
L 256.816054 159.81079 
L 256.881163 160.013378 
L 257.177484 160.940468 
L 257.474089 161.867559 
L 257.749164 162.727311 
L 257.770949 162.794649 
L 258.110961 163.721739 
L 258.380645 164.648829 
L 258.565894 165.57592 
L 258.682274 166.158345 
L 258.751927 166.50301 
L 258.936969 167.4301 
L 259.121669 168.357191 
L 259.306922 169.284281 
L 259.500796 170.211371 
L 259.615385 170.605157 
L 259.770749 171.138462 
L 260.058348 172.065552 
L 260.352699 172.992642 
L 260.548495 173.609304 
L 260.64796 173.919732 
L 260.930359 174.846823 
L 261.183634 175.773913 
L 261.396408 176.701003 
L 261.386247 177.628094 
L 261.451331 178.555184 
L 261.481605 178.794002 
L 261.568855 179.482274 
L 261.686357 180.409365 
L 261.803872 181.336455 
L 261.921393 182.263545 
L 262.028996 183.190635 
L 262.082046 184.117726 
L 262.098076 185.044816 
L 262.065467 185.971906 
L 262.018184 186.898997 
L 261.963134 187.826087 
L 261.908081 188.753177 
L 261.853026 189.680268 
L 261.804045 190.607358 
L 261.868035 191.534448 
L 261.934807 192.461538 
L 261.993881 193.388629 
L 262.04291 194.315719 
L 262.083522 195.242809 
L 262.114528 196.1699 
L 262.150399 197.09699 
L 262.174316 198.02408 
L 262.198013 198.951171 
L 262.206344 199.878261 
L 262.153201 200.805351 
L 262.100037 201.732441 
L 262.046891 202.659532 
L 261.99375 203.586622 
L 261.990855 204.513712 
L 262.003163 205.440803 
L 262.015455 206.367893 
L 262.027756 207.294983 
L 262.040049 208.222074 
L 262.037691 209.149164 
L 261.76403 210.076254 
L 261.481605 210.955293 
L 261.466011 211.003344 
L 261.167533 211.930435 
L 260.870468 212.857525 
L 260.57261 213.784615 
L 260.548495 213.859677 
L 260.266773 214.711706 
L 259.991918 215.638796 
L 259.696743 216.565886 
L 259.615385 216.817646 
L 259.398131 217.492977 
L 259.131965 218.420067 
L 258.838401 219.347157 
L 258.682274 219.799492 
L 258.516139 220.274247 
L 258.190304 221.201338 
L 257.865958 222.128428 
L 257.749164 222.52039 
L 257.600946 223.055518 
L 257.366656 223.982609 
L 257.119279 224.909699 
L 256.871836 225.836789 
L 256.816054 226.04596 
L 256.624482 226.76388 
L 256.377094 227.69097 
L 256.107415 228.61806 
L 255.882943 229.189088 
L 255.733859 229.545151 
L 255.345699 230.472241 
L 254.949833 231.284596 
L 254.886214 231.399331 
L 254.247154 232.326421 
L 254.016722 232.659585 
L 253.605544 233.253512 
L 253.083612 234.007428 
L 252.963721 234.180602 
L 252.321869 235.107692 
L 252.150502 235.355219 
L 251.68005 236.034783 
L 251.217391 236.740535 
L 251.080013 236.961873 
L 250.509847 237.888963 
L 250.284281 238.246794 
L 249.918941 238.816054 
L 249.351171 239.673847 
L 249.305035 239.743144 
L 248.687806 240.670234 
L 248.41806 241.075419 
L 248.070607 241.597324 
L 247.48495 242.399043 
L 247.383996 242.524415 
L 246.622831 243.451505 
L 246.551839 243.532009 
L 245.693559 244.378595 
L 245.618729 244.439961 
L 244.685619 245.13683 
L 244.459529 245.305686 
L 243.752508 245.833732 
L 243.21821 246.232776 
L 242.819398 246.53063 
L 241.976874 247.159866 
L 241.886288 247.227881 
L 240.953177 247.94877 
L 240.776668 248.086957 
L 240.020067 248.675929 
L 239.58148 249.014047 
L 239.086957 249.387697 
L 238.354466 249.941137 
L 238.153846 250.092714 
L 237.220736 250.797761 
L 237.127469 250.868227 
L 236.287625 251.479423 
L 235.823501 251.795318 
L 235.354515 252.105885 
L 234.423513 252.722408 
L 234.421405 252.723837 
L 233.488294 253.372154 
L 232.782423 253.649498 
L 232.555184 253.724824 
L 231.622074 254.01135 
L 230.688963 254.297872 
L 229.781279 254.576589 
L 229.755853 254.584396 
L 228.822742 254.8839 
L 227.889632 255.234245 
L 227.17904 255.503679 
L 226.956522 255.588049 
L 226.023411 255.941878 
L 225.090301 256.289311 
L 224.691244 256.430769 
L 224.157191 256.620076 
L 223.22408 256.950818 
L 222.29097 257.281556 
L 222.075701 257.35786 
L 221.35786 257.612303 
L 220.424749 257.943062 
L 219.491639 258.273811 
L 219.460174 258.28495 
L 218.558528 258.604086 
L 217.625418 258.934162 
L 216.839875 259.21204 
L 216.692308 259.26424 
L 215.759197 259.594325 
L 214.826087 259.92441 
L 214.219099 260.13913 
L 213.892977 260.254495 
L 212.959866 260.584577 
L 212.026756 260.914664 
L 211.589154 261.066221 
L 211.093645 261.239125 
L 210.160535 261.548976 
L 209.227425 261.694204 
L 208.294314 261.757971 
L 207.361204 261.903079 
L 206.599352 261.993311 
L 206.428094 262.013074 
L 205.494983 262.095676 
L 204.561873 262.178282 
L 203.628763 262.260895 
L 202.695652 262.343499 
L 201.762542 262.426104 
L 200.829431 262.50871 
L 199.896321 262.51004 
L 198.963211 262.443484 
L 198.0301 262.346617 
L 197.09699 262.228536 
L 196.16388 262.110444 
z
" clip-path="url(#pc8f216e499)" style="fill: none; stroke: #000000; stroke-width: 1.5"/>
   </g>
   <g id="patch_3">
    <path d="M 45 320.4 
L 45 43.2 
" style="fill: none; stroke: #000000; stroke-width: 0.8; stroke-linejoin: miter; stroke-linecap: square"/>
   </g>
   <g id="patch_4">
    <path d="M 324 320.4 
L 324 43.2 
" style="fill: none; stroke: #000000; stroke-width: 0.8; stroke-linejoin: miter; stroke-linecap: square"/>
   </g>
   <g id="patch_5">
    <path d="M 45 320.4 
L 324 320.4 
" style="fill: none; stroke: #000000; stroke-width: 0.8; stroke-linejoin: miter; stroke-linecap: square"/>
   </g>
   <g id="patch_6">
    <path d="M 45 43.2 
L 324 43.2 
" style="fill: none; stroke: #000000; stroke-width: 0.8; stroke-linejoin: miter; stroke-linecap: square"/>
   </g>
  </g>
 </g>
 <defs>
  <clipPath id="pc8f216e499">
   <rect x="45" y="43.2" width="279" height="277.2"/>
  </clipPath>
 </defs>
</svg>
