<?xml version="1.0" encoding="utf-8" standalone="no"?>
<!DOCTYPE svg PUBLIC "-//W3C//DTD SVG 1.1//EN"
  "http://www.w3.org/Graphics/SVG/1.1/DTD/svg11.dtd">
<svg xmlns:xlink="http://www.w3.org/1999/xlink" width="360pt" height="360pt" viewBox="0 0 360 360" xmlns="http://www.w3.org/2000/svg" version="1.1">
 <metadata>
  <rdf:RDF xmlns:dc="http://purl.org/dc/elements/1.1/" xmlns:cc="http://creativecommons.org/ns#" xmlns:rdf="http://www.w3.org/1999/02/22-rdf-syntax-ns#">
   <cc:Work>
    <dc:type rdf:resource="http://purl.org/dc/dcmitype/StillImage"/>
    <dc:date>2022-04-03T22:41:41.564057</dc:date>
    <dc:format>image/svg+xml</dc:format>
    <dc:creator>
     <cc:Agent>
      <dc:title>Matplotlib v3.5.1, https://matplotlib.org/</dc:title>
     </cc:Agent>
    </dc:creator>
   </cc:Work>
  </rdf:RDF>
 </metadata>
 <defs>
  <style type="text/css">*{stroke-linejoin: round; stroke-linecap: butt}</style>
 </defs>
 <g id="figure_1">
  <g id="patch_1">
   <path d="M 0 360 
L 360 360 
L 360 0 
L 0 0 
z
" style="fill: #ffffff"/>
  </g>
  <g id="axes_1">
   <g id="patch_2">
    <path d="M 45 320.4 
L 324 320.4 
L 324 43.2 
L 45 43.2 
z
" style="fill: #ffffff"/>
   </g>
   <g id="PathCollection_1">
    <defs>
     <path id="m12d0c5dc2a" d="M 0 0.5 
C 0.132602 0.5 0.25979 0.447317 0.353553 0.353553 
C 0.447317 0.25979 0.5 0.132602 0.5 0 
C 0.5 -0.132602 0.447317 -0.25979 0.353553 -0.353553 
C 0.25979 -0.447317 0.132602 -0.5 0 -0.5 
C -0.132602 -0.5 -0.25979 -0.447317 -0.353553 -0.353553 
C -0.447317 -0.25979 -0.5 -0.132602 -0.5 0 
C -0.5 0.132602 -0.447317 0.25979 -0.353553 0.353553 
C -0.25979 0.447317 -0.132602 0.5 0 0.5 
z
" style="stroke: #ff0000"/>
    </defs>
    <g clip-path="url(#p96d443d947)">
     <use xlink:href="#m12d0c5dc2a" x="239.44856" y="181.568614" style="fill: #ff0000; stroke: #ff0000"/>
     <use xlink:href="#m12d0c5dc2a" x="238.141129" y="176.342299" style="fill: #ff0000; stroke: #ff0000"/>
     <use xlink:href="#m12d0c5dc2a" x="236.25395" y="171.386555" style="fill: #ff0000; stroke: #ff0000"/>
     <use xlink:href="#m12d0c5dc2a" x="234.077659" y="166.696613" style="fill: #ff0000; stroke: #ff0000"/>
     <use xlink:href="#m12d0c5dc2a" x="231.846576" y="162.17939" style="fill: #ff0000; stroke: #ff0000"/>
     <use xlink:href="#m12d0c5dc2a" x="229.707116" y="157.684481" style="fill: #ff0000; stroke: #ff0000"/>
     <use xlink:href="#m12d0c5dc2a" x="227.706177" y="153.040031" style="fill: #ff0000; stroke: #ff0000"/>
     <use xlink:href="#m12d0c5dc2a" x="225.787963" y="148.092959" style="fill: #ff0000; stroke: #ff0000"/>
     <use xlink:href="#m12d0c5dc2a" x="223.797207" y="142.756324" style="fill: #ff0000; stroke: #ff0000"/>
     <use xlink:href="#m12d0c5dc2a" x="221.497232" y="137.060148" style="fill: #ff0000; stroke: #ff0000"/>
     <use xlink:href="#m12d0c5dc2a" x="218.612264" y="131.191668" style="fill: #ff0000; stroke: #ff0000"/>
     <use xlink:href="#m12d0c5dc2a" x="214.893718" y="125.505716" style="fill: #ff0000; stroke: #ff0000"/>
     <use xlink:href="#m12d0c5dc2a" x="210.196922" y="120.489616" style="fill: #ff0000; stroke: #ff0000"/>
     <use xlink:href="#m12d0c5dc2a" x="204.545128" y="116.677781" style="fill: #ff0000; stroke: #ff0000"/>
     <use xlink:href="#m12d0c5dc2a" x="198.15476" y="114.527639" style="fill: #ff0000; stroke: #ff0000"/>
     <use xlink:href="#m12d0c5dc2a" x="191.402424" y="114.288566" style="fill: #ff0000; stroke: #ff0000"/>
     <use xlink:href="#m12d0c5dc2a" x="184.732888" y="115.910753" style="fill: #ff0000; stroke: #ff0000"/>
     <use xlink:href="#m12d0c5dc2a" x="178.5341" y="119.03731" style="fill: #ff0000; stroke: #ff0000"/>
     <use xlink:href="#m12d0c5dc2a" x="173.026137" y="123.094503" style="fill: #ff0000; stroke: #ff0000"/>
     <use xlink:href="#m12d0c5dc2a" x="168.210801" y="127.453987" style="fill: #ff0000; stroke: #ff0000"/>
     <use xlink:href="#m12d0c5dc2a" x="163.904709" y="131.609352" style="fill: #ff0000; stroke: #ff0000"/>
     <use xlink:href="#m12d0c5dc2a" x="159.842749" y="135.302866" style="fill: #ff0000; stroke: #ff0000"/>
     <use xlink:href="#m12d0c5dc2a" x="155.807641" y="138.558212" style="fill: #ff0000; stroke: #ff0000"/>
     <use xlink:href="#m12d0c5dc2a" x="151.728776" y="141.612443" style="fill: #ff0000; stroke: #ff0000"/>
     <use xlink:href="#m12d0c5dc2a" x="147.706967" y="144.78157" style="fill: #ff0000; stroke: #ff0000"/>
     <use xlink:href="#m12d0c5dc2a" x="143.958182" y="148.321568" style="fill: #ff0000; stroke: #ff0000"/>
     <use xlink:href="#m12d0c5dc2a" x="140.711537" y="152.344257" style="fill: #ff0000; stroke: #ff0000"/>
     <use xlink:href="#m12d0c5dc2a" x="138.119562" y="156.814017" style="fill: #ff0000; stroke: #ff0000"/>
     <use xlink:href="#m12d0c5dc2a" x="136.22643" y="161.606207" style="fill: #ff0000; stroke: #ff0000"/>
     <use xlink:href="#m12d0c5dc2a" x="135.001151" y="166.579985" style="fill: #ff0000; stroke: #ff0000"/>
     <use xlink:href="#m12d0c5dc2a" x="134.404367" y="171.622236" style="fill: #ff0000; stroke: #ff0000"/>
     <use xlink:href="#m12d0c5dc2a" x="134.442142" y="176.647364" style="fill: #ff0000; stroke: #ff0000"/>
     <use xlink:href="#m12d0c5dc2a" x="135.173" y="181.568614" style="fill: #ff0000; stroke: #ff0000"/>
     <use xlink:href="#m12d0c5dc2a" x="136.66421" y="186.272422" style="fill: #ff0000; stroke: #ff0000"/>
     <use xlink:href="#m12d0c5dc2a" x="138.923609" y="190.621859" style="fill: #ff0000; stroke: #ff0000"/>
     <use xlink:href="#m12d0c5dc2a" x="141.848127" y="194.493636" style="fill: #ff0000; stroke: #ff0000"/>
     <use xlink:href="#m12d0c5dc2a" x="145.221562" y="197.829154" style="fill: #ff0000; stroke: #ff0000"/>
     <use xlink:href="#m12d0c5dc2a" x="148.766949" y="200.668782" style="fill: #ff0000; stroke: #ff0000"/>
     <use xlink:href="#m12d0c5dc2a" x="152.229718" y="203.146423" style="fill: #ff0000; stroke: #ff0000"/>
     <use xlink:href="#m12d0c5dc2a" x="155.453128" y="205.442865" style="fill: #ff0000; stroke: #ff0000"/>
     <use xlink:href="#m12d0c5dc2a" x="158.413304" y="207.718395" style="fill: #ff0000; stroke: #ff0000"/>
     <use xlink:href="#m12d0c5dc2a" x="161.202625" y="210.055344" style="fill: #ff0000; stroke: #ff0000"/>
     <use xlink:href="#m12d0c5dc2a" x="163.975363" y="212.434021" style="fill: #ff0000; stroke: #ff0000"/>
     <use xlink:href="#m12d0c5dc2a" x="166.884074" y="214.745959" style="fill: #ff0000; stroke: #ff0000"/>
     <use xlink:href="#m12d0c5dc2a" x="170.031834" y="216.831122" style="fill: #ff0000; stroke: #ff0000"/>
     <use xlink:href="#m12d0c5dc2a" x="173.45005" y="218.523182" style="fill: #ff0000; stroke: #ff0000"/>
     <use xlink:href="#m12d0c5dc2a" x="177.09984" y="219.694963" style="fill: #ff0000; stroke: #ff0000"/>
     <use xlink:href="#m12d0c5dc2a" x="180.893507" y="220.299012" style="fill: #ff0000; stroke: #ff0000"/>
     <use xlink:href="#m12d0c5dc2a" x="184.732888" y="220.390022" style="fill: #ff0000; stroke: #ff0000"/>
     <use xlink:href="#m12d0c5dc2a" x="188.553607" y="220.110749" style="fill: #ff0000; stroke: #ff0000"/>
     <use xlink:href="#m12d0c5dc2a" x="192.354327" y="219.636976" style="fill: #ff0000; stroke: #ff0000"/>
     <use xlink:href="#m12d0c5dc2a" x="196.193143" y="219.104275" style="fill: #ff0000; stroke: #ff0000"/>
     <use xlink:href="#m12d0c5dc2a" x="200.152657" y="218.555058" style="fill: #ff0000; stroke: #ff0000"/>
     <use xlink:href="#m12d0c5dc2a" x="204.295917" y="217.932339" style="fill: #ff0000; stroke: #ff0000"/>
     <use xlink:href="#m12d0c5dc2a" x="208.638973" y="217.115772" style="fill: #ff0000; stroke: #ff0000"/>
     <use xlink:href="#m12d0c5dc2a" x="213.149634" y="215.971126" style="fill: #ff0000; stroke: #ff0000"/>
     <use xlink:href="#m12d0c5dc2a" x="217.760795" y="214.383438" style="fill: #ff0000; stroke: #ff0000"/>
     <use xlink:href="#m12d0c5dc2a" x="222.377904" y="212.263762" style="fill: #ff0000; stroke: #ff0000"/>
     <use xlink:href="#m12d0c5dc2a" x="226.869577" y="209.541805" style="fill: #ff0000; stroke: #ff0000"/>
     <use xlink:href="#m12d0c5dc2a" x="231.050055" y="206.165933" style="fill: #ff0000; stroke: #ff0000"/>
     <use xlink:href="#m12d0c5dc2a" x="234.676953" y="202.122656" style="fill: #ff0000; stroke: #ff0000"/>
     <use xlink:href="#m12d0c5dc2a" x="237.485097" y="197.467582" style="fill: #ff0000; stroke: #ff0000"/>
     <use xlink:href="#m12d0c5dc2a" x="239.255263" y="192.34382" style="fill: #ff0000; stroke: #ff0000"/>
     <use xlink:href="#m12d0c5dc2a" x="239.888892" y="186.965959" style="fill: #ff0000; stroke: #ff0000"/>
    </g>
   </g>
   <g id="matplotlib.axis_1">
    <g id="xtick_1">
     <g id="line2d_1">
      <defs>
       <path id="m486bd22dfe" d="M 0 0 
L 0 3.5 
" style="stroke: #000000; stroke-width: 0.8"/>
      </defs>
      <g>
       <use xlink:href="#m486bd22dfe" x="45" y="320.4" style="stroke: #000000; stroke-width: 0.8"/>
      </g>
     </g>
     <g id="text_1">
      <!-- −3 -->
      <g transform="translate(37.628906 334.998438)scale(0.1 -0.1)">
       <defs>
        <path id="DejaVuSans-2212" d="M 678 2272 
L 4684 2272 
L 4684 1741 
L 678 1741 
L 678 2272 
z
" transform="scale(0.015625)"/>
        <path id="DejaVuSans-33" d="M 2597 2516 
Q 3050 2419 3304 2112 
Q 3559 1806 3559 1356 
Q 3559 666 3084 287 
Q 2609 -91 1734 -91 
Q 1441 -91 1130 -33 
Q 819 25 488 141 
L 488 750 
Q 750 597 1062 519 
Q 1375 441 1716 441 
Q 2309 441 2620 675 
Q 2931 909 2931 1356 
Q 2931 1769 2642 2001 
Q 2353 2234 1838 2234 
L 1294 2234 
L 1294 2753 
L 1863 2753 
Q 2328 2753 2575 2939 
Q 2822 3125 2822 3475 
Q 2822 3834 2567 4026 
Q 2313 4219 1838 4219 
Q 1578 4219 1281 4162 
Q 984 4106 628 3988 
L 628 4550 
Q 988 4650 1302 4700 
Q 1616 4750 1894 4750 
Q 2613 4750 3031 4423 
Q 3450 4097 3450 3541 
Q 3450 3153 3228 2886 
Q 3006 2619 2597 2516 
z
" transform="scale(0.015625)"/>
       </defs>
       <use xlink:href="#DejaVuSans-2212"/>
       <use xlink:href="#DejaVuSans-33" x="83.789062"/>
      </g>
     </g>
    </g>
    <g id="xtick_2">
     <g id="line2d_2">
      <g>
       <use xlink:href="#m486bd22dfe" x="91.577629" y="320.4" style="stroke: #000000; stroke-width: 0.8"/>
      </g>
     </g>
     <g id="text_2">
      <!-- −2 -->
      <g transform="translate(84.206536 334.998438)scale(0.1 -0.1)">
       <defs>
        <path id="DejaVuSans-32" d="M 1228 531 
L 3431 531 
L 3431 0 
L 469 0 
L 469 531 
Q 828 903 1448 1529 
Q 2069 2156 2228 2338 
Q 2531 2678 2651 2914 
Q 2772 3150 2772 3378 
Q 2772 3750 2511 3984 
Q 2250 4219 1831 4219 
Q 1534 4219 1204 4116 
Q 875 4013 500 3803 
L 500 4441 
Q 881 4594 1212 4672 
Q 1544 4750 1819 4750 
Q 2544 4750 2975 4387 
Q 3406 4025 3406 3419 
Q 3406 3131 3298 2873 
Q 3191 2616 2906 2266 
Q 2828 2175 2409 1742 
Q 1991 1309 1228 531 
z
" transform="scale(0.015625)"/>
       </defs>
       <use xlink:href="#DejaVuSans-2212"/>
       <use xlink:href="#DejaVuSans-32" x="83.789062"/>
      </g>
     </g>
    </g>
    <g id="xtick_3">
     <g id="line2d_3">
      <g>
       <use xlink:href="#m486bd22dfe" x="138.155259" y="320.4" style="stroke: #000000; stroke-width: 0.8"/>
      </g>
     </g>
     <g id="text_3">
      <!-- −1 -->
      <g transform="translate(130.784165 334.998438)scale(0.1 -0.1)">
       <defs>
        <path id="DejaVuSans-31" d="M 794 531 
L 1825 531 
L 1825 4091 
L 703 3866 
L 703 4441 
L 1819 4666 
L 2450 4666 
L 2450 531 
L 3481 531 
L 3481 0 
L 794 0 
L 794 531 
z
" transform="scale(0.015625)"/>
       </defs>
       <use xlink:href="#DejaVuSans-2212"/>
       <use xlink:href="#DejaVuSans-31" x="83.789062"/>
      </g>
     </g>
    </g>
    <g id="xtick_4">
     <g id="line2d_4">
      <g>
       <use xlink:href="#m486bd22dfe" x="184.732888" y="320.4" style="stroke: #000000; stroke-width: 0.8"/>
      </g>
     </g>
     <g id="text_4">
      <!-- 0 -->
      <g transform="translate(181.551638 334.998438)scale(0.1 -0.1)">
       <defs>
        <path id="DejaVuSans-30" d="M 2034 4250 
Q 1547 4250 1301 3770 
Q 1056 3291 1056 2328 
Q 1056 1369 1301 889 
Q 1547 409 2034 409 
Q 2525 409 2770 889 
Q 3016 1369 3016 2328 
Q 3016 3291 2770 3770 
Q 2525 4250 2034 4250 
z
M 2034 4750 
Q 2819 4750 3233 4129 
Q 3647 3509 3647 2328 
Q 3647 1150 3233 529 
Q 2819 -91 2034 -91 
Q 1250 -91 836 529 
Q 422 1150 422 2328 
Q 422 3509 836 4129 
Q 1250 4750 2034 4750 
z
" transform="scale(0.015625)"/>
       </defs>
       <use xlink:href="#DejaVuSans-30"/>
      </g>
     </g>
    </g>
    <g id="xtick_5">
     <g id="line2d_5">
      <g>
       <use xlink:href="#m486bd22dfe" x="231.310518" y="320.4" style="stroke: #000000; stroke-width: 0.8"/>
      </g>
     </g>
     <g id="text_5">
      <!-- 1 -->
      <g transform="translate(228.129268 334.998438)scale(0.1 -0.1)">
       <use xlink:href="#DejaVuSans-31"/>
      </g>
     </g>
    </g>
    <g id="xtick_6">
     <g id="line2d_6">
      <g>
       <use xlink:href="#m486bd22dfe" x="277.888147" y="320.4" style="stroke: #000000; stroke-width: 0.8"/>
      </g>
     </g>
     <g id="text_6">
      <!-- 2 -->
      <g transform="translate(274.706897 334.998438)scale(0.1 -0.1)">
       <use xlink:href="#DejaVuSans-32"/>
      </g>
     </g>
    </g>
   </g>
   <g id="matplotlib.axis_2">
    <g id="ytick_1">
     <g id="line2d_7">
      <defs>
       <path id="mb9727675b8" d="M 0 0 
L -3.5 0 
" style="stroke: #000000; stroke-width: 0.8"/>
      </defs>
      <g>
       <use xlink:href="#mb9727675b8" x="45" y="320.4" style="stroke: #000000; stroke-width: 0.8"/>
      </g>
     </g>
     <g id="text_7">
      <!-- −3 -->
      <g transform="translate(23.257812 324.199219)scale(0.1 -0.1)">
       <use xlink:href="#DejaVuSans-2212"/>
       <use xlink:href="#DejaVuSans-33" x="83.789062"/>
      </g>
     </g>
    </g>
    <g id="ytick_2">
     <g id="line2d_8">
      <g>
       <use xlink:href="#mb9727675b8" x="45" y="274.122871" style="stroke: #000000; stroke-width: 0.8"/>
      </g>
     </g>
     <g id="text_8">
      <!-- −2 -->
      <g transform="translate(23.257812 277.92209)scale(0.1 -0.1)">
       <use xlink:href="#DejaVuSans-2212"/>
       <use xlink:href="#DejaVuSans-32" x="83.789062"/>
      </g>
     </g>
    </g>
    <g id="ytick_3">
     <g id="line2d_9">
      <g>
       <use xlink:href="#mb9727675b8" x="45" y="227.845743" style="stroke: #000000; stroke-width: 0.8"/>
      </g>
     </g>
     <g id="text_9">
      <!-- −1 -->
      <g transform="translate(23.257812 231.644962)scale(0.1 -0.1)">
       <use xlink:href="#DejaVuSans-2212"/>
       <use xlink:href="#DejaVuSans-31" x="83.789062"/>
      </g>
     </g>
    </g>
    <g id="ytick_4">
     <g id="line2d_10">
      <g>
       <use xlink:href="#mb9727675b8" x="45" y="181.568614" style="stroke: #000000; stroke-width: 0.8"/>
      </g>
     </g>
     <g id="text_10">
      <!-- 0 -->
      <g transform="translate(31.6375 185.367833)scale(0.1 -0.1)">
       <use xlink:href="#DejaVuSans-30"/>
      </g>
     </g>
    </g>
    <g id="ytick_5">
     <g id="line2d_11">
      <g>
       <use xlink:href="#mb9727675b8" x="45" y="135.291486" style="stroke: #000000; stroke-width: 0.8"/>
      </g>
     </g>
     <g id="text_11">
      <!-- 1 -->
      <g transform="translate(31.6375 139.090705)scale(0.1 -0.1)">
       <use xlink:href="#DejaVuSans-31"/>
      </g>
     </g>
    </g>
    <g id="ytick_6">
     <g id="line2d_12">
      <g>
       <use xlink:href="#mb9727675b8" x="45" y="89.014357" style="stroke: #000000; stroke-width: 0.8"/>
      </g>
     </g>
     <g id="text_12">
      <!-- 2 -->
      <g transform="translate(31.6375 92.813576)scale(0.1 -0.1)">
       <use xlink:href="#DejaVuSans-32"/>
      </g>
     </g>
    </g>
   </g>
   <g id="PathCollection_2">
    <path d="M 187.527546 197.787417 
L 187.474623 197.765609 
L 187.06177 197.595486 
L 186.595993 197.403555 
L 186.351575 197.302838 
L 186.130217 197.195309 
L 185.664441 196.956492 
L 185.446962 196.840067 
L 185.198664 196.707145 
L 184.732888 196.493609 
L 184.356278 196.377295 
L 184.267112 196.349757 
L 183.801336 196.205912 
L 183.335559 196.062067 
L 182.869783 195.918222 
L 182.857811 195.914524 
L 182.404007 195.774373 
L 181.93823 195.63053 
L 181.472454 195.463962 
L 181.455603 195.451753 
L 181.006678 195.123412 
L 180.783039 194.988982 
L 180.540902 194.853249 
L 180.075125 194.59215 
L 179.957495 194.52621 
L 179.609349 194.33105 
L 179.143573 194.069951 
L 179.131956 194.063439 
L 178.677796 193.808848 
L 178.306422 193.600668 
L 178.21202 193.54775 
L 177.746244 193.286647 
L 177.480885 193.137896 
L 177.280467 193.02555 
L 176.814691 192.764444 
L 176.681821 192.675125 
L 176.348915 192.434639 
L 176.070356 192.212354 
L 175.883139 192.087853 
L 175.428972 191.749583 
L 175.417362 191.741578 
L 174.951586 191.42224 
L 174.757739 191.286811 
L 174.48581 191.099336 
L 174.086507 190.82404 
L 174.020033 190.778211 
L 173.554257 190.457095 
L 173.415264 190.361269 
L 173.088481 190.138723 
L 172.700239 189.898497 
L 172.622705 189.852343 
L 172.156928 189.575079 
L 171.922824 189.435726 
L 171.691152 189.297819 
L 171.225376 189.020557 
L 171.145409 188.972955 
L 170.759599 188.743292 
L 170.367995 188.510184 
L 170.293823 188.466032 
L 169.828047 188.188144 
L 169.596478 188.047412 
L 169.36227 187.905076 
L 168.896494 187.622008 
L 168.835007 187.584641 
L 168.430718 187.338942 
L 168.073533 187.12187 
L 167.964942 187.055348 
L 167.499165 186.770373 
L 167.317036 186.659098 
L 167.033389 186.454221 
L 166.677517 186.196327 
L 166.567613 186.114195 
L 166.101836 185.766112 
L 166.058271 185.733556 
L 165.63606 185.418041 
L 165.439013 185.270785 
L 165.170284 185.069962 
L 164.819758 184.808013 
L 164.704508 184.721886 
L 164.238731 184.373809 
L 164.200505 184.345242 
L 163.772955 184.025729 
L 163.581253 183.882471 
L 163.307179 183.696359 
L 162.885811 183.419699 
L 162.841402 183.391802 
L 162.375626 183.099203 
L 162.149149 182.956928 
L 161.90985 182.768374 
L 161.620831 182.494157 
L 161.444073 182.304229 
L 161.19015 182.031386 
L 160.978297 181.803753 
L 160.759463 181.568614 
L 160.512521 181.303272 
L 160.340521 181.105843 
L 160.079267 180.643072 
L 160.046745 180.560941 
L 159.903475 180.180301 
L 159.72357 179.717529 
L 159.580968 179.362204 
L 159.528559 179.254758 
L 159.287598 178.791987 
L 159.115192 178.386927 
L 159.093339 178.329215 
L 158.924449 177.866444 
L 158.793262 177.403673 
L 158.712075 176.940902 
L 158.649416 176.604328 
L 158.624097 176.47813 
L 158.511442 176.015359 
L 158.401567 175.552588 
L 158.288554 175.089816 
L 158.183639 174.65723 
L 158.176359 174.627045 
L 158.07712 174.164274 
L 158.022792 173.701503 
L 158.065232 173.238731 
L 158.107671 172.77596 
L 158.183639 172.336807 
L 158.188045 172.313189 
L 158.284109 171.850417 
L 158.390655 171.387646 
L 158.560311 170.924875 
L 158.649416 170.704767 
L 158.747652 170.462104 
L 158.934994 169.999332 
L 159.115192 169.581019 
L 159.134827 169.536561 
L 159.351169 169.07379 
L 159.567509 168.611018 
L 159.580968 168.582227 
L 159.783847 168.148247 
L 160.000181 167.685476 
L 160.046745 167.585869 
L 160.216518 167.222705 
L 160.432865 166.759933 
L 160.512521 166.589549 
L 160.64921 166.297162 
L 160.865549 165.834391 
L 160.978297 165.593208 
L 161.081886 165.371619 
L 161.298228 164.908848 
L 161.444073 164.596879 
L 161.514573 164.446077 
L 161.734151 163.983306 
L 161.90985 163.631927 
L 161.965548 163.520534 
L 162.19694 163.057763 
L 162.375626 162.700399 
L 162.428331 162.594992 
L 162.659729 162.13222 
L 162.841402 161.76888 
L 162.891119 161.669449 
L 163.271418 161.206678 
L 163.307179 161.172399 
L 163.754203 160.743907 
L 163.772955 160.725932 
L 164.23698 160.281135 
L 164.238731 160.279457 
L 164.704508 159.838624 
L 164.726448 159.818364 
L 165.170284 159.439567 
L 165.268677 159.355593 
L 165.63606 159.042045 
L 165.810909 158.892821 
L 166.101836 158.644528 
L 166.353138 158.43005 
L 166.567613 158.247004 
L 166.895367 157.967279 
L 167.033389 157.849482 
L 167.437607 157.504508 
L 167.499165 157.45197 
L 167.964942 157.054438 
L 167.979825 157.041736 
L 168.430718 156.656924 
L 168.522063 156.578965 
L 168.896494 156.259404 
L 169.064293 156.116194 
L 169.36227 155.86188 
L 169.615817 155.653422 
L 169.828047 155.518623 
L 170.293823 155.296015 
L 170.514279 155.190651 
L 170.759599 155.073403 
L 171.225376 154.850788 
L 171.482543 154.72788 
L 171.691152 154.62818 
L 172.156928 154.405568 
L 172.432338 154.265109 
L 172.622705 154.164917 
L 173.088481 153.905558 
L 173.273859 153.802337 
L 173.554257 153.646207 
L 174.020033 153.386853 
L 174.104958 153.339566 
L 174.48581 153.127502 
L 174.936046 152.876795 
L 174.951586 152.868141 
L 175.417362 152.608788 
L 175.767143 152.414023 
L 175.883139 152.349435 
L 176.348915 152.090084 
L 176.598246 151.951252 
L 176.814691 151.800033 
L 177.18771 151.488481 
L 177.280467 151.409897 
L 177.733952 151.02571 
L 177.746244 151.015296 
L 178.21202 150.620685 
L 178.279567 150.562938 
L 178.677796 150.225098 
L 178.816262 150.100167 
L 179.143573 149.815782 
L 179.340544 149.637396 
L 179.609349 149.39395 
L 179.851524 149.174624 
L 180.075125 148.955374 
L 180.302587 148.711853 
L 180.540902 148.441719 
L 180.71085 148.249082 
L 181.006678 147.913752 
L 181.119602 147.786311 
L 181.472454 147.386095 
L 181.53306 147.323539 
L 181.935623 146.860768 
L 181.93823 146.857812 
L 182.343888 146.397997 
L 182.404007 146.329851 
L 182.781946 145.935225 
L 182.869783 145.834443 
L 183.219268 145.472454 
L 183.335559 145.336765 
L 183.649727 145.009683 
L 183.801336 144.845853 
L 184.087974 144.546912 
L 184.267112 144.360085 
L 184.531708 144.08414 
L 184.732888 143.874327 
L 184.973103 143.621369 
L 185.198664 143.378851 
L 185.360363 143.158598 
L 185.664441 142.744416 
L 185.700114 142.695826 
L 186.039867 142.233055 
L 186.130217 142.109991 
L 186.379618 141.770284 
L 186.595993 141.475549 
L 186.719358 141.307513 
L 187.059108 140.844741 
L 187.06177 140.841115 
L 187.408667 140.38197 
L 187.527546 140.240554 
L 187.993322 139.982685 
L 188.124045 139.919199 
L 188.459098 139.781097 
L 188.924875 139.723983 
L 189.390651 139.608787 
L 189.856427 139.485194 
L 189.964838 139.456427 
L 190.322204 139.361599 
L 190.78798 139.238006 
L 191.253756 139.151753 
L 191.719533 139.250835 
L 192.185309 139.377129 
L 192.477765 139.456427 
L 192.651085 139.503422 
L 193.116861 139.62971 
L 193.582638 139.756002 
L 194.048414 139.882296 
L 194.184518 139.919199 
L 194.51419 140.008257 
L 194.979967 140.101089 
L 195.445743 140.139774 
L 195.911519 140.174754 
L 196.377295 140.20974 
L 196.843072 140.244718 
L 197.308848 140.284459 
L 197.6091 140.38197 
L 197.774624 140.445574 
L 198.195413 140.844741 
L 198.240401 140.911648 
L 198.506572 141.307513 
L 198.706177 141.604372 
L 198.807473 141.770284 
L 199.095051 142.233055 
L 199.171953 142.354779 
L 199.363586 142.695826 
L 199.554412 143.158598 
L 199.63773 143.346126 
L 199.767632 143.621369 
L 199.986037 144.08414 
L 200.103506 144.333047 
L 200.204437 144.546912 
L 200.422844 145.009683 
L 200.569282 145.319964 
L 200.64125 145.472454 
L 200.849818 145.935225 
L 200.949809 146.397997 
L 201.021509 146.860768 
L 201.035058 146.948215 
L 201.093214 147.323539 
L 201.164917 147.786311 
L 201.244537 148.249082 
L 201.38464 148.711853 
L 201.500835 149.078051 
L 201.531477 149.174624 
L 201.678319 149.637396 
L 201.817127 150.100167 
L 201.95255 150.562938 
L 201.966611 150.617029 
L 202.073004 151.02571 
L 202.196376 151.488481 
L 202.32168 151.951252 
L 202.432387 152.360128 
L 202.447621 152.414023 
L 202.606351 152.876795 
L 202.794835 153.339566 
L 202.898164 153.57001 
L 203.030343 153.802337 
L 203.293633 154.265109 
L 203.36394 154.388689 
L 203.556915 154.72788 
L 203.820197 155.190651 
L 203.829716 155.207384 
L 204.08348 155.653422 
L 204.295492 156.026069 
L 204.341907 156.116194 
L 204.544762 156.578965 
L 204.70268 157.041736 
L 204.761269 157.212028 
L 204.871923 157.504508 
L 205.061282 157.967279 
L 205.227045 158.37237 
L 205.250648 158.43005 
L 205.375841 158.892821 
L 205.369503 159.355593 
L 205.363163 159.818364 
L 205.434258 160.281135 
L 205.567191 160.743907 
L 205.692821 161.181206 
L 205.700139 161.206678 
L 205.833066 161.669449 
L 205.966008 162.13222 
L 206.098946 162.594992 
L 206.158598 162.769221 
L 206.278142 163.057763 
L 206.624374 163.448618 
L 206.68808 163.520534 
L 207.09015 163.974425 
L 207.098017 163.983306 
L 207.507952 164.446077 
L 207.555927 164.500234 
L 207.917892 164.908848 
L 208.021703 165.06291 
L 208.220069 165.371619 
L 208.487479 165.812968 
L 208.500459 165.834391 
L 208.780846 166.297162 
L 208.953255 166.613899 
L 209.021678 166.759933 
L 209.232964 167.222705 
L 209.419032 167.630233 
L 209.444254 167.685476 
L 209.655541 168.148247 
L 209.866822 168.611018 
L 209.884808 168.654047 
L 210.051594 169.07379 
L 210.227506 169.536561 
L 210.350584 169.860349 
L 210.403414 169.999332 
L 210.579321 170.462104 
L 210.75523 170.924875 
L 210.816361 171.067604 
L 210.950251 171.387646 
L 211.166015 171.850417 
L 211.282137 172.099475 
L 211.381781 172.313189 
L 211.595559 172.77596 
L 211.747913 173.164216 
L 211.776919 173.238731 
L 211.956861 173.701503 
L 212.136471 174.164274 
L 212.213689 174.363489 
L 212.315539 174.627045 
L 212.49437 175.089816 
L 212.673203 175.552588 
L 212.679466 175.568795 
L 212.852038 176.015359 
L 213.030873 176.47813 
L 213.145242 176.774085 
L 213.209707 176.940902 
L 213.388542 177.403673 
L 213.567377 177.866444 
L 213.611018 177.979376 
L 213.746212 178.329215 
L 213.925046 178.791987 
L 214.076795 179.18467 
L 214.103879 179.254758 
L 214.282712 179.717529 
L 214.461549 180.180301 
L 214.542571 180.389963 
L 214.640382 180.643072 
L 214.819217 181.105843 
L 214.944114 181.568614 
L 215.008347 181.909968 
L 215.031194 182.031386 
L 215.118278 182.494157 
L 215.205359 182.956928 
L 215.292441 183.419699 
L 215.379519 183.882471 
L 215.466601 184.345242 
L 215.474124 184.385221 
L 215.553678 184.808013 
L 215.640761 185.270785 
L 215.727843 185.733556 
L 215.814923 186.196327 
L 215.852855 186.659098 
L 215.746323 187.12187 
L 215.639451 187.584641 
L 215.532218 188.047412 
L 215.474124 188.298046 
L 215.417858 188.510184 
L 215.12905 188.972955 
L 215.008347 189.15807 
L 214.827306 189.435726 
L 214.542571 189.872419 
L 214.525567 189.898497 
L 214.223822 190.361269 
L 214.076795 190.586764 
L 213.922086 190.82404 
L 213.620346 191.286811 
L 213.611018 191.301118 
L 213.318605 191.749583 
L 213.145242 192.015457 
L 212.980782 192.212354 
L 212.679466 192.504696 
L 212.398936 192.675125 
L 212.213689 192.772518 
L 211.747913 193.026367 
L 211.558579 193.137896 
L 211.282137 193.267464 
L 210.816361 193.482981 
L 210.571231 193.600668 
L 210.350584 193.704084 
L 209.884808 193.922392 
L 209.505107 194.063439 
L 209.419032 194.078334 
L 209.03884 194.063439 
L 208.953255 194.059088 
L 208.487479 194.041839 
L 208.021703 194.023182 
L 207.555927 194.003485 
L 207.09015 193.982925 
L 206.624374 193.961442 
L 206.158598 193.940555 
L 205.692821 193.931331 
L 205.227045 193.917977 
L 204.761269 193.906524 
L 204.295492 193.895065 
L 203.829716 193.883609 
L 203.36394 193.872153 
L 202.898164 193.8607 
L 202.432387 193.868958 
L 201.966611 193.948478 
L 201.740353 194.063439 
L 201.500835 194.201366 
L 201.052368 194.52621 
L 201.035058 194.538099 
L 200.569282 194.867342 
L 200.403592 194.988982 
L 200.103506 195.190848 
L 199.650616 195.451753 
L 199.63773 195.457594 
L 199.171953 195.612335 
L 198.706177 195.767075 
L 198.240401 195.9017 
L 198.183342 195.914524 
L 197.774624 196.006384 
L 197.308848 196.111066 
L 196.843072 196.215747 
L 196.377295 196.320432 
L 196.124297 196.377295 
L 195.911519 196.425119 
L 195.445743 196.529798 
L 194.979967 196.634477 
L 194.51419 196.739162 
L 194.065219 196.840067 
L 194.048414 196.843844 
L 193.582638 196.948524 
L 193.116861 197.053206 
L 192.651085 197.173003 
L 192.394116 197.302838 
L 192.185309 197.379831 
L 191.719533 197.469868 
L 191.253756 197.559904 
L 190.78798 197.64994 
L 190.346423 197.765609 
L 190.322204 197.772524 
L 189.856427 197.876348 
L 189.390651 197.970771 
L 188.924875 198.009487 
L 188.459098 197.980421 
L 187.993322 197.954542 
L 187.527546 197.787417 
z
" clip-path="url(#p96d443d947)" style="fill: none; stroke-dasharray: 5.55,2.4; stroke-dashoffset: 0; stroke: #000000; stroke-width: 1.5"/>
   </g>
   <g id="PathCollection_3">
    <path d="M 186.130217 220.459745 
L 185.863796 220.441402 
L 185.664441 220.427677 
L 185.198664 220.395618 
L 184.732888 220.363553 
L 184.267112 220.331493 
L 183.801336 220.299429 
L 183.335559 220.267366 
L 182.869783 220.235302 
L 182.404007 220.203241 
L 181.93823 220.193524 
L 181.472454 220.225019 
L 181.006678 220.263447 
L 180.540902 220.301879 
L 180.075125 220.340308 
L 179.609349 220.378738 
L 179.143573 220.35595 
L 178.677796 220.250177 
L 178.21202 220.144405 
L 177.746244 220.03863 
L 177.560805 219.978631 
L 177.280467 219.883786 
L 176.814691 219.639536 
L 176.578847 219.51586 
L 176.348915 219.395284 
L 175.883139 219.151028 
L 175.696375 219.053088 
L 175.417362 218.906774 
L 174.951586 218.662526 
L 174.81389 218.590317 
L 174.48581 218.41827 
L 174.020033 218.174017 
L 173.931416 218.127546 
L 173.554257 217.929765 
L 173.088481 217.685513 
L 173.048933 217.664775 
L 172.622705 217.441262 
L 172.166453 217.202003 
L 172.156928 217.197009 
L 171.691152 216.952755 
L 171.283976 216.739232 
L 171.225376 216.707954 
L 170.759599 216.460053 
L 170.413119 216.276461 
L 170.293823 216.208411 
L 169.828047 215.942715 
L 169.601859 215.813689 
L 169.36227 215.677019 
L 168.896494 215.411321 
L 168.790606 215.350918 
L 168.430718 215.145623 
L 167.979344 214.888147 
L 167.964942 214.879931 
L 167.499165 214.614232 
L 167.168089 214.425376 
L 167.033389 214.348538 
L 166.567613 214.08284 
L 166.356833 213.962604 
L 166.101836 213.817144 
L 165.63606 213.551451 
L 165.553726 213.499833 
L 165.170284 213.222586 
L 164.970701 213.037062 
L 164.704508 212.790544 
L 164.467537 212.57429 
L 164.238731 212.380844 
L 163.920179 212.111519 
L 163.772955 211.987049 
L 163.372811 211.648748 
L 163.307179 211.596629 
L 162.841402 211.270908 
L 162.711674 211.185977 
L 162.375626 210.965972 
L 162.004804 210.723205 
L 161.90985 210.661041 
L 161.444073 210.356106 
L 161.297935 210.260434 
L 160.978297 210.051177 
L 160.591058 209.797663 
L 160.512521 209.746247 
L 160.046745 209.441317 
L 159.884185 209.334891 
L 159.580968 209.136381 
L 159.177305 208.87212 
L 159.115192 208.831457 
L 158.649416 208.526522 
L 158.489011 208.409349 
L 158.183639 208.162089 
L 157.919984 207.946578 
L 157.717863 207.781365 
L 157.352962 207.483806 
L 157.252087 207.409876 
L 156.786311 207.113429 
L 156.641136 207.021035 
L 156.320534 206.816995 
L 155.914005 206.558264 
L 155.854758 206.520557 
L 155.388982 206.224126 
L 155.186869 206.095492 
L 154.923205 205.927685 
L 154.459742 205.632721 
L 154.457429 205.631249 
L 153.991653 205.334816 
L 153.732603 205.16995 
L 153.525876 205.036741 
L 153.06451 204.707179 
L 153.0601 204.703964 
L 152.594324 204.364508 
L 152.429527 204.244407 
L 152.128548 204.025061 
L 151.79454 203.781636 
L 151.662771 203.685602 
L 151.196995 203.346149 
L 151.159556 203.318865 
L 150.731219 202.981756 
L 150.577359 202.856093 
L 150.265442 202.572807 
L 150.067816 202.393322 
L 149.799666 202.149782 
L 149.558286 201.930551 
L 149.33389 201.726747 
L 149.048754 201.46778 
L 148.868114 201.303719 
L 148.539222 201.005008 
L 148.402337 200.880685 
L 148.029693 200.542237 
L 147.936561 200.457651 
L 147.520157 200.079466 
L 147.470785 200.034626 
L 147.010627 199.616694 
L 147.005008 199.611591 
L 146.539232 199.186348 
L 146.503247 199.153923 
L 146.073456 198.761679 
L 145.995083 198.691152 
L 145.607679 198.337991 
L 145.485709 198.228381 
L 145.141903 197.915334 
L 144.97506 197.765609 
L 144.676127 197.490222 
L 144.514364 197.302838 
L 144.210351 196.947913 
L 144.125961 196.840067 
L 143.744574 196.401441 
L 143.736872 196.377295 
L 143.328815 195.914524 
L 143.278798 195.855327 
L 142.937816 195.451753 
L 142.813022 195.304046 
L 142.559729 194.988982 
L 142.347245 194.739803 
L 142.181216 194.52621 
L 141.881469 194.18021 
L 141.809903 194.063439 
L 141.415693 193.628974 
L 141.409608 193.600668 
L 140.982853 193.137896 
L 140.949917 193.096526 
L 140.66043 192.675125 
L 140.48414 192.44182 
L 140.410748 192.212354 
L 140.018364 191.776517 
L 140.014084 191.749583 
L 139.656767 191.286811 
L 139.552588 191.149467 
L 139.436063 190.82404 
L 139.086811 190.431377 
L 139.076526 190.361269 
L 138.654758 189.898497 
L 138.621035 189.854206 
L 138.451466 189.435726 
L 138.155259 189.097608 
L 138.138593 188.972955 
L 137.689482 188.513139 
L 137.68801 188.510184 
L 137.464708 188.047412 
L 137.223706 187.769244 
L 137.200253 187.584641 
L 136.75793 187.124855 
L 136.756685 187.12187 
L 136.716474 186.659098 
L 136.292154 186.208071 
L 136.2885 186.196327 
L 136.233944 185.733556 
L 135.826377 185.294845 
L 135.819887 185.270785 
L 135.741374 184.808013 
L 135.360601 184.389769 
L 135.350721 184.345242 
L 135.286655 183.882471 
L 134.894825 183.445033 
L 134.889563 183.419699 
L 134.858383 182.956928 
L 134.429048 182.499163 
L 134.427422 182.494157 
L 134.409243 182.031386 
L 134.257288 181.568614 
L 133.963272 181.202938 
L 133.952316 181.105843 
L 133.89916 180.643072 
L 133.497496 180.201228 
L 133.49316 180.180301 
L 133.477327 179.717529 
L 133.384693 179.254758 
L 133.366941 178.791987 
L 133.38205 178.329215 
L 133.394835 177.866444 
L 133.405797 177.403673 
L 133.415299 176.940902 
L 133.423606 176.47813 
L 133.430943 176.015359 
L 133.437463 175.552588 
L 133.443792 175.089816 
L 133.449874 174.627045 
L 133.455185 174.164274 
L 133.459871 173.701503 
L 133.464033 173.238731 
L 133.467752 172.77596 
L 133.471099 172.313189 
L 133.474124 171.850417 
L 133.476911 171.387646 
L 133.479814 170.924875 
L 133.482479 170.462104 
L 133.484934 169.999332 
L 133.487202 169.536561 
L 133.489304 169.07379 
L 133.491258 168.611018 
L 133.497064 168.148247 
L 133.497496 168.121001 
L 133.609431 167.685476 
L 133.708604 167.222705 
L 133.863862 166.759933 
L 133.956554 166.297162 
L 133.963272 166.10822 
L 134.062079 165.834391 
L 134.198311 165.371619 
L 134.408629 164.908848 
L 134.429048 164.521108 
L 134.45735 164.446077 
L 134.607488 163.983306 
L 134.836584 163.520534 
L 134.891381 163.057763 
L 134.894825 162.933981 
L 135.011973 162.594992 
L 135.141042 162.13222 
L 135.355797 161.669449 
L 135.360601 161.568522 
L 135.540364 161.206678 
L 135.810206 160.743907 
L 135.826377 160.524091 
L 135.954695 160.281135 
L 136.238941 159.818364 
L 136.292154 159.480369 
L 136.362084 159.355593 
L 136.566622 158.892821 
L 136.754947 158.43005 
L 136.75793 158.354307 
L 136.92857 157.967279 
L 137.18442 157.504508 
L 137.223706 157.189624 
L 137.310077 157.041736 
L 137.569857 156.578965 
L 137.689482 156.208057 
L 137.741711 156.116194 
L 137.964742 155.653422 
L 138.155259 155.218712 
L 138.170746 155.190651 
L 138.407382 154.72788 
L 138.619185 154.265109 
L 138.621035 154.228317 
L 138.848528 153.802337 
L 139.083225 153.339566 
L 139.086811 153.285096 
L 139.336961 152.876795 
L 139.552588 152.430529 
L 139.562518 152.414023 
L 139.840423 151.951252 
L 140.018364 151.587915 
L 140.078812 151.488481 
L 140.342948 151.02571 
L 140.48414 150.772322 
L 140.630406 150.562938 
L 140.938286 150.100167 
L 140.949917 150.068522 
L 141.391502 149.637396 
L 141.415693 149.61521 
L 141.866484 149.174624 
L 141.881469 149.160815 
L 142.32628 148.711853 
L 142.347245 148.666649 
L 142.731556 148.249082 
L 142.813022 148.15284 
L 143.193723 147.786311 
L 143.278798 147.715593 
L 143.732592 147.323539 
L 143.744574 147.316546 
L 144.210351 146.92696 
L 144.290876 146.860768 
L 144.676127 146.555096 
L 144.865863 146.397997 
L 145.141903 146.1866 
L 145.441007 145.935225 
L 145.607679 145.804933 
L 145.998326 145.472454 
L 146.073456 145.412686 
L 146.539232 145.012585 
L 146.542763 145.009683 
L 147.005008 144.629704 
L 147.105727 144.546912 
L 147.470785 144.247045 
L 147.668937 144.08414 
L 147.936561 143.88118 
L 148.247543 143.621369 
L 148.402337 143.501349 
L 148.807105 143.158598 
L 148.868114 143.110404 
L 149.33389 142.715333 
L 149.35762 142.695826 
L 149.799666 142.332457 
L 149.920589 142.233055 
L 150.265442 141.949584 
L 150.483573 141.770284 
L 150.731219 141.576324 
L 151.055037 141.307513 
L 151.196995 141.19846 
L 151.662771 140.883844 
L 151.737216 140.844741 
L 152.128548 140.652051 
L 152.594324 140.411816 
L 152.653412 140.38197 
L 153.0601 140.176547 
L 153.504844 139.919199 
L 153.525876 139.905165 
L 153.991653 139.558093 
L 154.128482 139.456427 
L 154.457429 139.212011 
L 154.751304 138.993656 
L 154.923205 138.86593 
L 155.374134 138.530885 
L 155.388982 138.520267 
L 155.854758 138.173767 
L 155.99695 138.068114 
L 156.320534 137.827686 
L 156.61978 137.605342 
L 156.786311 137.481607 
L 157.242612 137.142571 
L 157.252087 137.135581 
L 157.717863 136.789445 
L 157.86543 136.6798 
L 158.183639 136.443362 
L 158.488251 136.217028 
L 158.649416 136.097282 
L 159.111088 135.754257 
L 159.115192 135.751208 
L 159.580968 135.405121 
L 159.733906 135.291486 
L 160.046745 135.059041 
L 160.356736 134.828715 
L 160.512521 134.712962 
L 160.978297 134.366882 
L 160.979561 134.365943 
L 161.444073 134.020798 
L 161.602383 133.903172 
L 161.90985 133.67471 
L 162.182191 133.440401 
L 162.375626 133.248068 
L 162.634522 132.977629 
L 162.841402 132.761529 
L 163.077554 132.514858 
L 163.307179 132.275008 
L 163.520595 132.052087 
L 163.772955 131.788477 
L 163.963621 131.589316 
L 164.238731 131.301947 
L 164.406649 131.126544 
L 164.704508 130.815418 
L 164.849685 130.663773 
L 165.170284 130.328883 
L 165.292709 130.201002 
L 165.63606 129.842352 
L 165.735741 129.73823 
L 166.101836 129.355829 
L 166.178778 129.275459 
L 166.567613 128.869286 
L 166.621797 128.812688 
L 167.033389 128.382755 
L 167.064827 128.349917 
L 167.499165 127.896231 
L 167.507864 127.887145 
L 167.950894 127.424374 
L 167.964942 127.409701 
L 168.393937 126.961603 
L 168.430718 126.923184 
L 168.836972 126.498831 
L 168.896494 126.436656 
L 169.280001 126.03606 
L 169.36227 125.949887 
L 169.721896 125.573289 
L 169.828047 125.461739 
L 170.162269 125.110518 
L 170.293823 124.972271 
L 170.602641 124.647746 
L 170.759599 124.482801 
L 171.043001 124.184975 
L 171.225376 123.993319 
L 171.483368 123.722204 
L 171.691152 123.50385 
L 171.92374 123.259432 
L 172.156928 123.014386 
L 172.36411 122.796661 
L 172.622705 122.524911 
L 172.804478 122.33389 
L 173.088481 122.035439 
L 173.244845 121.871119 
L 173.554257 121.545969 
L 173.685217 121.408347 
L 174.020033 121.093181 
L 174.220317 120.945576 
L 174.48581 120.771829 
L 174.912795 120.482805 
L 174.951586 120.455724 
L 175.417362 120.130561 
L 175.575686 120.020033 
L 175.883139 119.805396 
L 176.238574 119.557262 
L 176.348915 119.480231 
L 176.814691 119.155063 
L 176.924429 119.094491 
L 177.280467 118.917371 
L 177.746244 118.6985 
L 177.88427 118.63172 
L 178.21202 118.472505 
L 178.677796 118.246234 
L 178.836893 118.168948 
L 179.143573 118.019967 
L 179.609349 117.793693 
L 179.789506 117.706177 
L 180.075125 117.56743 
L 180.540902 117.34116 
L 180.742132 117.243406 
L 181.006678 117.118671 
L 181.472454 116.888622 
L 181.694749 116.780634 
L 181.93823 116.670655 
L 182.404007 116.435474 
L 182.639204 116.317863 
L 182.869783 116.21397 
L 183.335559 115.969614 
L 183.564524 115.855092 
L 183.801336 115.750127 
L 184.267112 115.503683 
L 184.489766 115.392321 
L 184.732888 115.286331 
L 185.198664 115.037764 
L 185.415026 114.929549 
L 185.664441 114.82257 
L 186.130217 114.553992 
L 186.362129 114.466778 
L 186.595993 114.392606 
L 187.06177 114.234781 
L 187.527546 114.081772 
L 187.773492 114.004007 
L 187.993322 113.94705 
L 188.459098 113.794714 
L 188.924875 113.639944 
L 189.295912 113.541235 
L 189.390651 113.533944 
L 189.856427 113.494801 
L 190.322204 113.463047 
L 190.78798 113.427808 
L 191.253756 113.388493 
L 191.719533 113.345218 
L 192.185309 113.329535 
L 192.651085 113.430472 
L 193.116861 113.5251 
L 193.204695 113.541235 
L 193.582638 113.61973 
L 194.048414 113.716456 
L 194.51419 113.813178 
L 194.979967 113.920618 
L 195.232916 114.004007 
L 195.445743 114.071558 
L 195.911519 114.127374 
L 196.377295 114.164244 
L 196.843072 114.201106 
L 197.308848 114.262248 
L 197.774624 114.385253 
L 198.083307 114.466778 
L 198.240401 114.508267 
L 198.706177 114.631276 
L 199.171953 114.755047 
L 199.63773 114.883214 
L 199.80424 114.929549 
L 200.103506 115.012827 
L 200.569282 115.14245 
L 201.035058 115.272078 
L 201.467157 115.392321 
L 201.500835 115.401693 
L 201.966611 115.531313 
L 202.432387 115.660936 
L 202.898164 115.790562 
L 203.130045 115.855092 
L 203.36394 115.920181 
L 203.829716 116.049806 
L 204.295492 116.237209 
L 204.415234 116.317863 
L 204.761269 116.550942 
L 205.102267 116.780634 
L 205.227045 116.864684 
L 205.692821 117.178421 
L 205.789296 117.243406 
L 206.158598 117.492162 
L 206.476324 117.706177 
L 206.624374 117.805903 
L 207.09015 118.119652 
L 207.163335 118.168948 
L 207.555927 118.433386 
L 207.850377 118.63172 
L 208.021703 118.747122 
L 208.487479 119.069232 
L 208.519511 119.094491 
L 208.953255 119.475018 
L 209.047001 119.557262 
L 209.419032 119.883647 
L 209.574486 120.020033 
L 209.884808 120.292287 
L 210.086502 120.482805 
L 210.350584 120.74195 
L 210.53655 120.945576 
L 210.816361 121.251966 
L 210.959178 121.408347 
L 211.282137 121.761972 
L 211.381818 121.871119 
L 211.747913 122.27199 
L 211.804444 122.33389 
L 212.213689 122.789918 
L 212.2185 122.796661 
L 212.4969 123.259432 
L 212.679466 123.504536 
L 212.880142 123.722204 
L 213.145242 124.009752 
L 213.295903 124.184975 
L 213.611018 124.556097 
L 213.688585 124.647746 
L 214.076795 125.106437 
L 214.080248 125.110518 
L 214.471915 125.573289 
L 214.542571 125.656774 
L 214.863572 126.03606 
L 215.008347 126.207122 
L 215.255229 126.498831 
L 215.474124 126.757462 
L 215.64641 126.961603 
L 215.9399 127.310869 
L 216.030533 127.424374 
L 216.400049 127.887145 
L 216.405676 127.894192 
L 216.76957 128.349917 
L 216.871452 128.475482 
L 217.160636 128.812688 
L 217.337229 129.017623 
L 217.559411 129.275459 
L 217.803005 129.558144 
L 217.958178 129.73823 
L 218.268781 130.098698 
L 218.356936 130.201002 
L 218.671806 130.663773 
L 218.734558 130.880781 
L 218.78834 131.126544 
L 218.865272 131.589316 
L 219.015604 132.052087 
L 219.171077 132.514858 
L 219.200334 132.601946 
L 219.326545 132.977629 
L 219.482015 133.440401 
L 219.659093 133.903172 
L 219.66611 133.91894 
L 219.86504 134.365943 
L 220.070999 134.828715 
L 220.131886 134.96553 
L 220.280948 135.291486 
L 220.544423 135.754257 
L 220.597663 135.836598 
L 220.852395 136.217028 
L 221.063439 136.592574 
L 221.11117 136.6798 
L 221.353353 137.142571 
L 221.529215 137.478612 
L 221.595539 137.605342 
L 221.837726 138.068114 
L 221.994992 138.368616 
L 222.079912 138.530885 
L 222.322096 138.993656 
L 222.460768 139.258632 
L 222.564282 139.456427 
L 222.806583 139.919199 
L 222.926544 140.14686 
L 223.050047 140.38197 
L 223.294707 140.844741 
L 223.392321 141.029261 
L 223.539519 141.307513 
L 223.784335 141.770284 
L 223.858097 141.909715 
L 224.029147 142.233055 
L 224.273958 142.695826 
L 224.323873 142.790183 
L 224.518772 143.158598 
L 224.76358 143.621369 
L 224.789649 143.670647 
L 225.008398 144.08414 
L 225.253208 144.546912 
L 225.255426 144.553478 
L 225.41422 145.009683 
L 225.545522 145.472454 
L 225.676824 145.935225 
L 225.721202 146.090541 
L 225.808874 146.397997 
L 225.942736 146.860768 
L 226.084549 147.323539 
L 226.186978 147.643022 
L 226.232919 147.786311 
L 226.381285 148.249082 
L 226.526049 148.711853 
L 226.652755 149.146608 
L 226.660985 149.174624 
L 226.793177 149.637396 
L 226.925376 150.100167 
L 227.057569 150.562938 
L 227.118531 150.776347 
L 227.189764 151.02571 
L 227.321959 151.488481 
L 227.454163 151.951252 
L 227.584307 152.406843 
L 227.586397 152.414023 
L 227.732208 152.876795 
L 227.881863 153.339566 
L 228.03152 153.802337 
L 228.050083 153.859743 
L 228.18117 154.265109 
L 228.404707 154.72788 
L 228.51586 154.884343 
L 228.733462 155.190651 
L 228.981636 155.539995 
L 229.062216 155.653422 
L 229.390978 156.116194 
L 229.447412 156.195632 
L 229.719732 156.578965 
L 229.913189 156.851285 
L 230.04849 157.041736 
L 230.377242 157.504508 
L 230.378965 157.507087 
L 230.64676 157.967279 
L 230.844741 158.386956 
L 230.86507 158.43005 
L 231.083387 158.892821 
L 231.244621 159.355593 
L 231.310518 159.703786 
L 231.332201 159.818364 
L 231.419779 160.281135 
L 231.540195 160.743907 
L 231.676564 161.206678 
L 231.776294 161.545117 
L 231.812932 161.669449 
L 231.949311 162.13222 
L 232.08568 162.594992 
L 232.24207 162.977258 
L 232.274201 163.057763 
L 232.483645 163.520534 
L 232.693083 163.983306 
L 232.707846 164.015927 
L 232.90252 164.446077 
L 233.111958 164.908848 
L 233.173623 165.045101 
L 233.321401 165.371619 
L 233.530837 165.834391 
L 233.639399 166.074267 
L 233.740276 166.297162 
L 233.949718 166.759933 
L 234.105175 167.103426 
L 234.159158 167.222705 
L 234.368592 167.685476 
L 234.570952 168.13261 
L 234.578029 168.148247 
L 234.787465 168.611018 
L 234.996906 169.07379 
L 235.036728 169.161777 
L 235.206345 169.536561 
L 235.415785 169.999332 
L 235.502504 170.190945 
L 235.625225 170.462104 
L 235.829915 170.924875 
L 235.96828 171.221982 
L 236.042998 171.387646 
L 236.239847 171.850417 
L 236.434057 172.287212 
L 236.445228 172.313189 
L 236.643466 172.77596 
L 236.873917 173.238731 
L 236.899833 173.376668 
L 237.038461 173.701503 
L 237.235951 174.164274 
L 237.365609 174.468087 
L 237.433448 174.627045 
L 237.630946 175.089816 
L 237.827691 175.552588 
L 237.831386 175.692124 
L 237.937164 176.015359 
L 238.080279 176.47813 
L 238.276842 176.940902 
L 238.290406 177.403673 
L 238.295203 177.866444 
L 238.297162 178.136195 
L 238.323803 178.329215 
L 238.386254 178.791987 
L 238.448707 179.254758 
L 238.680597 179.717529 
L 238.746448 180.180301 
L 238.756565 180.643072 
L 238.76066 181.105843 
L 238.762885 181.568614 
L 238.762938 181.583116 
L 238.825567 182.031386 
L 239.158472 182.494157 
L 239.210463 182.956928 
L 239.22085 183.419699 
L 239.225195 183.882471 
L 239.226746 184.345242 
L 239.227724 184.808013 
L 239.228516 185.270785 
L 239.228715 185.28574 
L 239.409375 185.733556 
L 239.626957 186.196327 
L 239.658766 186.659098 
L 239.671601 187.12187 
L 239.678546 187.584641 
L 239.682899 188.047412 
L 239.685543 188.510184 
L 239.684074 188.972955 
L 239.682349 189.435726 
L 239.680293 189.898497 
L 239.677802 190.361269 
L 239.665818 190.82404 
L 239.228715 191.276176 
L 239.22531 191.286811 
L 239.2083 191.749583 
L 238.762938 192.205923 
L 238.76048 192.212354 
L 238.747679 192.675125 
L 238.297162 193.134051 
L 238.295493 193.137896 
L 238.285429 193.600668 
L 238.080021 194.063439 
L 237.831386 194.381031 
L 237.822216 194.52621 
L 237.755296 194.988982 
L 237.365609 195.410911 
L 237.358387 195.451753 
L 237.321622 195.914524 
L 236.899833 196.355907 
L 236.894141 196.377295 
L 236.870057 196.840067 
L 236.459273 197.302838 
L 236.460446 197.765609 
L 236.434057 197.804621 
L 236.15684 198.228381 
L 235.96828 198.502727 
L 235.838774 198.691152 
L 235.50722 199.153923 
L 235.502504 199.16022 
L 235.160623 199.616694 
L 235.036728 199.782116 
L 234.814021 200.079466 
L 234.570952 200.404012 
L 234.467427 200.542237 
L 234.120829 201.005008 
L 234.105175 201.025909 
L 233.774228 201.46778 
L 233.639399 201.647798 
L 233.427624 201.930551 
L 233.173623 202.26969 
L 233.081027 202.393322 
L 232.734427 202.856093 
L 232.707846 202.891584 
L 232.387827 203.318865 
L 232.24207 203.513476 
L 232.041229 203.781636 
L 231.776294 204.135363 
L 231.694623 204.244407 
L 231.310518 204.675311 
L 231.272817 204.707179 
L 230.844741 204.96313 
L 230.498842 205.16995 
L 230.378965 205.26845 
L 229.996998 205.632721 
L 229.913189 205.715863 
L 229.530517 206.095492 
L 229.447412 206.177937 
L 229.064034 206.558264 
L 228.981636 206.640005 
L 228.597551 207.021035 
L 228.51586 207.102075 
L 228.131069 207.483806 
L 228.050083 207.564149 
L 227.66459 207.946578 
L 227.584307 208.026047 
L 227.194924 208.409349 
L 227.118531 208.484481 
L 226.724389 208.87212 
L 226.652755 208.940797 
L 226.186978 209.322292 
L 226.171489 209.334891 
L 225.721202 209.701156 
L 225.602136 209.797663 
L 225.255426 210.079496 
L 225.031817 210.260434 
L 224.789649 210.456494 
L 224.459978 210.723205 
L 224.323873 210.833321 
L 223.888003 211.185977 
L 223.858097 211.210173 
L 223.392321 211.587007 
L 223.316009 211.648748 
L 222.926544 211.963846 
L 222.744019 212.111519 
L 222.460768 212.340686 
L 222.172028 212.57429 
L 221.994992 212.717523 
L 221.600038 213.037062 
L 221.529215 213.094361 
L 221.063439 213.471198 
L 221.028046 213.499833 
L 220.597663 213.848044 
L 220.456063 213.962604 
L 220.131886 214.224881 
L 219.884078 214.425376 
L 219.66611 214.601722 
L 219.200334 214.855134 
L 219.133822 214.888147 
L 218.734558 215.086321 
L 218.268781 215.296786 
L 218.043343 215.350918 
L 217.803005 215.400374 
L 217.337229 215.47951 
L 216.871452 215.521196 
L 216.405676 215.564747 
L 215.9399 215.622378 
L 215.474124 215.691805 
L 215.008347 215.761231 
L 214.65635 215.813689 
L 214.542571 215.830646 
L 214.076795 215.900066 
L 213.611018 215.969488 
L 213.145242 216.038914 
L 212.679466 216.108335 
L 212.213689 216.177758 
L 211.747913 216.24718 
L 211.551456 216.276461 
L 211.282137 216.314185 
L 210.816361 216.362242 
L 210.350584 216.409633 
L 209.884808 216.457021 
L 209.419032 216.51795 
L 208.953255 216.6309 
L 208.507211 216.739232 
L 208.487479 216.744025 
L 208.021703 216.857157 
L 207.555927 216.97028 
L 207.09015 217.083406 
L 206.624374 217.196533 
L 206.604084 217.202003 
L 206.158598 217.326108 
L 205.692821 217.480825 
L 205.227045 217.635541 
L 205.139037 217.664775 
L 204.761269 217.790257 
L 204.295492 217.944967 
L 203.829716 218.099684 
L 203.76561 218.127546 
L 203.36394 218.326908 
L 202.935065 218.590317 
L 202.898164 218.612982 
L 202.432387 218.821433 
L 201.966611 218.969509 
L 201.703713 219.053088 
L 201.500835 219.117586 
L 201.035058 219.265667 
L 200.569282 219.324709 
L 200.103506 219.317178 
L 199.63773 219.3517 
L 199.171953 219.437542 
L 198.822987 219.51586 
L 198.706177 219.541363 
L 198.240401 219.640869 
L 197.774624 219.737012 
L 197.308848 219.828492 
L 196.843072 219.91829 
L 196.530113 219.978631 
L 196.377295 220.008095 
L 195.911519 220.09789 
L 195.445743 220.18769 
L 194.979967 220.275485 
L 194.51419 220.363436 
L 194.048414 220.36093 
L 193.582638 220.331766 
L 193.116861 220.302604 
L 192.651085 220.273496 
L 192.185309 220.296634 
L 191.719533 220.322827 
L 191.253756 220.349015 
L 190.78798 220.375203 
L 190.322204 220.401391 
L 189.856427 220.427584 
L 189.713635 220.441402 
L 189.390651 220.47379 
L 188.924875 220.530033 
L 188.459098 220.586282 
L 187.993322 220.588 
L 187.527546 220.555936 
L 187.06177 220.523868 
L 186.595993 220.491807 
L 186.130217 220.459745 
z
" clip-path="url(#p96d443d947)" style="fill: none; stroke: #000000; stroke-width: 1.5"/>
   </g>
   <g id="PathCollection_4">
    <path d="M 174.020033 243.129166 
L 173.599012 243.117195 
L 173.554257 243.115923 
L 173.088481 243.102685 
L 172.622705 243.088815 
L 172.156928 242.969525 
L 171.691152 242.836765 
L 171.225376 242.704009 
L 171.051411 242.654424 
L 170.759599 242.571252 
L 170.293823 242.438492 
L 169.828047 242.30574 
L 169.427761 242.191653 
L 169.36227 242.172987 
L 168.896494 242.032369 
L 168.430718 241.762032 
L 168.379147 241.728881 
L 167.964942 241.462628 
L 167.660955 241.26611 
L 167.499165 241.161304 
L 167.033389 240.85874 
L 166.952416 240.803339 
L 166.567613 240.523056 
L 166.302691 240.340568 
L 166.101836 240.21582 
L 165.63606 239.963503 
L 165.477848 239.877796 
L 165.170284 239.711183 
L 164.704508 239.458846 
L 164.623603 239.415025 
L 164.238731 239.206501 
L 163.772955 238.954249 
L 163.769274 238.952254 
L 163.307179 238.701763 
L 162.91534 238.489482 
L 162.841402 238.449413 
L 162.375626 238.197031 
L 162.06135 238.026711 
L 161.90985 237.944594 
L 161.444073 237.692193 
L 161.207408 237.56394 
L 160.978297 237.439781 
L 160.512521 237.187364 
L 160.353466 237.101169 
L 160.046745 236.934947 
L 159.580968 236.682531 
L 159.499529 236.638397 
L 159.115192 236.430116 
L 158.649416 236.1777 
L 158.645589 236.175626 
L 158.183639 235.925279 
L 157.791656 235.712855 
L 157.717863 235.672865 
L 157.252087 235.420449 
L 156.937721 235.250083 
L 156.786311 235.168028 
L 156.320534 234.915615 
L 156.078337 234.787312 
L 155.854758 234.671884 
L 155.388982 234.434038 
L 155.174559 234.324541 
L 154.923205 234.196186 
L 154.457429 233.958335 
L 154.268351 233.86177 
L 153.991653 233.716138 
L 153.569768 233.398998 
L 153.525876 233.362475 
L 153.0601 232.974825 
L 153.013796 232.936227 
L 152.594324 232.586979 
L 152.458165 232.473456 
L 152.128548 232.198945 
L 151.9028 232.010684 
L 151.662771 231.810643 
L 151.347763 231.547913 
L 151.196995 231.422164 
L 150.792902 231.085142 
L 150.731219 231.033697 
L 150.265442 230.666627 
L 150.209134 230.622371 
L 149.799666 230.300542 
L 149.620344 230.159599 
L 149.33389 229.934449 
L 149.031565 229.696828 
L 148.868114 229.568363 
L 148.442771 229.234057 
L 148.402337 229.202276 
L 147.936561 228.836193 
L 147.853977 228.771285 
L 147.470785 228.47011 
L 147.265187 228.308514 
L 147.005008 228.104017 
L 146.676406 227.845743 
L 146.539232 227.737924 
L 146.087623 227.382972 
L 146.073456 227.372444 
L 145.607679 227.058046 
L 145.39477 226.9202 
L 145.141903 226.756484 
L 144.680006 226.457429 
L 144.676127 226.454918 
L 144.210351 226.153355 
L 143.965127 225.994658 
L 143.744574 225.852331 
L 143.278798 225.554444 
L 143.243526 225.531886 
L 142.813022 225.256564 
L 142.519935 225.069115 
L 142.347245 224.958672 
L 141.881469 224.660792 
L 141.796333 224.606344 
L 141.415693 224.362912 
L 141.072734 224.143573 
L 140.949917 224.065024 
L 140.48414 223.767136 
L 140.349059 223.680801 
L 140.018364 223.469361 
L 139.634045 223.21803 
L 139.552588 223.158691 
L 139.086811 222.770884 
L 139.068044 222.755259 
L 138.621035 222.383072 
L 138.512241 222.292487 
L 138.155259 222.005786 
L 137.920784 221.829716 
L 137.689482 221.666652 
L 137.264351 221.366945 
L 137.223706 221.338183 
L 136.75793 221.008528 
L 136.61051 220.904174 
L 136.292154 220.677771 
L 135.959788 220.441402 
L 135.826377 220.341676 
L 135.373824 219.978631 
L 135.360601 219.967702 
L 134.894825 219.58273 
L 134.813916 219.51586 
L 134.429048 219.197764 
L 134.254007 219.053088 
L 133.963272 218.81279 
L 133.694095 218.590317 
L 133.497496 218.427808 
L 133.134266 218.127546 
L 133.03172 218.042762 
L 132.57454 217.664775 
L 132.565943 217.657666 
L 132.100167 217.272337 
L 132.01522 217.202003 
L 131.634391 216.88669 
L 131.456291 216.739232 
L 131.168614 216.501051 
L 130.897357 216.276461 
L 130.702838 216.11541 
L 130.338413 215.813689 
L 130.237062 215.729777 
L 129.779472 215.350918 
L 129.771285 215.34414 
L 129.305509 214.958497 
L 129.22397 214.888147 
L 128.839733 214.525649 
L 128.740812 214.425376 
L 128.373957 214.053506 
L 128.28428 213.962604 
L 127.90818 213.581362 
L 127.827752 213.499833 
L 127.442404 213.109233 
L 127.371204 213.037062 
L 126.976628 212.6371 
L 126.914666 212.57429 
L 126.510851 212.164951 
L 126.458141 212.111519 
L 126.045075 211.695373 
L 125.998928 211.648748 
L 125.579299 211.23746 
L 125.526769 211.185977 
L 125.113523 210.780951 
L 125.054603 210.723205 
L 124.647746 210.324437 
L 124.582447 210.260434 
L 124.18197 209.867931 
L 124.110273 209.797663 
L 123.716194 209.411424 
L 123.638111 209.334891 
L 123.250417 208.954911 
L 123.165944 208.87212 
L 122.784641 208.4984 
L 122.693781 208.409349 
L 122.318865 208.0419 
L 122.222351 207.946578 
L 121.912713 207.483806 
L 121.853088 207.360971 
L 121.688086 207.021035 
L 121.463459 206.558264 
L 121.387312 206.401386 
L 121.238832 206.095492 
L 121.014203 205.632721 
L 120.921536 205.441812 
L 120.789573 205.16995 
L 120.564945 204.707179 
L 120.45576 204.482238 
L 120.340319 204.244407 
L 120.115686 203.781636 
L 119.989983 203.522673 
L 119.891056 203.318865 
L 119.666425 202.856093 
L 119.524207 202.583461 
L 119.424315 202.393322 
L 119.178228 201.930551 
L 119.058431 201.705272 
L 118.932141 201.46778 
L 118.686064 201.005008 
L 118.592654 200.829338 
L 118.439992 200.542237 
L 118.193905 200.079466 
L 118.126878 199.95342 
L 117.947824 199.616694 
L 117.701742 199.153923 
L 117.661102 199.077495 
L 117.455669 198.691152 
L 117.209591 198.228381 
L 117.195326 198.201555 
L 116.963501 197.765609 
L 116.729549 197.324473 
L 116.718069 197.302838 
L 116.474025 196.840067 
L 116.263773 196.441383 
L 116.229974 196.377295 
L 115.985918 195.914524 
L 115.797997 195.558171 
L 115.741877 195.451753 
L 115.497825 194.988982 
L 115.33222 194.674971 
L 115.253768 194.52621 
L 115.009717 194.063439 
L 114.866444 193.791766 
L 114.765666 193.600668 
L 114.521618 193.137896 
L 114.400668 192.908553 
L 114.277561 192.675125 
L 114.03352 192.212354 
L 113.934891 192.025337 
L 113.789464 191.749583 
L 113.542077 191.286811 
L 113.469115 191.151326 
L 113.292864 190.82404 
L 113.043647 190.361269 
L 113.003339 190.286421 
L 112.794425 189.898497 
L 112.545215 189.435726 
L 112.537563 189.421516 
L 112.295999 188.972955 
L 112.071786 188.542639 
L 112.054955 188.510184 
L 111.85344 188.047412 
L 111.651926 187.584641 
L 111.60601 187.479199 
L 111.450408 187.12187 
L 111.252428 186.659098 
L 111.155402 186.196327 
L 111.140234 186.118352 
L 111.065383 185.733556 
L 110.975365 185.270785 
L 110.885346 184.808013 
L 110.795923 184.345242 
L 110.724713 183.882471 
L 110.722159 183.419699 
L 110.721459 182.956928 
L 110.720764 182.494157 
L 110.720064 182.031386 
L 110.719361 181.568614 
L 110.718657 181.105843 
L 110.725062 180.643072 
L 110.731633 180.180301 
L 110.738074 179.717529 
L 110.745407 179.254758 
L 110.752749 178.791987 
L 110.760086 178.329215 
L 110.767417 177.866444 
L 110.774758 177.403673 
L 110.782091 176.940902 
L 110.789427 176.47813 
L 110.796763 176.015359 
L 110.804101 175.552588 
L 110.811438 175.089816 
L 110.818777 174.627045 
L 110.82611 174.164274 
L 110.833445 173.701503 
L 110.840783 173.238731 
L 110.848123 172.77596 
L 110.855454 172.313189 
L 110.86279 171.850417 
L 110.870126 171.387646 
L 110.877465 170.924875 
L 110.884802 170.462104 
L 110.905655 169.999332 
L 110.964456 169.536561 
L 111.023256 169.07379 
L 111.082064 168.611018 
L 111.135403 168.148247 
L 111.140234 168.099777 
L 111.181525 167.685476 
L 111.227649 167.222705 
L 111.273771 166.759933 
L 111.319894 166.297162 
L 111.366016 165.834391 
L 111.412143 165.371619 
L 111.458263 164.908848 
L 111.504391 164.446077 
L 111.550513 163.983306 
L 111.596635 163.520534 
L 111.60601 163.426467 
L 111.642754 163.057763 
L 111.688878 162.594992 
L 111.752633 162.13222 
L 111.882053 161.669449 
L 112.011479 161.206678 
L 112.071786 160.991054 
L 112.140912 160.743907 
L 112.270347 160.281135 
L 112.39978 159.818364 
L 112.529202 159.355593 
L 112.537563 159.3257 
L 112.658636 158.892821 
L 112.788063 158.43005 
L 112.917491 157.967279 
L 113.003339 157.660351 
L 113.046929 157.504508 
L 113.176362 157.041736 
L 113.311316 156.578965 
L 113.460232 156.116194 
L 113.469115 156.08932 
L 113.613206 155.653422 
L 113.766167 155.190651 
L 113.919129 154.72788 
L 113.934891 154.68019 
L 114.072095 154.265109 
L 114.225067 153.802337 
L 114.378023 153.339566 
L 114.400668 153.271058 
L 114.530993 152.876795 
L 114.683958 152.414023 
L 114.836925 151.951252 
L 114.866444 151.86195 
L 114.989895 151.488481 
L 115.142853 151.02571 
L 115.295821 150.562938 
L 115.33222 150.452818 
L 115.448783 150.100167 
L 115.601751 149.637396 
L 115.760077 149.174624 
L 115.797997 149.085987 
L 115.963867 148.711853 
L 116.151602 148.249082 
L 116.263773 147.986605 
L 116.350235 147.786311 
L 116.558964 147.323539 
L 116.729549 146.945364 
L 116.767707 146.860768 
L 116.976433 146.397997 
L 117.185171 145.935225 
L 117.195326 145.912713 
L 117.393905 145.472454 
L 117.602632 145.009683 
L 117.661102 144.880055 
L 117.811368 144.546912 
L 118.020097 144.08414 
L 118.126878 143.852048 
L 118.236087 143.621369 
L 118.469423 143.158598 
L 118.592654 142.914196 
L 118.702758 142.695826 
L 118.936101 142.233055 
L 119.058431 141.990446 
L 119.169445 141.770284 
L 119.402781 141.307513 
L 119.524207 141.066688 
L 119.636116 140.844741 
L 119.869451 140.38197 
L 119.989983 140.142928 
L 120.102796 139.919199 
L 120.355241 139.456427 
L 120.45576 139.331207 
L 120.751672 138.993656 
L 120.921536 138.79988 
L 121.15733 138.530885 
L 121.387312 138.268538 
L 121.568894 138.068114 
L 121.853088 137.775338 
L 122.020117 137.605342 
L 122.318865 137.301293 
L 122.474816 137.142571 
L 122.784641 136.82724 
L 122.929504 136.6798 
L 123.250417 136.353197 
L 123.384212 136.217028 
L 123.716194 135.879135 
L 123.838891 135.754257 
L 124.18197 135.405081 
L 124.293584 135.291486 
L 124.647746 134.931038 
L 124.748284 134.828715 
L 125.113523 134.456979 
L 125.202968 134.365943 
L 125.579299 133.982924 
L 125.657659 133.903172 
L 126.045075 133.508874 
L 126.112353 133.440401 
L 126.510851 133.034834 
L 126.567057 132.977629 
L 126.976628 132.560787 
L 127.021754 132.514858 
L 127.442404 132.086736 
L 127.476448 132.052087 
L 127.90818 131.612682 
L 127.931139 131.589316 
L 128.373957 131.138632 
L 128.385805 131.126544 
L 128.835978 130.663773 
L 128.839733 130.659885 
L 129.282765 130.201002 
L 129.305509 130.177444 
L 129.729562 129.73823 
L 129.771285 129.695015 
L 130.176356 129.275459 
L 130.237062 129.212582 
L 130.623142 128.812688 
L 130.702838 128.731778 
L 131.093083 128.349917 
L 131.168614 128.26604 
L 131.509813 127.887145 
L 131.634391 127.750163 
L 131.929982 127.424374 
L 132.100167 127.245214 
L 132.369562 126.961603 
L 132.565943 126.754856 
L 132.809134 126.498831 
L 133.03172 126.293294 
L 133.360182 126.03606 
L 133.497496 125.933938 
L 133.963272 125.587539 
L 133.982433 125.573289 
L 134.429048 125.241139 
L 134.60469 125.110518 
L 134.894825 124.894746 
L 135.226937 124.647746 
L 135.360601 124.548336 
L 135.826377 124.201932 
L 135.849179 124.184975 
L 136.292154 123.855542 
L 136.471442 123.722204 
L 136.75793 123.509142 
L 137.093689 123.259432 
L 137.223706 123.16274 
L 137.689482 122.816342 
L 137.715946 122.796661 
L 138.155259 122.469946 
L 138.338205 122.33389 
L 138.621035 122.123549 
L 138.960469 121.871119 
L 139.086811 121.777159 
L 139.552588 121.430759 
L 139.582722 121.408347 
L 140.018364 121.084357 
L 140.204973 120.945576 
L 140.48414 120.737961 
L 140.827234 120.482805 
L 140.949917 120.391564 
L 141.415693 120.045169 
L 141.449491 120.020033 
L 141.881469 119.698776 
L 142.071748 119.557262 
L 142.347245 119.352372 
L 142.694 119.094491 
L 142.813022 119.005974 
L 143.278798 118.659565 
L 143.31624 118.63172 
L 143.744574 118.313171 
L 143.938496 118.168948 
L 144.210351 117.964756 
L 144.522052 117.706177 
L 144.676127 117.567273 
L 145.035363 117.243406 
L 145.141903 117.147357 
L 145.548681 116.780634 
L 145.607679 116.727446 
L 146.062024 116.317863 
L 146.073456 116.307557 
L 146.539232 115.887646 
L 146.575343 115.855092 
L 147.005008 115.467743 
L 147.08867 115.392321 
L 147.470785 115.047842 
L 147.601999 114.929549 
L 147.936561 114.627935 
L 148.115325 114.466778 
L 148.402337 114.20803 
L 148.62865 114.004007 
L 148.868114 113.788129 
L 149.141972 113.541235 
L 149.33389 113.36822 
L 149.655296 113.078464 
L 149.799666 112.948311 
L 150.168624 112.615693 
L 150.265442 112.528411 
L 150.681962 112.152922 
L 150.731219 112.108515 
L 151.177273 111.69015 
L 151.196995 111.670922 
L 151.633637 111.227379 
L 151.662771 111.197783 
L 152.089199 110.764608 
L 152.128548 110.724638 
L 152.544767 110.301836 
L 152.594324 110.251497 
L 153.000335 109.839065 
L 153.0601 109.778355 
L 153.455902 109.376294 
L 153.525876 109.305213 
L 153.911476 108.913523 
L 153.991653 108.832078 
L 154.367046 108.450751 
L 154.457429 108.358938 
L 154.822606 107.98798 
L 154.923205 107.885794 
L 155.278186 107.525209 
L 155.388982 107.411881 
L 155.716141 107.062437 
L 155.854758 106.905334 
L 156.124455 106.599666 
L 156.320534 106.377432 
L 156.532763 106.136895 
L 156.786311 105.884913 
L 157.038568 105.674124 
L 157.252087 105.50528 
L 157.623787 105.211352 
L 157.717863 105.136958 
L 158.183639 104.76863 
L 158.208993 104.748581 
L 158.649416 104.400314 
L 158.794214 104.28581 
L 159.115192 104.031985 
L 159.379429 103.823038 
L 159.580968 103.663672 
L 159.964657 103.360267 
L 160.046745 103.295354 
L 160.512521 102.927036 
L 160.549876 102.897496 
L 160.978297 102.558705 
L 161.135081 102.434725 
L 161.444073 102.190383 
L 161.720307 101.971953 
L 161.90985 101.822066 
L 162.305518 101.509182 
L 162.375626 101.453742 
L 162.841402 101.084264 
L 162.888886 101.046411 
L 163.307179 100.712686 
L 163.468922 100.583639 
L 163.772955 100.334374 
L 164.027562 100.120868 
L 164.238731 99.94109 
L 164.571144 99.658097 
L 164.704508 99.544558 
L 165.114721 99.195326 
L 165.170284 99.148022 
L 165.63606 98.827091 
L 165.839788 98.732554 
L 166.101836 98.610953 
L 166.567613 98.394821 
L 166.837056 98.269783 
L 167.033389 98.178673 
L 167.499165 97.962545 
L 167.834348 97.807012 
L 167.964942 97.746412 
L 168.430718 97.530267 
L 168.831611 97.34424 
L 168.896494 97.314133 
L 169.36227 97.097995 
L 169.828047 96.881855 
L 169.828879 96.881469 
L 170.293823 96.665716 
L 170.759599 96.449575 
L 170.826142 96.418698 
L 171.225376 96.233443 
L 171.691152 96.017303 
L 171.823417 95.955927 
L 172.156928 95.801165 
L 172.622705 95.602531 
L 172.92437 95.493155 
L 173.088481 95.435205 
L 173.554257 95.270732 
L 174.020033 95.106259 
L 174.234915 95.030384 
L 174.48581 94.941792 
L 174.951586 94.777322 
L 175.417362 94.612868 
L 175.545521 94.567613 
L 175.883139 94.448392 
L 176.348915 94.283923 
L 176.814691 94.119456 
L 176.856079 94.104841 
L 177.280467 93.953801 
L 177.746244 93.784302 
L 178.136158 93.64207 
L 178.21202 93.614398 
L 178.677796 93.444479 
L 179.143573 93.274578 
L 179.404745 93.179299 
L 179.609349 93.104657 
L 180.075125 92.934743 
L 180.540902 92.764833 
L 180.67332 92.716528 
L 181.006678 92.594918 
L 181.472454 92.425007 
L 181.93823 92.255092 
L 181.941891 92.253756 
L 182.404007 92.085185 
L 182.869783 91.916967 
L 183.303259 91.790985 
L 183.335559 91.781751 
L 183.801336 91.648584 
L 184.267112 91.515428 
L 184.732888 91.382271 
L 184.927268 91.328214 
L 185.198664 91.25224 
L 185.664441 91.112748 
L 186.130217 90.973254 
L 186.529106 90.865442 
L 186.595993 90.848382 
L 187.06177 90.779565 
L 187.527546 90.710745 
L 187.993322 90.641923 
L 188.459098 90.618638 
L 188.924875 90.598422 
L 189.390651 90.578214 
L 189.856427 90.557993 
L 190.322204 90.537784 
L 190.78798 90.51757 
L 191.253756 90.497347 
L 191.719533 90.477138 
L 192.185309 90.456917 
L 192.651085 90.436709 
L 193.116861 90.460655 
L 193.582638 90.532607 
L 194.048414 90.604573 
L 194.51419 90.676544 
L 194.979967 90.748496 
L 195.445743 90.837799 
L 195.570865 90.865442 
L 195.911519 90.940704 
L 196.377295 91.043603 
L 196.843072 91.146501 
L 197.308848 91.249392 
L 197.665653 91.328214 
L 197.774624 91.352287 
L 198.240401 91.455188 
L 198.706177 91.55809 
L 199.171953 91.660992 
L 199.63773 91.763882 
L 199.760421 91.790985 
L 200.103506 91.866774 
L 200.569282 91.969677 
L 201.035058 92.07257 
L 201.500835 92.165193 
L 201.966611 92.253232 
L 201.969386 92.253756 
L 202.432387 92.341271 
L 202.898164 92.429309 
L 203.36394 92.523154 
L 203.829716 92.64027 
L 204.132658 92.716528 
L 204.295492 92.757515 
L 204.761269 92.874763 
L 205.227045 92.988534 
L 205.692821 93.057993 
L 206.158598 93.120493 
L 206.59692 93.179299 
L 206.624374 93.182982 
L 207.09015 93.245495 
L 207.555927 93.307987 
L 208.021703 93.370479 
L 208.487479 93.432973 
L 208.953255 93.495563 
L 209.419032 93.558261 
L 209.884808 93.620936 
L 210.041807 93.64207 
L 210.350584 93.683637 
L 210.816361 93.746341 
L 211.282137 93.809017 
L 211.747913 93.871715 
L 212.213689 93.937635 
L 212.679466 94.073147 
L 212.784906 94.104841 
L 213.145242 94.213156 
L 213.611018 94.35443 
L 214.076795 94.499253 
L 214.203794 94.567613 
L 214.542571 94.777236 
L 214.91329 95.030384 
L 215.008347 95.095295 
L 215.474124 95.414368 
L 215.572946 95.493155 
L 215.9399 95.792061 
L 216.141073 95.955927 
L 216.405676 96.171459 
L 216.709198 96.418698 
L 216.871452 96.551564 
L 217.265136 96.881469 
L 217.337229 96.942708 
L 217.803005 97.338383 
L 217.809572 97.34424 
L 218.268781 97.755148 
L 218.3263 97.807012 
L 218.734558 98.175132 
L 218.839532 98.269783 
L 219.200334 98.59511 
L 219.352757 98.732554 
L 219.66611 99.015101 
L 219.865985 99.195326 
L 220.131886 99.435086 
L 220.368052 99.658097 
L 220.597663 99.887771 
L 220.809647 100.120868 
L 221.063439 100.374839 
L 221.375965 100.583639 
L 221.529215 100.682593 
L 221.994992 100.983318 
L 222.092704 101.046411 
L 222.460768 101.284063 
L 222.809429 101.509182 
L 222.926544 101.5848 
L 223.392321 101.885545 
L 223.526143 101.971953 
L 223.858097 102.186281 
L 224.242876 102.434725 
L 224.323873 102.487024 
L 224.789649 102.787771 
L 224.975942 102.897496 
L 225.255426 103.058955 
L 225.721202 103.325292 
L 225.782364 103.360267 
L 226.186978 103.591635 
L 226.578842 103.823038 
L 226.652755 103.869776 
L 227.118531 104.182754 
L 227.228535 104.28581 
L 227.584307 104.711327 
L 227.615262 104.748581 
L 228.00043 105.211352 
L 228.050083 105.271009 
L 228.3856 105.674124 
L 228.51586 105.830635 
L 228.770757 106.136895 
L 228.981636 106.390262 
L 229.155921 106.599666 
L 229.447412 106.949883 
L 229.541091 107.062437 
L 229.913189 107.509515 
L 229.926251 107.525209 
L 230.311412 107.98798 
L 230.378965 108.069145 
L 230.69657 108.450751 
L 230.844741 108.628778 
L 231.08174 108.913523 
L 231.310518 109.188392 
L 231.466907 109.376294 
L 231.776294 109.748016 
L 231.852074 109.839065 
L 232.23724 110.301836 
L 232.24207 110.30764 
L 232.622402 110.764608 
L 232.707846 110.867266 
L 233.007571 111.227379 
L 233.173623 111.426887 
L 233.392738 111.69015 
L 233.639399 111.986512 
L 233.777897 112.152922 
L 234.105175 112.546149 
L 234.163058 112.615693 
L 234.548219 113.078464 
L 234.570952 113.105778 
L 234.933392 113.541235 
L 235.036728 113.665395 
L 235.318547 114.004007 
L 235.502504 114.225028 
L 235.703719 114.466778 
L 235.96828 114.784639 
L 236.088889 114.929549 
L 236.434057 115.34428 
L 236.47404 115.392321 
L 236.813016 115.855092 
L 236.899833 116.002706 
L 237.086764 116.317863 
L 237.354762 116.780634 
L 237.365609 116.799521 
L 237.608281 117.243406 
L 237.813936 117.706177 
L 237.831386 117.746851 
L 238.01541 118.168948 
L 238.240071 118.63172 
L 238.297162 118.744098 
L 238.475173 119.094491 
L 238.710284 119.557262 
L 238.762938 119.660906 
L 238.945381 120.020033 
L 239.180489 120.482805 
L 239.228715 120.577732 
L 239.415591 120.945576 
L 239.650693 121.408347 
L 239.694491 121.494559 
L 239.885792 121.871119 
L 240.120895 122.33389 
L 240.160267 122.411391 
L 240.355998 122.796661 
L 240.591101 123.259432 
L 240.626043 123.328211 
L 240.826204 123.722204 
L 241.061297 124.184975 
L 241.09182 124.245055 
L 241.2958 124.647746 
L 241.530332 125.110518 
L 241.557596 125.164295 
L 241.76466 125.573289 
L 241.998956 126.03606 
L 242.023372 126.084286 
L 242.233247 126.498831 
L 242.467543 126.961603 
L 242.489149 127.004277 
L 242.701835 127.424374 
L 242.919876 127.887145 
L 242.954925 127.963822 
L 243.131415 128.349917 
L 243.342939 128.812688 
L 243.420701 128.982811 
L 243.55447 129.275459 
L 243.766008 129.73823 
L 243.886477 130.001782 
L 243.97754 130.201002 
L 244.189077 130.663773 
L 244.352254 131.02076 
L 244.400608 131.126544 
L 244.598391 131.589316 
L 244.735271 132.052087 
L 244.81803 132.331917 
L 244.872134 132.514858 
L 245.009012 132.977629 
L 245.145885 133.440401 
L 245.282758 133.903172 
L 245.283806 133.906617 
L 245.422392 134.365943 
L 245.592057 134.828715 
L 245.749583 135.258214 
L 245.761785 135.291486 
L 245.936582 135.754257 
L 246.131243 136.217028 
L 246.215359 136.412864 
L 246.330013 136.6798 
L 246.528776 137.142571 
L 246.681135 137.473544 
L 246.740006 137.605342 
L 246.971363 138.068114 
L 247.146912 138.417928 
L 247.203595 138.530885 
L 247.435804 138.993656 
L 247.612688 139.346153 
L 247.668025 139.456427 
L 247.900137 139.919199 
L 248.078464 140.277012 
L 248.130866 140.38197 
L 248.361086 140.844741 
L 248.54424 141.212915 
L 248.591299 141.307513 
L 248.821515 141.770284 
L 249.010017 142.149204 
L 249.051729 142.233055 
L 249.281945 142.695826 
L 249.475793 143.085501 
L 249.512157 143.158598 
L 249.742372 143.621369 
L 249.941569 144.028599 
L 249.968532 144.08414 
L 250.192618 144.546912 
L 250.373539 145.009683 
L 250.407346 145.113428 
L 250.524337 145.472454 
L 250.675136 145.935225 
L 250.825938 146.397997 
L 250.873122 146.505386 
L 251.038259 146.860768 
L 251.272876 147.323539 
L 251.338898 147.469862 
L 251.483116 147.786311 
L 251.67561 148.249082 
L 251.804674 148.55936 
L 251.868107 148.711853 
L 252.060612 149.174624 
L 252.253111 149.637396 
L 252.270451 149.679081 
L 252.445609 150.100167 
L 252.638107 150.562938 
L 252.736227 150.798819 
L 252.830605 151.02571 
L 253.023104 151.488481 
L 253.202003 151.918551 
L 253.215512 151.951252 
L 253.405151 152.414023 
L 253.594357 152.876795 
L 253.66778 153.056376 
L 253.78356 153.339566 
L 253.97276 153.802337 
L 254.133556 154.195631 
L 254.161962 154.265109 
L 254.351165 154.72788 
L 254.54246 155.190651 
L 254.599332 155.309946 
L 254.762405 155.653422 
L 254.965628 156.116194 
L 255.065109 156.365416 
L 255.150351 156.578965 
L 255.317206 157.041736 
L 255.4515 157.504508 
L 255.530885 157.778051 
L 255.585799 157.967279 
L 255.734183 158.43005 
L 255.890976 158.892821 
L 255.996661 159.204728 
L 256.047779 159.355593 
L 256.204577 159.818364 
L 256.36138 160.281135 
L 256.462437 160.579414 
L 256.518169 160.743907 
L 256.674971 161.206678 
L 256.831775 161.669449 
L 256.928214 161.954094 
L 256.989089 162.13222 
L 257.147253 162.594992 
L 257.305395 163.057763 
L 257.39399 163.317031 
L 257.463779 163.520534 
L 257.622486 163.983306 
L 257.781183 164.446077 
L 257.859766 164.661378 
L 257.953658 164.908848 
L 258.145156 165.371619 
L 258.325543 165.807555 
L 258.336647 165.834391 
L 258.520645 166.297162 
L 258.680712 166.759933 
L 258.791319 167.089101 
L 258.836211 167.222705 
L 258.991719 167.685476 
L 259.147221 168.148247 
L 259.257095 168.475236 
L 259.302722 168.611018 
L 259.458222 169.07379 
L 259.613727 169.536561 
L 259.722871 169.861358 
L 259.769236 169.999332 
L 259.924733 170.462104 
L 260.080234 170.924875 
L 260.188648 171.247487 
L 260.235749 171.387646 
L 260.391247 171.850417 
L 260.554111 172.313189 
L 260.654424 172.55414 
L 260.746771 172.77596 
L 260.93943 173.238731 
L 261.1202 173.672938 
L 261.132092 173.701503 
L 261.32474 174.164274 
L 261.517396 174.627045 
L 261.585977 174.79178 
L 261.710052 175.089816 
L 261.902712 175.552588 
L 262.051753 175.910587 
L 262.095372 176.015359 
L 262.288031 176.47813 
L 262.480688 176.940902 
L 262.517529 177.029395 
L 262.673347 177.403673 
L 262.866002 177.866444 
L 262.983306 178.196872 
L 263.031637 178.329215 
L 263.125018 178.791987 
L 263.218404 179.254758 
L 263.311786 179.717529 
L 263.405572 180.180301 
L 263.449082 180.397901 
L 263.49856 180.643072 
L 263.59194 181.105843 
L 263.68877 181.568614 
L 263.783475 182.031386 
L 263.874476 182.494157 
L 263.914858 182.685618 
L 263.974096 182.956928 
L 264.071896 183.419699 
L 264.167284 183.882471 
L 264.270843 184.345242 
L 264.319159 184.808013 
L 264.360632 185.270785 
L 264.380634 185.49396 
L 264.402109 185.733556 
L 264.443587 186.196327 
L 264.485074 186.659098 
L 264.52655 187.12187 
L 264.56803 187.584641 
L 264.609508 188.047412 
L 264.643361 188.510184 
L 264.637894 188.972955 
L 264.621821 189.435726 
L 264.605742 189.898497 
L 264.589667 190.361269 
L 264.573588 190.82404 
L 264.557518 191.286811 
L 264.541438 191.749583 
L 264.525361 192.212354 
L 264.509282 192.675125 
L 264.45249 193.137896 
L 264.380634 193.309891 
L 264.259153 193.600668 
L 264.065822 194.063439 
L 263.914858 194.424788 
L 263.872486 194.52621 
L 263.679146 194.988982 
L 263.485813 195.451753 
L 263.449082 195.53967 
L 263.292477 195.914524 
L 263.099158 196.377295 
L 262.983306 196.654599 
L 262.90582 196.840067 
L 262.714477 197.302838 
L 262.519231 197.765609 
L 262.517529 197.769773 
L 262.333444 198.228381 
L 262.141634 198.691152 
L 262.051753 198.913581 
L 261.955424 199.153923 
L 261.76764 199.616694 
L 261.585977 200.066243 
L 261.580633 200.079466 
L 261.393636 200.542237 
L 261.206626 201.005008 
L 261.1202 201.218889 
L 261.019627 201.46778 
L 260.83262 201.930551 
L 260.654424 202.37155 
L 260.645626 202.393322 
L 260.458616 202.856093 
L 260.271619 203.318865 
L 260.188648 203.52419 
L 260.084615 203.781636 
L 259.897613 204.244407 
L 259.722871 204.67685 
L 259.710616 204.707179 
L 259.52361 205.16995 
L 259.336607 205.632721 
L 259.257095 205.829499 
L 259.149614 206.095492 
L 258.962601 206.558264 
L 258.791319 206.982129 
L 258.775597 207.021035 
L 258.588598 207.483806 
L 258.401599 207.946578 
L 258.325543 208.134791 
L 258.214594 208.409349 
L 258.027593 208.87212 
L 257.859766 209.287437 
L 257.840591 209.334891 
L 257.653596 209.797663 
L 257.448968 210.260434 
L 257.39399 210.354522 
L 257.169874 210.723205 
L 256.928214 211.120761 
L 256.88857 211.185977 
L 256.601769 211.648748 
L 256.462437 211.865303 
L 256.295634 212.111519 
L 255.996661 212.552817 
L 255.982113 212.57429 
L 255.668603 213.037062 
L 255.530885 213.240336 
L 255.355075 213.499833 
L 255.065109 213.927843 
L 255.041558 213.962604 
L 254.728037 214.425376 
L 254.599332 214.615353 
L 254.414522 214.888147 
L 254.133556 215.30287 
L 254.101004 215.350918 
L 253.699978 215.813689 
L 253.66778 215.846933 
L 253.251758 216.276461 
L 253.202003 216.327832 
L 252.803551 216.739232 
L 252.736227 216.808744 
L 252.355344 217.202003 
L 252.270451 217.289653 
L 251.907132 217.664775 
L 251.804674 217.77056 
L 251.458932 218.127546 
L 251.338898 218.251481 
L 251.010717 218.590317 
L 250.873122 218.732382 
L 250.562508 219.053088 
L 250.407346 219.213293 
L 250.114291 219.51586 
L 249.941569 219.694195 
L 249.66609 219.978631 
L 249.475793 220.175108 
L 249.217873 220.441402 
L 249.010017 220.656011 
L 248.769529 220.904174 
L 248.54424 221.136786 
L 248.320888 221.366945 
L 248.078464 221.617267 
L 247.872309 221.829716 
L 247.612688 222.097823 
L 247.423803 222.292487 
L 247.146912 222.577934 
L 246.974856 222.755259 
L 246.681135 223.057981 
L 246.525843 223.21803 
L 246.215359 223.538018 
L 246.076816 223.680801 
L 245.749583 224.018052 
L 245.627792 224.143573 
L 245.283806 224.498097 
L 245.178776 224.606344 
L 244.81803 224.978139 
L 244.729757 225.069115 
L 244.352254 225.458174 
L 244.280732 225.531886 
L 243.886477 225.938219 
L 243.831714 225.994658 
L 243.420701 226.418252 
L 243.382689 226.457429 
L 242.954925 226.898303 
L 242.933678 226.9202 
L 242.489149 227.378341 
L 242.484656 227.382972 
L 242.035629 227.845743 
L 242.023372 227.857645 
L 241.557596 228.289861 
L 241.53677 228.308514 
L 241.09182 228.706604 
L 241.019616 228.771285 
L 240.626043 229.122373 
L 240.500929 229.234057 
L 240.160267 229.537973 
L 239.981342 229.696828 
L 239.694491 229.949999 
L 239.455371 230.159599 
L 239.228715 230.360735 
L 238.96417 230.622371 
L 238.762938 230.839976 
L 238.501628 231.085142 
L 238.297162 231.253953 
L 237.941112 231.547913 
L 237.831386 231.638507 
L 237.380608 232.010684 
L 237.365609 232.023068 
L 236.899833 232.407625 
L 236.820098 232.473456 
L 236.434057 232.792186 
L 236.259026 232.936227 
L 235.96828 233.14722 
L 235.554754 233.398998 
L 235.502504 233.43083 
L 235.036728 233.713835 
L 234.796379 233.86177 
L 234.570952 233.998729 
L 234.105175 234.231589 
L 233.905455 234.324541 
L 233.639399 234.448365 
L 233.173623 234.665134 
L 232.911107 234.787312 
L 232.707846 234.88191 
L 232.24207 235.083383 
L 231.776739 235.250083 
L 231.776294 235.250243 
L 231.310518 235.417091 
L 230.844741 235.583945 
L 230.484888 235.712855 
L 230.378965 235.74979 
L 229.913189 235.876269 
L 229.447412 235.97477 
L 228.981636 236.073261 
L 228.51586 236.171752 
L 228.497543 236.175626 
L 228.050083 236.270254 
L 227.584307 236.368752 
L 227.118531 236.467241 
L 226.652755 236.565737 
L 226.309152 236.638397 
L 226.186978 236.663584 
L 225.721202 236.716474 
L 225.255426 236.767866 
L 224.789649 236.819255 
L 224.323873 236.870649 
L 223.858097 236.922034 
L 223.392321 236.973428 
L 222.926544 237.024814 
L 222.460768 237.076201 
L 222.234495 237.101169 
L 221.994992 237.127596 
L 221.529215 237.178992 
L 221.063439 237.230377 
L 220.597663 237.281771 
L 220.131886 237.33316 
L 219.66611 237.384552 
L 219.200334 237.452808 
L 218.769199 237.56394 
L 218.734558 237.573066 
L 218.268781 237.695781 
L 217.803005 237.818496 
L 217.337229 237.94055 
L 217.100331 238.026711 
L 216.871452 238.124 
L 216.405676 238.342687 
L 216.09302 238.489482 
L 215.9399 238.561375 
L 215.474124 238.770817 
L 215.008347 238.899935 
L 214.788004 238.952254 
L 214.542571 239.01053 
L 214.076795 239.121124 
L 213.611018 239.231714 
L 213.145242 239.342309 
L 212.83898 239.415025 
L 212.679466 239.452899 
L 212.213689 239.5635 
L 211.747913 239.674087 
L 211.282137 239.784686 
L 210.920636 239.877796 
L 210.816361 239.90412 
L 210.350584 240.03774 
L 209.884808 240.171561 
L 209.419032 240.305377 
L 209.296545 240.340568 
L 208.953255 240.439198 
L 208.487479 240.573013 
L 208.021703 240.706829 
L 207.685782 240.803339 
L 207.555927 240.840646 
L 207.09015 240.917232 
L 206.624374 240.967069 
L 206.158598 241.016848 
L 205.692821 241.066622 
L 205.227045 241.116397 
L 204.761269 241.166171 
L 204.295492 241.215948 
L 203.829716 241.265725 
L 203.826109 241.26611 
L 203.36394 241.315499 
L 202.898164 241.365273 
L 202.432387 241.415047 
L 201.966611 241.4665 
L 201.500835 241.540059 
L 201.035058 241.619973 
L 200.569282 241.699636 
L 200.398276 241.728881 
L 200.103506 241.779291 
L 199.63773 241.858714 
L 199.171953 241.945309 
L 198.706177 242.036523 
L 198.240401 242.128129 
L 197.917428 242.191653 
L 197.774624 242.21974 
L 197.308848 242.31134 
L 196.843072 242.399839 
L 196.377295 242.411546 
L 195.911519 242.433389 
L 195.445743 242.492873 
L 194.979967 242.55236 
L 194.51419 242.611844 
L 194.180793 242.654424 
L 194.048414 242.671331 
L 193.582638 242.730826 
L 193.116861 242.790314 
L 192.651085 242.849799 
L 192.185309 242.909287 
L 191.719533 242.968778 
L 191.253756 243.028267 
L 190.78798 243.087745 
L 190.557426 243.117195 
L 190.322204 243.147242 
L 189.856427 243.206725 
L 189.390651 243.266213 
L 188.924875 243.325699 
L 188.459098 243.385193 
L 187.993322 243.444677 
L 187.527546 243.504172 
L 187.06177 243.499992 
L 186.595993 243.486751 
L 186.130217 243.47351 
L 185.664441 243.460263 
L 185.198664 243.447023 
L 184.732888 243.433777 
L 184.267112 243.420527 
L 183.801336 243.407286 
L 183.335559 243.394039 
L 182.869783 243.380802 
L 182.404007 243.367553 
L 181.93823 243.354307 
L 181.472454 243.341068 
L 181.006678 243.327821 
L 180.540902 243.314585 
L 180.075125 243.301335 
L 179.609349 243.28809 
L 179.143573 243.27484 
L 178.677796 243.261608 
L 178.21202 243.248357 
L 177.746244 243.235118 
L 177.280467 243.221873 
L 176.814691 243.208627 
L 176.348915 243.195385 
L 175.883139 243.182142 
L 175.417362 243.168896 
L 174.951586 243.155657 
L 174.48581 243.142407 
L 174.020033 243.129166 
z
" clip-path="url(#p96d443d947)" style="fill: none; stroke: #000000; stroke-width: 1.5"/>
   </g>
   <g id="patch_3">
    <path d="M 45 320.4 
L 45 43.2 
" style="fill: none; stroke: #000000; stroke-width: 0.8; stroke-linejoin: miter; stroke-linecap: square"/>
   </g>
   <g id="patch_4">
    <path d="M 324 320.4 
L 324 43.2 
" style="fill: none; stroke: #000000; stroke-width: 0.8; stroke-linejoin: miter; stroke-linecap: square"/>
   </g>
   <g id="patch_5">
    <path d="M 45 320.4 
L 324 320.4 
" style="fill: none; stroke: #000000; stroke-width: 0.8; stroke-linejoin: miter; stroke-linecap: square"/>
   </g>
   <g id="patch_6">
    <path d="M 45 43.2 
L 324 43.2 
" style="fill: none; stroke: #000000; stroke-width: 0.8; stroke-linejoin: miter; stroke-linecap: square"/>
   </g>
  </g>
 </g>
 <defs>
  <clipPath id="p96d443d947">
   <rect x="45" y="43.2" width="279" height="277.2"/>
  </clipPath>
 </defs>
</svg>
