<?xml version="1.0" encoding="utf-8" standalone="no"?>
<!DOCTYPE svg PUBLIC "-//W3C//DTD SVG 1.1//EN"
  "http://www.w3.org/Graphics/SVG/1.1/DTD/svg11.dtd">
<svg xmlns:xlink="http://www.w3.org/1999/xlink" width="360pt" height="360pt" viewBox="0 0 360 360" xmlns="http://www.w3.org/2000/svg" version="1.1">
 <metadata>
  <rdf:RDF xmlns:dc="http://purl.org/dc/elements/1.1/" xmlns:cc="http://creativecommons.org/ns#" xmlns:rdf="http://www.w3.org/1999/02/22-rdf-syntax-ns#">
   <cc:Work>
    <dc:type rdf:resource="http://purl.org/dc/dcmitype/StillImage"/>
    <dc:date>2022-04-10T19:53:27.300912</dc:date>
    <dc:format>image/svg+xml</dc:format>
    <dc:creator>
     <cc:Agent>
      <dc:title>Matplotlib v3.5.1, https://matplotlib.org/</dc:title>
     </cc:Agent>
    </dc:creator>
   </cc:Work>
  </rdf:RDF>
 </metadata>
 <defs>
  <style type="text/css">*{stroke-linejoin: round; stroke-linecap: butt}</style>
 </defs>
 <g id="figure_1">
  <g id="patch_1">
   <path d="M 0 360 
L 360 360 
L 360 0 
L 0 0 
z
" style="fill: #ffffff"/>
  </g>
  <g id="axes_1">
   <g id="patch_2">
    <path d="M 45 320.4 
L 324 320.4 
L 324 43.2 
L 45 43.2 
z
" style="fill: #ffffff"/>
   </g>
   <g id="PathCollection_1">
    <defs>
     <path id="m9d2232d3a3" d="M 0 0.5 
C 0.132602 0.5 0.25979 0.447317 0.353553 0.353553 
C 0.447317 0.25979 0.5 0.132602 0.5 0 
C 0.5 -0.132602 0.447317 -0.25979 0.353553 -0.353553 
C 0.25979 -0.447317 0.132602 -0.5 0 -0.5 
C -0.132602 -0.5 -0.25979 -0.447317 -0.353553 -0.353553 
C -0.447317 -0.25979 -0.5 -0.132602 -0.5 0 
C -0.5 0.132602 -0.447317 0.25979 -0.353553 0.353553 
C -0.25979 0.447317 -0.132602 0.5 0 0.5 
z
" style="stroke: #ff0000"/>
    </defs>
    <g clip-path="url(#p3471086c4d)">
     <use xlink:href="#m9d2232d3a3" x="222.520757" y="181.336455" style="fill: #ff0000; stroke: #ff0000"/>
     <use xlink:href="#m9d2232d3a3" x="223.680557" y="177.548058" style="fill: #ff0000; stroke: #ff0000"/>
     <use xlink:href="#m9d2232d3a3" x="224.765444" y="173.471038" style="fill: #ff0000; stroke: #ff0000"/>
     <use xlink:href="#m9d2232d3a3" x="225.575107" y="169.097459" style="fill: #ff0000; stroke: #ff0000"/>
     <use xlink:href="#m9d2232d3a3" x="225.863406" y="164.505715" style="fill: #ff0000; stroke: #ff0000"/>
     <use xlink:href="#m9d2232d3a3" x="225.412863" y="159.856931" style="fill: #ff0000; stroke: #ff0000"/>
     <use xlink:href="#m9d2232d3a3" x="224.10625" y="155.352872" style="fill: #ff0000; stroke: #ff0000"/>
     <use xlink:href="#m9d2232d3a3" x="221.956071" y="151.175792" style="fill: #ff0000; stroke: #ff0000"/>
     <use xlink:href="#m9d2232d3a3" x="219.078159" y="147.444926" style="fill: #ff0000; stroke: #ff0000"/>
     <use xlink:href="#m9d2232d3a3" x="215.630695" y="144.213153" style="fill: #ff0000; stroke: #ff0000"/>
     <use xlink:href="#m9d2232d3a3" x="211.757374" y="141.499841" style="fill: #ff0000; stroke: #ff0000"/>
     <use xlink:href="#m9d2232d3a3" x="207.563299" y="139.333666" style="fill: #ff0000; stroke: #ff0000"/>
     <use xlink:href="#m9d2232d3a3" x="203.126629" y="137.777012" style="fill: #ff0000; stroke: #ff0000"/>
     <use xlink:href="#m9d2232d3a3" x="198.527831" y="136.919341" style="fill: #ff0000; stroke: #ff0000"/>
     <use xlink:href="#m9d2232d3a3" x="193.873338" y="136.847918" style="fill: #ff0000; stroke: #ff0000"/>
     <use xlink:href="#m9d2232d3a3" x="189.30062" y="137.61586" style="fill: #ff0000; stroke: #ff0000"/>
     <use xlink:href="#m9d2232d3a3" x="184.966555" y="139.222435" style="fill: #ff0000; stroke: #ff0000"/>
     <use xlink:href="#m9d2232d3a3" x="181.027951" y="141.605135" style="fill: #ff0000; stroke: #ff0000"/>
     <use xlink:href="#m9d2232d3a3" x="177.618514" y="144.633689" style="fill: #ff0000; stroke: #ff0000"/>
     <use xlink:href="#m9d2232d3a3" x="174.819846" y="148.103039" style="fill: #ff0000; stroke: #ff0000"/>
     <use xlink:href="#m9d2232d3a3" x="172.626657" y="151.737506" style="fill: #ff0000; stroke: #ff0000"/>
     <use xlink:href="#m9d2232d3a3" x="170.918278" y="155.223541" style="fill: #ff0000; stroke: #ff0000"/>
     <use xlink:href="#m9d2232d3a3" x="169.457207" y="158.274826" style="fill: #ff0000; stroke: #ff0000"/>
     <use xlink:href="#m9d2232d3a3" x="167.929796" y="160.711035" style="fill: #ff0000; stroke: #ff0000"/>
     <use xlink:href="#m9d2232d3a3" x="166.025921" y="162.518018" style="fill: #ff0000; stroke: #ff0000"/>
     <use xlink:href="#m9d2232d3a3" x="163.535221" y="163.861686" style="fill: #ff0000; stroke: #ff0000"/>
     <use xlink:href="#m9d2232d3a3" x="160.427469" y="165.045746" style="fill: #ff0000; stroke: #ff0000"/>
     <use xlink:href="#m9d2232d3a3" x="156.886189" y="166.42402" style="fill: #ff0000; stroke: #ff0000"/>
     <use xlink:href="#m9d2232d3a3" x="153.275735" y="168.294376" style="fill: #ff0000; stroke: #ff0000"/>
     <use xlink:href="#m9d2232d3a3" x="150.042036" y="170.810568" style="fill: #ff0000; stroke: #ff0000"/>
     <use xlink:href="#m9d2232d3a3" x="147.5755" y="173.946896" style="fill: #ff0000; stroke: #ff0000"/>
     <use xlink:href="#m9d2232d3a3" x="146.09087" y="177.532237" style="fill: #ff0000; stroke: #ff0000"/>
     <use xlink:href="#m9d2232d3a3" x="145.582139" y="181.336455" style="fill: #ff0000; stroke: #ff0000"/>
     <use xlink:href="#m9d2232d3a3" x="145.876983" y="185.161603" style="fill: #ff0000; stroke: #ff0000"/>
     <use xlink:href="#m9d2232d3a3" x="146.758664" y="188.887445" style="fill: #ff0000; stroke: #ff0000"/>
     <use xlink:href="#m9d2232d3a3" x="148.082393" y="192.452958" style="fill: #ff0000; stroke: #ff0000"/>
     <use xlink:href="#m9d2232d3a3" x="149.818836" y="195.80119" style="fill: #ff0000; stroke: #ff0000"/>
     <use xlink:href="#m9d2232d3a3" x="152.006836" y="198.840132" style="fill: #ff0000; stroke: #ff0000"/>
     <use xlink:href="#m9d2232d3a3" x="154.656292" y="201.458463" style="fill: #ff0000; stroke: #ff0000"/>
     <use xlink:href="#m9d2232d3a3" x="157.67219" y="203.591846" style="fill: #ff0000; stroke: #ff0000"/>
     <use xlink:href="#m9d2232d3a3" x="160.85422" y="205.293227" style="fill: #ff0000; stroke: #ff0000"/>
     <use xlink:href="#m9d2232d3a3" x="163.975049" y="206.749658" style="fill: #ff0000; stroke: #ff0000"/>
     <use xlink:href="#m9d2232d3a3" x="166.887925" y="208.218479" style="fill: #ff0000; stroke: #ff0000"/>
     <use xlink:href="#m9d2232d3a3" x="169.595363" y="209.908401" style="fill: #ff0000; stroke: #ff0000"/>
     <use xlink:href="#m9d2232d3a3" x="172.237073" y="211.869874" style="fill: #ff0000; stroke: #ff0000"/>
     <use xlink:href="#m9d2232d3a3" x="175.006835" y="213.957429" style="fill: #ff0000; stroke: #ff0000"/>
     <use xlink:href="#m9d2232d3a3" x="178.049498" y="215.886496" style="fill: #ff0000; stroke: #ff0000"/>
     <use xlink:href="#m9d2232d3a3" x="181.395985" y="217.35517" style="fill: #ff0000; stroke: #ff0000"/>
     <use xlink:href="#m9d2232d3a3" x="184.966555" y="218.167734" style="fill: #ff0000; stroke: #ff0000"/>
     <use xlink:href="#m9d2232d3a3" x="188.630579" y="218.297907" style="fill: #ff0000; stroke: #ff0000"/>
     <use xlink:href="#m9d2232d3a3" x="192.279432" y="217.863583" style="fill: #ff0000; stroke: #ff0000"/>
     <use xlink:href="#m9d2232d3a3" x="195.865422" y="217.033404" style="fill: #ff0000; stroke: #ff0000"/>
     <use xlink:href="#m9d2232d3a3" x="199.385648" y="215.922638" style="fill: #ff0000; stroke: #ff0000"/>
     <use xlink:href="#m9d2232d3a3" x="202.828933" y="214.539012" style="fill: #ff0000; stroke: #ff0000"/>
     <use xlink:href="#m9d2232d3a3" x="206.129937" y="212.80535" style="fill: #ff0000; stroke: #ff0000"/>
     <use xlink:href="#m9d2232d3a3" x="209.168349" y="210.636168" style="fill: #ff0000; stroke: #ff0000"/>
     <use xlink:href="#m9d2232d3a3" x="211.816487" y="208.013161" style="fill: #ff0000; stroke: #ff0000"/>
     <use xlink:href="#m9d2232d3a3" x="214.001889" y="205.011404" style="fill: #ff0000; stroke: #ff0000"/>
     <use xlink:href="#m9d2232d3a3" x="215.741484" y="201.76694" style="fill: #ff0000; stroke: #ff0000"/>
     <use xlink:href="#m9d2232d3a3" x="217.127894" y="198.416141" style="fill: #ff0000; stroke: #ff0000"/>
     <use xlink:href="#m9d2232d3a3" x="218.285041" y="195.048385" style="fill: #ff0000; stroke: #ff0000"/>
     <use xlink:href="#m9d2232d3a3" x="219.32764" y="191.692529" style="fill: #ff0000; stroke: #ff0000"/>
     <use xlink:href="#m9d2232d3a3" x="220.344789" y="188.328222" style="fill: #ff0000; stroke: #ff0000"/>
     <use xlink:href="#m9d2232d3a3" x="221.399367" y="184.901623" style="fill: #ff0000; stroke: #ff0000"/>
    </g>
   </g>
   <g id="matplotlib.axis_1">
    <g id="xtick_1">
     <g id="line2d_1">
      <defs>
       <path id="mef1eeb71e0" d="M 0 0 
L 0 3.5 
" style="stroke: #000000; stroke-width: 0.8"/>
      </defs>
      <g>
       <use xlink:href="#mef1eeb71e0" x="45" y="320.4" style="stroke: #000000; stroke-width: 0.8"/>
      </g>
     </g>
     <g id="text_1">
      <!-- −3 -->
      <g transform="translate(37.628906 334.998438)scale(0.1 -0.1)">
       <defs>
        <path id="DejaVuSans-2212" d="M 678 2272 
L 4684 2272 
L 4684 1741 
L 678 1741 
L 678 2272 
z
" transform="scale(0.015625)"/>
        <path id="DejaVuSans-33" d="M 2597 2516 
Q 3050 2419 3304 2112 
Q 3559 1806 3559 1356 
Q 3559 666 3084 287 
Q 2609 -91 1734 -91 
Q 1441 -91 1130 -33 
Q 819 25 488 141 
L 488 750 
Q 750 597 1062 519 
Q 1375 441 1716 441 
Q 2309 441 2620 675 
Q 2931 909 2931 1356 
Q 2931 1769 2642 2001 
Q 2353 2234 1838 2234 
L 1294 2234 
L 1294 2753 
L 1863 2753 
Q 2328 2753 2575 2939 
Q 2822 3125 2822 3475 
Q 2822 3834 2567 4026 
Q 2313 4219 1838 4219 
Q 1578 4219 1281 4162 
Q 984 4106 628 3988 
L 628 4550 
Q 988 4650 1302 4700 
Q 1616 4750 1894 4750 
Q 2613 4750 3031 4423 
Q 3450 4097 3450 3541 
Q 3450 3153 3228 2886 
Q 3006 2619 2597 2516 
z
" transform="scale(0.015625)"/>
       </defs>
       <use xlink:href="#DejaVuSans-2212"/>
       <use xlink:href="#DejaVuSans-33" x="83.789062"/>
      </g>
     </g>
    </g>
    <g id="xtick_2">
     <g id="line2d_2">
      <g>
       <use xlink:href="#mef1eeb71e0" x="91.655518" y="320.4" style="stroke: #000000; stroke-width: 0.8"/>
      </g>
     </g>
     <g id="text_2">
      <!-- −2 -->
      <g transform="translate(84.284425 334.998438)scale(0.1 -0.1)">
       <defs>
        <path id="DejaVuSans-32" d="M 1228 531 
L 3431 531 
L 3431 0 
L 469 0 
L 469 531 
Q 828 903 1448 1529 
Q 2069 2156 2228 2338 
Q 2531 2678 2651 2914 
Q 2772 3150 2772 3378 
Q 2772 3750 2511 3984 
Q 2250 4219 1831 4219 
Q 1534 4219 1204 4116 
Q 875 4013 500 3803 
L 500 4441 
Q 881 4594 1212 4672 
Q 1544 4750 1819 4750 
Q 2544 4750 2975 4387 
Q 3406 4025 3406 3419 
Q 3406 3131 3298 2873 
Q 3191 2616 2906 2266 
Q 2828 2175 2409 1742 
Q 1991 1309 1228 531 
z
" transform="scale(0.015625)"/>
       </defs>
       <use xlink:href="#DejaVuSans-2212"/>
       <use xlink:href="#DejaVuSans-32" x="83.789062"/>
      </g>
     </g>
    </g>
    <g id="xtick_3">
     <g id="line2d_3">
      <g>
       <use xlink:href="#mef1eeb71e0" x="138.311037" y="320.4" style="stroke: #000000; stroke-width: 0.8"/>
      </g>
     </g>
     <g id="text_3">
      <!-- −1 -->
      <g transform="translate(130.939943 334.998438)scale(0.1 -0.1)">
       <defs>
        <path id="DejaVuSans-31" d="M 794 531 
L 1825 531 
L 1825 4091 
L 703 3866 
L 703 4441 
L 1819 4666 
L 2450 4666 
L 2450 531 
L 3481 531 
L 3481 0 
L 794 0 
L 794 531 
z
" transform="scale(0.015625)"/>
       </defs>
       <use xlink:href="#DejaVuSans-2212"/>
       <use xlink:href="#DejaVuSans-31" x="83.789062"/>
      </g>
     </g>
    </g>
    <g id="xtick_4">
     <g id="line2d_4">
      <g>
       <use xlink:href="#mef1eeb71e0" x="184.966555" y="320.4" style="stroke: #000000; stroke-width: 0.8"/>
      </g>
     </g>
     <g id="text_4">
      <!-- 0 -->
      <g transform="translate(181.785305 334.998438)scale(0.1 -0.1)">
       <defs>
        <path id="DejaVuSans-30" d="M 2034 4250 
Q 1547 4250 1301 3770 
Q 1056 3291 1056 2328 
Q 1056 1369 1301 889 
Q 1547 409 2034 409 
Q 2525 409 2770 889 
Q 3016 1369 3016 2328 
Q 3016 3291 2770 3770 
Q 2525 4250 2034 4250 
z
M 2034 4750 
Q 2819 4750 3233 4129 
Q 3647 3509 3647 2328 
Q 3647 1150 3233 529 
Q 2819 -91 2034 -91 
Q 1250 -91 836 529 
Q 422 1150 422 2328 
Q 422 3509 836 4129 
Q 1250 4750 2034 4750 
z
" transform="scale(0.015625)"/>
       </defs>
       <use xlink:href="#DejaVuSans-30"/>
      </g>
     </g>
    </g>
    <g id="xtick_5">
     <g id="line2d_5">
      <g>
       <use xlink:href="#mef1eeb71e0" x="231.622074" y="320.4" style="stroke: #000000; stroke-width: 0.8"/>
      </g>
     </g>
     <g id="text_5">
      <!-- 1 -->
      <g transform="translate(228.440824 334.998438)scale(0.1 -0.1)">
       <use xlink:href="#DejaVuSans-31"/>
      </g>
     </g>
    </g>
    <g id="xtick_6">
     <g id="line2d_6">
      <g>
       <use xlink:href="#mef1eeb71e0" x="278.277592" y="320.4" style="stroke: #000000; stroke-width: 0.8"/>
      </g>
     </g>
     <g id="text_6">
      <!-- 2 -->
      <g transform="translate(275.096342 334.998438)scale(0.1 -0.1)">
       <use xlink:href="#DejaVuSans-32"/>
      </g>
     </g>
    </g>
   </g>
   <g id="matplotlib.axis_2">
    <g id="ytick_1">
     <g id="line2d_7">
      <defs>
       <path id="m8171a7f4b1" d="M 0 0 
L -3.5 0 
" style="stroke: #000000; stroke-width: 0.8"/>
      </defs>
      <g>
       <use xlink:href="#m8171a7f4b1" x="45" y="320.4" style="stroke: #000000; stroke-width: 0.8"/>
      </g>
     </g>
     <g id="text_7">
      <!-- −3 -->
      <g transform="translate(23.257812 324.199219)scale(0.1 -0.1)">
       <use xlink:href="#DejaVuSans-2212"/>
       <use xlink:href="#DejaVuSans-33" x="83.789062"/>
      </g>
     </g>
    </g>
    <g id="ytick_2">
     <g id="line2d_8">
      <g>
       <use xlink:href="#m8171a7f4b1" x="45" y="274.045485" style="stroke: #000000; stroke-width: 0.8"/>
      </g>
     </g>
     <g id="text_8">
      <!-- −2 -->
      <g transform="translate(23.257812 277.844704)scale(0.1 -0.1)">
       <use xlink:href="#DejaVuSans-2212"/>
       <use xlink:href="#DejaVuSans-32" x="83.789062"/>
      </g>
     </g>
    </g>
    <g id="ytick_3">
     <g id="line2d_9">
      <g>
       <use xlink:href="#m8171a7f4b1" x="45" y="227.69097" style="stroke: #000000; stroke-width: 0.8"/>
      </g>
     </g>
     <g id="text_9">
      <!-- −1 -->
      <g transform="translate(23.257812 231.490189)scale(0.1 -0.1)">
       <use xlink:href="#DejaVuSans-2212"/>
       <use xlink:href="#DejaVuSans-31" x="83.789062"/>
      </g>
     </g>
    </g>
    <g id="ytick_4">
     <g id="line2d_10">
      <g>
       <use xlink:href="#m8171a7f4b1" x="45" y="181.336455" style="stroke: #000000; stroke-width: 0.8"/>
      </g>
     </g>
     <g id="text_10">
      <!-- 0 -->
      <g transform="translate(31.6375 185.135674)scale(0.1 -0.1)">
       <use xlink:href="#DejaVuSans-30"/>
      </g>
     </g>
    </g>
    <g id="ytick_5">
     <g id="line2d_11">
      <g>
       <use xlink:href="#m8171a7f4b1" x="45" y="134.98194" style="stroke: #000000; stroke-width: 0.8"/>
      </g>
     </g>
     <g id="text_11">
      <!-- 1 -->
      <g transform="translate(31.6375 138.781159)scale(0.1 -0.1)">
       <use xlink:href="#DejaVuSans-31"/>
      </g>
     </g>
    </g>
    <g id="ytick_6">
     <g id="line2d_12">
      <g>
       <use xlink:href="#m8171a7f4b1" x="45" y="88.627425" style="stroke: #000000; stroke-width: 0.8"/>
      </g>
     </g>
     <g id="text_12">
      <!-- 2 -->
      <g transform="translate(31.6375 92.426643)scale(0.1 -0.1)">
       <use xlink:href="#DejaVuSans-32"/>
      </g>
     </g>
    </g>
   </g>
   <g id="PathCollection_2">
    <path d="M 189.632107 192.465297 
L 183.100334 191.67953 
L 181.234114 191.070125 
L 180.301003 190.396482 
L 178.434783 188.655297 
L 176.568562 187.515171 
L 174.702341 186.68372 
L 173.747581 185.971906 
L 173.31609 185.044816 
L 173.368772 184.117726 
L 173.769231 183.14888 
L 178.040173 181.336455 
L 179.367893 180.600187 
L 181.234114 179.101733 
L 183.279976 176.701003 
L 184.033445 175.617114 
L 184.826245 173.919732 
L 186.079395 171.138462 
L 187.023957 169.284281 
L 188.399046 167.4301 
L 189.871019 165.57592 
L 191.498328 164.123023 
L 193.364548 162.636898 
L 194.297659 162.138124 
L 196.174667 161.867559 
L 199.896321 162.511348 
L 200.193339 162.794649 
L 200.90822 164.648829 
L 201.184438 165.57592 
L 200.449149 173.919732 
L 200.227234 176.701003 
L 200.093984 177.628094 
L 199.723403 178.555184 
L 199.224432 179.482274 
L 198.681551 181.336455 
L 197.965914 184.117726 
L 197.09699 186.032392 
L 196.16388 187.844067 
L 195.230769 190.059664 
L 194.822596 190.607358 
L 193.745854 191.534448 
L 193.364548 191.809628 
L 192.431438 192.242646 
L 191.498328 192.473253 
L 190.565217 192.575732 
L 189.632107 192.465297 
L 189.632107 192.465297 
" clip-path="url(#p3471086c4d)" style="fill: none; stroke-dasharray: 5.55,2.4; stroke-dashoffset: 0; stroke: #000000; stroke-width: 1.5"/>
   </g>
   <g id="PathCollection_3">
    <path d="M 190.565217 218.437057 
L 190.380769 218.420067 
L 189.632107 218.284748 
L 188.698997 218.16987 
L 187.765886 218.034522 
L 186.832776 217.845663 
L 185.899666 217.630606 
L 185.415841 217.492977 
L 184.966555 217.357898 
L 184.033445 217.159219 
L 183.100334 216.940997 
L 182.167224 216.729957 
L 181.62595 216.565886 
L 181.234114 216.449405 
L 180.301003 216.147704 
L 179.367893 215.739914 
L 179.194896 215.638796 
L 178.434783 215.275878 
L 177.549973 214.711706 
L 177.501672 214.678451 
L 176.568562 214.257543 
L 175.794814 213.784615 
L 175.635452 213.705358 
L 174.702341 213.285278 
L 173.958063 212.857525 
L 173.769231 212.773298 
L 172.83612 212.304867 
L 172.002449 211.930435 
L 171.90301 211.895434 
L 170.9699 211.258137 
L 170.616197 211.003344 
L 170.036789 210.591304 
L 169.317892 210.076254 
L 169.103679 209.924567 
L 168.170569 209.249957 
L 168.034263 209.149164 
L 167.237458 208.551481 
L 166.789665 208.222074 
L 166.304348 207.815867 
L 165.515705 207.294983 
L 165.371237 207.218009 
L 164.438127 206.844195 
L 163.505017 206.483272 
L 163.214346 206.367893 
L 162.571906 206.118154 
L 161.638796 205.733571 
L 161.031751 205.440803 
L 160.705686 205.267979 
L 159.772575 204.591093 
L 159.676458 204.513712 
L 158.839465 203.812133 
L 158.584737 203.586622 
L 157.906355 203.020167 
L 157.375998 202.659532 
L 156.973244 202.473752 
L 156.040134 201.912507 
L 155.773775 201.732441 
L 155.107023 201.128415 
L 154.791716 200.805351 
L 154.173913 200.211859 
L 153.852484 199.878261 
L 153.240803 199.327264 
L 152.876372 198.951171 
L 152.307692 198.444758 
L 151.897967 198.02408 
L 151.374582 197.585897 
L 150.888487 197.09699 
L 150.441472 196.726415 
L 149.876453 196.1699 
L 149.508361 195.641567 
L 149.218763 195.242809 
L 148.759239 194.315719 
L 148.575251 194.073389 
L 148.120323 193.388629 
L 147.664436 192.461538 
L 147.64214 192.431767 
L 147.150146 191.534448 
L 146.70903 190.632299 
L 146.6931 190.607358 
L 146.204482 189.680268 
L 145.77592 188.835079 
L 145.731438 188.753177 
L 145.367427 187.826087 
L 145.112792 186.898997 
L 144.842809 186.102686 
L 144.803128 185.971906 
L 144.842809 185.04912 
L 144.843101 185.044816 
L 145.132536 184.117726 
L 145.344101 183.190635 
L 145.605575 182.263545 
L 145.77592 181.799424 
L 145.94786 181.336455 
L 146.171137 180.409365 
L 146.393946 179.482274 
L 146.589157 178.555184 
L 146.663452 177.628094 
L 146.70903 176.736194 
L 146.712467 176.701003 
L 146.774312 175.773913 
L 146.868468 174.846823 
L 147.059572 173.919732 
L 147.403093 172.992642 
L 147.64214 172.684596 
L 148.236554 172.065552 
L 148.575251 171.716234 
L 149.214287 171.138462 
L 149.508361 170.862771 
L 150.291907 170.211371 
L 150.441472 170.090641 
L 151.374582 169.331164 
L 151.42507 169.284281 
L 152.307692 168.666789 
L 152.714611 168.357191 
L 153.240803 167.96775 
L 154.173913 167.493938 
L 154.234293 167.4301 
L 155.107023 166.828544 
L 155.636239 166.50301 
L 156.040134 166.181753 
L 156.973244 165.767202 
L 157.204949 165.57592 
L 157.906355 165.031421 
L 158.569862 164.648829 
L 158.839465 164.439203 
L 159.772575 163.964554 
L 160.417141 163.721739 
L 160.705686 163.576332 
L 161.638796 163.208638 
L 162.571906 162.996325 
L 163.127965 162.794649 
L 163.505017 162.651714 
L 164.438127 162.319586 
L 165.371237 162.17711 
L 166.058302 161.867559 
L 166.304348 161.697404 
L 167.094065 160.940468 
L 167.237458 160.761655 
L 167.674917 160.013378 
L 168.170569 159.200353 
L 168.250244 159.086288 
L 168.821372 158.159197 
L 169.103679 157.830731 
L 169.571095 157.232107 
L 170.036789 156.628424 
L 170.277867 156.305017 
L 170.9699 155.39168 
L 170.982474 155.377926 
L 171.514622 154.450836 
L 171.90301 153.77646 
L 172.059781 153.523746 
L 172.473165 152.596656 
L 172.83612 151.925248 
L 172.978428 151.669565 
L 173.396535 150.742475 
L 173.769231 150.208462 
L 174.057899 149.815385 
L 174.702341 149.010829 
L 174.805139 148.888294 
L 175.472898 147.961204 
L 175.635452 147.760177 
L 176.132655 147.034114 
L 176.568562 146.403932 
L 176.775848 146.107023 
L 177.459104 145.179933 
L 177.501672 145.132886 
L 178.251348 144.252843 
L 178.434783 144.052414 
L 179.060451 143.325753 
L 179.367893 142.983553 
L 179.874543 142.398662 
L 180.301003 141.905003 
L 180.735103 141.471572 
L 181.234114 140.997402 
L 181.821623 140.544482 
L 182.167224 140.289233 
L 183.100334 139.63655 
L 183.126115 139.617391 
L 184.033445 139.090825 
L 184.841459 138.690301 
L 184.966555 138.626121 
L 185.899666 138.364617 
L 186.832776 138.181521 
L 187.765886 138.006889 
L 188.698997 137.800684 
L 189.1994 137.763211 
L 189.632107 137.739477 
L 190.565217 137.705388 
L 191.498328 137.62486 
L 192.431438 137.572272 
L 193.364548 137.538142 
L 194.297659 137.504678 
L 195.230769 137.471857 
L 196.16388 137.439652 
L 197.09699 137.408064 
L 198.0301 137.375084 
L 198.963211 137.340595 
L 199.896321 137.306103 
L 200.829431 137.350487 
L 201.762542 137.520919 
L 202.695652 137.745726 
L 202.754308 137.763211 
L 203.628763 137.997708 
L 204.561873 138.297039 
L 205.494983 138.652832 
L 205.591625 138.690301 
L 206.428094 138.963058 
L 207.361204 139.239608 
L 208.294314 139.607521 
L 208.316261 139.617391 
L 209.227425 139.977823 
L 210.160535 140.339703 
L 210.659926 140.544482 
L 211.093645 140.73537 
L 212.026756 140.978345 
L 212.959866 141.308262 
L 213.271673 141.471572 
L 213.892977 141.84299 
L 214.660375 142.398662 
L 214.826087 142.534244 
L 215.759197 143.156724 
L 215.956074 143.325753 
L 216.692308 144.17639 
L 216.75373 144.252843 
L 217.459376 145.179933 
L 217.625418 145.377499 
L 218.192792 146.107023 
L 218.558528 146.573243 
L 218.918939 147.034114 
L 219.491639 147.815443 
L 219.602083 147.961204 
L 220.235835 148.888294 
L 220.424749 149.133231 
L 220.906932 149.815385 
L 221.35786 150.453336 
L 221.572125 150.742475 
L 222.199296 151.669565 
L 222.29097 151.773099 
L 222.873661 152.596656 
L 223.22408 153.334686 
L 223.305702 153.523746 
L 223.648109 154.450836 
L 223.888828 155.377926 
L 224.157191 156.026061 
L 224.270723 156.305017 
L 224.576849 157.232107 
L 224.708328 158.159197 
L 224.922879 159.086288 
L 225.090301 159.585488 
L 225.218012 160.013378 
L 225.452278 160.940468 
L 225.687005 161.867559 
L 225.9609 162.794649 
L 226.023411 162.995534 
L 226.198681 163.721739 
L 226.108708 164.648829 
L 226.023411 165.17008 
L 225.93695 165.57592 
L 225.747807 166.50301 
L 225.55568 167.4301 
L 225.410756 168.357191 
L 225.297809 169.284281 
L 225.172287 170.211371 
L 225.090301 170.765878 
L 225.022412 171.138462 
L 224.864706 172.065552 
L 224.659632 172.992642 
L 224.45409 173.919732 
L 224.238087 174.846823 
L 224.157191 175.151744 
L 223.99092 175.773913 
L 223.79666 176.701003 
L 223.582738 177.628094 
L 223.399071 178.555184 
L 223.22408 179.395203 
L 223.199598 179.482274 
L 223.010349 180.409365 
L 222.95877 181.336455 
L 222.927871 182.263545 
L 222.882343 183.190635 
L 222.770596 184.117726 
L 222.427512 185.044816 
L 222.29097 185.370948 
L 222.063027 185.971906 
L 221.7249 186.898997 
L 221.376846 187.826087 
L 221.35786 187.877475 
L 221.095984 188.753177 
L 220.837854 189.680268 
L 220.557839 190.607358 
L 220.424749 190.957661 
L 220.221706 191.534448 
L 219.949475 192.461538 
L 219.642837 193.388629 
L 219.491639 193.722983 
L 219.254826 194.315719 
L 218.758261 195.242809 
L 218.558528 195.544651 
L 218.19997 196.1699 
L 217.677401 197.09699 
L 217.625418 197.166128 
L 217.088383 198.02408 
L 216.692308 198.738346 
L 216.568035 198.951171 
L 216.035226 199.878261 
L 215.759197 200.42292 
L 215.578176 200.805351 
L 215.155091 201.732441 
L 214.842069 202.659532 
L 214.826087 202.694434 
L 214.44669 203.586622 
L 214.026749 204.513712 
L 213.892977 204.754327 
L 213.490745 205.440803 
L 212.959866 206.220298 
L 212.857706 206.367893 
L 212.221339 207.294983 
L 212.026756 207.570177 
L 211.563567 208.222074 
L 211.093645 208.883451 
L 210.90189 209.149164 
L 210.246634 210.076254 
L 210.160535 210.196724 
L 209.566571 211.003344 
L 209.227425 211.476718 
L 208.929006 211.930435 
L 208.294314 212.722772 
L 208.084498 212.857525 
L 207.361204 213.189294 
L 206.428094 213.586806 
L 205.945787 213.784615 
L 205.494983 213.956534 
L 204.561873 214.302002 
L 203.628763 214.639861 
L 203.484387 214.711706 
L 202.695652 215.025399 
L 201.762542 215.3923 
L 201.119271 215.638796 
L 200.829431 215.752198 
L 199.896321 216.112573 
L 198.963211 216.468454 
L 198.661367 216.565886 
L 198.0301 216.741474 
L 197.09699 216.985892 
L 196.16388 217.248657 
L 195.269583 217.492977 
L 195.230769 217.499226 
L 194.297659 217.762153 
L 193.364548 217.999136 
L 192.431438 218.221833 
L 191.655293 218.420067 
L 191.498328 218.44544 
L 190.565217 218.437057 
z
" clip-path="url(#p3471086c4d)" style="fill: none; stroke: #000000; stroke-width: 1.5"/>
   </g>
   <g id="PathCollection_4">
    <path d="M 186.832776 241.682311 
L 186.392999 241.597324 
L 185.899666 241.500579 
L 184.966555 241.297466 
L 184.033445 241.059321 
L 183.100334 240.823183 
L 182.335591 240.670234 
L 182.167224 240.635402 
L 181.234114 240.495936 
L 180.301003 240.358345 
L 179.367893 240.221509 
L 178.434783 240.083353 
L 177.501672 239.945192 
L 176.568562 239.748423 
L 176.550054 239.743144 
L 175.635452 239.485871 
L 174.702341 239.199045 
L 173.929873 238.816054 
L 173.769231 238.732785 
L 172.83612 238.239785 
L 172.183456 237.888963 
L 171.90301 237.738223 
L 170.9699 237.238526 
L 170.447235 236.961873 
L 170.036789 236.7451 
L 169.103679 236.252274 
L 168.668663 236.034783 
L 168.170569 235.793304 
L 167.237458 235.400916 
L 166.540149 235.107692 
L 166.304348 235.008536 
L 165.371237 234.616156 
L 164.438127 234.22376 
L 164.335491 234.180602 
L 163.505017 233.831392 
L 162.571906 233.43899 
L 162.158584 233.253512 
L 161.638796 233.000705 
L 160.705686 232.423577 
L 160.548602 232.326421 
L 159.772575 231.846451 
L 159.118309 231.399331 
L 158.839465 231.204657 
L 157.906355 230.532104 
L 157.825187 230.472241 
L 156.973244 229.844567 
L 156.567417 229.545151 
L 156.040134 229.156527 
L 155.288299 228.61806 
L 155.107023 228.501092 
L 154.173913 228.059378 
L 153.407364 227.69097 
L 153.240803 227.609249 
L 152.307692 227.148559 
L 151.544326 226.76388 
L 151.374582 226.678755 
L 150.441472 226.206298 
L 149.711686 225.836789 
L 149.508361 225.733839 
L 148.575251 225.261384 
L 147.887524 224.909699 
L 147.64214 224.783034 
L 146.70903 224.209567 
L 146.424104 223.982609 
L 145.77592 223.460897 
L 145.272268 223.055518 
L 144.842809 222.709857 
L 144.120418 222.128428 
L 143.909699 221.969019 
L 142.976589 221.317219 
L 142.801137 221.201338 
L 142.043478 220.700109 
L 141.446053 220.274247 
L 141.110368 220.023602 
L 140.208306 219.347157 
L 140.177258 219.323875 
L 139.244147 218.615723 
L 139.000818 218.420067 
L 138.311037 217.785578 
L 137.994923 217.492977 
L 137.377926 216.921862 
L 136.941494 216.565886 
L 136.444816 216.203287 
L 135.825898 215.638796 
L 135.511706 215.294446 
L 134.980004 214.711706 
L 134.578595 214.271779 
L 134.134087 213.784615 
L 133.645485 213.249105 
L 133.288203 212.857525 
L 132.712375 212.226436 
L 132.442696 211.930435 
L 131.779264 211.166441 
L 131.642708 211.003344 
L 130.866329 210.076254 
L 130.846154 210.052499 
L 130.083641 209.149164 
L 129.913043 208.945401 
L 129.332404 208.222074 
L 128.979933 207.771253 
L 128.607149 207.294983 
L 128.131447 206.367893 
L 128.046823 206.112982 
L 127.824207 205.440803 
L 127.551659 204.513712 
L 127.277579 203.586622 
L 127.113712 203.034846 
L 127.000376 202.659532 
L 126.714879 201.732441 
L 126.409907 200.805351 
L 126.180602 200.296743 
L 125.988089 199.878261 
L 125.517331 198.951171 
L 125.247492 198.419748 
L 125.046583 198.02408 
L 124.575832 197.09699 
L 124.314381 196.449214 
L 124.208342 196.1699 
L 123.919272 195.242809 
L 123.655788 194.315719 
L 123.381271 193.416805 
L 123.372489 193.388629 
L 123.080468 192.461538 
L 122.788419 191.534448 
L 122.496383 190.607358 
L 122.448161 190.454269 
L 122.204351 189.680268 
L 121.848285 188.753177 
L 121.51505 187.909039 
L 121.482606 187.826087 
L 121.294085 186.898997 
L 121.117104 185.971906 
L 121.06511 185.044816 
L 121.050907 184.117726 
L 121.055924 183.190635 
L 121.22643 182.263545 
L 121.378917 181.336455 
L 121.51505 180.843204 
L 121.634786 180.409365 
L 121.891535 179.482274 
L 122.1563 178.555184 
L 122.421784 177.628094 
L 122.448161 177.527741 
L 122.662061 176.701003 
L 122.746746 175.773913 
L 122.842818 174.846823 
L 123.045791 173.919732 
L 123.256604 172.992642 
L 123.381271 172.444445 
L 123.467435 172.065552 
L 123.685139 171.138462 
L 123.916026 170.211371 
L 124.156531 169.284281 
L 124.314381 168.828692 
L 124.483648 168.357191 
L 124.836003 167.4301 
L 125.188354 166.50301 
L 125.247492 166.34741 
L 125.540699 165.57592 
L 125.893049 164.648829 
L 126.180602 163.892211 
L 126.245389 163.721739 
L 126.621721 162.794649 
L 127.113712 162.159573 
L 127.368629 161.867559 
L 128.046823 161.108102 
L 128.200665 160.940468 
L 128.979933 160.108157 
L 129.068629 160.013378 
L 129.913043 159.107664 
L 129.932965 159.086288 
L 130.797383 158.159197 
L 130.846154 158.10778 
L 131.684547 157.232107 
L 131.779264 157.133176 
L 132.572133 156.305017 
L 132.712375 156.158536 
L 133.459754 155.377926 
L 133.645485 155.18393 
L 134.339493 154.450836 
L 134.578595 154.191634 
L 135.247602 153.523746 
L 135.511706 153.281826 
L 136.266646 152.596656 
L 136.444816 152.441787 
L 137.343227 151.669565 
L 137.377926 151.640525 
L 138.311037 150.932509 
L 138.568028 150.742475 
L 139.244147 150.242519 
L 139.830193 149.815385 
L 140.177258 149.566909 
L 141.110368 148.924463 
L 141.163189 148.888294 
L 142.043478 148.285544 
L 142.544344 147.961204 
L 142.976589 147.70445 
L 143.909699 147.175516 
L 144.159153 147.034114 
L 144.842809 146.615006 
L 145.498571 146.107023 
L 145.77592 145.859827 
L 146.538762 145.179933 
L 146.70903 145.028175 
L 147.591492 144.252843 
L 147.64214 144.209261 
L 148.575251 143.407403 
L 148.666385 143.325753 
L 149.449761 142.398662 
L 149.508361 142.326299 
L 150.188888 141.471572 
L 150.441472 141.145143 
L 150.799249 140.544482 
L 151.251859 139.617391 
L 151.374582 139.405209 
L 151.796274 138.690301 
L 152.307692 138.062134 
L 152.595045 137.763211 
L 153.240803 137.101672 
L 153.501748 136.83612 
L 154.173913 136.152088 
L 154.412763 135.90903 
L 155.107023 135.20252 
L 155.323769 134.98194 
L 156.040134 134.253836 
L 156.233052 134.054849 
L 156.973244 133.366372 
L 157.246108 133.127759 
L 157.906355 132.545491 
L 158.280627 132.200669 
L 158.839465 131.675346 
L 159.296562 131.273579 
L 159.772575 130.86746 
L 160.383217 130.346488 
L 160.705686 130.071368 
L 161.469844 129.419398 
L 161.638796 129.281967 
L 162.571906 128.550163 
L 162.646111 128.492308 
L 163.505017 127.822657 
L 163.832944 127.565217 
L 164.438127 127.087516 
L 164.998092 126.638127 
L 165.371237 126.33867 
L 166.149309 125.711037 
L 166.304348 125.583759 
L 167.104795 124.783946 
L 167.237458 124.653099 
L 168.134386 123.856856 
L 168.170569 123.824036 
L 169.103679 122.971807 
L 169.145964 122.929766 
L 170.036789 122.044084 
L 170.078439 122.002676 
L 170.9699 121.131673 
L 171.02883 121.075585 
L 171.90301 120.245118 
L 172.023634 120.148495 
L 172.83612 119.575902 
L 173.369257 119.221405 
L 173.769231 118.955011 
L 174.702341 118.325612 
L 174.757401 118.294314 
L 175.635452 117.821371 
L 176.568562 117.507337 
L 177.005438 117.367224 
L 177.501672 117.208072 
L 178.434783 116.908799 
L 179.367893 116.609538 
L 179.896092 116.440134 
L 180.301003 116.31027 
L 181.234114 116.015357 
L 182.167224 115.739814 
L 183.100334 115.564187 
L 183.485475 115.513043 
L 184.033445 115.440277 
L 184.966555 115.293709 
L 185.899666 115.039981 
L 186.832776 114.881244 
L 187.765886 114.800346 
L 188.698997 114.767801 
L 189.632107 114.759554 
L 190.565217 114.700366 
L 191.44345 114.585953 
L 191.498328 114.578804 
L 192.431438 114.457644 
L 193.364548 114.366207 
L 194.297659 114.277322 
L 195.230769 114.190552 
L 196.16388 114.109619 
L 197.09699 114.030492 
L 198.0301 113.951378 
L 198.963211 113.872037 
L 199.896321 113.797877 
L 200.829431 113.761015 
L 201.762542 113.738644 
L 202.695652 113.716278 
L 203.628763 113.6939 
L 204.561873 113.774683 
L 205.494983 113.992535 
L 206.428094 114.287524 
L 207.345465 114.585953 
L 207.361204 114.59106 
L 208.294314 114.904651 
L 209.227425 115.232533 
L 210.10384 115.513043 
L 210.160535 115.531189 
L 211.093645 115.830614 
L 212.026756 116.194228 
L 212.75493 116.440134 
L 212.959866 116.505898 
L 213.892977 116.798408 
L 214.826087 117.122636 
L 215.502766 117.367224 
L 215.759197 117.460553 
L 216.692308 117.976604 
L 217.211703 118.294314 
L 217.625418 118.547394 
L 218.558528 119.118142 
L 218.735656 119.221405 
L 219.491639 119.64108 
L 220.424749 120.105544 
L 220.509749 120.148495 
L 221.35786 120.577203 
L 222.29097 121.050855 
L 222.339692 121.075585 
L 223.22408 121.524498 
L 224.157191 121.999404 
L 224.16276 122.002676 
L 225.090301 122.574222 
L 225.654173 122.929766 
L 226.023411 123.162588 
L 226.956522 123.750971 
L 227.125705 123.856856 
L 227.889632 124.320211 
L 228.675261 124.783946 
L 228.822742 124.867968 
L 229.755853 125.415838 
L 230.252784 125.711037 
L 230.688963 125.961141 
L 231.517361 126.638127 
L 231.622074 126.745271 
L 232.40942 127.565217 
L 232.555184 127.717015 
L 233.299641 128.492308 
L 233.488294 128.688776 
L 234.193346 129.419398 
L 234.421405 129.642261 
L 235.178349 130.346488 
L 235.354515 130.526658 
L 236.021265 131.273579 
L 236.287625 131.598247 
L 236.773805 132.200669 
L 237.220736 132.750152 
L 237.525956 133.127759 
L 238.153846 133.90456 
L 238.275759 134.054849 
L 239.02449 134.98194 
L 239.086957 135.05901 
L 239.77403 135.90903 
L 240.020067 136.21342 
L 240.536029 136.83612 
L 240.953177 137.355399 
L 241.289811 137.763211 
L 241.886288 138.495568 
L 242.020381 138.690301 
L 242.467073 139.617391 
L 242.819398 140.380886 
L 242.896164 140.544482 
L 243.336808 141.471572 
L 243.752508 142.35133 
L 243.774744 142.398662 
L 244.210078 143.325753 
L 244.633505 144.252843 
L 244.685619 144.376886 
L 245.027441 145.179933 
L 245.478587 146.107023 
L 245.618729 146.392675 
L 245.933429 147.034114 
L 246.388269 147.961204 
L 246.551839 148.29462 
L 246.842613 148.888294 
L 247.177293 149.815385 
L 247.465359 150.742475 
L 247.48495 150.807777 
L 247.739934 151.669565 
L 247.99913 152.596656 
L 248.258246 153.523746 
L 248.41806 154.104731 
L 248.512504 154.450836 
L 248.757239 155.377926 
L 248.973966 156.305017 
L 249.092182 157.232107 
L 249.137117 158.159197 
L 249.170375 159.086288 
L 249.188989 160.013378 
L 249.207619 160.940468 
L 249.226237 161.867559 
L 249.201104 162.794649 
L 249.129353 163.721739 
L 249.042031 164.648829 
L 248.947571 165.57592 
L 248.846387 166.50301 
L 248.735388 167.4301 
L 248.631542 168.357191 
L 248.527689 169.284281 
L 248.423866 170.211371 
L 248.41806 170.263201 
L 248.320017 171.138462 
L 248.216177 172.065552 
L 248.112335 172.992642 
L 248.008502 173.919732 
L 247.904654 174.846823 
L 247.800818 175.773913 
L 247.696975 176.701003 
L 247.593142 177.628094 
L 247.48495 178.399269 
L 247.462461 178.555184 
L 247.309738 179.482274 
L 247.138737 180.409365 
L 246.900646 181.336455 
L 246.706906 182.263545 
L 246.588494 183.190635 
L 246.551839 183.529783 
L 246.488268 184.117726 
L 246.377277 185.044816 
L 246.257064 185.971906 
L 246.160529 186.898997 
L 246.088843 187.826087 
L 246.026864 188.753177 
L 245.964889 189.680268 
L 245.618729 190.579935 
L 245.607448 190.607358 
L 245.226064 191.534448 
L 244.816719 192.461538 
L 244.685619 192.787673 
L 244.444017 193.388629 
L 244.071463 194.315719 
L 243.752508 195.109473 
L 243.698929 195.242809 
L 243.331026 196.1699 
L 243.012052 197.09699 
L 242.819398 197.660655 
L 242.692174 198.02408 
L 242.391153 198.951171 
L 242.090141 199.878261 
L 241.886288 200.506056 
L 241.789102 200.805351 
L 241.488082 201.732441 
L 241.186234 202.659532 
L 240.953177 203.326209 
L 240.862659 203.586622 
L 240.509076 204.513712 
L 240.076368 205.440803 
L 240.020067 205.557717 
L 239.635509 206.367893 
L 239.183379 207.294983 
L 239.086957 207.492704 
L 238.731262 208.222074 
L 238.251139 209.149164 
L 238.153846 209.331567 
L 237.748589 210.076254 
L 237.220736 210.977656 
L 237.205155 211.003344 
L 236.648502 211.930435 
L 236.287625 212.5472 
L 236.105174 212.857525 
L 235.504641 213.784615 
L 235.354515 214.007727 
L 234.880834 214.711706 
L 234.421405 215.359531 
L 234.230498 215.638796 
L 233.680515 216.565886 
L 233.488294 216.915271 
L 233.169652 217.492977 
L 232.658503 218.420067 
L 232.555184 218.608943 
L 232.168021 219.347157 
L 231.686094 220.274247 
L 231.622074 220.380341 
L 231.092469 221.201338 
L 230.688963 221.760245 
L 230.399351 222.128428 
L 229.755853 222.873709 
L 229.588355 223.055518 
L 228.822742 223.844138 
L 228.688314 223.982609 
L 227.889632 224.805347 
L 227.788326 224.909699 
L 226.956522 225.766525 
L 226.888311 225.836789 
L 226.023411 226.727695 
L 225.988516 226.76388 
L 225.090301 227.6889 
L 225.088306 227.69097 
L 224.177201 228.61806 
L 224.157191 228.637678 
L 223.22632 229.545151 
L 223.22408 229.547376 
L 222.29097 230.420809 
L 222.224559 230.472241 
L 221.35786 231.099236 
L 220.943042 231.399331 
L 220.424749 231.771649 
L 219.491639 232.176218 
L 219.060349 232.326421 
L 218.558528 232.498835 
L 217.625418 232.816162 
L 216.692308 233.193182 
L 216.555707 233.253512 
L 215.759197 233.600287 
L 214.826087 234.003767 
L 214.461761 234.180602 
L 213.892977 234.467586 
L 212.959866 234.950499 
L 212.654669 235.107692 
L 212.026756 235.427177 
L 211.093645 235.911293 
L 210.853148 236.034783 
L 210.160535 236.387187 
L 209.227425 236.869539 
L 209.047599 236.961873 
L 208.294314 237.347619 
L 207.361204 237.828578 
L 207.244058 237.888963 
L 206.428094 238.311851 
L 205.494983 238.790445 
L 205.444911 238.816054 
L 204.561873 239.256305 
L 203.628763 239.546714 
L 202.967694 239.743144 
L 202.695652 239.82405 
L 201.762542 240.140045 
L 200.829431 240.484635 
L 200.308063 240.670234 
L 199.896321 240.816475 
L 198.963211 241.115226 
L 198.0301 241.391294 
L 197.09699 241.500084 
L 196.16388 241.544971 
L 195.230769 241.57057 
L 194.297659 241.576215 
L 193.364548 241.581858 
L 193.103644 241.597324 
L 192.431438 241.637199 
L 191.498328 241.693325 
L 190.565217 241.749576 
L 189.632107 241.805936 
L 188.698997 241.850804 
L 187.765886 241.840889 
L 186.832776 241.682311 
z
" clip-path="url(#p3471086c4d)" style="fill: none; stroke: #000000; stroke-width: 1.5"/>
   </g>
   <g id="patch_3">
    <path d="M 45 320.4 
L 45 43.2 
" style="fill: none; stroke: #000000; stroke-width: 0.8; stroke-linejoin: miter; stroke-linecap: square"/>
   </g>
   <g id="patch_4">
    <path d="M 324 320.4 
L 324 43.2 
" style="fill: none; stroke: #000000; stroke-width: 0.8; stroke-linejoin: miter; stroke-linecap: square"/>
   </g>
   <g id="patch_5">
    <path d="M 45 320.4 
L 324 320.4 
" style="fill: none; stroke: #000000; stroke-width: 0.8; stroke-linejoin: miter; stroke-linecap: square"/>
   </g>
   <g id="patch_6">
    <path d="M 45 43.2 
L 324 43.2 
" style="fill: none; stroke: #000000; stroke-width: 0.8; stroke-linejoin: miter; stroke-linecap: square"/>
   </g>
  </g>
 </g>
 <defs>
  <clipPath id="p3471086c4d">
   <rect x="45" y="43.2" width="279" height="277.2"/>
  </clipPath>
 </defs>
</svg>
