<?xml version="1.0" encoding="utf-8" standalone="no"?>
<!DOCTYPE svg PUBLIC "-//W3C//DTD SVG 1.1//EN"
  "http://www.w3.org/Graphics/SVG/1.1/DTD/svg11.dtd">
<svg xmlns:xlink="http://www.w3.org/1999/xlink" width="360pt" height="360pt" viewBox="0 0 360 360" xmlns="http://www.w3.org/2000/svg" version="1.1">
 <metadata>
  <rdf:RDF xmlns:dc="http://purl.org/dc/elements/1.1/" xmlns:cc="http://creativecommons.org/ns#" xmlns:rdf="http://www.w3.org/1999/02/22-rdf-syntax-ns#">
   <cc:Work>
    <dc:type rdf:resource="http://purl.org/dc/dcmitype/StillImage"/>
    <dc:date>2022-04-10T19:53:25.372853</dc:date>
    <dc:format>image/svg+xml</dc:format>
    <dc:creator>
     <cc:Agent>
      <dc:title>Matplotlib v3.5.1, https://matplotlib.org/</dc:title>
     </cc:Agent>
    </dc:creator>
   </cc:Work>
  </rdf:RDF>
 </metadata>
 <defs>
  <style type="text/css">*{stroke-linejoin: round; stroke-linecap: butt}</style>
 </defs>
 <g id="figure_1">
  <g id="patch_1">
   <path d="M 0 360 
L 360 360 
L 360 0 
L 0 0 
z
" style="fill: #ffffff"/>
  </g>
  <g id="axes_1">
   <g id="patch_2">
    <path d="M 45 320.4 
L 324 320.4 
L 324 43.2 
L 45 43.2 
z
" style="fill: #ffffff"/>
   </g>
   <g id="PathCollection_1">
    <defs>
     <path id="m3c3a410b03" d="M 0 0.5 
C 0.132602 0.5 0.25979 0.447317 0.353553 0.353553 
C 0.447317 0.25979 0.5 0.132602 0.5 0 
C 0.5 -0.132602 0.447317 -0.25979 0.353553 -0.353553 
C 0.25979 -0.447317 0.132602 -0.5 0 -0.5 
C -0.132602 -0.5 -0.25979 -0.447317 -0.353553 -0.353553 
C -0.447317 -0.25979 -0.5 -0.132602 -0.5 0 
C -0.5 0.132602 -0.447317 0.25979 -0.353553 0.353553 
C -0.25979 0.447317 -0.132602 0.5 0 0.5 
z
" style="stroke: #ff0000"/>
    </defs>
    <g clip-path="url(#p53e82b8c4c)">
     <use xlink:href="#m3c3a410b03" x="225.92322" y="181.336455" style="fill: #ff0000; stroke: #ff0000"/>
     <use xlink:href="#m3c3a410b03" x="225.598214" y="177.360404" style="fill: #ff0000; stroke: #ff0000"/>
     <use xlink:href="#m3c3a410b03" x="224.852084" y="173.453915" style="fill: #ff0000; stroke: #ff0000"/>
     <use xlink:href="#m3c3a410b03" x="223.73203" y="169.652943" style="fill: #ff0000; stroke: #ff0000"/>
     <use xlink:href="#m3c3a410b03" x="222.245235" y="165.994742" style="fill: #ff0000; stroke: #ff0000"/>
     <use xlink:href="#m3c3a410b03" x="220.367837" y="162.536156" style="fill: #ff0000; stroke: #ff0000"/>
     <use xlink:href="#m3c3a410b03" x="218.088056" y="159.348157" style="fill: #ff0000; stroke: #ff0000"/>
     <use xlink:href="#m3c3a410b03" x="215.447063" y="156.483134" style="fill: #ff0000; stroke: #ff0000"/>
     <use xlink:href="#m3c3a410b03" x="212.542419" y="153.9385" style="fill: #ff0000; stroke: #ff0000"/>
     <use xlink:href="#m3c3a410b03" x="209.490334" y="151.646933" style="fill: #ff0000; stroke: #ff0000"/>
     <use xlink:href="#m3c3a410b03" x="206.37508" y="149.503043" style="fill: #ff0000; stroke: #ff0000"/>
     <use xlink:href="#m3c3a410b03" x="203.219591" y="147.407742" style="fill: #ff0000; stroke: #ff0000"/>
     <use xlink:href="#m3c3a410b03" x="199.989977" y="145.300704" style="fill: #ff0000; stroke: #ff0000"/>
     <use xlink:href="#m3c3a410b03" x="196.620626" y="143.165994" style="fill: #ff0000; stroke: #ff0000"/>
     <use xlink:href="#m3c3a410b03" x="193.038" y="141.020353" style="fill: #ff0000; stroke: #ff0000"/>
     <use xlink:href="#m3c3a410b03" x="189.172827" y="138.904993" style="fill: #ff0000; stroke: #ff0000"/>
     <use xlink:href="#m3c3a410b03" x="184.966555" y="136.89246" style="fill: #ff0000; stroke: #ff0000"/>
     <use xlink:href="#m3c3a410b03" x="180.383296" y="135.102064" style="fill: #ff0000; stroke: #ff0000"/>
     <use xlink:href="#m3c3a410b03" x="175.430999" y="133.707257" style="fill: #ff0000; stroke: #ff0000"/>
     <use xlink:href="#m3c3a410b03" x="170.184803" y="132.921929" style="fill: #ff0000; stroke: #ff0000"/>
     <use xlink:href="#m3c3a410b03" x="164.800114" y="132.964464" style="fill: #ff0000; stroke: #ff0000"/>
     <use xlink:href="#m3c3a410b03" x="159.50546" y="134.009414" style="fill: #ff0000; stroke: #ff0000"/>
     <use xlink:href="#m3c3a410b03" x="154.572241" y="136.141621" style="fill: #ff0000; stroke: #ff0000"/>
     <use xlink:href="#m3c3a410b03" x="150.26615" y="139.326679" style="fill: #ff0000; stroke: #ff0000"/>
     <use xlink:href="#m3c3a410b03" x="146.791343" y="143.407534" style="fill: #ff0000; stroke: #ff0000"/>
     <use xlink:href="#m3c3a410b03" x="144.242593" y="148.130784" style="fill: #ff0000; stroke: #ff0000"/>
     <use xlink:href="#m3c3a410b03" x="142.58081" y="153.197923" style="fill: #ff0000; stroke: #ff0000"/>
     <use xlink:href="#m3c3a410b03" x="141.641722" y="158.328253" style="fill: #ff0000; stroke: #ff0000"/>
     <use xlink:href="#m3c3a410b03" x="141.177362" y="163.315397" style="fill: #ff0000; stroke: #ff0000"/>
     <use xlink:href="#m3c3a410b03" x="140.918241" y="168.060751" style="fill: #ff0000; stroke: #ff0000"/>
     <use xlink:href="#m3c3a410b03" x="140.635206" y="172.575292" style="fill: #ff0000; stroke: #ff0000"/>
     <use xlink:href="#m3c3a410b03" x="140.180332" y="176.953855" style="fill: #ff0000; stroke: #ff0000"/>
     <use xlink:href="#m3c3a410b03" x="139.499812" y="181.336455" style="fill: #ff0000; stroke: #ff0000"/>
     <use xlink:href="#m3c3a410b03" x="138.630206" y="185.870743" style="fill: #ff0000; stroke: #ff0000"/>
     <use xlink:href="#m3c3a410b03" x="137.694536" y="190.67878" style="fill: #ff0000; stroke: #ff0000"/>
     <use xlink:href="#m3c3a410b03" x="136.899972" y="195.823224" style="fill: #ff0000; stroke: #ff0000"/>
     <use xlink:href="#m3c3a410b03" x="136.521344" y="201.273656" style="fill: #ff0000; stroke: #ff0000"/>
     <use xlink:href="#m3c3a410b03" x="136.856281" y="206.886026" style="fill: #ff0000; stroke: #ff0000"/>
     <use xlink:href="#m3c3a410b03" x="138.157645" y="212.411383" style="fill: #ff0000; stroke: #ff0000"/>
     <use xlink:href="#m3c3a410b03" x="140.567269" y="217.538926" style="fill: #ff0000; stroke: #ff0000"/>
     <use xlink:href="#m3c3a410b03" x="144.076751" y="221.962453" style="fill: #ff0000; stroke: #ff0000"/>
     <use xlink:href="#m3c3a410b03" x="148.529117" y="225.449156" style="fill: #ff0000; stroke: #ff0000"/>
     <use xlink:href="#m3c3a410b03" x="153.659564" y="227.888393" style="fill: #ff0000; stroke: #ff0000"/>
     <use xlink:href="#m3c3a410b03" x="159.160812" y="229.304127" style="fill: #ff0000; stroke: #ff0000"/>
     <use xlink:href="#m3c3a410b03" x="164.750816" y="229.826694" style="fill: #ff0000; stroke: #ff0000"/>
     <use xlink:href="#m3c3a410b03" x="170.220072" y="229.635466" style="fill: #ff0000; stroke: #ff0000"/>
     <use xlink:href="#m3c3a410b03" x="175.444602" y="228.897706" style="fill: #ff0000; stroke: #ff0000"/>
     <use xlink:href="#m3c3a410b03" x="180.367346" y="227.731744" style="fill: #ff0000; stroke: #ff0000"/>
     <use xlink:href="#m3c3a410b03" x="184.966555" y="226.208984" style="fill: #ff0000; stroke: #ff0000"/>
     <use xlink:href="#m3c3a410b03" x="189.234015" y="224.385167" style="fill: #ff0000; stroke: #ff0000"/>
     <use xlink:href="#m3c3a410b03" x="193.174209" y="222.332909" style="fill: #ff0000; stroke: #ff0000"/>
     <use xlink:href="#m3c3a410b03" x="196.816624" y="220.148867" style="fill: #ff0000; stroke: #ff0000"/>
     <use xlink:href="#m3c3a410b03" x="200.222232" y="217.929301" style="fill: #ff0000; stroke: #ff0000"/>
     <use xlink:href="#m3c3a410b03" x="203.470328" y="215.731237" style="fill: #ff0000; stroke: #ff0000"/>
     <use xlink:href="#m3c3a410b03" x="206.628221" y="213.546274" style="fill: #ff0000; stroke: #ff0000"/>
     <use xlink:href="#m3c3a410b03" x="209.72072" y="211.304891" style="fill: #ff0000; stroke: #ff0000"/>
     <use xlink:href="#m3c3a410b03" x="212.718575" y="208.90943" style="fill: #ff0000; stroke: #ff0000"/>
     <use xlink:href="#m3c3a410b03" x="215.553451" y="206.276523" style="fill: #ff0000; stroke: #ff0000"/>
     <use xlink:href="#m3c3a410b03" x="218.148909" y="203.365151" style="fill: #ff0000; stroke: #ff0000"/>
     <use xlink:href="#m3c3a410b03" x="220.445013" y="200.17774" style="fill: #ff0000; stroke: #ff0000"/>
     <use xlink:href="#m3c3a410b03" x="222.399901" y="196.741819" style="fill: #ff0000; stroke: #ff0000"/>
     <use xlink:href="#m3c3a410b03" x="223.973038" y="193.092603" style="fill: #ff0000; stroke: #ff0000"/>
     <use xlink:href="#m3c3a410b03" x="225.113235" y="189.270605" style="fill: #ff0000; stroke: #ff0000"/>
     <use xlink:href="#m3c3a410b03" x="225.770228" y="185.329338" style="fill: #ff0000; stroke: #ff0000"/>
    </g>
   </g>
   <g id="matplotlib.axis_1">
    <g id="xtick_1">
     <g id="line2d_1">
      <defs>
       <path id="m99975c8a22" d="M 0 0 
L 0 3.5 
" style="stroke: #000000; stroke-width: 0.8"/>
      </defs>
      <g>
       <use xlink:href="#m99975c8a22" x="45" y="320.4" style="stroke: #000000; stroke-width: 0.8"/>
      </g>
     </g>
     <g id="text_1">
      <!-- −3 -->
      <g transform="translate(37.628906 334.998438)scale(0.1 -0.1)">
       <defs>
        <path id="DejaVuSans-2212" d="M 678 2272 
L 4684 2272 
L 4684 1741 
L 678 1741 
L 678 2272 
z
" transform="scale(0.015625)"/>
        <path id="DejaVuSans-33" d="M 2597 2516 
Q 3050 2419 3304 2112 
Q 3559 1806 3559 1356 
Q 3559 666 3084 287 
Q 2609 -91 1734 -91 
Q 1441 -91 1130 -33 
Q 819 25 488 141 
L 488 750 
Q 750 597 1062 519 
Q 1375 441 1716 441 
Q 2309 441 2620 675 
Q 2931 909 2931 1356 
Q 2931 1769 2642 2001 
Q 2353 2234 1838 2234 
L 1294 2234 
L 1294 2753 
L 1863 2753 
Q 2328 2753 2575 2939 
Q 2822 3125 2822 3475 
Q 2822 3834 2567 4026 
Q 2313 4219 1838 4219 
Q 1578 4219 1281 4162 
Q 984 4106 628 3988 
L 628 4550 
Q 988 4650 1302 4700 
Q 1616 4750 1894 4750 
Q 2613 4750 3031 4423 
Q 3450 4097 3450 3541 
Q 3450 3153 3228 2886 
Q 3006 2619 2597 2516 
z
" transform="scale(0.015625)"/>
       </defs>
       <use xlink:href="#DejaVuSans-2212"/>
       <use xlink:href="#DejaVuSans-33" x="83.789062"/>
      </g>
     </g>
    </g>
    <g id="xtick_2">
     <g id="line2d_2">
      <g>
       <use xlink:href="#m99975c8a22" x="91.655518" y="320.4" style="stroke: #000000; stroke-width: 0.8"/>
      </g>
     </g>
     <g id="text_2">
      <!-- −2 -->
      <g transform="translate(84.284425 334.998438)scale(0.1 -0.1)">
       <defs>
        <path id="DejaVuSans-32" d="M 1228 531 
L 3431 531 
L 3431 0 
L 469 0 
L 469 531 
Q 828 903 1448 1529 
Q 2069 2156 2228 2338 
Q 2531 2678 2651 2914 
Q 2772 3150 2772 3378 
Q 2772 3750 2511 3984 
Q 2250 4219 1831 4219 
Q 1534 4219 1204 4116 
Q 875 4013 500 3803 
L 500 4441 
Q 881 4594 1212 4672 
Q 1544 4750 1819 4750 
Q 2544 4750 2975 4387 
Q 3406 4025 3406 3419 
Q 3406 3131 3298 2873 
Q 3191 2616 2906 2266 
Q 2828 2175 2409 1742 
Q 1991 1309 1228 531 
z
" transform="scale(0.015625)"/>
       </defs>
       <use xlink:href="#DejaVuSans-2212"/>
       <use xlink:href="#DejaVuSans-32" x="83.789062"/>
      </g>
     </g>
    </g>
    <g id="xtick_3">
     <g id="line2d_3">
      <g>
       <use xlink:href="#m99975c8a22" x="138.311037" y="320.4" style="stroke: #000000; stroke-width: 0.8"/>
      </g>
     </g>
     <g id="text_3">
      <!-- −1 -->
      <g transform="translate(130.939943 334.998438)scale(0.1 -0.1)">
       <defs>
        <path id="DejaVuSans-31" d="M 794 531 
L 1825 531 
L 1825 4091 
L 703 3866 
L 703 4441 
L 1819 4666 
L 2450 4666 
L 2450 531 
L 3481 531 
L 3481 0 
L 794 0 
L 794 531 
z
" transform="scale(0.015625)"/>
       </defs>
       <use xlink:href="#DejaVuSans-2212"/>
       <use xlink:href="#DejaVuSans-31" x="83.789062"/>
      </g>
     </g>
    </g>
    <g id="xtick_4">
     <g id="line2d_4">
      <g>
       <use xlink:href="#m99975c8a22" x="184.966555" y="320.4" style="stroke: #000000; stroke-width: 0.8"/>
      </g>
     </g>
     <g id="text_4">
      <!-- 0 -->
      <g transform="translate(181.785305 334.998438)scale(0.1 -0.1)">
       <defs>
        <path id="DejaVuSans-30" d="M 2034 4250 
Q 1547 4250 1301 3770 
Q 1056 3291 1056 2328 
Q 1056 1369 1301 889 
Q 1547 409 2034 409 
Q 2525 409 2770 889 
Q 3016 1369 3016 2328 
Q 3016 3291 2770 3770 
Q 2525 4250 2034 4250 
z
M 2034 4750 
Q 2819 4750 3233 4129 
Q 3647 3509 3647 2328 
Q 3647 1150 3233 529 
Q 2819 -91 2034 -91 
Q 1250 -91 836 529 
Q 422 1150 422 2328 
Q 422 3509 836 4129 
Q 1250 4750 2034 4750 
z
" transform="scale(0.015625)"/>
       </defs>
       <use xlink:href="#DejaVuSans-30"/>
      </g>
     </g>
    </g>
    <g id="xtick_5">
     <g id="line2d_5">
      <g>
       <use xlink:href="#m99975c8a22" x="231.622074" y="320.4" style="stroke: #000000; stroke-width: 0.8"/>
      </g>
     </g>
     <g id="text_5">
      <!-- 1 -->
      <g transform="translate(228.440824 334.998438)scale(0.1 -0.1)">
       <use xlink:href="#DejaVuSans-31"/>
      </g>
     </g>
    </g>
    <g id="xtick_6">
     <g id="line2d_6">
      <g>
       <use xlink:href="#m99975c8a22" x="278.277592" y="320.4" style="stroke: #000000; stroke-width: 0.8"/>
      </g>
     </g>
     <g id="text_6">
      <!-- 2 -->
      <g transform="translate(275.096342 334.998438)scale(0.1 -0.1)">
       <use xlink:href="#DejaVuSans-32"/>
      </g>
     </g>
    </g>
   </g>
   <g id="matplotlib.axis_2">
    <g id="ytick_1">
     <g id="line2d_7">
      <defs>
       <path id="m007147ac5e" d="M 0 0 
L -3.5 0 
" style="stroke: #000000; stroke-width: 0.8"/>
      </defs>
      <g>
       <use xlink:href="#m007147ac5e" x="45" y="320.4" style="stroke: #000000; stroke-width: 0.8"/>
      </g>
     </g>
     <g id="text_7">
      <!-- −3 -->
      <g transform="translate(23.257812 324.199219)scale(0.1 -0.1)">
       <use xlink:href="#DejaVuSans-2212"/>
       <use xlink:href="#DejaVuSans-33" x="83.789062"/>
      </g>
     </g>
    </g>
    <g id="ytick_2">
     <g id="line2d_8">
      <g>
       <use xlink:href="#m007147ac5e" x="45" y="274.045485" style="stroke: #000000; stroke-width: 0.8"/>
      </g>
     </g>
     <g id="text_8">
      <!-- −2 -->
      <g transform="translate(23.257812 277.844704)scale(0.1 -0.1)">
       <use xlink:href="#DejaVuSans-2212"/>
       <use xlink:href="#DejaVuSans-32" x="83.789062"/>
      </g>
     </g>
    </g>
    <g id="ytick_3">
     <g id="line2d_9">
      <g>
       <use xlink:href="#m007147ac5e" x="45" y="227.69097" style="stroke: #000000; stroke-width: 0.8"/>
      </g>
     </g>
     <g id="text_9">
      <!-- −1 -->
      <g transform="translate(23.257812 231.490189)scale(0.1 -0.1)">
       <use xlink:href="#DejaVuSans-2212"/>
       <use xlink:href="#DejaVuSans-31" x="83.789062"/>
      </g>
     </g>
    </g>
    <g id="ytick_4">
     <g id="line2d_10">
      <g>
       <use xlink:href="#m007147ac5e" x="45" y="181.336455" style="stroke: #000000; stroke-width: 0.8"/>
      </g>
     </g>
     <g id="text_10">
      <!-- 0 -->
      <g transform="translate(31.6375 185.135674)scale(0.1 -0.1)">
       <use xlink:href="#DejaVuSans-30"/>
      </g>
     </g>
    </g>
    <g id="ytick_5">
     <g id="line2d_11">
      <g>
       <use xlink:href="#m007147ac5e" x="45" y="134.98194" style="stroke: #000000; stroke-width: 0.8"/>
      </g>
     </g>
     <g id="text_11">
      <!-- 1 -->
      <g transform="translate(31.6375 138.781159)scale(0.1 -0.1)">
       <use xlink:href="#DejaVuSans-31"/>
      </g>
     </g>
    </g>
    <g id="ytick_6">
     <g id="line2d_12">
      <g>
       <use xlink:href="#m007147ac5e" x="45" y="88.627425" style="stroke: #000000; stroke-width: 0.8"/>
      </g>
     </g>
     <g id="text_12">
      <!-- 2 -->
      <g transform="translate(31.6375 92.426643)scale(0.1 -0.1)">
       <use xlink:href="#DejaVuSans-32"/>
      </g>
     </g>
    </g>
   </g>
   <g id="PathCollection_2">
    <path d="M 168.170569 206.405507 
L 167.779055 206.367893 
L 167.237458 206.314287 
L 166.304348 206.213194 
L 165.371237 205.989288 
L 164.438127 205.66601 
L 163.875775 205.440803 
L 163.505017 205.250748 
L 162.60545 204.513712 
L 162.571906 204.483582 
L 161.638796 203.645431 
L 161.573053 203.586622 
L 160.705686 202.778061 
L 160.586387 202.659532 
L 159.772575 201.746907 
L 159.763577 201.732441 
L 159.616719 200.805351 
L 159.530875 199.878261 
L 159.535879 198.951171 
L 159.648931 198.02408 
L 159.772575 197.133729 
L 159.777583 197.09699 
L 159.910575 196.1699 
L 160.131314 195.242809 
L 160.450084 194.315719 
L 160.705686 193.746297 
L 160.863078 193.388629 
L 161.329456 192.461538 
L 161.638796 191.735741 
L 161.727521 191.534448 
L 162.120543 190.607358 
L 162.513202 189.680268 
L 162.571906 189.543935 
L 162.907353 188.753177 
L 163.208472 187.826087 
L 163.299733 186.898997 
L 163.263292 185.971906 
L 163.215411 185.044816 
L 163.170098 184.117726 
L 163.244357 183.190635 
L 163.332569 182.263545 
L 163.422541 181.336455 
L 163.505017 180.732133 
L 163.555872 180.409365 
L 163.706674 179.482274 
L 163.848871 178.555184 
L 163.772458 177.628094 
L 163.745704 176.701003 
L 163.930384 175.773913 
L 164.101877 174.846823 
L 164.250016 173.919732 
L 164.405559 172.992642 
L 164.438127 172.807926 
L 164.572982 172.065552 
L 164.787238 171.138462 
L 164.924883 170.211371 
L 165.096408 169.284281 
L 165.141606 168.357191 
L 165.088246 167.4301 
L 165.01119 166.50301 
L 164.881422 165.57592 
L 164.710424 164.648829 
L 164.438127 163.933342 
L 164.364356 163.721739 
L 164.112233 162.794649 
L 164.159499 161.867559 
L 164.232063 160.940468 
L 164.22045 160.013378 
L 164.438127 159.346842 
L 164.580973 159.086288 
L 165.314117 158.159197 
L 165.371237 158.119176 
L 166.304348 157.572988 
L 167.1905 157.232107 
L 167.237458 157.216911 
L 168.170569 156.832882 
L 169.103679 156.642774 
L 170.036789 156.623422 
L 170.9699 156.545748 
L 171.90301 156.737236 
L 172.83612 156.994869 
L 173.618109 157.232107 
L 173.769231 157.274541 
L 174.702341 157.538512 
L 175.635452 157.964231 
L 175.82372 158.159197 
L 176.568562 158.9239 
L 176.722977 159.086288 
L 177.501672 159.900708 
L 177.682216 160.013378 
L 178.434783 160.497255 
L 179.247447 160.940468 
L 179.367893 161.010132 
L 180.301003 161.488937 
L 180.995768 161.867559 
L 181.234114 161.997448 
L 182.167224 162.457493 
L 182.606201 162.794649 
L 183.100334 163.23446 
L 183.570027 163.721739 
L 184.033445 164.127764 
L 184.687465 164.648829 
L 184.966555 164.869744 
L 185.852039 165.57592 
L 185.899666 165.614821 
L 186.832776 166.334501 
L 187.03873 166.50301 
L 187.765886 167.121509 
L 188.128599 167.4301 
L 188.698997 167.915286 
L 189.218514 168.357191 
L 189.632107 168.706882 
L 190.324883 169.284281 
L 190.565217 169.482248 
L 191.450388 170.211371 
L 191.498328 170.250015 
L 192.431438 171.004071 
L 192.599304 171.138462 
L 193.364548 171.679717 
L 194.297659 171.985467 
L 194.564755 172.065552 
L 195.230769 172.265247 
L 196.16388 172.605227 
L 197.09699 172.92647 
L 197.289201 172.992642 
L 198.0301 173.280911 
L 198.747465 173.919732 
L 198.963211 174.149074 
L 199.619602 174.846823 
L 199.896321 175.141676 
L 200.486198 175.773913 
L 200.829431 176.146704 
L 201.379935 176.701003 
L 201.672876 177.628094 
L 201.762542 178.3902 
L 201.78349 178.555184 
L 201.762542 178.650853 
L 201.59764 179.482274 
L 201.438784 180.409365 
L 201.329601 181.336455 
L 201.236976 182.263545 
L 201.111283 183.190635 
L 200.952782 184.117726 
L 200.829431 184.521892 
L 200.656706 185.044816 
L 200.124823 185.971906 
L 199.896321 186.29547 
L 199.457902 186.898997 
L 198.963211 187.55001 
L 198.773424 187.826087 
L 198.112311 188.753177 
L 198.0301 188.862464 
L 197.458635 189.680268 
L 197.09699 190.094177 
L 196.494345 190.607358 
L 196.16388 190.888645 
L 195.302227 191.534448 
L 195.230769 191.576799 
L 194.297659 192.12217 
L 193.813583 192.461538 
L 193.364548 192.837244 
L 192.703174 193.388629 
L 192.431438 193.635392 
L 191.69214 194.315719 
L 191.498328 194.498022 
L 190.736497 195.242809 
L 190.565217 195.410458 
L 189.788489 196.1699 
L 189.632107 196.322894 
L 188.840964 197.09699 
L 188.698997 197.235869 
L 187.889954 198.02408 
L 187.765886 198.136752 
L 186.852782 198.951171 
L 186.832776 198.970565 
L 185.899666 199.745291 
L 185.688172 199.878261 
L 184.966555 200.311924 
L 184.131672 200.805351 
L 184.033445 200.86323 
L 183.100334 201.406442 
L 182.541395 201.732441 
L 182.167224 201.959147 
L 181.234114 202.537908 
L 181.001211 202.659532 
L 180.301003 202.995195 
L 179.367893 203.36898 
L 178.605727 203.586622 
L 178.434783 203.63366 
L 177.501672 203.897979 
L 176.568562 204.237801 
L 175.973156 204.513712 
L 175.635452 204.650162 
L 174.702341 205.146481 
L 174.177739 205.440803 
L 173.769231 205.659207 
L 172.83612 206.152388 
L 171.90301 206.362488 
L 171.863201 206.367893 
L 170.9699 206.483186 
L 170.036789 206.477153 
L 169.103679 206.437866 
L 168.170569 206.405507 
z
" clip-path="url(#p53e82b8c4c)" style="fill: none; stroke-dasharray: 5.55,2.4; stroke-dashoffset: 0; stroke: #000000; stroke-width: 1.5"/>
   </g>
   <g id="PathCollection_3">
    <path d="M 167.237458 230.489684 
L 166.45447 230.472241 
L 166.304348 230.465102 
L 165.371237 230.385479 
L 164.438127 230.294716 
L 163.505017 230.203982 
L 162.571906 230.139996 
L 161.638796 230.108268 
L 160.705686 230.071761 
L 159.772575 229.984962 
L 158.839465 229.805849 
L 157.942789 229.545151 
L 157.906355 229.530646 
L 156.973244 229.267573 
L 156.040134 228.997606 
L 155.107023 228.680662 
L 154.841762 228.61806 
L 154.173913 228.381414 
L 153.240803 228.094998 
L 152.325768 227.69097 
L 152.307692 227.679416 
L 151.374582 227.271156 
L 150.441472 226.811472 
L 150.266701 226.76388 
L 149.508361 226.43701 
L 148.575251 225.989792 
L 148.158307 225.836789 
L 147.64214 225.594855 
L 146.70903 224.961539 
L 146.630048 224.909699 
L 145.77592 224.201173 
L 145.511945 223.982609 
L 144.842809 223.400454 
L 144.464283 223.055518 
L 143.909699 222.567964 
L 143.533432 222.128428 
L 142.976589 221.303117 
L 142.921023 221.201338 
L 142.323626 220.274247 
L 142.043478 219.842364 
L 141.733922 219.347157 
L 141.24381 218.420067 
L 141.110368 218.239012 
L 140.694505 217.492977 
L 140.250629 216.565886 
L 140.177258 216.466678 
L 139.754758 215.638796 
L 139.339237 214.711706 
L 139.244147 214.583037 
L 138.827641 213.784615 
L 138.409089 212.857525 
L 138.311037 212.725994 
L 137.932568 211.930435 
L 137.780413 211.003344 
L 137.678663 210.076254 
L 137.59421 209.149164 
L 137.399508 208.222074 
L 137.377926 208.16173 
L 137.213572 207.294983 
L 136.946094 206.367893 
L 136.749329 205.440803 
L 136.62385 204.513712 
L 136.450207 203.586622 
L 136.444816 203.563379 
L 136.379796 202.659532 
L 136.207275 201.732441 
L 136.029911 200.805351 
L 136.006935 199.878261 
L 135.99612 198.951171 
L 135.998351 198.02408 
L 136.010515 197.09699 
L 136.028029 196.1699 
L 136.049241 195.242809 
L 136.110811 194.315719 
L 136.411145 193.388629 
L 136.444816 192.979103 
L 136.623189 192.461538 
L 136.832568 191.534448 
L 137.131563 190.607358 
L 137.298072 189.680268 
L 137.375994 188.753177 
L 137.377926 188.693153 
L 137.637383 187.826087 
L 137.932991 186.898997 
L 138.271815 185.971906 
L 138.311037 185.293535 
L 138.395842 185.044816 
L 138.639917 184.117726 
L 138.91014 183.190635 
L 139.237222 182.263545 
L 139.244147 182.215824 
L 139.547332 181.336455 
L 139.865931 180.409365 
L 140.177258 179.535214 
L 140.203178 179.482274 
L 140.512592 178.555184 
L 140.817081 177.628094 
L 141.110368 176.85086 
L 141.180793 176.701003 
L 141.292798 175.773913 
L 141.134348 174.846823 
L 141.110368 174.73876 
L 141.004233 173.919732 
L 140.805363 172.992642 
L 140.796775 172.065552 
L 140.860206 171.138462 
L 140.904405 170.211371 
L 140.943489 169.284281 
L 141.019737 168.357191 
L 141.102999 167.4301 
L 141.103908 166.50301 
L 141.110368 165.644387 
L 141.111996 165.57592 
L 141.173098 164.648829 
L 141.22661 163.721739 
L 141.273316 162.794649 
L 141.311963 161.867559 
L 141.346878 160.940468 
L 141.378581 160.013378 
L 141.406593 159.086288 
L 141.435646 158.159197 
L 141.464386 157.232107 
L 141.482149 156.305017 
L 141.495698 155.377926 
L 141.547712 154.450836 
L 141.927843 153.523746 
L 142.043478 153.116071 
L 142.266164 152.596656 
L 142.558683 151.669565 
L 142.911802 150.742475 
L 142.976589 150.506015 
L 143.250861 149.815385 
L 143.531445 148.888294 
L 143.909699 148.115065 
L 144.016293 147.961204 
L 144.553011 147.034114 
L 144.842809 146.558876 
L 145.115909 146.107023 
L 145.692544 145.179933 
L 145.77592 145.067735 
L 146.327353 144.252843 
L 146.70903 143.695247 
L 146.984589 143.325753 
L 147.64214 142.468574 
L 147.703278 142.398662 
L 148.398553 141.471572 
L 148.575251 141.239353 
L 149.081731 140.544482 
L 149.508361 140.003385 
L 149.829025 139.617391 
L 150.441472 138.92421 
L 150.650091 138.690301 
L 151.374582 137.974883 
L 151.634264 137.763211 
L 152.307692 137.297979 
L 153.240803 136.845309 
L 153.256 136.83612 
L 154.173913 136.468263 
L 155.107023 136.036296 
L 155.326541 135.90903 
L 156.040134 135.557757 
L 156.973244 135.116134 
L 157.221076 134.98194 
L 157.906355 134.677773 
L 158.839465 134.275029 
L 159.309874 134.054849 
L 159.772575 133.84329 
L 160.705686 133.54207 
L 161.638796 133.272443 
L 162.072548 133.127759 
L 162.571906 132.980373 
L 163.505017 132.974583 
L 164.438127 132.9932 
L 165.371237 133.012168 
L 166.304348 133.031509 
L 167.237458 133.051232 
L 168.170569 133.071338 
L 169.103679 133.091873 
L 170.036789 133.112812 
L 170.691516 133.127759 
L 170.9699 133.136529 
L 171.90301 133.164336 
L 172.83612 133.31322 
L 173.769231 133.422632 
L 174.702341 133.484156 
L 175.635452 133.467908 
L 176.568562 133.472998 
L 177.501672 133.799127 
L 178.183065 134.054849 
L 178.434783 134.168498 
L 179.367893 134.527089 
L 180.301003 134.940962 
L 180.388774 134.98194 
L 181.234114 135.348015 
L 182.167224 135.824853 
L 182.297571 135.90903 
L 183.100334 136.406802 
L 183.792704 136.83612 
L 184.033445 137.002119 
L 184.966555 137.58307 
L 185.238282 137.763211 
L 185.899666 138.201786 
L 186.637443 138.690301 
L 186.832776 138.837234 
L 187.765886 139.332754 
L 188.282242 139.617391 
L 188.698997 139.8531 
L 189.632107 140.402469 
L 189.853781 140.544482 
L 190.565217 140.96921 
L 191.406699 141.471572 
L 191.498328 141.538761 
L 192.431438 141.974188 
L 193.360848 142.398662 
L 193.364548 142.401025 
L 194.297659 143.001127 
L 194.778541 143.325753 
L 195.230769 143.628628 
L 195.997906 144.252843 
L 196.16388 144.443788 
L 196.810269 145.179933 
L 197.09699 145.472321 
L 197.772194 146.107023 
L 198.0301 146.301208 
L 198.963211 146.730333 
L 199.609878 147.034114 
L 199.896321 147.178031 
L 200.829431 147.600542 
L 201.605959 147.961204 
L 201.762542 148.046451 
L 202.695652 148.466382 
L 203.408915 148.888294 
L 203.628763 149.035589 
L 204.561873 149.63622 
L 204.859694 149.815385 
L 205.494983 150.14197 
L 206.428094 150.60532 
L 206.661572 150.742475 
L 207.361204 151.105642 
L 208.294314 151.614992 
L 208.374774 151.669565 
L 209.227425 152.163022 
L 209.967846 152.596656 
L 210.160535 152.751473 
L 211.093645 153.247588 
L 211.537019 153.523746 
L 212.026756 153.826553 
L 212.898866 154.450836 
L 212.959866 154.511856 
L 213.83007 155.377926 
L 213.892977 155.440353 
L 214.711313 156.305017 
L 214.826087 156.418648 
L 215.621345 157.232107 
L 215.759197 157.368767 
L 216.532461 158.159197 
L 216.692308 158.317672 
L 217.444865 159.086288 
L 217.625418 159.265302 
L 218.35844 160.013378 
L 218.558528 160.249668 
L 219.039243 160.940468 
L 219.491639 161.676168 
L 219.630768 161.867559 
L 220.149155 162.794649 
L 220.424749 163.226534 
L 220.741141 163.721739 
L 221.139956 164.648829 
L 221.35786 165.005266 
L 221.665306 165.57592 
L 222.063704 166.50301 
L 222.29097 166.934448 
L 222.538389 167.4301 
L 222.962749 168.357191 
L 223.22408 168.938323 
L 223.389233 169.284281 
L 223.794121 170.211371 
L 224.157191 171.081879 
L 224.182987 171.138462 
L 224.363145 172.065552 
L 224.595107 172.992642 
L 224.871203 173.919732 
L 225.090301 174.635461 
L 225.156229 174.846823 
L 225.402796 175.773913 
L 225.623616 176.701003 
L 225.559269 177.628094 
L 225.47303 178.555184 
L 225.394473 179.482274 
L 225.323518 180.409365 
L 225.249767 181.336455 
L 225.189303 182.263545 
L 225.116219 183.190635 
L 225.090301 183.499909 
L 225.03111 184.117726 
L 224.952246 185.044816 
L 224.885692 185.971906 
L 224.8298 186.898997 
L 224.715953 187.826087 
L 224.578596 188.753177 
L 224.476059 189.680268 
L 224.352601 190.607358 
L 224.157191 190.936883 
L 223.836967 191.534448 
L 223.344857 192.461538 
L 223.22408 192.665155 
L 222.888346 193.388629 
L 222.577753 194.315719 
L 222.29097 195.016959 
L 222.191785 195.242809 
L 221.904455 196.1699 
L 221.536983 197.09699 
L 221.35786 197.430717 
L 221.10013 198.02408 
L 220.694934 198.951171 
L 220.424749 199.464897 
L 220.247725 199.878261 
L 219.857018 200.805351 
L 219.491639 201.48649 
L 219.372994 201.732441 
L 218.783749 202.659532 
L 218.558528 202.917908 
L 218.028791 203.586622 
L 217.625418 204.059343 
L 217.193231 204.513712 
L 216.692308 205.023008 
L 216.279958 205.440803 
L 215.759197 205.960996 
L 215.358235 206.367893 
L 214.826087 206.872262 
L 214.406086 207.294983 
L 213.892977 207.89367 
L 213.62664 208.222074 
L 212.959866 209.04548 
L 212.860893 209.149164 
L 212.026756 209.892589 
L 211.810409 210.076254 
L 211.093645 210.690915 
L 210.72623 211.003344 
L 210.160535 211.4879 
L 209.641588 211.930435 
L 209.227425 212.279194 
L 208.530858 212.857525 
L 208.294314 213.042312 
L 207.361204 213.767284 
L 207.339196 213.784615 
L 206.428094 214.501935 
L 206.158496 214.711706 
L 205.494983 215.231424 
L 204.968443 215.638796 
L 204.561873 215.951301 
L 203.75971 216.565886 
L 203.628763 216.665186 
L 202.695652 217.398842 
L 202.585423 217.492977 
L 201.762542 218.227858 
L 201.542965 218.420067 
L 200.829431 218.998759 
L 200.363782 219.347157 
L 199.896321 219.694308 
L 198.995858 220.274247 
L 198.963211 220.287179 
L 198.0301 220.577356 
L 197.09699 220.853134 
L 196.16388 221.088643 
L 195.842445 221.201338 
L 195.230769 221.389822 
L 194.297659 221.681739 
L 193.364548 222.038354 
L 193.195928 222.128428 
L 192.431438 222.480571 
L 191.498328 222.882973 
L 191.234626 223.055518 
L 190.565217 223.516655 
L 189.841829 223.982609 
L 189.632107 224.11752 
L 188.698997 224.633791 
L 188.149096 224.909699 
L 187.765886 225.114863 
L 186.832776 225.591215 
L 186.366197 225.836789 
L 185.899666 226.083475 
L 184.966555 226.537627 
L 184.496758 226.76388 
L 184.033445 226.984858 
L 183.100334 227.425856 
L 182.543725 227.69097 
L 182.167224 227.866615 
L 181.234114 228.327296 
L 180.613794 228.61806 
L 180.301003 228.729704 
L 179.367893 229.205104 
L 178.434783 229.318113 
L 177.501672 229.466051 
L 177.120517 229.545151 
L 176.568562 229.56479 
L 175.635452 229.690335 
L 174.702341 229.904445 
L 173.769231 230.031131 
L 172.83612 230.144627 
L 171.90301 230.22174 
L 170.9699 230.311313 
L 170.036789 230.428432 
L 169.748647 230.472241 
L 169.103679 230.517655 
L 168.170569 230.511082 
L 167.237458 230.489684 
z
" clip-path="url(#p53e82b8c4c)" style="fill: none; stroke: #000000; stroke-width: 1.5"/>
   </g>
   <g id="PathCollection_4">
    <path d="M 158.839465 252.768091 
L 158.331179 252.722408 
L 157.906355 252.683159 
L 156.973244 252.498125 
L 156.040134 252.313102 
L 155.107023 252.128072 
L 154.173913 251.943041 
L 153.428909 251.795318 
L 153.240803 251.758018 
L 152.307692 251.579289 
L 151.374582 251.522753 
L 150.441472 251.396117 
L 149.508361 251.098941 
L 148.957829 250.868227 
L 148.575251 250.701099 
L 147.64214 250.293463 
L 146.835612 249.941137 
L 146.70903 249.885841 
L 145.77592 249.478212 
L 144.842809 249.072181 
L 144.70311 249.014047 
L 143.909699 248.693061 
L 142.976589 248.315567 
L 142.411531 248.086957 
L 142.043478 247.938051 
L 141.110368 247.560549 
L 140.177258 247.183064 
L 140.121669 247.159866 
L 139.244147 246.792215 
L 138.311037 246.359864 
L 138.087581 246.232776 
L 137.377926 245.797867 
L 136.597738 245.305686 
L 136.444816 245.209215 
L 135.511706 244.620569 
L 135.128151 244.378595 
L 134.578595 244.03189 
L 133.658574 243.451505 
L 133.645485 243.443248 
L 132.712375 242.762061 
L 132.451343 242.524415 
L 131.779264 241.910341 
L 131.436728 241.597324 
L 130.846154 241.057634 
L 130.423479 240.670234 
L 129.913043 240.201018 
L 129.417274 239.743144 
L 128.979933 239.337782 
L 128.416198 238.816054 
L 128.046823 238.469494 
L 127.433145 237.888963 
L 127.113712 237.582373 
L 126.467211 236.961873 
L 126.180602 236.686793 
L 125.530592 236.034783 
L 125.247492 235.621314 
L 124.950679 235.107692 
L 124.414913 234.180602 
L 124.314381 234.006636 
L 123.879176 233.253512 
L 123.381271 232.391889 
L 123.343424 232.326421 
L 122.760484 231.399331 
L 122.448161 230.915582 
L 122.160197 230.472241 
L 121.556235 229.545151 
L 121.51505 229.481931 
L 120.952268 228.61806 
L 120.58194 228.049609 
L 120.352186 227.69097 
L 119.832295 226.76388 
L 119.648829 226.430795 
L 119.321643 225.836789 
L 118.814017 224.909699 
L 118.715719 224.71414 
L 118.352637 223.982609 
L 117.892499 223.055518 
L 117.782609 222.823108 
L 117.441896 222.128428 
L 117.029218 221.201338 
L 116.849498 220.580474 
L 116.765098 220.274247 
L 116.511663 219.347157 
L 116.282449 218.420067 
L 116.041088 217.492977 
L 115.916388 217.014152 
L 115.799765 216.565886 
L 115.558574 215.638796 
L 115.317373 214.711706 
L 115.076171 213.784615 
L 114.983278 213.427555 
L 114.83477 212.857525 
L 114.587785 211.930435 
L 114.390534 211.003344 
L 114.308525 210.076254 
L 114.21067 209.149164 
L 114.108088 208.222074 
L 114.050167 207.705463 
L 114.003925 207.294983 
L 113.900437 206.367893 
L 113.800845 205.440803 
L 113.686937 204.513712 
L 113.56813 203.586622 
L 113.403909 202.659532 
L 113.189447 201.732441 
L 113.117057 200.846675 
L 113.113764 200.805351 
L 113.077148 199.878261 
L 113.040551 198.951171 
L 113.003962 198.02408 
L 112.971326 197.09699 
L 112.948934 196.1699 
L 112.970059 195.242809 
L 113.08176 194.315719 
L 113.117057 194.211059 
L 113.393276 193.388629 
L 113.577645 192.461538 
L 113.722449 191.534448 
L 113.867266 190.607358 
L 114.012069 189.680268 
L 114.050167 189.436368 
L 114.159057 188.753177 
L 114.306739 187.826087 
L 114.454346 186.898997 
L 114.601872 185.971906 
L 114.749331 185.044816 
L 114.88892 184.117726 
L 114.983278 183.464514 
L 115.023843 183.190635 
L 115.142107 182.263545 
L 115.259508 181.336455 
L 115.336134 180.409365 
L 115.485906 179.482274 
L 115.698642 178.555184 
L 115.913076 177.628094 
L 115.916388 177.61558 
L 116.156462 176.701003 
L 116.40746 175.773913 
L 116.658453 174.846823 
L 116.790336 173.919732 
L 116.849498 173.215421 
L 116.868288 172.992642 
L 116.941334 172.065552 
L 116.978779 171.138462 
L 116.952341 170.211371 
L 116.946804 169.284281 
L 116.907451 168.357191 
L 117.009925 167.4301 
L 117.163284 166.50301 
L 117.316963 165.57592 
L 117.471551 164.648829 
L 117.626883 163.721739 
L 117.772182 162.794649 
L 117.782609 162.727696 
L 117.917405 161.867559 
L 118.061736 160.940468 
L 118.205325 160.013378 
L 118.348467 159.086288 
L 118.481871 158.159197 
L 118.611137 157.232107 
L 118.715719 156.463925 
L 118.737519 156.305017 
L 118.868544 155.377926 
L 119.020379 154.450836 
L 119.17265 153.523746 
L 119.305558 152.596656 
L 119.421997 151.669565 
L 119.537779 150.742475 
L 119.631924 149.815385 
L 119.648829 149.504424 
L 119.682921 148.888294 
L 119.741457 147.961204 
L 119.911396 147.034114 
L 120.234233 146.107023 
L 120.557061 145.179933 
L 120.58194 145.108486 
L 120.879885 144.252843 
L 121.202723 143.325753 
L 121.51505 142.428814 
L 121.525683 142.398662 
L 121.856913 141.471572 
L 122.190279 140.544482 
L 122.448161 139.827293 
L 122.523443 139.617391 
L 122.849346 138.690301 
L 123.171196 137.763211 
L 123.381271 137.28172 
L 123.599624 136.83612 
L 124.166733 135.90903 
L 124.314381 135.667653 
L 124.733832 134.98194 
L 125.247492 134.142256 
L 125.30096 134.054849 
L 125.86806 133.127759 
L 126.180602 132.635884 
L 126.466295 132.200669 
L 127.098677 131.273579 
L 127.113712 131.250894 
L 127.697628 130.346488 
L 128.046823 129.801637 
L 128.291075 129.419398 
L 128.9072 128.492308 
L 128.979933 128.393151 
L 129.60558 127.565217 
L 129.913043 127.15834 
L 130.314731 126.638127 
L 130.846154 126.020953 
L 131.114452 125.711037 
L 131.779264 124.909724 
L 131.883605 124.783946 
L 132.65011 123.856856 
L 132.712375 123.781547 
L 133.416605 122.929766 
L 133.645485 122.653341 
L 134.192817 122.002676 
L 134.578595 121.571902 
L 135.027294 121.075585 
L 135.511706 120.540125 
L 135.865363 120.148495 
L 136.444816 119.613453 
L 136.97127 119.221405 
L 137.377926 118.933597 
L 138.311037 118.417529 
L 138.636741 118.294314 
L 139.244147 118.077228 
L 140.177258 117.693838 
L 140.93714 117.367224 
L 141.110368 117.292767 
L 142.043478 116.891684 
L 142.976589 116.490597 
L 143.091312 116.440134 
L 143.909699 116.072658 
L 144.842809 115.640416 
L 145.11553 115.513043 
L 145.77592 115.195386 
L 146.70903 114.71129 
L 146.950344 114.585953 
L 147.64214 114.226633 
L 148.575251 113.741966 
L 148.745047 113.658863 
L 149.508361 113.283924 
L 150.441472 112.845083 
L 150.682401 112.731773 
L 151.374582 112.404598 
L 152.307692 111.956778 
L 152.620914 111.804682 
L 153.240803 111.502935 
L 154.173913 111.047491 
L 154.615572 110.877592 
L 155.107023 110.700012 
L 156.040134 110.466854 
L 156.973244 110.2462 
L 157.906355 110.17859 
L 158.839465 110.150158 
L 159.772575 110.126549 
L 160.705686 110.099937 
L 161.638796 110.068964 
L 162.571906 110.03726 
L 163.505017 110.028088 
L 164.438127 110.02782 
L 165.371237 110.027547 
L 166.304348 110.037274 
L 167.237458 110.082281 
L 168.170569 110.12742 
L 169.103679 110.172638 
L 170.036789 110.218409 
L 170.9699 110.230974 
L 171.90301 110.210896 
L 172.83612 110.190825 
L 173.769231 110.170744 
L 174.702341 110.161138 
L 175.635452 110.201259 
L 176.568562 110.241394 
L 177.501672 110.256264 
L 178.434783 110.369329 
L 179.367893 110.670906 
L 179.949988 110.877592 
L 180.301003 111.004865 
L 181.234114 111.308082 
L 182.167224 111.611319 
L 182.762275 111.804682 
L 183.100334 111.914536 
L 184.033445 112.217764 
L 184.966555 112.521704 
L 185.602426 112.731773 
L 185.899666 112.831369 
L 186.832776 113.164584 
L 187.765886 113.504961 
L 188.187789 113.658863 
L 188.698997 113.845341 
L 189.632107 114.185728 
L 190.565217 114.529626 
L 190.714135 114.585953 
L 191.498328 114.88826 
L 192.431438 115.245621 
L 193.152192 115.513043 
L 193.364548 115.58851 
L 194.297659 115.916858 
L 195.230769 116.245217 
L 195.784651 116.440134 
L 196.16388 116.572371 
L 197.09699 116.892362 
L 197.938449 117.367224 
L 198.0301 117.423973 
L 198.963211 118.117267 
L 199.189356 118.294314 
L 199.896321 118.847787 
L 200.360197 119.221405 
L 200.829431 119.595356 
L 201.513397 120.148495 
L 201.762542 120.35255 
L 202.695652 121.031209 
L 202.759514 121.075585 
L 203.628763 121.678705 
L 204.112674 122.002676 
L 204.561873 122.28826 
L 205.494983 122.779567 
L 205.793658 122.929766 
L 206.428094 123.245908 
L 207.361204 123.650907 
L 207.782105 123.856856 
L 208.294314 124.105968 
L 209.227425 124.565407 
L 209.671289 124.783946 
L 210.160535 125.024835 
L 211.093645 125.485586 
L 211.450655 125.711037 
L 212.026756 126.124926 
L 212.57966 126.638127 
L 212.959866 126.974486 
L 213.770949 127.565217 
L 213.892977 127.649542 
L 214.826087 128.282957 
L 215.172818 128.492308 
L 215.759197 128.838308 
L 216.692308 129.388894 
L 216.744003 129.419398 
L 217.625418 129.939497 
L 218.299895 130.346488 
L 218.558528 130.503413 
L 219.491639 131.072581 
L 219.824371 131.273579 
L 220.424749 131.629558 
L 221.35786 132.150991 
L 221.437927 132.200669 
L 222.29097 132.816502 
L 222.722113 133.127759 
L 223.22408 133.494195 
L 223.984616 134.054849 
L 224.157191 134.182611 
L 225.090301 134.874956 
L 225.231243 134.98194 
L 226.023411 135.537936 
L 226.733356 135.90903 
L 226.956522 136.013634 
L 227.889632 136.566922 
L 228.178967 136.83612 
L 228.822742 137.47199 
L 229.117595 137.763211 
L 229.755853 138.393618 
L 230.056221 138.690301 
L 230.688963 139.315271 
L 230.989315 139.617391 
L 231.622074 140.297666 
L 231.84892 140.544482 
L 232.555184 141.271294 
L 232.750948 141.471572 
L 233.488294 142.225899 
L 233.657168 142.398662 
L 234.421405 143.183629 
L 234.559057 143.325753 
L 235.354515 144.15028 
L 235.453462 144.252843 
L 236.287625 145.117463 
L 236.347895 145.179933 
L 237.19399 146.107023 
L 237.220736 146.147059 
L 237.737311 147.034114 
L 238.153846 147.74935 
L 238.277222 147.961204 
L 238.815893 148.888294 
L 239.086957 149.370326 
L 239.334609 149.815385 
L 239.881073 150.742475 
L 240.020067 150.952271 
L 240.495289 151.669565 
L 240.953177 152.36067 
L 241.108145 152.596656 
L 241.675692 153.523746 
L 241.886288 153.881471 
L 242.214244 154.450836 
L 242.733992 155.377926 
L 242.819398 155.53431 
L 243.220219 156.305017 
L 243.62897 157.232107 
L 243.752508 157.512325 
L 244.037695 158.159197 
L 244.445392 159.086288 
L 244.685619 159.636223 
L 244.850412 160.013378 
L 245.25298 160.940468 
L 245.618729 161.798936 
L 245.647843 161.867559 
L 246.015742 162.794649 
L 246.353028 163.721739 
L 246.551839 164.271772 
L 246.68813 164.648829 
L 247.023216 165.57592 
L 247.266241 166.50301 
L 247.40991 167.4301 
L 247.48495 167.96248 
L 247.540587 168.357191 
L 247.674657 169.284281 
L 247.851301 170.211371 
L 248.009575 171.138462 
L 248.167847 172.065552 
L 248.320653 172.992642 
L 248.41806 173.610629 
L 248.466663 173.919732 
L 248.732351 174.846823 
L 248.840647 175.773913 
L 248.85855 176.701003 
L 248.869697 177.628094 
L 248.876256 178.555184 
L 248.854637 179.482274 
L 248.813288 180.409365 
L 248.772013 181.336455 
L 248.730961 182.263545 
L 248.689912 183.190635 
L 248.659543 184.117726 
L 248.655364 185.044816 
L 248.645982 185.971906 
L 248.646243 186.898997 
L 248.608557 187.826087 
L 248.556504 188.753177 
L 248.488095 189.680268 
L 248.41806 190.58637 
L 248.416438 190.607358 
L 248.344792 191.534448 
L 248.279756 192.461538 
L 248.2789 193.388629 
L 248.286169 194.315719 
L 248.29434 195.242809 
L 248.225051 196.1699 
L 247.967788 197.09699 
L 247.487072 198.02408 
L 247.48495 198.028173 
L 247.006372 198.951171 
L 246.551839 199.827766 
L 246.525658 199.878261 
L 246.044962 200.805351 
L 245.632954 201.732441 
L 245.618729 201.765124 
L 245.233112 202.659532 
L 244.90197 203.586622 
L 244.685619 204.216699 
L 244.58537 204.513712 
L 244.281896 205.440803 
L 243.975544 206.367893 
L 243.752508 206.964151 
L 243.620561 207.294983 
L 243.250789 208.222074 
L 242.881023 209.149164 
L 242.819398 209.296585 
L 242.485209 210.076254 
L 242.070344 211.003344 
L 241.886288 211.414657 
L 241.655485 211.930435 
L 241.170218 212.857525 
L 240.953177 213.17158 
L 240.522283 213.784615 
L 240.020067 214.499106 
L 239.870629 214.711706 
L 239.165077 215.638796 
L 239.086957 215.739632 
L 238.446841 216.565886 
L 238.153846 216.944093 
L 237.702072 217.492977 
L 237.220736 217.984514 
L 236.750493 218.420067 
L 236.287625 218.848778 
L 235.749042 219.347157 
L 235.354515 219.716965 
L 234.788789 220.274247 
L 234.421405 220.644173 
L 233.867916 221.201338 
L 233.488294 221.625327 
L 233.030438 222.128428 
L 232.555184 222.619317 
L 232.132873 223.055518 
L 231.622074 223.583132 
L 231.235324 223.982609 
L 230.688963 224.546943 
L 230.349133 224.909699 
L 229.755853 225.551679 
L 229.494685 225.836789 
L 228.822742 226.576 
L 228.650506 226.76388 
L 227.889632 227.601663 
L 227.794866 227.69097 
L 226.956522 228.380156 
L 226.65759 228.61806 
L 226.023411 229.076496 
L 225.345067 229.545151 
L 225.090301 229.719211 
L 224.157191 230.360247 
L 223.992913 230.472241 
L 223.22408 230.995593 
L 222.633657 231.399331 
L 222.29097 231.632219 
L 221.35786 232.271082 
L 221.273747 232.326421 
L 220.424749 232.886467 
L 219.866076 233.253512 
L 219.491639 233.501244 
L 218.558528 234.136726 
L 218.496227 234.180602 
L 217.625418 234.830386 
L 217.279199 235.107692 
L 216.692308 235.56615 
L 216.090903 236.034783 
L 215.759197 236.312982 
L 214.991958 236.961873 
L 214.826087 237.102161 
L 213.895798 237.888963 
L 213.892977 237.891384 
L 212.959866 238.708102 
L 212.838181 238.816054 
L 212.026756 239.535856 
L 211.79307 239.743144 
L 211.093645 240.253993 
L 210.160535 240.629911 
L 210.048431 240.670234 
L 209.227425 240.966959 
L 208.294314 241.299768 
L 207.460059 241.597324 
L 207.361204 241.632583 
L 206.428094 241.945877 
L 205.494983 242.255425 
L 204.664558 242.524415 
L 204.561873 242.557236 
L 203.628763 242.832958 
L 202.695652 243.109322 
L 201.762542 243.402274 
L 201.621236 243.451505 
L 200.829431 243.726691 
L 199.896321 244.050883 
L 199.282792 244.378595 
L 198.963211 244.559645 
L 198.0301 245.092918 
L 197.657794 245.305686 
L 197.09699 245.626184 
L 196.16388 246.149448 
L 196.01226 246.232776 
L 195.230769 246.66517 
L 194.33478 247.159866 
L 194.297659 247.180599 
L 193.364548 247.675975 
L 192.5446 248.086957 
L 192.431438 248.143677 
L 191.498328 248.611379 
L 190.594577 249.014047 
L 190.565217 249.026672 
L 189.632107 249.340788 
L 188.698997 249.654598 
L 187.846963 249.941137 
L 187.765886 249.968403 
L 186.832776 250.28649 
L 185.899666 250.659906 
L 184.966555 250.814731 
L 184.540401 250.868227 
L 184.033445 250.931867 
L 183.100334 251.048997 
L 182.167224 251.167309 
L 181.234114 251.291236 
L 180.301003 251.41517 
L 179.367893 251.532187 
L 178.434783 251.640417 
L 177.501672 251.73477 
L 177.084228 251.795318 
L 176.568562 251.869759 
L 175.635452 252.004467 
L 174.702341 252.139173 
L 173.769231 252.273875 
L 172.83612 252.408577 
L 171.90301 252.543287 
L 170.9699 252.679684 
L 170.678647 252.722408 
L 170.036789 252.816561 
L 169.103679 252.953438 
L 168.170569 253.090329 
L 167.237458 253.226722 
L 166.304348 253.230289 
L 165.371237 253.193493 
L 164.438127 253.146795 
L 163.505017 253.098919 
L 162.571906 253.051038 
L 161.638796 252.993452 
L 160.705686 252.916524 
L 159.772575 252.837857 
L 158.839465 252.768091 
z
" clip-path="url(#p53e82b8c4c)" style="fill: none; stroke: #000000; stroke-width: 1.5"/>
   </g>
   <g id="patch_3">
    <path d="M 45 320.4 
L 45 43.2 
" style="fill: none; stroke: #000000; stroke-width: 0.8; stroke-linejoin: miter; stroke-linecap: square"/>
   </g>
   <g id="patch_4">
    <path d="M 324 320.4 
L 324 43.2 
" style="fill: none; stroke: #000000; stroke-width: 0.8; stroke-linejoin: miter; stroke-linecap: square"/>
   </g>
   <g id="patch_5">
    <path d="M 45 320.4 
L 324 320.4 
" style="fill: none; stroke: #000000; stroke-width: 0.8; stroke-linejoin: miter; stroke-linecap: square"/>
   </g>
   <g id="patch_6">
    <path d="M 45 43.2 
L 324 43.2 
" style="fill: none; stroke: #000000; stroke-width: 0.8; stroke-linejoin: miter; stroke-linecap: square"/>
   </g>
  </g>
 </g>
 <defs>
  <clipPath id="p53e82b8c4c">
   <rect x="45" y="43.2" width="279" height="277.2"/>
  </clipPath>
 </defs>
</svg>
