<?xml version="1.0" encoding="utf-8" standalone="no"?>
<!DOCTYPE svg PUBLIC "-//W3C//DTD SVG 1.1//EN"
  "http://www.w3.org/Graphics/SVG/1.1/DTD/svg11.dtd">
<svg xmlns:xlink="http://www.w3.org/1999/xlink" width="360pt" height="360pt" viewBox="0 0 360 360" xmlns="http://www.w3.org/2000/svg" version="1.1">
 <metadata>
  <rdf:RDF xmlns:dc="http://purl.org/dc/elements/1.1/" xmlns:cc="http://creativecommons.org/ns#" xmlns:rdf="http://www.w3.org/1999/02/22-rdf-syntax-ns#">
   <cc:Work>
    <dc:type rdf:resource="http://purl.org/dc/dcmitype/StillImage"/>
    <dc:date>2022-04-03T22:41:43.118229</dc:date>
    <dc:format>image/svg+xml</dc:format>
    <dc:creator>
     <cc:Agent>
      <dc:title>Matplotlib v3.5.1, https://matplotlib.org/</dc:title>
     </cc:Agent>
    </dc:creator>
   </cc:Work>
  </rdf:RDF>
 </metadata>
 <defs>
  <style type="text/css">*{stroke-linejoin: round; stroke-linecap: butt}</style>
 </defs>
 <g id="figure_1">
  <g id="patch_1">
   <path d="M 0 360 
L 360 360 
L 360 0 
L 0 0 
z
" style="fill: #ffffff"/>
  </g>
  <g id="axes_1">
   <g id="patch_2">
    <path d="M 45 320.4 
L 324 320.4 
L 324 43.2 
L 45 43.2 
z
" style="fill: #ffffff"/>
   </g>
   <g id="PathCollection_1">
    <defs>
     <path id="m6ec406472d" d="M 0 0.5 
C 0.132602 0.5 0.25979 0.447317 0.353553 0.353553 
C 0.447317 0.25979 0.5 0.132602 0.5 0 
C 0.5 -0.132602 0.447317 -0.25979 0.353553 -0.353553 
C 0.25979 -0.447317 0.132602 -0.5 0 -0.5 
C -0.132602 -0.5 -0.25979 -0.447317 -0.353553 -0.353553 
C -0.447317 -0.25979 -0.5 -0.132602 -0.5 0 
C -0.5 0.132602 -0.447317 0.25979 -0.353553 0.353553 
C -0.25979 0.447317 -0.132602 0.5 0 0.5 
z
" style="stroke: #ff0000"/>
    </defs>
    <g clip-path="url(#p3805e9db45)">
     <use xlink:href="#m6ec406472d" x="233.272445" y="181.568614" style="fill: #ff0000; stroke: #ff0000"/>
     <use xlink:href="#m6ec406472d" x="231.848021" y="176.958117" style="fill: #ff0000; stroke: #ff0000"/>
     <use xlink:href="#m6ec406472d" x="229.717814" y="172.678286" style="fill: #ff0000; stroke: #ff0000"/>
     <use xlink:href="#m6ec406472d" x="227.158529" y="168.781967" style="fill: #ff0000; stroke: #ff0000"/>
     <use xlink:href="#m6ec406472d" x="224.436616" y="165.228894" style="fill: #ff0000; stroke: #ff0000"/>
     <use xlink:href="#m6ec406472d" x="221.745151" y="161.912783" style="fill: #ff0000; stroke: #ff0000"/>
     <use xlink:href="#m6ec406472d" x="219.164222" y="158.71076" style="fill: #ff0000; stroke: #ff0000"/>
     <use xlink:href="#m6ec406472d" x="216.660388" y="155.535439" style="fill: #ff0000; stroke: #ff0000"/>
     <use xlink:href="#m6ec406472d" x="214.12109" y="152.370014" style="fill: #ff0000; stroke: #ff0000"/>
     <use xlink:href="#m6ec406472d" x="211.405884" y="149.27716" style="fill: #ff0000; stroke: #ff0000"/>
     <use xlink:href="#m6ec406472d" x="208.395814" y="146.383021" style="fill: #ff0000; stroke: #ff0000"/>
     <use xlink:href="#m6ec406472d" x="205.028849" y="143.842517" style="fill: #ff0000; stroke: #ff0000"/>
     <use xlink:href="#m6ec406472d" x="201.314278" y="141.795862" style="fill: #ff0000; stroke: #ff0000"/>
     <use xlink:href="#m6ec406472d" x="197.323176" y="140.331768" style="fill: #ff0000; stroke: #ff0000"/>
     <use xlink:href="#m6ec406472d" x="193.160427" y="139.473859" style="fill: #ff0000; stroke: #ff0000"/>
     <use xlink:href="#m6ec406472d" x="188.933385" y="139.195407" style="fill: #ff0000; stroke: #ff0000"/>
     <use xlink:href="#m6ec406472d" x="184.732888" y="139.449111" style="fill: #ff0000; stroke: #ff0000"/>
     <use xlink:href="#m6ec406472d" x="180.631002" y="140.190156" style="fill: #ff0000; stroke: #ff0000"/>
     <use xlink:href="#m6ec406472d" x="176.686993" y="141.380134" style="fill: #ff0000; stroke: #ff0000"/>
     <use xlink:href="#m6ec406472d" x="172.94991" y="142.975942" style="fill: #ff0000; stroke: #ff0000"/>
     <use xlink:href="#m6ec406472d" x="169.452399" y="144.916252" style="fill: #ff0000; stroke: #ff0000"/>
     <use xlink:href="#m6ec406472d" x="166.198065" y="147.116116" style="fill: #ff0000; stroke: #ff0000"/>
     <use xlink:href="#m6ec406472d" x="163.149363" y="149.474987" style="fill: #ff0000; stroke: #ff0000"/>
     <use xlink:href="#m6ec406472d" x="160.225071" y="151.898416" style="fill: #ff0000; stroke: #ff0000"/>
     <use xlink:href="#m6ec406472d" x="157.314578" y="154.327197" style="fill: #ff0000; stroke: #ff0000"/>
     <use xlink:href="#m6ec406472d" x="154.30886" y="156.761346" style="fill: #ff0000; stroke: #ff0000"/>
     <use xlink:href="#m6ec406472d" x="151.138271" y="159.266229" style="fill: #ff0000; stroke: #ff0000"/>
     <use xlink:href="#m6ec406472d" x="147.802966" y="161.956511" style="fill: #ff0000; stroke: #ff0000"/>
     <use xlink:href="#m6ec406472d" x="144.386663" y="164.96448" style="fill: #ff0000; stroke: #ff0000"/>
     <use xlink:href="#m6ec406472d" x="141.054132" y="168.404291" style="fill: #ff0000; stroke: #ff0000"/>
     <use xlink:href="#m6ec406472d" x="138.038689" y="172.340484" style="fill: #ff0000; stroke: #ff0000"/>
     <use xlink:href="#m6ec406472d" x="135.622752" y="176.762894" style="fill: #ff0000; stroke: #ff0000"/>
     <use xlink:href="#m6ec406472d" x="134.105773" y="181.568614" style="fill: #ff0000; stroke: #ff0000"/>
     <use xlink:href="#m6ec406472d" x="133.751177" y="186.557479" style="fill: #ff0000; stroke: #ff0000"/>
     <use xlink:href="#m6ec406472d" x="134.716253" y="191.453355" style="fill: #ff0000; stroke: #ff0000"/>
     <use xlink:href="#m6ec406472d" x="136.990172" y="195.957773" style="fill: #ff0000; stroke: #ff0000"/>
     <use xlink:href="#m6ec406472d" x="140.374347" y="199.823983" style="fill: #ff0000; stroke: #ff0000"/>
     <use xlink:href="#m6ec406472d" x="144.522477" y="202.922863" style="fill: #ff0000; stroke: #ff0000"/>
     <use xlink:href="#m6ec406472d" x="149.025835" y="205.273378" style="fill: #ff0000; stroke: #ff0000"/>
     <use xlink:href="#m6ec406472d" x="153.508893" y="207.028163" style="fill: #ff0000; stroke: #ff0000"/>
     <use xlink:href="#m6ec406472d" x="157.703888" y="208.423234" style="fill: #ff0000; stroke: #ff0000"/>
     <use xlink:href="#m6ec406472d" x="161.488524" y="209.709223" style="fill: #ff0000; stroke: #ff0000"/>
     <use xlink:href="#m6ec406472d" x="164.883465" y="211.083718" style="fill: #ff0000; stroke: #ff0000"/>
     <use xlink:href="#m6ec406472d" x="168.01425" y="212.64519" style="fill: #ff0000; stroke: #ff0000"/>
     <use xlink:href="#m6ec406472d" x="171.052386" y="214.383185" style="fill: #ff0000; stroke: #ff0000"/>
     <use xlink:href="#m6ec406472d" x="174.158731" y="216.202047" style="fill: #ff0000; stroke: #ff0000"/>
     <use xlink:href="#m6ec406472d" x="177.447797" y="217.956953" style="fill: #ff0000; stroke: #ff0000"/>
     <use xlink:href="#m6ec406472d" x="180.974666" y="219.480309" style="fill: #ff0000; stroke: #ff0000"/>
     <use xlink:href="#m6ec406472d" x="184.732888" y="220.596003" style="fill: #ff0000; stroke: #ff0000"/>
     <use xlink:href="#m6ec406472d" x="188.655515" y="221.138767" style="fill: #ff0000; stroke: #ff0000"/>
     <use xlink:href="#m6ec406472d" x="192.625835" y="220.993133" style="fill: #ff0000; stroke: #ff0000"/>
     <use xlink:href="#m6ec406472d" x="196.509912" y="220.141784" style="fill: #ff0000; stroke: #ff0000"/>
     <use xlink:href="#m6ec406472d" x="200.209299" y="218.690921" style="fill: #ff0000; stroke: #ff0000"/>
     <use xlink:href="#m6ec406472d" x="203.710561" y="216.84428" style="fill: #ff0000; stroke: #ff0000"/>
     <use xlink:href="#m6ec406472d" x="207.099842" y="214.827162" style="fill: #ff0000; stroke: #ff0000"/>
     <use xlink:href="#m6ec406472d" x="210.525624" y="212.79439" style="fill: #ff0000; stroke: #ff0000"/>
     <use xlink:href="#m6ec406472d" x="214.12171" y="210.767831" style="fill: #ff0000; stroke: #ff0000"/>
     <use xlink:href="#m6ec406472d" x="217.926056" y="208.633796" style="fill: #ff0000; stroke: #ff0000"/>
     <use xlink:href="#m6ec406472d" x="221.834788" y="206.199371" style="fill: #ff0000; stroke: #ff0000"/>
     <use xlink:href="#m6ec406472d" x="225.612732" y="203.278373" style="fill: #ff0000; stroke: #ff0000"/>
     <use xlink:href="#m6ec406472d" x="228.953028" y="199.767025" style="fill: #ff0000; stroke: #ff0000"/>
     <use xlink:href="#m6ec406472d" x="231.556381" y="195.680729" style="fill: #ff0000; stroke: #ff0000"/>
     <use xlink:href="#m6ec406472d" x="233.197998" y="191.146729" style="fill: #ff0000; stroke: #ff0000"/>
     <use xlink:href="#m6ec406472d" x="233.765872" y="186.366785" style="fill: #ff0000; stroke: #ff0000"/>
    </g>
   </g>
   <g id="matplotlib.axis_1">
    <g id="xtick_1">
     <g id="line2d_1">
      <defs>
       <path id="mae0e578e5c" d="M 0 0 
L 0 3.5 
" style="stroke: #000000; stroke-width: 0.8"/>
      </defs>
      <g>
       <use xlink:href="#mae0e578e5c" x="45" y="320.4" style="stroke: #000000; stroke-width: 0.8"/>
      </g>
     </g>
     <g id="text_1">
      <!-- −3 -->
      <g transform="translate(37.628906 334.998438)scale(0.1 -0.1)">
       <defs>
        <path id="DejaVuSans-2212" d="M 678 2272 
L 4684 2272 
L 4684 1741 
L 678 1741 
L 678 2272 
z
" transform="scale(0.015625)"/>
        <path id="DejaVuSans-33" d="M 2597 2516 
Q 3050 2419 3304 2112 
Q 3559 1806 3559 1356 
Q 3559 666 3084 287 
Q 2609 -91 1734 -91 
Q 1441 -91 1130 -33 
Q 819 25 488 141 
L 488 750 
Q 750 597 1062 519 
Q 1375 441 1716 441 
Q 2309 441 2620 675 
Q 2931 909 2931 1356 
Q 2931 1769 2642 2001 
Q 2353 2234 1838 2234 
L 1294 2234 
L 1294 2753 
L 1863 2753 
Q 2328 2753 2575 2939 
Q 2822 3125 2822 3475 
Q 2822 3834 2567 4026 
Q 2313 4219 1838 4219 
Q 1578 4219 1281 4162 
Q 984 4106 628 3988 
L 628 4550 
Q 988 4650 1302 4700 
Q 1616 4750 1894 4750 
Q 2613 4750 3031 4423 
Q 3450 4097 3450 3541 
Q 3450 3153 3228 2886 
Q 3006 2619 2597 2516 
z
" transform="scale(0.015625)"/>
       </defs>
       <use xlink:href="#DejaVuSans-2212"/>
       <use xlink:href="#DejaVuSans-33" x="83.789062"/>
      </g>
     </g>
    </g>
    <g id="xtick_2">
     <g id="line2d_2">
      <g>
       <use xlink:href="#mae0e578e5c" x="91.577629" y="320.4" style="stroke: #000000; stroke-width: 0.8"/>
      </g>
     </g>
     <g id="text_2">
      <!-- −2 -->
      <g transform="translate(84.206536 334.998438)scale(0.1 -0.1)">
       <defs>
        <path id="DejaVuSans-32" d="M 1228 531 
L 3431 531 
L 3431 0 
L 469 0 
L 469 531 
Q 828 903 1448 1529 
Q 2069 2156 2228 2338 
Q 2531 2678 2651 2914 
Q 2772 3150 2772 3378 
Q 2772 3750 2511 3984 
Q 2250 4219 1831 4219 
Q 1534 4219 1204 4116 
Q 875 4013 500 3803 
L 500 4441 
Q 881 4594 1212 4672 
Q 1544 4750 1819 4750 
Q 2544 4750 2975 4387 
Q 3406 4025 3406 3419 
Q 3406 3131 3298 2873 
Q 3191 2616 2906 2266 
Q 2828 2175 2409 1742 
Q 1991 1309 1228 531 
z
" transform="scale(0.015625)"/>
       </defs>
       <use xlink:href="#DejaVuSans-2212"/>
       <use xlink:href="#DejaVuSans-32" x="83.789062"/>
      </g>
     </g>
    </g>
    <g id="xtick_3">
     <g id="line2d_3">
      <g>
       <use xlink:href="#mae0e578e5c" x="138.155259" y="320.4" style="stroke: #000000; stroke-width: 0.8"/>
      </g>
     </g>
     <g id="text_3">
      <!-- −1 -->
      <g transform="translate(130.784165 334.998438)scale(0.1 -0.1)">
       <defs>
        <path id="DejaVuSans-31" d="M 794 531 
L 1825 531 
L 1825 4091 
L 703 3866 
L 703 4441 
L 1819 4666 
L 2450 4666 
L 2450 531 
L 3481 531 
L 3481 0 
L 794 0 
L 794 531 
z
" transform="scale(0.015625)"/>
       </defs>
       <use xlink:href="#DejaVuSans-2212"/>
       <use xlink:href="#DejaVuSans-31" x="83.789062"/>
      </g>
     </g>
    </g>
    <g id="xtick_4">
     <g id="line2d_4">
      <g>
       <use xlink:href="#mae0e578e5c" x="184.732888" y="320.4" style="stroke: #000000; stroke-width: 0.8"/>
      </g>
     </g>
     <g id="text_4">
      <!-- 0 -->
      <g transform="translate(181.551638 334.998438)scale(0.1 -0.1)">
       <defs>
        <path id="DejaVuSans-30" d="M 2034 4250 
Q 1547 4250 1301 3770 
Q 1056 3291 1056 2328 
Q 1056 1369 1301 889 
Q 1547 409 2034 409 
Q 2525 409 2770 889 
Q 3016 1369 3016 2328 
Q 3016 3291 2770 3770 
Q 2525 4250 2034 4250 
z
M 2034 4750 
Q 2819 4750 3233 4129 
Q 3647 3509 3647 2328 
Q 3647 1150 3233 529 
Q 2819 -91 2034 -91 
Q 1250 -91 836 529 
Q 422 1150 422 2328 
Q 422 3509 836 4129 
Q 1250 4750 2034 4750 
z
" transform="scale(0.015625)"/>
       </defs>
       <use xlink:href="#DejaVuSans-30"/>
      </g>
     </g>
    </g>
    <g id="xtick_5">
     <g id="line2d_5">
      <g>
       <use xlink:href="#mae0e578e5c" x="231.310518" y="320.4" style="stroke: #000000; stroke-width: 0.8"/>
      </g>
     </g>
     <g id="text_5">
      <!-- 1 -->
      <g transform="translate(228.129268 334.998438)scale(0.1 -0.1)">
       <use xlink:href="#DejaVuSans-31"/>
      </g>
     </g>
    </g>
    <g id="xtick_6">
     <g id="line2d_6">
      <g>
       <use xlink:href="#mae0e578e5c" x="277.888147" y="320.4" style="stroke: #000000; stroke-width: 0.8"/>
      </g>
     </g>
     <g id="text_6">
      <!-- 2 -->
      <g transform="translate(274.706897 334.998438)scale(0.1 -0.1)">
       <use xlink:href="#DejaVuSans-32"/>
      </g>
     </g>
    </g>
   </g>
   <g id="matplotlib.axis_2">
    <g id="ytick_1">
     <g id="line2d_7">
      <defs>
       <path id="m4c68d90a42" d="M 0 0 
L -3.5 0 
" style="stroke: #000000; stroke-width: 0.8"/>
      </defs>
      <g>
       <use xlink:href="#m4c68d90a42" x="45" y="320.4" style="stroke: #000000; stroke-width: 0.8"/>
      </g>
     </g>
     <g id="text_7">
      <!-- −3 -->
      <g transform="translate(23.257812 324.199219)scale(0.1 -0.1)">
       <use xlink:href="#DejaVuSans-2212"/>
       <use xlink:href="#DejaVuSans-33" x="83.789062"/>
      </g>
     </g>
    </g>
    <g id="ytick_2">
     <g id="line2d_8">
      <g>
       <use xlink:href="#m4c68d90a42" x="45" y="274.122871" style="stroke: #000000; stroke-width: 0.8"/>
      </g>
     </g>
     <g id="text_8">
      <!-- −2 -->
      <g transform="translate(23.257812 277.92209)scale(0.1 -0.1)">
       <use xlink:href="#DejaVuSans-2212"/>
       <use xlink:href="#DejaVuSans-32" x="83.789062"/>
      </g>
     </g>
    </g>
    <g id="ytick_3">
     <g id="line2d_9">
      <g>
       <use xlink:href="#m4c68d90a42" x="45" y="227.845743" style="stroke: #000000; stroke-width: 0.8"/>
      </g>
     </g>
     <g id="text_9">
      <!-- −1 -->
      <g transform="translate(23.257812 231.644962)scale(0.1 -0.1)">
       <use xlink:href="#DejaVuSans-2212"/>
       <use xlink:href="#DejaVuSans-31" x="83.789062"/>
      </g>
     </g>
    </g>
    <g id="ytick_4">
     <g id="line2d_10">
      <g>
       <use xlink:href="#m4c68d90a42" x="45" y="181.568614" style="stroke: #000000; stroke-width: 0.8"/>
      </g>
     </g>
     <g id="text_10">
      <!-- 0 -->
      <g transform="translate(31.6375 185.367833)scale(0.1 -0.1)">
       <use xlink:href="#DejaVuSans-30"/>
      </g>
     </g>
    </g>
    <g id="ytick_5">
     <g id="line2d_11">
      <g>
       <use xlink:href="#m4c68d90a42" x="45" y="135.291486" style="stroke: #000000; stroke-width: 0.8"/>
      </g>
     </g>
     <g id="text_11">
      <!-- 1 -->
      <g transform="translate(31.6375 139.090705)scale(0.1 -0.1)">
       <use xlink:href="#DejaVuSans-31"/>
      </g>
     </g>
    </g>
    <g id="ytick_6">
     <g id="line2d_12">
      <g>
       <use xlink:href="#m4c68d90a42" x="45" y="89.014357" style="stroke: #000000; stroke-width: 0.8"/>
      </g>
     </g>
     <g id="text_12">
      <!-- 2 -->
      <g transform="translate(31.6375 92.813576)scale(0.1 -0.1)">
       <use xlink:href="#DejaVuSans-32"/>
      </g>
     </g>
    </g>
   </g>
   <g id="PathCollection_2">
    <path d="M 188.459098 196.865997 
L 187.527546 196.496072 
L 184.732888 195.326359 
L 182.317043 194.52621 
L 177.027236 192.212354 
L 174.48581 191.206395 
L 173.088481 190.471493 
L 170.759599 189.279368 
L 165.105758 185.733556 
L 164.238731 185.410992 
L 163.731835 185.270785 
L 163.142819 184.808013 
L 162.801359 184.345242 
L 162.308628 182.031386 
L 162.883831 178.791987 
L 163.307179 177.826621 
L 165.63606 175.73719 
L 173.160684 171.387646 
L 175.01265 169.536561 
L 178.774861 166.297162 
L 181.93823 162.959876 
L 183.801336 161.855888 
L 188.551274 161.669449 
L 190.322204 162.01832 
L 191.503647 162.594992 
L 192.730502 163.983306 
L 194.51419 165.995624 
L 194.979967 166.351906 
L 198.246527 167.685476 
L 198.714939 168.148247 
L 199.100366 169.07379 
L 200.978072 175.552588 
L 202.898164 178.113433 
L 204.761269 179.407039 
L 208.021703 181.738194 
L 210.816361 185.077344 
L 211.343997 185.733556 
L 211.470217 186.196327 
L 210.350584 187.664422 
L 209.419032 188.170627 
L 204.295492 190.327204 
L 202.432387 191.093323 
L 198.706177 192.857228 
L 197.285464 193.600668 
L 196.377295 194.781356 
L 192.185309 196.368403 
L 189.856427 196.84476 
L 188.924875 196.89449 
L 188.459098 196.865997 
L 188.459098 196.865997 
" clip-path="url(#p3805e9db45)" style="fill: none; stroke-dasharray: 5.55,2.4; stroke-dashoffset: 0; stroke: #000000; stroke-width: 1.5"/>
   </g>
   <g id="PathCollection_3">
    <path d="M 187.993322 221.437506 
L 187.730665 221.366945 
L 187.527546 221.312379 
L 187.06177 221.187255 
L 186.595993 221.06213 
L 186.130217 220.937009 
L 186.007986 220.904174 
L 185.664441 220.811012 
L 185.198664 220.680415 
L 184.732888 220.54392 
L 184.390872 220.441402 
L 184.267112 220.404306 
L 183.801336 220.264686 
L 183.335559 220.125071 
L 182.869783 219.985451 
L 182.847032 219.978631 
L 182.404007 219.845835 
L 181.93823 219.706221 
L 181.472454 219.566603 
L 181.303166 219.51586 
L 181.006678 219.426987 
L 180.540902 219.287365 
L 180.075125 219.147749 
L 179.722281 219.053088 
L 179.609349 219.02155 
L 179.143573 218.788859 
L 178.746168 218.590317 
L 178.677796 218.556159 
L 178.21202 218.323464 
L 177.819853 218.127546 
L 177.746244 218.090772 
L 177.280467 217.858076 
L 176.89354 217.664775 
L 176.814691 217.625383 
L 176.348915 217.392685 
L 175.967226 217.202003 
L 175.883139 217.159995 
L 175.417362 216.927295 
L 175.040932 216.739232 
L 174.951586 216.694596 
L 174.48581 216.461904 
L 174.114624 216.276461 
L 174.020033 216.229204 
L 173.554257 215.996511 
L 173.188309 215.813689 
L 173.088481 215.763817 
L 172.622705 215.530138 
L 172.262005 215.350918 
L 172.156928 215.298423 
L 171.691152 215.058392 
L 171.335689 214.888147 
L 171.225376 214.833035 
L 170.759599 214.587265 
L 170.409379 214.425376 
L 170.293823 214.367646 
L 169.828047 214.116707 
L 169.483072 213.962604 
L 169.36227 213.902253 
L 168.896494 213.646652 
L 168.55676 213.499833 
L 168.430718 213.436865 
L 167.964942 213.177055 
L 167.630454 213.037062 
L 167.499165 212.971472 
L 167.033389 212.707878 
L 166.704135 212.57429 
L 166.567613 212.506087 
L 166.101836 212.239082 
L 165.789702 212.111519 
L 165.63606 212.033338 
L 165.170284 211.770635 
L 164.883848 211.648748 
L 164.704508 211.554392 
L 164.238731 211.281067 
L 163.974756 211.185977 
L 163.772955 211.076558 
L 163.307179 210.767543 
L 162.954612 210.723205 
L 162.841402 210.674749 
L 162.375626 210.460193 
L 161.90985 210.266126 
L 161.689013 210.260434 
L 161.444073 210.175329 
L 160.978297 210.032251 
L 160.512521 209.816779 
L 160.046745 209.799058 
L 159.978989 209.797663 
L 159.580968 209.658268 
L 159.115192 209.418933 
L 158.649416 209.34447 
L 158.294375 209.334891 
L 158.183639 209.296466 
L 157.717863 209.147698 
L 157.252087 208.89901 
L 156.786311 208.87623 
L 156.593639 208.87212 
L 156.320534 208.776409 
L 155.854758 208.539233 
L 155.388982 208.423212 
L 154.923205 208.409724 
L 154.900977 208.409349 
L 154.457429 208.263197 
L 153.991653 207.982655 
L 153.525876 207.953601 
L 153.20832 207.946578 
L 153.0601 207.894602 
L 152.594324 207.689099 
L 152.128548 207.502416 
L 151.662771 207.486358 
L 151.515667 207.483806 
L 151.196995 207.378738 
L 150.731219 207.068139 
L 150.265442 207.031197 
L 149.822998 207.021035 
L 149.799666 207.012848 
L 149.33389 206.672203 
L 148.868114 206.568754 
L 148.577429 206.558264 
L 148.402337 206.457532 
L 147.936561 206.109929 
L 147.62746 206.095492 
L 147.470785 206.003005 
L 147.005008 205.648821 
L 146.679794 205.632721 
L 146.539232 205.548796 
L 146.073456 205.187362 
L 145.73505 205.16995 
L 145.607679 205.094951 
L 145.141903 204.726119 
L 144.789355 204.707179 
L 144.676127 204.64124 
L 144.210351 204.253683 
L 144.19512 204.244407 
L 143.744574 203.805651 
L 143.681149 203.781636 
L 143.278798 203.397274 
L 142.998117 203.318865 
L 142.813022 203.157116 
L 142.439767 202.856093 
L 142.347245 202.776047 
L 141.881469 202.393976 
L 141.880586 202.393322 
L 141.415693 201.937452 
L 141.405196 201.930551 
L 140.949917 201.485757 
L 140.913533 201.46778 
L 140.48414 201.051534 
L 140.250336 201.005008 
L 140.018364 200.799487 
L 139.683884 200.542237 
L 139.552588 200.404773 
L 139.461145 200.079466 
L 139.086811 199.693035 
L 139.062814 199.616694 
L 138.621035 199.169813 
L 138.611686 199.153923 
L 138.155259 198.694519 
L 138.152874 198.691152 
L 137.731978 198.228381 
L 137.689482 198.180623 
L 137.598268 197.765609 
L 137.223706 197.382497 
L 137.193528 197.302838 
L 136.75793 196.861977 
L 136.744542 196.840067 
L 136.292154 196.385049 
L 136.286571 196.377295 
L 136.189147 195.914524 
L 135.826377 195.514889 
L 135.813175 195.451753 
L 135.701164 194.988982 
L 135.360601 194.595684 
L 135.351057 194.52621 
L 135.310958 194.063439 
L 134.894825 193.617357 
L 134.88994 193.600668 
L 134.867664 193.137896 
L 134.543464 192.675125 
L 134.429048 192.503933 
L 134.413346 192.212354 
L 134.342794 191.749583 
L 133.963272 191.315133 
L 133.958683 191.286811 
L 133.954114 190.82404 
L 133.95156 190.361269 
L 133.949083 189.898497 
L 133.946097 189.435726 
L 133.942425 188.972955 
L 133.9378 188.510184 
L 133.931794 188.047412 
L 133.924144 187.584641 
L 133.914154 187.12187 
L 133.903563 186.659098 
L 133.888525 186.196327 
L 133.85816 185.733556 
L 133.809011 185.270785 
L 133.691674 184.808013 
L 133.678323 184.345242 
L 133.860845 183.882471 
L 133.909733 183.419699 
L 133.931478 182.956928 
L 133.943316 182.494157 
L 133.950759 182.031386 
L 133.955872 181.568614 
L 133.959601 181.105843 
L 133.962724 180.643072 
L 133.963272 180.638845 
L 134.3433 180.180301 
L 134.414227 179.717529 
L 134.428007 179.254758 
L 134.429048 179.233959 
L 134.692275 178.791987 
L 134.875632 178.329215 
L 134.893305 177.866444 
L 134.894825 177.857559 
L 135.285336 177.403673 
L 135.359685 176.940902 
L 135.360601 176.936808 
L 135.770467 176.47813 
L 135.826377 176.035905 
L 135.838088 176.015359 
L 136.249868 175.552588 
L 136.292154 175.159848 
L 136.332176 175.089816 
L 136.725747 174.627045 
L 136.75793 174.283782 
L 136.826411 174.164274 
L 137.199312 173.701503 
L 137.223706 173.407719 
L 137.320806 173.238731 
L 137.671279 172.77596 
L 137.689482 172.53167 
L 137.815359 172.313189 
L 138.142094 171.850417 
L 138.155259 171.655602 
L 138.310062 171.387646 
L 138.61205 170.924875 
L 138.621035 170.779532 
L 138.804922 170.462104 
L 139.08135 169.999332 
L 139.086811 169.903478 
L 139.299952 169.536561 
L 139.550138 169.07379 
L 139.552588 169.027417 
L 139.795133 168.611018 
L 140.018364 168.151964 
L 140.02062 168.148247 
L 140.290478 167.685476 
L 140.48414 167.286057 
L 140.522505 167.222705 
L 140.785994 166.759933 
L 140.949917 166.4468 
L 141.05578 166.297162 
L 141.414034 165.834391 
L 141.415693 165.821894 
L 141.806984 165.371619 
L 141.881469 165.278533 
L 142.207673 164.908848 
L 142.347245 164.729676 
L 142.630065 164.446077 
L 142.813022 164.288884 
L 143.164896 163.983306 
L 143.278798 163.889392 
L 143.707734 163.520534 
L 143.744574 163.516278 
L 144.210351 163.27138 
L 144.572736 163.057763 
L 144.676127 163.04212 
L 145.141903 162.76332 
L 145.436985 162.594992 
L 145.607679 162.525333 
L 146.073456 162.250783 
L 146.289207 162.13222 
L 146.539232 162.021165 
L 147.005008 161.74102 
L 147.138601 161.669449 
L 147.470785 161.52413 
L 147.936561 161.241946 
L 148.002388 161.206678 
L 148.402337 161.024112 
L 148.866644 160.743907 
L 148.868114 160.743799 
L 149.33389 160.520722 
L 149.742887 160.281135 
L 149.799666 160.275327 
L 150.265442 160.013469 
L 150.609899 159.818364 
L 150.731219 159.795926 
L 151.196995 159.50177 
L 151.432051 159.355593 
L 151.662771 159.191163 
L 152.00396 158.892821 
L 152.128548 158.767211 
L 152.494721 158.43005 
L 152.594324 158.365386 
L 153.0601 158.022554 
L 153.135822 157.967279 
L 153.525876 157.699487 
L 153.787365 157.504508 
L 153.991653 157.369358 
L 154.415152 157.041736 
L 154.457429 157.012345 
L 154.923205 156.662544 
L 155.0377 156.578965 
L 155.388982 156.336524 
L 155.684996 156.116194 
L 155.854758 156.00415 
L 156.308732 155.653422 
L 156.320534 155.645321 
L 156.786311 155.302538 
L 156.939586 155.190651 
L 157.252087 154.973834 
L 157.583101 154.72788 
L 157.717863 154.639146 
L 158.183639 154.279417 
L 158.200208 154.265109 
L 158.649416 153.873 
L 158.730368 153.802337 
L 159.115192 153.46643 
L 159.260528 153.339566 
L 159.580968 153.059846 
L 159.790671 152.876795 
L 160.046745 152.653265 
L 160.320815 152.414023 
L 160.512521 152.24869 
L 160.843907 151.951252 
L 160.978297 151.815957 
L 161.287404 151.488481 
L 161.444073 151.3225 
L 161.724215 151.02571 
L 161.90985 150.829041 
L 162.161017 150.562938 
L 162.375626 150.335572 
L 162.597821 150.100167 
L 162.841402 149.842106 
L 163.03463 149.637396 
L 163.307179 149.348643 
L 163.471432 149.174624 
L 163.772955 148.855176 
L 163.908235 148.711853 
L 164.238731 148.361713 
L 164.345046 148.249082 
L 164.704508 147.868258 
L 164.781855 147.786311 
L 165.170284 147.374787 
L 165.218656 147.323539 
L 165.63606 146.881326 
L 165.655465 146.860768 
L 166.092268 146.397997 
L 166.101836 146.387859 
L 166.529078 145.935225 
L 166.567613 145.894401 
L 166.965883 145.472454 
L 167.033389 145.400934 
L 167.402692 145.009683 
L 167.499165 144.909118 
L 167.939247 144.546912 
L 167.964942 144.529754 
L 168.430718 144.218731 
L 168.632281 144.08414 
L 168.896494 143.907714 
L 169.325306 143.621369 
L 169.36227 143.596686 
L 169.828047 143.285666 
L 170.01834 143.158598 
L 170.293823 142.978987 
L 170.759599 142.732612 
L 170.834389 142.695826 
L 171.225376 142.503517 
L 171.691152 142.274406 
L 171.775221 142.233055 
L 172.156928 142.047258 
L 172.622705 141.83857 
L 172.768439 141.770284 
L 173.088481 141.615481 
L 173.554257 141.372136 
L 173.677955 141.307513 
L 174.020033 141.128803 
L 174.48581 140.885468 
L 174.563767 140.844741 
L 174.951586 140.657331 
L 175.417362 140.56081 
L 175.883139 140.462445 
L 176.161535 140.38197 
L 176.348915 140.325431 
L 176.814691 140.184891 
L 177.280467 140.044349 
L 177.695248 139.919199 
L 177.746244 139.903812 
L 178.21202 139.763274 
L 178.677796 139.622735 
L 179.143573 139.482194 
L 179.22897 139.456427 
L 179.609349 139.341657 
L 180.075125 139.269057 
L 180.540902 139.207456 
L 181.006678 139.145863 
L 181.472454 139.084263 
L 181.93823 139.022668 
L 182.125202 138.993656 
L 182.404007 138.951846 
L 182.869783 138.908384 
L 183.335559 138.867717 
L 183.801336 138.827042 
L 184.267112 138.786373 
L 184.732888 138.745708 
L 185.198664 138.705039 
L 185.664441 138.664371 
L 186.130217 138.648614 
L 186.595993 138.680384 
L 187.06177 138.712155 
L 187.527546 138.743924 
L 187.993322 138.775694 
L 188.459098 138.807466 
L 188.924875 138.839234 
L 189.390651 138.871003 
L 189.856427 138.902772 
L 190.322204 138.934548 
L 190.78798 138.966316 
L 191.026775 138.993656 
L 191.253756 139.019867 
L 191.719533 139.164953 
L 192.185309 139.310041 
L 192.651085 139.455131 
L 192.655248 139.456427 
L 193.116861 139.600216 
L 193.582638 139.745308 
L 194.048414 139.890393 
L 194.140891 139.919199 
L 194.51419 140.035481 
L 194.979967 140.180574 
L 195.445743 140.325668 
L 195.626487 140.38197 
L 195.911519 140.470758 
L 196.377295 140.615848 
L 196.843072 140.760937 
L 197.112104 140.844741 
L 197.308848 140.906027 
L 197.774624 141.051122 
L 198.240401 141.19621 
L 198.47557 141.307513 
L 198.706177 141.4236 
L 199.171953 141.708411 
L 199.274593 141.770284 
L 199.63773 141.983321 
L 200.072059 142.233055 
L 200.103506 142.251023 
L 200.569282 142.505413 
L 200.917908 142.695826 
L 201.035058 142.759813 
L 201.500835 143.014209 
L 201.737838 143.158598 
L 201.966611 143.310133 
L 202.430248 143.621369 
L 202.432387 143.622805 
L 202.898164 143.935487 
L 203.119608 144.08414 
L 203.36394 144.248157 
L 203.829716 144.453069 
L 204.077174 144.546912 
L 204.295492 144.629701 
L 204.761269 144.806325 
L 205.227045 144.982963 
L 205.297504 145.009683 
L 205.692821 145.159593 
L 206.158598 145.377134 
L 206.3517 145.472454 
L 206.624374 145.607056 
L 207.09015 145.836977 
L 207.289179 145.935225 
L 207.555927 146.078014 
L 207.984632 146.397997 
L 208.021703 146.430811 
L 208.430138 146.860768 
L 208.487479 146.924358 
L 208.847425 147.323539 
L 208.953255 147.440907 
L 209.264711 147.786311 
L 209.419032 147.957451 
L 209.681998 148.249082 
L 209.884808 148.473996 
L 210.099289 148.711853 
L 210.350584 148.99054 
L 210.516575 149.174624 
L 210.816361 149.507088 
L 210.93386 149.637396 
L 211.282137 150.023631 
L 211.351152 150.100167 
L 211.747913 150.540177 
L 211.768437 150.562938 
L 212.185721 151.02571 
L 212.213689 151.056728 
L 212.603007 151.488481 
L 212.679466 151.573273 
L 213.020295 151.951252 
L 213.145242 152.089817 
L 213.437583 152.414023 
L 213.611018 152.606362 
L 213.854872 152.876795 
L 214.076795 153.122912 
L 214.272156 153.339566 
L 214.542571 153.639454 
L 214.69466 153.802337 
L 215.008347 154.089771 
L 215.203211 154.265109 
L 215.474124 154.51744 
L 215.69272 154.72788 
L 215.9399 154.966972 
L 216.171146 155.190651 
L 216.405676 155.417507 
L 216.649577 155.653422 
L 216.871452 155.868033 
L 217.128005 156.116194 
L 217.337229 156.318572 
L 217.60643 156.578965 
L 217.803005 156.76911 
L 218.084854 157.041736 
L 218.268781 157.219647 
L 218.563278 157.504508 
L 218.734558 157.670183 
L 219.095427 157.967279 
L 219.200334 158.0619 
L 219.60888 158.43005 
L 219.66611 158.481621 
L 220.122435 158.892821 
L 220.131886 158.90157 
L 220.509976 159.355593 
L 220.597663 159.507408 
L 220.777268 159.818364 
L 221.063439 160.27756 
L 221.065801 160.281135 
L 221.379541 160.743907 
L 221.529215 160.964682 
L 221.693275 161.206678 
L 221.994992 161.651729 
L 222.007005 161.669449 
L 222.264685 162.13222 
L 222.460768 162.518293 
L 222.499723 162.594992 
L 222.734769 163.057763 
L 222.926544 163.43534 
L 222.969816 163.520534 
L 223.225902 163.983306 
L 223.392321 164.260809 
L 223.503429 164.446077 
L 223.778901 164.908848 
L 223.858097 165.042685 
L 224.052739 165.371619 
L 224.323873 165.829814 
L 224.326582 165.834391 
L 224.600426 166.297162 
L 224.789649 166.616932 
L 224.87427 166.759933 
L 225.148109 167.222705 
L 225.255426 167.363318 
L 225.528206 167.685476 
L 225.721202 167.898776 
L 225.946928 168.148247 
L 226.186978 168.413552 
L 226.365645 168.611018 
L 226.652755 168.928329 
L 226.784368 169.07379 
L 227.118531 169.443115 
L 227.203084 169.536561 
L 227.584307 169.961441 
L 227.616281 169.999332 
L 228.00525 170.462104 
L 228.050083 170.515443 
L 228.394222 170.924875 
L 228.51586 171.069587 
L 228.7832 171.387646 
L 228.981636 171.623727 
L 229.172178 171.850417 
L 229.447412 172.17788 
L 229.561143 172.313189 
L 229.913189 172.73202 
L 229.946131 172.77596 
L 230.337505 173.238731 
L 230.378965 173.293739 
L 230.698627 173.701503 
L 230.844741 173.898824 
L 231.040841 174.164274 
L 231.310518 174.590139 
L 231.329601 174.627045 
L 231.541356 175.089816 
L 231.728789 175.552588 
L 231.776294 175.669877 
L 231.901435 176.015359 
L 232.103655 176.47813 
L 232.24207 176.825553 
L 232.277937 176.940902 
L 232.453434 177.403673 
L 232.661846 177.866444 
L 232.707846 177.973182 
L 232.846103 178.329215 
L 233.05063 178.791987 
L 233.173623 179.134452 
L 233.208744 179.254758 
L 233.358366 179.717529 
L 233.488505 180.180301 
L 233.515563 180.643072 
L 233.433258 181.105843 
L 233.350952 181.568614 
L 233.268651 182.031386 
L 233.186349 182.494157 
L 233.173623 182.565715 
L 233.104044 182.956928 
L 233.021739 183.419699 
L 232.939436 183.882471 
L 232.856733 184.345242 
L 232.78537 184.808013 
L 232.781928 185.270785 
L 232.87382 185.733556 
L 233.009161 186.196327 
L 233.173623 186.654301 
L 233.175346 186.659098 
L 233.341526 187.12187 
L 233.507707 187.584641 
L 233.639399 187.951378 
L 233.673884 188.047412 
L 233.840064 188.510184 
L 233.983948 188.972955 
L 234.099989 189.435726 
L 233.977995 189.898497 
L 233.844929 190.361269 
L 233.710152 190.82404 
L 233.639399 191.066991 
L 233.575381 191.286811 
L 233.44061 191.749583 
L 233.305835 192.212354 
L 233.173623 192.666328 
L 233.171061 192.675125 
L 233.038575 193.137896 
L 232.908461 193.600668 
L 232.778353 194.063439 
L 232.707846 194.314201 
L 232.648235 194.52621 
L 232.518117 194.988982 
L 232.336183 195.451753 
L 232.24207 195.635428 
L 232.099064 195.914524 
L 231.861946 196.377295 
L 231.776294 196.544452 
L 231.624818 196.840067 
L 231.387697 197.302838 
L 231.310518 197.453462 
L 231.143731 197.765609 
L 230.844741 198.135318 
L 230.762082 198.228381 
L 230.378965 198.659703 
L 230.351031 198.691152 
L 229.939983 199.153923 
L 229.913189 199.184089 
L 229.52893 199.616694 
L 229.447412 199.708471 
L 229.117882 200.079466 
L 228.981636 200.236276 
L 228.717079 200.542237 
L 228.51586 200.775751 
L 228.373248 201.005008 
L 228.199418 201.46778 
L 228.050083 201.874483 
L 228.029497 201.930551 
L 227.859578 202.393322 
L 227.680996 202.856093 
L 227.584307 203.070008 
L 227.475322 203.318865 
L 227.118531 203.737877 
L 227.080948 203.781636 
L 226.654441 204.244407 
L 226.652755 204.246125 
L 226.191081 204.707179 
L 226.186978 204.71136 
L 225.72782 205.16995 
L 225.721202 205.176699 
L 225.264665 205.632721 
L 225.255426 205.642149 
L 224.801623 206.095492 
L 224.789649 206.107717 
L 224.336815 206.558264 
L 224.323873 206.568909 
L 223.858097 206.731882 
L 223.564928 207.021035 
L 223.392321 207.126832 
L 223.032575 207.483806 
L 222.926544 207.559948 
L 222.53705 207.946578 
L 222.460768 208.005618 
L 222.051948 208.409349 
L 221.994992 208.439079 
L 221.529215 208.773194 
L 221.41556 208.87212 
L 221.063439 208.934599 
L 220.650105 209.334891 
L 220.597663 209.36222 
L 220.131886 209.518038 
L 219.823264 209.797663 
L 219.66611 209.833087 
L 219.200334 209.946762 
L 218.845917 210.260434 
L 218.734558 210.28856 
L 218.268781 210.370315 
L 217.87881 210.723205 
L 217.803005 210.745902 
L 217.337229 210.792799 
L 216.910178 211.185977 
L 216.871452 211.199772 
L 216.405676 211.226321 
L 215.9399 211.542715 
L 215.7743 211.648748 
L 215.474124 211.671963 
L 215.008347 211.771572 
L 214.60406 212.111519 
L 214.542571 212.123487 
L 214.076795 212.164026 
L 213.623902 212.57429 
L 213.611018 212.578306 
L 213.145242 212.598482 
L 212.679466 212.990944 
L 212.541956 213.037062 
L 212.213689 213.048806 
L 211.747913 213.381012 
L 211.504365 213.499833 
L 211.282137 213.608253 
L 210.816361 213.835492 
L 210.55582 213.962604 
L 210.350584 214.062734 
L 209.884808 214.289975 
L 209.607279 214.425376 
L 209.419032 214.517217 
L 208.953255 214.746165 
L 208.668964 214.888147 
L 208.487479 214.978805 
L 208.021703 215.211473 
L 207.74256 215.350918 
L 207.555927 215.444149 
L 207.09015 215.676817 
L 206.816151 215.813689 
L 206.624374 215.909487 
L 206.158598 216.142156 
L 205.889734 216.276461 
L 205.692821 216.374826 
L 205.227045 216.6075 
L 204.972854 216.739232 
L 204.761269 216.855981 
L 204.295492 217.162175 
L 204.169722 217.202003 
L 203.829716 217.328286 
L 203.36394 217.394255 
L 202.898164 217.538482 
L 202.582582 217.664775 
L 202.432387 217.72488 
L 201.966611 217.911277 
L 201.500835 218.097671 
L 201.426184 218.127546 
L 201.035058 218.284074 
L 200.569282 218.470465 
L 200.26979 218.590317 
L 200.103506 218.65686 
L 199.63773 218.843258 
L 199.171953 219.029645 
L 199.126134 219.053088 
L 198.706177 219.263512 
L 198.27283 219.51586 
L 198.240401 219.532432 
L 197.774624 219.686498 
L 197.308848 219.84056 
L 196.891416 219.978631 
L 196.843072 219.994622 
L 196.377295 220.148684 
L 195.911519 220.30275 
L 195.492334 220.441402 
L 195.445743 220.456813 
L 194.979967 220.610818 
L 194.51419 220.763983 
L 194.085751 220.904174 
L 194.048414 220.916378 
L 193.582638 221.068627 
L 193.116861 221.216621 
L 192.651085 221.33753 
L 192.348656 221.366945 
L 192.185309 221.382666 
L 191.719533 221.42749 
L 191.253756 221.472311 
L 190.78798 221.517135 
L 190.322204 221.561958 
L 189.856427 221.606782 
L 189.390651 221.643805 
L 188.924875 221.598103 
L 188.459098 221.534001 
L 187.993322 221.437506 
z
" clip-path="url(#p3805e9db45)" style="fill: none; stroke: #000000; stroke-width: 1.5"/>
   </g>
   <g id="PathCollection_4">
    <path d="M 187.06177 244.057031 
L 186.956911 244.042738 
L 186.595993 243.99354 
L 186.130217 243.930054 
L 185.664441 243.866562 
L 185.198664 243.803074 
L 184.732888 243.739579 
L 184.267112 243.676095 
L 183.801336 243.612605 
L 183.561902 243.579967 
L 183.335559 243.549113 
L 182.869783 243.485627 
L 182.404007 243.422136 
L 181.93823 243.358653 
L 181.472454 243.295161 
L 181.006678 243.231671 
L 180.540902 243.168181 
L 180.166871 243.117195 
L 180.075125 243.104689 
L 179.609349 243.040825 
L 179.143573 242.947565 
L 178.677796 242.840647 
L 178.21202 242.73372 
L 177.86661 242.654424 
L 177.746244 242.626792 
L 177.280467 242.519937 
L 176.814691 242.416048 
L 176.348915 242.315746 
L 175.883139 242.216275 
L 175.767845 242.191653 
L 175.417362 242.116804 
L 174.951586 242.017332 
L 174.48581 241.917854 
L 174.020033 241.818386 
L 173.600936 241.728881 
L 173.554257 241.718912 
L 173.088481 241.619443 
L 172.622705 241.519966 
L 172.156928 241.420496 
L 171.691152 241.321027 
L 171.438412 241.26611 
L 171.225376 241.212715 
L 170.759599 240.952502 
L 170.493486 240.803339 
L 170.293823 240.691426 
L 169.828047 240.428817 
L 169.672991 240.340568 
L 169.36227 240.163723 
L 168.896494 239.898643 
L 168.859866 239.877796 
L 168.430718 239.633556 
L 168.046743 239.415025 
L 167.964942 239.36847 
L 167.499165 239.103391 
L 167.233605 238.952254 
L 167.033389 238.838304 
L 166.567613 238.573221 
L 166.420475 238.489482 
L 166.101836 238.308141 
L 165.63606 238.063944 
L 165.558694 238.026711 
L 165.170284 237.839788 
L 164.704508 237.615629 
L 164.597103 237.56394 
L 164.238731 237.391475 
L 163.772955 237.167327 
L 163.635479 237.101169 
L 163.307179 236.943174 
L 162.841402 236.719026 
L 162.673857 236.638397 
L 162.375626 236.494875 
L 161.90985 236.270707 
L 161.712273 236.175626 
L 161.444073 236.046558 
L 160.978297 235.839998 
L 160.612237 235.712855 
L 160.512521 235.678222 
L 160.046745 235.466794 
L 159.580968 235.25298 
L 159.574659 235.250083 
L 159.115192 235.039156 
L 158.649416 234.825328 
L 158.566602 234.787312 
L 158.183639 234.611511 
L 157.717863 234.397685 
L 157.558527 234.324541 
L 157.252087 234.183867 
L 156.786311 233.969908 
L 156.559762 233.86177 
L 156.320534 233.742958 
L 155.854758 233.511623 
L 155.627985 233.398998 
L 155.388982 233.280297 
L 154.923205 233.048963 
L 154.696215 232.936227 
L 154.457429 232.81763 
L 153.991653 232.5863 
L 153.764444 232.473456 
L 153.525876 232.354968 
L 153.0601 232.123633 
L 152.832677 232.010684 
L 152.594324 231.892307 
L 152.128548 231.660977 
L 151.900897 231.547913 
L 151.662771 231.429646 
L 151.196995 231.198316 
L 150.969133 231.085142 
L 150.731219 230.966976 
L 150.265442 230.735652 
L 150.037353 230.622371 
L 149.799666 230.504323 
L 149.33389 230.272991 
L 149.105577 230.159599 
L 148.868114 230.041663 
L 148.402337 229.810328 
L 148.173806 229.696828 
L 147.936561 229.578999 
L 147.470785 229.347662 
L 147.242052 229.234057 
L 147.005008 229.116327 
L 146.539232 228.885002 
L 146.310266 228.771285 
L 146.073456 228.653672 
L 145.607679 228.422343 
L 145.378502 228.308514 
L 145.141903 228.191001 
L 144.676127 227.959669 
L 144.446732 227.845743 
L 144.210351 227.728347 
L 143.744574 227.497011 
L 143.514958 227.382972 
L 143.278798 227.265682 
L 142.813022 227.034235 
L 142.583178 226.9202 
L 142.347245 226.803024 
L 141.881469 226.57144 
L 141.651517 226.457429 
L 141.415693 226.345528 
L 140.949917 226.119645 
L 140.696986 225.994658 
L 140.48414 225.893598 
L 140.018364 225.672506 
L 139.721608 225.531886 
L 139.552588 225.451965 
L 139.086811 225.248547 
L 138.626745 225.069115 
L 138.621035 225.066952 
L 138.155259 224.892511 
L 137.689482 224.717864 
L 137.393218 224.606344 
L 137.223706 224.54346 
L 136.75793 224.370144 
L 136.292154 224.196918 
L 136.148112 224.143573 
L 135.826377 224.024268 
L 135.360601 223.851937 
L 134.898503 223.680801 
L 134.894825 223.679436 
L 134.429048 223.506947 
L 133.963272 223.334453 
L 133.648888 223.21803 
L 133.497496 223.161939 
L 133.03172 222.989466 
L 132.565943 222.816983 
L 132.399275 222.755259 
L 132.100167 222.644486 
L 131.634391 222.439231 
L 131.356157 222.292487 
L 131.168614 222.193579 
L 130.702838 221.94793 
L 130.475229 221.829716 
L 130.237062 221.705752 
L 129.771285 221.437079 
L 129.671776 221.366945 
L 129.305509 221.088721 
L 129.064109 220.904174 
L 128.839733 220.726635 
L 128.522676 220.441402 
L 128.373957 220.303905 
L 128.022129 219.978631 
L 127.90818 219.873285 
L 127.521584 219.51586 
L 127.442404 219.442655 
L 127.021021 219.053088 
L 126.976628 219.012046 
L 126.520467 218.590317 
L 126.510851 218.581428 
L 126.045075 218.150802 
L 126.019921 218.127546 
L 125.579299 217.720192 
L 125.519357 217.664775 
L 125.113523 217.289563 
L 125.018814 217.202003 
L 124.647746 216.858942 
L 124.518262 216.739232 
L 124.18197 216.428329 
L 124.017705 216.276461 
L 123.716194 215.997698 
L 123.517169 215.813689 
L 123.250417 215.567064 
L 123.01662 215.350918 
L 122.784641 215.13645 
L 122.531591 214.888147 
L 122.318865 214.633718 
L 122.164836 214.425376 
L 121.853088 213.999427 
L 121.826117 213.962604 
L 121.488249 213.499833 
L 121.387312 213.365982 
L 121.145053 213.037062 
L 120.921536 212.746853 
L 120.788863 212.57429 
L 120.45576 212.142024 
L 120.432252 212.111519 
L 120.07563 211.648748 
L 119.989983 211.536953 
L 119.736559 211.185977 
L 119.524207 210.848996 
L 119.444939 210.723205 
L 119.153336 210.260434 
L 119.058431 210.109825 
L 118.861722 209.797663 
L 118.592654 209.370673 
L 118.570107 209.334891 
L 118.278495 208.87212 
L 118.126878 208.631511 
L 117.986885 208.409349 
L 117.697013 207.946578 
L 117.661102 207.888873 
L 117.409012 207.483806 
L 117.195326 207.140436 
L 117.121017 207.021035 
L 116.833004 206.558264 
L 116.729549 206.392034 
L 116.54499 206.095492 
L 116.263773 205.643626 
L 116.256987 205.632721 
L 115.968988 205.16995 
L 115.797997 204.895201 
L 115.680998 204.707179 
L 115.392972 204.244407 
L 115.33222 204.146787 
L 115.105106 203.781636 
L 114.866444 203.398301 
L 114.81704 203.318865 
L 114.529303 202.856093 
L 114.400668 202.649388 
L 114.241411 202.393322 
L 113.953609 201.930551 
L 113.934891 201.90046 
L 113.665792 201.46778 
L 113.469115 201.151533 
L 113.377709 201.005008 
L 113.0869 200.542237 
L 113.003339 200.409286 
L 112.797957 200.079466 
L 112.537563 199.619082 
L 112.536215 199.616694 
L 112.274943 199.153923 
L 112.071786 198.752418 
L 112.043083 198.691152 
L 111.905499 198.228381 
L 111.76792 197.765609 
L 111.630324 197.302838 
L 111.60601 197.187069 
L 111.533768 196.840067 
L 111.454739 196.377295 
L 111.375703 195.914524 
L 111.296675 195.451753 
L 111.21764 194.988982 
L 111.140234 194.535725 
L 111.138626 194.52621 
L 111.110451 194.063439 
L 111.084596 193.600668 
L 111.052595 193.137896 
L 111.020608 192.675125 
L 110.988612 192.212354 
L 110.956622 191.749583 
L 110.924629 191.286811 
L 110.892638 190.82404 
L 110.860642 190.361269 
L 110.82866 189.898497 
L 110.796663 189.435726 
L 110.764676 188.972955 
L 110.732685 188.510184 
L 110.700696 188.047412 
L 110.674457 187.667781 
L 110.668711 187.584641 
L 110.636711 187.12187 
L 110.604713 186.659098 
L 110.586669 186.196327 
L 110.608392 185.733556 
L 110.630116 185.270785 
L 110.651836 184.808013 
L 110.673554 184.345242 
L 110.674457 184.325993 
L 110.695277 183.882471 
L 110.716995 183.419699 
L 110.738723 182.956928 
L 110.76425 182.494157 
L 110.79782 182.031386 
L 110.834243 181.568614 
L 110.870664 181.105843 
L 110.907085 180.643072 
L 110.943511 180.180301 
L 110.975515 179.717529 
L 110.99842 179.254758 
L 111.021317 178.791987 
L 111.044216 178.329215 
L 111.08221 177.866444 
L 111.138395 177.403673 
L 111.140234 177.388527 
L 111.194587 176.940902 
L 111.250769 176.47813 
L 111.306965 176.015359 
L 111.363153 175.552588 
L 111.428193 175.089816 
L 111.513087 174.627045 
L 111.591672 174.164274 
L 111.60601 174.116537 
L 111.73557 173.701503 
L 111.887719 173.238731 
L 112.049127 172.77596 
L 112.071786 172.714424 
L 112.22267 172.313189 
L 112.396685 171.850417 
L 112.537563 171.475781 
L 112.570707 171.387646 
L 112.744736 170.924875 
L 112.918758 170.462104 
L 113.003339 170.237179 
L 113.092779 169.999332 
L 113.26681 169.536561 
L 113.440826 169.07379 
L 113.469115 168.998562 
L 113.614853 168.611018 
L 113.78887 168.148247 
L 113.934891 167.759955 
L 113.963366 167.685476 
L 114.181162 167.222705 
L 114.400668 166.809728 
L 114.427135 166.759933 
L 114.673112 166.297162 
L 114.866444 165.933422 
L 114.91908 165.834391 
L 115.165057 165.371619 
L 115.33222 165.057123 
L 115.411034 164.908848 
L 115.657001 164.446077 
L 115.797997 164.18081 
L 115.902974 163.983306 
L 116.148947 163.520534 
L 116.263773 163.304502 
L 116.394918 163.057763 
L 116.640896 162.594992 
L 116.729549 162.428197 
L 116.886864 162.13222 
L 117.132841 161.669449 
L 117.195326 161.55189 
L 117.378812 161.206678 
L 117.62477 160.743907 
L 117.661102 160.675558 
L 117.870751 160.281135 
L 118.116716 159.818364 
L 118.126878 159.799245 
L 118.362683 159.355593 
L 118.592654 158.922932 
L 118.608659 158.892821 
L 118.854634 158.43005 
L 119.058431 158.04662 
L 119.100602 157.967279 
L 119.346576 157.504508 
L 119.524207 157.170304 
L 119.592543 157.041736 
L 119.838522 156.578965 
L 119.989983 156.294012 
L 120.084499 156.116194 
L 120.364743 155.653422 
L 120.45576 155.548592 
L 120.781287 155.190651 
L 120.921536 155.036429 
L 121.202134 154.72788 
L 121.387312 154.524266 
L 121.623001 154.265109 
L 121.853088 154.012104 
L 122.043857 153.802337 
L 122.318865 153.499949 
L 122.464724 153.339566 
L 122.784641 152.987787 
L 122.885578 152.876795 
L 123.250417 152.475617 
L 123.306434 152.414023 
L 123.716194 151.963454 
L 123.729232 151.951252 
L 124.18197 151.635937 
L 124.402212 151.488481 
L 124.647746 151.324094 
L 125.09342 151.02571 
L 125.113523 151.01225 
L 125.579299 150.700403 
L 125.784616 150.562938 
L 126.045075 150.388557 
L 126.475813 150.100167 
L 126.510851 150.076708 
L 126.976628 149.76487 
L 127.167016 149.637396 
L 127.442404 149.453016 
L 127.858206 149.174624 
L 127.90818 149.141165 
L 128.373957 148.812208 
L 128.505345 148.711853 
L 128.839733 148.388795 
L 128.967282 148.249082 
L 129.305509 147.830786 
L 129.34147 147.786311 
L 129.715645 147.323539 
L 129.771285 147.254726 
L 130.093111 146.860768 
L 130.237062 146.703107 
L 130.555971 146.397997 
L 130.702838 146.257485 
L 131.039676 145.935225 
L 131.168614 145.811868 
L 131.52337 145.472454 
L 131.634391 145.366239 
L 132.007079 145.009683 
L 132.100167 144.920621 
L 132.490782 144.546912 
L 132.565943 144.475004 
L 132.974488 144.08414 
L 133.03172 144.026015 
L 133.408167 143.621369 
L 133.497496 143.533328 
L 133.947121 143.158598 
L 133.963272 143.146218 
L 134.429048 142.789221 
L 134.550897 142.695826 
L 134.894825 142.432213 
L 135.154659 142.233055 
L 135.360601 142.075203 
L 135.758424 141.770284 
L 135.826377 141.718199 
L 136.292154 141.361197 
L 136.362196 141.307513 
L 136.75793 141.004202 
L 136.965972 140.844741 
L 137.223706 140.647191 
L 137.569741 140.38197 
L 137.689482 140.290193 
L 138.155259 139.933188 
L 138.173511 139.919199 
L 138.621035 139.576184 
L 138.77728 139.456427 
L 139.086811 139.219184 
L 139.381049 138.993656 
L 139.552588 138.862175 
L 139.984818 138.530885 
L 140.018364 138.505173 
L 140.48414 138.148164 
L 140.58858 138.068114 
L 140.949917 137.791161 
L 141.192347 137.605342 
L 141.415693 137.434156 
L 141.796114 137.142571 
L 141.881469 137.077148 
L 142.347245 136.720157 
L 142.3999 136.6798 
L 142.813022 136.337384 
L 142.944654 136.217028 
L 143.278798 135.905604 
L 143.441184 135.754257 
L 143.744574 135.47149 
L 143.937707 135.291486 
L 144.210351 135.042623 
L 144.444251 134.828715 
L 144.676127 134.622978 
L 144.96583 134.365943 
L 145.141903 134.20972 
L 145.487398 133.903172 
L 145.607679 133.796449 
L 146.008967 133.440401 
L 146.073456 133.383183 
L 146.530538 132.977629 
L 146.539232 132.969916 
L 147.005008 132.556654 
L 147.052116 132.514858 
L 147.470785 132.143393 
L 147.573694 132.052087 
L 147.936561 131.730127 
L 148.095262 131.589316 
L 148.402337 131.31685 
L 148.616825 131.126544 
L 148.868114 130.903582 
L 149.13839 130.663773 
L 149.33389 130.490319 
L 149.659966 130.201002 
L 149.799666 130.07705 
L 150.181531 129.73823 
L 150.265442 129.666425 
L 150.731219 129.333127 
L 150.825709 129.275459 
L 151.196995 129.048856 
L 151.583958 128.812688 
L 151.662771 128.764587 
L 152.128548 128.480318 
L 152.342214 128.349917 
L 152.594324 128.196051 
L 153.0601 127.911781 
L 153.100464 127.887145 
L 153.525876 127.627502 
L 153.858707 127.424374 
L 153.991653 127.343236 
L 154.457429 127.056811 
L 154.594178 126.961603 
L 154.923205 126.723187 
L 155.217437 126.498831 
L 155.388982 126.36491 
L 155.810212 126.03606 
L 155.854758 126.001285 
L 156.320534 125.637658 
L 156.402986 125.573289 
L 156.786311 125.274034 
L 156.995752 125.110518 
L 157.252087 124.910396 
L 157.588529 124.647746 
L 157.717863 124.555294 
L 158.183639 124.282899 
L 158.35254 124.184975 
L 158.649416 124.012859 
L 159.115192 123.742818 
L 159.150749 123.722204 
L 159.580968 123.472784 
L 159.948953 123.259432 
L 160.046745 123.202735 
L 160.512521 122.9327 
L 160.747166 122.796661 
L 160.978297 122.66284 
L 161.444073 122.451866 
L 161.739551 122.33389 
L 161.90985 122.265895 
L 162.375626 122.079924 
L 162.841402 121.893949 
L 162.898581 121.871119 
L 163.307179 121.704916 
L 163.772955 121.486775 
L 163.937801 121.408347 
L 164.238731 121.265178 
L 164.704508 121.043579 
L 164.9105 120.945576 
L 165.170284 120.821984 
L 165.63606 120.600384 
L 165.910879 120.482805 
L 166.101836 120.403528 
L 166.567613 120.215888 
L 167.033389 120.028253 
L 167.053793 120.020033 
L 167.499165 119.840613 
L 167.964942 119.652983 
L 168.202557 119.557262 
L 168.430718 119.465351 
L 168.896494 119.355634 
L 169.36227 119.274266 
L 169.828047 119.192898 
L 170.293823 119.097833 
L 170.305782 119.094491 
L 170.759599 118.967658 
L 171.225376 118.837491 
L 171.691152 118.707327 
L 171.961682 118.63172 
L 172.156928 118.577153 
L 172.622705 118.446985 
L 173.088481 118.316814 
L 173.554257 118.186646 
L 173.617582 118.168948 
L 174.020033 118.056474 
L 174.48581 117.926306 
L 174.951586 117.796134 
L 175.273462 117.706177 
L 175.417362 117.665961 
L 175.883139 117.535793 
L 176.348915 117.405622 
L 176.814691 117.275453 
L 176.929361 117.243406 
L 177.280467 117.145282 
L 177.746244 117.015116 
L 178.21202 116.884945 
L 178.585261 116.780634 
L 178.677796 116.754773 
L 179.143573 116.624607 
L 179.609349 116.494423 
L 180.075125 116.403738 
L 180.540902 116.342777 
L 180.731245 116.317863 
L 181.006678 116.281812 
L 181.472454 116.220849 
L 181.93823 116.159888 
L 182.404007 116.098924 
L 182.869783 116.037961 
L 183.335559 115.977002 
L 183.801336 115.916043 
L 184.26707 115.855092 
L 184.267112 115.855086 
L 184.732888 115.799255 
L 185.198664 115.780872 
L 185.664441 115.777347 
L 186.130217 115.786822 
L 186.595993 115.796293 
L 187.06177 115.80576 
L 187.527546 115.815235 
L 187.993322 115.824713 
L 188.459098 115.834185 
L 188.924875 115.84366 
L 189.390651 115.85313 
L 189.487105 115.855092 
L 189.856427 115.862603 
L 190.322204 115.872073 
L 190.78798 115.881553 
L 191.253756 115.891029 
L 191.719533 115.900501 
L 192.185309 115.951877 
L 192.651085 116.057472 
L 193.116861 116.156908 
L 193.582638 116.24746 
L 193.944783 116.317863 
L 194.048414 116.33801 
L 194.51419 116.428562 
L 194.979967 116.519117 
L 195.445743 116.609666 
L 195.911519 116.700225 
L 196.325138 116.780634 
L 196.377295 116.790774 
L 196.843072 116.881327 
L 197.308848 116.971881 
L 197.774624 117.062433 
L 198.240401 117.15298 
L 198.705555 117.243406 
L 198.706177 117.243527 
L 199.171953 117.334084 
L 199.63773 117.424751 
L 200.103506 117.515467 
L 200.569282 117.606178 
L 201.035058 117.696893 
L 201.08273 117.706177 
L 201.500835 117.787607 
L 201.966611 117.878327 
L 202.432387 117.969038 
L 202.898164 118.059755 
L 203.36394 118.150469 
L 203.458825 118.168948 
L 203.829716 118.241181 
L 204.295492 118.331891 
L 204.761269 118.422605 
L 205.227045 118.525455 
L 205.547743 118.63172 
L 205.692821 118.679793 
L 206.158598 118.829842 
L 206.624374 118.968835 
L 207.042422 119.094491 
L 207.09015 119.108837 
L 207.555927 119.279203 
L 208.017089 119.557262 
L 208.021703 119.560044 
L 208.487479 119.840885 
L 208.784595 120.020033 
L 208.953255 120.121729 
L 209.419032 120.423842 
L 209.501892 120.482805 
L 209.884808 120.755276 
L 210.15223 120.945576 
L 210.350584 121.086724 
L 210.802558 121.408347 
L 210.816361 121.418169 
L 211.282137 121.667843 
L 211.747913 121.868299 
L 211.754465 121.871119 
L 212.213689 122.06874 
L 212.679466 122.269191 
L 212.829803 122.33389 
L 213.145242 122.469639 
L 213.611018 122.670088 
L 213.905149 122.796661 
L 214.076795 122.870525 
L 214.542571 123.070975 
L 214.98048 123.259432 
L 215.008347 123.271426 
L 215.474124 123.471867 
L 215.9399 123.672316 
L 216.055822 123.722204 
L 216.405676 123.872769 
L 216.871452 124.073208 
L 217.131162 124.184975 
L 217.337229 124.273656 
L 217.803005 124.474099 
L 218.206489 124.647746 
L 218.268781 124.674555 
L 218.734558 124.877696 
L 219.153882 125.110518 
L 219.200334 125.137323 
L 219.66611 125.406113 
L 219.955799 125.573289 
L 220.131886 125.674907 
L 220.597663 125.943696 
L 220.757722 126.03606 
L 221.063439 126.231902 
L 221.423266 126.498831 
L 221.529215 126.573943 
L 221.994992 126.885441 
L 222.109649 126.961603 
L 222.460768 127.194835 
L 222.806323 127.424374 
L 222.926544 127.504234 
L 223.392321 127.813649 
L 223.501821 127.887145 
L 223.858097 128.130819 
L 224.128148 128.349917 
L 224.323873 128.50871 
L 224.698561 128.812688 
L 224.789649 128.898869 
L 225.105393 129.275459 
L 225.255426 129.470002 
L 225.462281 129.73823 
L 225.721202 130.073962 
L 225.819173 130.201002 
L 226.176051 130.663773 
L 226.186978 130.677943 
L 226.532937 131.126544 
L 226.652755 131.28191 
L 226.889821 131.589316 
L 227.118531 131.885883 
L 227.246706 132.052087 
L 227.584307 132.489845 
L 227.603597 132.514858 
L 227.960482 132.977629 
L 228.050083 133.093813 
L 228.317372 133.440401 
L 228.51586 133.697781 
L 228.674256 133.903172 
L 228.981636 134.30174 
L 229.031149 134.365943 
L 229.388029 134.828715 
L 229.447412 134.900759 
L 229.823407 135.291486 
L 229.913189 135.383312 
L 230.275876 135.754257 
L 230.378965 135.859695 
L 230.728323 136.217028 
L 230.844741 136.336096 
L 231.180794 136.6798 
L 231.310518 136.812477 
L 231.633275 137.142571 
L 231.776294 137.288846 
L 232.085736 137.605342 
L 232.24207 137.765241 
L 232.538203 138.068114 
L 232.707846 138.241619 
L 232.977578 138.530885 
L 233.173623 138.741615 
L 233.407402 138.993656 
L 233.639399 139.243788 
L 233.836621 139.456427 
L 234.105175 139.733515 
L 234.299328 139.919199 
L 234.570952 140.165841 
L 234.808978 140.38197 
L 235.036728 140.588781 
L 235.318603 140.844741 
L 235.502504 141.011733 
L 235.828247 141.307513 
L 235.96828 141.434663 
L 236.337893 141.770284 
L 236.434057 141.857603 
L 236.847527 142.233055 
L 236.899833 142.28055 
L 237.357191 142.695826 
L 237.365609 142.703471 
L 237.831386 143.126411 
L 237.866831 143.158598 
L 238.297162 143.549364 
L 238.376463 143.621369 
L 238.762938 143.997695 
L 238.835195 144.08414 
L 239.14336 144.546912 
L 239.228715 144.675089 
L 239.451526 145.009683 
L 239.694491 145.374523 
L 239.759704 145.472454 
L 240.067867 145.935225 
L 240.160267 146.073987 
L 240.376015 146.397997 
L 240.626043 146.773461 
L 240.684181 146.860768 
L 240.992336 147.323539 
L 241.09182 147.472929 
L 241.300869 147.786311 
L 241.557596 148.170175 
L 241.610374 148.249082 
L 241.919887 148.711853 
L 242.023372 148.866583 
L 242.229395 149.174624 
L 242.489149 149.562993 
L 242.53891 149.637396 
L 242.848421 150.100167 
L 242.954925 150.259404 
L 243.157943 150.562938 
L 243.420701 150.955792 
L 243.467466 151.02571 
L 243.776995 151.488481 
L 243.886477 151.652163 
L 244.086523 151.951252 
L 244.352254 152.348557 
L 244.39604 152.414023 
L 244.705559 152.876795 
L 244.81803 153.102894 
L 244.931715 153.339566 
L 245.149661 153.802337 
L 245.283806 154.087176 
L 245.367604 154.265109 
L 245.585552 154.72788 
L 245.749583 155.076152 
L 245.803509 155.190651 
L 246.021448 155.653422 
L 246.215359 156.065171 
L 246.239388 156.116194 
L 246.45734 156.578965 
L 246.675288 157.041736 
L 246.681135 157.054151 
L 246.893236 157.504508 
L 247.146912 157.931047 
L 247.170542 157.967279 
L 247.510921 158.43005 
L 247.612688 158.568404 
L 247.851311 158.892821 
L 248.078464 159.201646 
L 248.192172 159.355593 
L 248.535844 159.818364 
L 248.54424 159.829622 
L 248.882783 160.281135 
L 249.010017 160.450835 
L 249.22975 160.743907 
L 249.475793 161.067739 
L 249.580319 161.206678 
L 249.935116 161.669449 
L 249.941569 161.677845 
L 250.290779 162.13222 
L 250.407346 162.28389 
L 250.644604 162.594992 
L 250.873122 162.972845 
L 250.921458 163.057763 
L 251.17308 163.520534 
L 251.338898 163.825499 
L 251.424702 163.983306 
L 251.676324 164.446077 
L 251.804674 164.660199 
L 251.953245 164.908848 
L 252.238219 165.371619 
L 252.270451 165.422404 
L 252.531927 165.834391 
L 252.736227 166.149014 
L 252.826261 166.297162 
L 253.070703 166.759933 
L 253.202003 167.017422 
L 253.306683 167.222705 
L 253.542681 167.685476 
L 253.66778 167.9308 
L 253.778661 168.148247 
L 254.014642 168.611018 
L 254.133556 168.844209 
L 254.250631 169.07379 
L 254.486622 169.536561 
L 254.599332 169.757596 
L 254.7226 169.999332 
L 254.958593 170.462104 
L 255.065109 170.705382 
L 255.156389 170.924875 
L 255.239455 171.387646 
L 255.322519 171.850417 
L 255.405582 172.313189 
L 255.45285 172.77596 
L 255.337427 173.238731 
L 255.202512 173.701503 
L 255.067095 174.164274 
L 255.065109 174.170896 
L 254.932399 174.627045 
L 254.798782 175.089816 
L 254.666949 175.552588 
L 254.671871 176.015359 
L 254.773389 176.47813 
L 254.87464 176.940902 
L 254.97617 177.403673 
L 255.065109 177.809039 
L 255.0784 177.866444 
L 255.185226 178.329215 
L 255.291486 178.791987 
L 255.397189 179.254758 
L 255.50234 179.717529 
L 255.530885 179.84357 
L 255.60844 180.180301 
L 255.715014 180.643072 
L 255.821595 181.105843 
L 255.97673 181.568614 
L 255.996661 181.623931 
L 256.143559 182.031386 
L 256.309652 182.494157 
L 256.462437 182.920177 
L 256.475617 182.956928 
L 256.641921 183.419699 
L 256.808981 183.882471 
L 256.928214 184.215615 
L 256.974199 184.345242 
L 257.135918 184.808013 
L 257.297626 185.270785 
L 257.39399 185.546534 
L 257.459345 185.733556 
L 257.621059 186.196327 
L 257.782711 186.659098 
L 257.859766 186.890936 
L 257.937801 187.12187 
L 258.083165 187.584641 
L 258.226252 188.047412 
L 258.325543 188.372186 
L 258.367608 188.510184 
L 258.503464 188.972955 
L 258.57542 189.435726 
L 258.581392 189.898497 
L 258.580337 190.361269 
L 258.579273 190.82404 
L 258.578218 191.286811 
L 258.577149 191.749583 
L 258.425349 192.212354 
L 258.325543 192.442619 
L 258.224766 192.675125 
L 258.024182 193.137896 
L 257.859766 193.517216 
L 257.823596 193.600668 
L 257.623016 194.063439 
L 257.422434 194.52621 
L 257.39399 194.591834 
L 257.221853 194.988982 
L 257.021268 195.451753 
L 256.928214 195.666449 
L 256.820687 195.914524 
L 256.620102 196.377295 
L 256.462437 196.741042 
L 256.419516 196.840067 
L 256.218929 197.302838 
L 256.018349 197.765609 
L 255.996661 197.815648 
L 255.817767 198.228381 
L 255.617181 198.691152 
L 255.530885 198.890244 
L 255.416595 199.153923 
L 255.216005 199.616694 
L 255.065109 199.964844 
L 255.015427 200.079466 
L 254.814839 200.542237 
L 254.614258 201.005008 
L 254.599332 201.039443 
L 254.413667 201.46778 
L 254.213087 201.930551 
L 254.133556 202.114044 
L 254.012507 202.393322 
L 253.811915 202.856093 
L 253.66778 203.188636 
L 253.611334 203.318865 
L 253.410749 203.781636 
L 253.210158 204.244407 
L 253.202003 204.263221 
L 253.00958 204.707179 
L 252.808994 205.16995 
L 252.736227 205.337835 
L 252.608414 205.632721 
L 252.407817 206.095492 
L 252.270451 206.412408 
L 252.207232 206.558264 
L 252.006655 207.021035 
L 251.80607 207.483806 
L 251.804674 207.486666 
L 251.567697 207.946578 
L 251.338898 208.331086 
L 251.292329 208.409349 
L 251.016951 208.87212 
L 250.873122 209.11383 
L 250.741668 209.334891 
L 250.467915 209.797663 
L 250.407346 209.900065 
L 250.194193 210.260434 
L 249.941569 210.687551 
L 249.920481 210.723205 
L 249.646747 211.185977 
L 249.475793 211.475006 
L 249.373027 211.648748 
L 249.099302 212.111519 
L 249.010017 212.262472 
L 248.825579 212.57429 
L 248.547114 213.037062 
L 248.54424 213.041454 
L 248.228757 213.499833 
L 248.078464 213.718196 
L 247.910243 213.962604 
L 247.612688 214.394938 
L 247.591739 214.425376 
L 247.273231 214.888147 
L 247.146912 215.071652 
L 246.952749 215.350918 
L 246.681135 215.740894 
L 246.630435 215.813689 
L 246.308122 216.276461 
L 246.215359 216.408641 
L 245.942653 216.739232 
L 245.749583 216.921694 
L 245.446324 217.202003 
L 245.283806 217.352224 
L 244.945667 217.664775 
L 244.81803 217.782752 
L 244.445007 218.127546 
L 244.352254 218.213279 
L 243.944353 218.590317 
L 243.886477 218.644044 
L 243.482911 219.053088 
L 243.420701 219.116839 
L 243.009945 219.51586 
L 242.954925 219.56764 
L 242.518219 219.978631 
L 242.489149 220.00599 
L 242.026497 220.441402 
L 242.023372 220.444343 
L 241.557596 220.882703 
L 241.535229 220.904174 
L 241.09182 221.351408 
L 241.076471 221.366945 
L 240.626043 221.812183 
L 240.606257 221.829716 
L 240.160267 222.18318 
L 240.022355 222.292487 
L 239.694491 222.552349 
L 239.438466 222.755259 
L 239.228715 222.921497 
L 238.854568 223.21803 
L 238.762938 223.290652 
L 238.297162 223.659806 
L 238.270672 223.680801 
L 237.831386 224.028955 
L 237.686763 224.143573 
L 237.365609 224.398111 
L 237.102868 224.606344 
L 236.899833 224.767256 
L 236.518976 225.069115 
L 236.434057 225.136419 
L 235.96828 225.50557 
L 235.932727 225.531886 
L 235.502504 225.818443 
L 235.214914 225.994658 
L 235.036728 226.103839 
L 234.570952 226.389228 
L 234.440007 226.457429 
L 234.105175 226.62468 
L 233.639399 226.855881 
L 233.50982 226.9202 
L 233.173623 227.08708 
L 232.707846 227.318279 
L 232.577516 227.382972 
L 232.24207 227.549479 
L 231.776294 227.780677 
L 231.645209 227.845743 
L 231.310518 228.011874 
L 230.844741 228.243071 
L 230.712901 228.308514 
L 230.378965 228.474276 
L 229.913189 228.705469 
L 229.780593 228.771285 
L 229.447412 228.936668 
L 228.981636 229.167869 
L 228.848295 229.234057 
L 228.51586 229.399069 
L 228.050083 229.63027 
L 227.915994 229.696828 
L 227.584307 229.861468 
L 227.118531 230.092685 
L 226.986507 230.159599 
L 226.652755 230.328029 
L 226.186978 230.547138 
L 226.014101 230.622371 
L 225.721202 230.749831 
L 225.255426 230.952525 
L 224.950685 231.085142 
L 224.789649 231.157986 
L 224.323873 231.43927 
L 224.163315 231.547913 
L 223.858097 231.754441 
L 223.479917 232.010684 
L 223.392321 232.070932 
L 222.926544 232.403184 
L 222.828035 232.473456 
L 222.460768 232.735448 
L 222.141896 232.936227 
L 221.994992 233.017422 
L 221.529215 233.231446 
L 221.164575 233.398998 
L 221.063439 233.44547 
L 220.597663 233.659492 
L 220.157439 233.86177 
L 220.131886 233.87351 
L 219.66611 234.087531 
L 219.200334 234.301553 
L 219.150305 234.324541 
L 218.734558 234.504793 
L 218.268781 234.677781 
L 217.970941 234.787312 
L 217.803005 234.848906 
L 217.337229 235.019306 
L 216.871452 235.190444 
L 216.731014 235.250083 
L 216.405676 235.403808 
L 215.9399 235.629801 
L 215.78028 235.712855 
L 215.474124 235.881104 
L 215.008347 236.166464 
L 214.993386 236.175626 
L 214.542571 236.451687 
L 214.237665 236.638397 
L 214.076795 236.73691 
L 213.611018 237.022135 
L 213.481955 237.101169 
L 213.145242 237.307356 
L 212.726229 237.56394 
L 212.679466 237.592576 
L 212.213689 237.877795 
L 211.970502 238.026711 
L 211.747913 238.163018 
L 211.282137 238.448246 
L 211.21479 238.489482 
L 210.816361 238.733453 
L 210.458995 238.952254 
L 210.350584 239.018633 
L 209.884808 239.303798 
L 209.70313 239.415025 
L 209.419032 239.588957 
L 208.953255 239.874123 
L 208.947255 239.877796 
L 208.487479 240.159282 
L 208.191376 240.340568 
L 208.021703 240.444448 
L 207.555927 240.72961 
L 207.435477 240.803339 
L 207.09015 241.014741 
L 206.624374 241.261639 
L 206.61477 241.26611 
L 206.158598 241.478369 
L 205.692821 241.695279 
L 205.62063 241.728881 
L 205.227045 241.906799 
L 204.761269 242.018099 
L 204.295492 242.118463 
L 203.955777 242.191653 
L 203.829716 242.218798 
L 203.36394 242.319136 
L 202.898164 242.419519 
L 202.432387 242.519869 
L 201.966611 242.620225 
L 201.807867 242.654424 
L 201.500835 242.720565 
L 201.035058 242.820931 
L 200.569282 242.921281 
L 200.103506 243.021634 
L 199.659982 243.117195 
L 199.63773 243.12199 
L 199.171953 243.222346 
L 198.706177 243.322693 
L 198.240401 243.423053 
L 197.774624 243.523403 
L 197.512105 243.579967 
L 197.308848 243.623762 
L 196.843072 243.72411 
L 196.377295 243.81523 
L 195.911519 243.830513 
L 195.445743 243.845804 
L 194.979967 243.861084 
L 194.51419 243.876372 
L 194.048414 243.891653 
L 193.582638 243.906939 
L 193.116861 243.922218 
L 192.651085 243.93751 
L 192.185309 243.952799 
L 191.719533 243.968076 
L 191.253756 243.983366 
L 190.78798 243.99865 
L 190.322204 244.01394 
L 189.856427 244.029224 
L 189.444388 244.042738 
L 189.390651 244.0445 
L 188.924875 244.059793 
L 188.459098 244.075083 
L 187.993322 244.090368 
L 187.527546 244.105643 
L 187.06177 244.057031 
z
" clip-path="url(#p3805e9db45)" style="fill: none; stroke: #000000; stroke-width: 1.5"/>
   </g>
   <g id="patch_3">
    <path d="M 45 320.4 
L 45 43.2 
" style="fill: none; stroke: #000000; stroke-width: 0.8; stroke-linejoin: miter; stroke-linecap: square"/>
   </g>
   <g id="patch_4">
    <path d="M 324 320.4 
L 324 43.2 
" style="fill: none; stroke: #000000; stroke-width: 0.8; stroke-linejoin: miter; stroke-linecap: square"/>
   </g>
   <g id="patch_5">
    <path d="M 45 320.4 
L 324 320.4 
" style="fill: none; stroke: #000000; stroke-width: 0.8; stroke-linejoin: miter; stroke-linecap: square"/>
   </g>
   <g id="patch_6">
    <path d="M 45 43.2 
L 324 43.2 
" style="fill: none; stroke: #000000; stroke-width: 0.8; stroke-linejoin: miter; stroke-linecap: square"/>
   </g>
  </g>
 </g>
 <defs>
  <clipPath id="p3805e9db45">
   <rect x="45" y="43.2" width="279" height="277.2"/>
  </clipPath>
 </defs>
</svg>
