<?xml version="1.0" encoding="utf-8" standalone="no"?>
<!DOCTYPE svg PUBLIC "-//W3C//DTD SVG 1.1//EN"
  "http://www.w3.org/Graphics/SVG/1.1/DTD/svg11.dtd">
<svg xmlns:xlink="http://www.w3.org/1999/xlink" width="360pt" height="360pt" viewBox="0 0 360 360" xmlns="http://www.w3.org/2000/svg" version="1.1">
 <metadata>
  <rdf:RDF xmlns:dc="http://purl.org/dc/elements/1.1/" xmlns:cc="http://creativecommons.org/ns#" xmlns:rdf="http://www.w3.org/1999/02/22-rdf-syntax-ns#">
   <cc:Work>
    <dc:type rdf:resource="http://purl.org/dc/dcmitype/StillImage"/>
    <dc:date>2022-04-10T19:53:23.186173</dc:date>
    <dc:format>image/svg+xml</dc:format>
    <dc:creator>
     <cc:Agent>
      <dc:title>Matplotlib v3.5.1, https://matplotlib.org/</dc:title>
     </cc:Agent>
    </dc:creator>
   </cc:Work>
  </rdf:RDF>
 </metadata>
 <defs>
  <style type="text/css">*{stroke-linejoin: round; stroke-linecap: butt}</style>
 </defs>
 <g id="figure_1">
  <g id="patch_1">
   <path d="M 0 360 
L 360 360 
L 360 0 
L 0 0 
z
" style="fill: #ffffff"/>
  </g>
  <g id="axes_1">
   <g id="patch_2">
    <path d="M 45 320.4 
L 324 320.4 
L 324 43.2 
L 45 43.2 
z
" style="fill: #ffffff"/>
   </g>
   <g id="PathCollection_1">
    <defs>
     <path id="m98f91b7878" d="M 0 0.5 
C 0.132602 0.5 0.25979 0.447317 0.353553 0.353553 
C 0.447317 0.25979 0.5 0.132602 0.5 0 
C 0.5 -0.132602 0.447317 -0.25979 0.353553 -0.353553 
C 0.25979 -0.447317 0.132602 -0.5 0 -0.5 
C -0.132602 -0.5 -0.25979 -0.447317 -0.353553 -0.353553 
C -0.447317 -0.25979 -0.5 -0.132602 -0.5 0 
C -0.5 0.132602 -0.447317 0.25979 -0.353553 0.353553 
C -0.25979 0.447317 -0.132602 0.5 0 0.5 
z
" style="stroke: #ff0000"/>
    </defs>
    <g clip-path="url(#p4e62d6d88c)">
     <use xlink:href="#m98f91b7878" x="240.139574" y="181.336455" style="fill: #ff0000; stroke: #ff0000"/>
     <use xlink:href="#m98f91b7878" x="239.902515" y="175.960643" style="fill: #ff0000; stroke: #ff0000"/>
     <use xlink:href="#m98f91b7878" x="238.767543" y="170.703816" style="fill: #ff0000; stroke: #ff0000"/>
     <use xlink:href="#m98f91b7878" x="236.859085" y="165.696586" style="fill: #ff0000; stroke: #ff0000"/>
     <use xlink:href="#m98f91b7878" x="234.266999" y="161.04729" style="fill: #ff0000; stroke: #ff0000"/>
     <use xlink:href="#m98f91b7878" x="231.02367" y="156.87724" style="fill: #ff0000; stroke: #ff0000"/>
     <use xlink:href="#m98f91b7878" x="227.134097" y="153.342782" style="fill: #ff0000; stroke: #ff0000"/>
     <use xlink:href="#m98f91b7878" x="222.641454" y="150.616942" style="fill: #ff0000; stroke: #ff0000"/>
     <use xlink:href="#m98f91b7878" x="217.684172" y="148.829919" style="fill: #ff0000; stroke: #ff0000"/>
     <use xlink:href="#m98f91b7878" x="212.502037" y="148.000838" style="fill: #ff0000; stroke: #ff0000"/>
     <use xlink:href="#m98f91b7878" x="207.38206" y="148.005715" style="fill: #ff0000; stroke: #ff0000"/>
     <use xlink:href="#m98f91b7878" x="202.575757" y="148.6045" style="fill: #ff0000; stroke: #ff0000"/>
     <use xlink:href="#m98f91b7878" x="198.23516" y="149.509874" style="fill: #ff0000; stroke: #ff0000"/>
     <use xlink:href="#m98f91b7878" x="194.394968" y="150.455669" style="fill: #ff0000; stroke: #ff0000"/>
     <use xlink:href="#m98f91b7878" x="190.993539" y="151.232244" style="fill: #ff0000; stroke: #ff0000"/>
     <use xlink:href="#m98f91b7878" x="187.905548" y="151.688881" style="fill: #ff0000; stroke: #ff0000"/>
     <use xlink:href="#m98f91b7878" x="184.966555" y="151.730193" style="fill: #ff0000; stroke: #ff0000"/>
     <use xlink:href="#m98f91b7878" x="181.992245" y="151.332608" style="fill: #ff0000; stroke: #ff0000"/>
     <use xlink:href="#m98f91b7878" x="178.809105" y="150.580575" style="fill: #ff0000; stroke: #ff0000"/>
     <use xlink:href="#m98f91b7878" x="175.305504" y="149.693709" style="fill: #ff0000; stroke: #ff0000"/>
     <use xlink:href="#m98f91b7878" x="171.489764" y="149.010512" style="fill: #ff0000; stroke: #ff0000"/>
     <use xlink:href="#m98f91b7878" x="167.524904" y="148.915944" style="fill: #ff0000; stroke: #ff0000"/>
     <use xlink:href="#m98f91b7878" x="163.712243" y="149.73235" style="fill: #ff0000; stroke: #ff0000"/>
     <use xlink:href="#m98f91b7878" x="160.416391" y="151.61499" style="fill: #ff0000; stroke: #ff0000"/>
     <use xlink:href="#m98f91b7878" x="157.950831" y="154.495026" style="fill: #ff0000; stroke: #ff0000"/>
     <use xlink:href="#m98f91b7878" x="156.464156" y="158.096052" style="fill: #ff0000; stroke: #ff0000"/>
     <use xlink:href="#m98f91b7878" x="155.872844" y="162.022077" style="fill: #ff0000; stroke: #ff0000"/>
     <use xlink:href="#m98f91b7878" x="155.872161" y="165.885508" style="fill: #ff0000; stroke: #ff0000"/>
     <use xlink:href="#m98f91b7878" x="156.025434" y="169.425991" style="fill: #ff0000; stroke: #ff0000"/>
     <use xlink:href="#m98f91b7878" x="155.897586" y="172.57537" style="fill: #ff0000; stroke: #ff0000"/>
     <use xlink:href="#m98f91b7878" x="155.180341" y="175.449833" style="fill: #ff0000; stroke: #ff0000"/>
     <use xlink:href="#m98f91b7878" x="153.765176" y="178.283214" style="fill: #ff0000; stroke: #ff0000"/>
     <use xlink:href="#m98f91b7878" x="151.749816" y="181.336455" style="fill: #ff0000; stroke: #ff0000"/>
     <use xlink:href="#m98f91b7878" x="149.39447" y="184.817396" style="fill: #ff0000; stroke: #ff0000"/>
     <use xlink:href="#m98f91b7878" x="147.055908" y="188.828701" style="fill: #ff0000; stroke: #ff0000"/>
     <use xlink:href="#m98f91b7878" x="145.117675" y="193.346493" style="fill: #ff0000; stroke: #ff0000"/>
     <use xlink:href="#m98f91b7878" x="143.919794" y="198.228889" style="fill: #ff0000; stroke: #ff0000"/>
     <use xlink:href="#m98f91b7878" x="143.691029" y="203.256347" style="fill: #ff0000; stroke: #ff0000"/>
     <use xlink:href="#m98f91b7878" x="144.501989" y="208.199578" style="fill: #ff0000; stroke: #ff0000"/>
     <use xlink:href="#m98f91b7878" x="146.266393" y="212.891952" style="fill: #ff0000; stroke: #ff0000"/>
     <use xlink:href="#m98f91b7878" x="148.800097" y="217.269581" style="fill: #ff0000; stroke: #ff0000"/>
     <use xlink:href="#m98f91b7878" x="151.911364" y="221.354465" style="fill: #ff0000; stroke: #ff0000"/>
     <use xlink:href="#m98f91b7878" x="155.473574" y="225.191051" style="fill: #ff0000; stroke: #ff0000"/>
     <use xlink:href="#m98f91b7878" x="159.445303" y="228.775315" style="fill: #ff0000; stroke: #ff0000"/>
     <use xlink:href="#m98f91b7878" x="163.839099" y="232.013573" style="fill: #ff0000; stroke: #ff0000"/>
     <use xlink:href="#m98f91b7878" x="168.666848" y="234.722724" style="fill: #ff0000; stroke: #ff0000"/>
     <use xlink:href="#m98f91b7878" x="173.890033" y="236.662632" style="fill: #ff0000; stroke: #ff0000"/>
     <use xlink:href="#m98f91b7878" x="179.390131" y="237.589564" style="fill: #ff0000; stroke: #ff0000"/>
     <use xlink:href="#m98f91b7878" x="184.966555" y="237.324381" style="fill: #ff0000; stroke: #ff0000"/>
     <use xlink:href="#m98f91b7878" x="190.367834" y="235.822749" style="fill: #ff0000; stroke: #ff0000"/>
     <use xlink:href="#m98f91b7878" x="195.353939" y="233.220453" style="fill: #ff0000; stroke: #ff0000"/>
     <use xlink:href="#m98f91b7878" x="199.770742" y="229.824462" style="fill: #ff0000; stroke: #ff0000"/>
     <use xlink:href="#m98f91b7878" x="203.603903" y="226.040706" style="fill: #ff0000; stroke: #ff0000"/>
     <use xlink:href="#m98f91b7878" x="206.983617" y="222.261732" style="fill: #ff0000; stroke: #ff0000"/>
     <use xlink:href="#m98f91b7878" x="210.134583" y="218.76006" style="fill: #ff0000; stroke: #ff0000"/>
     <use xlink:href="#m98f91b7878" x="213.294006" y="215.630863" style="fill: #ff0000; stroke: #ff0000"/>
     <use xlink:href="#m98f91b7878" x="216.63551" y="212.801094" style="fill: #ff0000; stroke: #ff0000"/>
     <use xlink:href="#m98f91b7878" x="220.227474" y="210.087647" style="fill: #ff0000; stroke: #ff0000"/>
     <use xlink:href="#m98f91b7878" x="224.028362" y="207.268331" style="fill: #ff0000; stroke: #ff0000"/>
     <use xlink:href="#m98f91b7878" x="227.901444" y="204.137572" style="fill: #ff0000; stroke: #ff0000"/>
     <use xlink:href="#m98f91b7878" x="231.633874" y="200.54198" style="fill: #ff0000; stroke: #ff0000"/>
     <use xlink:href="#m98f91b7878" x="234.962489" y="196.40471" style="fill: #ff0000; stroke: #ff0000"/>
     <use xlink:href="#m98f91b7878" x="237.617263" y="191.741765" style="fill: #ff0000; stroke: #ff0000"/>
     <use xlink:href="#m98f91b7878" x="239.380587" y="186.661193" style="fill: #ff0000; stroke: #ff0000"/>
    </g>
   </g>
   <g id="matplotlib.axis_1">
    <g id="xtick_1">
     <g id="line2d_1">
      <defs>
       <path id="m73bea8df90" d="M 0 0 
L 0 3.5 
" style="stroke: #000000; stroke-width: 0.8"/>
      </defs>
      <g>
       <use xlink:href="#m73bea8df90" x="45" y="320.4" style="stroke: #000000; stroke-width: 0.8"/>
      </g>
     </g>
     <g id="text_1">
      <!-- −3 -->
      <g transform="translate(37.628906 334.998438)scale(0.1 -0.1)">
       <defs>
        <path id="DejaVuSans-2212" d="M 678 2272 
L 4684 2272 
L 4684 1741 
L 678 1741 
L 678 2272 
z
" transform="scale(0.015625)"/>
        <path id="DejaVuSans-33" d="M 2597 2516 
Q 3050 2419 3304 2112 
Q 3559 1806 3559 1356 
Q 3559 666 3084 287 
Q 2609 -91 1734 -91 
Q 1441 -91 1130 -33 
Q 819 25 488 141 
L 488 750 
Q 750 597 1062 519 
Q 1375 441 1716 441 
Q 2309 441 2620 675 
Q 2931 909 2931 1356 
Q 2931 1769 2642 2001 
Q 2353 2234 1838 2234 
L 1294 2234 
L 1294 2753 
L 1863 2753 
Q 2328 2753 2575 2939 
Q 2822 3125 2822 3475 
Q 2822 3834 2567 4026 
Q 2313 4219 1838 4219 
Q 1578 4219 1281 4162 
Q 984 4106 628 3988 
L 628 4550 
Q 988 4650 1302 4700 
Q 1616 4750 1894 4750 
Q 2613 4750 3031 4423 
Q 3450 4097 3450 3541 
Q 3450 3153 3228 2886 
Q 3006 2619 2597 2516 
z
" transform="scale(0.015625)"/>
       </defs>
       <use xlink:href="#DejaVuSans-2212"/>
       <use xlink:href="#DejaVuSans-33" x="83.789062"/>
      </g>
     </g>
    </g>
    <g id="xtick_2">
     <g id="line2d_2">
      <g>
       <use xlink:href="#m73bea8df90" x="91.655518" y="320.4" style="stroke: #000000; stroke-width: 0.8"/>
      </g>
     </g>
     <g id="text_2">
      <!-- −2 -->
      <g transform="translate(84.284425 334.998438)scale(0.1 -0.1)">
       <defs>
        <path id="DejaVuSans-32" d="M 1228 531 
L 3431 531 
L 3431 0 
L 469 0 
L 469 531 
Q 828 903 1448 1529 
Q 2069 2156 2228 2338 
Q 2531 2678 2651 2914 
Q 2772 3150 2772 3378 
Q 2772 3750 2511 3984 
Q 2250 4219 1831 4219 
Q 1534 4219 1204 4116 
Q 875 4013 500 3803 
L 500 4441 
Q 881 4594 1212 4672 
Q 1544 4750 1819 4750 
Q 2544 4750 2975 4387 
Q 3406 4025 3406 3419 
Q 3406 3131 3298 2873 
Q 3191 2616 2906 2266 
Q 2828 2175 2409 1742 
Q 1991 1309 1228 531 
z
" transform="scale(0.015625)"/>
       </defs>
       <use xlink:href="#DejaVuSans-2212"/>
       <use xlink:href="#DejaVuSans-32" x="83.789062"/>
      </g>
     </g>
    </g>
    <g id="xtick_3">
     <g id="line2d_3">
      <g>
       <use xlink:href="#m73bea8df90" x="138.311037" y="320.4" style="stroke: #000000; stroke-width: 0.8"/>
      </g>
     </g>
     <g id="text_3">
      <!-- −1 -->
      <g transform="translate(130.939943 334.998438)scale(0.1 -0.1)">
       <defs>
        <path id="DejaVuSans-31" d="M 794 531 
L 1825 531 
L 1825 4091 
L 703 3866 
L 703 4441 
L 1819 4666 
L 2450 4666 
L 2450 531 
L 3481 531 
L 3481 0 
L 794 0 
L 794 531 
z
" transform="scale(0.015625)"/>
       </defs>
       <use xlink:href="#DejaVuSans-2212"/>
       <use xlink:href="#DejaVuSans-31" x="83.789062"/>
      </g>
     </g>
    </g>
    <g id="xtick_4">
     <g id="line2d_4">
      <g>
       <use xlink:href="#m73bea8df90" x="184.966555" y="320.4" style="stroke: #000000; stroke-width: 0.8"/>
      </g>
     </g>
     <g id="text_4">
      <!-- 0 -->
      <g transform="translate(181.785305 334.998438)scale(0.1 -0.1)">
       <defs>
        <path id="DejaVuSans-30" d="M 2034 4250 
Q 1547 4250 1301 3770 
Q 1056 3291 1056 2328 
Q 1056 1369 1301 889 
Q 1547 409 2034 409 
Q 2525 409 2770 889 
Q 3016 1369 3016 2328 
Q 3016 3291 2770 3770 
Q 2525 4250 2034 4250 
z
M 2034 4750 
Q 2819 4750 3233 4129 
Q 3647 3509 3647 2328 
Q 3647 1150 3233 529 
Q 2819 -91 2034 -91 
Q 1250 -91 836 529 
Q 422 1150 422 2328 
Q 422 3509 836 4129 
Q 1250 4750 2034 4750 
z
" transform="scale(0.015625)"/>
       </defs>
       <use xlink:href="#DejaVuSans-30"/>
      </g>
     </g>
    </g>
    <g id="xtick_5">
     <g id="line2d_5">
      <g>
       <use xlink:href="#m73bea8df90" x="231.622074" y="320.4" style="stroke: #000000; stroke-width: 0.8"/>
      </g>
     </g>
     <g id="text_5">
      <!-- 1 -->
      <g transform="translate(228.440824 334.998438)scale(0.1 -0.1)">
       <use xlink:href="#DejaVuSans-31"/>
      </g>
     </g>
    </g>
    <g id="xtick_6">
     <g id="line2d_6">
      <g>
       <use xlink:href="#m73bea8df90" x="278.277592" y="320.4" style="stroke: #000000; stroke-width: 0.8"/>
      </g>
     </g>
     <g id="text_6">
      <!-- 2 -->
      <g transform="translate(275.096342 334.998438)scale(0.1 -0.1)">
       <use xlink:href="#DejaVuSans-32"/>
      </g>
     </g>
    </g>
   </g>
   <g id="matplotlib.axis_2">
    <g id="ytick_1">
     <g id="line2d_7">
      <defs>
       <path id="m42621232db" d="M 0 0 
L -3.5 0 
" style="stroke: #000000; stroke-width: 0.8"/>
      </defs>
      <g>
       <use xlink:href="#m42621232db" x="45" y="320.4" style="stroke: #000000; stroke-width: 0.8"/>
      </g>
     </g>
     <g id="text_7">
      <!-- −3 -->
      <g transform="translate(23.257812 324.199219)scale(0.1 -0.1)">
       <use xlink:href="#DejaVuSans-2212"/>
       <use xlink:href="#DejaVuSans-33" x="83.789062"/>
      </g>
     </g>
    </g>
    <g id="ytick_2">
     <g id="line2d_8">
      <g>
       <use xlink:href="#m42621232db" x="45" y="274.045485" style="stroke: #000000; stroke-width: 0.8"/>
      </g>
     </g>
     <g id="text_8">
      <!-- −2 -->
      <g transform="translate(23.257812 277.844704)scale(0.1 -0.1)">
       <use xlink:href="#DejaVuSans-2212"/>
       <use xlink:href="#DejaVuSans-32" x="83.789062"/>
      </g>
     </g>
    </g>
    <g id="ytick_3">
     <g id="line2d_9">
      <g>
       <use xlink:href="#m42621232db" x="45" y="227.69097" style="stroke: #000000; stroke-width: 0.8"/>
      </g>
     </g>
     <g id="text_9">
      <!-- −1 -->
      <g transform="translate(23.257812 231.490189)scale(0.1 -0.1)">
       <use xlink:href="#DejaVuSans-2212"/>
       <use xlink:href="#DejaVuSans-31" x="83.789062"/>
      </g>
     </g>
    </g>
    <g id="ytick_4">
     <g id="line2d_10">
      <g>
       <use xlink:href="#m42621232db" x="45" y="181.336455" style="stroke: #000000; stroke-width: 0.8"/>
      </g>
     </g>
     <g id="text_10">
      <!-- 0 -->
      <g transform="translate(31.6375 185.135674)scale(0.1 -0.1)">
       <use xlink:href="#DejaVuSans-30"/>
      </g>
     </g>
    </g>
    <g id="ytick_5">
     <g id="line2d_11">
      <g>
       <use xlink:href="#m42621232db" x="45" y="134.98194" style="stroke: #000000; stroke-width: 0.8"/>
      </g>
     </g>
     <g id="text_11">
      <!-- 1 -->
      <g transform="translate(31.6375 138.781159)scale(0.1 -0.1)">
       <use xlink:href="#DejaVuSans-31"/>
      </g>
     </g>
    </g>
    <g id="ytick_6">
     <g id="line2d_12">
      <g>
       <use xlink:href="#m42621232db" x="45" y="88.627425" style="stroke: #000000; stroke-width: 0.8"/>
      </g>
     </g>
     <g id="text_12">
      <!-- 2 -->
      <g transform="translate(31.6375 92.426643)scale(0.1 -0.1)">
       <use xlink:href="#DejaVuSans-32"/>
      </g>
     </g>
    </g>
   </g>
   <g id="PathCollection_2">
    <path d="M 180.301003 213.367548 
L 179.415786 212.857525 
L 179.367893 212.830651 
L 178.434783 212.248813 
L 177.917243 211.930435 
L 177.501672 211.661588 
L 176.568562 211.031069 
L 176.526239 211.003344 
L 175.635452 210.393615 
L 175.142591 210.076254 
L 174.702341 209.834357 
L 173.769231 209.352798 
L 173.376126 209.149164 
L 172.83612 208.869168 
L 171.90301 208.376422 
L 171.668509 208.222074 
L 170.9699 207.709164 
L 170.515857 207.294983 
L 170.036789 206.724169 
L 169.738063 206.367893 
L 169.103679 205.601359 
L 168.969718 205.440803 
L 168.532889 204.513712 
L 168.495982 203.586622 
L 168.518321 202.659532 
L 168.676915 201.732441 
L 168.857116 200.805351 
L 169.064902 199.878261 
L 169.103679 199.73043 
L 169.337483 198.951171 
L 169.639384 198.02408 
L 170.036789 197.138102 
L 170.055414 197.09699 
L 170.479384 196.1699 
L 170.928286 195.242809 
L 170.9699 195.156527 
L 171.377222 194.315719 
L 171.826343 193.388629 
L 171.90301 193.128089 
L 172.099235 192.461538 
L 172.233263 191.534448 
L 172.418947 190.607358 
L 172.707761 189.680268 
L 172.83612 189.297678 
L 173.017857 188.753177 
L 173.328329 187.826087 
L 173.645383 186.898997 
L 173.769231 186.539073 
L 173.964391 185.971906 
L 174.32103 185.044816 
L 174.702341 184.321943 
L 174.831654 184.117726 
L 175.436497 183.190635 
L 175.635452 182.894217 
L 176.093641 182.263545 
L 176.568562 181.628253 
L 176.801685 181.336455 
L 177.501672 180.462082 
L 177.544732 180.409365 
L 178.302186 179.482274 
L 178.434783 179.199197 
L 178.743403 178.555184 
L 179.367893 177.715159 
L 179.553579 177.628094 
L 180.301003 177.347372 
L 181.234114 176.94062 
L 181.647197 176.701003 
L 182.167224 176.389724 
L 183.100334 175.893729 
L 183.624214 175.773913 
L 184.033445 175.689479 
L 184.966555 175.626963 
L 185.899666 175.696807 
L 186.832776 175.708838 
L 187.765886 175.769952 
L 188.698997 175.677862 
L 189.632107 175.564213 
L 190.565217 175.509778 
L 191.498328 175.616798 
L 192.431438 175.668483 
L 193.364548 175.67464 
L 194.297659 175.667225 
L 195.230769 175.665125 
L 196.16388 175.494408 
L 197.09699 175.229468 
L 197.857091 174.846823 
L 198.0301 174.760622 
L 198.963211 174.307018 
L 199.690197 173.919732 
L 199.896321 173.813161 
L 200.829431 173.272573 
L 201.347673 172.992642 
L 201.762542 172.801985 
L 202.695652 172.468021 
L 203.628763 172.13624 
L 203.924053 172.065552 
L 204.561873 171.906632 
L 205.494983 171.806278 
L 206.428094 171.722462 
L 207.361204 171.638646 
L 208.294314 171.554828 
L 209.227425 171.471011 
L 210.160535 171.414391 
L 211.093645 171.383237 
L 212.026756 171.548815 
L 212.656845 172.065552 
L 212.959866 172.366686 
L 213.589755 172.992642 
L 213.892977 173.30845 
L 214.39113 173.919732 
L 214.826087 174.44283 
L 215.097193 174.846823 
L 215.759197 175.70105 
L 215.809228 175.773913 
L 216.082601 176.701003 
L 216.277537 177.628094 
L 216.523038 178.555184 
L 216.692308 179.107016 
L 216.807407 179.482274 
L 216.773593 180.409365 
L 216.733224 181.336455 
L 216.692308 181.51013 
L 216.493429 182.263545 
L 215.937713 183.190635 
L 215.759197 183.488866 
L 215.369447 184.117726 
L 214.826087 184.921437 
L 214.738571 185.044816 
L 214.031404 185.971906 
L 213.892977 186.125058 
L 213.055173 186.898997 
L 212.959866 186.981548 
L 212.026756 187.789773 
L 211.984788 187.826087 
L 211.093645 188.586274 
L 210.898958 188.753177 
L 210.160535 189.370621 
L 209.790226 189.680268 
L 209.227425 190.094762 
L 208.415827 190.607358 
L 208.294314 190.684967 
L 207.361204 191.373102 
L 207.152731 191.534448 
L 206.428094 192.130291 
L 206.024731 192.461538 
L 205.494983 192.897028 
L 204.896989 193.388629 
L 204.561873 193.664122 
L 203.747273 194.315719 
L 203.628763 194.409531 
L 202.695652 195.11853 
L 202.530335 195.242809 
L 201.762542 195.783039 
L 201.265822 196.1699 
L 200.829431 196.496382 
L 200.078693 197.09699 
L 199.896321 197.245158 
L 198.963211 198.004114 
L 198.938719 198.02408 
L 198.0301 198.724924 
L 197.742804 198.951171 
L 197.09699 199.533247 
L 196.718364 199.878261 
L 196.16388 200.383527 
L 195.709276 200.805351 
L 195.230769 201.259913 
L 194.74196 201.732441 
L 194.297659 202.179132 
L 193.880386 202.659532 
L 193.364548 203.267186 
L 193.090803 203.586622 
L 192.431438 204.355228 
L 192.2869 204.513712 
L 191.498328 205.403077 
L 191.464547 205.440803 
L 190.733275 206.367893 
L 190.565217 206.566616 
L 189.955367 207.294983 
L 189.632107 207.676505 
L 189.183821 208.222074 
L 188.698997 208.840337 
L 188.461317 209.149164 
L 187.765886 210.052788 
L 187.747827 210.076254 
L 187.034717 211.003344 
L 186.832776 211.265894 
L 186.079997 211.930435 
L 185.899666 212.052821 
L 184.966555 212.753317 
L 184.799 212.857525 
L 184.033445 213.378045 
L 183.100334 213.705987 
L 182.167224 213.759276 
L 181.234114 213.647618 
L 180.301003 213.367548 
z
" clip-path="url(#p4e62d6d88c)" style="fill: none; stroke-dasharray: 5.55,2.4; stroke-dashoffset: 0; stroke: #000000; stroke-width: 1.5"/>
   </g>
   <g id="PathCollection_3">
    <path d="M 176.568562 236.963059 
L 176.538145 236.961873 
L 175.635452 236.697776 
L 174.702341 236.431363 
L 173.769231 236.07351 
L 173.379598 236.034783 
L 172.83612 235.856019 
L 171.90301 235.602764 
L 170.9699 235.253297 
L 170.380754 235.107692 
L 170.036789 234.958764 
L 169.103679 234.64164 
L 168.170569 234.252225 
L 167.854294 234.180602 
L 167.237458 233.937072 
L 166.304348 233.594044 
L 165.546174 233.253512 
L 165.371237 233.159537 
L 164.438127 232.705973 
L 163.834387 232.326421 
L 163.505017 232.122217 
L 162.571906 231.573436 
L 162.342854 231.399331 
L 161.638796 230.927949 
L 161.066454 230.472241 
L 160.705686 230.170444 
L 159.967216 229.545151 
L 159.772575 229.380733 
L 158.872218 228.61806 
L 158.839465 228.586035 
L 157.906355 227.811627 
L 157.772514 227.69097 
L 156.973244 227.017981 
L 156.691696 226.76388 
L 156.040134 226.209597 
L 155.628966 225.836789 
L 155.107023 225.388792 
L 154.590915 224.909699 
L 154.173913 224.50729 
L 153.655616 223.982609 
L 153.240803 223.583774 
L 152.690944 223.055518 
L 152.307692 222.603336 
L 151.907328 222.128428 
L 151.374582 221.440101 
L 151.147015 221.201338 
L 150.441472 220.431708 
L 150.294021 220.274247 
L 149.508635 219.347157 
L 149.508361 219.346885 
L 148.742454 218.420067 
L 148.575251 218.232894 
L 147.967527 217.492977 
L 147.64214 217.093111 
L 147.208466 216.565886 
L 146.70903 215.953944 
L 146.437917 215.638796 
L 145.77592 214.820718 
L 145.687659 214.711706 
L 145.060206 213.784615 
L 144.842809 213.269449 
L 144.722753 212.857525 
L 144.377379 211.930435 
L 144.079668 211.003344 
L 143.909699 210.49165 
L 143.816596 210.076254 
L 143.515302 209.149164 
L 143.302197 208.222074 
L 143.071313 207.294983 
L 142.976589 207.041541 
L 142.761839 206.367893 
L 142.61414 205.440803 
L 142.553453 204.513712 
L 142.622184 203.586622 
L 142.907283 202.659532 
L 142.976589 202.27192 
L 143.151738 201.732441 
L 143.346156 200.805351 
L 143.557812 199.878261 
L 143.85723 198.951171 
L 143.909699 198.689193 
L 144.122858 198.02408 
L 144.327982 197.09699 
L 144.515878 196.1699 
L 144.559761 195.242809 
L 144.641827 194.315719 
L 144.787111 193.388629 
L 144.842809 192.693698 
L 144.884391 192.461538 
L 145.087255 191.534448 
L 145.368234 190.607358 
L 145.77592 189.786248 
L 145.852924 189.680268 
L 146.342871 188.753177 
L 146.70903 188.17116 
L 146.929669 187.826087 
L 147.270231 186.898997 
L 147.64214 186.36698 
L 147.907273 185.971906 
L 148.575251 185.167598 
L 148.696998 185.044816 
L 149.408178 184.117726 
L 149.508361 183.986289 
L 150.036591 183.190635 
L 150.441472 182.677817 
L 150.730429 182.263545 
L 151.374582 181.472991 
L 151.491458 181.336455 
L 152.095043 180.409365 
L 152.307692 180.119006 
L 152.712332 179.482274 
L 153.240803 178.794722 
L 153.402563 178.555184 
L 153.967338 177.628094 
L 154.173913 177.119011 
L 154.285317 176.701003 
L 154.471559 175.773913 
L 154.681201 174.846823 
L 154.859458 173.919732 
L 155.09552 172.992642 
L 155.107023 172.937582 
L 155.20397 172.065552 
L 155.442073 171.138462 
L 155.679887 170.211371 
L 155.955273 169.284281 
L 156.001571 168.357191 
L 156.040134 167.479774 
L 156.041843 167.4301 
L 156.068879 166.50301 
L 156.040134 165.696287 
L 156.035131 165.57592 
L 156.023899 164.648829 
L 156.040134 164.506238 
L 156.12092 163.721739 
L 156.228968 162.794649 
L 156.262828 161.867559 
L 156.383391 160.940468 
L 156.813059 160.013378 
L 156.973244 159.71463 
L 157.276234 159.086288 
L 157.708003 158.159197 
L 157.906355 157.779573 
L 158.176956 157.232107 
L 158.621471 156.305017 
L 158.839465 155.871583 
L 159.083643 155.377926 
L 159.772575 154.460256 
L 159.780811 154.450836 
L 160.557583 153.523746 
L 160.705686 153.350309 
L 161.414784 152.596656 
L 161.638796 152.366287 
L 162.571906 151.769077 
L 162.766372 151.669565 
L 163.505017 151.310011 
L 164.438127 150.919366 
L 164.976321 150.742475 
L 165.371237 150.616601 
L 166.304348 150.412281 
L 167.237458 150.363607 
L 168.170569 150.315949 
L 169.103679 150.268295 
L 170.036789 150.217983 
L 170.9699 150.156626 
L 171.90301 150.113762 
L 172.83612 150.090883 
L 173.769231 150.047942 
L 174.702341 149.978844 
L 175.635452 149.911352 
L 176.568562 150.005144 
L 177.501672 150.120327 
L 178.434783 150.343367 
L 179.367893 150.561275 
L 180.227515 150.742475 
L 180.301003 150.761972 
L 181.234114 150.98541 
L 182.167224 151.099831 
L 183.100334 151.231957 
L 184.033445 151.282496 
L 184.966555 151.308878 
L 185.899666 151.335273 
L 186.832776 151.344417 
L 187.765886 151.3308 
L 188.698997 151.313482 
L 189.632107 151.303476 
L 190.565217 151.281089 
L 191.498328 151.227272 
L 192.431438 151.068527 
L 193.364548 150.936618 
L 194.141017 150.742475 
L 194.297659 150.711599 
L 195.230769 150.37153 
L 196.16388 150.096682 
L 197.0671 149.815385 
L 197.09699 149.809314 
L 198.0301 149.675672 
L 198.963211 149.568279 
L 199.896321 149.468476 
L 200.829431 149.378649 
L 201.762542 149.287375 
L 202.695652 149.184338 
L 203.628763 149.017211 
L 204.000863 148.888294 
L 204.561873 148.773672 
L 205.494983 148.546649 
L 206.428094 148.441723 
L 207.361204 148.296508 
L 208.294314 148.173347 
L 209.227425 148.118399 
L 210.160535 148.18792 
L 211.093645 148.289477 
L 212.026756 148.391361 
L 212.959866 148.58546 
L 213.892977 148.826434 
L 214.123487 148.888294 
L 214.826087 149.080968 
L 215.759197 149.286944 
L 216.692308 149.419472 
L 217.625418 149.585174 
L 218.290689 149.815385 
L 218.558528 149.922581 
L 219.491639 150.220709 
L 220.424749 150.528928 
L 221.071244 150.742475 
L 221.35786 150.84728 
L 222.29097 151.14634 
L 223.22408 151.548901 
L 223.497 151.669565 
L 224.157191 151.961451 
L 225.090301 152.397178 
L 225.481005 152.596656 
L 226.023411 152.864902 
L 226.956522 153.263363 
L 227.56067 153.523746 
L 227.889632 153.709103 
L 228.822742 154.198449 
L 229.091782 154.450836 
L 229.755853 155.13343 
L 229.993716 155.377926 
L 230.688963 156.09142 
L 230.896775 156.305017 
L 231.622074 157.047084 
L 231.802113 157.232107 
L 232.555184 158.025873 
L 232.673331 158.159197 
L 233.473072 159.086288 
L 233.488294 159.100546 
L 234.281611 160.013378 
L 234.421405 160.15107 
L 235.092862 160.940468 
L 235.354515 161.410869 
L 235.574426 161.867559 
L 235.955989 162.794649 
L 236.287625 163.491178 
L 236.382604 163.721739 
L 236.792675 164.648829 
L 237.207688 165.57592 
L 237.220736 165.596168 
L 237.575445 166.50301 
L 237.889218 167.4301 
L 238.153846 168.263893 
L 238.179429 168.357191 
L 238.419136 169.284281 
L 238.711836 170.211371 
L 238.980773 171.138462 
L 239.086957 171.926904 
L 239.104324 172.065552 
L 239.218785 172.992642 
L 239.347317 173.919732 
L 239.46198 174.846823 
L 239.546278 175.773913 
L 239.73306 176.701003 
L 239.946322 177.628094 
L 239.980933 178.555184 
L 239.886076 179.482274 
L 239.778202 180.409365 
L 239.66714 181.336455 
L 239.55164 182.263545 
L 239.449737 183.190635 
L 239.342204 184.117726 
L 239.22548 185.044816 
L 239.093104 185.971906 
L 239.086957 186.017914 
L 238.97541 186.898997 
L 238.817706 187.826087 
L 238.339948 188.753177 
L 238.153846 189.061602 
L 237.843223 189.680268 
L 237.310129 190.607358 
L 237.220736 190.735564 
L 236.779315 191.534448 
L 236.287625 192.36073 
L 236.218666 192.461538 
L 235.734201 193.388629 
L 235.354515 193.996449 
L 235.175594 194.315719 
L 234.673721 195.242809 
L 234.421405 195.620604 
L 234.123863 196.1699 
L 233.60558 197.09699 
L 233.488294 197.269586 
L 233.075148 198.02408 
L 232.555184 198.893391 
L 232.516741 198.951171 
L 231.945688 199.878261 
L 231.622074 200.248326 
L 231.100795 200.805351 
L 230.688963 201.19567 
L 230.123544 201.732441 
L 229.755853 202.096861 
L 229.207397 202.659532 
L 228.822742 203.086196 
L 228.338006 203.586622 
L 227.889632 204.011885 
L 227.333894 204.513712 
L 226.956522 204.858744 
L 226.300667 205.440803 
L 226.023411 205.687998 
L 225.256899 206.367893 
L 225.090301 206.516396 
L 224.197599 207.294983 
L 224.157191 207.331014 
L 223.22408 208.126565 
L 223.119199 208.222074 
L 222.29097 209.009817 
L 222.144142 209.149164 
L 221.35786 209.896959 
L 221.168803 210.076254 
L 220.424749 210.783783 
L 220.192975 211.003344 
L 219.491639 211.670159 
L 219.20924 211.930435 
L 218.558528 212.518873 
L 218.172878 212.857525 
L 217.625418 213.398609 
L 217.277003 213.784615 
L 216.692308 214.467815 
L 216.489114 214.711706 
L 215.759197 215.500215 
L 215.633147 215.638796 
L 214.826087 216.492605 
L 214.758217 216.565886 
L 213.951218 217.492977 
L 213.892977 217.557675 
L 212.977519 218.420067 
L 212.959866 218.435551 
L 212.026756 219.265243 
L 211.933962 219.347157 
L 211.093645 220.094749 
L 210.890109 220.274247 
L 210.160535 220.926066 
L 209.856118 221.201338 
L 209.227425 221.780326 
L 208.852269 222.128428 
L 208.294314 222.636866 
L 207.830347 223.055518 
L 207.361204 223.482679 
L 206.84514 223.982609 
L 206.428094 224.431069 
L 206.001537 224.909699 
L 205.494983 225.39497 
L 204.97569 225.836789 
L 204.561873 226.19741 
L 203.853423 226.76388 
L 203.628763 226.947169 
L 202.833677 227.69097 
L 202.695652 227.828342 
L 201.896842 228.61806 
L 201.762542 228.743235 
L 200.924205 229.545151 
L 200.829431 229.634142 
L 199.960511 230.472241 
L 199.896321 230.532636 
L 198.981109 231.399331 
L 198.963211 231.410519 
L 198.0301 231.98563 
L 197.288422 232.326421 
L 197.09699 232.394773 
L 196.16388 232.899191 
L 195.379437 233.253512 
L 195.230769 233.300527 
L 194.297659 233.811469 
L 193.467605 234.180602 
L 193.364548 234.209326 
L 192.431438 234.719214 
L 191.555577 235.107692 
L 191.498328 235.122075 
L 190.565217 235.630292 
L 189.659231 236.034783 
L 189.632107 236.039666 
L 188.698997 236.541177 
L 187.840292 236.961873 
L 187.765886 236.976012 
L 186.832776 237.371687 
L 185.899666 237.494231 
L 184.966555 237.577711 
L 184.033445 237.672791 
L 183.100334 237.804545 
L 182.167224 237.881423 
L 181.234114 237.752439 
L 180.301003 237.617399 
L 179.367893 237.51185 
L 178.434783 237.364841 
L 177.501672 237.133391 
L 176.568562 236.963059 
z
" clip-path="url(#p4e62d6d88c)" style="fill: none; stroke: #000000; stroke-width: 1.5"/>
   </g>
   <g id="PathCollection_4">
    <path d="M 172.83612 259.219324 
L 172.789631 259.21204 
L 171.90301 259.073122 
L 170.9699 258.926886 
L 170.036789 258.780672 
L 169.103679 258.630364 
L 168.170569 258.476137 
L 167.237458 258.297372 
L 167.200469 258.28495 
L 166.304348 257.961835 
L 165.371237 257.616636 
L 164.676274 257.35786 
L 164.438127 257.269185 
L 163.505017 256.920629 
L 162.571906 256.53711 
L 162.353774 256.430769 
L 161.638796 256.082896 
L 160.705686 255.644649 
L 160.397521 255.503679 
L 159.772575 255.22014 
L 158.839465 254.796785 
L 158.354132 254.576589 
L 157.906355 254.37343 
L 156.973244 253.950071 
L 156.310766 253.649498 
L 156.040134 253.526839 
L 155.107023 253.110126 
L 154.237814 252.722408 
L 154.173913 252.693903 
L 153.240803 252.277657 
L 152.307692 251.861425 
L 152.167179 251.795318 
L 151.374582 251.402398 
L 150.515523 250.868227 
L 150.441472 250.819698 
L 149.508361 250.152614 
L 149.223299 249.941137 
L 148.575251 249.456958 
L 148.018759 249.014047 
L 147.64214 248.708595 
L 146.875655 248.086957 
L 146.70903 247.951818 
L 145.77592 247.195031 
L 145.73256 247.159866 
L 144.842809 246.438258 
L 144.589456 246.232776 
L 143.909699 245.677757 
L 143.458415 245.305686 
L 142.976589 244.905825 
L 142.341296 244.378595 
L 142.043478 244.131437 
L 141.277692 243.451505 
L 141.110368 243.302248 
L 140.177258 242.594896 
L 140.079083 242.524415 
L 139.244147 241.830706 
L 138.993866 241.597324 
L 138.311037 240.951079 
L 138.014297 240.670234 
L 137.377926 240.067958 
L 137.034721 239.743144 
L 136.444816 239.184842 
L 136.055149 238.816054 
L 135.511706 238.301722 
L 135.079767 237.888963 
L 134.578595 237.454233 
L 133.967589 236.961873 
L 133.645485 236.684679 
L 133.050333 236.034783 
L 132.712375 235.580842 
L 132.36764 235.107692 
L 131.779264 234.302247 
L 131.690572 234.180602 
L 131.011563 233.253512 
L 130.846154 233.028209 
L 130.331445 232.326421 
L 129.913043 231.755926 
L 129.65152 231.399331 
L 128.979933 230.49832 
L 128.960469 230.472241 
L 128.229776 229.545151 
L 128.046823 229.313023 
L 127.507713 228.61806 
L 127.113712 228.076336 
L 126.833815 227.69097 
L 126.184 226.76388 
L 126.180602 226.758473 
L 125.603726 225.836789 
L 125.247492 225.267605 
L 125.023487 224.909699 
L 124.443228 223.982609 
L 124.314381 223.68329 
L 124.083588 223.055518 
L 123.838921 222.128428 
L 123.581414 221.201338 
L 123.381271 220.582356 
L 123.278203 220.274247 
L 122.96347 219.347157 
L 122.648267 218.420067 
L 122.448161 217.833518 
L 122.331179 217.492977 
L 122.012203 216.565886 
L 121.692422 215.638796 
L 121.51505 215.125508 
L 121.369835 214.711706 
L 121.099453 213.784615 
L 120.943083 212.857525 
L 120.7756 211.930435 
L 120.599722 211.003344 
L 120.58194 210.870596 
L 120.475141 210.076254 
L 120.363828 209.149164 
L 120.252506 208.222074 
L 120.145631 207.294983 
L 120.034618 206.367893 
L 119.857483 205.440803 
L 119.940043 204.513712 
L 120.107616 203.586622 
L 120.275178 202.659532 
L 120.442737 201.732441 
L 120.58194 200.962286 
L 120.610305 200.805351 
L 120.815518 199.878261 
L 121.004296 198.951171 
L 121.052793 198.02408 
L 121.080686 197.09699 
L 121.11026 196.1699 
L 121.257029 195.242809 
L 121.411362 194.315719 
L 121.51505 193.692857 
L 121.565696 193.388629 
L 121.720036 192.461538 
L 121.874374 191.534448 
L 122.011089 190.607358 
L 122.134369 189.680268 
L 122.271607 188.753177 
L 122.426161 187.826087 
L 122.448161 187.718455 
L 122.613325 186.898997 
L 122.826784 185.971906 
L 123.060852 185.044816 
L 123.351059 184.117726 
L 123.381271 184.020717 
L 123.640992 183.190635 
L 123.931066 182.263545 
L 124.314381 181.548163 
L 124.433489 181.336455 
L 124.99019 180.409365 
L 125.247492 179.976686 
L 125.543603 179.482274 
L 126.087132 178.555184 
L 126.180602 178.391419 
L 126.636723 177.628094 
L 127.113712 176.838365 
L 127.197599 176.701003 
L 127.796038 175.773913 
L 128.046823 175.384781 
L 128.377243 174.846823 
L 128.705699 173.919732 
L 128.979933 173.085044 
L 129.010591 172.992642 
L 129.314885 172.065552 
L 129.61948 171.138462 
L 129.913043 170.244942 
L 129.923977 170.211371 
L 130.213491 169.284281 
L 130.500463 168.357191 
L 130.786045 167.4301 
L 130.846154 167.236271 
L 131.08057 166.50301 
L 131.397521 165.57592 
L 131.748918 164.648829 
L 131.779264 164.522418 
L 131.949844 163.721739 
L 132.132489 162.794649 
L 132.315129 161.867559 
L 132.497773 160.940468 
L 132.668666 160.013378 
L 132.712375 159.70115 
L 132.796128 159.086288 
L 132.889163 158.159197 
L 132.9822 157.232107 
L 133.075231 156.305017 
L 133.16351 155.377926 
L 133.220852 154.450836 
L 133.305564 153.523746 
L 133.641628 152.596656 
L 133.645485 152.586629 
L 134.002854 151.669565 
L 134.38597 150.742475 
L 134.578595 150.297105 
L 134.786949 149.815385 
L 135.187917 148.888294 
L 135.511706 148.139658 
L 135.588888 147.961204 
L 135.989847 147.034114 
L 136.390821 146.107023 
L 136.444816 145.982183 
L 136.791797 145.179933 
L 137.192758 144.252843 
L 137.377926 143.824726 
L 137.604088 143.325753 
L 138.243406 142.398662 
L 138.311037 142.309912 
L 138.949877 141.471572 
L 139.244147 141.085407 
L 139.656356 140.544482 
L 140.177258 139.860904 
L 140.362821 139.617391 
L 141.069287 138.690301 
L 141.110368 138.640863 
L 141.921294 137.763211 
L 142.043478 137.640908 
L 142.864331 136.83612 
L 142.976589 136.730915 
L 143.86045 135.90903 
L 143.909699 135.861788 
L 144.825115 134.98194 
L 144.842809 134.96524 
L 145.77592 134.237911 
L 146.049554 134.054849 
L 146.70903 133.587391 
L 147.317017 133.127759 
L 147.64214 132.892117 
L 148.575251 132.368788 
L 148.909551 132.200669 
L 149.508361 131.900185 
L 150.441472 131.454506 
L 150.801495 131.273579 
L 151.374582 130.971283 
L 152.307692 130.475161 
L 152.549695 130.346488 
L 153.240803 129.99062 
L 154.173913 129.547785 
L 154.494259 129.419398 
L 155.107023 129.177511 
L 156.040134 128.784524 
L 156.833112 128.492308 
L 156.973244 128.44071 
L 157.906355 128.097154 
L 158.839465 127.753587 
L 159.351058 127.565217 
L 159.772575 127.410016 
L 160.705686 127.086595 
L 161.638796 126.916995 
L 162.571906 126.748032 
L 163.13923 126.638127 
L 163.505017 126.566034 
L 164.438127 126.398635 
L 165.371237 126.249851 
L 166.304348 126.097989 
L 167.237458 125.985044 
L 168.170569 125.954047 
L 169.103679 125.923034 
L 170.036789 125.892029 
L 170.9699 125.861022 
L 171.90301 125.830006 
L 172.83612 125.918446 
L 173.769231 125.983121 
L 174.702341 126.046276 
L 175.635452 126.109416 
L 176.568562 126.18013 
L 177.501672 126.278499 
L 178.434783 126.404003 
L 179.367893 126.576088 
L 179.704302 126.638127 
L 180.301003 126.748172 
L 181.234114 126.92027 
L 182.167224 127.088045 
L 183.100334 127.248807 
L 184.033445 127.409585 
L 184.936731 127.565217 
L 184.966555 127.570356 
L 185.899666 127.731135 
L 186.832776 127.840611 
L 187.765886 127.807548 
L 188.698997 127.688616 
L 189.632107 127.569683 
L 189.669662 127.565217 
L 190.565217 127.458574 
L 191.498328 127.357215 
L 192.431438 127.254658 
L 193.364548 127.169573 
L 194.297659 127.219922 
L 195.230769 127.130013 
L 196.16388 126.998766 
L 197.09699 126.869321 
L 198.0301 126.739866 
L 198.763449 126.638127 
L 198.963211 126.610414 
L 199.896321 126.505883 
L 200.829431 126.382583 
L 201.762542 126.205631 
L 202.695652 125.969883 
L 203.628763 125.734133 
L 203.720172 125.711037 
L 204.561873 125.498368 
L 205.494983 125.249853 
L 206.428094 125.000745 
L 207.361204 124.788848 
L 207.386583 124.783946 
L 208.294314 124.618376 
L 209.227425 124.496469 
L 210.160535 124.377013 
L 211.093645 124.359063 
L 212.026756 124.384793 
L 212.959866 124.60175 
L 213.717617 124.783946 
L 213.892977 124.826474 
L 214.826087 125.052758 
L 215.759197 125.279036 
L 216.692308 125.505377 
L 217.540566 125.711037 
L 217.625418 125.731614 
L 218.558528 125.957916 
L 219.491639 126.166995 
L 220.424749 126.324997 
L 221.35786 126.455561 
L 222.29097 126.58575 
L 222.66641 126.638127 
L 223.22408 126.715908 
L 224.157191 126.846118 
L 225.090301 127.04314 
L 226.023411 127.269162 
L 226.89281 127.565217 
L 226.956522 127.588437 
L 227.889632 128.028242 
L 228.822742 128.479923 
L 228.850325 128.492308 
L 229.755853 128.882115 
L 230.688963 129.271525 
L 230.987376 129.419398 
L 231.622074 129.730129 
L 232.555184 130.201492 
L 232.845161 130.346488 
L 233.488294 130.652363 
L 234.421405 131.108428 
L 234.751471 131.273579 
L 235.354515 131.565399 
L 236.287625 132.016635 
L 236.667317 132.200669 
L 237.220736 132.468471 
L 238.153846 132.920026 
L 238.623153 133.127759 
L 239.086957 133.323215 
L 240.020067 133.75749 
L 240.529817 134.054849 
L 240.953177 134.309437 
L 241.886288 134.908946 
L 241.963039 134.98194 
L 242.774283 135.90903 
L 242.819398 135.960587 
L 243.585545 136.83612 
L 243.752508 137.026922 
L 244.39681 137.763211 
L 244.685619 138.093976 
L 245.193727 138.690301 
L 245.618729 139.19434 
L 245.992018 139.617391 
L 246.551839 140.179678 
L 246.936269 140.544482 
L 247.48495 141.060962 
L 247.917503 141.471572 
L 248.41806 141.955412 
L 248.851953 142.398662 
L 249.351171 142.91937 
L 249.748916 143.325753 
L 250.284281 143.867794 
L 250.66964 144.252843 
L 251.217391 144.821961 
L 251.571388 145.179933 
L 252.150502 145.782407 
L 252.462531 146.107023 
L 253.083612 146.814297 
L 253.244837 147.034114 
L 253.781327 147.961204 
L 254.016722 148.373019 
L 254.315071 148.888294 
L 254.802063 149.815385 
L 254.949833 150.130344 
L 255.237026 150.742475 
L 255.689695 151.669565 
L 255.882943 152.063457 
L 256.144537 152.596656 
L 256.599373 153.523746 
L 256.816054 153.965414 
L 257.051306 154.450836 
L 257.480817 155.377926 
L 257.749164 155.965879 
L 257.903947 156.305017 
L 258.325257 157.232107 
L 258.682274 158.044542 
L 258.730259 158.159197 
L 259.014203 159.086288 
L 259.298154 160.013378 
L 259.5821 160.940468 
L 259.615385 161.049135 
L 259.873411 161.867559 
L 260.198803 162.794649 
L 260.52392 163.721739 
L 260.548495 163.796352 
L 260.829869 164.648829 
L 260.999981 165.57592 
L 261.196886 166.50301 
L 261.418504 167.4301 
L 261.481605 167.688888 
L 261.64296 168.357191 
L 261.866789 169.284281 
L 262.090613 170.211371 
L 262.313952 171.138462 
L 262.414716 171.582787 
L 262.52433 172.065552 
L 262.733687 172.992642 
L 262.94302 173.919732 
L 263.152363 174.846823 
L 263.347826 175.712458 
L 263.361703 175.773913 
L 263.467383 176.701003 
L 263.448112 177.628094 
L 263.501863 178.555184 
L 263.554804 179.482274 
L 263.607578 180.409365 
L 263.621902 181.336455 
L 263.622676 182.263545 
L 263.612941 183.190635 
L 263.595806 184.117726 
L 263.54539 185.044816 
L 263.493427 185.971906 
L 263.442263 186.898997 
L 263.402719 187.826087 
L 263.363215 188.753177 
L 263.347826 189.116629 
L 263.323958 189.680268 
L 263.28481 190.607358 
L 263.245657 191.534448 
L 263.19683 192.461538 
L 263.045955 193.388629 
L 262.602 194.315719 
L 262.414716 194.618337 
L 262.028242 195.242809 
L 261.481605 196.126095 
L 261.454495 196.1699 
L 260.880722 197.09699 
L 260.548495 197.633815 
L 260.30697 198.02408 
L 259.733212 198.951171 
L 259.615385 199.143001 
L 259.127641 199.878261 
L 258.682274 200.588012 
L 258.545614 200.805351 
L 257.964576 201.732441 
L 257.749164 202.077112 
L 257.384951 202.659532 
L 256.830956 203.586622 
L 256.816054 203.611637 
L 256.279906 204.513712 
L 255.882943 205.184248 
L 255.731061 205.440803 
L 255.182197 206.367893 
L 254.949833 206.799541 
L 254.683921 207.294983 
L 254.174945 208.222074 
L 254.016722 208.522517 
L 253.690433 209.149164 
L 253.164533 210.076254 
L 253.083612 210.216583 
L 252.607249 211.003344 
L 252.150502 211.653144 
L 251.955593 211.930435 
L 251.303952 212.857525 
L 251.217391 212.980672 
L 250.652289 213.784615 
L 250.284281 214.308182 
L 250.000649 214.711706 
L 249.351171 215.625701 
L 249.340982 215.638796 
L 248.524231 216.565886 
L 248.41806 216.684623 
L 247.724801 217.492977 
L 247.48495 217.758216 
L 246.873744 218.420067 
L 246.551839 218.751514 
L 245.948009 219.347157 
L 245.618729 219.667455 
L 244.987437 220.274247 
L 244.685619 220.562831 
L 244.017831 221.201338 
L 243.752508 221.440864 
L 242.898524 222.128428 
L 242.819398 222.190437 
L 241.886288 222.921408 
L 241.714783 223.055518 
L 240.953177 223.651066 
L 240.529192 223.982609 
L 240.020067 224.38073 
L 239.343603 224.909699 
L 239.086957 225.110389 
L 238.191363 225.836789 
L 238.153846 225.868741 
L 237.220736 226.689276 
L 237.135896 226.76388 
L 236.287625 227.598346 
L 236.203685 227.69097 
L 235.399468 228.61806 
L 235.354515 228.668612 
L 234.56347 229.545151 
L 234.421405 229.717293 
L 233.801458 230.472241 
L 233.488294 230.853604 
L 233.04016 231.399331 
L 232.555184 231.989917 
L 232.27686 232.326421 
L 231.622074 233.125074 
L 231.51555 233.253512 
L 230.756216 234.180602 
L 230.688963 234.256796 
L 229.923011 235.107692 
L 229.755853 235.298325 
L 229.130811 236.034783 
L 228.822742 236.371329 
L 228.174969 236.961873 
L 227.889632 237.208343 
L 227.101834 237.888963 
L 226.956522 238.014484 
L 226.030225 238.816054 
L 226.023411 238.82194 
L 225.090301 239.629651 
L 224.959189 239.743144 
L 224.157191 240.437369 
L 223.892449 240.670234 
L 223.22408 241.268528 
L 222.855108 241.597324 
L 222.29097 242.100593 
L 221.807908 242.524415 
L 221.35786 242.902206 
L 220.672517 243.451505 
L 220.424749 243.64936 
L 219.491639 244.368584 
L 219.47865 244.378595 
L 218.558528 245.087813 
L 218.275862 245.305686 
L 217.625418 245.807018 
L 217.073038 246.232776 
L 216.692308 246.526232 
L 215.870232 247.159866 
L 215.759197 247.245179 
L 214.826087 247.912437 
L 214.573577 248.086957 
L 213.892977 248.550659 
L 213.205388 249.014047 
L 212.959866 249.177685 
L 212.026756 249.799603 
L 211.83194 249.941137 
L 211.093645 250.500557 
L 210.54023 250.868227 
L 210.160535 251.078514 
L 209.227425 251.440248 
L 208.304255 251.795318 
L 208.294314 251.799141 
L 207.361204 252.15744 
L 206.428094 252.604631 
L 206.187102 252.722408 
L 205.494983 253.060712 
L 204.561873 253.517333 
L 204.291789 253.649498 
L 203.628763 253.977099 
L 202.695652 254.437377 
L 202.413058 254.576589 
L 201.762542 254.898945 
L 200.829431 255.36136 
L 200.543298 255.503679 
L 199.896321 255.825446 
L 198.963211 256.290186 
L 198.680942 256.430769 
L 198.0301 256.75492 
L 197.09699 257.216722 
L 196.809876 257.35786 
L 196.16388 257.675399 
L 195.230769 258.13407 
L 194.923839 258.28495 
L 194.297659 258.592769 
L 193.364548 258.944267 
L 192.431438 259.084861 
L 191.498328 259.118709 
L 190.565217 259.110435 
L 189.632107 259.108044 
L 188.698997 259.144836 
L 187.765886 259.188929 
L 187.579266 259.21204 
L 186.832776 259.307574 
L 185.899666 259.426992 
L 184.966555 259.544925 
L 184.033445 259.626469 
L 183.100334 259.68709 
L 182.167224 259.738511 
L 181.234114 259.789337 
L 180.301003 259.8544 
L 179.367893 259.934644 
L 178.434783 259.952399 
L 177.501672 259.922885 
L 176.568562 259.80184 
L 175.635452 259.65799 
L 174.702341 259.511773 
L 173.769231 259.365553 
L 172.83612 259.219324 
z
" clip-path="url(#p4e62d6d88c)" style="fill: none; stroke: #000000; stroke-width: 1.5"/>
   </g>
   <g id="patch_3">
    <path d="M 45 320.4 
L 45 43.2 
" style="fill: none; stroke: #000000; stroke-width: 0.8; stroke-linejoin: miter; stroke-linecap: square"/>
   </g>
   <g id="patch_4">
    <path d="M 324 320.4 
L 324 43.2 
" style="fill: none; stroke: #000000; stroke-width: 0.8; stroke-linejoin: miter; stroke-linecap: square"/>
   </g>
   <g id="patch_5">
    <path d="M 45 320.4 
L 324 320.4 
" style="fill: none; stroke: #000000; stroke-width: 0.8; stroke-linejoin: miter; stroke-linecap: square"/>
   </g>
   <g id="patch_6">
    <path d="M 45 43.2 
L 324 43.2 
" style="fill: none; stroke: #000000; stroke-width: 0.8; stroke-linejoin: miter; stroke-linecap: square"/>
   </g>
  </g>
 </g>
 <defs>
  <clipPath id="p4e62d6d88c">
   <rect x="45" y="43.2" width="279" height="277.2"/>
  </clipPath>
 </defs>
</svg>
