<?xml version="1.0" encoding="utf-8" standalone="no"?>
<!DOCTYPE svg PUBLIC "-//W3C//DTD SVG 1.1//EN"
  "http://www.w3.org/Graphics/SVG/1.1/DTD/svg11.dtd">
<svg xmlns:xlink="http://www.w3.org/1999/xlink" width="360pt" height="360pt" viewBox="0 0 360 360" xmlns="http://www.w3.org/2000/svg" version="1.1">
 <metadata>
  <rdf:RDF xmlns:dc="http://purl.org/dc/elements/1.1/" xmlns:cc="http://creativecommons.org/ns#" xmlns:rdf="http://www.w3.org/1999/02/22-rdf-syntax-ns#">
   <cc:Work>
    <dc:type rdf:resource="http://purl.org/dc/dcmitype/StillImage"/>
    <dc:date>2022-04-03T22:41:45.293102</dc:date>
    <dc:format>image/svg+xml</dc:format>
    <dc:creator>
     <cc:Agent>
      <dc:title>Matplotlib v3.5.1, https://matplotlib.org/</dc:title>
     </cc:Agent>
    </dc:creator>
   </cc:Work>
  </rdf:RDF>
 </metadata>
 <defs>
  <style type="text/css">*{stroke-linejoin: round; stroke-linecap: butt}</style>
 </defs>
 <g id="figure_1">
  <g id="patch_1">
   <path d="M 0 360 
L 360 360 
L 360 0 
L 0 0 
z
" style="fill: #ffffff"/>
  </g>
  <g id="axes_1">
   <g id="patch_2">
    <path d="M 45 320.4 
L 324 320.4 
L 324 43.2 
L 45 43.2 
z
" style="fill: #ffffff"/>
   </g>
   <g id="PathCollection_1">
    <defs>
     <path id="mf6d2a3baa0" d="M 0 0.5 
C 0.132602 0.5 0.25979 0.447317 0.353553 0.353553 
C 0.447317 0.25979 0.5 0.132602 0.5 0 
C 0.5 -0.132602 0.447317 -0.25979 0.353553 -0.353553 
C 0.25979 -0.447317 0.132602 -0.5 0 -0.5 
C -0.132602 -0.5 -0.25979 -0.447317 -0.353553 -0.353553 
C -0.447317 -0.25979 -0.5 -0.132602 -0.5 0 
C -0.5 0.132602 -0.447317 0.25979 -0.353553 0.353553 
C -0.25979 0.447317 -0.132602 0.5 0 0.5 
z
" style="stroke: #ff0000"/>
    </defs>
    <g clip-path="url(#p75323eda30)">
     <use xlink:href="#mf6d2a3baa0" x="221.525273" y="181.568614" style="fill: #ff0000; stroke: #ff0000"/>
     <use xlink:href="#mf6d2a3baa0" x="220.652282" y="178.053687" style="fill: #ff0000; stroke: #ff0000"/>
     <use xlink:href="#mf6d2a3baa0" x="219.760945" y="174.646052" style="fill: #ff0000; stroke: #ff0000"/>
     <use xlink:href="#mf6d2a3baa0" x="218.812582" y="171.297349" style="fill: #ff0000; stroke: #ff0000"/>
     <use xlink:href="#mf6d2a3baa0" x="217.759331" y="167.976872" style="fill: #ff0000; stroke: #ff0000"/>
     <use xlink:href="#mf6d2a3baa0" x="216.561833" y="164.66545" style="fill: #ff0000; stroke: #ff0000"/>
     <use xlink:href="#mf6d2a3baa0" x="215.192802" y="161.347258" style="fill: #ff0000; stroke: #ff0000"/>
     <use xlink:href="#mf6d2a3baa0" x="213.627288" y="158.00858" style="fill: #ff0000; stroke: #ff0000"/>
     <use xlink:href="#mf6d2a3baa0" x="211.827141" y="154.649163" style="fill: #ff0000; stroke: #ff0000"/>
     <use xlink:href="#mf6d2a3baa0" x="209.732665" y="151.30283" style="fill: #ff0000; stroke: #ff0000"/>
     <use xlink:href="#mf6d2a3baa0" x="207.272024" y="148.05404" style="fill: #ff0000; stroke: #ff0000"/>
     <use xlink:href="#mf6d2a3baa0" x="204.388271" y="145.033222" style="fill: #ff0000; stroke: #ff0000"/>
     <use xlink:href="#mf6d2a3baa0" x="201.070515" y="142.380563" style="fill: #ff0000; stroke: #ff0000"/>
     <use xlink:href="#mf6d2a3baa0" x="197.367841" y="140.185477" style="fill: #ff0000; stroke: #ff0000"/>
     <use xlink:href="#mf6d2a3baa0" x="193.369331" y="138.430402" style="fill: #ff0000; stroke: #ff0000"/>
     <use xlink:href="#mf6d2a3baa0" x="189.153165" y="136.978341" style="fill: #ff0000; stroke: #ff0000"/>
     <use xlink:href="#mf6d2a3baa0" x="184.732888" y="135.628349" style="fill: #ff0000; stroke: #ff0000"/>
     <use xlink:href="#mf6d2a3baa0" x="180.039554" y="134.223825" style="fill: #ff0000; stroke: #ff0000"/>
     <use xlink:href="#mf6d2a3baa0" x="174.961358" y="132.76075" style="fill: #ff0000; stroke: #ff0000"/>
     <use xlink:href="#mf6d2a3baa0" x="169.426782" y="131.436675" style="fill: #ff0000; stroke: #ff0000"/>
     <use xlink:href="#mf6d2a3baa0" x="163.488699" y="130.611495" style="fill: #ff0000; stroke: #ff0000"/>
     <use xlink:href="#mf6d2a3baa0" x="157.363958" y="130.695294" style="fill: #ff0000; stroke: #ff0000"/>
     <use xlink:href="#mf6d2a3baa0" x="151.403992" y="132.010204" style="fill: #ff0000; stroke: #ff0000"/>
     <use xlink:href="#mf6d2a3baa0" x="146.003553" y="134.681247" style="fill: #ff0000; stroke: #ff0000"/>
     <use xlink:href="#mf6d2a3baa0" x="141.48314" y="138.597897" style="fill: #ff0000; stroke: #ff0000"/>
     <use xlink:href="#mf6d2a3baa0" x="137.9951" y="143.459366" style="fill: #ff0000; stroke: #ff0000"/>
     <use xlink:href="#mf6d2a3baa0" x="135.495457" y="148.881469" style="fill: #ff0000; stroke: #ff0000"/>
     <use xlink:href="#mf6d2a3baa0" x="133.793369" y="154.516537" style="fill: #ff0000; stroke: #ff0000"/>
     <use xlink:href="#mf6d2a3baa0" x="132.652328" y="160.135317" style="fill: #ff0000; stroke: #ff0000"/>
     <use xlink:href="#mf6d2a3baa0" x="131.892727" y="165.643139" style="fill: #ff0000; stroke: #ff0000"/>
     <use xlink:href="#mf6d2a3baa0" x="131.448399" y="171.038051" style="fill: #ff0000; stroke: #ff0000"/>
     <use xlink:href="#mf6d2a3baa0" x="131.357518" y="176.345515" style="fill: #ff0000; stroke: #ff0000"/>
     <use xlink:href="#mf6d2a3baa0" x="131.704507" y="181.568614" style="fill: #ff0000; stroke: #ff0000"/>
     <use xlink:href="#mf6d2a3baa0" x="132.55385" y="186.674645" style="fill: #ff0000; stroke: #ff0000"/>
     <use xlink:href="#mf6d2a3baa0" x="133.915303" y="191.611646" style="fill: #ff0000; stroke: #ff0000"/>
     <use xlink:href="#mf6d2a3baa0" x="135.755148" y="196.329996" style="fill: #ff0000; stroke: #ff0000"/>
     <use xlink:href="#mf6d2a3baa0" x="138.036754" y="200.785998" style="fill: #ff0000; stroke: #ff0000"/>
     <use xlink:href="#mf6d2a3baa0" x="140.756402" y="204.922885" style="fill: #ff0000; stroke: #ff0000"/>
     <use xlink:href="#mf6d2a3baa0" x="143.946675" y="208.645268" style="fill: #ff0000; stroke: #ff0000"/>
     <use xlink:href="#mf6d2a3baa0" x="147.643492" y="211.810718" style="fill: #ff0000; stroke: #ff0000"/>
     <use xlink:href="#mf6d2a3baa0" x="151.837405" y="214.251869" style="fill: #ff0000; stroke: #ff0000"/>
     <use xlink:href="#mf6d2a3baa0" x="156.439195" y="215.822153" style="fill: #ff0000; stroke: #ff0000"/>
     <use xlink:href="#mf6d2a3baa0" x="161.278363" y="216.444326" style="fill: #ff0000; stroke: #ff0000"/>
     <use xlink:href="#mf6d2a3baa0" x="166.131628" y="216.144605" style="fill: #ff0000; stroke: #ff0000"/>
     <use xlink:href="#mf6d2a3baa0" x="170.766122" y="215.069831" style="fill: #ff0000; stroke: #ff0000"/>
     <use xlink:href="#mf6d2a3baa0" x="174.986524" y="213.490783" style="fill: #ff0000; stroke: #ff0000"/>
     <use xlink:href="#mf6d2a3baa0" x="178.683792" y="211.783275" style="fill: #ff0000; stroke: #ff0000"/>
     <use xlink:href="#mf6d2a3baa0" x="181.877985" y="210.367925" style="fill: #ff0000; stroke: #ff0000"/>
     <use xlink:href="#mf6d2a3baa0" x="184.732888" y="209.604366" style="fill: #ff0000; stroke: #ff0000"/>
     <use xlink:href="#mf6d2a3baa0" x="187.518957" y="209.673546" style="fill: #ff0000; stroke: #ff0000"/>
     <use xlink:href="#mf6d2a3baa0" x="190.526637" y="210.507842" style="fill: #ff0000; stroke: #ff0000"/>
     <use xlink:href="#mf6d2a3baa0" x="193.966537" y="211.811491" style="fill: #ff0000; stroke: #ff0000"/>
     <use xlink:href="#mf6d2a3baa0" x="197.903978" y="213.16129" style="fill: #ff0000; stroke: #ff0000"/>
     <use xlink:href="#mf6d2a3baa0" x="202.251282" y="214.131775" style="fill: #ff0000; stroke: #ff0000"/>
     <use xlink:href="#mf6d2a3baa0" x="206.803667" y="214.386764" style="fill: #ff0000; stroke: #ff0000"/>
     <use xlink:href="#mf6d2a3baa0" x="211.287163" y="213.71634" style="fill: #ff0000; stroke: #ff0000"/>
     <use xlink:href="#mf6d2a3baa0" x="215.40045" y="212.038321" style="fill: #ff0000; stroke: #ff0000"/>
     <use xlink:href="#mf6d2a3baa0" x="218.856397" y="209.39238" style="fill: #ff0000; stroke: #ff0000"/>
     <use xlink:href="#mf6d2a3baa0" x="221.43465" y="205.933732" style="fill: #ff0000; stroke: #ff0000"/>
     <use xlink:href="#mf6d2a3baa0" x="223.037715" y="201.910878" style="fill: #ff0000; stroke: #ff0000"/>
     <use xlink:href="#mf6d2a3baa0" x="223.721582" y="197.614069" style="fill: #ff0000; stroke: #ff0000"/>
     <use xlink:href="#mf6d2a3baa0" x="223.674889" y="193.305329" style="fill: #ff0000; stroke: #ff0000"/>
     <use xlink:href="#mf6d2a3baa0" x="223.150073" y="189.160967" style="fill: #ff0000; stroke: #ff0000"/>
     <use xlink:href="#mf6d2a3baa0" x="222.380821" y="185.25269" style="fill: #ff0000; stroke: #ff0000"/>
    </g>
   </g>
   <g id="matplotlib.axis_1">
    <g id="xtick_1">
     <g id="line2d_1">
      <defs>
       <path id="mec4e06e7cb" d="M 0 0 
L 0 3.5 
" style="stroke: #000000; stroke-width: 0.8"/>
      </defs>
      <g>
       <use xlink:href="#mec4e06e7cb" x="45" y="320.4" style="stroke: #000000; stroke-width: 0.8"/>
      </g>
     </g>
     <g id="text_1">
      <!-- −3 -->
      <g transform="translate(37.628906 334.998438)scale(0.1 -0.1)">
       <defs>
        <path id="DejaVuSans-2212" d="M 678 2272 
L 4684 2272 
L 4684 1741 
L 678 1741 
L 678 2272 
z
" transform="scale(0.015625)"/>
        <path id="DejaVuSans-33" d="M 2597 2516 
Q 3050 2419 3304 2112 
Q 3559 1806 3559 1356 
Q 3559 666 3084 287 
Q 2609 -91 1734 -91 
Q 1441 -91 1130 -33 
Q 819 25 488 141 
L 488 750 
Q 750 597 1062 519 
Q 1375 441 1716 441 
Q 2309 441 2620 675 
Q 2931 909 2931 1356 
Q 2931 1769 2642 2001 
Q 2353 2234 1838 2234 
L 1294 2234 
L 1294 2753 
L 1863 2753 
Q 2328 2753 2575 2939 
Q 2822 3125 2822 3475 
Q 2822 3834 2567 4026 
Q 2313 4219 1838 4219 
Q 1578 4219 1281 4162 
Q 984 4106 628 3988 
L 628 4550 
Q 988 4650 1302 4700 
Q 1616 4750 1894 4750 
Q 2613 4750 3031 4423 
Q 3450 4097 3450 3541 
Q 3450 3153 3228 2886 
Q 3006 2619 2597 2516 
z
" transform="scale(0.015625)"/>
       </defs>
       <use xlink:href="#DejaVuSans-2212"/>
       <use xlink:href="#DejaVuSans-33" x="83.789062"/>
      </g>
     </g>
    </g>
    <g id="xtick_2">
     <g id="line2d_2">
      <g>
       <use xlink:href="#mec4e06e7cb" x="91.577629" y="320.4" style="stroke: #000000; stroke-width: 0.8"/>
      </g>
     </g>
     <g id="text_2">
      <!-- −2 -->
      <g transform="translate(84.206536 334.998438)scale(0.1 -0.1)">
       <defs>
        <path id="DejaVuSans-32" d="M 1228 531 
L 3431 531 
L 3431 0 
L 469 0 
L 469 531 
Q 828 903 1448 1529 
Q 2069 2156 2228 2338 
Q 2531 2678 2651 2914 
Q 2772 3150 2772 3378 
Q 2772 3750 2511 3984 
Q 2250 4219 1831 4219 
Q 1534 4219 1204 4116 
Q 875 4013 500 3803 
L 500 4441 
Q 881 4594 1212 4672 
Q 1544 4750 1819 4750 
Q 2544 4750 2975 4387 
Q 3406 4025 3406 3419 
Q 3406 3131 3298 2873 
Q 3191 2616 2906 2266 
Q 2828 2175 2409 1742 
Q 1991 1309 1228 531 
z
" transform="scale(0.015625)"/>
       </defs>
       <use xlink:href="#DejaVuSans-2212"/>
       <use xlink:href="#DejaVuSans-32" x="83.789062"/>
      </g>
     </g>
    </g>
    <g id="xtick_3">
     <g id="line2d_3">
      <g>
       <use xlink:href="#mec4e06e7cb" x="138.155259" y="320.4" style="stroke: #000000; stroke-width: 0.8"/>
      </g>
     </g>
     <g id="text_3">
      <!-- −1 -->
      <g transform="translate(130.784165 334.998438)scale(0.1 -0.1)">
       <defs>
        <path id="DejaVuSans-31" d="M 794 531 
L 1825 531 
L 1825 4091 
L 703 3866 
L 703 4441 
L 1819 4666 
L 2450 4666 
L 2450 531 
L 3481 531 
L 3481 0 
L 794 0 
L 794 531 
z
" transform="scale(0.015625)"/>
       </defs>
       <use xlink:href="#DejaVuSans-2212"/>
       <use xlink:href="#DejaVuSans-31" x="83.789062"/>
      </g>
     </g>
    </g>
    <g id="xtick_4">
     <g id="line2d_4">
      <g>
       <use xlink:href="#mec4e06e7cb" x="184.732888" y="320.4" style="stroke: #000000; stroke-width: 0.8"/>
      </g>
     </g>
     <g id="text_4">
      <!-- 0 -->
      <g transform="translate(181.551638 334.998438)scale(0.1 -0.1)">
       <defs>
        <path id="DejaVuSans-30" d="M 2034 4250 
Q 1547 4250 1301 3770 
Q 1056 3291 1056 2328 
Q 1056 1369 1301 889 
Q 1547 409 2034 409 
Q 2525 409 2770 889 
Q 3016 1369 3016 2328 
Q 3016 3291 2770 3770 
Q 2525 4250 2034 4250 
z
M 2034 4750 
Q 2819 4750 3233 4129 
Q 3647 3509 3647 2328 
Q 3647 1150 3233 529 
Q 2819 -91 2034 -91 
Q 1250 -91 836 529 
Q 422 1150 422 2328 
Q 422 3509 836 4129 
Q 1250 4750 2034 4750 
z
" transform="scale(0.015625)"/>
       </defs>
       <use xlink:href="#DejaVuSans-30"/>
      </g>
     </g>
    </g>
    <g id="xtick_5">
     <g id="line2d_5">
      <g>
       <use xlink:href="#mec4e06e7cb" x="231.310518" y="320.4" style="stroke: #000000; stroke-width: 0.8"/>
      </g>
     </g>
     <g id="text_5">
      <!-- 1 -->
      <g transform="translate(228.129268 334.998438)scale(0.1 -0.1)">
       <use xlink:href="#DejaVuSans-31"/>
      </g>
     </g>
    </g>
    <g id="xtick_6">
     <g id="line2d_6">
      <g>
       <use xlink:href="#mec4e06e7cb" x="277.888147" y="320.4" style="stroke: #000000; stroke-width: 0.8"/>
      </g>
     </g>
     <g id="text_6">
      <!-- 2 -->
      <g transform="translate(274.706897 334.998438)scale(0.1 -0.1)">
       <use xlink:href="#DejaVuSans-32"/>
      </g>
     </g>
    </g>
   </g>
   <g id="matplotlib.axis_2">
    <g id="ytick_1">
     <g id="line2d_7">
      <defs>
       <path id="mdb87633d79" d="M 0 0 
L -3.5 0 
" style="stroke: #000000; stroke-width: 0.8"/>
      </defs>
      <g>
       <use xlink:href="#mdb87633d79" x="45" y="320.4" style="stroke: #000000; stroke-width: 0.8"/>
      </g>
     </g>
     <g id="text_7">
      <!-- −3 -->
      <g transform="translate(23.257812 324.199219)scale(0.1 -0.1)">
       <use xlink:href="#DejaVuSans-2212"/>
       <use xlink:href="#DejaVuSans-33" x="83.789062"/>
      </g>
     </g>
    </g>
    <g id="ytick_2">
     <g id="line2d_8">
      <g>
       <use xlink:href="#mdb87633d79" x="45" y="274.122871" style="stroke: #000000; stroke-width: 0.8"/>
      </g>
     </g>
     <g id="text_8">
      <!-- −2 -->
      <g transform="translate(23.257812 277.92209)scale(0.1 -0.1)">
       <use xlink:href="#DejaVuSans-2212"/>
       <use xlink:href="#DejaVuSans-32" x="83.789062"/>
      </g>
     </g>
    </g>
    <g id="ytick_3">
     <g id="line2d_9">
      <g>
       <use xlink:href="#mdb87633d79" x="45" y="227.845743" style="stroke: #000000; stroke-width: 0.8"/>
      </g>
     </g>
     <g id="text_9">
      <!-- −1 -->
      <g transform="translate(23.257812 231.644962)scale(0.1 -0.1)">
       <use xlink:href="#DejaVuSans-2212"/>
       <use xlink:href="#DejaVuSans-31" x="83.789062"/>
      </g>
     </g>
    </g>
    <g id="ytick_4">
     <g id="line2d_10">
      <g>
       <use xlink:href="#mdb87633d79" x="45" y="181.568614" style="stroke: #000000; stroke-width: 0.8"/>
      </g>
     </g>
     <g id="text_10">
      <!-- 0 -->
      <g transform="translate(31.6375 185.367833)scale(0.1 -0.1)">
       <use xlink:href="#DejaVuSans-30"/>
      </g>
     </g>
    </g>
    <g id="ytick_5">
     <g id="line2d_11">
      <g>
       <use xlink:href="#mdb87633d79" x="45" y="135.291486" style="stroke: #000000; stroke-width: 0.8"/>
      </g>
     </g>
     <g id="text_11">
      <!-- 1 -->
      <g transform="translate(31.6375 139.090705)scale(0.1 -0.1)">
       <use xlink:href="#DejaVuSans-31"/>
      </g>
     </g>
    </g>
    <g id="ytick_6">
     <g id="line2d_12">
      <g>
       <use xlink:href="#mdb87633d79" x="45" y="89.014357" style="stroke: #000000; stroke-width: 0.8"/>
      </g>
     </g>
     <g id="text_12">
      <!-- 2 -->
      <g transform="translate(31.6375 92.813576)scale(0.1 -0.1)">
       <use xlink:href="#DejaVuSans-32"/>
      </g>
     </g>
    </g>
   </g>
   <g id="PathCollection_2">
    <path d="M 164.238731 194.59319 
L 163.996824 194.52621 
L 163.772955 194.46712 
L 163.307179 194.15128 
L 163.203663 194.063439 
L 162.841402 193.783713 
L 162.636462 193.600668 
L 162.375626 193.367698 
L 162.118338 193.137896 
L 161.90985 192.951681 
L 161.615567 192.675125 
L 161.444073 192.521149 
L 161.146013 192.212354 
L 160.978297 192.039298 
L 160.757477 191.749583 
L 160.512521 191.396912 
L 160.441258 191.286811 
L 160.141887 190.82404 
L 160.046745 190.676965 
L 159.842521 190.361269 
L 159.580968 189.94268 
L 159.55724 189.898497 
L 159.382834 189.435726 
L 159.263193 188.972955 
L 159.150361 188.510184 
L 159.115192 188.349363 
L 159.050244 188.047412 
L 158.947453 187.584641 
L 158.828963 187.12187 
L 158.692613 186.659098 
L 158.649416 186.52572 
L 158.470671 186.196327 
L 158.219554 185.733556 
L 158.183639 185.667372 
L 157.95189 185.270785 
L 157.717863 184.876819 
L 157.654639 184.808013 
L 157.252087 184.444228 
L 157.156185 184.345242 
L 156.864354 183.882471 
L 156.786311 183.692772 
L 156.662017 183.419699 
L 156.455849 182.956928 
L 156.320534 182.646345 
L 156.251554 182.494157 
L 156.041802 182.031386 
L 155.854758 181.618718 
L 155.832048 181.568614 
L 155.622296 181.105843 
L 155.412543 180.643072 
L 155.388982 180.591089 
L 155.202792 180.180301 
L 154.993037 179.717529 
L 154.923205 179.563462 
L 154.783283 179.254758 
L 154.619198 178.791987 
L 154.546393 178.329215 
L 154.47359 177.866444 
L 154.457429 177.763715 
L 154.4022 177.403673 
L 154.379904 176.940902 
L 154.364552 176.47813 
L 154.363795 176.015359 
L 154.441527 175.552588 
L 154.401448 175.089816 
L 154.333169 174.627045 
L 154.26489 174.164274 
L 154.196616 173.701503 
L 154.128339 173.238731 
L 154.060062 172.77596 
L 153.991784 172.313189 
L 153.991653 172.312296 
L 153.925873 171.850417 
L 153.860816 171.387646 
L 153.796599 170.924875 
L 153.733192 170.462104 
L 153.681272 169.999332 
L 153.624319 169.536561 
L 153.525876 169.134589 
L 153.514586 169.07379 
L 153.429864 168.611018 
L 153.367874 168.148247 
L 153.330116 167.685476 
L 153.386421 167.222705 
L 153.45094 166.759933 
L 153.5154 166.297162 
L 153.525876 166.22194 
L 153.583899 165.834391 
L 153.652245 165.371619 
L 153.719585 164.908848 
L 153.785949 164.446077 
L 153.851352 163.983306 
L 153.915817 163.520534 
L 153.979368 163.057763 
L 153.991653 162.967539 
L 154.052856 162.594992 
L 154.128421 162.13222 
L 154.212994 161.669449 
L 154.388837 161.206678 
L 154.457429 161.029427 
L 154.567919 160.743907 
L 154.74701 160.281135 
L 154.923205 159.825851 
L 154.926103 159.818364 
L 155.105193 159.355593 
L 155.284281 158.892821 
L 155.388982 158.736211 
L 155.653706 158.43005 
L 155.854758 158.231697 
L 156.159242 157.967279 
L 156.320534 157.836078 
L 156.728147 157.504508 
L 156.786311 157.457195 
L 157.252087 157.058557 
L 157.269523 157.041736 
L 157.717863 156.60104 
L 157.740321 156.578965 
L 158.183639 156.1432 
L 158.211114 156.116194 
L 158.649416 155.685369 
L 158.681916 155.653422 
L 159.115192 155.227526 
L 159.152706 155.190651 
L 159.580968 154.769696 
L 159.623509 154.72788 
L 160.046745 154.31185 
L 160.100931 154.265109 
L 160.512521 154.013622 
L 160.978297 153.929062 
L 161.444073 153.868528 
L 161.90985 153.817663 
L 162.124337 153.802337 
L 162.375626 153.785519 
L 162.841402 153.757336 
L 163.136833 153.802337 
L 163.307179 153.828218 
L 163.772955 153.944723 
L 164.238731 154.061226 
L 164.704508 154.177728 
L 165.053851 154.265109 
L 165.170284 154.294232 
L 165.63606 154.410734 
L 166.101836 154.527238 
L 166.567613 154.643739 
L 166.903981 154.72788 
L 167.033389 154.760251 
L 167.499165 154.875358 
L 167.964942 154.989182 
L 168.430718 155.103001 
L 168.789388 155.190651 
L 168.896494 155.216825 
L 169.36227 155.327017 
L 169.828047 155.42378 
L 170.293823 155.580749 
L 170.438699 155.653422 
L 170.759599 155.857697 
L 171.225376 156.083904 
L 171.289062 156.116194 
L 171.691152 156.32193 
L 172.156928 156.574375 
L 172.16772 156.578965 
L 172.622705 156.75277 
L 173.088481 156.9307 
L 173.379155 157.041736 
L 173.554257 157.108626 
L 174.020033 157.286557 
L 174.48581 157.464485 
L 174.590573 157.504508 
L 174.951586 157.642423 
L 175.417362 157.817597 
L 175.883139 157.889861 
L 176.348915 157.940903 
L 176.589619 157.967279 
L 176.814691 157.991941 
L 177.280467 158.042974 
L 177.746244 158.094018 
L 178.21202 158.145054 
L 178.677796 158.181948 
L 179.143573 158.198289 
L 179.609349 158.205476 
L 180.075125 158.21251 
L 180.540902 158.219504 
L 181.006678 158.25967 
L 181.472454 158.347898 
L 181.795548 158.43005 
L 181.93823 158.46633 
L 182.404007 158.58475 
L 182.869783 158.703184 
L 183.335559 158.821606 
L 183.480225 158.892821 
L 183.801336 159.135772 
L 184.011696 159.355593 
L 184.267112 159.642141 
L 184.417984 159.818364 
L 184.732888 160.194735 
L 184.818797 160.281135 
L 185.198664 160.580035 
L 185.481077 160.743907 
L 185.664441 160.834903 
L 186.130217 161.071937 
L 186.323992 161.206678 
L 186.595993 161.436049 
L 186.907301 161.669449 
L 187.06177 161.767917 
L 187.527546 162.064828 
L 187.610537 162.13222 
L 187.93434 162.594992 
L 187.993322 162.648599 
L 188.459098 162.938863 
L 188.678745 163.057763 
L 188.924875 163.190999 
L 189.390651 163.443126 
L 189.533652 163.520534 
L 189.856427 163.695253 
L 190.322204 163.947378 
L 190.375406 163.983306 
L 190.78798 164.184947 
L 191.253756 164.379898 
L 191.437108 164.446077 
L 191.719533 164.560329 
L 192.185309 164.886643 
L 192.208529 164.908848 
L 192.651085 165.325883 
L 192.699379 165.371619 
L 193.116861 165.76512 
L 193.166225 165.834391 
L 193.578656 166.297162 
L 193.582638 166.30095 
L 193.900512 166.759933 
L 194.048414 166.965937 
L 194.227032 167.222705 
L 194.51419 167.633122 
L 194.550674 167.685476 
L 194.873023 168.148247 
L 194.979967 168.301496 
L 195.195669 168.611018 
L 195.445743 168.969865 
L 195.518167 169.07379 
L 195.840667 169.536561 
L 195.911519 169.638232 
L 196.163164 169.999332 
L 196.377295 170.306606 
L 196.485658 170.462104 
L 196.793598 170.924875 
L 196.843072 171.007931 
L 197.069255 171.387646 
L 197.228709 171.850417 
L 197.308848 172.097029 
L 197.379092 172.313189 
L 197.5161 172.77596 
L 197.574643 173.238731 
L 197.603336 173.701503 
L 197.632025 174.164274 
L 197.660717 174.627045 
L 197.689406 175.089816 
L 197.718096 175.552588 
L 197.74679 176.015359 
L 197.774624 176.464399 
L 197.775476 176.47813 
L 197.804164 176.940902 
L 197.833139 177.403673 
L 197.877482 177.866444 
L 197.923273 178.329215 
L 197.969052 178.791987 
L 198.014838 179.254758 
L 198.060623 179.717529 
L 198.106407 180.180301 
L 198.152195 180.643072 
L 198.193512 181.105843 
L 198.240401 181.534572 
L 198.243778 181.568614 
L 198.29025 182.031386 
L 198.31486 182.494157 
L 198.320134 182.956928 
L 198.326978 183.419699 
L 198.338118 183.882471 
L 198.346965 184.345242 
L 198.240401 184.685417 
L 198.198082 184.808013 
L 198.038349 185.270785 
L 197.878608 185.733556 
L 197.774624 186.03482 
L 197.71888 186.196327 
L 197.559135 186.659098 
L 197.399411 187.12187 
L 197.308848 187.384246 
L 197.239678 187.584641 
L 197.059885 188.047412 
L 196.843072 188.251024 
L 196.377295 188.508721 
L 196.374651 188.510184 
L 195.911519 188.76642 
L 195.538242 188.972955 
L 195.445743 189.024134 
L 194.979967 189.222725 
L 194.51419 189.279901 
L 194.048414 189.228412 
L 193.582638 189.181389 
L 193.116861 189.097333 
L 192.651085 189.013278 
L 192.427647 188.972955 
L 192.185309 188.929221 
L 191.719533 188.845166 
L 191.253756 188.761109 
L 190.78798 188.677054 
L 190.322204 188.592998 
L 189.863322 188.510184 
L 189.856427 188.508932 
L 189.390651 188.424261 
L 188.924875 188.339411 
L 188.459098 188.254294 
L 187.993322 188.170922 
L 187.527546 188.089662 
L 187.329397 188.047412 
L 187.06177 187.998403 
L 186.595993 187.934983 
L 186.130217 187.859509 
L 185.664441 187.769628 
L 185.198664 187.684596 
L 184.732888 187.601128 
L 184.640888 187.584641 
L 184.267112 187.51766 
L 183.801336 187.434196 
L 183.335559 187.350728 
L 182.869783 187.290363 
L 182.404007 187.214806 
L 181.93823 187.194057 
L 181.472454 187.206327 
L 181.006678 187.218605 
L 180.540902 187.230884 
L 180.075125 187.24316 
L 179.609349 187.255435 
L 179.143573 187.271119 
L 178.677796 187.303013 
L 178.21202 187.34101 
L 177.746244 187.453927 
L 177.280467 187.577781 
L 177.265583 187.584641 
L 176.814691 187.86307 
L 176.693293 188.047412 
L 176.348915 188.448587 
L 176.246999 188.510184 
L 175.883139 188.65426 
L 175.417362 188.745245 
L 174.951586 188.836219 
L 174.48581 188.927193 
L 174.321982 188.972955 
L 174.020033 189.073353 
L 173.554257 189.278635 
L 173.198586 189.435726 
L 173.088481 189.484356 
L 172.622705 189.690074 
L 172.156928 189.895797 
L 172.150813 189.898497 
L 171.691152 190.10152 
L 171.225376 190.305449 
L 171.092164 190.361269 
L 170.759599 190.501237 
L 170.293823 190.698424 
L 170.097363 190.82404 
L 169.828047 191.022785 
L 169.449921 191.286811 
L 169.36227 191.337821 
L 168.896494 191.608887 
L 168.656005 191.749583 
L 168.430718 191.884776 
L 167.967931 192.212354 
L 167.964942 192.214523 
L 167.499165 192.555392 
L 167.335558 192.675125 
L 167.033389 192.896266 
L 166.703212 193.137896 
L 166.567613 193.237131 
L 166.101836 193.578016 
L 166.070886 193.600668 
L 165.63606 193.912696 
L 165.423402 194.063439 
L 165.170284 194.242418 
L 164.759929 194.52621 
L 164.704508 194.562027 
L 164.238731 194.59319 
z
" clip-path="url(#p75323eda30)" style="fill: none; stroke-dasharray: 5.55,2.4; stroke-dashoffset: 0; stroke: #000000; stroke-width: 1.5"/>
   </g>
   <g id="PathCollection_3">
    <path d="M 160.512521 216.740733 
L 160.298706 216.739232 
L 160.046745 216.699649 
L 159.580968 216.552982 
L 159.115192 216.338585 
L 158.649416 216.295606 
L 158.183639 216.282406 
L 157.761898 216.276461 
L 157.717863 216.266455 
L 157.252087 216.16897 
L 156.786311 216.045948 
L 156.320534 215.866742 
L 155.854758 215.826652 
L 155.388982 215.815237 
L 155.126241 215.813689 
L 154.923205 215.797265 
L 154.457429 215.78793 
L 153.991653 215.795244 
L 153.525876 215.702488 
L 153.0601 215.465395 
L 152.596897 215.350918 
L 152.594324 215.349657 
L 152.128548 215.137279 
L 151.662771 214.888764 
L 151.653603 214.888147 
L 151.196995 214.593502 
L 150.905878 214.425376 
L 150.731219 214.306435 
L 150.265442 213.999984 
L 150.117176 213.962604 
L 149.799666 213.737269 
L 149.493063 213.499833 
L 149.33389 213.36352 
L 148.928487 213.037062 
L 148.868114 212.985809 
L 148.402337 212.59188 
L 148.361303 212.57429 
L 147.936561 212.20079 
L 147.832613 212.111519 
L 147.470785 211.794213 
L 147.289434 211.648748 
L 147.005008 211.40202 
L 146.730333 211.185977 
L 146.539232 211.022342 
L 146.14981 210.723205 
L 146.073456 210.658845 
L 145.607679 210.263623 
L 145.593061 210.260434 
L 145.141903 209.862616 
L 145.061718 209.797663 
L 144.676127 209.461015 
L 144.51763 209.334891 
L 144.210351 209.069734 
L 143.956687 208.87212 
L 143.744574 208.691643 
L 143.380276 208.409349 
L 143.278798 208.324203 
L 142.828728 207.946578 
L 142.813022 207.9334 
L 142.347245 207.527686 
L 142.292681 207.483806 
L 141.881469 207.126491 
L 141.747805 207.021035 
L 141.415693 206.736075 
L 141.117102 206.558264 
L 140.949917 206.452325 
L 140.48414 206.133028 
L 140.394521 206.095492 
L 140.018364 205.833972 
L 139.742346 205.632721 
L 139.552588 205.311311 
L 139.548032 205.16995 
L 139.464658 204.707179 
L 139.280072 204.244407 
L 139.124144 203.781636 
L 139.086811 203.64174 
L 139.080613 203.318865 
L 139.037151 202.856093 
L 138.803575 202.393322 
L 138.621035 202.017005 
L 138.61759 201.930551 
L 138.414502 201.46778 
L 138.163761 201.005008 
L 138.155259 200.986751 
L 138.103726 200.542237 
L 137.777386 200.079466 
L 137.689482 199.905936 
L 137.673499 199.616694 
L 137.379852 199.153923 
L 137.223706 198.865654 
L 137.216753 198.691152 
L 136.973368 198.228381 
L 136.75793 197.830827 
L 136.7559 197.765609 
L 136.695485 197.302838 
L 136.331222 196.840067 
L 136.292154 196.761397 
L 136.271573 196.377295 
L 135.987225 195.914524 
L 135.826377 195.550169 
L 135.824038 195.451753 
L 135.79868 194.988982 
L 135.494426 194.52621 
L 135.360601 194.259034 
L 135.35491 194.063439 
L 135.259813 193.600668 
L 134.894825 193.149064 
L 134.89372 193.137896 
L 134.860314 192.675125 
L 134.442643 192.212354 
L 134.429048 192.189005 
L 134.407513 191.749583 
L 134.01169 191.286811 
L 133.963272 191.202488 
L 133.948861 190.82404 
L 133.687255 190.361269 
L 133.497496 190.078852 
L 133.48797 189.898497 
L 133.414639 189.435726 
L 133.03172 189.006044 
L 133.025392 188.972955 
L 132.9866 188.510184 
L 132.565943 188.058332 
L 132.5626 188.047412 
L 132.545398 187.584641 
L 132.418648 187.12187 
L 132.100167 186.734023 
L 132.090809 186.659098 
L 132.059089 186.196327 
L 131.634391 185.744477 
L 131.630747 185.733556 
L 131.615784 185.270785 
L 131.541933 184.808013 
L 131.168614 184.388961 
L 131.159457 184.345242 
L 131.134265 183.882471 
L 131.102179 183.419699 
L 131.089861 182.956928 
L 131.071959 182.494157 
L 131.043591 182.031386 
L 131.005162 181.568614 
L 130.932888 181.105843 
L 130.746565 180.643072 
L 130.702838 180.377696 
L 130.701488 180.180301 
L 130.701149 179.717529 
L 130.70078 179.254758 
L 130.700377 178.791987 
L 130.700772 178.329215 
L 130.7018 177.866444 
L 130.702781 177.403673 
L 130.702838 177.376036 
L 130.727067 176.940902 
L 130.752363 176.47813 
L 130.777187 176.015359 
L 130.801538 175.552588 
L 130.825453 175.089816 
L 130.848921 174.627045 
L 130.950172 174.164274 
L 131.015309 173.701503 
L 131.058267 173.238731 
L 131.087754 172.77596 
L 131.107223 172.313189 
L 131.121034 171.850417 
L 131.131346 171.387646 
L 131.139334 170.924875 
L 131.145706 170.462104 
L 131.150907 169.999332 
L 131.155377 169.536561 
L 131.162655 169.07379 
L 131.168583 168.611018 
L 131.168614 168.607832 
L 131.232672 168.148247 
L 131.292569 167.685476 
L 131.348323 167.222705 
L 131.400346 166.759933 
L 131.449006 166.297162 
L 131.494617 165.834391 
L 131.537452 165.371619 
L 131.615078 164.908848 
L 131.630912 164.446077 
L 131.634391 164.209287 
L 131.660261 163.983306 
L 131.713237 163.520534 
L 131.8098 163.057763 
L 131.949809 162.594992 
L 132.080198 162.13222 
L 132.100167 161.930705 
L 132.171584 161.669449 
L 132.319495 161.206678 
L 132.451358 160.743907 
L 132.562973 160.281135 
L 132.565943 160.22688 
L 132.677618 159.818364 
L 132.811727 159.355593 
L 132.909746 158.892821 
L 133.004408 158.43005 
L 133.024949 157.967279 
L 133.030231 157.504508 
L 133.03172 157.388522 
L 133.080094 157.041736 
L 133.197197 156.578965 
L 133.305147 156.116194 
L 133.409522 155.653422 
L 133.492606 155.190651 
L 133.497496 154.99832 
L 133.564334 154.72788 
L 133.684971 154.265109 
L 133.781645 153.802337 
L 133.940321 153.339566 
L 133.96089 152.876795 
L 133.963272 152.764412 
L 134.061852 152.414023 
L 134.168971 151.951252 
L 134.336524 151.488481 
L 134.416716 151.02571 
L 134.429048 150.585978 
L 134.435643 150.562938 
L 134.553857 150.100167 
L 134.650105 149.637396 
L 134.863051 149.174624 
L 134.8889 148.711853 
L 134.894825 148.407553 
L 134.936181 148.249082 
L 135.041676 147.786311 
L 135.275366 147.323539 
L 135.360601 146.93694 
L 135.414654 146.860768 
L 135.826377 146.459296 
L 135.89544 146.397997 
L 136.292154 146.045879 
L 136.29625 145.935225 
L 136.320362 145.472454 
L 136.476487 145.009683 
L 136.75793 144.748083 
L 136.975407 144.546912 
L 137.223706 144.303345 
L 137.432391 144.08414 
L 137.689482 143.831738 
L 137.890473 143.621369 
L 138.155259 143.361221 
L 138.349434 143.158598 
L 138.621035 142.891581 
L 138.809165 142.695826 
L 139.086811 142.422707 
L 139.250851 142.233055 
L 139.552588 141.919049 
L 139.657035 141.770284 
L 140.018364 141.396779 
L 140.086755 141.307513 
L 140.48414 140.900161 
L 140.528922 140.844741 
L 140.949917 140.415527 
L 140.978006 140.38197 
L 141.415693 139.940186 
L 141.436015 139.919199 
L 141.881469 139.473372 
L 141.898338 139.456427 
L 142.347245 139.007157 
L 142.360686 138.993656 
L 142.813022 138.540967 
L 142.823059 138.530885 
L 143.278798 138.074801 
L 143.285456 138.068114 
L 143.744574 137.60866 
L 143.747878 137.605342 
L 144.209812 137.142571 
L 144.210351 137.141947 
L 144.609341 136.6798 
L 144.676127 136.602439 
L 145.008858 136.217028 
L 145.141903 136.062921 
L 145.40838 135.754257 
L 145.607679 135.523403 
L 145.807901 135.291486 
L 146.073456 134.98389 
L 146.20742 134.828715 
L 146.539232 134.444371 
L 146.606941 134.365943 
L 147.005008 133.904865 
L 147.00647 133.903172 
L 147.405989 133.440401 
L 147.470785 133.365347 
L 147.805517 132.977629 
L 147.936561 132.825842 
L 148.402337 132.564925 
L 148.661726 132.514858 
L 148.868114 132.476781 
L 149.33389 132.385121 
L 149.799666 132.295226 
L 150.265442 132.20533 
L 150.731219 132.08501 
L 151.059407 132.052087 
L 151.196995 132.02553 
L 151.662771 131.935634 
L 152.128548 131.845732 
L 152.594324 131.755828 
L 153.0601 131.601372 
L 153.457069 131.589316 
L 153.525876 131.576036 
L 153.991653 131.486136 
L 154.457429 131.396244 
L 154.923205 131.160613 
L 155.388982 131.140552 
L 155.854758 131.133763 
L 156.320534 131.129785 
L 156.786311 131.127165 
L 156.926122 131.126544 
L 157.252087 131.099563 
L 157.717863 130.863407 
L 158.183639 130.732825 
L 158.649416 130.701893 
L 159.115192 130.688048 
L 159.580968 130.680217 
L 160.046745 130.67516 
L 160.512521 130.671624 
L 160.93959 130.663773 
L 160.978297 130.652271 
L 161.444073 130.323252 
L 161.90985 130.267492 
L 162.375626 130.24611 
L 162.841402 130.222289 
L 163.021938 130.201002 
L 163.307179 130.032743 
L 163.772955 129.763376 
L 163.854298 129.73823 
L 164.238731 129.716995 
L 164.704508 129.736029 
L 164.813352 129.73823 
L 165.170284 129.834204 
L 165.63606 129.942084 
L 166.101836 130.034253 
L 166.567613 130.182881 
L 167.033389 130.200451 
L 167.059534 130.201002 
L 167.499165 130.324564 
L 167.964942 130.434674 
L 168.430718 130.52813 
L 168.896494 130.651508 
L 169.260474 130.663773 
L 169.36227 130.68621 
L 169.828047 130.817547 
L 170.293823 130.929841 
L 170.759599 131.024487 
L 171.225376 131.121487 
L 171.357478 131.126544 
L 171.691152 131.202463 
L 172.156928 131.33914 
L 172.622705 131.464085 
L 173.088481 131.577998 
L 173.221778 131.589316 
L 173.554257 131.673346 
L 174.020033 131.804393 
L 174.48581 131.923902 
L 174.951586 131.992342 
L 175.290474 132.052087 
L 175.417362 132.080522 
L 175.883139 132.187071 
L 176.348915 132.304181 
L 176.814691 132.416611 
L 177.280467 132.510983 
L 177.316063 132.514858 
L 177.746244 132.613264 
L 178.21202 132.719814 
L 178.677796 132.83766 
L 179.143573 132.940302 
L 179.339049 132.977629 
L 179.609349 133.039461 
L 180.075125 133.146011 
L 180.540902 133.252562 
L 181.006678 133.367251 
L 181.362037 133.440401 
L 181.472454 133.465659 
L 181.93823 133.572207 
L 182.404007 133.678756 
L 182.869783 133.768726 
L 183.335559 133.877624 
L 183.381112 133.903172 
L 183.801336 134.005505 
L 184.043525 133.903172 
L 184.267112 133.900565 
L 184.27277 133.903172 
L 184.732888 134.354257 
L 185.198664 134.357466 
L 185.217455 134.365943 
L 185.664441 134.804996 
L 186.130217 134.813359 
L 186.177015 134.828715 
L 186.595993 135.242812 
L 187.06177 135.26756 
L 187.527546 135.288426 
L 187.536636 135.291486 
L 187.993322 135.709984 
L 188.459098 135.728824 
L 188.578069 135.754257 
L 188.924875 136.094321 
L 189.390651 136.18019 
L 189.573815 136.217028 
L 189.856427 136.493116 
L 190.322204 136.634251 
L 190.620861 136.6798 
L 190.78798 136.841976 
L 191.253756 137.086362 
L 191.719533 137.136531 
L 191.732458 137.142571 
L 192.185309 137.535269 
L 192.651085 137.570615 
L 192.712117 137.605342 
L 193.116861 138.001562 
L 193.386634 138.068114 
L 193.582638 138.27157 
L 194.048414 138.469485 
L 194.192969 138.530885 
L 194.51419 138.873314 
L 194.979967 138.927162 
L 195.102283 138.993656 
L 195.445743 139.354454 
L 195.911519 139.388033 
L 196.080276 139.456427 
L 196.377295 139.778541 
L 196.843072 139.830319 
L 197.137597 139.919199 
L 197.308848 140.126661 
L 197.774624 140.262419 
L 197.979316 140.38197 
L 198.240401 140.672954 
L 198.578467 140.844741 
L 198.706177 141.014233 
L 198.968387 141.307513 
L 199.171953 141.55724 
L 199.63773 141.730624 
L 199.744098 141.770284 
L 200.103506 142.197176 
L 200.569282 142.205267 
L 200.626765 142.233055 
L 200.569282 142.675308 
L 200.103506 142.648284 
L 199.63773 142.57937 
L 199.498009 142.695826 
L 199.63773 142.743356 
L 200.103506 142.766913 
L 200.533658 143.158598 
L 200.569282 143.176923 
L 201.035058 143.397488 
L 201.433248 143.621369 
L 201.500835 143.656138 
L 201.966611 143.895743 
L 202.312349 144.08414 
L 202.432387 144.15478 
L 202.898164 144.469277 
L 203.012967 144.546912 
L 203.36394 144.784251 
L 203.735685 145.009683 
L 203.829716 145.057879 
L 204.295492 145.29643 
L 204.639191 145.472454 
L 204.761269 145.534975 
L 205.227045 145.797602 
L 205.435874 145.935225 
L 205.692821 146.138097 
L 206.022003 146.397997 
L 206.158598 146.505844 
L 206.608139 146.860768 
L 206.624374 146.873586 
L 207.09015 147.241334 
L 207.194269 147.323539 
L 207.555927 147.609073 
L 207.780409 147.786311 
L 208.021703 147.976823 
L 208.366535 148.249082 
L 208.487479 148.344572 
L 208.95267 148.711853 
L 208.953255 148.712316 
L 209.419032 149.095715 
L 209.51943 149.174624 
L 209.884808 149.545442 
L 209.959012 149.637396 
L 210.350584 150.071805 
L 210.369522 150.100167 
L 210.557572 150.562938 
L 210.795957 151.02571 
L 210.816361 151.07192 
L 210.965415 151.488481 
L 211.204624 151.951252 
L 211.282137 152.126802 
L 211.379432 152.414023 
L 211.594899 152.876795 
L 211.747913 153.200356 
L 211.797423 153.339566 
L 211.993452 153.802337 
L 212.213689 154.242884 
L 212.222445 154.265109 
L 212.38672 154.72788 
L 212.623939 155.190651 
L 212.679466 155.319909 
L 212.787877 155.653422 
L 212.990858 156.116194 
L 213.145242 156.436943 
L 213.198086 156.578965 
L 213.373861 157.041736 
L 213.611018 157.493523 
L 213.615561 157.504508 
L 213.727488 157.967279 
L 213.83955 158.43005 
L 214.076795 158.888297 
L 214.07867 158.892821 
L 214.24549 159.355593 
L 214.481891 159.818364 
L 214.542571 159.957946 
L 214.655168 160.281135 
L 214.88425 160.743907 
L 215.008347 161.029366 
L 215.06825 161.206678 
L 215.277207 161.669449 
L 215.474124 162.10314 
L 215.484431 162.13222 
L 215.674163 162.594992 
L 215.89014 163.057763 
L 215.9399 163.172221 
L 216.075956 163.520534 
L 216.292505 163.983306 
L 216.405676 164.243622 
L 216.482084 164.446077 
L 216.694876 164.908848 
L 216.871452 165.31502 
L 216.892113 165.371619 
L 217.097241 165.834391 
L 217.298423 166.297162 
L 217.337229 166.386424 
L 217.497888 166.759933 
L 217.666381 167.222705 
L 217.803005 167.599555 
L 217.831494 167.685476 
L 218.001921 168.148247 
L 218.169692 168.611018 
L 218.268781 168.884357 
L 218.337455 169.07379 
L 218.505225 169.536561 
L 218.672996 169.999332 
L 218.734558 170.169141 
L 218.840766 170.462104 
L 219.008537 170.924875 
L 219.176304 171.387646 
L 219.200334 171.453929 
L 219.344074 171.850417 
L 219.511844 172.313189 
L 219.66611 172.738706 
L 219.679616 172.77596 
L 219.847381 173.238731 
L 220.015148 173.701503 
L 220.131886 174.023504 
L 220.182921 174.164274 
L 220.35069 174.627045 
L 220.518458 175.089816 
L 220.597663 175.308296 
L 220.686226 175.552588 
L 220.852612 176.015359 
L 221.013647 176.47813 
L 221.063439 176.741168 
L 221.101247 176.940902 
L 221.188853 177.403673 
L 221.276451 177.866444 
L 221.36405 178.329215 
L 221.451657 178.791987 
L 221.529215 179.201708 
L 221.539258 179.254758 
L 221.626856 179.717529 
L 221.714459 180.180301 
L 221.802059 180.643072 
L 221.889665 181.105843 
L 221.993019 181.568614 
L 221.994992 181.662275 
L 222.064866 182.031386 
L 222.152468 182.494157 
L 222.240074 182.956928 
L 222.33517 183.419699 
L 222.456846 183.882471 
L 222.460768 184.12278 
L 222.502224 184.345242 
L 222.576958 184.808013 
L 222.636923 185.270785 
L 222.69689 185.733556 
L 222.886877 186.196327 
L 222.916989 186.659098 
L 222.923882 187.12187 
L 222.926544 187.423413 
L 222.952712 187.584641 
L 223.045925 188.047412 
L 223.139139 188.510184 
L 223.36885 188.972955 
L 223.388319 189.435726 
L 223.392321 189.767099 
L 223.418787 189.898497 
L 223.512 190.361269 
L 223.605219 190.82404 
L 223.83126 191.286811 
L 223.851217 191.749583 
L 223.852754 192.212354 
L 223.854109 192.675125 
L 223.855315 193.137896 
L 223.856394 193.600668 
L 223.857364 194.063439 
L 223.858097 194.445882 
L 223.860874 194.52621 
L 223.924349 194.988982 
L 223.995631 195.451753 
L 224.066921 195.914524 
L 224.138204 196.377295 
L 224.247916 196.840067 
L 224.224925 197.302838 
L 224.215541 197.765609 
L 224.198921 198.228381 
L 224.1823 198.691152 
L 224.165683 199.153923 
L 224.149061 199.616694 
L 224.132446 200.079466 
L 224.115819 200.542237 
L 224.098143 201.005008 
L 223.956833 201.46778 
L 223.858097 201.772776 
L 223.80702 201.930551 
L 223.646415 202.393322 
L 223.411182 202.856093 
L 223.392321 202.889176 
L 223.129005 203.318865 
L 222.926544 203.587547 
L 222.77987 203.781636 
L 222.46607 204.244407 
L 222.460768 204.254512 
L 222.223265 204.707179 
L 221.994992 205.100088 
L 221.953372 205.16995 
L 221.631983 205.632721 
L 221.529215 205.768999 
L 221.262608 206.095492 
L 221.063439 206.32532 
L 220.861572 206.558264 
L 220.597663 206.862797 
L 220.460536 207.021035 
L 220.131886 207.368157 
L 219.990785 207.483806 
L 219.66611 207.732326 
L 219.386208 207.946578 
L 219.200334 208.088853 
L 218.772366 208.409349 
L 218.734558 208.437176 
L 218.268781 208.724427 
L 218.029298 208.87212 
L 217.803005 209.011681 
L 217.337229 209.298929 
L 217.278915 209.334891 
L 216.871452 209.586179 
L 216.528531 209.797663 
L 216.405676 209.873428 
L 215.9399 210.160679 
L 215.835971 210.260434 
L 215.474124 210.65011 
L 215.410039 210.723205 
L 215.008347 211.181388 
L 215.003894 211.185977 
L 214.542571 211.454911 
L 214.143355 211.648748 
L 214.076795 211.681065 
L 213.611018 211.907216 
L 213.190239 212.111519 
L 213.145242 212.13281 
L 212.679466 212.294353 
L 212.213689 212.454488 
L 211.865228 212.57429 
L 211.747913 212.614624 
L 211.282137 212.774762 
L 210.816361 212.934898 
L 210.350584 213.027863 
L 210.291051 213.037062 
L 209.884808 213.094554 
L 209.419032 213.160477 
L 208.953255 213.226395 
L 208.487479 213.292314 
L 208.021703 213.358232 
L 207.555927 213.418875 
L 207.09015 213.391289 
L 206.624374 213.349964 
L 206.158598 213.308638 
L 205.692821 213.269119 
L 205.227045 213.229609 
L 204.761269 213.189199 
L 204.295492 213.147859 
L 203.829716 213.10849 
L 203.36394 213.070576 
L 202.952277 213.037062 
L 202.898164 213.032727 
L 202.432387 212.994942 
L 201.966611 212.956824 
L 201.500835 212.918904 
L 201.035058 212.880986 
L 200.569282 212.843072 
L 200.103506 212.805155 
L 199.63773 212.767236 
L 199.171953 212.729323 
L 198.706177 212.691406 
L 198.240401 212.653486 
L 197.774624 212.61557 
L 197.308848 212.577659 
L 197.267476 212.57429 
L 196.843072 212.53974 
L 196.377295 212.501824 
L 195.911519 212.463906 
L 195.445743 212.425989 
L 194.979967 212.388071 
L 194.51419 212.350152 
L 194.048414 212.312234 
L 193.582638 212.27386 
L 193.116861 212.227402 
L 192.651085 212.176953 
L 192.185309 212.126505 
L 192.046958 212.111519 
L 191.719533 212.076054 
L 191.253756 212.025603 
L 190.78798 211.975156 
L 190.322204 211.921845 
L 189.856427 211.862462 
L 189.390651 211.799106 
L 188.924875 211.732547 
L 188.459098 211.67416 
L 188.187746 211.648748 
L 187.993322 211.63054 
L 187.527546 211.586915 
L 187.06177 211.543291 
L 186.595993 211.533259 
L 186.130217 211.545041 
L 185.664441 211.564354 
L 185.198664 211.58367 
L 184.732888 211.602984 
L 184.267112 211.622299 
L 183.801336 211.643681 
L 183.751294 211.648748 
L 183.335559 211.690838 
L 182.869783 211.737991 
L 182.404007 211.807848 
L 181.93823 211.91364 
L 181.472454 212.009405 
L 181.006678 212.036524 
L 180.540902 212.054079 
L 180.075125 212.094881 
L 179.966307 212.111519 
L 179.609349 212.176304 
L 179.143573 212.260839 
L 178.677796 212.345378 
L 178.21202 212.429913 
L 177.746244 212.52385 
L 177.551621 212.57429 
L 177.280467 212.64789 
L 176.814691 212.802881 
L 176.348915 212.952105 
L 176.075795 213.037062 
L 175.883139 213.087022 
L 175.417362 213.228799 
L 174.951586 213.376191 
L 174.541706 213.499833 
L 174.48581 213.502993 
L 174.020033 213.627699 
L 173.554257 213.769809 
L 173.088481 213.938211 
L 173.007609 213.962604 
L 172.622705 214.019444 
L 172.156928 214.21572 
L 171.709197 214.425376 
L 171.691152 214.425958 
L 171.225376 214.497399 
L 170.759599 214.762008 
L 170.477914 214.888147 
L 170.293823 214.893982 
L 169.828047 214.984619 
L 169.36227 215.302121 
L 169.246677 215.350918 
L 168.896494 215.361828 
L 168.430718 215.415265 
L 167.964942 215.585589 
L 167.499165 215.762341 
L 167.161489 215.813689 
L 167.033389 215.814602 
L 166.567613 215.818971 
L 166.101836 215.82623 
L 165.63606 215.840667 
L 165.170284 215.883316 
L 164.704508 216.068682 
L 164.238731 216.230393 
L 163.939799 216.276461 
L 163.772955 216.277664 
L 163.307179 216.282175 
L 162.841402 216.289735 
L 162.375626 216.305004 
L 161.90985 216.352068 
L 161.444073 216.55453 
L 160.978297 216.698597 
L 160.718082 216.739232 
L 160.512521 216.740733 
z
" clip-path="url(#p75323eda30)" style="fill: none; stroke: #000000; stroke-width: 1.5"/>
   </g>
   <g id="PathCollection_4">
    <path d="M 155.854758 239.936148 
L 155.518005 239.877796 
L 155.388982 239.85544 
L 154.923205 239.774741 
L 154.457429 239.694037 
L 153.991653 239.613336 
L 153.525876 239.532642 
L 153.0601 239.451943 
L 152.84704 239.415025 
L 152.594324 239.371236 
L 152.128548 239.29054 
L 151.662771 239.209846 
L 151.196995 239.125691 
L 150.731219 238.994936 
L 150.579169 238.952254 
L 150.265442 238.864188 
L 149.799666 238.733434 
L 149.33389 238.602688 
L 148.930604 238.489482 
L 148.868114 238.471941 
L 148.402337 238.341186 
L 147.936561 238.21043 
L 147.470785 238.07968 
L 147.282095 238.026711 
L 147.005008 237.948929 
L 146.539232 237.818184 
L 146.073456 237.687425 
L 145.633558 237.56394 
L 145.607679 237.556676 
L 145.141903 237.425931 
L 144.676127 237.291176 
L 144.330503 237.101169 
L 144.210351 237.027468 
L 143.744574 236.741752 
L 143.576086 236.638397 
L 143.278798 236.456037 
L 142.821671 236.175626 
L 142.813022 236.17032 
L 142.347245 235.884608 
L 142.067258 235.712855 
L 141.881469 235.598887 
L 141.415693 235.31318 
L 141.312833 235.250083 
L 140.949917 235.027459 
L 140.558418 234.787312 
L 140.48414 234.741748 
L 140.018364 234.456022 
L 139.804013 234.324541 
L 139.552588 234.170316 
L 139.086811 233.884594 
L 139.049603 233.86177 
L 138.621035 233.598876 
L 138.295195 233.398998 
L 138.155259 233.313159 
L 137.689482 233.027447 
L 137.540779 232.936227 
L 137.223706 232.741725 
L 136.786369 232.473456 
L 136.75793 232.45601 
L 136.292154 232.169257 
L 136.035129 232.010684 
L 135.826377 231.881892 
L 135.360601 231.594522 
L 135.285057 231.547913 
L 134.894825 231.30626 
L 134.592554 231.085142 
L 134.429048 230.952744 
L 134.02104 230.622371 
L 133.963272 230.575594 
L 133.497496 230.198436 
L 133.449535 230.159599 
L 133.03172 229.821271 
L 132.878037 229.696828 
L 132.565943 229.444117 
L 132.306533 229.234057 
L 132.100167 229.06695 
L 131.735029 228.771285 
L 131.634391 228.689795 
L 131.168614 228.312632 
L 131.163529 228.308514 
L 130.702838 227.95691 
L 130.554932 227.845743 
L 130.237062 227.611181 
L 129.927798 227.382972 
L 129.771285 227.267479 
L 129.305509 226.923772 
L 129.300669 226.9202 
L 128.839733 226.589823 
L 128.620626 226.457429 
L 128.373957 226.314335 
L 127.94932 225.994658 
L 127.90818 225.954366 
L 127.534505 225.531886 
L 127.442404 225.428982 
L 127.120313 225.069115 
L 126.976628 224.90858 
L 126.70612 224.606344 
L 126.510851 224.388174 
L 126.291926 224.143573 
L 126.045075 223.867763 
L 125.877738 223.680801 
L 125.579299 223.34736 
L 125.463705 223.21803 
L 125.113523 222.826469 
L 125.049867 222.755259 
L 124.647746 222.305391 
L 124.636213 222.292487 
L 124.222559 221.829716 
L 124.18197 221.784307 
L 123.808904 221.366945 
L 123.716194 221.263227 
L 123.395253 220.904174 
L 123.250417 220.742139 
L 122.981603 220.441402 
L 122.784641 220.221055 
L 122.567948 219.978631 
L 122.318865 219.699964 
L 122.1561 219.51586 
L 121.915511 219.053088 
L 121.853088 218.882528 
L 121.746144 218.590317 
L 121.565603 218.127546 
L 121.387312 217.787896 
L 121.316162 217.664775 
L 121.048733 217.202003 
L 120.921536 216.981899 
L 120.781303 216.739232 
L 120.513867 216.276461 
L 120.45576 216.175907 
L 120.246442 215.813689 
L 119.989983 215.369912 
L 119.979007 215.350918 
L 119.711581 214.888147 
L 119.524207 214.563919 
L 119.444142 214.425376 
L 119.176718 213.962604 
L 119.058431 213.757911 
L 118.909292 213.499833 
L 118.641853 213.037062 
L 118.592654 212.951924 
L 118.374429 212.57429 
L 118.126878 212.145927 
L 118.106994 212.111519 
L 117.839572 211.648748 
L 117.661102 211.339915 
L 117.572142 211.185977 
L 117.304717 210.723205 
L 117.195326 210.533913 
L 117.037285 210.260434 
L 116.769857 209.797663 
L 116.729549 209.727914 
L 116.502428 209.334891 
L 116.289205 208.87212 
L 116.263773 208.812995 
L 116.090148 208.409349 
L 115.891089 207.946578 
L 115.797997 207.730169 
L 115.69202 207.483806 
L 115.492969 207.021035 
L 115.33222 206.64736 
L 115.293894 206.558264 
L 115.094841 206.095492 
L 114.895773 205.632721 
L 114.866444 205.564536 
L 114.696718 205.16995 
L 114.497654 204.707179 
L 114.400668 204.48171 
L 114.298593 204.244407 
L 114.099529 203.781636 
L 113.934891 203.398877 
L 113.900475 203.318865 
L 113.701417 202.856093 
L 113.502355 202.393322 
L 113.469115 202.316047 
L 113.303295 201.930551 
L 113.104223 201.46778 
L 113.003339 201.23325 
L 112.905162 201.005008 
L 112.706104 200.542237 
L 112.537563 200.150423 
L 112.50704 200.079466 
L 112.308017 199.616694 
L 112.108958 199.153923 
L 112.071786 199.067414 
L 111.910154 198.691152 
L 111.711281 198.228381 
L 111.60601 197.983346 
L 111.512465 197.765609 
L 111.313638 197.302838 
L 111.140234 196.899231 
L 111.114815 196.840067 
L 110.915992 196.377295 
L 110.717169 195.914524 
L 110.674457 195.815111 
L 110.514047 195.451753 
L 110.303417 194.988982 
L 110.208681 194.794215 
L 110.077003 194.52621 
L 109.844178 194.063439 
L 109.742905 193.862151 
L 109.611347 193.600668 
L 109.378522 193.137896 
L 109.277129 192.936363 
L 109.145699 192.675125 
L 108.912871 192.212354 
L 108.811352 192.010567 
L 108.685996 191.749583 
L 108.563033 191.286811 
L 108.458256 190.82404 
L 108.359581 190.361269 
L 108.345576 190.295583 
L 108.260913 189.898497 
L 108.172796 189.435726 
L 108.087232 188.972955 
L 107.992665 188.510184 
L 107.8981 188.047412 
L 107.8798 187.705731 
L 107.873462 187.584641 
L 107.8798 187.131983 
L 107.879941 187.12187 
L 107.880784 186.659098 
L 107.8798 186.563278 
L 107.87603 186.196327 
L 107.871276 185.733556 
L 107.866517 185.270785 
L 107.861766 184.808013 
L 107.85701 184.345242 
L 107.852259 183.882471 
L 107.847508 183.419699 
L 107.842754 182.956928 
L 107.838003 182.494157 
L 107.833251 182.031386 
L 107.828498 181.568614 
L 107.823744 181.105843 
L 107.818993 180.643072 
L 107.81424 180.180301 
L 107.809486 179.717529 
L 107.804732 179.254758 
L 107.80792 178.791987 
L 107.816888 178.329215 
L 107.82585 177.866444 
L 107.834828 177.403673 
L 107.843781 176.940902 
L 107.852759 176.47813 
L 107.861724 176.015359 
L 107.870692 175.552588 
L 107.879649 175.089816 
L 107.8798 175.082036 
L 107.888625 174.627045 
L 107.897596 174.164274 
L 107.906563 173.701503 
L 107.915528 173.238731 
L 107.924496 172.77596 
L 107.933465 172.313189 
L 107.942432 171.850417 
L 107.951397 171.387646 
L 107.960364 170.924875 
L 107.969058 170.462104 
L 107.970825 169.999332 
L 107.972428 169.536561 
L 107.974022 169.07379 
L 107.975622 168.611018 
L 107.977217 168.148247 
L 107.978817 167.685476 
L 107.980412 167.222705 
L 107.982019 166.759933 
L 107.983618 166.297162 
L 107.985225 165.834391 
L 107.986822 165.371619 
L 108.031546 164.908848 
L 108.077681 164.446077 
L 108.123827 163.983306 
L 108.169967 163.520534 
L 108.216107 163.057763 
L 108.26225 162.594992 
L 108.308392 162.13222 
L 108.345576 161.801465 
L 108.361 161.669449 
L 108.482919 161.206678 
L 108.604845 160.743907 
L 108.726768 160.281135 
L 108.811352 159.960093 
L 108.848693 159.818364 
L 108.970621 159.355593 
L 109.09254 158.892821 
L 109.214467 158.43005 
L 109.277129 158.192206 
L 109.336387 157.967279 
L 109.458311 157.504508 
L 109.58024 157.041736 
L 109.702153 156.578965 
L 109.742905 156.424295 
L 109.824084 156.116194 
L 109.946011 155.653422 
L 110.067932 155.190651 
L 110.189857 154.72788 
L 110.208681 154.656433 
L 110.311782 154.265109 
L 110.433704 153.802337 
L 110.555629 153.339566 
L 110.674457 152.888527 
L 110.677549 152.876795 
L 110.79948 152.414023 
L 110.921396 151.951252 
L 111.043322 151.488481 
L 111.140234 151.120626 
L 111.165239 151.02571 
L 111.287165 150.562938 
L 111.409082 150.100167 
L 111.531008 149.637396 
L 111.60601 149.341698 
L 111.647928 149.174624 
L 111.758149 148.711853 
L 111.868383 148.249082 
L 111.978614 147.786311 
L 112.071786 147.395102 
L 112.08883 147.323539 
L 112.199057 146.860768 
L 112.35831 146.397997 
L 112.537563 146.043884 
L 112.592564 145.935225 
L 112.826818 145.472454 
L 113.003339 145.123727 
L 113.061066 145.009683 
L 113.295317 144.546912 
L 113.469115 144.203569 
L 113.529568 144.08414 
L 113.763823 143.621369 
L 113.934891 143.203596 
L 113.951704 143.158598 
L 114.115053 142.695826 
L 114.278404 142.233055 
L 114.400668 141.886679 
L 114.441753 141.770284 
L 114.605101 141.307513 
L 114.768449 140.844741 
L 114.866444 140.564208 
L 114.929524 140.38197 
L 115.087399 139.919199 
L 115.24528 139.456427 
L 115.33222 139.201585 
L 115.403156 138.993656 
L 115.561034 138.530885 
L 115.71891 138.068114 
L 115.797997 137.836295 
L 115.876788 137.605342 
L 116.032677 137.142571 
L 116.176798 136.6798 
L 116.263773 136.385536 
L 116.313292 136.217028 
L 116.449292 135.754257 
L 116.585275 135.291486 
L 116.721275 134.828715 
L 116.729549 134.800559 
L 116.857265 134.365943 
L 116.993255 133.903172 
L 117.129251 133.440401 
L 117.195326 133.215555 
L 117.265244 132.977629 
L 117.401234 132.514858 
L 117.537224 132.052087 
L 117.661102 131.737504 
L 117.729779 131.589316 
L 118.056949 131.126544 
L 118.126878 131.036413 
L 118.412436 130.663773 
L 118.592654 130.428074 
L 118.766281 130.201002 
L 119.058431 129.818918 
L 119.120128 129.73823 
L 119.473976 129.275459 
L 119.524207 129.204134 
L 119.786312 128.812688 
L 119.989983 128.500641 
L 120.088363 128.349917 
L 120.390416 127.887145 
L 120.45576 127.787033 
L 120.692465 127.424374 
L 120.921536 127.073418 
L 120.99553 126.961603 
L 121.335737 126.498831 
L 121.387312 126.431669 
L 121.691107 126.03606 
L 121.853088 125.82512 
L 122.046469 125.573289 
L 122.318865 125.218576 
L 122.401845 125.110518 
L 122.757204 124.647746 
L 122.784641 124.612017 
L 123.112586 124.184975 
L 123.250417 124.005484 
L 123.50371 123.722204 
L 123.716194 123.509557 
L 123.967543 123.259432 
L 124.18197 123.046048 
L 124.432579 122.796661 
L 124.647746 122.582548 
L 124.897625 122.33389 
L 125.113523 122.119047 
L 125.362668 121.871119 
L 125.579299 121.655541 
L 125.827697 121.408347 
L 126.045075 121.192031 
L 126.292744 120.945576 
L 126.510851 120.728536 
L 126.757787 120.482805 
L 126.976628 120.265029 
L 127.222828 120.020033 
L 127.442404 119.801528 
L 127.687865 119.557262 
L 127.90818 119.338021 
L 128.152904 119.094491 
L 128.373957 118.87452 
L 128.617951 118.63172 
L 128.839733 118.411019 
L 129.08299 118.168948 
L 129.305509 117.947514 
L 129.548027 117.706177 
L 129.771285 117.497686 
L 130.103534 117.243406 
L 130.237062 117.154919 
L 130.702838 116.84626 
L 130.801867 116.780634 
L 131.168614 116.537595 
L 131.500201 116.317863 
L 131.634391 116.228937 
L 132.100167 115.920276 
L 132.19853 115.855092 
L 132.565943 115.611615 
L 132.896862 115.392321 
L 133.03172 115.302953 
L 133.497496 114.994297 
L 133.595203 114.929549 
L 133.963272 114.685632 
L 134.293535 114.466778 
L 134.429048 114.376979 
L 134.894825 114.068313 
L 134.991864 114.004007 
L 135.360601 113.759643 
L 135.690176 113.541235 
L 135.826377 113.45098 
L 136.292154 113.142325 
L 136.388518 113.078464 
L 136.75793 112.838093 
L 137.223706 112.651754 
L 137.328224 112.615693 
L 137.689482 112.491053 
L 138.155259 112.330342 
L 138.621035 112.169636 
L 138.669479 112.152922 
L 139.086811 112.008927 
L 139.552588 111.84822 
L 140.010706 111.69015 
L 140.018364 111.687508 
L 140.48414 111.526804 
L 140.949917 111.366096 
L 141.351957 111.227379 
L 141.415693 111.205388 
L 141.881469 111.044685 
L 142.347245 110.883977 
L 142.693221 110.764608 
L 142.813022 110.723274 
L 143.278798 110.562565 
L 143.744574 110.40186 
L 144.034461 110.301836 
L 144.210351 110.241146 
L 144.676127 110.080451 
L 145.141903 109.919741 
L 145.375727 109.839065 
L 145.607679 109.759034 
L 146.073456 109.598323 
L 146.539232 109.437615 
L 146.716962 109.376294 
L 147.005008 109.276911 
L 147.470785 109.116206 
L 147.936561 108.955502 
L 148.058228 108.913523 
L 148.402337 108.793795 
L 148.868114 108.628979 
L 149.33389 108.499642 
L 149.54501 108.450751 
L 149.799666 108.391442 
L 150.265442 108.282971 
L 150.731219 108.174488 
L 151.196995 108.066012 
L 151.532028 107.98798 
L 151.662771 107.957529 
L 152.128548 107.849049 
L 152.594324 107.740574 
L 153.0601 107.632101 
L 153.519056 107.525209 
L 153.525876 107.52362 
L 153.991653 107.415135 
L 154.457429 107.306659 
L 154.923205 107.199369 
L 155.388982 107.125708 
L 155.83642 107.062437 
L 155.854758 107.059844 
L 156.320534 107.038698 
L 156.786311 107.023481 
L 157.252087 107.008263 
L 157.717863 106.993039 
L 158.183639 106.977811 
L 158.649416 106.962591 
L 159.115192 106.947369 
L 159.580968 106.932154 
L 160.046745 106.916927 
L 160.512521 106.901707 
L 160.978297 106.886486 
L 161.444073 106.898986 
L 161.90985 106.947884 
L 162.375626 106.996778 
L 162.841402 107.045672 
L 163.001099 107.062437 
L 163.307179 107.09457 
L 163.772955 107.143462 
L 164.238731 107.192354 
L 164.704508 107.241243 
L 165.170284 107.29014 
L 165.63606 107.339025 
L 166.101836 107.387922 
L 166.567613 107.436818 
L 167.033389 107.485716 
L 167.4096 107.525209 
L 167.499165 107.534611 
L 167.964942 107.583514 
L 168.430718 107.632406 
L 168.896494 107.681307 
L 169.36227 107.730195 
L 169.828047 107.779092 
L 170.293823 107.827979 
L 170.759599 107.876213 
L 171.225376 107.918794 
L 171.691152 107.957898 
L 172.049772 107.98798 
L 172.156928 107.996968 
L 172.622705 108.036062 
L 173.088481 108.075148 
L 173.554257 108.114245 
L 174.020033 108.153345 
L 174.48581 108.192433 
L 174.951586 108.231531 
L 175.417362 108.269133 
L 175.883139 108.303831 
L 176.348915 108.393546 
L 176.525425 108.450751 
L 176.814691 108.544499 
L 177.280467 108.716835 
L 177.746244 108.872734 
L 177.868115 108.913523 
L 178.21202 109.028619 
L 178.677796 109.184505 
L 179.143573 109.340393 
L 179.250838 109.376294 
L 179.609349 109.496289 
L 180.075125 109.65178 
L 180.540902 109.803904 
L 180.648969 109.839065 
L 181.006678 109.955456 
L 181.472454 110.108279 
L 181.93823 110.265138 
L 182.047197 110.301836 
L 182.404007 110.422001 
L 182.869783 110.578856 
L 183.335559 110.735719 
L 183.421341 110.764608 
L 183.801336 110.892575 
L 184.267112 111.04943 
L 184.732888 111.206286 
L 184.795524 111.227379 
L 185.198664 111.363137 
L 185.664441 111.51999 
L 186.130217 111.676856 
L 186.169694 111.69015 
L 186.595993 111.833712 
L 187.06177 111.990566 
L 187.527546 112.147431 
L 187.543851 112.152922 
L 187.993322 112.304282 
L 188.459098 112.461136 
L 188.918031 112.615693 
L 188.924875 112.618057 
L 189.390651 112.794849 
L 189.856427 112.931771 
L 190.322204 113.066376 
L 190.364031 113.078464 
L 190.78798 113.200985 
L 191.253756 113.335592 
L 191.719533 113.470197 
L 191.965358 113.541235 
L 192.185309 113.604796 
L 192.651085 113.817592 
L 193.052869 114.004007 
L 193.116861 114.033896 
L 193.582638 114.236345 
L 194.048414 114.389418 
L 194.3387 114.466778 
L 194.51419 114.513547 
L 194.979967 114.637678 
L 195.445743 114.761802 
L 195.911519 114.885923 
L 196.075231 114.929549 
L 196.377295 115.010046 
L 196.843072 115.134174 
L 197.308848 115.258299 
L 197.774624 115.382422 
L 197.811768 115.392321 
L 198.240401 115.50655 
L 198.706177 115.63068 
L 199.171953 115.754806 
L 199.548277 115.855092 
L 199.63773 115.87893 
L 200.103506 116.003058 
L 200.569282 116.127178 
L 201.035058 116.251308 
L 201.284794 116.317863 
L 201.500835 116.375437 
L 201.966611 116.499561 
L 202.432387 116.623689 
L 202.850159 116.780634 
L 202.898164 116.799504 
L 203.36394 116.982791 
L 203.829716 117.166246 
L 204.025597 117.243406 
L 204.295492 117.349718 
L 204.761269 117.533187 
L 205.200394 117.706177 
L 205.227045 117.716676 
L 205.692821 117.935649 
L 206.105809 118.168948 
L 206.158598 118.198768 
L 206.624374 118.461895 
L 206.924994 118.63172 
L 207.09015 118.725021 
L 207.555927 118.992526 
L 207.706989 119.094491 
L 208.021703 119.312703 
L 208.439915 119.557262 
L 208.487479 119.586548 
L 208.953255 119.873338 
L 209.191512 120.020033 
L 209.419032 120.16012 
L 209.884808 120.446903 
L 209.943117 120.482805 
L 210.350584 120.733696 
L 210.694703 120.945576 
L 210.816361 121.020482 
L 211.282137 121.282329 
L 211.537796 121.408347 
L 211.747913 121.509493 
L 212.213689 121.728293 
L 212.523179 121.871119 
L 212.679466 121.943243 
L 213.145242 122.158194 
L 213.525959 122.33389 
L 213.611018 122.377625 
L 214.076795 122.742325 
L 214.137251 122.796661 
L 214.542571 123.16095 
L 214.652147 123.259432 
L 215.008347 123.575773 
L 215.17607 123.722204 
L 215.474124 123.981814 
L 215.707376 124.184975 
L 215.9399 124.387505 
L 216.238687 124.647746 
L 216.405676 124.793194 
L 216.770001 125.110518 
L 216.871452 125.198882 
L 217.301293 125.573289 
L 217.337229 125.60459 
L 217.803005 126.010274 
L 217.832611 126.03606 
L 218.268781 126.41598 
L 218.363901 126.498831 
L 218.734558 126.821665 
L 218.895219 126.961603 
L 219.200334 127.227363 
L 219.426521 127.424374 
L 219.66611 127.63306 
L 219.953493 127.887145 
L 220.131886 128.055504 
L 220.428819 128.349917 
L 220.597663 128.517331 
L 220.895545 128.812688 
L 221.063439 128.979157 
L 221.362277 129.275459 
L 221.529215 129.440981 
L 221.828998 129.73823 
L 221.994992 129.892785 
L 222.347247 130.201002 
L 222.460768 130.289594 
L 222.926544 130.657789 
L 222.933841 130.663773 
L 223.392321 131.041553 
L 223.495465 131.126544 
L 223.858097 131.425352 
L 224.05708 131.589316 
L 224.323873 131.809152 
L 224.618708 132.052087 
L 224.789649 132.192942 
L 225.180329 132.514858 
L 225.255426 132.576736 
L 225.721202 132.960531 
L 225.741952 132.977629 
L 226.186978 133.344326 
L 226.303571 133.440401 
L 226.652755 133.72813 
L 226.865184 133.903172 
L 227.118531 134.111932 
L 227.426803 134.365943 
L 227.584307 134.495724 
L 227.988409 134.828715 
L 228.050083 134.87866 
L 228.51586 135.278868 
L 228.529904 135.291486 
L 228.980353 135.754257 
L 228.981636 135.756135 
L 229.262282 136.217028 
L 229.447412 136.618438 
L 229.475713 136.6798 
L 229.679645 137.142571 
L 229.88737 137.605342 
L 229.913189 137.662861 
L 230.095098 138.068114 
L 230.303701 138.530885 
L 230.378965 138.693274 
L 230.517066 138.993656 
L 230.733898 139.456427 
L 230.844741 139.692571 
L 230.951118 139.919199 
L 231.168335 140.38197 
L 231.310518 140.684862 
L 231.385567 140.844741 
L 231.602782 141.307513 
L 231.776294 141.677164 
L 231.820003 141.770284 
L 232.03722 142.233055 
L 232.24207 142.669469 
L 232.254442 142.695826 
L 232.471665 143.158598 
L 232.688896 143.621369 
L 232.707846 143.661744 
L 232.906107 144.08414 
L 233.123329 144.546912 
L 233.173623 144.654059 
L 233.340551 145.009683 
L 233.557779 145.472454 
L 233.639399 145.646338 
L 233.774999 145.935225 
L 233.992216 146.397997 
L 234.105175 146.638655 
L 234.209431 146.860768 
L 234.426659 147.323539 
L 234.570952 147.630953 
L 234.643872 147.786311 
L 234.861094 148.249082 
L 235.036728 148.623248 
L 235.07832 148.711853 
L 235.295539 149.174624 
L 235.502504 149.615544 
L 235.512762 149.637396 
L 235.729987 150.100167 
L 235.947207 150.562938 
L 235.96828 150.607834 
L 236.164431 151.02571 
L 236.381645 151.488481 
L 236.434057 151.600133 
L 236.598877 151.951252 
L 236.81609 152.414023 
L 236.899833 152.592429 
L 237.033315 152.876795 
L 237.250529 153.339566 
L 237.365609 153.584719 
L 237.467763 153.802337 
L 237.684975 154.265109 
L 237.831386 154.577019 
L 237.9022 154.72788 
L 238.119416 155.190651 
L 238.297162 155.56931 
L 238.336645 155.653422 
L 238.553866 156.116194 
L 238.762938 156.561605 
L 238.771087 156.578965 
L 238.988309 157.041736 
L 239.205532 157.504508 
L 239.228715 157.553896 
L 239.422756 157.967279 
L 239.641897 158.43005 
L 239.694491 158.536678 
L 239.871195 158.892821 
L 240.086243 159.355593 
L 240.160267 159.633209 
L 240.209623 159.818364 
L 240.340148 160.281135 
L 240.470751 160.743907 
L 240.601352 161.206678 
L 240.626043 161.294172 
L 240.731948 161.669449 
L 240.862546 162.13222 
L 240.993141 162.594992 
L 241.09182 162.944647 
L 241.123744 163.057763 
L 241.254349 163.520534 
L 241.384939 163.983306 
L 241.515537 164.446077 
L 241.557596 164.595108 
L 241.646138 164.908848 
L 241.774482 165.371619 
L 241.887013 165.834391 
L 241.990876 166.297162 
L 242.023372 166.441935 
L 242.09475 166.759933 
L 242.198615 167.222705 
L 242.299148 167.685476 
L 242.397102 168.148247 
L 242.489149 168.593784 
L 242.492696 168.611018 
L 242.589877 169.07379 
L 242.714388 169.536561 
L 242.844592 169.999332 
L 242.954925 170.391484 
L 242.974794 170.462104 
L 243.105 170.924875 
L 243.235209 171.387646 
L 243.365412 171.850417 
L 243.420701 172.04692 
L 243.49562 172.313189 
L 243.625825 172.77596 
L 243.756026 173.238731 
L 243.88623 173.701503 
L 243.886477 173.702382 
L 244.016438 174.164274 
L 244.146645 174.627045 
L 244.276848 175.089816 
L 244.352254 175.357815 
L 244.407056 175.552588 
L 244.53726 176.015359 
L 244.667469 176.47813 
L 244.797674 176.940902 
L 244.81803 177.01325 
L 244.927879 177.403673 
L 245.058079 177.866444 
L 245.18829 178.329215 
L 245.283806 178.668698 
L 245.318496 178.791987 
L 245.448704 179.254758 
L 245.578909 179.717529 
L 245.709123 180.180301 
L 245.749583 180.324102 
L 245.839325 180.643072 
L 245.969529 181.105843 
L 246.099731 181.568614 
L 246.215359 181.979601 
L 246.229928 182.031386 
L 246.360142 182.494157 
L 246.464705 182.956928 
L 246.512759 183.419699 
L 246.560797 183.882471 
L 246.60885 184.345242 
L 246.6569 184.808013 
L 246.681135 185.04142 
L 246.70495 185.270785 
L 246.753 185.733556 
L 246.810025 186.196327 
L 246.868036 186.659098 
L 246.926046 187.12187 
L 246.984052 187.584641 
L 246.98634 188.047412 
L 246.952745 188.510184 
L 246.919153 188.972955 
L 246.886053 189.435726 
L 246.854881 189.898497 
L 246.826975 190.361269 
L 246.799061 190.82404 
L 246.771156 191.286811 
L 246.743244 191.749583 
L 246.715307 192.212354 
L 246.695405 192.675125 
L 246.687806 193.137896 
L 246.681135 193.549473 
L 246.680306 193.600668 
L 246.67281 194.063439 
L 246.665301 194.52621 
L 246.657803 194.988982 
L 246.650294 195.451753 
L 246.642796 195.914524 
L 246.63529 196.377295 
L 246.627781 196.840067 
L 246.620281 197.302838 
L 246.612781 197.765609 
L 246.605277 198.228381 
L 246.597777 198.691152 
L 246.590271 199.153923 
L 246.582764 199.616694 
L 246.575264 200.079466 
L 246.572293 200.542237 
L 246.571797 201.005008 
L 246.571305 201.46778 
L 246.570811 201.930551 
L 246.570314 202.393322 
L 246.569827 202.856093 
L 246.56933 203.318865 
L 246.56883 203.781636 
L 246.542674 204.244407 
L 246.4003 204.707179 
L 246.257928 205.16995 
L 246.215359 205.30831 
L 246.115553 205.632721 
L 245.973193 206.095492 
L 245.830815 206.558264 
L 245.749583 206.822306 
L 245.688442 207.021035 
L 245.546074 207.483806 
L 245.403699 207.946578 
L 245.283806 208.336282 
L 245.261365 208.409349 
L 245.154973 208.87212 
L 245.086905 209.334891 
L 245.018846 209.797663 
L 244.950783 210.260434 
L 244.882718 210.723205 
L 244.81803 211.163047 
L 244.814658 211.185977 
L 244.74659 211.648748 
L 244.678527 212.111519 
L 244.610465 212.57429 
L 244.542401 213.037062 
L 244.465894 213.499833 
L 244.35376 213.962604 
L 244.352254 213.968695 
L 244.239139 214.425376 
L 244.063117 214.888147 
L 243.886477 215.281319 
L 243.855209 215.350918 
L 243.627455 215.813689 
L 243.420701 216.121126 
L 243.311853 216.276461 
L 242.987576 216.739232 
L 242.954925 216.785827 
L 242.6633 217.202003 
L 242.489149 217.450529 
L 242.339018 217.664775 
L 242.023372 218.115236 
L 242.014746 218.127546 
L 241.690466 218.590317 
L 241.557596 218.779941 
L 241.366199 219.053088 
L 241.09182 219.444661 
L 241.04193 219.51586 
L 240.682812 219.978631 
L 240.626043 220.042139 
L 240.269137 220.441402 
L 240.160267 220.563191 
L 239.855468 220.904174 
L 239.694491 221.08426 
L 239.441797 221.366945 
L 239.228715 221.605729 
L 239.029003 221.829716 
L 238.762938 222.128758 
L 238.61726 222.292487 
L 238.297162 222.652258 
L 238.20552 222.755259 
L 237.831386 223.175763 
L 237.793779 223.21803 
L 237.382035 223.680801 
L 237.365609 223.699263 
L 236.970294 224.143573 
L 236.899833 224.222765 
L 236.558554 224.606344 
L 236.434057 224.746272 
L 236.146811 225.069115 
L 235.96828 225.269773 
L 235.735071 225.531886 
L 235.502504 225.793272 
L 235.323325 225.994658 
L 235.036728 226.316772 
L 234.91158 226.457429 
L 234.570952 226.840283 
L 234.499849 226.9202 
L 234.105175 227.363799 
L 234.088117 227.382972 
L 233.676368 227.845743 
L 233.639399 227.887294 
L 233.264626 228.308514 
L 233.173623 228.410797 
L 232.852888 228.771285 
L 232.707846 228.934304 
L 232.441148 229.234057 
L 232.24207 229.443798 
L 231.923061 229.696828 
L 231.776294 229.790262 
L 231.310518 230.086776 
L 231.196126 230.159599 
L 230.844741 230.383296 
L 230.469194 230.622371 
L 230.378965 230.67981 
L 229.913189 230.976322 
L 229.742256 231.085142 
L 229.447412 231.272843 
L 229.016156 231.547913 
L 228.981636 231.570107 
L 228.51586 231.832501 
L 228.121789 232.010684 
L 228.050083 232.043107 
L 227.584307 232.253712 
L 227.118531 232.464321 
L 227.098287 232.473456 
L 226.652755 232.674683 
L 226.186978 232.882801 
L 226.066987 232.936227 
L 225.721202 233.090192 
L 225.255426 233.297584 
L 225.027664 233.398998 
L 224.789649 233.504977 
L 224.323873 233.687361 
L 223.858097 233.857006 
L 223.845018 233.86177 
L 223.392321 234.026655 
L 222.926544 234.196304 
L 222.574453 234.324541 
L 222.460768 234.365946 
L 221.994992 234.535593 
L 221.529215 234.70523 
L 221.303853 234.787312 
L 221.063439 234.871956 
L 220.597663 235.007648 
L 220.131886 235.133019 
L 219.696917 235.250083 
L 219.66611 235.258375 
L 219.200334 235.383743 
L 218.734558 235.50911 
L 218.268781 235.634473 
L 217.803005 235.709534 
L 217.773215 235.712855 
L 217.337229 235.761452 
L 216.871452 235.81337 
L 216.405676 235.873562 
L 215.9399 235.951296 
L 215.474124 236.034649 
L 215.008347 236.118006 
L 214.686399 236.175626 
L 214.542571 236.201367 
L 214.076795 236.229896 
L 213.611018 236.2312 
L 213.145242 236.232498 
L 212.679466 236.233801 
L 212.213689 236.235104 
L 211.747913 236.2364 
L 211.282137 236.237705 
L 210.816361 236.239007 
L 210.350584 236.240302 
L 209.884808 236.241605 
L 209.419032 236.242908 
L 208.953255 236.24421 
L 208.487479 236.245514 
L 208.021703 236.246815 
L 207.555927 236.24811 
L 207.09015 236.247281 
L 206.624374 236.223557 
L 206.158598 236.198552 
L 205.731526 236.175626 
L 205.692821 236.173548 
L 205.227045 236.148542 
L 204.761269 236.123538 
L 204.295492 236.09853 
L 203.829716 236.073521 
L 203.36394 236.048517 
L 202.898164 236.023511 
L 202.432387 235.998501 
L 201.966611 235.9735 
L 201.500835 235.948493 
L 201.035058 235.923491 
L 200.569282 235.89848 
L 200.103506 235.873478 
L 199.63773 235.848472 
L 199.171953 235.823469 
L 198.706177 235.798458 
L 198.240401 235.773457 
L 197.774624 235.748447 
L 197.308848 235.723561 
L 197.079636 235.712855 
L 196.843072 235.701841 
L 196.377295 235.692955 
L 195.911519 235.684418 
L 195.445743 235.675896 
L 194.979967 235.667371 
L 194.51419 235.658831 
L 194.048414 235.650291 
L 193.582638 235.64176 
L 193.116861 235.633221 
L 192.651085 235.624688 
L 192.185309 235.616148 
L 191.719533 235.607613 
L 191.253756 235.599078 
L 190.78798 235.590539 
L 190.322204 235.582006 
L 189.856427 235.573468 
L 189.390651 235.57392 
L 188.924875 235.611336 
L 188.459098 235.652767 
L 187.993322 235.69419 
L 187.887512 235.712855 
L 187.527546 235.777857 
L 187.06177 235.870427 
L 186.595993 235.963003 
L 186.130217 236.05553 
L 185.664441 236.148119 
L 185.521186 236.175626 
L 185.198664 236.237682 
L 184.732888 236.326003 
L 184.267112 236.414298 
L 183.801336 236.502591 
L 183.335559 236.596518 
L 183.131103 236.638397 
L 182.869783 236.691924 
L 182.404007 236.787327 
L 181.93823 236.882726 
L 181.472454 236.978129 
L 181.006678 237.07354 
L 180.871794 237.101169 
L 180.540902 237.168946 
L 180.075125 237.264354 
L 179.609349 237.359713 
L 179.143573 237.454819 
L 178.677796 237.550331 
L 178.611006 237.56394 
L 178.21202 237.645019 
L 177.746244 237.739849 
L 177.280467 237.834691 
L 176.814691 237.929406 
L 176.348915 238.024109 
L 176.336119 238.026711 
L 175.883139 238.114344 
L 175.417362 238.154053 
L 174.951586 238.191263 
L 174.48581 238.23375 
L 174.020033 238.279266 
L 173.554257 238.325421 
L 173.088481 238.371577 
L 172.622705 238.41773 
L 172.156928 238.463882 
L 171.898584 238.489482 
L 171.691152 238.510038 
L 171.225376 238.556192 
L 170.759599 238.607501 
L 170.293823 238.671228 
L 169.828047 238.735547 
L 169.36227 238.799874 
L 168.896494 238.864198 
L 168.430718 238.928447 
L 168.258908 238.952254 
L 167.964942 238.992851 
L 167.499165 239.050905 
L 167.033389 239.107125 
L 166.567613 239.160833 
L 166.101836 239.21453 
L 165.63606 239.268231 
L 165.170284 239.32193 
L 164.704508 239.375629 
L 164.362775 239.415025 
L 164.238731 239.429325 
L 163.772955 239.483026 
L 163.307179 239.536729 
L 162.841402 239.590435 
L 162.375626 239.644127 
L 161.90985 239.69783 
L 161.444073 239.751523 
L 160.978297 239.805226 
L 160.512521 239.85893 
L 160.348898 239.877796 
L 160.046745 239.912636 
L 159.580968 239.966328 
L 159.115192 240.020031 
L 158.649416 240.073733 
L 158.183639 240.127439 
L 157.717863 240.181134 
L 157.252087 240.178254 
L 156.786311 240.097549 
L 156.320534 240.016853 
L 155.854758 239.936148 
z
" clip-path="url(#p75323eda30)" style="fill: none; stroke: #000000; stroke-width: 1.5"/>
   </g>
   <g id="patch_3">
    <path d="M 45 320.4 
L 45 43.2 
" style="fill: none; stroke: #000000; stroke-width: 0.8; stroke-linejoin: miter; stroke-linecap: square"/>
   </g>
   <g id="patch_4">
    <path d="M 324 320.4 
L 324 43.2 
" style="fill: none; stroke: #000000; stroke-width: 0.8; stroke-linejoin: miter; stroke-linecap: square"/>
   </g>
   <g id="patch_5">
    <path d="M 45 320.4 
L 324 320.4 
" style="fill: none; stroke: #000000; stroke-width: 0.8; stroke-linejoin: miter; stroke-linecap: square"/>
   </g>
   <g id="patch_6">
    <path d="M 45 43.2 
L 324 43.2 
" style="fill: none; stroke: #000000; stroke-width: 0.8; stroke-linejoin: miter; stroke-linecap: square"/>
   </g>
  </g>
 </g>
 <defs>
  <clipPath id="p75323eda30">
   <rect x="45" y="43.2" width="279" height="277.2"/>
  </clipPath>
 </defs>
</svg>
