<?xml version="1.0" encoding="utf-8" standalone="no"?>
<!DOCTYPE svg PUBLIC "-//W3C//DTD SVG 1.1//EN"
  "http://www.w3.org/Graphics/SVG/1.1/DTD/svg11.dtd">
<svg xmlns:xlink="http://www.w3.org/1999/xlink" width="360pt" height="360pt" viewBox="0 0 360 360" xmlns="http://www.w3.org/2000/svg" version="1.1">
 <metadata>
  <rdf:RDF xmlns:dc="http://purl.org/dc/elements/1.1/" xmlns:cc="http://creativecommons.org/ns#" xmlns:rdf="http://www.w3.org/1999/02/22-rdf-syntax-ns#">
   <cc:Work>
    <dc:type rdf:resource="http://purl.org/dc/dcmitype/StillImage"/>
    <dc:date>2022-04-10T19:53:32.760571</dc:date>
    <dc:format>image/svg+xml</dc:format>
    <dc:creator>
     <cc:Agent>
      <dc:title>Matplotlib v3.5.1, https://matplotlib.org/</dc:title>
     </cc:Agent>
    </dc:creator>
   </cc:Work>
  </rdf:RDF>
 </metadata>
 <defs>
  <style type="text/css">*{stroke-linejoin: round; stroke-linecap: butt}</style>
 </defs>
 <g id="figure_1">
  <g id="patch_1">
   <path d="M 0 360 
L 360 360 
L 360 0 
L 0 0 
z
" style="fill: #ffffff"/>
  </g>
  <g id="axes_1">
   <g id="patch_2">
    <path d="M 45 320.4 
L 324 320.4 
L 324 43.2 
L 45 43.2 
z
" style="fill: #ffffff"/>
   </g>
   <g id="PathCollection_1">
    <defs>
     <path id="m126c36a329" d="M 0 0.5 
C 0.132602 0.5 0.25979 0.447317 0.353553 0.353553 
C 0.447317 0.25979 0.5 0.132602 0.5 0 
C 0.5 -0.132602 0.447317 -0.25979 0.353553 -0.353553 
C 0.25979 -0.447317 0.132602 -0.5 0 -0.5 
C -0.132602 -0.5 -0.25979 -0.447317 -0.353553 -0.353553 
C -0.447317 -0.25979 -0.5 -0.132602 -0.5 0 
C -0.5 0.132602 -0.447317 0.25979 -0.353553 0.353553 
C -0.25979 0.447317 -0.132602 0.5 0 0.5 
z
" style="stroke: #ff0000"/>
    </defs>
    <g clip-path="url(#p74dff20f0d)">
     <use xlink:href="#m126c36a329" x="225.598885" y="181.336455" style="fill: #ff0000; stroke: #ff0000"/>
     <use xlink:href="#m126c36a329" x="224.267158" y="177.490656" style="fill: #ff0000; stroke: #ff0000"/>
     <use xlink:href="#m126c36a329" x="222.679543" y="173.883273" style="fill: #ff0000; stroke: #ff0000"/>
     <use xlink:href="#m126c36a329" x="221.003889" y="170.475177" style="fill: #ff0000; stroke: #ff0000"/>
     <use xlink:href="#m126c36a329" x="219.283574" y="167.213587" style="fill: #ff0000; stroke: #ff0000"/>
     <use xlink:href="#m126c36a329" x="217.443352" y="164.08924" style="fill: #ff0000; stroke: #ff0000"/>
     <use xlink:href="#m126c36a329" x="215.361981" y="161.15791" style="fill: #ff0000; stroke: #ff0000"/>
     <use xlink:href="#m126c36a329" x="212.968013" y="158.504512" style="fill: #ff0000; stroke: #ff0000"/>
     <use xlink:href="#m126c36a329" x="210.295651" y="156.170773" style="fill: #ff0000; stroke: #ff0000"/>
     <use xlink:href="#m126c36a329" x="207.465473" y="154.098315" style="fill: #ff0000; stroke: #ff0000"/>
     <use xlink:href="#m126c36a329" x="204.607289" y="152.131661" style="fill: #ff0000; stroke: #ff0000"/>
     <use xlink:href="#m126c36a329" x="201.778733" y="150.086007" style="fill: #ff0000; stroke: #ff0000"/>
     <use xlink:href="#m126c36a329" x="198.930498" y="147.84201" style="fill: #ff0000; stroke: #ff0000"/>
     <use xlink:href="#m126c36a329" x="195.934742" y="145.41246" style="fill: #ff0000; stroke: #ff0000"/>
     <use xlink:href="#m126c36a329" x="192.652994" y="142.943424" style="fill: #ff0000; stroke: #ff0000"/>
     <use xlink:href="#m126c36a329" x="188.99951" y="140.653355" style="fill: #ff0000; stroke: #ff0000"/>
     <use xlink:href="#m126c36a329" x="184.966555" y="138.751254" style="fill: #ff0000; stroke: #ff0000"/>
     <use xlink:href="#m126c36a329" x="180.609513" y="137.384064" style="fill: #ff0000; stroke: #ff0000"/>
     <use xlink:href="#m126c36a329" x="176.017719" y="136.637867" style="fill: #ff0000; stroke: #ff0000"/>
     <use xlink:href="#m126c36a329" x="171.300636" y="136.576605" style="fill: #ff0000; stroke: #ff0000"/>
     <use xlink:href="#m126c36a329" x="166.597944" y="137.276806" style="fill: #ff0000; stroke: #ff0000"/>
     <use xlink:href="#m126c36a329" x="162.095867" y="138.824459" style="fill: #ff0000; stroke: #ff0000"/>
     <use xlink:href="#m126c36a329" x="158.022176" y="141.271503" style="fill: #ff0000; stroke: #ff0000"/>
     <use xlink:href="#m126c36a329" x="154.604838" y="144.579278" style="fill: #ff0000; stroke: #ff0000"/>
     <use xlink:href="#m126c36a329" x="152.00339" y="148.585955" style="fill: #ff0000; stroke: #ff0000"/>
     <use xlink:href="#m126c36a329" x="150.24214" y="153.022719" style="fill: #ff0000; stroke: #ff0000"/>
     <use xlink:href="#m126c36a329" x="149.18081" y="157.579451" style="fill: #ff0000; stroke: #ff0000"/>
     <use xlink:href="#m126c36a329" x="148.547936" y="161.995885" style="fill: #ff0000; stroke: #ff0000"/>
     <use xlink:href="#m126c36a329" x="148.036398" y="166.138173" style="fill: #ff0000; stroke: #ff0000"/>
     <use xlink:href="#m126c36a329" x="147.426995" y="170.022421" style="fill: #ff0000; stroke: #ff0000"/>
     <use xlink:href="#m126c36a329" x="146.682153" y="173.770344" style="fill: #ff0000; stroke: #ff0000"/>
     <use xlink:href="#m126c36a329" x="145.957136" y="177.51915" style="fill: #ff0000; stroke: #ff0000"/>
     <use xlink:href="#m126c36a329" x="145.515595" y="181.336455" style="fill: #ff0000; stroke: #ff0000"/>
     <use xlink:href="#m126c36a329" x="145.591265" y="185.189562" style="fill: #ff0000; stroke: #ff0000"/>
     <use xlink:href="#m126c36a329" x="146.272584" y="188.983508" style="fill: #ff0000; stroke: #ff0000"/>
     <use xlink:href="#m126c36a329" x="147.474768" y="192.63609" style="fill: #ff0000; stroke: #ff0000"/>
     <use xlink:href="#m126c36a329" x="149.009053" y="196.134449" style="fill: #ff0000; stroke: #ff0000"/>
     <use xlink:href="#m126c36a329" x="150.697904" y="199.535257" style="fill: #ff0000; stroke: #ff0000"/>
     <use xlink:href="#m126c36a329" x="152.46179" y="202.915322" style="fill: #ff0000; stroke: #ff0000"/>
     <use xlink:href="#m126c36a329" x="154.332678" y="206.314831" style="fill: #ff0000; stroke: #ff0000"/>
     <use xlink:href="#m126c36a329" x="156.405812" y="209.712935" style="fill: #ff0000; stroke: #ff0000"/>
     <use xlink:href="#m126c36a329" x="158.778497" y="213.040824" style="fill: #ff0000; stroke: #ff0000"/>
     <use xlink:href="#m126c36a329" x="161.516933" y="216.204876" style="fill: #ff0000; stroke: #ff0000"/>
     <use xlink:href="#m126c36a329" x="164.654846" y="219.091825" style="fill: #ff0000; stroke: #ff0000"/>
     <use xlink:href="#m126c36a329" x="168.198883" y="221.55603" style="fill: #ff0000; stroke: #ff0000"/>
     <use xlink:href="#m126c36a329" x="172.118997" y="223.415934" style="fill: #ff0000; stroke: #ff0000"/>
     <use xlink:href="#m126c36a329" x="176.327834" y="224.486048" style="fill: #ff0000; stroke: #ff0000"/>
     <use xlink:href="#m126c36a329" x="180.673575" y="224.642603" style="fill: #ff0000; stroke: #ff0000"/>
     <use xlink:href="#m126c36a329" x="184.966555" y="223.889332" style="fill: #ff0000; stroke: #ff0000"/>
     <use xlink:href="#m126c36a329" x="189.035314" y="222.380735" style="fill: #ff0000; stroke: #ff0000"/>
     <use xlink:href="#m126c36a329" x="192.783666" y="220.38218" style="fill: #ff0000; stroke: #ff0000"/>
     <use xlink:href="#m126c36a329" x="196.216828" y="218.18436" style="fill: #ff0000; stroke: #ff0000"/>
     <use xlink:href="#m126c36a329" x="199.42454" y="216.015927" style="fill: #ff0000; stroke: #ff0000"/>
     <use xlink:href="#m126c36a329" x="202.535579" y="213.993726" style="fill: #ff0000; stroke: #ff0000"/>
     <use xlink:href="#m126c36a329" x="205.669616" y="212.120876" style="fill: #ff0000; stroke: #ff0000"/>
     <use xlink:href="#m126c36a329" x="208.90277" y="210.314647" style="fill: #ff0000; stroke: #ff0000"/>
     <use xlink:href="#m126c36a329" x="212.246269" y="208.440171" style="fill: #ff0000; stroke: #ff0000"/>
     <use xlink:href="#m126c36a329" x="215.632011" y="206.34058" style="fill: #ff0000; stroke: #ff0000"/>
     <use xlink:href="#m126c36a329" x="218.907816" y="203.868965" style="fill: #ff0000; stroke: #ff0000"/>
     <use xlink:href="#m126c36a329" x="221.854397" y="200.926211" style="fill: #ff0000; stroke: #ff0000"/>
     <use xlink:href="#m126c36a329" x="224.23058" y="197.495219" style="fill: #ff0000; stroke: #ff0000"/>
     <use xlink:href="#m126c36a329" x="225.835625" y="193.653968" style="fill: #ff0000; stroke: #ff0000"/>
     <use xlink:href="#m126c36a329" x="226.564898" y="189.557496" style="fill: #ff0000; stroke: #ff0000"/>
     <use xlink:href="#m126c36a329" x="226.438998" y="185.394781" style="fill: #ff0000; stroke: #ff0000"/>
    </g>
   </g>
   <g id="matplotlib.axis_1">
    <g id="xtick_1">
     <g id="line2d_1">
      <defs>
       <path id="mffd4adca12" d="M 0 0 
L 0 3.5 
" style="stroke: #000000; stroke-width: 0.8"/>
      </defs>
      <g>
       <use xlink:href="#mffd4adca12" x="45" y="320.4" style="stroke: #000000; stroke-width: 0.8"/>
      </g>
     </g>
     <g id="text_1">
      <!-- −3 -->
      <g transform="translate(37.628906 334.998438)scale(0.1 -0.1)">
       <defs>
        <path id="DejaVuSans-2212" d="M 678 2272 
L 4684 2272 
L 4684 1741 
L 678 1741 
L 678 2272 
z
" transform="scale(0.015625)"/>
        <path id="DejaVuSans-33" d="M 2597 2516 
Q 3050 2419 3304 2112 
Q 3559 1806 3559 1356 
Q 3559 666 3084 287 
Q 2609 -91 1734 -91 
Q 1441 -91 1130 -33 
Q 819 25 488 141 
L 488 750 
Q 750 597 1062 519 
Q 1375 441 1716 441 
Q 2309 441 2620 675 
Q 2931 909 2931 1356 
Q 2931 1769 2642 2001 
Q 2353 2234 1838 2234 
L 1294 2234 
L 1294 2753 
L 1863 2753 
Q 2328 2753 2575 2939 
Q 2822 3125 2822 3475 
Q 2822 3834 2567 4026 
Q 2313 4219 1838 4219 
Q 1578 4219 1281 4162 
Q 984 4106 628 3988 
L 628 4550 
Q 988 4650 1302 4700 
Q 1616 4750 1894 4750 
Q 2613 4750 3031 4423 
Q 3450 4097 3450 3541 
Q 3450 3153 3228 2886 
Q 3006 2619 2597 2516 
z
" transform="scale(0.015625)"/>
       </defs>
       <use xlink:href="#DejaVuSans-2212"/>
       <use xlink:href="#DejaVuSans-33" x="83.789062"/>
      </g>
     </g>
    </g>
    <g id="xtick_2">
     <g id="line2d_2">
      <g>
       <use xlink:href="#mffd4adca12" x="91.655518" y="320.4" style="stroke: #000000; stroke-width: 0.8"/>
      </g>
     </g>
     <g id="text_2">
      <!-- −2 -->
      <g transform="translate(84.284425 334.998438)scale(0.1 -0.1)">
       <defs>
        <path id="DejaVuSans-32" d="M 1228 531 
L 3431 531 
L 3431 0 
L 469 0 
L 469 531 
Q 828 903 1448 1529 
Q 2069 2156 2228 2338 
Q 2531 2678 2651 2914 
Q 2772 3150 2772 3378 
Q 2772 3750 2511 3984 
Q 2250 4219 1831 4219 
Q 1534 4219 1204 4116 
Q 875 4013 500 3803 
L 500 4441 
Q 881 4594 1212 4672 
Q 1544 4750 1819 4750 
Q 2544 4750 2975 4387 
Q 3406 4025 3406 3419 
Q 3406 3131 3298 2873 
Q 3191 2616 2906 2266 
Q 2828 2175 2409 1742 
Q 1991 1309 1228 531 
z
" transform="scale(0.015625)"/>
       </defs>
       <use xlink:href="#DejaVuSans-2212"/>
       <use xlink:href="#DejaVuSans-32" x="83.789062"/>
      </g>
     </g>
    </g>
    <g id="xtick_3">
     <g id="line2d_3">
      <g>
       <use xlink:href="#mffd4adca12" x="138.311037" y="320.4" style="stroke: #000000; stroke-width: 0.8"/>
      </g>
     </g>
     <g id="text_3">
      <!-- −1 -->
      <g transform="translate(130.939943 334.998438)scale(0.1 -0.1)">
       <defs>
        <path id="DejaVuSans-31" d="M 794 531 
L 1825 531 
L 1825 4091 
L 703 3866 
L 703 4441 
L 1819 4666 
L 2450 4666 
L 2450 531 
L 3481 531 
L 3481 0 
L 794 0 
L 794 531 
z
" transform="scale(0.015625)"/>
       </defs>
       <use xlink:href="#DejaVuSans-2212"/>
       <use xlink:href="#DejaVuSans-31" x="83.789062"/>
      </g>
     </g>
    </g>
    <g id="xtick_4">
     <g id="line2d_4">
      <g>
       <use xlink:href="#mffd4adca12" x="184.966555" y="320.4" style="stroke: #000000; stroke-width: 0.8"/>
      </g>
     </g>
     <g id="text_4">
      <!-- 0 -->
      <g transform="translate(181.785305 334.998438)scale(0.1 -0.1)">
       <defs>
        <path id="DejaVuSans-30" d="M 2034 4250 
Q 1547 4250 1301 3770 
Q 1056 3291 1056 2328 
Q 1056 1369 1301 889 
Q 1547 409 2034 409 
Q 2525 409 2770 889 
Q 3016 1369 3016 2328 
Q 3016 3291 2770 3770 
Q 2525 4250 2034 4250 
z
M 2034 4750 
Q 2819 4750 3233 4129 
Q 3647 3509 3647 2328 
Q 3647 1150 3233 529 
Q 2819 -91 2034 -91 
Q 1250 -91 836 529 
Q 422 1150 422 2328 
Q 422 3509 836 4129 
Q 1250 4750 2034 4750 
z
" transform="scale(0.015625)"/>
       </defs>
       <use xlink:href="#DejaVuSans-30"/>
      </g>
     </g>
    </g>
    <g id="xtick_5">
     <g id="line2d_5">
      <g>
       <use xlink:href="#mffd4adca12" x="231.622074" y="320.4" style="stroke: #000000; stroke-width: 0.8"/>
      </g>
     </g>
     <g id="text_5">
      <!-- 1 -->
      <g transform="translate(228.440824 334.998438)scale(0.1 -0.1)">
       <use xlink:href="#DejaVuSans-31"/>
      </g>
     </g>
    </g>
    <g id="xtick_6">
     <g id="line2d_6">
      <g>
       <use xlink:href="#mffd4adca12" x="278.277592" y="320.4" style="stroke: #000000; stroke-width: 0.8"/>
      </g>
     </g>
     <g id="text_6">
      <!-- 2 -->
      <g transform="translate(275.096342 334.998438)scale(0.1 -0.1)">
       <use xlink:href="#DejaVuSans-32"/>
      </g>
     </g>
    </g>
   </g>
   <g id="matplotlib.axis_2">
    <g id="ytick_1">
     <g id="line2d_7">
      <defs>
       <path id="mf474e63acf" d="M 0 0 
L -3.5 0 
" style="stroke: #000000; stroke-width: 0.8"/>
      </defs>
      <g>
       <use xlink:href="#mf474e63acf" x="45" y="320.4" style="stroke: #000000; stroke-width: 0.8"/>
      </g>
     </g>
     <g id="text_7">
      <!-- −3 -->
      <g transform="translate(23.257812 324.199219)scale(0.1 -0.1)">
       <use xlink:href="#DejaVuSans-2212"/>
       <use xlink:href="#DejaVuSans-33" x="83.789062"/>
      </g>
     </g>
    </g>
    <g id="ytick_2">
     <g id="line2d_8">
      <g>
       <use xlink:href="#mf474e63acf" x="45" y="274.045485" style="stroke: #000000; stroke-width: 0.8"/>
      </g>
     </g>
     <g id="text_8">
      <!-- −2 -->
      <g transform="translate(23.257812 277.844704)scale(0.1 -0.1)">
       <use xlink:href="#DejaVuSans-2212"/>
       <use xlink:href="#DejaVuSans-32" x="83.789062"/>
      </g>
     </g>
    </g>
    <g id="ytick_3">
     <g id="line2d_9">
      <g>
       <use xlink:href="#mf474e63acf" x="45" y="227.69097" style="stroke: #000000; stroke-width: 0.8"/>
      </g>
     </g>
     <g id="text_9">
      <!-- −1 -->
      <g transform="translate(23.257812 231.490189)scale(0.1 -0.1)">
       <use xlink:href="#DejaVuSans-2212"/>
       <use xlink:href="#DejaVuSans-31" x="83.789062"/>
      </g>
     </g>
    </g>
    <g id="ytick_4">
     <g id="line2d_10">
      <g>
       <use xlink:href="#mf474e63acf" x="45" y="181.336455" style="stroke: #000000; stroke-width: 0.8"/>
      </g>
     </g>
     <g id="text_10">
      <!-- 0 -->
      <g transform="translate(31.6375 185.135674)scale(0.1 -0.1)">
       <use xlink:href="#DejaVuSans-30"/>
      </g>
     </g>
    </g>
    <g id="ytick_5">
     <g id="line2d_11">
      <g>
       <use xlink:href="#mf474e63acf" x="45" y="134.98194" style="stroke: #000000; stroke-width: 0.8"/>
      </g>
     </g>
     <g id="text_11">
      <!-- 1 -->
      <g transform="translate(31.6375 138.781159)scale(0.1 -0.1)">
       <use xlink:href="#DejaVuSans-31"/>
      </g>
     </g>
    </g>
    <g id="ytick_6">
     <g id="line2d_12">
      <g>
       <use xlink:href="#mf474e63acf" x="45" y="88.627425" style="stroke: #000000; stroke-width: 0.8"/>
      </g>
     </g>
     <g id="text_12">
      <!-- 2 -->
      <g transform="translate(31.6375 92.426643)scale(0.1 -0.1)">
       <use xlink:href="#DejaVuSans-32"/>
      </g>
     </g>
    </g>
   </g>
   <g id="PathCollection_2">
    <path d="M 177.501672 199.026284 
L 177.418242 198.951171 
L 176.568562 198.036869 
L 176.558031 198.02408 
L 175.838792 197.09699 
L 175.635452 196.788338 
L 175.241784 196.1699 
L 174.702341 195.304846 
L 174.662615 195.242809 
L 174.225339 194.315719 
L 174.000254 193.388629 
L 173.863006 192.461538 
L 173.769231 191.847175 
L 173.701849 191.534448 
L 173.27454 190.607358 
L 172.84733 189.680268 
L 172.83612 189.656488 
L 172.453271 188.753177 
L 172.080294 187.826087 
L 171.90301 187.390512 
L 171.690918 186.898997 
L 171.28604 185.971906 
L 170.9699 185.469304 
L 170.703736 185.044816 
L 170.169242 184.117726 
L 170.036789 183.861141 
L 169.665275 183.190635 
L 169.217687 182.263545 
L 169.103679 181.352012 
L 169.101791 181.336455 
L 168.978192 180.409365 
L 168.71638 179.482274 
L 168.535732 178.555184 
L 168.511873 177.628094 
L 168.575323 176.701003 
L 168.643378 175.773913 
L 168.749342 174.846823 
L 168.864517 173.919732 
L 169.018925 172.992642 
L 169.103679 172.506351 
L 169.19377 172.065552 
L 169.45918 171.138462 
L 169.893441 170.211371 
L 170.036789 169.893209 
L 170.285094 169.284281 
L 170.480753 168.357191 
L 170.542173 167.4301 
L 170.619795 166.50301 
L 170.905567 165.57592 
L 170.9699 165.386576 
L 171.226334 164.648829 
L 171.521427 163.721739 
L 171.86956 162.794649 
L 171.90301 162.681386 
L 172.207133 161.867559 
L 172.83612 161.067861 
L 172.945772 160.940468 
L 173.722509 160.013378 
L 173.769231 159.971261 
L 174.702341 159.412193 
L 175.635452 159.245226 
L 176.568562 159.241101 
L 177.501672 159.228291 
L 178.434783 159.496026 
L 179.270465 160.013378 
L 179.367893 160.078057 
L 180.152713 160.940468 
L 180.301003 161.121619 
L 181.035563 161.867559 
L 181.234114 162.073241 
L 181.905777 162.794649 
L 182.167224 163.073206 
L 182.747014 163.721739 
L 183.100334 164.09923 
L 183.677167 164.648829 
L 184.033445 164.982739 
L 184.681768 165.57592 
L 184.966555 165.854529 
L 185.64079 166.50301 
L 185.899666 166.769967 
L 186.502554 167.4301 
L 186.832776 167.810461 
L 187.30744 168.357191 
L 187.765886 168.885257 
L 188.159345 169.284281 
L 188.698997 169.688722 
L 189.632107 170.209666 
L 189.635423 170.211371 
L 190.565217 170.683236 
L 191.299989 171.138462 
L 191.498328 171.261342 
L 192.431438 171.780426 
L 192.955785 172.065552 
L 193.364548 172.340939 
L 193.9787 172.992642 
L 194.297659 173.384542 
L 194.745448 173.919732 
L 195.230769 174.536735 
L 195.478245 174.846823 
L 196.16388 175.722967 
L 196.204423 175.773913 
L 196.931092 176.701003 
L 197.09699 176.908068 
L 197.711354 177.628094 
L 198.0301 177.987399 
L 198.517205 178.555184 
L 198.963211 179.104412 
L 199.26108 179.482274 
L 199.661769 180.409365 
L 199.896321 181.322363 
L 199.899864 181.336455 
L 200.192865 182.263545 
L 200.315109 183.190635 
L 200.337858 184.117726 
L 200.336672 185.044816 
L 200.211488 185.971906 
L 199.91711 186.898997 
L 199.896321 186.963236 
L 199.605027 187.826087 
L 199.12403 188.753177 
L 198.963211 188.88167 
L 198.0301 189.4235 
L 197.596972 189.680268 
L 197.09699 189.961717 
L 196.16388 190.486312 
L 195.95805 190.607358 
L 195.230769 191.027655 
L 194.407514 191.534448 
L 194.297659 191.602582 
L 193.364548 192.17749 
L 192.936133 192.461538 
L 192.431438 192.781783 
L 191.549777 193.388629 
L 191.498328 193.424157 
L 190.565217 194.202266 
L 190.433754 194.315719 
L 189.632107 195.008717 
L 189.36191 195.242809 
L 188.698997 195.817141 
L 188.226407 196.1699 
L 187.765886 196.443871 
L 186.832776 196.881381 
L 186.436511 197.09699 
L 185.899666 197.379678 
L 184.966555 197.840339 
L 184.546439 198.02408 
L 184.033445 198.252516 
L 183.100334 198.611014 
L 182.167224 198.911602 
L 182.039989 198.951171 
L 181.234114 199.204179 
L 180.301003 199.479857 
L 179.367893 199.741025 
L 178.434783 199.392721 
L 177.501672 199.026284 
z
" clip-path="url(#p74dff20f0d)" style="fill: none; stroke-dasharray: 5.55,2.4; stroke-dashoffset: 0; stroke: #000000; stroke-width: 1.5"/>
   </g>
   <g id="PathCollection_3">
    <path d="M 174.702341 225.228034 
L 173.918595 224.909699 
L 173.769231 224.825015 
L 172.83612 224.493447 
L 171.90301 224.149629 
L 171.535765 223.982609 
L 170.9699 223.750953 
L 170.036789 223.445322 
L 169.348117 223.055518 
L 169.103679 222.910206 
L 168.170569 222.467655 
L 167.660005 222.128428 
L 167.237458 221.897349 
L 166.304348 221.362875 
L 166.043892 221.201338 
L 165.371237 220.856071 
L 164.64211 220.274247 
L 164.438127 220.117027 
L 163.505017 219.3533 
L 163.497004 219.347157 
L 162.571906 218.629762 
L 162.339379 218.420067 
L 161.638796 217.686445 
L 161.471041 217.492977 
L 160.705686 216.580799 
L 160.692797 216.565886 
L 159.856162 215.638796 
L 159.772575 215.523579 
L 159.054367 214.711706 
L 158.839465 214.385944 
L 158.438375 213.784615 
L 157.96086 212.857525 
L 157.906355 212.730096 
L 157.42471 211.930435 
L 156.973244 211.061968 
L 156.940532 211.003344 
L 156.343999 210.076254 
L 156.040134 209.368282 
L 155.918425 209.149164 
L 155.321593 208.222074 
L 155.107023 207.747662 
L 154.844159 207.294983 
L 154.351342 206.367893 
L 154.173913 206.012195 
L 153.825048 205.440803 
L 153.336798 204.513712 
L 153.240803 204.37509 
L 152.724978 203.586622 
L 152.490622 202.659532 
L 152.307692 202.148416 
L 152.115849 201.732441 
L 151.634298 200.805351 
L 151.374582 200.310767 
L 151.104991 199.878261 
L 150.68612 198.951171 
L 150.441472 198.362194 
L 150.249645 198.02408 
L 149.81927 197.09699 
L 149.508361 196.329273 
L 149.419869 196.1699 
L 148.942579 195.242809 
L 148.575251 194.569819 
L 148.404578 194.315719 
L 147.999624 193.388629 
L 147.665126 192.461538 
L 147.64214 192.42214 
L 147.217416 191.534448 
L 147.034462 190.607358 
L 146.89435 189.680268 
L 146.70903 188.962655 
L 146.64468 188.753177 
L 146.407556 187.826087 
L 146.22612 186.898997 
L 146.075862 185.971906 
L 145.929575 185.044816 
L 145.77592 184.340766 
L 145.731783 184.117726 
L 145.423226 183.190635 
L 145.288919 182.263545 
L 145.288383 181.336455 
L 145.285884 180.409365 
L 145.235279 179.482274 
L 145.153367 178.555184 
L 145.061846 177.628094 
L 144.938449 176.701003 
L 144.842809 176.169365 
L 144.828914 175.773913 
L 144.80268 174.846823 
L 144.842809 174.337306 
L 144.951579 173.919732 
L 145.183358 172.992642 
L 145.427573 172.065552 
L 145.741698 171.138462 
L 145.77592 171.008757 
L 146.06198 170.211371 
L 146.492204 169.284281 
L 146.70903 168.864639 
L 146.972592 168.357191 
L 147.108104 167.4301 
L 147.236522 166.50301 
L 147.397151 165.57592 
L 147.575473 164.648829 
L 147.64214 164.252765 
L 147.73694 163.721739 
L 147.858266 162.794649 
L 147.953647 161.867559 
L 148.099998 160.940468 
L 148.237931 160.013378 
L 148.354614 159.086288 
L 148.399904 158.159197 
L 148.422318 157.232107 
L 148.575251 156.735479 
L 148.729224 156.305017 
L 148.995724 155.377926 
L 149.270467 154.450836 
L 149.508361 153.811994 
L 149.637281 153.523746 
L 149.889822 152.596656 
L 150.156021 151.669565 
L 150.441472 150.87851 
L 150.507145 150.742475 
L 150.871717 149.815385 
L 151.374582 149.059093 
L 151.501122 148.888294 
L 152.083729 147.961204 
L 152.307692 147.689913 
L 152.803379 147.034114 
L 153.240803 146.456267 
L 153.505175 146.107023 
L 154.173913 145.203755 
L 154.196141 145.179933 
L 154.807056 144.252843 
L 155.107023 143.864383 
L 155.533335 143.325753 
L 156.040134 142.773773 
L 156.429335 142.398662 
L 156.973244 141.889568 
L 157.450752 141.471572 
L 157.906355 141.133663 
L 158.839465 140.62841 
L 158.958632 140.544482 
L 159.772575 140.125988 
L 160.705686 139.803809 
L 161.12174 139.617391 
L 161.638796 139.406576 
L 162.571906 139.122841 
L 163.505017 138.853111 
L 163.904831 138.690301 
L 164.438127 138.491554 
L 165.371237 138.150814 
L 166.304348 137.793681 
L 166.360626 137.763211 
L 167.237458 137.421848 
L 168.170569 137.065299 
L 168.767599 136.83612 
L 169.103679 136.698195 
L 170.036789 136.427402 
L 170.9699 136.299374 
L 171.90301 136.262986 
L 172.83612 136.225885 
L 173.769231 136.198616 
L 174.702341 136.203087 
L 175.635452 136.323975 
L 176.568562 136.458951 
L 177.501672 136.584642 
L 178.434783 136.738773 
L 178.670348 136.83612 
L 179.367893 137.123972 
L 180.301003 137.387063 
L 181.041482 137.763211 
L 181.234114 137.895096 
L 182.167224 138.376938 
L 182.72261 138.690301 
L 183.100334 138.917591 
L 184.033445 139.384278 
L 184.480854 139.617391 
L 184.966555 139.867624 
L 185.899666 140.350437 
L 186.254017 140.544482 
L 186.832776 140.847083 
L 187.765886 141.322309 
L 188.036436 141.471572 
L 188.698997 141.806813 
L 189.632107 142.258762 
L 189.881755 142.398662 
L 190.565217 142.740669 
L 191.425061 143.325753 
L 191.498328 143.387459 
L 192.431438 144.0404 
L 192.706381 144.252843 
L 193.364548 144.694054 
L 194.173322 145.179933 
L 194.297659 145.27089 
L 195.230769 145.656115 
L 196.16388 146.006266 
L 196.470601 146.107023 
L 197.09699 146.313898 
L 198.0301 146.687668 
L 198.566146 147.034114 
L 198.963211 147.325259 
L 199.73922 147.961204 
L 199.896321 148.103918 
L 200.744721 148.888294 
L 200.829431 148.965468 
L 201.762542 149.777611 
L 201.804228 149.815385 
L 202.695652 150.590834 
L 202.862906 150.742475 
L 203.628763 151.360748 
L 204.045461 151.669565 
L 204.561873 152.010178 
L 205.379282 152.596656 
L 205.494983 152.690867 
L 206.428094 153.354611 
L 206.631858 153.523746 
L 207.361204 154.071378 
L 207.850388 154.450836 
L 208.294314 154.812426 
L 208.969793 155.377926 
L 209.227425 155.610896 
L 209.864009 156.305017 
L 210.160535 156.608254 
L 210.764445 157.232107 
L 211.093645 157.568623 
L 211.678226 158.159197 
L 212.026756 158.50862 
L 212.602948 159.086288 
L 212.959866 159.44412 
L 213.527672 160.013378 
L 213.892977 160.379616 
L 214.452395 160.940468 
L 214.826087 161.315119 
L 215.377116 161.867559 
L 215.759197 162.250618 
L 216.291112 162.794649 
L 216.692308 163.359179 
L 216.950674 163.721739 
L 217.435496 164.648829 
L 217.625418 164.914293 
L 218.046416 165.57592 
L 218.558528 166.402781 
L 218.632167 166.50301 
L 219.287591 167.4301 
L 219.491639 167.711523 
L 219.928164 168.357191 
L 220.424749 169.24837 
L 220.448712 169.284281 
L 220.960989 170.211371 
L 221.35786 170.912059 
L 221.504911 171.138462 
L 222.015159 172.065552 
L 222.29097 172.547224 
L 222.560408 172.992642 
L 222.992285 173.919732 
L 223.22408 174.476318 
L 223.383388 174.846823 
L 223.703803 175.773913 
L 224.011485 176.701003 
L 224.157191 177.100113 
L 224.330137 177.628094 
L 224.588296 178.555184 
L 224.837475 179.482274 
L 225.090301 180.367332 
L 225.10368 180.409365 
L 225.214044 181.336455 
L 225.251189 182.263545 
L 225.285665 183.190635 
L 225.308087 184.117726 
L 225.292529 185.044816 
L 225.229753 185.971906 
L 225.147878 186.898997 
L 225.090301 187.217678 
L 224.973823 187.826087 
L 224.849714 188.753177 
L 224.750744 189.680268 
L 224.673086 190.607358 
L 224.68179 191.534448 
L 224.724437 192.461538 
L 224.754533 193.388629 
L 224.775312 194.315719 
L 224.724171 195.242809 
L 224.405979 196.1699 
L 224.157191 196.608345 
L 223.914816 197.09699 
L 223.361657 198.02408 
L 223.22408 198.203277 
L 222.719367 198.951171 
L 222.29097 199.548583 
L 222.062092 199.878261 
L 221.418291 200.805351 
L 221.35786 200.878633 
L 220.771627 201.732441 
L 220.424749 202.161063 
L 219.986427 202.659532 
L 219.491639 203.190585 
L 219.104989 203.586622 
L 218.558528 204.088634 
L 218.070638 204.513712 
L 217.625418 204.89829 
L 216.969271 205.440803 
L 216.692308 205.675928 
L 215.850867 206.367893 
L 215.759197 206.445697 
L 214.826087 207.211071 
L 214.724161 207.294983 
L 213.892977 207.90012 
L 213.305882 208.222074 
L 212.959866 208.418223 
L 212.026756 208.921205 
L 211.613136 209.149164 
L 211.093645 209.436911 
L 210.160535 209.905989 
L 209.824494 210.076254 
L 209.227425 210.388708 
L 208.294314 210.907242 
L 208.139971 211.003344 
L 207.361204 211.474992 
L 206.654757 211.930435 
L 206.428094 212.083457 
L 205.494983 212.707938 
L 205.270381 212.857525 
L 204.561873 213.328606 
L 203.874894 213.784615 
L 203.628763 213.95007 
L 202.695652 214.54124 
L 202.426981 214.711706 
L 201.762542 215.143663 
L 200.997603 215.638796 
L 200.829431 215.753312 
L 199.896321 216.415718 
L 199.669216 216.565886 
L 198.963211 217.060393 
L 198.37053 217.492977 
L 198.0301 217.745423 
L 197.09699 218.385988 
L 197.054058 218.420067 
L 196.16388 219.004554 
L 195.62859 219.347157 
L 195.230769 219.603885 
L 194.297659 220.134906 
L 194.065523 220.274247 
L 193.364548 220.657302 
L 192.431438 221.089565 
L 192.242161 221.201338 
L 191.498328 221.585687 
L 190.565217 222.015474 
L 190.288941 222.128428 
L 189.632107 222.358178 
L 188.698997 222.658306 
L 187.765886 222.921823 
L 187.444396 223.055518 
L 186.832776 223.279225 
L 185.899666 223.632913 
L 184.966555 223.965729 
L 184.930971 223.982609 
L 184.033445 224.315987 
L 183.100334 224.635102 
L 182.273184 224.909699 
L 182.167224 224.925098 
L 181.234114 225.028182 
L 180.301003 225.223586 
L 179.367893 225.359287 
L 178.434783 225.486025 
L 177.501672 225.538718 
L 176.568562 225.515623 
L 175.635452 225.378107 
L 174.702341 225.228034 
z
" clip-path="url(#p74dff20f0d)" style="fill: none; stroke: #000000; stroke-width: 1.5"/>
   </g>
   <g id="PathCollection_4">
    <path d="M 168.170569 247.34199 
L 167.555846 247.159866 
L 167.237458 247.063293 
L 166.304348 246.759946 
L 165.371237 246.456145 
L 164.789283 246.232776 
L 164.438127 246.087485 
L 163.505017 245.632586 
L 162.834486 245.305686 
L 162.571906 245.177676 
L 161.638796 244.722779 
L 160.932801 244.378595 
L 160.705686 244.267874 
L 159.772575 243.812979 
L 159.031114 243.451505 
L 158.839465 243.358074 
L 157.906355 242.903182 
L 157.1294 242.524415 
L 156.973244 242.448289 
L 156.040134 241.970338 
L 155.41212 241.597324 
L 155.107023 241.406099 
L 154.173913 240.762684 
L 154.039486 240.670234 
L 153.240803 240.138555 
L 152.664646 239.743144 
L 152.307692 239.495281 
L 151.376311 238.816054 
L 151.374582 238.814784 
L 150.441472 238.115281 
L 150.155255 237.888963 
L 149.508361 237.377465 
L 148.982769 236.961873 
L 148.575251 236.63964 
L 147.810309 236.034783 
L 147.64214 235.890762 
L 146.86339 235.107692 
L 146.70903 234.953981 
L 145.846721 234.180602 
L 145.77592 234.115902 
L 144.842809 233.262996 
L 144.832595 233.253512 
L 143.909699 232.404741 
L 143.826465 232.326421 
L 142.976589 231.459332 
L 142.919528 231.399331 
L 142.043478 230.488438 
L 142.027879 230.472241 
L 141.134994 229.545151 
L 141.110368 229.519581 
L 140.242101 228.61806 
L 140.177258 228.55035 
L 139.522583 227.69097 
L 139.244147 227.118974 
L 139.070929 226.76388 
L 138.595628 225.836789 
L 138.311037 225.383356 
L 138.014665 224.909699 
L 137.436818 223.982609 
L 137.377926 223.888128 
L 136.858946 223.055518 
L 136.444816 222.33905 
L 136.324759 222.128428 
L 135.814564 221.201338 
L 135.511706 220.65099 
L 135.30438 220.274247 
L 134.794199 219.347157 
L 134.578595 218.947549 
L 134.282971 218.420067 
L 133.645485 217.497808 
L 133.641949 217.492977 
L 132.962188 216.565886 
L 132.712375 216.225186 
L 132.282419 215.638796 
L 131.779264 214.952596 
L 131.606811 214.711706 
L 131.160098 213.784615 
L 130.846154 213.005933 
L 130.786319 212.857525 
L 130.406168 211.930435 
L 130.013342 211.003344 
L 129.913043 210.766641 
L 129.620512 210.076254 
L 129.227689 209.149164 
L 128.979933 208.621967 
L 128.765665 208.222074 
L 128.174616 207.294983 
L 128.046823 207.012176 
L 127.786412 206.367893 
L 127.471861 205.440803 
L 127.153891 204.513712 
L 127.113712 204.43103 
L 126.702585 203.586622 
L 126.338925 202.659532 
L 126.180602 202.157177 
L 126.046737 201.732441 
L 125.754552 200.805351 
L 125.462356 199.878261 
L 125.247492 199.196503 
L 125.170173 198.951171 
L 124.877986 198.02408 
L 124.585801 197.09699 
L 124.314381 196.23583 
L 124.293601 196.1699 
L 124.001421 195.242809 
L 123.633004 194.315719 
L 123.381271 193.685185 
L 123.264064 193.388629 
L 123.046216 192.461538 
L 122.828356 191.534448 
L 122.610512 190.607358 
L 122.448161 189.916422 
L 122.39267 189.680268 
L 122.17482 188.753177 
L 121.975928 187.826087 
L 121.892152 186.898997 
L 121.871397 185.971906 
L 121.85188 185.044816 
L 121.832369 184.117726 
L 121.840099 183.190635 
L 121.988671 182.263545 
L 122.073243 181.336455 
L 122.196349 180.409365 
L 122.239384 179.482274 
L 122.22759 178.555184 
L 122.212055 177.628094 
L 122.194376 176.701003 
L 122.178924 175.773913 
L 122.163484 174.846823 
L 122.14803 173.919732 
L 122.132576 172.992642 
L 122.117129 172.065552 
L 122.1019 171.138462 
L 122.113893 170.211371 
L 122.325236 169.284281 
L 122.448161 168.777755 
L 122.554711 168.357191 
L 122.803811 167.4301 
L 123.053301 166.50301 
L 123.302812 165.57592 
L 123.381271 165.303251 
L 123.572282 164.648829 
L 123.806017 163.721739 
L 123.99521 162.794649 
L 124.184397 161.867559 
L 124.314381 161.230598 
L 124.373589 160.940468 
L 124.575692 160.013378 
L 124.823281 159.086288 
L 125.070868 158.159197 
L 125.247492 157.531344 
L 125.331369 157.232107 
L 125.497177 156.305017 
L 125.623396 155.377926 
L 125.749607 154.450836 
L 125.875818 153.523746 
L 126.002034 152.596656 
L 126.128242 151.669565 
L 126.180602 151.333321 
L 126.275609 150.742475 
L 126.454393 149.815385 
L 126.745676 148.888294 
L 127.113712 148.162123 
L 127.214704 147.961204 
L 127.660471 147.034114 
L 128.046823 146.109942 
L 128.047966 146.107023 
L 128.368254 145.179933 
L 128.688549 144.252843 
L 128.979933 143.409438 
L 129.008845 143.325753 
L 129.325635 142.398662 
L 129.638728 141.471572 
L 129.913043 140.659288 
L 129.951879 140.544482 
L 130.26634 139.617391 
L 130.636588 138.690301 
L 130.846154 138.327121 
L 131.180545 137.763211 
L 131.714448 136.83612 
L 131.779264 136.722265 
L 132.248023 135.90903 
L 132.712375 135.129549 
L 132.809364 134.98194 
L 133.521444 134.054849 
L 133.645485 133.891173 
L 134.22301 133.127759 
L 134.578595 132.65773 
L 134.924364 132.200669 
L 135.511706 131.437675 
L 135.647491 131.273579 
L 136.444816 130.427661 
L 136.517966 130.346488 
L 137.307698 129.419398 
L 137.377926 129.336957 
L 138.097424 128.492308 
L 138.311037 128.251176 
L 138.937876 127.565217 
L 139.244147 127.23761 
L 139.804256 126.638127 
L 140.177258 126.228804 
L 140.647745 125.711037 
L 141.110368 125.199839 
L 141.508361 124.783946 
L 142.043478 124.319109 
L 142.666005 123.856856 
L 142.976589 123.62623 
L 143.909699 122.965951 
L 143.971242 122.929766 
L 144.842809 122.435307 
L 145.545626 122.002676 
L 145.77592 121.852804 
L 146.70903 121.299138 
L 147.212156 121.075585 
L 147.64214 120.888686 
L 148.575251 120.47871 
L 149.255524 120.148495 
L 149.508361 120.020831 
L 150.441472 119.542245 
L 151.060997 119.221405 
L 151.374582 119.058555 
L 152.307692 118.569249 
L 152.855964 118.294314 
L 153.240803 118.104407 
L 154.173913 117.699582 
L 154.939588 117.367224 
L 155.107023 117.293482 
L 156.040134 116.875301 
L 156.973244 116.455722 
L 157.007946 116.440134 
L 157.906355 116.036866 
L 158.839465 115.61647 
L 159.06577 115.513043 
L 159.772575 115.206882 
L 160.705686 114.843097 
L 161.382902 114.585953 
L 161.638796 114.488843 
L 162.571906 114.170574 
L 163.505017 113.962896 
L 164.438127 113.820268 
L 165.371237 113.790083 
L 166.304348 113.759889 
L 167.237458 113.729706 
L 168.170569 113.699517 
L 169.103679 113.687088 
L 170.036789 113.702104 
L 170.9699 113.717141 
L 171.90301 113.732164 
L 172.83612 113.747073 
L 173.769231 113.751669 
L 174.702341 113.749444 
L 175.635452 113.916139 
L 176.568562 114.029248 
L 177.501672 114.050217 
L 178.434783 114.10017 
L 179.367893 114.168002 
L 180.301003 114.263641 
L 181.234114 114.414335 
L 181.748623 114.585953 
L 182.167224 114.726601 
L 183.100334 115.041828 
L 184.033445 115.35744 
L 184.4797 115.513043 
L 184.966555 115.682676 
L 185.899666 116.005467 
L 186.832776 116.278674 
L 187.492811 116.440134 
L 187.765886 116.507919 
L 188.698997 116.753135 
L 189.632107 116.993429 
L 190.565217 117.264139 
L 190.917158 117.367224 
L 191.498328 117.537453 
L 192.431438 117.816858 
L 193.364548 118.126681 
L 193.838067 118.294314 
L 194.297659 118.461099 
L 195.230769 118.933447 
L 195.719814 119.221405 
L 196.16388 119.483244 
L 197.09699 120.033443 
L 197.292112 120.148495 
L 198.0301 120.583647 
L 198.86441 121.075585 
L 198.963211 121.133841 
L 199.896321 121.564772 
L 200.829431 121.987825 
L 200.861412 122.002676 
L 201.762542 122.450695 
L 202.625652 122.929766 
L 202.695652 122.968943 
L 203.628763 123.458393 
L 204.561873 123.830455 
L 204.630326 123.856856 
L 205.494983 124.190342 
L 206.428094 124.55024 
L 206.872298 124.783946 
L 207.361204 125.064426 
L 208.294314 125.612292 
L 208.481764 125.711037 
L 209.227425 126.103831 
L 210.141726 126.638127 
L 210.160535 126.65019 
L 211.093645 127.394733 
L 211.303499 127.565217 
L 212.026756 128.15277 
L 212.444712 128.492308 
L 212.959866 128.910811 
L 213.575376 129.419398 
L 213.892977 129.684944 
L 214.664177 130.346488 
L 214.826087 130.484086 
L 215.759197 131.259296 
L 215.776513 131.273579 
L 216.692308 132.005731 
L 216.977818 132.200669 
L 217.625418 132.608636 
L 218.510942 133.127759 
L 218.558528 133.155656 
L 219.491639 133.704129 
L 220.082074 134.054849 
L 220.424749 134.258313 
L 221.35786 134.757836 
L 221.82524 134.98194 
L 222.29097 135.230668 
L 223.22408 135.847931 
L 223.306612 135.90903 
L 224.157191 136.538735 
L 224.490731 136.83612 
L 225.090301 137.483316 
L 225.31578 137.763211 
L 226.022124 138.690301 
L 226.023411 138.69201 
L 226.716801 139.617391 
L 226.956522 139.93732 
L 227.411452 140.544482 
L 227.889632 141.182663 
L 228.106107 141.471572 
L 228.822742 142.375321 
L 228.843129 142.398662 
L 229.749337 143.325753 
L 229.755853 143.332419 
L 230.655557 144.252843 
L 230.688963 144.287018 
L 231.561763 145.179933 
L 231.622074 145.241633 
L 232.467994 146.107023 
L 232.555184 146.196221 
L 233.374197 147.034114 
L 233.488294 147.150836 
L 234.280424 147.961204 
L 234.421405 148.135539 
L 234.928466 148.888294 
L 235.354515 149.595011 
L 235.485823 149.815385 
L 236.025715 150.742475 
L 236.287625 151.125028 
L 236.666155 151.669565 
L 237.220736 152.4765 
L 237.302677 152.596656 
L 237.928116 153.523746 
L 238.153846 153.864462 
L 238.538127 154.450836 
L 239.086957 155.311159 
L 239.127873 155.377926 
L 239.651226 156.305017 
L 240.020067 156.969428 
L 240.165891 157.232107 
L 240.677899 158.159197 
L 240.953177 158.66419 
L 241.183272 159.086288 
L 241.66842 160.013378 
L 241.886288 160.505926 
L 242.076036 160.940468 
L 242.480861 161.867559 
L 242.819398 162.664905 
L 242.874754 162.794649 
L 243.264213 163.721739 
L 243.655293 164.648829 
L 243.752508 164.902268 
L 244.016407 165.57592 
L 244.379413 166.50301 
L 244.685619 167.263138 
L 244.752903 167.4301 
L 245.16864 168.357191 
L 245.492719 169.284281 
L 245.618729 169.644763 
L 245.813789 170.211371 
L 246.112463 171.138462 
L 246.392 172.065552 
L 246.551839 172.595679 
L 246.67153 172.992642 
L 246.951082 173.919732 
L 247.230138 174.846823 
L 247.48495 175.72619 
L 247.498834 175.773913 
L 247.764777 176.701003 
L 248.030712 177.628094 
L 248.296699 178.555184 
L 248.41806 179.298544 
L 248.446985 179.482274 
L 248.41806 180.377124 
L 248.417018 180.409365 
L 248.396613 181.336455 
L 248.387786 182.263545 
L 248.378931 183.190635 
L 248.363186 184.117726 
L 248.38743 185.044816 
L 248.41169 185.971906 
L 248.41806 186.215533 
L 248.435931 186.898997 
L 248.460183 187.826087 
L 248.48442 188.753177 
L 248.508672 189.680268 
L 248.524225 190.607358 
L 248.49333 191.534448 
L 248.45943 192.461538 
L 248.434086 193.388629 
L 248.41806 193.573425 
L 248.353294 194.315719 
L 248.252901 195.242809 
L 248.144575 196.1699 
L 248.065031 197.09699 
L 248.026444 198.02408 
L 247.977767 198.951171 
L 247.91429 199.878261 
L 247.865135 200.805351 
L 247.556327 201.732441 
L 247.48495 201.924574 
L 247.211914 202.659532 
L 246.874618 203.586622 
L 246.567258 204.513712 
L 246.551839 204.560631 
L 246.262597 205.440803 
L 245.957929 206.367893 
L 245.618729 207.175474 
L 245.564957 207.294983 
L 245.096254 208.222074 
L 244.685619 208.959415 
L 244.576429 209.149164 
L 244.017054 210.076254 
L 243.752508 210.514684 
L 243.435459 211.003344 
L 242.819398 211.840054 
L 242.751704 211.930435 
L 242.009156 212.857525 
L 241.886288 213.01093 
L 241.266602 213.784615 
L 240.953177 214.175921 
L 240.524049 214.711706 
L 240.020067 215.340953 
L 239.781504 215.638796 
L 239.086957 216.505952 
L 239.038953 216.565886 
L 238.250873 217.492977 
L 238.153846 217.594426 
L 237.306879 218.420067 
L 237.220736 218.500043 
L 236.287625 219.337427 
L 236.27676 219.347157 
L 235.354515 220.173351 
L 235.245197 220.274247 
L 234.421405 221.075635 
L 234.278785 221.201338 
L 233.488294 221.789653 
L 233.005167 222.128428 
L 232.555184 222.433085 
L 231.635828 223.055518 
L 231.622074 223.064831 
L 230.688963 223.696569 
L 230.266471 223.982609 
L 229.755853 224.335339 
L 228.937778 224.909699 
L 228.822742 224.994443 
L 227.889632 225.582322 
L 227.403866 225.836789 
L 226.956522 226.103474 
L 226.023411 226.752493 
L 226.007041 226.76388 
L 225.090301 227.401519 
L 224.67415 227.69097 
L 224.157191 228.050532 
L 223.341229 228.61806 
L 223.22408 228.699541 
L 222.29097 229.355235 
L 222.028024 229.545151 
L 221.35786 230.04601 
L 220.782225 230.472241 
L 220.424749 230.736934 
L 219.530168 231.399331 
L 219.491639 231.42786 
L 218.558528 232.118784 
L 218.278116 232.326421 
L 217.625418 232.795446 
L 216.940541 233.253512 
L 216.692308 233.413358 
L 215.759197 234.047751 
L 215.584634 234.180602 
L 214.826087 234.77181 
L 214.407787 235.107692 
L 213.892977 235.522312 
L 213.242973 236.034783 
L 212.959866 236.251379 
L 212.026756 236.696076 
L 211.295714 236.961873 
L 211.093645 237.034602 
L 210.160535 237.364098 
L 209.227425 237.700509 
L 208.702427 237.888963 
L 208.294314 238.033449 
L 207.361204 238.380288 
L 206.428094 238.807871 
L 206.409541 238.816054 
L 205.494983 239.218059 
L 204.561873 239.621301 
L 204.23428 239.743144 
L 203.628763 239.963817 
L 202.695652 240.380008 
L 202.214649 240.670234 
L 201.762542 240.955303 
L 200.829431 241.559127 
L 200.770421 241.597324 
L 199.896321 242.166044 
L 199.344959 242.524415 
L 198.963211 242.772705 
L 198.0301 243.378989 
L 197.912467 243.451505 
L 197.09699 243.949868 
L 196.299906 244.378595 
L 196.16388 244.451555 
L 195.230769 244.810318 
L 194.297659 245.124125 
L 193.75777 245.305686 
L 193.364548 245.437924 
L 192.431438 245.751732 
L 191.498328 246.065524 
L 191.000995 246.232776 
L 190.565217 246.378246 
L 189.632107 246.648395 
L 188.698997 246.928844 
L 187.765886 247.01699 
L 186.832776 247.080876 
L 185.899666 247.144752 
L 185.678978 247.159866 
L 184.966555 247.208659 
L 184.033445 247.272523 
L 183.100334 247.336411 
L 182.167224 247.398441 
L 181.234114 247.449186 
L 180.301003 247.496976 
L 179.367893 247.544743 
L 178.434783 247.592526 
L 177.501672 247.644383 
L 176.568562 247.698756 
L 175.635452 247.730357 
L 174.702341 247.757528 
L 173.769231 247.832702 
L 172.83612 247.856477 
L 171.90301 247.779564 
L 170.9699 247.702658 
L 170.036789 247.625759 
L 169.103679 247.504658 
L 168.170569 247.34199 
z
" clip-path="url(#p74dff20f0d)" style="fill: none; stroke: #000000; stroke-width: 1.5"/>
   </g>
   <g id="patch_3">
    <path d="M 45 320.4 
L 45 43.2 
" style="fill: none; stroke: #000000; stroke-width: 0.8; stroke-linejoin: miter; stroke-linecap: square"/>
   </g>
   <g id="patch_4">
    <path d="M 324 320.4 
L 324 43.2 
" style="fill: none; stroke: #000000; stroke-width: 0.8; stroke-linejoin: miter; stroke-linecap: square"/>
   </g>
   <g id="patch_5">
    <path d="M 45 320.4 
L 324 320.4 
" style="fill: none; stroke: #000000; stroke-width: 0.8; stroke-linejoin: miter; stroke-linecap: square"/>
   </g>
   <g id="patch_6">
    <path d="M 45 43.2 
L 324 43.2 
" style="fill: none; stroke: #000000; stroke-width: 0.8; stroke-linejoin: miter; stroke-linecap: square"/>
   </g>
  </g>
 </g>
 <defs>
  <clipPath id="p74dff20f0d">
   <rect x="45" y="43.2" width="279" height="277.2"/>
  </clipPath>
 </defs>
</svg>
