<?xml version="1.0" encoding="utf-8" standalone="no"?>
<!DOCTYPE svg PUBLIC "-//W3C//DTD SVG 1.1//EN"
  "http://www.w3.org/Graphics/SVG/1.1/DTD/svg11.dtd">
<svg xmlns:xlink="http://www.w3.org/1999/xlink" width="360pt" height="360pt" viewBox="0 0 360 360" xmlns="http://www.w3.org/2000/svg" version="1.1">
 <metadata>
  <rdf:RDF xmlns:dc="http://purl.org/dc/elements/1.1/" xmlns:cc="http://creativecommons.org/ns#" xmlns:rdf="http://www.w3.org/1999/02/22-rdf-syntax-ns#">
   <cc:Work>
    <dc:type rdf:resource="http://purl.org/dc/dcmitype/StillImage"/>
    <dc:date>2022-04-03T22:41:43.429642</dc:date>
    <dc:format>image/svg+xml</dc:format>
    <dc:creator>
     <cc:Agent>
      <dc:title>Matplotlib v3.5.1, https://matplotlib.org/</dc:title>
     </cc:Agent>
    </dc:creator>
   </cc:Work>
  </rdf:RDF>
 </metadata>
 <defs>
  <style type="text/css">*{stroke-linejoin: round; stroke-linecap: butt}</style>
 </defs>
 <g id="figure_1">
  <g id="patch_1">
   <path d="M 0 360 
L 360 360 
L 360 0 
L 0 0 
z
" style="fill: #ffffff"/>
  </g>
  <g id="axes_1">
   <g id="patch_2">
    <path d="M 45 320.4 
L 324 320.4 
L 324 43.2 
L 45 43.2 
z
" style="fill: #ffffff"/>
   </g>
   <g id="PathCollection_1">
    <defs>
     <path id="m0e0a836ccf" d="M 0 0.5 
C 0.132602 0.5 0.25979 0.447317 0.353553 0.353553 
C 0.447317 0.25979 0.5 0.132602 0.5 0 
C 0.5 -0.132602 0.447317 -0.25979 0.353553 -0.353553 
C 0.25979 -0.447317 0.132602 -0.5 0 -0.5 
C -0.132602 -0.5 -0.25979 -0.447317 -0.353553 -0.353553 
C -0.447317 -0.25979 -0.5 -0.132602 -0.5 0 
C -0.5 0.132602 -0.447317 0.25979 -0.353553 0.353553 
C -0.25979 0.447317 -0.132602 0.5 0 0.5 
z
" style="stroke: #ff0000"/>
    </defs>
    <g clip-path="url(#pb0203c498c)">
     <use xlink:href="#m0e0a836ccf" x="223.465988" y="181.568614" style="fill: #ff0000; stroke: #ff0000"/>
     <use xlink:href="#m0e0a836ccf" x="225.250386" y="177.603735" style="fill: #ff0000; stroke: #ff0000"/>
     <use xlink:href="#m0e0a836ccf" x="226.391126" y="173.335736" style="fill: #ff0000; stroke: #ff0000"/>
     <use xlink:href="#m0e0a836ccf" x="226.712809" y="168.916302" style="fill: #ff0000; stroke: #ff0000"/>
     <use xlink:href="#m0e0a836ccf" x="226.155939" y="164.521322" style="fill: #ff0000; stroke: #ff0000"/>
     <use xlink:href="#m0e0a836ccf" x="224.780359" y="160.300897" style="fill: #ff0000; stroke: #ff0000"/>
     <use xlink:href="#m0e0a836ccf" x="222.732525" y="156.341879" style="fill: #ff0000; stroke: #ff0000"/>
     <use xlink:href="#m0e0a836ccf" x="220.184711" y="152.661762" style="fill: #ff0000; stroke: #ff0000"/>
     <use xlink:href="#m0e0a836ccf" x="217.271683" y="149.239747" style="fill: #ff0000; stroke: #ff0000"/>
     <use xlink:href="#m0e0a836ccf" x="214.056545" y="146.068157" style="fill: #ff0000; stroke: #ff0000"/>
     <use xlink:href="#m0e0a836ccf" x="210.542123" y="143.191567" style="fill: #ff0000; stroke: #ff0000"/>
     <use xlink:href="#m0e0a836ccf" x="206.715729" y="140.706947" style="fill: #ff0000; stroke: #ff0000"/>
     <use xlink:href="#m0e0a836ccf" x="202.594843" y="138.72425" style="fill: #ff0000; stroke: #ff0000"/>
     <use xlink:href="#m0e0a836ccf" x="198.244369" y="137.314594" style="fill: #ff0000; stroke: #ff0000"/>
     <use xlink:href="#m0e0a836ccf" x="193.75944" y="136.481845" style="fill: #ff0000; stroke: #ff0000"/>
     <use xlink:href="#m0e0a836ccf" x="189.232647" y="136.176549" style="fill: #ff0000; stroke: #ff0000"/>
     <use xlink:href="#m0e0a836ccf" x="184.732888" y="136.341578" style="fill: #ff0000; stroke: #ff0000"/>
     <use xlink:href="#m0e0a836ccf" x="180.310575" y="136.957799" style="fill: #ff0000; stroke: #ff0000"/>
     <use xlink:href="#m0e0a836ccf" x="176.022068" y="138.058895" style="fill: #ff0000; stroke: #ff0000"/>
     <use xlink:href="#m0e0a836ccf" x="171.950986" y="139.704176" style="fill: #ff0000; stroke: #ff0000"/>
     <use xlink:href="#m0e0a836ccf" x="168.204553" y="141.923123" style="fill: #ff0000; stroke: #ff0000"/>
     <use xlink:href="#m0e0a836ccf" x="164.877962" y="144.662312" style="fill: #ff0000; stroke: #ff0000"/>
     <use xlink:href="#m0e0a836ccf" x="162.000899" y="147.767278" style="fill: #ff0000; stroke: #ff0000"/>
     <use xlink:href="#m0e0a836ccf" x="159.497121" y="151.017129" style="fill: #ff0000; stroke: #ff0000"/>
     <use xlink:href="#m0e0a836ccf" x="157.18879" y="154.20222" style="fill: #ff0000; stroke: #ff0000"/>
     <use xlink:href="#m0e0a836ccf" x="154.85669" y="157.208038" style="fill: #ff0000; stroke: #ff0000"/>
     <use xlink:href="#m0e0a836ccf" x="152.334368" y="160.06028" style="fill: #ff0000; stroke: #ff0000"/>
     <use xlink:href="#m0e0a836ccf" x="149.590873" y="162.906002" style="fill: #ff0000; stroke: #ff0000"/>
     <use xlink:href="#m0e0a836ccf" x="146.760528" y="165.941423" style="fill: #ff0000; stroke: #ff0000"/>
     <use xlink:href="#m0e0a836ccf" x="144.105843" y="169.324045" style="fill: #ff0000; stroke: #ff0000"/>
     <use xlink:href="#m0e0a836ccf" x="141.931099" y="173.109737" style="fill: #ff0000; stroke: #ff0000"/>
     <use xlink:href="#m0e0a836ccf" x="140.482363" y="177.238436" style="fill: #ff0000; stroke: #ff0000"/>
     <use xlink:href="#m0e0a836ccf" x="139.871525" y="181.568614" style="fill: #ff0000; stroke: #ff0000"/>
     <use xlink:href="#m0e0a836ccf" x="140.051836" y="185.940922" style="fill: #ff0000; stroke: #ff0000"/>
     <use xlink:href="#m0e0a836ccf" x="140.85361" y="190.240435" style="fill: #ff0000; stroke: #ff0000"/>
     <use xlink:href="#m0e0a836ccf" x="142.064568" y="194.428403" style="fill: #ff0000; stroke: #ff0000"/>
     <use xlink:href="#m0e0a836ccf" x="143.518772" y="198.529922" style="fill: #ff0000; stroke: #ff0000"/>
     <use xlink:href="#m0e0a836ccf" x="145.15396" y="202.587506" style="fill: #ff0000; stroke: #ff0000"/>
     <use xlink:href="#m0e0a836ccf" x="147.014864" y="206.608397" style="fill: #ff0000; stroke: #ff0000"/>
     <use xlink:href="#m0e0a836ccf" x="149.209503" y="210.533818" style="fill: #ff0000; stroke: #ff0000"/>
     <use xlink:href="#m0e0a836ccf" x="151.84737" y="214.241968" style="fill: #ff0000; stroke: #ff0000"/>
     <use xlink:href="#m0e0a836ccf" x="154.990309" y="217.576236" style="fill: #ff0000; stroke: #ff0000"/>
     <use xlink:href="#m0e0a836ccf" x="158.631591" y="220.379944" style="fill: #ff0000; stroke: #ff0000"/>
     <use xlink:href="#m0e0a836ccf" x="162.699994" y="222.523321" style="fill: #ff0000; stroke: #ff0000"/>
     <use xlink:href="#m0e0a836ccf" x="167.0762" y="223.920617" style="fill: #ff0000; stroke: #ff0000"/>
     <use xlink:href="#m0e0a836ccf" x="171.611961" y="224.543457" style="fill: #ff0000; stroke: #ff0000"/>
     <use xlink:href="#m0e0a836ccf" x="176.151265" y="224.433009" style="fill: #ff0000; stroke: #ff0000"/>
     <use xlink:href="#m0e0a836ccf" x="180.556126" y="223.702392" style="fill: #ff0000; stroke: #ff0000"/>
     <use xlink:href="#m0e0a836ccf" x="184.732888" y="222.515643" style="fill: #ff0000; stroke: #ff0000"/>
     <use xlink:href="#m0e0a836ccf" x="188.645798" y="221.040745" style="fill: #ff0000; stroke: #ff0000"/>
     <use xlink:href="#m0e0a836ccf" x="192.305963" y="219.395403" style="fill: #ff0000; stroke: #ff0000"/>
     <use xlink:href="#m0e0a836ccf" x="195.738705" y="217.615856" style="fill: #ff0000; stroke: #ff0000"/>
     <use xlink:href="#m0e0a836ccf" x="198.948821" y="215.667491" style="fill: #ff0000; stroke: #ff0000"/>
     <use xlink:href="#m0e0a836ccf" x="201.905605" y="213.48923" style="fill: #ff0000; stroke: #ff0000"/>
     <use xlink:href="#m0e0a836ccf" x="204.555531" y="211.043898" style="fill: #ff0000; stroke: #ff0000"/>
     <use xlink:href="#m0e0a836ccf" x="206.853214" y="208.348414" style="fill: #ff0000; stroke: #ff0000"/>
     <use xlink:href="#m0e0a836ccf" x="208.794081" y="205.474574" style="fill: #ff0000; stroke: #ff0000"/>
     <use xlink:href="#m0e0a836ccf" x="210.435937" y="202.526471" style="fill: #ff0000; stroke: #ff0000"/>
     <use xlink:href="#m0e0a836ccf" x="211.902072" y="199.605361" style="fill: #ff0000; stroke: #ff0000"/>
     <use xlink:href="#m0e0a836ccf" x="213.360743" y="196.771799" style="fill: #ff0000; stroke: #ff0000"/>
     <use xlink:href="#m0e0a836ccf" x="214.979759" y="194.016448" style="fill: #ff0000; stroke: #ff0000"/>
     <use xlink:href="#m0e0a836ccf" x="216.866328" y="191.253299" style="fill: #ff0000; stroke: #ff0000"/>
     <use xlink:href="#m0e0a836ccf" x="219.015781" y="188.34391" style="fill: #ff0000; stroke: #ff0000"/>
     <use xlink:href="#m0e0a836ccf" x="221.294399" y="185.146377" style="fill: #ff0000; stroke: #ff0000"/>
    </g>
   </g>
   <g id="matplotlib.axis_1">
    <g id="xtick_1">
     <g id="line2d_1">
      <defs>
       <path id="m9c38ed0381" d="M 0 0 
L 0 3.5 
" style="stroke: #000000; stroke-width: 0.8"/>
      </defs>
      <g>
       <use xlink:href="#m9c38ed0381" x="45" y="320.4" style="stroke: #000000; stroke-width: 0.8"/>
      </g>
     </g>
     <g id="text_1">
      <!-- −3 -->
      <g transform="translate(37.628906 334.998438)scale(0.1 -0.1)">
       <defs>
        <path id="DejaVuSans-2212" d="M 678 2272 
L 4684 2272 
L 4684 1741 
L 678 1741 
L 678 2272 
z
" transform="scale(0.015625)"/>
        <path id="DejaVuSans-33" d="M 2597 2516 
Q 3050 2419 3304 2112 
Q 3559 1806 3559 1356 
Q 3559 666 3084 287 
Q 2609 -91 1734 -91 
Q 1441 -91 1130 -33 
Q 819 25 488 141 
L 488 750 
Q 750 597 1062 519 
Q 1375 441 1716 441 
Q 2309 441 2620 675 
Q 2931 909 2931 1356 
Q 2931 1769 2642 2001 
Q 2353 2234 1838 2234 
L 1294 2234 
L 1294 2753 
L 1863 2753 
Q 2328 2753 2575 2939 
Q 2822 3125 2822 3475 
Q 2822 3834 2567 4026 
Q 2313 4219 1838 4219 
Q 1578 4219 1281 4162 
Q 984 4106 628 3988 
L 628 4550 
Q 988 4650 1302 4700 
Q 1616 4750 1894 4750 
Q 2613 4750 3031 4423 
Q 3450 4097 3450 3541 
Q 3450 3153 3228 2886 
Q 3006 2619 2597 2516 
z
" transform="scale(0.015625)"/>
       </defs>
       <use xlink:href="#DejaVuSans-2212"/>
       <use xlink:href="#DejaVuSans-33" x="83.789062"/>
      </g>
     </g>
    </g>
    <g id="xtick_2">
     <g id="line2d_2">
      <g>
       <use xlink:href="#m9c38ed0381" x="91.577629" y="320.4" style="stroke: #000000; stroke-width: 0.8"/>
      </g>
     </g>
     <g id="text_2">
      <!-- −2 -->
      <g transform="translate(84.206536 334.998438)scale(0.1 -0.1)">
       <defs>
        <path id="DejaVuSans-32" d="M 1228 531 
L 3431 531 
L 3431 0 
L 469 0 
L 469 531 
Q 828 903 1448 1529 
Q 2069 2156 2228 2338 
Q 2531 2678 2651 2914 
Q 2772 3150 2772 3378 
Q 2772 3750 2511 3984 
Q 2250 4219 1831 4219 
Q 1534 4219 1204 4116 
Q 875 4013 500 3803 
L 500 4441 
Q 881 4594 1212 4672 
Q 1544 4750 1819 4750 
Q 2544 4750 2975 4387 
Q 3406 4025 3406 3419 
Q 3406 3131 3298 2873 
Q 3191 2616 2906 2266 
Q 2828 2175 2409 1742 
Q 1991 1309 1228 531 
z
" transform="scale(0.015625)"/>
       </defs>
       <use xlink:href="#DejaVuSans-2212"/>
       <use xlink:href="#DejaVuSans-32" x="83.789062"/>
      </g>
     </g>
    </g>
    <g id="xtick_3">
     <g id="line2d_3">
      <g>
       <use xlink:href="#m9c38ed0381" x="138.155259" y="320.4" style="stroke: #000000; stroke-width: 0.8"/>
      </g>
     </g>
     <g id="text_3">
      <!-- −1 -->
      <g transform="translate(130.784165 334.998438)scale(0.1 -0.1)">
       <defs>
        <path id="DejaVuSans-31" d="M 794 531 
L 1825 531 
L 1825 4091 
L 703 3866 
L 703 4441 
L 1819 4666 
L 2450 4666 
L 2450 531 
L 3481 531 
L 3481 0 
L 794 0 
L 794 531 
z
" transform="scale(0.015625)"/>
       </defs>
       <use xlink:href="#DejaVuSans-2212"/>
       <use xlink:href="#DejaVuSans-31" x="83.789062"/>
      </g>
     </g>
    </g>
    <g id="xtick_4">
     <g id="line2d_4">
      <g>
       <use xlink:href="#m9c38ed0381" x="184.732888" y="320.4" style="stroke: #000000; stroke-width: 0.8"/>
      </g>
     </g>
     <g id="text_4">
      <!-- 0 -->
      <g transform="translate(181.551638 334.998438)scale(0.1 -0.1)">
       <defs>
        <path id="DejaVuSans-30" d="M 2034 4250 
Q 1547 4250 1301 3770 
Q 1056 3291 1056 2328 
Q 1056 1369 1301 889 
Q 1547 409 2034 409 
Q 2525 409 2770 889 
Q 3016 1369 3016 2328 
Q 3016 3291 2770 3770 
Q 2525 4250 2034 4250 
z
M 2034 4750 
Q 2819 4750 3233 4129 
Q 3647 3509 3647 2328 
Q 3647 1150 3233 529 
Q 2819 -91 2034 -91 
Q 1250 -91 836 529 
Q 422 1150 422 2328 
Q 422 3509 836 4129 
Q 1250 4750 2034 4750 
z
" transform="scale(0.015625)"/>
       </defs>
       <use xlink:href="#DejaVuSans-30"/>
      </g>
     </g>
    </g>
    <g id="xtick_5">
     <g id="line2d_5">
      <g>
       <use xlink:href="#m9c38ed0381" x="231.310518" y="320.4" style="stroke: #000000; stroke-width: 0.8"/>
      </g>
     </g>
     <g id="text_5">
      <!-- 1 -->
      <g transform="translate(228.129268 334.998438)scale(0.1 -0.1)">
       <use xlink:href="#DejaVuSans-31"/>
      </g>
     </g>
    </g>
    <g id="xtick_6">
     <g id="line2d_6">
      <g>
       <use xlink:href="#m9c38ed0381" x="277.888147" y="320.4" style="stroke: #000000; stroke-width: 0.8"/>
      </g>
     </g>
     <g id="text_6">
      <!-- 2 -->
      <g transform="translate(274.706897 334.998438)scale(0.1 -0.1)">
       <use xlink:href="#DejaVuSans-32"/>
      </g>
     </g>
    </g>
   </g>
   <g id="matplotlib.axis_2">
    <g id="ytick_1">
     <g id="line2d_7">
      <defs>
       <path id="m4ef46483aa" d="M 0 0 
L -3.5 0 
" style="stroke: #000000; stroke-width: 0.8"/>
      </defs>
      <g>
       <use xlink:href="#m4ef46483aa" x="45" y="320.4" style="stroke: #000000; stroke-width: 0.8"/>
      </g>
     </g>
     <g id="text_7">
      <!-- −3 -->
      <g transform="translate(23.257812 324.199219)scale(0.1 -0.1)">
       <use xlink:href="#DejaVuSans-2212"/>
       <use xlink:href="#DejaVuSans-33" x="83.789062"/>
      </g>
     </g>
    </g>
    <g id="ytick_2">
     <g id="line2d_8">
      <g>
       <use xlink:href="#m4ef46483aa" x="45" y="274.122871" style="stroke: #000000; stroke-width: 0.8"/>
      </g>
     </g>
     <g id="text_8">
      <!-- −2 -->
      <g transform="translate(23.257812 277.92209)scale(0.1 -0.1)">
       <use xlink:href="#DejaVuSans-2212"/>
       <use xlink:href="#DejaVuSans-32" x="83.789062"/>
      </g>
     </g>
    </g>
    <g id="ytick_3">
     <g id="line2d_9">
      <g>
       <use xlink:href="#m4ef46483aa" x="45" y="227.845743" style="stroke: #000000; stroke-width: 0.8"/>
      </g>
     </g>
     <g id="text_9">
      <!-- −1 -->
      <g transform="translate(23.257812 231.644962)scale(0.1 -0.1)">
       <use xlink:href="#DejaVuSans-2212"/>
       <use xlink:href="#DejaVuSans-31" x="83.789062"/>
      </g>
     </g>
    </g>
    <g id="ytick_4">
     <g id="line2d_10">
      <g>
       <use xlink:href="#m4ef46483aa" x="45" y="181.568614" style="stroke: #000000; stroke-width: 0.8"/>
      </g>
     </g>
     <g id="text_10">
      <!-- 0 -->
      <g transform="translate(31.6375 185.367833)scale(0.1 -0.1)">
       <use xlink:href="#DejaVuSans-30"/>
      </g>
     </g>
    </g>
    <g id="ytick_5">
     <g id="line2d_11">
      <g>
       <use xlink:href="#m4ef46483aa" x="45" y="135.291486" style="stroke: #000000; stroke-width: 0.8"/>
      </g>
     </g>
     <g id="text_11">
      <!-- 1 -->
      <g transform="translate(31.6375 139.090705)scale(0.1 -0.1)">
       <use xlink:href="#DejaVuSans-31"/>
      </g>
     </g>
    </g>
    <g id="ytick_6">
     <g id="line2d_12">
      <g>
       <use xlink:href="#m4ef46483aa" x="45" y="89.014357" style="stroke: #000000; stroke-width: 0.8"/>
      </g>
     </g>
     <g id="text_12">
      <!-- 2 -->
      <g transform="translate(31.6375 92.813576)scale(0.1 -0.1)">
       <use xlink:href="#DejaVuSans-32"/>
      </g>
     </g>
    </g>
   </g>
   <g id="PathCollection_2">
    <path d="M 174.48581 201.473343 
L 174.456873 201.46778 
L 174.020033 201.383972 
L 173.554257 201.241183 
L 173.088481 201.023645 
L 173.048544 201.005008 
L 172.622705 200.807125 
L 172.156928 200.588922 
L 172.056889 200.542237 
L 171.691152 200.372868 
L 171.28802 200.079466 
L 171.225376 200.025592 
L 170.818521 199.616694 
L 170.759599 199.557477 
L 170.358062 199.153923 
L 170.293823 199.083077 
L 169.946311 198.691152 
L 169.828047 198.531438 
L 169.603639 198.228381 
L 169.36227 197.902427 
L 169.261636 197.765609 
L 168.926579 197.302838 
L 168.896494 197.261227 
L 168.591989 196.840067 
L 168.430718 196.617008 
L 168.269412 196.377295 
L 168.09611 195.914524 
L 167.976027 195.451753 
L 167.964942 195.409034 
L 167.855944 194.988982 
L 167.735859 194.52621 
L 167.615779 194.063439 
L 167.499165 193.614048 
L 167.495693 193.600668 
L 167.292688 193.137896 
L 167.033389 192.714382 
L 167.008705 192.675125 
L 166.701092 192.212354 
L 166.567613 192.01155 
L 166.393474 191.749583 
L 166.101836 191.310845 
L 166.085861 191.286811 
L 165.824293 190.82404 
L 165.63606 190.488769 
L 165.564478 190.361269 
L 165.304678 189.898497 
L 165.170284 189.659115 
L 165.044866 189.435726 
L 164.785059 188.972955 
L 164.704508 188.829476 
L 164.52525 188.510184 
L 164.265445 188.047412 
L 164.238731 187.981667 
L 164.089011 187.584641 
L 163.918315 187.12187 
L 163.772955 186.727784 
L 163.74762 186.659098 
L 163.576924 186.196327 
L 163.41718 185.733556 
L 163.357983 185.270785 
L 163.326124 184.808013 
L 163.526918 184.345242 
L 163.66209 183.882471 
L 163.711394 183.419699 
L 163.772955 183.269815 
L 163.874268 182.956928 
L 164.215884 182.494157 
L 164.238731 182.464793 
L 164.578488 182.031386 
L 164.704508 181.855247 
L 164.901277 181.568614 
L 165.170284 181.151209 
L 165.19952 181.105843 
L 165.525395 180.643072 
L 165.63606 180.499976 
L 165.883284 180.180301 
L 166.101836 179.897703 
L 166.241178 179.717529 
L 166.567613 179.295436 
L 166.598603 179.254758 
L 166.929071 178.791987 
L 167.033389 178.64137 
L 167.249586 178.329215 
L 167.499165 177.968856 
L 167.570096 177.866444 
L 167.890612 177.403673 
L 167.964942 177.296353 
L 168.211126 176.940902 
L 168.430718 176.623842 
L 168.531636 176.47813 
L 168.852156 176.015359 
L 168.896494 175.951341 
L 169.172666 175.552588 
L 169.36227 175.278832 
L 169.493183 175.089816 
L 169.813697 174.627045 
L 169.828047 174.606014 
L 170.132562 174.164274 
L 170.293823 173.921983 
L 170.472684 173.701503 
L 170.759599 173.385952 
L 170.930433 173.238731 
L 171.225376 172.983354 
L 171.462052 172.77596 
L 171.691152 172.563979 
L 171.976358 172.313189 
L 172.156928 172.127093 
L 172.429666 171.850417 
L 172.622705 171.635929 
L 172.836874 171.387646 
L 173.088481 170.945224 
L 173.100053 170.924875 
L 173.363231 170.462104 
L 173.554257 170.126202 
L 173.625967 169.999332 
L 173.875821 169.536561 
L 173.999925 169.07379 
L 174.020033 168.967663 
L 174.083787 168.611018 
L 174.166515 168.148247 
L 174.321672 167.685476 
L 174.48581 167.246704 
L 174.494787 167.222705 
L 174.667907 166.759933 
L 174.841022 166.297162 
L 174.951586 166.00161 
L 175.014142 165.834391 
L 175.187252 165.371619 
L 175.360373 164.908848 
L 175.417362 164.756509 
L 175.53741 164.446077 
L 175.735275 163.983306 
L 175.883139 163.671901 
L 175.983707 163.520534 
L 176.348915 163.111309 
L 176.402229 163.057763 
L 176.814691 162.643516 
L 176.863006 162.594992 
L 177.280467 162.175714 
L 177.323774 162.13222 
L 177.746244 161.707925 
L 177.784553 161.669449 
L 178.21202 161.288568 
L 178.318267 161.206678 
L 178.677796 160.9691 
L 179.018588 160.743907 
L 179.143573 160.665584 
L 179.609349 160.366502 
L 179.739057 160.281135 
L 180.075125 160.075453 
L 180.49518 159.818364 
L 180.540902 159.790381 
L 181.006678 159.505315 
L 181.415979 159.355593 
L 181.472454 159.335721 
L 181.93823 159.181342 
L 182.404007 159.042702 
L 182.869783 158.917281 
L 182.960617 158.892821 
L 183.335559 158.791856 
L 183.801336 158.66643 
L 184.267112 158.54101 
L 184.679154 158.43005 
L 184.732888 158.41558 
L 185.198664 158.290158 
L 185.664441 158.252708 
L 186.130217 158.28611 
L 186.595993 158.30597 
L 187.06177 158.326775 
L 187.527546 158.386396 
L 187.868605 158.43005 
L 187.993322 158.446014 
L 188.459098 158.505634 
L 188.924875 158.565253 
L 189.390651 158.624875 
L 189.856427 158.684494 
L 190.322204 158.74411 
L 190.78798 158.80373 
L 191.253756 158.863353 
L 191.48396 158.892821 
L 191.719533 158.925057 
L 192.185309 159.019531 
L 192.651085 159.244738 
L 192.808577 159.355593 
L 193.116861 159.570228 
L 193.503996 159.818364 
L 193.582638 159.868494 
L 194.048414 160.165413 
L 194.229952 160.281135 
L 194.51419 160.462324 
L 194.95592 160.743907 
L 194.979967 160.757097 
L 195.445743 160.954032 
L 195.906093 161.206678 
L 195.911519 161.20976 
L 196.377295 161.4881 
L 196.68077 161.669449 
L 196.843072 161.766436 
L 197.308848 162.04477 
L 197.455193 162.13222 
L 197.774624 162.323106 
L 198.22961 162.594992 
L 198.240401 162.603596 
L 198.704141 163.057763 
L 198.706177 163.059806 
L 199.16529 163.520534 
L 199.171953 163.527437 
L 199.585465 163.983306 
L 199.63773 164.075074 
L 199.849024 164.446077 
L 200.103506 164.892921 
L 200.112577 164.908848 
L 200.420836 165.371619 
L 200.569282 165.551463 
L 200.80282 165.834391 
L 201.035058 166.115745 
L 201.184802 166.297162 
L 201.500835 166.680036 
L 201.566784 166.759933 
L 201.840185 167.222705 
L 201.966611 167.525553 
L 202.033373 167.685476 
L 202.203522 168.148247 
L 202.241555 168.611018 
L 202.270653 169.07379 
L 202.242938 169.536561 
L 202.027323 169.999332 
L 201.966611 170.12383 
L 201.801655 170.462104 
L 201.565384 170.924875 
L 201.500835 171.047599 
L 201.321979 171.387646 
L 201.07858 171.850417 
L 201.035058 171.933163 
L 200.835175 172.313189 
L 200.591764 172.77596 
L 200.569282 172.818705 
L 200.366657 173.238731 
L 200.269228 173.701503 
L 200.175378 174.164274 
L 200.103506 174.518687 
L 200.081532 174.627045 
L 199.987669 175.089816 
L 199.893818 175.552588 
L 199.63773 175.983603 
L 199.615373 176.015359 
L 199.171953 176.416908 
L 199.104354 176.47813 
L 198.706177 176.838733 
L 198.593364 176.940902 
L 198.240401 177.320781 
L 198.168645 177.403673 
L 197.860593 177.866444 
L 197.774624 178.011034 
L 197.600432 178.329215 
L 197.344975 178.791987 
L 197.308848 178.85726 
L 197.088845 179.254758 
L 196.843072 179.690851 
L 196.828187 179.717529 
L 196.546183 180.180301 
L 196.377295 180.43912 
L 196.244186 180.643072 
L 195.911519 180.969305 
L 195.726598 181.105843 
L 195.445743 181.387148 
L 195.340968 181.568614 
L 195.089329 182.031386 
L 194.979967 182.200424 
L 194.83777 182.494157 
L 194.624782 182.956928 
L 194.51419 183.186559 
L 194.400888 183.419699 
L 194.176924 183.882471 
L 194.048414 184.156305 
L 193.957328 184.345242 
L 193.734232 184.808013 
L 193.582638 185.122466 
L 193.511135 185.270785 
L 193.288041 185.733556 
L 193.116861 186.088637 
L 193.064945 186.196327 
L 192.841846 186.659098 
L 192.651085 187.054804 
L 192.618754 187.12187 
L 192.380706 187.584641 
L 192.185309 187.895789 
L 192.09082 188.047412 
L 191.799482 188.510184 
L 191.719533 188.637495 
L 191.520811 188.972955 
L 191.253756 189.418265 
L 191.24336 189.435726 
L 190.967842 189.898497 
L 190.78798 190.200602 
L 190.692324 190.361269 
L 190.50257 190.82404 
L 190.367703 191.286811 
L 190.322204 191.436154 
L 190.226713 191.749583 
L 190.089514 192.212354 
L 189.959603 192.675125 
L 189.856427 193.059007 
L 189.833521 193.137896 
L 189.699154 193.600668 
L 189.479751 194.063439 
L 189.390651 194.175158 
L 189.122551 194.52621 
L 188.924875 194.768278 
L 188.746387 194.988982 
L 188.459098 195.362491 
L 188.391717 195.451753 
L 188.042374 195.914524 
L 187.993322 195.979502 
L 187.69304 196.377295 
L 187.527546 196.596529 
L 187.327386 196.840067 
L 187.06177 197.08897 
L 186.830999 197.302838 
L 186.595993 197.526247 
L 186.337243 197.765609 
L 186.130217 197.962415 
L 185.84211 198.228381 
L 185.664441 198.388927 
L 185.250859 198.691152 
L 185.198664 198.726462 
L 184.732888 198.994218 
L 184.267112 199.150556 
L 184.251475 199.153923 
L 183.801336 199.252377 
L 183.335559 199.258144 
L 182.869783 199.212491 
L 182.404007 199.17911 
L 181.93823 199.38163 
L 181.472454 199.572761 
L 181.356779 199.616694 
L 181.006678 199.760057 
L 180.540902 199.950991 
L 180.226674 200.079466 
L 180.075125 200.141673 
L 179.609349 200.335959 
L 179.143573 200.535091 
L 179.131437 200.542237 
L 178.677796 200.832258 
L 178.21202 200.996962 
L 178.176181 201.005008 
L 177.746244 201.105268 
L 177.280467 201.139721 
L 176.814691 201.174181 
L 176.348915 201.208637 
L 175.883139 201.243094 
L 175.417362 201.33001 
L 174.951586 201.460104 
L 174.689106 201.46778 
L 174.48581 201.473343 
z
" clip-path="url(#pb0203c498c)" style="fill: none; stroke-dasharray: 5.55,2.4; stroke-dashoffset: 0; stroke: #000000; stroke-width: 1.5"/>
   </g>
   <g id="PathCollection_3">
    <path d="M 173.554257 224.60666 
L 173.088481 224.536285 
L 171.225376 224.333209 
L 170.293823 224.302318 
L 169.36227 224.147771 
L 168.430718 224.059233 
L 163.307179 223.683597 
L 162.375626 223.576825 
L 160.482371 222.292487 
L 157.717863 220.226876 
L 156.285356 219.053088 
L 151.472218 214.888147 
L 149.799666 212.817808 
L 148.402337 210.957367 
L 148.366692 210.723205 
L 147.936561 210.180231 
L 147.90214 209.797663 
L 147.470785 209.080265 
L 147.463355 208.87212 
L 147.004332 207.946578 
L 146.857933 207.483806 
L 146.539232 206.988173 
L 146.401656 206.558264 
L 146.073456 206.070332 
L 145.940268 205.632721 
L 145.607679 205.152481 
L 145.47846 204.707179 
L 145.141903 204.23462 
L 145.016296 203.781636 
L 144.676127 203.316768 
L 144.553839 202.856093 
L 144.210217 202.393322 
L 144.091098 201.930551 
L 143.744282 201.46778 
L 143.680494 201.005008 
L 143.278798 200.512976 
L 143.250702 200.079466 
L 142.813022 199.22225 
L 142.786943 198.691152 
L 142.344794 197.765609 
L 142.241009 196.840067 
L 141.967874 195.914524 
L 141.51178 194.063439 
L 140.083122 190.361269 
L 139.466666 187.584641 
L 139.353547 186.659098 
L 139.32702 184.345242 
L 139.90009 180.643072 
L 140.755905 175.552588 
L 140.839986 174.627045 
L 141.259068 173.701503 
L 142.692522 172.313189 
L 143.744574 171.211305 
L 148.477144 164.446077 
L 152.55177 157.967279 
L 153.0601 157.4593 
L 156.240893 154.265109 
L 159.37303 150.562938 
L 160.750805 148.249082 
L 162.471039 146.397997 
L 165.76235 144.08414 
L 170.523059 139.919199 
L 171.225376 139.630656 
L 174.48581 138.405337 
L 175.417362 138.050849 
L 178.677796 137.584736 
L 186.595993 136.09766 
L 192.185309 136.363224 
L 193.582638 136.46188 
L 201.500835 138.577434 
L 207.767823 140.844741 
L 210.043939 142.695826 
L 211.000188 143.621369 
L 213.145242 145.802082 
L 220.184038 151.488481 
L 222.460768 154.59608 
L 224.946092 158.892821 
L 225.476106 159.818364 
L 226.042103 162.13222 
L 226.201453 163.057763 
L 226.512282 165.371619 
L 226.852427 168.148247 
L 226.788526 169.07379 
L 226.367226 172.313189 
L 225.721202 176.56566 
L 224.913304 179.254758 
L 224.736497 179.717529 
L 222.890469 182.494157 
L 219.66611 187.529339 
L 219.464065 188.047412 
L 215.93795 192.675125 
L 210.816361 200.693118 
L 209.286864 204.244407 
L 208.021703 206.361284 
L 206.526707 208.409349 
L 204.295492 210.828809 
L 201.966611 213.163091 
L 200.569282 214.149505 
L 199.63773 215.032021 
L 190.358049 219.978631 
L 187.06177 222.578482 
L 183.275678 224.143573 
L 181.472454 224.27776 
L 176.348915 224.763526 
L 174.951586 224.812668 
L 173.554257 224.60666 
L 173.554257 224.60666 
" clip-path="url(#pb0203c498c)" style="fill: none; stroke: #000000; stroke-width: 1.5"/>
   </g>
   <g id="PathCollection_4">
    <path d="M 171.691152 247.750816 
L 171.495012 247.744908 
L 171.225376 247.736786 
L 170.759599 247.722758 
L 170.293823 247.653008 
L 169.828047 247.523671 
L 169.36227 247.39433 
L 168.958263 247.282137 
L 168.896494 247.264984 
L 168.430718 247.135645 
L 167.964942 247.0063 
L 167.499165 246.876962 
L 167.289966 246.819366 
L 167.033389 246.748945 
L 166.567613 246.641902 
L 166.101836 246.534848 
L 165.63606 246.427795 
L 165.326253 246.356594 
L 165.170284 246.32075 
L 164.704508 246.213701 
L 164.238731 246.106655 
L 163.772955 245.999604 
L 163.312695 245.893823 
L 163.307179 245.892555 
L 162.841402 245.785511 
L 162.375626 245.67846 
L 161.90985 245.571416 
L 161.444073 245.464361 
L 161.299145 245.431052 
L 160.978297 245.357311 
L 160.512521 245.250265 
L 160.046745 245.143213 
L 159.580968 245.036165 
L 159.285595 244.96828 
L 159.115192 244.929117 
L 158.649416 244.822064 
L 158.183639 244.715016 
L 157.717863 244.607966 
L 157.272058 244.505509 
L 157.252087 244.500919 
L 156.786311 244.393873 
L 156.320534 244.296276 
L 155.854758 244.235945 
L 155.388982 244.18548 
L 154.923205 244.135012 
L 154.457429 244.084551 
L 154.071539 244.042738 
L 153.991653 244.034082 
L 153.525876 243.983614 
L 153.0601 243.868607 
L 152.594324 243.675846 
L 152.36265 243.579967 
L 152.128548 243.483082 
L 151.662771 243.290326 
L 151.244448 243.117195 
L 151.196995 243.0956 
L 150.731219 242.780945 
L 150.552193 242.654424 
L 150.265442 242.451774 
L 149.897368 242.191653 
L 149.799666 242.122607 
L 149.33389 241.79344 
L 149.242537 241.728881 
L 148.868114 241.46428 
L 148.587702 241.26611 
L 148.402337 241.13511 
L 147.936561 240.805934 
L 147.932889 240.803339 
L 147.470785 240.489574 
L 147.22381 240.340568 
L 147.005008 240.205192 
L 146.5415 239.877796 
L 146.539232 239.876172 
L 146.073456 239.542685 
L 145.895156 239.415025 
L 145.607679 239.209194 
L 145.248818 238.952254 
L 145.141903 238.875704 
L 144.676127 238.542217 
L 144.602313 238.489482 
L 144.210351 238.209669 
L 143.953724 238.026711 
L 143.744574 237.877608 
L 143.304601 237.56394 
L 143.278798 237.545543 
L 142.813022 237.21348 
L 142.655487 237.101169 
L 142.347245 236.881415 
L 142.006371 236.638397 
L 141.881469 236.549351 
L 141.415693 236.21729 
L 141.357254 236.175626 
L 140.949917 235.885225 
L 140.708692 235.712855 
L 140.48414 235.552306 
L 140.061825 235.250083 
L 140.018364 235.218982 
L 139.552588 234.885665 
L 139.41515 234.787312 
L 139.086811 234.552344 
L 138.77729 234.324541 
L 138.621035 234.20317 
L 138.193093 233.86177 
L 138.155259 233.831585 
L 137.689482 233.460008 
L 137.622492 233.398998 
L 137.223706 232.986856 
L 137.176989 232.936227 
L 136.75793 232.482081 
L 136.749971 232.473456 
L 136.322955 232.010684 
L 136.292154 231.977304 
L 135.89593 231.547913 
L 135.826377 231.472538 
L 135.46892 231.085142 
L 135.360601 230.967756 
L 135.041894 230.622371 
L 134.894825 230.462983 
L 134.614883 230.159599 
L 134.429048 229.958204 
L 134.187866 229.696828 
L 133.963272 229.453429 
L 133.760853 229.234057 
L 133.497496 228.948657 
L 133.341974 228.771285 
L 133.03172 228.37602 
L 132.979401 228.308514 
L 132.620742 227.845743 
L 132.565943 227.775039 
L 132.262079 227.382972 
L 132.100167 227.174058 
L 131.903419 226.9202 
L 131.634391 226.573086 
L 131.544753 226.457429 
L 131.186092 225.994658 
L 131.168614 225.972106 
L 130.850968 225.531886 
L 130.702838 225.240856 
L 130.623204 225.069115 
L 130.406536 224.606344 
L 130.237062 224.27923 
L 130.164747 224.143573 
L 129.918053 223.680801 
L 129.771285 223.405474 
L 129.671365 223.21803 
L 129.424675 222.755259 
L 129.305509 222.531709 
L 129.178057 222.292487 
L 128.9314 221.829716 
L 128.839733 221.657791 
L 128.684878 221.366945 
L 128.438506 220.904174 
L 128.373957 220.78297 
L 128.192095 220.441402 
L 127.945709 219.978631 
L 127.90818 219.908145 
L 127.699312 219.51586 
L 127.452914 219.053088 
L 127.442404 219.033348 
L 127.206532 218.590317 
L 126.976628 218.158505 
L 126.960145 218.127546 
L 126.71375 217.664775 
L 126.510851 217.28086 
L 126.46968 217.202003 
L 126.22886 216.739232 
L 126.045075 216.386076 
L 125.988033 216.276461 
L 125.747217 215.813689 
L 125.579299 215.491006 
L 125.506399 215.350918 
L 125.265572 214.888147 
L 125.113523 214.564543 
L 125.049309 214.425376 
L 124.855697 213.962604 
L 124.662094 213.499833 
L 124.647746 213.465538 
L 124.468479 213.037062 
L 124.274865 212.57429 
L 124.18197 212.352253 
L 124.081254 212.111519 
L 123.887641 211.648748 
L 123.716194 211.238948 
L 123.694032 211.185977 
L 123.500419 210.723205 
L 123.306809 210.260434 
L 123.250417 210.12564 
L 123.113206 209.797663 
L 122.919597 209.334891 
L 122.784641 209.012327 
L 122.725981 208.87212 
L 122.532371 208.409349 
L 122.338758 207.946578 
L 122.318865 207.899029 
L 122.14515 207.483806 
L 121.951538 207.021035 
L 121.853088 206.785725 
L 121.757925 206.558264 
L 121.564311 206.095492 
L 121.387312 205.672414 
L 121.371199 205.632721 
L 121.272865 205.16995 
L 121.193918 204.707179 
L 121.071311 204.244407 
L 120.928037 203.781636 
L 120.921536 203.760571 
L 120.784522 203.318865 
L 120.607633 202.856093 
L 120.45576 202.466854 
L 120.427069 202.393322 
L 120.246504 201.930551 
L 120.065943 201.46778 
L 119.989983 201.260524 
L 119.896795 201.005008 
L 119.767586 200.542237 
L 119.638391 200.079466 
L 119.524207 199.670478 
L 119.509192 199.616694 
L 119.379995 199.153923 
L 119.250799 198.691152 
L 119.121599 198.228381 
L 119.058431 198.002125 
L 118.992398 197.765609 
L 118.863194 197.302838 
L 118.734002 196.840067 
L 118.604799 196.377295 
L 118.592654 196.321342 
L 118.506022 195.914524 
L 118.417227 195.451753 
L 118.328443 194.988982 
L 118.239649 194.52621 
L 118.150861 194.063439 
L 118.126878 193.938436 
L 118.062074 193.600668 
L 117.973288 193.137896 
L 117.884493 192.675125 
L 117.799352 192.212354 
L 117.72407 191.749583 
L 117.661102 191.34721 
L 117.65167 191.286811 
L 117.561251 190.82404 
L 117.470764 190.361269 
L 117.380259 189.898497 
L 117.289758 189.435726 
L 117.199255 188.972955 
L 117.195326 188.934804 
L 117.149552 188.510184 
L 117.08985 188.047412 
L 117.030156 187.584641 
L 116.970446 187.12187 
L 116.910761 186.659098 
L 116.883508 186.196327 
L 116.877119 185.733556 
L 116.870718 185.270785 
L 116.864318 184.808013 
L 116.857921 184.345242 
L 116.851532 183.882471 
L 116.84513 183.419699 
L 116.824307 182.956928 
L 116.802519 182.494157 
L 116.780729 182.031386 
L 116.75894 181.568614 
L 116.737161 181.105843 
L 116.729549 180.944182 
L 116.715371 180.643072 
L 116.69359 180.180301 
L 116.671801 179.717529 
L 116.650019 179.254758 
L 116.628227 178.791987 
L 116.606443 178.329215 
L 116.632265 177.866444 
L 116.722781 177.403673 
L 116.729549 177.37875 
L 116.848463 176.940902 
L 116.974134 176.47813 
L 117.099815 176.015359 
L 117.195326 175.663679 
L 117.225496 175.552588 
L 117.351179 175.089816 
L 117.476845 174.627045 
L 117.602527 174.164274 
L 117.661102 173.948581 
L 117.7282 173.701503 
L 117.853882 173.238731 
L 117.979557 172.77596 
L 118.105232 172.313189 
L 118.126878 172.233475 
L 118.230902 171.850417 
L 118.356589 171.387646 
L 118.48227 170.924875 
L 118.592654 170.518414 
L 118.607946 170.462104 
L 118.733621 169.999332 
L 118.859295 169.536561 
L 119.004702 169.07379 
L 119.058431 168.905516 
L 119.152461 168.611018 
L 119.300223 168.148247 
L 119.447978 167.685476 
L 119.524207 167.446725 
L 119.595733 167.222705 
L 119.743485 166.759933 
L 119.891244 166.297162 
L 119.989983 165.987922 
L 120.039005 165.834391 
L 120.186757 165.371619 
L 120.34826 164.908848 
L 120.45576 164.65499 
L 120.544226 164.446077 
L 120.740199 163.983306 
L 120.921536 163.555095 
L 120.936172 163.520534 
L 121.132148 163.057763 
L 121.328131 162.594992 
L 121.387312 162.486165 
L 121.626522 162.13222 
L 121.853088 161.904488 
L 122.094358 161.669449 
L 122.318865 161.417908 
L 122.483377 161.206678 
L 122.773396 160.743907 
L 122.784641 160.725963 
L 123.063417 160.281135 
L 123.250417 159.982753 
L 123.353439 159.818364 
L 123.643451 159.355593 
L 123.716194 159.239518 
L 123.933468 158.892821 
L 124.18197 158.496289 
L 124.223481 158.43005 
L 124.513502 157.967279 
L 124.647746 157.753063 
L 124.803509 157.504508 
L 125.093538 157.041736 
L 125.113523 157.009848 
L 125.383551 156.578965 
L 125.579299 156.266621 
L 125.673573 156.116194 
L 125.963589 155.653422 
L 126.045075 155.5234 
L 126.253619 155.190651 
L 126.510851 154.780193 
L 126.543636 154.72788 
L 126.83365 154.265109 
L 126.976628 154.03696 
L 127.123665 153.802337 
L 127.413688 153.339566 
L 127.442404 153.293744 
L 127.703707 152.876795 
L 127.90818 152.550514 
L 127.993717 152.414023 
L 128.283733 151.951252 
L 128.373957 151.807289 
L 128.574201 151.488481 
L 128.839733 151.068149 
L 128.866554 151.02571 
L 129.159006 150.562938 
L 129.305509 150.331119 
L 129.451462 150.100167 
L 129.743907 149.637396 
L 129.771285 149.594073 
L 130.036367 149.174624 
L 130.237062 148.857051 
L 130.328822 148.711853 
L 130.621288 148.249082 
L 130.702838 148.13225 
L 130.981278 147.786311 
L 131.168614 147.603687 
L 131.455995 147.323539 
L 131.634391 147.149639 
L 131.930712 146.860768 
L 132.100167 146.695575 
L 132.405427 146.397997 
L 132.565943 146.241516 
L 132.880136 145.935225 
L 133.03172 145.785031 
L 133.344874 145.472454 
L 133.497496 145.319332 
L 133.806139 145.009683 
L 133.963272 144.852035 
L 134.267399 144.546912 
L 134.429048 144.384732 
L 134.728659 144.08414 
L 134.894825 143.917434 
L 135.189923 143.621369 
L 135.360601 143.450129 
L 135.651188 143.158598 
L 135.826377 142.982837 
L 136.112446 142.695826 
L 136.292154 142.515528 
L 136.573707 142.233055 
L 136.75793 142.048244 
L 137.03498 141.770284 
L 137.223706 141.579139 
L 137.486525 141.307513 
L 137.689482 141.09773 
L 137.934233 140.844741 
L 138.155259 140.610763 
L 138.352899 140.38197 
L 138.621035 140.013274 
L 138.688573 139.919199 
L 139.0111 139.456427 
L 139.086811 139.344445 
L 139.327865 138.993656 
L 139.552588 138.668983 
L 139.652742 138.530885 
L 139.984599 138.068114 
L 140.018364 138.020698 
L 140.337867 137.605342 
L 140.48414 137.415185 
L 140.693846 137.142571 
L 140.949917 136.809679 
L 141.049823 136.6798 
L 141.405798 136.217028 
L 141.415693 136.204166 
L 141.761785 135.754257 
L 141.881469 135.598666 
L 142.11776 135.291486 
L 142.347245 134.993152 
L 142.473731 134.828715 
L 142.813022 134.394697 
L 142.83954 134.365943 
L 143.278798 133.984565 
L 143.372543 133.903172 
L 143.744574 133.580156 
L 143.905537 133.440401 
L 144.210351 133.175751 
L 144.438538 132.977629 
L 144.676127 132.771348 
L 144.951254 132.514858 
L 145.141903 132.332022 
L 145.425628 132.052087 
L 145.607679 131.87246 
L 145.894642 131.589316 
L 146.073456 131.412884 
L 146.359959 131.126544 
L 146.539232 130.949644 
L 146.825183 130.663773 
L 147.005008 130.484088 
L 147.288172 130.201002 
L 147.470785 130.018445 
L 147.751076 129.73823 
L 147.936561 129.552793 
L 148.213973 129.275459 
L 148.402337 129.087148 
L 148.676873 128.812688 
L 148.868114 128.621501 
L 149.139776 128.349917 
L 149.33389 128.155861 
L 149.602684 127.887145 
L 149.799666 127.690218 
L 150.065585 127.424374 
L 150.265442 127.224571 
L 150.528483 126.961603 
L 150.731219 126.758924 
L 150.991385 126.498831 
L 151.196995 126.293276 
L 151.454281 126.03606 
L 151.662771 125.827632 
L 151.917182 125.573289 
L 152.128548 125.361982 
L 152.380085 125.110518 
L 152.594324 124.896338 
L 152.842985 124.647746 
L 153.0601 124.430693 
L 153.305887 124.184975 
L 153.525876 123.965044 
L 153.768787 123.722204 
L 153.991653 123.499403 
L 154.231693 123.259432 
L 154.457429 123.033758 
L 154.694588 122.796661 
L 154.923205 122.568106 
L 155.189935 122.33389 
L 155.388982 122.19077 
L 155.854758 121.931717 
L 155.967093 121.871119 
L 156.320534 121.680465 
L 156.786311 121.429212 
L 156.824349 121.408347 
L 157.252087 121.164726 
L 157.606989 120.945576 
L 157.717863 120.877113 
L 158.183639 120.589505 
L 158.356442 120.482805 
L 158.649416 120.301905 
L 159.105917 120.020033 
L 159.115192 120.014306 
L 159.580968 119.708867 
L 159.7832 119.557262 
L 160.046745 119.357992 
L 160.395249 119.094491 
L 160.512521 119.005825 
L 160.978297 118.653649 
L 161.007302 118.63172 
L 161.444073 118.301482 
L 161.619354 118.168948 
L 161.90985 117.949303 
L 162.2314 117.706177 
L 162.375626 117.597126 
L 162.841402 117.298622 
L 162.985348 117.243406 
L 163.307179 117.123905 
L 163.772955 116.971754 
L 164.238731 116.826326 
L 164.385071 116.780634 
L 164.704508 116.680897 
L 165.170284 116.535467 
L 165.63606 116.390039 
L 165.867226 116.317863 
L 166.101836 116.244612 
L 166.567613 116.099182 
L 167.033389 115.953747 
L 167.34936 115.855092 
L 167.499165 115.80832 
L 167.964942 115.662884 
L 168.430718 115.517463 
L 168.831502 115.392321 
L 168.896494 115.372028 
L 169.36227 115.249922 
L 169.828047 115.177974 
L 170.293823 115.106034 
L 170.759599 115.034086 
L 171.225376 114.962127 
L 171.436304 114.929549 
L 171.691152 114.890187 
L 172.156928 114.818234 
L 172.622705 114.746292 
L 173.088481 114.674342 
L 173.554257 114.602394 
L 174.020033 114.530215 
L 174.393455 114.466778 
L 174.48581 114.451196 
L 174.951586 114.369444 
L 175.417362 114.287696 
L 175.883139 114.20594 
L 176.348915 114.124185 
L 176.814691 114.040688 
L 177.005613 114.004007 
L 177.280467 113.95093 
L 177.746244 113.868204 
L 178.21202 113.840746 
L 178.677796 113.842881 
L 179.143573 113.845023 
L 179.609349 113.847162 
L 180.075125 113.849297 
L 180.540902 113.851434 
L 181.006678 113.853572 
L 181.472454 113.855717 
L 181.93823 113.857857 
L 182.404007 113.862207 
L 182.869783 113.869382 
L 183.335559 113.86263 
L 183.801336 113.848754 
L 184.267112 113.834888 
L 184.732888 113.821011 
L 185.198664 113.807141 
L 185.664441 113.793269 
L 186.130217 113.764645 
L 186.595993 113.657005 
L 187.06177 113.564344 
L 187.527546 113.561045 
L 187.993322 113.557748 
L 188.459098 113.554444 
L 188.924875 113.551172 
L 189.390651 113.556894 
L 189.856427 113.573678 
L 190.322204 113.590867 
L 190.78798 113.608233 
L 191.253756 113.625615 
L 191.719533 113.642979 
L 192.185309 113.660355 
L 192.651085 113.66265 
L 193.116861 113.653626 
L 193.582638 113.644601 
L 194.048414 113.635579 
L 194.51419 113.626548 
L 194.979967 113.617523 
L 195.445743 113.608496 
L 195.911519 113.599476 
L 196.377295 113.599183 
L 196.843072 113.63278 
L 197.308848 113.666368 
L 197.774624 113.699966 
L 198.240401 113.734393 
L 198.706177 113.770528 
L 199.171953 113.806677 
L 199.63773 113.85827 
L 200.103506 113.976754 
L 200.205394 114.004007 
L 200.569282 114.101338 
L 201.035058 114.225921 
L 201.500835 114.350509 
L 201.9355 114.466778 
L 201.966611 114.4751 
L 202.432387 114.599687 
L 202.898164 114.724273 
L 203.36394 114.848866 
L 203.665585 114.929549 
L 203.829716 114.97345 
L 204.295492 115.098038 
L 204.761269 115.222969 
L 205.227045 115.3912 
L 205.230093 115.392321 
L 205.692821 115.562466 
L 206.158598 115.731126 
L 206.528572 115.855092 
L 206.624374 115.887155 
L 207.09015 116.043042 
L 207.555927 116.198918 
L 207.911344 116.317863 
L 208.021703 116.354795 
L 208.487479 116.510673 
L 208.953255 116.666551 
L 209.294157 116.780634 
L 209.419032 116.822424 
L 209.884808 116.978312 
L 210.350584 117.13419 
L 210.676909 117.243406 
L 210.816361 117.290077 
L 211.282137 117.445945 
L 211.747913 117.601829 
L 212.059708 117.706177 
L 212.213689 117.757708 
L 212.679466 117.913581 
L 213.145242 118.069463 
L 213.442507 118.168948 
L 213.611018 118.225345 
L 214.076795 118.381231 
L 214.542571 118.537105 
L 214.825274 118.63172 
L 215.008347 118.69299 
L 215.474124 118.848865 
L 215.9399 119.004751 
L 216.20804 119.094491 
L 216.405676 119.164955 
L 216.871452 119.411065 
L 217.146194 119.557262 
L 217.337229 119.658917 
L 217.803005 119.906764 
L 218.015867 120.020033 
L 218.268781 120.154616 
L 218.734558 120.402471 
L 218.885528 120.482805 
L 219.200334 120.650315 
L 219.66611 120.898157 
L 219.755227 120.945576 
L 220.131886 121.146003 
L 220.597663 121.393856 
L 220.624896 121.408347 
L 221.063439 121.641703 
L 221.494562 121.871119 
L 221.529215 121.889559 
L 221.994992 122.137406 
L 222.364233 122.33389 
L 222.460768 122.385258 
L 222.926544 122.713498 
L 223.010805 122.796661 
L 223.392321 123.173196 
L 223.479698 123.259432 
L 223.858097 123.627308 
L 223.957523 123.722204 
L 224.323873 124.070208 
L 224.444691 124.184975 
L 224.789649 124.512667 
L 224.93185 124.647746 
L 225.255426 124.955113 
L 225.419022 125.110518 
L 225.721202 125.397573 
L 225.904251 125.573289 
L 226.186978 125.845845 
L 226.37583 126.03606 
L 226.652755 126.314989 
L 226.835278 126.498831 
L 227.118531 126.78411 
L 227.294755 126.961603 
L 227.584307 127.253258 
L 227.754204 127.424374 
L 228.050083 127.722378 
L 228.210805 127.887145 
L 228.51586 128.230801 
L 228.615877 128.349917 
L 228.981636 128.785529 
L 229.004441 128.812688 
L 229.393009 129.275459 
L 229.447412 129.340251 
L 229.781562 129.73823 
L 229.913189 129.894996 
L 230.177594 130.201002 
L 230.378965 130.408809 
L 230.642364 130.663773 
L 230.844741 130.859664 
L 231.13372 131.126544 
L 231.310518 131.285291 
L 231.650382 131.589316 
L 231.776294 131.701953 
L 232.167698 132.052087 
L 232.24207 132.118616 
L 232.68502 132.514858 
L 232.707846 132.535278 
L 233.173623 132.951946 
L 233.202333 132.977629 
L 233.639399 133.36862 
L 233.71964 133.440401 
L 234.105175 133.785273 
L 234.236969 133.903172 
L 234.570952 134.201947 
L 234.754276 134.365943 
L 235.036728 134.618609 
L 235.271593 134.828715 
L 235.502504 135.035279 
L 235.788911 135.291486 
L 235.96828 135.451949 
L 236.306224 135.754257 
L 236.434057 135.868608 
L 236.823545 136.217028 
L 236.899833 136.285273 
L 237.34085 136.6798 
L 237.365609 136.701949 
L 237.831386 137.118614 
L 237.858167 137.142571 
L 238.297162 137.535284 
L 238.375478 137.605342 
L 238.762938 137.951931 
L 238.892817 138.068114 
L 239.228715 138.368448 
L 239.410811 138.530885 
L 239.694491 138.783803 
L 239.929865 138.993656 
L 240.160267 139.199081 
L 240.448909 139.456427 
L 240.626043 139.687282 
L 240.762707 139.919199 
L 241.023209 140.38197 
L 241.09182 140.503926 
L 241.28379 140.844741 
L 241.544435 141.307513 
L 241.557596 141.330878 
L 241.805105 141.770284 
L 242.023372 142.157804 
L 242.065757 142.233055 
L 242.316347 142.695826 
L 242.489149 143.040322 
L 242.547952 143.158598 
L 242.778033 143.621369 
L 242.954925 143.977158 
L 243.008113 144.08414 
L 243.240671 144.546912 
L 243.420701 144.895871 
L 243.479416 145.009683 
L 243.71818 145.472454 
L 243.886477 145.798657 
L 243.956938 145.935225 
L 244.209528 146.397997 
L 244.352254 146.641486 
L 244.481639 146.860768 
L 244.737299 147.323539 
L 244.81803 147.470323 
L 244.991825 147.786311 
L 245.246366 148.249082 
L 245.283806 148.317152 
L 245.500903 148.711853 
L 245.749583 149.163969 
L 245.755443 149.174624 
L 246.009962 149.637396 
L 246.215359 150.011835 
L 246.260243 150.100167 
L 246.458808 150.562938 
L 246.65736 151.02571 
L 246.681135 151.081122 
L 246.855914 151.488481 
L 247.054467 151.951252 
L 247.146912 152.1667 
L 247.253034 152.414023 
L 247.451577 152.876795 
L 247.612688 153.252289 
L 247.650135 153.339566 
L 247.848693 153.802337 
L 248.047254 154.265109 
L 248.078464 154.337852 
L 248.237943 154.72788 
L 248.409211 155.190651 
L 248.54424 155.579617 
L 248.573074 155.653422 
L 248.717184 156.116194 
L 248.815614 156.578965 
L 248.907223 157.041736 
L 248.980742 157.504508 
L 249.010017 157.688796 
L 249.052874 157.967279 
L 249.054693 158.43005 
L 249.05328 158.892821 
L 249.05188 159.355593 
L 249.050476 159.818364 
L 249.049067 160.281135 
L 249.04766 160.743907 
L 249.046252 161.206678 
L 249.044848 161.669449 
L 249.043438 162.13222 
L 249.042037 162.594992 
L 249.040632 163.057763 
L 249.039223 163.520534 
L 249.037816 163.983306 
L 249.036406 164.446077 
L 249.035001 164.908848 
L 249.033594 165.371619 
L 249.032185 165.834391 
L 249.030785 166.297162 
L 249.029373 166.759933 
L 249.027974 167.222705 
L 249.046021 167.685476 
L 249.072653 168.148247 
L 249.100002 168.611018 
L 249.127352 169.07379 
L 249.154695 169.536561 
L 249.182045 169.999332 
L 249.209395 170.462104 
L 249.252744 170.924875 
L 249.346692 171.387646 
L 249.36117 171.850417 
L 249.375656 172.313189 
L 249.390139 172.77596 
L 249.404625 173.238731 
L 249.4191 173.701503 
L 249.433583 174.164274 
L 249.451185 174.627045 
L 249.475793 175.000416 
L 249.481685 175.089816 
L 249.512186 175.552588 
L 249.542694 176.015359 
L 249.573194 176.47813 
L 249.603699 176.940902 
L 249.634205 177.403673 
L 249.664703 177.866444 
L 249.695209 178.329215 
L 249.725712 178.791987 
L 249.673359 179.254758 
L 249.481372 179.717529 
L 249.475793 179.730978 
L 249.290297 180.180301 
L 249.099739 180.643072 
L 249.010017 180.861204 
L 248.90939 181.105843 
L 248.6817 181.568614 
L 248.54424 181.837126 
L 248.444792 182.031386 
L 248.207888 182.494157 
L 248.078464 182.746983 
L 247.970988 182.956928 
L 247.734084 183.419699 
L 247.612688 183.656835 
L 247.497178 183.882471 
L 247.260276 184.345242 
L 247.146912 184.566685 
L 247.023369 184.808013 
L 246.786463 185.270785 
L 246.681135 185.476537 
L 246.549558 185.733556 
L 246.312655 186.196327 
L 246.215359 186.386387 
L 246.075753 186.659098 
L 245.838856 187.12187 
L 245.749583 187.296258 
L 245.601953 187.584641 
L 245.365048 188.047412 
L 245.283806 188.206112 
L 245.128146 188.510184 
L 244.891247 188.972955 
L 244.81803 189.115976 
L 244.654341 189.435726 
L 244.417431 189.898497 
L 244.352254 190.025818 
L 244.180533 190.361269 
L 243.94363 190.82404 
L 243.886477 190.935681 
L 243.706726 191.286811 
L 243.473093 191.749583 
L 243.420701 191.86493 
L 243.262898 192.212354 
L 243.052701 192.675125 
L 242.954925 192.890398 
L 242.842512 193.137896 
L 242.632316 193.600668 
L 242.489149 193.915862 
L 242.422118 194.063439 
L 242.211924 194.52621 
L 242.023372 194.941335 
L 242.001731 194.988982 
L 241.791536 195.451753 
L 241.581345 195.914524 
L 241.557596 195.966811 
L 241.371152 196.377295 
L 241.160962 196.840067 
L 241.09182 196.992294 
L 240.950765 197.302838 
L 240.740572 197.765609 
L 240.626043 198.017753 
L 240.530371 198.228381 
L 240.320185 198.691152 
L 240.160267 199.043171 
L 240.109589 199.153923 
L 239.884124 199.616694 
L 239.694491 200.005926 
L 239.658663 200.079466 
L 239.433197 200.542237 
L 239.228715 200.961951 
L 239.207737 201.005008 
L 238.982271 201.46778 
L 238.762938 201.917975 
L 238.756811 201.930551 
L 238.531342 202.393322 
L 238.305873 202.856093 
L 238.297162 202.873915 
L 238.073671 203.318865 
L 237.831386 203.736182 
L 237.804909 203.781636 
L 237.534893 204.244407 
L 237.365609 204.534533 
L 237.264871 204.707179 
L 236.994855 205.16995 
L 236.899833 205.332805 
L 236.724836 205.632721 
L 236.45481 206.095492 
L 236.434057 206.13106 
L 236.184791 206.558264 
L 235.96828 206.92932 
L 235.914767 207.021035 
L 235.644749 207.483806 
L 235.502504 207.727593 
L 235.374731 207.946578 
L 235.104715 208.409349 
L 235.036728 208.52587 
L 234.834695 208.87212 
L 234.570952 209.324148 
L 234.564683 209.334891 
L 234.294663 209.797663 
L 234.105175 210.122421 
L 234.02465 210.260434 
L 233.754628 210.723205 
L 233.639399 210.920685 
L 233.484603 211.185977 
L 233.214587 211.648748 
L 233.173623 211.718954 
L 232.94457 212.111519 
L 232.707846 212.517227 
L 232.67455 212.57429 
L 232.404532 213.037062 
L 232.24207 213.315499 
L 232.134513 213.499833 
L 231.864494 213.962604 
L 231.776294 214.088164 
L 231.511405 214.425376 
L 231.310518 214.649144 
L 231.095953 214.888147 
L 230.844741 215.167971 
L 230.6805 215.350918 
L 230.378965 215.72403 
L 230.310113 215.813689 
L 229.995424 216.276461 
L 229.913189 216.397395 
L 229.68074 216.739232 
L 229.447412 217.082358 
L 229.366053 217.202003 
L 229.05137 217.664775 
L 228.981636 217.767322 
L 228.736672 218.127546 
L 228.51586 218.452268 
L 228.421988 218.590317 
L 228.107302 219.053088 
L 228.050083 219.137233 
L 227.792617 219.51586 
L 227.584307 219.822188 
L 227.47792 219.978631 
L 227.163245 220.441402 
L 227.118531 220.503084 
L 226.79535 220.904174 
L 226.652755 221.075884 
L 226.411042 221.366945 
L 226.186978 221.636761 
L 226.025941 221.829716 
L 225.721202 222.141626 
L 225.557802 222.292487 
L 225.255426 222.571662 
L 225.056568 222.755259 
L 224.789649 223.001686 
L 224.554727 223.21803 
L 224.323873 223.431125 
L 224.073029 223.680801 
L 223.858097 223.917256 
L 223.669441 224.143573 
L 223.392321 224.476022 
L 223.283687 224.606344 
L 222.926544 225.034796 
L 222.897875 225.069115 
L 222.510522 225.531886 
L 222.460768 225.591203 
L 222.121399 225.994658 
L 221.994992 226.144935 
L 221.732143 226.457429 
L 221.529215 226.698685 
L 221.349076 226.9202 
L 221.063439 227.276068 
L 220.985229 227.382972 
L 220.693827 227.845743 
L 220.597663 227.965772 
L 220.291674 228.308514 
L 220.131886 228.487494 
L 219.879117 228.771285 
L 219.66611 229.015761 
L 219.476966 229.234057 
L 219.200334 229.553316 
L 219.075986 229.696828 
L 218.734558 230.090873 
L 218.67501 230.159599 
L 218.274035 230.622371 
L 218.268781 230.628434 
L 217.873058 231.085142 
L 217.803005 231.164206 
L 217.455072 231.547913 
L 217.337229 231.672202 
L 217.015939 232.010684 
L 216.871452 232.142746 
L 216.424635 232.473456 
L 216.405676 232.486545 
L 215.9399 232.781759 
L 215.696186 232.936227 
L 215.474124 233.076972 
L 215.008347 233.37219 
L 214.96605 233.398998 
L 214.542571 233.667399 
L 214.2359 233.86177 
L 214.076795 233.962611 
L 213.611018 234.25783 
L 213.505761 234.324541 
L 213.145242 234.553037 
L 212.704913 234.787312 
L 212.679466 234.800531 
L 212.213689 235.039282 
L 211.802421 235.250083 
L 211.747913 235.278023 
L 211.282137 235.516772 
L 210.899595 235.712855 
L 210.816361 235.75552 
L 210.350584 235.994265 
L 209.996768 236.175626 
L 209.884808 236.233014 
L 209.419032 236.471763 
L 209.093933 236.638397 
L 208.953255 236.710506 
L 208.487479 236.949256 
L 208.191106 237.101169 
L 208.021703 237.188 
L 207.555927 237.426745 
L 207.288269 237.56394 
L 207.09015 237.666014 
L 206.624374 237.955037 
L 206.526391 238.026711 
L 206.158598 238.29847 
L 205.900103 238.489482 
L 205.692821 238.642651 
L 205.273838 238.952254 
L 205.227045 238.98683 
L 204.761269 239.331005 
L 204.647561 239.415025 
L 204.295492 239.675177 
L 204.021293 239.877796 
L 203.829716 240.019361 
L 203.395027 240.340568 
L 203.36394 240.363538 
L 202.898164 240.702494 
L 202.718869 240.803339 
L 202.432387 240.938778 
L 201.966611 241.126289 
L 201.597374 241.26611 
L 201.500835 241.302667 
L 201.035058 241.479034 
L 200.569282 241.655407 
L 200.375239 241.728881 
L 200.103506 241.831776 
L 199.63773 242.008153 
L 199.171953 242.184522 
L 199.153123 242.191653 
L 198.706177 242.360899 
L 198.240401 242.53727 
L 197.931021 242.654424 
L 197.774624 242.713647 
L 197.308848 242.890013 
L 196.843072 243.066387 
L 196.7089 243.117195 
L 196.377295 243.242769 
L 195.911519 243.419138 
L 195.486795 243.579967 
L 195.445743 243.595511 
L 194.979967 243.771884 
L 194.51419 243.94826 
L 194.264686 244.042738 
L 194.048414 244.124631 
L 193.582638 244.301006 
L 193.116861 244.477378 
L 193.042572 244.505509 
L 192.651085 244.653752 
L 192.185309 244.830124 
L 191.780182 244.96828 
L 191.719533 244.988217 
L 191.253756 245.102034 
L 190.78798 245.215845 
L 190.322204 245.329653 
L 189.856427 245.426711 
L 189.811113 245.431052 
L 189.390651 245.47133 
L 188.924875 245.524485 
L 188.459098 245.620797 
L 187.993322 245.717099 
L 187.527546 245.814181 
L 187.176151 245.893823 
L 187.06177 245.919705 
L 186.595993 246.025859 
L 186.130217 246.132014 
L 185.664441 246.238164 
L 185.198664 246.35196 
L 185.182182 246.356594 
L 184.732888 246.484515 
L 184.267112 246.617143 
L 183.801336 246.749773 
L 183.556913 246.819366 
L 183.335559 246.882389 
L 182.869783 247.015007 
L 182.404007 247.147638 
L 181.93823 247.228174 
L 181.488618 247.282137 
L 181.472454 247.284077 
L 181.006678 247.339983 
L 180.540902 247.395892 
L 180.075125 247.4518 
L 179.609349 247.507708 
L 179.143573 247.563613 
L 178.677796 247.619518 
L 178.21202 247.675424 
L 177.746244 247.731342 
L 177.633224 247.744908 
L 177.280467 247.78725 
L 176.814691 247.843155 
L 176.348915 247.891136 
L 175.883139 247.877106 
L 175.417362 247.863074 
L 174.951586 247.849041 
L 174.48581 247.835007 
L 174.020033 247.820977 
L 173.554257 247.806949 
L 173.088481 247.792913 
L 172.622705 247.77888 
L 172.156928 247.764852 
L 171.691152 247.750816 
z
" clip-path="url(#pb0203c498c)" style="fill: none; stroke: #000000; stroke-width: 1.5"/>
   </g>
   <g id="patch_3">
    <path d="M 45 320.4 
L 45 43.2 
" style="fill: none; stroke: #000000; stroke-width: 0.8; stroke-linejoin: miter; stroke-linecap: square"/>
   </g>
   <g id="patch_4">
    <path d="M 324 320.4 
L 324 43.2 
" style="fill: none; stroke: #000000; stroke-width: 0.8; stroke-linejoin: miter; stroke-linecap: square"/>
   </g>
   <g id="patch_5">
    <path d="M 45 320.4 
L 324 320.4 
" style="fill: none; stroke: #000000; stroke-width: 0.8; stroke-linejoin: miter; stroke-linecap: square"/>
   </g>
   <g id="patch_6">
    <path d="M 45 43.2 
L 324 43.2 
" style="fill: none; stroke: #000000; stroke-width: 0.8; stroke-linejoin: miter; stroke-linecap: square"/>
   </g>
  </g>
 </g>
 <defs>
  <clipPath id="pb0203c498c">
   <rect x="45" y="43.2" width="279" height="277.2"/>
  </clipPath>
 </defs>
</svg>
