<?xml version="1.0" encoding="utf-8" standalone="no"?>
<!DOCTYPE svg PUBLIC "-//W3C//DTD SVG 1.1//EN"
  "http://www.w3.org/Graphics/SVG/1.1/DTD/svg11.dtd">
<svg xmlns:xlink="http://www.w3.org/1999/xlink" width="360pt" height="360pt" viewBox="0 0 360 360" xmlns="http://www.w3.org/2000/svg" version="1.1">
 <metadata>
  <rdf:RDF xmlns:dc="http://purl.org/dc/elements/1.1/" xmlns:cc="http://creativecommons.org/ns#" xmlns:rdf="http://www.w3.org/1999/02/22-rdf-syntax-ns#">
   <cc:Work>
    <dc:type rdf:resource="http://purl.org/dc/dcmitype/StillImage"/>
    <dc:date>2022-04-03T22:41:46.228080</dc:date>
    <dc:format>image/svg+xml</dc:format>
    <dc:creator>
     <cc:Agent>
      <dc:title>Matplotlib v3.5.1, https://matplotlib.org/</dc:title>
     </cc:Agent>
    </dc:creator>
   </cc:Work>
  </rdf:RDF>
 </metadata>
 <defs>
  <style type="text/css">*{stroke-linejoin: round; stroke-linecap: butt}</style>
 </defs>
 <g id="figure_1">
  <g id="patch_1">
   <path d="M 0 360 
L 360 360 
L 360 0 
L 0 0 
z
" style="fill: #ffffff"/>
  </g>
  <g id="axes_1">
   <g id="patch_2">
    <path d="M 45 320.4 
L 324 320.4 
L 324 43.2 
L 45 43.2 
z
" style="fill: #ffffff"/>
   </g>
   <g id="PathCollection_1">
    <defs>
     <path id="md8cacfe58b" d="M 0 0.5 
C 0.132602 0.5 0.25979 0.447317 0.353553 0.353553 
C 0.447317 0.25979 0.5 0.132602 0.5 0 
C 0.5 -0.132602 0.447317 -0.25979 0.353553 -0.353553 
C 0.25979 -0.447317 0.132602 -0.5 0 -0.5 
C -0.132602 -0.5 -0.25979 -0.447317 -0.353553 -0.353553 
C -0.447317 -0.25979 -0.5 -0.132602 -0.5 0 
C -0.5 0.132602 -0.447317 0.25979 -0.353553 0.353553 
C -0.25979 0.447317 -0.132602 0.5 0 0.5 
z
" style="stroke: #ff0000"/>
    </defs>
    <g clip-path="url(#pab47e008db)">
     <use xlink:href="#md8cacfe58b" x="220.434627" y="181.568614" style="fill: #ff0000; stroke: #ff0000"/>
     <use xlink:href="#md8cacfe58b" x="217.456395" y="178.366424" style="fill: #ff0000; stroke: #ff0000"/>
     <use xlink:href="#md8cacfe58b" x="214.133704" y="175.758159" style="fill: #ff0000; stroke: #ff0000"/>
     <use xlink:href="#md8cacfe58b" x="210.722268" y="173.735685" style="fill: #ff0000; stroke: #ff0000"/>
     <use xlink:href="#md8cacfe58b" x="207.525384" y="172.188563" style="fill: #ff0000; stroke: #ff0000"/>
     <use xlink:href="#md8cacfe58b" x="204.811664" y="170.905526" style="fill: #ff0000; stroke: #ff0000"/>
     <use xlink:href="#md8cacfe58b" x="202.731243" y="169.620086" style="fill: #ff0000; stroke: #ff0000"/>
     <use xlink:href="#md8cacfe58b" x="201.269892" y="168.084605" style="fill: #ff0000; stroke: #ff0000"/>
     <use xlink:href="#md8cacfe58b" x="200.25699" y="166.144668" style="fill: #ff0000; stroke: #ff0000"/>
     <use xlink:href="#md8cacfe58b" x="199.421509" y="163.78595" style="fill: #ff0000; stroke: #ff0000"/>
     <use xlink:href="#md8cacfe58b" x="198.476824" y="161.132065" style="fill: #ff0000; stroke: #ff0000"/>
     <use xlink:href="#md8cacfe58b" x="197.205003" y="158.385468" style="fill: #ff0000; stroke: #ff0000"/>
     <use xlink:href="#md8cacfe58b" x="195.505927" y="155.727995" style="fill: #ff0000; stroke: #ff0000"/>
     <use xlink:href="#md8cacfe58b" x="193.386683" y="153.224926" style="fill: #ff0000; stroke: #ff0000"/>
     <use xlink:href="#md8cacfe58b" x="190.895688" y="150.786012" style="fill: #ff0000; stroke: #ff0000"/>
     <use xlink:href="#md8cacfe58b" x="188.039273" y="148.214908" style="fill: #ff0000; stroke: #ff0000"/>
     <use xlink:href="#md8cacfe58b" x="184.732888" y="145.332794" style="fill: #ff0000; stroke: #ff0000"/>
     <use xlink:href="#md8cacfe58b" x="180.822208" y="142.11898" style="fill: #ff0000; stroke: #ff0000"/>
     <use xlink:href="#md8cacfe58b" x="176.169826" y="138.796932" style="fill: #ff0000; stroke: #ff0000"/>
     <use xlink:href="#md8cacfe58b" x="170.764553" y="135.818265" style="fill: #ff0000; stroke: #ff0000"/>
     <use xlink:href="#md8cacfe58b" x="164.795955" y="133.747128" style="fill: #ff0000; stroke: #ff0000"/>
     <use xlink:href="#md8cacfe58b" x="158.654712" y="133.094546" style="fill: #ff0000; stroke: #ff0000"/>
     <use xlink:href="#md8cacfe58b" x="152.856633" y="134.170208" style="fill: #ff0000; stroke: #ff0000"/>
     <use xlink:href="#md8cacfe58b" x="147.92079" y="137.002334" style="fill: #ff0000; stroke: #ff0000"/>
     <use xlink:href="#md8cacfe58b" x="144.244851" y="141.34179" style="fill: #ff0000; stroke: #ff0000"/>
     <use xlink:href="#md8cacfe58b" x="142.014844" y="146.737001" style="fill: #ff0000; stroke: #ff0000"/>
     <use xlink:href="#md8cacfe58b" x="141.172715" y="152.650418" style="fill: #ff0000; stroke: #ff0000"/>
     <use xlink:href="#md8cacfe58b" x="141.448621" y="158.581956" style="fill: #ff0000; stroke: #ff0000"/>
     <use xlink:href="#md8cacfe58b" x="142.446986" y="164.166223" style="fill: #ff0000; stroke: #ff0000"/>
     <use xlink:href="#md8cacfe58b" x="143.759443" y="169.219644" style="fill: #ff0000; stroke: #ff0000"/>
     <use xlink:href="#md8cacfe58b" x="145.070588" y="173.730191" style="fill: #ff0000; stroke: #ff0000"/>
     <use xlink:href="#md8cacfe58b" x="146.226621" y="177.800546" style="fill: #ff0000; stroke: #ff0000"/>
     <use xlink:href="#md8cacfe58b" x="147.249089" y="181.568614" style="fill: #ff0000; stroke: #ff0000"/>
     <use xlink:href="#md8cacfe58b" x="148.290999" y="185.134671" style="fill: #ff0000; stroke: #ff0000"/>
     <use xlink:href="#md8cacfe58b" x="149.548999" y="188.521973" style="fill: #ff0000; stroke: #ff0000"/>
     <use xlink:href="#md8cacfe58b" x="151.161655" y="191.686635" style="fill: #ff0000; stroke: #ff0000"/>
     <use xlink:href="#md8cacfe58b" x="153.134992" y="194.572451" style="fill: #ff0000; stroke: #ff0000"/>
     <use xlink:href="#md8cacfe58b" x="155.331901" y="197.182382" style="fill: #ff0000; stroke: #ff0000"/>
     <use xlink:href="#md8cacfe58b" x="157.535446" y="199.624121" style="fill: #ff0000; stroke: #ff0000"/>
     <use xlink:href="#md8cacfe58b" x="159.556714" y="202.096866" style="fill: #ff0000; stroke: #ff0000"/>
     <use xlink:href="#md8cacfe58b" x="161.330761" y="204.81976" style="fill: #ff0000; stroke: #ff0000"/>
     <use xlink:href="#md8cacfe58b" x="162.95129" y="207.938336" style="fill: #ff0000; stroke: #ff0000"/>
     <use xlink:href="#md8cacfe58b" x="164.63218" y="211.457367" style="fill: #ff0000; stroke: #ff0000"/>
     <use xlink:href="#md8cacfe58b" x="166.623947" y="215.229484" style="fill: #ff0000; stroke: #ff0000"/>
     <use xlink:href="#md8cacfe58b" x="169.129206" y="218.996199" style="fill: #ff0000; stroke: #ff0000"/>
     <use xlink:href="#md8cacfe58b" x="172.249451" y="222.455494" style="fill: #ff0000; stroke: #ff0000"/>
     <use xlink:href="#md8cacfe58b" x="175.971988" y="225.328478" style="fill: #ff0000; stroke: #ff0000"/>
     <use xlink:href="#md8cacfe58b" x="180.188611" y="227.409768" style="fill: #ff0000; stroke: #ff0000"/>
     <use xlink:href="#md8cacfe58b" x="184.732888" y="228.597715" style="fill: #ff0000; stroke: #ff0000"/>
     <use xlink:href="#md8cacfe58b" x="189.425198" y="228.903065" style="fill: #ff0000; stroke: #ff0000"/>
     <use xlink:href="#md8cacfe58b" x="194.115107" y="228.431908" style="fill: #ff0000; stroke: #ff0000"/>
     <use xlink:href="#md8cacfe58b" x="198.708229" y="227.34191" style="fill: #ff0000; stroke: #ff0000"/>
     <use xlink:href="#md8cacfe58b" x="203.166116" y="225.783256" style="fill: #ff0000; stroke: #ff0000"/>
     <use xlink:href="#md8cacfe58b" x="207.478428" y="223.847986" style="fill: #ff0000; stroke: #ff0000"/>
     <use xlink:href="#md8cacfe58b" x="211.621176" y="221.55016" style="fill: #ff0000; stroke: #ff0000"/>
     <use xlink:href="#md8cacfe58b" x="215.522331" y="218.843614" style="fill: #ff0000; stroke: #ff0000"/>
     <use xlink:href="#md8cacfe58b" x="219.0512" y="215.665518" style="fill: #ff0000; stroke: #ff0000"/>
     <use xlink:href="#md8cacfe58b" x="222.035937" y="211.984927" style="fill: #ff0000; stroke: #ff0000"/>
     <use xlink:href="#md8cacfe58b" x="224.302579" y="207.837658" style="fill: #ff0000; stroke: #ff0000"/>
     <use xlink:href="#md8cacfe58b" x="225.721232" y="203.335994" style="fill: #ff0000; stroke: #ff0000"/>
     <use xlink:href="#md8cacfe58b" x="226.239844" y="198.650438" style="fill: #ff0000; stroke: #ff0000"/>
     <use xlink:href="#md8cacfe58b" x="225.887386" y="193.972152" style="fill: #ff0000; stroke: #ff0000"/>
     <use xlink:href="#md8cacfe58b" x="224.743658" y="189.475905" style="fill: #ff0000; stroke: #ff0000"/>
     <use xlink:href="#md8cacfe58b" x="222.898267" y="185.303325" style="fill: #ff0000; stroke: #ff0000"/>
    </g>
   </g>
   <g id="matplotlib.axis_1">
    <g id="xtick_1">
     <g id="line2d_1">
      <defs>
       <path id="m0f383dc1e2" d="M 0 0 
L 0 3.5 
" style="stroke: #000000; stroke-width: 0.8"/>
      </defs>
      <g>
       <use xlink:href="#m0f383dc1e2" x="45" y="320.4" style="stroke: #000000; stroke-width: 0.8"/>
      </g>
     </g>
     <g id="text_1">
      <!-- −3 -->
      <g transform="translate(37.628906 334.998438)scale(0.1 -0.1)">
       <defs>
        <path id="DejaVuSans-2212" d="M 678 2272 
L 4684 2272 
L 4684 1741 
L 678 1741 
L 678 2272 
z
" transform="scale(0.015625)"/>
        <path id="DejaVuSans-33" d="M 2597 2516 
Q 3050 2419 3304 2112 
Q 3559 1806 3559 1356 
Q 3559 666 3084 287 
Q 2609 -91 1734 -91 
Q 1441 -91 1130 -33 
Q 819 25 488 141 
L 488 750 
Q 750 597 1062 519 
Q 1375 441 1716 441 
Q 2309 441 2620 675 
Q 2931 909 2931 1356 
Q 2931 1769 2642 2001 
Q 2353 2234 1838 2234 
L 1294 2234 
L 1294 2753 
L 1863 2753 
Q 2328 2753 2575 2939 
Q 2822 3125 2822 3475 
Q 2822 3834 2567 4026 
Q 2313 4219 1838 4219 
Q 1578 4219 1281 4162 
Q 984 4106 628 3988 
L 628 4550 
Q 988 4650 1302 4700 
Q 1616 4750 1894 4750 
Q 2613 4750 3031 4423 
Q 3450 4097 3450 3541 
Q 3450 3153 3228 2886 
Q 3006 2619 2597 2516 
z
" transform="scale(0.015625)"/>
       </defs>
       <use xlink:href="#DejaVuSans-2212"/>
       <use xlink:href="#DejaVuSans-33" x="83.789062"/>
      </g>
     </g>
    </g>
    <g id="xtick_2">
     <g id="line2d_2">
      <g>
       <use xlink:href="#m0f383dc1e2" x="91.577629" y="320.4" style="stroke: #000000; stroke-width: 0.8"/>
      </g>
     </g>
     <g id="text_2">
      <!-- −2 -->
      <g transform="translate(84.206536 334.998438)scale(0.1 -0.1)">
       <defs>
        <path id="DejaVuSans-32" d="M 1228 531 
L 3431 531 
L 3431 0 
L 469 0 
L 469 531 
Q 828 903 1448 1529 
Q 2069 2156 2228 2338 
Q 2531 2678 2651 2914 
Q 2772 3150 2772 3378 
Q 2772 3750 2511 3984 
Q 2250 4219 1831 4219 
Q 1534 4219 1204 4116 
Q 875 4013 500 3803 
L 500 4441 
Q 881 4594 1212 4672 
Q 1544 4750 1819 4750 
Q 2544 4750 2975 4387 
Q 3406 4025 3406 3419 
Q 3406 3131 3298 2873 
Q 3191 2616 2906 2266 
Q 2828 2175 2409 1742 
Q 1991 1309 1228 531 
z
" transform="scale(0.015625)"/>
       </defs>
       <use xlink:href="#DejaVuSans-2212"/>
       <use xlink:href="#DejaVuSans-32" x="83.789062"/>
      </g>
     </g>
    </g>
    <g id="xtick_3">
     <g id="line2d_3">
      <g>
       <use xlink:href="#m0f383dc1e2" x="138.155259" y="320.4" style="stroke: #000000; stroke-width: 0.8"/>
      </g>
     </g>
     <g id="text_3">
      <!-- −1 -->
      <g transform="translate(130.784165 334.998438)scale(0.1 -0.1)">
       <defs>
        <path id="DejaVuSans-31" d="M 794 531 
L 1825 531 
L 1825 4091 
L 703 3866 
L 703 4441 
L 1819 4666 
L 2450 4666 
L 2450 531 
L 3481 531 
L 3481 0 
L 794 0 
L 794 531 
z
" transform="scale(0.015625)"/>
       </defs>
       <use xlink:href="#DejaVuSans-2212"/>
       <use xlink:href="#DejaVuSans-31" x="83.789062"/>
      </g>
     </g>
    </g>
    <g id="xtick_4">
     <g id="line2d_4">
      <g>
       <use xlink:href="#m0f383dc1e2" x="184.732888" y="320.4" style="stroke: #000000; stroke-width: 0.8"/>
      </g>
     </g>
     <g id="text_4">
      <!-- 0 -->
      <g transform="translate(181.551638 334.998438)scale(0.1 -0.1)">
       <defs>
        <path id="DejaVuSans-30" d="M 2034 4250 
Q 1547 4250 1301 3770 
Q 1056 3291 1056 2328 
Q 1056 1369 1301 889 
Q 1547 409 2034 409 
Q 2525 409 2770 889 
Q 3016 1369 3016 2328 
Q 3016 3291 2770 3770 
Q 2525 4250 2034 4250 
z
M 2034 4750 
Q 2819 4750 3233 4129 
Q 3647 3509 3647 2328 
Q 3647 1150 3233 529 
Q 2819 -91 2034 -91 
Q 1250 -91 836 529 
Q 422 1150 422 2328 
Q 422 3509 836 4129 
Q 1250 4750 2034 4750 
z
" transform="scale(0.015625)"/>
       </defs>
       <use xlink:href="#DejaVuSans-30"/>
      </g>
     </g>
    </g>
    <g id="xtick_5">
     <g id="line2d_5">
      <g>
       <use xlink:href="#m0f383dc1e2" x="231.310518" y="320.4" style="stroke: #000000; stroke-width: 0.8"/>
      </g>
     </g>
     <g id="text_5">
      <!-- 1 -->
      <g transform="translate(228.129268 334.998438)scale(0.1 -0.1)">
       <use xlink:href="#DejaVuSans-31"/>
      </g>
     </g>
    </g>
    <g id="xtick_6">
     <g id="line2d_6">
      <g>
       <use xlink:href="#m0f383dc1e2" x="277.888147" y="320.4" style="stroke: #000000; stroke-width: 0.8"/>
      </g>
     </g>
     <g id="text_6">
      <!-- 2 -->
      <g transform="translate(274.706897 334.998438)scale(0.1 -0.1)">
       <use xlink:href="#DejaVuSans-32"/>
      </g>
     </g>
    </g>
   </g>
   <g id="matplotlib.axis_2">
    <g id="ytick_1">
     <g id="line2d_7">
      <defs>
       <path id="m00f0a44169" d="M 0 0 
L -3.5 0 
" style="stroke: #000000; stroke-width: 0.8"/>
      </defs>
      <g>
       <use xlink:href="#m00f0a44169" x="45" y="320.4" style="stroke: #000000; stroke-width: 0.8"/>
      </g>
     </g>
     <g id="text_7">
      <!-- −3 -->
      <g transform="translate(23.257812 324.199219)scale(0.1 -0.1)">
       <use xlink:href="#DejaVuSans-2212"/>
       <use xlink:href="#DejaVuSans-33" x="83.789062"/>
      </g>
     </g>
    </g>
    <g id="ytick_2">
     <g id="line2d_8">
      <g>
       <use xlink:href="#m00f0a44169" x="45" y="274.122871" style="stroke: #000000; stroke-width: 0.8"/>
      </g>
     </g>
     <g id="text_8">
      <!-- −2 -->
      <g transform="translate(23.257812 277.92209)scale(0.1 -0.1)">
       <use xlink:href="#DejaVuSans-2212"/>
       <use xlink:href="#DejaVuSans-32" x="83.789062"/>
      </g>
     </g>
    </g>
    <g id="ytick_3">
     <g id="line2d_9">
      <g>
       <use xlink:href="#m00f0a44169" x="45" y="227.845743" style="stroke: #000000; stroke-width: 0.8"/>
      </g>
     </g>
     <g id="text_9">
      <!-- −1 -->
      <g transform="translate(23.257812 231.644962)scale(0.1 -0.1)">
       <use xlink:href="#DejaVuSans-2212"/>
       <use xlink:href="#DejaVuSans-31" x="83.789062"/>
      </g>
     </g>
    </g>
    <g id="ytick_4">
     <g id="line2d_10">
      <g>
       <use xlink:href="#m00f0a44169" x="45" y="181.568614" style="stroke: #000000; stroke-width: 0.8"/>
      </g>
     </g>
     <g id="text_10">
      <!-- 0 -->
      <g transform="translate(31.6375 185.367833)scale(0.1 -0.1)">
       <use xlink:href="#DejaVuSans-30"/>
      </g>
     </g>
    </g>
    <g id="ytick_5">
     <g id="line2d_11">
      <g>
       <use xlink:href="#m00f0a44169" x="45" y="135.291486" style="stroke: #000000; stroke-width: 0.8"/>
      </g>
     </g>
     <g id="text_11">
      <!-- 1 -->
      <g transform="translate(31.6375 139.090705)scale(0.1 -0.1)">
       <use xlink:href="#DejaVuSans-31"/>
      </g>
     </g>
    </g>
    <g id="ytick_6">
     <g id="line2d_12">
      <g>
       <use xlink:href="#m00f0a44169" x="45" y="89.014357" style="stroke: #000000; stroke-width: 0.8"/>
      </g>
     </g>
     <g id="text_12">
      <!-- 2 -->
      <g transform="translate(31.6375 92.813576)scale(0.1 -0.1)">
       <use xlink:href="#DejaVuSans-32"/>
      </g>
     </g>
    </g>
   </g>
   <g id="PathCollection_2">
    <path d="M 193.116861 206.113409 
L 190.303062 204.707179 
L 189.390651 203.81427 
L 187.527546 201.683691 
L 185.198664 200.26206 
L 184.267112 199.578842 
L 182.299324 196.377295 
L 181.349104 194.988982 
L 180.075125 192.012264 
L 179.143573 190.435466 
L 178.677796 189.713493 
L 178.146572 188.972955 
L 176.348915 185.214977 
L 174.48581 183.35699 
L 173.92161 182.494157 
L 173.554257 181.547983 
L 170.907551 178.329215 
L 172.197832 176.940902 
L 172.622705 176.708028 
L 173.571324 176.47813 
L 173.761531 176.015359 
L 171.225376 174.999805 
L 170.223562 174.164274 
L 169.127755 170.462104 
L 169.193016 169.999332 
L 168.884395 169.536561 
L 167.704384 164.908848 
L 167.658312 163.983306 
L 166.152745 161.206678 
L 166.567613 161.054236 
L 167.229649 161.206678 
L 167.499165 161.380922 
L 168.896494 161.962151 
L 171.225376 162.907986 
L 175.382822 164.446077 
L 175.417362 164.467329 
L 178.21202 167.288726 
L 178.677796 167.827013 
L 178.865871 168.148247 
L 178.677796 168.804696 
L 177.746244 169.801015 
L 176.348915 170.102833 
L 174.48581 170.237582 
L 173.057908 170.462104 
L 173.088481 170.466921 
L 178.677796 171.459226 
L 179.609349 172.559012 
L 179.756638 172.77596 
L 179.835696 173.701503 
L 179.842062 174.164274 
L 179.595835 174.627045 
L 177.639662 176.015359 
L 177.385971 176.47813 
L 181.083153 177.403673 
L 181.666538 177.866444 
L 185.664441 181.764662 
L 186.784922 182.956928 
L 190.443221 186.659098 
L 192.692716 188.510184 
L 196.904549 191.286811 
L 199.171953 192.577795 
L 199.300739 192.675125 
L 200.418693 195.451753 
L 199.915009 196.840067 
L 199.589152 200.542237 
L 199.15391 201.46778 
L 196.377295 204.268659 
L 194.51419 205.655148 
L 193.582638 206.120445 
L 193.116861 206.113409 
L 193.116861 206.113409 
" clip-path="url(#pab47e008db)" style="fill: none; stroke-dasharray: 5.55,2.4; stroke-dashoffset: 0; stroke: #000000; stroke-width: 1.5"/>
    <path d="M 166.101836 161.109709 
L 165.971962 160.743907 
L 166.101836 160.706392 
L 166.188128 160.743907 
L 166.101836 161.109709 
z
" clip-path="url(#pab47e008db)" style="fill: none; stroke-dasharray: 5.55,2.4; stroke-dashoffset: 0; stroke: #000000; stroke-width: 1.5"/>
   </g>
   <g id="PathCollection_3">
    <path d="M 183.335559 228.79833 
L 183.178637 228.771285 
L 182.869783 228.509994 
L 182.404007 228.378242 
L 181.93823 228.345405 
L 181.472454 228.327159 
L 181.40006 228.308514 
L 181.006678 227.963784 
L 180.540902 227.898146 
L 180.075125 227.875286 
L 179.831799 227.845743 
L 179.609349 227.670739 
L 179.143573 227.452718 
L 178.858586 227.382972 
L 178.677796 227.222798 
L 178.21202 226.963329 
L 178.122608 226.9202 
L 177.746244 226.561355 
L 177.280467 226.483123 
L 177.237805 226.457429 
L 176.814691 226.053077 
L 176.657941 225.994658 
L 176.348915 225.706664 
L 175.883139 225.570125 
L 175.813032 225.531886 
L 175.417362 225.151183 
L 175.013158 225.069115 
L 174.951586 225.016127 
L 174.48581 224.656745 
L 174.39078 224.606344 
L 174.020033 224.24614 
L 173.927572 224.143573 
L 173.554257 223.771659 
L 173.47147 223.680801 
L 173.088481 223.299345 
L 173.013735 223.21803 
L 172.622705 222.828646 
L 172.554748 222.755259 
L 172.156928 222.359184 
L 172.094779 222.292487 
L 171.691152 221.890691 
L 171.634027 221.829716 
L 171.225376 221.42297 
L 171.172641 221.366945 
L 170.759599 220.955877 
L 170.710733 220.904174 
L 170.293823 220.489297 
L 170.248391 220.441402 
L 169.828047 220.023145 
L 169.785686 219.978631 
L 169.36227 219.538971 
L 169.342606 219.51586 
L 169.224063 219.053088 
L 168.896494 218.715704 
L 168.83135 218.590317 
L 168.430718 218.184593 
L 168.392265 218.127546 
L 168.239291 217.664775 
L 167.964942 217.378342 
L 167.887765 217.202003 
L 167.499165 216.807186 
L 167.455821 216.739232 
L 167.1924 216.276461 
L 167.033389 216.108986 
L 166.936658 215.813689 
L 166.567613 215.439716 
L 166.514625 215.350918 
L 166.101836 214.910161 
L 166.086384 214.888147 
L 165.960867 214.425376 
L 165.63606 214.094632 
L 165.564237 213.962604 
L 165.170284 213.565161 
L 165.125452 213.499833 
L 164.9548 213.037062 
L 164.704508 212.78007 
L 164.607812 212.57429 
L 164.238731 212.201777 
L 164.181343 212.111519 
L 163.917276 211.648748 
L 163.772955 211.499357 
L 163.655653 211.185977 
L 163.307179 210.834388 
L 163.238853 210.723205 
L 162.903164 210.260434 
L 162.841402 210.196241 
L 162.702994 209.797663 
L 162.375626 209.466027 
L 162.31563 209.334891 
L 162.256389 208.87212 
L 161.934978 208.409349 
L 161.90985 208.380842 
L 161.829496 207.946578 
L 161.737239 207.483806 
L 161.444073 207.147473 
L 161.397926 207.021035 
L 161.338782 206.558264 
L 160.978297 206.104319 
L 160.972832 206.095492 
L 160.777634 205.632721 
L 160.512521 205.366433 
L 160.37573 205.16995 
L 160.046745 204.840591 
L 159.944295 204.707179 
L 159.580968 204.309797 
L 159.528774 204.244407 
L 159.324368 203.781636 
L 159.115192 203.566966 
L 158.97877 203.318865 
L 158.649416 202.976407 
L 158.567306 202.856093 
L 158.322957 202.393322 
L 158.183639 202.249138 
L 158.027247 201.930551 
L 157.717863 201.616789 
L 157.61938 201.46778 
L 157.273915 201.005008 
L 157.252087 200.982093 
L 157.069799 200.542237 
L 156.786311 200.253851 
L 156.676769 200.079466 
L 156.320534 199.655948 
L 156.293283 199.616694 
L 156.103342 199.153923 
L 155.854758 198.899989 
L 155.731843 198.691152 
L 155.388982 198.312332 
L 155.331177 198.228381 
L 155.122159 197.765609 
L 154.923205 197.561161 
L 154.783789 197.302838 
L 154.457429 196.966949 
L 154.371166 196.840067 
L 154.114498 196.377295 
L 153.991653 196.24989 
L 153.831366 195.914524 
L 153.525876 195.60455 
L 153.425776 195.451753 
L 153.0601 194.990808 
L 153.058826 194.988982 
L 152.872581 194.52621 
L 152.594324 194.24295 
L 152.482808 194.063439 
L 152.128548 193.645506 
L 152.09752 193.600668 
L 151.903986 193.137896 
L 151.662771 192.891252 
L 151.537399 192.675125 
L 151.196995 192.29481 
L 151.147704 192.212354 
L 151.017566 191.749583 
L 150.731219 191.452877 
L 150.644634 191.286811 
L 150.471631 190.82404 
L 150.265442 190.606348 
L 150.161368 190.361269 
L 149.825508 189.898497 
L 149.799666 189.869967 
L 149.670163 189.435726 
L 149.33389 189.058659 
L 149.286058 188.972955 
L 149.163657 188.510184 
L 148.868114 188.203391 
L 148.788325 188.047412 
L 148.637662 187.584641 
L 148.402337 187.338177 
L 148.328785 187.12187 
L 148.251397 186.659098 
L 147.936561 186.272113 
L 147.906081 186.196327 
L 147.828761 185.733556 
L 147.639392 185.270785 
L 147.470785 185.091446 
L 147.388661 184.808013 
L 147.299895 184.345242 
L 147.005008 184.015613 
L 146.952385 183.882471 
L 146.887579 183.419699 
L 146.631374 182.956928 
L 146.539232 182.857139 
L 146.45134 182.494157 
L 146.344336 182.031386 
L 146.073456 181.747288 
L 146.005579 181.568614 
L 145.944594 181.105843 
L 145.607679 180.656411 
L 145.602169 180.643072 
L 145.513196 180.180301 
L 145.381175 179.717529 
L 145.141903 179.466861 
L 145.068504 179.254758 
L 144.999247 178.791987 
L 144.68991 178.329215 
L 144.676127 178.313303 
L 144.605006 177.866444 
L 144.573955 177.403673 
L 144.504893 176.940902 
L 144.217826 176.47813 
L 144.210351 176.469424 
L 144.141722 176.015359 
L 144.111222 175.552588 
L 144.042597 175.089816 
L 143.74517 174.627045 
L 143.744574 174.626345 
L 143.678484 174.164274 
L 143.648573 173.701503 
L 143.580464 173.238731 
L 143.278798 172.779875 
L 143.277811 172.77596 
L 143.210344 172.313189 
L 143.021294 171.850417 
L 142.813022 171.63885 
L 142.744085 171.387646 
L 142.700115 170.924875 
L 142.533629 170.462104 
L 142.347245 170.264293 
L 142.273977 169.999332 
L 142.219838 169.536561 
L 142.020669 169.07379 
L 141.881469 168.925248 
L 141.799653 168.611018 
L 141.738538 168.148247 
L 141.499571 167.685476 
L 141.415693 167.595393 
L 141.324939 167.222705 
L 141.285106 166.759933 
L 141.329145 166.297162 
L 141.415693 166.065117 
L 141.625336 165.834391 
L 141.753613 165.371619 
L 141.80001 164.908848 
L 141.850168 164.446077 
L 141.866438 163.983306 
L 141.878158 163.520534 
L 141.881469 163.348653 
L 141.913522 163.057763 
L 141.955801 162.594992 
L 141.936222 162.13222 
L 141.881469 162.062492 
L 141.824891 161.669449 
L 141.810061 161.206678 
L 141.786713 160.743907 
L 141.736879 160.281135 
L 141.556462 159.818364 
L 141.415693 159.639011 
L 141.379295 159.355593 
L 141.371244 158.892821 
L 141.357148 158.43005 
L 141.326114 157.967279 
L 141.201644 157.504508 
L 140.949917 157.1808 
L 140.93424 157.041736 
L 140.911755 156.578965 
L 140.778201 156.116194 
L 140.48414 155.778001 
L 140.463134 155.653422 
L 140.405447 155.190651 
L 140.018364 154.794727 
L 139.988742 154.72788 
L 139.552588 154.276555 
L 139.545418 154.265109 
L 139.544642 153.802337 
L 139.544449 153.339566 
L 139.552588 153.279495 
L 139.877071 152.876795 
L 139.962102 152.414023 
L 139.987595 151.951252 
L 139.999867 151.488481 
L 140.007085 151.02571 
L 140.018364 150.904309 
L 140.267161 150.562938 
L 140.411402 150.100167 
L 140.445496 149.637396 
L 140.46075 149.174624 
L 140.469399 148.711853 
L 140.48414 148.538488 
L 140.688339 148.249082 
L 140.906161 147.786311 
L 140.949917 147.392243 
L 141.004245 147.323539 
L 141.408294 146.860768 
L 141.415693 146.803227 
L 141.73613 146.397997 
L 141.881469 146.214197 
L 142.10207 145.935225 
L 142.347245 145.625184 
L 142.468017 145.472454 
L 142.813022 145.036157 
L 142.834283 145.009683 
L 143.193133 144.546912 
L 143.278798 144.435054 
L 143.558076 144.08414 
L 143.744574 143.837587 
L 143.759553 143.621369 
L 143.870689 143.158598 
L 144.210351 142.800001 
L 144.233364 142.695826 
L 144.2886 142.233055 
L 144.676127 141.83916 
L 144.708538 141.770284 
L 144.785571 141.307513 
L 145.141903 140.945018 
L 145.188182 140.844741 
L 145.438065 140.38197 
L 145.607679 140.224912 
L 145.801184 139.919199 
L 146.073456 139.65978 
L 146.224539 139.456427 
L 146.539232 139.152954 
L 146.667208 138.993656 
L 147.005008 138.665727 
L 147.117251 138.530885 
L 147.470785 138.188318 
L 147.59016 138.068114 
L 147.936561 137.735975 
L 148.075347 137.605342 
L 148.402337 137.292041 
L 148.868114 137.154821 
L 148.906971 137.142571 
L 149.33389 136.857178 
L 149.799666 136.7533 
L 149.922564 136.6798 
L 150.265442 136.312398 
L 150.578823 136.217028 
L 150.731219 135.992265 
L 151.043449 135.754257 
L 151.196995 135.31958 
L 151.206866 135.291486 
L 151.37122 134.828715 
L 151.657912 134.365943 
L 151.662771 134.36374 
L 152.128548 134.279397 
L 152.53667 133.903172 
L 152.594324 133.88352 
L 153.0601 133.851042 
L 153.525876 133.490063 
L 153.599761 133.440401 
L 153.991653 133.410001 
L 154.457429 133.33558 
L 154.854778 132.977629 
L 154.923205 132.958584 
L 155.388982 132.956033 
L 155.854758 132.956127 
L 156.320534 132.956851 
L 156.786311 132.957594 
L 157.252087 132.958356 
L 157.717863 132.959139 
L 158.183639 132.959943 
L 158.649416 132.961153 
L 159.115192 132.965724 
L 159.580968 132.970237 
L 160.046745 132.973871 
L 160.330752 132.977629 
L 160.512521 133.023809 
L 160.978297 133.186773 
L 161.444073 133.326492 
L 161.90985 133.385658 
L 162.375626 133.409811 
L 162.841402 133.419808 
L 163.307179 133.426233 
L 163.772955 133.430712 
L 164.238731 133.434355 
L 164.675854 133.440401 
L 164.704508 133.446672 
L 165.170284 133.556292 
L 165.63606 133.768558 
L 166.101836 133.878717 
L 166.567613 133.90253 
L 166.593588 133.903172 
L 167.033389 134.026512 
L 167.499165 134.256773 
L 167.964942 134.36153 
L 168.086014 134.365943 
L 168.430718 134.488907 
L 168.896494 134.694544 
L 169.36227 134.822042 
L 169.520597 134.828715 
L 169.828047 134.95121 
L 170.293823 135.14525 
L 170.759599 135.278276 
L 171.08071 135.291486 
L 171.225376 135.341353 
L 171.691152 135.504014 
L 172.156928 135.697187 
L 172.617905 135.754257 
L 172.622705 135.755977 
L 173.088481 135.958724 
L 173.554257 136.21598 
L 173.561825 136.217028 
L 174.020033 136.474421 
L 174.385648 136.6798 
L 174.48581 136.736064 
L 174.951586 136.997703 
L 175.225184 137.142571 
L 175.417362 137.242286 
L 175.883139 137.525621 
L 176.078522 137.605342 
L 176.348915 137.809175 
L 176.67211 138.068114 
L 176.814691 138.182345 
L 177.249704 138.530885 
L 177.280467 138.555532 
L 177.746244 138.968774 
L 177.803142 138.993656 
L 178.21202 139.341337 
L 178.404957 139.456427 
L 178.677796 139.675018 
L 178.982578 139.919199 
L 179.143573 140.048181 
L 179.560193 140.38197 
L 179.609349 140.421352 
L 180.075125 140.8335 
L 180.092011 140.844741 
L 180.540902 141.263645 
L 180.622457 141.307513 
L 181.006678 141.650746 
L 181.097568 141.770284 
L 181.472454 142.142097 
L 181.550947 142.233055 
L 181.93823 142.634254 
L 182.095126 142.695826 
L 182.404007 142.978796 
L 182.626984 143.158598 
L 182.869783 143.373041 
L 183.150939 143.621369 
L 183.335559 143.784433 
L 183.674895 144.08414 
L 183.801336 144.195814 
L 184.198849 144.546912 
L 184.267112 144.607203 
L 184.72282 145.009683 
L 184.732888 145.018575 
L 185.198664 145.429959 
L 185.24678 145.472454 
L 185.664441 145.841336 
L 185.770745 145.935225 
L 186.130217 146.25273 
L 186.294689 146.397997 
L 186.595993 146.664113 
L 186.818651 146.860768 
L 187.06177 147.075495 
L 187.336337 147.323539 
L 187.527546 147.505422 
L 187.804261 147.786311 
L 187.993322 147.982095 
L 188.251129 148.249082 
L 188.459098 148.464456 
L 188.697991 148.711853 
L 188.924875 148.946814 
L 189.144858 149.174624 
L 189.390651 149.429167 
L 189.59172 149.637396 
L 189.856427 149.911523 
L 190.038591 150.100167 
L 190.322204 150.393878 
L 190.485446 150.562938 
L 190.78798 150.876244 
L 190.931829 151.02571 
L 191.253756 151.432748 
L 191.293824 151.488481 
L 191.626522 151.951252 
L 191.719533 152.080627 
L 191.959216 152.414023 
L 192.185309 152.728514 
L 192.291912 152.876795 
L 192.624605 153.339566 
L 192.651085 153.376399 
L 192.969157 153.802337 
L 193.116861 153.979005 
L 193.345953 154.265109 
L 193.582638 154.560702 
L 193.7165 154.72788 
L 194.048414 155.142397 
L 194.087052 155.190651 
L 194.457594 155.653422 
L 194.51419 155.724103 
L 194.828148 156.116194 
L 194.979967 156.305799 
L 195.198697 156.578965 
L 195.445743 156.887493 
L 195.56925 157.041736 
L 195.911519 157.469191 
L 195.939798 157.504508 
L 196.310512 157.967279 
L 196.377295 158.030055 
L 196.802776 158.43005 
L 196.843072 158.467928 
L 197.295089 158.892821 
L 197.308848 158.905755 
L 197.774624 159.351557 
L 197.776441 159.355593 
L 198.240401 159.811818 
L 198.243115 159.818364 
L 198.528054 160.281135 
L 198.706177 160.439185 
L 198.848883 160.743907 
L 199.171953 161.106343 
L 199.190784 161.206678 
L 199.2527 161.669449 
L 199.359804 162.13222 
L 199.63773 162.563843 
L 199.64185 162.594992 
L 199.63773 162.769336 
L 199.50282 163.057763 
L 199.278122 163.520534 
L 199.171953 163.728401 
L 199.041754 163.983306 
L 198.725576 164.446077 
L 198.706177 164.471784 
L 198.380536 164.908848 
L 198.240401 165.296502 
L 198.213834 165.371619 
L 198.221033 165.834391 
L 198.240401 166.265498 
L 198.252797 166.297162 
L 198.68559 166.759933 
L 198.703912 167.222705 
L 198.706177 167.226421 
L 199.159067 167.685476 
L 199.171953 167.720899 
L 199.581759 168.148247 
L 199.632372 168.611018 
L 199.63773 168.619292 
L 200.088172 169.07379 
L 200.103506 169.112992 
L 200.513437 169.536561 
L 200.5643 169.999332 
L 200.569282 170.002808 
L 201.035058 170.024436 
L 201.500835 170.367142 
L 201.871241 170.462104 
L 201.966611 170.472298 
L 202.432387 170.605969 
L 202.898164 170.725385 
L 203.36394 170.848905 
L 203.751252 170.924875 
L 203.829716 170.938588 
L 204.295492 170.968998 
L 204.761269 170.999696 
L 205.227045 171.033836 
L 205.692821 171.073669 
L 206.158598 171.123095 
L 206.624374 171.195788 
L 207.09015 171.339571 
L 207.555927 171.377195 
L 207.634716 171.387646 
L 208.021703 171.648265 
L 208.487479 171.803808 
L 208.935817 171.850417 
L 208.953255 171.863119 
L 209.419032 172.259107 
L 209.858757 172.313189 
L 209.884808 172.348588 
L 210.350584 172.772211 
L 210.369208 172.77596 
L 210.816361 173.227442 
L 210.864816 173.238731 
L 211.282137 173.469337 
L 211.702267 173.701503 
L 211.747913 173.726726 
L 212.213689 173.983826 
L 212.539706 174.164274 
L 212.679466 174.241508 
L 213.145242 174.498364 
L 213.377211 174.627045 
L 213.611018 174.756232 
L 214.076795 175.048607 
L 214.215245 175.089816 
L 214.542571 175.270307 
L 215.008347 175.549234 
L 215.024259 175.552588 
L 215.446171 176.015359 
L 215.474124 176.046009 
L 215.86822 176.47813 
L 215.9399 176.527289 
L 216.405676 176.822045 
L 216.596262 176.940902 
L 216.871452 177.12077 
L 217.262877 177.403673 
L 217.337229 177.461432 
L 217.803005 177.845828 
L 217.858576 177.866444 
L 218.268781 178.185122 
L 218.442724 178.329215 
L 218.734558 178.559046 
L 218.929369 178.791987 
L 219.200334 179.05157 
L 219.378477 179.254758 
L 219.66611 179.58173 
L 219.785245 179.717529 
L 220.131886 180.10836 
L 220.172946 180.180301 
L 220.584149 180.643072 
L 220.597663 180.657858 
L 220.965933 181.105843 
L 221.063439 181.215909 
L 221.353733 181.568614 
L 221.529215 181.785379 
L 221.724885 182.031386 
L 221.994992 182.370979 
L 222.04153 182.494157 
L 222.459713 182.956928 
L 222.460768 182.95822 
L 222.823181 183.419699 
L 222.926544 183.551316 
L 223.186607 183.882471 
L 223.392321 184.144415 
L 223.479016 184.345242 
L 223.858097 184.773621 
L 223.869991 184.808013 
L 224.276889 185.270785 
L 224.323873 185.330611 
L 224.64032 185.733556 
L 224.789649 185.923706 
L 224.914991 186.196327 
L 225.255426 186.61086 
L 225.263743 186.659098 
L 225.414121 187.12187 
L 225.688021 187.584641 
L 225.721202 187.67445 
L 225.74274 188.047412 
L 225.898121 188.510184 
L 226.186978 188.956252 
L 226.18826 188.972955 
L 226.221997 189.435726 
L 226.430605 189.898497 
L 226.652755 190.259937 
L 226.659536 190.361269 
L 226.672714 190.82404 
L 226.709789 191.286811 
L 226.806669 191.749583 
L 226.98618 192.212354 
L 227.118531 192.559891 
L 227.121959 192.675125 
L 227.129763 193.137896 
L 227.136196 193.600668 
L 227.140588 194.063439 
L 227.145507 194.52621 
L 227.151159 194.988982 
L 227.15833 195.451753 
L 227.16204 195.914524 
L 227.164825 196.377295 
L 227.167788 196.840067 
L 227.17094 197.302838 
L 227.174301 197.765609 
L 227.177898 198.228381 
L 227.135769 198.691152 
L 227.122972 199.153923 
L 227.118531 199.22124 
L 226.87543 199.616694 
L 226.712243 200.079466 
L 226.669291 200.542237 
L 226.656985 201.005008 
L 226.652755 201.081884 
L 226.435512 201.46778 
L 226.27999 201.930551 
L 226.217852 202.393322 
L 226.199571 202.856093 
L 226.191138 203.318865 
L 226.186978 203.510634 
L 226.098884 203.781636 
L 225.873725 204.244407 
L 225.762913 204.707179 
L 225.727866 205.16995 
L 225.721202 205.217267 
L 225.379135 205.632721 
L 225.259607 206.095492 
L 225.255426 206.124918 
L 224.896559 206.558264 
L 224.79146 207.021035 
L 224.789649 207.033673 
L 224.414857 207.483806 
L 224.325776 207.946578 
L 224.323873 208.021104 
L 224.178147 208.409349 
L 223.87856 208.87212 
L 223.858097 209.164965 
L 223.776623 209.334891 
L 223.407427 209.797663 
L 223.392321 210.009699 
L 223.249526 210.260434 
L 222.932297 210.723205 
L 222.926544 210.827565 
L 222.722425 211.185977 
L 222.460768 211.629827 
L 222.446441 211.648748 
L 222.058226 212.111519 
L 221.994992 212.338502 
L 221.821473 212.57429 
L 221.529931 213.037062 
L 221.529215 213.039715 
L 221.091637 213.499833 
L 221.063439 213.587077 
L 220.726632 213.962604 
L 220.597663 214.113296 
L 220.307942 214.425376 
L 220.131886 214.634203 
L 219.897972 214.888147 
L 219.66611 215.168188 
L 219.499383 215.350918 
L 219.200334 215.720239 
L 219.116067 215.813689 
L 218.734558 216.254169 
L 218.716862 216.276461 
L 218.30786 216.739232 
L 218.268781 216.778384 
L 217.833234 217.202003 
L 217.803005 217.231405 
L 217.35743 217.664775 
L 217.337229 217.684422 
L 216.881617 218.127546 
L 216.871452 218.136506 
L 216.405676 218.454556 
L 216.15342 218.590317 
L 215.9399 218.719065 
L 215.546911 219.053088 
L 215.474124 219.119507 
L 215.039772 219.51586 
L 215.008347 219.544536 
L 214.542571 219.969569 
L 214.533058 219.978631 
L 214.076795 220.416503 
L 214.044425 220.441402 
L 213.611018 220.854856 
L 213.543861 220.904174 
L 213.145242 221.204464 
L 212.952001 221.366945 
L 212.679466 221.567302 
L 212.374334 221.829716 
L 212.213689 221.952448 
L 211.823901 222.292487 
L 211.747913 222.301267 
L 211.282137 222.705866 
L 211.22398 222.755259 
L 210.816361 223.060085 
L 210.634094 223.21803 
L 210.350584 223.411265 
L 210.034671 223.680801 
L 209.884808 223.698933 
L 209.424586 224.143573 
L 209.419032 224.146086 
L 208.953255 224.476844 
L 208.763814 224.606344 
L 208.487479 224.622734 
L 208.021908 225.069115 
L 208.021703 225.06921 
L 207.555927 225.089132 
L 207.09015 225.374915 
L 206.823086 225.531886 
L 206.624374 225.540594 
L 206.158598 225.573774 
L 205.692821 225.720562 
L 205.297222 225.994658 
L 205.227045 225.999809 
L 204.761269 226.008401 
L 204.295492 226.025401 
L 203.829716 226.074986 
L 203.390173 226.457429 
L 203.36394 226.462542 
L 202.898164 226.469678 
L 202.432387 226.482183 
L 201.966611 226.509772 
L 201.500835 226.621152 
L 201.131396 226.9202 
L 201.035058 226.933324 
L 200.569282 226.95085 
L 200.103506 227.008214 
L 199.687415 227.382972 
L 199.63773 227.395383 
L 199.171953 227.410221 
L 198.706177 227.450368 
L 198.240401 227.787688 
L 198.145332 227.845743 
L 197.774624 227.865231 
L 197.308848 227.877035 
L 196.843072 227.898465 
L 196.377295 227.949125 
L 195.911519 228.215224 
L 195.773571 228.308514 
L 195.445743 228.331014 
L 194.979967 228.343095 
L 194.51419 228.364436 
L 194.048414 228.408937 
L 193.582638 228.448284 
L 193.116861 228.520618 
L 192.651085 228.710864 
L 192.538445 228.771285 
L 192.185309 228.788368 
L 191.719533 228.794767 
L 191.253756 228.798595 
L 190.78798 228.803138 
L 190.322204 228.808618 
L 189.856427 228.815358 
L 189.390651 228.823847 
L 188.924875 228.835508 
L 188.459098 228.863914 
L 187.993322 228.942107 
L 187.527546 229.018906 
L 187.06177 228.961475 
L 186.595993 228.924561 
L 186.130217 228.898853 
L 185.664441 228.879907 
L 185.198664 228.86537 
L 184.732888 228.853865 
L 184.267112 228.833646 
L 183.801336 228.817236 
L 183.335559 228.79833 
z
" clip-path="url(#pab47e008db)" style="fill: none; stroke: #000000; stroke-width: 1.5"/>
   </g>
   <g id="PathCollection_4">
    <path d="M 187.06177 252.394025 
L 182.404007 251.786904 
L 180.632113 251.447078 
L 173.554257 249.29218 
L 169.828047 248.34853 
L 165.170284 247.116385 
L 163.772955 246.236893 
L 162.650683 245.431052 
L 158.938599 241.728881 
L 152.057956 233.86177 
L 145.058161 225.994658 
L 144.086164 224.143573 
L 143.278798 222.13546 
L 140.929314 218.590317 
L 139.086811 216.035501 
L 133.904133 207.946578 
L 131.361676 203.781636 
L 130.734651 202.393322 
L 129.928059 200.542237 
L 127.712291 195.451753 
L 123.634204 185.270785 
L 122.442428 181.568614 
L 121.095598 175.089816 
L 120.562293 173.238731 
L 120.21054 167.222705 
L 118.786678 159.818364 
L 118.803787 159.355593 
L 118.537506 158.43005 
L 118.280396 157.504508 
L 117.469766 148.711853 
L 117.951107 145.935225 
L 120.45576 137.136387 
L 121.853088 133.637375 
L 124.18197 129.999583 
L 126.045075 127.37522 
L 133.03172 120.301828 
L 136.75793 117.135253 
L 141.526785 113.541235 
L 143.744574 112.39537 
L 148.402337 110.645922 
L 152.594324 110.52351 
L 156.786311 110.525777 
L 163.772955 110.334195 
L 166.754112 110.764608 
L 176.814691 113.367915 
L 181.483 114.466778 
L 184.267112 115.563822 
L 185.664441 116.33012 
L 188.329648 118.63172 
L 189.081144 119.094491 
L 195.485409 122.796661 
L 197.649709 124.647746 
L 207.230535 133.903172 
L 210.059486 136.6798 
L 222.791705 151.951252 
L 224.655674 154.265109 
L 229.913189 159.252532 
L 231.776294 160.843075 
L 232.24207 161.26397 
L 236.434057 163.621207 
L 239.890129 167.222705 
L 240.21504 167.685476 
L 244.143352 176.940902 
L 246.215359 180.075746 
L 249.184383 186.196327 
L 249.334075 187.12187 
L 249.77768 193.137896 
L 250.407346 197.850663 
L 250.601612 199.616694 
L 250.52577 201.005008 
L 250.407346 204.378157 
L 248.87804 209.334891 
L 247.920692 211.648748 
L 246.184329 215.813689 
L 244.730409 218.590317 
L 241.749636 224.143573 
L 234.516726 233.398998 
L 231.899219 235.250083 
L 225.509995 240.340568 
L 223.858097 241.403751 
L 218.635901 244.042738 
L 215.844068 245.431052 
L 209.419032 247.864314 
L 205.440388 249.595993 
L 201.500835 250.725246 
L 190.322204 252.498592 
L 187.06177 252.394025 
L 187.06177 252.394025 
" clip-path="url(#pab47e008db)" style="fill: none; stroke: #000000; stroke-width: 1.5"/>
   </g>
   <g id="patch_3">
    <path d="M 45 320.4 
L 45 43.2 
" style="fill: none; stroke: #000000; stroke-width: 0.8; stroke-linejoin: miter; stroke-linecap: square"/>
   </g>
   <g id="patch_4">
    <path d="M 324 320.4 
L 324 43.2 
" style="fill: none; stroke: #000000; stroke-width: 0.8; stroke-linejoin: miter; stroke-linecap: square"/>
   </g>
   <g id="patch_5">
    <path d="M 45 320.4 
L 324 320.4 
" style="fill: none; stroke: #000000; stroke-width: 0.8; stroke-linejoin: miter; stroke-linecap: square"/>
   </g>
   <g id="patch_6">
    <path d="M 45 43.2 
L 324 43.2 
" style="fill: none; stroke: #000000; stroke-width: 0.8; stroke-linejoin: miter; stroke-linecap: square"/>
   </g>
  </g>
 </g>
 <defs>
  <clipPath id="pab47e008db">
   <rect x="45" y="43.2" width="279" height="277.2"/>
  </clipPath>
 </defs>
</svg>
