<?xml version="1.0" encoding="utf-8" standalone="no"?>
<!DOCTYPE svg PUBLIC "-//W3C//DTD SVG 1.1//EN"
  "http://www.w3.org/Graphics/SVG/1.1/DTD/svg11.dtd">
<svg xmlns:xlink="http://www.w3.org/1999/xlink" width="360pt" height="360pt" viewBox="0 0 360 360" xmlns="http://www.w3.org/2000/svg" version="1.1">
 <metadata>
  <rdf:RDF xmlns:dc="http://purl.org/dc/elements/1.1/" xmlns:cc="http://creativecommons.org/ns#" xmlns:rdf="http://www.w3.org/1999/02/22-rdf-syntax-ns#">
   <cc:Work>
    <dc:type rdf:resource="http://purl.org/dc/dcmitype/StillImage"/>
    <dc:date>2022-04-03T22:41:40.005915</dc:date>
    <dc:format>image/svg+xml</dc:format>
    <dc:creator>
     <cc:Agent>
      <dc:title>Matplotlib v3.5.1, https://matplotlib.org/</dc:title>
     </cc:Agent>
    </dc:creator>
   </cc:Work>
  </rdf:RDF>
 </metadata>
 <defs>
  <style type="text/css">*{stroke-linejoin: round; stroke-linecap: butt}</style>
 </defs>
 <g id="figure_1">
  <g id="patch_1">
   <path d="M 0 360 
L 360 360 
L 360 0 
L 0 0 
z
" style="fill: #ffffff"/>
  </g>
  <g id="axes_1">
   <g id="patch_2">
    <path d="M 45 320.4 
L 324 320.4 
L 324 43.2 
L 45 43.2 
z
" style="fill: #ffffff"/>
   </g>
   <g id="PathCollection_1">
    <defs>
     <path id="m4ea9034f2d" d="M 0 0.5 
C 0.132602 0.5 0.25979 0.447317 0.353553 0.353553 
C 0.447317 0.25979 0.5 0.132602 0.5 0 
C 0.5 -0.132602 0.447317 -0.25979 0.353553 -0.353553 
C 0.25979 -0.447317 0.132602 -0.5 0 -0.5 
C -0.132602 -0.5 -0.25979 -0.447317 -0.353553 -0.353553 
C -0.447317 -0.25979 -0.5 -0.132602 -0.5 0 
C -0.5 0.132602 -0.447317 0.25979 -0.353553 0.353553 
C -0.25979 0.447317 -0.132602 0.5 0 0.5 
z
" style="stroke: #ff0000"/>
    </defs>
    <g clip-path="url(#p38b58b6831)">
     <use xlink:href="#m4ea9034f2d" x="245.751875" y="181.568614" style="fill: #ff0000; stroke: #ff0000"/>
     <use xlink:href="#m4ea9034f2d" x="245.107794" y="175.660569" style="fill: #ff0000; stroke: #ff0000"/>
     <use xlink:href="#m4ea9034f2d" x="243.799752" y="169.895286" style="fill: #ff0000; stroke: #ff0000"/>
     <use xlink:href="#m4ea9034f2d" x="241.767774" y="164.378892" style="fill: #ff0000; stroke: #ff0000"/>
     <use xlink:href="#m4ea9034f2d" x="238.969976" y="159.247817" style="fill: #ff0000; stroke: #ff0000"/>
     <use xlink:href="#m4ea9034f2d" x="235.414549" y="154.653476" style="fill: #ff0000; stroke: #ff0000"/>
     <use xlink:href="#m4ea9034f2d" x="231.183531" y="150.731528" style="fill: #ff0000; stroke: #ff0000"/>
     <use xlink:href="#m4ea9034f2d" x="226.435426" y="147.565029" style="fill: #ff0000; stroke: #ff0000"/>
     <use xlink:href="#m4ea9034f2d" x="221.377848" y="145.160073" style="fill: #ff0000; stroke: #ff0000"/>
     <use xlink:href="#m4ea9034f2d" x="216.219505" y="143.449587" style="fill: #ff0000; stroke: #ff0000"/>
     <use xlink:href="#m4ea9034f2d" x="211.127071" y="142.321777" style="fill: #ff0000; stroke: #ff0000"/>
     <use xlink:href="#m4ea9034f2d" x="206.208125" y="141.65048" style="fill: #ff0000; stroke: #ff0000"/>
     <use xlink:href="#m4ea9034f2d" x="201.518138" y="141.306877" style="fill: #ff0000; stroke: #ff0000"/>
     <use xlink:href="#m4ea9034f2d" x="197.071367" y="141.156517" style="fill: #ff0000; stroke: #ff0000"/>
     <use xlink:href="#m4ea9034f2d" x="192.841514" y="141.066799" style="fill: #ff0000; stroke: #ff0000"/>
     <use xlink:href="#m4ea9034f2d" x="188.760284" y="140.941586" style="fill: #ff0000; stroke: #ff0000"/>
     <use xlink:href="#m4ea9034f2d" x="184.732888" y="140.767322" style="fill: #ff0000; stroke: #ff0000"/>
     <use xlink:href="#m4ea9034f2d" x="180.6749" y="140.632983" style="fill: #ff0000; stroke: #ff0000"/>
     <use xlink:href="#m4ea9034f2d" x="176.550896" y="140.700339" style="fill: #ff0000; stroke: #ff0000"/>
     <use xlink:href="#m4ea9034f2d" x="172.389036" y="141.138919" style="fill: #ff0000; stroke: #ff0000"/>
     <use xlink:href="#m4ea9034f2d" x="168.263816" y="142.065272" style="fill: #ff0000; stroke: #ff0000"/>
     <use xlink:href="#m4ea9034f2d" x="164.261961" y="143.517289" style="fill: #ff0000; stroke: #ff0000"/>
     <use xlink:href="#m4ea9034f2d" x="160.452341" y="145.464648" style="fill: #ff0000; stroke: #ff0000"/>
     <use xlink:href="#m4ea9034f2d" x="156.869127" y="147.835569" style="fill: #ff0000; stroke: #ff0000"/>
     <use xlink:href="#m4ea9034f2d" x="153.505382" y="150.542576" style="fill: #ff0000; stroke: #ff0000"/>
     <use xlink:href="#m4ea9034f2d" x="150.314908" y="153.504741" style="fill: #ff0000; stroke: #ff0000"/>
     <use xlink:href="#m4ea9034f2d" x="147.228402" y="156.670594" style="fill: #ff0000; stroke: #ff0000"/>
     <use xlink:href="#m4ea9034f2d" x="144.190008" y="160.037804" style="fill: #ff0000; stroke: #ff0000"/>
     <use xlink:href="#m4ea9034f2d" x="141.206224" y="163.655598" style="fill: #ff0000; stroke: #ff0000"/>
     <use xlink:href="#m4ea9034f2d" x="138.383005" y="167.599241" style="fill: #ff0000; stroke: #ff0000"/>
     <use xlink:href="#m4ea9034f2d" x="135.926368" y="171.923028" style="fill: #ff0000; stroke: #ff0000"/>
     <use xlink:href="#m4ea9034f2d" x="134.099902" y="176.613874" style="fill: #ff0000; stroke: #ff0000"/>
     <use xlink:href="#m4ea9034f2d" x="133.15504" y="181.568614" style="fill: #ff0000; stroke: #ff0000"/>
     <use xlink:href="#m4ea9034f2d" x="133.261608" y="186.605387" style="fill: #ff0000; stroke: #ff0000"/>
     <use xlink:href="#m4ea9034f2d" x="134.463028" y="191.5034" style="fill: #ff0000; stroke: #ff0000"/>
     <use xlink:href="#m4ea9034f2d" x="136.668322" y="196.054775" style="fill: #ff0000; stroke: #ff0000"/>
     <use xlink:href="#m4ea9034f2d" x="139.678648" y="200.110291" style="fill: #ff0000; stroke: #ff0000"/>
     <use xlink:href="#m4ea9034f2d" x="143.23536" y="203.606403" style="fill: #ff0000; stroke: #ff0000"/>
     <use xlink:href="#m4ea9034f2d" x="147.073386" y="206.569546" style="fill: #ff0000; stroke: #ff0000"/>
     <use xlink:href="#m4ea9034f2d" x="150.967841" y="209.100097" style="fill: #ff0000; stroke: #ff0000"/>
     <use xlink:href="#m4ea9034f2d" x="154.767905" y="211.340275" style="fill: #ff0000; stroke: #ff0000"/>
     <use xlink:href="#m4ea9034f2d" x="158.413896" y="213.431497" style="fill: #ff0000; stroke: #ff0000"/>
     <use xlink:href="#m4ea9034f2d" x="161.932498" y="215.47166" style="fill: #ff0000; stroke: #ff0000"/>
     <use xlink:href="#m4ea9034f2d" x="165.408443" y="217.48886" style="fill: #ff0000; stroke: #ff0000"/>
     <use xlink:href="#m4ea9034f2d" x="168.941993" y="219.445256" style="fill: #ff0000; stroke: #ff0000"/>
     <use xlink:href="#m4ea9034f2d" x="172.611697" y="221.269033" style="fill: #ff0000; stroke: #ff0000"/>
     <use xlink:href="#m4ea9034f2d" x="176.459306" y="222.89437" style="fill: #ff0000; stroke: #ff0000"/>
     <use xlink:href="#m4ea9034f2d" x="180.498358" y="224.285141" style="fill: #ff0000; stroke: #ff0000"/>
     <use xlink:href="#m4ea9034f2d" x="184.732888" y="225.43208" style="fill: #ff0000; stroke: #ff0000"/>
     <use xlink:href="#m4ea9034f2d" x="189.170381" y="226.33256" style="fill: #ff0000; stroke: #ff0000"/>
     <use xlink:href="#m4ea9034f2d" x="193.822627" y="226.970995" style="fill: #ff0000; stroke: #ff0000"/>
     <use xlink:href="#m4ea9034f2d" x="198.698954" y="227.311531" style="fill: #ff0000; stroke: #ff0000"/>
     <use xlink:href="#m4ea9034f2d" x="203.798822" y="227.300888" style="fill: #ff0000; stroke: #ff0000"/>
     <use xlink:href="#m4ea9034f2d" x="209.104685" y="226.870869" style="fill: #ff0000; stroke: #ff0000"/>
     <use xlink:href="#m4ea9034f2d" x="214.569747" y="225.934539" style="fill: #ff0000; stroke: #ff0000"/>
     <use xlink:href="#m4ea9034f2d" x="220.098207" y="224.383363" style="fill: #ff0000; stroke: #ff0000"/>
     <use xlink:href="#m4ea9034f2d" x="225.528051" y="222.100583" style="fill: #ff0000; stroke: #ff0000"/>
     <use xlink:href="#m4ea9034f2d" x="230.636198" y="218.997443" style="fill: #ff0000; stroke: #ff0000"/>
     <use xlink:href="#m4ea9034f2d" x="235.178657" y="215.057937" style="fill: #ff0000; stroke: #ff0000"/>
     <use xlink:href="#m4ea9034f2d" x="238.954687" y="210.363788" style="fill: #ff0000; stroke: #ff0000"/>
     <use xlink:href="#m4ea9034f2d" x="241.861893" y="205.079554" style="fill: #ff0000; stroke: #ff0000"/>
     <use xlink:href="#m4ea9034f2d" x="243.909472" y="199.403822" style="fill: #ff0000; stroke: #ff0000"/>
     <use xlink:href="#m4ea9034f2d" x="245.18192" y="193.5151" style="fill: #ff0000; stroke: #ff0000"/>
     <use xlink:href="#m4ea9034f2d" x="245.776654" y="187.542112" style="fill: #ff0000; stroke: #ff0000"/>
    </g>
   </g>
   <g id="matplotlib.axis_1">
    <g id="xtick_1">
     <g id="line2d_1">
      <defs>
       <path id="me2868584ca" d="M 0 0 
L 0 3.5 
" style="stroke: #000000; stroke-width: 0.8"/>
      </defs>
      <g>
       <use xlink:href="#me2868584ca" x="45" y="320.4" style="stroke: #000000; stroke-width: 0.8"/>
      </g>
     </g>
     <g id="text_1">
      <!-- −3 -->
      <g transform="translate(37.628906 334.998438)scale(0.1 -0.1)">
       <defs>
        <path id="DejaVuSans-2212" d="M 678 2272 
L 4684 2272 
L 4684 1741 
L 678 1741 
L 678 2272 
z
" transform="scale(0.015625)"/>
        <path id="DejaVuSans-33" d="M 2597 2516 
Q 3050 2419 3304 2112 
Q 3559 1806 3559 1356 
Q 3559 666 3084 287 
Q 2609 -91 1734 -91 
Q 1441 -91 1130 -33 
Q 819 25 488 141 
L 488 750 
Q 750 597 1062 519 
Q 1375 441 1716 441 
Q 2309 441 2620 675 
Q 2931 909 2931 1356 
Q 2931 1769 2642 2001 
Q 2353 2234 1838 2234 
L 1294 2234 
L 1294 2753 
L 1863 2753 
Q 2328 2753 2575 2939 
Q 2822 3125 2822 3475 
Q 2822 3834 2567 4026 
Q 2313 4219 1838 4219 
Q 1578 4219 1281 4162 
Q 984 4106 628 3988 
L 628 4550 
Q 988 4650 1302 4700 
Q 1616 4750 1894 4750 
Q 2613 4750 3031 4423 
Q 3450 4097 3450 3541 
Q 3450 3153 3228 2886 
Q 3006 2619 2597 2516 
z
" transform="scale(0.015625)"/>
       </defs>
       <use xlink:href="#DejaVuSans-2212"/>
       <use xlink:href="#DejaVuSans-33" x="83.789062"/>
      </g>
     </g>
    </g>
    <g id="xtick_2">
     <g id="line2d_2">
      <g>
       <use xlink:href="#me2868584ca" x="91.577629" y="320.4" style="stroke: #000000; stroke-width: 0.8"/>
      </g>
     </g>
     <g id="text_2">
      <!-- −2 -->
      <g transform="translate(84.206536 334.998438)scale(0.1 -0.1)">
       <defs>
        <path id="DejaVuSans-32" d="M 1228 531 
L 3431 531 
L 3431 0 
L 469 0 
L 469 531 
Q 828 903 1448 1529 
Q 2069 2156 2228 2338 
Q 2531 2678 2651 2914 
Q 2772 3150 2772 3378 
Q 2772 3750 2511 3984 
Q 2250 4219 1831 4219 
Q 1534 4219 1204 4116 
Q 875 4013 500 3803 
L 500 4441 
Q 881 4594 1212 4672 
Q 1544 4750 1819 4750 
Q 2544 4750 2975 4387 
Q 3406 4025 3406 3419 
Q 3406 3131 3298 2873 
Q 3191 2616 2906 2266 
Q 2828 2175 2409 1742 
Q 1991 1309 1228 531 
z
" transform="scale(0.015625)"/>
       </defs>
       <use xlink:href="#DejaVuSans-2212"/>
       <use xlink:href="#DejaVuSans-32" x="83.789062"/>
      </g>
     </g>
    </g>
    <g id="xtick_3">
     <g id="line2d_3">
      <g>
       <use xlink:href="#me2868584ca" x="138.155259" y="320.4" style="stroke: #000000; stroke-width: 0.8"/>
      </g>
     </g>
     <g id="text_3">
      <!-- −1 -->
      <g transform="translate(130.784165 334.998438)scale(0.1 -0.1)">
       <defs>
        <path id="DejaVuSans-31" d="M 794 531 
L 1825 531 
L 1825 4091 
L 703 3866 
L 703 4441 
L 1819 4666 
L 2450 4666 
L 2450 531 
L 3481 531 
L 3481 0 
L 794 0 
L 794 531 
z
" transform="scale(0.015625)"/>
       </defs>
       <use xlink:href="#DejaVuSans-2212"/>
       <use xlink:href="#DejaVuSans-31" x="83.789062"/>
      </g>
     </g>
    </g>
    <g id="xtick_4">
     <g id="line2d_4">
      <g>
       <use xlink:href="#me2868584ca" x="184.732888" y="320.4" style="stroke: #000000; stroke-width: 0.8"/>
      </g>
     </g>
     <g id="text_4">
      <!-- 0 -->
      <g transform="translate(181.551638 334.998438)scale(0.1 -0.1)">
       <defs>
        <path id="DejaVuSans-30" d="M 2034 4250 
Q 1547 4250 1301 3770 
Q 1056 3291 1056 2328 
Q 1056 1369 1301 889 
Q 1547 409 2034 409 
Q 2525 409 2770 889 
Q 3016 1369 3016 2328 
Q 3016 3291 2770 3770 
Q 2525 4250 2034 4250 
z
M 2034 4750 
Q 2819 4750 3233 4129 
Q 3647 3509 3647 2328 
Q 3647 1150 3233 529 
Q 2819 -91 2034 -91 
Q 1250 -91 836 529 
Q 422 1150 422 2328 
Q 422 3509 836 4129 
Q 1250 4750 2034 4750 
z
" transform="scale(0.015625)"/>
       </defs>
       <use xlink:href="#DejaVuSans-30"/>
      </g>
     </g>
    </g>
    <g id="xtick_5">
     <g id="line2d_5">
      <g>
       <use xlink:href="#me2868584ca" x="231.310518" y="320.4" style="stroke: #000000; stroke-width: 0.8"/>
      </g>
     </g>
     <g id="text_5">
      <!-- 1 -->
      <g transform="translate(228.129268 334.998438)scale(0.1 -0.1)">
       <use xlink:href="#DejaVuSans-31"/>
      </g>
     </g>
    </g>
    <g id="xtick_6">
     <g id="line2d_6">
      <g>
       <use xlink:href="#me2868584ca" x="277.888147" y="320.4" style="stroke: #000000; stroke-width: 0.8"/>
      </g>
     </g>
     <g id="text_6">
      <!-- 2 -->
      <g transform="translate(274.706897 334.998438)scale(0.1 -0.1)">
       <use xlink:href="#DejaVuSans-32"/>
      </g>
     </g>
    </g>
   </g>
   <g id="matplotlib.axis_2">
    <g id="ytick_1">
     <g id="line2d_7">
      <defs>
       <path id="m4e2c395d62" d="M 0 0 
L -3.5 0 
" style="stroke: #000000; stroke-width: 0.8"/>
      </defs>
      <g>
       <use xlink:href="#m4e2c395d62" x="45" y="320.4" style="stroke: #000000; stroke-width: 0.8"/>
      </g>
     </g>
     <g id="text_7">
      <!-- −3 -->
      <g transform="translate(23.257812 324.199219)scale(0.1 -0.1)">
       <use xlink:href="#DejaVuSans-2212"/>
       <use xlink:href="#DejaVuSans-33" x="83.789062"/>
      </g>
     </g>
    </g>
    <g id="ytick_2">
     <g id="line2d_8">
      <g>
       <use xlink:href="#m4e2c395d62" x="45" y="274.122871" style="stroke: #000000; stroke-width: 0.8"/>
      </g>
     </g>
     <g id="text_8">
      <!-- −2 -->
      <g transform="translate(23.257812 277.92209)scale(0.1 -0.1)">
       <use xlink:href="#DejaVuSans-2212"/>
       <use xlink:href="#DejaVuSans-32" x="83.789062"/>
      </g>
     </g>
    </g>
    <g id="ytick_3">
     <g id="line2d_9">
      <g>
       <use xlink:href="#m4e2c395d62" x="45" y="227.845743" style="stroke: #000000; stroke-width: 0.8"/>
      </g>
     </g>
     <g id="text_9">
      <!-- −1 -->
      <g transform="translate(23.257812 231.644962)scale(0.1 -0.1)">
       <use xlink:href="#DejaVuSans-2212"/>
       <use xlink:href="#DejaVuSans-31" x="83.789062"/>
      </g>
     </g>
    </g>
    <g id="ytick_4">
     <g id="line2d_10">
      <g>
       <use xlink:href="#m4e2c395d62" x="45" y="181.568614" style="stroke: #000000; stroke-width: 0.8"/>
      </g>
     </g>
     <g id="text_10">
      <!-- 0 -->
      <g transform="translate(31.6375 185.367833)scale(0.1 -0.1)">
       <use xlink:href="#DejaVuSans-30"/>
      </g>
     </g>
    </g>
    <g id="ytick_5">
     <g id="line2d_11">
      <g>
       <use xlink:href="#m4e2c395d62" x="45" y="135.291486" style="stroke: #000000; stroke-width: 0.8"/>
      </g>
     </g>
     <g id="text_11">
      <!-- 1 -->
      <g transform="translate(31.6375 139.090705)scale(0.1 -0.1)">
       <use xlink:href="#DejaVuSans-31"/>
      </g>
     </g>
    </g>
    <g id="ytick_6">
     <g id="line2d_12">
      <g>
       <use xlink:href="#m4e2c395d62" x="45" y="89.014357" style="stroke: #000000; stroke-width: 0.8"/>
      </g>
     </g>
     <g id="text_12">
      <!-- 2 -->
      <g transform="translate(31.6375 92.813576)scale(0.1 -0.1)">
       <use xlink:href="#DejaVuSans-32"/>
      </g>
     </g>
    </g>
   </g>
   <g id="PathCollection_2">
    <path d="M 203.829716 203.32609 
L 203.769436 203.318865 
L 203.36394 203.271292 
L 202.898164 203.215019 
L 202.432387 203.143768 
L 201.966611 203.081582 
L 201.500835 203.011773 
L 201.035058 202.980254 
L 200.569282 202.948734 
L 200.103506 202.917217 
L 199.63773 202.8857 
L 199.200226 202.856093 
L 199.171953 202.85418 
L 198.706177 202.822662 
L 198.240401 202.791146 
L 197.774624 202.823053 
L 197.628804 202.856093 
L 197.308848 202.928592 
L 196.843072 203.034127 
L 196.377295 203.140641 
L 195.911519 203.249574 
L 195.445743 203.278586 
L 194.979967 203.281135 
L 194.51419 203.274284 
L 194.048414 203.210324 
L 193.582638 203.145359 
L 193.116861 203.082092 
L 192.651085 203.018853 
L 192.185309 202.9556 
L 191.719533 202.892311 
L 191.452971 202.856093 
L 191.253756 202.828823 
L 190.78798 202.76508 
L 190.322204 202.701374 
L 189.856427 202.637696 
L 189.390651 202.574048 
L 188.924875 202.478951 
L 188.642124 202.393322 
L 188.459098 202.343545 
L 187.993322 202.232496 
L 187.527546 202.153823 
L 187.06177 202.10673 
L 186.595993 202.028057 
L 186.26188 201.930551 
L 186.130217 201.889722 
L 185.664441 201.584694 
L 185.49361 201.46778 
L 185.198664 201.274 
L 184.734561 201.005008 
L 184.732888 201.004087 
L 184.267112 200.726031 
L 183.974473 200.542237 
L 183.801336 200.437908 
L 183.335559 200.158176 
L 183.210129 200.079466 
L 182.869783 199.873886 
L 182.443998 199.616694 
L 182.404007 199.592538 
L 181.93823 199.311198 
L 181.677857 199.153923 
L 181.472454 199.029853 
L 181.006678 198.748509 
L 180.911721 198.691152 
L 180.540902 198.467165 
L 180.145586 198.228381 
L 180.075125 198.186695 
L 179.609349 198.027448 
L 179.143573 197.895749 
L 178.683306 197.765609 
L 178.677796 197.764051 
L 178.21202 197.63235 
L 177.746244 197.500654 
L 177.280467 197.34434 
L 177.18742 197.302838 
L 176.814691 197.136524 
L 176.348915 196.93017 
L 176.138831 196.840067 
L 175.883139 196.7337 
L 175.417362 196.543503 
L 175.014072 196.377295 
L 174.951586 196.35167 
L 174.48581 196.160658 
L 174.020033 195.970208 
L 173.885631 195.914524 
L 173.554257 195.778629 
L 173.088481 195.583969 
L 172.81191 195.451753 
L 172.622705 195.358836 
L 172.156928 195.119588 
L 171.914886 194.988982 
L 171.691152 194.85387 
L 171.225376 194.572949 
L 171.140247 194.52621 
L 170.759599 194.332584 
L 170.293823 194.14484 
L 170.102411 194.063439 
L 169.828047 193.946335 
L 169.36227 193.747526 
L 168.896494 193.604608 
L 168.881937 193.600668 
L 168.430718 193.494984 
L 167.964942 193.349101 
L 167.499165 193.147509 
L 167.476956 193.137896 
L 167.033389 192.915611 
L 166.572127 192.675125 
L 166.567613 192.672559 
L 166.101836 192.407726 
L 165.758226 192.212354 
L 165.63606 192.142891 
L 165.170284 191.878051 
L 164.944342 191.749583 
L 164.704508 191.613787 
L 164.238731 191.348482 
L 164.130288 191.286811 
L 163.772955 191.083553 
L 163.337598 190.82404 
L 163.307179 190.803281 
L 162.841402 190.485408 
L 162.659498 190.361269 
L 162.375626 190.167538 
L 161.981397 189.898497 
L 161.90985 189.849671 
L 161.444073 189.531801 
L 161.30329 189.435726 
L 160.978297 189.213936 
L 160.625185 188.972955 
L 160.512521 188.896069 
L 160.046745 188.578198 
L 159.947081 188.510184 
L 159.580968 188.242263 
L 159.42731 188.047412 
L 159.285593 187.584641 
L 159.143874 187.12187 
L 159.115192 187.02821 
L 159.002156 186.659098 
L 158.860443 186.196327 
L 158.718719 185.733556 
L 158.649416 185.507242 
L 158.577008 185.270785 
L 158.43529 184.808013 
L 158.292353 184.345242 
L 158.183639 184.089082 
L 158.09466 183.882471 
L 157.895351 183.419699 
L 157.717863 183.007552 
L 157.696063 182.956928 
L 157.530351 182.494157 
L 157.505627 182.031386 
L 157.480916 181.568614 
L 157.53817 181.105843 
L 157.717863 180.689703 
L 157.738959 180.643072 
L 157.977143 180.180301 
L 158.183639 179.779084 
L 158.21532 179.717529 
L 158.453501 179.254758 
L 158.649416 178.874104 
L 158.69168 178.791987 
L 158.929856 178.329215 
L 159.115192 177.969119 
L 159.168038 177.866444 
L 159.40622 177.403673 
L 159.580968 177.064141 
L 159.645318 176.940902 
L 159.967248 176.47813 
L 160.046745 176.376674 
L 160.329864 176.015359 
L 160.512521 175.782249 
L 160.692473 175.552588 
L 160.978297 175.188178 
L 161.055328 175.089816 
L 161.43133 174.627045 
L 161.444073 174.613851 
L 161.878302 174.164274 
L 161.90985 174.131612 
L 162.325285 173.701503 
L 162.375626 173.649383 
L 162.756534 173.238731 
L 162.841402 173.144936 
L 163.174464 172.77596 
L 163.307179 172.628934 
L 163.592188 172.313189 
L 163.772955 172.108023 
L 163.990601 171.850417 
L 164.238731 171.543612 
L 164.37411 171.387646 
L 164.704508 171.098098 
L 165.045441 170.924875 
L 165.170284 170.854558 
L 165.63606 170.53644 
L 165.723283 170.462104 
L 166.101836 170.113655 
L 166.226036 169.999332 
L 166.567613 169.684914 
L 166.763396 169.536561 
L 167.033389 169.381071 
L 167.499165 169.178432 
L 167.921759 169.07379 
L 167.964942 169.062567 
L 168.430718 168.897205 
L 168.896494 168.721496 
L 169.171093 168.611018 
L 169.36227 168.537983 
L 169.828047 168.392869 
L 170.293823 168.221028 
L 170.4911 168.148247 
L 170.759599 168.049189 
L 171.225376 167.877346 
L 171.691152 167.704317 
L 171.745458 167.685476 
L 172.156928 167.533667 
L 172.622705 167.34338 
L 172.926907 167.222705 
L 173.088481 167.151422 
L 173.554257 166.920201 
L 174.020033 166.781684 
L 174.096286 166.759933 
L 174.48581 166.645978 
L 174.951586 166.496913 
L 175.417362 166.339132 
L 175.541257 166.297162 
L 175.883139 166.181349 
L 176.348915 166.023566 
L 176.814691 165.865785 
L 176.907366 165.834391 
L 177.280467 165.708003 
L 177.746244 165.550216 
L 178.21202 165.392433 
L 178.273462 165.371619 
L 178.677796 165.234655 
L 179.143573 165.076865 
L 179.609349 164.919082 
L 179.63956 164.908848 
L 180.075125 164.761306 
L 180.540902 164.603518 
L 181.005657 164.446077 
L 181.006678 164.445731 
L 181.472454 164.287951 
L 181.93823 164.130167 
L 182.371756 163.983306 
L 182.404007 163.97238 
L 182.869783 163.814368 
L 183.335559 163.65373 
L 183.690985 163.520534 
L 183.801336 163.478182 
L 184.267112 163.445255 
L 184.732888 163.448971 
L 185.198664 163.452236 
L 185.664441 163.450019 
L 186.130217 163.448046 
L 186.595993 163.445878 
L 187.06177 163.415792 
L 187.527546 163.385329 
L 187.993322 163.355285 
L 188.459098 163.325651 
L 188.924875 163.296422 
L 189.390651 163.267583 
L 189.856427 163.313756 
L 190.322204 163.441842 
L 190.608374 163.520534 
L 190.78798 163.587411 
L 191.253756 163.922862 
L 191.391933 163.983306 
L 191.719533 164.099586 
L 192.185309 164.122895 
L 192.651085 164.1462 
L 193.116861 164.169504 
L 193.582638 164.192806 
L 194.048414 164.216108 
L 194.51419 164.239418 
L 194.979967 164.26272 
L 195.445743 164.286022 
L 195.911519 164.309329 
L 196.377295 164.341789 
L 196.843072 164.385189 
L 197.308848 164.433418 
L 197.425237 164.446077 
L 197.774624 164.484078 
L 198.240401 164.534734 
L 198.706177 164.585397 
L 199.171953 164.636052 
L 199.63773 164.686714 
L 200.103506 164.737378 
L 200.569282 164.788034 
L 201.035058 164.838691 
L 201.500835 164.889349 
L 201.680104 164.908848 
L 201.966611 164.940012 
L 202.432387 164.99067 
L 202.898164 165.041323 
L 203.36394 165.09199 
L 203.829716 165.125457 
L 204.295492 165.147533 
L 204.761269 165.162469 
L 205.227045 165.1774 
L 205.692821 165.192334 
L 206.158598 165.207264 
L 206.624374 165.222198 
L 207.09015 165.237133 
L 207.555927 165.252064 
L 208.021703 165.293196 
L 208.487479 165.365578 
L 208.51748 165.371619 
L 208.953255 165.456246 
L 209.419032 165.599282 
L 209.884808 165.771846 
L 210.099262 165.834391 
L 210.350584 165.904153 
L 210.816361 166.043572 
L 211.282137 166.176846 
L 211.747913 166.290809 
L 211.772957 166.297162 
L 212.213689 166.413342 
L 212.679466 166.523807 
L 213.145242 166.640256 
L 213.611018 166.756714 
L 213.623897 166.759933 
L 214.076795 166.873157 
L 214.542571 166.989611 
L 215.008347 167.106059 
L 215.474124 167.222516 
L 215.474879 167.222705 
L 215.9399 167.338967 
L 216.405676 167.455415 
L 216.871452 167.571866 
L 217.325859 167.685476 
L 217.337229 167.688574 
L 217.803005 167.848726 
L 218.268781 168.12582 
L 218.292282 168.148247 
L 218.734558 168.5775 
L 218.758895 168.611018 
L 219.025595 169.07379 
L 219.200334 169.495755 
L 219.217309 169.536561 
L 219.389585 169.999332 
L 219.561858 170.462104 
L 219.66611 170.742148 
L 219.734135 170.924875 
L 219.906409 171.387646 
L 220.078689 171.850417 
L 220.131886 171.993316 
L 220.259061 172.313189 
L 220.421845 172.77596 
L 220.532329 173.238731 
L 220.597663 173.498638 
L 220.663468 173.701503 
L 220.813583 174.164274 
L 220.963698 174.627045 
L 221.063439 174.934537 
L 221.113808 175.089816 
L 221.263922 175.552588 
L 221.414036 176.015359 
L 221.529215 176.370431 
L 221.564151 176.47813 
L 221.714265 176.940902 
L 221.876997 177.403673 
L 221.994992 177.713615 
L 222.053173 177.866444 
L 222.229354 178.329215 
L 222.405536 178.791987 
L 222.460768 178.93707 
L 222.58171 179.254758 
L 222.75789 179.717529 
L 222.926544 180.160546 
L 222.934065 180.180301 
L 223.110248 180.643072 
L 223.24859 181.105843 
L 223.250855 181.568614 
L 223.221468 182.031386 
L 223.17889 182.494157 
L 223.036436 182.956928 
L 222.926544 183.313942 
L 222.893991 183.419699 
L 222.751534 183.882471 
L 222.609082 184.345242 
L 222.466631 184.808013 
L 222.460768 184.82706 
L 222.324178 185.270785 
L 222.230619 185.733556 
L 222.162335 186.196327 
L 222.094049 186.659098 
L 222.025762 187.12187 
L 221.994992 187.318878 
L 221.953798 187.584641 
L 221.872691 188.047412 
L 221.791588 188.510184 
L 221.710486 188.972955 
L 221.629382 189.435726 
L 221.542378 189.898497 
L 221.529215 189.9568 
L 221.421207 190.361269 
L 221.297629 190.82404 
L 221.174053 191.286811 
L 221.063439 191.701029 
L 221.050473 191.749583 
L 220.926894 192.212354 
L 220.803314 192.675125 
L 220.679739 193.137896 
L 220.597663 193.445251 
L 220.556159 193.600668 
L 220.432581 194.063439 
L 220.309 194.52621 
L 220.185418 194.988982 
L 220.131886 195.189448 
L 220.065239 195.451753 
L 219.953476 195.914524 
L 219.838708 196.377295 
L 219.720428 196.840067 
L 219.66611 196.907541 
L 219.200334 197.274297 
L 219.155485 197.302838 
L 218.734558 197.68381 
L 218.647635 197.765609 
L 218.27404 198.228381 
L 218.268781 198.234895 
L 217.900448 198.691152 
L 217.803005 198.777991 
L 217.337229 199.131067 
L 217.237526 199.153923 
L 216.871452 199.239277 
L 216.405676 199.334344 
L 215.9399 199.443356 
L 215.474124 199.55557 
L 215.220433 199.616694 
L 215.008347 199.667794 
L 214.542571 199.780046 
L 214.076795 199.900875 
L 213.611018 200.018242 
L 213.382765 200.079466 
L 213.145242 200.143725 
L 212.679466 200.306318 
L 212.360803 200.542237 
L 212.213689 200.722867 
L 211.9839 201.005008 
L 211.747913 201.283605 
L 211.533622 201.46778 
L 211.282137 201.62224 
L 210.816361 201.907159 
L 210.777164 201.930551 
L 210.350584 202.191959 
L 210.021991 202.393322 
L 209.884808 202.477388 
L 209.419032 202.762824 
L 209.266829 202.856093 
L 208.953255 203.048249 
L 208.511644 203.318865 
L 208.487479 203.331437 
L 208.021703 203.514583 
L 207.555927 203.639457 
L 207.09015 203.659903 
L 206.624374 203.643178 
L 206.158598 203.62492 
L 205.692821 203.581814 
L 205.227045 203.514202 
L 204.761269 203.44659 
L 204.295492 203.383263 
L 203.829716 203.32609 
z
" clip-path="url(#p38b58b6831)" style="fill: none; stroke-dasharray: 5.55,2.4; stroke-dashoffset: 0; stroke: #000000; stroke-width: 1.5"/>
   </g>
   <g id="PathCollection_3">
    <path d="M 197.774624 228.308883 
L 197.308848 228.219635 
L 196.843072 228.135772 
L 196.377295 227.925135 
L 193.582638 227.479033 
L 192.651085 227.3907 
L 191.719533 227.289422 
L 187.06177 226.465277 
L 186.130217 226.358838 
L 183.335559 225.745796 
L 182.869783 225.540057 
L 182.404007 225.50529 
L 180.540902 225.070347 
L 180.075125 224.957303 
L 176.814691 224.064165 
L 173.088481 221.680061 
L 169.292937 219.053088 
L 164.238731 215.596067 
L 162.375626 214.508258 
L 159.115192 213.233755 
L 155.814491 212.111519 
L 151.662771 210.136042 
L 147.470785 207.288973 
L 143.266857 204.244407 
L 142.813022 203.80925 
L 142.549656 203.781636 
L 141.396412 202.856093 
L 140.016402 201.46778 
L 139.892159 201.005008 
L 138.620391 199.616694 
L 138.576765 199.153923 
L 137.689482 198.212374 
L 137.657153 197.765609 
L 137.215372 197.302838 
L 137.07677 196.840067 
L 136.285351 195.914524 
L 136.210038 195.451753 
L 135.815971 194.988982 
L 135.771754 194.52621 
L 135.3549 194.063439 
L 135.253524 193.137896 
L 134.885525 192.675125 
L 134.861453 192.212354 
L 134.414112 191.286811 
L 134.368012 190.82404 
L 133.955597 190.361269 
L 133.930672 189.898497 
L 133.497496 189.344836 
L 133.438816 186.196327 
L 133.325457 182.956928 
L 133.031398 181.105843 
L 133.03172 179.712932 
L 133.428408 178.791987 
L 133.632699 177.403673 
L 133.935612 176.940902 
L 133.963272 176.382243 
L 134.406969 175.552588 
L 134.429048 175.084091 
L 134.854081 174.627045 
L 134.894825 174.15791 
L 135.313404 173.701503 
L 135.360601 173.231438 
L 135.770117 172.77596 
L 135.826377 172.304428 
L 136.222256 171.850417 
L 136.292154 171.376208 
L 136.665198 170.924875 
L 136.75793 170.444549 
L 137.087011 169.999332 
L 137.223706 169.521202 
L 137.540252 169.07379 
L 137.689482 168.605738 
L 138.005597 168.148247 
L 138.162752 167.685476 
L 138.470886 167.222705 
L 138.642922 166.759933 
L 139.413118 165.371619 
L 139.719182 164.908848 
L 140.48414 163.945619 
L 141.144948 163.057763 
L 143.760581 159.818364 
L 145.141903 158.236094 
L 146.937346 156.116194 
L 147.008785 155.653422 
L 149.806524 152.876795 
L 150.452984 152.414023 
L 150.742962 151.951252 
L 153.905224 148.711853 
L 153.991653 148.425196 
L 154.175309 148.249082 
L 154.457429 148.204024 
L 155.858462 146.860768 
L 156.320534 146.822902 
L 156.786311 146.393414 
L 157.252087 146.331788 
L 157.717863 145.927355 
L 158.183639 145.776043 
L 159.115192 145.106957 
L 159.580968 145.005653 
L 160.512521 144.892436 
L 160.978297 144.546054 
L 161.444073 144.526272 
L 162.102557 144.08414 
L 162.841402 144.02733 
L 163.307179 143.620666 
L 163.772955 143.602826 
L 164.445645 143.158598 
L 165.170284 143.11121 
L 165.63606 142.695265 
L 166.101836 142.679029 
L 167.033389 142.227084 
L 167.499165 142.192509 
L 167.964942 141.769852 
L 168.430718 141.754967 
L 168.896494 141.617665 
L 169.36227 141.301991 
L 169.828047 141.272162 
L 170.293823 140.844428 
L 171.225376 140.735811 
L 171.691152 140.376853 
L 172.156928 140.352631 
L 173.088481 139.913906 
L 174.020033 139.831552 
L 174.48581 139.453395 
L 175.417362 139.408762 
L 175.883139 138.992364 
L 178.223312 138.993656 
L 178.677796 139.32329 
L 179.609349 139.426863 
L 181.93823 139.56599 
L 182.404007 139.828821 
L 185.198664 139.906293 
L 189.390651 140.031528 
L 189.856427 140.105717 
L 190.322204 140.324503 
L 198.240401 140.924363 
L 200.43276 140.844741 
L 201.966611 141.060454 
L 203.829716 141.083346 
L 212.213689 142.234258 
L 215.474124 142.897058 
L 218.268781 143.636725 
L 219.66611 144.162748 
L 223.858097 146.564706 
L 229.447412 149.93152 
L 230.844741 150.767233 
L 233.173623 152.559081 
L 235.036728 153.892696 
L 236.031305 155.190651 
L 240.160267 161.212409 
L 242.489149 165.060121 
L 242.541681 165.371619 
L 242.954925 165.917469 
L 243.056538 166.297162 
L 243.420701 166.780886 
L 244.358235 169.07379 
L 244.455071 169.536561 
L 244.81803 170.315873 
L 244.835758 170.924875 
L 246.221717 176.940902 
L 246.218787 180.180301 
L 246.299928 182.031386 
L 246.493405 182.494157 
L 246.633217 183.882471 
L 246.566281 184.345242 
L 246.24162 185.270785 
L 246.148957 186.659098 
L 245.824311 187.12187 
L 245.565843 188.510184 
L 245.312163 188.972955 
L 245.208199 190.82404 
L 244.864463 191.749583 
L 244.741879 194.063439 
L 244.474514 194.52621 
L 244.370679 195.451753 
L 244.228012 197.302838 
L 243.976579 197.765609 
L 243.894616 199.153923 
L 243.87585 200.079466 
L 243.451294 201.46778 
L 243.335914 203.318865 
L 243.038207 203.781636 
L 242.954925 204.261477 
L 242.53993 204.707179 
L 242.489149 205.174067 
L 242.051289 205.632721 
L 241.997388 206.095492 
L 241.573534 206.558264 
L 241.472325 207.021035 
L 240.626043 207.957462 
L 239.321597 209.334891 
L 239.102397 209.797663 
L 234.530026 215.813689 
L 233.173623 217.286595 
L 229.447412 220.027657 
L 221.994992 223.91507 
L 215.474124 226.34397 
L 214.542571 226.493809 
L 210.264196 226.9202 
L 204.295492 227.811287 
L 203.36394 227.861189 
L 202.432387 227.980507 
L 198.706177 228.322228 
L 197.774624 228.308883 
L 197.774624 228.308883 
" clip-path="url(#p38b58b6831)" style="fill: none; stroke: #000000; stroke-width: 1.5"/>
   </g>
   <g id="PathCollection_4">
    <path d="M 200.569282 251.024367 
L 182.869783 248.61875 
L 181.006678 248.027667 
L 175.417362 246.526453 
L 168.896494 244.86782 
L 163.307179 242.179064 
L 153.991653 237.815353 
L 145.103045 232.936227 
L 138.060273 228.308514 
L 133.497496 224.890729 
L 125.579299 218.566846 
L 123.220834 216.739232 
L 122.318865 215.269201 
L 119.032035 209.797663 
L 115.111394 203.781636 
L 112.071786 198.642685 
L 110.449198 194.988982 
L 110.069875 191.286811 
L 110.010932 189.898497 
L 110.337644 182.956928 
L 110.690351 175.089816 
L 110.808443 174.164274 
L 112.615595 167.685476 
L 113.543529 164.908848 
L 118.592654 154.501153 
L 118.92081 153.802337 
L 119.524207 153.26081 
L 120.98103 151.951252 
L 123.137915 149.637396 
L 127.914764 143.158598 
L 129.771285 140.67684 
L 134.429048 136.084275 
L 136.292154 134.112549 
L 145.607679 126.798342 
L 150.265442 124.255744 
L 159.580968 120.440694 
L 170.293823 117.257192 
L 178.677796 117.379788 
L 180.540902 117.552791 
L 187.527546 117.813962 
L 189.390651 117.899739 
L 193.582638 118.11048 
L 197.774624 118.448968 
L 211.747913 118.690931 
L 212.679466 118.735567 
L 214.542571 118.635342 
L 220.197078 119.557262 
L 222.926544 120.415846 
L 227.584307 121.924087 
L 239.694491 128.100927 
L 242.489149 129.877921 
L 243.420701 130.675293 
L 246.823794 133.903172 
L 253.363656 139.919199 
L 258.409058 147.786311 
L 262.983306 156.209955 
L 266.709516 163.923137 
L 267.307521 165.834391 
L 269.032556 173.701503 
L 268.829793 177.403673 
L 268.900561 182.031386 
L 269.602029 185.733556 
L 269.486063 187.584641 
L 267.746335 202.393322 
L 267.148569 206.095492 
L 265.009016 210.260434 
L 261.947966 216.276461 
L 261.293543 218.127546 
L 260.631896 219.51586 
L 256.643772 225.531886 
L 251.659606 231.547913 
L 248.99028 234.324541 
L 240.626043 240.749783 
L 238.297162 241.593791 
L 231.70566 244.042738 
L 228.981636 245.208904 
L 227.118531 245.82072 
L 223.392321 247.069141 
L 218.734558 248.931029 
L 213.145242 249.864373 
L 208.953255 250.483779 
L 200.569282 251.024367 
L 200.569282 251.024367 
" clip-path="url(#p38b58b6831)" style="fill: none; stroke: #000000; stroke-width: 1.5"/>
   </g>
   <g id="patch_3">
    <path d="M 45 320.4 
L 45 43.2 
" style="fill: none; stroke: #000000; stroke-width: 0.8; stroke-linejoin: miter; stroke-linecap: square"/>
   </g>
   <g id="patch_4">
    <path d="M 324 320.4 
L 324 43.2 
" style="fill: none; stroke: #000000; stroke-width: 0.8; stroke-linejoin: miter; stroke-linecap: square"/>
   </g>
   <g id="patch_5">
    <path d="M 45 320.4 
L 324 320.4 
" style="fill: none; stroke: #000000; stroke-width: 0.8; stroke-linejoin: miter; stroke-linecap: square"/>
   </g>
   <g id="patch_6">
    <path d="M 45 43.2 
L 324 43.2 
" style="fill: none; stroke: #000000; stroke-width: 0.8; stroke-linejoin: miter; stroke-linecap: square"/>
   </g>
  </g>
 </g>
 <defs>
  <clipPath id="p38b58b6831">
   <rect x="45" y="43.2" width="279" height="277.2"/>
  </clipPath>
 </defs>
</svg>
