<?xml version="1.0" encoding="utf-8" standalone="no"?>
<!DOCTYPE svg PUBLIC "-//W3C//DTD SVG 1.1//EN"
  "http://www.w3.org/Graphics/SVG/1.1/DTD/svg11.dtd">
<svg xmlns:xlink="http://www.w3.org/1999/xlink" width="360pt" height="360pt" viewBox="0 0 360 360" xmlns="http://www.w3.org/2000/svg" version="1.1">
 <metadata>
  <rdf:RDF xmlns:dc="http://purl.org/dc/elements/1.1/" xmlns:cc="http://creativecommons.org/ns#" xmlns:rdf="http://www.w3.org/1999/02/22-rdf-syntax-ns#">
   <cc:Work>
    <dc:type rdf:resource="http://purl.org/dc/dcmitype/StillImage"/>
    <dc:date>2022-04-10T19:53:26.651525</dc:date>
    <dc:format>image/svg+xml</dc:format>
    <dc:creator>
     <cc:Agent>
      <dc:title>Matplotlib v3.5.1, https://matplotlib.org/</dc:title>
     </cc:Agent>
    </dc:creator>
   </cc:Work>
  </rdf:RDF>
 </metadata>
 <defs>
  <style type="text/css">*{stroke-linejoin: round; stroke-linecap: butt}</style>
 </defs>
 <g id="figure_1">
  <g id="patch_1">
   <path d="M 0 360 
L 360 360 
L 360 0 
L 0 0 
z
" style="fill: #ffffff"/>
  </g>
  <g id="axes_1">
   <g id="patch_2">
    <path d="M 45 320.4 
L 324 320.4 
L 324 43.2 
L 45 43.2 
z
" style="fill: #ffffff"/>
   </g>
   <g id="PathCollection_1">
    <defs>
     <path id="me30c02a7fb" d="M 0 0.5 
C 0.132602 0.5 0.25979 0.447317 0.353553 0.353553 
C 0.447317 0.25979 0.5 0.132602 0.5 0 
C 0.5 -0.132602 0.447317 -0.25979 0.353553 -0.353553 
C 0.25979 -0.447317 0.132602 -0.5 0 -0.5 
C -0.132602 -0.5 -0.25979 -0.447317 -0.353553 -0.353553 
C -0.447317 -0.25979 -0.5 -0.132602 -0.5 0 
C -0.5 0.132602 -0.447317 0.25979 -0.353553 0.353553 
C -0.25979 0.447317 -0.132602 0.5 0 0.5 
z
" style="stroke: #ff0000"/>
    </defs>
    <g clip-path="url(#p7ede1fce44)">
     <use xlink:href="#me30c02a7fb" x="209.283047" y="181.336455" style="fill: #ff0000; stroke: #ff0000"/>
     <use xlink:href="#me30c02a7fb" x="209.896896" y="178.896872" style="fill: #ff0000; stroke: #ff0000"/>
     <use xlink:href="#me30c02a7fb" x="210.888469" y="176.213531" style="fill: #ff0000; stroke: #ff0000"/>
     <use xlink:href="#me30c02a7fb" x="212.113629" y="173.154609" style="fill: #ff0000; stroke: #ff0000"/>
     <use xlink:href="#me30c02a7fb" x="213.3543" y="169.653728" style="fill: #ff0000; stroke: #ff0000"/>
     <use xlink:href="#me30c02a7fb" x="214.365631" y="165.723703" style="fill: #ff0000; stroke: #ff0000"/>
     <use xlink:href="#me30c02a7fb" x="214.927339" y="161.446455" style="fill: #ff0000; stroke: #ff0000"/>
     <use xlink:href="#me30c02a7fb" x="214.876602" y="156.948278" style="fill: #ff0000; stroke: #ff0000"/>
     <use xlink:href="#me30c02a7fb" x="214.113428" y="152.377627" style="fill: #ff0000; stroke: #ff0000"/>
     <use xlink:href="#me30c02a7fb" x="212.5907" y="147.893499" style="fill: #ff0000; stroke: #ff0000"/>
     <use xlink:href="#me30c02a7fb" x="210.307439" y="143.655822" style="fill: #ff0000; stroke: #ff0000"/>
     <use xlink:href="#me30c02a7fb" x="207.309586" y="139.805267" style="fill: #ff0000; stroke: #ff0000"/>
     <use xlink:href="#me30c02a7fb" x="203.686162" y="136.434895" style="fill: #ff0000; stroke: #ff0000"/>
     <use xlink:href="#me30c02a7fb" x="199.549465" y="133.573195" style="fill: #ff0000; stroke: #ff0000"/>
     <use xlink:href="#me30c02a7fb" x="195.004745" y="131.196651" style="fill: #ff0000; stroke: #ff0000"/>
     <use xlink:href="#me30c02a7fb" x="190.128084" y="129.268672" style="fill: #ff0000; stroke: #ff0000"/>
     <use xlink:href="#me30c02a7fb" x="184.966555" y="127.780486" style="fill: #ff0000; stroke: #ff0000"/>
     <use xlink:href="#me30c02a7fb" x="179.557206" y="126.768748" style="fill: #ff0000; stroke: #ff0000"/>
     <use xlink:href="#me30c02a7fb" x="173.949013" y="126.304877" style="fill: #ff0000; stroke: #ff0000"/>
     <use xlink:href="#me30c02a7fb" x="168.2156" y="126.472218" style="fill: #ff0000; stroke: #ff0000"/>
     <use xlink:href="#me30c02a7fb" x="162.459293" y="127.349681" style="fill: #ff0000; stroke: #ff0000"/>
     <use xlink:href="#me30c02a7fb" x="156.81344" y="129.005492" style="fill: #ff0000; stroke: #ff0000"/>
     <use xlink:href="#me30c02a7fb" x="151.444278" y="131.490497" style="fill: #ff0000; stroke: #ff0000"/>
     <use xlink:href="#me30c02a7fb" x="146.544693" y="134.821327" style="fill: #ff0000; stroke: #ff0000"/>
     <use xlink:href="#me30c02a7fb" x="142.311358" y="138.956453" style="fill: #ff0000; stroke: #ff0000"/>
     <use xlink:href="#me30c02a7fb" x="138.905344" y="143.778876" style="fill: #ff0000; stroke: #ff0000"/>
     <use xlink:href="#me30c02a7fb" x="136.406046" y="149.098696" style="fill: #ff0000; stroke: #ff0000"/>
     <use xlink:href="#me30c02a7fb" x="134.77219" y="154.680101" style="fill: #ff0000; stroke: #ff0000"/>
     <use xlink:href="#me30c02a7fb" x="133.823317" y="160.288904" style="fill: #ff0000; stroke: #ff0000"/>
     <use xlink:href="#me30c02a7fb" x="133.255389" y="165.751247" style="fill: #ff0000; stroke: #ff0000"/>
     <use xlink:href="#me30c02a7fb" x="132.702661" y="171.00759" style="fill: #ff0000; stroke: #ff0000"/>
     <use xlink:href="#me30c02a7fb" x="131.844715" y="176.138165" style="fill: #ff0000; stroke: #ff0000"/>
     <use xlink:href="#me30c02a7fb" x="130.530314" y="181.336455" style="fill: #ff0000; stroke: #ff0000"/>
     <use xlink:href="#me30c02a7fb" x="128.864278" y="186.826398" style="fill: #ff0000; stroke: #ff0000"/>
     <use xlink:href="#me30c02a7fb" x="127.205324" y="192.751753" style="fill: #ff0000; stroke: #ff0000"/>
     <use xlink:href="#me30c02a7fb" x="126.061559" y="199.089809" style="fill: #ff0000; stroke: #ff0000"/>
     <use xlink:href="#me30c02a7fb" x="125.925013" y="205.634483" style="fill: #ff0000; stroke: #ff0000"/>
     <use xlink:href="#me30c02a7fb" x="127.119232" y="212.057009" style="fill: #ff0000; stroke: #ff0000"/>
     <use xlink:href="#me30c02a7fb" x="129.721892" y="218.011608" style="fill: #ff0000; stroke: #ff0000"/>
     <use xlink:href="#me30c02a7fb" x="133.580865" y="223.235529" style="fill: #ff0000; stroke: #ff0000"/>
     <use xlink:href="#me30c02a7fb" x="138.39875" y="227.603823" style="fill: #ff0000; stroke: #ff0000"/>
     <use xlink:href="#me30c02a7fb" x="143.840279" y="231.125661" style="fill: #ff0000; stroke: #ff0000"/>
     <use xlink:href="#me30c02a7fb" x="149.620514" y="233.894259" style="fill: #ff0000; stroke: #ff0000"/>
     <use xlink:href="#me30c02a7fb" x="155.549487" y="236.016852" style="fill: #ff0000; stroke: #ff0000"/>
     <use xlink:href="#me30c02a7fb" x="161.529826" y="237.552684" style="fill: #ff0000; stroke: #ff0000"/>
     <use xlink:href="#me30c02a7fb" x="167.519985" y="238.479034" style="fill: #ff0000; stroke: #ff0000"/>
     <use xlink:href="#me30c02a7fb" x="173.48327" y="238.694374" style="fill: #ff0000; stroke: #ff0000"/>
     <use xlink:href="#me30c02a7fb" x="179.343724" y="238.057694" style="fill: #ff0000; stroke: #ff0000"/>
     <use xlink:href="#me30c02a7fb" x="184.966555" y="236.45279" style="fill: #ff0000; stroke: #ff0000"/>
     <use xlink:href="#me30c02a7fb" x="190.172777" y="233.855081" style="fill: #ff0000; stroke: #ff0000"/>
     <use xlink:href="#me30c02a7fb" x="194.783767" y="230.372495" style="fill: #ff0000; stroke: #ff0000"/>
     <use xlink:href="#me30c02a7fb" x="198.676169" y="226.239417" style="fill: #ff0000; stroke: #ff0000"/>
     <use xlink:href="#me30c02a7fb" x="201.820641" y="221.763305" style="fill: #ff0000; stroke: #ff0000"/>
     <use xlink:href="#me30c02a7fb" x="204.284863" y="217.245293" style="fill: #ff0000; stroke: #ff0000"/>
     <use xlink:href="#me30c02a7fb" x="206.198107" y="212.906716" style="fill: #ff0000; stroke: #ff0000"/>
     <use xlink:href="#me30c02a7fb" x="207.692801" y="208.849807" style="fill: #ff0000; stroke: #ff0000"/>
     <use xlink:href="#me30c02a7fb" x="208.850967" y="205.066774" style="fill: #ff0000; stroke: #ff0000"/>
     <use xlink:href="#me30c02a7fb" x="209.684199" y="201.490828" style="fill: #ff0000; stroke: #ff0000"/>
     <use xlink:href="#me30c02a7fb" x="210.16036" y="198.061811" style="fill: #ff0000; stroke: #ff0000"/>
     <use xlink:href="#me30c02a7fb" x="210.262558" y="194.770218" style="fill: #ff0000; stroke: #ff0000"/>
     <use xlink:href="#me30c02a7fb" x="210.043922" y="191.656825" style="fill: #ff0000; stroke: #ff0000"/>
     <use xlink:href="#me30c02a7fb" x="209.644168" y="188.774031" style="fill: #ff0000; stroke: #ff0000"/>
     <use xlink:href="#me30c02a7fb" x="209.260193" y="186.137584" style="fill: #ff0000; stroke: #ff0000"/>
     <use xlink:href="#me30c02a7fb" x="209.090752" y="183.697152" style="fill: #ff0000; stroke: #ff0000"/>
    </g>
   </g>
   <g id="matplotlib.axis_1">
    <g id="xtick_1">
     <g id="line2d_1">
      <defs>
       <path id="mc4ca2e4d08" d="M 0 0 
L 0 3.5 
" style="stroke: #000000; stroke-width: 0.8"/>
      </defs>
      <g>
       <use xlink:href="#mc4ca2e4d08" x="45" y="320.4" style="stroke: #000000; stroke-width: 0.8"/>
      </g>
     </g>
     <g id="text_1">
      <!-- −3 -->
      <g transform="translate(37.628906 334.998438)scale(0.1 -0.1)">
       <defs>
        <path id="DejaVuSans-2212" d="M 678 2272 
L 4684 2272 
L 4684 1741 
L 678 1741 
L 678 2272 
z
" transform="scale(0.015625)"/>
        <path id="DejaVuSans-33" d="M 2597 2516 
Q 3050 2419 3304 2112 
Q 3559 1806 3559 1356 
Q 3559 666 3084 287 
Q 2609 -91 1734 -91 
Q 1441 -91 1130 -33 
Q 819 25 488 141 
L 488 750 
Q 750 597 1062 519 
Q 1375 441 1716 441 
Q 2309 441 2620 675 
Q 2931 909 2931 1356 
Q 2931 1769 2642 2001 
Q 2353 2234 1838 2234 
L 1294 2234 
L 1294 2753 
L 1863 2753 
Q 2328 2753 2575 2939 
Q 2822 3125 2822 3475 
Q 2822 3834 2567 4026 
Q 2313 4219 1838 4219 
Q 1578 4219 1281 4162 
Q 984 4106 628 3988 
L 628 4550 
Q 988 4650 1302 4700 
Q 1616 4750 1894 4750 
Q 2613 4750 3031 4423 
Q 3450 4097 3450 3541 
Q 3450 3153 3228 2886 
Q 3006 2619 2597 2516 
z
" transform="scale(0.015625)"/>
       </defs>
       <use xlink:href="#DejaVuSans-2212"/>
       <use xlink:href="#DejaVuSans-33" x="83.789062"/>
      </g>
     </g>
    </g>
    <g id="xtick_2">
     <g id="line2d_2">
      <g>
       <use xlink:href="#mc4ca2e4d08" x="91.655518" y="320.4" style="stroke: #000000; stroke-width: 0.8"/>
      </g>
     </g>
     <g id="text_2">
      <!-- −2 -->
      <g transform="translate(84.284425 334.998438)scale(0.1 -0.1)">
       <defs>
        <path id="DejaVuSans-32" d="M 1228 531 
L 3431 531 
L 3431 0 
L 469 0 
L 469 531 
Q 828 903 1448 1529 
Q 2069 2156 2228 2338 
Q 2531 2678 2651 2914 
Q 2772 3150 2772 3378 
Q 2772 3750 2511 3984 
Q 2250 4219 1831 4219 
Q 1534 4219 1204 4116 
Q 875 4013 500 3803 
L 500 4441 
Q 881 4594 1212 4672 
Q 1544 4750 1819 4750 
Q 2544 4750 2975 4387 
Q 3406 4025 3406 3419 
Q 3406 3131 3298 2873 
Q 3191 2616 2906 2266 
Q 2828 2175 2409 1742 
Q 1991 1309 1228 531 
z
" transform="scale(0.015625)"/>
       </defs>
       <use xlink:href="#DejaVuSans-2212"/>
       <use xlink:href="#DejaVuSans-32" x="83.789062"/>
      </g>
     </g>
    </g>
    <g id="xtick_3">
     <g id="line2d_3">
      <g>
       <use xlink:href="#mc4ca2e4d08" x="138.311037" y="320.4" style="stroke: #000000; stroke-width: 0.8"/>
      </g>
     </g>
     <g id="text_3">
      <!-- −1 -->
      <g transform="translate(130.939943 334.998438)scale(0.1 -0.1)">
       <defs>
        <path id="DejaVuSans-31" d="M 794 531 
L 1825 531 
L 1825 4091 
L 703 3866 
L 703 4441 
L 1819 4666 
L 2450 4666 
L 2450 531 
L 3481 531 
L 3481 0 
L 794 0 
L 794 531 
z
" transform="scale(0.015625)"/>
       </defs>
       <use xlink:href="#DejaVuSans-2212"/>
       <use xlink:href="#DejaVuSans-31" x="83.789062"/>
      </g>
     </g>
    </g>
    <g id="xtick_4">
     <g id="line2d_4">
      <g>
       <use xlink:href="#mc4ca2e4d08" x="184.966555" y="320.4" style="stroke: #000000; stroke-width: 0.8"/>
      </g>
     </g>
     <g id="text_4">
      <!-- 0 -->
      <g transform="translate(181.785305 334.998438)scale(0.1 -0.1)">
       <defs>
        <path id="DejaVuSans-30" d="M 2034 4250 
Q 1547 4250 1301 3770 
Q 1056 3291 1056 2328 
Q 1056 1369 1301 889 
Q 1547 409 2034 409 
Q 2525 409 2770 889 
Q 3016 1369 3016 2328 
Q 3016 3291 2770 3770 
Q 2525 4250 2034 4250 
z
M 2034 4750 
Q 2819 4750 3233 4129 
Q 3647 3509 3647 2328 
Q 3647 1150 3233 529 
Q 2819 -91 2034 -91 
Q 1250 -91 836 529 
Q 422 1150 422 2328 
Q 422 3509 836 4129 
Q 1250 4750 2034 4750 
z
" transform="scale(0.015625)"/>
       </defs>
       <use xlink:href="#DejaVuSans-30"/>
      </g>
     </g>
    </g>
    <g id="xtick_5">
     <g id="line2d_5">
      <g>
       <use xlink:href="#mc4ca2e4d08" x="231.622074" y="320.4" style="stroke: #000000; stroke-width: 0.8"/>
      </g>
     </g>
     <g id="text_5">
      <!-- 1 -->
      <g transform="translate(228.440824 334.998438)scale(0.1 -0.1)">
       <use xlink:href="#DejaVuSans-31"/>
      </g>
     </g>
    </g>
    <g id="xtick_6">
     <g id="line2d_6">
      <g>
       <use xlink:href="#mc4ca2e4d08" x="278.277592" y="320.4" style="stroke: #000000; stroke-width: 0.8"/>
      </g>
     </g>
     <g id="text_6">
      <!-- 2 -->
      <g transform="translate(275.096342 334.998438)scale(0.1 -0.1)">
       <use xlink:href="#DejaVuSans-32"/>
      </g>
     </g>
    </g>
   </g>
   <g id="matplotlib.axis_2">
    <g id="ytick_1">
     <g id="line2d_7">
      <defs>
       <path id="mf70873291f" d="M 0 0 
L -3.5 0 
" style="stroke: #000000; stroke-width: 0.8"/>
      </defs>
      <g>
       <use xlink:href="#mf70873291f" x="45" y="320.4" style="stroke: #000000; stroke-width: 0.8"/>
      </g>
     </g>
     <g id="text_7">
      <!-- −3 -->
      <g transform="translate(23.257812 324.199219)scale(0.1 -0.1)">
       <use xlink:href="#DejaVuSans-2212"/>
       <use xlink:href="#DejaVuSans-33" x="83.789062"/>
      </g>
     </g>
    </g>
    <g id="ytick_2">
     <g id="line2d_8">
      <g>
       <use xlink:href="#mf70873291f" x="45" y="274.045485" style="stroke: #000000; stroke-width: 0.8"/>
      </g>
     </g>
     <g id="text_8">
      <!-- −2 -->
      <g transform="translate(23.257812 277.844704)scale(0.1 -0.1)">
       <use xlink:href="#DejaVuSans-2212"/>
       <use xlink:href="#DejaVuSans-32" x="83.789062"/>
      </g>
     </g>
    </g>
    <g id="ytick_3">
     <g id="line2d_9">
      <g>
       <use xlink:href="#mf70873291f" x="45" y="227.69097" style="stroke: #000000; stroke-width: 0.8"/>
      </g>
     </g>
     <g id="text_9">
      <!-- −1 -->
      <g transform="translate(23.257812 231.490189)scale(0.1 -0.1)">
       <use xlink:href="#DejaVuSans-2212"/>
       <use xlink:href="#DejaVuSans-31" x="83.789062"/>
      </g>
     </g>
    </g>
    <g id="ytick_4">
     <g id="line2d_10">
      <g>
       <use xlink:href="#mf70873291f" x="45" y="181.336455" style="stroke: #000000; stroke-width: 0.8"/>
      </g>
     </g>
     <g id="text_10">
      <!-- 0 -->
      <g transform="translate(31.6375 185.135674)scale(0.1 -0.1)">
       <use xlink:href="#DejaVuSans-30"/>
      </g>
     </g>
    </g>
    <g id="ytick_5">
     <g id="line2d_11">
      <g>
       <use xlink:href="#mf70873291f" x="45" y="134.98194" style="stroke: #000000; stroke-width: 0.8"/>
      </g>
     </g>
     <g id="text_11">
      <!-- 1 -->
      <g transform="translate(31.6375 138.781159)scale(0.1 -0.1)">
       <use xlink:href="#DejaVuSans-31"/>
      </g>
     </g>
    </g>
    <g id="ytick_6">
     <g id="line2d_12">
      <g>
       <use xlink:href="#mf70873291f" x="45" y="88.627425" style="stroke: #000000; stroke-width: 0.8"/>
      </g>
     </g>
     <g id="text_12">
      <!-- 2 -->
      <g transform="translate(31.6375 92.426643)scale(0.1 -0.1)">
       <use xlink:href="#DejaVuSans-32"/>
      </g>
     </g>
    </g>
   </g>
   <g id="PathCollection_2">
    <path d="M 169.103679 215.983693 
L 168.351242 215.638796 
L 168.170569 215.552416 
L 167.237458 215.096334 
L 166.450533 214.711706 
L 166.304348 214.640165 
L 165.371237 214.183814 
L 164.438127 213.868216 
L 164.005686 213.784615 
L 163.505017 213.688106 
L 162.571906 213.388571 
L 161.638796 213.088389 
L 160.879862 212.857525 
L 160.705686 212.805559 
L 159.772575 212.519071 
L 158.839465 212.216885 
L 158.215354 211.930435 
L 157.906355 211.762679 
L 156.973244 211.218209 
L 156.60735 211.003344 
L 156.040134 210.670255 
L 155.147073 210.076254 
L 155.107023 210.048535 
L 154.173913 209.435737 
L 153.737202 209.149164 
L 153.240803 208.823554 
L 152.324366 208.222074 
L 152.307692 208.210998 
L 151.374582 207.602905 
L 151.030391 207.294983 
L 150.441472 206.448999 
L 150.387999 206.367893 
L 149.856529 205.440803 
L 149.568107 204.513712 
L 149.508361 204.203211 
L 149.393877 203.586622 
L 149.274173 202.659532 
L 149.132857 201.732441 
L 149.06525 200.805351 
L 149.076202 199.878261 
L 149.267104 198.951171 
L 149.508361 198.304735 
L 149.612366 198.02408 
L 149.980551 197.09699 
L 150.441472 196.231397 
L 150.476404 196.1699 
L 151.006602 195.242809 
L 151.374582 194.529002 
L 151.474916 194.315719 
L 151.847619 193.388629 
L 152.220761 192.461538 
L 152.307692 192.257821 
L 152.609869 191.534448 
L 152.888403 190.607358 
L 153.071278 189.680268 
L 153.240803 188.821216 
L 153.254206 188.753177 
L 153.437184 187.826087 
L 153.620131 186.898997 
L 153.803082 185.971906 
L 153.986036 185.044816 
L 154.168987 184.117726 
L 154.173913 184.09229 
L 154.322952 183.190635 
L 154.357267 182.263545 
L 154.378084 181.336455 
L 154.414222 180.409365 
L 154.470821 179.482274 
L 154.579558 178.555184 
L 154.724539 177.628094 
L 154.870192 176.701003 
L 155.025152 175.773913 
L 155.107023 175.3354 
L 155.202109 174.846823 
L 155.383461 173.919732 
L 155.51522 172.992642 
L 155.656447 172.065552 
L 155.680252 171.138462 
L 155.690977 170.211371 
L 155.839494 169.284281 
L 155.926036 168.357191 
L 155.839038 167.4301 
L 155.803377 166.50301 
L 155.999901 165.57592 
L 156.040134 165.423238 
L 156.278252 164.648829 
L 156.611515 163.721739 
L 156.785708 162.794649 
L 156.925844 161.867559 
L 156.973244 161.291415 
L 157.000482 160.940468 
L 157.074443 160.013378 
L 157.193699 159.086288 
L 157.302423 158.159197 
L 157.670495 157.232107 
L 157.906355 156.941025 
L 158.337446 156.305017 
L 158.839465 155.709043 
L 159.107928 155.377926 
L 159.772575 154.563622 
L 159.881514 154.450836 
L 160.705686 153.799519 
L 161.098238 153.523746 
L 161.638796 153.089157 
L 162.571906 152.614419 
L 162.603944 152.596656 
L 163.505017 152.031147 
L 164.209347 151.669565 
L 164.438127 151.536337 
L 165.371237 151.015812 
L 165.842128 150.742475 
L 166.304348 150.430792 
L 167.13914 149.815385 
L 167.237458 149.755166 
L 168.170569 149.520068 
L 169.103679 149.36289 
L 170.036789 149.223931 
L 170.9699 149.071671 
L 171.804519 148.888294 
L 171.90301 148.865114 
L 172.83612 148.658774 
L 173.769231 148.461711 
L 174.702341 148.346636 
L 175.635452 148.155388 
L 176.568562 148.310407 
L 177.501672 148.617878 
L 178.001289 148.888294 
L 178.434783 149.126882 
L 179.367893 149.63719 
L 179.698096 149.815385 
L 180.301003 150.14075 
L 181.234114 150.644303 
L 181.423809 150.742475 
L 182.167224 151.106688 
L 183.061443 151.669565 
L 183.100334 151.692837 
L 184.033445 152.475641 
L 184.159529 152.596656 
L 184.966555 153.371227 
L 185.133385 153.523746 
L 185.899666 154.192623 
L 186.170158 154.450836 
L 186.673902 155.377926 
L 186.832776 155.690415 
L 187.143881 156.305017 
L 187.582071 157.232107 
L 187.765886 157.623751 
L 187.996585 158.159197 
L 188.358358 159.086288 
L 188.46909 160.013378 
L 188.407764 160.940468 
L 188.373166 161.867559 
L 188.338517 162.794649 
L 188.303916 163.721739 
L 188.279522 164.648829 
L 188.26712 165.57592 
L 188.244241 166.50301 
L 188.195151 167.4301 
L 188.1007 168.357191 
L 187.801552 169.284281 
L 187.765886 169.396212 
L 187.499615 170.211371 
L 187.146863 171.138462 
L 186.832776 171.979091 
L 186.801242 172.065552 
L 186.449862 172.992642 
L 186.169408 173.919732 
L 186.101633 174.846823 
L 186.050382 175.773913 
L 186.054511 176.701003 
L 186.10537 177.628094 
L 186.162642 178.555184 
L 186.238162 179.482274 
L 186.2935 180.409365 
L 186.494074 181.336455 
L 186.765241 182.263545 
L 186.832776 182.503022 
L 187.026985 183.190635 
L 187.286571 184.117726 
L 187.524891 185.044816 
L 187.739199 185.971906 
L 187.765886 186.108064 
L 187.903163 186.898997 
L 187.993275 187.826087 
L 188.082023 188.753177 
L 188.172421 189.680268 
L 188.272216 190.607358 
L 188.049137 191.534448 
L 187.765886 192.315948 
L 187.713002 192.461538 
L 187.376513 193.388629 
L 187.038836 194.315719 
L 186.832776 194.903181 
L 186.722917 195.242809 
L 186.471588 196.1699 
L 186.205281 197.09699 
L 185.93513 198.02408 
L 185.899666 198.153756 
L 185.685273 198.951171 
L 185.568095 199.878261 
L 185.461762 200.805351 
L 185.333371 201.732441 
L 185.153106 202.659532 
L 184.966555 203.467629 
L 184.938454 203.586622 
L 184.7505 204.513712 
L 184.434385 205.440803 
L 184.033445 206.123712 
L 183.878293 206.367893 
L 183.287672 207.294983 
L 183.100334 207.589058 
L 182.724127 208.222074 
L 182.18008 209.149164 
L 182.167224 209.17124 
L 181.646043 210.076254 
L 181.234114 210.791541 
L 181.111506 211.003344 
L 180.550193 211.930435 
L 180.301003 212.320927 
L 179.94662 212.857525 
L 179.367893 213.680394 
L 179.290969 213.784615 
L 178.514551 214.711706 
L 178.434783 214.773248 
L 177.501672 215.191619 
L 176.568562 215.593571 
L 176.388421 215.638796 
L 175.635452 215.826069 
L 174.702341 216.058144 
L 173.769231 216.287411 
L 172.83612 216.511179 
L 171.90301 216.55573 
L 170.9699 216.441342 
L 170.036789 216.241976 
L 169.103679 215.983693 
z
" clip-path="url(#p7ede1fce44)" style="fill: none; stroke-dasharray: 5.55,2.4; stroke-dashoffset: 0; stroke: #000000; stroke-width: 1.5"/>
   </g>
   <g id="PathCollection_3">
    <path d="M 169.103679 238.96501 
L 168.476541 238.816054 
L 168.170569 238.67309 
L 167.237458 238.386741 
L 166.304348 237.986964 
L 165.371237 237.900135 
L 164.983774 237.888963 
L 164.438127 237.812603 
L 163.505017 237.705978 
L 162.571906 237.622935 
L 161.638796 237.522573 
L 160.705686 237.366725 
L 159.772575 237.219049 
L 158.839465 237.013616 
L 158.452768 236.961873 
L 157.906355 236.833581 
L 156.973244 236.609723 
L 156.040134 236.266422 
L 155.555574 236.034783 
L 155.107023 235.825509 
L 154.173913 235.409549 
L 153.345379 235.107692 
L 153.240803 235.061296 
L 152.307692 234.760355 
L 151.374582 234.406279 
L 150.850482 234.180602 
L 150.441472 233.999273 
L 149.508361 233.67723 
L 148.575251 233.269064 
L 148.516076 233.253512 
L 147.64214 232.787626 
L 146.856263 232.326421 
L 146.70903 232.22178 
L 145.77592 231.730001 
L 145.229733 231.399331 
L 144.842809 231.168589 
L 143.909699 230.661746 
L 143.609476 230.472241 
L 142.976589 230.121344 
L 142.043478 229.571508 
L 141.966536 229.545151 
L 141.110368 229.088661 
L 140.279436 228.61806 
L 140.177258 228.545695 
L 139.244147 228.064055 
L 138.572585 227.69097 
L 138.311037 227.525943 
L 137.377926 227.049993 
L 136.896453 226.76388 
L 136.444816 226.500185 
L 135.511706 225.889643 
L 135.407169 225.836789 
L 134.578595 225.175459 
L 134.278395 224.909699 
L 133.645485 224.31927 
L 133.343832 223.982609 
L 132.786492 223.055518 
L 132.712375 222.978671 
L 132.165215 222.128428 
L 131.779264 221.511412 
L 131.702537 221.201338 
L 131.12802 220.274247 
L 130.846154 219.853138 
L 130.572623 219.347157 
L 129.913043 218.500834 
L 129.89997 218.420067 
L 129.183226 217.492977 
L 128.979933 217.271931 
L 128.48984 216.565886 
L 128.146008 215.638796 
L 128.046823 215.463511 
L 127.950707 214.711706 
L 127.412671 213.784615 
L 127.113712 212.985456 
L 127.108294 212.857525 
L 126.733413 211.930435 
L 126.426768 211.003344 
L 126.180602 210.380998 
L 126.165432 210.076254 
L 125.725536 209.149164 
L 125.451608 208.222074 
L 125.247492 207.524988 
L 125.242895 207.294983 
L 125.210593 206.367893 
L 125.170237 205.440803 
L 125.11742 204.513712 
L 125.087984 203.586622 
L 125.15238 202.659532 
L 125.183774 201.732441 
L 125.202369 200.805351 
L 125.218503 199.878261 
L 125.247308 198.951171 
L 125.247492 198.935385 
L 125.505968 198.02408 
L 125.654371 197.09699 
L 126.054948 196.1699 
L 126.175089 195.242809 
L 126.180602 194.852004 
L 126.375533 194.315719 
L 126.454962 193.388629 
L 126.590723 192.461538 
L 126.805093 191.534448 
L 127.077467 190.607358 
L 127.112282 189.680268 
L 127.113712 189.548443 
L 127.30673 188.753177 
L 127.450095 187.826087 
L 127.621954 186.898997 
L 127.966534 185.971906 
L 128.046823 185.197174 
L 128.104009 185.044816 
L 128.498511 184.117726 
L 128.971185 183.190635 
L 128.979933 183.049691 
L 129.341715 182.263545 
L 129.894734 181.336455 
L 129.913043 181.191801 
L 130.348378 180.409365 
L 130.843299 179.482274 
L 130.846154 179.43744 
L 131.185103 178.555184 
L 131.611001 177.628094 
L 131.779264 177.001015 
L 131.924836 176.701003 
L 132.228762 175.773913 
L 132.634069 174.846823 
L 132.700487 173.919732 
L 132.712375 173.144082 
L 132.730994 172.992642 
L 132.792298 172.065552 
L 132.812612 171.138462 
L 132.801306 170.211371 
L 132.712375 169.539271 
L 132.708244 169.284281 
L 132.673523 168.357191 
L 132.702067 167.4301 
L 132.712375 166.688016 
L 132.747886 166.50301 
L 132.891442 165.57592 
L 133.004573 164.648829 
L 133.115461 163.721739 
L 133.165571 162.794649 
L 133.204825 161.867559 
L 133.244119 160.940468 
L 133.283455 160.013378 
L 133.456493 159.086288 
L 133.564518 158.159197 
L 133.591333 157.232107 
L 133.610701 156.305017 
L 133.645485 155.71868 
L 133.780942 155.377926 
L 134.099644 154.450836 
L 134.54276 153.523746 
L 134.578595 153.222738 
L 134.848131 152.596656 
L 135.171479 151.669565 
L 135.511706 150.798335 
L 135.544503 150.742475 
L 135.881194 149.815385 
L 136.287745 148.888294 
L 136.444816 148.35529 
L 136.630604 147.961204 
L 136.967371 147.034114 
L 137.377926 146.456229 
L 137.675345 146.107023 
L 138.311037 145.282904 
L 138.399801 145.179933 
L 139.076276 144.252843 
L 139.244147 144.026024 
L 139.762163 143.325753 
L 140.177258 142.765002 
L 140.442582 142.398662 
L 141.087607 141.471572 
L 141.110368 141.44128 
L 141.715595 140.544482 
L 142.043478 140.070899 
L 142.344791 139.617391 
L 142.976589 138.701409 
L 142.986166 138.690301 
L 143.664588 137.763211 
L 143.909699 137.501329 
L 144.637679 136.83612 
L 144.842809 136.652851 
L 145.77592 135.951556 
L 145.826575 135.90903 
L 146.70903 135.237679 
L 147.045181 134.98194 
L 147.64214 134.527782 
L 148.255278 134.054849 
L 148.575251 133.791385 
L 149.428535 133.127759 
L 149.508361 133.059943 
L 150.441472 132.332076 
L 150.607819 132.200669 
L 151.374582 131.594961 
L 151.78142 131.273579 
L 152.307692 130.857851 
L 152.952107 130.346488 
L 153.240803 130.108987 
L 154.173913 129.582224 
L 154.465288 129.419398 
L 155.107023 129.073542 
L 156.040134 128.715687 
L 156.733201 128.492308 
L 156.973244 128.406482 
L 157.906355 128.142613 
L 158.839465 127.947128 
L 159.772575 127.803417 
L 160.705686 127.732315 
L 161.638796 127.697318 
L 162.150023 127.565217 
L 162.571906 127.462835 
L 163.505017 127.306873 
L 164.438127 127.177701 
L 165.371237 127.052179 
L 166.304348 126.90202 
L 167.237458 126.741638 
L 167.619184 126.638127 
L 168.170569 126.514068 
L 169.103679 126.327799 
L 170.036789 126.166183 
L 170.9699 125.995954 
L 171.90301 125.833572 
L 172.362981 125.711037 
L 172.83612 125.621074 
L 173.769231 125.571179 
L 174.702341 125.653518 
L 175.103351 125.711037 
L 175.635452 125.855401 
L 176.568562 126.091913 
L 177.501672 126.330163 
L 178.434783 126.601065 
L 178.637809 126.638127 
L 179.367893 126.888975 
L 180.301003 127.147887 
L 181.234114 127.412052 
L 181.656293 127.565217 
L 182.167224 127.772527 
L 183.100334 128.090032 
L 184.033445 128.41601 
L 184.212992 128.492308 
L 184.966555 128.781122 
L 185.899666 129.129684 
L 186.832776 129.273179 
L 187.666505 129.419398 
L 187.765886 129.442207 
L 188.698997 129.606209 
L 189.632107 129.766822 
L 190.565217 130.099354 
L 191.168496 130.346488 
L 191.498328 130.491969 
L 192.431438 130.841092 
L 193.364548 131.197843 
L 193.535371 131.273579 
L 194.297659 131.57225 
L 195.230769 131.931303 
L 195.794333 132.200669 
L 196.16388 132.389834 
L 197.09699 132.967609 
L 197.354106 133.127759 
L 198.0301 133.488003 
L 198.963211 133.918744 
L 199.197663 134.054849 
L 199.896321 134.421617 
L 200.829431 134.917823 
L 200.965704 134.98194 
L 201.762542 135.342713 
L 202.695652 135.674348 
L 203.245989 135.90903 
L 203.628763 136.150792 
L 204.247216 136.83612 
L 204.561873 137.228951 
L 205.011452 137.763211 
L 205.494983 138.337822 
L 205.791595 138.690301 
L 206.428094 139.444505 
L 206.575871 139.617391 
L 207.361204 140.528053 
L 207.375731 140.544482 
L 208.167727 141.471572 
L 208.294314 141.608748 
L 208.976438 142.398662 
L 209.227425 142.692088 
L 209.74209 143.325753 
L 210.160535 143.883407 
L 210.421866 144.252843 
L 211.0209 145.179933 
L 211.093645 145.301981 
L 211.401833 146.107023 
L 211.718173 147.034114 
L 212.026756 147.784852 
L 212.09272 147.961204 
L 212.432841 148.888294 
L 212.663727 149.815385 
L 212.959866 150.727534 
L 212.961868 150.742475 
L 213.215019 151.669565 
L 213.546672 152.596656 
L 213.892977 153.496921 
L 213.900145 153.523746 
L 214.127047 154.450836 
L 214.171696 155.377926 
L 214.216431 156.305017 
L 214.273729 157.232107 
L 214.369728 158.159197 
L 214.47374 159.086288 
L 214.561322 160.013378 
L 214.638774 160.940468 
L 214.68425 161.867559 
L 214.704968 162.794649 
L 214.713896 163.721739 
L 214.723272 164.648829 
L 214.732939 165.57592 
L 214.691072 166.50301 
L 214.334933 167.4301 
L 213.892977 168.322711 
L 213.870294 168.357191 
L 213.420887 169.284281 
L 212.979125 170.211371 
L 212.959866 170.255689 
L 212.649201 171.138462 
L 212.365566 172.065552 
L 212.036118 172.992642 
L 212.026756 173.026861 
L 211.832406 173.919732 
L 211.642282 174.846823 
L 211.482938 175.773913 
L 211.300736 176.701003 
L 211.098146 177.628094 
L 211.093645 177.646036 
L 210.910748 178.555184 
L 210.698529 179.482274 
L 210.499706 180.409365 
L 210.312014 181.336455 
L 210.179627 182.263545 
L 210.173173 183.190635 
L 210.170741 184.117726 
L 210.164532 185.044816 
L 210.160535 185.298533 
L 210.150816 185.971906 
L 210.132243 186.898997 
L 210.145276 187.826087 
L 210.160535 188.143925 
L 210.190675 188.753177 
L 210.235451 189.680268 
L 210.278999 190.607358 
L 210.410396 191.534448 
L 210.602471 192.461538 
L 210.745714 193.388629 
L 210.823483 194.315719 
L 210.941026 195.242809 
L 211.083111 196.1699 
L 210.977436 197.09699 
L 210.78137 198.02408 
L 210.643683 198.951171 
L 210.462354 199.878261 
L 210.2304 200.805351 
L 210.160535 201.042179 
L 210.010673 201.732441 
L 209.857029 202.659532 
L 209.718825 203.586622 
L 209.537592 204.513712 
L 209.290145 205.440803 
L 209.227425 205.607082 
L 209.037749 206.367893 
L 208.81756 207.294983 
L 208.599264 208.222074 
L 208.366774 209.149164 
L 208.294314 209.34804 
L 208.087114 210.076254 
L 207.787089 211.003344 
L 207.452662 211.930435 
L 207.361204 212.136013 
L 207.102889 212.857525 
L 206.774164 213.784615 
L 206.428094 214.699597 
L 206.42249 214.711706 
L 206.056059 215.638796 
L 205.529539 216.565886 
L 205.494983 216.619598 
L 204.998658 217.492977 
L 204.561873 218.233922 
L 204.437394 218.420067 
L 203.917949 219.347157 
L 203.628763 219.830075 
L 203.373848 220.274247 
L 202.833681 221.201338 
L 202.695652 221.428929 
L 202.300666 222.128428 
L 201.762542 223.036139 
L 201.747092 223.055518 
L 201.24471 223.982609 
L 200.829431 224.566543 
L 200.564068 224.909699 
L 199.896321 225.690503 
L 199.762715 225.836789 
L 198.987862 226.76388 
L 198.963211 226.792815 
L 198.205839 227.69097 
L 198.0301 227.890178 
L 197.356767 228.61806 
L 197.09699 228.873292 
L 196.402376 229.545151 
L 196.16388 229.79081 
L 195.620146 230.472241 
L 195.230769 230.933675 
L 194.843794 231.399331 
L 194.297659 232.010124 
L 194.01609 232.326421 
L 193.364548 233.057095 
L 193.183593 233.253512 
L 192.431438 234.103051 
L 192.35336 234.180602 
L 191.498328 234.917703 
L 191.227077 235.107692 
L 190.565217 235.48576 
L 189.632107 235.791641 
L 189.058619 236.034783 
L 188.698997 236.11594 
L 187.765886 236.509885 
L 186.832776 236.787829 
L 186.457482 236.961873 
L 185.899666 237.126 
L 184.966555 237.529409 
L 184.115625 237.888963 
L 184.033445 237.896276 
L 183.100334 238.307972 
L 182.167224 238.608954 
L 181.441902 238.816054 
L 181.234114 238.822459 
L 180.301003 239.000016 
L 179.367893 239.308461 
L 178.434783 239.330584 
L 177.501672 239.314247 
L 176.568562 239.2977 
L 175.635452 239.280944 
L 174.702341 239.263966 
L 173.769231 239.246768 
L 172.83612 239.229341 
L 171.90301 239.211686 
L 170.9699 239.1936 
L 170.036789 239.177624 
L 169.103679 238.96501 
z
" clip-path="url(#p7ede1fce44)" style="fill: none; stroke: #000000; stroke-width: 1.5"/>
   </g>
   <g id="PathCollection_4">
    <path d="M 162.571906 261.102902 
L 162.407253 261.066221 
L 161.638796 260.886665 
L 160.705686 260.651599 
L 159.772575 260.417113 
L 158.839465 260.185411 
L 158.563855 260.13913 
L 157.906355 260.030724 
L 156.973244 259.876855 
L 156.040134 259.723015 
L 155.107023 259.569165 
L 154.173913 259.413055 
L 153.240803 259.251736 
L 153.011958 259.21204 
L 152.307692 259.089877 
L 151.374582 258.854546 
L 150.441472 258.585193 
L 149.508361 258.315852 
L 149.418133 258.28495 
L 148.575251 257.976921 
L 147.64214 257.602808 
L 147.031211 257.35786 
L 146.70903 257.225241 
L 145.77592 256.748099 
L 145.193333 256.430769 
L 144.842809 256.239842 
L 143.909699 255.731561 
L 143.278855 255.503679 
L 142.976589 255.40171 
L 142.043478 255.057889 
L 141.110368 254.714068 
L 140.737252 254.576589 
L 140.177258 254.37025 
L 139.244147 254.026153 
L 138.414832 253.649498 
L 138.311037 253.599648 
L 137.377926 253.110932 
L 136.657676 252.722408 
L 136.444816 252.608165 
L 135.511706 252.117128 
L 134.908084 251.795318 
L 134.578595 251.615183 
L 133.645485 251.103749 
L 133.215782 250.868227 
L 132.712375 250.592313 
L 131.779264 250.080875 
L 131.524311 249.941137 
L 130.846154 249.569437 
L 129.913043 249.028231 
L 129.889889 249.014047 
L 128.979933 248.458478 
L 128.37681 248.086957 
L 128.046823 247.883749 
L 127.113712 247.30885 
L 126.871897 247.159866 
L 126.180602 246.733957 
L 125.36581 246.232776 
L 125.247492 246.158896 
L 124.314381 245.572599 
L 123.893893 245.305686 
L 123.381271 244.97438 
L 122.648728 244.378595 
L 122.448161 244.195267 
L 121.63447 243.451505 
L 121.51505 243.34235 
L 120.620201 242.524415 
L 120.58194 242.489442 
L 119.648829 241.636535 
L 119.60586 241.597324 
L 118.715719 240.774 
L 118.604988 240.670234 
L 117.782609 239.9163 
L 117.592216 239.743144 
L 116.849498 239.070287 
L 116.568865 238.816054 
L 115.916388 238.117132 
L 115.744173 237.888963 
L 115.139853 236.961873 
L 114.983278 236.721523 
L 114.535895 236.034783 
L 114.050167 235.289199 
L 113.935674 235.107692 
L 113.330165 234.180602 
L 113.117057 233.854029 
L 112.743265 233.253512 
L 112.183946 232.379493 
L 112.149662 232.326421 
L 111.505374 231.399331 
L 111.250836 231.039297 
L 110.857986 230.472241 
L 110.317726 229.695433 
L 110.21349 229.545151 
L 109.599317 228.61806 
L 109.384615 228.268656 
L 109.043082 227.69097 
L 108.471034 226.76388 
L 108.451505 226.730355 
L 108.010319 225.836789 
L 107.750791 224.909699 
L 107.518395 224.078649 
L 107.491538 223.982609 
L 107.232293 223.055518 
L 106.969848 222.128428 
L 106.663086 221.201338 
L 106.585284 220.974577 
L 106.345006 220.274247 
L 106.026399 219.347157 
L 105.706216 218.420067 
L 105.652174 218.263976 
L 105.379891 217.492977 
L 105.052503 216.565886 
L 104.83749 215.638796 
L 104.719064 214.956427 
L 104.677003 214.711706 
L 104.50009 213.784615 
L 104.327998 212.857525 
L 104.159157 211.930435 
L 103.990473 211.003344 
L 103.821791 210.076254 
L 103.785953 209.877257 
L 103.65476 209.149164 
L 103.409866 208.222074 
L 103.210356 207.294983 
L 103.098951 206.367893 
L 103.005617 205.440803 
L 102.961085 204.513712 
L 102.916907 203.586622 
L 102.874671 202.659532 
L 102.869866 201.732441 
L 102.887141 200.805351 
L 102.967466 199.878261 
L 103.167443 198.951171 
L 103.374489 198.02408 
L 103.583645 197.09699 
L 103.641741 196.1699 
L 103.677374 195.242809 
L 103.713021 194.315719 
L 103.748659 193.388629 
L 103.784287 192.461538 
L 103.785953 192.418163 
L 103.819909 191.534448 
L 103.855568 190.607358 
L 103.932184 189.680268 
L 104.095774 188.753177 
L 104.251791 187.826087 
L 104.4039 186.898997 
L 104.641736 185.971906 
L 104.719064 185.672588 
L 104.881244 185.044816 
L 105.120745 184.117726 
L 105.360251 183.190635 
L 105.599754 182.263545 
L 105.652174 182.060637 
L 105.839261 181.336455 
L 106.146341 180.409365 
L 106.585284 179.489476 
L 106.588721 179.482274 
L 107.043295 178.555184 
L 107.410241 177.628094 
L 107.518395 177.262252 
L 107.684312 176.701003 
L 107.958445 175.773913 
L 108.232679 174.846823 
L 108.451505 174.107046 
L 108.506911 173.919732 
L 108.762892 172.992642 
L 109.01009 172.065552 
L 109.252607 171.138462 
L 109.384615 170.598995 
L 109.478531 170.211371 
L 109.687859 169.284281 
L 109.906587 168.357191 
L 109.996191 167.4301 
L 109.916329 166.50301 
L 109.832614 165.57592 
L 109.748373 164.648829 
L 109.658396 163.721739 
L 109.564153 162.794649 
L 109.508817 161.867559 
L 109.659806 160.940468 
L 109.812071 160.013378 
L 109.973556 159.086288 
L 110.139886 158.159197 
L 110.29937 157.232107 
L 110.317726 157.118989 
L 110.45035 156.305017 
L 110.614512 155.377926 
L 110.793184 154.450836 
L 110.971852 153.523746 
L 111.150526 152.596656 
L 111.250836 152.076139 
L 111.329187 151.669565 
L 111.508074 150.742475 
L 111.676339 149.815385 
L 111.791175 148.888294 
L 112.14705 147.961204 
L 112.183946 147.863021 
L 112.486381 147.034114 
L 112.824628 146.107023 
L 113.117057 145.305513 
L 113.162875 145.179933 
L 113.501121 144.252843 
L 113.839366 143.325753 
L 114.050167 142.747963 
L 114.177605 142.398662 
L 114.518127 141.471572 
L 114.86292 140.544482 
L 114.983278 140.223441 
L 115.211412 139.617391 
L 115.560435 138.690301 
L 115.909424 137.763211 
L 115.916388 137.744703 
L 116.257694 136.83612 
L 116.6039 135.90903 
L 116.849498 135.445056 
L 117.125601 134.98194 
L 117.736184 134.054849 
L 117.782609 133.989036 
L 118.400443 133.127759 
L 118.715719 132.687786 
L 119.065049 132.200669 
L 119.648829 131.385758 
L 119.729253 131.273579 
L 120.384364 130.346488 
L 120.58194 130.061362 
L 121.026787 129.419398 
L 121.51505 128.714786 
L 121.669216 128.492308 
L 122.31162 127.565217 
L 122.448161 127.362443 
L 122.899452 126.638127 
L 123.381271 125.794283 
L 123.428567 125.711037 
L 123.972136 124.783946 
L 124.314381 124.296585 
L 124.662068 123.856856 
L 125.247492 123.19235 
L 125.471913 122.929766 
L 126.180602 122.04833 
L 126.217222 122.002676 
L 126.959054 121.075585 
L 127.113712 120.88264 
L 127.825506 120.148495 
L 128.046823 119.95736 
L 128.898984 119.221405 
L 128.979933 119.151509 
L 129.913043 118.345632 
L 129.972144 118.294314 
L 130.846154 117.519322 
L 131.017557 117.367224 
L 131.779264 116.722852 
L 132.141239 116.440134 
L 132.712375 115.994058 
L 133.328257 115.513043 
L 133.645485 115.272128 
L 134.578595 114.590989 
L 134.585665 114.585953 
L 135.511706 113.926342 
L 135.887224 113.658863 
L 136.444816 113.261692 
L 137.188766 112.731773 
L 137.377926 112.597034 
L 138.311037 111.932387 
L 138.490325 111.804682 
L 139.244147 111.267734 
L 139.815583 110.877592 
L 140.177258 110.65899 
L 141.110368 110.26056 
L 141.817794 109.950502 
L 142.043478 109.851234 
L 142.976589 109.440762 
L 143.909699 109.025974 
L 143.915099 109.023411 
L 144.842809 108.572471 
L 145.77592 108.118917 
L 145.822405 108.096321 
L 146.70903 107.66535 
L 147.64214 107.211786 
L 147.729689 107.169231 
L 148.575251 106.758224 
L 149.508361 106.304655 
L 149.663623 106.24214 
L 150.441472 105.942029 
L 151.374582 105.669915 
L 152.307692 105.504527 
L 153.240803 105.356224 
L 153.499871 105.31505 
L 154.173913 105.207926 
L 155.107023 105.062373 
L 156.040134 104.937522 
L 156.973244 104.881733 
L 157.906355 104.802231 
L 158.839465 104.591955 
L 159.744751 104.38796 
L 159.772575 104.38169 
L 160.705686 104.171407 
L 161.638796 103.961126 
L 162.571906 103.764281 
L 163.505017 103.58185 
L 164.1525 103.46087 
L 164.438127 103.407501 
L 165.371237 103.286177 
L 166.304348 103.262503 
L 167.237458 103.26342 
L 168.170569 103.264353 
L 169.103679 103.265263 
L 170.036789 103.268014 
L 170.9699 103.396612 
L 171.703556 103.46087 
L 171.90301 103.478049 
L 172.83612 103.517481 
L 173.769231 103.562796 
L 174.702341 103.653542 
L 175.635452 103.744285 
L 176.568562 103.93214 
L 177.501672 104.168521 
L 178.37968 104.38796 
L 178.434783 104.401664 
L 179.367893 104.617673 
L 180.301003 104.792364 
L 181.234114 105.021658 
L 182.167224 105.250971 
L 182.489919 105.31505 
L 183.100334 105.436037 
L 184.033445 105.562038 
L 184.966555 105.67888 
L 185.899666 105.666262 
L 186.832776 105.65364 
L 187.765886 105.641018 
L 188.698997 105.651088 
L 189.632107 105.667282 
L 190.565217 105.700845 
L 191.498328 105.767894 
L 192.431438 105.835904 
L 193.364548 106.102853 
L 193.833516 106.24214 
L 194.297659 106.379996 
L 195.230769 106.657153 
L 196.16388 106.93429 
L 196.918764 107.169231 
L 197.09699 107.224726 
L 198.0301 107.54157 
L 198.963211 107.85229 
L 199.764888 108.096321 
L 199.896321 108.135955 
L 200.829431 108.416538 
L 201.762542 108.695743 
L 202.695652 108.998186 
L 202.761057 109.023411 
L 203.628763 109.385299 
L 204.561873 109.909781 
L 204.63432 109.950502 
L 205.494983 110.434241 
L 206.243643 110.877592 
L 206.428094 110.992611 
L 207.361204 111.622027 
L 207.624241 111.804682 
L 208.294314 112.278332 
L 208.899584 112.731773 
L 209.227425 112.977377 
L 210.137095 113.658863 
L 210.160535 113.676424 
L 211.093645 114.375491 
L 211.393677 114.585953 
L 212.026756 114.995284 
L 212.931848 115.513043 
L 212.959866 115.529081 
L 213.892977 116.071316 
L 214.552613 116.440134 
L 214.826087 116.587462 
L 215.759197 117.042957 
L 216.423498 117.367224 
L 216.692308 117.502323 
L 217.625418 117.962329 
L 218.315736 118.294314 
L 218.558528 118.418725 
L 219.491639 118.999946 
L 219.738784 119.221405 
L 220.424749 119.902351 
L 220.661521 120.148495 
L 221.35786 120.916613 
L 221.491481 121.075585 
L 222.27846 122.002676 
L 222.29097 122.017434 
L 223.064306 122.929766 
L 223.22408 123.118255 
L 223.850155 123.856856 
L 224.157191 124.211378 
L 224.659509 124.783946 
L 225.090301 125.269716 
L 225.481679 125.711037 
L 226.023411 126.371815 
L 226.236308 126.638127 
L 226.956522 127.511842 
L 227.00125 127.565217 
L 227.781056 128.492308 
L 227.889632 128.623232 
L 228.541082 129.419398 
L 228.822742 129.771141 
L 229.283448 130.346488 
L 229.755853 130.975218 
L 229.940009 131.273579 
L 230.364631 132.200669 
L 230.688963 132.910988 
L 230.785161 133.127759 
L 231.207116 134.054849 
L 231.622074 134.951301 
L 231.63614 134.98194 
L 232.063988 135.90903 
L 232.501196 136.83612 
L 232.555184 136.951254 
L 232.935218 137.763211 
L 233.424871 138.690301 
L 233.488294 138.812976 
L 233.869034 139.617391 
L 234.30289 140.544482 
L 234.421405 140.798567 
L 234.718304 141.471572 
L 235.034265 142.398662 
L 235.354515 143.269185 
L 235.375451 143.325753 
L 235.718951 144.252843 
L 236.063573 145.179933 
L 236.287625 145.798094 
L 236.399009 146.107023 
L 236.735643 147.034114 
L 237.049126 147.961204 
L 237.220736 148.539986 
L 237.324271 148.888294 
L 237.56933 149.815385 
L 237.671444 150.742475 
L 237.766253 151.669565 
L 237.847942 152.596656 
L 237.917584 153.523746 
L 237.987245 154.450836 
L 238.054687 155.377926 
L 238.118846 156.305017 
L 238.153846 156.850021 
L 238.177543 157.232107 
L 238.235032 158.159197 
L 238.292506 159.086288 
L 238.349617 160.013378 
L 238.404617 160.940468 
L 238.444659 161.867559 
L 238.465939 162.794649 
L 238.470738 163.721739 
L 238.475537 164.648829 
L 238.261157 165.57592 
L 238.153846 165.998227 
L 238.025579 166.50301 
L 237.790007 167.4301 
L 237.55445 168.357191 
L 237.318876 169.284281 
L 237.220736 169.699355 
L 237.100007 170.211371 
L 236.978219 171.138462 
L 236.901635 172.065552 
L 236.825055 172.992642 
L 236.730632 173.919732 
L 236.606805 174.846823 
L 236.445307 175.773913 
L 236.287625 176.646419 
L 236.277761 176.701003 
L 236.110229 177.628094 
L 235.942683 178.555184 
L 235.786845 179.482274 
L 235.623164 180.409365 
L 235.449288 181.336455 
L 235.354515 181.79744 
L 235.258691 182.263545 
L 235.068097 183.190635 
L 234.972026 184.117726 
L 234.884039 185.044816 
L 234.80298 185.971906 
L 234.734776 186.898997 
L 234.667727 187.826087 
L 234.602742 188.753177 
L 234.538291 189.680268 
L 234.473787 190.607358 
L 234.421405 191.436173 
L 234.415256 191.534448 
L 234.36187 192.461538 
L 234.308328 193.388629 
L 234.253341 194.315719 
L 234.208751 195.242809 
L 234.190757 196.1699 
L 234.166274 197.09699 
L 234.14972 198.02408 
L 234.147699 198.951171 
L 234.143308 199.878261 
L 234.112741 200.805351 
L 234.062864 201.732441 
L 234.000193 202.659532 
L 233.72925 203.586622 
L 233.488294 204.443767 
L 233.468632 204.513712 
L 233.208027 205.440803 
L 232.94741 206.367893 
L 232.686789 207.294983 
L 232.555184 207.868056 
L 232.47733 208.222074 
L 232.275322 209.149164 
L 232.062579 210.076254 
L 231.824007 211.003344 
L 231.634455 211.930435 
L 231.622074 212.011655 
L 231.493241 212.857525 
L 231.310161 213.784615 
L 231.081613 214.711706 
L 230.844226 215.638796 
L 230.688963 216.134734 
L 230.552414 216.565886 
L 230.260007 217.492977 
L 229.967013 218.420067 
L 229.755853 218.998715 
L 229.626015 219.347157 
L 229.276793 220.274247 
L 228.932164 221.201338 
L 228.822742 221.489527 
L 228.572033 222.128428 
L 228.203953 223.055518 
L 227.889632 223.860977 
L 227.841203 223.982609 
L 227.465907 224.909699 
L 227.008786 225.836789 
L 226.956522 225.923315 
L 226.441106 226.76388 
L 226.023411 227.445101 
L 225.87424 227.69097 
L 225.307667 228.61806 
L 225.090301 228.951692 
L 224.670544 229.545151 
L 224.157191 230.227943 
L 223.978075 230.472241 
L 223.312938 231.399331 
L 223.22408 231.523176 
L 222.647752 232.326421 
L 222.29097 232.823685 
L 221.982569 233.253512 
L 221.35786 234.124219 
L 221.319638 234.180602 
L 220.740214 235.107692 
L 220.424749 235.6187 
L 220.167888 236.034783 
L 219.595553 236.961873 
L 219.491639 237.130207 
L 219.023246 237.888963 
L 218.558528 238.641744 
L 218.450922 238.816054 
L 217.878604 239.743144 
L 217.625418 240.15328 
L 217.306295 240.670234 
L 216.73396 241.597324 
L 216.692308 241.663718 
L 216.126353 242.524415 
L 215.759197 242.983378 
L 215.314256 243.451505 
L 214.826087 243.903546 
L 214.303071 244.378595 
L 213.892977 244.751084 
L 213.282382 245.305686 
L 212.959866 245.598615 
L 212.260215 246.232776 
L 212.026756 246.438706 
L 211.203631 247.159866 
L 211.093645 247.256229 
L 210.160535 248.073742 
L 210.145452 248.086957 
L 209.227425 248.881693 
L 209.066541 249.014047 
L 208.294314 249.634551 
L 207.909795 249.941137 
L 207.361204 250.378979 
L 206.731285 250.868227 
L 206.428094 251.103717 
L 205.537701 251.795318 
L 205.494983 251.828497 
L 204.561873 252.553241 
L 204.370971 252.722408 
L 203.628763 253.409334 
L 203.371787 253.649498 
L 202.695652 254.210916 
L 201.929218 254.576589 
L 201.762542 254.64892 
L 200.829431 255.050266 
L 199.896321 255.428927 
L 199.712119 255.503679 
L 198.963211 255.807597 
L 198.0301 256.186254 
L 197.427577 256.430769 
L 197.09699 256.564928 
L 196.16388 256.944763 
L 195.230769 257.33645 
L 195.180656 257.35786 
L 194.297659 257.735085 
L 193.364548 258.133734 
L 193.010582 258.28495 
L 192.431438 258.532363 
L 191.498328 258.930999 
L 190.805101 259.21204 
L 190.565217 259.309194 
L 189.632107 259.684918 
L 188.698997 260.060623 
L 188.504022 260.13913 
L 187.765886 260.436356 
L 186.832776 260.73111 
L 185.899666 260.979466 
L 185.146444 261.066221 
L 184.966555 261.08643 
L 184.033445 261.149432 
L 183.100334 261.199015 
L 182.167224 261.242775 
L 181.234114 261.286531 
L 180.301003 261.330291 
L 179.367893 261.374035 
L 178.434783 261.417808 
L 177.501672 261.461564 
L 176.568562 261.505314 
L 175.635452 261.549094 
L 174.702341 261.592844 
L 173.769231 261.6366 
L 172.83612 261.68036 
L 171.90301 261.724125 
L 170.9699 261.767879 
L 170.036789 261.770318 
L 169.103679 261.7508 
L 168.170569 261.731764 
L 167.237458 261.61652 
L 166.304348 261.445256 
L 165.371237 261.32981 
L 164.438127 261.258745 
L 163.505017 261.187695 
L 162.571906 261.102902 
z
" clip-path="url(#p7ede1fce44)" style="fill: none; stroke: #000000; stroke-width: 1.5"/>
   </g>
   <g id="patch_3">
    <path d="M 45 320.4 
L 45 43.2 
" style="fill: none; stroke: #000000; stroke-width: 0.8; stroke-linejoin: miter; stroke-linecap: square"/>
   </g>
   <g id="patch_4">
    <path d="M 324 320.4 
L 324 43.2 
" style="fill: none; stroke: #000000; stroke-width: 0.8; stroke-linejoin: miter; stroke-linecap: square"/>
   </g>
   <g id="patch_5">
    <path d="M 45 320.4 
L 324 320.4 
" style="fill: none; stroke: #000000; stroke-width: 0.8; stroke-linejoin: miter; stroke-linecap: square"/>
   </g>
   <g id="patch_6">
    <path d="M 45 43.2 
L 324 43.2 
" style="fill: none; stroke: #000000; stroke-width: 0.8; stroke-linejoin: miter; stroke-linecap: square"/>
   </g>
  </g>
 </g>
 <defs>
  <clipPath id="p7ede1fce44">
   <rect x="45" y="43.2" width="279" height="277.2"/>
  </clipPath>
 </defs>
</svg>
