<?xml version="1.0" encoding="utf-8" standalone="no"?>
<!DOCTYPE svg PUBLIC "-//W3C//DTD SVG 1.1//EN"
  "http://www.w3.org/Graphics/SVG/1.1/DTD/svg11.dtd">
<svg xmlns:xlink="http://www.w3.org/1999/xlink" width="360pt" height="360pt" viewBox="0 0 360 360" xmlns="http://www.w3.org/2000/svg" version="1.1">
 <metadata>
  <rdf:RDF xmlns:dc="http://purl.org/dc/elements/1.1/" xmlns:cc="http://creativecommons.org/ns#" xmlns:rdf="http://www.w3.org/1999/02/22-rdf-syntax-ns#">
   <cc:Work>
    <dc:type rdf:resource="http://purl.org/dc/dcmitype/StillImage"/>
    <dc:date>2022-04-10T19:53:31.061739</dc:date>
    <dc:format>image/svg+xml</dc:format>
    <dc:creator>
     <cc:Agent>
      <dc:title>Matplotlib v3.5.1, https://matplotlib.org/</dc:title>
     </cc:Agent>
    </dc:creator>
   </cc:Work>
  </rdf:RDF>
 </metadata>
 <defs>
  <style type="text/css">*{stroke-linejoin: round; stroke-linecap: butt}</style>
 </defs>
 <g id="figure_1">
  <g id="patch_1">
   <path d="M 0 360 
L 360 360 
L 360 0 
L 0 0 
z
" style="fill: #ffffff"/>
  </g>
  <g id="axes_1">
   <g id="patch_2">
    <path d="M 45 320.4 
L 324 320.4 
L 324 43.2 
L 45 43.2 
z
" style="fill: #ffffff"/>
   </g>
   <g id="PathCollection_1">
    <defs>
     <path id="m512e7a89cc" d="M 0 0.5 
C 0.132602 0.5 0.25979 0.447317 0.353553 0.353553 
C 0.447317 0.25979 0.5 0.132602 0.5 0 
C 0.5 -0.132602 0.447317 -0.25979 0.353553 -0.353553 
C 0.25979 -0.447317 0.132602 -0.5 0 -0.5 
C -0.132602 -0.5 -0.25979 -0.447317 -0.353553 -0.353553 
C -0.447317 -0.25979 -0.5 -0.132602 -0.5 0 
C -0.5 0.132602 -0.447317 0.25979 -0.353553 0.353553 
C -0.25979 0.447317 -0.132602 0.5 0 0.5 
z
" style="stroke: #ff0000"/>
    </defs>
    <g clip-path="url(#pf89d08950e)">
     <use xlink:href="#m512e7a89cc" x="235.65323" y="181.336455" style="fill: #ff0000; stroke: #ff0000"/>
     <use xlink:href="#m512e7a89cc" x="235.335298" y="176.407572" style="fill: #ff0000; stroke: #ff0000"/>
     <use xlink:href="#m512e7a89cc" x="234.254775" y="171.59567" style="fill: #ff0000; stroke: #ff0000"/>
     <use xlink:href="#m512e7a89cc" x="232.441747" y="167.027925" style="fill: #ff0000; stroke: #ff0000"/>
     <use xlink:href="#m512e7a89cc" x="229.943352" y="162.826649" style="fill: #ff0000; stroke: #ff0000"/>
     <use xlink:href="#m512e7a89cc" x="226.822181" y="159.108494" style="fill: #ff0000; stroke: #ff0000"/>
     <use xlink:href="#m512e7a89cc" x="223.154861" y="155.984468" style="fill: #ff0000; stroke: #ff0000"/>
     <use xlink:href="#m512e7a89cc" x="219.035072" y="153.557528" style="fill: #ff0000; stroke: #ff0000"/>
     <use xlink:href="#m512e7a89cc" x="214.580258" y="151.913808" style="fill: #ff0000; stroke: #ff0000"/>
     <use xlink:href="#m512e7a89cc" x="209.936993" y="151.106189" style="fill: #ff0000; stroke: #ff0000"/>
     <use xlink:href="#m512e7a89cc" x="205.278596" y="151.13346" style="fill: #ff0000; stroke: #ff0000"/>
     <use xlink:href="#m512e7a89cc" x="200.790822" y="151.922335" style="fill: #ff0000; stroke: #ff0000"/>
     <use xlink:href="#m512e7a89cc" x="196.646703" y="153.320008" style="fill: #ff0000; stroke: #ff0000"/>
     <use xlink:href="#m512e7a89cc" x="192.976669" y="155.101008" style="fill: #ff0000; stroke: #ff0000"/>
     <use xlink:href="#m512e7a89cc" x="189.841391" y="156.987115" style="fill: #ff0000; stroke: #ff0000"/>
     <use xlink:href="#m512e7a89cc" x="187.212671" y="158.678394" style="fill: #ff0000; stroke: #ff0000"/>
     <use xlink:href="#m512e7a89cc" x="184.966555" y="159.896066" style="fill: #ff0000; stroke: #ff0000"/>
     <use xlink:href="#m512e7a89cc" x="182.894776" y="160.437039" style="fill: #ff0000; stroke: #ff0000"/>
     <use xlink:href="#m512e7a89cc" x="180.74108" y="160.230608" style="fill: #ff0000; stroke: #ff0000"/>
     <use xlink:href="#m512e7a89cc" x="178.261662" y="159.375985" style="fill: #ff0000; stroke: #ff0000"/>
     <use xlink:href="#m512e7a89cc" x="175.294676" y="158.137118" style="fill: #ff0000; stroke: #ff0000"/>
     <use xlink:href="#m512e7a89cc" x="171.812194" y="156.88515" style="fill: #ff0000; stroke: #ff0000"/>
     <use xlink:href="#m512e7a89cc" x="167.92932" y="156.002934" style="fill: #ff0000; stroke: #ff0000"/>
     <use xlink:href="#m512e7a89cc" x="163.861884" y="155.786249" style="fill: #ff0000; stroke: #ff0000"/>
     <use xlink:href="#m512e7a89cc" x="159.848284" y="156.380237" style="fill: #ff0000; stroke: #ff0000"/>
     <use xlink:href="#m512e7a89cc" x="156.069459" y="157.774222" style="fill: #ff0000; stroke: #ff0000"/>
     <use xlink:href="#m512e7a89cc" x="152.602712" y="159.851141" style="fill: #ff0000; stroke: #ff0000"/>
     <use xlink:href="#m512e7a89cc" x="149.428222" y="162.463372" style="fill: #ff0000; stroke: #ff0000"/>
     <use xlink:href="#m512e7a89cc" x="146.480165" y="165.497719" style="fill: #ff0000; stroke: #ff0000"/>
     <use xlink:href="#m512e7a89cc" x="143.712563" y="168.90293" style="fill: #ff0000; stroke: #ff0000"/>
     <use xlink:href="#m512e7a89cc" x="141.146034" y="172.676246" style="fill: #ff0000; stroke: #ff0000"/>
     <use xlink:href="#m512e7a89cc" x="138.877005" y="176.826317" style="fill: #ff0000; stroke: #ff0000"/>
     <use xlink:href="#m512e7a89cc" x="137.054442" y="181.336455" style="fill: #ff0000; stroke: #ff0000"/>
     <use xlink:href="#m512e7a89cc" x="135.845057" y="186.143287" style="fill: #ff0000; stroke: #ff0000"/>
     <use xlink:href="#m512e7a89cc" x="135.406805" y="191.130902" style="fill: #ff0000; stroke: #ff0000"/>
     <use xlink:href="#m512e7a89cc" x="135.875138" y="196.132098" style="fill: #ff0000; stroke: #ff0000"/>
     <use xlink:href="#m512e7a89cc" x="137.350015" y="200.932624" style="fill: #ff0000; stroke: #ff0000"/>
     <use xlink:href="#m512e7a89cc" x="139.869264" y="205.285943" style="fill: #ff0000; stroke: #ff0000"/>
     <use xlink:href="#m512e7a89cc" x="143.370268" y="208.950891" style="fill: #ff0000; stroke: #ff0000"/>
     <use xlink:href="#m512e7a89cc" x="147.664365" y="211.752067" style="fill: #ff0000; stroke: #ff0000"/>
     <use xlink:href="#m512e7a89cc" x="152.454007" y="213.639245" style="fill: #ff0000; stroke: #ff0000"/>
     <use xlink:href="#m512e7a89cc" x="157.400856" y="214.708654" style="fill: #ff0000; stroke: #ff0000"/>
     <use xlink:href="#m512e7a89cc" x="162.217742" y="215.162809" style="fill: #ff0000; stroke: #ff0000"/>
     <use xlink:href="#m512e7a89cc" x="166.737077" y="215.221378" style="fill: #ff0000; stroke: #ff0000"/>
     <use xlink:href="#m512e7a89cc" x="170.920015" y="215.02902" style="fill: #ff0000; stroke: #ff0000"/>
     <use xlink:href="#m512e7a89cc" x="174.806821" y="214.612531" style="fill: #ff0000; stroke: #ff0000"/>
     <use xlink:href="#m512e7a89cc" x="178.444718" y="213.912413" style="fill: #ff0000; stroke: #ff0000"/>
     <use xlink:href="#m512e7a89cc" x="181.840675" y="212.869286" style="fill: #ff0000; stroke: #ff0000"/>
     <use xlink:href="#m512e7a89cc" x="184.966555" y="211.512167" style="fill: #ff0000; stroke: #ff0000"/>
     <use xlink:href="#m512e7a89cc" x="187.807575" y="209.995719" style="fill: #ff0000; stroke: #ff0000"/>
     <use xlink:href="#m512e7a89cc" x="190.418028" y="208.566044" style="fill: #ff0000; stroke: #ff0000"/>
     <use xlink:href="#m512e7a89cc" x="192.947154" y="207.47523" style="fill: #ff0000; stroke: #ff0000"/>
     <use xlink:href="#m512e7a89cc" x="195.618566" y="206.886773" style="fill: #ff0000; stroke: #ff0000"/>
     <use xlink:href="#m512e7a89cc" x="198.670547" y="206.809411" style="fill: #ff0000; stroke: #ff0000"/>
     <use xlink:href="#m512e7a89cc" x="202.278927" y="207.079091" style="fill: #ff0000; stroke: #ff0000"/>
     <use xlink:href="#m512e7a89cc" x="206.489235" y="207.39272" style="fill: #ff0000; stroke: #ff0000"/>
     <use xlink:href="#m512e7a89cc" x="211.183879" y="207.384635" style="fill: #ff0000; stroke: #ff0000"/>
     <use xlink:href="#m512e7a89cc" x="216.101311" y="206.72324" style="fill: #ff0000; stroke: #ff0000"/>
     <use xlink:href="#m512e7a89cc" x="220.904289" y="205.194359" style="fill: #ff0000; stroke: #ff0000"/>
     <use xlink:href="#m512e7a89cc" x="225.2702" y="202.740216" style="fill: #ff0000; stroke: #ff0000"/>
     <use xlink:href="#m512e7a89cc" x="228.963753" y="199.443115" style="fill: #ff0000; stroke: #ff0000"/>
     <use xlink:href="#m512e7a89cc" x="231.862546" y="195.470419" style="fill: #ff0000; stroke: #ff0000"/>
     <use xlink:href="#m512e7a89cc" x="233.934311" y="191.013907" style="fill: #ff0000; stroke: #ff0000"/>
     <use xlink:href="#m512e7a89cc" x="235.191274" y="186.251244" style="fill: #ff0000; stroke: #ff0000"/>
    </g>
   </g>
   <g id="matplotlib.axis_1">
    <g id="xtick_1">
     <g id="line2d_1">
      <defs>
       <path id="me80d8cd119" d="M 0 0 
L 0 3.5 
" style="stroke: #000000; stroke-width: 0.8"/>
      </defs>
      <g>
       <use xlink:href="#me80d8cd119" x="45" y="320.4" style="stroke: #000000; stroke-width: 0.8"/>
      </g>
     </g>
     <g id="text_1">
      <!-- −3 -->
      <g transform="translate(37.628906 334.998438)scale(0.1 -0.1)">
       <defs>
        <path id="DejaVuSans-2212" d="M 678 2272 
L 4684 2272 
L 4684 1741 
L 678 1741 
L 678 2272 
z
" transform="scale(0.015625)"/>
        <path id="DejaVuSans-33" d="M 2597 2516 
Q 3050 2419 3304 2112 
Q 3559 1806 3559 1356 
Q 3559 666 3084 287 
Q 2609 -91 1734 -91 
Q 1441 -91 1130 -33 
Q 819 25 488 141 
L 488 750 
Q 750 597 1062 519 
Q 1375 441 1716 441 
Q 2309 441 2620 675 
Q 2931 909 2931 1356 
Q 2931 1769 2642 2001 
Q 2353 2234 1838 2234 
L 1294 2234 
L 1294 2753 
L 1863 2753 
Q 2328 2753 2575 2939 
Q 2822 3125 2822 3475 
Q 2822 3834 2567 4026 
Q 2313 4219 1838 4219 
Q 1578 4219 1281 4162 
Q 984 4106 628 3988 
L 628 4550 
Q 988 4650 1302 4700 
Q 1616 4750 1894 4750 
Q 2613 4750 3031 4423 
Q 3450 4097 3450 3541 
Q 3450 3153 3228 2886 
Q 3006 2619 2597 2516 
z
" transform="scale(0.015625)"/>
       </defs>
       <use xlink:href="#DejaVuSans-2212"/>
       <use xlink:href="#DejaVuSans-33" x="83.789062"/>
      </g>
     </g>
    </g>
    <g id="xtick_2">
     <g id="line2d_2">
      <g>
       <use xlink:href="#me80d8cd119" x="91.655518" y="320.4" style="stroke: #000000; stroke-width: 0.8"/>
      </g>
     </g>
     <g id="text_2">
      <!-- −2 -->
      <g transform="translate(84.284425 334.998438)scale(0.1 -0.1)">
       <defs>
        <path id="DejaVuSans-32" d="M 1228 531 
L 3431 531 
L 3431 0 
L 469 0 
L 469 531 
Q 828 903 1448 1529 
Q 2069 2156 2228 2338 
Q 2531 2678 2651 2914 
Q 2772 3150 2772 3378 
Q 2772 3750 2511 3984 
Q 2250 4219 1831 4219 
Q 1534 4219 1204 4116 
Q 875 4013 500 3803 
L 500 4441 
Q 881 4594 1212 4672 
Q 1544 4750 1819 4750 
Q 2544 4750 2975 4387 
Q 3406 4025 3406 3419 
Q 3406 3131 3298 2873 
Q 3191 2616 2906 2266 
Q 2828 2175 2409 1742 
Q 1991 1309 1228 531 
z
" transform="scale(0.015625)"/>
       </defs>
       <use xlink:href="#DejaVuSans-2212"/>
       <use xlink:href="#DejaVuSans-32" x="83.789062"/>
      </g>
     </g>
    </g>
    <g id="xtick_3">
     <g id="line2d_3">
      <g>
       <use xlink:href="#me80d8cd119" x="138.311037" y="320.4" style="stroke: #000000; stroke-width: 0.8"/>
      </g>
     </g>
     <g id="text_3">
      <!-- −1 -->
      <g transform="translate(130.939943 334.998438)scale(0.1 -0.1)">
       <defs>
        <path id="DejaVuSans-31" d="M 794 531 
L 1825 531 
L 1825 4091 
L 703 3866 
L 703 4441 
L 1819 4666 
L 2450 4666 
L 2450 531 
L 3481 531 
L 3481 0 
L 794 0 
L 794 531 
z
" transform="scale(0.015625)"/>
       </defs>
       <use xlink:href="#DejaVuSans-2212"/>
       <use xlink:href="#DejaVuSans-31" x="83.789062"/>
      </g>
     </g>
    </g>
    <g id="xtick_4">
     <g id="line2d_4">
      <g>
       <use xlink:href="#me80d8cd119" x="184.966555" y="320.4" style="stroke: #000000; stroke-width: 0.8"/>
      </g>
     </g>
     <g id="text_4">
      <!-- 0 -->
      <g transform="translate(181.785305 334.998438)scale(0.1 -0.1)">
       <defs>
        <path id="DejaVuSans-30" d="M 2034 4250 
Q 1547 4250 1301 3770 
Q 1056 3291 1056 2328 
Q 1056 1369 1301 889 
Q 1547 409 2034 409 
Q 2525 409 2770 889 
Q 3016 1369 3016 2328 
Q 3016 3291 2770 3770 
Q 2525 4250 2034 4250 
z
M 2034 4750 
Q 2819 4750 3233 4129 
Q 3647 3509 3647 2328 
Q 3647 1150 3233 529 
Q 2819 -91 2034 -91 
Q 1250 -91 836 529 
Q 422 1150 422 2328 
Q 422 3509 836 4129 
Q 1250 4750 2034 4750 
z
" transform="scale(0.015625)"/>
       </defs>
       <use xlink:href="#DejaVuSans-30"/>
      </g>
     </g>
    </g>
    <g id="xtick_5">
     <g id="line2d_5">
      <g>
       <use xlink:href="#me80d8cd119" x="231.622074" y="320.4" style="stroke: #000000; stroke-width: 0.8"/>
      </g>
     </g>
     <g id="text_5">
      <!-- 1 -->
      <g transform="translate(228.440824 334.998438)scale(0.1 -0.1)">
       <use xlink:href="#DejaVuSans-31"/>
      </g>
     </g>
    </g>
    <g id="xtick_6">
     <g id="line2d_6">
      <g>
       <use xlink:href="#me80d8cd119" x="278.277592" y="320.4" style="stroke: #000000; stroke-width: 0.8"/>
      </g>
     </g>
     <g id="text_6">
      <!-- 2 -->
      <g transform="translate(275.096342 334.998438)scale(0.1 -0.1)">
       <use xlink:href="#DejaVuSans-32"/>
      </g>
     </g>
    </g>
   </g>
   <g id="matplotlib.axis_2">
    <g id="ytick_1">
     <g id="line2d_7">
      <defs>
       <path id="m1ef5f08e68" d="M 0 0 
L -3.5 0 
" style="stroke: #000000; stroke-width: 0.8"/>
      </defs>
      <g>
       <use xlink:href="#m1ef5f08e68" x="45" y="320.4" style="stroke: #000000; stroke-width: 0.8"/>
      </g>
     </g>
     <g id="text_7">
      <!-- −3 -->
      <g transform="translate(23.257812 324.199219)scale(0.1 -0.1)">
       <use xlink:href="#DejaVuSans-2212"/>
       <use xlink:href="#DejaVuSans-33" x="83.789062"/>
      </g>
     </g>
    </g>
    <g id="ytick_2">
     <g id="line2d_8">
      <g>
       <use xlink:href="#m1ef5f08e68" x="45" y="274.045485" style="stroke: #000000; stroke-width: 0.8"/>
      </g>
     </g>
     <g id="text_8">
      <!-- −2 -->
      <g transform="translate(23.257812 277.844704)scale(0.1 -0.1)">
       <use xlink:href="#DejaVuSans-2212"/>
       <use xlink:href="#DejaVuSans-32" x="83.789062"/>
      </g>
     </g>
    </g>
    <g id="ytick_3">
     <g id="line2d_9">
      <g>
       <use xlink:href="#m1ef5f08e68" x="45" y="227.69097" style="stroke: #000000; stroke-width: 0.8"/>
      </g>
     </g>
     <g id="text_9">
      <!-- −1 -->
      <g transform="translate(23.257812 231.490189)scale(0.1 -0.1)">
       <use xlink:href="#DejaVuSans-2212"/>
       <use xlink:href="#DejaVuSans-31" x="83.789062"/>
      </g>
     </g>
    </g>
    <g id="ytick_4">
     <g id="line2d_10">
      <g>
       <use xlink:href="#m1ef5f08e68" x="45" y="181.336455" style="stroke: #000000; stroke-width: 0.8"/>
      </g>
     </g>
     <g id="text_10">
      <!-- 0 -->
      <g transform="translate(31.6375 185.135674)scale(0.1 -0.1)">
       <use xlink:href="#DejaVuSans-30"/>
      </g>
     </g>
    </g>
    <g id="ytick_5">
     <g id="line2d_11">
      <g>
       <use xlink:href="#m1ef5f08e68" x="45" y="134.98194" style="stroke: #000000; stroke-width: 0.8"/>
      </g>
     </g>
     <g id="text_11">
      <!-- 1 -->
      <g transform="translate(31.6375 138.781159)scale(0.1 -0.1)">
       <use xlink:href="#DejaVuSans-31"/>
      </g>
     </g>
    </g>
    <g id="ytick_6">
     <g id="line2d_12">
      <g>
       <use xlink:href="#m1ef5f08e68" x="45" y="88.627425" style="stroke: #000000; stroke-width: 0.8"/>
      </g>
     </g>
     <g id="text_12">
      <!-- 2 -->
      <g transform="translate(31.6375 92.426643)scale(0.1 -0.1)">
       <use xlink:href="#DejaVuSans-32"/>
      </g>
     </g>
    </g>
   </g>
   <g id="PathCollection_2">
    <path d="M 165.371237 193.514433 
L 164.438127 193.199929 
L 162.328699 191.534448 
L 161.406382 190.607358 
L 161.355903 189.680268 
L 161.421969 188.753177 
L 161.700584 187.826087 
L 162.843697 185.044816 
L 163.172682 184.117726 
L 163.910373 183.190635 
L 164.438127 182.814975 
L 167.237458 181.677191 
L 170.036789 181.046849 
L 176.568562 180.026281 
L 181.234114 180.034378 
L 185.899666 180.286544 
L 188.698997 180.448997 
L 191.498328 180.191383 
L 196.16388 179.312981 
L 198.0301 179.35365 
L 198.963211 179.585228 
L 199.896321 179.426692 
L 201.762542 178.829183 
L 206.428094 177.033864 
L 207.361204 177.00727 
L 209.227425 177.231931 
L 210.160535 178.005492 
L 211.093645 178.855279 
L 212.026756 179.674068 
L 212.294376 180.409365 
L 212.314716 181.336455 
L 212.026756 182.398935 
L 211.565114 183.190635 
L 210.682808 184.117726 
L 209.027703 185.044816 
L 207.361204 185.708682 
L 203.628763 187.037738 
L 199.896321 187.702826 
L 198.963211 187.871967 
L 196.16388 187.762521 
L 192.431438 187.707778 
L 189.632107 188.123988 
L 182.167224 189.726804 
L 180.301003 190.284656 
L 171.90301 193.601106 
L 170.036789 194.053422 
L 168.170569 194.078679 
L 167.237458 193.976135 
L 165.371237 193.514433 
L 165.371237 193.514433 
" clip-path="url(#pf89d08950e)" style="fill: none; stroke-dasharray: 5.55,2.4; stroke-dashoffset: 0; stroke: #000000; stroke-width: 1.5"/>
   </g>
   <g id="PathCollection_3">
    <path d="M 159.772575 216.676247 
L 156.040134 215.545793 
L 154.173913 215.026879 
L 153.240803 214.645266 
L 151.374582 214.103554 
L 146.70903 212.390782 
L 144.842809 211.522064 
L 142.854349 210.076254 
L 142.011425 209.149164 
L 138.017683 203.586622 
L 136.444102 201.732441 
L 136.23943 200.805351 
L 135.879782 199.878261 
L 135.567396 198.02408 
L 135.755006 195.242809 
L 135.741341 193.388629 
L 135.910439 190.607358 
L 136.415212 185.044816 
L 136.444816 183.894462 
L 136.616413 183.190635 
L 137.757461 180.409365 
L 140.449356 175.773913 
L 142.976589 170.186749 
L 145.51793 167.4301 
L 149.073463 163.721739 
L 150.173818 162.794649 
L 150.441472 162.583568 
L 151.5271 161.867559 
L 152.553456 160.940468 
L 153.240803 160.417481 
L 158.839465 157.848931 
L 160.705686 157.465994 
L 162.571906 157.346515 
L 168.170569 157.31197 
L 180.301003 158.627276 
L 183.100334 158.760221 
L 184.033445 158.719677 
L 186.135185 158.159197 
L 186.832776 157.936755 
L 189.632107 156.63252 
L 193.364548 154.216526 
L 195.230769 153.292445 
L 198.963211 151.980928 
L 200.829431 151.495424 
L 203.628763 151.277343 
L 208.294314 150.790217 
L 211.093645 150.771122 
L 212.026756 150.965152 
L 217.625418 153.000858 
L 219.491639 153.930547 
L 223.22408 155.429768 
L 225.090301 156.431 
L 226.023411 157.299363 
L 228.964137 160.940468 
L 230.945745 163.721739 
L 232.342646 167.4301 
L 232.664649 168.357191 
L 233.587452 172.065552 
L 234.421405 174.136056 
L 234.760723 175.773913 
L 235.354515 179.799121 
L 235.594392 180.409365 
L 235.807603 181.336455 
L 235.69196 184.117726 
L 235.354515 186.979952 
L 233.645581 190.607358 
L 233.182174 191.534448 
L 230.577723 196.1699 
L 228.574505 198.951171 
L 226.650298 200.805351 
L 223.22408 203.795141 
L 221.35786 204.668775 
L 219.420355 205.440803 
L 217.625418 205.829416 
L 214.826087 206.181306 
L 209.227425 207.049319 
L 206.428094 207.977384 
L 204.561873 208.490665 
L 196.16388 208.67896 
L 192.431438 208.796563 
L 189.632107 209.259387 
L 186.732886 210.076254 
L 185.899666 210.600494 
L 184.937645 211.003344 
L 184.033445 211.556273 
L 183.063873 211.930435 
L 182.167224 212.433093 
L 181.022315 212.857525 
L 180.301003 213.275367 
L 178.434783 214.02421 
L 175.635452 215.191176 
L 170.9699 216.350835 
L 164.438127 217.000968 
L 161.638796 216.906982 
L 159.772575 216.676247 
L 159.772575 216.676247 
" clip-path="url(#pf89d08950e)" style="fill: none; stroke: #000000; stroke-width: 1.5"/>
   </g>
   <g id="PathCollection_4">
    <path d="M 152.307692 238.90487 
L 151.809258 238.816054 
L 151.374582 238.738598 
L 150.441472 238.522094 
L 149.508361 238.261585 
L 148.575251 238.001095 
L 148.173598 237.888963 
L 147.64214 237.740594 
L 146.70903 237.480096 
L 145.77592 237.171257 
L 145.231644 236.961873 
L 144.842809 236.812286 
L 143.909699 236.440717 
L 143.024989 236.034783 
L 142.976589 236.012413 
L 142.043478 235.564918 
L 141.110368 235.117427 
L 141.090068 235.107692 
L 140.177258 234.669941 
L 139.290447 234.180602 
L 139.244147 234.153788 
L 138.311037 233.5853 
L 137.766435 233.253512 
L 137.377926 233.016816 
L 136.444816 232.447929 
L 136.24754 232.326421 
L 135.511706 231.860841 
L 134.803494 231.399331 
L 134.578595 231.25143 
L 133.645485 230.637762 
L 133.393819 230.472241 
L 132.712375 230.022408 
L 131.991967 229.545151 
L 131.779264 229.392964 
L 130.911907 228.61806 
L 130.846154 228.567025 
L 129.913043 227.945004 
L 129.52886 227.69097 
L 128.979933 227.314689 
L 128.189232 226.76388 
L 128.046823 226.664677 
L 127.113712 226.014672 
L 126.85836 225.836789 
L 126.180602 225.363828 
L 125.528772 224.909699 
L 125.247492 224.712922 
L 124.314381 224.034473 
L 124.257814 223.982609 
L 123.590679 223.055518 
L 123.381271 222.738665 
L 122.977953 222.128428 
L 122.448161 221.301266 
L 122.38658 221.201338 
L 121.822969 220.274247 
L 121.51505 219.767733 
L 121.259371 219.347157 
L 120.688499 218.420067 
L 120.58194 218.250025 
L 120.103453 217.492977 
L 119.648829 216.763549 
L 119.530375 216.565886 
L 118.869389 215.638796 
L 118.715719 215.441963 
L 118.137751 214.711706 
L 117.782609 214.282197 
L 117.362605 213.784615 
L 116.849498 213.179968 
L 116.577404 212.857525 
L 115.916388 211.961349 
L 115.897944 211.930435 
L 115.543868 211.003344 
L 115.1899 210.076254 
L 114.983278 209.534897 
L 114.839721 209.149164 
L 114.517666 208.222074 
L 114.2075 207.294983 
L 114.050167 206.858065 
L 113.873929 206.367893 
L 113.658812 205.440803 
L 113.532476 204.513712 
L 113.404213 203.586622 
L 113.262233 202.659532 
L 113.117604 201.732441 
L 113.117057 201.728792 
L 112.976207 200.805351 
L 112.833273 199.878261 
L 112.687046 198.951171 
L 112.60701 198.02408 
L 112.521303 197.09699 
L 112.359942 196.1699 
L 112.266073 195.242809 
L 112.278961 194.315719 
L 112.292069 193.388629 
L 112.30528 192.461538 
L 112.319027 191.534448 
L 112.354799 190.607358 
L 112.546701 189.680268 
L 112.744999 188.753177 
L 112.783532 187.826087 
L 112.808693 186.898997 
L 112.843364 185.971906 
L 112.952767 185.044816 
L 113.117057 184.245831 
L 113.143404 184.117726 
L 113.333604 183.190635 
L 113.521725 182.263545 
L 113.699861 181.336455 
L 113.877999 180.409365 
L 114.050167 179.513296 
L 114.056146 179.482274 
L 114.434467 178.555184 
L 114.891761 177.628094 
L 114.983278 177.451827 
L 115.373093 176.701003 
L 115.712791 175.773913 
L 115.916388 175.121229 
L 116.001985 174.846823 
L 116.291178 173.919732 
L 116.580383 172.992642 
L 116.849498 172.129918 
L 116.869574 172.065552 
L 117.162925 171.138462 
L 117.569682 170.211371 
L 117.782609 169.726041 
L 117.976414 169.284281 
L 118.383157 168.357191 
L 118.715719 167.599163 
L 118.789891 167.4301 
L 119.196074 166.50301 
L 119.59985 165.57592 
L 119.648829 165.456665 
L 119.956725 164.648829 
L 120.238744 163.721739 
L 120.508966 162.794649 
L 120.58194 162.539696 
L 120.779897 161.867559 
L 121.324306 160.940468 
L 121.51505 160.662805 
L 121.961194 160.013378 
L 122.448161 159.304506 
L 122.598065 159.086288 
L 123.245292 158.159197 
L 123.381271 157.966163 
L 123.89805 157.232107 
L 124.314381 156.64071 
L 124.550709 156.305017 
L 125.203393 155.377926 
L 125.247492 155.315285 
L 125.85605 154.450836 
L 126.180602 153.989824 
L 126.514439 153.523746 
L 127.113712 152.734762 
L 127.225152 152.596656 
L 127.975816 151.669565 
L 128.046823 151.582809 
L 128.748345 150.742475 
L 128.979933 150.465068 
L 129.546536 149.815385 
L 129.913043 149.426114 
L 130.416066 148.888294 
L 130.846154 148.438857 
L 131.360288 147.961204 
L 131.779264 147.615596 
L 132.520103 147.034114 
L 132.712375 146.888534 
L 133.645485 146.206285 
L 133.783462 146.107023 
L 134.578595 145.397324 
L 134.772004 145.179933 
L 135.511706 144.348524 
L 135.59858 144.252843 
L 136.444816 143.362718 
L 136.48023 143.325753 
L 137.377926 142.475782 
L 137.469097 142.398662 
L 138.311037 141.6892 
L 138.569294 141.471572 
L 139.244147 140.902878 
L 139.669445 140.544482 
L 140.177258 140.116543 
L 140.769575 139.617391 
L 141.110368 139.330212 
L 142.019186 138.690301 
L 142.043478 138.675393 
L 142.976589 138.158922 
L 143.655119 137.763211 
L 143.909699 137.608384 
L 144.842809 137.103218 
L 145.512657 136.83612 
L 145.77592 136.733622 
L 146.70903 136.370321 
L 147.64214 136.007024 
L 147.941977 135.90903 
L 148.575251 135.705052 
L 149.508361 135.416568 
L 150.441472 135.128064 
L 150.959291 134.98194 
L 151.374582 134.863768 
L 152.307692 134.613693 
L 153.240803 134.340788 
L 154.147693 134.054849 
L 154.173913 134.046508 
L 155.107023 133.749647 
L 156.040134 133.544776 
L 156.973244 133.435516 
L 157.906355 133.351632 
L 158.839465 133.278935 
L 159.772575 133.219198 
L 160.705686 133.302163 
L 161.638796 133.418172 
L 162.571906 133.480272 
L 163.505017 133.511324 
L 164.438127 133.541503 
L 165.371237 133.57174 
L 166.304348 133.602136 
L 167.237458 133.632533 
L 168.170569 133.662941 
L 169.103679 133.693345 
L 170.036789 133.723194 
L 170.9699 133.744389 
L 171.90301 133.75616 
L 172.83612 133.767941 
L 173.769231 133.779703 
L 174.702341 133.791492 
L 175.635452 133.803258 
L 176.568562 133.750456 
L 177.501672 133.687315 
L 178.434783 133.593503 
L 179.367893 133.499701 
L 180.301003 133.445457 
L 181.234114 133.447481 
L 182.167224 133.493921 
L 183.100334 133.471779 
L 184.033445 133.295653 
L 184.93544 133.127759 
L 184.966555 133.122123 
L 185.899666 132.972384 
L 186.832776 132.828262 
L 187.765886 132.500195 
L 188.561714 132.200669 
L 188.698997 132.149062 
L 189.632107 131.807881 
L 190.565217 131.46784 
L 191.097648 131.273579 
L 191.498328 131.127385 
L 192.431438 130.781814 
L 193.364548 130.410881 
L 193.523836 130.346488 
L 194.297659 130.033664 
L 195.230769 129.667382 
L 195.873157 129.419398 
L 196.16388 129.307171 
L 197.09699 128.946976 
L 198.0301 128.586764 
L 198.455147 128.492308 
L 198.963211 128.386867 
L 199.896321 128.314026 
L 200.829431 128.241175 
L 201.762542 128.140599 
L 202.695652 128.011733 
L 203.628763 127.882837 
L 204.561873 127.793044 
L 205.494983 127.717886 
L 206.428094 127.643199 
L 207.361204 127.567637 
L 207.404035 127.565217 
L 208.294314 127.516977 
L 209.227425 127.468721 
L 210.160535 127.442227 
L 211.093645 127.500006 
L 212.026756 127.557774 
L 212.146954 127.565217 
L 212.959866 127.615555 
L 213.892977 127.674018 
L 214.826087 127.786186 
L 215.759197 128.066437 
L 216.692308 128.346684 
L 217.177179 128.492308 
L 217.625418 128.626931 
L 218.558528 128.907178 
L 219.491639 129.167248 
L 220.424749 129.383773 
L 220.609953 129.419398 
L 221.35786 129.563244 
L 222.29097 129.73906 
L 223.22408 129.902739 
L 224.157191 130.051045 
L 225.090301 130.19813 
L 225.811306 130.346488 
L 226.023411 130.394737 
L 226.956522 130.799505 
L 227.889632 131.254971 
L 227.925629 131.273579 
L 228.822742 131.732214 
L 229.710592 132.200669 
L 229.755853 132.226014 
L 230.688963 132.836176 
L 231.174653 133.127759 
L 231.622074 133.391182 
L 232.555184 133.80417 
L 233.284224 134.054849 
L 233.488294 134.124284 
L 234.421405 134.498447 
L 235.354515 134.971143 
L 235.37313 134.98194 
L 236.287625 135.510942 
L 236.964355 135.90903 
L 237.220736 136.056387 
L 238.153846 136.601723 
L 238.553659 136.83612 
L 239.086957 137.205361 
L 239.611777 137.763211 
L 240.020067 138.233279 
L 240.417015 138.690301 
L 240.953177 139.307598 
L 241.22226 139.617391 
L 241.886288 140.381903 
L 242.027495 140.544482 
L 242.819398 141.456217 
L 242.832735 141.471572 
L 243.637998 142.398662 
L 243.752508 142.5305 
L 244.443237 143.325753 
L 244.685619 143.614739 
L 245.200317 144.252843 
L 245.618729 144.781458 
L 245.929543 145.179933 
L 246.551839 145.98658 
L 246.647444 146.107023 
L 247.364785 147.034114 
L 247.48495 147.189736 
L 248.097811 147.961204 
L 248.41806 148.37857 
L 248.819993 148.888294 
L 249.351171 149.598214 
L 249.492142 149.815385 
L 250.00228 150.742475 
L 250.284281 151.2444 
L 250.524305 151.669565 
L 251.027586 152.596656 
L 251.217391 153.008034 
L 251.447008 153.523746 
L 251.863523 154.450836 
L 252.150502 155.072656 
L 252.292322 155.377926 
L 252.720289 156.305017 
L 253.083612 157.133558 
L 253.126382 157.232107 
L 253.510646 158.159197 
L 253.89491 159.086288 
L 254.016722 159.380176 
L 254.272258 160.013378 
L 254.539019 160.940468 
L 254.78954 161.867559 
L 254.949833 162.460764 
L 255.040055 162.794649 
L 255.29059 163.721739 
L 255.534104 164.648829 
L 255.769629 165.57592 
L 255.882943 166.021977 
L 256.005144 166.50301 
L 256.23526 167.4301 
L 256.485164 168.357191 
L 256.656385 169.284281 
L 256.816054 170.148891 
L 256.827845 170.211371 
L 257.027259 171.138462 
L 257.214175 172.065552 
L 257.406859 172.992642 
L 257.654249 173.919732 
L 257.749164 174.275422 
L 257.90164 174.846823 
L 258.14902 175.773913 
L 258.368097 176.701003 
L 258.556044 177.628094 
L 258.682274 178.257836 
L 258.741877 178.555184 
L 258.925644 179.482274 
L 258.897893 180.409365 
L 258.938895 181.336455 
L 258.952264 182.263545 
L 258.94252 183.190635 
L 258.932792 184.117726 
L 258.92306 185.044816 
L 258.913323 185.971906 
L 258.903588 186.898997 
L 258.893852 187.826087 
L 258.884116 188.753177 
L 258.862895 189.680268 
L 258.791549 190.607358 
L 258.720203 191.534448 
L 258.682274 191.839989 
L 258.602945 192.461538 
L 258.254467 193.388629 
L 257.80375 194.315719 
L 257.749164 194.436846 
L 257.38351 195.242809 
L 257.001968 196.1699 
L 256.816054 196.632052 
L 256.628627 197.09699 
L 256.195263 198.02408 
L 255.882943 198.754733 
L 255.801631 198.951171 
L 255.434039 199.878261 
L 255.066429 200.805351 
L 254.949833 201.099403 
L 254.698826 201.732441 
L 254.333101 202.659532 
L 254.016722 203.466317 
L 253.969546 203.586622 
L 253.596183 204.513712 
L 253.214836 205.440803 
L 253.083612 205.753875 
L 252.795438 206.367893 
L 252.213562 207.294983 
L 252.150502 207.392157 
L 251.611922 208.222074 
L 251.217391 208.830011 
L 251.010271 209.149164 
L 250.408615 210.076254 
L 250.284281 210.26784 
L 249.806976 211.003344 
L 249.351171 211.681322 
L 249.181361 211.930435 
L 248.466332 212.857525 
L 248.41806 212.920052 
L 247.750606 213.784615 
L 247.48495 214.128727 
L 247.01075 214.711706 
L 246.551839 215.225252 
L 246.177463 215.638796 
L 245.618729 216.268412 
L 245.348835 216.565886 
L 244.685619 217.201661 
L 244.365383 217.492977 
L 243.752508 218.030206 
L 243.275403 218.420067 
L 242.819398 218.762354 
L 241.936169 219.347157 
L 241.886288 219.379621 
L 240.953177 219.986379 
L 240.509916 220.274247 
L 240.020067 220.592366 
L 239.086957 221.198341 
L 239.082342 221.201338 
L 238.153846 221.804322 
L 237.665506 222.128428 
L 237.220736 222.437088 
L 236.37604 223.055518 
L 236.287625 223.120248 
L 235.354515 223.803403 
L 234.943705 223.982609 
L 234.421405 224.157477 
L 233.488294 224.360079 
L 232.555184 224.60093 
L 231.622074 224.863475 
L 231.463404 224.909699 
L 230.688963 225.134369 
L 229.755853 225.405058 
L 228.822742 225.675737 
L 228.267614 225.836789 
L 227.889632 225.946448 
L 226.956522 226.217126 
L 226.023411 226.48781 
L 225.090301 226.758453 
L 225.070122 226.76388 
L 224.157191 227.018133 
L 223.22408 227.283026 
L 222.29097 227.553388 
L 221.823424 227.69097 
L 221.35786 227.828596 
L 220.424749 228.106181 
L 219.491639 228.417334 
L 218.827217 228.61806 
L 218.558528 228.696728 
L 217.625418 228.928214 
L 216.692308 229.159704 
L 215.759197 229.391179 
L 215.13855 229.545151 
L 214.826087 229.622666 
L 213.892977 229.854136 
L 212.959866 230.085622 
L 212.026756 230.316364 
L 211.093645 230.4506 
L 210.771 230.472241 
L 210.160535 230.513696 
L 209.227425 230.578751 
L 208.294314 230.641617 
L 207.361204 230.696652 
L 206.428094 230.744919 
L 205.494983 230.873333 
L 204.561873 230.980915 
L 203.628763 231.087074 
L 202.695652 231.194159 
L 201.762542 231.302303 
L 201.168739 231.399331 
L 200.829431 231.45229 
L 199.896321 231.640019 
L 198.963211 231.79298 
L 198.0301 231.930606 
L 197.09699 232.066913 
L 196.16388 232.204143 
L 195.506322 232.326421 
L 195.230769 232.378473 
L 194.297659 232.612515 
L 193.364548 232.84856 
L 192.431438 233.086761 
L 191.831576 233.253512 
L 191.498328 233.3452 
L 190.565217 233.584219 
L 189.632107 233.843676 
L 188.698997 234.138273 
L 188.562508 234.180602 
L 187.765886 234.424006 
L 186.832776 234.715708 
L 185.899666 235.006441 
L 185.573191 235.107692 
L 184.966555 235.294206 
L 184.033445 235.584529 
L 183.100334 235.871391 
L 182.566829 236.034783 
L 182.167224 236.156881 
L 181.234114 236.442949 
L 180.301003 236.679625 
L 179.367893 236.825384 
L 178.494099 236.961873 
L 178.434783 236.971138 
L 177.501672 237.206647 
L 176.568562 237.490274 
L 175.635452 237.773906 
L 175.246128 237.888963 
L 174.702341 238.044999 
L 173.769231 238.272634 
L 172.83612 238.500278 
L 171.90301 238.727928 
L 171.541797 238.816054 
L 170.9699 238.955577 
L 170.036789 239.183211 
L 169.103679 239.410858 
L 168.170569 239.479673 
L 167.237458 239.511332 
L 166.304348 239.54895 
L 165.371237 239.586554 
L 164.438127 239.624153 
L 163.505017 239.661349 
L 162.571906 239.650717 
L 161.638796 239.618404 
L 160.705686 239.586109 
L 159.772575 239.553807 
L 158.839465 239.514858 
L 157.906355 239.462898 
L 156.973244 239.390393 
L 156.040134 239.318535 
L 155.107023 239.256442 
L 154.173913 239.194582 
L 153.240803 239.071139 
L 152.307692 238.90487 
z
" clip-path="url(#pf89d08950e)" style="fill: none; stroke: #000000; stroke-width: 1.5"/>
   </g>
   <g id="patch_3">
    <path d="M 45 320.4 
L 45 43.2 
" style="fill: none; stroke: #000000; stroke-width: 0.8; stroke-linejoin: miter; stroke-linecap: square"/>
   </g>
   <g id="patch_4">
    <path d="M 324 320.4 
L 324 43.2 
" style="fill: none; stroke: #000000; stroke-width: 0.8; stroke-linejoin: miter; stroke-linecap: square"/>
   </g>
   <g id="patch_5">
    <path d="M 45 320.4 
L 324 320.4 
" style="fill: none; stroke: #000000; stroke-width: 0.8; stroke-linejoin: miter; stroke-linecap: square"/>
   </g>
   <g id="patch_6">
    <path d="M 45 43.2 
L 324 43.2 
" style="fill: none; stroke: #000000; stroke-width: 0.8; stroke-linejoin: miter; stroke-linecap: square"/>
   </g>
  </g>
 </g>
 <defs>
  <clipPath id="pf89d08950e">
   <rect x="45" y="43.2" width="279" height="277.2"/>
  </clipPath>
 </defs>
</svg>
