<?xml version="1.0" encoding="utf-8" standalone="no"?>
<!DOCTYPE svg PUBLIC "-//W3C//DTD SVG 1.1//EN"
  "http://www.w3.org/Graphics/SVG/1.1/DTD/svg11.dtd">
<svg xmlns:xlink="http://www.w3.org/1999/xlink" width="360pt" height="360pt" viewBox="0 0 360 360" xmlns="http://www.w3.org/2000/svg" version="1.1">
 <metadata>
  <rdf:RDF xmlns:dc="http://purl.org/dc/elements/1.1/" xmlns:cc="http://creativecommons.org/ns#" xmlns:rdf="http://www.w3.org/1999/02/22-rdf-syntax-ns#">
   <cc:Work>
    <dc:type rdf:resource="http://purl.org/dc/dcmitype/StillImage"/>
    <dc:date>2022-04-10T19:53:24.319667</dc:date>
    <dc:format>image/svg+xml</dc:format>
    <dc:creator>
     <cc:Agent>
      <dc:title>Matplotlib v3.5.1, https://matplotlib.org/</dc:title>
     </cc:Agent>
    </dc:creator>
   </cc:Work>
  </rdf:RDF>
 </metadata>
 <defs>
  <style type="text/css">*{stroke-linejoin: round; stroke-linecap: butt}</style>
 </defs>
 <g id="figure_1">
  <g id="patch_1">
   <path d="M 0 360 
L 360 360 
L 360 0 
L 0 0 
z
" style="fill: #ffffff"/>
  </g>
  <g id="axes_1">
   <g id="patch_2">
    <path d="M 45 320.4 
L 324 320.4 
L 324 43.2 
L 45 43.2 
z
" style="fill: #ffffff"/>
   </g>
   <g id="PathCollection_1">
    <defs>
     <path id="m5781bbfa25" d="M 0 0.5 
C 0.132602 0.5 0.25979 0.447317 0.353553 0.353553 
C 0.447317 0.25979 0.5 0.132602 0.5 0 
C 0.5 -0.132602 0.447317 -0.25979 0.353553 -0.353553 
C 0.25979 -0.447317 0.132602 -0.5 0 -0.5 
C -0.132602 -0.5 -0.25979 -0.447317 -0.353553 -0.353553 
C -0.447317 -0.25979 -0.5 -0.132602 -0.5 0 
C -0.5 0.132602 -0.447317 0.25979 -0.353553 0.353553 
C -0.25979 0.447317 -0.132602 0.5 0 0.5 
z
" style="stroke: #ff0000"/>
    </defs>
    <g clip-path="url(#p6d71fab7d3)">
     <use xlink:href="#m5781bbfa25" x="221.682852" y="181.336455" style="fill: #ff0000; stroke: #ff0000"/>
     <use xlink:href="#m5781bbfa25" x="221.559138" y="177.755652" style="fill: #ff0000; stroke: #ff0000"/>
     <use xlink:href="#m5781bbfa25" x="221.671182" y="174.082554" style="fill: #ff0000; stroke: #ff0000"/>
     <use xlink:href="#m5781bbfa25" x="222.203968" y="170.113485" style="fill: #ff0000; stroke: #ff0000"/>
     <use xlink:href="#m5781bbfa25" x="223.140245" y="165.626408" style="fill: #ff0000; stroke: #ff0000"/>
     <use xlink:href="#m5781bbfa25" x="224.231123" y="160.484508" style="fill: #ff0000; stroke: #ff0000"/>
     <use xlink:href="#m5781bbfa25" x="225.067421" y="154.714781" style="fill: #ff0000; stroke: #ff0000"/>
     <use xlink:href="#m5781bbfa25" x="225.217171" y="148.516743" style="fill: #ff0000; stroke: #ff0000"/>
     <use xlink:href="#m5781bbfa25" x="224.357715" y="142.199431" style="fill: #ff0000; stroke: #ff0000"/>
     <use xlink:href="#m5781bbfa25" x="222.339631" y="136.091032" style="fill: #ff0000; stroke: #ff0000"/>
     <use xlink:href="#m5781bbfa25" x="219.169397" y="130.478531" style="fill: #ff0000; stroke: #ff0000"/>
     <use xlink:href="#m5781bbfa25" x="214.950167" y="125.602968" style="fill: #ff0000; stroke: #ff0000"/>
     <use xlink:href="#m5781bbfa25" x="209.834792" y="121.686557" style="fill: #ff0000; stroke: #ff0000"/>
     <use xlink:href="#m5781bbfa25" x="204.015902" y="118.944319" style="fill: #ff0000; stroke: #ff0000"/>
     <use xlink:href="#m5781bbfa25" x="197.736252" y="117.553034" style="fill: #ff0000; stroke: #ff0000"/>
     <use xlink:href="#m5781bbfa25" x="191.285593" y="117.592113" style="fill: #ff0000; stroke: #ff0000"/>
     <use xlink:href="#m5781bbfa25" x="184.966555" y="118.997695" style="fill: #ff0000; stroke: #ff0000"/>
     <use xlink:href="#m5781bbfa25" x="179.041299" y="121.564448" style="fill: #ff0000; stroke: #ff0000"/>
     <use xlink:href="#m5781bbfa25" x="173.687557" y="124.99893" style="fill: #ff0000; stroke: #ff0000"/>
     <use xlink:href="#m5781bbfa25" x="168.986391" y="128.996783" style="fill: #ff0000; stroke: #ff0000"/>
     <use xlink:href="#m5781bbfa25" x="164.941385" y="133.303321" style="fill: #ff0000; stroke: #ff0000"/>
     <use xlink:href="#m5781bbfa25" x="161.507357" y="137.730538" style="fill: #ff0000; stroke: #ff0000"/>
     <use xlink:href="#m5781bbfa25" x="158.602396" y="142.134263" style="fill: #ff0000; stroke: #ff0000"/>
     <use xlink:href="#m5781bbfa25" x="156.093767" y="146.381838" style="fill: #ff0000; stroke: #ff0000"/>
     <use xlink:href="#m5781bbfa25" x="153.773919" y="150.345062" style="fill: #ff0000; stroke: #ff0000"/>
     <use xlink:href="#m5781bbfa25" x="151.35898" y="153.933373" style="fill: #ff0000; stroke: #ff0000"/>
     <use xlink:href="#m5781bbfa25" x="148.537367" y="157.15229" style="fill: #ff0000; stroke: #ff0000"/>
     <use xlink:href="#m5781bbfa25" x="145.071025" y="160.149428" style="fill: #ff0000; stroke: #ff0000"/>
     <use xlink:href="#m5781bbfa25" x="140.916865" y="163.208192" style="fill: #ff0000; stroke: #ff0000"/>
     <use xlink:href="#m5781bbfa25" x="136.309976" y="166.671868" style="fill: #ff0000; stroke: #ff0000"/>
     <use xlink:href="#m5781bbfa25" x="131.753729" y="170.820054" style="fill: #ff0000; stroke: #ff0000"/>
     <use xlink:href="#m5781bbfa25" x="127.90207" y="175.752354" style="fill: #ff0000; stroke: #ff0000"/>
     <use xlink:href="#m5781bbfa25" x="125.376051" y="181.336455" style="fill: #ff0000; stroke: #ff0000"/>
     <use xlink:href="#m5781bbfa25" x="124.591423" y="187.244522" style="fill: #ff0000; stroke: #ff0000"/>
     <use xlink:href="#m5781bbfa25" x="125.66237" y="193.056685" style="fill: #ff0000; stroke: #ff0000"/>
     <use xlink:href="#m5781bbfa25" x="128.400428" y="198.384898" style="fill: #ff0000; stroke: #ff0000"/>
     <use xlink:href="#m5781bbfa25" x="132.38531" y="202.975805" style="fill: #ff0000; stroke: #ff0000"/>
     <use xlink:href="#m5781bbfa25" x="137.072283" y="206.771315" style="fill: #ff0000; stroke: #ff0000"/>
     <use xlink:href="#m5781bbfa25" x="141.912178" y="209.91887" style="fill: #ff0000; stroke: #ff0000"/>
     <use xlink:href="#m5781bbfa25" x="146.469644" y="212.726224" style="fill: #ff0000; stroke: #ff0000"/>
     <use xlink:href="#m5781bbfa25" x="150.519136" y="215.561633" style="fill: #ff0000; stroke: #ff0000"/>
     <use xlink:href="#m5781bbfa25" x="154.087547" y="218.719885" style="fill: #ff0000; stroke: #ff0000"/>
     <use xlink:href="#m5781bbfa25" x="157.418193" y="222.299499" style="fill: #ff0000; stroke: #ff0000"/>
     <use xlink:href="#m5781bbfa25" x="160.860583" y="226.144595" style="fill: #ff0000; stroke: #ff0000"/>
     <use xlink:href="#m5781bbfa25" x="164.727743" y="229.882039" style="fill: #ff0000; stroke: #ff0000"/>
     <use xlink:href="#m5781bbfa25" x="169.180831" y="233.039281" style="fill: #ff0000; stroke: #ff0000"/>
     <use xlink:href="#m5781bbfa25" x="174.185027" y="235.189162" style="fill: #ff0000; stroke: #ff0000"/>
     <use xlink:href="#m5781bbfa25" x="179.541688" y="236.060699" style="fill: #ff0000; stroke: #ff0000"/>
     <use xlink:href="#m5781bbfa25" x="184.966555" y="235.581966" style="fill: #ff0000; stroke: #ff0000"/>
     <use xlink:href="#m5781bbfa25" x="190.173336" y="233.860722" style="fill: #ff0000; stroke: #ff0000"/>
     <use xlink:href="#m5781bbfa25" x="194.935896" y="231.132367" style="fill: #ff0000; stroke: #ff0000"/>
     <use xlink:href="#m5781bbfa25" x="199.122622" y="227.701679" style="fill: #ff0000; stroke: #ff0000"/>
     <use xlink:href="#m5781bbfa25" x="202.706261" y="223.887587" style="fill: #ff0000; stroke: #ff0000"/>
     <use xlink:href="#m5781bbfa25" x="205.75104" y="219.970619" style="fill: #ff0000; stroke: #ff0000"/>
     <use xlink:href="#m5781bbfa25" x="208.37823" y="216.148451" style="fill: #ff0000; stroke: #ff0000"/>
     <use xlink:href="#m5781bbfa25" x="210.719179" y="212.513668" style="fill: #ff0000; stroke: #ff0000"/>
     <use xlink:href="#m5781bbfa25" x="212.873762" y="209.063615" style="fill: #ff0000; stroke: #ff0000"/>
     <use xlink:href="#m5781bbfa25" x="214.889679" y="205.735294" style="fill: #ff0000; stroke: #ff0000"/>
     <use xlink:href="#m5781bbfa25" x="216.76306" y="202.445131" style="fill: #ff0000; stroke: #ff0000"/>
     <use xlink:href="#m5781bbfa25" x="218.448078" y="199.117242" style="fill: #ff0000; stroke: #ff0000"/>
     <use xlink:href="#m5781bbfa25" x="219.866777" y="195.699335" style="fill: #ff0000; stroke: #ff0000"/>
     <use xlink:href="#m5781bbfa25" x="220.926031" y="192.174267" style="fill: #ff0000; stroke: #ff0000"/>
     <use xlink:href="#m5781bbfa25" x="221.555426" y="188.567479" style="fill: #ff0000; stroke: #ff0000"/>
     <use xlink:href="#m5781bbfa25" x="221.763659" y="184.937271" style="fill: #ff0000; stroke: #ff0000"/>
    </g>
   </g>
   <g id="matplotlib.axis_1">
    <g id="xtick_1">
     <g id="line2d_1">
      <defs>
       <path id="mf3bf794f93" d="M 0 0 
L 0 3.5 
" style="stroke: #000000; stroke-width: 0.8"/>
      </defs>
      <g>
       <use xlink:href="#mf3bf794f93" x="45" y="320.4" style="stroke: #000000; stroke-width: 0.8"/>
      </g>
     </g>
     <g id="text_1">
      <!-- −3 -->
      <g transform="translate(37.628906 334.998438)scale(0.1 -0.1)">
       <defs>
        <path id="DejaVuSans-2212" d="M 678 2272 
L 4684 2272 
L 4684 1741 
L 678 1741 
L 678 2272 
z
" transform="scale(0.015625)"/>
        <path id="DejaVuSans-33" d="M 2597 2516 
Q 3050 2419 3304 2112 
Q 3559 1806 3559 1356 
Q 3559 666 3084 287 
Q 2609 -91 1734 -91 
Q 1441 -91 1130 -33 
Q 819 25 488 141 
L 488 750 
Q 750 597 1062 519 
Q 1375 441 1716 441 
Q 2309 441 2620 675 
Q 2931 909 2931 1356 
Q 2931 1769 2642 2001 
Q 2353 2234 1838 2234 
L 1294 2234 
L 1294 2753 
L 1863 2753 
Q 2328 2753 2575 2939 
Q 2822 3125 2822 3475 
Q 2822 3834 2567 4026 
Q 2313 4219 1838 4219 
Q 1578 4219 1281 4162 
Q 984 4106 628 3988 
L 628 4550 
Q 988 4650 1302 4700 
Q 1616 4750 1894 4750 
Q 2613 4750 3031 4423 
Q 3450 4097 3450 3541 
Q 3450 3153 3228 2886 
Q 3006 2619 2597 2516 
z
" transform="scale(0.015625)"/>
       </defs>
       <use xlink:href="#DejaVuSans-2212"/>
       <use xlink:href="#DejaVuSans-33" x="83.789062"/>
      </g>
     </g>
    </g>
    <g id="xtick_2">
     <g id="line2d_2">
      <g>
       <use xlink:href="#mf3bf794f93" x="91.655518" y="320.4" style="stroke: #000000; stroke-width: 0.8"/>
      </g>
     </g>
     <g id="text_2">
      <!-- −2 -->
      <g transform="translate(84.284425 334.998438)scale(0.1 -0.1)">
       <defs>
        <path id="DejaVuSans-32" d="M 1228 531 
L 3431 531 
L 3431 0 
L 469 0 
L 469 531 
Q 828 903 1448 1529 
Q 2069 2156 2228 2338 
Q 2531 2678 2651 2914 
Q 2772 3150 2772 3378 
Q 2772 3750 2511 3984 
Q 2250 4219 1831 4219 
Q 1534 4219 1204 4116 
Q 875 4013 500 3803 
L 500 4441 
Q 881 4594 1212 4672 
Q 1544 4750 1819 4750 
Q 2544 4750 2975 4387 
Q 3406 4025 3406 3419 
Q 3406 3131 3298 2873 
Q 3191 2616 2906 2266 
Q 2828 2175 2409 1742 
Q 1991 1309 1228 531 
z
" transform="scale(0.015625)"/>
       </defs>
       <use xlink:href="#DejaVuSans-2212"/>
       <use xlink:href="#DejaVuSans-32" x="83.789062"/>
      </g>
     </g>
    </g>
    <g id="xtick_3">
     <g id="line2d_3">
      <g>
       <use xlink:href="#mf3bf794f93" x="138.311037" y="320.4" style="stroke: #000000; stroke-width: 0.8"/>
      </g>
     </g>
     <g id="text_3">
      <!-- −1 -->
      <g transform="translate(130.939943 334.998438)scale(0.1 -0.1)">
       <defs>
        <path id="DejaVuSans-31" d="M 794 531 
L 1825 531 
L 1825 4091 
L 703 3866 
L 703 4441 
L 1819 4666 
L 2450 4666 
L 2450 531 
L 3481 531 
L 3481 0 
L 794 0 
L 794 531 
z
" transform="scale(0.015625)"/>
       </defs>
       <use xlink:href="#DejaVuSans-2212"/>
       <use xlink:href="#DejaVuSans-31" x="83.789062"/>
      </g>
     </g>
    </g>
    <g id="xtick_4">
     <g id="line2d_4">
      <g>
       <use xlink:href="#mf3bf794f93" x="184.966555" y="320.4" style="stroke: #000000; stroke-width: 0.8"/>
      </g>
     </g>
     <g id="text_4">
      <!-- 0 -->
      <g transform="translate(181.785305 334.998438)scale(0.1 -0.1)">
       <defs>
        <path id="DejaVuSans-30" d="M 2034 4250 
Q 1547 4250 1301 3770 
Q 1056 3291 1056 2328 
Q 1056 1369 1301 889 
Q 1547 409 2034 409 
Q 2525 409 2770 889 
Q 3016 1369 3016 2328 
Q 3016 3291 2770 3770 
Q 2525 4250 2034 4250 
z
M 2034 4750 
Q 2819 4750 3233 4129 
Q 3647 3509 3647 2328 
Q 3647 1150 3233 529 
Q 2819 -91 2034 -91 
Q 1250 -91 836 529 
Q 422 1150 422 2328 
Q 422 3509 836 4129 
Q 1250 4750 2034 4750 
z
" transform="scale(0.015625)"/>
       </defs>
       <use xlink:href="#DejaVuSans-30"/>
      </g>
     </g>
    </g>
    <g id="xtick_5">
     <g id="line2d_5">
      <g>
       <use xlink:href="#mf3bf794f93" x="231.622074" y="320.4" style="stroke: #000000; stroke-width: 0.8"/>
      </g>
     </g>
     <g id="text_5">
      <!-- 1 -->
      <g transform="translate(228.440824 334.998438)scale(0.1 -0.1)">
       <use xlink:href="#DejaVuSans-31"/>
      </g>
     </g>
    </g>
    <g id="xtick_6">
     <g id="line2d_6">
      <g>
       <use xlink:href="#mf3bf794f93" x="278.277592" y="320.4" style="stroke: #000000; stroke-width: 0.8"/>
      </g>
     </g>
     <g id="text_6">
      <!-- 2 -->
      <g transform="translate(275.096342 334.998438)scale(0.1 -0.1)">
       <use xlink:href="#DejaVuSans-32"/>
      </g>
     </g>
    </g>
   </g>
   <g id="matplotlib.axis_2">
    <g id="ytick_1">
     <g id="line2d_7">
      <defs>
       <path id="m4713f64596" d="M 0 0 
L -3.5 0 
" style="stroke: #000000; stroke-width: 0.8"/>
      </defs>
      <g>
       <use xlink:href="#m4713f64596" x="45" y="320.4" style="stroke: #000000; stroke-width: 0.8"/>
      </g>
     </g>
     <g id="text_7">
      <!-- −3 -->
      <g transform="translate(23.257812 324.199219)scale(0.1 -0.1)">
       <use xlink:href="#DejaVuSans-2212"/>
       <use xlink:href="#DejaVuSans-33" x="83.789062"/>
      </g>
     </g>
    </g>
    <g id="ytick_2">
     <g id="line2d_8">
      <g>
       <use xlink:href="#m4713f64596" x="45" y="274.045485" style="stroke: #000000; stroke-width: 0.8"/>
      </g>
     </g>
     <g id="text_8">
      <!-- −2 -->
      <g transform="translate(23.257812 277.844704)scale(0.1 -0.1)">
       <use xlink:href="#DejaVuSans-2212"/>
       <use xlink:href="#DejaVuSans-32" x="83.789062"/>
      </g>
     </g>
    </g>
    <g id="ytick_3">
     <g id="line2d_9">
      <g>
       <use xlink:href="#m4713f64596" x="45" y="227.69097" style="stroke: #000000; stroke-width: 0.8"/>
      </g>
     </g>
     <g id="text_9">
      <!-- −1 -->
      <g transform="translate(23.257812 231.490189)scale(0.1 -0.1)">
       <use xlink:href="#DejaVuSans-2212"/>
       <use xlink:href="#DejaVuSans-31" x="83.789062"/>
      </g>
     </g>
    </g>
    <g id="ytick_4">
     <g id="line2d_10">
      <g>
       <use xlink:href="#m4713f64596" x="45" y="181.336455" style="stroke: #000000; stroke-width: 0.8"/>
      </g>
     </g>
     <g id="text_10">
      <!-- 0 -->
      <g transform="translate(31.6375 185.135674)scale(0.1 -0.1)">
       <use xlink:href="#DejaVuSans-30"/>
      </g>
     </g>
    </g>
    <g id="ytick_5">
     <g id="line2d_11">
      <g>
       <use xlink:href="#m4713f64596" x="45" y="134.98194" style="stroke: #000000; stroke-width: 0.8"/>
      </g>
     </g>
     <g id="text_11">
      <!-- 1 -->
      <g transform="translate(31.6375 138.781159)scale(0.1 -0.1)">
       <use xlink:href="#DejaVuSans-31"/>
      </g>
     </g>
    </g>
    <g id="ytick_6">
     <g id="line2d_12">
      <g>
       <use xlink:href="#m4713f64596" x="45" y="88.627425" style="stroke: #000000; stroke-width: 0.8"/>
      </g>
     </g>
     <g id="text_12">
      <!-- 2 -->
      <g transform="translate(31.6375 92.426643)scale(0.1 -0.1)">
       <use xlink:href="#DejaVuSans-32"/>
      </g>
     </g>
    </g>
   </g>
   <g id="PathCollection_2">
    <path d="M 181.234114 210.208777 
L 180.796011 210.076254 
L 180.301003 209.931995 
L 179.367893 209.586083 
L 178.434783 209.192899 
L 178.335454 209.149164 
L 177.501672 208.752531 
L 176.568562 208.24944 
L 176.522408 208.222074 
L 175.635452 207.685225 
L 174.996448 207.294983 
L 174.702341 207.106618 
L 173.769231 206.381177 
L 173.750263 206.367893 
L 172.83612 205.825876 
L 172.269965 205.440803 
L 171.90301 205.211338 
L 171.077673 204.513712 
L 170.9699 204.423623 
L 170.036789 203.633366 
L 169.983277 203.586622 
L 169.103679 202.81218 
L 168.946737 202.659532 
L 168.170569 201.91541 
L 167.978618 201.732441 
L 167.237458 201.030502 
L 166.999726 200.805351 
L 166.304348 200.146771 
L 166.020838 199.878261 
L 165.371237 199.30789 
L 164.883227 198.951171 
L 164.438127 198.668447 
L 163.505017 198.076265 
L 163.42349 198.02408 
L 162.571906 197.483605 
L 161.964147 197.09699 
L 161.638796 196.892759 
L 160.705686 196.386547 
L 160.303559 196.1699 
L 159.772575 195.887296 
L 158.839465 195.392167 
L 158.560346 195.242809 
L 157.906355 194.9003 
L 156.973244 194.390461 
L 156.865541 194.315719 
L 156.040134 193.456952 
L 155.983511 193.388629 
L 155.359403 192.461538 
L 155.107023 192.082987 
L 154.7378 191.534448 
L 154.173913 190.664598 
L 154.135165 190.607358 
L 153.497125 189.680268 
L 153.240803 189.310465 
L 152.840633 188.753177 
L 152.307692 187.932376 
L 152.239068 187.826087 
L 151.648225 186.898997 
L 151.38623 185.971906 
L 151.439954 185.044816 
L 151.493949 184.117726 
L 151.763877 183.190635 
L 152.073565 182.263545 
L 152.307692 181.597719 
L 152.4043 181.336455 
L 152.897965 180.409365 
L 153.240803 180.138213 
L 154.1167 179.482274 
L 154.173913 179.438948 
L 155.107023 178.746088 
L 155.357507 178.555184 
L 156.040134 178.044312 
L 156.583269 177.628094 
L 156.973244 177.334327 
L 157.795557 176.701003 
L 157.906355 176.618713 
L 158.839465 176.05463 
L 159.491241 175.773913 
L 159.772575 175.667181 
L 160.705686 175.297203 
L 161.638796 174.951309 
L 161.965608 174.846823 
L 162.571906 174.660192 
L 163.505017 174.219132 
L 163.995559 173.919732 
L 164.438127 173.598094 
L 164.968621 172.992642 
L 165.371237 172.523469 
L 165.770299 172.065552 
L 166.304348 171.467237 
L 166.613681 171.138462 
L 167.237458 170.459826 
L 167.472247 170.211371 
L 168.170569 169.409529 
L 168.280174 169.284281 
L 169.087125 168.357191 
L 169.103679 168.337833 
L 169.846249 167.4301 
L 170.036789 167.195934 
L 170.609898 166.50301 
L 170.9699 166.064805 
L 171.386649 165.57592 
L 171.90301 164.970539 
L 172.204884 164.648829 
L 172.83612 163.914388 
L 173.024103 163.721739 
L 173.769231 162.809252 
L 173.778462 162.794649 
L 174.127465 161.867559 
L 174.409313 160.940468 
L 174.674535 160.013378 
L 174.702341 159.915413 
L 174.940156 159.086288 
L 175.230674 158.159197 
L 175.512479 157.232107 
L 175.635452 156.867808 
L 175.82735 156.305017 
L 176.14807 155.377926 
L 176.482489 154.450836 
L 176.568562 154.213456 
L 176.818648 153.523746 
L 177.172307 152.596656 
L 177.501672 151.844409 
L 177.592691 151.669565 
L 178.138624 150.742475 
L 178.434783 150.37627 
L 178.969521 149.815385 
L 179.367893 149.423447 
L 179.911838 148.888294 
L 180.301003 148.505409 
L 180.85414 147.961204 
L 181.234114 147.587368 
L 181.796448 147.034114 
L 182.167224 146.756382 
L 182.679966 146.107023 
L 183.100334 145.698171 
L 183.585182 145.179933 
L 184.033445 144.749262 
L 184.819161 144.252843 
L 184.966555 144.161086 
L 185.899666 143.678201 
L 186.760176 143.325753 
L 186.832776 143.29614 
L 187.765886 142.915242 
L 188.698997 142.582499 
L 189.283843 142.398662 
L 189.632107 142.289888 
L 190.565217 142.022003 
L 191.498328 141.892605 
L 192.431438 141.864788 
L 193.364548 141.892296 
L 194.297659 142.124096 
L 194.70692 142.398662 
L 195.230769 142.855079 
L 195.689429 143.325753 
L 196.16388 143.812627 
L 196.592861 144.252843 
L 197.09699 144.770182 
L 197.496284 145.179933 
L 198.0301 145.722246 
L 198.405171 146.107023 
L 198.963211 146.666131 
L 199.332296 147.034114 
L 199.896321 147.615062 
L 200.223559 147.961204 
L 200.829431 148.651789 
L 201.01326 148.888294 
L 201.629256 149.815385 
L 201.762542 150.016286 
L 202.200843 150.742475 
L 202.430817 151.669565 
L 202.570108 152.596656 
L 202.695652 153.432363 
L 202.70938 153.523746 
L 202.792029 154.450836 
L 202.866522 155.377926 
L 202.938691 156.305017 
L 202.906382 157.232107 
L 202.760563 158.159197 
L 202.695652 158.600733 
L 202.628135 159.086288 
L 202.510735 160.013378 
L 202.393329 160.940468 
L 202.275932 161.867559 
L 201.919226 162.794649 
L 201.762542 163.126277 
L 201.494171 163.721739 
L 201.15628 164.648829 
L 200.829431 165.573988 
L 200.828749 165.57592 
L 200.531115 166.50301 
L 200.241122 167.4301 
L 199.999065 168.357191 
L 199.896321 168.754676 
L 199.759425 169.284281 
L 199.50149 170.211371 
L 199.247357 171.138462 
L 198.971936 172.065552 
L 198.963211 172.094923 
L 198.696522 172.992642 
L 198.419353 173.919732 
L 198.135675 174.846823 
L 198.0301 175.208176 
L 197.865771 175.773913 
L 197.766337 176.701003 
L 197.682951 177.628094 
L 197.742907 178.555184 
L 197.843171 179.482274 
L 197.989068 180.409365 
L 198.0301 180.732656 
L 198.107094 181.336455 
L 198.166412 182.263545 
L 198.0301 182.769287 
L 197.921088 183.190635 
L 197.684674 184.117726 
L 197.443374 185.044816 
L 197.220887 185.971906 
L 197.09699 186.518043 
L 197.010911 186.898997 
L 196.811714 187.826087 
L 196.615134 188.753177 
L 196.474083 189.680268 
L 196.342434 190.607358 
L 196.16388 191.303784 
L 196.096902 191.534448 
L 195.631274 192.461538 
L 195.230769 193.207255 
L 195.134489 193.388629 
L 194.64239 194.315719 
L 194.297659 194.964305 
L 194.149118 195.242809 
L 193.650236 196.1699 
L 193.364548 196.704811 
L 193.154282 197.09699 
L 192.812604 198.02408 
L 192.431438 198.892502 
L 192.404723 198.951171 
L 191.948093 199.878261 
L 191.498328 200.753349 
L 191.473111 200.805351 
L 191.075833 201.732441 
L 190.697308 202.659532 
L 190.565217 202.983088 
L 190.33801 203.586622 
L 189.994268 204.513712 
L 189.632107 205.388609 
L 189.606978 205.440803 
L 188.987358 206.367893 
L 188.698997 206.711859 
L 187.928536 207.294983 
L 187.765886 207.410823 
L 186.832776 208.07573 
L 186.626823 208.222074 
L 185.899666 208.739957 
L 185.22027 209.149164 
L 184.966555 209.301282 
L 184.033445 209.67986 
L 183.100334 210.057495 
L 183.028177 210.076254 
L 182.167224 210.297485 
L 181.234114 210.208777 
z
" clip-path="url(#p6d71fab7d3)" style="fill: none; stroke-dasharray: 5.55,2.4; stroke-dashoffset: 0; stroke: #000000; stroke-width: 1.5"/>
   </g>
   <g id="PathCollection_3">
    <path d="M 177.501672 236.041238 
L 177.402999 236.034783 
L 176.568562 235.674043 
L 175.635452 235.166657 
L 175.170665 235.107692 
L 174.702341 234.927457 
L 173.769231 234.661147 
L 172.83612 234.28878 
L 172.392573 234.180602 
L 171.90301 233.9847 
L 170.9699 233.628628 
L 170.226363 233.253512 
L 170.036789 233.1414 
L 169.103679 232.713541 
L 168.514362 232.326421 
L 168.170569 232.092065 
L 167.237458 231.402862 
L 167.232552 231.399331 
L 166.304348 230.778621 
L 165.889856 230.472241 
L 165.371237 230.115709 
L 164.617496 229.545151 
L 164.438127 229.414127 
L 163.505017 228.642456 
L 163.473572 228.61806 
L 162.571906 227.883847 
L 162.358581 227.69097 
L 161.638796 227.028025 
L 161.360012 226.76388 
L 160.705686 226.155873 
L 160.379583 225.836789 
L 159.772575 225.263852 
L 159.42366 224.909699 
L 158.839465 224.343548 
L 158.479956 223.982609 
L 157.906355 223.416845 
L 157.5519 223.055518 
L 156.973244 222.472258 
L 156.639575 222.128428 
L 156.040134 221.504592 
L 155.745944 221.201338 
L 155.107023 220.506241 
L 154.886649 220.274247 
L 154.173913 219.511936 
L 153.979539 219.347157 
L 153.240803 218.824377 
L 152.681826 218.420067 
L 152.307692 218.180704 
L 151.448693 217.492977 
L 151.374582 217.442052 
L 150.441472 216.666701 
L 150.326281 216.565886 
L 149.508361 215.895035 
L 149.218057 215.638796 
L 148.575251 215.178165 
L 148.054399 214.711706 
L 147.64214 214.399634 
L 146.956085 213.784615 
L 146.70903 213.588725 
L 145.866089 212.857525 
L 145.77592 212.767651 
L 144.842809 212.297392 
L 144.302388 211.930435 
L 143.909699 211.673729 
L 142.976589 211.312314 
L 142.207003 211.003344 
L 142.043478 210.919619 
L 141.110368 210.484068 
L 140.635149 210.076254 
L 140.177258 209.626847 
L 139.682545 209.149164 
L 139.244147 208.718976 
L 138.72928 208.222074 
L 138.311037 207.815102 
L 137.771989 207.294983 
L 137.377926 206.922069 
L 136.781806 206.367893 
L 136.444816 206.085895 
L 135.598097 205.440803 
L 135.511706 205.354772 
L 134.578595 204.560604 
L 134.384454 204.513712 
L 133.645485 203.731953 
L 133.620312 203.586622 
L 132.838475 202.659532 
L 132.712375 202.514963 
L 132.127095 201.732441 
L 131.779264 201.224484 
L 131.480638 200.805351 
L 130.86111 199.878261 
L 130.846154 199.860404 
L 130.228045 198.951171 
L 129.913043 198.523461 
L 129.519724 198.02408 
L 128.979933 197.343206 
L 128.782256 197.09699 
L 128.046823 196.180969 
L 128.044812 196.1699 
L 127.286247 195.242809 
L 127.113712 194.967488 
L 126.765419 194.315719 
L 126.389038 193.388629 
L 126.180602 192.854205 
L 126.165243 192.461538 
L 126.00726 191.534448 
L 125.690908 190.607358 
L 125.551264 189.680268 
L 125.436163 188.753177 
L 125.274285 187.826087 
L 125.247492 187.703859 
L 125.231015 186.898997 
L 125.238443 185.971906 
L 125.247296 185.044816 
L 125.247492 185.00487 
L 125.338873 184.117726 
L 125.404506 183.190635 
L 125.453537 182.263545 
L 125.53697 181.336455 
L 125.615041 180.409365 
L 125.717795 179.482274 
L 126.012444 178.555184 
L 126.178232 177.628094 
L 126.180602 177.504895 
L 126.424997 176.701003 
L 126.700998 175.773913 
L 127.113712 175.154076 
L 127.343128 174.846823 
L 128.04501 173.919732 
L 128.046823 173.905305 
L 128.73902 172.992642 
L 128.979933 172.682617 
L 129.456077 172.065552 
L 129.913043 171.562797 
L 130.283392 171.138462 
L 130.846154 170.53626 
L 131.149768 170.211371 
L 131.779264 169.586067 
L 132.070201 169.284281 
L 132.712375 168.709345 
L 133.085631 168.357191 
L 133.645485 167.918403 
L 134.359145 167.4301 
L 134.578595 167.390389 
L 135.511706 166.66511 
L 135.672647 166.50301 
L 136.444816 165.965604 
L 136.964447 165.57592 
L 137.377926 165.267915 
L 138.270198 164.648829 
L 138.311037 164.622912 
L 139.244147 163.925133 
L 139.45671 163.721739 
L 140.177258 163.06451 
L 140.497927 162.794649 
L 141.110368 162.243158 
L 141.524825 161.867559 
L 142.043478 161.403051 
L 142.553339 160.940468 
L 142.976589 160.538891 
L 143.558349 160.013378 
L 143.909699 159.669239 
L 144.560513 159.086288 
L 144.842809 158.81015 
L 145.581324 158.159197 
L 145.77592 157.971134 
L 146.682257 157.232107 
L 146.70903 157.209 
L 147.64214 156.492902 
L 147.940574 156.305017 
L 148.575251 155.896842 
L 149.508361 155.594328 
L 149.82457 155.377926 
L 150.441472 154.885289 
L 151.139282 154.450836 
L 151.374582 154.280023 
L 152.307692 153.627849 
L 152.413581 153.523746 
L 152.955743 152.596656 
L 153.240803 152.212576 
L 153.558634 151.669565 
L 154.063039 150.742475 
L 154.173913 150.581361 
L 154.642094 149.815385 
L 155.107023 149.1004 
L 155.239383 148.888294 
L 155.685193 147.961204 
L 156.040134 147.372797 
L 156.222013 147.034114 
L 156.644796 146.107023 
L 156.973244 145.566507 
L 157.175241 145.179933 
L 157.603235 144.252843 
L 157.906355 143.760207 
L 158.13079 143.325753 
L 158.513317 142.398662 
L 158.839465 141.664748 
L 158.931298 141.471572 
L 159.171853 140.544482 
L 159.513609 139.617391 
L 159.772575 139.236951 
L 160.0823 138.690301 
L 160.581506 137.763211 
L 160.705686 137.574504 
L 161.084491 136.83612 
L 161.552126 135.90903 
L 161.638796 135.783167 
L 162.152526 134.98194 
L 162.571906 134.421718 
L 162.832178 134.054849 
L 163.489642 133.127759 
L 163.505017 133.108355 
L 164.278295 132.200669 
L 164.438127 132.034097 
L 165.170452 131.273579 
L 165.371237 131.069688 
L 166.068292 130.346488 
L 166.304348 130.106894 
L 166.967596 129.419398 
L 167.237458 129.154424 
L 167.978928 128.492308 
L 168.170569 128.324744 
L 169.103679 127.579423 
L 169.119425 127.565217 
L 170.036789 126.814631 
L 170.2517 126.638127 
L 170.9699 126.050113 
L 171.383606 125.711037 
L 171.90301 125.285702 
L 172.515735 124.783946 
L 172.83612 124.509966 
L 173.64319 123.856856 
L 173.769231 123.754116 
L 174.702341 123.074948 
L 174.897673 122.929766 
L 175.635452 122.383323 
L 176.19655 122.002676 
L 176.568562 121.757067 
L 177.501672 121.30388 
L 178.002588 121.075585 
L 178.434783 120.877607 
L 179.367893 120.512906 
L 180.286113 120.148495 
L 180.301003 120.143402 
L 181.234114 119.876456 
L 182.167224 119.585307 
L 183.100334 119.240575 
L 183.149318 119.221405 
L 184.033445 118.999361 
L 184.966555 118.77356 
L 185.899666 118.558043 
L 186.640181 118.294314 
L 186.832776 118.248026 
L 187.765886 117.979013 
L 188.698997 117.891053 
L 189.632107 117.871558 
L 190.565217 117.868528 
L 191.498328 117.829993 
L 192.431438 117.787801 
L 193.364548 117.754804 
L 194.297659 117.725444 
L 195.230769 117.69605 
L 196.16388 117.671714 
L 197.09699 117.649379 
L 198.0301 117.625349 
L 198.963211 117.62397 
L 199.896321 117.779561 
L 200.829431 118.092216 
L 201.298797 118.294314 
L 201.762542 118.486805 
L 202.695652 118.859486 
L 203.479762 119.221405 
L 203.628763 119.30164 
L 204.561873 119.778779 
L 205.28513 120.148495 
L 205.494983 120.267272 
L 206.428094 120.777016 
L 206.962253 121.075585 
L 207.361204 121.309675 
L 208.294314 121.808743 
L 208.622611 122.002676 
L 209.227425 122.342954 
L 210.160535 122.861974 
L 210.270435 122.929766 
L 211.093645 123.392911 
L 211.918254 123.856856 
L 212.026756 123.937976 
L 212.959866 124.442883 
L 213.566075 124.783946 
L 213.892977 124.989991 
L 214.826087 125.492849 
L 215.1253 125.711037 
L 215.759197 126.262768 
L 216.165545 126.638127 
L 216.692308 127.116112 
L 217.187767 127.565217 
L 217.625418 127.949934 
L 218.236334 128.492308 
L 218.558528 128.780132 
L 219.261078 129.419398 
L 219.491639 129.670489 
L 220.058313 130.346488 
L 220.424749 130.798934 
L 220.813104 131.273579 
L 221.35786 131.969578 
L 221.522202 132.200669 
L 222.106942 133.127759 
L 222.29097 133.369244 
L 222.745166 134.054849 
L 223.22408 134.777754 
L 223.368389 134.98194 
L 223.844992 135.90903 
L 224.157191 136.723029 
L 224.187623 136.83612 
L 224.539601 137.763211 
L 224.788028 138.690301 
L 225.090301 139.516473 
L 225.108438 139.617391 
L 225.409064 140.544482 
L 225.617366 141.471572 
L 225.79899 142.398662 
L 226.023411 142.964625 
L 226.108036 143.325753 
L 226.393784 144.252843 
L 226.551912 145.179933 
L 226.513332 146.107023 
L 226.46553 147.034114 
L 226.426269 147.961204 
L 226.388229 148.888294 
L 226.351345 149.815385 
L 226.314233 150.742475 
L 226.283658 151.669565 
L 226.243443 152.596656 
L 226.188705 153.523746 
L 226.064341 154.450836 
L 226.023411 154.784794 
L 225.919723 155.377926 
L 225.8068 156.305017 
L 225.700052 157.232107 
L 225.538978 158.159197 
L 225.385803 159.086288 
L 225.301214 160.013378 
L 225.286944 160.940468 
L 225.154916 161.867559 
L 225.090301 162.188894 
L 224.975408 162.794649 
L 224.798842 163.721739 
L 224.62261 164.648829 
L 224.449267 165.57592 
L 224.24307 166.50301 
L 224.157191 166.83624 
L 224.012561 167.4301 
L 223.824019 168.357191 
L 223.644631 169.284281 
L 223.465934 170.211371 
L 223.255846 171.138462 
L 223.22408 171.259009 
L 223.038669 172.065552 
L 222.833019 172.992642 
L 222.643145 173.919732 
L 222.429081 174.846823 
L 222.29097 175.428808 
L 222.205269 175.773913 
L 222.000142 176.701003 
L 221.877148 177.628094 
L 221.816959 178.555184 
L 221.761541 179.482274 
L 221.702154 180.409365 
L 221.639665 181.336455 
L 221.56796 182.263545 
L 221.484188 183.190635 
L 221.394484 184.117726 
L 221.35786 184.487337 
L 221.299333 185.044816 
L 221.254418 185.971906 
L 221.229917 186.898997 
L 221.206343 187.826087 
L 221.08248 188.753177 
L 220.785763 189.680268 
L 220.483859 190.607358 
L 220.424749 190.75354 
L 220.180146 191.534448 
L 219.904451 192.461538 
L 219.634456 193.388629 
L 219.491639 193.85257 
L 219.363515 194.315719 
L 219.099997 195.242809 
L 218.884926 196.1699 
L 218.582991 197.09699 
L 218.558528 197.154185 
L 218.295262 198.02408 
L 218.111671 198.951171 
L 217.929185 199.878261 
L 217.732503 200.805351 
L 217.625418 201.211024 
L 217.503828 201.732441 
L 217.276998 202.659532 
L 216.977925 203.586622 
L 216.692308 204.082837 
L 216.478882 204.513712 
L 216.058127 205.440803 
L 215.759197 205.963686 
L 215.556636 206.367893 
L 215.070288 207.294983 
L 214.826087 207.633736 
L 214.425965 208.222074 
L 213.892977 209.021249 
L 213.805656 209.149164 
L 213.160199 210.076254 
L 212.959866 210.344281 
L 212.491316 211.003344 
L 212.026756 211.668319 
L 211.837656 211.930435 
L 211.156036 212.857525 
L 211.093645 212.936331 
L 210.46475 213.784615 
L 210.160535 214.194035 
L 209.777624 214.711706 
L 209.227425 215.508251 
L 209.136251 215.638796 
L 208.570941 216.565886 
L 208.294314 217.019054 
L 208.001 217.492977 
L 207.383631 218.420067 
L 207.361204 218.453023 
L 206.797945 219.347157 
L 206.428094 219.9787 
L 206.248146 220.274247 
L 205.713083 221.201338 
L 205.494983 221.569298 
L 205.184863 222.128428 
L 204.618576 223.055518 
L 204.561873 223.156157 
L 203.984308 223.982609 
L 203.628763 224.414135 
L 203.240406 224.909699 
L 202.695652 225.548809 
L 202.46244 225.836789 
L 201.762542 226.647434 
L 201.652572 226.76388 
L 200.829431 227.485174 
L 200.486014 227.69097 
L 199.896321 228.054743 
L 198.963211 228.581962 
L 198.917412 228.61806 
L 198.0301 229.175417 
L 197.389881 229.545151 
L 197.09699 229.726001 
L 196.16388 230.272266 
L 195.845758 230.472241 
L 195.230769 230.843809 
L 194.297659 231.307978 
L 194.170443 231.399331 
L 193.364548 231.867472 
L 192.568106 232.326421 
L 192.431438 232.387534 
L 191.498328 232.993956 
L 191.085591 233.253512 
L 190.565217 233.591285 
L 189.632107 234.128061 
L 189.5667 234.180602 
L 188.698997 234.661604 
L 187.765886 234.874965 
L 187.096153 235.107692 
L 186.832776 235.128217 
L 185.899666 235.442821 
L 184.966555 235.666395 
L 184.033445 235.860164 
L 183.477165 236.034783 
L 183.100334 236.055174 
L 182.167224 236.36993 
L 181.234114 236.580553 
L 180.301003 236.584656 
L 179.367893 236.582144 
L 178.434783 236.429782 
L 177.501672 236.041238 
z
" clip-path="url(#p6d71fab7d3)" style="fill: none; stroke: #000000; stroke-width: 1.5"/>
   </g>
   <g id="PathCollection_4">
    <path d="M 175.635452 259.271309 
L 175.149834 259.21204 
L 174.702341 259.157424 
L 173.769231 259.009997 
L 172.83612 258.84748 
L 171.90301 258.558606 
L 171.128727 258.28495 
L 170.9699 258.229565 
L 170.036789 257.890533 
L 169.103679 257.546146 
L 168.601797 257.35786 
L 168.170569 257.196031 
L 167.237458 256.845857 
L 166.304348 256.49568 
L 166.131366 256.430769 
L 165.371237 256.145527 
L 164.438127 255.79535 
L 163.660937 255.503679 
L 163.505017 255.445163 
L 162.571906 255.095009 
L 161.638796 254.744833 
L 161.267324 254.576589 
L 160.705686 254.311885 
L 159.772575 253.866519 
L 159.31786 253.649498 
L 158.839465 253.421172 
L 157.906355 252.975795 
L 157.508014 252.722408 
L 156.973244 252.347947 
L 156.182639 251.795318 
L 156.040134 251.695706 
L 155.107023 251.043466 
L 154.856324 250.868227 
L 154.173913 250.391224 
L 153.530012 249.941137 
L 153.240803 249.738978 
L 152.307692 249.086674 
L 152.206194 249.014047 
L 151.374582 248.401969 
L 150.963202 248.086957 
L 150.441472 247.687785 
L 149.752238 247.159866 
L 149.508361 246.973068 
L 148.575251 246.25382 
L 148.548035 246.232776 
L 147.64214 245.53797 
L 147.339832 245.305686 
L 146.70903 244.80233 
L 146.222648 244.378595 
L 145.77592 243.989176 
L 145.085356 243.451505 
L 144.842809 243.262658 
L 143.909699 242.535885 
L 143.895762 242.524415 
L 142.976589 241.730047 
L 142.835669 241.597324 
L 142.043478 240.835084 
L 141.872157 240.670234 
L 141.110368 239.937222 
L 140.908669 239.743144 
L 140.177258 239.040177 
L 139.95314 238.816054 
L 139.244147 238.10607 
L 139.032087 237.888963 
L 138.311037 237.150773 
L 138.12652 236.961873 
L 137.377926 236.195499 
L 137.220941 236.034783 
L 136.444816 235.240215 
L 136.315369 235.107692 
L 135.511706 234.284942 
L 135.408722 234.180602 
L 134.578595 233.348287 
L 134.481499 233.253512 
L 133.645485 232.519881 
L 133.410722 232.326421 
L 132.712375 231.764638 
L 132.108265 231.399331 
L 131.779264 231.219325 
L 130.846154 230.7178 
L 130.391878 230.472241 
L 129.913043 230.213394 
L 128.979933 229.699053 
L 128.759427 229.545151 
L 128.046823 229.012284 
L 127.519613 228.61806 
L 127.113712 228.314547 
L 126.281314 227.69097 
L 126.180602 227.60996 
L 125.247492 226.780426 
L 125.229869 226.76388 
L 124.314381 225.991143 
L 124.099577 225.836789 
L 123.381271 225.349131 
L 122.842512 224.909699 
L 122.448161 224.501519 
L 121.970899 223.982609 
L 121.51505 223.491361 
L 121.113878 223.055518 
L 120.58194 222.484095 
L 120.252844 222.128428 
L 119.648829 221.479895 
L 119.389397 221.201338 
L 118.715719 220.478022 
L 118.525805 220.274247 
L 117.782609 219.493379 
L 117.641648 219.347157 
L 116.849498 218.525453 
L 116.747904 218.420067 
L 115.916388 217.57625 
L 115.831112 217.492977 
L 114.983278 216.670438 
L 114.87551 216.565886 
L 114.050167 215.765178 
L 113.932611 215.638796 
L 113.347156 214.711706 
L 113.117057 214.317267 
L 112.806329 213.784615 
L 112.265494 212.857525 
L 112.183946 212.717731 
L 111.724685 211.930435 
L 111.250836 211.118165 
L 111.183855 211.003344 
L 110.673972 210.076254 
L 110.317726 209.475016 
L 110.117039 209.149164 
L 109.398139 208.222074 
L 109.384615 208.204522 
L 108.759789 207.294983 
L 108.451505 206.729707 
L 108.250008 206.367893 
L 107.716311 205.440803 
L 107.518395 205.091242 
L 107.191404 204.513712 
L 106.686083 203.586622 
L 106.585284 203.310873 
L 106.360111 202.659532 
L 106.042477 201.732441 
L 105.731741 200.805351 
L 105.652174 200.562915 
L 105.427473 199.878261 
L 105.123198 198.951171 
L 104.818939 198.02408 
L 104.719064 197.719774 
L 104.514664 197.09699 
L 104.198184 196.1699 
L 103.824861 195.242809 
L 103.785953 195.141996 
L 103.470957 194.315719 
L 103.261819 193.388629 
L 103.053983 192.461538 
L 102.870061 191.534448 
L 102.852843 191.43721 
L 102.706797 190.607358 
L 102.559219 189.680268 
L 102.44382 188.753177 
L 102.352309 187.826087 
L 102.321201 186.898997 
L 102.394527 185.971906 
L 102.467849 185.044816 
L 102.541168 184.117726 
L 102.614491 183.190635 
L 102.80759 182.263545 
L 102.852843 182.113404 
L 103.08799 181.336455 
L 103.333545 180.409365 
L 103.426953 179.482274 
L 103.490806 178.555184 
L 103.546284 177.628094 
L 103.6603 176.701003 
L 103.785953 176.03784 
L 103.837089 175.773913 
L 104.054984 174.846823 
L 104.284941 173.919732 
L 104.575419 172.992642 
L 104.719064 172.611792 
L 104.925083 172.065552 
L 105.495065 171.138462 
L 105.652174 170.902179 
L 106.111502 170.211371 
L 106.585284 169.498966 
L 106.728059 169.284281 
L 107.334705 168.357191 
L 107.518395 168.06464 
L 107.917984 167.4301 
L 108.451505 166.578868 
L 108.499165 166.50301 
L 109.050588 165.57592 
L 109.384615 164.832405 
L 109.468363 164.648829 
L 109.891337 163.721739 
L 110.31428 162.794649 
L 110.317726 162.787096 
L 110.737247 161.867559 
L 111.160203 160.940468 
L 111.250836 160.738937 
L 111.575729 160.013378 
L 111.981198 159.086288 
L 112.183946 158.661352 
L 112.465916 158.159197 
L 113.117057 157.456945 
L 113.325525 157.232107 
L 114.050167 156.450592 
L 114.185147 156.305017 
L 114.983278 155.444216 
L 115.047299 155.377926 
L 115.916388 154.520868 
L 115.989484 154.450836 
L 116.849498 153.577765 
L 116.90207 153.523746 
L 117.782609 152.618937 
L 117.804293 152.596656 
L 118.706542 151.669565 
L 118.715719 151.660135 
L 119.60878 150.742475 
L 119.648829 150.701534 
L 120.524658 149.815385 
L 120.58194 149.758126 
L 121.452124 148.888294 
L 121.51505 148.825394 
L 122.379575 147.961204 
L 122.448161 147.894583 
L 123.35046 147.034114 
L 123.381271 147.005134 
L 124.314381 146.127462 
L 124.335896 146.107023 
L 125.247492 145.216092 
L 125.283895 145.179933 
L 126.180602 144.297773 
L 126.226974 144.252843 
L 127.113712 143.393704 
L 127.183846 143.325753 
L 128.046823 142.489606 
L 128.140688 142.398662 
L 128.979933 141.601098 
L 129.133039 141.471572 
L 129.913043 140.874264 
L 130.343687 140.544482 
L 130.846154 140.159688 
L 131.554312 139.617391 
L 131.779264 139.445126 
L 132.712375 138.730548 
L 132.764931 138.690301 
L 133.645485 137.842417 
L 133.707588 137.763211 
L 134.283426 136.83612 
L 134.578595 136.215995 
L 134.710223 135.90903 
L 135.112032 134.98194 
L 135.511706 134.059796 
L 135.51385 134.054849 
L 135.941362 133.127759 
L 136.436537 132.200669 
L 136.444816 132.186266 
L 136.974675 131.273579 
L 137.377926 130.576812 
L 137.511466 130.346488 
L 138.052051 129.419398 
L 138.311037 128.958154 
L 138.571268 128.492308 
L 139.174286 127.565217 
L 139.244147 127.459838 
L 139.799176 126.638127 
L 140.177258 126.104321 
L 140.466956 125.711037 
L 141.110368 124.835648 
L 141.148429 124.783946 
L 141.831631 123.856856 
L 142.043478 123.569478 
L 142.515056 122.929766 
L 142.976589 122.30369 
L 143.198489 122.002676 
L 143.881907 121.075585 
L 143.909699 121.037884 
L 144.565328 120.148495 
L 144.842809 119.772082 
L 145.2403 119.221405 
L 145.77592 118.549955 
L 146.019238 118.294314 
L 146.70903 117.62071 
L 146.965411 117.367224 
L 147.64214 116.761465 
L 148.014862 116.440134 
L 148.575251 115.955894 
L 149.119162 115.513043 
L 149.508361 115.196826 
L 150.229619 114.585953 
L 150.441472 114.407902 
L 151.324696 113.658863 
L 151.374582 113.616191 
L 152.307692 112.814597 
L 152.403877 112.731773 
L 153.240803 112.029175 
L 153.498974 111.804682 
L 154.173913 111.214072 
L 154.504815 110.877592 
L 155.107023 110.265232 
L 155.416534 109.950502 
L 156.040134 109.3164 
L 156.328264 109.023411 
L 156.973244 108.367554 
L 157.247727 108.096321 
L 157.906355 107.47761 
L 158.310166 107.169231 
L 158.839465 106.765015 
L 159.524132 106.24214 
L 159.772575 106.052412 
L 160.705686 105.339823 
L 160.738124 105.31505 
L 161.638796 104.627208 
L 161.952076 104.38796 
L 162.571906 103.914614 
L 163.166065 103.46087 
L 163.505017 103.209432 
L 164.438127 102.669946 
L 164.724783 102.533779 
L 165.371237 102.222041 
L 166.304348 101.785883 
L 166.695808 101.606689 
L 167.237458 101.358955 
L 168.170569 100.935416 
L 168.967177 100.679599 
L 169.103679 100.637766 
L 170.036789 100.351877 
L 170.9699 100.019526 
L 171.629272 99.752508 
L 171.90301 99.641656 
L 172.83612 99.263789 
L 173.769231 98.885915 
L 173.918626 98.825418 
L 174.702341 98.508055 
L 175.635452 98.130182 
L 176.280179 97.898328 
L 176.568562 97.797515 
L 177.501672 97.574388 
L 178.434783 97.351257 
L 179.367893 97.13907 
L 180.287296 96.971237 
L 180.301003 96.968791 
L 181.234114 96.79719 
L 182.167224 96.707215 
L 183.100334 96.617248 
L 184.033445 96.518391 
L 184.966555 96.373496 
L 185.899666 96.216098 
L 186.832776 96.05868 
L 186.918928 96.044147 
L 187.765886 95.901277 
L 188.698997 95.74386 
L 189.632107 95.580528 
L 190.565217 95.425708 
L 191.498328 95.270884 
L 192.425423 95.117057 
L 192.431438 95.116059 
L 193.364548 94.961237 
L 194.297659 94.806417 
L 195.230769 94.651597 
L 196.16388 94.583327 
L 197.09699 94.542023 
L 198.0301 94.524703 
L 198.963211 94.511294 
L 199.896321 94.497891 
L 200.829431 94.609357 
L 201.762542 94.930419 
L 202.386042 95.117057 
L 202.695652 95.205218 
L 203.628763 95.467101 
L 204.561873 95.741881 
L 205.494983 96.018067 
L 205.582749 96.044147 
L 206.428094 96.296556 
L 207.361204 96.569312 
L 208.294314 96.813052 
L 208.885187 96.971237 
L 209.227425 97.061819 
L 210.160535 97.308491 
L 211.093645 97.608541 
L 211.745175 97.898328 
L 212.026756 98.022871 
L 212.959866 98.435582 
L 213.841202 98.825418 
L 213.892977 98.848397 
L 214.826087 99.277886 
L 215.759197 99.71553 
L 215.838039 99.752508 
L 216.692308 100.157821 
L 217.625418 100.616311 
L 217.751651 100.679599 
L 218.558528 101.083753 
L 219.491639 101.51962 
L 219.678121 101.606689 
L 220.424749 101.955291 
L 221.35786 102.390988 
L 221.663669 102.533779 
L 222.29097 102.826682 
L 223.22408 103.26236 
L 223.636606 103.46087 
L 224.157191 103.719978 
L 225.090301 104.200121 
L 225.45158 104.38796 
L 226.023411 104.685266 
L 226.956522 105.171895 
L 227.230299 105.31505 
L 227.889632 105.660889 
L 228.758233 106.24214 
L 228.822742 106.293866 
L 229.755853 107.152943 
L 229.773403 107.169231 
L 230.688963 108.043079 
L 230.741804 108.096321 
L 231.622074 108.983269 
L 231.661913 109.023411 
L 232.555184 109.92349 
L 232.580017 109.950502 
L 233.373711 110.877592 
L 233.488294 111.017378 
L 234.124783 111.804682 
L 234.421405 112.168364 
L 234.87769 112.731773 
L 235.354515 113.320563 
L 235.630928 113.658863 
L 236.287625 114.439633 
L 236.412218 114.585953 
L 237.201333 115.513043 
L 237.220736 115.535618 
L 237.995685 116.440134 
L 238.153846 116.619065 
L 238.825623 117.367224 
L 239.086957 117.653188 
L 239.684148 118.294314 
L 240.020067 118.648579 
L 240.563222 119.221405 
L 240.953177 119.676827 
L 241.334336 120.148495 
L 241.886288 120.863405 
L 242.038826 121.075585 
L 242.503865 122.002676 
L 242.819398 122.833349 
L 242.854727 122.929766 
L 243.200159 123.856856 
L 243.581554 124.783946 
L 243.752508 125.187567 
L 243.97412 125.711037 
L 244.366608 126.638127 
L 244.685619 127.391689 
L 244.759078 127.565217 
L 245.145572 128.492308 
L 245.519535 129.419398 
L 245.618729 129.667297 
L 245.882345 130.346488 
L 246.20174 131.273579 
L 246.517529 132.200669 
L 246.551839 132.301404 
L 246.837443 133.127759 
L 247.191516 134.054849 
L 247.48495 134.8215 
L 247.54604 134.98194 
L 247.810669 135.90903 
L 247.98572 136.83612 
L 248.13556 137.763211 
L 248.284456 138.690301 
L 248.41806 139.511064 
L 248.435173 139.617391 
L 248.470653 140.544482 
L 248.463763 141.471572 
L 248.456358 142.398662 
L 248.448664 143.325753 
L 248.451856 144.252843 
L 248.563451 145.179933 
L 248.657955 146.107023 
L 248.740325 147.034114 
L 248.803955 147.961204 
L 248.844673 148.888294 
L 248.873469 149.815385 
L 248.90227 150.742475 
L 248.931059 151.669565 
L 248.959868 152.596656 
L 248.988642 153.523746 
L 249.017457 154.450836 
L 249.036122 155.377926 
L 249.041281 156.305017 
L 249.059685 157.232107 
L 249.126663 158.159197 
L 249.154895 159.086288 
L 248.988964 160.013378 
L 248.867814 160.940468 
L 248.79123 161.867559 
L 248.714491 162.794649 
L 248.630964 163.721739 
L 248.532311 164.648829 
L 248.429186 165.57592 
L 248.41806 165.664968 
L 248.310579 166.50301 
L 248.161381 167.4301 
L 248.01216 168.357191 
L 247.862949 169.284281 
L 247.713737 170.211371 
L 247.543075 171.138462 
L 247.48495 171.419719 
L 247.351483 172.065552 
L 247.159885 172.992642 
L 246.96828 173.919732 
L 246.779151 174.846823 
L 246.590878 175.773913 
L 246.551839 175.966124 
L 246.402581 176.701003 
L 246.214287 177.628094 
L 246.05206 178.555184 
L 245.999681 179.482274 
L 245.947649 180.409365 
L 245.903442 181.336455 
L 245.859623 182.263545 
L 245.815877 183.190635 
L 245.772135 184.117726 
L 245.726218 185.044816 
L 245.621423 185.971906 
L 245.618729 185.990294 
L 245.48128 186.898997 
L 245.345659 187.826087 
L 245.280764 188.753177 
L 245.23142 189.680268 
L 245.182062 190.607358 
L 245.132721 191.534448 
L 245.083374 192.461538 
L 245.075194 193.388629 
L 245.088122 194.315719 
L 244.847179 195.242809 
L 244.685619 195.705741 
L 244.523633 196.1699 
L 244.200083 197.09699 
L 243.837989 198.02408 
L 243.752508 198.279848 
L 243.53531 198.951171 
L 243.27469 199.878261 
L 243.013814 200.805351 
L 242.819398 201.45228 
L 242.734807 201.732441 
L 242.434825 202.659532 
L 242.10212 203.586622 
L 241.886288 204.186322 
L 241.768461 204.513712 
L 241.437167 205.440803 
L 241.162641 206.367893 
L 240.953177 207.081948 
L 240.890684 207.294983 
L 240.618738 208.222074 
L 240.304748 209.149164 
L 240.020067 209.894143 
L 239.949741 210.076254 
L 239.600864 211.003344 
L 239.239666 211.930435 
L 239.086957 212.220176 
L 238.73281 212.857525 
L 238.274803 213.784615 
L 238.153846 214.050076 
L 237.840872 214.711706 
L 237.386544 215.638796 
L 237.220736 215.963646 
L 236.906864 216.565886 
L 236.425469 217.492977 
L 236.287625 217.763152 
L 235.946522 218.420067 
L 235.46397 219.347157 
L 235.354515 219.543064 
L 234.950272 220.274247 
L 234.446902 221.201338 
L 234.421405 221.249214 
L 233.951713 222.128428 
L 233.488294 222.909274 
L 233.386692 223.055518 
L 232.625193 223.982609 
L 232.555184 224.066655 
L 231.859659 224.909699 
L 231.622074 225.197499 
L 231.094592 225.836789 
L 230.688963 226.328406 
L 230.329647 226.76388 
L 229.755853 227.459314 
L 229.564716 227.69097 
L 228.822742 228.59021 
L 228.799763 228.61806 
L 228.034825 229.545151 
L 227.889632 229.721127 
L 227.269888 230.472241 
L 226.956522 230.852027 
L 226.504952 231.399331 
L 226.023411 231.98295 
L 225.740009 232.326421 
L 225.090301 233.113867 
L 224.975083 233.253512 
L 224.210131 234.180602 
L 224.157191 234.244765 
L 223.445182 235.107692 
L 223.22408 235.375663 
L 222.680251 236.034783 
L 222.29097 236.541381 
L 221.989092 236.961873 
L 221.35786 237.847158 
L 221.328051 237.888963 
L 220.666992 238.816054 
L 220.424749 239.155777 
L 220.005921 239.743144 
L 219.491639 240.464403 
L 219.345551 240.670234 
L 218.677639 241.597324 
L 218.558528 241.746116 
L 217.915865 242.524415 
L 217.625418 242.87617 
L 217.150349 243.451505 
L 216.692308 244.006233 
L 216.384849 244.378595 
L 215.759197 245.113615 
L 215.587974 245.305686 
L 214.826087 246.087832 
L 214.680677 246.232776 
L 213.892977 247.01794 
L 213.715269 247.159866 
L 212.959866 247.657509 
L 212.116668 248.086957 
L 212.026756 248.13275 
L 211.093645 248.607991 
L 210.276256 249.014047 
L 210.160535 249.069798 
L 209.227425 249.496659 
L 208.294314 249.933885 
L 208.279188 249.941137 
L 207.361204 250.386292 
L 206.428094 250.838759 
L 206.367325 250.868227 
L 205.494983 251.291265 
L 204.561873 251.743748 
L 204.458038 251.795318 
L 203.628763 252.202375 
L 202.695652 252.672275 
L 202.596578 252.722408 
L 201.762542 253.144438 
L 200.829431 253.616614 
L 200.764444 253.649498 
L 199.896321 254.088781 
L 198.963211 254.542742 
L 198.887531 254.576589 
L 198.0301 254.958001 
L 197.09699 255.373082 
L 196.800643 255.503679 
L 196.16388 255.778263 
L 195.230769 256.178614 
L 194.713382 256.430769 
L 194.297659 256.634456 
L 193.364548 256.988715 
L 192.431438 257.276922 
L 192.169391 257.35786 
L 191.498328 257.565124 
L 190.565217 257.853321 
L 189.632107 258.140898 
L 189.111913 258.28495 
L 188.698997 258.39768 
L 187.765886 258.631461 
L 186.832776 258.691296 
L 185.899666 258.742546 
L 184.966555 258.793779 
L 184.033445 258.845015 
L 183.100334 258.896263 
L 182.167224 258.947511 
L 181.234114 258.998744 
L 180.301003 259.049987 
L 179.367893 259.101235 
L 178.434783 259.152197 
L 177.501672 259.202999 
L 177.429587 259.21204 
L 176.568562 259.321804 
L 175.635452 259.271309 
z
" clip-path="url(#p6d71fab7d3)" style="fill: none; stroke: #000000; stroke-width: 1.5"/>
   </g>
   <g id="patch_3">
    <path d="M 45 320.4 
L 45 43.2 
" style="fill: none; stroke: #000000; stroke-width: 0.8; stroke-linejoin: miter; stroke-linecap: square"/>
   </g>
   <g id="patch_4">
    <path d="M 324 320.4 
L 324 43.2 
" style="fill: none; stroke: #000000; stroke-width: 0.8; stroke-linejoin: miter; stroke-linecap: square"/>
   </g>
   <g id="patch_5">
    <path d="M 45 320.4 
L 324 320.4 
" style="fill: none; stroke: #000000; stroke-width: 0.8; stroke-linejoin: miter; stroke-linecap: square"/>
   </g>
   <g id="patch_6">
    <path d="M 45 43.2 
L 324 43.2 
" style="fill: none; stroke: #000000; stroke-width: 0.8; stroke-linejoin: miter; stroke-linecap: square"/>
   </g>
  </g>
 </g>
 <defs>
  <clipPath id="p6d71fab7d3">
   <rect x="45" y="43.2" width="279" height="277.2"/>
  </clipPath>
 </defs>
</svg>
