<?xml version="1.0" encoding="utf-8" standalone="no"?>
<!DOCTYPE svg PUBLIC "-//W3C//DTD SVG 1.1//EN"
  "http://www.w3.org/Graphics/SVG/1.1/DTD/svg11.dtd">
<svg xmlns:xlink="http://www.w3.org/1999/xlink" width="360pt" height="360pt" viewBox="0 0 360 360" xmlns="http://www.w3.org/2000/svg" version="1.1">
 <metadata>
  <rdf:RDF xmlns:dc="http://purl.org/dc/elements/1.1/" xmlns:cc="http://creativecommons.org/ns#" xmlns:rdf="http://www.w3.org/1999/02/22-rdf-syntax-ns#">
   <cc:Work>
    <dc:type rdf:resource="http://purl.org/dc/dcmitype/StillImage"/>
    <dc:date>2022-04-10T19:53:33.893582</dc:date>
    <dc:format>image/svg+xml</dc:format>
    <dc:creator>
     <cc:Agent>
      <dc:title>Matplotlib v3.5.1, https://matplotlib.org/</dc:title>
     </cc:Agent>
    </dc:creator>
   </cc:Work>
  </rdf:RDF>
 </metadata>
 <defs>
  <style type="text/css">*{stroke-linejoin: round; stroke-linecap: butt}</style>
 </defs>
 <g id="figure_1">
  <g id="patch_1">
   <path d="M 0 360 
L 360 360 
L 360 0 
L 0 0 
z
" style="fill: #ffffff"/>
  </g>
  <g id="axes_1">
   <g id="patch_2">
    <path d="M 45 320.4 
L 324 320.4 
L 324 43.2 
L 45 43.2 
z
" style="fill: #ffffff"/>
   </g>
   <g id="PathCollection_1">
    <defs>
     <path id="m8d82879373" d="M 0 0.5 
C 0.132602 0.5 0.25979 0.447317 0.353553 0.353553 
C 0.447317 0.25979 0.5 0.132602 0.5 0 
C 0.5 -0.132602 0.447317 -0.25979 0.353553 -0.353553 
C 0.25979 -0.447317 0.132602 -0.5 0 -0.5 
C -0.132602 -0.5 -0.25979 -0.447317 -0.353553 -0.353553 
C -0.447317 -0.25979 -0.5 -0.132602 -0.5 0 
C -0.5 0.132602 -0.447317 0.25979 -0.353553 0.353553 
C -0.25979 0.447317 -0.132602 0.5 0 0.5 
z
" style="stroke: #ff0000"/>
    </defs>
    <g clip-path="url(#p4a332d20ea)">
     <use xlink:href="#m8d82879373" x="228.199965" y="181.336455" style="fill: #ff0000; stroke: #ff0000"/>
     <use xlink:href="#m8d82879373" x="230.905192" y="176.841085" style="fill: #ff0000; stroke: #ff0000"/>
     <use xlink:href="#m8d82879373" x="233.457225" y="171.753289" style="fill: #ff0000; stroke: #ff0000"/>
     <use xlink:href="#m8d82879373" x="235.392018" y="166.138744" style="fill: #ff0000; stroke: #ff0000"/>
     <use xlink:href="#m8d82879373" x="236.295669" y="160.212409" style="fill: #ff0000; stroke: #ff0000"/>
     <use xlink:href="#m8d82879373" x="235.898005" y="154.288663" style="fill: #ff0000; stroke: #ff0000"/>
     <use xlink:href="#m8d82879373" x="234.109418" y="148.71209" style="fill: #ff0000; stroke: #ff0000"/>
     <use xlink:href="#m8d82879373" x="231.006512" y="143.796207" style="fill: #ff0000; stroke: #ff0000"/>
     <use xlink:href="#m8d82879373" x="226.793059" y="139.779799" style="fill: #ff0000; stroke: #ff0000"/>
     <use xlink:href="#m8d82879373" x="221.757894" y="136.795307" style="fill: #ff0000; stroke: #ff0000"/>
     <use xlink:href="#m8d82879373" x="216.233104" y="134.844652" style="fill: #ff0000; stroke: #ff0000"/>
     <use xlink:href="#m8d82879373" x="210.545467" y="133.790417" style="fill: #ff0000; stroke: #ff0000"/>
     <use xlink:href="#m8d82879373" x="204.960545" y="133.378112" style="fill: #ff0000; stroke: #ff0000"/>
     <use xlink:href="#m8d82879373" x="199.633773" y="133.297061" style="fill: #ff0000; stroke: #ff0000"/>
     <use xlink:href="#m8d82879373" x="194.59031" y="133.266711" style="fill: #ff0000; stroke: #ff0000"/>
     <use xlink:href="#m8d82879373" x="189.746625" y="133.116705" style="fill: #ff0000; stroke: #ff0000"/>
     <use xlink:href="#m8d82879373" x="184.966555" y="132.828314" style="fill: #ff0000; stroke: #ff0000"/>
     <use xlink:href="#m8d82879373" x="180.127779" y="132.524492" style="fill: #ff0000; stroke: #ff0000"/>
     <use xlink:href="#m8d82879373" x="175.173778" y="132.422463" style="fill: #ff0000; stroke: #ff0000"/>
     <use xlink:href="#m8d82879373" x="170.140372" y="132.776403" style="fill: #ff0000; stroke: #ff0000"/>
     <use xlink:href="#m8d82879373" x="165.160721" y="133.829429" style="fill: #ff0000; stroke: #ff0000"/>
     <use xlink:href="#m8d82879373" x="160.455217" y="135.774821" style="fill: #ff0000; stroke: #ff0000"/>
     <use xlink:href="#m8d82879373" x="156.30407" y="138.716766" style="fill: #ff0000; stroke: #ff0000"/>
     <use xlink:href="#m8d82879373" x="152.995092" y="142.630451" style="fill: #ff0000; stroke: #ff0000"/>
     <use xlink:href="#m8d82879373" x="150.748077" y="147.338741" style="fill: #ff0000; stroke: #ff0000"/>
     <use xlink:href="#m8d82879373" x="149.635923" y="152.528419" style="fill: #ff0000; stroke: #ff0000"/>
     <use xlink:href="#m8d82879373" x="149.535232" y="157.81474" style="fill: #ff0000; stroke: #ff0000"/>
     <use xlink:href="#m8d82879373" x="150.134074" y="162.838224" style="fill: #ff0000; stroke: #ff0000"/>
     <use xlink:href="#m8d82879373" x="151.00284" y="167.358986" style="fill: #ff0000; stroke: #ff0000"/>
     <use xlink:href="#m8d82879373" x="151.707321" y="171.312467" style="fill: #ff0000; stroke: #ff0000"/>
     <use xlink:href="#m8d82879373" x="151.92434" y="174.806353" style="fill: #ff0000; stroke: #ff0000"/>
     <use xlink:href="#m8d82879373" x="151.518854" y="178.063397" style="fill: #ff0000; stroke: #ff0000"/>
     <use xlink:href="#m8d82879373" x="150.558682" y="181.336455" style="fill: #ff0000; stroke: #ff0000"/>
     <use xlink:href="#m8d82879373" x="149.27051" y="184.829526" style="fill: #ff0000; stroke: #ff0000"/>
     <use xlink:href="#m8d82879373" x="147.963046" y="188.649424" style="fill: #ff0000; stroke: #ff0000"/>
     <use xlink:href="#m8d82879373" x="146.948514" y="192.794697" style="fill: #ff0000; stroke: #ff0000"/>
     <use xlink:href="#m8d82879373" x="146.483613" y="197.173772" style="fill: #ff0000; stroke: #ff0000"/>
     <use xlink:href="#m8d82879373" x="146.737148" y="201.638666" style="fill: #ff0000; stroke: #ff0000"/>
     <use xlink:href="#m8d82879373" x="147.783038" y="206.021395" style="fill: #ff0000; stroke: #ff0000"/>
     <use xlink:href="#m8d82879373" x="149.613664" y="210.16264" style="fill: #ff0000; stroke: #ff0000"/>
     <use xlink:href="#m8d82879373" x="152.165143" y="213.926245" style="fill: #ff0000; stroke: #ff0000"/>
     <use xlink:href="#m8d82879373" x="155.343035" y="217.199939" style="fill: #ff0000; stroke: #ff0000"/>
     <use xlink:href="#m8d82879373" x="159.038413" y="219.890311" style="fill: #ff0000; stroke: #ff0000"/>
     <use xlink:href="#m8d82879373" x="163.132" y="221.922488" style="fill: #ff0000; stroke: #ff0000"/>
     <use xlink:href="#m8d82879373" x="167.492905" y="223.249417" style="fill: #ff0000; stroke: #ff0000"/>
     <use xlink:href="#m8d82879373" x="171.981502" y="223.86627" style="fill: #ff0000; stroke: #ff0000"/>
     <use xlink:href="#m8d82879373" x="176.461099" y="223.820399" style="fill: #ff0000; stroke: #ff0000"/>
     <use xlink:href="#m8d82879373" x="180.815559" y="223.21032" style="fill: #ff0000; stroke: #ff0000"/>
     <use xlink:href="#m8d82879373" x="184.966555" y="222.173847" style="fill: #ff0000; stroke: #ff0000"/>
     <use xlink:href="#m8d82879373" x="188.885407" y="220.868522" style="fill: #ff0000; stroke: #ff0000"/>
     <use xlink:href="#m8d82879373" x="192.596127" y="219.44544" style="fill: #ff0000; stroke: #ff0000"/>
     <use xlink:href="#m8d82879373" x="196.165621" y="218.016644" style="fill: #ff0000; stroke: #ff0000"/>
     <use xlink:href="#m8d82879373" x="199.677113" y="216.621758" style="fill: #ff0000; stroke: #ff0000"/>
     <use xlink:href="#m8d82879373" x="203.18888" y="215.208081" style="fill: #ff0000; stroke: #ff0000"/>
     <use xlink:href="#m8d82879373" x="206.69163" y="213.640561" style="fill: #ff0000; stroke: #ff0000"/>
     <use xlink:href="#m8d82879373" x="210.086847" y="211.748141" style="fill: #ff0000; stroke: #ff0000"/>
     <use xlink:href="#m8d82879373" x="213.206113" y="209.393822" style="fill: #ff0000; stroke: #ff0000"/>
     <use xlink:href="#m8d82879373" x="215.874076" y="206.537955" style="fill: #ff0000; stroke: #ff0000"/>
     <use xlink:href="#m8d82879373" x="217.992153" y="203.261086" style="fill: #ff0000; stroke: #ff0000"/>
     <use xlink:href="#m8d82879373" x="219.602867" y="199.730507" style="fill: #ff0000; stroke: #ff0000"/>
     <use xlink:href="#m8d82879373" x="220.900133" y="196.124603" style="fill: #ff0000; stroke: #ff0000"/>
     <use xlink:href="#m8d82879373" x="222.176381" y="192.55111" style="fill: #ff0000; stroke: #ff0000"/>
     <use xlink:href="#m8d82879373" x="223.725252" y="188.9963" style="fill: #ff0000; stroke: #ff0000"/>
     <use xlink:href="#m8d82879373" x="225.733798" y="185.325773" style="fill: #ff0000; stroke: #ff0000"/>
    </g>
   </g>
   <g id="matplotlib.axis_1">
    <g id="xtick_1">
     <g id="line2d_1">
      <defs>
       <path id="m319873ba87" d="M 0 0 
L 0 3.5 
" style="stroke: #000000; stroke-width: 0.8"/>
      </defs>
      <g>
       <use xlink:href="#m319873ba87" x="45" y="320.4" style="stroke: #000000; stroke-width: 0.8"/>
      </g>
     </g>
     <g id="text_1">
      <!-- −3 -->
      <g transform="translate(37.628906 334.998438)scale(0.1 -0.1)">
       <defs>
        <path id="DejaVuSans-2212" d="M 678 2272 
L 4684 2272 
L 4684 1741 
L 678 1741 
L 678 2272 
z
" transform="scale(0.015625)"/>
        <path id="DejaVuSans-33" d="M 2597 2516 
Q 3050 2419 3304 2112 
Q 3559 1806 3559 1356 
Q 3559 666 3084 287 
Q 2609 -91 1734 -91 
Q 1441 -91 1130 -33 
Q 819 25 488 141 
L 488 750 
Q 750 597 1062 519 
Q 1375 441 1716 441 
Q 2309 441 2620 675 
Q 2931 909 2931 1356 
Q 2931 1769 2642 2001 
Q 2353 2234 1838 2234 
L 1294 2234 
L 1294 2753 
L 1863 2753 
Q 2328 2753 2575 2939 
Q 2822 3125 2822 3475 
Q 2822 3834 2567 4026 
Q 2313 4219 1838 4219 
Q 1578 4219 1281 4162 
Q 984 4106 628 3988 
L 628 4550 
Q 988 4650 1302 4700 
Q 1616 4750 1894 4750 
Q 2613 4750 3031 4423 
Q 3450 4097 3450 3541 
Q 3450 3153 3228 2886 
Q 3006 2619 2597 2516 
z
" transform="scale(0.015625)"/>
       </defs>
       <use xlink:href="#DejaVuSans-2212"/>
       <use xlink:href="#DejaVuSans-33" x="83.789062"/>
      </g>
     </g>
    </g>
    <g id="xtick_2">
     <g id="line2d_2">
      <g>
       <use xlink:href="#m319873ba87" x="91.655518" y="320.4" style="stroke: #000000; stroke-width: 0.8"/>
      </g>
     </g>
     <g id="text_2">
      <!-- −2 -->
      <g transform="translate(84.284425 334.998438)scale(0.1 -0.1)">
       <defs>
        <path id="DejaVuSans-32" d="M 1228 531 
L 3431 531 
L 3431 0 
L 469 0 
L 469 531 
Q 828 903 1448 1529 
Q 2069 2156 2228 2338 
Q 2531 2678 2651 2914 
Q 2772 3150 2772 3378 
Q 2772 3750 2511 3984 
Q 2250 4219 1831 4219 
Q 1534 4219 1204 4116 
Q 875 4013 500 3803 
L 500 4441 
Q 881 4594 1212 4672 
Q 1544 4750 1819 4750 
Q 2544 4750 2975 4387 
Q 3406 4025 3406 3419 
Q 3406 3131 3298 2873 
Q 3191 2616 2906 2266 
Q 2828 2175 2409 1742 
Q 1991 1309 1228 531 
z
" transform="scale(0.015625)"/>
       </defs>
       <use xlink:href="#DejaVuSans-2212"/>
       <use xlink:href="#DejaVuSans-32" x="83.789062"/>
      </g>
     </g>
    </g>
    <g id="xtick_3">
     <g id="line2d_3">
      <g>
       <use xlink:href="#m319873ba87" x="138.311037" y="320.4" style="stroke: #000000; stroke-width: 0.8"/>
      </g>
     </g>
     <g id="text_3">
      <!-- −1 -->
      <g transform="translate(130.939943 334.998438)scale(0.1 -0.1)">
       <defs>
        <path id="DejaVuSans-31" d="M 794 531 
L 1825 531 
L 1825 4091 
L 703 3866 
L 703 4441 
L 1819 4666 
L 2450 4666 
L 2450 531 
L 3481 531 
L 3481 0 
L 794 0 
L 794 531 
z
" transform="scale(0.015625)"/>
       </defs>
       <use xlink:href="#DejaVuSans-2212"/>
       <use xlink:href="#DejaVuSans-31" x="83.789062"/>
      </g>
     </g>
    </g>
    <g id="xtick_4">
     <g id="line2d_4">
      <g>
       <use xlink:href="#m319873ba87" x="184.966555" y="320.4" style="stroke: #000000; stroke-width: 0.8"/>
      </g>
     </g>
     <g id="text_4">
      <!-- 0 -->
      <g transform="translate(181.785305 334.998438)scale(0.1 -0.1)">
       <defs>
        <path id="DejaVuSans-30" d="M 2034 4250 
Q 1547 4250 1301 3770 
Q 1056 3291 1056 2328 
Q 1056 1369 1301 889 
Q 1547 409 2034 409 
Q 2525 409 2770 889 
Q 3016 1369 3016 2328 
Q 3016 3291 2770 3770 
Q 2525 4250 2034 4250 
z
M 2034 4750 
Q 2819 4750 3233 4129 
Q 3647 3509 3647 2328 
Q 3647 1150 3233 529 
Q 2819 -91 2034 -91 
Q 1250 -91 836 529 
Q 422 1150 422 2328 
Q 422 3509 836 4129 
Q 1250 4750 2034 4750 
z
" transform="scale(0.015625)"/>
       </defs>
       <use xlink:href="#DejaVuSans-30"/>
      </g>
     </g>
    </g>
    <g id="xtick_5">
     <g id="line2d_5">
      <g>
       <use xlink:href="#m319873ba87" x="231.622074" y="320.4" style="stroke: #000000; stroke-width: 0.8"/>
      </g>
     </g>
     <g id="text_5">
      <!-- 1 -->
      <g transform="translate(228.440824 334.998438)scale(0.1 -0.1)">
       <use xlink:href="#DejaVuSans-31"/>
      </g>
     </g>
    </g>
    <g id="xtick_6">
     <g id="line2d_6">
      <g>
       <use xlink:href="#m319873ba87" x="278.277592" y="320.4" style="stroke: #000000; stroke-width: 0.8"/>
      </g>
     </g>
     <g id="text_6">
      <!-- 2 -->
      <g transform="translate(275.096342 334.998438)scale(0.1 -0.1)">
       <use xlink:href="#DejaVuSans-32"/>
      </g>
     </g>
    </g>
   </g>
   <g id="matplotlib.axis_2">
    <g id="ytick_1">
     <g id="line2d_7">
      <defs>
       <path id="mac8bd186d0" d="M 0 0 
L -3.5 0 
" style="stroke: #000000; stroke-width: 0.8"/>
      </defs>
      <g>
       <use xlink:href="#mac8bd186d0" x="45" y="320.4" style="stroke: #000000; stroke-width: 0.8"/>
      </g>
     </g>
     <g id="text_7">
      <!-- −3 -->
      <g transform="translate(23.257812 324.199219)scale(0.1 -0.1)">
       <use xlink:href="#DejaVuSans-2212"/>
       <use xlink:href="#DejaVuSans-33" x="83.789062"/>
      </g>
     </g>
    </g>
    <g id="ytick_2">
     <g id="line2d_8">
      <g>
       <use xlink:href="#mac8bd186d0" x="45" y="274.045485" style="stroke: #000000; stroke-width: 0.8"/>
      </g>
     </g>
     <g id="text_8">
      <!-- −2 -->
      <g transform="translate(23.257812 277.844704)scale(0.1 -0.1)">
       <use xlink:href="#DejaVuSans-2212"/>
       <use xlink:href="#DejaVuSans-32" x="83.789062"/>
      </g>
     </g>
    </g>
    <g id="ytick_3">
     <g id="line2d_9">
      <g>
       <use xlink:href="#mac8bd186d0" x="45" y="227.69097" style="stroke: #000000; stroke-width: 0.8"/>
      </g>
     </g>
     <g id="text_9">
      <!-- −1 -->
      <g transform="translate(23.257812 231.490189)scale(0.1 -0.1)">
       <use xlink:href="#DejaVuSans-2212"/>
       <use xlink:href="#DejaVuSans-31" x="83.789062"/>
      </g>
     </g>
    </g>
    <g id="ytick_4">
     <g id="line2d_10">
      <g>
       <use xlink:href="#mac8bd186d0" x="45" y="181.336455" style="stroke: #000000; stroke-width: 0.8"/>
      </g>
     </g>
     <g id="text_10">
      <!-- 0 -->
      <g transform="translate(31.6375 185.135674)scale(0.1 -0.1)">
       <use xlink:href="#DejaVuSans-30"/>
      </g>
     </g>
    </g>
    <g id="ytick_5">
     <g id="line2d_11">
      <g>
       <use xlink:href="#mac8bd186d0" x="45" y="134.98194" style="stroke: #000000; stroke-width: 0.8"/>
      </g>
     </g>
     <g id="text_11">
      <!-- 1 -->
      <g transform="translate(31.6375 138.781159)scale(0.1 -0.1)">
       <use xlink:href="#DejaVuSans-31"/>
      </g>
     </g>
    </g>
    <g id="ytick_6">
     <g id="line2d_12">
      <g>
       <use xlink:href="#mac8bd186d0" x="45" y="88.627425" style="stroke: #000000; stroke-width: 0.8"/>
      </g>
     </g>
     <g id="text_12">
      <!-- 2 -->
      <g transform="translate(31.6375 92.426643)scale(0.1 -0.1)">
       <use xlink:href="#DejaVuSans-32"/>
      </g>
     </g>
    </g>
   </g>
   <g id="PathCollection_2">
    <path d="M 175.635452 200.035275 
L 175.450234 199.878261 
L 174.714879 198.951171 
L 174.702341 198.932979 
L 173.932219 198.02408 
L 173.769231 197.808258 
L 173.194397 197.09699 
L 172.83612 196.667552 
L 172.420931 196.1699 
L 171.90301 195.492241 
L 171.755657 195.242809 
L 171.859213 194.315719 
L 171.90301 194.080299 
L 172.026624 193.388629 
L 172.184801 192.461538 
L 172.454497 191.534448 
L 172.77444 190.607358 
L 172.83612 190.210342 
L 172.923273 189.680268 
L 173.133835 188.753177 
L 173.207256 187.826087 
L 173.28001 186.898997 
L 173.405065 185.971906 
L 173.521509 185.044816 
L 173.542138 184.117726 
L 173.561883 183.190635 
L 173.602243 182.263545 
L 173.769231 181.376338 
L 173.776505 181.336455 
L 173.992402 180.409365 
L 174.218462 179.482274 
L 174.207009 178.555184 
L 174.231057 177.628094 
L 174.249618 176.701003 
L 174.274947 175.773913 
L 174.290901 174.846823 
L 174.292977 173.919732 
L 174.224079 172.992642 
L 174.11374 172.065552 
L 174.227768 171.138462 
L 174.332196 170.211371 
L 174.344794 169.284281 
L 174.355003 168.357191 
L 174.365213 167.4301 
L 174.374097 166.50301 
L 174.341096 165.57592 
L 174.266969 164.648829 
L 174.172005 163.721739 
L 174.076372 162.794649 
L 173.957965 161.867559 
L 173.769231 161.041309 
L 173.742448 160.940468 
L 173.477679 160.013378 
L 173.213532 159.086288 
L 173.060048 158.159197 
L 173.2198 157.232107 
L 173.769231 156.44573 
L 174.113058 156.305017 
L 174.702341 156.1718 
L 175.635452 156.070466 
L 176.568562 156.254118 
L 177.160668 156.305017 
L 177.501672 156.333313 
L 178.434783 156.468013 
L 179.367893 156.65093 
L 180.301003 156.642699 
L 181.234114 156.728836 
L 182.167224 156.787712 
L 183.100334 156.710034 
L 184.033445 156.577908 
L 184.966555 156.460308 
L 185.899666 156.398904 
L 186.832776 156.404982 
L 187.765886 156.417641 
L 188.698997 156.535414 
L 189.632107 156.692109 
L 190.565217 156.848799 
L 191.498328 157.002143 
L 192.431438 157.057088 
L 193.364548 157.103971 
L 194.230616 157.232107 
L 194.297659 157.242631 
L 195.230769 157.41127 
L 196.16388 157.566648 
L 197.09699 157.776633 
L 198.0301 157.648201 
L 198.963211 157.54456 
L 199.896321 157.457699 
L 200.829431 157.430291 
L 201.762542 157.487086 
L 202.695652 157.554946 
L 203.628763 157.661477 
L 204.561873 157.732123 
L 205.494983 157.802771 
L 206.428094 157.873417 
L 207.361204 157.944064 
L 207.859268 158.159197 
L 208.294314 158.486509 
L 208.933446 159.086288 
L 209.227425 159.362167 
L 209.78477 160.013378 
L 210.02183 160.940468 
L 210.160535 161.607215 
L 210.215492 161.867559 
L 210.41119 162.794649 
L 210.606908 163.721739 
L 210.661909 164.648829 
L 210.490585 165.57592 
L 210.260632 166.50301 
L 210.160535 166.859012 
L 209.99475 167.4301 
L 209.712229 168.357191 
L 209.421454 169.284281 
L 209.227425 169.836439 
L 209.092318 170.211371 
L 208.67391 171.138462 
L 208.294314 171.883839 
L 208.191498 172.065552 
L 207.616198 172.992642 
L 207.361204 173.505592 
L 207.155331 173.919732 
L 206.595634 174.846823 
L 206.428094 174.988962 
L 205.554671 175.773913 
L 205.494983 175.83441 
L 204.64851 176.701003 
L 204.561873 176.7897 
L 203.778021 177.628094 
L 203.628763 177.798593 
L 203.029699 178.555184 
L 202.695652 178.988389 
L 202.362864 179.482274 
L 201.857949 180.409365 
L 201.762542 180.574058 
L 201.290279 181.336455 
L 200.829431 182.124124 
L 200.747952 182.263545 
L 200.193814 183.190635 
L 199.896321 183.679442 
L 199.629579 184.117726 
L 199.111048 185.044816 
L 198.963211 185.40743 
L 198.732799 185.971906 
L 198.354368 186.898997 
L 198.0301 187.693375 
L 197.973985 187.826087 
L 197.549564 188.753177 
L 197.126379 189.680268 
L 197.09699 189.748396 
L 196.731932 190.607358 
L 196.337926 191.534448 
L 196.16388 191.853232 
L 195.725903 192.461538 
L 195.230769 192.993503 
L 194.817776 193.388629 
L 194.297659 193.742084 
L 193.364548 194.053296 
L 192.470275 194.315719 
L 192.431438 194.327209 
L 191.498328 194.602826 
L 190.565217 194.878972 
L 189.632107 195.178911 
L 189.484771 195.242809 
L 188.698997 195.604313 
L 187.765886 196.032597 
L 187.495673 196.1699 
L 186.832776 196.51684 
L 185.899666 197.019779 
L 185.755793 197.09699 
L 184.966555 197.548083 
L 184.240761 198.02408 
L 184.033445 198.155 
L 183.100334 198.672612 
L 182.527865 198.951171 
L 182.167224 199.126635 
L 181.234114 199.580627 
L 180.527459 199.878261 
L 180.301003 199.964661 
L 179.367893 200.078129 
L 178.434783 200.191603 
L 177.501672 200.304337 
L 176.568562 200.386348 
L 175.635452 200.035275 
z
" clip-path="url(#p4a332d20ea)" style="fill: none; stroke-dasharray: 5.55,2.4; stroke-dashoffset: 0; stroke: #000000; stroke-width: 1.5"/>
   </g>
   <g id="PathCollection_3">
    <path d="M 170.9699 224.185556 
L 170.180659 223.982609 
L 170.036789 223.936876 
L 169.103679 223.721725 
L 168.170569 223.462912 
L 167.237458 223.066993 
L 167.212703 223.055518 
L 166.304348 222.738895 
L 165.371237 222.41676 
L 164.778925 222.128428 
L 164.438127 221.982929 
L 163.505017 221.691317 
L 162.571906 221.401166 
L 162.130789 221.201338 
L 161.638796 221.019229 
L 160.705686 220.783899 
L 159.772575 220.418145 
L 159.456147 220.274247 
L 158.839465 220.04793 
L 157.906355 219.643835 
L 157.492827 219.347157 
L 156.973244 218.98553 
L 156.326637 218.420067 
L 156.040134 218.189135 
L 155.217483 217.492977 
L 155.107023 217.389936 
L 154.173913 216.65175 
L 154.078218 216.565886 
L 153.240803 215.818099 
L 153.073354 215.638796 
L 152.503847 214.711706 
L 152.307692 214.434741 
L 151.864134 213.784615 
L 151.374582 212.869563 
L 151.366664 212.857525 
L 150.808587 211.930435 
L 150.441472 211.299561 
L 150.236685 211.003344 
L 149.749146 210.076254 
L 149.508361 209.712261 
L 149.153229 209.149164 
L 148.671459 208.222074 
L 148.575251 208.099565 
L 148.12299 207.294983 
L 147.64214 206.38356 
L 147.639889 206.367893 
L 147.347725 205.440803 
L 147.131195 204.513712 
L 146.909899 203.586622 
L 146.70903 202.828733 
L 146.688644 202.659532 
L 146.448107 201.732441 
L 146.258214 200.805351 
L 146.057405 199.878261 
L 145.92225 198.951171 
L 145.8223 198.02408 
L 145.77592 197.379512 
L 145.764989 197.09699 
L 145.721237 196.1699 
L 145.77592 195.583324 
L 145.826207 195.242809 
L 146.016936 194.315719 
L 146.285274 193.388629 
L 146.579993 192.461538 
L 146.70903 192.128696 
L 146.915276 191.534448 
L 147.165599 190.607358 
L 147.462477 189.680268 
L 147.64214 189.232765 
L 147.819124 188.753177 
L 147.929952 187.826087 
L 148.007379 186.898997 
L 148.146927 185.971906 
L 148.32326 185.044816 
L 148.575251 184.196197 
L 148.604676 184.117726 
L 148.877874 183.190635 
L 149.189637 182.263545 
L 149.508361 181.623867 
L 149.660523 181.336455 
L 149.979574 180.409365 
L 150.419934 179.482274 
L 150.441472 179.441146 
L 150.785237 178.555184 
L 151.169243 177.628094 
L 151.050995 176.701003 
L 150.87312 175.773913 
L 150.729542 174.846823 
L 150.580399 173.919732 
L 150.441472 173.315996 
L 150.353504 172.992642 
L 150.149921 172.065552 
L 149.903964 171.138462 
L 149.695849 170.211371 
L 149.508361 169.664791 
L 149.367366 169.284281 
L 149.102385 168.357191 
L 148.950751 167.4301 
L 149.119393 166.50301 
L 149.192848 165.57592 
L 149.270395 164.648829 
L 149.352095 163.721739 
L 149.441309 162.794649 
L 149.508361 162.149835 
L 149.540815 161.867559 
L 149.633044 160.940468 
L 149.705275 160.013378 
L 149.664358 159.086288 
L 149.61575 158.159197 
L 149.555616 157.232107 
L 149.516278 156.305017 
L 149.569766 155.377926 
L 149.6154 154.450836 
L 149.655375 153.523746 
L 149.692757 152.596656 
L 149.722803 151.669565 
L 149.734654 150.742475 
L 149.743051 149.815385 
L 149.751251 148.888294 
L 149.770098 147.961204 
L 150.113312 147.034114 
L 150.441472 146.244598 
L 150.517926 146.107023 
L 150.876691 145.179933 
L 151.374582 144.399477 
L 151.491291 144.252843 
L 152.217584 143.325753 
L 152.307692 143.211473 
L 153.017644 142.398662 
L 153.240803 142.143545 
L 153.858244 141.471572 
L 154.173913 141.128025 
L 154.69491 140.544482 
L 155.107023 140.033974 
L 155.419021 139.617391 
L 156.040134 138.788074 
L 156.116072 138.690301 
L 156.814134 137.763211 
L 156.973244 137.556774 
L 157.688894 136.83612 
L 157.906355 136.674965 
L 158.839465 136.008804 
L 158.987406 135.90903 
L 159.772575 135.483813 
L 160.705686 135.163877 
L 161.172386 134.98194 
L 161.638796 134.815633 
L 162.571906 134.467983 
L 163.505017 134.116381 
L 163.626347 134.054849 
L 164.438127 133.711033 
L 165.371237 133.296486 
L 165.781137 133.127759 
L 166.304348 132.930788 
L 167.237458 132.605153 
L 168.170569 132.480502 
L 169.103679 132.465308 
L 170.036789 132.451345 
L 170.9699 132.470236 
L 171.90301 132.47141 
L 172.83612 132.470241 
L 173.769231 132.469075 
L 174.702341 132.486549 
L 175.635452 132.43557 
L 176.568562 132.315478 
L 177.501672 132.218255 
L 178.434783 132.236134 
L 179.367893 132.330212 
L 180.301003 132.408006 
L 181.234114 132.512575 
L 182.167224 132.636411 
L 183.100334 132.756091 
L 184.033445 132.896588 
L 184.966555 133.034103 
L 185.899666 133.123985 
L 185.962113 133.127759 
L 186.832776 133.19146 
L 187.765886 133.188448 
L 188.417368 133.127759 
L 188.698997 133.110729 
L 189.632107 133.052149 
L 190.565217 133.001629 
L 191.498328 132.950654 
L 192.431438 132.89945 
L 193.364548 132.848016 
L 194.297659 132.942021 
L 195.230769 133.054562 
L 195.90677 133.127759 
L 196.16388 133.169969 
L 197.09699 133.290243 
L 198.0301 133.511318 
L 198.963211 133.815084 
L 199.630884 134.054849 
L 199.896321 134.174548 
L 200.829431 134.481659 
L 201.762542 134.589036 
L 202.695652 134.615038 
L 203.628763 134.641044 
L 204.561873 134.667054 
L 205.494983 134.690178 
L 206.428094 134.712343 
L 207.361204 134.810779 
L 208.294314 134.945318 
L 209.227425 134.950139 
L 210.160535 134.954659 
L 211.093645 134.958905 
L 212.026756 134.967628 
L 212.200295 134.98194 
L 212.959866 135.150678 
L 213.892977 135.305488 
L 214.826087 135.416891 
L 215.759197 135.503352 
L 216.692308 135.518596 
L 217.625418 135.613686 
L 218.558528 135.876344 
L 218.870941 135.90903 
L 219.491639 136.157489 
L 220.424749 136.560133 
L 221.029219 136.83612 
L 221.35786 137.016717 
L 222.29097 137.420093 
L 223.026432 137.763211 
L 223.22408 137.883856 
L 224.157191 138.303922 
L 224.961166 138.690301 
L 225.090301 138.775505 
L 225.857426 139.617391 
L 226.023411 139.804252 
L 226.707112 140.544482 
L 226.956522 140.802487 
L 227.652126 141.471572 
L 227.889632 141.674875 
L 228.728152 142.398662 
L 228.822742 142.489779 
L 229.755853 143.290299 
L 229.79656 143.325753 
L 230.688963 144.095847 
L 230.868989 144.252843 
L 231.622074 144.903602 
L 231.896645 145.179933 
L 232.502413 146.107023 
L 232.555184 146.175896 
L 233.013401 147.034114 
L 233.488294 147.923561 
L 233.499395 147.961204 
L 233.999453 148.888294 
L 234.421405 149.713029 
L 234.452986 149.815385 
L 234.94732 150.742475 
L 235.34175 151.669565 
L 235.354515 151.688959 
L 235.727035 152.596656 
L 235.894262 153.523746 
L 236.011506 154.450836 
L 236.096805 155.377926 
L 236.118021 156.305017 
L 236.131064 157.232107 
L 236.14529 158.159197 
L 236.161019 159.086288 
L 236.177664 160.013378 
L 236.195263 160.940468 
L 236.213905 161.867559 
L 236.141674 162.794649 
L 235.93668 163.721739 
L 235.691011 164.648829 
L 235.40491 165.57592 
L 235.354515 165.761899 
L 235.055122 166.50301 
L 234.66345 167.4301 
L 234.421405 167.928534 
L 234.193598 168.357191 
L 233.782308 169.284281 
L 233.488294 170.04197 
L 233.404744 170.211371 
L 233.065912 171.138462 
L 232.714221 172.065552 
L 232.555184 172.463023 
L 232.325646 172.992642 
L 232.009902 173.919732 
L 231.671805 174.846823 
L 231.622074 174.973511 
L 231.331087 175.773913 
L 231.002382 176.701003 
L 230.688963 177.540167 
L 230.643281 177.628094 
L 230.351142 178.555184 
L 230.136397 179.482274 
L 229.913751 180.409365 
L 229.755853 180.689222 
L 229.383435 181.336455 
L 228.822742 182.112114 
L 228.697994 182.263545 
L 228.032144 183.190635 
L 227.889632 183.382079 
L 227.354813 184.117726 
L 226.956522 184.659306 
L 226.673335 185.044816 
L 226.023411 185.943901 
L 225.999779 185.971906 
L 225.473311 186.898997 
L 225.090301 187.673692 
L 225.008588 187.826087 
L 224.577043 188.753177 
L 224.157191 189.605208 
L 224.115848 189.680268 
L 223.656244 190.607358 
L 223.22408 191.483821 
L 223.195524 191.534448 
L 222.754677 192.461538 
L 222.29097 193.352581 
L 222.270075 193.388629 
L 221.86011 194.315719 
L 221.553668 195.242809 
L 221.35786 195.78624 
L 221.225533 196.1699 
L 220.907687 197.09699 
L 220.582367 198.02408 
L 220.424749 198.435832 
L 220.255884 198.951171 
L 219.923795 199.878261 
L 219.594091 200.805351 
L 219.491639 200.994022 
L 219.113255 201.732441 
L 218.608821 202.659532 
L 218.558528 202.74096 
L 218.066724 203.586622 
L 217.625418 204.144702 
L 217.326836 204.513712 
L 216.692308 205.263232 
L 216.544317 205.440803 
L 215.759197 206.365496 
L 215.757065 206.367893 
L 214.977531 207.294983 
L 214.826087 207.475096 
L 214.172664 208.222074 
L 213.892977 208.547763 
L 213.377703 209.149164 
L 212.959866 209.659201 
L 212.626305 210.076254 
L 212.026756 210.815841 
L 211.862112 211.003344 
L 211.093645 211.738888 
L 210.865785 211.930435 
L 210.160535 212.508276 
L 209.713166 212.857525 
L 209.227425 213.22077 
L 208.455289 213.784615 
L 208.294314 213.904231 
L 207.361204 214.554565 
L 206.933813 214.711706 
L 206.428094 214.867421 
L 205.494983 215.10108 
L 204.561873 215.332864 
L 203.628763 215.544648 
L 203.301698 215.638796 
L 202.695652 215.801711 
L 201.762542 216.070514 
L 200.829431 216.351539 
L 200.020827 216.565886 
L 199.896321 216.59449 
L 198.963211 216.840383 
L 198.0301 217.109863 
L 197.261157 217.492977 
L 197.09699 217.583803 
L 196.16388 218.139006 
L 195.665264 218.420067 
L 195.230769 218.673889 
L 194.297659 219.222786 
L 194.083647 219.347157 
L 193.364548 219.77467 
L 192.501623 220.274247 
L 192.431438 220.315421 
L 191.498328 220.854704 
L 190.820963 221.201338 
L 190.565217 221.335366 
L 189.632107 221.783614 
L 188.698997 222.094813 
L 188.630678 222.128428 
L 187.765886 222.462696 
L 186.832776 222.716136 
L 185.899666 222.800584 
L 184.966555 222.927212 
L 184.117541 223.055518 
L 184.033445 223.060579 
L 183.100334 223.151156 
L 182.167224 223.317196 
L 181.234114 223.444027 
L 180.301003 223.575125 
L 179.367893 223.705246 
L 178.434783 223.826834 
L 177.59718 223.982609 
L 177.501672 223.992255 
L 176.568562 224.134687 
L 175.635452 224.272794 
L 174.702341 224.394184 
L 173.769231 224.520729 
L 172.83612 224.474028 
L 171.90301 224.341526 
L 170.9699 224.185556 
z
" clip-path="url(#p4a332d20ea)" style="fill: none; stroke: #000000; stroke-width: 1.5"/>
   </g>
   <g id="PathCollection_4">
    <path d="M 170.036789 247.276546 
L 163.505017 246.090682 
L 160.705686 245.454087 
L 153.240803 242.096507 
L 148.214719 240.670234 
L 145.77592 239.495301 
L 142.976589 237.7666 
L 137.377926 232.732834 
L 134.578595 230.03855 
L 134.174546 229.545151 
L 130.469893 223.055518 
L 128.979933 219.948494 
L 126.36008 215.638796 
L 124.611687 208.222074 
L 123.989129 206.367893 
L 123.55925 203.586622 
L 122.590402 196.1699 
L 123.154868 192.461538 
L 123.618017 190.607358 
L 125.107949 182.263545 
L 125.644293 179.482274 
L 126.053449 177.628094 
L 126.804207 174.846823 
L 126.656824 172.992642 
L 126.093887 167.4301 
L 125.542379 162.794649 
L 127.377306 149.815385 
L 127.894161 141.471572 
L 128.545812 139.617391 
L 130.846154 133.779569 
L 131.876499 132.200669 
L 133.876395 129.419398 
L 138.504621 123.856856 
L 140.261173 122.002676 
L 141.110368 120.966261 
L 143.026836 119.221405 
L 146.339634 116.440134 
L 147.64214 115.723283 
L 151.374582 113.929755 
L 155.636625 111.804682 
L 159.772575 110.222688 
L 162.571906 109.602951 
L 168.170569 109.36549 
L 178.434783 109.402504 
L 180.301003 109.438674 
L 184.033445 109.505256 
L 188.698997 109.614741 
L 190.565217 109.71242 
L 191.498328 109.884112 
L 197.09699 110.119713 
L 198.963211 110.260232 
L 203.628763 111.116768 
L 205.494983 111.535416 
L 206.428094 111.657094 
L 208.294314 111.496154 
L 210.160535 111.320496 
L 219.491639 113.878656 
L 224.217875 114.585953 
L 226.023411 115.064359 
L 228.822742 116.199312 
L 239.162923 120.148495 
L 240.384356 121.075585 
L 241.886288 122.494003 
L 244.025526 124.783946 
L 246.551839 127.835516 
L 248.41806 129.653226 
L 250.02267 131.273579 
L 252.454553 134.98194 
L 254.016722 137.960272 
L 255.7674 141.471572 
L 256.194218 142.398662 
L 257.389524 146.107023 
L 257.757184 147.961204 
L 258.705641 155.377926 
L 258.894758 159.086288 
L 258.931435 160.940468 
L 257.335603 168.357191 
L 256.107816 173.919732 
L 254.662755 178.555184 
L 253.452418 182.263545 
L 252.521424 185.971906 
L 249.182089 193.388629 
L 247.779204 196.1699 
L 246.551839 198.166541 
L 244.685619 201.244245 
L 242.819398 204.538346 
L 241.285692 207.294983 
L 240.4725 209.149164 
L 239.056551 212.857525 
L 237.951768 214.711706 
L 231.950188 223.055518 
L 229.148316 226.76388 
L 227.422691 228.61806 
L 226.023411 229.914649 
L 219.491639 234.937315 
L 215.759197 236.25095 
L 212.959866 237.151976 
L 204.561873 239.46071 
L 202.403848 240.670234 
L 195.230769 244.80002 
L 194.297659 245.176798 
L 193.364548 245.352244 
L 186.832776 245.898024 
L 182.167224 246.395751 
L 180.301003 246.564549 
L 172.83612 247.515667 
L 170.9699 247.432683 
L 170.036789 247.276546 
L 170.036789 247.276546 
" clip-path="url(#p4a332d20ea)" style="fill: none; stroke: #000000; stroke-width: 1.5"/>
   </g>
   <g id="patch_3">
    <path d="M 45 320.4 
L 45 43.2 
" style="fill: none; stroke: #000000; stroke-width: 0.8; stroke-linejoin: miter; stroke-linecap: square"/>
   </g>
   <g id="patch_4">
    <path d="M 324 320.4 
L 324 43.2 
" style="fill: none; stroke: #000000; stroke-width: 0.8; stroke-linejoin: miter; stroke-linecap: square"/>
   </g>
   <g id="patch_5">
    <path d="M 45 320.4 
L 324 320.4 
" style="fill: none; stroke: #000000; stroke-width: 0.8; stroke-linejoin: miter; stroke-linecap: square"/>
   </g>
   <g id="patch_6">
    <path d="M 45 43.2 
L 324 43.2 
" style="fill: none; stroke: #000000; stroke-width: 0.8; stroke-linejoin: miter; stroke-linecap: square"/>
   </g>
  </g>
 </g>
 <defs>
  <clipPath id="p4a332d20ea">
   <rect x="45" y="43.2" width="279" height="277.2"/>
  </clipPath>
 </defs>
</svg>
