<?xml version="1.0" encoding="utf-8" standalone="no"?>
<!DOCTYPE svg PUBLIC "-//W3C//DTD SVG 1.1//EN"
  "http://www.w3.org/Graphics/SVG/1.1/DTD/svg11.dtd">
<svg xmlns:xlink="http://www.w3.org/1999/xlink" width="360pt" height="360pt" viewBox="0 0 360 360" xmlns="http://www.w3.org/2000/svg" version="1.1">
 <metadata>
  <rdf:RDF xmlns:dc="http://purl.org/dc/elements/1.1/" xmlns:cc="http://creativecommons.org/ns#" xmlns:rdf="http://www.w3.org/1999/02/22-rdf-syntax-ns#">
   <cc:Work>
    <dc:type rdf:resource="http://purl.org/dc/dcmitype/StillImage"/>
    <dc:date>2022-04-10T19:53:23.614196</dc:date>
    <dc:format>image/svg+xml</dc:format>
    <dc:creator>
     <cc:Agent>
      <dc:title>Matplotlib v3.5.1, https://matplotlib.org/</dc:title>
     </cc:Agent>
    </dc:creator>
   </cc:Work>
  </rdf:RDF>
 </metadata>
 <defs>
  <style type="text/css">*{stroke-linejoin: round; stroke-linecap: butt}</style>
 </defs>
 <g id="figure_1">
  <g id="patch_1">
   <path d="M 0 360 
L 360 360 
L 360 0 
L 0 0 
z
" style="fill: #ffffff"/>
  </g>
  <g id="axes_1">
   <g id="patch_2">
    <path d="M 45 320.4 
L 324 320.4 
L 324 43.2 
L 45 43.2 
z
" style="fill: #ffffff"/>
   </g>
   <g id="PathCollection_1">
    <defs>
     <path id="mbae019389f" d="M 0 0.5 
C 0.132602 0.5 0.25979 0.447317 0.353553 0.353553 
C 0.447317 0.25979 0.5 0.132602 0.5 0 
C 0.5 -0.132602 0.447317 -0.25979 0.353553 -0.353553 
C 0.25979 -0.447317 0.132602 -0.5 0 -0.5 
C -0.132602 -0.5 -0.25979 -0.447317 -0.353553 -0.353553 
C -0.447317 -0.25979 -0.5 -0.132602 -0.5 0 
C -0.5 0.132602 -0.447317 0.25979 -0.353553 0.353553 
C -0.25979 0.447317 -0.132602 0.5 0 0.5 
z
" style="stroke: #ff0000"/>
    </defs>
    <g clip-path="url(#pe7d9b5c728)">
     <use xlink:href="#mbae019389f" x="232.704423" y="181.336455" style="fill: #ff0000; stroke: #ff0000"/>
     <use xlink:href="#mbae019389f" x="234.970645" y="176.443256" style="fill: #ff0000; stroke: #ff0000"/>
     <use xlink:href="#mbae019389f" x="236.751483" y="171.102248" style="fill: #ff0000; stroke: #ff0000"/>
     <use xlink:href="#mbae019389f" x="237.904038" y="165.381648" style="fill: #ff0000; stroke: #ff0000"/>
     <use xlink:href="#mbae019389f" x="238.29253" y="159.390618" style="fill: #ff0000; stroke: #ff0000"/>
     <use xlink:href="#mbae019389f" x="237.795886" y="153.280769" style="fill: #ff0000; stroke: #ff0000"/>
     <use xlink:href="#mbae019389f" x="236.31323" y="147.249051" style="fill: #ff0000; stroke: #ff0000"/>
     <use xlink:href="#mbae019389f" x="233.773469" y="141.540074" style="fill: #ff0000; stroke: #ff0000"/>
     <use xlink:href="#mbae019389f" x="230.154363" y="136.440181" style="fill: #ff0000; stroke: #ff0000"/>
     <use xlink:href="#mbae019389f" x="225.509316" y="132.253678" style="fill: #ff0000; stroke: #ff0000"/>
     <use xlink:href="#mbae019389f" x="219.991403" y="129.256249" style="fill: #ff0000; stroke: #ff0000"/>
     <use xlink:href="#mbae019389f" x="213.858887" y="127.631439" style="fill: #ff0000; stroke: #ff0000"/>
     <use xlink:href="#mbae019389f" x="207.448673" y="127.409993" style="fill: #ff0000; stroke: #ff0000"/>
     <use xlink:href="#mbae019389f" x="201.116388" y="128.441069" style="fill: #ff0000; stroke: #ff0000"/>
     <use xlink:href="#mbae019389f" x="195.160545" y="130.418444" style="fill: #ff0000; stroke: #ff0000"/>
     <use xlink:href="#mbae019389f" x="189.762059" y="132.961014" style="fill: #ff0000; stroke: #ff0000"/>
     <use xlink:href="#mbae019389f" x="184.966555" y="135.71717" style="fill: #ff0000; stroke: #ff0000"/>
     <use xlink:href="#mbae019389f" x="180.714977" y="138.447951" style="fill: #ff0000; stroke: #ff0000"/>
     <use xlink:href="#mbae019389f" x="176.902179" y="141.055663" style="fill: #ff0000; stroke: #ff0000"/>
     <use xlink:href="#mbae019389f" x="173.431196" y="143.554806" style="fill: #ff0000; stroke: #ff0000"/>
     <use xlink:href="#mbae019389f" x="170.238964" y="146.010295" style="fill: #ff0000; stroke: #ff0000"/>
     <use xlink:href="#mbae019389f" x="167.289447" y="148.478276" style="fill: #ff0000; stroke: #ff0000"/>
     <use xlink:href="#mbae019389f" x="164.548273" y="150.975486" style="fill: #ff0000; stroke: #ff0000"/>
     <use xlink:href="#mbae019389f" x="161.959374" y="153.48299" style="fill: #ff0000; stroke: #ff0000"/>
     <use xlink:href="#mbae019389f" x="159.436832" y="155.97144" style="fill: #ff0000; stroke: #ff0000"/>
     <use xlink:href="#mbae019389f" x="156.871332" y="158.428057" style="fill: #ff0000; stroke: #ff0000"/>
     <use xlink:href="#mbae019389f" x="154.142172" y="160.873139" style="fill: #ff0000; stroke: #ff0000"/>
     <use xlink:href="#mbae019389f" x="151.130902" y="163.367602" style="fill: #ff0000; stroke: #ff0000"/>
     <use xlink:href="#mbae019389f" x="147.744891" y="166.018206" style="fill: #ff0000; stroke: #ff0000"/>
     <use xlink:href="#mbae019389f" x="143.961938" y="168.978089" style="fill: #ff0000; stroke: #ff0000"/>
     <use xlink:href="#mbae019389f" x="139.890593" y="172.428135" style="fill: #ff0000; stroke: #ff0000"/>
     <use xlink:href="#mbae019389f" x="135.815642" y="176.526744" style="fill: #ff0000; stroke: #ff0000"/>
     <use xlink:href="#mbae019389f" x="132.187363" y="181.336455" style="fill: #ff0000; stroke: #ff0000"/>
     <use xlink:href="#mbae019389f" x="129.532261" y="186.761032" style="fill: #ff0000; stroke: #ff0000"/>
     <use xlink:href="#mbae019389f" x="128.304772" y="192.53447" style="fill: #ff0000; stroke: #ff0000"/>
     <use xlink:href="#mbae019389f" x="128.738965" y="198.282866" style="fill: #ff0000; stroke: #ff0000"/>
     <use xlink:href="#mbae019389f" x="130.769195" y="203.640903" style="fill: #ff0000; stroke: #ff0000"/>
     <use xlink:href="#mbae019389f" x="134.060145" y="208.370949" style="fill: #ff0000; stroke: #ff0000"/>
     <use xlink:href="#mbae019389f" x="138.134705" y="212.426613" style="fill: #ff0000; stroke: #ff0000"/>
     <use xlink:href="#mbae019389f" x="142.541506" y="215.929165" style="fill: #ff0000; stroke: #ff0000"/>
     <use xlink:href="#mbae019389f" x="146.987576" y="219.070408" style="fill: #ff0000; stroke: #ff0000"/>
     <use xlink:href="#mbae019389f" x="151.382968" y="221.994163" style="fill: #ff0000; stroke: #ff0000"/>
     <use xlink:href="#mbae019389f" x="155.791586" y="224.718182" style="fill: #ff0000; stroke: #ff0000"/>
     <use xlink:href="#mbae019389f" x="160.329129" y="227.13246" style="fill: #ff0000; stroke: #ff0000"/>
     <use xlink:href="#mbae019389f" x="165.068763" y="229.064055" style="fill: #ff0000; stroke: #ff0000"/>
     <use xlink:href="#mbae019389f" x="169.998288" y="230.361873" style="fill: #ff0000; stroke: #ff0000"/>
     <use xlink:href="#mbae019389f" x="175.033634" y="230.950451" style="fill: #ff0000; stroke: #ff0000"/>
     <use xlink:href="#mbae019389f" x="180.060201" y="230.830114" style="fill: #ff0000; stroke: #ff0000"/>
     <use xlink:href="#mbae019389f" x="184.966555" y="230.039843" style="fill: #ff0000; stroke: #ff0000"/>
     <use xlink:href="#mbae019389f" x="189.653889" y="228.620717" style="fill: #ff0000; stroke: #ff0000"/>
     <use xlink:href="#mbae019389f" x="194.030185" y="226.608423" style="fill: #ff0000; stroke: #ff0000"/>
     <use xlink:href="#mbae019389f" x="198.009114" y="224.054618" style="fill: #ff0000; stroke: #ff0000"/>
     <use xlink:href="#mbae019389f" x="201.524991" y="221.054148" style="fill: #ff0000; stroke: #ff0000"/>
     <use xlink:href="#mbae019389f" x="204.558507" y="217.753942" style="fill: #ff0000; stroke: #ff0000"/>
     <use xlink:href="#mbae019389f" x="207.158245" y="214.334393" style="fill: #ff0000; stroke: #ff0000"/>
     <use xlink:href="#mbae019389f" x="209.443955" y="210.969828" style="fill: #ff0000; stroke: #ff0000"/>
     <use xlink:href="#mbae019389f" x="211.585045" y="207.783213" style="fill: #ff0000; stroke: #ff0000"/>
     <use xlink:href="#mbae019389f" x="213.75813" y="204.812647" style="fill: #ff0000; stroke: #ff0000"/>
     <use xlink:href="#mbae019389f" x="216.098478" y="202.003936" style="fill: #ff0000; stroke: #ff0000"/>
     <use xlink:href="#mbae019389f" x="218.666029" y="199.232988" style="fill: #ff0000; stroke: #ff0000"/>
     <use xlink:href="#mbae019389f" x="221.440421" y="196.346954" style="fill: #ff0000; stroke: #ff0000"/>
     <use xlink:href="#mbae019389f" x="224.342613" y="193.20399" style="fill: #ff0000; stroke: #ff0000"/>
     <use xlink:href="#mbae019389f" x="227.26526" y="189.695908" style="fill: #ff0000; stroke: #ff0000"/>
     <use xlink:href="#mbae019389f" x="230.092689" y="185.752317" style="fill: #ff0000; stroke: #ff0000"/>
    </g>
   </g>
   <g id="matplotlib.axis_1">
    <g id="xtick_1">
     <g id="line2d_1">
      <defs>
       <path id="me1972a970d" d="M 0 0 
L 0 3.5 
" style="stroke: #000000; stroke-width: 0.8"/>
      </defs>
      <g>
       <use xlink:href="#me1972a970d" x="45" y="320.4" style="stroke: #000000; stroke-width: 0.8"/>
      </g>
     </g>
     <g id="text_1">
      <!-- −3 -->
      <g transform="translate(37.628906 334.998438)scale(0.1 -0.1)">
       <defs>
        <path id="DejaVuSans-2212" d="M 678 2272 
L 4684 2272 
L 4684 1741 
L 678 1741 
L 678 2272 
z
" transform="scale(0.015625)"/>
        <path id="DejaVuSans-33" d="M 2597 2516 
Q 3050 2419 3304 2112 
Q 3559 1806 3559 1356 
Q 3559 666 3084 287 
Q 2609 -91 1734 -91 
Q 1441 -91 1130 -33 
Q 819 25 488 141 
L 488 750 
Q 750 597 1062 519 
Q 1375 441 1716 441 
Q 2309 441 2620 675 
Q 2931 909 2931 1356 
Q 2931 1769 2642 2001 
Q 2353 2234 1838 2234 
L 1294 2234 
L 1294 2753 
L 1863 2753 
Q 2328 2753 2575 2939 
Q 2822 3125 2822 3475 
Q 2822 3834 2567 4026 
Q 2313 4219 1838 4219 
Q 1578 4219 1281 4162 
Q 984 4106 628 3988 
L 628 4550 
Q 988 4650 1302 4700 
Q 1616 4750 1894 4750 
Q 2613 4750 3031 4423 
Q 3450 4097 3450 3541 
Q 3450 3153 3228 2886 
Q 3006 2619 2597 2516 
z
" transform="scale(0.015625)"/>
       </defs>
       <use xlink:href="#DejaVuSans-2212"/>
       <use xlink:href="#DejaVuSans-33" x="83.789062"/>
      </g>
     </g>
    </g>
    <g id="xtick_2">
     <g id="line2d_2">
      <g>
       <use xlink:href="#me1972a970d" x="91.655518" y="320.4" style="stroke: #000000; stroke-width: 0.8"/>
      </g>
     </g>
     <g id="text_2">
      <!-- −2 -->
      <g transform="translate(84.284425 334.998438)scale(0.1 -0.1)">
       <defs>
        <path id="DejaVuSans-32" d="M 1228 531 
L 3431 531 
L 3431 0 
L 469 0 
L 469 531 
Q 828 903 1448 1529 
Q 2069 2156 2228 2338 
Q 2531 2678 2651 2914 
Q 2772 3150 2772 3378 
Q 2772 3750 2511 3984 
Q 2250 4219 1831 4219 
Q 1534 4219 1204 4116 
Q 875 4013 500 3803 
L 500 4441 
Q 881 4594 1212 4672 
Q 1544 4750 1819 4750 
Q 2544 4750 2975 4387 
Q 3406 4025 3406 3419 
Q 3406 3131 3298 2873 
Q 3191 2616 2906 2266 
Q 2828 2175 2409 1742 
Q 1991 1309 1228 531 
z
" transform="scale(0.015625)"/>
       </defs>
       <use xlink:href="#DejaVuSans-2212"/>
       <use xlink:href="#DejaVuSans-32" x="83.789062"/>
      </g>
     </g>
    </g>
    <g id="xtick_3">
     <g id="line2d_3">
      <g>
       <use xlink:href="#me1972a970d" x="138.311037" y="320.4" style="stroke: #000000; stroke-width: 0.8"/>
      </g>
     </g>
     <g id="text_3">
      <!-- −1 -->
      <g transform="translate(130.939943 334.998438)scale(0.1 -0.1)">
       <defs>
        <path id="DejaVuSans-31" d="M 794 531 
L 1825 531 
L 1825 4091 
L 703 3866 
L 703 4441 
L 1819 4666 
L 2450 4666 
L 2450 531 
L 3481 531 
L 3481 0 
L 794 0 
L 794 531 
z
" transform="scale(0.015625)"/>
       </defs>
       <use xlink:href="#DejaVuSans-2212"/>
       <use xlink:href="#DejaVuSans-31" x="83.789062"/>
      </g>
     </g>
    </g>
    <g id="xtick_4">
     <g id="line2d_4">
      <g>
       <use xlink:href="#me1972a970d" x="184.966555" y="320.4" style="stroke: #000000; stroke-width: 0.8"/>
      </g>
     </g>
     <g id="text_4">
      <!-- 0 -->
      <g transform="translate(181.785305 334.998438)scale(0.1 -0.1)">
       <defs>
        <path id="DejaVuSans-30" d="M 2034 4250 
Q 1547 4250 1301 3770 
Q 1056 3291 1056 2328 
Q 1056 1369 1301 889 
Q 1547 409 2034 409 
Q 2525 409 2770 889 
Q 3016 1369 3016 2328 
Q 3016 3291 2770 3770 
Q 2525 4250 2034 4250 
z
M 2034 4750 
Q 2819 4750 3233 4129 
Q 3647 3509 3647 2328 
Q 3647 1150 3233 529 
Q 2819 -91 2034 -91 
Q 1250 -91 836 529 
Q 422 1150 422 2328 
Q 422 3509 836 4129 
Q 1250 4750 2034 4750 
z
" transform="scale(0.015625)"/>
       </defs>
       <use xlink:href="#DejaVuSans-30"/>
      </g>
     </g>
    </g>
    <g id="xtick_5">
     <g id="line2d_5">
      <g>
       <use xlink:href="#me1972a970d" x="231.622074" y="320.4" style="stroke: #000000; stroke-width: 0.8"/>
      </g>
     </g>
     <g id="text_5">
      <!-- 1 -->
      <g transform="translate(228.440824 334.998438)scale(0.1 -0.1)">
       <use xlink:href="#DejaVuSans-31"/>
      </g>
     </g>
    </g>
    <g id="xtick_6">
     <g id="line2d_6">
      <g>
       <use xlink:href="#me1972a970d" x="278.277592" y="320.4" style="stroke: #000000; stroke-width: 0.8"/>
      </g>
     </g>
     <g id="text_6">
      <!-- 2 -->
      <g transform="translate(275.096342 334.998438)scale(0.1 -0.1)">
       <use xlink:href="#DejaVuSans-32"/>
      </g>
     </g>
    </g>
   </g>
   <g id="matplotlib.axis_2">
    <g id="ytick_1">
     <g id="line2d_7">
      <defs>
       <path id="m3ff9089046" d="M 0 0 
L -3.5 0 
" style="stroke: #000000; stroke-width: 0.8"/>
      </defs>
      <g>
       <use xlink:href="#m3ff9089046" x="45" y="320.4" style="stroke: #000000; stroke-width: 0.8"/>
      </g>
     </g>
     <g id="text_7">
      <!-- −3 -->
      <g transform="translate(23.257812 324.199219)scale(0.1 -0.1)">
       <use xlink:href="#DejaVuSans-2212"/>
       <use xlink:href="#DejaVuSans-33" x="83.789062"/>
      </g>
     </g>
    </g>
    <g id="ytick_2">
     <g id="line2d_8">
      <g>
       <use xlink:href="#m3ff9089046" x="45" y="274.045485" style="stroke: #000000; stroke-width: 0.8"/>
      </g>
     </g>
     <g id="text_8">
      <!-- −2 -->
      <g transform="translate(23.257812 277.844704)scale(0.1 -0.1)">
       <use xlink:href="#DejaVuSans-2212"/>
       <use xlink:href="#DejaVuSans-32" x="83.789062"/>
      </g>
     </g>
    </g>
    <g id="ytick_3">
     <g id="line2d_9">
      <g>
       <use xlink:href="#m3ff9089046" x="45" y="227.69097" style="stroke: #000000; stroke-width: 0.8"/>
      </g>
     </g>
     <g id="text_9">
      <!-- −1 -->
      <g transform="translate(23.257812 231.490189)scale(0.1 -0.1)">
       <use xlink:href="#DejaVuSans-2212"/>
       <use xlink:href="#DejaVuSans-31" x="83.789062"/>
      </g>
     </g>
    </g>
    <g id="ytick_4">
     <g id="line2d_10">
      <g>
       <use xlink:href="#m3ff9089046" x="45" y="181.336455" style="stroke: #000000; stroke-width: 0.8"/>
      </g>
     </g>
     <g id="text_10">
      <!-- 0 -->
      <g transform="translate(31.6375 185.135674)scale(0.1 -0.1)">
       <use xlink:href="#DejaVuSans-30"/>
      </g>
     </g>
    </g>
    <g id="ytick_5">
     <g id="line2d_11">
      <g>
       <use xlink:href="#m3ff9089046" x="45" y="134.98194" style="stroke: #000000; stroke-width: 0.8"/>
      </g>
     </g>
     <g id="text_11">
      <!-- 1 -->
      <g transform="translate(31.6375 138.781159)scale(0.1 -0.1)">
       <use xlink:href="#DejaVuSans-31"/>
      </g>
     </g>
    </g>
    <g id="ytick_6">
     <g id="line2d_12">
      <g>
       <use xlink:href="#m3ff9089046" x="45" y="88.627425" style="stroke: #000000; stroke-width: 0.8"/>
      </g>
     </g>
     <g id="text_12">
      <!-- 2 -->
      <g transform="translate(31.6375 92.426643)scale(0.1 -0.1)">
       <use xlink:href="#DejaVuSans-32"/>
      </g>
     </g>
    </g>
   </g>
   <g id="PathCollection_2">
    <path d="M 176.568562 207.37619 
L 175.831885 207.294983 
L 175.635452 207.275164 
L 174.702341 207.193977 
L 173.769231 207.011291 
L 172.83612 206.812958 
L 171.90301 206.531996 
L 171.517686 206.367893 
L 170.9699 206.120259 
L 170.036789 205.545656 
L 169.902468 205.440803 
L 169.103679 204.803525 
L 168.717026 204.513712 
L 168.170569 204.168347 
L 167.250477 203.586622 
L 167.237458 203.577715 
L 166.304348 202.839809 
L 166.076383 202.659532 
L 165.371237 202.083982 
L 164.940299 201.732441 
L 164.438127 201.335065 
L 163.505017 200.82706 
L 163.46316 200.805351 
L 162.571906 200.332137 
L 161.761331 199.878261 
L 161.638796 199.808359 
L 160.705686 199.283628 
L 160.121983 198.951171 
L 159.772575 198.742272 
L 158.839465 198.270977 
L 158.337995 198.02408 
L 157.906355 197.754602 
L 157.106433 197.09699 
L 156.973244 197.000802 
L 156.040134 196.344933 
L 155.784011 196.1699 
L 155.107023 195.612521 
L 154.778476 195.242809 
L 154.413299 194.315719 
L 154.324588 193.388629 
L 154.296526 192.461538 
L 154.325251 191.534448 
L 154.642587 190.607358 
L 154.971162 189.680268 
L 155.107023 189.274691 
L 155.282252 188.753177 
L 155.618816 187.826087 
L 156.040134 187.174252 
L 156.221182 186.898997 
L 156.830969 185.971906 
L 156.973244 185.755597 
L 157.48585 185.044816 
L 157.906355 184.704139 
L 158.747956 184.117726 
L 158.839465 184.053964 
L 159.772575 183.401708 
L 160.076497 183.190635 
L 160.705686 182.751374 
L 161.409 182.263545 
L 161.638796 182.103427 
L 162.571906 181.449996 
L 162.780579 181.336455 
L 163.505017 180.946782 
L 164.438127 180.469128 
L 164.5516 180.409365 
L 165.371237 179.982802 
L 166.304348 179.503208 
L 166.345067 179.482274 
L 167.237458 179.087648 
L 168.170569 178.727527 
L 168.618306 178.555184 
L 169.103679 178.378439 
L 170.036789 178.052775 
L 170.581645 177.628094 
L 170.9699 177.203961 
L 171.433182 176.701003 
L 171.90301 176.207099 
L 172.261418 175.773913 
L 172.83612 175.092895 
L 173.051001 174.846823 
L 173.730319 173.919732 
L 173.769231 173.854948 
L 174.310928 172.992642 
L 174.702341 172.542779 
L 175.221323 172.065552 
L 175.635452 171.659724 
L 176.231519 171.138462 
L 176.568562 170.858774 
L 177.342754 170.211371 
L 177.501672 170.073071 
L 178.408502 169.284281 
L 178.434783 169.262926 
L 179.367893 168.465159 
L 179.475273 168.357191 
L 180.301003 167.522893 
L 180.387204 167.4301 
L 181.234114 166.590911 
L 181.320613 166.50301 
L 182.167224 165.622035 
L 182.21648 165.57592 
L 183.100334 164.701291 
L 183.165149 164.648829 
L 184.033445 163.975018 
L 184.37013 163.721739 
L 184.966555 163.234643 
L 185.469363 162.794649 
L 185.899666 162.418093 
L 186.529406 161.867559 
L 186.832776 161.602115 
L 187.571252 160.940468 
L 187.765886 160.75724 
L 188.507415 160.013378 
L 188.698997 159.817638 
L 189.549602 159.086288 
L 189.632107 159.015023 
L 190.565217 158.376834 
L 190.928465 158.159197 
L 191.498328 157.817278 
L 192.431438 157.25743 
L 192.473611 157.232107 
L 193.364548 156.69638 
L 194.02744 156.305017 
L 194.297659 156.167496 
L 195.230769 155.605338 
L 195.590862 155.377926 
L 196.16388 154.996907 
L 196.916492 154.450836 
L 197.09699 154.316987 
L 198.0301 153.62554 
L 198.174232 153.523746 
L 198.963211 152.968442 
L 199.592321 152.596656 
L 199.896321 152.443959 
L 200.829431 152.084831 
L 201.762542 151.75965 
L 202.021038 151.669565 
L 202.695652 151.433906 
L 203.628763 151.103194 
L 204.561873 150.76836 
L 204.682345 150.742475 
L 205.494983 150.570908 
L 206.428094 150.514874 
L 207.361204 150.652451 
L 207.940785 150.742475 
L 208.294314 150.797386 
L 209.227425 150.942306 
L 210.160535 151.097059 
L 211.093645 151.438292 
L 211.331998 151.669565 
L 212.026756 152.49383 
L 212.104242 152.596656 
L 212.780691 153.523746 
L 212.959866 153.778519 
L 213.402145 154.450836 
L 213.892977 155.21564 
L 213.998818 155.377926 
L 214.528067 156.305017 
L 214.654171 157.232107 
L 214.681494 158.159197 
L 214.634611 159.086288 
L 214.526488 160.013378 
L 214.394366 160.940468 
L 214.31508 161.867559 
L 214.385152 162.794649 
L 214.458678 163.721739 
L 214.532194 164.648829 
L 214.606951 165.57592 
L 214.698375 166.50301 
L 214.475339 167.4301 
L 214.22901 168.357191 
L 214.003821 169.284281 
L 213.892977 169.79993 
L 213.79394 170.211371 
L 213.451481 171.138462 
L 212.959866 171.732817 
L 212.646319 172.065552 
L 212.026756 172.710886 
L 211.756249 172.992642 
L 211.093645 173.682797 
L 210.866171 173.919732 
L 210.160535 174.65471 
L 209.976092 174.846823 
L 209.227425 175.626632 
L 209.087949 175.773913 
L 208.294314 176.611269 
L 208.209705 176.701003 
L 207.361204 177.604874 
L 207.339436 177.628094 
L 206.479682 178.555184 
L 206.428094 178.609985 
L 205.614807 179.482274 
L 205.494983 179.601161 
L 204.561873 180.382738 
L 204.527437 180.409365 
L 203.628763 181.095662 
L 203.317861 181.336455 
L 202.695652 181.926357 
L 202.318388 182.263545 
L 201.762542 182.663799 
L 201.04766 183.190635 
L 200.829431 183.361605 
L 199.896321 184.100586 
L 199.875049 184.117726 
L 198.963211 184.890178 
L 198.808959 185.044816 
L 198.0301 185.933379 
L 197.998041 185.971906 
L 197.276623 186.898997 
L 197.09699 187.130568 
L 196.557464 187.826087 
L 196.16388 188.333476 
L 195.838313 188.753177 
L 195.230769 189.536387 
L 195.119161 189.680268 
L 194.395419 190.607358 
L 194.297659 190.727775 
L 193.625492 191.534448 
L 193.364548 191.874114 
L 192.989172 192.461538 
L 192.515476 193.388629 
L 192.431438 193.55221 
L 192.048966 194.315719 
L 191.652309 195.242809 
L 191.498328 195.573919 
L 191.22902 196.1699 
L 190.760666 197.09699 
L 190.565217 197.477661 
L 190.285167 198.02408 
L 189.765311 198.951171 
L 189.632107 199.147757 
L 189.05042 199.878261 
L 188.698997 200.277117 
L 188.211737 200.805351 
L 187.765886 201.288663 
L 187.356059 201.732441 
L 186.832776 202.29923 
L 186.500049 202.659532 
L 185.899666 203.30984 
L 185.644073 203.586622 
L 184.966555 204.294127 
L 184.603933 204.513712 
L 184.033445 204.795222 
L 183.100334 205.256007 
L 182.725153 205.440803 
L 182.167224 205.717755 
L 181.234114 206.178898 
L 180.849838 206.367893 
L 180.301003 206.6688 
L 179.367893 207.261544 
L 179.286369 207.294983 
L 178.434783 207.589366 
L 177.501672 207.4427 
L 176.568562 207.37619 
z
" clip-path="url(#pe7d9b5c728)" style="fill: none; stroke-dasharray: 5.55,2.4; stroke-dashoffset: 0; stroke: #000000; stroke-width: 1.5"/>
   </g>
   <g id="PathCollection_3">
    <path d="M 175.635452 231.471582 
L 174.817437 231.399331 
L 174.702341 231.368223 
L 173.769231 231.145725 
L 172.83612 230.955982 
L 171.90301 230.738409 
L 170.9699 230.489277 
L 170.755467 230.472241 
L 170.036789 230.289242 
L 169.103679 230.202098 
L 168.170569 230.0517 
L 167.237458 229.835387 
L 166.304348 229.578914 
L 166.135583 229.545151 
L 165.371237 229.329615 
L 164.438127 229.110099 
L 163.505017 228.829356 
L 163.082382 228.61806 
L 162.571906 228.400736 
L 161.638796 228.079483 
L 160.997527 227.69097 
L 160.705686 227.529169 
L 159.772575 227.082507 
L 159.306768 226.76388 
L 158.839465 226.505907 
L 157.906355 225.94129 
L 157.766807 225.836789 
L 156.973244 225.305832 
L 156.527812 224.909699 
L 156.040134 224.500697 
L 155.461432 223.982609 
L 155.107023 223.685315 
L 154.408384 223.055518 
L 154.173913 222.855677 
L 153.240803 222.152273 
L 153.202392 222.128428 
L 152.307692 221.678306 
L 151.589037 221.201338 
L 151.374582 221.056954 
L 150.441472 220.598287 
L 149.945552 220.274247 
L 149.508361 220.031186 
L 148.575251 219.550016 
L 148.267244 219.347157 
L 147.64214 219.015661 
L 146.70903 218.542772 
L 146.478247 218.420067 
L 145.77592 218.106333 
L 144.842809 217.718252 
L 144.460192 217.492977 
L 143.909699 217.201904 
L 142.976589 216.866506 
L 142.462956 216.565886 
L 142.043478 216.315449 
L 141.110368 215.921391 
L 140.763579 215.638796 
L 140.177258 215.194837 
L 139.610893 214.711706 
L 139.244147 214.403277 
L 138.5117 213.784615 
L 138.311037 213.586116 
L 137.575111 212.857525 
L 137.377926 212.661343 
L 136.638834 211.930435 
L 136.444816 211.737345 
L 135.709771 211.003344 
L 135.511706 210.806526 
L 134.780709 210.076254 
L 134.578595 209.875425 
L 133.858634 209.149164 
L 133.645485 208.937376 
L 132.938239 208.222074 
L 132.712375 207.996303 
L 132.026237 207.294983 
L 131.779264 207.019515 
L 131.302136 206.367893 
L 130.956046 205.440803 
L 130.846154 205.201347 
L 130.681567 204.513712 
L 130.291083 203.586622 
L 130.049083 202.659532 
L 129.913043 202.275209 
L 129.87838 201.732441 
L 129.583155 200.805351 
L 129.390323 199.878261 
L 129.128055 198.951171 
L 128.979933 198.570443 
L 128.948247 198.02408 
L 128.55943 197.09699 
L 128.4253 196.1699 
L 128.31899 195.242809 
L 128.363142 194.315719 
L 128.413005 193.388629 
L 128.468351 192.461538 
L 128.501804 191.534448 
L 128.531451 190.607358 
L 128.561993 189.680268 
L 128.627682 188.753177 
L 128.795039 187.826087 
L 128.92775 186.898997 
L 128.974413 185.971906 
L 128.979933 185.489022 
L 129.066394 185.044816 
L 129.24054 184.117726 
L 129.470048 183.190635 
L 129.913043 182.438238 
L 130.051329 182.263545 
L 130.688731 181.336455 
L 130.846154 180.955288 
L 131.192305 180.409365 
L 131.779264 179.552984 
L 131.846536 179.482274 
L 132.605998 178.555184 
L 132.712375 178.376408 
L 133.306865 177.628094 
L 133.645485 177.198975 
L 134.038295 176.701003 
L 134.578595 176.041126 
L 134.796182 175.773913 
L 135.511706 175.022388 
L 135.688419 174.846823 
L 136.444816 174.04978 
L 136.575704 173.919732 
L 137.377926 173.09664 
L 137.499416 172.992642 
L 138.311037 172.452391 
L 138.891489 172.065552 
L 139.244147 171.816411 
L 140.177258 171.138725 
L 140.177521 171.138462 
L 141.110368 170.362912 
L 141.287172 170.211371 
L 142.043478 169.714888 
L 142.561784 169.284281 
L 142.976589 168.919869 
L 143.875245 168.357191 
L 143.909699 168.326871 
L 144.842809 167.676676 
L 145.115255 167.4301 
L 145.77592 166.741889 
L 146.013284 166.50301 
L 146.70903 165.768557 
L 146.895972 165.57592 
L 147.64214 164.827625 
L 147.835651 164.648829 
L 148.575251 163.959758 
L 148.846813 163.721739 
L 149.508361 163.126606 
L 149.902607 162.794649 
L 150.441472 162.313003 
L 150.981996 161.867559 
L 151.374582 161.526777 
L 152.091506 160.940468 
L 152.307692 160.751779 
L 153.240803 160.159826 
L 153.439377 160.013378 
L 154.173913 159.475862 
L 154.825035 159.086288 
L 155.107023 158.881739 
L 156.040134 158.350241 
L 156.325739 158.159197 
L 156.973244 157.669549 
L 157.499692 157.232107 
L 157.906355 156.859114 
L 158.531072 156.305017 
L 158.839465 156.015986 
L 159.549254 155.377926 
L 159.772575 155.169128 
L 160.681241 154.450836 
L 160.705686 154.430494 
L 161.638796 153.665297 
L 161.808928 153.523746 
L 162.571906 152.875267 
L 162.900064 152.596656 
L 163.505017 152.070572 
L 164.006328 151.669565 
L 164.438127 151.297456 
L 165.213896 150.742475 
L 165.371237 150.618944 
L 166.304348 149.867938 
L 166.363849 149.815385 
L 167.237458 149.089475 
L 167.479572 148.888294 
L 168.170569 148.314127 
L 168.595299 147.961204 
L 169.103679 147.532817 
L 169.703909 147.034114 
L 170.036789 146.737553 
L 170.749889 146.107023 
L 170.9699 145.901134 
L 171.763766 145.179933 
L 171.90301 145.049626 
L 172.782562 144.252843 
L 172.83612 144.206439 
L 173.769231 143.409887 
L 173.854984 143.325753 
L 174.702341 142.563054 
L 174.886752 142.398662 
L 175.635452 141.729327 
L 175.940474 141.471572 
L 176.568562 140.931398 
L 177.022692 140.544482 
L 177.501672 140.129229 
L 178.077203 139.617391 
L 178.434783 139.284083 
L 179.124847 138.690301 
L 179.367893 138.47139 
L 180.204438 137.763211 
L 180.301003 137.676752 
L 181.234114 136.890863 
L 181.297189 136.83612 
L 182.167224 136.146405 
L 182.517266 135.90903 
L 183.100334 135.513628 
L 183.884374 134.98194 
L 184.033445 134.871319 
L 184.966555 134.27437 
L 185.304545 134.054849 
L 185.899666 133.681189 
L 186.832776 133.237567 
L 187.036888 133.127759 
L 187.765886 132.790552 
L 188.698997 132.352668 
L 188.9865 132.200669 
L 189.632107 131.908875 
L 190.565217 131.516865 
L 191.130081 131.273579 
L 191.498328 131.117454 
L 192.431438 130.78709 
L 193.364548 130.477311 
L 193.660012 130.346488 
L 194.297659 130.124757 
L 195.230769 129.801124 
L 196.025945 129.419398 
L 196.16388 129.348856 
L 197.09699 128.999472 
L 198.0301 128.750519 
L 198.853624 128.492308 
L 198.963211 128.466758 
L 199.896321 128.22492 
L 200.829431 127.992576 
L 201.762542 127.78933 
L 202.695652 127.58269 
L 202.753808 127.565217 
L 203.628763 127.391876 
L 204.561873 127.239554 
L 205.494983 127.10197 
L 206.428094 126.965015 
L 207.361204 126.849435 
L 208.294314 126.697532 
L 208.603829 126.638127 
L 209.227425 126.540533 
L 210.160535 126.514846 
L 211.093645 126.62587 
L 211.144335 126.638127 
L 212.026756 126.84153 
L 212.959866 127.019662 
L 213.892977 127.212938 
L 214.826087 127.396512 
L 215.60289 127.565217 
L 215.759197 127.608562 
L 216.692308 127.822033 
L 217.625418 128.161532 
L 218.390234 128.492308 
L 218.558528 128.582929 
L 219.491639 128.968077 
L 220.424749 129.367231 
L 220.536459 129.419398 
L 221.35786 129.768109 
L 222.29097 130.159526 
L 222.68245 130.346488 
L 223.22408 130.62321 
L 224.157191 131.007967 
L 225.015938 131.273579 
L 225.090301 131.31608 
L 226.023411 131.603368 
L 226.956522 132.124779 
L 227.037521 132.200669 
L 227.850091 133.127759 
L 227.889632 133.166993 
L 228.668513 134.054849 
L 228.822742 134.220346 
L 229.495926 134.98194 
L 229.755853 135.275997 
L 230.251671 135.90903 
L 230.688963 136.512707 
L 230.921873 136.83612 
L 231.576624 137.763211 
L 231.622074 137.807376 
L 232.32331 138.690301 
L 232.555184 138.970738 
L 233.092627 139.617391 
L 233.488294 140.092697 
L 233.861514 140.544482 
L 234.330028 141.471572 
L 234.421405 141.60174 
L 234.770917 142.398662 
L 235.11316 143.325753 
L 235.354515 143.84793 
L 235.505536 144.252843 
L 235.83661 145.179933 
L 236.108116 146.107023 
L 236.287625 146.493031 
L 236.490987 147.034114 
L 236.867476 147.961204 
L 237.220736 148.742048 
L 237.276773 148.888294 
L 237.562995 149.815385 
L 237.727068 150.742475 
L 237.818821 151.669565 
L 237.887478 152.596656 
L 238.014092 153.523746 
L 238.153846 154.237923 
L 238.182009 154.450836 
L 238.296757 155.377926 
L 238.387365 156.305017 
L 238.465727 157.232107 
L 238.517784 158.159197 
L 238.57283 159.086288 
L 238.61119 160.013378 
L 238.604256 160.940468 
L 238.565159 161.867559 
L 238.522641 162.794649 
L 238.479376 163.721739 
L 238.447082 164.648829 
L 238.204395 165.57592 
L 238.153846 165.698358 
L 237.853462 166.50301 
L 237.515642 167.4301 
L 237.220736 168.329504 
L 237.207184 168.357191 
L 236.972717 169.284281 
L 236.765489 170.211371 
L 236.558406 171.138462 
L 236.335429 172.065552 
L 236.287625 172.238775 
L 236.080241 172.992642 
L 235.883178 173.919732 
L 235.674725 174.846823 
L 235.459852 175.773913 
L 235.354515 176.158782 
L 235.194617 176.701003 
L 234.699543 177.628094 
L 234.421405 178.041023 
L 234.080455 178.555184 
L 233.494393 179.482274 
L 233.488294 179.490456 
L 232.909769 180.409365 
L 232.555184 180.976565 
L 232.329751 181.336455 
L 231.777226 182.263545 
L 231.622074 182.487677 
L 231.190168 183.190635 
L 230.781441 184.117726 
L 230.688963 184.253961 
L 230.168829 185.044816 
L 229.755853 185.656634 
L 229.537534 185.971906 
L 228.911396 186.898997 
L 228.822742 187.010279 
L 228.254776 187.826087 
L 227.889632 188.349347 
L 227.606942 188.753177 
L 226.956522 189.67705 
L 226.954006 189.680268 
L 226.319987 190.607358 
L 226.023411 190.974633 
L 225.615596 191.534448 
L 225.090301 192.258388 
L 224.941013 192.461538 
L 224.157191 193.264074 
L 224.019414 193.388629 
L 223.22408 194.137791 
L 223.03395 194.315719 
L 222.29097 195.034572 
L 222.086006 195.242809 
L 221.35786 196.045816 
L 221.246723 196.1699 
L 220.424749 197.075155 
L 220.403083 197.09699 
L 219.491639 197.931932 
L 219.38641 198.02408 
L 218.558528 198.816672 
L 218.416247 198.951171 
L 217.625418 199.706359 
L 217.452074 199.878261 
L 216.692308 200.643772 
L 216.54137 200.805351 
L 215.759197 201.669903 
L 215.698986 201.732441 
L 214.826087 202.624107 
L 214.790688 202.659532 
L 213.892977 203.560774 
L 213.867148 203.586622 
L 213.041061 204.513712 
L 212.959866 204.599526 
L 212.218474 205.440803 
L 212.026756 205.669274 
L 211.514561 206.367893 
L 211.093645 206.99826 
L 210.896338 207.294983 
L 210.26819 208.222074 
L 210.160535 208.367499 
L 209.596632 209.149164 
L 209.227425 209.648969 
L 208.935443 210.076254 
L 208.404587 211.003344 
L 208.294314 211.188829 
L 207.880881 211.930435 
L 207.395091 212.857525 
L 207.361204 212.916902 
L 206.874918 213.784615 
L 206.428094 214.477339 
L 206.276359 214.711706 
L 205.680531 215.638796 
L 205.494983 215.922205 
L 205.072897 216.565886 
L 204.561873 217.302525 
L 204.404865 217.492977 
L 203.628763 218.339808 
L 203.55655 218.420067 
L 202.695652 219.344934 
L 202.693554 219.347157 
L 201.809252 220.274247 
L 201.762542 220.323715 
L 200.927194 221.201338 
L 200.829431 221.304929 
L 200.051643 222.128428 
L 199.896321 222.291789 
L 199.174694 223.055518 
L 198.963211 223.277041 
L 198.298867 223.982609 
L 198.0301 224.263922 
L 197.298565 224.909699 
L 197.09699 225.057064 
L 196.16388 225.546044 
L 195.603942 225.836789 
L 195.230769 226.038667 
L 194.297659 226.543762 
L 193.931563 226.76388 
L 193.364548 227.11067 
L 192.431438 227.64916 
L 192.372653 227.69097 
L 191.498328 228.199603 
L 190.71505 228.61806 
L 190.565217 228.656912 
L 189.632107 229.137666 
L 188.737092 229.545151 
L 188.698997 229.549592 
L 187.765886 229.984833 
L 186.832776 230.323027 
L 186.575238 230.472241 
L 185.899666 230.790366 
L 184.966555 230.965516 
L 184.033445 231.042402 
L 183.100334 231.041447 
L 182.167224 231.090119 
L 181.234114 231.189443 
L 180.301003 231.33289 
L 179.941612 231.399331 
L 179.367893 231.412688 
L 178.434783 231.444318 
L 177.501672 231.513671 
L 176.568562 231.59298 
L 175.635452 231.471582 
z
" clip-path="url(#pe7d9b5c728)" style="fill: none; stroke: #000000; stroke-width: 1.5"/>
   </g>
   <g id="PathCollection_4">
    <path d="M 169.103679 254.616191 
L 168.948884 254.576589 
L 168.170569 254.377471 
L 167.237458 254.138763 
L 166.304348 253.852102 
L 165.764468 253.649498 
L 165.371237 253.501928 
L 164.438127 253.15176 
L 163.505017 252.801581 
L 163.291907 252.722408 
L 162.571906 252.460287 
L 161.638796 252.192114 
L 160.705686 251.918404 
L 160.286083 251.795318 
L 159.772575 251.644683 
L 158.839465 251.370968 
L 157.906355 251.097247 
L 157.125577 250.868227 
L 156.973244 250.823174 
L 156.040134 250.46601 
L 155.107023 250.079043 
L 154.774485 249.941137 
L 154.173913 249.692073 
L 153.240803 249.304972 
L 152.538925 249.014047 
L 152.307692 248.918154 
L 151.374582 248.530425 
L 150.441472 248.143141 
L 150.307013 248.086957 
L 149.508361 247.754019 
L 148.575251 247.356388 
L 148.152566 247.159866 
L 147.64214 246.917375 
L 146.70903 246.367952 
L 146.520668 246.232776 
L 145.77592 245.668793 
L 145.296426 245.305686 
L 144.842809 244.962178 
L 144.072155 244.378595 
L 143.909699 244.253518 
L 142.976589 243.508483 
L 142.885393 243.451505 
L 142.043478 242.973991 
L 141.234099 242.524415 
L 141.110368 242.455687 
L 140.177258 241.937359 
L 139.565084 241.597324 
L 139.244147 241.419055 
L 138.311037 240.897822 
L 137.945233 240.670234 
L 137.377926 240.318056 
L 136.455633 239.743144 
L 136.444816 239.736401 
L 135.511706 239.154744 
L 134.968377 238.816054 
L 134.578595 238.567354 
L 133.645485 237.965499 
L 133.526925 237.888963 
L 132.712375 237.363132 
L 132.090796 236.961873 
L 131.779264 236.760765 
L 130.846154 236.16764 
L 130.633488 236.034783 
L 129.913043 235.584956 
L 129.148619 235.107692 
L 128.979933 235.002376 
L 128.046823 234.355835 
L 127.848014 234.180602 
L 127.113712 233.481373 
L 126.874665 233.253512 
L 126.180602 232.660133 
L 125.766617 232.326421 
L 125.247492 231.895969 
L 124.665814 231.399331 
L 124.314381 231.117213 
L 123.494148 230.472241 
L 123.381271 230.383592 
L 122.448161 229.650786 
L 122.313655 229.545151 
L 121.51505 228.917974 
L 121.133156 228.61806 
L 120.58194 228.131563 
L 120.180726 227.69097 
L 119.648829 227.024558 
L 119.443531 226.76388 
L 118.758962 225.836789 
L 118.715719 225.777419 
L 118.02 224.909699 
L 117.782609 224.653804 
L 117.160354 223.982609 
L 116.849498 223.647541 
L 116.3006 223.055518 
L 115.916388 222.651031 
L 115.448786 222.128428 
L 114.983278 221.535973 
L 114.723678 221.201338 
L 114.050167 220.347232 
L 113.993335 220.274247 
L 113.264831 219.347157 
L 113.117057 219.158573 
L 112.536198 218.420067 
L 112.183946 217.987655 
L 111.777572 217.492977 
L 111.250836 216.70839 
L 111.174368 216.565886 
L 110.825607 215.638796 
L 110.475548 214.711706 
L 110.317726 214.294846 
L 110.12887 213.784615 
L 109.7857 212.857525 
L 109.451399 211.930435 
L 109.384615 211.727684 
L 109.146029 211.003344 
L 108.840663 210.076254 
L 108.535292 209.149164 
L 108.451505 208.871625 
L 108.263633 208.222074 
L 108.139047 207.294983 
L 108.012361 206.367893 
L 107.873986 205.440803 
L 107.730028 204.513712 
L 107.586075 203.586622 
L 107.518395 203.202751 
L 107.420527 202.659532 
L 107.103204 201.732441 
L 106.806604 200.805351 
L 106.585284 200.215524 
L 106.459059 199.878261 
L 106.127246 198.951171 
L 105.95031 198.02408 
L 105.775651 197.09699 
L 105.652174 196.435656 
L 105.602555 196.1699 
L 105.510051 195.242809 
L 105.550398 194.315719 
L 105.618594 193.388629 
L 105.652174 193.009437 
L 105.700694 192.461538 
L 105.782804 191.534448 
L 105.864918 190.607358 
L 105.947022 189.680268 
L 106.029133 188.753177 
L 106.111243 187.826087 
L 106.193353 186.898997 
L 106.320946 185.971906 
L 106.503059 185.044816 
L 106.58526 184.117726 
L 106.585284 184.117456 
L 106.669944 183.190635 
L 106.756555 182.263545 
L 106.87643 181.336455 
L 107.081856 180.409365 
L 107.287299 179.482274 
L 107.518395 178.781068 
L 107.5988 178.555184 
L 108.157573 177.628094 
L 108.451505 177.123185 
L 108.697281 176.701003 
L 109.237041 175.773913 
L 109.384615 175.540422 
L 109.843146 174.846823 
L 110.317726 174.126359 
L 110.454341 173.919732 
L 111.042052 172.992642 
L 111.250836 172.659522 
L 111.626646 172.065552 
L 112.183946 171.20835 
L 112.230577 171.138462 
L 112.849152 170.211371 
L 113.117057 169.809845 
L 113.467719 169.284281 
L 113.910001 168.357191 
L 114.050167 168.049958 
L 114.332953 167.4301 
L 114.755894 166.50301 
L 114.983278 166.004616 
L 115.178863 165.57592 
L 115.601805 164.648829 
L 115.916388 163.959288 
L 116.024762 163.721739 
L 116.462379 162.794649 
L 116.849498 162.320352 
L 117.271293 161.867559 
L 117.782609 161.318681 
L 118.13493 160.940468 
L 118.715719 160.316985 
L 118.998548 160.013378 
L 119.648829 159.31532 
L 119.879736 159.086288 
L 120.58194 158.422795 
L 120.862604 158.159197 
L 121.51505 157.546417 
L 121.849716 157.232107 
L 122.448161 156.670061 
L 122.836826 156.305017 
L 123.381271 155.795916 
L 123.833036 155.377926 
L 124.314381 154.937829 
L 124.847023 154.450836 
L 125.247492 154.096925 
L 125.867141 153.523746 
L 126.180602 153.18139 
L 126.684267 152.596656 
L 127.113712 152.098557 
L 127.483266 151.669565 
L 128.046823 151.016609 
L 128.286058 150.742475 
L 128.979933 149.957619 
L 129.111643 149.815385 
L 129.913043 149.048547 
L 130.090642 148.888294 
L 130.846154 148.213529 
L 131.134312 147.961204 
L 131.779264 147.406633 
L 132.229316 147.034114 
L 132.712375 146.672455 
L 133.499245 146.107023 
L 133.645485 146.002407 
L 134.578595 145.336877 
L 134.796905 145.179933 
L 135.511706 144.669723 
L 136.055505 144.252843 
L 136.444816 143.896709 
L 136.991257 143.325753 
L 137.377926 142.921732 
L 137.878545 142.398662 
L 138.311037 141.94677 
L 138.765825 141.471572 
L 139.244147 140.971791 
L 139.653113 140.544482 
L 140.177258 139.996817 
L 140.540388 139.617391 
L 141.110368 139.061344 
L 141.519729 138.690301 
L 142.043478 138.179624 
L 142.452578 137.763211 
L 142.976589 137.239232 
L 143.410434 136.83612 
L 143.909699 136.425456 
L 144.547874 135.90903 
L 144.842809 135.665413 
L 145.667789 134.98194 
L 145.77592 134.892046 
L 146.70903 134.157804 
L 146.841112 134.054849 
L 147.64214 133.430463 
L 148.030491 133.127759 
L 148.575251 132.703132 
L 149.219866 132.200669 
L 149.508361 131.975931 
L 150.430623 131.273579 
L 150.441472 131.266146 
L 151.374582 130.666209 
L 151.866932 130.346488 
L 152.307692 130.06058 
L 153.240803 129.455283 
L 153.296125 129.419398 
L 154.173913 128.850014 
L 154.711246 128.492308 
L 155.107023 128.220742 
L 156.020021 127.565217 
L 156.040134 127.5507 
L 156.973244 126.873245 
L 157.297091 126.638127 
L 157.906355 126.195787 
L 158.599937 125.711037 
L 158.839465 125.549746 
L 159.772575 125.058804 
L 160.267533 124.783946 
L 160.705686 124.527154 
L 161.539294 123.856856 
L 161.638796 123.774366 
L 162.571906 123.024326 
L 162.689724 122.929766 
L 163.505017 122.275416 
L 163.844829 122.002676 
L 164.438127 121.526487 
L 164.999927 121.075585 
L 165.371237 120.777514 
L 166.153972 120.148495 
L 166.304348 120.028434 
L 167.237458 119.248191 
L 167.267344 119.221405 
L 168.170569 118.425395 
L 168.319303 118.294314 
L 169.103679 117.603036 
L 169.371255 117.367224 
L 170.036789 116.780691 
L 170.423211 116.440134 
L 170.9699 115.958329 
L 171.475162 115.513043 
L 171.90301 115.135988 
L 172.549453 114.585953 
L 172.83612 114.366742 
L 173.769231 113.791537 
L 174.064948 113.658863 
L 174.702341 113.380875 
L 175.635452 112.973903 
L 176.190632 112.731773 
L 176.568562 112.568462 
L 177.501672 112.199229 
L 178.434783 111.856767 
L 178.591352 111.804682 
L 179.367893 111.543843 
L 180.301003 111.230411 
L 181.234114 110.916987 
L 181.351398 110.877592 
L 182.167224 110.603562 
L 183.100334 110.290138 
L 184.033445 109.976719 
L 184.125674 109.950502 
L 184.966555 109.712872 
L 185.899666 109.400807 
L 186.832776 109.07191 
L 186.97161 109.023411 
L 187.765886 108.747625 
L 188.698997 108.433314 
L 189.632107 108.12923 
L 189.732211 108.096321 
L 190.565217 107.822514 
L 191.498328 107.515654 
L 192.431438 107.208805 
L 192.55178 107.169231 
L 193.364548 106.901952 
L 194.297659 106.623032 
L 195.230769 106.485293 
L 196.16388 106.285547 
L 196.30173 106.24214 
L 197.09699 105.991728 
L 198.0301 105.700851 
L 198.963211 105.42427 
L 199.332191 105.31505 
L 199.896321 105.148064 
L 200.829431 104.882718 
L 201.762542 104.653722 
L 202.695652 104.428098 
L 202.862123 104.38796 
L 203.628763 104.202982 
L 204.561873 103.987952 
L 205.494983 103.775072 
L 206.428094 103.575822 
L 207.084363 103.46087 
L 207.361204 103.4125 
L 208.294314 103.305096 
L 209.227425 103.230149 
L 210.160535 103.199873 
L 211.093645 103.171203 
L 212.026756 103.143343 
L 212.959866 103.356364 
L 213.288072 103.46087 
L 213.892977 103.654248 
L 214.826087 103.909602 
L 215.759197 104.170446 
L 216.516406 104.38796 
L 216.692308 104.439925 
L 217.625418 104.707949 
L 218.558528 104.932692 
L 219.491639 105.143937 
L 220.242836 105.31505 
L 220.424749 105.356395 
L 221.35786 105.586515 
L 222.29097 105.844618 
L 223.22408 106.104757 
L 223.708731 106.24214 
L 224.157191 106.369131 
L 225.090301 106.637162 
L 226.023411 106.921879 
L 226.54574 107.169231 
L 226.956522 107.369124 
L 227.889632 107.82302 
L 228.451692 108.096321 
L 228.822742 108.27569 
L 229.755853 108.726775 
L 230.369476 109.023411 
L 230.688963 109.177854 
L 231.622074 109.630303 
L 232.276631 109.950502 
L 232.555184 110.087333 
L 233.488294 110.545698 
L 234.163937 110.877592 
L 234.421405 111.004063 
L 235.354515 111.462433 
L 236.051238 111.804682 
L 236.287625 111.918944 
L 237.220736 112.311191 
L 238.153846 112.677875 
L 238.290577 112.731773 
L 239.086957 113.046392 
L 240.020067 113.415045 
L 240.637208 113.658863 
L 240.953177 113.787274 
L 241.886288 114.517234 
L 241.949236 114.585953 
L 242.798678 115.513043 
L 242.819398 115.535907 
L 243.639565 116.440134 
L 243.752508 116.564549 
L 244.479458 117.367224 
L 244.685619 117.594268 
L 245.319799 118.294314 
L 245.618729 118.623456 
L 246.160555 119.221405 
L 246.551839 119.652119 
L 247.001732 120.148495 
L 247.48495 120.664138 
L 247.877187 121.075585 
L 248.41806 121.719589 
L 248.642438 122.002676 
L 249.351171 122.899953 
L 249.374677 122.929766 
L 250.096068 123.856856 
L 250.284281 124.100282 
L 250.812899 124.783946 
L 251.217391 125.287924 
L 251.576498 125.711037 
L 252.150502 126.357564 
L 252.357838 126.638127 
L 252.803527 127.565217 
L 253.083612 128.163382 
L 253.240175 128.492308 
L 253.681467 129.419398 
L 254.016722 130.123837 
L 254.122689 130.346488 
L 254.563936 131.273579 
L 254.949833 132.136243 
L 254.977172 132.200669 
L 255.314134 133.127759 
L 255.668233 134.054849 
L 255.882943 134.528749 
L 256.100069 134.98194 
L 256.554902 135.90903 
L 256.816054 136.44134 
L 257.009736 136.83612 
L 257.464576 137.763211 
L 257.749164 138.343286 
L 257.919411 138.690301 
L 258.374251 139.617391 
L 258.682274 140.245245 
L 258.825964 140.544482 
L 259.169043 141.471572 
L 259.492122 142.398662 
L 259.615385 142.773689 
L 259.794459 143.325753 
L 260.072772 144.252843 
L 260.205152 145.179933 
L 260.328308 146.107023 
L 260.479759 147.034114 
L 260.548495 147.419532 
L 260.645096 147.961204 
L 260.810424 148.888294 
L 260.9702 149.815385 
L 261.09667 150.742475 
L 261.2099 151.669565 
L 261.304119 152.596656 
L 261.39139 153.523746 
L 261.477358 154.450836 
L 261.481605 154.503308 
L 261.552727 155.377926 
L 261.622142 156.305017 
L 261.668798 157.232107 
L 261.713556 158.159197 
L 261.758294 159.086288 
L 261.803042 160.013378 
L 261.847794 160.940468 
L 261.892547 161.867559 
L 261.935903 162.794649 
L 261.854063 163.721739 
L 261.639026 164.648829 
L 261.481605 165.327573 
L 261.424007 165.57592 
L 261.20899 166.50301 
L 260.993949 167.4301 
L 260.816433 168.357191 
L 260.6513 169.284281 
L 260.548495 169.861379 
L 260.486146 170.211371 
L 260.321015 171.138462 
L 260.246655 172.065552 
L 260.135497 172.992642 
L 259.964019 173.919732 
L 259.792529 174.846823 
L 259.621075 175.773913 
L 259.615385 175.804679 
L 259.449605 176.701003 
L 259.278106 177.628094 
L 259.106631 178.555184 
L 258.915601 179.482274 
L 258.694779 180.409365 
L 258.682274 180.461862 
L 258.473957 181.336455 
L 258.259341 182.263545 
L 257.878958 183.190635 
L 257.749164 183.404381 
L 257.315991 184.117726 
L 256.834888 185.044816 
L 256.816054 185.085464 
L 256.375252 185.971906 
L 255.882943 186.871612 
L 255.867958 186.898997 
L 255.360674 187.826087 
L 254.949833 188.576914 
L 254.853386 188.753177 
L 254.346117 189.680268 
L 254.016722 190.283562 
L 253.84034 190.607358 
L 253.337978 191.534448 
L 253.083612 191.978724 
L 252.812652 192.461538 
L 252.244565 193.388629 
L 252.150502 193.545368 
L 251.688175 194.315719 
L 251.217391 195.09876 
L 251.130881 195.242809 
L 250.553364 196.1699 
L 250.284281 196.601439 
L 249.975283 197.09699 
L 249.397186 198.02408 
L 249.351171 198.097877 
L 248.819093 198.951171 
L 248.41806 199.567522 
L 248.206711 199.878261 
L 247.52136 200.805351 
L 247.48495 200.860553 
L 246.905474 201.732441 
L 246.551839 202.2789 
L 246.297722 202.659532 
L 245.618729 203.463708 
L 245.502535 203.586622 
L 244.685619 204.430893 
L 244.609793 204.513712 
L 243.891623 205.440803 
L 243.752508 205.610715 
L 243.120619 206.367893 
L 242.819398 206.727102 
L 242.338004 207.294983 
L 241.886288 207.789464 
L 241.495666 208.222074 
L 240.953177 208.809634 
L 240.639681 209.149164 
L 240.020067 209.848752 
L 239.827493 210.076254 
L 239.086957 210.978007 
L 239.066239 211.003344 
L 238.308228 211.930435 
L 238.153846 212.119251 
L 237.550213 212.857525 
L 237.220736 213.260489 
L 236.792195 213.784615 
L 236.287625 214.401729 
L 236.03324 214.711706 
L 235.354515 215.49403 
L 235.214154 215.638796 
L 234.421405 216.38172 
L 234.223141 216.565886 
L 233.488294 217.28223 
L 233.273588 217.492977 
L 232.555184 218.218569 
L 232.358432 218.420067 
L 231.622074 219.224922 
L 231.513792 219.347157 
L 230.744911 220.274247 
L 230.688963 220.35376 
L 230.104899 221.201338 
L 229.755853 221.713981 
L 229.470897 222.128428 
L 228.83333 223.055518 
L 228.822742 223.07111 
L 228.196031 223.982609 
L 227.889632 224.428245 
L 227.555784 224.909699 
L 226.956522 225.749427 
L 226.893383 225.836789 
L 226.221001 226.76388 
L 226.023411 227.013046 
L 225.45966 227.69097 
L 225.090301 228.142546 
L 224.728101 228.61806 
L 224.157191 229.410427 
L 224.058879 229.545151 
L 223.350189 230.472241 
L 223.22408 230.632522 
L 222.627112 231.399331 
L 222.29097 231.831114 
L 221.905379 232.326421 
L 221.35786 233.029736 
L 221.18365 233.253512 
L 220.461923 234.180602 
L 220.424749 234.228352 
L 219.740185 235.107692 
L 219.491639 235.404397 
L 218.851172 236.034783 
L 218.558528 236.300532 
L 217.844517 236.961873 
L 217.625418 237.174867 
L 216.939131 237.888963 
L 216.692308 238.136759 
L 215.983724 238.816054 
L 215.759197 239.015634 
L 214.94077 239.743144 
L 214.826087 239.845085 
L 213.897816 240.670234 
L 213.892977 240.674536 
L 212.959866 241.503988 
L 212.854867 241.597324 
L 212.026756 242.333446 
L 211.811914 242.524415 
L 211.093645 243.162881 
L 210.768956 243.451505 
L 210.160535 243.992338 
L 209.695509 244.378595 
L 209.227425 244.701016 
L 208.294314 245.127981 
L 207.91062 245.305686 
L 207.361204 245.565845 
L 206.428094 246.027249 
L 206.02494 246.232776 
L 205.494983 246.502848 
L 204.561873 246.96807 
L 204.172109 247.159866 
L 203.628763 247.427235 
L 202.695652 247.886399 
L 202.288085 248.086957 
L 201.762542 248.345577 
L 200.829431 248.804742 
L 200.403679 249.014047 
L 199.896321 249.263437 
L 198.963211 249.723508 
L 198.483949 249.941137 
L 198.0301 250.141978 
L 197.09699 250.544965 
L 196.403341 250.868227 
L 196.16388 250.980439 
L 195.230769 251.44147 
L 194.477549 251.795318 
L 194.297659 251.877327 
L 193.364548 252.297202 
L 192.431438 252.719706 
L 192.421722 252.722408 
L 191.498328 252.968145 
L 190.565217 253.156533 
L 189.632107 253.323187 
L 188.698997 253.375255 
L 187.765886 253.426496 
L 186.832776 253.587257 
L 186.484722 253.649498 
L 185.899666 253.754122 
L 184.966555 253.921006 
L 184.033445 254.087884 
L 183.100334 254.25477 
L 182.167224 254.38241 
L 181.234114 254.506596 
L 180.708246 254.576589 
L 180.301003 254.631119 
L 179.367893 254.756553 
L 178.434783 254.882675 
L 177.501672 255.009496 
L 176.568562 255.137029 
L 175.635452 255.265226 
L 174.702341 255.392903 
L 173.769231 255.367635 
L 172.83612 255.311937 
L 171.90301 255.244988 
L 170.9699 255.081634 
L 170.036789 254.854917 
L 169.103679 254.616191 
z
" clip-path="url(#pe7d9b5c728)" style="fill: none; stroke: #000000; stroke-width: 1.5"/>
   </g>
   <g id="patch_3">
    <path d="M 45 320.4 
L 45 43.2 
" style="fill: none; stroke: #000000; stroke-width: 0.8; stroke-linejoin: miter; stroke-linecap: square"/>
   </g>
   <g id="patch_4">
    <path d="M 324 320.4 
L 324 43.2 
" style="fill: none; stroke: #000000; stroke-width: 0.8; stroke-linejoin: miter; stroke-linecap: square"/>
   </g>
   <g id="patch_5">
    <path d="M 45 320.4 
L 324 320.4 
" style="fill: none; stroke: #000000; stroke-width: 0.8; stroke-linejoin: miter; stroke-linecap: square"/>
   </g>
   <g id="patch_6">
    <path d="M 45 43.2 
L 324 43.2 
" style="fill: none; stroke: #000000; stroke-width: 0.8; stroke-linejoin: miter; stroke-linecap: square"/>
   </g>
  </g>
 </g>
 <defs>
  <clipPath id="pe7d9b5c728">
   <rect x="45" y="43.2" width="279" height="277.2"/>
  </clipPath>
 </defs>
</svg>
