<?xml version="1.0" encoding="utf-8" standalone="no"?>
<!DOCTYPE svg PUBLIC "-//W3C//DTD SVG 1.1//EN"
  "http://www.w3.org/Graphics/SVG/1.1/DTD/svg11.dtd">
<svg xmlns:xlink="http://www.w3.org/1999/xlink" width="360pt" height="360pt" viewBox="0 0 360 360" xmlns="http://www.w3.org/2000/svg" version="1.1">
 <metadata>
  <rdf:RDF xmlns:dc="http://purl.org/dc/elements/1.1/" xmlns:cc="http://creativecommons.org/ns#" xmlns:rdf="http://www.w3.org/1999/02/22-rdf-syntax-ns#">
   <cc:Work>
    <dc:type rdf:resource="http://purl.org/dc/dcmitype/StillImage"/>
    <dc:date>2022-04-03T22:41:39.537899</dc:date>
    <dc:format>image/svg+xml</dc:format>
    <dc:creator>
     <cc:Agent>
      <dc:title>Matplotlib v3.5.1, https://matplotlib.org/</dc:title>
     </cc:Agent>
    </dc:creator>
   </cc:Work>
  </rdf:RDF>
 </metadata>
 <defs>
  <style type="text/css">*{stroke-linejoin: round; stroke-linecap: butt}</style>
 </defs>
 <g id="figure_1">
  <g id="patch_1">
   <path d="M 0 360 
L 360 360 
L 360 0 
L 0 0 
z
" style="fill: #ffffff"/>
  </g>
  <g id="axes_1">
   <g id="patch_2">
    <path d="M 45 320.4 
L 324 320.4 
L 324 43.2 
L 45 43.2 
z
" style="fill: #ffffff"/>
   </g>
   <g id="PathCollection_1">
    <defs>
     <path id="m40a85db553" d="M 0 0.5 
C 0.132602 0.5 0.25979 0.447317 0.353553 0.353553 
C 0.447317 0.25979 0.5 0.132602 0.5 0 
C 0.5 -0.132602 0.447317 -0.25979 0.353553 -0.353553 
C 0.25979 -0.447317 0.132602 -0.5 0 -0.5 
C -0.132602 -0.5 -0.25979 -0.447317 -0.353553 -0.353553 
C -0.447317 -0.25979 -0.5 -0.132602 -0.5 0 
C -0.5 0.132602 -0.447317 0.25979 -0.353553 0.353553 
C -0.25979 0.447317 -0.132602 0.5 0 0.5 
z
" style="stroke: #ff0000"/>
    </defs>
    <g clip-path="url(#pd206873ba2)">
     <use xlink:href="#m40a85db553" x="233.759319" y="181.568614" style="fill: #ff0000; stroke: #ff0000"/>
     <use xlink:href="#m40a85db553" x="233.899543" y="176.757363" style="fill: #ff0000; stroke: #ff0000"/>
     <use xlink:href="#m40a85db553" x="233.924856" y="171.846852" style="fill: #ff0000; stroke: #ff0000"/>
     <use xlink:href="#m40a85db553" x="233.609748" y="166.837637" style="fill: #ff0000; stroke: #ff0000"/>
     <use xlink:href="#m40a85db553" x="232.667863" y="161.841396" style="fill: #ff0000; stroke: #ff0000"/>
     <use xlink:href="#m40a85db553" x="230.857171" y="157.073729" style="fill: #ff0000; stroke: #ff0000"/>
     <use xlink:href="#m40a85db553" x="228.063428" y="152.802864" style="fill: #ff0000; stroke: #ff0000"/>
     <use xlink:href="#m40a85db553" x="224.335348" y="149.277398" style="fill: #ff0000; stroke: #ff0000"/>
     <use xlink:href="#m40a85db553" x="219.871781" y="146.656424" style="fill: #ff0000; stroke: #ff0000"/>
     <use xlink:href="#m40a85db553" x="214.976029" y="144.954991" style="fill: #ff0000; stroke: #ff0000"/>
     <use xlink:href="#m40a85db553" x="209.989454" y="144.013358" style="fill: #ff0000; stroke: #ff0000"/>
     <use xlink:href="#m40a85db553" x="205.210853" y="143.504208" style="fill: #ff0000; stroke: #ff0000"/>
     <use xlink:href="#m40a85db553" x="200.814782" y="142.993973" style="fill: #ff0000; stroke: #ff0000"/>
     <use xlink:href="#m40a85db553" x="196.796005" y="142.058406" style="fill: #ff0000; stroke: #ff0000"/>
     <use xlink:href="#m40a85db553" x="192.970479" y="140.42263" style="fill: #ff0000; stroke: #ff0000"/>
     <use xlink:href="#m40a85db553" x="189.044807" y="138.071412" style="fill: #ff0000; stroke: #ff0000"/>
     <use xlink:href="#m40a85db553" x="184.732888" y="135.275403" style="fill: #ff0000; stroke: #ff0000"/>
     <use xlink:href="#m40a85db553" x="179.869636" y="132.509748" style="fill: #ff0000; stroke: #ff0000"/>
     <use xlink:href="#m40a85db553" x="174.467186" y="130.292407" style="fill: #ff0000; stroke: #ff0000"/>
     <use xlink:href="#m40a85db553" x="168.687158" y="129.014194" style="fill: #ff0000; stroke: #ff0000"/>
     <use xlink:href="#m40a85db553" x="162.750083" y="128.839822" style="fill: #ff0000; stroke: #ff0000"/>
     <use xlink:href="#m40a85db553" x="156.838459" y="129.718497" style="fill: #ff0000; stroke: #ff0000"/>
     <use xlink:href="#m40a85db553" x="151.04735" y="131.479895" style="fill: #ff0000; stroke: #ff0000"/>
     <use xlink:href="#m40a85db553" x="145.400297" y="133.950919" style="fill: #ff0000; stroke: #ff0000"/>
     <use xlink:href="#m40a85db553" x="139.909191" y="137.034102" style="fill: #ff0000; stroke: #ff0000"/>
     <use xlink:href="#m40a85db553" x="134.640622" y="140.724178" style="fill: #ff0000; stroke: #ff0000"/>
     <use xlink:href="#m40a85db553" x="129.757971" y="145.072537" style="fill: #ff0000; stroke: #ff0000"/>
     <use xlink:href="#m40a85db553" x="125.52174" y="150.123784" style="fill: #ff0000; stroke: #ff0000"/>
     <use xlink:href="#m40a85db553" x="122.24221" y="155.851125" style="fill: #ff0000; stroke: #ff0000"/>
     <use xlink:href="#m40a85db553" x="120.194311" y="162.117358" style="fill: #ff0000; stroke: #ff0000"/>
     <use xlink:href="#m40a85db553" x="119.526596" y="168.681956" style="fill: #ff0000; stroke: #ff0000"/>
     <use xlink:href="#m40a85db553" x="120.209234" y="175.254589" style="fill: #ff0000; stroke: #ff0000"/>
     <use xlink:href="#m40a85db553" x="122.050761" y="181.568614" style="fill: #ff0000; stroke: #ff0000"/>
     <use xlink:href="#m40a85db553" x="124.772683" y="187.436079" style="fill: #ff0000; stroke: #ff0000"/>
     <use xlink:href="#m40a85db553" x="128.095814" y="192.761746" style="fill: #ff0000; stroke: #ff0000"/>
     <use xlink:href="#m40a85db553" x="131.793031" y="197.524137" style="fill: #ff0000; stroke: #ff0000"/>
     <use xlink:href="#m40a85db553" x="135.698041" y="201.748475" style="fill: #ff0000; stroke: #ff0000"/>
     <use xlink:href="#m40a85db553" x="139.694883" y="205.486618" style="fill: #ff0000; stroke: #ff0000"/>
     <use xlink:href="#m40a85db553" x="143.716151" y="208.798305" style="fill: #ff0000; stroke: #ff0000"/>
     <use xlink:href="#m40a85db553" x="147.751119" y="211.722961" style="fill: #ff0000; stroke: #ff0000"/>
     <use xlink:href="#m40a85db553" x="151.840163" y="214.249128" style="fill: #ff0000; stroke: #ff0000"/>
     <use xlink:href="#m40a85db553" x="156.03811" y="216.307724" style="fill: #ff0000; stroke: #ff0000"/>
     <use xlink:href="#m40a85db553" x="160.360769" y="217.808744" style="fill: #ff0000; stroke: #ff0000"/>
     <use xlink:href="#m40a85db553" x="164.752715" y="218.707726" style="fill: #ff0000; stroke: #ff0000"/>
     <use xlink:href="#m40a85db553" x="169.103306" y="219.058325" style="fill: #ff0000; stroke: #ff0000"/>
     <use xlink:href="#m40a85db553" x="173.301009" y="219.011335" style="fill: #ff0000; stroke: #ff0000"/>
     <use xlink:href="#m40a85db553" x="177.287411" y="218.758065" style="fill: #ff0000; stroke: #ff0000"/>
     <use xlink:href="#m40a85db553" x="181.076261" y="218.455451" style="fill: #ff0000; stroke: #ff0000"/>
     <use xlink:href="#m40a85db553" x="184.732888" y="218.180479" style="fill: #ff0000; stroke: #ff0000"/>
     <use xlink:href="#m40a85db553" x="188.338098" y="217.936763" style="fill: #ff0000; stroke: #ff0000"/>
     <use xlink:href="#m40a85db553" x="191.966059" y="217.697617" style="fill: #ff0000; stroke: #ff0000"/>
     <use xlink:href="#m40a85db553" x="195.686719" y="217.445587" style="fill: #ff0000; stroke: #ff0000"/>
     <use xlink:href="#m40a85db553" x="199.577197" y="217.174738" style="fill: #ff0000; stroke: #ff0000"/>
     <use xlink:href="#m40a85db553" x="203.715475" y="216.853414" style="fill: #ff0000; stroke: #ff0000"/>
     <use xlink:href="#m40a85db553" x="208.143004" y="216.378292" style="fill: #ff0000; stroke: #ff0000"/>
     <use xlink:href="#m40a85db553" x="212.810585" y="215.560659" style="fill: #ff0000; stroke: #ff0000"/>
     <use xlink:href="#m40a85db553" x="217.542141" y="214.166194" style="fill: #ff0000; stroke: #ff0000"/>
     <use xlink:href="#m40a85db553" x="222.048439" y="211.995121" style="fill: #ff0000; stroke: #ff0000"/>
     <use xlink:href="#m40a85db553" x="225.9982" y="208.963327" style="fill: #ff0000; stroke: #ff0000"/>
     <use xlink:href="#m40a85db553" x="229.122025" y="205.142028" style="fill: #ff0000; stroke: #ff0000"/>
     <use xlink:href="#m40a85db553" x="231.303546" y="200.73436" style="fill: #ff0000; stroke: #ff0000"/>
     <use xlink:href="#m40a85db553" x="232.615042" y="195.999798" style="fill: #ff0000; stroke: #ff0000"/>
     <use xlink:href="#m40a85db553" x="233.280756" y="191.163084" style="fill: #ff0000; stroke: #ff0000"/>
     <use xlink:href="#m40a85db553" x="233.584492" y="186.349036" style="fill: #ff0000; stroke: #ff0000"/>
    </g>
   </g>
   <g id="matplotlib.axis_1">
    <g id="xtick_1">
     <g id="line2d_1">
      <defs>
       <path id="m2768472b4f" d="M 0 0 
L 0 3.5 
" style="stroke: #000000; stroke-width: 0.8"/>
      </defs>
      <g>
       <use xlink:href="#m2768472b4f" x="45" y="320.4" style="stroke: #000000; stroke-width: 0.8"/>
      </g>
     </g>
     <g id="text_1">
      <!-- −3 -->
      <g transform="translate(37.628906 334.998438)scale(0.1 -0.1)">
       <defs>
        <path id="DejaVuSans-2212" d="M 678 2272 
L 4684 2272 
L 4684 1741 
L 678 1741 
L 678 2272 
z
" transform="scale(0.015625)"/>
        <path id="DejaVuSans-33" d="M 2597 2516 
Q 3050 2419 3304 2112 
Q 3559 1806 3559 1356 
Q 3559 666 3084 287 
Q 2609 -91 1734 -91 
Q 1441 -91 1130 -33 
Q 819 25 488 141 
L 488 750 
Q 750 597 1062 519 
Q 1375 441 1716 441 
Q 2309 441 2620 675 
Q 2931 909 2931 1356 
Q 2931 1769 2642 2001 
Q 2353 2234 1838 2234 
L 1294 2234 
L 1294 2753 
L 1863 2753 
Q 2328 2753 2575 2939 
Q 2822 3125 2822 3475 
Q 2822 3834 2567 4026 
Q 2313 4219 1838 4219 
Q 1578 4219 1281 4162 
Q 984 4106 628 3988 
L 628 4550 
Q 988 4650 1302 4700 
Q 1616 4750 1894 4750 
Q 2613 4750 3031 4423 
Q 3450 4097 3450 3541 
Q 3450 3153 3228 2886 
Q 3006 2619 2597 2516 
z
" transform="scale(0.015625)"/>
       </defs>
       <use xlink:href="#DejaVuSans-2212"/>
       <use xlink:href="#DejaVuSans-33" x="83.789062"/>
      </g>
     </g>
    </g>
    <g id="xtick_2">
     <g id="line2d_2">
      <g>
       <use xlink:href="#m2768472b4f" x="91.577629" y="320.4" style="stroke: #000000; stroke-width: 0.8"/>
      </g>
     </g>
     <g id="text_2">
      <!-- −2 -->
      <g transform="translate(84.206536 334.998438)scale(0.1 -0.1)">
       <defs>
        <path id="DejaVuSans-32" d="M 1228 531 
L 3431 531 
L 3431 0 
L 469 0 
L 469 531 
Q 828 903 1448 1529 
Q 2069 2156 2228 2338 
Q 2531 2678 2651 2914 
Q 2772 3150 2772 3378 
Q 2772 3750 2511 3984 
Q 2250 4219 1831 4219 
Q 1534 4219 1204 4116 
Q 875 4013 500 3803 
L 500 4441 
Q 881 4594 1212 4672 
Q 1544 4750 1819 4750 
Q 2544 4750 2975 4387 
Q 3406 4025 3406 3419 
Q 3406 3131 3298 2873 
Q 3191 2616 2906 2266 
Q 2828 2175 2409 1742 
Q 1991 1309 1228 531 
z
" transform="scale(0.015625)"/>
       </defs>
       <use xlink:href="#DejaVuSans-2212"/>
       <use xlink:href="#DejaVuSans-32" x="83.789062"/>
      </g>
     </g>
    </g>
    <g id="xtick_3">
     <g id="line2d_3">
      <g>
       <use xlink:href="#m2768472b4f" x="138.155259" y="320.4" style="stroke: #000000; stroke-width: 0.8"/>
      </g>
     </g>
     <g id="text_3">
      <!-- −1 -->
      <g transform="translate(130.784165 334.998438)scale(0.1 -0.1)">
       <defs>
        <path id="DejaVuSans-31" d="M 794 531 
L 1825 531 
L 1825 4091 
L 703 3866 
L 703 4441 
L 1819 4666 
L 2450 4666 
L 2450 531 
L 3481 531 
L 3481 0 
L 794 0 
L 794 531 
z
" transform="scale(0.015625)"/>
       </defs>
       <use xlink:href="#DejaVuSans-2212"/>
       <use xlink:href="#DejaVuSans-31" x="83.789062"/>
      </g>
     </g>
    </g>
    <g id="xtick_4">
     <g id="line2d_4">
      <g>
       <use xlink:href="#m2768472b4f" x="184.732888" y="320.4" style="stroke: #000000; stroke-width: 0.8"/>
      </g>
     </g>
     <g id="text_4">
      <!-- 0 -->
      <g transform="translate(181.551638 334.998438)scale(0.1 -0.1)">
       <defs>
        <path id="DejaVuSans-30" d="M 2034 4250 
Q 1547 4250 1301 3770 
Q 1056 3291 1056 2328 
Q 1056 1369 1301 889 
Q 1547 409 2034 409 
Q 2525 409 2770 889 
Q 3016 1369 3016 2328 
Q 3016 3291 2770 3770 
Q 2525 4250 2034 4250 
z
M 2034 4750 
Q 2819 4750 3233 4129 
Q 3647 3509 3647 2328 
Q 3647 1150 3233 529 
Q 2819 -91 2034 -91 
Q 1250 -91 836 529 
Q 422 1150 422 2328 
Q 422 3509 836 4129 
Q 1250 4750 2034 4750 
z
" transform="scale(0.015625)"/>
       </defs>
       <use xlink:href="#DejaVuSans-30"/>
      </g>
     </g>
    </g>
    <g id="xtick_5">
     <g id="line2d_5">
      <g>
       <use xlink:href="#m2768472b4f" x="231.310518" y="320.4" style="stroke: #000000; stroke-width: 0.8"/>
      </g>
     </g>
     <g id="text_5">
      <!-- 1 -->
      <g transform="translate(228.129268 334.998438)scale(0.1 -0.1)">
       <use xlink:href="#DejaVuSans-31"/>
      </g>
     </g>
    </g>
    <g id="xtick_6">
     <g id="line2d_6">
      <g>
       <use xlink:href="#m2768472b4f" x="277.888147" y="320.4" style="stroke: #000000; stroke-width: 0.8"/>
      </g>
     </g>
     <g id="text_6">
      <!-- 2 -->
      <g transform="translate(274.706897 334.998438)scale(0.1 -0.1)">
       <use xlink:href="#DejaVuSans-32"/>
      </g>
     </g>
    </g>
   </g>
   <g id="matplotlib.axis_2">
    <g id="ytick_1">
     <g id="line2d_7">
      <defs>
       <path id="m411b9c57d1" d="M 0 0 
L -3.5 0 
" style="stroke: #000000; stroke-width: 0.8"/>
      </defs>
      <g>
       <use xlink:href="#m411b9c57d1" x="45" y="320.4" style="stroke: #000000; stroke-width: 0.8"/>
      </g>
     </g>
     <g id="text_7">
      <!-- −3 -->
      <g transform="translate(23.257812 324.199219)scale(0.1 -0.1)">
       <use xlink:href="#DejaVuSans-2212"/>
       <use xlink:href="#DejaVuSans-33" x="83.789062"/>
      </g>
     </g>
    </g>
    <g id="ytick_2">
     <g id="line2d_8">
      <g>
       <use xlink:href="#m411b9c57d1" x="45" y="274.122871" style="stroke: #000000; stroke-width: 0.8"/>
      </g>
     </g>
     <g id="text_8">
      <!-- −2 -->
      <g transform="translate(23.257812 277.92209)scale(0.1 -0.1)">
       <use xlink:href="#DejaVuSans-2212"/>
       <use xlink:href="#DejaVuSans-32" x="83.789062"/>
      </g>
     </g>
    </g>
    <g id="ytick_3">
     <g id="line2d_9">
      <g>
       <use xlink:href="#m411b9c57d1" x="45" y="227.845743" style="stroke: #000000; stroke-width: 0.8"/>
      </g>
     </g>
     <g id="text_9">
      <!-- −1 -->
      <g transform="translate(23.257812 231.644962)scale(0.1 -0.1)">
       <use xlink:href="#DejaVuSans-2212"/>
       <use xlink:href="#DejaVuSans-31" x="83.789062"/>
      </g>
     </g>
    </g>
    <g id="ytick_4">
     <g id="line2d_10">
      <g>
       <use xlink:href="#m411b9c57d1" x="45" y="181.568614" style="stroke: #000000; stroke-width: 0.8"/>
      </g>
     </g>
     <g id="text_10">
      <!-- 0 -->
      <g transform="translate(31.6375 185.367833)scale(0.1 -0.1)">
       <use xlink:href="#DejaVuSans-30"/>
      </g>
     </g>
    </g>
    <g id="ytick_5">
     <g id="line2d_11">
      <g>
       <use xlink:href="#m411b9c57d1" x="45" y="135.291486" style="stroke: #000000; stroke-width: 0.8"/>
      </g>
     </g>
     <g id="text_11">
      <!-- 1 -->
      <g transform="translate(31.6375 139.090705)scale(0.1 -0.1)">
       <use xlink:href="#DejaVuSans-31"/>
      </g>
     </g>
    </g>
    <g id="ytick_6">
     <g id="line2d_12">
      <g>
       <use xlink:href="#m411b9c57d1" x="45" y="89.014357" style="stroke: #000000; stroke-width: 0.8"/>
      </g>
     </g>
     <g id="text_12">
      <!-- 2 -->
      <g transform="translate(31.6375 92.813576)scale(0.1 -0.1)">
       <use xlink:href="#DejaVuSans-32"/>
      </g>
     </g>
    </g>
   </g>
   <g id="PathCollection_2">
    <path d="M 168.896494 195.474688 
L 168.703205 195.451753 
L 168.430718 195.423017 
L 167.964942 195.349417 
L 167.499165 195.289157 
L 167.033389 195.134205 
L 166.62931 194.988982 
L 166.567613 194.967037 
L 166.101836 194.901589 
L 165.63606 194.651352 
L 165.446445 194.52621 
L 165.170284 194.334494 
L 164.704508 194.109164 
L 164.568438 194.063439 
L 164.238731 193.966934 
L 163.772955 193.84655 
L 163.307179 193.726164 
L 162.841402 193.605774 
L 162.821477 193.600668 
L 162.375626 193.486158 
L 161.90985 193.345208 
L 161.444073 193.198883 
L 161.273031 193.137896 
L 160.978297 193.032809 
L 160.512521 192.86223 
L 160.046745 192.689766 
L 160.007206 192.675125 
L 159.580968 192.517293 
L 159.115192 192.232162 
L 159.098676 192.212354 
L 158.70836 191.749583 
L 158.649416 191.685246 
L 158.314948 191.286811 
L 158.183639 191.131432 
L 157.922142 190.82404 
L 157.717863 190.583913 
L 157.528458 190.361269 
L 157.252087 190.036394 
L 157.13478 189.898497 
L 156.786311 189.488871 
L 156.741099 189.435726 
L 156.347424 188.972955 
L 156.320534 188.941347 
L 155.953738 188.510184 
L 155.854758 188.393833 
L 155.560054 188.047412 
L 155.388982 187.846317 
L 155.166374 187.584641 
L 154.923205 187.298796 
L 154.704831 187.12187 
L 154.457429 186.897868 
L 154.116645 186.659098 
L 153.991653 186.571522 
L 153.525876 186.245173 
L 153.456162 186.196327 
L 153.0601 185.918829 
L 152.795668 185.733556 
L 152.594324 185.592483 
L 152.135178 185.270785 
L 152.128548 185.266139 
L 151.662771 184.939794 
L 151.474688 184.808013 
L 151.196995 184.611223 
L 150.835583 184.345242 
L 150.731219 184.267401 
L 150.265442 183.900999 
L 150.245504 183.882471 
L 149.799666 183.432778 
L 149.786699 183.419699 
L 149.33389 182.962992 
L 149.327878 182.956928 
L 148.869067 182.494157 
L 148.868114 182.493195 
L 148.410641 182.031386 
L 148.402337 182.023008 
L 147.955612 181.568614 
L 147.936561 181.549237 
L 147.500625 181.105843 
L 147.470785 181.075491 
L 147.045652 180.643072 
L 147.005008 180.601733 
L 146.590678 180.180301 
L 146.539232 180.122221 
L 146.220287 179.717529 
L 146.073456 179.484378 
L 145.921635 179.254758 
L 145.615652 178.791987 
L 145.607679 178.779929 
L 145.309671 178.329215 
L 145.141903 178.075477 
L 145.004951 177.866444 
L 144.710483 177.403673 
L 144.676127 177.348459 
L 144.474639 176.940902 
L 144.24585 176.47813 
L 144.210351 176.406322 
L 144.017068 176.015359 
L 143.788282 175.552588 
L 143.744574 175.46418 
L 143.559495 175.089816 
L 143.330711 174.627045 
L 143.278798 174.522038 
L 143.101927 174.164274 
L 142.873149 173.701503 
L 142.813022 173.579883 
L 142.656005 173.238731 
L 142.436255 172.77596 
L 142.347245 172.593216 
L 142.218517 172.313189 
L 142.004752 171.850417 
L 141.881469 171.591592 
L 141.785482 171.387646 
L 141.605205 170.924875 
L 141.439494 170.462104 
L 141.415693 170.390904 
L 141.293989 169.999332 
L 141.256116 169.536561 
L 141.286471 169.07379 
L 141.415693 168.738586 
L 141.464654 168.611018 
L 141.643303 168.148247 
L 141.816936 167.685476 
L 141.881469 167.527529 
L 142.018817 167.222705 
L 142.227328 166.759933 
L 142.347245 166.493799 
L 142.435847 166.297162 
L 142.644359 165.834391 
L 142.813022 165.543986 
L 142.912635 165.371619 
L 143.227712 164.908848 
L 143.278798 164.833775 
L 143.54238 164.446077 
L 143.744574 164.226031 
L 143.977859 163.983306 
L 144.210351 163.724934 
L 144.393375 163.520534 
L 144.676127 163.204756 
L 144.807743 163.057763 
L 145.141903 162.684564 
L 145.219377 162.594992 
L 145.564131 162.13222 
L 145.607679 162.068289 
L 145.879359 161.669449 
L 146.073456 161.384494 
L 146.194577 161.206678 
L 146.5098 160.743907 
L 146.539232 160.705994 
L 146.903439 160.281135 
L 147.005008 160.169561 
L 147.324715 159.818364 
L 147.470785 159.657904 
L 147.745988 159.355593 
L 147.936561 159.146249 
L 148.185784 158.892821 
L 148.402337 158.71386 
L 148.858214 158.43005 
L 148.868114 158.423887 
L 149.33389 158.121619 
L 149.554642 157.967279 
L 149.799666 157.784294 
L 150.174308 157.504508 
L 150.265442 157.436449 
L 150.731219 157.08862 
L 150.793802 157.041736 
L 151.196995 156.737843 
L 151.471981 156.578965 
L 151.662771 156.459098 
L 152.128548 156.270791 
L 152.510921 156.116194 
L 152.594324 156.082473 
L 153.0601 155.894163 
L 153.525876 155.705853 
L 153.656391 155.653422 
L 153.991653 155.535146 
L 154.457429 155.469437 
L 154.923205 155.403724 
L 155.388982 155.335003 
L 155.854758 155.258141 
L 156.197655 155.190651 
L 156.320534 155.163942 
L 156.786311 155.0627 
L 157.252087 154.961451 
L 157.717863 154.858431 
L 158.183639 154.757361 
L 158.326648 154.72788 
L 158.649416 154.65772 
L 159.115192 154.556483 
L 159.580968 154.455237 
L 160.046745 154.350921 
L 160.45566 154.265109 
L 160.512521 154.252749 
L 160.978297 154.151506 
L 161.444073 154.050264 
L 161.90985 153.946104 
L 162.375626 153.844994 
L 162.630563 153.802337 
L 162.841402 153.766201 
L 163.307179 153.697025 
L 163.772955 153.661669 
L 164.238731 153.774088 
L 164.372899 153.802337 
L 164.704508 153.871983 
L 165.170284 153.969815 
L 165.63606 154.032126 
L 166.101836 154.074845 
L 166.567613 154.103617 
L 167.033389 154.12578 
L 167.499165 154.14198 
L 167.964942 154.15817 
L 168.430718 154.17437 
L 168.896494 154.190564 
L 169.36227 154.206761 
L 169.828047 154.222955 
L 169.931755 154.265109 
L 170.293823 154.391916 
L 170.759599 154.621274 
L 170.976094 154.72788 
L 171.225376 154.845355 
L 171.691152 155.03858 
L 172.099292 155.190651 
L 172.156928 155.212126 
L 172.622705 155.344202 
L 173.088481 155.440075 
L 173.554257 155.584216 
L 173.761953 155.653422 
L 174.020033 155.739418 
L 174.48581 155.894619 
L 174.951586 156.049817 
L 175.150787 156.116194 
L 175.417362 156.20502 
L 175.883139 156.360221 
L 176.348915 156.526976 
L 176.453982 156.578965 
L 176.814691 156.79229 
L 177.240193 157.041736 
L 177.280467 157.065347 
L 177.746244 157.350132 
L 177.997902 157.504508 
L 178.21202 157.635856 
L 178.677796 157.921578 
L 178.752294 157.967279 
L 179.143573 158.234353 
L 179.430471 158.43005 
L 179.609349 158.552233 
L 180.075125 158.870388 
L 180.107968 158.892821 
L 180.540902 159.188539 
L 180.785462 159.355593 
L 181.006678 159.506698 
L 181.462955 159.818364 
L 181.472454 159.824853 
L 181.93823 160.143009 
L 182.140447 160.281135 
L 182.404007 160.461159 
L 182.817943 160.743907 
L 182.869783 160.779317 
L 183.335559 161.080141 
L 183.618096 161.206678 
L 183.801336 161.285267 
L 184.267112 161.48504 
L 184.697076 161.669449 
L 184.732888 161.684809 
L 185.198664 161.88458 
L 185.664441 162.084345 
L 185.776064 162.13222 
L 186.130217 162.284119 
L 186.595993 162.483892 
L 186.855029 162.594992 
L 187.06177 162.6747 
L 187.527546 162.869401 
L 187.904732 163.057763 
L 187.993322 163.093044 
L 188.459098 163.305227 
L 188.924875 163.51921 
L 188.933399 163.520534 
L 189.390651 163.583595 
L 189.856427 163.647824 
L 190.322204 163.712059 
L 190.78798 163.776293 
L 191.253756 163.835427 
L 191.719533 163.898592 
L 192.185309 163.967197 
L 192.289108 163.983306 
L 192.651085 164.033231 
L 193.116861 164.097457 
L 193.582638 164.156183 
L 194.048414 164.230972 
L 194.51419 164.331467 
L 194.979967 164.43474 
L 195.044573 164.446077 
L 195.445743 164.507417 
L 195.911519 164.59141 
L 196.377295 164.679935 
L 196.843072 164.761667 
L 197.308848 164.843396 
L 197.632266 164.908848 
L 197.774624 164.938021 
L 198.240401 165.044244 
L 198.706177 165.150475 
L 199.171953 165.2567 
L 199.63773 165.362923 
L 199.675862 165.371619 
L 200.103506 165.469148 
L 200.569282 165.575376 
L 201.035058 165.704003 
L 201.438377 165.834391 
L 201.500835 165.854465 
L 201.966611 166.00022 
L 202.432387 166.141143 
L 202.898164 166.282056 
L 202.94809 166.297162 
L 203.36394 166.422983 
L 203.829716 166.563894 
L 204.295492 166.70482 
L 204.477662 166.759933 
L 204.761269 166.845734 
L 205.227045 166.986656 
L 205.692821 167.127574 
L 206.007251 167.222705 
L 206.158598 167.275509 
L 206.624374 167.458248 
L 207.09015 167.650615 
L 207.174306 167.685476 
L 207.555927 167.88063 
L 207.928856 168.148247 
L 208.021703 168.248656 
L 208.311651 168.611018 
L 208.46312 169.07379 
L 208.487479 169.18551 
L 208.554154 169.536561 
L 208.710026 169.999332 
L 208.871759 170.462104 
L 208.953255 170.695277 
L 209.033502 170.924875 
L 209.195239 171.387646 
L 209.356976 171.850417 
L 209.419032 172.027972 
L 209.518715 172.313189 
L 209.680446 172.77596 
L 209.8432 173.238731 
L 209.884808 173.354278 
L 210.009882 173.701503 
L 210.176579 174.164274 
L 210.327541 174.627045 
L 210.350584 174.750353 
L 210.412885 175.089816 
L 210.513263 175.552588 
L 210.614269 176.015359 
L 210.715278 176.47813 
L 210.816291 176.940902 
L 210.816361 176.941222 
L 210.917303 177.403673 
L 211.017838 177.866444 
L 211.068031 178.329215 
L 211.07749 178.791987 
L 211.086486 179.254758 
L 211.095438 179.717529 
L 210.967589 180.180301 
L 210.826327 180.643072 
L 210.816361 180.878963 
L 210.807241 181.105843 
L 210.800447 181.568614 
L 210.793643 182.031386 
L 210.786835 182.494157 
L 210.78004 182.956928 
L 210.770985 183.419699 
L 210.757677 183.882471 
L 210.723443 184.345242 
L 210.689306 184.808013 
L 210.65525 185.270785 
L 210.62129 185.733556 
L 210.587408 186.196327 
L 210.553624 186.659098 
L 210.519922 187.12187 
L 210.483018 187.584641 
L 210.350584 187.976856 
L 210.323311 188.047412 
L 210.143682 188.510184 
L 209.966396 188.972955 
L 209.884808 189.184356 
L 209.786946 189.435726 
L 209.608572 189.898497 
L 209.430562 190.361269 
L 209.419032 190.391141 
L 209.251209 190.82404 
L 208.972273 191.286811 
L 208.953255 191.31681 
L 208.678771 191.749583 
L 208.487479 191.997784 
L 208.209009 192.212354 
L 208.021703 192.346751 
L 207.564052 192.675125 
L 207.555927 192.6791 
L 207.09015 192.799013 
L 206.624374 192.900119 
L 206.158598 193.002106 
L 205.692821 193.104705 
L 205.54033 193.137896 
L 205.227045 193.205422 
L 204.761269 193.30655 
L 204.295492 193.405613 
L 203.829716 193.500861 
L 203.36394 193.587682 
L 203.294274 193.600668 
L 202.898164 193.674237 
L 202.432387 193.761323 
L 201.966611 193.848144 
L 201.500835 193.934965 
L 201.035058 194.021786 
L 200.811583 194.063439 
L 200.569282 194.108602 
L 200.103506 194.195429 
L 199.63773 194.282253 
L 199.171953 194.369072 
L 198.706177 194.455897 
L 198.328943 194.52621 
L 198.240401 194.544019 
L 197.774624 194.661256 
L 197.308848 194.79533 
L 196.843072 194.932255 
L 196.650703 194.988982 
L 196.377295 195.063869 
L 195.911519 195.111709 
L 195.445743 195.159554 
L 194.979967 195.207388 
L 194.51419 195.206458 
L 194.048414 195.154752 
L 193.582638 195.079676 
L 193.116861 195.004193 
L 192.651085 195.023377 
L 192.185309 195.042558 
L 191.719533 195.061743 
L 191.253756 195.080929 
L 190.78798 195.09015 
L 190.322204 195.101985 
L 189.856427 195.087182 
L 189.390651 195.08172 
L 188.924875 195.076273 
L 188.459098 195.070815 
L 187.993322 195.065371 
L 187.527546 195.059912 
L 187.06177 195.054457 
L 186.595993 195.049001 
L 186.130217 195.043549 
L 185.664441 195.038087 
L 185.198664 195.03263 
L 184.732888 195.027177 
L 184.267112 195.021717 
L 183.801336 195.011861 
L 183.335559 195.001558 
L 182.869783 194.99103 
L 182.780313 194.988982 
L 182.404007 194.980066 
L 181.93823 194.925892 
L 181.472454 194.830157 
L 181.006678 194.763394 
L 180.540902 194.718626 
L 180.075125 194.678997 
L 179.609349 194.644382 
L 179.143573 194.671855 
L 178.677796 194.70599 
L 178.21202 194.746454 
L 177.746244 194.78692 
L 177.280467 194.827383 
L 176.814691 194.867849 
L 176.348915 194.912606 
L 176.057124 194.988982 
L 175.883139 195.041219 
L 175.417362 195.100459 
L 174.951586 195.137572 
L 174.48581 195.174688 
L 174.020033 195.211807 
L 173.554257 195.248923 
L 173.088481 195.286038 
L 172.622705 195.323155 
L 172.156928 195.35985 
L 171.691152 195.396368 
L 171.225376 195.428027 
L 170.872414 195.451753 
L 170.759599 195.459336 
L 170.293823 195.49063 
L 169.828047 195.521931 
L 169.36227 195.507383 
L 168.896494 195.474688 
z
" clip-path="url(#pd206873ba2)" style="fill: none; stroke-dasharray: 5.55,2.4; stroke-dashoffset: 0; stroke: #000000; stroke-width: 1.5"/>
   </g>
   <g id="PathCollection_3">
    <path d="M 167.033389 219.51861 
L 166.576282 219.51586 
L 166.567613 219.514872 
L 166.101836 219.46456 
L 165.63606 219.290857 
L 165.170284 219.12815 
L 164.704508 219.088855 
L 164.238731 219.073248 
L 163.772955 219.064869 
L 163.307179 219.059642 
L 162.893854 219.053088 
L 162.841402 219.039798 
L 162.375626 218.648018 
L 161.90985 218.60156 
L 161.452348 218.590317 
L 161.444073 218.587577 
L 160.978297 218.233209 
L 160.512521 218.142077 
L 160.046745 218.127966 
L 160.037989 218.127546 
L 159.580968 217.866469 
L 159.115192 217.684302 
L 158.649416 217.66991 
L 158.183639 217.665285 
L 158.116932 217.664775 
L 157.717863 217.603231 
L 157.252087 217.499105 
L 156.786311 217.235634 
L 156.453834 217.202003 
L 156.320534 217.11117 
L 155.854758 216.745905 
L 155.810547 216.739232 
L 155.388982 216.391465 
L 155.024528 216.276461 
L 154.923205 216.204081 
L 154.457429 215.825085 
L 154.295006 215.813689 
L 153.991653 215.626696 
L 153.525876 215.352009 
L 153.519957 215.350918 
L 153.0601 214.95752 
L 152.715673 214.888147 
L 152.594324 214.807083 
L 152.128548 214.440518 
L 151.932314 214.425376 
L 151.662771 214.255414 
L 151.196995 213.964813 
L 151.180023 213.962604 
L 150.731219 213.600693 
L 150.373664 213.499833 
L 150.265442 213.422481 
L 149.799666 213.048585 
L 149.676419 213.037062 
L 149.33389 212.791531 
L 148.921451 212.57429 
L 148.868114 212.537413 
L 148.402337 212.131857 
L 148.181291 212.111519 
L 147.936561 211.941352 
L 147.470785 211.649785 
L 147.467843 211.648748 
L 147.005008 211.21936 
L 146.712591 211.185977 
L 146.539232 211.062063 
L 146.073456 210.727763 
L 146.057622 210.723205 
L 145.607679 210.312732 
L 145.247976 210.260434 
L 145.141903 210.185484 
L 144.676127 209.806533 
L 144.633599 209.797663 
L 144.210351 209.42442 
L 143.777539 209.334891 
L 143.744574 209.311886 
L 143.278798 208.886394 
L 143.177168 208.87212 
L 142.813022 208.569355 
L 142.347245 208.410774 
L 142.344289 208.409349 
L 141.881469 207.967823 
L 141.609409 207.946578 
L 141.415693 207.805747 
L 140.949917 207.488016 
L 140.940384 207.483806 
L 140.48414 207.046823 
L 140.356779 207.021035 
L 140.018364 206.704841 
L 139.612135 206.558264 
L 139.552588 206.506523 
L 139.086811 206.097994 
L 139.083212 206.095492 
L 138.621035 205.64818 
L 138.510695 205.632721 
L 138.155259 205.332514 
L 137.689482 205.173692 
L 137.679944 205.16995 
L 137.223706 204.737868 
L 136.822043 204.707179 
L 136.75793 204.663958 
L 136.292154 204.255557 
L 136.23205 204.244407 
L 135.826377 203.884686 
L 135.360601 203.783994 
L 135.355145 203.781636 
L 134.894825 203.344284 
L 134.526038 203.318865 
L 134.429048 203.234605 
L 134.120913 202.856093 
L 133.963272 202.678732 
L 133.909814 202.393322 
L 133.497496 201.968158 
L 133.478283 201.930551 
L 133.03172 201.476516 
L 133.026248 201.46778 
L 132.588258 201.005008 
L 132.565943 200.978408 
L 132.228566 200.542237 
L 132.100167 200.391531 
L 132.052412 200.079466 
L 131.634391 199.646201 
L 131.620618 199.616694 
L 131.168614 199.158388 
L 131.16571 199.153923 
L 130.762979 198.691152 
L 130.702838 198.619884 
L 130.46765 198.228381 
L 130.237062 197.963407 
L 130.204579 197.765609 
L 129.771285 197.320546 
L 129.761915 197.302838 
L 129.305509 196.841163 
L 129.304765 196.840067 
L 128.935519 196.377295 
L 128.839733 196.25763 
L 128.805305 195.914524 
L 128.373957 195.458991 
L 128.371192 195.451753 
L 128.06013 194.988982 
L 127.90818 194.77 
L 127.8935 194.52621 
L 127.525686 194.063439 
L 127.442404 193.93463 
L 127.421923 193.600668 
L 127.023693 193.137896 
L 126.976628 193.064126 
L 126.950335 192.675125 
L 126.549993 192.212354 
L 126.510851 192.136448 
L 126.495105 191.749583 
L 126.164082 191.286811 
L 126.045075 191.043514 
L 126.039273 190.82404 
L 126.001274 190.361269 
L 125.615209 189.898497 
L 125.579299 189.820745 
L 125.568407 189.435726 
L 125.50239 188.972955 
L 125.113523 188.513846 
L 125.113022 188.510184 
L 125.098191 188.047412 
L 124.929131 187.584641 
L 124.647746 187.177409 
L 124.644569 187.12187 
L 124.624052 186.659098 
L 124.258774 186.196327 
L 124.18197 186.032389 
L 124.174809 185.733556 
L 124.129493 185.270785 
L 123.716194 184.819529 
L 123.71356 184.808013 
L 123.684261 184.345242 
L 123.250417 183.885062 
L 123.249609 183.882471 
L 123.228612 183.419699 
L 122.805091 182.956928 
L 122.784641 182.920375 
L 122.768959 182.494157 
L 122.398039 182.031386 
L 122.318865 181.897817 
L 122.307286 181.568614 
L 122.192506 181.105843 
L 121.853088 180.708902 
L 121.844888 180.643072 
L 121.787374 180.180301 
L 121.387312 179.743435 
L 121.381896 179.717529 
L 121.347833 179.254758 
L 120.921536 178.802974 
L 120.918294 178.791987 
L 120.894783 178.329215 
L 120.45576 177.870542 
L 120.454263 177.866444 
L 120.436456 177.403673 
L 120.027608 176.940902 
L 119.989983 176.877082 
L 119.975572 176.47813 
L 119.841194 176.015359 
L 119.524207 175.643452 
L 119.513602 175.552588 
L 119.503255 175.089816 
L 119.480952 174.627045 
L 119.395118 174.164274 
L 119.058431 173.711491 
L 119.05768 173.701503 
L 119.053891 173.238731 
L 119.048963 172.77596 
L 119.041033 172.313189 
L 119.031584 171.850417 
L 119.020649 171.387646 
L 119.000373 170.924875 
L 118.957459 170.462104 
L 118.80901 169.999332 
L 118.70899 169.536561 
L 118.681624 169.07379 
L 118.673321 168.611018 
L 118.693344 168.148247 
L 118.713312 167.685476 
L 118.733236 167.222705 
L 118.753318 166.759933 
L 118.8221 166.297162 
L 118.998264 165.834391 
L 119.047665 165.371619 
L 119.057481 164.908848 
L 119.058431 164.838161 
L 119.140654 164.446077 
L 119.251737 163.983306 
L 119.343813 163.520534 
L 119.472551 163.057763 
L 119.518547 162.594992 
L 119.524207 162.332471 
L 119.564171 162.13222 
L 119.680539 161.669449 
L 119.77678 161.206678 
L 119.860304 160.743907 
L 119.982329 160.281135 
L 119.989983 160.138512 
L 120.09612 159.818364 
L 120.237898 159.355593 
L 120.361368 158.892821 
L 120.45576 158.629944 
L 120.548793 158.43005 
L 120.752991 157.967279 
L 120.919477 157.504508 
L 120.921536 157.471387 
L 121.137819 157.041736 
L 121.358196 156.578965 
L 121.387312 156.364451 
L 121.51286 156.116194 
L 121.699021 155.653422 
L 121.853088 155.23957 
L 121.876254 155.190651 
L 122.089935 154.72788 
L 122.307672 154.265109 
L 122.318865 154.078979 
L 122.444976 153.802337 
L 122.608725 153.339566 
L 122.782019 152.876795 
L 122.784641 152.809641 
L 122.976649 152.414023 
L 123.250417 152.099064 
L 123.406983 151.951252 
L 123.716194 151.676505 
L 123.914744 151.488481 
L 124.18197 151.249493 
L 124.423344 151.02571 
L 124.647746 150.824302 
L 124.93895 150.562938 
L 125.113523 150.430771 
L 125.425275 150.100167 
L 125.579299 149.845434 
L 125.725929 149.637396 
L 126.045075 149.181815 
L 126.050516 149.174624 
L 126.492758 148.711853 
L 126.510851 148.56923 
L 126.75621 148.249082 
L 126.976628 147.856693 
L 127.03005 147.786311 
L 127.440429 147.323539 
L 127.442404 147.320142 
L 127.895782 146.860768 
L 127.90818 146.844638 
L 128.349984 146.397997 
L 128.373957 146.354089 
L 128.782572 145.935225 
L 128.839733 145.680897 
L 129.02413 145.472454 
L 129.305509 145.093492 
L 129.377971 145.009683 
L 129.771285 144.55477 
L 129.77808 144.546912 
L 130.233363 144.08414 
L 130.237062 144.079335 
L 130.692725 143.621369 
L 130.702838 143.606926 
L 131.146772 143.158598 
L 131.168614 143.120507 
L 131.584241 142.695826 
L 131.634391 142.518946 
L 131.896437 142.233055 
L 132.100167 141.861164 
L 132.178744 141.770284 
L 132.565943 141.322438 
L 132.578848 141.307513 
L 133.02851 140.844741 
L 133.03172 140.840611 
L 133.488267 140.38197 
L 133.497496 140.369021 
L 133.94332 139.919199 
L 133.963272 139.884972 
L 134.381532 139.456427 
L 134.429048 139.307813 
L 134.759738 138.993656 
L 134.894825 138.970474 
L 135.351535 138.530885 
L 135.360601 138.526067 
L 135.826377 138.118307 
L 135.89593 138.068114 
L 136.292154 138.001378 
L 136.717959 137.605342 
L 136.75793 137.59136 
L 137.220751 137.142571 
L 137.223706 137.140807 
L 137.689482 136.773805 
L 137.819748 136.6798 
L 138.155259 136.644794 
L 138.603539 136.217028 
L 138.621035 136.208795 
L 139.086811 135.765425 
L 139.108212 135.754257 
L 139.552588 135.726921 
L 140.018364 135.319217 
L 140.07718 135.291486 
L 140.48414 135.268442 
L 140.949917 134.885923 
L 141.070961 134.828715 
L 141.415693 134.809731 
L 141.881469 134.48048 
L 142.1941 134.365943 
L 142.347245 134.362302 
L 142.813022 134.327411 
L 143.278798 133.989016 
L 143.511595 133.903172 
L 143.744574 133.896778 
L 144.210351 133.835185 
L 144.676127 133.488811 
L 144.801615 133.440401 
L 145.141903 133.427854 
L 145.607679 133.138914 
L 146.038897 132.977629 
L 146.073456 132.976846 
L 146.539232 132.950018 
L 147.005008 132.616663 
L 147.276163 132.514858 
L 147.470785 132.509318 
L 147.936561 132.442464 
L 148.402337 132.095578 
L 148.513448 132.052087 
L 148.868114 132.038513 
L 149.33389 131.74522 
L 149.750725 131.589316 
L 149.799666 131.588181 
L 150.265442 131.559265 
L 150.731219 131.222589 
L 150.98801 131.126544 
L 151.196995 131.120721 
L 151.662771 131.085096 
L 152.128548 130.76618 
L 152.468557 130.663773 
L 152.594324 130.661371 
L 153.0601 130.64166 
L 153.525876 130.345307 
L 153.991653 130.205219 
L 154.004987 130.201002 
L 154.457429 130.18839 
L 154.923205 130.111657 
L 155.388982 129.784272 
L 155.541408 129.73823 
L 155.854758 129.731267 
L 156.320534 129.698072 
L 156.786311 129.36327 
L 157.077833 129.275459 
L 157.252087 129.272239 
L 157.717863 129.253021 
L 158.183639 128.979571 
L 158.624565 128.812688 
L 158.649416 128.812135 
L 159.115192 128.799546 
L 159.580968 128.735947 
L 160.046745 128.383174 
L 160.15787 128.349917 
L 160.512521 128.342812 
L 160.978297 128.316222 
L 161.444073 127.969785 
L 161.723676 127.887145 
L 161.90985 127.884123 
L 162.375626 127.881162 
L 162.841402 127.88092 
L 163.307179 127.878058 
L 163.772955 127.876158 
L 164.238731 127.880556 
L 164.704508 127.883933 
L 164.973775 127.887145 
L 165.170284 127.92781 
L 165.63606 128.158705 
L 166.101836 128.32577 
L 166.567613 128.344833 
L 166.850355 128.349917 
L 167.033389 128.395172 
L 167.499165 128.507871 
L 167.964942 128.778843 
L 168.430718 128.80599 
L 168.751211 128.812688 
L 168.896494 128.84929 
L 169.36227 128.955631 
L 169.828047 129.092964 
L 170.293823 129.246402 
L 170.759599 129.268308 
L 171.121679 129.275459 
L 171.225376 129.29603 
L 171.691152 129.381992 
L 172.156928 129.463638 
L 172.622705 129.548301 
L 173.088481 129.708624 
L 173.414422 129.73823 
L 173.554257 129.789836 
L 174.020033 129.952341 
L 174.48581 130.146612 
L 174.72999 130.201002 
L 174.951586 130.294803 
L 175.417362 130.45927 
L 175.883139 130.628326 
L 176.016237 130.663773 
L 176.348915 130.817457 
L 176.814691 130.987234 
L 177.248973 131.126544 
L 177.280467 131.140297 
L 177.746244 131.358322 
L 178.21202 131.52163 
L 178.432081 131.589316 
L 178.677796 131.692931 
L 179.143573 131.90277 
L 179.586214 132.052087 
L 179.609349 132.061483 
L 180.075125 132.250649 
L 180.540902 132.451057 
L 180.716944 132.514858 
L 181.006678 132.646963 
L 181.454015 132.977629 
L 181.472454 132.991259 
L 181.93823 133.338723 
L 182.080075 133.440401 
L 182.404007 133.679846 
L 182.706132 133.903172 
L 182.869783 134.02414 
L 183.332194 134.365943 
L 183.335559 134.368431 
L 183.801336 134.712725 
L 183.95825 134.828715 
L 184.267112 135.057023 
L 184.584303 135.291486 
L 184.732888 135.401316 
L 185.198664 135.745871 
L 185.210361 135.754257 
L 185.664441 136.089905 
L 185.836421 136.217028 
L 186.130217 136.434198 
L 186.462475 136.6798 
L 186.595993 136.778494 
L 187.06177 137.122782 
L 187.088541 137.142571 
L 187.527546 137.467077 
L 187.714599 137.605342 
L 187.993322 137.811369 
L 188.340657 138.068114 
L 188.459098 138.155664 
L 188.924875 138.499962 
L 188.966709 138.530885 
L 189.390651 138.844253 
L 189.592769 138.993656 
L 189.856427 139.188547 
L 190.225932 139.456427 
L 190.322204 139.525609 
L 190.78798 139.849007 
L 190.889075 139.919199 
L 191.253756 140.161707 
L 191.655676 140.38197 
L 191.719533 140.413723 
L 192.185309 140.669527 
L 192.505476 140.844741 
L 192.651085 140.922048 
L 193.116861 141.140173 
L 193.474206 141.307513 
L 193.582638 141.358291 
L 194.048414 141.576415 
L 194.502362 141.770284 
L 194.51419 141.774697 
L 194.979967 141.813993 
L 195.445743 141.879158 
L 195.911519 141.956842 
L 196.377295 142.034525 
L 196.843072 142.112206 
L 197.308848 142.189894 
L 197.567624 142.233055 
L 197.774624 142.267581 
L 198.240401 142.345263 
L 198.706177 142.422944 
L 199.171953 142.500628 
L 199.63773 142.578312 
L 200.103506 142.655986 
L 200.342372 142.695826 
L 200.569282 142.733674 
L 201.035058 142.811356 
L 201.500835 142.889041 
L 201.966611 142.966724 
L 202.432387 143.044408 
L 202.898164 143.122091 
L 203.077714 143.158598 
L 203.36394 143.217432 
L 203.829716 143.316316 
L 204.295492 143.415198 
L 204.761269 143.514076 
L 205.227045 143.612962 
L 205.266644 143.621369 
L 205.692821 143.711843 
L 206.158598 143.810729 
L 206.624374 143.909612 
L 207.09015 144.008501 
L 207.446466 144.08414 
L 207.555927 144.107376 
L 208.021703 144.206257 
L 208.487479 144.305139 
L 208.953255 144.404023 
L 209.419032 144.502907 
L 209.626314 144.546912 
L 209.884808 144.601787 
L 210.350584 144.700671 
L 210.816361 144.799549 
L 211.282137 144.898435 
L 211.747913 144.997317 
L 211.806161 145.009683 
L 212.213689 145.097292 
L 212.679466 145.200014 
L 213.145242 145.308237 
L 213.611018 145.425004 
L 213.797148 145.472454 
L 214.076795 145.544478 
L 214.542571 145.664438 
L 215.008347 145.7844 
L 215.474124 145.904359 
L 215.593969 145.935225 
L 215.9399 146.024319 
L 216.405676 146.144276 
L 216.871452 146.264236 
L 217.337229 146.384197 
L 217.386021 146.397997 
L 217.803005 146.52567 
L 218.268781 146.669205 
L 218.734558 146.812742 
L 218.89041 146.860768 
L 219.200334 146.956269 
L 219.66611 147.102098 
L 220.131886 147.249605 
L 220.364571 147.323539 
L 220.597663 147.397604 
L 221.063439 147.545602 
L 221.529215 147.693605 
L 221.814857 147.786311 
L 221.994992 147.845215 
L 222.460768 147.997533 
L 222.926544 148.149842 
L 223.230024 148.249082 
L 223.392321 148.302156 
L 223.858097 148.454474 
L 224.323873 148.606795 
L 224.593019 148.711853 
L 224.789649 148.790252 
L 225.255426 149.067544 
L 225.386939 149.174624 
L 225.721202 149.5075 
L 225.847003 149.637396 
L 226.186978 149.988437 
L 226.295185 150.100167 
L 226.652755 150.469381 
L 226.743362 150.562938 
L 227.118531 150.950316 
L 227.191547 151.02571 
L 227.584307 151.431265 
L 227.63972 151.488481 
L 228.050083 151.912203 
L 228.084973 151.951252 
L 228.51586 152.394808 
L 228.533153 152.414023 
L 228.981636 152.874485 
L 228.983731 152.876795 
L 229.432447 153.339566 
L 229.447412 153.355019 
L 229.880624 153.802337 
L 229.913189 153.835962 
L 230.328807 154.265109 
L 230.378965 154.3169 
L 230.754192 154.72788 
L 230.844741 154.821166 
L 231.176466 155.190651 
L 231.310518 155.328411 
L 231.579054 155.653422 
L 231.776294 155.979339 
L 231.825502 156.116194 
L 232.006349 156.578965 
L 232.229513 157.041736 
L 232.24207 157.065226 
L 232.423919 157.504508 
L 232.615814 157.967279 
L 232.707846 158.182305 
L 232.740062 158.43005 
L 232.942646 158.892821 
L 233.023771 159.355593 
L 233.100742 159.818364 
L 233.173623 160.226138 
L 233.174506 160.281135 
L 233.186391 160.743907 
L 233.233065 161.206678 
L 233.370687 161.669449 
L 233.49633 162.13222 
L 233.581268 162.594992 
L 233.639399 162.99513 
L 233.640132 163.057763 
L 233.639399 163.277548 
L 233.629145 163.520534 
L 233.60966 163.983306 
L 233.590205 164.446077 
L 233.570796 164.908848 
L 233.593983 165.371619 
L 233.626071 165.834391 
L 233.639399 166.015864 
L 233.641773 166.297162 
L 233.648339 166.759933 
L 233.664582 167.222705 
L 233.703099 167.685476 
L 233.754784 168.148247 
L 233.814355 168.611018 
L 233.845555 169.07379 
L 233.868597 169.536561 
L 233.892516 169.999332 
L 233.918491 170.462104 
L 233.946782 170.924875 
L 233.977728 171.387646 
L 234.01172 171.850417 
L 234.04874 172.313189 
L 234.088595 172.77596 
L 234.105175 173.005987 
L 234.115607 173.238731 
L 234.135345 173.701503 
L 234.145044 174.164274 
L 234.155422 174.627045 
L 234.166555 175.089816 
L 234.17853 175.552588 
L 234.191441 176.015359 
L 234.205408 176.47813 
L 234.220563 176.940902 
L 234.237067 177.403673 
L 234.255108 177.866444 
L 234.274905 178.329215 
L 234.291997 178.791987 
L 234.304797 179.254758 
L 234.317596 179.717529 
L 234.3304 180.180301 
L 234.343199 180.643072 
L 234.356002 181.105843 
L 234.368803 181.568614 
L 234.380504 182.031386 
L 234.323877 182.494157 
L 234.176703 182.956928 
L 234.105175 183.180766 
L 234.028823 183.419699 
L 233.880936 183.882471 
L 233.733055 184.345242 
L 233.639399 184.638322 
L 233.585173 184.808013 
L 233.437292 185.270785 
L 233.386475 185.733556 
L 233.400464 186.196327 
L 233.414447 186.659098 
L 233.389279 187.12187 
L 233.321378 187.584641 
L 233.254981 188.047412 
L 233.193513 188.510184 
L 233.173623 188.66182 
L 233.132811 188.972955 
L 233.085123 189.435726 
L 233.061259 189.898497 
L 233.036514 190.361269 
L 233.01146 190.82404 
L 232.986405 191.286811 
L 232.96256 191.749583 
L 232.941288 192.212354 
L 232.920353 192.675125 
L 232.899419 193.137896 
L 232.878483 193.600668 
L 232.857553 194.063439 
L 232.836619 194.52621 
L 232.815685 194.988982 
L 232.794749 195.451753 
L 232.773815 195.914524 
L 232.752878 196.377295 
L 232.731943 196.840067 
L 232.710933 197.302838 
L 232.707846 197.372823 
L 232.690074 197.765609 
L 232.667946 198.228381 
L 232.596428 198.691152 
L 232.510034 199.153923 
L 232.358637 199.616694 
L 232.24207 199.887301 
L 232.159292 200.079466 
L 231.95994 200.542237 
L 231.776294 200.968555 
L 231.760591 201.005008 
L 231.561238 201.46778 
L 231.36189 201.930551 
L 231.310518 202.049808 
L 231.16254 202.393322 
L 230.963188 202.856093 
L 230.844741 203.131061 
L 230.763843 203.318865 
L 230.564493 203.781636 
L 230.378965 204.212319 
L 230.365142 204.244407 
L 230.165793 204.707179 
L 229.966437 205.16995 
L 229.913189 205.293565 
L 229.767095 205.632721 
L 229.567745 206.095492 
L 229.447412 206.374838 
L 229.368398 206.558264 
L 229.169048 207.021035 
L 228.981636 207.456082 
L 228.969693 207.483806 
L 228.764073 207.946578 
L 228.51586 208.322622 
L 228.450298 208.409349 
L 228.050083 208.861313 
L 228.034918 208.87212 
L 227.584307 209.103343 
L 227.12156 209.334891 
L 227.118531 209.336384 
L 226.652755 209.563279 
L 226.186978 209.794835 
L 226.181232 209.797663 
L 225.721202 210.023178 
L 225.255426 210.253228 
L 225.240781 210.260434 
L 224.789649 210.482424 
L 224.323873 210.711616 
L 224.300322 210.723205 
L 223.858097 210.940815 
L 223.392321 211.170014 
L 223.363479 211.185977 
L 222.926544 211.459481 
L 222.632146 211.648748 
L 222.460768 211.76356 
L 221.994992 211.962741 
L 221.63578 212.111519 
L 221.529215 212.155363 
L 221.063439 212.348579 
L 220.597663 212.541506 
L 220.51851 212.57429 
L 220.131886 212.734423 
L 219.66611 212.927346 
L 219.40121 213.037062 
L 219.200334 213.120261 
L 218.734558 213.313185 
L 218.283925 213.499833 
L 218.268781 213.506096 
L 217.803005 213.699031 
L 217.337229 213.891956 
L 217.166656 213.962604 
L 216.871452 214.084873 
L 216.405676 214.277799 
L 216.049378 214.425376 
L 215.9399 214.470719 
L 215.474124 214.624105 
L 215.008347 214.70721 
L 214.542571 214.780753 
L 214.076795 214.854287 
L 213.862352 214.888147 
L 213.611018 214.927369 
L 213.145242 215.000665 
L 212.679466 215.074775 
L 212.213689 215.148447 
L 211.747913 215.221984 
L 211.282137 215.339254 
L 211.240533 215.350918 
L 210.816361 215.468069 
L 210.350584 215.599338 
L 209.884808 215.680856 
L 209.419032 215.724911 
L 208.953255 215.768966 
L 208.487479 215.813023 
L 208.480431 215.813689 
L 208.021703 215.855399 
L 207.555927 215.897883 
L 207.09015 215.940892 
L 206.624374 215.985106 
L 206.158598 216.02917 
L 205.692821 216.073052 
L 205.227045 216.116752 
L 204.761269 216.160175 
L 204.295492 216.203405 
L 203.829716 216.246632 
L 203.508302 216.276461 
L 203.36394 216.289858 
L 202.898164 216.33612 
L 202.432387 216.407682 
L 201.966611 216.479239 
L 201.500835 216.550799 
L 201.035058 216.622359 
L 200.569282 216.693916 
L 200.274325 216.739232 
L 200.103506 216.765476 
L 199.63773 216.837037 
L 199.171953 216.908589 
L 198.706177 216.98015 
L 198.240401 217.051708 
L 197.774624 217.123266 
L 197.308848 217.194831 
L 197.262164 217.202003 
L 196.843072 217.266384 
L 196.377295 217.337927 
L 195.911519 217.409488 
L 195.445743 217.480919 
L 194.979967 217.552316 
L 194.51419 217.623608 
L 194.245264 217.664775 
L 194.048414 217.694908 
L 193.582638 217.765015 
L 193.116861 217.829364 
L 192.651085 217.88316 
L 192.185309 217.953114 
L 191.719533 218.061149 
L 191.441814 218.127546 
L 191.253756 218.172507 
L 190.78798 218.28387 
L 190.322204 218.395226 
L 189.856427 218.506584 
L 189.506502 218.590317 
L 189.390651 218.618042 
L 188.924875 218.673827 
L 188.459098 218.701479 
L 187.993322 218.729137 
L 187.527546 218.756794 
L 187.06177 218.784446 
L 186.595993 218.812101 
L 186.130217 218.839756 
L 185.664441 218.867411 
L 185.198664 218.89506 
L 184.732888 218.92272 
L 184.267112 218.950372 
L 183.801336 218.978026 
L 183.335559 219.005679 
L 182.869783 219.033334 
L 182.537103 219.053088 
L 182.404007 219.059528 
L 181.93823 219.08214 
L 181.472454 219.104877 
L 181.006678 219.127738 
L 180.540902 219.150725 
L 180.075125 219.173837 
L 179.609349 219.197081 
L 179.143573 219.220453 
L 178.677796 219.237029 
L 178.21202 219.246879 
L 177.746244 219.250858 
L 177.280467 219.263785 
L 176.814691 219.308111 
L 176.348915 219.356715 
L 175.883139 219.407582 
L 175.417362 219.460872 
L 174.958899 219.51586 
L 174.951586 219.515907 
L 174.48581 219.519346 
L 174.020033 219.523926 
L 173.554257 219.531248 
L 173.088481 219.552136 
L 172.622705 219.640561 
L 172.156928 219.827633 
L 171.691152 219.897249 
L 171.225376 219.973029 
L 170.759599 219.96611 
L 170.293823 219.911363 
L 169.828047 219.862418 
L 169.36227 219.64972 
L 168.896494 219.562361 
L 168.430718 219.539341 
L 167.964942 219.528711 
L 167.499165 219.522589 
L 167.033389 219.51861 
z
" clip-path="url(#pd206873ba2)" style="fill: none; stroke: #000000; stroke-width: 1.5"/>
   </g>
   <g id="PathCollection_4">
    <path d="M 167.033389 243.223142 
L 166.697452 243.117195 
L 166.567613 243.076248 
L 166.101836 242.929362 
L 165.63606 242.78247 
L 165.230034 242.654424 
L 165.170284 242.635581 
L 164.704508 242.488693 
L 164.238731 242.341805 
L 163.772955 242.194915 
L 163.762611 242.191653 
L 163.307179 242.048025 
L 162.841402 241.901137 
L 162.375626 241.754246 
L 162.2952 241.728881 
L 161.90985 241.607352 
L 161.444073 241.460466 
L 160.978297 241.313577 
L 160.816883 241.26611 
L 160.512521 241.179411 
L 160.046745 241.047184 
L 159.580968 240.914968 
L 159.187743 240.803339 
L 159.115192 240.782743 
L 158.649416 240.650526 
L 158.183639 240.52025 
L 157.717863 240.390463 
L 157.538805 240.340568 
L 157.252087 240.261276 
L 156.786311 240.131705 
L 156.320534 240.00118 
L 155.878045 239.877796 
L 155.854758 239.871419 
L 155.388982 239.743498 
L 154.923205 239.621936 
L 154.457429 239.512462 
L 154.040371 239.415025 
L 153.991653 239.403643 
L 153.525876 239.294304 
L 153.0601 239.178622 
L 152.594324 239.053285 
L 152.200006 238.952254 
L 152.128548 238.933993 
L 151.662771 238.814614 
L 151.196995 238.695269 
L 150.731219 238.575932 
L 150.393823 238.489482 
L 150.265442 238.456587 
L 149.799666 238.337243 
L 149.33389 238.217903 
L 148.868114 238.09856 
L 148.587692 238.026711 
L 148.402337 237.979221 
L 147.936561 237.859885 
L 147.470785 237.670782 
L 147.299478 237.56394 
L 147.005008 237.380283 
L 146.557478 237.101169 
L 146.539232 237.089789 
L 146.073456 236.799294 
L 145.815482 236.638397 
L 145.607679 236.508795 
L 145.141903 236.218297 
L 145.073484 236.175626 
L 144.676127 235.927805 
L 144.331486 235.712855 
L 144.210351 235.637304 
L 143.744574 235.346811 
L 143.589485 235.250083 
L 143.278798 235.056309 
L 142.847495 234.787312 
L 142.813022 234.765812 
L 142.347245 234.475308 
L 142.105509 234.324541 
L 141.881469 234.184812 
L 141.415693 233.894317 
L 141.363508 233.86177 
L 140.949917 233.603814 
L 140.621514 233.398998 
L 140.48414 233.313322 
L 140.018364 233.022817 
L 139.879527 232.936227 
L 139.552588 232.732317 
L 139.137539 232.473456 
L 139.086811 232.441818 
L 138.621035 232.151321 
L 138.395537 232.010684 
L 138.155259 231.860827 
L 137.689482 231.57033 
L 137.653541 231.547913 
L 137.223706 231.279832 
L 136.911548 231.085142 
L 136.75793 230.989333 
L 136.292154 230.699952 
L 136.165131 230.622371 
L 135.826377 230.413894 
L 135.408045 230.159599 
L 135.360601 230.130728 
L 134.894825 229.847786 
L 134.646322 229.696828 
L 134.429048 229.562232 
L 134.001997 229.234057 
L 133.963272 229.200791 
L 133.497496 228.800667 
L 133.462051 228.771285 
L 133.03172 228.460242 
L 132.791549 228.308514 
L 132.565943 228.170534 
L 132.100167 227.88359 
L 132.039073 227.845743 
L 131.634391 227.599835 
L 131.27752 227.382972 
L 131.168614 227.316791 
L 130.702838 227.033765 
L 130.515952 226.9202 
L 130.237062 226.750723 
L 129.771285 226.467694 
L 129.754393 226.457429 
L 129.305509 226.184652 
L 128.992839 225.994658 
L 128.839733 225.901622 
L 128.373957 225.618582 
L 128.23128 225.531886 
L 127.90818 225.324507 
L 127.53304 225.069115 
L 127.442404 225.006348 
L 126.976628 224.683795 
L 126.864792 224.606344 
L 126.510851 224.366528 
L 126.187013 224.143573 
L 126.045075 224.048719 
L 125.579299 223.73742 
L 125.494671 223.680801 
L 125.113523 223.425895 
L 124.802703 223.21803 
L 124.647746 223.114397 
L 124.18197 222.802892 
L 124.110746 222.755259 
L 123.716194 222.491394 
L 123.472144 222.292487 
L 123.250417 222.091775 
L 122.978454 221.829716 
L 122.784641 221.642959 
L 122.498207 221.366945 
L 122.318865 221.194132 
L 122.017945 220.904174 
L 121.853088 220.74532 
L 121.53769 220.441402 
L 121.387312 220.2965 
L 121.05743 219.978631 
L 120.921536 219.847684 
L 120.577171 219.51586 
L 120.45576 219.398871 
L 120.096918 219.053088 
L 119.989983 218.95161 
L 119.601829 218.590317 
L 119.524207 218.518157 
L 119.104048 218.127546 
L 119.058431 218.085137 
L 118.606267 217.664775 
L 118.592654 217.65212 
L 118.126878 217.219117 
L 118.10847 217.202003 
L 117.661102 216.786096 
L 117.610693 216.739232 
L 117.195326 216.353085 
L 117.112779 216.276461 
L 116.729549 215.923691 
L 116.617753 215.813689 
L 116.263773 215.465397 
L 116.147427 215.350918 
L 115.797997 215.007102 
L 115.677097 214.888147 
L 115.33222 214.548813 
L 115.206768 214.425376 
L 114.866444 214.090519 
L 114.736437 213.962604 
L 114.400668 213.632222 
L 114.266119 213.499833 
L 113.934891 213.173929 
L 113.795791 213.037062 
L 113.469115 212.715624 
L 113.325826 212.57429 
L 113.003339 212.214112 
L 112.913332 212.111519 
L 112.537563 211.683206 
L 112.507332 211.648748 
L 112.101335 211.185977 
L 112.071786 211.152294 
L 111.695352 210.723205 
L 111.60601 210.621371 
L 111.289349 210.260434 
L 111.140234 210.09047 
L 110.883353 209.797663 
L 110.674457 209.559548 
L 110.477358 209.334891 
L 110.208681 209.02865 
L 110.071355 208.87212 
L 109.743679 208.409349 
L 109.742905 208.407929 
L 109.4956 207.946578 
L 109.277129 207.538995 
L 109.247547 207.483806 
L 109.026161 207.021035 
L 108.821973 206.558264 
L 108.811352 206.534166 
L 108.618345 206.095492 
L 108.41474 205.632721 
L 108.345576 205.475522 
L 108.211132 205.16995 
L 108.007527 204.707179 
L 107.8798 204.416874 
L 107.80392 204.244407 
L 107.600309 203.781636 
L 107.414023 203.358223 
L 107.396707 203.318865 
L 107.193094 202.856093 
L 106.971369 202.393322 
L 106.948247 202.34764 
L 106.735793 201.930551 
L 106.500071 201.46778 
L 106.482471 201.433226 
L 106.264353 201.005008 
L 106.028638 200.542237 
L 106.016694 200.518787 
L 105.792925 200.079466 
L 105.557196 199.616694 
L 105.550918 199.604369 
L 105.321482 199.153923 
L 105.085764 198.691152 
L 105.085142 198.689931 
L 104.850041 198.228381 
L 104.619366 197.775512 
L 104.614322 197.765609 
L 104.3786 197.302838 
L 104.153589 196.861082 
L 104.142885 196.840067 
L 103.907163 196.377295 
L 103.687813 195.946645 
L 103.671543 195.914524 
L 103.470823 195.451753 
L 103.274829 194.988982 
L 103.222037 194.864335 
L 103.078828 194.52621 
L 102.882826 194.063439 
L 102.75626 193.764611 
L 102.686824 193.600668 
L 102.490825 193.137896 
L 102.294824 192.675125 
L 102.290484 192.664878 
L 102.098829 192.212354 
L 101.902832 191.749583 
L 101.824708 191.565122 
L 101.706835 191.286811 
L 101.510829 190.82404 
L 101.358932 190.465396 
L 101.314831 190.361269 
L 101.118828 189.898497 
L 100.922829 189.435726 
L 100.893155 189.365665 
L 100.72683 188.972955 
L 100.530833 188.510184 
L 100.427379 188.265927 
L 100.334829 188.047412 
L 100.138839 187.584641 
L 99.961603 187.16616 
L 99.942844 187.12187 
L 99.746843 186.659098 
L 99.552782 186.196327 
L 99.495826 186.060236 
L 99.359107 185.733556 
L 99.165428 185.270785 
L 99.03005 184.947311 
L 98.971751 184.808013 
L 98.778072 184.345242 
L 98.584396 183.882471 
L 98.564274 183.834393 
L 98.388793 183.419699 
L 98.190646 182.956928 
L 98.098497 182.743671 
L 97.990114 182.494157 
L 97.789092 182.031386 
L 97.643677 181.568614 
L 97.632721 181.473372 
L 97.590445 181.105843 
L 97.537217 180.643072 
L 97.483988 180.180301 
L 97.429287 179.717529 
L 97.372804 179.254758 
L 97.314374 178.791987 
L 97.255936 178.329215 
L 97.197502 177.866444 
L 97.166945 177.624444 
L 97.139068 177.403673 
L 97.080623 176.940902 
L 97.022188 176.47813 
L 96.963756 176.015359 
L 96.905317 175.552588 
L 96.846881 175.089816 
L 96.791528 174.627045 
L 96.742653 174.164274 
L 96.701169 173.755699 
L 96.695719 173.701503 
L 96.64918 173.238731 
L 96.602646 172.77596 
L 96.556114 172.313189 
L 96.539111 171.850417 
L 96.520969 171.387646 
L 96.502191 170.924875 
L 96.483408 170.462104 
L 96.464624 169.999332 
L 96.445836 169.536561 
L 96.427058 169.07379 
L 96.408272 168.611018 
L 96.389494 168.148247 
L 96.370986 167.685476 
L 96.399019 167.222705 
L 96.453631 166.759933 
L 96.50861 166.297162 
L 96.5636 165.834391 
L 96.618586 165.371619 
L 96.673566 164.908848 
L 96.701169 164.676534 
L 96.72855 164.446077 
L 96.783532 163.983306 
L 96.838518 163.520534 
L 96.893502 163.057763 
L 96.948484 162.594992 
L 97.003466 162.13222 
L 97.058449 161.669449 
L 97.109617 161.206678 
L 97.147993 160.743907 
L 97.166945 160.51536 
L 97.186367 160.281135 
L 97.22441 159.818364 
L 97.261837 159.355593 
L 97.299171 158.892821 
L 97.336508 158.43005 
L 97.373844 157.967279 
L 97.41118 157.504508 
L 97.448516 157.041736 
L 97.485855 156.578965 
L 97.523184 156.116194 
L 97.560525 155.653422 
L 97.632721 155.252359 
L 97.644334 155.190651 
L 97.763736 154.72788 
L 97.883137 154.265109 
L 98.002539 153.802337 
L 98.098497 153.430433 
L 98.121943 153.339566 
L 98.241341 152.876795 
L 98.36074 152.414023 
L 98.480137 151.951252 
L 98.564274 151.625149 
L 98.599536 151.488481 
L 98.718941 151.02571 
L 98.838349 150.562938 
L 98.957743 150.100167 
L 99.03005 149.819914 
L 99.077141 149.637396 
L 99.196538 149.174624 
L 99.315944 148.711853 
L 99.440576 148.249082 
L 99.495826 148.132508 
L 99.677464 147.786311 
L 99.920259 147.323539 
L 99.961603 147.244739 
L 100.163055 146.860768 
L 100.405857 146.397997 
L 100.427379 146.356977 
L 100.64866 145.935225 
L 100.891458 145.472454 
L 100.893155 145.469218 
L 101.134257 145.009683 
L 101.358932 144.581478 
L 101.377068 144.546912 
L 101.619845 144.08414 
L 101.824708 143.691261 
L 101.860942 143.621369 
L 102.100857 143.158598 
L 102.290484 142.792817 
L 102.340768 142.695826 
L 102.580699 142.233055 
L 102.75626 141.894436 
L 102.820627 141.770284 
L 103.060542 141.307513 
L 103.222037 141.093051 
L 103.453103 140.844741 
L 103.687813 140.621924 
L 103.940571 140.38197 
L 104.153589 140.179748 
L 104.42805 139.919199 
L 104.619366 139.737574 
L 104.915523 139.456427 
L 105.085142 139.29541 
L 105.403009 138.993656 
L 105.550918 138.853894 
L 105.891063 138.530885 
L 106.016694 138.403604 
L 106.341102 138.068114 
L 106.482471 137.921912 
L 106.760756 137.605342 
L 106.948247 137.313086 
L 107.051298 137.142571 
L 107.330972 136.6798 
L 107.414023 136.542378 
L 107.606002 136.217028 
L 107.82098 135.754257 
L 107.8798 135.611808 
L 108.016055 135.291486 
L 108.262494 134.828715 
L 108.345576 134.682127 
L 108.524784 134.365943 
L 108.787381 133.903172 
L 108.811352 133.867487 
L 109.1425 133.440401 
L 109.277129 133.2715 
L 109.509375 132.977629 
L 109.742905 132.745845 
L 110.02131 132.514858 
L 110.208681 132.346581 
L 110.495334 132.052087 
L 110.674457 131.854328 
L 110.914499 131.589316 
L 111.140234 131.34009 
L 111.333659 131.126544 
L 111.60601 130.82586 
L 111.752819 130.663773 
L 112.071786 130.311612 
L 112.171973 130.201002 
L 112.537563 129.797387 
L 112.591143 129.73823 
L 113.003339 129.283144 
L 113.0103 129.275459 
L 113.429464 128.812688 
L 113.469115 128.768912 
L 113.848638 128.349917 
L 113.934891 128.254689 
L 114.267798 127.887145 
L 114.400668 127.740454 
L 114.686963 127.424374 
L 114.866444 127.226223 
L 115.106136 126.961603 
L 115.33222 126.709455 
L 115.520585 126.498831 
L 115.797997 126.171463 
L 115.909272 126.03606 
L 116.263773 125.599723 
L 116.285249 125.573289 
L 116.676261 125.110518 
L 116.729549 125.059929 
L 117.195326 124.673957 
L 117.226955 124.647746 
L 117.661102 124.287988 
L 117.78541 124.184975 
L 118.126878 123.902009 
L 118.34387 123.722204 
L 118.592654 123.516036 
L 118.902315 123.259432 
L 119.058431 123.130067 
L 119.460769 122.796661 
L 119.524207 122.744094 
L 119.989983 122.358141 
L 120.019248 122.33389 
L 120.45576 121.972168 
L 120.577629 121.871119 
L 120.921536 121.584038 
L 121.130793 121.408347 
L 121.387312 121.192976 
L 121.681983 120.945576 
L 121.853088 120.801919 
L 122.233175 120.482805 
L 122.318865 120.410859 
L 122.784334 120.020033 
L 122.784641 120.019775 
L 123.250417 119.628717 
L 123.335522 119.557262 
L 123.716194 119.23765 
L 123.886707 119.094491 
L 124.18197 118.846583 
L 124.437878 118.63172 
L 124.647746 118.455515 
L 124.989064 118.168948 
L 125.113523 118.072809 
L 125.579299 117.780127 
L 125.708417 117.706177 
L 126.045075 117.513355 
L 126.510851 117.246584 
L 126.516401 117.243406 
L 126.976628 116.979808 
L 127.324369 116.780634 
L 127.442404 116.713029 
L 127.90818 116.446263 
L 128.132353 116.317863 
L 128.373957 116.179478 
L 128.839733 115.9127 
L 128.940317 115.855092 
L 129.305509 115.645938 
L 129.748305 115.392321 
L 129.771285 115.379158 
L 130.237062 115.111332 
L 130.550028 114.929549 
L 130.702838 114.842576 
L 131.168614 114.626842 
L 131.529611 114.466778 
L 131.634391 114.42032 
L 132.100167 114.213794 
L 132.565943 114.007271 
L 132.573306 114.004007 
L 133.03172 113.796815 
L 133.497496 113.582401 
L 133.585939 113.541235 
L 133.963272 113.365014 
L 134.429048 113.147494 
L 134.576865 113.078464 
L 134.894825 112.929975 
L 135.360601 112.712433 
L 135.567747 112.615693 
L 135.826377 112.494915 
L 136.292154 112.277378 
L 136.558654 112.152922 
L 136.75793 112.05986 
L 137.223706 111.842325 
L 137.549545 111.69015 
L 137.689482 111.624797 
L 138.155259 111.410758 
L 138.556176 111.227379 
L 138.621035 111.197712 
L 139.086811 110.989518 
L 139.552588 110.819116 
L 139.71105 110.764608 
L 140.018364 110.658898 
L 140.48414 110.498678 
L 140.949917 110.338463 
L 141.060083 110.301836 
L 141.415693 110.182225 
L 141.881469 110.04177 
L 142.347245 109.904571 
L 142.56962 109.839065 
L 142.813022 109.767366 
L 143.278798 109.630174 
L 143.744574 109.49298 
L 144.140719 109.376294 
L 144.210351 109.355784 
L 144.676127 109.218585 
L 145.141903 109.081393 
L 145.607679 108.944198 
L 145.71182 108.913523 
L 146.073456 108.806994 
L 146.539232 108.669798 
L 147.005008 108.532603 
L 147.282901 108.450751 
L 147.470785 108.395412 
L 147.936561 108.25821 
L 148.402337 108.121013 
L 148.853994 107.98798 
L 148.868114 107.983821 
L 149.33389 107.846616 
L 149.799666 107.709416 
L 150.265442 107.572224 
L 150.425045 107.525209 
L 150.731219 107.435018 
L 151.196995 107.297831 
L 151.662771 107.160633 
L 151.996144 107.062437 
L 152.128548 107.023436 
L 152.594324 106.886239 
L 153.0601 106.749039 
L 153.525876 106.611824 
L 153.567148 106.599666 
L 153.991653 106.474629 
L 154.457429 106.336593 
L 154.923205 106.195571 
L 155.115262 106.136895 
L 155.388982 106.053271 
L 155.854758 105.992859 
L 156.320534 105.969777 
L 156.786311 105.946686 
L 157.252087 105.923598 
L 157.717863 105.90051 
L 158.183639 105.877428 
L 158.649416 105.854342 
L 159.115192 105.831254 
L 159.580968 105.808171 
L 160.046745 105.78508 
L 160.512521 105.762005 
L 160.978297 105.738918 
L 161.444073 105.71583 
L 161.90985 105.692745 
L 162.285568 105.674124 
L 162.375626 105.66966 
L 162.841402 105.646578 
L 163.307179 105.640002 
L 163.772955 105.649536 
L 164.238731 105.651163 
L 164.704508 105.632102 
L 165.170284 105.587519 
L 165.63606 105.548285 
L 166.101836 105.576763 
L 166.567613 105.605242 
L 167.033389 105.633715 
L 167.499165 105.662187 
L 167.694446 105.674124 
L 167.964942 105.690657 
L 168.430718 105.719137 
L 168.896494 105.747613 
L 169.36227 105.776081 
L 169.828047 105.804561 
L 170.293823 105.833036 
L 170.759599 105.861505 
L 171.225376 105.909029 
L 171.691152 105.974017 
L 172.156928 106.03901 
L 172.622705 106.104007 
L 172.858402 106.136895 
L 173.088481 106.168999 
L 173.554257 106.233984 
L 174.020033 106.298972 
L 174.48581 106.363965 
L 174.951586 106.428952 
L 175.417362 106.50901 
L 175.751615 106.599666 
L 175.883139 106.635337 
L 176.348915 106.755596 
L 176.814691 106.863831 
L 177.280467 106.972073 
L 177.66936 107.062437 
L 177.746244 107.080302 
L 178.21202 107.188549 
L 178.677796 107.29679 
L 179.143573 107.405018 
L 179.609349 107.513266 
L 179.660743 107.525209 
L 180.075125 107.621501 
L 180.540902 107.72974 
L 181.006678 107.837981 
L 181.472454 107.946217 
L 181.652172 107.98798 
L 181.93823 108.054453 
L 182.404007 108.162691 
L 182.869783 108.270928 
L 183.335559 108.379163 
L 183.643472 108.450751 
L 183.801336 108.487454 
L 184.267112 108.595889 
L 184.732888 108.704334 
L 185.198664 108.812774 
L 185.631433 108.913523 
L 185.664441 108.921206 
L 186.130217 109.029645 
L 186.595993 109.138083 
L 187.06177 109.246522 
L 187.527546 109.358508 
L 187.573212 109.376294 
L 187.993322 109.544448 
L 188.459098 109.73087 
L 188.727786 109.839065 
L 188.924875 109.918372 
L 189.390651 110.109668 
L 189.719462 110.301836 
L 189.856427 110.393392 
L 190.322204 110.758259 
L 190.330309 110.764608 
L 190.78798 111.123129 
L 190.921062 111.227379 
L 191.253756 111.487999 
L 191.511811 111.69015 
L 191.719533 111.852868 
L 192.102574 112.152922 
L 192.185309 112.217734 
L 192.651085 112.582595 
L 192.693337 112.615693 
L 193.116861 112.947458 
L 193.284096 113.078464 
L 193.582638 113.312337 
L 193.874835 113.541235 
L 194.048414 113.677208 
L 194.465597 114.004007 
L 194.51419 114.042072 
L 194.979967 114.406934 
L 195.056362 114.466778 
L 195.445743 114.771801 
L 195.654985 114.929549 
L 195.911519 115.121508 
L 196.276188 115.392321 
L 196.377295 115.467407 
L 196.843072 115.81331 
L 196.899331 115.855092 
L 197.308848 116.159235 
L 197.522449 116.317863 
L 197.774624 116.505136 
L 198.145594 116.780634 
L 198.240401 116.851042 
L 198.706177 117.196956 
L 198.768726 117.243406 
L 199.171953 117.542854 
L 199.391871 117.706177 
L 199.63773 117.888764 
L 200.015013 118.168948 
L 200.103506 118.234667 
L 200.569282 118.580576 
L 200.642351 118.63172 
L 201.035058 118.896244 
L 201.341403 119.094491 
L 201.500835 119.197663 
L 201.966611 119.499076 
L 202.112609 119.557262 
L 202.432387 119.66702 
L 202.898164 119.713964 
L 203.36394 119.753655 
L 203.829716 119.793348 
L 204.295492 119.833035 
L 204.761269 119.874595 
L 205.227045 119.919526 
L 205.692821 119.964463 
L 206.158598 120.009401 
L 206.246974 120.020033 
L 206.624374 120.06559 
L 207.09015 120.129622 
L 207.555927 120.193642 
L 208.021703 120.257682 
L 208.487479 120.321719 
L 208.953255 120.385749 
L 209.419032 120.445081 
L 209.762982 120.482805 
L 209.884808 120.495996 
L 210.350584 120.546435 
L 210.816361 120.596877 
L 211.282137 120.647311 
L 211.747913 120.697749 
L 212.213689 120.748191 
L 212.679466 120.798628 
L 213.145242 120.849067 
L 213.611018 120.899499 
L 214.036503 120.945576 
L 214.076795 120.949841 
L 214.542571 120.998975 
L 215.008347 121.047751 
L 215.474124 121.096214 
L 215.9399 121.14434 
L 216.405676 121.187141 
L 216.871452 121.219415 
L 217.337229 121.244701 
L 217.803005 121.269988 
L 218.268781 121.328862 
L 218.734558 121.396447 
L 218.816583 121.408347 
L 219.200334 121.464023 
L 219.66611 121.531604 
L 220.131886 121.599192 
L 220.597663 121.670483 
L 221.063439 121.776137 
L 221.408643 121.871119 
L 221.529215 121.904762 
L 221.994992 122.034736 
L 222.460768 122.164712 
L 222.926544 122.294686 
L 223.067042 122.33389 
L 223.392321 122.424656 
L 223.858097 122.554633 
L 224.323873 122.684602 
L 224.725434 122.796661 
L 224.789649 122.814581 
L 225.255426 122.944558 
L 225.721202 123.114131 
L 225.977991 123.259432 
L 226.186978 123.377689 
L 226.652755 123.641238 
L 226.79585 123.722204 
L 227.118531 123.904786 
L 227.584307 124.168332 
L 227.61372 124.184975 
L 228.050083 124.431884 
L 228.431579 124.647746 
L 228.51586 124.695435 
L 228.981636 124.958987 
L 229.249435 125.110518 
L 229.447412 125.222539 
L 229.913189 125.486094 
L 230.067295 125.573289 
L 230.378965 125.749633 
L 230.844741 126.01318 
L 230.885178 126.03606 
L 231.310518 126.276731 
L 231.703055 126.498831 
L 231.776294 126.54027 
L 232.24207 126.803824 
L 232.520915 126.961603 
L 232.707846 127.067373 
L 233.173623 127.330918 
L 233.338799 127.424374 
L 233.639399 127.594457 
L 234.105175 127.858018 
L 234.156653 127.887145 
L 234.570952 128.12157 
L 234.97491 128.349917 
L 235.036728 128.384497 
L 235.502504 128.6415 
L 235.812744 128.812688 
L 235.96828 128.898511 
L 236.434057 129.155523 
L 236.651421 129.275459 
L 236.899833 129.41253 
L 237.365609 129.669539 
L 237.490095 129.73823 
L 237.831386 129.92655 
L 238.297162 130.183568 
L 238.322558 130.201002 
L 238.762938 130.539477 
L 238.916034 130.663773 
L 239.228715 130.919244 
L 239.471018 131.126544 
L 239.694491 131.342163 
L 239.93046 131.589316 
L 240.160267 131.830857 
L 240.370752 132.052087 
L 240.626043 132.320409 
L 240.81105 132.514858 
L 241.09182 132.809963 
L 241.25134 132.977629 
L 241.557596 133.299524 
L 241.691632 133.440401 
L 242.023372 133.789075 
L 242.131927 133.903172 
L 242.489149 134.278629 
L 242.572223 134.365943 
L 242.954925 134.768191 
L 243.012509 134.828715 
L 243.420701 135.257741 
L 243.452806 135.291486 
L 243.886477 135.747305 
L 243.893092 135.754257 
L 244.333395 136.217028 
L 244.352254 136.23685 
L 244.773684 136.6798 
L 244.81803 136.72641 
L 245.204167 137.142571 
L 245.283806 137.230492 
L 245.616342 137.605342 
L 245.749583 137.755539 
L 246.026861 138.068114 
L 246.215359 138.280606 
L 246.437381 138.530885 
L 246.681135 138.805673 
L 246.847889 138.993656 
L 247.146912 139.330738 
L 247.258411 139.456427 
L 247.612688 139.855783 
L 247.668943 139.919199 
L 248.078464 140.380849 
L 248.079458 140.38197 
L 248.489978 140.844741 
L 248.54424 140.90591 
L 248.900498 141.307513 
L 249.010017 141.430968 
L 249.311014 141.770284 
L 249.475793 141.956035 
L 249.721544 142.233055 
L 249.941569 142.481085 
L 250.135237 142.695826 
L 250.407346 142.99066 
L 250.559171 143.158598 
L 250.873122 143.530463 
L 250.947354 143.621369 
L 251.325244 144.08414 
L 251.338898 144.100862 
L 251.703128 144.546912 
L 251.804674 144.677544 
L 252.023807 145.009683 
L 252.215902 145.472454 
L 252.270451 145.60595 
L 252.404854 145.935225 
L 252.592547 146.397997 
L 252.736227 146.752256 
L 252.780237 146.860768 
L 252.967937 147.323539 
L 253.155544 147.786311 
L 253.202003 147.91226 
L 253.328284 148.249082 
L 253.494137 148.711853 
L 253.659982 149.174624 
L 253.66778 149.196378 
L 253.825853 149.637396 
L 253.991711 150.100167 
L 254.133556 150.495964 
L 254.157559 150.562938 
L 254.323422 151.02571 
L 254.489291 151.488481 
L 254.599332 151.795527 
L 254.655142 151.951252 
L 254.820992 152.414023 
L 254.986859 152.876795 
L 255.065109 153.095114 
L 255.150619 153.339566 
L 255.237339 153.802337 
L 255.316889 154.265109 
L 255.396454 154.72788 
L 255.47601 155.190651 
L 255.530885 155.509943 
L 255.555544 155.653422 
L 255.635108 156.116194 
L 255.714662 156.578965 
L 255.79422 157.041736 
L 255.873764 157.504508 
L 255.953317 157.967279 
L 255.996661 158.219414 
L 256.032869 158.43005 
L 256.112411 158.892821 
L 256.191972 159.355593 
L 256.27152 159.818364 
L 256.351059 160.281135 
L 256.43061 160.743907 
L 256.462437 160.929055 
L 256.510162 161.206678 
L 256.589704 161.669449 
L 256.669266 162.13222 
L 256.748811 162.594992 
L 256.828362 163.057763 
L 256.907918 163.520534 
L 256.923374 163.983306 
L 256.908566 164.446077 
L 256.893768 164.908848 
L 256.878969 165.371619 
L 256.864185 165.834391 
L 256.849376 166.297162 
L 256.834577 166.759933 
L 256.821153 167.222705 
L 256.820447 167.685476 
L 256.845905 168.148247 
L 256.882736 168.611018 
L 256.919555 169.07379 
L 256.928214 169.18258 
L 256.956385 169.536561 
L 256.993211 169.999332 
L 257.030034 170.462104 
L 257.066862 170.924875 
L 257.103686 171.387646 
L 257.140512 171.850417 
L 257.177336 172.313189 
L 257.214158 172.77596 
L 257.250989 173.238731 
L 257.289077 173.701503 
L 257.328429 174.164274 
L 257.367787 174.627045 
L 257.39399 174.879521 
L 257.416312 175.089816 
L 257.471861 175.552588 
L 257.527405 176.015359 
L 257.582941 176.47813 
L 257.638488 176.940902 
L 257.694032 177.403673 
L 257.749574 177.866444 
L 257.805123 178.329215 
L 257.859766 178.784525 
L 257.860662 178.791987 
L 257.916206 179.254758 
L 257.971755 179.717529 
L 258.027292 180.180301 
L 258.082838 180.643072 
L 258.13838 181.105843 
L 258.19392 181.568614 
L 258.249469 182.031386 
L 258.305005 182.494157 
L 258.325543 182.956209 
L 258.325573 182.956928 
L 258.325543 182.95722 
L 258.276659 183.419699 
L 258.22774 183.882471 
L 258.178826 184.345242 
L 258.188009 184.808013 
L 258.161908 185.270785 
L 258.118991 185.733556 
L 258.076074 186.196327 
L 257.964572 186.659098 
L 257.859766 186.981442 
L 257.814109 187.12187 
L 257.66365 187.584641 
L 257.513184 188.047412 
L 257.39399 188.414005 
L 257.362718 188.510184 
L 257.21225 188.972955 
L 257.06178 189.435726 
L 256.928214 189.846519 
L 256.911313 189.898497 
L 256.76085 190.361269 
L 256.610383 190.82404 
L 256.462437 191.280648 
L 256.460555 191.286811 
L 256.398371 191.749583 
L 256.336187 192.212354 
L 256.274005 192.675125 
L 256.211823 193.137896 
L 256.149642 193.600668 
L 256.087453 194.063439 
L 256.02527 194.52621 
L 255.996661 194.739107 
L 255.963083 194.988982 
L 255.900901 195.451753 
L 255.838717 195.914524 
L 255.77653 196.377295 
L 255.715567 196.840067 
L 255.656179 197.302838 
L 255.596779 197.765609 
L 255.537387 198.228381 
L 255.530885 198.279046 
L 255.477996 198.691152 
L 255.418598 199.153923 
L 255.359214 199.616694 
L 255.299815 200.079466 
L 255.240428 200.542237 
L 255.181036 201.005008 
L 255.121638 201.46778 
L 255.065109 201.672894 
L 254.991576 201.930551 
L 254.779247 202.393322 
L 254.599332 202.785423 
L 254.566905 202.856093 
L 254.354573 203.318865 
L 254.142238 203.781636 
L 254.133556 203.800559 
L 253.929907 204.244407 
L 253.717573 204.707179 
L 253.66778 204.815701 
L 253.505238 205.16995 
L 253.292905 205.632721 
L 253.202003 205.830834 
L 253.080569 206.095492 
L 252.876471 206.558264 
L 252.748846 207.021035 
L 252.736227 207.066797 
L 252.621234 207.483806 
L 252.486209 207.946578 
L 252.299 208.409349 
L 252.270451 208.478645 
L 252.108345 208.87212 
L 251.917698 209.334891 
L 251.804674 209.609244 
L 251.727055 209.797663 
L 251.536406 210.260434 
L 251.345769 210.723205 
L 251.338898 210.739883 
L 251.155121 211.185977 
L 250.964471 211.648748 
L 250.873122 211.870489 
L 250.773825 212.111519 
L 250.583179 212.57429 
L 250.407346 213.001095 
L 250.392528 213.037062 
L 250.201882 213.499833 
L 250.011233 213.962604 
L 249.941569 214.131707 
L 249.820588 214.425376 
L 249.629937 214.888147 
L 249.475793 215.262319 
L 249.439294 215.350918 
L 249.248648 215.813689 
L 249.057996 216.276461 
L 249.010017 216.392928 
L 248.867354 216.739232 
L 248.676702 217.202003 
L 248.54424 217.523549 
L 248.486062 217.664775 
L 248.295412 218.127546 
L 248.104762 218.590317 
L 248.078464 218.654152 
L 247.914115 219.053088 
L 247.723464 219.51586 
L 247.612688 219.784762 
L 247.531845 219.978631 
L 247.264483 220.441402 
L 247.146912 220.618514 
L 246.957287 220.904174 
L 246.681135 221.256511 
L 246.583439 221.366945 
L 246.215359 221.763866 
L 246.154295 221.829716 
L 245.749583 222.266164 
L 245.725172 222.292487 
L 245.296031 222.755259 
L 245.283806 222.768442 
L 244.859869 223.21803 
L 244.81803 223.254635 
L 244.352254 223.627005 
L 244.284965 223.680801 
L 243.886477 223.999388 
L 243.706128 224.143573 
L 243.420701 224.381714 
L 243.176093 224.606344 
L 242.954925 224.828013 
L 242.714366 225.069115 
L 242.489149 225.294845 
L 242.252641 225.531886 
L 242.023372 225.761672 
L 241.790914 225.994658 
L 241.557596 226.228504 
L 241.329186 226.457429 
L 241.09182 226.695329 
L 240.867457 226.9202 
L 240.626043 227.162167 
L 240.405736 227.382972 
L 240.160267 227.628993 
L 239.944011 227.845743 
L 239.694491 228.095834 
L 239.48229 228.308514 
L 239.228715 228.562662 
L 239.020564 228.771285 
L 238.762938 229.029491 
L 238.558833 229.234057 
L 238.297162 229.496325 
L 238.097114 229.696828 
L 237.831386 229.963159 
L 237.630529 230.159599 
L 237.365609 230.406386 
L 237.076733 230.622371 
L 236.899833 230.754632 
L 236.457778 231.085142 
L 236.434057 231.102878 
L 235.96828 231.451126 
L 235.838832 231.547913 
L 235.502504 231.772481 
L 235.036728 231.980552 
L 234.956199 232.010684 
L 234.570952 232.154837 
L 234.105175 232.329124 
L 233.719441 232.473456 
L 233.639399 232.503405 
L 233.173623 232.677693 
L 232.707846 232.851975 
L 232.482681 232.936227 
L 232.24207 233.026259 
L 231.776294 233.200552 
L 231.310518 233.374831 
L 231.245933 233.398998 
L 230.844741 233.549117 
L 230.378965 233.723391 
L 230.009147 233.86177 
L 229.913189 233.897676 
L 229.447412 234.071962 
L 228.981636 234.246247 
L 228.772398 234.324541 
L 228.51586 234.420533 
L 228.050083 234.594817 
L 227.584307 234.769105 
L 227.535646 234.787312 
L 227.118531 234.943385 
L 226.652755 235.117677 
L 226.298873 235.250083 
L 226.186978 235.29195 
L 225.721202 235.466244 
L 225.255426 235.640533 
L 225.062143 235.712855 
L 224.789649 235.814813 
L 224.323873 235.989097 
L 223.858097 236.163381 
L 223.825371 236.175626 
L 223.392321 236.337662 
L 222.926544 236.511944 
L 222.58859 236.638397 
L 222.460768 236.686226 
L 221.994992 236.860513 
L 221.529215 237.033322 
L 221.281361 237.101169 
L 221.063439 237.160822 
L 220.597663 237.28833 
L 220.131886 237.415842 
L 219.66611 237.543346 
L 219.590884 237.56394 
L 219.200334 237.670855 
L 218.734558 237.798357 
L 218.268781 237.925867 
L 217.90041 238.026711 
L 217.803005 238.053377 
L 217.337229 238.180885 
L 216.871452 238.298949 
L 216.405676 238.396352 
L 215.9399 238.488247 
L 215.933638 238.489482 
L 215.474124 238.580154 
L 215.008347 238.642754 
L 214.542571 238.665186 
L 214.076795 238.687621 
L 213.611018 238.710053 
L 213.145242 238.732492 
L 212.679466 238.754918 
L 212.213689 238.781965 
L 211.747913 238.822139 
L 211.282137 238.871543 
L 210.816361 238.921199 
L 210.525067 238.952254 
L 210.350584 238.970855 
L 209.884808 239.020519 
L 209.419032 239.070173 
L 208.953255 239.11983 
L 208.487479 239.169487 
L 208.021703 239.219144 
L 207.555927 239.2688 
L 207.09015 239.318457 
L 206.624374 239.368114 
L 206.184345 239.415025 
L 206.158598 239.41777 
L 205.692821 239.467427 
L 205.227045 239.517091 
L 204.761269 239.566743 
L 204.295492 239.61641 
L 203.829716 239.666061 
L 203.36394 239.715719 
L 202.898164 239.765377 
L 202.432387 239.815039 
L 201.966611 239.86469 
L 201.725652 239.877796 
L 201.500835 239.889798 
L 201.035058 239.956972 
L 200.569282 240.024144 
L 200.103506 240.091318 
L 199.63773 240.158494 
L 199.171953 240.225669 
L 198.706177 240.292842 
L 198.375253 240.340568 
L 198.240401 240.360016 
L 197.774624 240.427193 
L 197.308848 240.494372 
L 196.843072 240.561546 
L 196.377295 240.628722 
L 195.911519 240.695898 
L 195.445743 240.696107 
L 194.979967 240.695435 
L 194.51419 240.705061 
L 194.048414 240.714685 
L 193.582638 240.724313 
L 193.116861 240.733937 
L 192.651085 240.743558 
L 192.185309 240.753183 
L 191.719533 240.762806 
L 191.253756 240.772434 
L 190.78798 240.782059 
L 190.322204 240.791684 
L 189.856427 240.801304 
L 189.757973 240.803339 
L 189.390651 240.81093 
L 188.924875 240.82056 
L 188.459098 240.839711 
L 187.993322 240.895411 
L 187.527546 240.951117 
L 187.06177 241.006817 
L 186.595993 241.062519 
L 186.130217 241.118214 
L 185.664441 241.173897 
L 185.198664 241.229597 
L 184.892891 241.26611 
L 184.732888 241.285207 
L 184.267112 241.340742 
L 183.801336 241.396299 
L 183.335559 241.451834 
L 182.869783 241.507373 
L 182.404007 241.562906 
L 181.93823 241.618445 
L 181.472454 241.673989 
L 181.012033 241.728881 
L 181.006678 241.72952 
L 180.540902 241.785058 
L 180.075125 241.840598 
L 179.609349 241.896135 
L 179.143573 241.95167 
L 178.677796 242.007211 
L 178.21202 242.062747 
L 177.746244 242.118292 
L 177.280467 242.173825 
L 177.13096 242.191653 
L 176.814691 242.229365 
L 176.348915 242.284904 
L 175.883139 242.340438 
L 175.417362 242.395982 
L 174.951586 242.451514 
L 174.48581 242.507062 
L 174.020033 242.562593 
L 173.554257 242.61812 
L 173.249751 242.654424 
L 173.088481 242.673651 
L 172.622705 242.729182 
L 172.156928 242.784706 
L 171.691152 242.834616 
L 171.225376 242.883408 
L 170.759599 242.932179 
L 170.293823 242.980906 
L 169.828047 243.029608 
L 169.36227 243.078313 
L 168.990475 243.117195 
L 168.896494 243.127023 
L 168.430718 243.17573 
L 167.964942 243.223708 
L 167.499165 243.271814 
L 167.033389 243.223142 
z
" clip-path="url(#pd206873ba2)" style="fill: none; stroke: #000000; stroke-width: 1.5"/>
   </g>
   <g id="patch_3">
    <path d="M 45 320.4 
L 45 43.2 
" style="fill: none; stroke: #000000; stroke-width: 0.8; stroke-linejoin: miter; stroke-linecap: square"/>
   </g>
   <g id="patch_4">
    <path d="M 324 320.4 
L 324 43.2 
" style="fill: none; stroke: #000000; stroke-width: 0.8; stroke-linejoin: miter; stroke-linecap: square"/>
   </g>
   <g id="patch_5">
    <path d="M 45 320.4 
L 324 320.4 
" style="fill: none; stroke: #000000; stroke-width: 0.8; stroke-linejoin: miter; stroke-linecap: square"/>
   </g>
   <g id="patch_6">
    <path d="M 45 43.2 
L 324 43.2 
" style="fill: none; stroke: #000000; stroke-width: 0.8; stroke-linejoin: miter; stroke-linecap: square"/>
   </g>
  </g>
 </g>
 <defs>
  <clipPath id="pd206873ba2">
   <rect x="45" y="43.2" width="279" height="277.2"/>
  </clipPath>
 </defs>
</svg>
