<?xml version="1.0" encoding="utf-8" standalone="no"?>
<!DOCTYPE svg PUBLIC "-//W3C//DTD SVG 1.1//EN"
  "http://www.w3.org/Graphics/SVG/1.1/DTD/svg11.dtd">
<svg xmlns:xlink="http://www.w3.org/1999/xlink" width="360pt" height="360pt" viewBox="0 0 360 360" xmlns="http://www.w3.org/2000/svg" version="1.1">
 <metadata>
  <rdf:RDF xmlns:dc="http://purl.org/dc/elements/1.1/" xmlns:cc="http://creativecommons.org/ns#" xmlns:rdf="http://www.w3.org/1999/02/22-rdf-syntax-ns#">
   <cc:Work>
    <dc:type rdf:resource="http://purl.org/dc/dcmitype/StillImage"/>
    <dc:date>2022-04-03T22:41:40.472780</dc:date>
    <dc:format>image/svg+xml</dc:format>
    <dc:creator>
     <cc:Agent>
      <dc:title>Matplotlib v3.5.1, https://matplotlib.org/</dc:title>
     </cc:Agent>
    </dc:creator>
   </cc:Work>
  </rdf:RDF>
 </metadata>
 <defs>
  <style type="text/css">*{stroke-linejoin: round; stroke-linecap: butt}</style>
 </defs>
 <g id="figure_1">
  <g id="patch_1">
   <path d="M 0 360 
L 360 360 
L 360 0 
L 0 0 
z
" style="fill: #ffffff"/>
  </g>
  <g id="axes_1">
   <g id="patch_2">
    <path d="M 45 320.4 
L 324 320.4 
L 324 43.2 
L 45 43.2 
z
" style="fill: #ffffff"/>
   </g>
   <g id="PathCollection_1">
    <defs>
     <path id="m2faa71356a" d="M 0 0.5 
C 0.132602 0.5 0.25979 0.447317 0.353553 0.353553 
C 0.447317 0.25979 0.5 0.132602 0.5 0 
C 0.5 -0.132602 0.447317 -0.25979 0.353553 -0.353553 
C 0.25979 -0.447317 0.132602 -0.5 0 -0.5 
C -0.132602 -0.5 -0.25979 -0.447317 -0.353553 -0.353553 
C -0.447317 -0.25979 -0.5 -0.132602 -0.5 0 
C -0.5 0.132602 -0.447317 0.25979 -0.353553 0.353553 
C -0.25979 0.447317 -0.132602 0.5 0 0.5 
z
" style="stroke: #ff0000"/>
    </defs>
    <g clip-path="url(#p73b14a6136)">
     <use xlink:href="#m2faa71356a" x="234.313467" y="181.568614" style="fill: #ff0000; stroke: #ff0000"/>
     <use xlink:href="#m2faa71356a" x="233.63496" y="176.783254" style="fill: #ff0000; stroke: #ff0000"/>
     <use xlink:href="#m2faa71356a" x="232.57516" y="172.113591" style="fill: #ff0000; stroke: #ff0000"/>
     <use xlink:href="#m2faa71356a" x="230.935494" y="167.643629" style="fill: #ff0000; stroke: #ff0000"/>
     <use xlink:href="#m2faa71356a" x="228.594334" y="163.517821" style="fill: #ff0000; stroke: #ff0000"/>
     <use xlink:href="#m2faa71356a" x="225.58151" y="159.875436" style="fill: #ff0000; stroke: #ff0000"/>
     <use xlink:href="#m2faa71356a" x="222.087415" y="156.770147" style="fill: #ff0000; stroke: #ff0000"/>
     <use xlink:href="#m2faa71356a" x="218.394757" y="154.121262" style="fill: #ff0000; stroke: #ff0000"/>
     <use xlink:href="#m2faa71356a" x="214.764598" y="151.730657" style="fill: #ff0000; stroke: #ff0000"/>
     <use xlink:href="#m2faa71356a" x="211.334618" y="149.363437" style="fill: #ff0000; stroke: #ff0000"/>
     <use xlink:href="#m2faa71356a" x="208.080303" y="146.85217" style="fill: #ff0000; stroke: #ff0000"/>
     <use xlink:href="#m2faa71356a" x="204.853429" y="144.168588" style="fill: #ff0000; stroke: #ff0000"/>
     <use xlink:href="#m2faa71356a" x="201.469044" y="141.424635" style="fill: #ff0000; stroke: #ff0000"/>
     <use xlink:href="#m2faa71356a" x="197.788554" y="138.80752" style="fill: #ff0000; stroke: #ff0000"/>
     <use xlink:href="#m2faa71356a" x="193.757016" y="136.493955" style="fill: #ff0000; stroke: #ff0000"/>
     <use xlink:href="#m2faa71356a" x="189.389048" y="134.598832" style="fill: #ff0000; stroke: #ff0000"/>
     <use xlink:href="#m2faa71356a" x="184.732888" y="133.184736" style="fill: #ff0000; stroke: #ff0000"/>
     <use xlink:href="#m2faa71356a" x="179.849963" y="132.311295" style="fill: #ff0000; stroke: #ff0000"/>
     <use xlink:href="#m2faa71356a" x="174.823853" y="132.073925" style="fill: #ff0000; stroke: #ff0000"/>
     <use xlink:href="#m2faa71356a" x="169.779969" y="132.593466" style="fill: #ff0000; stroke: #ff0000"/>
     <use xlink:href="#m2faa71356a" x="164.88526" y="133.961339" style="fill: #ff0000; stroke: #ff0000"/>
     <use xlink:href="#m2faa71356a" x="160.315951" y="136.182454" style="fill: #ff0000; stroke: #ff0000"/>
     <use xlink:href="#m2faa71356a" x="156.211203" y="139.158288" style="fill: #ff0000; stroke: #ff0000"/>
     <use xlink:href="#m2faa71356a" x="152.642066" y="142.71811" style="fill: #ff0000; stroke: #ff0000"/>
     <use xlink:href="#m2faa71356a" x="149.608872" y="146.671205" style="fill: #ff0000; stroke: #ff0000"/>
     <use xlink:href="#m2faa71356a" x="147.056694" y="150.848045" style="fill: #ff0000; stroke: #ff0000"/>
     <use xlink:href="#m2faa71356a" x="144.893109" y="155.120268" style="fill: #ff0000; stroke: #ff0000"/>
     <use xlink:href="#m2faa71356a" x="143.006729" y="159.409409" style="fill: #ff0000; stroke: #ff0000"/>
     <use xlink:href="#m2faa71356a" x="141.297069" y="163.692984" style="fill: #ff0000; stroke: #ff0000"/>
     <use xlink:href="#m2faa71356a" x="139.719268" y="168.001977" style="fill: #ff0000; stroke: #ff0000"/>
     <use xlink:href="#m2faa71356a" x="138.326503" y="172.397364" style="fill: #ff0000; stroke: #ff0000"/>
     <use xlink:href="#m2faa71356a" x="137.27898" y="176.924966" style="fill: #ff0000; stroke: #ff0000"/>
     <use xlink:href="#m2faa71356a" x="136.797268" y="181.568614" style="fill: #ff0000; stroke: #ff0000"/>
     <use xlink:href="#m2faa71356a" x="137.068841" y="186.232826" style="fill: #ff0000; stroke: #ff0000"/>
     <use xlink:href="#m2faa71356a" x="138.152016" y="190.774348" style="fill: #ff0000; stroke: #ff0000"/>
     <use xlink:href="#m2faa71356a" x="139.934723" y="195.070316" style="fill: #ff0000; stroke: #ff0000"/>
     <use xlink:href="#m2faa71356a" x="142.180019" y="199.080874" style="fill: #ff0000; stroke: #ff0000"/>
     <use xlink:href="#m2faa71356a" x="144.637492" y="202.861783" style="fill: #ff0000; stroke: #ff0000"/>
     <use xlink:href="#m2faa71356a" x="147.155776" y="206.51485" style="fill: #ff0000; stroke: #ff0000"/>
     <use xlink:href="#m2faa71356a" x="149.730476" y="210.109024" style="fill: #ff0000; stroke: #ff0000"/>
     <use xlink:href="#m2faa71356a" x="152.465351" y="213.627974" style="fill: #ff0000; stroke: #ff0000"/>
     <use xlink:href="#m2faa71356a" x="155.480554" y="216.982725" style="fill: #ff0000; stroke: #ff0000"/>
     <use xlink:href="#m2faa71356a" x="158.83114" y="220.083225" style="fill: #ff0000; stroke: #ff0000"/>
     <use xlink:href="#m2faa71356a" x="162.485772" y="222.921516" style="fill: #ff0000; stroke: #ff0000"/>
     <use xlink:href="#m2faa71356a" x="166.372599" y="225.608302" style="fill: #ff0000; stroke: #ff0000"/>
     <use xlink:href="#m2faa71356a" x="170.455624" y="228.330798" style="fill: #ff0000; stroke: #ff0000"/>
     <use xlink:href="#m2faa71356a" x="174.787087" y="231.246945" style="fill: #ff0000; stroke: #ff0000"/>
     <use xlink:href="#m2faa71356a" x="179.4986" y="234.370361" style="fill: #ff0000; stroke: #ff0000"/>
     <use xlink:href="#m2faa71356a" x="184.732888" y="237.50734" style="fill: #ff0000; stroke: #ff0000"/>
     <use xlink:href="#m2faa71356a" x="190.553019" y="240.280152" style="fill: #ff0000; stroke: #ff0000"/>
     <use xlink:href="#m2faa71356a" x="196.877215" y="242.228375" style="fill: #ff0000; stroke: #ff0000"/>
     <use xlink:href="#m2faa71356a" x="203.472078" y="242.944899" style="fill: #ff0000; stroke: #ff0000"/>
     <use xlink:href="#m2faa71356a" x="210.005939" y="242.189514" style="fill: #ff0000; stroke: #ff0000"/>
     <use xlink:href="#m2faa71356a" x="216.133508" y="239.936032" style="fill: #ff0000; stroke: #ff0000"/>
     <use xlink:href="#m2faa71356a" x="221.570418" y="236.344188" style="fill: #ff0000; stroke: #ff0000"/>
     <use xlink:href="#m2faa71356a" x="226.130178" y="231.685921" style="fill: #ff0000; stroke: #ff0000"/>
     <use xlink:href="#m2faa71356a" x="229.7252" y="226.270654" style="fill: #ff0000; stroke: #ff0000"/>
     <use xlink:href="#m2faa71356a" x="232.352996" y="220.397293" style="fill: #ff0000; stroke: #ff0000"/>
     <use xlink:href="#m2faa71356a" x="234.084089" y="214.331288" style="fill: #ff0000; stroke: #ff0000"/>
     <use xlink:href="#m2faa71356a" x="235.051097" y="208.290737" style="fill: #ff0000; stroke: #ff0000"/>
     <use xlink:href="#m2faa71356a" x="235.430112" y="202.432612" style="fill: #ff0000; stroke: #ff0000"/>
     <use xlink:href="#m2faa71356a" x="235.411171" y="196.842522" style="fill: #ff0000; stroke: #ff0000"/>
     <use xlink:href="#m2faa71356a" x="235.162172" y="191.534906" style="fill: #ff0000; stroke: #ff0000"/>
     <use xlink:href="#m2faa71356a" x="234.791267" y="186.467126" style="fill: #ff0000; stroke: #ff0000"/>
    </g>
   </g>
   <g id="matplotlib.axis_1">
    <g id="xtick_1">
     <g id="line2d_1">
      <defs>
       <path id="m275f882de6" d="M 0 0 
L 0 3.5 
" style="stroke: #000000; stroke-width: 0.8"/>
      </defs>
      <g>
       <use xlink:href="#m275f882de6" x="45" y="320.4" style="stroke: #000000; stroke-width: 0.8"/>
      </g>
     </g>
     <g id="text_1">
      <!-- −3 -->
      <g transform="translate(37.628906 334.998438)scale(0.1 -0.1)">
       <defs>
        <path id="DejaVuSans-2212" d="M 678 2272 
L 4684 2272 
L 4684 1741 
L 678 1741 
L 678 2272 
z
" transform="scale(0.015625)"/>
        <path id="DejaVuSans-33" d="M 2597 2516 
Q 3050 2419 3304 2112 
Q 3559 1806 3559 1356 
Q 3559 666 3084 287 
Q 2609 -91 1734 -91 
Q 1441 -91 1130 -33 
Q 819 25 488 141 
L 488 750 
Q 750 597 1062 519 
Q 1375 441 1716 441 
Q 2309 441 2620 675 
Q 2931 909 2931 1356 
Q 2931 1769 2642 2001 
Q 2353 2234 1838 2234 
L 1294 2234 
L 1294 2753 
L 1863 2753 
Q 2328 2753 2575 2939 
Q 2822 3125 2822 3475 
Q 2822 3834 2567 4026 
Q 2313 4219 1838 4219 
Q 1578 4219 1281 4162 
Q 984 4106 628 3988 
L 628 4550 
Q 988 4650 1302 4700 
Q 1616 4750 1894 4750 
Q 2613 4750 3031 4423 
Q 3450 4097 3450 3541 
Q 3450 3153 3228 2886 
Q 3006 2619 2597 2516 
z
" transform="scale(0.015625)"/>
       </defs>
       <use xlink:href="#DejaVuSans-2212"/>
       <use xlink:href="#DejaVuSans-33" x="83.789062"/>
      </g>
     </g>
    </g>
    <g id="xtick_2">
     <g id="line2d_2">
      <g>
       <use xlink:href="#m275f882de6" x="91.577629" y="320.4" style="stroke: #000000; stroke-width: 0.8"/>
      </g>
     </g>
     <g id="text_2">
      <!-- −2 -->
      <g transform="translate(84.206536 334.998438)scale(0.1 -0.1)">
       <defs>
        <path id="DejaVuSans-32" d="M 1228 531 
L 3431 531 
L 3431 0 
L 469 0 
L 469 531 
Q 828 903 1448 1529 
Q 2069 2156 2228 2338 
Q 2531 2678 2651 2914 
Q 2772 3150 2772 3378 
Q 2772 3750 2511 3984 
Q 2250 4219 1831 4219 
Q 1534 4219 1204 4116 
Q 875 4013 500 3803 
L 500 4441 
Q 881 4594 1212 4672 
Q 1544 4750 1819 4750 
Q 2544 4750 2975 4387 
Q 3406 4025 3406 3419 
Q 3406 3131 3298 2873 
Q 3191 2616 2906 2266 
Q 2828 2175 2409 1742 
Q 1991 1309 1228 531 
z
" transform="scale(0.015625)"/>
       </defs>
       <use xlink:href="#DejaVuSans-2212"/>
       <use xlink:href="#DejaVuSans-32" x="83.789062"/>
      </g>
     </g>
    </g>
    <g id="xtick_3">
     <g id="line2d_3">
      <g>
       <use xlink:href="#m275f882de6" x="138.155259" y="320.4" style="stroke: #000000; stroke-width: 0.8"/>
      </g>
     </g>
     <g id="text_3">
      <!-- −1 -->
      <g transform="translate(130.784165 334.998438)scale(0.1 -0.1)">
       <defs>
        <path id="DejaVuSans-31" d="M 794 531 
L 1825 531 
L 1825 4091 
L 703 3866 
L 703 4441 
L 1819 4666 
L 2450 4666 
L 2450 531 
L 3481 531 
L 3481 0 
L 794 0 
L 794 531 
z
" transform="scale(0.015625)"/>
       </defs>
       <use xlink:href="#DejaVuSans-2212"/>
       <use xlink:href="#DejaVuSans-31" x="83.789062"/>
      </g>
     </g>
    </g>
    <g id="xtick_4">
     <g id="line2d_4">
      <g>
       <use xlink:href="#m275f882de6" x="184.732888" y="320.4" style="stroke: #000000; stroke-width: 0.8"/>
      </g>
     </g>
     <g id="text_4">
      <!-- 0 -->
      <g transform="translate(181.551638 334.998438)scale(0.1 -0.1)">
       <defs>
        <path id="DejaVuSans-30" d="M 2034 4250 
Q 1547 4250 1301 3770 
Q 1056 3291 1056 2328 
Q 1056 1369 1301 889 
Q 1547 409 2034 409 
Q 2525 409 2770 889 
Q 3016 1369 3016 2328 
Q 3016 3291 2770 3770 
Q 2525 4250 2034 4250 
z
M 2034 4750 
Q 2819 4750 3233 4129 
Q 3647 3509 3647 2328 
Q 3647 1150 3233 529 
Q 2819 -91 2034 -91 
Q 1250 -91 836 529 
Q 422 1150 422 2328 
Q 422 3509 836 4129 
Q 1250 4750 2034 4750 
z
" transform="scale(0.015625)"/>
       </defs>
       <use xlink:href="#DejaVuSans-30"/>
      </g>
     </g>
    </g>
    <g id="xtick_5">
     <g id="line2d_5">
      <g>
       <use xlink:href="#m275f882de6" x="231.310518" y="320.4" style="stroke: #000000; stroke-width: 0.8"/>
      </g>
     </g>
     <g id="text_5">
      <!-- 1 -->
      <g transform="translate(228.129268 334.998438)scale(0.1 -0.1)">
       <use xlink:href="#DejaVuSans-31"/>
      </g>
     </g>
    </g>
    <g id="xtick_6">
     <g id="line2d_6">
      <g>
       <use xlink:href="#m275f882de6" x="277.888147" y="320.4" style="stroke: #000000; stroke-width: 0.8"/>
      </g>
     </g>
     <g id="text_6">
      <!-- 2 -->
      <g transform="translate(274.706897 334.998438)scale(0.1 -0.1)">
       <use xlink:href="#DejaVuSans-32"/>
      </g>
     </g>
    </g>
   </g>
   <g id="matplotlib.axis_2">
    <g id="ytick_1">
     <g id="line2d_7">
      <defs>
       <path id="mef37758148" d="M 0 0 
L -3.5 0 
" style="stroke: #000000; stroke-width: 0.8"/>
      </defs>
      <g>
       <use xlink:href="#mef37758148" x="45" y="320.4" style="stroke: #000000; stroke-width: 0.8"/>
      </g>
     </g>
     <g id="text_7">
      <!-- −3 -->
      <g transform="translate(23.257812 324.199219)scale(0.1 -0.1)">
       <use xlink:href="#DejaVuSans-2212"/>
       <use xlink:href="#DejaVuSans-33" x="83.789062"/>
      </g>
     </g>
    </g>
    <g id="ytick_2">
     <g id="line2d_8">
      <g>
       <use xlink:href="#mef37758148" x="45" y="274.122871" style="stroke: #000000; stroke-width: 0.8"/>
      </g>
     </g>
     <g id="text_8">
      <!-- −2 -->
      <g transform="translate(23.257812 277.92209)scale(0.1 -0.1)">
       <use xlink:href="#DejaVuSans-2212"/>
       <use xlink:href="#DejaVuSans-32" x="83.789062"/>
      </g>
     </g>
    </g>
    <g id="ytick_3">
     <g id="line2d_9">
      <g>
       <use xlink:href="#mef37758148" x="45" y="227.845743" style="stroke: #000000; stroke-width: 0.8"/>
      </g>
     </g>
     <g id="text_9">
      <!-- −1 -->
      <g transform="translate(23.257812 231.644962)scale(0.1 -0.1)">
       <use xlink:href="#DejaVuSans-2212"/>
       <use xlink:href="#DejaVuSans-31" x="83.789062"/>
      </g>
     </g>
    </g>
    <g id="ytick_4">
     <g id="line2d_10">
      <g>
       <use xlink:href="#mef37758148" x="45" y="181.568614" style="stroke: #000000; stroke-width: 0.8"/>
      </g>
     </g>
     <g id="text_10">
      <!-- 0 -->
      <g transform="translate(31.6375 185.367833)scale(0.1 -0.1)">
       <use xlink:href="#DejaVuSans-30"/>
      </g>
     </g>
    </g>
    <g id="ytick_5">
     <g id="line2d_11">
      <g>
       <use xlink:href="#mef37758148" x="45" y="135.291486" style="stroke: #000000; stroke-width: 0.8"/>
      </g>
     </g>
     <g id="text_11">
      <!-- 1 -->
      <g transform="translate(31.6375 139.090705)scale(0.1 -0.1)">
       <use xlink:href="#DejaVuSans-31"/>
      </g>
     </g>
    </g>
    <g id="ytick_6">
     <g id="line2d_12">
      <g>
       <use xlink:href="#mef37758148" x="45" y="89.014357" style="stroke: #000000; stroke-width: 0.8"/>
      </g>
     </g>
     <g id="text_12">
      <!-- 2 -->
      <g transform="translate(31.6375 92.813576)scale(0.1 -0.1)">
       <use xlink:href="#DejaVuSans-32"/>
      </g>
     </g>
    </g>
   </g>
   <g id="PathCollection_2">
    <path d="M 201.500835 220.001869 
L 201.035058 219.887626 
L 195.911519 217.031201 
L 192.185309 215.738759 
L 191.253756 215.480251 
L 189.856427 214.726377 
L 189.203058 213.962604 
L 188.924875 213.386695 
L 187.993322 212.512854 
L 177.719343 204.244407 
L 175.877318 202.856093 
L 173.554257 200.86516 
L 170.293823 198.087591 
L 167.033389 194.82956 
L 166.070631 194.063439 
L 165.170284 192.774762 
L 161.201348 186.196327 
L 160.439453 185.270785 
L 159.479642 182.956928 
L 159.448594 181.568614 
L 159.878557 180.643072 
L 160.603603 179.254758 
L 162.112484 175.089816 
L 162.886565 171.387646 
L 163.146516 167.685476 
L 163.501665 166.759933 
L 166.377961 162.594992 
L 171.225376 157.384947 
L 173.554257 155.651945 
L 174.639669 155.653422 
L 182.869783 157.630367 
L 184.402638 157.967279 
L 188.950614 159.818364 
L 191.287659 161.669449 
L 192.185309 162.632684 
L 194.048414 164.324816 
L 198.593891 168.611018 
L 200.103506 169.610446 
L 205.729176 173.238731 
L 207.555927 174.114889 
L 210.350584 176.055064 
L 210.727798 176.47813 
L 211.231525 178.329215 
L 211.202806 184.808013 
L 211.747913 188.694221 
L 212.213689 189.901286 
L 212.530028 190.82404 
L 212.647087 191.749583 
L 212.567613 194.988982 
L 212.491471 196.840067 
L 212.214341 201.930551 
L 212.213689 209.618806 
L 211.522601 212.57429 
L 210.952407 213.962604 
L 208.890777 217.202003 
L 207.555927 218.159621 
L 205.692821 219.160893 
L 203.36394 219.873103 
L 201.500835 220.001869 
L 201.500835 220.001869 
" clip-path="url(#p73b14a6136)" style="fill: none; stroke-dasharray: 5.55,2.4; stroke-dashoffset: 0; stroke: #000000; stroke-width: 1.5"/>
   </g>
   <g id="PathCollection_3">
    <path d="M 203.829716 243.120765 
L 203.392617 243.117195 
L 203.36394 243.112046 
L 202.898164 243.033834 
L 202.432387 242.964608 
L 201.966611 242.741598 
L 201.500835 242.684738 
L 201.035058 242.66914 
L 200.569282 242.662091 
L 200.103506 242.657856 
L 199.671213 242.654424 
L 199.63773 242.6484 
L 199.171953 242.528236 
L 198.706177 242.241022 
L 198.240401 242.204028 
L 197.774624 242.196582 
L 197.335088 242.191653 
L 197.308848 242.185234 
L 196.843072 241.8199 
L 196.377295 241.73354 
L 196.217464 241.728881 
L 195.911519 241.582338 
L 195.445743 241.29084 
L 194.979967 241.2667 
L 194.953063 241.26611 
L 194.51419 241.083407 
L 194.048414 240.826637 
L 193.672921 240.803339 
L 193.582638 240.770529 
L 193.116861 240.587951 
L 192.651085 240.361307 
L 192.399515 240.340568 
L 192.185309 240.262724 
L 191.719533 240.090065 
L 191.253756 239.892198 
L 191.126119 239.877796 
L 190.78798 239.754912 
L 190.322204 239.585641 
L 189.856427 239.415686 
L 189.85273 239.415025 
L 189.390651 239.247103 
L 188.924875 239.077832 
L 188.579319 238.952254 
L 188.459098 238.908564 
L 187.993322 238.739294 
L 187.527546 238.570026 
L 187.305924 238.489482 
L 187.06177 238.400751 
L 186.595993 238.231484 
L 186.130217 238.062218 
L 186.032514 238.026711 
L 185.664441 237.892946 
L 185.198664 237.723677 
L 184.759128 237.56394 
L 184.732888 237.554404 
L 184.267112 237.385133 
L 183.801336 237.215871 
L 183.485716 237.101169 
L 183.335559 237.046598 
L 182.869783 236.877325 
L 182.404007 236.708055 
L 182.212333 236.638397 
L 181.93823 236.538785 
L 181.472454 236.369517 
L 181.006678 236.200249 
L 180.938924 236.175626 
L 180.540902 236.03098 
L 180.075125 235.79404 
L 179.978127 235.712855 
L 179.609349 235.404192 
L 179.425225 235.250083 
L 179.143573 235.014343 
L 178.872326 234.787312 
L 178.677796 234.624494 
L 178.31942 234.324541 
L 178.21202 234.234648 
L 177.76652 233.86177 
L 177.746244 233.844799 
L 177.280467 233.454955 
L 177.213613 233.398998 
L 176.814691 233.065105 
L 176.653414 232.936227 
L 176.348915 232.710025 
L 176.027173 232.473456 
L 175.883139 232.367057 
L 175.417362 232.020969 
L 175.403521 232.010684 
L 174.951586 231.67488 
L 174.780711 231.547913 
L 174.48581 231.32879 
L 174.172932 231.085142 
L 174.020033 230.951052 
L 173.669262 230.622371 
L 173.554257 230.523681 
L 173.118982 230.159599 
L 173.088481 230.134087 
L 172.622705 229.744482 
L 172.565733 229.696828 
L 172.156928 229.354881 
L 172.009126 229.234057 
L 171.691152 228.999656 
L 171.347386 228.771285 
L 171.225376 228.690233 
L 170.759599 228.380817 
L 170.650759 228.308514 
L 170.293823 228.071397 
L 169.954141 227.845743 
L 169.828047 227.761977 
L 169.36227 227.452557 
L 169.257521 227.382972 
L 168.896494 227.14314 
L 168.560898 226.9202 
L 168.430718 226.83372 
L 167.964942 226.524303 
L 167.864274 226.457429 
L 167.499165 226.214884 
L 167.167653 225.994658 
L 167.033389 225.905465 
L 166.567613 225.596049 
L 166.471025 225.531886 
L 166.101836 225.286628 
L 165.774409 225.069115 
L 165.63606 224.977209 
L 165.170284 224.667789 
L 165.07779 224.606344 
L 164.704508 224.358364 
L 164.381171 224.143573 
L 164.238731 224.048952 
L 163.772955 223.739532 
L 163.683222 223.680801 
L 163.307179 223.432231 
L 162.956581 223.21803 
L 162.841402 223.146125 
L 162.375626 222.789874 
L 162.334626 222.755259 
L 161.90985 222.396624 
L 161.786509 222.292487 
L 161.444073 222.003372 
L 161.238387 221.829716 
L 160.978297 221.610125 
L 160.69027 221.366945 
L 160.512521 221.216873 
L 160.142148 220.904174 
L 160.046745 220.823627 
L 159.594023 220.441402 
L 159.580968 220.43038 
L 159.115192 220.037133 
L 159.045902 219.978631 
L 158.649416 219.643882 
L 158.49778 219.51586 
L 158.183639 219.250637 
L 157.949656 219.053088 
L 157.717863 218.857387 
L 157.401533 218.590317 
L 157.252087 218.464144 
L 156.853412 218.127546 
L 156.786311 218.070892 
L 156.320534 217.677646 
L 156.305289 217.664775 
L 155.854758 217.267412 
L 155.781661 217.202003 
L 155.388982 216.784877 
L 155.346013 216.739232 
L 154.923205 216.290107 
L 154.910358 216.276461 
L 154.474702 215.813689 
L 154.457429 215.795341 
L 154.039055 215.350918 
L 153.991653 215.300566 
L 153.6034 214.888147 
L 153.525876 214.805798 
L 153.167747 214.425376 
L 153.0601 214.311027 
L 152.732094 213.962604 
L 152.594324 213.806665 
L 152.364402 213.499833 
L 152.128548 213.149973 
L 152.052429 213.037062 
L 151.740456 212.57429 
L 151.662771 212.459056 
L 151.428482 212.111519 
L 151.196995 211.768136 
L 151.116511 211.648748 
L 150.804536 211.185977 
L 150.731219 211.070986 
L 150.528547 210.723205 
L 150.279283 210.260434 
L 150.265442 210.238782 
L 149.989089 209.797663 
L 149.799666 209.512247 
L 149.674923 209.334891 
L 149.33389 208.949988 
L 149.261958 208.87212 
L 148.868114 208.445774 
L 148.834465 208.409349 
L 148.406978 207.946578 
L 148.402337 207.941554 
L 147.979479 207.483806 
L 147.936561 207.437347 
L 147.551986 207.021035 
L 147.470785 206.933132 
L 147.124496 206.558264 
L 147.005008 206.428915 
L 146.696998 206.095492 
L 146.539232 205.924708 
L 146.269505 205.632721 
L 146.073456 205.420494 
L 145.842012 205.16995 
L 145.607679 204.916285 
L 145.414514 204.707179 
L 145.141903 204.412071 
L 144.987019 204.244407 
L 144.676127 203.906368 
L 144.560946 203.781636 
L 144.210351 203.381081 
L 144.153945 203.318865 
L 143.751067 202.856093 
L 143.744574 202.848636 
L 143.348184 202.393322 
L 143.278798 202.31362 
L 142.945309 201.930551 
L 142.813022 201.778598 
L 142.542433 201.46778 
L 142.347245 201.209975 
L 142.197227 201.005008 
L 141.895817 200.542237 
L 141.881469 200.520209 
L 141.609289 200.079466 
L 141.415693 199.753131 
L 141.399847 199.616694 
L 141.082967 199.153923 
L 140.949917 198.914315 
L 140.923702 198.691152 
L 140.56903 198.228381 
L 140.48414 198.064813 
L 140.457652 197.765609 
L 140.123916 197.302838 
L 140.018364 197.067805 
L 140.008692 196.840067 
L 139.708262 196.377295 
L 139.552588 196.030661 
L 139.549301 195.914524 
L 139.279479 195.451753 
L 139.086811 195.061094 
L 139.084849 194.988982 
L 138.903504 194.52621 
L 138.621035 194.091514 
L 138.619739 194.063439 
L 138.514257 193.600668 
L 138.155259 193.138728 
L 138.155196 193.137896 
L 138.129791 192.675125 
L 137.770944 192.212354 
L 137.689482 192.015397 
L 137.68206 191.749583 
L 137.611494 191.286811 
L 137.379461 190.82404 
L 137.29579 190.361269 
L 137.233332 189.898497 
L 137.223706 189.82719 
L 137.220077 189.435726 
L 137.205453 188.972955 
L 137.077338 188.510184 
L 137.024755 188.047412 
L 137.032801 187.584641 
L 137.036758 187.12187 
L 137.029971 186.659098 
L 137.022927 186.196327 
L 137.015616 185.733556 
L 137.008028 185.270785 
L 137.000138 184.808013 
L 136.991935 184.345242 
L 136.987427 183.882471 
L 136.983682 183.419699 
L 136.979937 182.956928 
L 136.976192 182.494157 
L 136.942992 182.031386 
L 136.893718 181.568614 
L 136.844444 181.105843 
L 136.848077 180.643072 
L 136.880226 180.180301 
L 136.912368 179.717529 
L 136.944517 179.254758 
L 136.976664 178.791987 
L 137.017566 178.329215 
L 137.065474 177.866444 
L 137.116006 177.403673 
L 137.165334 176.940902 
L 137.210686 176.47813 
L 137.223706 176.338012 
L 137.257111 176.015359 
L 137.305019 175.552588 
L 137.35293 175.089816 
L 137.400837 174.627045 
L 137.448749 174.164274 
L 137.496653 173.701503 
L 137.544561 173.238731 
L 137.59247 172.77596 
L 137.640375 172.313189 
L 137.688291 171.850417 
L 137.689482 171.83881 
L 137.735503 171.387646 
L 137.76865 170.924875 
L 137.811101 170.462104 
L 137.961708 169.999332 
L 138.121554 169.536561 
L 138.155259 169.472704 
L 138.363139 169.07379 
L 138.61757 168.611018 
L 138.621035 168.604717 
L 138.871995 168.148247 
L 139.086811 167.702349 
L 139.094291 167.685476 
L 139.290914 167.222705 
L 139.487542 166.759933 
L 139.552588 166.606843 
L 139.684162 166.297162 
L 139.868105 165.834391 
L 140.008307 165.371619 
L 140.018364 165.338269 
L 140.155281 164.908848 
L 140.341632 164.446077 
L 140.48414 164.151879 
L 140.565797 163.983306 
L 140.789962 163.520534 
L 140.949917 163.190318 
L 141.01395 163.057763 
L 141.233405 162.594992 
L 141.415693 162.206951 
L 141.450798 162.13222 
L 141.66819 161.669449 
L 141.881469 161.215453 
L 141.885552 161.206678 
L 142.079135 160.743907 
L 142.243791 160.281135 
L 142.347245 159.925332 
L 142.38228 159.818364 
L 142.541132 159.355593 
L 142.710324 158.892821 
L 142.813022 158.503233 
L 142.836991 158.43005 
L 143.024832 157.967279 
L 143.191786 157.504508 
L 143.278798 157.130719 
L 143.310441 157.041736 
L 143.505229 156.578965 
L 143.719349 156.116194 
L 143.744574 155.702112 
L 143.759616 155.653422 
L 143.902506 155.190651 
L 144.052792 154.72788 
L 144.198382 154.265109 
L 144.210351 153.914422 
L 144.250811 153.802337 
L 144.424991 153.339566 
L 144.6666 152.876795 
L 144.676127 152.69719 
L 144.845456 152.414023 
L 145.141903 151.972824 
L 145.158266 151.951252 
L 145.580457 151.488481 
L 145.607679 151.285252 
L 145.783652 151.02571 
L 146.073456 150.598274 
L 146.100383 150.562938 
L 146.517706 150.100167 
L 146.539232 149.93695 
L 146.797717 149.637396 
L 147.005008 149.406273 
L 147.212767 149.174624 
L 147.470785 148.886942 
L 147.62782 148.711853 
L 147.936561 148.367616 
L 148.046241 148.249082 
L 148.402337 147.850494 
L 148.462261 147.786311 
L 148.868114 147.329432 
L 148.873595 147.323539 
L 149.328333 146.860768 
L 149.33389 146.851949 
L 149.78136 146.397997 
L 149.799666 146.354167 
L 150.201352 145.935225 
L 150.265442 145.770957 
L 150.533162 145.472454 
L 150.731219 145.251625 
L 150.948213 145.009683 
L 151.196995 144.732294 
L 151.364162 144.546912 
L 151.662771 144.213742 
L 151.784019 144.08414 
L 152.128548 143.697666 
L 152.199681 143.621369 
L 152.594324 143.17604 
L 152.610523 143.158598 
L 153.055151 142.695826 
L 153.0601 142.687392 
L 153.506136 142.233055 
L 153.525876 142.17181 
L 153.901174 141.770284 
L 153.991653 141.616306 
L 154.268599 141.307513 
L 154.457429 141.096968 
L 154.683645 140.844741 
L 154.923205 140.577634 
L 155.102609 140.38197 
L 155.388982 140.061792 
L 155.522208 139.919199 
L 155.854758 139.545313 
L 155.937505 139.456427 
L 156.320534 139.02312 
L 156.347854 138.993656 
L 156.782126 138.530885 
L 156.786311 138.523025 
L 157.230226 138.068114 
L 157.252087 137.980978 
L 157.588985 137.605342 
L 157.717863 137.461644 
L 158.018967 137.142571 
L 158.183639 137.078272 
L 158.649416 136.685473 
L 158.657011 136.6798 
L 159.115192 136.377497 
L 159.327519 136.217028 
L 159.580968 136.042353 
L 159.998994 135.754257 
L 160.046745 135.750098 
L 160.512521 135.415931 
L 160.674897 135.291486 
L 160.978297 135.084166 
L 161.341936 134.828715 
L 161.444073 134.816536 
L 161.90985 134.451166 
L 162.022531 134.365943 
L 162.375626 134.154909 
L 162.841402 133.949545 
L 162.926823 133.903172 
L 163.307179 133.847045 
L 163.772955 133.552562 
L 163.99456 133.440401 
L 164.238731 133.424792 
L 164.704508 133.147243 
L 165.062316 132.977629 
L 165.170284 132.973224 
L 165.63606 132.735067 
L 166.101836 132.529757 
L 166.130067 132.514858 
L 166.567613 132.476961 
L 167.033389 132.24594 
L 167.499165 132.150376 
L 167.909207 132.052087 
L 167.964942 132.05128 
L 168.430718 132.040142 
L 168.896494 131.998067 
L 169.36227 131.753421 
L 169.828047 131.654699 
L 170.098929 131.589316 
L 170.293823 131.586319 
L 170.759599 131.578468 
L 171.225376 131.559271 
L 171.691152 131.552979 
L 172.156928 131.549494 
L 172.622705 131.555538 
L 173.088481 131.571035 
L 173.554257 131.578485 
L 174.020033 131.583263 
L 174.48581 131.587028 
L 174.788481 131.589316 
L 174.951586 131.608121 
L 175.417362 131.658888 
L 175.883139 131.7057 
L 176.348915 131.749005 
L 176.814691 131.789185 
L 177.280467 131.831509 
L 177.746244 131.979747 
L 178.21202 132.024041 
L 178.677796 132.039712 
L 179.143573 132.047729 
L 179.549967 132.052087 
L 179.609349 132.058996 
L 180.075125 132.110704 
L 180.540902 132.160834 
L 181.006678 132.223725 
L 181.472454 132.283675 
L 181.93823 132.406187 
L 182.404007 132.496543 
L 182.869783 132.512004 
L 183.039442 132.514858 
L 183.335559 132.565578 
L 183.801336 132.637464 
L 184.267112 132.701139 
L 184.732888 132.764704 
L 185.198664 132.872598 
L 185.664441 132.961364 
L 186.130217 132.976812 
L 186.17613 132.977629 
L 186.595993 133.047649 
L 187.06177 133.116609 
L 187.527546 133.285483 
L 187.861937 133.440401 
L 187.993322 133.511388 
L 188.459098 133.717049 
L 188.860855 133.903172 
L 188.924875 133.940258 
L 189.390651 134.140408 
L 189.856427 134.327414 
L 189.993696 134.365943 
L 190.322204 134.524564 
L 190.78798 134.697337 
L 191.196818 134.828715 
L 191.253756 134.853955 
L 191.719533 135.047254 
L 192.185309 135.19784 
L 192.453191 135.291486 
L 192.651085 135.398573 
L 193.116861 135.750747 
L 193.121487 135.754257 
L 193.582638 136.142437 
L 193.684375 136.217028 
L 194.048414 136.516681 
L 194.281021 136.6798 
L 194.51419 136.866171 
L 194.875193 137.142571 
L 194.979967 137.225604 
L 195.445743 137.597218 
L 195.456875 137.605342 
L 195.911519 137.978435 
L 196.040203 138.068114 
L 196.377295 138.336445 
L 196.627023 138.530885 
L 196.843072 138.7021 
L 197.21096 138.993656 
L 197.308848 139.071233 
L 197.774624 139.442395 
L 197.794889 139.456427 
L 198.240401 139.809542 
L 198.37886 139.919199 
L 198.706177 140.1786 
L 198.962794 140.38197 
L 199.171953 140.547726 
L 199.546747 140.844741 
L 199.63773 140.916846 
L 200.103506 141.285977 
L 200.13068 141.307513 
L 200.569282 141.655106 
L 200.714619 141.770284 
L 201.035058 142.009414 
L 201.500835 142.220487 
L 201.529133 142.233055 
L 201.966611 142.429872 
L 202.432387 142.666081 
L 202.489817 142.695826 
L 202.898164 142.907338 
L 203.36394 143.148601 
L 203.38324 143.158598 
L 203.829716 143.38986 
L 204.27667 143.621369 
L 204.295492 143.631118 
L 204.761269 143.87238 
L 205.170088 144.08414 
L 205.227045 144.113642 
L 205.692821 144.354901 
L 206.063517 144.546912 
L 206.158598 144.596161 
L 206.624374 144.83742 
L 206.956948 145.009683 
L 207.09015 145.078677 
L 207.555927 145.31993 
L 207.850389 145.472454 
L 208.021703 145.561191 
L 208.487479 145.916779 
L 208.506306 145.935225 
L 208.952748 146.397997 
L 208.953255 146.398526 
L 209.413011 146.860768 
L 209.419032 146.866822 
L 209.873311 147.323539 
L 209.884808 147.335098 
L 210.333597 147.786311 
L 210.350584 147.803189 
L 210.807867 148.249082 
L 210.816361 148.257267 
L 211.282137 148.70613 
L 211.288075 148.711853 
L 211.747913 149.154994 
L 211.768283 149.174624 
L 212.213689 149.60387 
L 212.248477 149.637396 
L 212.679466 150.052735 
L 212.724445 150.100167 
L 213.125687 150.562938 
L 213.145242 150.58607 
L 213.516904 151.02571 
L 213.611018 151.133288 
L 213.970072 151.488481 
L 214.076795 151.586312 
L 214.482397 151.951252 
L 214.542571 152.002251 
L 215.008347 152.377852 
L 215.052833 152.414023 
L 215.474124 152.753998 
L 215.626296 152.876795 
L 215.9399 153.129864 
L 216.199767 153.339566 
L 216.405676 153.505727 
L 216.773235 153.802337 
L 216.871452 153.881596 
L 217.337229 154.257461 
L 217.346706 154.265109 
L 217.803005 154.633328 
L 217.920172 154.72788 
L 218.268781 155.009203 
L 218.493638 155.190651 
L 218.734558 155.385061 
L 219.067108 155.653422 
L 219.200334 155.760932 
L 219.640579 156.116194 
L 219.66611 156.136796 
L 220.131886 156.512661 
L 220.214051 156.578965 
L 220.597663 156.888528 
L 220.787522 157.041736 
L 221.063439 157.264393 
L 221.360987 157.504508 
L 221.529215 157.640264 
L 221.934452 157.967279 
L 221.994992 158.016132 
L 222.460768 158.392001 
L 222.507919 158.43005 
L 222.926544 158.767866 
L 223.081392 158.892821 
L 223.392321 159.162946 
L 223.613698 159.355593 
L 223.858097 159.568963 
L 224.143766 159.818364 
L 224.323873 159.975604 
L 224.673832 160.281135 
L 224.789649 160.38225 
L 225.203901 160.743907 
L 225.255426 160.78889 
L 225.721202 161.195532 
L 225.733969 161.206678 
L 226.186978 161.602178 
L 226.264032 161.669449 
L 226.652755 162.008819 
L 226.794099 162.13222 
L 227.118531 162.415468 
L 227.324163 162.594992 
L 227.584307 162.884854 
L 227.703103 163.057763 
L 227.972268 163.520534 
L 228.050083 163.654317 
L 228.241438 163.983306 
L 228.510601 164.446077 
L 228.51586 164.455118 
L 228.779766 164.908848 
L 228.981636 165.255921 
L 229.048929 165.371619 
L 229.318071 165.834391 
L 229.447412 166.056819 
L 229.587167 166.297162 
L 229.85626 166.759933 
L 229.913189 166.857833 
L 230.125358 167.222705 
L 230.378965 167.658839 
L 230.394454 167.685476 
L 230.66355 168.148247 
L 230.844741 168.459842 
L 230.932839 168.611018 
L 231.203069 169.07379 
L 231.310518 169.257621 
L 231.47355 169.536561 
L 231.744023 169.999332 
L 231.776294 170.054545 
L 232.014502 170.462104 
L 232.24207 170.851462 
L 232.284978 170.924875 
L 232.555454 171.387646 
L 232.707846 171.648382 
L 232.825928 171.850417 
L 233.096402 172.313189 
L 233.173623 172.470926 
L 233.310677 172.77596 
L 233.397869 173.238731 
L 233.443715 173.701503 
L 233.452982 174.164274 
L 233.473614 174.627045 
L 233.499824 175.089816 
L 233.52603 175.552588 
L 233.55224 176.015359 
L 233.578447 176.47813 
L 233.604661 176.940902 
L 233.630866 177.403673 
L 233.639399 177.554347 
L 233.657073 177.866444 
L 233.683285 178.329215 
L 233.731646 178.791987 
L 233.783368 179.254758 
L 233.835087 179.717529 
L 233.925039 180.180301 
L 234.007421 180.643072 
L 234.038094 181.105843 
L 234.068772 181.568614 
L 234.099446 182.031386 
L 234.105175 182.117826 
L 234.130118 182.494157 
L 234.160796 182.956928 
L 234.191501 183.419699 
L 234.224184 183.882471 
L 234.260292 184.345242 
L 234.299841 184.808013 
L 234.339383 185.270785 
L 234.378933 185.733556 
L 234.418476 186.196327 
L 234.45802 186.659098 
L 234.497568 187.12187 
L 234.537114 187.584641 
L 234.570952 187.980598 
L 234.576661 188.047412 
L 234.616205 188.510184 
L 234.655752 188.972955 
L 234.695301 189.435726 
L 234.734845 189.898497 
L 234.774394 190.361269 
L 234.81394 190.82404 
L 234.853489 191.286811 
L 234.893034 191.749583 
L 234.932578 192.212354 
L 234.972127 192.675125 
L 235.036728 193.118265 
L 235.039733 193.137896 
L 235.11479 193.600668 
L 235.189855 194.063439 
L 235.264916 194.52621 
L 235.329564 194.988982 
L 235.318332 195.451753 
L 235.299756 195.914524 
L 235.333298 196.377295 
L 235.366846 196.840067 
L 235.400394 197.302838 
L 235.433942 197.765609 
L 235.467482 198.228381 
L 235.501026 198.691152 
L 235.495104 199.153923 
L 235.477465 199.616694 
L 235.459827 200.079466 
L 235.44219 200.542237 
L 235.424546 201.005008 
L 235.404705 201.46778 
L 235.358304 201.930551 
L 235.306642 202.393322 
L 235.25498 202.856093 
L 235.203318 203.318865 
L 235.151651 203.781636 
L 235.099992 204.244407 
L 235.063068 204.707179 
L 235.074756 205.16995 
L 235.086443 205.632721 
L 235.098125 206.095492 
L 235.109813 206.558264 
L 235.121492 207.021035 
L 235.133178 207.483806 
L 235.144868 207.946578 
L 235.165323 208.409349 
L 235.230984 208.87212 
L 235.305259 209.334891 
L 235.379534 209.797663 
L 235.453813 210.260434 
L 235.502504 210.563792 
L 235.523317 210.723205 
L 235.541535 211.185977 
L 235.537549 211.648748 
L 235.516053 212.111519 
L 235.502504 212.161715 
L 235.361401 212.57429 
L 235.190927 213.037062 
L 235.043203 213.499833 
L 235.036728 213.523573 
L 234.886577 213.962604 
L 234.71856 214.425376 
L 234.570952 214.88543 
L 234.570022 214.888147 
L 234.418652 215.350918 
L 234.31079 215.813689 
L 234.193004 216.276461 
L 234.105175 216.695887 
L 234.095073 216.739232 
L 233.987206 217.202003 
L 233.879345 217.664775 
L 233.766388 218.127546 
L 233.660344 218.590317 
L 233.639399 218.694221 
L 233.555753 219.053088 
L 233.447893 219.51586 
L 233.29505 219.978631 
L 233.173623 220.264532 
L 233.098503 220.441402 
L 232.90195 220.904174 
L 232.707846 221.361192 
L 232.705403 221.366945 
L 232.508851 221.829716 
L 232.307997 222.292487 
L 232.24207 222.457851 
L 232.115755 222.755259 
L 231.920002 223.21803 
L 231.776294 223.564983 
L 231.728319 223.680801 
L 231.536629 224.143573 
L 231.339813 224.606344 
L 231.310518 224.6857 
L 231.138003 225.069115 
L 230.908992 225.531886 
L 230.844741 225.683286 
L 230.696065 225.994658 
L 230.469089 226.457429 
L 230.378965 226.658755 
L 230.254123 226.9202 
L 229.975608 227.382972 
L 229.913189 227.4559 
L 229.563549 227.845743 
L 229.447412 227.975231 
L 229.14849 228.308514 
L 228.981636 228.494548 
L 228.73343 228.771285 
L 228.51586 229.013868 
L 228.318371 229.234057 
L 228.050083 229.533185 
L 227.903315 229.696828 
L 227.584307 230.052496 
L 227.488246 230.159599 
L 227.118531 230.571822 
L 227.073193 230.622371 
L 226.65813 231.085142 
L 226.652755 231.091135 
L 226.243065 231.547913 
L 226.186978 231.610447 
L 225.828004 232.010684 
L 225.721202 232.129763 
L 225.412947 232.473456 
L 225.255426 232.649085 
L 224.997886 232.936227 
L 224.789649 233.168398 
L 224.582824 233.398998 
L 224.323873 233.687718 
L 224.167767 233.86177 
L 223.858097 234.207042 
L 223.752713 234.324541 
L 223.392321 234.726363 
L 223.337655 234.787312 
L 222.926544 235.245678 
L 222.922593 235.250083 
L 222.507529 235.712855 
L 222.460768 235.76499 
L 222.092472 236.175626 
L 221.994992 236.284311 
L 221.677409 236.638397 
L 221.529215 236.803629 
L 221.26235 237.101169 
L 221.063439 237.323701 
L 220.853604 237.56394 
L 220.597663 237.882961 
L 220.503017 238.026711 
L 220.216156 238.489482 
L 220.131886 238.625426 
L 219.905918 238.952254 
L 219.66611 239.123153 
L 219.210134 239.415025 
L 219.200334 239.420502 
L 218.734558 239.629278 
L 218.268781 239.784431 
L 217.95296 239.877796 
L 217.803005 239.921894 
L 217.337229 240.090713 
L 216.894383 240.340568 
L 216.871452 240.354092 
L 216.405676 240.628804 
L 216.109754 240.803339 
L 215.9399 240.903517 
L 215.474124 241.164551 
L 215.269039 241.26611 
L 215.008347 241.395206 
L 214.542571 241.599124 
L 214.106139 241.728881 
L 214.076795 241.737606 
L 213.611018 241.876097 
L 213.145242 242.014583 
L 212.679466 242.109537 
L 212.213689 242.184479 
L 212.169098 242.191653 
L 211.747913 242.251921 
L 211.282137 242.324916 
L 210.816361 242.405582 
L 210.350584 242.484234 
L 209.884808 242.559173 
L 209.419032 242.634113 
L 209.292791 242.654424 
L 208.953255 242.658438 
L 208.487479 242.668581 
L 208.021703 242.697967 
L 207.555927 242.837939 
L 207.09015 242.960842 
L 206.624374 243.077539 
L 206.378181 243.117195 
L 206.158598 243.11867 
L 205.692821 243.121937 
L 205.227045 243.126272 
L 204.761269 243.130865 
L 204.295492 243.125245 
L 203.829716 243.120765 
z
" clip-path="url(#p73b14a6136)" style="fill: none; stroke: #000000; stroke-width: 1.5"/>
   </g>
   <g id="PathCollection_4">
    <path d="M 202.898164 265.845145 
L 202.600082 265.792988 
L 202.432387 265.763646 
L 201.966611 265.682142 
L 201.500835 265.604081 
L 201.035058 265.567464 
L 200.569282 265.531305 
L 200.103506 265.495134 
L 199.63773 265.458969 
L 199.171953 265.422805 
L 198.706177 265.38664 
L 198.240401 265.350475 
L 197.979472 265.330217 
L 197.774624 265.314313 
L 197.308848 265.278145 
L 196.843072 265.241977 
L 196.377295 265.205814 
L 195.911519 265.169649 
L 195.445743 265.133483 
L 194.979967 265.097323 
L 194.51419 265.061153 
L 194.048414 265.024989 
L 193.582638 264.988828 
L 193.116861 264.952659 
L 192.651085 264.916487 
L 192.487394 264.867446 
L 192.185309 264.771954 
L 191.719533 264.613438 
L 191.253756 264.45492 
L 191.106112 264.404674 
L 190.78798 264.296409 
L 190.322204 264.137893 
L 189.856427 263.979379 
L 189.746311 263.941903 
L 189.390651 263.82086 
L 188.924875 263.662347 
L 188.459098 263.503828 
L 188.38653 263.479132 
L 187.993322 263.34532 
L 187.527546 263.186803 
L 187.06177 263.028295 
L 187.026701 263.016361 
L 186.595993 262.869778 
L 186.130217 262.711262 
L 185.664441 262.558728 
L 185.646354 262.553589 
L 185.198664 262.427899 
L 184.732888 262.297141 
L 184.267112 262.166384 
L 183.997935 262.090818 
L 183.801336 262.035626 
L 183.335559 261.904859 
L 182.869783 261.774096 
L 182.404007 261.632136 
L 182.391615 261.628047 
L 181.93823 261.473794 
L 181.472454 261.315329 
L 181.031409 261.165275 
L 181.006678 261.156861 
L 180.540902 260.998396 
L 180.075125 260.839934 
L 179.671178 260.702504 
L 179.609349 260.681469 
L 179.143573 260.523003 
L 178.677796 260.364538 
L 178.310955 260.239733 
L 178.21202 260.206074 
L 177.746244 260.047607 
L 177.280467 259.889145 
L 176.950724 259.776962 
L 176.814691 259.730681 
L 176.348915 259.572219 
L 175.883139 259.413754 
L 175.590495 259.31419 
L 175.417362 259.255287 
L 174.951586 259.096829 
L 174.48581 258.938358 
L 174.23027 258.851419 
L 174.020033 258.779893 
L 173.554257 258.621426 
L 173.088481 258.46297 
L 172.870038 258.388648 
L 172.622705 258.304497 
L 172.156928 258.146031 
L 171.691152 257.987563 
L 171.509837 257.925876 
L 171.225376 257.829097 
L 170.759599 257.670639 
L 170.293823 257.512176 
L 170.149596 257.463105 
L 169.828047 257.338804 
L 169.36227 257.004816 
L 169.356171 257.000334 
L 168.896494 256.66257 
L 168.726363 256.537563 
L 168.430718 256.320329 
L 168.096545 256.074791 
L 167.964942 255.978094 
L 167.499165 255.635852 
L 167.466731 255.61202 
L 167.033389 255.293606 
L 166.836919 255.149249 
L 166.567613 254.95137 
L 166.207104 254.686477 
L 166.101836 254.60913 
L 165.63606 254.25787 
L 165.591256 254.223706 
L 165.170284 253.902716 
L 164.979161 253.760935 
L 164.704508 253.557955 
L 164.333821 253.298164 
L 164.238731 253.231521 
L 163.772955 252.905096 
L 163.673498 252.835392 
L 163.307179 252.578659 
L 163.014356 252.372621 
L 162.841402 252.250839 
L 162.375626 251.92271 
L 162.35737 251.90985 
L 161.90985 251.576224 
L 161.774907 251.447078 
L 161.444073 251.107599 
L 161.32396 250.984307 
L 160.978297 250.629623 
L 160.872996 250.521536 
L 160.512521 250.151636 
L 160.422053 250.058765 
L 160.046745 249.673658 
L 159.971088 249.595993 
L 159.580968 249.19987 
L 159.50576 249.133222 
L 159.115192 248.818202 
L 158.932009 248.670451 
L 158.649416 248.442467 
L 158.358427 248.207679 
L 158.183639 248.066661 
L 157.785121 247.744908 
L 157.717863 247.690637 
L 157.252087 247.314382 
L 157.212193 247.282137 
L 156.786311 246.937869 
L 156.63821 246.819366 
L 156.320534 246.571384 
L 156.042051 246.356594 
L 155.854758 246.212105 
L 155.442054 245.893823 
L 155.388982 245.852882 
L 154.923205 245.49363 
L 154.841432 245.431052 
L 154.457429 245.143826 
L 154.186987 244.96828 
L 153.991653 244.84861 
L 153.525876 244.562713 
L 153.431988 244.505509 
L 153.0601 244.27879 
L 152.672639 244.042738 
L 152.594324 243.995005 
L 152.128548 243.711062 
L 151.913371 243.579967 
L 151.662771 243.427227 
L 151.196995 243.143326 
L 151.154104 243.117195 
L 150.731219 242.859451 
L 150.394831 242.654424 
L 150.265442 242.575562 
L 149.799666 242.291682 
L 149.635542 242.191653 
L 149.33389 242.002231 
L 148.978089 241.728881 
L 148.868114 241.638102 
L 148.417503 241.26611 
L 148.402337 241.253504 
L 147.936561 240.865994 
L 147.861247 240.803339 
L 147.470785 240.477816 
L 147.306158 240.340568 
L 147.005008 240.094537 
L 146.744953 239.877796 
L 146.539232 239.710447 
L 146.176078 239.415025 
L 146.073456 239.331541 
L 145.607679 238.952629 
L 145.607218 238.952254 
L 145.141903 238.573719 
L 145.041633 238.489482 
L 144.676127 238.154762 
L 144.540922 238.026711 
L 144.210351 237.713637 
L 144.052283 237.56394 
L 143.744574 237.272514 
L 143.563657 237.101169 
L 143.278798 236.831383 
L 143.075027 236.638397 
L 142.813022 236.390267 
L 142.586389 236.175626 
L 142.347245 235.949135 
L 142.097759 235.712855 
L 141.881469 235.508016 
L 141.609128 235.250083 
L 141.415693 235.066881 
L 141.120497 234.787312 
L 140.949917 234.625758 
L 140.631864 234.324541 
L 140.48414 234.184635 
L 140.143244 233.86177 
L 140.018364 233.743499 
L 139.654603 233.398998 
L 139.552588 233.302382 
L 139.165975 232.936227 
L 139.086811 232.861252 
L 138.677348 232.473456 
L 138.621035 232.420123 
L 138.188713 232.010684 
L 138.155259 231.979001 
L 137.731643 231.547913 
L 137.689482 231.500431 
L 137.337104 231.085142 
L 137.223706 230.951494 
L 136.944451 230.622371 
L 136.75793 230.402546 
L 136.551793 230.159599 
L 136.292154 229.853595 
L 136.15914 229.696828 
L 135.826377 229.304641 
L 135.766487 229.234057 
L 135.373823 228.771285 
L 135.360601 228.755703 
L 134.981173 228.308514 
L 134.894825 228.206743 
L 134.588519 227.845743 
L 134.429048 227.657797 
L 134.195862 227.382972 
L 133.963272 227.108847 
L 133.803211 226.9202 
L 133.497496 226.5599 
L 133.410549 226.457429 
L 133.03172 226.010952 
L 133.017894 225.994658 
L 132.625238 225.531886 
L 132.565943 225.462004 
L 132.232581 225.069115 
L 132.100167 224.913061 
L 131.839926 224.606344 
L 131.634391 224.364107 
L 131.447269 224.143573 
L 131.168614 223.815156 
L 131.054612 223.680801 
L 130.702838 223.266225 
L 130.661947 223.21803 
L 130.269297 222.755259 
L 130.237062 222.717267 
L 129.87664 222.292487 
L 129.771285 222.168322 
L 129.483988 221.829716 
L 129.305509 221.619364 
L 129.091332 221.366945 
L 128.839733 221.03417 
L 128.74401 220.904174 
L 128.373957 220.492773 
L 128.32547 220.441402 
L 127.90818 219.999293 
L 127.888678 219.978631 
L 127.451891 219.51586 
L 127.442404 219.505487 
L 127.035056 219.053088 
L 126.976628 218.967966 
L 126.717405 218.590317 
L 126.510851 218.289381 
L 126.399774 218.127546 
L 126.082125 217.664775 
L 126.045075 217.610795 
L 125.764495 217.202003 
L 125.579299 216.932194 
L 125.446851 216.739232 
L 125.12922 216.276461 
L 125.113523 216.253592 
L 124.811577 215.813689 
L 124.647746 215.575002 
L 124.504012 215.350918 
L 124.265555 214.888147 
L 124.18197 214.717276 
L 124.039186 214.425376 
L 123.812805 213.962604 
L 123.716194 213.765089 
L 123.586449 213.499833 
L 123.358421 213.037062 
L 123.250417 212.829976 
L 123.113984 212.57429 
L 122.867053 212.111519 
L 122.784641 211.957066 
L 122.620126 211.648748 
L 122.373197 211.185977 
L 122.318865 211.084154 
L 122.126263 210.723205 
L 121.879329 210.260434 
L 121.853088 210.211257 
L 121.632401 209.797663 
L 121.387312 209.338325 
L 121.38548 209.334891 
L 121.138539 208.87212 
L 120.921536 208.465431 
L 120.891611 208.409349 
L 120.604526 207.946578 
L 120.45576 207.712951 
L 120.314212 207.483806 
L 120.029365 207.021035 
L 119.989983 206.956885 
L 119.750507 206.558264 
L 119.524207 206.181585 
L 119.472483 206.095492 
L 119.194476 205.632721 
L 119.058431 205.406275 
L 118.916455 205.16995 
L 118.638442 204.707179 
L 118.592654 204.630965 
L 118.360424 204.244407 
L 118.126878 203.855652 
L 118.082414 203.781636 
L 117.804401 203.318865 
L 117.661102 203.08033 
L 117.526391 202.856093 
L 117.264695 202.393322 
L 117.195326 202.260756 
L 117.02256 201.930551 
L 116.780438 201.46778 
L 116.729549 201.370512 
L 116.538319 201.005008 
L 116.296202 200.542237 
L 116.263773 200.480255 
L 116.054082 200.079466 
L 115.811968 199.616694 
L 115.797997 199.58991 
L 115.58978 199.153923 
L 115.484572 198.691152 
L 115.37936 198.228381 
L 115.33222 198.021051 
L 115.274143 197.765609 
L 115.16894 197.302838 
L 115.063729 196.840067 
L 114.958527 196.377295 
L 114.866444 195.972252 
L 114.85332 195.914524 
L 114.748108 195.451753 
L 114.642895 194.988982 
L 114.537687 194.52621 
L 114.451249 194.063439 
L 114.400668 193.81563 
L 114.356357 193.600668 
L 114.258506 193.137896 
L 114.160657 192.675125 
L 114.065856 192.212354 
L 114.048247 191.749583 
L 114.032619 191.286811 
L 114.017005 190.82404 
L 114.001389 190.361269 
L 113.985771 189.898497 
L 113.970158 189.435726 
L 113.954543 188.972955 
L 113.940217 188.510184 
L 113.938324 188.047412 
L 113.936419 187.584641 
L 113.934891 187.212397 
L 113.93452 187.12187 
L 113.932615 186.659098 
L 113.930716 186.196327 
L 113.92882 185.733556 
L 113.926926 185.270785 
L 113.925016 184.808013 
L 113.923117 184.345242 
L 113.921218 183.882471 
L 113.919322 183.419699 
L 113.91742 182.956928 
L 113.915521 182.494157 
L 113.932398 182.031386 
L 113.934891 182.000083 
L 113.969267 181.568614 
L 114.006129 181.105843 
L 114.042989 180.643072 
L 114.072881 180.180301 
L 114.101997 179.717529 
L 114.131114 179.254758 
L 114.160231 178.791987 
L 114.18935 178.329215 
L 114.218461 177.866444 
L 114.247576 177.403673 
L 114.27669 176.940902 
L 114.305803 176.47813 
L 114.334921 176.015359 
L 114.364034 175.552588 
L 114.393152 175.089816 
L 114.400668 174.970363 
L 114.422268 174.627045 
L 114.451381 174.164274 
L 114.480501 173.701503 
L 114.509616 173.238731 
L 114.538731 172.77596 
L 114.567845 172.313189 
L 114.596959 171.850417 
L 114.645735 171.387646 
L 114.716279 170.924875 
L 114.820856 170.462104 
L 114.866444 170.296942 
L 114.948589 169.999332 
L 115.076328 169.536561 
L 115.204065 169.07379 
L 115.331801 168.611018 
L 115.33222 168.609497 
L 115.459533 168.148247 
L 115.587271 167.685476 
L 115.715009 167.222705 
L 115.797997 166.92205 
L 115.842745 166.759933 
L 115.970484 166.297162 
L 116.09822 165.834391 
L 116.225951 165.371619 
L 116.263773 165.234601 
L 116.353694 164.908848 
L 116.48143 164.446077 
L 116.609169 163.983306 
L 116.729549 163.547165 
L 116.7369 163.520534 
L 116.864639 163.057763 
L 116.992377 162.594992 
L 117.120117 162.13222 
L 117.195326 161.859764 
L 117.24786 161.669449 
L 117.375591 161.206678 
L 117.503328 160.743907 
L 117.631072 160.281135 
L 117.661102 160.210834 
L 117.854081 159.818364 
L 118.126878 159.371841 
L 118.136516 159.355593 
L 118.387227 158.892821 
L 118.592654 158.510328 
L 118.635768 158.43005 
L 118.884307 157.967279 
L 119.058431 157.643078 
L 119.130804 157.504508 
L 119.335911 157.041736 
L 119.524207 156.612333 
L 119.538839 156.578965 
L 119.741783 156.116194 
L 119.944718 155.653422 
L 119.989983 155.550196 
L 120.147647 155.190651 
L 120.350579 154.72788 
L 120.45576 154.488032 
L 120.55352 154.265109 
L 120.756457 153.802337 
L 120.921536 153.42589 
L 120.959391 153.339566 
L 121.162326 152.876795 
L 121.36527 152.414023 
L 121.387312 152.363756 
L 121.568196 151.951252 
L 121.771134 151.488481 
L 121.853088 151.301594 
L 121.973958 151.02571 
L 122.174004 150.562938 
L 122.318865 150.223545 
L 122.371525 150.100167 
L 122.568819 149.637396 
L 122.763391 149.174624 
L 122.784641 149.123881 
L 122.957183 148.711853 
L 123.150981 148.249082 
L 123.250417 148.011636 
L 123.344776 147.786311 
L 123.534683 147.323539 
L 123.711506 146.860768 
L 123.716194 146.84811 
L 123.882883 146.397997 
L 124.054267 145.935225 
L 124.18197 145.590354 
L 124.225629 145.472454 
L 124.397018 145.009683 
L 124.56841 144.546912 
L 124.647746 144.332699 
L 124.739798 144.08414 
L 124.911178 143.621369 
L 125.076587 143.158598 
L 125.113523 143.030893 
L 125.206105 142.695826 
L 125.350552 142.233055 
L 125.521791 141.770284 
L 125.579299 141.627041 
L 125.717571 141.307513 
L 125.945597 140.844741 
L 126.045075 140.610465 
L 126.139547 140.38197 
L 126.330886 139.919199 
L 126.510851 139.483924 
L 126.522219 139.456427 
L 126.713552 138.993656 
L 126.904889 138.530885 
L 126.976628 138.387259 
L 127.161424 138.068114 
L 127.442404 137.651975 
L 127.474944 137.605342 
L 127.860435 137.142571 
L 127.90818 137.089075 
L 128.273459 136.6798 
L 128.373957 136.567199 
L 128.686487 136.217028 
L 128.839733 136.045321 
L 129.099514 135.754257 
L 129.305509 135.523443 
L 129.51253 135.291486 
L 129.771285 135.001564 
L 129.925549 134.828715 
L 130.237062 134.479677 
L 130.338571 134.365943 
L 130.702838 133.957802 
L 130.751595 133.903172 
L 131.16462 133.440401 
L 131.168614 133.435925 
L 131.57764 132.977629 
L 131.634391 132.914041 
L 131.990664 132.514858 
L 132.100167 132.392168 
L 132.403687 132.052087 
L 132.565943 131.870291 
L 132.816718 131.589316 
L 133.03172 131.348418 
L 133.22974 131.126544 
L 133.497496 130.826536 
L 133.642766 130.663773 
L 133.963272 130.304665 
L 134.05579 130.201002 
L 134.429048 129.782785 
L 134.468813 129.73823 
L 134.881843 129.275459 
L 134.894825 129.260915 
L 135.294849 128.812688 
L 135.360601 128.739015 
L 135.707901 128.349917 
L 135.826377 128.217173 
L 136.120922 127.887145 
L 136.292154 127.695289 
L 136.533948 127.424374 
L 136.75793 127.173416 
L 136.946978 126.961603 
L 137.223706 126.651542 
L 137.360001 126.498831 
L 137.689482 126.129663 
L 137.773023 126.03606 
L 138.155259 125.607775 
L 138.186037 125.573289 
L 138.599076 125.110518 
L 138.621035 125.085913 
L 139.012122 124.647746 
L 139.086811 124.564061 
L 139.425136 124.184975 
L 139.552588 124.042171 
L 139.838165 123.722204 
L 140.018364 123.520303 
L 140.251183 123.259432 
L 140.48414 122.998411 
L 140.664206 122.796661 
L 140.949917 122.476551 
L 141.089456 122.33389 
L 141.415693 122.062046 
L 141.669923 121.871119 
L 141.881469 121.712244 
L 142.286127 121.408347 
L 142.347245 121.362448 
L 142.813022 121.012655 
L 142.902342 120.945576 
L 143.278798 120.662851 
L 143.518539 120.482805 
L 143.744574 120.313051 
L 144.13475 120.020033 
L 144.210351 119.963259 
L 144.676127 119.613458 
L 144.750955 119.557262 
L 145.141903 119.263663 
L 145.367157 119.094491 
L 145.607679 118.913857 
L 145.983358 118.63172 
L 146.073456 118.564055 
L 146.539232 118.214265 
L 146.599575 118.168948 
L 147.005008 117.864468 
L 147.215788 117.706177 
L 147.470785 117.514676 
L 147.831992 117.243406 
L 147.936561 117.164874 
L 148.402337 116.815064 
L 148.448181 116.780634 
L 148.868114 116.465268 
L 149.064392 116.317863 
L 149.33389 116.115467 
L 149.68061 115.855092 
L 149.799666 115.765681 
L 150.265442 115.415879 
L 150.296811 115.392321 
L 150.731219 115.06608 
L 150.91302 114.929549 
L 151.196995 114.7333 
L 151.662771 114.524559 
L 151.802261 114.466778 
L 152.128548 114.330915 
L 152.594324 114.133852 
L 152.896464 114.004007 
L 153.0601 113.932238 
L 153.525876 113.727964 
L 153.951684 113.541235 
L 153.991653 113.52355 
L 154.457429 113.316412 
L 154.923205 113.107334 
L 154.987337 113.078464 
L 155.388982 112.897649 
L 155.854758 112.68798 
L 156.015337 112.615693 
L 156.320534 112.476723 
L 156.786311 112.260101 
L 157.016681 112.152922 
L 157.252087 112.043397 
L 157.717863 111.826688 
L 158.011338 111.69015 
L 158.183639 111.609987 
L 158.649416 111.393272 
L 159.006005 111.227379 
L 159.115192 111.176581 
L 159.580968 110.959878 
L 160.00066 110.764608 
L 160.046745 110.743648 
L 160.512521 110.578307 
L 160.978297 110.446466 
L 161.444073 110.325102 
L 161.533347 110.301836 
L 161.90985 110.203719 
L 162.375626 110.098866 
L 162.841402 110.042831 
L 163.307179 109.984286 
L 163.772955 109.92574 
L 164.238731 109.867191 
L 164.462544 109.839065 
L 164.704508 109.808658 
L 165.170284 109.750104 
L 165.63606 109.691564 
L 166.101836 109.633021 
L 166.567613 109.574472 
L 167.033389 109.515926 
L 167.499165 109.45738 
L 167.964942 109.398834 
L 168.144268 109.376294 
L 168.430718 109.34029 
L 168.896494 109.281748 
L 169.36227 109.223199 
L 169.828047 109.164652 
L 170.293823 109.106112 
L 170.759599 109.092151 
L 171.225376 109.102993 
L 171.691152 109.113836 
L 172.156928 109.124682 
L 172.622705 109.135524 
L 173.088481 109.146366 
L 173.554257 109.157203 
L 174.020033 109.168044 
L 174.48581 109.178886 
L 174.951586 109.189729 
L 175.417362 109.200572 
L 175.883139 109.211413 
L 176.348915 109.222256 
L 176.814691 109.233097 
L 177.280467 109.243934 
L 177.746244 109.254781 
L 178.21202 109.265612 
L 178.677796 109.276462 
L 179.143573 109.294967 
L 179.609349 109.338924 
L 180.004921 109.376294 
L 180.075125 109.382926 
L 180.540902 109.426928 
L 181.006678 109.472559 
L 181.472454 109.526102 
L 181.93823 109.590729 
L 182.404007 109.655352 
L 182.869783 109.719973 
L 183.335559 109.784595 
L 183.728132 109.839065 
L 183.801336 109.849222 
L 184.267112 109.913838 
L 184.732888 109.97847 
L 185.198664 110.043098 
L 185.664441 110.107721 
L 186.130217 110.196976 
L 186.555151 110.301836 
L 186.595993 110.311915 
L 187.06177 110.426841 
L 187.527546 110.541783 
L 187.993322 110.656723 
L 188.459098 110.752945 
L 188.534151 110.764608 
L 188.924875 110.825777 
L 189.390651 110.883824 
L 189.856427 110.948671 
L 190.322204 111.067498 
L 190.78798 111.186316 
L 190.959139 111.227379 
L 191.253756 111.297598 
L 191.719533 111.423197 
L 192.185309 111.5488 
L 192.651085 111.674403 
L 192.709483 111.69015 
L 193.116861 111.800005 
L 193.582638 111.925601 
L 194.048414 112.051213 
L 194.425605 112.152922 
L 194.51419 112.176808 
L 194.979967 112.302411 
L 195.445743 112.428012 
L 195.911519 112.553622 
L 196.141717 112.615693 
L 196.377295 112.679213 
L 196.843072 112.804877 
L 197.308848 112.930666 
L 197.774624 113.056461 
L 197.8561 113.078464 
L 198.240401 113.182249 
L 198.706177 113.308033 
L 199.171953 113.433829 
L 199.569699 113.541235 
L 199.63773 113.559606 
L 200.103506 113.6854 
L 200.569282 113.811183 
L 201.035058 113.993149 
L 201.060602 114.004007 
L 201.500835 114.191138 
L 201.966611 114.389135 
L 202.14591 114.466778 
L 202.432387 114.59074 
L 202.898164 114.806902 
L 203.070678 114.929549 
L 203.36394 115.15803 
L 203.664645 115.392321 
L 203.829716 115.520933 
L 204.258581 115.855092 
L 204.295492 115.883852 
L 204.761269 116.246754 
L 204.852536 116.317863 
L 205.227045 116.60966 
L 205.446482 116.780634 
L 205.692821 116.972563 
L 206.040437 117.243406 
L 206.158598 117.33547 
L 206.624374 117.698377 
L 206.634385 117.706177 
L 207.09015 118.061285 
L 207.269646 118.168948 
L 207.555927 118.327111 
L 208.021703 118.522107 
L 208.283532 118.63172 
L 208.487479 118.717101 
L 208.953255 118.912097 
L 209.275708 119.094491 
L 209.419032 119.176177 
L 209.884808 119.472836 
L 210.017359 119.557262 
L 210.350584 119.769518 
L 210.743893 120.020033 
L 210.816361 120.06619 
L 211.282137 120.36286 
L 211.470455 120.482805 
L 211.747913 120.659521 
L 212.197017 120.945576 
L 212.213689 120.956196 
L 212.679466 121.252857 
L 212.923587 121.408347 
L 213.145242 121.549528 
L 213.611018 121.842603 
L 213.66051 121.871119 
L 214.076795 122.10522 
L 214.483422 122.33389 
L 214.542571 122.367153 
L 215.008347 122.629082 
L 215.311248 122.796661 
L 215.474124 122.88619 
L 215.9399 123.135296 
L 216.172018 123.259432 
L 216.405676 123.38439 
L 216.871452 123.633482 
L 217.037349 123.722204 
L 217.337229 123.88258 
L 217.803005 124.162799 
L 217.832224 124.184975 
L 218.268781 124.516663 
L 218.441308 124.647746 
L 218.734558 124.870555 
L 219.050384 125.110518 
L 219.200334 125.224446 
L 219.659469 125.573289 
L 219.66611 125.578335 
L 220.131886 125.932227 
L 220.268548 126.03606 
L 220.597663 126.286117 
L 220.877622 126.498831 
L 221.063439 126.640013 
L 221.486699 126.961603 
L 221.529215 126.993907 
L 221.994992 127.347801 
L 222.095776 127.424374 
L 222.460768 127.701684 
L 222.704861 127.887145 
L 222.926544 128.055578 
L 223.313951 128.349917 
L 223.392321 128.409461 
L 223.858097 128.763357 
L 223.934381 128.812688 
L 224.323873 129.041368 
L 224.789649 129.263734 
L 224.814669 129.275459 
L 225.255426 129.482023 
L 225.721202 129.700304 
L 225.802128 129.73823 
L 226.186978 129.918589 
L 226.652755 130.136881 
L 226.782873 130.201002 
L 227.118531 130.37859 
L 227.584307 130.641947 
L 227.611544 130.663773 
L 228.050083 131.111284 
L 228.064583 131.126544 
L 228.50429 131.589316 
L 228.51586 131.601493 
L 228.943989 132.052087 
L 228.981636 132.091707 
L 229.383718 132.514858 
L 229.447412 132.581894 
L 229.832734 132.977629 
L 229.913189 133.057092 
L 230.303492 133.440401 
L 230.378965 133.51452 
L 230.774713 133.903172 
L 230.844741 133.971945 
L 231.245912 134.365943 
L 231.310518 134.42939 
L 231.717143 134.828715 
L 231.776294 134.885383 
L 232.220869 135.291486 
L 232.24207 135.310449 
L 232.707846 135.727061 
L 232.738252 135.754257 
L 233.173623 136.143667 
L 233.255641 136.217028 
L 233.639399 136.56028 
L 233.773024 136.6798 
L 234.105175 136.976895 
L 234.290406 137.142571 
L 234.570952 137.393502 
L 234.807794 137.605342 
L 235.036728 137.810113 
L 235.32517 138.068114 
L 235.502504 138.226733 
L 235.842543 138.530885 
L 235.96828 138.643347 
L 236.359932 138.993656 
L 236.434057 139.059958 
L 236.87731 139.456427 
L 236.899833 139.476573 
L 237.365609 139.893174 
L 237.394705 139.919199 
L 237.831386 140.309793 
L 237.91208 140.38197 
L 238.297162 140.726403 
L 238.429464 140.844741 
L 238.762938 141.143019 
L 238.94684 141.307513 
L 239.228715 141.559635 
L 239.464228 141.770284 
L 239.694491 141.976242 
L 239.981608 142.233055 
L 240.160267 142.392852 
L 240.499006 142.695826 
L 240.626043 142.809455 
L 241.016374 143.158598 
L 241.09182 143.22608 
L 241.533772 143.621369 
L 241.557596 143.642679 
L 242.023372 144.059302 
L 242.051143 144.08414 
L 242.489149 144.475906 
L 242.564589 144.546912 
L 242.954925 144.923462 
L 243.043939 145.009683 
L 243.420701 145.374616 
L 243.521711 145.472454 
L 243.886477 145.825768 
L 243.999962 145.935225 
L 244.352254 146.273308 
L 244.482417 146.397997 
L 244.81803 146.7195 
L 244.965496 146.860768 
L 245.283806 147.165704 
L 245.44857 147.323539 
L 245.749583 147.611889 
L 245.931651 147.786311 
L 246.215359 148.058099 
L 246.414729 148.249082 
L 246.681135 148.543531 
L 246.804442 148.711853 
L 247.06834 149.174624 
L 247.146912 149.31241 
L 247.332234 149.637396 
L 247.596132 150.100167 
L 247.612688 150.1292 
L 247.860022 150.562938 
L 248.078464 150.945981 
L 248.123931 151.02571 
L 248.387822 151.488481 
L 248.54424 151.762779 
L 248.651717 151.951252 
L 248.91562 152.414023 
L 249.010017 152.579558 
L 249.179514 152.876795 
L 249.443408 153.339566 
L 249.475793 153.396357 
L 249.707305 153.802337 
L 249.941569 154.213165 
L 249.971189 154.265109 
L 250.235094 154.72788 
L 250.407346 155.029946 
L 250.498991 155.190651 
L 250.762891 155.653422 
L 250.873122 155.846721 
L 251.02679 156.116194 
L 251.279062 156.578965 
L 251.338898 156.698824 
L 251.5063 157.041736 
L 251.732232 157.504508 
L 251.804674 157.652904 
L 251.958142 157.967279 
L 252.184055 158.43005 
L 252.270451 158.607022 
L 252.409974 158.892821 
L 252.635902 159.355593 
L 252.736227 159.561087 
L 252.861826 159.818364 
L 253.087745 160.281135 
L 253.202003 160.515192 
L 253.313656 160.743907 
L 253.539579 161.206678 
L 253.66778 161.469278 
L 253.765498 161.669449 
L 253.991421 162.13222 
L 254.133556 162.423376 
L 254.217336 162.594992 
L 254.443262 163.057763 
L 254.599332 163.377457 
L 254.669182 163.520534 
L 254.895105 163.983306 
L 255.065109 164.331544 
L 255.12102 164.446077 
L 255.346943 164.908848 
L 255.530885 165.285637 
L 255.57286 165.371619 
L 255.796894 165.834391 
L 255.996661 166.275625 
L 256.00648 166.297162 
L 256.214209 166.759933 
L 256.421928 167.222705 
L 256.462437 167.312951 
L 256.629655 167.685476 
L 256.777655 168.148247 
L 256.892085 168.611018 
L 256.928214 169.064583 
L 256.92892 169.07379 
L 256.937246 169.536561 
L 256.945562 169.999332 
L 256.953878 170.462104 
L 256.962194 170.924875 
L 256.970503 171.387646 
L 256.978821 171.850417 
L 256.987135 172.313189 
L 256.995448 172.77596 
L 257.003763 173.238731 
L 257.01208 173.701503 
L 257.020396 174.164274 
L 257.028717 174.627045 
L 257.03703 175.089816 
L 257.077352 175.552588 
L 257.147317 176.015359 
L 257.217282 176.47813 
L 257.28725 176.940902 
L 257.360841 177.403673 
L 257.39399 177.564919 
L 257.457773 177.866444 
L 257.555663 178.329215 
L 257.660276 178.791987 
L 257.771085 179.254758 
L 257.859766 179.657865 
L 257.872893 179.717529 
L 257.974704 180.180301 
L 258.076517 180.643072 
L 258.178325 181.105843 
L 258.280131 181.568614 
L 258.325543 181.78974 
L 258.375249 182.031386 
L 258.419403 182.494157 
L 258.463565 182.956928 
L 258.500597 183.419699 
L 258.515312 183.882471 
L 258.525763 184.345242 
L 258.536227 184.808013 
L 258.546684 185.270785 
L 258.557148 185.733556 
L 258.567606 186.196327 
L 258.57807 186.659098 
L 258.588525 187.12187 
L 258.598993 187.584641 
L 258.609444 188.047412 
L 258.619906 188.510184 
L 258.630366 188.972955 
L 258.640829 189.435726 
L 258.65369 189.898497 
L 258.672416 190.361269 
L 258.692378 190.82404 
L 258.712338 191.286811 
L 258.732298 191.749583 
L 258.752267 192.212354 
L 258.772233 192.675125 
L 258.791319 193.117765 
L 258.792187 193.137896 
L 258.812149 193.600668 
L 258.832112 194.063439 
L 258.852071 194.52621 
L 258.87203 194.988982 
L 258.891988 195.451753 
L 258.911952 195.914524 
L 258.931913 196.377295 
L 258.951878 196.840067 
L 258.971837 197.302838 
L 258.991804 197.765609 
L 259.011765 198.228381 
L 258.988584 198.691152 
L 258.922506 199.153923 
L 258.910769 199.616694 
L 258.899021 200.079466 
L 258.887277 200.542237 
L 258.875539 201.005008 
L 258.86379 201.46778 
L 258.829197 201.930551 
L 258.791319 202.24236 
L 258.77298 202.393322 
L 258.716747 202.856093 
L 258.660528 203.318865 
L 258.604301 203.781636 
L 258.551038 204.244407 
L 258.547686 204.707179 
L 258.552049 205.16995 
L 258.556412 205.632721 
L 258.560775 206.095492 
L 258.565135 206.558264 
L 258.569498 207.021035 
L 258.573857 207.483806 
L 258.578215 207.946578 
L 258.58258 208.409349 
L 258.586937 208.87212 
L 258.591295 209.334891 
L 258.595658 209.797663 
L 258.600018 210.260434 
L 258.604378 210.723205 
L 258.608748 211.185977 
L 258.613102 211.648748 
L 258.617467 212.111519 
L 258.621832 212.57429 
L 258.626187 213.037062 
L 258.630544 213.499833 
L 258.634904 213.962604 
L 258.609584 214.425376 
L 258.47043 214.888147 
L 258.33128 215.350918 
L 258.325543 215.37 
L 258.192128 215.813689 
L 258.052976 216.276461 
L 257.913818 216.739232 
L 257.859766 216.91899 
L 257.77467 217.202003 
L 257.635514 217.664775 
L 257.496369 218.127546 
L 257.39399 218.468028 
L 257.357219 218.590317 
L 257.218068 219.053088 
L 257.078917 219.51586 
L 256.939765 219.978631 
L 256.928214 220.017046 
L 256.800611 220.441402 
L 256.661461 220.904174 
L 256.522308 221.366945 
L 256.462437 221.566064 
L 256.383164 221.829716 
L 256.25229 222.292487 
L 256.160187 222.755259 
L 256.077982 223.21803 
L 255.996661 223.67575 
L 255.995764 223.680801 
L 255.913547 224.143573 
L 255.831338 224.606344 
L 255.728748 225.069115 
L 255.570774 225.531886 
L 255.530885 225.644912 
L 255.406696 225.994658 
L 255.242166 226.457429 
L 255.077641 226.9202 
L 255.065109 226.96271 
L 254.947284 227.382972 
L 254.824904 227.845743 
L 254.702523 228.308514 
L 254.599332 228.691876 
L 254.577825 228.771285 
L 254.443168 229.234057 
L 254.308476 229.696828 
L 254.17378 230.159599 
L 254.133556 230.271742 
L 253.996073 230.622371 
L 253.765187 231.085142 
L 253.66778 231.280388 
L 253.534316 231.547913 
L 253.303437 232.010684 
L 253.202003 232.213996 
L 253.072556 232.473456 
L 252.841678 232.936227 
L 252.736227 233.147593 
L 252.610801 233.398998 
L 252.379925 233.86177 
L 252.270451 234.081197 
L 252.149044 234.324541 
L 251.918174 234.787312 
L 251.804674 235.01481 
L 251.687295 235.250083 
L 251.456418 235.712855 
L 251.338898 235.948417 
L 251.225544 236.175626 
L 250.994662 236.638397 
L 250.873122 236.882011 
L 250.761114 237.101169 
L 250.463077 237.56394 
L 250.407346 237.646185 
L 250.149492 238.026711 
L 249.941569 238.333546 
L 249.835901 238.489482 
L 249.524464 238.952254 
L 249.475793 239.026399 
L 249.222803 239.415025 
L 249.010017 239.741896 
L 248.921548 239.877796 
L 248.620287 240.340568 
L 248.54424 240.449133 
L 248.271277 240.803339 
L 248.078464 241.028916 
L 247.875715 241.26611 
L 247.612688 241.573826 
L 247.480152 241.728881 
L 247.146912 242.118746 
L 247.084595 242.191653 
L 246.689018 242.654424 
L 246.681135 242.663646 
L 246.293459 243.117195 
L 246.215359 243.208566 
L 245.897902 243.579967 
L 245.749583 243.753488 
L 245.502339 244.042738 
L 245.283806 244.298399 
L 245.106772 244.505509 
L 244.81803 244.843308 
L 244.71121 244.96828 
L 244.352254 245.38824 
L 244.31566 245.431052 
L 243.920088 245.893823 
L 243.886477 245.933144 
L 243.524519 246.356594 
L 243.420701 246.478052 
L 243.12896 246.819366 
L 242.954925 247.022971 
L 242.7334 247.282137 
L 242.489149 247.567886 
L 242.337832 247.744908 
L 242.023372 248.112784 
L 241.942258 248.207679 
L 241.557596 248.657693 
L 241.546691 248.670451 
L 241.151133 249.133222 
L 241.09182 249.202614 
L 240.755578 249.595993 
L 240.626043 249.747537 
L 240.360014 250.058765 
L 240.160267 250.292453 
L 239.964458 250.521536 
L 239.694491 250.837372 
L 239.568895 250.984307 
L 239.228715 251.382288 
L 239.173334 251.447078 
L 238.777768 251.90985 
L 238.762938 251.927199 
L 238.382205 252.372621 
L 238.297162 252.472116 
L 237.986643 252.835392 
L 237.831386 253.017032 
L 237.591086 253.298164 
L 237.365609 253.561947 
L 237.195521 253.760935 
L 236.899833 254.079906 
L 236.721428 254.223706 
L 236.434057 254.410106 
L 236.007976 254.686477 
L 235.96828 254.712226 
L 235.502504 255.014349 
L 235.306033 255.149249 
L 235.036728 255.348219 
L 234.688613 255.61202 
L 234.570952 255.701186 
L 234.105175 256.054153 
L 234.07794 256.074791 
L 233.639399 256.407121 
L 233.467262 256.537563 
L 233.173623 256.760078 
L 232.856575 257.000334 
L 232.707846 257.113039 
L 232.24207 257.455584 
L 232.231194 257.463105 
L 231.776294 257.775861 
L 231.558094 257.925876 
L 231.310518 258.096089 
L 230.88499 258.388648 
L 230.844741 258.41632 
L 230.378965 258.736554 
L 230.211888 258.851419 
L 229.913189 259.056779 
L 229.538779 259.31419 
L 229.447412 259.377005 
L 228.981636 259.697215 
L 228.865526 259.776962 
L 228.51586 260.017256 
L 228.191853 260.239733 
L 228.050083 260.337078 
L 227.584307 260.628672 
L 227.441948 260.702504 
L 227.118531 260.865495 
L 226.652755 261.100231 
L 226.523687 261.165275 
L 226.186978 261.334962 
L 225.721202 261.569686 
L 225.605398 261.628047 
L 225.255426 261.80443 
L 224.789649 262.03918 
L 224.687186 262.090818 
L 224.323873 262.273907 
L 223.858097 262.490846 
L 223.674561 262.553589 
L 223.392321 262.650075 
L 222.926544 262.809304 
L 222.460768 262.950738 
L 222.221951 263.016361 
L 221.994992 263.078724 
L 221.529215 263.206703 
L 221.063439 263.3347 
L 220.597663 263.462673 
L 220.537766 263.479132 
L 220.131886 263.590644 
L 219.66611 263.718653 
L 219.200334 263.865691 
L 218.880345 263.941903 
L 218.734558 263.975552 
L 218.268781 264.076941 
L 217.803005 264.178306 
L 217.337229 264.279667 
L 216.871452 264.381015 
L 216.762725 264.404674 
L 216.405676 264.482368 
L 215.9399 264.583719 
L 215.474124 264.685075 
L 215.008347 264.786434 
L 214.636051 264.867446 
L 214.542571 264.887787 
L 214.076795 264.989132 
L 213.611018 265.090492 
L 213.145242 265.191843 
L 212.679466 265.293195 
L 212.509324 265.330217 
L 212.213689 265.394544 
L 211.747913 265.488348 
L 211.282137 265.541999 
L 210.816361 265.595655 
L 210.350584 265.649304 
L 209.884808 265.702962 
L 209.419032 265.756611 
L 209.103255 265.792988 
L 208.953255 265.810269 
L 208.487479 265.863923 
L 208.021703 265.917576 
L 207.555927 265.971232 
L 207.09015 266.024884 
L 206.624374 266.078538 
L 206.158598 266.079295 
L 205.692821 266.066925 
L 205.227045 266.054555 
L 204.761269 266.042184 
L 204.295492 266.029814 
L 203.829716 266.008145 
L 203.36394 265.926643 
L 202.898164 265.845145 
z
" clip-path="url(#p73b14a6136)" style="fill: none; stroke: #000000; stroke-width: 1.5"/>
   </g>
   <g id="patch_3">
    <path d="M 45 320.4 
L 45 43.2 
" style="fill: none; stroke: #000000; stroke-width: 0.8; stroke-linejoin: miter; stroke-linecap: square"/>
   </g>
   <g id="patch_4">
    <path d="M 324 320.4 
L 324 43.2 
" style="fill: none; stroke: #000000; stroke-width: 0.8; stroke-linejoin: miter; stroke-linecap: square"/>
   </g>
   <g id="patch_5">
    <path d="M 45 320.4 
L 324 320.4 
" style="fill: none; stroke: #000000; stroke-width: 0.8; stroke-linejoin: miter; stroke-linecap: square"/>
   </g>
   <g id="patch_6">
    <path d="M 45 43.2 
L 324 43.2 
" style="fill: none; stroke: #000000; stroke-width: 0.8; stroke-linejoin: miter; stroke-linecap: square"/>
   </g>
  </g>
 </g>
 <defs>
  <clipPath id="p73b14a6136">
   <rect x="45" y="43.2" width="279" height="277.2"/>
  </clipPath>
 </defs>
</svg>
