<?xml version="1.0" encoding="utf-8" standalone="no"?>
<!DOCTYPE svg PUBLIC "-//W3C//DTD SVG 1.1//EN"
  "http://www.w3.org/Graphics/SVG/1.1/DTD/svg11.dtd">
<svg xmlns:xlink="http://www.w3.org/1999/xlink" width="360pt" height="360pt" viewBox="0 0 360 360" xmlns="http://www.w3.org/2000/svg" version="1.1">
 <metadata>
  <rdf:RDF xmlns:dc="http://purl.org/dc/elements/1.1/" xmlns:cc="http://creativecommons.org/ns#" xmlns:rdf="http://www.w3.org/1999/02/22-rdf-syntax-ns#">
   <cc:Work>
    <dc:type rdf:resource="http://purl.org/dc/dcmitype/StillImage"/>
    <dc:date>2022-04-10T19:53:29.385281</dc:date>
    <dc:format>image/svg+xml</dc:format>
    <dc:creator>
     <cc:Agent>
      <dc:title>Matplotlib v3.5.1, https://matplotlib.org/</dc:title>
     </cc:Agent>
    </dc:creator>
   </cc:Work>
  </rdf:RDF>
 </metadata>
 <defs>
  <style type="text/css">*{stroke-linejoin: round; stroke-linecap: butt}</style>
 </defs>
 <g id="figure_1">
  <g id="patch_1">
   <path d="M 0 360 
L 360 360 
L 360 0 
L 0 0 
z
" style="fill: #ffffff"/>
  </g>
  <g id="axes_1">
   <g id="patch_2">
    <path d="M 45 320.4 
L 324 320.4 
L 324 43.2 
L 45 43.2 
z
" style="fill: #ffffff"/>
   </g>
   <g id="PathCollection_1">
    <defs>
     <path id="m518a3ef950" d="M 0 0.5 
C 0.132602 0.5 0.25979 0.447317 0.353553 0.353553 
C 0.447317 0.25979 0.5 0.132602 0.5 0 
C 0.5 -0.132602 0.447317 -0.25979 0.353553 -0.353553 
C 0.25979 -0.447317 0.132602 -0.5 0 -0.5 
C -0.132602 -0.5 -0.25979 -0.447317 -0.353553 -0.353553 
C -0.447317 -0.25979 -0.5 -0.132602 -0.5 0 
C -0.5 0.132602 -0.447317 0.25979 -0.353553 0.353553 
C -0.25979 0.447317 -0.132602 0.5 0 0.5 
z
" style="stroke: #ff0000"/>
    </defs>
    <g clip-path="url(#p8d05cd06c2)">
     <use xlink:href="#m518a3ef950" x="217.192607" y="181.336455" style="fill: #ff0000; stroke: #ff0000"/>
     <use xlink:href="#m518a3ef950" x="215.598237" y="178.338962" style="fill: #ff0000; stroke: #ff0000"/>
     <use xlink:href="#m518a3ef950" x="214.744139" y="175.451539" style="fill: #ff0000; stroke: #ff0000"/>
     <use xlink:href="#m518a3ef950" x="214.34379" y="172.482462" style="fill: #ff0000; stroke: #ff0000"/>
     <use xlink:href="#m518a3ef950" x="214.084077" y="169.353395" style="fill: #ff0000; stroke: #ff0000"/>
     <use xlink:href="#m518a3ef950" x="213.714879" y="166.069293" style="fill: #ff0000; stroke: #ff0000"/>
     <use xlink:href="#m518a3ef950" x="213.074779" y="162.67631" style="fill: #ff0000; stroke: #ff0000"/>
     <use xlink:href="#m518a3ef950" x="212.074131" y="159.233369" style="fill: #ff0000; stroke: #ff0000"/>
     <use xlink:href="#m518a3ef950" x="210.667283" y="155.801538" style="fill: #ff0000; stroke: #ff0000"/>
     <use xlink:href="#m518a3ef950" x="208.831658" y="152.444354" style="fill: #ff0000; stroke: #ff0000"/>
     <use xlink:href="#m518a3ef950" x="206.556591" y="149.233145" style="fill: #ff0000; stroke: #ff0000"/>
     <use xlink:href="#m518a3ef950" x="203.840865" y="146.252921" style="fill: #ff0000; stroke: #ff0000"/>
     <use xlink:href="#m518a3ef950" x="200.697888" y="143.602681" style="fill: #ff0000; stroke: #ff0000"/>
     <use xlink:href="#m518a3ef950" x="197.164035" y="141.386169" style="fill: #ff0000; stroke: #ff0000"/>
     <use xlink:href="#m518a3ef950" x="193.302872" y="139.697342" style="fill: #ff0000; stroke: #ff0000"/>
     <use xlink:href="#m518a3ef950" x="189.202039" y="138.610307" style="fill: #ff0000; stroke: #ff0000"/>
     <use xlink:href="#m518a3ef950" x="184.966555" y="138.178244" style="fill: #ff0000; stroke: #ff0000"/>
     <use xlink:href="#m518a3ef950" x="180.713722" y="138.435297" style="fill: #ff0000; stroke: #ff0000"/>
     <use xlink:href="#m518a3ef950" x="176.569065" y="139.391789" style="fill: #ff0000; stroke: #ff0000"/>
     <use xlink:href="#m518a3ef950" x="172.657424" y="141.020481" style="fill: #ff0000; stroke: #ff0000"/>
     <use xlink:href="#m518a3ef950" x="169.085107" y="143.242611" style="fill: #ff0000; stroke: #ff0000"/>
     <use xlink:href="#m518a3ef950" x="165.916578" y="145.92639" style="fill: #ff0000; stroke: #ff0000"/>
     <use xlink:href="#m518a3ef950" x="163.155721" y="148.90483" style="fill: #ff0000; stroke: #ff0000"/>
     <use xlink:href="#m518a3ef950" x="160.742233" y="152.009468" style="fill: #ff0000; stroke: #ff0000"/>
     <use xlink:href="#m518a3ef950" x="158.569004" y="155.10921" style="fill: #ff0000; stroke: #ff0000"/>
     <use xlink:href="#m518a3ef950" x="156.519724" y="158.141361" style="fill: #ff0000; stroke: #ff0000"/>
     <use xlink:href="#m518a3ef950" x="154.518708" y="161.123109" style="fill: #ff0000; stroke: #ff0000"/>
     <use xlink:href="#m518a3ef950" x="152.576405" y="164.135255" style="fill: #ff0000; stroke: #ff0000"/>
     <use xlink:href="#m518a3ef950" x="150.807086" y="167.278425" style="fill: #ff0000; stroke: #ff0000"/>
     <use xlink:href="#m518a3ef950" x="149.397817" y="170.616407" style="fill: #ff0000; stroke: #ff0000"/>
     <use xlink:href="#m518a3ef950" x="148.527178" y="174.134975" style="fill: #ff0000; stroke: #ff0000"/>
     <use xlink:href="#m518a3ef950" x="148.263515" y="177.744843" style="fill: #ff0000; stroke: #ff0000"/>
     <use xlink:href="#m518a3ef950" x="148.496104" y="181.336455" style="fill: #ff0000; stroke: #ff0000"/>
     <use xlink:href="#m518a3ef950" x="148.946342" y="184.861248" style="fill: #ff0000; stroke: #ff0000"/>
     <use xlink:href="#m518a3ef950" x="149.266399" y="188.391843" style="fill: #ff0000; stroke: #ff0000"/>
     <use xlink:href="#m518a3ef950" x="149.183154" y="192.1212" style="fill: #ff0000; stroke: #ff0000"/>
     <use xlink:href="#m518a3ef950" x="148.61959" y="196.294729" style="fill: #ff0000; stroke: #ff0000"/>
     <use xlink:href="#m518a3ef950" x="147.739608" y="201.106297" style="fill: #ff0000; stroke: #ff0000"/>
     <use xlink:href="#m518a3ef950" x="146.902326" y="206.606071" style="fill: #ff0000; stroke: #ff0000"/>
     <use xlink:href="#m518a3ef950" x="146.551621" y="212.659381" style="fill: #ff0000; stroke: #ff0000"/>
     <use xlink:href="#m518a3ef950" x="147.087977" y="218.970655" style="fill: #ff0000; stroke: #ff0000"/>
     <use xlink:href="#m518a3ef950" x="148.768682" y="225.159128" style="fill: #ff0000; stroke: #ff0000"/>
     <use xlink:href="#m518a3ef950" x="151.66494" y="230.854299" style="fill: #ff0000; stroke: #ff0000"/>
     <use xlink:href="#m518a3ef950" x="155.679441" y="235.775293" style="fill: #ff0000; stroke: #ff0000"/>
     <use xlink:href="#m518a3ef950" x="160.605699" y="239.769329" style="fill: #ff0000; stroke: #ff0000"/>
     <use xlink:href="#m518a3ef950" x="166.199435" y="242.804216" style="fill: #ff0000; stroke: #ff0000"/>
     <use xlink:href="#m518a3ef950" x="172.235244" y="244.928144" style="fill: #ff0000; stroke: #ff0000"/>
     <use xlink:href="#m518a3ef950" x="178.534681" y="246.219059" style="fill: #ff0000; stroke: #ff0000"/>
     <use xlink:href="#m518a3ef950" x="184.966555" y="246.744087" style="fill: #ff0000; stroke: #ff0000"/>
     <use xlink:href="#m518a3ef950" x="191.430337" y="246.54093" style="fill: #ff0000; stroke: #ff0000"/>
     <use xlink:href="#m518a3ef950" x="197.83675" y="245.621858" style="fill: #ff0000; stroke: #ff0000"/>
     <use xlink:href="#m518a3ef950" x="204.095684" y="243.9899" style="fill: #ff0000; stroke: #ff0000"/>
     <use xlink:href="#m518a3ef950" x="210.111851" y="241.650917" style="fill: #ff0000; stroke: #ff0000"/>
     <use xlink:href="#m518a3ef950" x="215.778976" y="238.61053" style="fill: #ff0000; stroke: #ff0000"/>
     <use xlink:href="#m518a3ef950" x="220.962604" y="234.860788" style="fill: #ff0000; stroke: #ff0000"/>
     <use xlink:href="#m518a3ef950" x="225.474" y="230.376477" style="fill: #ff0000; stroke: #ff0000"/>
     <use xlink:href="#m518a3ef950" x="229.055793" y="225.141246" style="fill: #ff0000; stroke: #ff0000"/>
     <use xlink:href="#m518a3ef950" x="231.408541" y="219.204511" style="fill: #ff0000; stroke: #ff0000"/>
     <use xlink:href="#m518a3ef950" x="232.273638" y="212.742104" style="fill: #ff0000; stroke: #ff0000"/>
     <use xlink:href="#m518a3ef950" x="231.553364" y="206.07697" style="fill: #ff0000; stroke: #ff0000"/>
     <use xlink:href="#m518a3ef950" x="229.412589" y="199.62783" style="fill: #ff0000; stroke: #ff0000"/>
     <use xlink:href="#m518a3ef950" x="226.29689" y="193.792988" style="fill: #ff0000; stroke: #ff0000"/>
     <use xlink:href="#m518a3ef950" x="222.834734" y="188.820308" style="fill: #ff0000; stroke: #ff0000"/>
     <use xlink:href="#m518a3ef950" x="219.653644" y="184.730794" style="fill: #ff0000; stroke: #ff0000"/>
    </g>
   </g>
   <g id="matplotlib.axis_1">
    <g id="xtick_1">
     <g id="line2d_1">
      <defs>
       <path id="m879bdd46f5" d="M 0 0 
L 0 3.5 
" style="stroke: #000000; stroke-width: 0.8"/>
      </defs>
      <g>
       <use xlink:href="#m879bdd46f5" x="45" y="320.4" style="stroke: #000000; stroke-width: 0.8"/>
      </g>
     </g>
     <g id="text_1">
      <!-- −3 -->
      <g transform="translate(37.628906 334.998438)scale(0.1 -0.1)">
       <defs>
        <path id="DejaVuSans-2212" d="M 678 2272 
L 4684 2272 
L 4684 1741 
L 678 1741 
L 678 2272 
z
" transform="scale(0.015625)"/>
        <path id="DejaVuSans-33" d="M 2597 2516 
Q 3050 2419 3304 2112 
Q 3559 1806 3559 1356 
Q 3559 666 3084 287 
Q 2609 -91 1734 -91 
Q 1441 -91 1130 -33 
Q 819 25 488 141 
L 488 750 
Q 750 597 1062 519 
Q 1375 441 1716 441 
Q 2309 441 2620 675 
Q 2931 909 2931 1356 
Q 2931 1769 2642 2001 
Q 2353 2234 1838 2234 
L 1294 2234 
L 1294 2753 
L 1863 2753 
Q 2328 2753 2575 2939 
Q 2822 3125 2822 3475 
Q 2822 3834 2567 4026 
Q 2313 4219 1838 4219 
Q 1578 4219 1281 4162 
Q 984 4106 628 3988 
L 628 4550 
Q 988 4650 1302 4700 
Q 1616 4750 1894 4750 
Q 2613 4750 3031 4423 
Q 3450 4097 3450 3541 
Q 3450 3153 3228 2886 
Q 3006 2619 2597 2516 
z
" transform="scale(0.015625)"/>
       </defs>
       <use xlink:href="#DejaVuSans-2212"/>
       <use xlink:href="#DejaVuSans-33" x="83.789062"/>
      </g>
     </g>
    </g>
    <g id="xtick_2">
     <g id="line2d_2">
      <g>
       <use xlink:href="#m879bdd46f5" x="91.655518" y="320.4" style="stroke: #000000; stroke-width: 0.8"/>
      </g>
     </g>
     <g id="text_2">
      <!-- −2 -->
      <g transform="translate(84.284425 334.998438)scale(0.1 -0.1)">
       <defs>
        <path id="DejaVuSans-32" d="M 1228 531 
L 3431 531 
L 3431 0 
L 469 0 
L 469 531 
Q 828 903 1448 1529 
Q 2069 2156 2228 2338 
Q 2531 2678 2651 2914 
Q 2772 3150 2772 3378 
Q 2772 3750 2511 3984 
Q 2250 4219 1831 4219 
Q 1534 4219 1204 4116 
Q 875 4013 500 3803 
L 500 4441 
Q 881 4594 1212 4672 
Q 1544 4750 1819 4750 
Q 2544 4750 2975 4387 
Q 3406 4025 3406 3419 
Q 3406 3131 3298 2873 
Q 3191 2616 2906 2266 
Q 2828 2175 2409 1742 
Q 1991 1309 1228 531 
z
" transform="scale(0.015625)"/>
       </defs>
       <use xlink:href="#DejaVuSans-2212"/>
       <use xlink:href="#DejaVuSans-32" x="83.789062"/>
      </g>
     </g>
    </g>
    <g id="xtick_3">
     <g id="line2d_3">
      <g>
       <use xlink:href="#m879bdd46f5" x="138.311037" y="320.4" style="stroke: #000000; stroke-width: 0.8"/>
      </g>
     </g>
     <g id="text_3">
      <!-- −1 -->
      <g transform="translate(130.939943 334.998438)scale(0.1 -0.1)">
       <defs>
        <path id="DejaVuSans-31" d="M 794 531 
L 1825 531 
L 1825 4091 
L 703 3866 
L 703 4441 
L 1819 4666 
L 2450 4666 
L 2450 531 
L 3481 531 
L 3481 0 
L 794 0 
L 794 531 
z
" transform="scale(0.015625)"/>
       </defs>
       <use xlink:href="#DejaVuSans-2212"/>
       <use xlink:href="#DejaVuSans-31" x="83.789062"/>
      </g>
     </g>
    </g>
    <g id="xtick_4">
     <g id="line2d_4">
      <g>
       <use xlink:href="#m879bdd46f5" x="184.966555" y="320.4" style="stroke: #000000; stroke-width: 0.8"/>
      </g>
     </g>
     <g id="text_4">
      <!-- 0 -->
      <g transform="translate(181.785305 334.998438)scale(0.1 -0.1)">
       <defs>
        <path id="DejaVuSans-30" d="M 2034 4250 
Q 1547 4250 1301 3770 
Q 1056 3291 1056 2328 
Q 1056 1369 1301 889 
Q 1547 409 2034 409 
Q 2525 409 2770 889 
Q 3016 1369 3016 2328 
Q 3016 3291 2770 3770 
Q 2525 4250 2034 4250 
z
M 2034 4750 
Q 2819 4750 3233 4129 
Q 3647 3509 3647 2328 
Q 3647 1150 3233 529 
Q 2819 -91 2034 -91 
Q 1250 -91 836 529 
Q 422 1150 422 2328 
Q 422 3509 836 4129 
Q 1250 4750 2034 4750 
z
" transform="scale(0.015625)"/>
       </defs>
       <use xlink:href="#DejaVuSans-30"/>
      </g>
     </g>
    </g>
    <g id="xtick_5">
     <g id="line2d_5">
      <g>
       <use xlink:href="#m879bdd46f5" x="231.622074" y="320.4" style="stroke: #000000; stroke-width: 0.8"/>
      </g>
     </g>
     <g id="text_5">
      <!-- 1 -->
      <g transform="translate(228.440824 334.998438)scale(0.1 -0.1)">
       <use xlink:href="#DejaVuSans-31"/>
      </g>
     </g>
    </g>
    <g id="xtick_6">
     <g id="line2d_6">
      <g>
       <use xlink:href="#m879bdd46f5" x="278.277592" y="320.4" style="stroke: #000000; stroke-width: 0.8"/>
      </g>
     </g>
     <g id="text_6">
      <!-- 2 -->
      <g transform="translate(275.096342 334.998438)scale(0.1 -0.1)">
       <use xlink:href="#DejaVuSans-32"/>
      </g>
     </g>
    </g>
   </g>
   <g id="matplotlib.axis_2">
    <g id="ytick_1">
     <g id="line2d_7">
      <defs>
       <path id="m8d11a348c4" d="M 0 0 
L -3.5 0 
" style="stroke: #000000; stroke-width: 0.8"/>
      </defs>
      <g>
       <use xlink:href="#m8d11a348c4" x="45" y="320.4" style="stroke: #000000; stroke-width: 0.8"/>
      </g>
     </g>
     <g id="text_7">
      <!-- −3 -->
      <g transform="translate(23.257812 324.199219)scale(0.1 -0.1)">
       <use xlink:href="#DejaVuSans-2212"/>
       <use xlink:href="#DejaVuSans-33" x="83.789062"/>
      </g>
     </g>
    </g>
    <g id="ytick_2">
     <g id="line2d_8">
      <g>
       <use xlink:href="#m8d11a348c4" x="45" y="274.045485" style="stroke: #000000; stroke-width: 0.8"/>
      </g>
     </g>
     <g id="text_8">
      <!-- −2 -->
      <g transform="translate(23.257812 277.844704)scale(0.1 -0.1)">
       <use xlink:href="#DejaVuSans-2212"/>
       <use xlink:href="#DejaVuSans-32" x="83.789062"/>
      </g>
     </g>
    </g>
    <g id="ytick_3">
     <g id="line2d_9">
      <g>
       <use xlink:href="#m8d11a348c4" x="45" y="227.69097" style="stroke: #000000; stroke-width: 0.8"/>
      </g>
     </g>
     <g id="text_9">
      <!-- −1 -->
      <g transform="translate(23.257812 231.490189)scale(0.1 -0.1)">
       <use xlink:href="#DejaVuSans-2212"/>
       <use xlink:href="#DejaVuSans-31" x="83.789062"/>
      </g>
     </g>
    </g>
    <g id="ytick_4">
     <g id="line2d_10">
      <g>
       <use xlink:href="#m8d11a348c4" x="45" y="181.336455" style="stroke: #000000; stroke-width: 0.8"/>
      </g>
     </g>
     <g id="text_10">
      <!-- 0 -->
      <g transform="translate(31.6375 185.135674)scale(0.1 -0.1)">
       <use xlink:href="#DejaVuSans-30"/>
      </g>
     </g>
    </g>
    <g id="ytick_5">
     <g id="line2d_11">
      <g>
       <use xlink:href="#m8d11a348c4" x="45" y="134.98194" style="stroke: #000000; stroke-width: 0.8"/>
      </g>
     </g>
     <g id="text_11">
      <!-- 1 -->
      <g transform="translate(31.6375 138.781159)scale(0.1 -0.1)">
       <use xlink:href="#DejaVuSans-31"/>
      </g>
     </g>
    </g>
    <g id="ytick_6">
     <g id="line2d_12">
      <g>
       <use xlink:href="#m8d11a348c4" x="45" y="88.627425" style="stroke: #000000; stroke-width: 0.8"/>
      </g>
     </g>
     <g id="text_12">
      <!-- 2 -->
      <g transform="translate(31.6375 92.426643)scale(0.1 -0.1)">
       <use xlink:href="#DejaVuSans-32"/>
      </g>
     </g>
    </g>
   </g>
   <g id="PathCollection_2">
    <path d="M 178.434783 224.007495 
L 178.371452 223.982609 
L 177.501672 223.630477 
L 176.568562 223.141807 
L 176.441173 223.055518 
L 175.635452 222.516832 
L 175.050886 222.128428 
L 174.702341 221.84685 
L 174.079405 221.201338 
L 173.769231 220.802422 
L 173.356564 220.274247 
L 172.83612 219.588423 
L 172.653032 219.347157 
L 171.936663 218.420067 
L 171.90301 218.38042 
L 171.170422 217.492977 
L 170.9699 217.040792 
L 170.801029 216.565886 
L 170.629714 215.638796 
L 170.46345 214.711706 
L 170.291597 213.784615 
L 170.190312 212.857525 
L 170.120216 211.930435 
L 170.036789 211.13003 
L 170.024796 211.003344 
L 169.937999 210.076254 
L 169.843726 209.149164 
L 169.764761 208.222074 
L 169.786707 207.294983 
L 169.871003 206.367893 
L 169.990902 205.440803 
L 170.036789 205.090529 
L 170.112025 204.513712 
L 170.246303 203.586622 
L 170.424534 202.659532 
L 170.625412 201.732441 
L 170.797641 200.805351 
L 170.951296 199.878261 
L 170.9699 199.74968 
L 171.086834 198.951171 
L 171.219536 198.02408 
L 171.385774 197.09699 
L 171.73766 196.1699 
L 171.90301 195.769681 
L 172.103407 195.242809 
L 172.450313 194.315719 
L 172.689021 193.388629 
L 172.747107 192.461538 
L 172.805666 191.534448 
L 172.83612 191.036228 
L 172.862805 190.607358 
L 172.869424 189.680268 
L 172.959631 188.753177 
L 172.906045 187.826087 
L 172.83612 187.218469 
L 172.802416 186.898997 
L 172.704632 185.971906 
L 172.606876 185.044816 
L 172.527645 184.117726 
L 172.434031 183.190635 
L 172.334726 182.263545 
L 172.231115 181.336455 
L 172.327308 180.409365 
L 172.709708 179.482274 
L 172.83612 179.197921 
L 173.121853 178.555184 
L 173.491147 177.628094 
L 173.764319 176.701003 
L 173.769231 176.68278 
L 174.042646 175.773913 
L 174.33778 174.846823 
L 174.514202 173.919732 
L 174.702341 173.037415 
L 174.711893 172.992642 
L 174.910133 172.065552 
L 175.115621 171.138462 
L 175.3233 170.211371 
L 175.599962 169.284281 
L 175.635452 169.210256 
L 176.043177 168.357191 
L 176.480515 167.4301 
L 176.568562 167.241929 
L 176.92286 166.50301 
L 177.501672 165.71445 
L 177.738946 165.57592 
L 178.434783 165.092242 
L 178.927141 164.648829 
L 179.367893 164.232338 
L 179.988438 163.721739 
L 180.301003 163.47867 
L 181.234114 162.94385 
L 182.167224 162.87684 
L 183.100334 162.860197 
L 184.033445 162.941487 
L 184.580952 163.721739 
L 184.966555 164.595583 
L 184.987761 164.648829 
L 185.366136 165.57592 
L 185.783334 166.50301 
L 185.899666 166.760852 
L 186.201322 167.4301 
L 186.597875 168.357191 
L 186.832776 168.863615 
L 187.104409 169.284281 
L 187.765886 170.181559 
L 187.786393 170.211371 
L 188.4367 171.138462 
L 188.698997 171.468903 
L 189.181189 172.065552 
L 189.632107 172.623468 
L 189.911357 172.992642 
L 190.565217 173.823257 
L 190.629701 173.919732 
L 191.252875 174.846823 
L 191.498328 175.24023 
L 191.795777 175.773913 
L 192.125183 176.701003 
L 192.305559 177.628094 
L 192.431438 178.509967 
L 192.437928 178.555184 
L 192.604905 179.482274 
L 192.824613 180.409365 
L 193.060887 181.336455 
L 193.296775 182.263545 
L 193.364548 182.529397 
L 193.534267 183.190635 
L 193.864959 184.117726 
L 194.205436 185.044816 
L 194.297659 185.257577 
L 194.612337 185.971906 
L 195.038332 186.898997 
L 195.230769 187.377899 
L 195.422168 187.826087 
L 195.968656 188.753177 
L 196.16388 189.098275 
L 196.493116 189.680268 
L 197.017673 190.607358 
L 197.09699 190.744502 
L 197.553852 191.534448 
L 198.0301 192.357901 
L 198.09202 192.461538 
L 198.674844 193.388629 
L 198.963211 193.797867 
L 199.339203 194.315719 
L 199.896321 195.037261 
L 200.048084 195.242809 
L 200.776238 196.1699 
L 200.829431 196.231995 
L 201.590541 197.09699 
L 201.762542 197.279428 
L 202.442903 198.02408 
L 202.695652 198.297239 
L 203.287637 198.951171 
L 203.628763 199.49284 
L 203.864718 199.878261 
L 204.293709 200.805351 
L 204.561873 201.519401 
L 204.649597 201.732441 
L 205.009712 202.659532 
L 205.359487 203.586622 
L 205.494983 203.940629 
L 205.721355 204.513712 
L 206.080168 205.440803 
L 206.367666 206.367893 
L 206.428094 206.577399 
L 206.632367 207.294983 
L 206.884228 208.222074 
L 207.12289 209.149164 
L 207.336894 210.076254 
L 207.361204 210.219484 
L 207.494246 211.003344 
L 207.651606 211.930435 
L 207.808962 212.857525 
L 207.966325 213.784615 
L 207.76902 214.711706 
L 207.361204 215.204798 
L 206.971442 215.638796 
L 206.428094 216.279328 
L 206.197586 216.565886 
L 205.494983 217.438803 
L 205.438363 217.492977 
L 204.561873 218.221837 
L 204.322901 218.420067 
L 203.628763 218.927041 
L 202.695652 219.306083 
L 202.590199 219.347157 
L 201.762542 219.671399 
L 200.829431 220.029078 
L 200.204724 220.274247 
L 199.896321 220.40076 
L 198.963211 220.892897 
L 198.37837 221.201338 
L 198.0301 221.384277 
L 197.09699 221.876954 
L 196.620043 222.128428 
L 196.16388 222.347587 
L 195.230769 222.71489 
L 194.297659 222.829323 
L 193.364548 222.862256 
L 192.431438 222.890219 
L 191.498328 222.922483 
L 190.565217 222.9548 
L 189.632107 222.987121 
L 188.698997 222.991712 
L 188.371983 223.055518 
L 187.765886 223.176315 
L 186.832776 223.398247 
L 185.899666 223.59458 
L 184.966555 223.764426 
L 184.033445 223.925118 
L 183.700032 223.982609 
L 183.100334 224.086435 
L 182.167224 224.247879 
L 181.234114 224.409191 
L 180.301003 224.378916 
L 179.367893 224.260059 
L 178.434783 224.007495 
z
" clip-path="url(#p8d05cd06c2)" style="fill: none; stroke-dasharray: 5.55,2.4; stroke-dashoffset: 0; stroke: #000000; stroke-width: 1.5"/>
   </g>
   <g id="PathCollection_3">
    <path d="M 181.234114 246.235136 
L 180.577919 246.232776 
L 180.301003 246.216054 
L 179.367893 246.16668 
L 178.434783 246.065721 
L 177.501672 245.986051 
L 176.568562 245.929171 
L 175.635452 245.915287 
L 174.702341 245.801752 
L 173.769231 245.425004 
L 172.83612 245.309112 
L 172.631169 245.305686 
L 171.90301 245.096914 
L 170.9699 244.942486 
L 170.036789 244.727798 
L 169.103679 244.401149 
L 168.537729 244.378595 
L 168.170569 244.264117 
L 167.237458 244.073023 
L 166.304348 243.838275 
L 165.492358 243.451505 
L 165.371237 243.37069 
L 164.438127 242.893468 
L 163.762677 242.524415 
L 163.505017 242.365964 
L 162.571906 241.874128 
L 162.075925 241.597324 
L 161.638796 241.355948 
L 160.705686 240.771255 
L 160.505378 240.670234 
L 159.772575 240.132274 
L 159.27596 239.743144 
L 158.839465 239.39814 
L 158.188496 238.816054 
L 157.906355 238.562952 
L 157.181944 237.888963 
L 156.973244 237.690383 
L 156.31326 236.961873 
L 156.040134 236.621118 
L 155.539909 236.034783 
L 155.107023 235.528105 
L 154.734084 235.107692 
L 154.173913 234.450064 
L 153.924904 234.180602 
L 153.240803 233.480227 
L 153.022906 233.253512 
L 152.501325 232.326421 
L 152.307692 232.042578 
L 151.872858 231.399331 
L 151.374582 230.516905 
L 151.343652 230.472241 
L 150.720192 229.545151 
L 150.441472 229.100346 
L 150.084829 228.61806 
L 149.58339 227.69097 
L 149.508361 227.603984 
L 148.920196 226.76388 
L 148.575251 226.18029 
L 148.359421 225.836789 
L 148.11394 224.909699 
L 147.930442 223.982609 
L 147.785294 223.055518 
L 147.671746 222.128428 
L 147.64214 221.983348 
L 147.481218 221.201338 
L 147.305988 220.274247 
L 147.149713 219.347157 
L 146.984083 218.420067 
L 146.845994 217.492977 
L 146.777684 216.565886 
L 146.736035 215.638796 
L 146.797708 214.711706 
L 146.851311 213.784615 
L 146.8985 212.857525 
L 146.940362 211.930435 
L 146.947137 211.003344 
L 146.897416 210.076254 
L 146.860721 209.149164 
L 146.833588 208.222074 
L 146.815401 207.294983 
L 146.796381 206.367893 
L 146.750706 205.440803 
L 146.72888 204.513712 
L 146.770702 203.586622 
L 146.87516 202.659532 
L 146.941655 201.732441 
L 146.982857 200.805351 
L 147.019438 199.878261 
L 147.090192 198.951171 
L 147.175626 198.02408 
L 147.439586 197.09699 
L 147.64214 196.70132 
L 147.870534 196.1699 
L 148.079726 195.242809 
L 148.302521 194.315719 
L 148.573653 193.388629 
L 148.565562 192.461538 
L 148.557624 191.534448 
L 148.549823 190.607358 
L 148.542162 189.680268 
L 148.53463 188.753177 
L 148.527236 187.826087 
L 148.516021 186.898997 
L 148.557343 185.971906 
L 148.575251 185.660469 
L 148.610502 185.044816 
L 148.65857 184.117726 
L 148.706628 183.190635 
L 148.77384 182.263545 
L 148.809102 181.336455 
L 148.83737 180.409365 
L 148.861642 179.482274 
L 148.89253 178.555184 
L 148.975841 177.628094 
L 149.053096 176.701003 
L 149.206022 175.773913 
L 149.403629 174.846823 
L 149.508361 174.419996 
L 149.617509 173.919732 
L 149.719176 172.992642 
L 149.809963 172.065552 
L 149.986937 171.138462 
L 150.228827 170.211371 
L 150.441472 169.736838 
L 150.621032 169.284281 
L 151.113869 168.357191 
L 151.374582 168.000939 
L 151.696843 167.4301 
L 152.122177 166.50301 
L 152.307692 166.191451 
L 152.577691 165.57592 
L 152.89978 164.648829 
L 153.240803 164.015351 
L 153.400975 163.721739 
L 153.711752 162.794649 
L 154.151507 161.867559 
L 154.173913 161.827997 
L 154.536881 160.940468 
L 154.946139 160.013378 
L 155.107023 159.681453 
L 155.355035 159.086288 
L 155.776393 158.159197 
L 156.040134 157.817074 
L 156.442613 157.232107 
L 156.973244 156.367144 
L 157.019952 156.305017 
L 157.507373 155.377926 
L 157.906355 154.698863 
L 158.063677 154.450836 
L 158.578232 153.523746 
L 158.839465 153.160352 
L 159.21779 152.596656 
L 159.772575 151.763349 
L 159.846644 151.669565 
L 160.420158 150.742475 
L 160.705686 150.333818 
L 161.055508 149.815385 
L 161.638796 149.150055 
L 161.925609 148.888294 
L 162.571906 148.333332 
L 163.078365 147.961204 
L 163.505017 147.657016 
L 164.421009 147.034114 
L 164.438127 147.020782 
L 165.371237 146.380193 
L 165.777772 146.107023 
L 166.304348 145.763205 
L 167.237458 145.248771 
L 167.333661 145.179933 
L 168.170569 144.668426 
L 168.840951 144.252843 
L 169.103679 144.071595 
L 170.036789 143.456361 
L 170.22667 143.325753 
L 170.9699 142.8832 
L 171.706895 142.398662 
L 171.90301 142.258437 
L 172.83612 141.759682 
L 173.315934 141.471572 
L 173.769231 141.182502 
L 174.702341 140.653814 
L 174.858301 140.544482 
L 175.635452 140.122378 
L 176.568562 139.782618 
L 177.149739 139.617391 
L 177.501672 139.521355 
L 178.434783 139.329757 
L 179.367893 139.153233 
L 180.301003 138.953985 
L 181.234114 138.773052 
L 181.927743 138.690301 
L 182.167224 138.664496 
L 183.100334 138.606557 
L 184.033445 138.661829 
L 184.353166 138.690301 
L 184.966555 138.751795 
L 185.899666 138.837974 
L 186.832776 138.845859 
L 187.765886 138.85342 
L 188.698997 138.860751 
L 189.632107 138.86853 
L 190.565217 138.917431 
L 191.498328 139.093035 
L 192.431438 139.348611 
L 193.066669 139.617391 
L 193.364548 139.752879 
L 194.297659 140.229189 
L 194.859354 140.544482 
L 195.230769 140.746888 
L 196.16388 141.193134 
L 196.750101 141.471572 
L 197.09699 141.635561 
L 198.0301 142.093277 
L 198.609636 142.398662 
L 198.963211 142.585646 
L 199.896321 142.981643 
L 200.785447 143.325753 
L 200.829431 143.352137 
L 201.762542 143.700461 
L 202.695652 144.063405 
L 203.117239 144.252843 
L 203.628763 144.501638 
L 204.467349 145.179933 
L 204.561873 145.277546 
L 205.189395 146.107023 
L 205.494983 146.525586 
L 205.850795 147.034114 
L 206.428094 147.959932 
L 206.428929 147.961204 
L 207.007161 148.888294 
L 207.361204 149.45589 
L 207.603452 149.815385 
L 208.128034 150.742475 
L 208.294314 150.984571 
L 208.671165 151.669565 
L 209.106195 152.596656 
L 209.227425 152.742731 
L 209.673021 153.523746 
L 210.160535 154.450669 
L 210.160582 154.450836 
L 210.479516 155.377926 
L 210.717476 156.305017 
L 210.962872 157.232107 
L 211.093645 157.458611 
L 211.380159 158.159197 
L 211.669579 159.086288 
L 211.919837 160.013378 
L 212.026756 160.204951 
L 212.339687 160.940468 
L 212.609707 161.867559 
L 212.818036 162.794649 
L 212.959866 163.447319 
L 213.025333 163.721739 
L 213.213784 164.648829 
L 213.548436 165.57592 
L 213.892977 166.457977 
L 213.914821 166.50301 
L 214.211539 167.4301 
L 214.514869 168.357191 
L 214.826087 169.226788 
L 214.851856 169.284281 
L 215.193285 170.211371 
L 215.510123 171.138462 
L 215.759197 171.834046 
L 215.856323 172.065552 
L 216.142758 172.992642 
L 216.450691 173.919732 
L 216.692308 174.50791 
L 216.846747 174.846823 
L 217.166259 175.773913 
L 217.493741 176.701003 
L 217.625418 177.068281 
L 217.837566 177.628094 
L 218.151219 178.555184 
L 218.47584 179.482274 
L 218.558528 179.69722 
L 218.824725 180.409365 
L 219.17729 181.336455 
L 219.491639 181.918446 
L 219.692059 182.263545 
L 220.13708 183.190635 
L 220.424749 183.834328 
L 220.555039 184.117726 
L 220.871745 185.044816 
L 221.219218 185.971906 
L 221.35786 186.233668 
L 221.717101 186.898997 
L 222.241696 187.826087 
L 222.29097 187.90202 
L 222.793064 188.753177 
L 223.22408 189.425008 
L 223.409346 189.680268 
L 223.99905 190.607358 
L 224.157191 190.806074 
L 224.712505 191.534448 
L 225.090301 192.05332 
L 225.434037 192.461538 
L 226.023411 193.345923 
L 226.056146 193.388629 
L 226.716929 194.315719 
L 226.956522 194.655234 
L 227.406773 195.242809 
L 227.889632 195.980997 
L 228.038717 196.1699 
L 228.649278 197.09699 
L 228.822742 197.384958 
L 229.196899 198.02408 
L 229.481462 198.951171 
L 229.755853 199.844184 
L 229.771083 199.878261 
L 230.133005 200.805351 
L 230.35072 201.732441 
L 230.455194 202.659532 
L 230.573515 203.586622 
L 230.688963 204.144205 
L 230.764095 204.513712 
L 230.937416 205.440803 
L 231.039114 206.367893 
L 231.126455 207.294983 
L 231.169901 208.222074 
L 231.224889 209.149164 
L 231.287181 210.076254 
L 231.348111 211.003344 
L 231.398183 211.930435 
L 231.394216 212.857525 
L 231.370314 213.784615 
L 231.351341 214.711706 
L 231.332794 215.638796 
L 231.326434 216.565886 
L 231.266495 217.492977 
L 231.2606 218.420067 
L 231.319998 219.347157 
L 231.315595 220.274247 
L 230.961062 221.201338 
L 230.688963 221.786227 
L 230.533839 222.128428 
L 230.081713 223.055518 
L 229.755853 223.687501 
L 229.616836 223.982609 
L 229.092303 224.909699 
L 228.822742 225.220336 
L 228.295211 225.836789 
L 227.889632 226.317006 
L 227.525021 226.76388 
L 226.956522 227.446156 
L 226.761556 227.69097 
L 226.023411 228.565588 
L 225.97854 228.61806 
L 225.200263 229.545151 
L 225.090301 229.683895 
L 224.492872 230.472241 
L 224.157191 230.904506 
L 223.804858 231.399331 
L 223.22408 232.165432 
L 223.107577 232.326421 
L 222.381036 233.253512 
L 222.29097 233.356078 
L 221.593112 234.180602 
L 221.35786 234.447089 
L 220.802475 235.107692 
L 220.424749 235.531284 
L 219.884533 236.034783 
L 219.491639 236.352608 
L 218.731162 236.961873 
L 218.558528 237.110784 
L 217.697986 237.888963 
L 217.625418 237.954803 
L 216.692308 238.798954 
L 216.674811 238.816054 
L 215.759197 239.47073 
L 215.049209 239.743144 
L 214.826087 239.819447 
L 213.892977 240.236985 
L 212.959866 240.571172 
L 212.761187 240.670234 
L 212.026756 240.988576 
L 211.093645 241.348213 
L 210.401445 241.597324 
L 210.160535 241.64366 
L 209.227425 242.019025 
L 208.294314 242.287114 
L 207.752354 242.524415 
L 207.361204 242.681583 
L 206.428094 243.13066 
L 205.654291 243.451505 
L 205.494983 243.480826 
L 204.561873 243.890524 
L 203.628763 244.188163 
L 203.136442 244.378595 
L 202.695652 244.478729 
L 201.762542 244.833229 
L 200.829431 245.077492 
L 199.896321 245.200244 
L 199.292414 245.305686 
L 198.963211 245.315046 
L 198.0301 245.40827 
L 197.09699 245.606599 
L 196.16388 245.725246 
L 195.230769 245.832801 
L 194.297659 245.93402 
L 193.364548 246.0141 
L 192.431438 246.117827 
L 191.642775 246.232776 
L 191.498328 246.235969 
L 190.565217 246.316854 
L 189.632107 246.558853 
L 188.698997 246.729553 
L 187.765886 246.87821 
L 186.832776 246.830576 
L 185.899666 246.755244 
L 184.966555 246.661613 
L 184.033445 246.563017 
L 183.100334 246.355823 
L 182.167224 246.257844 
L 181.234114 246.235136 
z
" clip-path="url(#p8d05cd06c2)" style="fill: none; stroke: #000000; stroke-width: 1.5"/>
   </g>
   <g id="PathCollection_4">
    <path d="M 186.832776 269.470729 
L 180.301003 268.356103 
L 170.036789 267.359427 
L 165.371237 266.500194 
L 156.040134 264.3235 
L 154.173913 263.506137 
L 152.307692 262.486787 
L 150.077814 261.066221 
L 146.531374 258.28495 
L 143.909699 256.076228 
L 138.069832 250.868227 
L 134.276671 247.159866 
L 133.540015 246.232776 
L 130.460171 240.670234 
L 127.921865 236.034783 
L 127.501789 235.107692 
L 126.653747 231.399331 
L 125.979084 228.61806 
L 125.247492 225.598706 
L 125.003693 224.909699 
L 123.53876 216.565886 
L 123.424033 211.930435 
L 123.427132 206.367893 
L 123.381271 198.685355 
L 123.402994 198.02408 
L 123.690696 196.1699 
L 123.727675 191.534448 
L 124.205759 188.753177 
L 125.42933 184.117726 
L 125.642605 181.336455 
L 125.79534 178.555184 
L 125.693016 172.065552 
L 127.231535 164.648829 
L 127.66319 162.794649 
L 128.301714 160.940468 
L 129.913043 158.090959 
L 133.645485 150.405585 
L 135.011307 147.034114 
L 141.505258 137.763211 
L 142.717245 135.90903 
L 144.842809 133.03437 
L 146.74687 131.273579 
L 150.608654 128.492308 
L 153.251662 126.638127 
L 156.973244 123.841853 
L 164.648216 120.148495 
L 166.304348 119.565784 
L 170.036789 117.476373 
L 172.83612 116.694763 
L 173.879666 116.440134 
L 180.301003 115.895413 
L 184.966555 115.795549 
L 186.832776 115.790792 
L 192.431438 115.593752 
L 194.297659 115.774202 
L 196.209499 116.440134 
L 198.963211 117.48583 
L 204.561873 119.194036 
L 212.959866 123.499364 
L 214.826087 124.431881 
L 217.625418 126.161115 
L 218.558528 127.044509 
L 223.22408 132.539617 
L 226.023411 135.918004 
L 227.394214 137.763211 
L 229.765488 141.471572 
L 231.763099 146.107023 
L 235.264868 153.523746 
L 235.803362 155.377926 
L 236.340366 157.232107 
L 238.270838 161.867559 
L 239.402749 164.648829 
L 240.581745 169.284281 
L 242.819398 175.202389 
L 244.685619 179.518012 
L 246.081977 182.263545 
L 248.41806 186.932732 
L 252.150502 193.470121 
L 253.083612 195.539104 
L 253.28175 196.1699 
L 254.005795 201.732441 
L 254.201997 205.440803 
L 255.100488 221.201338 
L 255.011222 225.836789 
L 254.747957 226.76388 
L 253.404941 229.545151 
L 252.361049 231.399331 
L 251.217391 233.30032 
L 250.284281 235.130428 
L 248.366321 237.888963 
L 247.207562 239.743144 
L 245.618729 241.687623 
L 243.752508 243.841347 
L 242.469647 245.305686 
L 233.488294 254.804492 
L 230.594272 257.35786 
L 228.181097 259.21204 
L 227.889632 259.374802 
L 220.424749 262.271331 
L 213.892977 264.841117 
L 206.428094 268.02296 
L 202.695652 268.811106 
L 195.230769 270.200281 
L 194.297659 270.300341 
L 186.832776 269.470729 
L 186.832776 269.470729 
" clip-path="url(#p8d05cd06c2)" style="fill: none; stroke: #000000; stroke-width: 1.5"/>
   </g>
   <g id="patch_3">
    <path d="M 45 320.4 
L 45 43.2 
" style="fill: none; stroke: #000000; stroke-width: 0.8; stroke-linejoin: miter; stroke-linecap: square"/>
   </g>
   <g id="patch_4">
    <path d="M 324 320.4 
L 324 43.2 
" style="fill: none; stroke: #000000; stroke-width: 0.8; stroke-linejoin: miter; stroke-linecap: square"/>
   </g>
   <g id="patch_5">
    <path d="M 45 320.4 
L 324 320.4 
" style="fill: none; stroke: #000000; stroke-width: 0.8; stroke-linejoin: miter; stroke-linecap: square"/>
   </g>
   <g id="patch_6">
    <path d="M 45 43.2 
L 324 43.2 
" style="fill: none; stroke: #000000; stroke-width: 0.8; stroke-linejoin: miter; stroke-linecap: square"/>
   </g>
  </g>
 </g>
 <defs>
  <clipPath id="p8d05cd06c2">
   <rect x="45" y="43.2" width="279" height="277.2"/>
  </clipPath>
 </defs>
</svg>
