<?xml version="1.0" encoding="utf-8" standalone="no"?>
<!DOCTYPE svg PUBLIC "-//W3C//DTD SVG 1.1//EN"
  "http://www.w3.org/Graphics/SVG/1.1/DTD/svg11.dtd">
<svg xmlns:xlink="http://www.w3.org/1999/xlink" width="360pt" height="360pt" viewBox="0 0 360 360" xmlns="http://www.w3.org/2000/svg" version="1.1">
 <metadata>
  <rdf:RDF xmlns:dc="http://purl.org/dc/elements/1.1/" xmlns:cc="http://creativecommons.org/ns#" xmlns:rdf="http://www.w3.org/1999/02/22-rdf-syntax-ns#">
   <cc:Work>
    <dc:type rdf:resource="http://purl.org/dc/dcmitype/StillImage"/>
    <dc:date>2022-04-03T22:41:44.516435</dc:date>
    <dc:format>image/svg+xml</dc:format>
    <dc:creator>
     <cc:Agent>
      <dc:title>Matplotlib v3.5.1, https://matplotlib.org/</dc:title>
     </cc:Agent>
    </dc:creator>
   </cc:Work>
  </rdf:RDF>
 </metadata>
 <defs>
  <style type="text/css">*{stroke-linejoin: round; stroke-linecap: butt}</style>
 </defs>
 <g id="figure_1">
  <g id="patch_1">
   <path d="M 0 360 
L 360 360 
L 360 0 
L 0 0 
z
" style="fill: #ffffff"/>
  </g>
  <g id="axes_1">
   <g id="patch_2">
    <path d="M 45 320.4 
L 324 320.4 
L 324 43.2 
L 45 43.2 
z
" style="fill: #ffffff"/>
   </g>
   <g id="PathCollection_1">
    <defs>
     <path id="mf8bd2bcbcb" d="M 0 0.5 
C 0.132602 0.5 0.25979 0.447317 0.353553 0.353553 
C 0.447317 0.25979 0.5 0.132602 0.5 0 
C 0.5 -0.132602 0.447317 -0.25979 0.353553 -0.353553 
C 0.25979 -0.447317 0.132602 -0.5 0 -0.5 
C -0.132602 -0.5 -0.25979 -0.447317 -0.353553 -0.353553 
C -0.447317 -0.25979 -0.5 -0.132602 -0.5 0 
C -0.5 0.132602 -0.447317 0.25979 -0.353553 0.353553 
C -0.25979 0.447317 -0.132602 0.5 0 0.5 
z
" style="stroke: #ff0000"/>
    </defs>
    <g clip-path="url(#pf212391a90)">
     <use xlink:href="#mf8bd2bcbcb" x="230.626721" y="181.568614" style="fill: #ff0000; stroke: #ff0000"/>
     <use xlink:href="#mf8bd2bcbcb" x="228.581939" y="177.277723" style="fill: #ff0000; stroke: #ff0000"/>
     <use xlink:href="#mf8bd2bcbcb" x="226.60617" y="173.293237" style="fill: #ff0000; stroke: #ff0000"/>
     <use xlink:href="#mf8bd2bcbcb" x="224.860502" y="169.474569" style="fill: #ff0000; stroke: #ff0000"/>
     <use xlink:href="#mf8bd2bcbcb" x="223.39185" y="165.658858" style="fill: #ff0000; stroke: #ff0000"/>
     <use xlink:href="#mf8bd2bcbcb" x="222.150151" y="161.697703" style="fill: #ff0000; stroke: #ff0000"/>
     <use xlink:href="#mf8bd2bcbcb" x="221.000711" y="157.491574" style="fill: #ff0000; stroke: #ff0000"/>
     <use xlink:href="#mf8bd2bcbcb" x="219.733283" y="153.02985" style="fill: #ff0000; stroke: #ff0000"/>
     <use xlink:href="#mf8bd2bcbcb" x="218.090834" y="148.425881" style="fill: #ff0000; stroke: #ff0000"/>
     <use xlink:href="#mf8bd2bcbcb" x="215.831653" y="143.919137" style="fill: #ff0000; stroke: #ff0000"/>
     <use xlink:href="#mf8bd2bcbcb" x="212.806345" y="139.824781" style="fill: #ff0000; stroke: #ff0000"/>
     <use xlink:href="#mf8bd2bcbcb" x="209.009253" y="136.443748" style="fill: #ff0000; stroke: #ff0000"/>
     <use xlink:href="#mf8bd2bcbcb" x="204.574284" y="133.976288" style="fill: #ff0000; stroke: #ff0000"/>
     <use xlink:href="#mf8bd2bcbcb" x="199.719341" y="132.483635" style="fill: #ff0000; stroke: #ff0000"/>
     <use xlink:href="#mf8bd2bcbcb" x="194.673978" y="131.913815" style="fill: #ff0000; stroke: #ff0000"/>
     <use xlink:href="#mf8bd2bcbcb" x="189.629877" y="132.16943" style="fill: #ff0000; stroke: #ff0000"/>
     <use xlink:href="#mf8bd2bcbcb" x="184.732888" y="133.173305" style="fill: #ff0000; stroke: #ff0000"/>
     <use xlink:href="#mf8bd2bcbcb" x="180.106135" y="134.895471" style="fill: #ff0000; stroke: #ff0000"/>
     <use xlink:href="#mf8bd2bcbcb" x="175.87694" y="137.333993" style="fill: #ff0000; stroke: #ff0000"/>
     <use xlink:href="#mf8bd2bcbcb" x="172.184899" y="140.47031" style="fill: #ff0000; stroke: #ff0000"/>
     <use xlink:href="#mf8bd2bcbcb" x="169.165639" y="144.228419" style="fill: #ff0000; stroke: #ff0000"/>
     <use xlink:href="#mf8bd2bcbcb" x="166.919675" y="148.457443" style="fill: #ff0000; stroke: #ff0000"/>
     <use xlink:href="#mf8bd2bcbcb" x="165.481406" y="152.942618" style="fill: #ff0000; stroke: #ff0000"/>
     <use xlink:href="#mf8bd2bcbcb" x="164.802408" y="157.439933" style="fill: #ff0000; stroke: #ff0000"/>
     <use xlink:href="#mf8bd2bcbcb" x="164.758462" y="161.723056" style="fill: #ff0000; stroke: #ff0000"/>
     <use xlink:href="#mf8bd2bcbcb" x="165.179934" y="165.625447" style="fill: #ff0000; stroke: #ff0000"/>
     <use xlink:href="#mf8bd2bcbcb" x="165.891883" y="169.060677" style="fill: #ff0000; stroke: #ff0000"/>
     <use xlink:href="#mf8bd2bcbcb" x="166.742821" y="172.014761" style="fill: #ff0000; stroke: #ff0000"/>
     <use xlink:href="#mf8bd2bcbcb" x="167.608269" y="174.521128" style="fill: #ff0000; stroke: #ff0000"/>
     <use xlink:href="#mf8bd2bcbcb" x="168.374714" y="176.638431" style="fill: #ff0000; stroke: #ff0000"/>
     <use xlink:href="#mf8bd2bcbcb" x="168.925809" y="178.444676" style="fill: #ff0000; stroke: #ff0000"/>
     <use xlink:href="#mf8bd2bcbcb" x="169.149455" y="180.043682" style="fill: #ff0000; stroke: #ff0000"/>
     <use xlink:href="#mf8bd2bcbcb" x="168.962227" y="181.568614" style="fill: #ff0000; stroke: #ff0000"/>
     <use xlink:href="#mf8bd2bcbcb" x="168.327643" y="183.173966" style="fill: #ff0000; stroke: #ff0000"/>
     <use xlink:href="#mf8bd2bcbcb" x="167.249821" y="185.023777" style="fill: #ff0000; stroke: #ff0000"/>
     <use xlink:href="#mf8bd2bcbcb" x="165.752015" y="187.289252" style="fill: #ff0000; stroke: #ff0000"/>
     <use xlink:href="#mf8bd2bcbcb" x="163.870604" y="190.154304" style="fill: #ff0000; stroke: #ff0000"/>
     <use xlink:href="#mf8bd2bcbcb" x="161.684128" y="193.80895" style="fill: #ff0000; stroke: #ff0000"/>
     <use xlink:href="#mf8bd2bcbcb" x="159.362937" y="198.410908" style="fill: #ff0000; stroke: #ff0000"/>
     <use xlink:href="#mf8bd2bcbcb" x="157.200908" y="204.017753" style="fill: #ff0000; stroke: #ff0000"/>
     <use xlink:href="#mf8bd2bcbcb" x="155.597549" y="210.515984" style="fill: #ff0000; stroke: #ff0000"/>
     <use xlink:href="#mf8bd2bcbcb" x="154.986714" y="217.580589" style="fill: #ff0000; stroke: #ff0000"/>
     <use xlink:href="#mf8bd2bcbcb" x="155.734116" y="224.688346" style="fill: #ff0000; stroke: #ff0000"/>
     <use xlink:href="#mf8bd2bcbcb" x="158.037261" y="231.190401" style="fill: #ff0000; stroke: #ff0000"/>
     <use xlink:href="#mf8bd2bcbcb" x="161.8601" y="236.432153" style="fill: #ff0000; stroke: #ff0000"/>
     <use xlink:href="#mf8bd2bcbcb" x="166.925386" y="239.893349" style="fill: #ff0000; stroke: #ff0000"/>
     <use xlink:href="#mf8bd2bcbcb" x="172.772181" y="241.311212" style="fill: #ff0000; stroke: #ff0000"/>
     <use xlink:href="#mf8bd2bcbcb" x="178.866292" y="240.748873" style="fill: #ff0000; stroke: #ff0000"/>
     <use xlink:href="#mf8bd2bcbcb" x="184.732888" y="238.58306" style="fill: #ff0000; stroke: #ff0000"/>
     <use xlink:href="#mf8bd2bcbcb" x="190.069986" y="235.407474" style="fill: #ff0000; stroke: #ff0000"/>
     <use xlink:href="#mf8bd2bcbcb" x="194.804668" y="231.876196" style="fill: #ff0000; stroke: #ff0000"/>
     <use xlink:href="#mf8bd2bcbcb" x="199.07255" y="228.535167" style="fill: #ff0000; stroke: #ff0000"/>
     <use xlink:href="#mf8bd2bcbcb" x="203.13011" y="225.69689" style="fill: #ff0000; stroke: #ff0000"/>
     <use xlink:href="#mf8bd2bcbcb" x="207.235912" y="223.397198" style="fill: #ff0000; stroke: #ff0000"/>
     <use xlink:href="#mf8bd2bcbcb" x="211.54654" y="221.43918" style="fill: #ff0000; stroke: #ff0000"/>
     <use xlink:href="#mf8bd2bcbcb" x="216.060856" y="219.495575" style="fill: #ff0000; stroke: #ff0000"/>
     <use xlink:href="#mf8bd2bcbcb" x="220.6207" y="217.224892" style="fill: #ff0000; stroke: #ff0000"/>
     <use xlink:href="#mf8bd2bcbcb" x="224.953778" y="214.364088" style="fill: #ff0000; stroke: #ff0000"/>
     <use xlink:href="#mf8bd2bcbcb" x="228.737074" y="210.781577" style="fill: #ff0000; stroke: #ff0000"/>
     <use xlink:href="#mf8bd2bcbcb" x="231.664659" y="206.492326" style="fill: #ff0000; stroke: #ff0000"/>
     <use xlink:href="#mf8bd2bcbcb" x="233.511583" y="201.643058" style="fill: #ff0000; stroke: #ff0000"/>
     <use xlink:href="#mf8bd2bcbcb" x="234.186821" y="196.473516" style="fill: #ff0000; stroke: #ff0000"/>
     <use xlink:href="#mf8bd2bcbcb" x="233.763006" y="191.258391" style="fill: #ff0000; stroke: #ff0000"/>
     <use xlink:href="#mf8bd2bcbcb" x="232.467343" y="186.239716" style="fill: #ff0000; stroke: #ff0000"/>
    </g>
   </g>
   <g id="matplotlib.axis_1">
    <g id="xtick_1">
     <g id="line2d_1">
      <defs>
       <path id="m967f9e0ad1" d="M 0 0 
L 0 3.5 
" style="stroke: #000000; stroke-width: 0.8"/>
      </defs>
      <g>
       <use xlink:href="#m967f9e0ad1" x="45" y="320.4" style="stroke: #000000; stroke-width: 0.8"/>
      </g>
     </g>
     <g id="text_1">
      <!-- −3 -->
      <g transform="translate(37.628906 334.998438)scale(0.1 -0.1)">
       <defs>
        <path id="DejaVuSans-2212" d="M 678 2272 
L 4684 2272 
L 4684 1741 
L 678 1741 
L 678 2272 
z
" transform="scale(0.015625)"/>
        <path id="DejaVuSans-33" d="M 2597 2516 
Q 3050 2419 3304 2112 
Q 3559 1806 3559 1356 
Q 3559 666 3084 287 
Q 2609 -91 1734 -91 
Q 1441 -91 1130 -33 
Q 819 25 488 141 
L 488 750 
Q 750 597 1062 519 
Q 1375 441 1716 441 
Q 2309 441 2620 675 
Q 2931 909 2931 1356 
Q 2931 1769 2642 2001 
Q 2353 2234 1838 2234 
L 1294 2234 
L 1294 2753 
L 1863 2753 
Q 2328 2753 2575 2939 
Q 2822 3125 2822 3475 
Q 2822 3834 2567 4026 
Q 2313 4219 1838 4219 
Q 1578 4219 1281 4162 
Q 984 4106 628 3988 
L 628 4550 
Q 988 4650 1302 4700 
Q 1616 4750 1894 4750 
Q 2613 4750 3031 4423 
Q 3450 4097 3450 3541 
Q 3450 3153 3228 2886 
Q 3006 2619 2597 2516 
z
" transform="scale(0.015625)"/>
       </defs>
       <use xlink:href="#DejaVuSans-2212"/>
       <use xlink:href="#DejaVuSans-33" x="83.789062"/>
      </g>
     </g>
    </g>
    <g id="xtick_2">
     <g id="line2d_2">
      <g>
       <use xlink:href="#m967f9e0ad1" x="91.577629" y="320.4" style="stroke: #000000; stroke-width: 0.8"/>
      </g>
     </g>
     <g id="text_2">
      <!-- −2 -->
      <g transform="translate(84.206536 334.998438)scale(0.1 -0.1)">
       <defs>
        <path id="DejaVuSans-32" d="M 1228 531 
L 3431 531 
L 3431 0 
L 469 0 
L 469 531 
Q 828 903 1448 1529 
Q 2069 2156 2228 2338 
Q 2531 2678 2651 2914 
Q 2772 3150 2772 3378 
Q 2772 3750 2511 3984 
Q 2250 4219 1831 4219 
Q 1534 4219 1204 4116 
Q 875 4013 500 3803 
L 500 4441 
Q 881 4594 1212 4672 
Q 1544 4750 1819 4750 
Q 2544 4750 2975 4387 
Q 3406 4025 3406 3419 
Q 3406 3131 3298 2873 
Q 3191 2616 2906 2266 
Q 2828 2175 2409 1742 
Q 1991 1309 1228 531 
z
" transform="scale(0.015625)"/>
       </defs>
       <use xlink:href="#DejaVuSans-2212"/>
       <use xlink:href="#DejaVuSans-32" x="83.789062"/>
      </g>
     </g>
    </g>
    <g id="xtick_3">
     <g id="line2d_3">
      <g>
       <use xlink:href="#m967f9e0ad1" x="138.155259" y="320.4" style="stroke: #000000; stroke-width: 0.8"/>
      </g>
     </g>
     <g id="text_3">
      <!-- −1 -->
      <g transform="translate(130.784165 334.998438)scale(0.1 -0.1)">
       <defs>
        <path id="DejaVuSans-31" d="M 794 531 
L 1825 531 
L 1825 4091 
L 703 3866 
L 703 4441 
L 1819 4666 
L 2450 4666 
L 2450 531 
L 3481 531 
L 3481 0 
L 794 0 
L 794 531 
z
" transform="scale(0.015625)"/>
       </defs>
       <use xlink:href="#DejaVuSans-2212"/>
       <use xlink:href="#DejaVuSans-31" x="83.789062"/>
      </g>
     </g>
    </g>
    <g id="xtick_4">
     <g id="line2d_4">
      <g>
       <use xlink:href="#m967f9e0ad1" x="184.732888" y="320.4" style="stroke: #000000; stroke-width: 0.8"/>
      </g>
     </g>
     <g id="text_4">
      <!-- 0 -->
      <g transform="translate(181.551638 334.998438)scale(0.1 -0.1)">
       <defs>
        <path id="DejaVuSans-30" d="M 2034 4250 
Q 1547 4250 1301 3770 
Q 1056 3291 1056 2328 
Q 1056 1369 1301 889 
Q 1547 409 2034 409 
Q 2525 409 2770 889 
Q 3016 1369 3016 2328 
Q 3016 3291 2770 3770 
Q 2525 4250 2034 4250 
z
M 2034 4750 
Q 2819 4750 3233 4129 
Q 3647 3509 3647 2328 
Q 3647 1150 3233 529 
Q 2819 -91 2034 -91 
Q 1250 -91 836 529 
Q 422 1150 422 2328 
Q 422 3509 836 4129 
Q 1250 4750 2034 4750 
z
" transform="scale(0.015625)"/>
       </defs>
       <use xlink:href="#DejaVuSans-30"/>
      </g>
     </g>
    </g>
    <g id="xtick_5">
     <g id="line2d_5">
      <g>
       <use xlink:href="#m967f9e0ad1" x="231.310518" y="320.4" style="stroke: #000000; stroke-width: 0.8"/>
      </g>
     </g>
     <g id="text_5">
      <!-- 1 -->
      <g transform="translate(228.129268 334.998438)scale(0.1 -0.1)">
       <use xlink:href="#DejaVuSans-31"/>
      </g>
     </g>
    </g>
    <g id="xtick_6">
     <g id="line2d_6">
      <g>
       <use xlink:href="#m967f9e0ad1" x="277.888147" y="320.4" style="stroke: #000000; stroke-width: 0.8"/>
      </g>
     </g>
     <g id="text_6">
      <!-- 2 -->
      <g transform="translate(274.706897 334.998438)scale(0.1 -0.1)">
       <use xlink:href="#DejaVuSans-32"/>
      </g>
     </g>
    </g>
   </g>
   <g id="matplotlib.axis_2">
    <g id="ytick_1">
     <g id="line2d_7">
      <defs>
       <path id="m181c059b4c" d="M 0 0 
L -3.5 0 
" style="stroke: #000000; stroke-width: 0.8"/>
      </defs>
      <g>
       <use xlink:href="#m181c059b4c" x="45" y="320.4" style="stroke: #000000; stroke-width: 0.8"/>
      </g>
     </g>
     <g id="text_7">
      <!-- −3 -->
      <g transform="translate(23.257812 324.199219)scale(0.1 -0.1)">
       <use xlink:href="#DejaVuSans-2212"/>
       <use xlink:href="#DejaVuSans-33" x="83.789062"/>
      </g>
     </g>
    </g>
    <g id="ytick_2">
     <g id="line2d_8">
      <g>
       <use xlink:href="#m181c059b4c" x="45" y="274.122871" style="stroke: #000000; stroke-width: 0.8"/>
      </g>
     </g>
     <g id="text_8">
      <!-- −2 -->
      <g transform="translate(23.257812 277.92209)scale(0.1 -0.1)">
       <use xlink:href="#DejaVuSans-2212"/>
       <use xlink:href="#DejaVuSans-32" x="83.789062"/>
      </g>
     </g>
    </g>
    <g id="ytick_3">
     <g id="line2d_9">
      <g>
       <use xlink:href="#m181c059b4c" x="45" y="227.845743" style="stroke: #000000; stroke-width: 0.8"/>
      </g>
     </g>
     <g id="text_9">
      <!-- −1 -->
      <g transform="translate(23.257812 231.644962)scale(0.1 -0.1)">
       <use xlink:href="#DejaVuSans-2212"/>
       <use xlink:href="#DejaVuSans-31" x="83.789062"/>
      </g>
     </g>
    </g>
    <g id="ytick_4">
     <g id="line2d_10">
      <g>
       <use xlink:href="#m181c059b4c" x="45" y="181.568614" style="stroke: #000000; stroke-width: 0.8"/>
      </g>
     </g>
     <g id="text_10">
      <!-- 0 -->
      <g transform="translate(31.6375 185.367833)scale(0.1 -0.1)">
       <use xlink:href="#DejaVuSans-30"/>
      </g>
     </g>
    </g>
    <g id="ytick_5">
     <g id="line2d_11">
      <g>
       <use xlink:href="#m181c059b4c" x="45" y="135.291486" style="stroke: #000000; stroke-width: 0.8"/>
      </g>
     </g>
     <g id="text_11">
      <!-- 1 -->
      <g transform="translate(31.6375 139.090705)scale(0.1 -0.1)">
       <use xlink:href="#DejaVuSans-31"/>
      </g>
     </g>
    </g>
    <g id="ytick_6">
     <g id="line2d_12">
      <g>
       <use xlink:href="#m181c059b4c" x="45" y="89.014357" style="stroke: #000000; stroke-width: 0.8"/>
      </g>
     </g>
     <g id="text_12">
      <!-- 2 -->
      <g transform="translate(31.6375 92.813576)scale(0.1 -0.1)">
       <use xlink:href="#DejaVuSans-32"/>
      </g>
     </g>
    </g>
   </g>
   <g id="PathCollection_2">
    <path d="M 179.143573 212.895894 
L 178.903499 212.57429 
L 178.696569 212.111519 
L 178.796586 211.648748 
L 178.901763 211.185977 
L 179.006943 210.723205 
L 179.10744 210.260434 
L 179.143573 210.048249 
L 179.181878 209.797663 
L 179.331784 209.334891 
L 179.486355 208.87212 
L 179.609349 208.522053 
L 179.651375 208.409349 
L 179.8814 207.946578 
L 180.075125 207.55684 
L 180.111427 207.483806 
L 180.341447 207.021035 
L 180.540902 206.619768 
L 180.571473 206.558264 
L 180.831256 206.095492 
L 181.006678 205.799234 
L 181.105275 205.632721 
L 181.379293 205.16995 
L 181.472454 205.012619 
L 181.653314 204.707179 
L 181.927333 204.244407 
L 181.93823 204.226004 
L 182.201354 203.781636 
L 182.404007 203.439392 
L 182.475374 203.318865 
L 182.746089 202.856093 
L 182.869783 202.629591 
L 183.00341 202.393322 
L 183.247078 201.930551 
L 183.335559 201.760944 
L 183.488497 201.46778 
L 183.729915 201.005008 
L 183.801336 200.868103 
L 183.971333 200.542237 
L 184.212751 200.079466 
L 184.267112 199.975262 
L 184.454168 199.616694 
L 184.699083 199.153923 
L 184.732888 199.092344 
L 184.960446 198.691152 
L 185.198664 198.268154 
L 185.223017 198.228381 
L 185.506367 197.765609 
L 185.664441 197.470242 
L 185.747227 197.302838 
L 185.96271 196.840067 
L 186.130217 196.471396 
L 186.173087 196.377295 
L 186.382657 195.914524 
L 186.592367 195.451753 
L 186.595993 195.443851 
L 186.812178 194.988982 
L 187.032119 194.52621 
L 187.06177 194.463823 
L 187.252057 194.063439 
L 187.471997 193.600668 
L 187.527546 193.483793 
L 187.691946 193.137896 
L 187.911887 192.675125 
L 187.993322 192.503782 
L 188.132304 192.212354 
L 188.388582 191.749583 
L 188.459098 191.636514 
L 188.727274 191.286811 
L 188.924875 191.029132 
L 189.082152 190.82404 
L 189.390651 190.416558 
L 189.431617 190.361269 
L 189.765079 189.898497 
L 189.856427 189.771733 
L 190.098554 189.435726 
L 190.322204 189.12536 
L 190.432029 188.972955 
L 190.712357 188.510184 
L 190.78798 188.329667 
L 190.906222 188.047412 
L 191.100084 187.584641 
L 191.253756 187.217805 
L 191.293945 187.12187 
L 191.441239 186.659098 
L 191.557596 186.196327 
L 191.707111 185.733556 
L 191.719533 185.685434 
L 191.794241 185.270785 
L 191.856256 184.808013 
L 191.918265 184.345242 
L 191.980276 183.882471 
L 192.042288 183.419699 
L 192.104303 182.956928 
L 192.166305 182.494157 
L 192.185309 182.412887 
L 192.297267 182.031386 
L 192.604038 181.568614 
L 192.651085 181.497643 
L 192.851114 181.105843 
L 192.910947 180.643072 
L 192.875924 180.180301 
L 192.761049 179.717529 
L 192.651085 179.281468 
L 192.64435 179.254758 
L 192.569832 178.791987 
L 192.53248 178.329215 
L 192.514573 177.866444 
L 192.495573 177.403673 
L 192.560123 176.940902 
L 192.651085 176.7799 
L 192.822597 176.47813 
L 193.0871 176.015359 
L 193.116861 175.963486 
L 193.350061 175.552588 
L 193.582638 175.142777 
L 193.609892 175.089816 
L 193.635994 174.627045 
L 193.654178 174.164274 
L 193.582638 173.971582 
L 193.430761 173.701503 
L 193.139491 173.238731 
L 193.116861 173.203717 
L 192.807184 172.77596 
L 192.651085 172.580941 
L 192.486808 172.313189 
L 192.249072 171.850417 
L 192.185309 171.7263 
L 192.011332 171.387646 
L 191.773596 170.924875 
L 191.719533 170.808515 
L 191.536961 170.462104 
L 191.253756 170.11793 
L 191.149852 169.999332 
L 190.78798 169.58629 
L 190.744412 169.536561 
L 190.338967 169.07379 
L 190.322204 169.054706 
L 189.931198 168.611018 
L 189.856427 168.526396 
L 189.522305 168.148247 
L 189.390651 167.999253 
L 189.113397 167.685476 
L 188.924875 167.472119 
L 188.704496 167.222705 
L 188.459098 166.944966 
L 188.298679 166.759933 
L 187.993322 166.361742 
L 187.955481 166.297162 
L 187.797297 165.834391 
L 187.639105 165.371619 
L 187.527546 165.045243 
L 187.480925 164.908848 
L 187.322737 164.446077 
L 187.173611 163.983306 
L 187.06177 163.60302 
L 187.037217 163.520534 
L 186.895837 163.057763 
L 186.799069 162.594992 
L 186.803609 162.13222 
L 186.825276 161.669449 
L 186.920859 161.206678 
L 187.017033 160.743907 
L 187.06177 160.550698 
L 187.123302 160.281135 
L 187.240245 159.818364 
L 187.358032 159.355593 
L 187.467648 158.892821 
L 187.527546 158.635696 
L 187.57545 158.43005 
L 187.683286 157.967279 
L 187.831134 157.504508 
L 187.993322 157.23519 
L 188.101001 157.041736 
L 188.393857 156.578965 
L 188.459098 156.475869 
L 188.686712 156.116194 
L 188.924875 155.739834 
L 188.979556 155.653422 
L 189.390651 155.285786 
L 189.856427 155.272641 
L 190.322204 155.265349 
L 190.78798 155.264125 
L 191.253756 155.316252 
L 191.719533 155.518084 
L 192.031853 155.653422 
L 192.185309 155.719919 
L 192.651085 155.921737 
L 193.099833 156.116194 
L 193.116861 156.122574 
L 193.582638 156.253384 
L 194.048414 156.363802 
L 194.51419 156.485633 
L 194.893317 156.578965 
L 194.979967 156.597587 
L 195.445743 156.66249 
L 195.911519 156.782094 
L 196.373177 157.041736 
L 196.377295 157.044539 
L 196.843072 157.381999 
L 196.996781 157.504508 
L 197.308848 157.75693 
L 197.56874 157.967279 
L 197.774624 158.18306 
L 197.927978 158.43005 
L 198.07972 158.892821 
L 198.23145 159.355593 
L 198.240401 159.382892 
L 198.383182 159.818364 
L 198.498493 160.281135 
L 198.564222 160.743907 
L 198.610678 161.206678 
L 198.636499 161.669449 
L 198.654249 162.13222 
L 198.666871 162.594992 
L 198.679487 163.057763 
L 198.692113 163.520534 
L 198.704734 163.983306 
L 198.706177 164.036234 
L 198.717352 164.446077 
L 198.733901 164.908848 
L 198.772763 165.371619 
L 198.806283 165.834391 
L 198.836276 166.297162 
L 198.877338 166.759933 
L 198.938849 167.222705 
L 199.006035 167.685476 
L 199.066149 168.148247 
L 199.117408 168.611018 
L 199.171953 168.837878 
L 199.27176 169.07379 
L 199.63773 169.531657 
L 199.641649 169.536561 
L 200.011548 169.999332 
L 200.103506 170.114381 
L 200.381433 170.462104 
L 200.569282 170.697119 
L 200.751332 170.924875 
L 201.035058 171.279837 
L 201.093274 171.387646 
L 201.274149 171.850417 
L 201.442891 172.313189 
L 201.500835 172.472103 
L 201.609389 172.77596 
L 201.771622 173.238731 
L 201.95268 173.701503 
L 201.966611 173.73687 
L 202.138388 174.164274 
L 202.432387 174.494227 
L 202.639384 174.627045 
L 202.898164 174.863592 
L 203.025004 175.089816 
L 203.215192 175.552588 
L 203.36394 175.91453 
L 203.404969 176.015359 
L 203.588535 176.47813 
L 203.764211 176.940902 
L 203.758081 177.403673 
L 203.740327 177.866444 
L 203.722569 178.329215 
L 203.704807 178.791987 
L 203.687051 179.254758 
L 203.669294 179.717529 
L 203.651804 180.180301 
L 203.658203 180.643072 
L 203.673731 181.105843 
L 203.692427 181.568614 
L 203.711127 182.031386 
L 203.829716 182.485077 
L 203.842226 182.494157 
L 204.295492 182.675177 
L 204.761269 182.833524 
L 205.088278 182.956928 
L 205.227045 183.007576 
L 205.692821 183.19292 
L 206.158598 183.378313 
L 206.262581 183.419699 
L 206.624374 183.607038 
L 206.928075 183.882471 
L 207.09015 184.057339 
L 207.356996 184.345242 
L 207.555927 184.559879 
L 207.840295 184.808013 
L 208.021703 184.916893 
L 208.306017 185.270785 
L 208.487479 185.659295 
L 208.520619 185.733556 
L 208.683378 186.196327 
L 208.755029 186.659098 
L 208.824952 187.12187 
L 208.894134 187.584641 
L 208.953255 187.786728 
L 209.048727 188.047412 
L 209.266221 188.510184 
L 209.419032 188.813477 
L 209.500819 188.972955 
L 209.740987 189.435726 
L 209.884808 189.712857 
L 209.96275 189.898497 
L 209.98877 190.361269 
L 210.152044 190.82404 
L 210.350584 191.195918 
L 210.399112 191.286811 
L 210.511661 191.749583 
L 210.350584 191.955113 
L 210.199656 192.212354 
L 209.945775 192.675125 
L 209.884808 192.781414 
L 209.681264 193.137896 
L 209.448553 193.600668 
L 209.419032 193.690158 
L 209.30243 194.063439 
L 209.15787 194.52621 
L 209.013328 194.988982 
L 208.953255 195.181285 
L 208.858318 195.451753 
L 208.653975 195.914524 
L 208.487479 196.332215 
L 208.468903 196.377295 
L 208.293952 196.840067 
L 208.118979 197.302838 
L 208.021703 197.560136 
L 207.931229 197.765609 
L 207.555927 198.064798 
L 207.223678 198.228381 
L 207.09015 198.287052 
L 206.624374 198.491713 
L 206.415386 198.691152 
L 206.158598 198.917519 
L 205.856205 199.153923 
L 205.692821 199.277564 
L 205.262747 199.616694 
L 205.227045 199.641325 
L 204.761269 199.96836 
L 204.605573 200.079466 
L 204.295492 200.263452 
L 203.829716 200.451287 
L 203.605637 200.542237 
L 203.36394 200.639912 
L 202.898164 200.828144 
L 202.460505 201.005008 
L 202.432387 201.016371 
L 201.966611 201.208735 
L 201.500835 201.405394 
L 201.354766 201.46778 
L 201.035058 201.606907 
L 200.569282 201.809591 
L 200.314505 201.930551 
L 200.103506 202.035021 
L 199.63773 202.263835 
L 199.374788 202.393322 
L 199.171953 202.49321 
L 198.706177 202.686999 
L 198.240401 202.850766 
L 198.225249 202.856093 
L 197.774624 203.014538 
L 197.308848 203.178306 
L 196.90909 203.318865 
L 196.843072 203.342078 
L 196.377295 203.505847 
L 195.911519 203.653105 
L 195.556428 203.781636 
L 195.445743 203.817872 
L 194.979967 203.844936 
L 194.51419 203.976177 
L 194.316861 204.244407 
L 194.048414 204.486711 
L 193.860757 204.707179 
L 193.582638 205.022226 
L 193.45223 205.16995 
L 193.116861 205.54986 
L 193.043713 205.632721 
L 192.651085 206.071041 
L 192.626823 206.095492 
L 192.212199 206.558264 
L 192.185309 206.588024 
L 191.766724 207.021035 
L 191.719533 207.067816 
L 191.253756 207.376458 
L 191.102107 207.483806 
L 190.78798 207.669893 
L 190.373337 207.946578 
L 190.322204 207.978307 
L 189.856427 208.239696 
L 189.607866 208.409349 
L 189.390651 208.539918 
L 188.924875 208.825258 
L 188.854803 208.87212 
L 188.459098 209.104791 
L 188.073199 209.334891 
L 187.993322 209.381774 
L 187.527546 209.642894 
L 187.248426 209.797663 
L 187.06177 209.899509 
L 186.595993 210.143206 
L 186.352674 210.260434 
L 186.130217 210.367612 
L 185.664441 210.592019 
L 185.392165 210.723205 
L 185.198664 210.805276 
L 184.732888 211.05993 
L 184.512425 211.185977 
L 184.267112 211.318802 
L 183.801336 211.563449 
L 183.639276 211.648748 
L 183.335559 211.808357 
L 182.885297 212.111519 
L 182.869783 212.121414 
L 182.404007 212.460498 
L 182.202025 212.57429 
L 181.93823 212.75242 
L 181.472454 212.822952 
L 181.006678 212.843006 
L 180.540902 212.863058 
L 180.075125 212.883115 
L 179.609349 212.899874 
L 179.143573 212.895894 
z
" clip-path="url(#pf212391a90)" style="fill: none; stroke-dasharray: 5.55,2.4; stroke-dashoffset: 0; stroke: #000000; stroke-width: 1.5"/>
   </g>
   <g id="PathCollection_3">
    <path d="M 176.814691 241.267293 
L 176.758069 241.26611 
L 176.348915 241.152105 
L 175.883139 241.057663 
L 175.417362 240.98958 
L 174.951586 240.944338 
L 174.48581 240.915324 
L 174.020033 240.89513 
L 173.554257 240.880274 
L 173.088481 240.868879 
L 172.622705 240.859864 
L 172.156928 240.852554 
L 171.691152 240.846507 
L 171.225376 240.84202 
L 170.759599 240.839515 
L 170.293823 240.837371 
L 169.828047 240.835295 
L 169.36227 240.833148 
L 168.896494 240.830589 
L 168.430718 240.822747 
L 168.254214 240.803339 
L 167.964942 240.561454 
L 167.499165 240.353858 
L 167.478557 240.340568 
L 167.033389 239.905736 
L 166.973371 239.877796 
L 166.567613 239.488672 
L 166.101836 239.419157 
L 166.095928 239.415025 
L 165.63606 238.968495 
L 165.608294 238.952254 
L 165.170284 238.526513 
L 165.052545 238.489482 
L 164.704508 238.165879 
L 164.238731 238.035567 
L 164.225319 238.026711 
L 163.772955 237.584356 
L 163.73212 237.56394 
L 163.307179 237.154575 
L 162.877791 237.101169 
L 162.841402 237.072079 
L 162.375626 236.649327 
L 162.357586 236.638397 
L 161.90985 236.202411 
L 161.837528 236.175626 
L 161.444073 235.804538 
L 160.978297 235.71724 
L 160.972051 235.712855 
L 160.512521 235.262123 
L 160.491993 235.250083 
L 160.046745 234.817081 
L 159.953329 234.787312 
L 159.580968 234.440279 
L 159.115192 234.327869 
L 159.110361 234.324541 
L 158.649416 233.872804 
L 158.629711 233.86177 
L 158.183639 233.429029 
L 158.06098 233.398998 
L 157.717863 233.063085 
L 157.654999 232.936227 
L 157.252087 232.502263 
L 157.246069 232.473456 
L 157.233596 232.010684 
L 157.177863 231.547913 
L 156.860336 231.085142 
L 156.786311 230.841927 
L 156.782549 230.622371 
L 156.763447 230.159599 
L 156.521117 229.696828 
L 156.378118 229.234057 
L 156.320534 229.061216 
L 156.31352 228.771285 
L 156.270474 228.308514 
L 156.035776 227.845743 
L 155.892465 227.382972 
L 155.854758 227.258661 
L 155.843191 226.9202 
L 155.684224 226.457429 
L 155.563315 225.994658 
L 155.411904 225.531886 
L 155.388982 225.435644 
L 155.357043 225.069115 
L 155.222991 224.606344 
L 155.089367 224.143573 
L 154.971012 223.680801 
L 154.923205 223.480085 
L 154.872812 223.21803 
L 154.780529 222.755259 
L 154.727022 222.292487 
L 154.655482 221.829716 
L 154.580358 221.366945 
L 154.510645 220.904174 
L 154.457429 220.550904 
L 154.445036 220.441402 
L 154.383845 219.978631 
L 154.313825 219.51586 
L 154.231816 219.053088 
L 154.162101 218.590317 
L 154.092386 218.127546 
L 154.022677 217.664775 
L 153.991653 217.458814 
L 153.959715 217.202003 
L 153.94582 216.739232 
L 153.969633 216.276461 
L 153.981192 215.813689 
L 153.991268 215.350918 
L 153.991653 215.333045 
L 154.003446 214.888147 
L 154.015716 214.425376 
L 154.027983 213.962604 
L 154.040254 213.499833 
L 154.052521 213.037062 
L 154.064789 212.57429 
L 154.077059 212.111519 
L 154.0854 211.648748 
L 154.047629 211.185977 
L 154.089078 210.723205 
L 154.159602 210.260434 
L 154.229582 209.797663 
L 154.299312 209.334891 
L 154.369887 208.87212 
L 154.457429 208.505826 
L 154.485044 208.409349 
L 154.729961 207.946578 
L 154.923205 207.580095 
L 154.974184 207.483806 
L 155.219195 207.021035 
L 155.388982 206.700348 
L 155.464139 206.558264 
L 155.708833 206.095492 
L 155.854758 205.819401 
L 155.953203 205.632721 
L 156.197246 205.16995 
L 156.320534 204.936156 
L 156.441283 204.707179 
L 156.685323 204.244407 
L 156.786311 204.052906 
L 156.929363 203.781636 
L 157.173402 203.318865 
L 157.252087 203.169653 
L 157.417441 202.856093 
L 157.661483 202.393322 
L 157.717863 202.286408 
L 157.90552 201.930551 
L 158.149565 201.46778 
L 158.183639 201.403162 
L 158.393601 201.005008 
L 158.63764 200.542237 
L 158.649416 200.519907 
L 158.881681 200.079466 
L 159.115192 199.636662 
L 159.125722 199.616694 
L 159.369762 199.153923 
L 159.580968 198.753419 
L 159.613804 198.691152 
L 159.857841 198.228381 
L 160.046745 197.87016 
L 160.101878 197.765609 
L 160.345921 197.302838 
L 160.512521 196.986919 
L 160.589964 196.840067 
L 160.833999 196.377295 
L 160.978297 196.103669 
L 161.078043 195.914524 
L 161.322085 195.451753 
L 161.444073 195.220425 
L 161.566121 194.988982 
L 161.810162 194.52621 
L 161.90985 194.337173 
L 162.054201 194.063439 
L 162.298245 193.600668 
L 162.375626 193.453928 
L 162.542284 193.137896 
L 162.78632 192.675125 
L 162.841402 192.570675 
L 163.030361 192.212354 
L 163.22316 191.749583 
L 163.307179 191.493622 
L 163.366307 191.286811 
L 163.516102 190.82404 
L 163.696629 190.361269 
L 163.772955 190.165615 
L 163.877823 189.898497 
L 164.057694 189.435726 
L 164.238465 188.972955 
L 164.238731 188.971662 
L 164.483029 188.510184 
L 164.687664 188.047412 
L 164.704508 187.922445 
L 164.934313 187.584641 
L 165.170284 187.237776 
L 165.249135 187.12187 
L 165.63606 186.780645 
L 165.767316 186.659098 
L 166.101836 186.476077 
L 166.567613 186.221244 
L 166.591879 186.196327 
L 167.033389 185.890591 
L 167.047304 185.733556 
L 167.359193 185.270785 
L 167.499165 185.155766 
L 167.549806 184.808013 
L 167.920477 184.345242 
L 167.964942 184.30641 
L 168.047605 183.882471 
L 168.152441 183.419699 
L 168.430718 183.102425 
L 168.47201 182.956928 
L 168.513042 182.494157 
L 168.557535 182.031386 
L 168.896494 181.578992 
L 168.900783 181.568614 
L 168.967076 181.105843 
L 169.057885 180.643072 
L 169.36227 180.314655 
L 169.401508 180.180301 
L 169.426876 179.717529 
L 169.777716 179.254758 
L 169.404595 178.791987 
L 169.370855 178.329215 
L 169.36227 178.037326 
L 168.896494 177.924486 
L 168.656921 177.866444 
L 168.430718 177.811638 
L 168.2858 177.403673 
L 167.964942 177.140378 
L 167.946034 176.940902 
L 167.917063 176.47813 
L 167.84996 176.015359 
L 167.548407 175.552588 
L 167.499165 175.47295 
L 167.470002 175.089816 
L 167.441087 174.627045 
L 167.404579 174.164274 
L 167.274506 173.701503 
L 167.033389 173.397674 
L 167.003837 173.238731 
L 166.96474 172.77596 
L 166.675292 172.313189 
L 166.567613 172.117835 
L 166.546624 171.850417 
L 166.441029 171.387646 
L 166.101836 171.004919 
L 166.087256 170.924875 
L 166.047738 170.462104 
L 165.67584 169.999332 
L 165.63606 169.943234 
L 165.602699 169.536561 
L 165.445399 169.07379 
L 165.170284 168.757353 
L 165.146752 168.611018 
L 165.094814 168.148247 
L 164.704508 167.701697 
L 164.699371 167.685476 
L 164.666598 167.222705 
L 164.549323 166.759933 
L 164.238731 166.40819 
L 164.217282 166.297162 
L 164.192582 165.834391 
L 164.115212 165.371619 
L 163.865515 164.908848 
L 163.857758 164.446077 
L 163.856302 163.983306 
L 163.871768 163.520534 
L 163.936266 163.057763 
L 164.023657 162.594992 
L 164.075795 162.13222 
L 164.110436 161.669449 
L 164.135117 161.206678 
L 164.17571 160.743907 
L 164.197307 160.281135 
L 164.209001 159.818364 
L 164.216328 159.355593 
L 164.221352 158.892821 
L 164.225036 158.43005 
L 164.227902 157.967279 
L 164.230123 157.504508 
L 164.232449 157.041736 
L 164.236618 156.578965 
L 164.238731 156.30933 
L 164.240539 156.116194 
L 164.245818 155.653422 
L 164.254929 155.190651 
L 164.269183 154.72788 
L 164.659561 154.265109 
L 164.704508 154.1129 
L 164.712143 153.802337 
L 165.094082 153.339566 
L 165.170284 153.188123 
L 165.177262 152.876795 
L 165.468511 152.414023 
L 165.63606 152.144594 
L 165.642487 151.951252 
L 165.753025 151.488481 
L 166.101836 151.080891 
L 166.107796 151.02571 
L 166.174632 150.562938 
L 166.567613 150.132412 
L 166.573169 150.100167 
L 166.620483 149.637396 
L 167.033389 149.197435 
L 167.038595 149.174624 
L 167.075026 148.711853 
L 167.499165 148.266798 
L 167.504064 148.249082 
L 167.533577 147.786311 
L 167.964942 147.33806 
L 167.969569 147.323539 
L 167.994275 146.860768 
L 168.430718 146.410308 
L 168.435103 146.397997 
L 168.456283 145.935225 
L 168.896494 145.483147 
L 168.900663 145.472454 
L 168.919155 145.009683 
L 169.36227 144.556366 
L 169.366243 144.546912 
L 169.382624 144.08414 
L 169.828047 143.630331 
L 169.832061 143.621369 
L 169.846521 143.158598 
L 170.293823 142.704912 
L 170.298125 142.695826 
L 170.310739 142.233055 
L 170.568285 141.770284 
L 170.759599 141.527019 
L 170.775203 141.307513 
L 171.085227 140.844741 
L 171.225376 140.700641 
L 171.691152 140.391732 
L 171.712838 140.38197 
L 172.156928 139.947127 
L 172.622705 139.923041 
L 172.629061 139.919199 
L 173.088481 139.464427 
L 173.110937 139.456427 
L 173.554257 139.021063 
L 174.020033 138.995597 
L 174.023509 138.993656 
L 174.48581 138.536386 
L 174.510464 138.530885 
L 174.951586 138.107162 
L 175.38261 138.068114 
L 175.417362 138.04738 
L 175.883139 137.607906 
L 175.988348 137.605342 
L 176.348915 137.384677 
L 176.632693 137.142571 
L 176.814691 137.017629 
L 177.280467 136.68082 
L 177.304352 136.6798 
L 177.746244 136.382741 
L 177.974947 136.217028 
L 178.21202 136.065186 
L 178.677796 135.889735 
L 179.076233 135.754257 
L 179.143573 135.733776 
L 179.609349 135.578327 
L 180.075125 135.425129 
L 180.478554 135.291486 
L 180.540902 135.272687 
L 181.006678 135.117214 
L 181.472454 134.963506 
L 181.880917 134.828715 
L 181.93823 134.811584 
L 182.404007 134.656096 
L 182.869783 134.502382 
L 183.283222 134.365943 
L 183.335559 134.350433 
L 183.801336 134.170707 
L 184.267112 133.989515 
L 184.489066 133.903172 
L 184.732888 133.811275 
L 185.198664 133.627122 
L 185.664441 133.441128 
L 185.678635 133.440401 
L 186.130217 133.264733 
L 186.595993 133.083535 
L 186.868231 132.977629 
L 187.06177 132.906323 
L 187.527546 132.748956 
L 187.993322 132.667735 
L 188.459098 132.545707 
L 188.870007 132.514858 
L 188.924875 132.505613 
L 189.390651 132.42407 
L 189.856427 132.342847 
L 190.322204 132.261622 
L 190.78798 132.087256 
L 191.253756 132.055368 
L 191.523746 132.052087 
L 191.719533 132.017942 
L 192.185309 131.936722 
L 192.651085 131.857592 
L 193.116861 131.626497 
L 193.582638 131.596539 
L 194.048414 131.603649 
L 194.51419 131.628437 
L 194.979967 131.929013 
L 195.445743 131.987317 
L 195.911519 132.047096 
L 195.942217 132.052087 
L 196.377295 132.054141 
L 196.843072 132.057286 
L 197.308848 132.062196 
L 197.774624 132.070937 
L 198.240401 132.090853 
L 198.706177 132.181381 
L 199.140558 132.514858 
L 199.171953 132.516567 
L 199.63773 132.518124 
L 200.103506 132.520741 
L 200.569282 132.524414 
L 201.035058 132.529949 
L 201.500835 132.539235 
L 201.966611 132.55231 
L 202.432387 132.573174 
L 202.871012 132.977629 
L 202.898164 132.982961 
L 203.36394 132.992918 
L 203.829716 133.066177 
L 204.233783 133.440401 
L 204.295492 133.454132 
L 204.760457 133.903172 
L 204.761269 133.903621 
L 205.227045 133.922132 
L 205.682048 134.365943 
L 205.692821 134.371366 
L 206.158598 134.393453 
L 206.607421 134.828715 
L 206.624374 134.836073 
L 207.09015 134.872505 
L 207.527011 135.291486 
L 207.555927 135.313563 
L 207.995252 135.754257 
L 208.014034 136.217028 
L 208.021703 136.24623 
L 208.437819 136.6798 
L 208.47747 137.142571 
L 208.487479 137.151811 
L 208.947111 137.605342 
L 208.953255 137.610094 
L 209.419032 137.767573 
L 209.743675 138.068114 
L 209.884808 138.103023 
L 210.323445 138.530885 
L 210.350584 138.546161 
L 210.802632 138.993656 
L 210.816361 139.007768 
L 211.264498 139.456427 
L 211.282137 139.491506 
L 211.70615 139.919199 
L 211.747583 140.38197 
L 211.747913 140.382373 
L 212.212083 140.844741 
L 212.213689 140.846508 
L 212.678177 141.307513 
L 212.679466 141.308862 
L 213.144401 141.770284 
L 213.145242 141.771167 
L 213.610677 142.233055 
L 213.611018 142.233415 
L 214.076795 142.688319 
L 214.084362 142.695826 
L 214.542193 143.158598 
L 214.542571 143.159176 
L 215.005628 143.621369 
L 215.008347 143.627704 
L 215.462851 144.08414 
L 215.474124 144.1903 
L 215.800109 144.546912 
L 215.9399 144.699832 
L 216.223152 145.009683 
L 216.405676 145.20935 
L 216.646191 145.472454 
L 216.871452 145.718874 
L 217.069224 145.935225 
L 217.337229 146.228398 
L 217.492267 146.397997 
L 217.803005 146.73792 
L 217.915305 146.860768 
L 218.268781 147.247451 
L 218.344793 147.323539 
L 218.734558 147.474984 
L 219.200334 147.665327 
L 219.396978 147.786311 
L 219.66611 148.027541 
L 219.860989 148.249082 
L 220.131219 148.711853 
L 220.131886 148.712682 
L 220.313712 149.174624 
L 220.490872 149.637396 
L 220.597663 149.896056 
L 220.677998 150.100167 
L 220.859034 150.562938 
L 220.997024 151.02571 
L 221.063439 151.286273 
L 221.086355 151.488481 
L 221.168103 151.951252 
L 221.319688 152.414023 
L 221.463421 152.876795 
L 221.529215 153.132634 
L 221.534783 153.339566 
L 221.548992 153.802337 
L 221.551569 154.265109 
L 221.554863 154.72788 
L 221.55922 155.190651 
L 221.565252 155.653422 
L 221.574163 156.116194 
L 221.588647 156.578965 
L 221.605467 157.041736 
L 221.61341 157.504508 
L 221.62265 157.967279 
L 221.695132 158.43005 
L 221.709506 158.892821 
L 221.745238 159.355593 
L 221.794888 159.818364 
L 221.861416 160.281135 
L 221.955198 160.743907 
L 221.994992 160.895931 
L 222.083484 161.206678 
L 222.215274 161.669449 
L 222.347057 162.13222 
L 222.460768 162.531497 
L 222.478724 162.594992 
L 222.606172 163.057763 
L 222.72791 163.520534 
L 222.842588 163.983306 
L 222.926544 164.322979 
L 222.95697 164.446077 
L 223.071352 164.908848 
L 223.185732 165.371619 
L 223.300118 165.834391 
L 223.392321 166.207426 
L 223.417537 166.297162 
L 223.592062 166.759933 
L 223.858097 167.16926 
L 223.897653 167.222705 
L 224.240159 167.685476 
L 224.323873 167.818692 
L 224.491375 168.148247 
L 224.690183 168.611018 
L 224.789649 168.842562 
L 224.888979 169.07379 
L 225.087787 169.536561 
L 225.255426 169.890448 
L 225.30684 169.999332 
L 225.561024 170.462104 
L 225.721202 170.818697 
L 225.767598 170.924875 
L 225.936192 171.387646 
L 226.149344 171.850417 
L 226.186978 171.932125 
L 226.362496 172.313189 
L 226.592732 172.77596 
L 226.652755 172.885001 
L 226.84826 173.238731 
L 227.104039 173.701503 
L 227.118531 173.727722 
L 227.359818 174.164274 
L 227.584307 174.570432 
L 227.613479 174.627045 
L 227.871376 175.089816 
L 228.050083 175.413144 
L 228.124243 175.552588 
L 228.38293 176.015359 
L 228.51586 176.255862 
L 228.637991 176.47813 
L 228.894489 176.940902 
L 228.981636 177.098578 
L 229.138111 177.403673 
L 229.319114 177.866444 
L 229.447412 178.215442 
L 229.484859 178.329215 
L 229.665222 178.791987 
L 229.861179 179.254758 
L 229.913189 179.374468 
L 230.062239 179.717529 
L 230.264895 180.180301 
L 230.378965 180.40115 
L 230.502657 180.643072 
L 230.743966 181.105843 
L 230.844741 181.299103 
L 230.98528 181.568614 
L 231.22659 182.031386 
L 231.310518 182.206207 
L 231.439389 182.494157 
L 231.621508 182.956928 
L 231.776294 183.350252 
L 231.801683 183.419699 
L 231.985745 183.882471 
L 232.167861 184.345242 
L 232.24207 184.533808 
L 232.349981 184.808013 
L 232.532098 185.270785 
L 232.707846 185.717374 
L 232.713716 185.733556 
L 232.896336 186.196327 
L 233.072918 186.659098 
L 233.157722 187.12187 
L 233.173623 187.208649 
L 233.238985 187.584641 
L 233.32731 188.047412 
L 233.412108 188.510184 
L 233.49691 188.972955 
L 233.581711 189.435726 
L 233.639399 189.750551 
L 233.66165 189.898497 
L 233.737313 190.361269 
L 233.823679 190.82404 
L 233.920904 191.286811 
L 234.005701 191.749583 
L 234.090504 192.212354 
L 234.105175 192.292422 
L 234.158818 192.675125 
L 234.230948 193.137896 
L 234.312486 193.600668 
L 234.405418 194.063439 
L 234.512288 194.52621 
L 234.570952 194.838812 
L 234.590206 194.988982 
L 234.651989 195.451753 
L 234.720826 195.914524 
L 234.690642 196.377295 
L 234.63656 196.840067 
L 234.587913 197.302838 
L 234.570952 197.432958 
L 234.508139 197.765609 
L 234.419559 198.228381 
L 234.342233 198.691152 
L 234.274153 199.153923 
L 234.213749 199.616694 
L 234.159788 200.079466 
L 234.111305 200.542237 
L 234.105175 200.592002 
L 234.03121 201.005008 
L 233.933065 201.46778 
L 233.76312 201.930551 
L 233.639399 202.268498 
L 233.581821 202.393322 
L 233.368354 202.856093 
L 233.173623 203.272824 
L 233.151386 203.318865 
L 232.857457 203.781636 
L 232.707846 204.002817 
L 232.54443 204.244407 
L 232.24207 204.691414 
L 232.231407 204.707179 
L 231.918382 205.16995 
L 231.776294 205.380009 
L 231.605353 205.632721 
L 231.310518 206.068593 
L 231.292322 206.095492 
L 230.979292 206.558264 
L 230.844741 206.757181 
L 230.666265 207.021035 
L 230.378965 207.445772 
L 230.353238 207.483806 
L 230.040224 207.946578 
L 229.913189 208.134381 
L 229.727192 208.409349 
L 229.447412 208.822972 
L 229.414169 208.87212 
L 229.101144 209.334891 
L 228.981636 209.506828 
L 228.783163 209.797663 
L 228.51586 210.165111 
L 228.447945 210.260434 
L 228.10864 210.723205 
L 228.050083 210.803068 
L 227.769332 211.185977 
L 227.584307 211.437965 
L 227.422951 211.648748 
L 227.118531 211.986883 
L 226.994796 212.111519 
L 226.652755 212.441772 
L 226.502058 212.57429 
L 226.186978 212.843807 
L 225.94861 213.037062 
L 225.721202 213.221432 
L 225.377821 213.499833 
L 225.255426 213.599065 
L 224.807013 213.962604 
L 224.789649 213.976681 
L 224.323873 214.354302 
L 224.236208 214.425376 
L 223.858097 214.731931 
L 223.665413 214.888147 
L 223.392321 215.110658 
L 223.141329 215.350918 
L 222.926544 215.701602 
L 222.881786 215.813689 
L 222.719596 216.276461 
L 222.460768 216.545062 
L 222.220957 216.739232 
L 221.994992 216.888696 
L 221.529215 217.196788 
L 221.52133 217.202003 
L 221.063439 217.50488 
L 220.821709 217.664775 
L 220.597663 217.812971 
L 220.131886 218.121061 
L 220.122083 218.127546 
L 219.66611 218.429148 
L 219.293401 218.590317 
L 219.200334 218.627455 
L 218.734558 218.791527 
L 218.268781 218.955892 
L 217.995843 219.053088 
L 217.803005 219.121902 
L 217.337229 219.288105 
L 216.871452 219.454313 
L 216.698965 219.51586 
L 216.405676 219.620512 
L 215.9399 219.786721 
L 215.474124 219.952925 
L 215.402086 219.978631 
L 215.008347 220.119134 
L 214.542571 220.28534 
L 214.105228 220.441402 
L 214.076795 220.451548 
L 213.611018 220.617745 
L 213.145242 220.78395 
L 212.808319 220.904174 
L 212.679466 220.950153 
L 212.213689 221.116364 
L 211.747913 221.282567 
L 211.511452 221.366945 
L 211.282137 221.448774 
L 210.816361 221.61498 
L 210.350584 221.781185 
L 210.219949 221.829716 
L 209.884808 221.959211 
L 209.419032 222.126268 
L 208.955591 222.292487 
L 208.953255 222.293272 
L 208.487479 222.437331 
L 208.038161 222.755259 
L 208.021703 222.758842 
L 207.555927 222.863062 
L 207.09015 222.967284 
L 206.624374 223.1145 
L 206.36478 223.21803 
L 206.158598 223.300258 
L 205.692821 223.494912 
L 205.374241 223.680801 
L 205.227045 223.773321 
L 204.761269 224.066082 
L 204.637983 224.143573 
L 204.295492 224.358845 
L 203.901732 224.606344 
L 203.829716 224.651609 
L 203.36394 224.944363 
L 203.165464 225.069115 
L 202.898164 225.237129 
L 202.47992 225.531886 
L 202.432387 225.572713 
L 201.966611 225.991832 
L 201.963505 225.994658 
L 201.500835 226.408208 
L 201.446827 226.457429 
L 201.035058 226.8262 
L 200.932075 226.9202 
L 200.569282 227.234811 
L 200.403768 227.382972 
L 200.103506 227.643843 
L 199.873721 227.845743 
L 199.63773 228.051058 
L 199.34454 228.308514 
L 199.171953 228.458842 
L 198.813242 228.771285 
L 198.706177 228.864541 
L 198.281948 229.234057 
L 198.240401 229.271821 
L 197.803541 229.696828 
L 197.774624 229.72771 
L 197.370224 230.159599 
L 197.308848 230.213279 
L 196.843072 230.508528 
L 196.653143 230.622371 
L 196.377295 230.787714 
L 195.911519 231.045765 
L 195.847533 231.085142 
L 195.445743 231.33617 
L 195.132504 231.547913 
L 194.979967 231.651025 
L 194.51419 231.96588 
L 194.447908 232.010684 
L 194.048414 232.399991 
L 193.824829 232.473456 
L 193.582638 232.642242 
L 193.116861 232.933535 
L 193.112558 232.936227 
L 192.651085 233.224833 
L 192.372595 233.398998 
L 192.185309 233.52017 
L 191.726708 233.86177 
L 191.719533 233.867126 
L 191.253756 234.213341 
L 191.103303 234.324541 
L 190.78798 234.553906 
L 190.467096 234.787312 
L 190.322204 234.892705 
L 189.856427 235.231512 
L 189.830895 235.250083 
L 189.390651 235.57031 
L 189.194686 235.712855 
L 188.924875 235.909113 
L 188.558481 236.175626 
L 188.459098 236.2292 
L 187.993322 236.586712 
L 187.922265 236.638397 
L 187.527546 236.925508 
L 187.286054 237.101169 
L 187.06177 237.199115 
L 186.624202 237.56394 
L 186.595993 237.567649 
L 186.130217 237.941919 
L 186.013646 238.026711 
L 185.664441 238.120458 
L 185.252271 238.489482 
L 185.198664 238.500117 
L 184.733399 238.952254 
L 184.732888 238.952571 
L 184.267112 239.072815 
L 183.890484 239.415025 
L 183.801336 239.439067 
L 183.349891 239.877796 
L 183.335559 239.88492 
L 182.869783 239.931915 
L 182.441033 240.340568 
L 182.404007 240.354007 
L 181.93823 240.408384 
L 181.507389 240.803339 
L 181.472454 240.812452 
L 181.006678 240.829289 
L 180.540902 240.879303 
L 180.075125 241.059026 
L 179.791421 241.26611 
L 179.609349 241.28085 
L 179.143573 241.28346 
L 178.677796 241.281845 
L 178.21202 241.280361 
L 177.746244 241.276644 
L 177.280467 241.271828 
L 176.814691 241.267293 
z
" clip-path="url(#pf212391a90)" style="fill: none; stroke: #000000; stroke-width: 1.5"/>
   </g>
   <g id="PathCollection_4">
    <path d="M 178.677796 263.956525 
L 178.465569 263.941903 
L 178.21202 263.924435 
L 177.746244 263.892353 
L 177.280467 263.860266 
L 176.814691 263.82818 
L 176.348915 263.796098 
L 175.883139 263.764009 
L 175.417362 263.731928 
L 174.951586 263.699839 
L 174.48581 263.667757 
L 174.020033 263.635668 
L 173.554257 263.603584 
L 173.088481 263.571499 
L 172.622705 263.539415 
L 172.156928 263.507333 
L 171.747524 263.479132 
L 171.691152 263.475249 
L 171.225376 263.443164 
L 170.759599 263.411074 
L 170.293823 263.37899 
L 169.828047 263.346905 
L 169.36227 263.31482 
L 168.896494 263.28273 
L 168.430718 263.250651 
L 167.964942 263.218561 
L 167.499165 263.18648 
L 167.033389 263.154389 
L 166.567613 263.12231 
L 166.101836 263.090223 
L 165.63606 263.058144 
L 165.170284 263.026051 
L 165.029625 263.016361 
L 164.704508 262.993962 
L 164.238731 262.962055 
L 163.772955 262.893893 
L 163.307179 262.761559 
L 162.841402 262.630796 
L 162.566394 262.553589 
L 162.375626 262.500032 
L 161.90985 262.369275 
L 161.444073 262.238508 
L 160.978297 262.107754 
L 160.917973 262.090818 
L 160.512521 261.976988 
L 160.046745 261.846233 
L 159.580968 261.71547 
L 159.296635 261.628047 
L 159.115192 261.570874 
L 158.649416 261.411831 
L 158.183639 261.222287 
L 158.096513 261.165275 
L 157.717863 260.902508 
L 157.429654 260.702504 
L 157.252087 260.579279 
L 156.786311 260.256032 
L 156.762824 260.239733 
L 156.320534 259.932798 
L 156.095979 259.776962 
L 155.854758 259.609562 
L 155.429124 259.31419 
L 155.388982 259.286332 
L 154.923205 258.963092 
L 154.762291 258.851419 
L 154.457429 258.639853 
L 154.095452 258.388648 
L 153.991653 258.316613 
L 153.525876 257.993375 
L 153.428612 257.925876 
L 153.0601 257.670145 
L 152.761759 257.463105 
L 152.594324 257.346911 
L 152.128548 257.023674 
L 152.094915 257.000334 
L 151.662771 256.700436 
L 151.428074 256.537563 
L 151.196995 256.377199 
L 150.761234 256.074791 
L 150.731219 256.053961 
L 150.265442 255.730731 
L 150.094385 255.61202 
L 149.799666 255.407486 
L 149.427554 255.149249 
L 149.33389 255.08425 
L 148.868114 254.761014 
L 148.760708 254.686477 
L 148.402337 254.437779 
L 148.093867 254.223706 
L 147.936561 254.114541 
L 147.470785 253.791313 
L 147.42701 253.760935 
L 147.005008 253.468076 
L 146.760162 253.298164 
L 146.539232 253.144844 
L 146.093333 252.835392 
L 146.073456 252.821598 
L 145.607679 252.498365 
L 145.426482 252.372621 
L 145.141903 252.175131 
L 144.819772 251.90985 
L 144.676127 251.77656 
L 144.345193 251.447078 
L 144.210351 251.312828 
L 143.880382 250.984307 
L 143.744574 250.849098 
L 143.415565 250.521536 
L 143.278798 250.385368 
L 142.950752 250.058765 
L 142.813022 249.921642 
L 142.50353 249.595993 
L 142.347245 249.412537 
L 142.122534 249.133222 
L 141.881469 248.833568 
L 141.750243 248.670451 
L 141.415693 248.254597 
L 141.377947 248.207679 
L 141.005645 247.744908 
L 140.949917 247.675638 
L 140.633341 247.282137 
L 140.48414 247.089996 
L 140.294462 246.819366 
L 140.018364 246.361874 
L 140.014897 246.356594 
L 139.696453 245.893823 
L 139.552588 245.685157 
L 139.378321 245.431052 
L 139.086811 245.005938 
L 139.060991 244.96828 
L 138.74368 244.505509 
L 138.621035 244.326646 
L 138.426362 244.042738 
L 138.155259 243.647352 
L 138.109053 243.579967 
L 137.795146 243.117195 
L 137.689482 242.95757 
L 137.492338 242.654424 
L 137.223706 242.241364 
L 137.191377 242.191653 
L 136.890434 241.728881 
L 136.75793 241.493725 
L 136.635634 241.26611 
L 136.398902 240.803339 
L 136.292154 240.595674 
L 136.160514 240.340568 
L 135.921718 239.877796 
L 135.826377 239.693033 
L 135.682948 239.415025 
L 135.444194 238.952254 
L 135.360601 238.790219 
L 135.205671 238.489482 
L 134.967262 238.026711 
L 134.894825 237.886108 
L 134.728844 237.56394 
L 134.490433 237.101169 
L 134.429048 236.97682 
L 134.276401 236.638397 
L 134.109748 236.175626 
L 133.963272 235.820785 
L 133.917834 235.712855 
L 133.72783 235.250083 
L 133.584548 234.787312 
L 133.497496 234.481637 
L 133.452737 234.324541 
L 133.325408 233.86177 
L 133.215469 233.398998 
L 133.105535 232.936227 
L 133.03172 232.519657 
L 133.023705 232.473456 
L 132.995214 232.010684 
L 132.966805 231.547913 
L 132.938391 231.085142 
L 132.909988 230.622371 
L 132.873125 230.159599 
L 132.822164 229.696828 
L 132.771217 229.234057 
L 132.720267 228.771285 
L 132.669309 228.308514 
L 132.618365 227.845743 
L 132.567412 227.382972 
L 132.565943 227.36963 
L 132.516453 226.9202 
L 132.465174 226.457429 
L 132.413433 225.994658 
L 132.361252 225.531886 
L 132.308642 225.069115 
L 132.255593 224.606344 
L 132.202093 224.143573 
L 132.148148 223.680801 
L 132.100167 223.272451 
L 132.093735 223.21803 
L 132.039036 222.755259 
L 131.984335 222.292487 
L 131.929633 221.829716 
L 131.874939 221.366945 
L 131.892639 220.904174 
L 131.928089 220.441402 
L 131.956581 219.978631 
L 131.987784 219.51586 
L 132.050422 219.053088 
L 132.100167 218.685562 
L 132.113058 218.590317 
L 132.1757 218.127546 
L 132.238331 217.664775 
L 132.300968 217.202003 
L 132.363603 216.739232 
L 132.426245 216.276461 
L 132.488878 215.813689 
L 132.551515 215.350918 
L 132.565943 215.244321 
L 132.614153 214.888147 
L 132.676789 214.425376 
L 132.739427 213.962604 
L 132.79526 213.499833 
L 132.8269 213.037062 
L 132.838438 212.57429 
L 132.850191 212.111519 
L 132.861929 211.648748 
L 132.870565 211.185977 
L 132.857167 210.723205 
L 132.843406 210.260434 
L 132.829651 209.797663 
L 132.815895 209.334891 
L 132.80261 208.87212 
L 132.789826 208.409349 
L 132.777104 207.946578 
L 132.764389 207.483806 
L 132.751675 207.021035 
L 132.738953 206.558264 
L 132.726232 206.095492 
L 132.713509 205.632721 
L 132.700796 205.16995 
L 132.688073 204.707179 
L 132.675357 204.244407 
L 132.66264 203.781636 
L 132.649926 203.318865 
L 132.637209 202.856093 
L 132.62449 202.393322 
L 132.701366 201.930551 
L 132.841624 201.46778 
L 132.981888 201.005008 
L 133.03172 200.8406 
L 133.122151 200.542237 
L 133.262415 200.079466 
L 133.402682 199.616694 
L 133.497496 199.303589 
L 133.542829 199.153923 
L 133.675938 198.691152 
L 133.819903 198.228381 
L 133.963272 197.802456 
L 133.975675 197.765609 
L 134.131434 197.302838 
L 134.287203 196.840067 
L 134.429048 196.418652 
L 134.442969 196.377295 
L 134.600994 195.914524 
L 134.79218 195.451753 
L 134.894825 195.218254 
L 134.995611 194.988982 
L 135.199041 194.52621 
L 135.360601 194.159019 
L 135.40264 194.063439 
L 135.606848 193.600668 
L 135.811123 193.137896 
L 135.826377 193.10419 
L 136.020609 192.675125 
L 136.243336 192.212354 
L 136.292154 192.109934 
L 136.463916 191.749583 
L 136.68449 191.286811 
L 136.75793 191.132734 
L 136.905538 190.82404 
L 137.1268 190.361269 
L 137.223706 190.158563 
L 137.348093 189.898497 
L 137.569438 189.435726 
L 137.689482 189.184747 
L 137.789786 188.972955 
L 138.002003 188.510184 
L 138.155259 188.174289 
L 138.213148 188.047412 
L 138.424294 187.584641 
L 138.621035 187.153424 
L 138.635431 187.12187 
L 138.846577 186.659098 
L 139.057719 186.196327 
L 139.086811 186.132564 
L 139.268862 185.733556 
L 139.480004 185.270785 
L 139.552588 185.111698 
L 139.691147 184.808013 
L 139.902287 184.345242 
L 140.018364 184.090829 
L 140.113426 183.882471 
L 140.324561 183.419699 
L 140.48414 183.069951 
L 140.535709 182.956928 
L 140.746849 182.494157 
L 140.949917 182.049088 
L 140.957993 182.031386 
L 141.169136 181.568614 
L 141.380275 181.105843 
L 141.415693 181.028215 
L 141.606449 180.643072 
L 141.831253 180.180301 
L 141.881469 180.075582 
L 142.06743 179.717529 
L 142.307772 179.254758 
L 142.347245 179.178753 
L 142.548016 178.791987 
L 142.788455 178.329215 
L 142.813022 178.281912 
L 143.02813 177.866444 
L 143.184827 177.403673 
L 143.130023 176.940902 
L 143.0753 176.47813 
L 143.020581 176.015359 
L 142.994565 175.552588 
L 142.990388 175.089816 
L 142.998361 174.627045 
L 143.006328 174.164274 
L 143.014297 173.701503 
L 143.022268 173.238731 
L 143.030241 172.77596 
L 143.03821 172.313189 
L 143.046178 171.850417 
L 143.054151 171.387646 
L 143.062125 170.924875 
L 143.07009 170.462104 
L 143.078062 169.999332 
L 143.086035 169.536561 
L 143.094003 169.07379 
L 143.101978 168.611018 
L 143.109935 168.148247 
L 143.117908 167.685476 
L 143.125872 167.222705 
L 143.133841 166.759933 
L 143.141823 166.297162 
L 143.127823 165.834391 
L 143.095851 165.371619 
L 143.047539 164.908848 
L 142.996718 164.446077 
L 142.945883 163.983306 
L 142.895056 163.520534 
L 142.844221 163.057763 
L 142.813022 162.773676 
L 142.793398 162.594992 
L 142.742563 162.13222 
L 142.691733 161.669449 
L 142.640905 161.206678 
L 142.497931 160.743907 
L 142.347245 160.369104 
L 142.313047 160.281135 
L 142.133144 159.818364 
L 141.953236 159.355593 
L 141.881469 159.173057 
L 141.771149 158.892821 
L 141.582181 158.43005 
L 141.415693 157.972946 
L 141.413629 157.967279 
L 141.245071 157.504508 
L 141.117602 157.041736 
L 141.139829 156.578965 
L 141.162054 156.116194 
L 141.226312 155.653422 
L 141.344163 155.190651 
L 141.415693 154.909819 
L 141.462034 154.72788 
L 141.579891 154.265109 
L 141.697751 153.802337 
L 141.815612 153.339566 
L 141.881469 153.080992 
L 141.933477 152.876795 
L 142.051337 152.414023 
L 142.169197 151.951252 
L 142.287045 151.488481 
L 142.347245 151.252123 
L 142.404913 151.02571 
L 142.525621 150.562938 
L 142.657484 150.100167 
L 142.790329 149.637396 
L 142.813022 149.55834 
L 142.923167 149.174624 
L 143.056009 148.711853 
L 143.188853 148.249082 
L 143.278798 147.935768 
L 143.321705 147.786311 
L 143.454551 147.323539 
L 143.587392 146.860768 
L 143.720233 146.397997 
L 143.744574 146.313206 
L 143.853081 145.935225 
L 143.985923 145.472454 
L 144.118772 145.009683 
L 144.210351 144.690655 
L 144.251613 144.546912 
L 144.384453 144.08414 
L 144.517294 143.621369 
L 144.650135 143.158598 
L 144.676127 143.068053 
L 144.78298 142.695826 
L 144.915823 142.233055 
L 145.048671 141.770284 
L 145.141903 141.445499 
L 145.181513 141.307513 
L 145.314355 140.844741 
L 145.447192 140.38197 
L 145.580043 139.919199 
L 145.607679 139.82292 
L 145.712882 139.456427 
L 145.845725 138.993656 
L 145.978576 138.530885 
L 146.073456 138.200389 
L 146.111429 138.068114 
L 146.245396 137.605342 
L 146.431402 137.142571 
L 146.539232 136.923045 
L 146.658717 136.6798 
L 146.88604 136.217028 
L 147.005008 135.974828 
L 147.113355 135.754257 
L 147.340675 135.291486 
L 147.470785 135.026601 
L 147.567984 134.828715 
L 147.795305 134.365943 
L 147.936561 134.078371 
L 148.022618 133.903172 
L 148.249932 133.440401 
L 148.402337 133.130123 
L 148.477244 132.977629 
L 148.704563 132.514858 
L 148.868114 132.20131 
L 148.94394 132.052087 
L 149.238016 131.589316 
L 149.33389 131.438444 
L 149.532086 131.126544 
L 149.799666 130.705471 
L 149.826164 130.663773 
L 150.120222 130.201002 
L 150.265442 129.972488 
L 150.414308 129.73823 
L 150.70839 129.275459 
L 150.731219 129.239536 
L 151.010541 128.812688 
L 151.196995 128.589829 
L 151.427856 128.349917 
L 151.662771 128.105784 
L 151.873165 127.887145 
L 152.128548 127.621763 
L 152.318494 127.424374 
L 152.594324 127.137728 
L 152.763807 126.961603 
L 153.0601 126.65371 
L 153.20914 126.498831 
L 153.525876 126.169679 
L 153.654458 126.03606 
L 153.991653 125.685646 
L 154.099775 125.573289 
L 154.457429 125.201636 
L 154.545111 125.110518 
L 154.923205 124.717594 
L 154.990421 124.647746 
L 155.388982 124.233567 
L 155.43574 124.184975 
L 155.854758 123.749527 
L 155.881051 123.722204 
L 156.320534 123.265495 
L 156.326369 123.259432 
L 156.771694 122.796661 
L 156.786311 122.781472 
L 157.217016 122.33389 
L 157.252087 122.297444 
L 157.662341 121.871119 
L 157.717863 121.813419 
L 158.176969 121.408347 
L 158.183639 121.40302 
L 158.649416 121.033674 
L 158.760512 120.945576 
L 159.115192 120.664332 
L 159.34412 120.482805 
L 159.580968 120.294986 
L 159.927691 120.020033 
L 160.046745 119.925627 
L 160.511281 119.557262 
L 160.512521 119.556279 
L 160.978297 119.203222 
L 161.131042 119.094491 
L 161.444073 118.876567 
L 161.795766 118.63172 
L 161.90985 118.552293 
L 162.375626 118.228034 
L 162.460498 118.168948 
L 162.841402 117.903766 
L 163.125222 117.706177 
L 163.307179 117.579504 
L 163.772955 117.255236 
L 163.789948 117.243406 
L 164.238731 116.930962 
L 164.454672 116.780634 
L 164.704508 116.606708 
L 165.119406 116.317863 
L 165.170284 116.282444 
L 165.63606 115.958165 
L 165.78412 115.855092 
L 166.101836 115.633907 
L 166.467336 115.392321 
L 166.567613 115.334787 
L 167.033389 115.161295 
L 167.499165 114.987821 
L 167.655615 114.929549 
L 167.964942 114.814336 
L 168.430718 114.64085 
L 168.896494 114.467364 
L 168.898068 114.466778 
L 169.36227 114.293879 
L 169.828047 114.120396 
L 170.140529 114.004007 
L 170.293823 113.946909 
L 170.759599 113.773422 
L 171.225376 113.599927 
L 171.382952 113.541235 
L 171.691152 113.426446 
L 172.156928 113.252961 
L 172.622705 113.079481 
L 172.625434 113.078464 
L 173.088481 112.905997 
L 173.554257 112.732507 
L 173.867876 112.615693 
L 174.020033 112.559019 
L 174.48581 112.398954 
L 174.951586 112.250022 
L 175.255259 112.152922 
L 175.417362 112.101088 
L 175.883139 111.952157 
L 176.348915 111.803225 
L 176.702552 111.69015 
L 176.814691 111.654294 
L 177.280467 111.505361 
L 177.746244 111.356431 
L 178.149852 111.227379 
L 178.21202 111.207501 
L 178.677796 111.058564 
L 179.143573 110.909632 
L 179.597133 110.764608 
L 179.609349 110.76065 
L 180.075125 110.604211 
L 180.540902 110.445962 
L 180.965114 110.301836 
L 181.006678 110.287715 
L 181.472454 110.129457 
L 181.93823 109.971203 
L 182.327194 109.839065 
L 182.404007 109.812971 
L 182.869783 109.654715 
L 183.335559 109.496476 
L 183.689279 109.376294 
L 183.801336 109.338221 
L 184.267112 109.179972 
L 184.732888 109.021729 
L 185.05137 108.913523 
L 185.198664 108.863479 
L 185.664441 108.705229 
L 186.130217 108.546979 
L 186.413463 108.450751 
L 186.595993 108.392702 
L 187.06177 108.370637 
L 187.527546 108.357524 
L 187.993322 108.344414 
L 188.459098 108.351141 
L 188.924875 108.385884 
L 189.390651 108.420631 
L 189.794484 108.450751 
L 189.856427 108.455372 
L 190.322204 108.459627 
L 190.78798 108.460778 
L 191.253756 108.461929 
L 191.719533 108.463086 
L 192.185309 108.464236 
L 192.651085 108.465387 
L 193.116861 108.473484 
L 193.582638 108.481888 
L 194.048414 108.490657 
L 194.51419 108.499423 
L 194.979967 108.508194 
L 195.445743 108.516979 
L 195.911519 108.52575 
L 196.377295 108.53452 
L 196.843072 108.543291 
L 197.308848 108.552065 
L 197.774624 108.560837 
L 198.240401 108.569618 
L 198.706177 108.579169 
L 199.171953 108.606638 
L 199.63773 108.641266 
L 200.103506 108.675898 
L 200.569282 108.710535 
L 201.035058 108.745172 
L 201.500835 108.779807 
L 201.966611 108.814444 
L 202.432387 108.849077 
L 202.898164 108.883704 
L 203.042407 108.913523 
L 203.36394 108.979605 
L 203.829716 109.094962 
L 204.295492 109.210316 
L 204.761269 109.325674 
L 204.965683 109.376294 
L 205.227045 109.441019 
L 205.692821 109.55638 
L 206.158598 109.671732 
L 206.624374 109.787087 
L 206.834244 109.839065 
L 207.09015 109.902447 
L 207.555927 110.017805 
L 208.021703 110.133157 
L 208.487479 110.24852 
L 208.702758 110.301836 
L 208.953255 110.363873 
L 209.419032 110.47923 
L 209.884808 110.595543 
L 210.350584 110.758412 
L 210.368304 110.764608 
L 210.816361 110.921279 
L 211.282137 111.084139 
L 211.691782 111.227379 
L 211.747913 111.247006 
L 212.213689 111.409864 
L 212.679466 111.57273 
L 213.015274 111.69015 
L 213.145242 111.735594 
L 213.611018 111.898446 
L 214.076795 112.061312 
L 214.323551 112.152922 
L 214.542571 112.234689 
L 215.008347 112.462742 
L 215.311904 112.615693 
L 215.474124 112.697428 
L 215.9399 112.932126 
L 216.230322 113.078464 
L 216.405676 113.166824 
L 216.871452 113.401708 
L 217.148087 113.541235 
L 217.337229 113.636636 
L 217.803005 113.846262 
L 218.188497 114.004007 
L 218.268781 114.036859 
L 218.734558 114.291759 
L 219.00067 114.466778 
L 219.200334 114.599464 
L 219.66611 114.893968 
L 219.722945 114.929549 
L 220.131886 115.185568 
L 220.462134 115.392321 
L 220.597663 115.477168 
L 221.063439 115.768784 
L 221.20115 115.855092 
L 221.529215 116.060567 
L 221.939306 116.317863 
L 221.994992 116.352761 
L 222.460768 116.645803 
L 222.674952 116.780634 
L 222.926544 116.939014 
L 223.392321 117.232224 
L 223.410084 117.243406 
L 223.858097 117.52543 
L 224.145209 117.706177 
L 224.323873 117.81865 
L 224.789649 118.124545 
L 224.853349 118.168948 
L 225.255426 118.449229 
L 225.506631 118.63172 
L 225.721202 118.791578 
L 226.114524 119.094491 
L 226.186978 119.155282 
L 226.638813 119.557262 
L 226.652755 119.57313 
L 227.04541 120.020033 
L 227.118531 120.103261 
L 227.451998 120.482805 
L 227.584307 120.633389 
L 227.858589 120.945576 
L 228.050083 121.163533 
L 228.265177 121.408347 
L 228.51586 121.693669 
L 228.671768 121.871119 
L 228.981636 122.2238 
L 229.078362 122.33389 
L 229.447412 122.753943 
L 229.484943 122.796661 
L 229.891537 123.259432 
L 229.913189 123.284077 
L 230.298122 123.722204 
L 230.378965 123.813017 
L 230.720428 124.184975 
L 230.844741 124.317202 
L 231.155495 124.647746 
L 231.310518 124.812638 
L 231.590575 125.110518 
L 231.776294 125.308061 
L 232.025644 125.573289 
L 232.24207 125.90442 
L 232.308991 126.03606 
L 232.374155 126.498831 
L 232.492229 126.961603 
L 232.707846 127.185846 
L 232.948703 127.424374 
L 233.173623 127.654368 
L 233.394434 127.887145 
L 233.639399 128.130196 
L 233.860108 128.349917 
L 234.105175 128.593159 
L 234.326343 128.812688 
L 234.570952 129.055487 
L 234.792574 129.275459 
L 235.036728 129.517795 
L 235.258815 129.73823 
L 235.502504 129.98012 
L 235.725026 130.201002 
L 235.96828 130.506956 
L 236.054928 130.663773 
L 236.266425 131.126544 
L 236.434057 131.515709 
L 236.464032 131.589316 
L 236.651479 132.052087 
L 236.800022 132.514858 
L 236.899833 132.960836 
L 236.903451 132.977629 
L 237.002332 133.440401 
L 237.101187 133.903172 
L 237.200032 134.365943 
L 237.298851 134.828715 
L 237.365609 135.141085 
L 237.397735 135.291486 
L 237.496601 135.754257 
L 237.594825 136.217028 
L 237.693507 136.6798 
L 237.792124 137.142571 
L 237.831386 137.327738 
L 237.92126 137.605342 
L 238.20115 138.068114 
L 238.297162 138.215195 
L 238.501028 138.530885 
L 238.762938 138.936436 
L 238.797021 138.993656 
L 239.071299 139.456427 
L 239.228715 139.72387 
L 239.339311 139.919199 
L 239.601326 140.38197 
L 239.694491 140.546522 
L 239.86333 140.844741 
L 240.125348 141.307513 
L 240.160267 141.369185 
L 240.387369 141.770284 
L 240.626043 142.191827 
L 240.649386 142.233055 
L 240.911402 142.695826 
L 241.09182 143.014497 
L 241.173404 143.158598 
L 241.435423 143.621369 
L 241.557596 143.837154 
L 241.697436 144.08414 
L 241.874733 144.546912 
L 242.000329 145.009683 
L 242.023372 145.094576 
L 242.125947 145.472454 
L 242.25155 145.935225 
L 242.377165 146.397997 
L 242.489149 146.810592 
L 242.502767 146.860768 
L 242.628375 147.323539 
L 242.753977 147.786311 
L 242.879588 148.249082 
L 242.954925 148.52665 
L 243.005194 148.711853 
L 243.130801 149.174624 
L 243.25641 149.637396 
L 243.382016 150.100167 
L 243.420701 150.242698 
L 243.507619 150.562938 
L 243.633226 151.02571 
L 243.75884 151.488481 
L 243.886477 151.81444 
L 243.942764 151.951252 
L 244.153578 152.414023 
L 244.352254 152.850148 
L 244.364392 152.876795 
L 244.575206 153.339566 
L 244.786012 153.802337 
L 244.81803 153.872622 
L 244.996825 154.265109 
L 245.207248 154.72788 
L 245.283806 154.907192 
L 245.392512 155.190651 
L 245.569982 155.653422 
L 245.747453 156.116194 
L 245.749583 156.121747 
L 245.924919 156.578965 
L 246.102392 157.041736 
L 246.215359 157.336318 
L 246.279859 157.504508 
L 246.457329 157.967279 
L 246.634802 158.43005 
L 246.681135 158.54296 
L 246.830797 158.892821 
L 247.044333 159.355593 
L 247.146912 159.577906 
L 247.259068 159.818364 
L 247.522381 160.281135 
L 247.612688 160.431557 
L 247.800202 160.743907 
L 248.078023 161.206678 
L 248.078464 161.207359 
L 248.418377 161.669449 
L 248.54424 161.811404 
L 248.797976 162.13222 
L 249.010017 162.469634 
L 249.087296 162.594992 
L 249.372586 163.057763 
L 249.475793 163.225174 
L 249.657884 163.520534 
L 249.941569 163.980699 
L 249.943176 163.983306 
L 250.201122 164.446077 
L 250.385478 164.908848 
L 250.407346 164.963742 
L 250.56983 165.371619 
L 250.75418 165.834391 
L 250.873122 166.147758 
L 250.926315 166.297162 
L 251.064841 166.759933 
L 251.203363 167.222705 
L 251.338898 167.67548 
L 251.34189 167.685476 
L 251.480417 168.148247 
L 251.618936 168.611018 
L 251.757461 169.07379 
L 251.804674 169.231514 
L 251.895988 169.536561 
L 252.034515 169.999332 
L 252.17303 170.462104 
L 252.270451 170.787532 
L 252.311567 170.924875 
L 252.450085 171.387646 
L 252.588613 171.850417 
L 252.727139 172.313189 
L 252.736227 172.343548 
L 252.865663 172.77596 
L 253.004193 173.238731 
L 253.142715 173.701503 
L 253.202003 173.899559 
L 253.281246 174.164274 
L 253.419769 174.627045 
L 253.55539 175.089816 
L 253.66778 175.462981 
L 253.694226 175.552588 
L 253.81725 176.015359 
L 253.942924 176.47813 
L 254.066343 176.940902 
L 254.133556 177.192918 
L 254.189765 177.403673 
L 254.313178 177.866444 
L 254.436604 178.329215 
L 254.560021 178.791987 
L 254.599332 178.939391 
L 254.683439 179.254758 
L 254.806864 179.717529 
L 254.930277 180.180301 
L 255.053696 180.643072 
L 255.065109 180.685864 
L 255.17711 181.105843 
L 255.300534 181.568614 
L 255.423954 182.031386 
L 255.530885 182.432364 
L 255.547364 182.494157 
L 255.670793 182.956928 
L 255.794213 183.419699 
L 255.917639 183.882471 
L 255.996661 184.178777 
L 256.041054 184.345242 
L 256.164473 184.808013 
L 256.287891 185.270785 
L 256.411312 185.733556 
L 256.462437 185.925248 
L 256.534737 186.196327 
L 256.641209 186.659098 
L 256.689173 187.12187 
L 256.738462 187.584641 
L 256.78775 188.047412 
L 256.83704 188.510184 
L 256.886333 188.972955 
L 256.928214 189.366192 
L 256.935619 189.435726 
L 256.984913 189.898497 
L 257.034205 190.361269 
L 257.083494 190.82404 
L 257.13278 191.286811 
L 257.182072 191.749583 
L 257.231362 192.212354 
L 257.280651 192.675125 
L 257.32994 193.137896 
L 257.385791 193.600668 
L 257.39399 193.660564 
L 257.449519 194.063439 
L 257.513301 194.52621 
L 257.577082 194.988982 
L 257.640861 195.451753 
L 257.70464 195.914524 
L 257.768418 196.377295 
L 257.830938 196.840067 
L 257.859766 197.220749 
L 257.865927 197.302838 
L 257.900655 197.765609 
L 257.935375 198.228381 
L 257.970099 198.691152 
L 258.004827 199.153923 
L 258.039554 199.616694 
L 257.95944 200.079466 
L 257.859766 200.494465 
L 257.848292 200.542237 
L 257.737135 201.005008 
L 257.625986 201.46778 
L 257.514835 201.930551 
L 257.403691 202.393322 
L 257.39399 202.433713 
L 257.29254 202.856093 
L 257.181396 203.318865 
L 257.070241 203.781636 
L 256.959097 204.244407 
L 256.928214 204.372979 
L 256.847939 204.707179 
L 256.736791 205.16995 
L 256.625642 205.632721 
L 256.514494 206.095492 
L 256.462437 206.312215 
L 256.403339 206.558264 
L 256.292189 207.021035 
L 256.181044 207.483806 
L 256.068459 207.946578 
L 255.996661 208.245302 
L 255.956641 208.409349 
L 255.82303 208.87212 
L 255.689364 209.334891 
L 255.554099 209.797663 
L 255.530885 209.877079 
L 255.418828 210.260434 
L 255.283559 210.723205 
L 255.14829 211.185977 
L 255.065109 211.47054 
L 255.013015 211.648748 
L 254.877749 212.111519 
L 254.742476 212.57429 
L 254.607211 213.037062 
L 254.599332 213.064015 
L 254.471937 213.499833 
L 254.325334 213.962604 
L 254.133556 214.316065 
L 254.067467 214.425376 
L 253.767247 214.888147 
L 253.66778 215.04147 
L 253.467021 215.350918 
L 253.202003 215.759411 
L 253.16679 215.813689 
L 252.866576 216.276461 
L 252.736227 216.477384 
L 252.566351 216.739232 
L 252.270451 217.195341 
L 252.266129 217.202003 
L 251.965906 217.664775 
L 251.804674 217.913304 
L 251.665686 218.127546 
L 251.365461 218.590317 
L 251.338898 218.631263 
L 251.065242 219.053088 
L 250.873122 219.349228 
L 250.765017 219.51586 
L 250.464785 219.978631 
L 250.407346 220.067169 
L 250.164565 220.441402 
L 249.941569 220.78513 
L 249.864339 220.904174 
L 249.564118 221.366945 
L 249.475793 221.503087 
L 249.263892 221.829716 
L 249.010017 222.221045 
L 248.963668 222.292487 
L 248.663443 222.755259 
L 248.54424 222.939 
L 248.363224 223.21803 
L 248.078464 223.656956 
L 248.062994 223.680801 
L 247.762775 224.143573 
L 247.612688 224.374921 
L 247.462551 224.606344 
L 247.162336 225.069115 
L 247.146912 225.092891 
L 246.86211 225.531886 
L 246.681135 225.802609 
L 246.537827 225.994658 
L 246.215359 226.359048 
L 246.124712 226.457429 
L 245.749583 226.808651 
L 245.629139 226.9202 
L 245.283806 227.240025 
L 245.129458 227.382972 
L 244.81803 227.671399 
L 244.629784 227.845743 
L 244.352254 228.102779 
L 244.130109 228.308514 
L 243.886477 228.534148 
L 243.629788 228.771285 
L 243.420701 228.954403 
L 243.059179 229.234057 
L 242.954925 229.311943 
L 242.489149 229.659904 
L 242.439726 229.696828 
L 242.023372 230.007889 
L 241.820303 230.159599 
L 241.557596 230.355863 
L 241.195411 230.622371 
L 241.09182 230.697236 
L 240.626043 231.033147 
L 240.553945 231.085142 
L 240.160267 231.36905 
L 239.912257 231.547913 
L 239.694491 231.704968 
L 239.270574 232.010684 
L 239.228715 232.040871 
L 238.762938 232.376782 
L 238.628885 232.473456 
L 238.297162 232.712687 
L 237.987195 232.936227 
L 237.831386 233.048589 
L 237.365609 233.384497 
L 237.345501 233.398998 
L 236.899833 233.720404 
L 236.703812 233.86177 
L 236.434057 234.056311 
L 236.062113 234.324541 
L 235.96828 234.39221 
L 235.502504 234.732799 
L 235.431186 234.787312 
L 235.036728 235.092054 
L 234.821591 235.250083 
L 234.570952 235.423614 
L 234.109864 235.712855 
L 234.105175 235.716179 
L 233.639399 236.044644 
L 233.452238 236.175626 
L 233.173623 236.375262 
L 232.806389 236.638397 
L 232.707846 236.709157 
L 232.24207 237.049042 
L 232.17138 237.101169 
L 231.776294 237.392502 
L 231.543766 237.56394 
L 231.310518 237.735909 
L 230.915985 238.026711 
L 230.844741 238.079223 
L 230.378965 238.422549 
L 230.288159 238.489482 
L 229.913189 238.765869 
L 229.660319 238.952254 
L 229.447412 239.109181 
L 229.03248 239.415025 
L 228.981636 239.450425 
L 228.51586 239.732727 
L 228.269157 239.877796 
L 228.050083 240.006614 
L 227.584307 240.280494 
L 227.482147 240.340568 
L 227.118531 240.554381 
L 226.695157 240.803339 
L 226.652755 240.828273 
L 226.186978 241.081246 
L 225.722577 241.26611 
L 225.721202 241.266658 
L 225.255426 241.453025 
L 224.789649 241.645382 
L 224.588603 241.728881 
L 224.323873 241.836959 
L 223.858097 242.011996 
L 223.392321 242.169868 
L 223.32528 242.191653 
L 222.926544 242.321221 
L 222.460768 242.472573 
L 221.994992 242.623924 
L 221.901134 242.654424 
L 221.529215 242.775281 
L 221.063439 242.926633 
L 220.597663 243.077988 
L 220.477002 243.117195 
L 220.131886 243.229337 
L 219.66611 243.380192 
L 219.200334 243.530938 
L 219.048841 243.579967 
L 218.734558 243.68168 
L 218.268781 243.832422 
L 217.803005 244.026296 
L 217.773057 244.042738 
L 217.337229 244.28201 
L 216.930134 244.505509 
L 216.871452 244.537726 
L 216.405676 244.793438 
L 216.087199 244.96828 
L 215.9399 245.049146 
L 215.474124 245.304859 
L 215.250162 245.431052 
L 215.008347 245.591384 
L 214.677359 245.893823 
L 214.542571 246.016983 
L 214.170899 246.356594 
L 214.076795 246.442581 
L 213.66443 246.819366 
L 213.611018 246.868169 
L 213.15797 247.282137 
L 213.145242 247.292487 
L 212.679466 247.61366 
L 212.506498 247.744908 
L 212.213689 247.967091 
L 211.896615 248.207679 
L 211.747913 248.320512 
L 211.286747 248.670451 
L 211.282137 248.673949 
L 210.816361 249.027379 
L 210.676877 249.133222 
L 210.350584 249.380822 
L 210.06702 249.595993 
L 209.884808 249.734257 
L 209.457152 250.058765 
L 209.419032 250.08769 
L 208.953255 250.441113 
L 208.847267 250.521536 
L 208.487479 250.794543 
L 208.237399 250.984307 
L 208.021703 251.147978 
L 207.627518 251.447078 
L 207.555927 251.501401 
L 207.09015 251.844732 
L 206.989114 251.90985 
L 206.624374 252.135655 
L 206.241612 252.372621 
L 206.158598 252.424014 
L 205.692821 252.712374 
L 205.494114 252.835392 
L 205.227045 253.000728 
L 204.761269 253.289085 
L 204.746604 253.298164 
L 204.295492 253.577439 
L 203.959649 253.760935 
L 203.829716 253.829979 
L 203.36394 254.080598 
L 203.137426 254.223706 
L 202.898164 254.378708 
L 202.432387 254.680445 
L 202.423076 254.686477 
L 201.966611 254.982183 
L 201.708723 255.149249 
L 201.500835 255.283926 
L 201.035058 255.585665 
L 200.994377 255.61202 
L 200.569282 255.887413 
L 200.280033 256.074791 
L 200.103506 256.189151 
L 199.63773 256.490888 
L 199.565682 256.537563 
L 199.171953 256.792638 
L 198.851347 257.000334 
L 198.706177 257.094378 
L 198.240401 257.396126 
L 198.137009 257.463105 
L 197.774624 257.697864 
L 197.422661 257.925876 
L 197.308848 257.999607 
L 196.843072 258.301353 
L 196.708319 258.388648 
L 196.377295 258.603088 
L 195.993964 258.851419 
L 195.911519 258.901919 
L 195.445743 259.124185 
L 194.998695 259.31419 
L 194.979967 259.32215 
L 194.51419 259.520111 
L 194.048414 259.718068 
L 193.909843 259.776962 
L 193.582638 259.91603 
L 193.116861 260.113993 
L 192.821001 260.239733 
L 192.651085 260.311948 
L 192.185309 260.509913 
L 191.732168 260.702504 
L 191.719533 260.707874 
L 191.253756 260.905834 
L 190.78798 261.103805 
L 190.643346 261.165275 
L 190.322204 261.301764 
L 189.856427 261.497944 
L 189.523847 261.628047 
L 189.390651 261.679448 
L 188.924875 261.866509 
L 188.459098 262.074959 
L 188.423839 262.090818 
L 187.993322 262.284451 
L 187.527546 262.493944 
L 187.394932 262.553589 
L 187.06177 262.703433 
L 186.595993 262.912925 
L 186.366019 263.016361 
L 186.130217 263.122418 
L 185.664441 263.331916 
L 185.33712 263.479132 
L 185.198664 263.541404 
L 184.732888 263.748488 
L 184.267112 263.878632 
L 184.035188 263.941903 
L 183.801336 264.005699 
L 183.335559 264.132783 
L 182.869783 264.223967 
L 182.404007 264.213207 
L 181.93823 264.181122 
L 181.472454 264.149038 
L 181.006678 264.116949 
L 180.540902 264.084862 
L 180.075125 264.052777 
L 179.609349 264.020692 
L 179.143573 263.988606 
L 178.677796 263.956525 
z
" clip-path="url(#pf212391a90)" style="fill: none; stroke: #000000; stroke-width: 1.5"/>
   </g>
   <g id="patch_3">
    <path d="M 45 320.4 
L 45 43.2 
" style="fill: none; stroke: #000000; stroke-width: 0.8; stroke-linejoin: miter; stroke-linecap: square"/>
   </g>
   <g id="patch_4">
    <path d="M 324 320.4 
L 324 43.2 
" style="fill: none; stroke: #000000; stroke-width: 0.8; stroke-linejoin: miter; stroke-linecap: square"/>
   </g>
   <g id="patch_5">
    <path d="M 45 320.4 
L 324 320.4 
" style="fill: none; stroke: #000000; stroke-width: 0.8; stroke-linejoin: miter; stroke-linecap: square"/>
   </g>
   <g id="patch_6">
    <path d="M 45 43.2 
L 324 43.2 
" style="fill: none; stroke: #000000; stroke-width: 0.8; stroke-linejoin: miter; stroke-linecap: square"/>
   </g>
  </g>
 </g>
 <defs>
  <clipPath id="pf212391a90">
   <rect x="45" y="43.2" width="279" height="277.2"/>
  </clipPath>
 </defs>
</svg>
