<?xml version="1.0" encoding="utf-8" standalone="no"?>
<!DOCTYPE svg PUBLIC "-//W3C//DTD SVG 1.1//EN"
  "http://www.w3.org/Graphics/SVG/1.1/DTD/svg11.dtd">
<svg xmlns:xlink="http://www.w3.org/1999/xlink" width="360pt" height="360pt" viewBox="0 0 360 360" xmlns="http://www.w3.org/2000/svg" version="1.1">
 <metadata>
  <rdf:RDF xmlns:dc="http://purl.org/dc/elements/1.1/" xmlns:cc="http://creativecommons.org/ns#" xmlns:rdf="http://www.w3.org/1999/02/22-rdf-syntax-ns#">
   <cc:Work>
    <dc:type rdf:resource="http://purl.org/dc/dcmitype/StillImage"/>
    <dc:date>2022-04-10T19:53:28.456735</dc:date>
    <dc:format>image/svg+xml</dc:format>
    <dc:creator>
     <cc:Agent>
      <dc:title>Matplotlib v3.5.1, https://matplotlib.org/</dc:title>
     </cc:Agent>
    </dc:creator>
   </cc:Work>
  </rdf:RDF>
 </metadata>
 <defs>
  <style type="text/css">*{stroke-linejoin: round; stroke-linecap: butt}</style>
 </defs>
 <g id="figure_1">
  <g id="patch_1">
   <path d="M 0 360 
L 360 360 
L 360 0 
L 0 0 
z
" style="fill: #ffffff"/>
  </g>
  <g id="axes_1">
   <g id="patch_2">
    <path d="M 45 320.4 
L 324 320.4 
L 324 43.2 
L 45 43.2 
z
" style="fill: #ffffff"/>
   </g>
   <g id="PathCollection_1">
    <defs>
     <path id="m889df05f00" d="M 0 0.5 
C 0.132602 0.5 0.25979 0.447317 0.353553 0.353553 
C 0.447317 0.25979 0.5 0.132602 0.5 0 
C 0.5 -0.132602 0.447317 -0.25979 0.353553 -0.353553 
C 0.25979 -0.447317 0.132602 -0.5 0 -0.5 
C -0.132602 -0.5 -0.25979 -0.447317 -0.353553 -0.353553 
C -0.447317 -0.25979 -0.5 -0.132602 -0.5 0 
C -0.5 0.132602 -0.447317 0.25979 -0.353553 0.353553 
C -0.25979 0.447317 -0.132602 0.5 0 0.5 
z
" style="stroke: #ff0000"/>
    </defs>
    <g clip-path="url(#p33f87b1dd1)">
     <use xlink:href="#m889df05f00" x="219.191052" y="181.336455" style="fill: #ff0000; stroke: #ff0000"/>
     <use xlink:href="#m889df05f00" x="220.93745" y="177.816488" style="fill: #ff0000; stroke: #ff0000"/>
     <use xlink:href="#m889df05f00" x="222.610001" y="173.897016" style="fill: #ff0000; stroke: #ff0000"/>
     <use xlink:href="#m889df05f00" x="223.979339" y="169.578407" style="fill: #ff0000; stroke: #ff0000"/>
     <use xlink:href="#m889df05f00" x="224.889029" y="164.906712" style="fill: #ff0000; stroke: #ff0000"/>
     <use xlink:href="#m889df05f00" x="225.288905" y="159.92276" style="fill: #ff0000; stroke: #ff0000"/>
     <use xlink:href="#m889df05f00" x="225.193603" y="154.631013" style="fill: #ff0000; stroke: #ff0000"/>
     <use xlink:href="#m889df05f00" x="224.597693" y="149.021856" style="fill: #ff0000; stroke: #ff0000"/>
     <use xlink:href="#m889df05f00" x="223.408821" y="143.142203" style="fill: #ff0000; stroke: #ff0000"/>
     <use xlink:href="#m889df05f00" x="221.447538" y="137.171037" style="fill: #ff0000; stroke: #ff0000"/>
     <use xlink:href="#m889df05f00" x="218.519635" y="131.444694" style="fill: #ff0000; stroke: #ff0000"/>
     <use xlink:href="#m889df05f00" x="214.522203" y="126.398467" style="fill: #ff0000; stroke: #ff0000"/>
     <use xlink:href="#m889df05f00" x="209.522225" y="122.436291" style="fill: #ff0000; stroke: #ff0000"/>
     <use xlink:href="#m889df05f00" x="203.758707" y="119.786707" style="fill: #ff0000; stroke: #ff0000"/>
     <use xlink:href="#m889df05f00" x="197.562317" y="118.421822" style="fill: #ff0000; stroke: #ff0000"/>
     <use xlink:href="#m889df05f00" x="191.236366" y="118.088702" style="fill: #ff0000; stroke: #ff0000"/>
     <use xlink:href="#m889df05f00" x="184.966555" y="118.441207" style="fill: #ff0000; stroke: #ff0000"/>
     <use xlink:href="#m889df05f00" x="178.807335" y="119.204297" style="fill: #ff0000; stroke: #ff0000"/>
     <use xlink:href="#m889df05f00" x="172.744466" y="120.288279" style="fill: #ff0000; stroke: #ff0000"/>
     <use xlink:href="#m889df05f00" x="166.790117" y="121.803349" style="fill: #ff0000; stroke: #ff0000"/>
     <use xlink:href="#m889df05f00" x="161.054005" y="123.978905" style="fill: #ff0000; stroke: #ff0000"/>
     <use xlink:href="#m889df05f00" x="155.753069" y="127.034477" style="fill: #ff0000; stroke: #ff0000"/>
     <use xlink:href="#m889df05f00" x="151.156212" y="131.062156" style="fill: #ff0000; stroke: #ff0000"/>
     <use xlink:href="#m889df05f00" x="147.491257" y="135.967278" style="fill: #ff0000; stroke: #ff0000"/>
     <use xlink:href="#m889df05f00" x="144.857252" y="141.485921" style="fill: #ff0000; stroke: #ff0000"/>
     <use xlink:href="#m889df05f00" x="143.181592" y="147.26566" style="fill: #ff0000; stroke: #ff0000"/>
     <use xlink:href="#m889df05f00" x="142.239726" y="152.971489" style="fill: #ff0000; stroke: #ff0000"/>
     <use xlink:href="#m889df05f00" x="141.726528" y="158.37329" style="fill: #ff0000; stroke: #ff0000"/>
     <use xlink:href="#m889df05f00" x="141.348561" y="163.385853" style="fill: #ff0000; stroke: #ff0000"/>
     <use xlink:href="#m889df05f00" x="140.903107" y="168.05619" style="fill: #ff0000; stroke: #ff0000"/>
     <use xlink:href="#m889df05f00" x="140.319421" y="172.512884" style="fill: #ff0000; stroke: #ff0000"/>
     <use xlink:href="#m889df05f00" x="139.653563" y="176.902308" style="fill: #ff0000; stroke: #ff0000"/>
     <use xlink:href="#m889df05f00" x="139.046058" y="181.336455" style="fill: #ff0000; stroke: #ff0000"/>
     <use xlink:href="#m889df05f00" x="138.66563" y="185.867277" style="fill: #ff0000; stroke: #ff0000"/>
     <use xlink:href="#m889df05f00" x="138.664385" y="190.487109" style="fill: #ff0000; stroke: #ff0000"/>
     <use xlink:href="#m889df05f00" x="139.157387" y="195.142862" style="fill: #ff0000; stroke: #ff0000"/>
     <use xlink:href="#m889df05f00" x="140.221425" y="199.75092" style="fill: #ff0000; stroke: #ff0000"/>
     <use xlink:href="#m889df05f00" x="141.89723" y="204.208966" style="fill: #ff0000; stroke: #ff0000"/>
     <use xlink:href="#m889df05f00" x="144.183809" y="208.410807" style="fill: #ff0000; stroke: #ff0000"/>
     <use xlink:href="#m889df05f00" x="147.027807" y="212.271106" style="fill: #ff0000; stroke: #ff0000"/>
     <use xlink:href="#m889df05f00" x="150.323285" y="215.75622" style="fill: #ff0000; stroke: #ff0000"/>
     <use xlink:href="#m889df05f00" x="153.936456" y="218.902802" style="fill: #ff0000; stroke: #ff0000"/>
     <use xlink:href="#m889df05f00" x="157.753467" y="221.800963" style="fill: #ff0000; stroke: #ff0000"/>
     <use xlink:href="#m889df05f00" x="161.727135" y="224.533849" style="fill: #ff0000; stroke: #ff0000"/>
     <use xlink:href="#m889df05f00" x="165.889323" y="227.095828" style="fill: #ff0000; stroke: #ff0000"/>
     <use xlink:href="#m889df05f00" x="170.311498" y="229.336017" style="fill: #ff0000; stroke: #ff0000"/>
     <use xlink:href="#m889df05f00" x="175.029659" y="230.970307" style="fill: #ff0000; stroke: #ff0000"/>
     <use xlink:href="#m889df05f00" x="179.97695" y="231.669922" style="fill: #ff0000; stroke: #ff0000"/>
     <use xlink:href="#m889df05f00" x="184.966555" y="231.189599" style="fill: #ff0000; stroke: #ff0000"/>
     <use xlink:href="#m889df05f00" x="189.738446" y="229.473697" style="fill: #ff0000; stroke: #ff0000"/>
     <use xlink:href="#m889df05f00" x="194.046439" y="226.689612" style="fill: #ff0000; stroke: #ff0000"/>
     <use xlink:href="#m889df05f00" x="197.740719" y="223.175546" style="fill: #ff0000; stroke: #ff0000"/>
     <use xlink:href="#m889df05f00" x="200.806287" y="219.330237" style="fill: #ff0000; stroke: #ff0000"/>
     <use xlink:href="#m889df05f00" x="203.343029" y="215.494613" style="fill: #ff0000; stroke: #ff0000"/>
     <use xlink:href="#m889df05f00" x="205.502629" y="211.872575" style="fill: #ff0000; stroke: #ff0000"/>
     <use xlink:href="#m889df05f00" x="207.416632" y="208.515465" style="fill: #ff0000; stroke: #ff0000"/>
     <use xlink:href="#m889df05f00" x="209.150873" y="205.364745" style="fill: #ff0000; stroke: #ff0000"/>
     <use xlink:href="#m889df05f00" x="210.705036" y="202.323202" style="fill: #ff0000; stroke: #ff0000"/>
     <use xlink:href="#m889df05f00" x="212.051495" y="199.317275" style="fill: #ff0000; stroke: #ff0000"/>
     <use xlink:href="#m889df05f00" x="213.188337" y="196.32399" style="fill: #ff0000; stroke: #ff0000"/>
     <use xlink:href="#m889df05f00" x="214.176854" y="193.357697" style="fill: #ff0000; stroke: #ff0000"/>
     <use xlink:href="#m889df05f00" x="215.143396" y="190.431441" style="fill: #ff0000; stroke: #ff0000"/>
     <use xlink:href="#m889df05f00" x="216.241445" y="187.517282" style="fill: #ff0000; stroke: #ff0000"/>
     <use xlink:href="#m889df05f00" x="217.586408" y="184.528502" style="fill: #ff0000; stroke: #ff0000"/>
    </g>
   </g>
   <g id="matplotlib.axis_1">
    <g id="xtick_1">
     <g id="line2d_1">
      <defs>
       <path id="m1b4840fbf3" d="M 0 0 
L 0 3.5 
" style="stroke: #000000; stroke-width: 0.8"/>
      </defs>
      <g>
       <use xlink:href="#m1b4840fbf3" x="45" y="320.4" style="stroke: #000000; stroke-width: 0.8"/>
      </g>
     </g>
     <g id="text_1">
      <!-- −3 -->
      <g transform="translate(37.628906 334.998438)scale(0.1 -0.1)">
       <defs>
        <path id="DejaVuSans-2212" d="M 678 2272 
L 4684 2272 
L 4684 1741 
L 678 1741 
L 678 2272 
z
" transform="scale(0.015625)"/>
        <path id="DejaVuSans-33" d="M 2597 2516 
Q 3050 2419 3304 2112 
Q 3559 1806 3559 1356 
Q 3559 666 3084 287 
Q 2609 -91 1734 -91 
Q 1441 -91 1130 -33 
Q 819 25 488 141 
L 488 750 
Q 750 597 1062 519 
Q 1375 441 1716 441 
Q 2309 441 2620 675 
Q 2931 909 2931 1356 
Q 2931 1769 2642 2001 
Q 2353 2234 1838 2234 
L 1294 2234 
L 1294 2753 
L 1863 2753 
Q 2328 2753 2575 2939 
Q 2822 3125 2822 3475 
Q 2822 3834 2567 4026 
Q 2313 4219 1838 4219 
Q 1578 4219 1281 4162 
Q 984 4106 628 3988 
L 628 4550 
Q 988 4650 1302 4700 
Q 1616 4750 1894 4750 
Q 2613 4750 3031 4423 
Q 3450 4097 3450 3541 
Q 3450 3153 3228 2886 
Q 3006 2619 2597 2516 
z
" transform="scale(0.015625)"/>
       </defs>
       <use xlink:href="#DejaVuSans-2212"/>
       <use xlink:href="#DejaVuSans-33" x="83.789062"/>
      </g>
     </g>
    </g>
    <g id="xtick_2">
     <g id="line2d_2">
      <g>
       <use xlink:href="#m1b4840fbf3" x="91.655518" y="320.4" style="stroke: #000000; stroke-width: 0.8"/>
      </g>
     </g>
     <g id="text_2">
      <!-- −2 -->
      <g transform="translate(84.284425 334.998438)scale(0.1 -0.1)">
       <defs>
        <path id="DejaVuSans-32" d="M 1228 531 
L 3431 531 
L 3431 0 
L 469 0 
L 469 531 
Q 828 903 1448 1529 
Q 2069 2156 2228 2338 
Q 2531 2678 2651 2914 
Q 2772 3150 2772 3378 
Q 2772 3750 2511 3984 
Q 2250 4219 1831 4219 
Q 1534 4219 1204 4116 
Q 875 4013 500 3803 
L 500 4441 
Q 881 4594 1212 4672 
Q 1544 4750 1819 4750 
Q 2544 4750 2975 4387 
Q 3406 4025 3406 3419 
Q 3406 3131 3298 2873 
Q 3191 2616 2906 2266 
Q 2828 2175 2409 1742 
Q 1991 1309 1228 531 
z
" transform="scale(0.015625)"/>
       </defs>
       <use xlink:href="#DejaVuSans-2212"/>
       <use xlink:href="#DejaVuSans-32" x="83.789062"/>
      </g>
     </g>
    </g>
    <g id="xtick_3">
     <g id="line2d_3">
      <g>
       <use xlink:href="#m1b4840fbf3" x="138.311037" y="320.4" style="stroke: #000000; stroke-width: 0.8"/>
      </g>
     </g>
     <g id="text_3">
      <!-- −1 -->
      <g transform="translate(130.939943 334.998438)scale(0.1 -0.1)">
       <defs>
        <path id="DejaVuSans-31" d="M 794 531 
L 1825 531 
L 1825 4091 
L 703 3866 
L 703 4441 
L 1819 4666 
L 2450 4666 
L 2450 531 
L 3481 531 
L 3481 0 
L 794 0 
L 794 531 
z
" transform="scale(0.015625)"/>
       </defs>
       <use xlink:href="#DejaVuSans-2212"/>
       <use xlink:href="#DejaVuSans-31" x="83.789062"/>
      </g>
     </g>
    </g>
    <g id="xtick_4">
     <g id="line2d_4">
      <g>
       <use xlink:href="#m1b4840fbf3" x="184.966555" y="320.4" style="stroke: #000000; stroke-width: 0.8"/>
      </g>
     </g>
     <g id="text_4">
      <!-- 0 -->
      <g transform="translate(181.785305 334.998438)scale(0.1 -0.1)">
       <defs>
        <path id="DejaVuSans-30" d="M 2034 4250 
Q 1547 4250 1301 3770 
Q 1056 3291 1056 2328 
Q 1056 1369 1301 889 
Q 1547 409 2034 409 
Q 2525 409 2770 889 
Q 3016 1369 3016 2328 
Q 3016 3291 2770 3770 
Q 2525 4250 2034 4250 
z
M 2034 4750 
Q 2819 4750 3233 4129 
Q 3647 3509 3647 2328 
Q 3647 1150 3233 529 
Q 2819 -91 2034 -91 
Q 1250 -91 836 529 
Q 422 1150 422 2328 
Q 422 3509 836 4129 
Q 1250 4750 2034 4750 
z
" transform="scale(0.015625)"/>
       </defs>
       <use xlink:href="#DejaVuSans-30"/>
      </g>
     </g>
    </g>
    <g id="xtick_5">
     <g id="line2d_5">
      <g>
       <use xlink:href="#m1b4840fbf3" x="231.622074" y="320.4" style="stroke: #000000; stroke-width: 0.8"/>
      </g>
     </g>
     <g id="text_5">
      <!-- 1 -->
      <g transform="translate(228.440824 334.998438)scale(0.1 -0.1)">
       <use xlink:href="#DejaVuSans-31"/>
      </g>
     </g>
    </g>
    <g id="xtick_6">
     <g id="line2d_6">
      <g>
       <use xlink:href="#m1b4840fbf3" x="278.277592" y="320.4" style="stroke: #000000; stroke-width: 0.8"/>
      </g>
     </g>
     <g id="text_6">
      <!-- 2 -->
      <g transform="translate(275.096342 334.998438)scale(0.1 -0.1)">
       <use xlink:href="#DejaVuSans-32"/>
      </g>
     </g>
    </g>
   </g>
   <g id="matplotlib.axis_2">
    <g id="ytick_1">
     <g id="line2d_7">
      <defs>
       <path id="mb67bf389ae" d="M 0 0 
L -3.5 0 
" style="stroke: #000000; stroke-width: 0.8"/>
      </defs>
      <g>
       <use xlink:href="#mb67bf389ae" x="45" y="320.4" style="stroke: #000000; stroke-width: 0.8"/>
      </g>
     </g>
     <g id="text_7">
      <!-- −3 -->
      <g transform="translate(23.257812 324.199219)scale(0.1 -0.1)">
       <use xlink:href="#DejaVuSans-2212"/>
       <use xlink:href="#DejaVuSans-33" x="83.789062"/>
      </g>
     </g>
    </g>
    <g id="ytick_2">
     <g id="line2d_8">
      <g>
       <use xlink:href="#mb67bf389ae" x="45" y="274.045485" style="stroke: #000000; stroke-width: 0.8"/>
      </g>
     </g>
     <g id="text_8">
      <!-- −2 -->
      <g transform="translate(23.257812 277.844704)scale(0.1 -0.1)">
       <use xlink:href="#DejaVuSans-2212"/>
       <use xlink:href="#DejaVuSans-32" x="83.789062"/>
      </g>
     </g>
    </g>
    <g id="ytick_3">
     <g id="line2d_9">
      <g>
       <use xlink:href="#mb67bf389ae" x="45" y="227.69097" style="stroke: #000000; stroke-width: 0.8"/>
      </g>
     </g>
     <g id="text_9">
      <!-- −1 -->
      <g transform="translate(23.257812 231.490189)scale(0.1 -0.1)">
       <use xlink:href="#DejaVuSans-2212"/>
       <use xlink:href="#DejaVuSans-31" x="83.789062"/>
      </g>
     </g>
    </g>
    <g id="ytick_4">
     <g id="line2d_10">
      <g>
       <use xlink:href="#mb67bf389ae" x="45" y="181.336455" style="stroke: #000000; stroke-width: 0.8"/>
      </g>
     </g>
     <g id="text_10">
      <!-- 0 -->
      <g transform="translate(31.6375 185.135674)scale(0.1 -0.1)">
       <use xlink:href="#DejaVuSans-30"/>
      </g>
     </g>
    </g>
    <g id="ytick_5">
     <g id="line2d_11">
      <g>
       <use xlink:href="#mb67bf389ae" x="45" y="134.98194" style="stroke: #000000; stroke-width: 0.8"/>
      </g>
     </g>
     <g id="text_11">
      <!-- 1 -->
      <g transform="translate(31.6375 138.781159)scale(0.1 -0.1)">
       <use xlink:href="#DejaVuSans-31"/>
      </g>
     </g>
    </g>
    <g id="ytick_6">
     <g id="line2d_12">
      <g>
       <use xlink:href="#mb67bf389ae" x="45" y="88.627425" style="stroke: #000000; stroke-width: 0.8"/>
      </g>
     </g>
     <g id="text_12">
      <!-- 2 -->
      <g transform="translate(31.6375 92.426643)scale(0.1 -0.1)">
       <use xlink:href="#DejaVuSans-32"/>
      </g>
     </g>
    </g>
   </g>
   <g id="PathCollection_2">
    <path d="M 177.501672 207.450092 
L 177.047907 207.294983 
L 176.568562 207.130645 
L 175.635452 206.691336 
L 175.103946 206.367893 
L 174.702341 206.113374 
L 173.769231 205.481832 
L 173.708631 205.440803 
L 172.83612 204.796228 
L 172.533386 204.513712 
L 171.90301 203.892012 
L 171.570519 203.586622 
L 170.9699 203.011197 
L 170.573312 202.659532 
L 170.036789 202.153301 
L 169.634027 201.732441 
L 169.103679 201.154998 
L 168.763622 200.805351 
L 168.170569 200.195436 
L 167.942608 199.878261 
L 167.352209 198.951171 
L 167.237458 198.770976 
L 166.76182 198.02408 
L 166.304348 197.305728 
L 166.148313 197.09699 
L 165.520887 196.1699 
L 165.371237 195.624252 
L 165.272111 195.242809 
L 165.073426 194.315719 
L 164.715633 193.388629 
L 164.438127 192.637463 
L 164.373669 192.461538 
L 164.062923 191.534448 
L 163.748755 190.607358 
L 163.505017 189.881544 
L 163.438701 189.680268 
L 163.183435 188.753177 
L 162.95398 187.826087 
L 162.851092 186.898997 
L 162.762335 185.971906 
L 162.876161 185.044816 
L 163.052103 184.117726 
L 163.228218 183.190635 
L 163.40385 182.263545 
L 163.505017 181.736613 
L 163.5816 181.336455 
L 163.771818 180.409365 
L 163.975938 179.482274 
L 164.179295 178.555184 
L 164.286985 177.628094 
L 164.136209 176.701003 
L 163.960738 175.773913 
L 163.739048 174.846823 
L 163.505017 174.045699 
L 163.467206 173.919732 
L 163.231534 172.992642 
L 163.080966 172.065552 
L 162.871531 171.138462 
L 162.646049 170.211371 
L 162.571906 169.773057 
L 162.47918 169.284281 
L 162.346575 168.357191 
L 162.217734 167.4301 
L 162.120657 166.50301 
L 162.168466 165.57592 
L 162.392239 164.648829 
L 162.571906 163.917165 
L 162.619527 163.721739 
L 162.83807 162.794649 
L 163.078754 161.867559 
L 163.345113 160.940468 
L 163.505017 160.380998 
L 163.608176 160.013378 
L 163.864413 159.086288 
L 164.103504 158.159197 
L 164.293514 157.232107 
L 164.438127 156.449254 
L 164.467015 156.305017 
L 164.736442 155.377926 
L 165.056964 154.450836 
L 165.240957 153.523746 
L 165.371237 152.863007 
L 165.422757 152.596656 
L 165.687434 151.669565 
L 166.206267 150.742475 
L 166.304348 150.611419 
L 166.969369 149.815385 
L 167.237458 149.495866 
L 167.737516 148.888294 
L 168.170569 148.427885 
L 168.711136 147.961204 
L 169.103679 147.642919 
L 169.852683 147.034114 
L 170.036789 146.884819 
L 170.9699 146.125803 
L 170.992947 146.107023 
L 171.90301 145.365444 
L 172.130668 145.179933 
L 172.83612 144.605083 
L 173.316681 144.252843 
L 173.769231 143.944263 
L 174.702341 143.409714 
L 174.881825 143.325753 
L 175.635452 143.017084 
L 176.568562 142.79769 
L 177.501672 142.578279 
L 178.434783 142.400674 
L 178.449291 142.398662 
L 179.367893 142.283084 
L 180.301003 142.224602 
L 181.234114 142.156246 
L 182.167224 142.089015 
L 183.100334 141.972093 
L 184.033445 141.626118 
L 184.433036 141.471572 
L 184.966555 141.272692 
L 185.899666 140.939176 
L 186.832776 140.608489 
L 187.765886 140.547224 
L 188.698997 140.550082 
L 188.792473 140.544482 
L 189.632107 140.49601 
L 190.565217 140.514474 
L 190.83873 140.544482 
L 191.498328 140.645623 
L 192.431438 140.84435 
L 193.364548 141.06489 
L 194.297659 141.285314 
L 194.709843 141.471572 
L 195.230769 141.714902 
L 196.16388 142.230202 
L 196.408516 142.398662 
L 197.09699 143.031221 
L 197.322234 143.325753 
L 198.0301 144.249481 
L 198.032663 144.252843 
L 198.751373 145.179933 
L 198.963211 145.453192 
L 199.483114 146.107023 
L 199.896321 146.640405 
L 200.156723 147.034114 
L 200.715596 147.961204 
L 200.829431 148.158643 
L 201.249973 148.888294 
L 201.762542 149.777612 
L 201.784221 149.815385 
L 202.015306 150.742475 
L 202.085761 151.669565 
L 202.147718 152.596656 
L 202.209678 153.523746 
L 202.271631 154.450836 
L 202.240434 155.377926 
L 202.147731 156.305017 
L 202.043814 157.232107 
L 201.940824 158.159197 
L 201.837602 159.086288 
L 201.762542 159.270397 
L 201.450149 160.013378 
L 201.054375 160.940468 
L 200.829431 161.494973 
L 200.678288 161.867559 
L 200.335666 162.794649 
L 200.095476 163.721739 
L 199.907942 164.648829 
L 199.896321 164.722126 
L 199.760703 165.57592 
L 199.57473 166.50301 
L 199.372502 167.4301 
L 199.168929 168.357191 
L 198.979049 169.284281 
L 198.963211 169.376569 
L 198.818234 170.211371 
L 198.663508 171.138462 
L 198.534259 172.065552 
L 198.085327 172.992642 
L 198.0301 173.085942 
L 197.516745 173.919732 
L 197.09699 174.496433 
L 196.832333 174.846823 
L 196.16388 175.741524 
L 196.139844 175.773913 
L 195.527505 176.701003 
L 195.230769 177.229918 
L 195.020124 177.628094 
L 194.528072 178.555184 
L 194.297659 178.989313 
L 194.039521 179.482274 
L 193.557271 180.409365 
L 193.364548 180.954965 
L 193.23169 181.336455 
L 192.940432 182.263545 
L 192.577405 183.190635 
L 192.431438 183.52184 
L 192.179089 184.117726 
L 191.88292 185.044816 
L 191.608936 185.971906 
L 191.498328 186.339 
L 191.330352 186.898997 
L 191.054035 187.826087 
L 190.780032 188.753177 
L 190.565217 189.478755 
L 190.506765 189.680268 
L 190.253548 190.607358 
L 190.012297 191.534448 
L 189.809328 192.461538 
L 189.632107 193.164334 
L 189.573342 193.388629 
L 189.246342 194.315719 
L 188.911756 195.242809 
L 188.698997 195.779035 
L 188.535285 196.1699 
L 188.118215 197.09699 
L 187.765886 197.760815 
L 187.619983 198.02408 
L 187.024677 198.951171 
L 186.832776 199.242245 
L 186.397036 199.878261 
L 185.899666 200.670605 
L 185.815183 200.805351 
L 185.233124 201.732441 
L 184.966555 202.157099 
L 184.661227 202.659532 
L 184.033445 203.507556 
L 183.966648 203.586622 
L 183.183339 204.513712 
L 183.100334 204.611954 
L 182.400059 205.440803 
L 182.167224 205.716382 
L 181.595663 206.367893 
L 181.234114 206.692445 
L 180.301003 207.228103 
L 180.163651 207.294983 
L 179.367893 207.661651 
L 178.434783 207.726081 
L 177.501672 207.450092 
z
" clip-path="url(#p33f87b1dd1)" style="fill: none; stroke-dasharray: 5.55,2.4; stroke-dashoffset: 0; stroke: #000000; stroke-width: 1.5"/>
   </g>
   <g id="PathCollection_3">
    <path d="M 175.635452 231.400794 
L 175.584153 231.399331 
L 174.702341 231.176146 
L 173.769231 230.998253 
L 172.83612 230.77465 
L 171.90301 230.503626 
L 171.574433 230.472241 
L 170.9699 230.296804 
L 170.036789 229.911291 
L 169.297894 229.545151 
L 169.103679 229.425283 
L 168.170569 229.003303 
L 167.55657 228.61806 
L 167.237458 228.407257 
L 166.304348 227.869299 
L 166.043585 227.69097 
L 165.371237 227.283915 
L 164.645259 226.76388 
L 164.438127 226.611746 
L 163.505017 226.109558 
L 163.139666 225.836789 
L 162.571906 225.443061 
L 161.918136 224.909699 
L 161.638796 224.705439 
L 160.763979 223.982609 
L 160.705686 223.931006 
L 159.772575 223.309949 
L 159.457521 223.055518 
L 158.839465 222.623184 
L 158.266845 222.128428 
L 157.906355 221.835237 
L 157.198225 221.201338 
L 156.973244 221.007973 
L 156.15833 220.274247 
L 156.040134 220.164103 
L 155.128358 219.347157 
L 155.107023 219.325939 
L 154.173913 218.869562 
L 153.503859 218.420067 
L 153.240803 218.257691 
L 152.307692 217.58626 
L 152.190525 217.492977 
L 151.374582 216.918931 
L 150.962155 216.565886 
L 150.441472 216.13337 
L 149.916946 215.638796 
L 149.508361 215.296373 
L 148.951815 214.711706 
L 148.575251 214.274614 
L 148.11616 213.784615 
L 147.64214 213.300327 
L 147.232085 212.857525 
L 146.70903 212.247927 
L 146.431886 211.930435 
L 145.77592 211.084328 
L 145.709742 211.003344 
L 145.051378 210.076254 
L 144.842809 209.819204 
L 144.345206 209.149164 
L 143.909699 208.552138 
L 143.651556 208.222074 
L 143.307131 207.294983 
L 143.004012 206.367893 
L 142.976589 206.316407 
L 142.673095 205.440803 
L 142.44321 204.513712 
L 142.216063 203.586622 
L 142.043478 203.049583 
L 141.97 202.659532 
L 141.686385 201.732441 
L 141.425489 200.805351 
L 141.116716 199.878261 
L 141.110368 199.866475 
L 140.761905 198.951171 
L 140.605595 198.02408 
L 140.471327 197.09699 
L 140.203454 196.1699 
L 140.177258 196.088455 
L 140.003411 195.242809 
L 139.795424 194.315719 
L 139.615894 193.388629 
L 139.464544 192.461538 
L 139.246253 191.534448 
L 139.244147 191.5255 
L 139.167667 190.607358 
L 139.028662 189.680268 
L 138.859529 188.753177 
L 138.72838 187.826087 
L 138.62509 186.898997 
L 138.552799 185.971906 
L 138.568368 185.044816 
L 138.516309 184.117726 
L 138.549977 183.190635 
L 138.605475 182.263545 
L 138.652684 181.336455 
L 138.693338 180.409365 
L 138.749553 179.482274 
L 138.812762 178.555184 
L 139.138467 177.628094 
L 139.236124 176.701003 
L 139.244147 176.502301 
L 139.499881 175.773913 
L 139.670354 174.846823 
L 139.816843 173.919732 
L 140.031384 172.992642 
L 140.159622 172.065552 
L 140.177258 171.715279 
L 140.302511 171.138462 
L 140.44575 170.211371 
L 140.439577 169.284281 
L 140.306509 168.357191 
L 140.177258 167.780344 
L 140.160144 167.4301 
L 139.974199 166.50301 
L 139.725747 165.57592 
L 139.748515 164.648829 
L 139.840897 163.721739 
L 140.132301 162.794649 
L 140.177258 162.053456 
L 140.215712 161.867559 
L 140.31634 160.940468 
L 140.396013 160.013378 
L 140.461028 159.086288 
L 140.515153 158.159197 
L 140.535409 157.232107 
L 140.566152 156.305017 
L 140.606826 155.377926 
L 140.651699 154.450836 
L 140.687043 153.523746 
L 140.715774 152.596656 
L 140.742931 151.669565 
L 141.053928 150.742475 
L 141.110368 150.428758 
L 141.376926 149.815385 
L 141.651028 148.888294 
L 142.008794 147.961204 
L 142.043478 147.632665 
L 142.27442 147.034114 
L 142.513415 146.107023 
L 142.853707 145.179933 
L 142.976589 144.616667 
L 143.132052 144.252843 
L 143.396343 143.325753 
L 143.740398 142.398662 
L 143.909699 141.992967 
L 144.146025 141.471572 
L 144.480567 140.544482 
L 144.831581 139.617391 
L 144.842809 139.580626 
L 145.252736 138.690301 
L 145.77592 137.899522 
L 145.880865 137.763211 
L 146.524767 136.83612 
L 146.70903 136.59397 
L 147.234316 135.90903 
L 147.64214 135.385029 
L 147.955854 134.98194 
L 148.575251 134.186082 
L 148.682598 134.054849 
L 149.439776 133.127759 
L 149.508361 133.046655 
L 150.138197 132.200669 
L 150.441472 131.78084 
L 150.803197 131.273579 
L 151.374582 130.612715 
L 151.685483 130.346488 
L 152.307692 129.848277 
L 152.843312 129.419398 
L 153.240803 129.101128 
L 154.060458 128.492308 
L 154.173913 128.411275 
L 155.107023 127.801478 
L 155.453949 127.565217 
L 156.040134 127.164422 
L 156.809886 126.638127 
L 156.973244 126.521869 
L 157.906355 125.888457 
L 158.165848 125.711037 
L 158.839465 125.243828 
L 159.49879 124.783946 
L 159.772575 124.595851 
L 160.705686 124.179703 
L 161.423831 123.856856 
L 161.638796 123.762261 
L 162.571906 123.39006 
L 163.505017 123.017556 
L 163.69255 122.929766 
L 164.438127 122.634707 
L 165.371237 122.256029 
L 166.304348 122.014397 
L 166.340333 122.002676 
L 167.237458 121.790047 
L 168.170569 121.603392 
L 169.103679 121.391848 
L 170.036789 121.186752 
L 170.391479 121.075585 
L 170.9699 120.925253 
L 171.90301 120.704372 
L 172.83612 120.487718 
L 173.769231 120.311371 
L 174.381712 120.148495 
L 174.702341 120.087261 
L 175.635452 119.879427 
L 176.568562 119.678325 
L 177.501672 119.507099 
L 178.434783 119.379931 
L 179.250248 119.221405 
L 179.367893 119.211295 
L 180.301003 119.064958 
L 181.234114 118.932709 
L 182.167224 118.799812 
L 183.100334 118.658617 
L 184.033445 118.553852 
L 184.966555 118.595689 
L 185.899666 118.491464 
L 186.783118 118.294314 
L 186.832776 118.291946 
L 187.765886 118.189489 
L 188.698997 118.000051 
L 189.632107 117.870801 
L 190.565217 117.733098 
L 191.498328 117.613074 
L 192.431438 117.509352 
L 193.364548 117.370122 
L 193.380091 117.367224 
L 194.297659 117.30295 
L 195.230769 117.19585 
L 196.16388 117.15858 
L 197.09699 117.16646 
L 198.0301 117.269271 
L 198.837281 117.367224 
L 198.963211 117.388325 
L 199.896321 117.748086 
L 200.829431 118.201485 
L 200.977114 118.294314 
L 201.762542 118.785859 
L 202.45139 119.221405 
L 202.695652 119.382534 
L 203.628763 119.968833 
L 203.903247 120.148495 
L 204.561873 120.583623 
L 205.458838 121.075585 
L 205.494983 121.099828 
L 206.428094 121.606389 
L 207.173313 122.002676 
L 207.361204 122.128679 
L 208.294314 122.609037 
L 208.880185 122.929766 
L 209.227425 123.148866 
L 210.160535 123.629701 
L 210.571996 123.856856 
L 211.093645 124.153281 
L 212.026756 124.758246 
L 212.097289 124.783946 
L 212.959866 125.325966 
L 213.605882 125.711037 
L 213.892977 125.908463 
L 214.826087 126.557808 
L 214.906821 126.638127 
L 215.759197 127.509932 
L 215.813886 127.565217 
L 216.692308 128.437678 
L 216.745006 128.492308 
L 217.519061 129.419398 
L 217.625418 129.531972 
L 218.314638 130.346488 
L 218.558528 130.632567 
L 219.130443 131.273579 
L 219.491639 131.669886 
L 219.925569 132.200669 
L 220.424749 132.88356 
L 220.6024 133.127759 
L 221.259205 134.054849 
L 221.35786 134.166217 
L 221.951294 134.98194 
L 222.29097 135.491527 
L 222.519405 135.90903 
L 222.843638 136.83612 
L 223.131005 137.763211 
L 223.22408 137.912283 
L 223.509674 138.690301 
L 223.82964 139.617391 
L 224.157191 140.480025 
L 224.165511 140.544482 
L 224.475743 141.471572 
L 224.717176 142.398662 
L 224.916953 143.325753 
L 225.090301 143.883413 
L 225.117396 144.252843 
L 225.157674 145.179933 
L 225.158363 146.107023 
L 225.244966 147.034114 
L 225.361252 147.961204 
L 225.447272 148.888294 
L 225.541921 149.815385 
L 225.642503 150.742475 
L 225.738287 151.669565 
L 225.812962 152.596656 
L 225.902853 153.523746 
L 226.021425 154.450836 
L 226.023411 154.463749 
L 226.120784 155.377926 
L 226.219745 156.305017 
L 226.283354 157.232107 
L 226.145936 158.159197 
L 226.023411 158.666408 
L 225.907412 159.086288 
L 225.684761 160.013378 
L 225.390627 160.940468 
L 225.090301 161.86083 
L 225.087283 161.867559 
L 224.870674 162.794649 
L 224.662162 163.721739 
L 224.445943 164.648829 
L 224.226126 165.57592 
L 224.157191 165.830785 
L 223.972899 166.50301 
L 223.772819 167.4301 
L 223.550427 168.357191 
L 223.342363 169.284281 
L 223.22408 169.736987 
L 223.086885 170.211371 
L 222.892782 171.138462 
L 222.674089 172.065552 
L 222.4682 172.992642 
L 222.29097 173.687589 
L 222.217914 173.919732 
L 222.012935 174.846823 
L 221.795052 175.773913 
L 221.591256 176.701003 
L 221.360709 177.628094 
L 221.35786 177.633937 
L 220.937659 178.555184 
L 220.424749 179.353873 
L 220.330416 179.482274 
L 219.750361 180.409365 
L 219.491639 180.890835 
L 219.255014 181.336455 
L 218.789734 182.263545 
L 218.558528 182.836009 
L 218.410195 183.190635 
L 218.027276 184.117726 
L 217.667801 185.044816 
L 217.625418 185.143783 
L 217.311215 185.971906 
L 216.966336 186.898997 
L 216.692308 187.646665 
L 216.620234 187.826087 
L 216.23276 188.753177 
L 215.818685 189.680268 
L 215.759197 189.774142 
L 215.26055 190.607358 
L 214.826087 191.418688 
L 214.762511 191.534448 
L 214.418809 192.461538 
L 214.101129 193.388629 
L 213.892977 193.979545 
L 213.775815 194.315719 
L 213.525564 195.242809 
L 213.259293 196.1699 
L 212.959866 197.02986 
L 212.932672 197.09699 
L 212.672709 198.02408 
L 212.417167 198.951171 
L 212.156851 199.878261 
L 212.026756 200.24639 
L 211.857897 200.805351 
L 211.606662 201.732441 
L 211.297506 202.659532 
L 211.093645 203.009132 
L 210.771728 203.586622 
L 210.198839 204.513712 
L 210.160535 204.565161 
L 209.594178 205.440803 
L 209.227425 205.99688 
L 208.983067 206.367893 
L 208.369231 207.294983 
L 208.294314 207.40726 
L 207.776038 208.222074 
L 207.361204 208.881846 
L 207.197901 209.149164 
L 206.625231 210.076254 
L 206.428094 210.387229 
L 206.077917 211.003344 
L 205.583727 211.930435 
L 205.494983 212.093076 
L 205.09826 212.857525 
L 204.602224 213.784615 
L 204.561873 213.856184 
L 204.076859 214.711706 
L 203.628763 215.463339 
L 203.519208 215.638796 
L 202.975051 216.565886 
L 202.695652 216.983757 
L 202.365888 217.492977 
L 201.762542 218.350912 
L 201.707968 218.420067 
L 201.067556 219.347157 
L 200.829431 219.674547 
L 200.461965 220.274247 
L 199.908401 221.201338 
L 199.896321 221.242103 
L 199.336577 222.128428 
L 198.963211 222.574412 
L 198.548156 223.055518 
L 198.0301 223.643314 
L 197.73581 223.982609 
L 197.09699 224.712774 
L 196.926405 224.909699 
L 196.16388 225.779972 
L 196.107411 225.836789 
L 195.323813 226.76388 
L 195.230769 226.862811 
L 194.404456 227.69097 
L 194.297659 227.749684 
L 193.364548 228.247219 
L 192.607225 228.61806 
L 192.431438 228.677523 
L 191.498328 229.191866 
L 190.794177 229.545151 
L 190.565217 229.58449 
L 189.632107 230.085743 
L 188.698997 230.437224 
L 188.642214 230.472241 
L 187.765886 230.841997 
L 186.832776 231.158363 
L 186.365645 231.399331 
L 185.899666 231.56649 
L 184.966555 231.630878 
L 184.033445 231.62055 
L 183.100334 231.612949 
L 182.167224 231.605505 
L 181.234114 231.598204 
L 180.301003 231.695379 
L 179.367893 231.831415 
L 178.434783 231.847934 
L 177.501672 231.668643 
L 176.568562 231.445088 
L 175.635452 231.400794 
z
" clip-path="url(#p33f87b1dd1)" style="fill: none; stroke: #000000; stroke-width: 1.5"/>
   </g>
   <g id="PathCollection_4">
    <path d="M 170.9699 253.703931 
L 166.304348 252.471083 
L 161.638796 250.705043 
L 159.986178 249.941137 
L 156.040134 247.780699 
L 152.793041 246.232776 
L 146.666252 242.524415 
L 142.976589 239.85116 
L 139.244147 237.631572 
L 138.295292 236.961873 
L 130.846154 230.127357 
L 129.797443 228.61806 
L 128.423547 226.76388 
L 127.048238 224.909699 
L 122.448161 218.160912 
L 122.111306 217.492977 
L 118.547199 206.367893 
L 117.65979 199.878261 
L 117.06206 198.02408 
L 115.678168 191.534448 
L 114.917503 186.898997 
L 115.001435 184.117726 
L 115.046085 183.190635 
L 116.635387 174.846823 
L 117.176924 172.992642 
L 117.486306 170.211371 
L 116.849498 160.902717 
L 117.782609 156.160189 
L 118.501079 152.596656 
L 118.986569 147.961204 
L 119.351052 144.252843 
L 119.648829 143.129618 
L 125.114386 128.492308 
L 125.568598 127.565217 
L 130.219059 120.148495 
L 134.578595 114.206721 
L 135.511706 113.275403 
L 140.265174 109.023411 
L 147.64214 104.177654 
L 151.374582 102.508069 
L 154.173913 101.420836 
L 163.505017 99.374434 
L 167.237458 98.550708 
L 172.83612 97.598804 
L 176.568562 96.745224 
L 180.301003 96.425787 
L 183.100334 96.543766 
L 184.033445 96.53809 
L 186.832776 96.169711 
L 188.698997 95.947523 
L 195.230769 94.946165 
L 198.0301 94.652952 
L 201.762542 94.890429 
L 207.361204 96.613551 
L 210.160535 97.746525 
L 215.759197 100.724794 
L 219.669626 102.533779 
L 221.493593 103.46087 
L 227.889632 107.240021 
L 230.688963 110.161089 
L 232.867536 112.731773 
L 240.262625 121.075585 
L 241.214886 122.929766 
L 243.611206 128.492308 
L 244.315373 130.346488 
L 245.005277 132.200669 
L 246.888186 136.83612 
L 247.829527 139.617391 
L 249.107989 147.961204 
L 249.35432 151.669565 
L 249.752382 155.377926 
L 249.699912 156.305017 
L 245.136701 178.555184 
L 243.752508 184.168058 
L 241.33551 189.680268 
L 239.366497 194.315719 
L 237.763035 198.02408 
L 235.354515 203.242954 
L 234.421405 205.214443 
L 233.925842 206.367893 
L 232.555184 210.10858 
L 231.154775 213.784615 
L 228.233702 219.347157 
L 226.597877 222.128428 
L 220.208702 231.399331 
L 215.437727 238.816054 
L 214.806786 239.743144 
L 213.892977 240.73873 
L 206.238349 247.159866 
L 204.13688 248.086957 
L 194.297659 252.283799 
L 191.498328 253.372426 
L 190.565217 253.505855 
L 186.832776 253.674279 
L 176.568562 254.329315 
L 174.702341 254.463142 
L 172.83612 254.140887 
L 170.9699 253.703931 
L 170.9699 253.703931 
" clip-path="url(#p33f87b1dd1)" style="fill: none; stroke: #000000; stroke-width: 1.5"/>
   </g>
   <g id="patch_3">
    <path d="M 45 320.4 
L 45 43.2 
" style="fill: none; stroke: #000000; stroke-width: 0.8; stroke-linejoin: miter; stroke-linecap: square"/>
   </g>
   <g id="patch_4">
    <path d="M 324 320.4 
L 324 43.2 
" style="fill: none; stroke: #000000; stroke-width: 0.8; stroke-linejoin: miter; stroke-linecap: square"/>
   </g>
   <g id="patch_5">
    <path d="M 45 320.4 
L 324 320.4 
" style="fill: none; stroke: #000000; stroke-width: 0.8; stroke-linejoin: miter; stroke-linecap: square"/>
   </g>
   <g id="patch_6">
    <path d="M 45 43.2 
L 324 43.2 
" style="fill: none; stroke: #000000; stroke-width: 0.8; stroke-linejoin: miter; stroke-linecap: square"/>
   </g>
  </g>
 </g>
 <defs>
  <clipPath id="p33f87b1dd1">
   <rect x="45" y="43.2" width="279" height="277.2"/>
  </clipPath>
 </defs>
</svg>
