<?xml version="1.0" encoding="utf-8" standalone="no"?>
<!DOCTYPE svg PUBLIC "-//W3C//DTD SVG 1.1//EN"
  "http://www.w3.org/Graphics/SVG/1.1/DTD/svg11.dtd">
<svg xmlns:xlink="http://www.w3.org/1999/xlink" width="360pt" height="360pt" viewBox="0 0 360 360" xmlns="http://www.w3.org/2000/svg" version="1.1">
 <metadata>
  <rdf:RDF xmlns:dc="http://purl.org/dc/elements/1.1/" xmlns:cc="http://creativecommons.org/ns#" xmlns:rdf="http://www.w3.org/1999/02/22-rdf-syntax-ns#">
   <cc:Work>
    <dc:type rdf:resource="http://purl.org/dc/dcmitype/StillImage"/>
    <dc:date>2022-04-10T19:53:23.825516</dc:date>
    <dc:format>image/svg+xml</dc:format>
    <dc:creator>
     <cc:Agent>
      <dc:title>Matplotlib v3.5.1, https://matplotlib.org/</dc:title>
     </cc:Agent>
    </dc:creator>
   </cc:Work>
  </rdf:RDF>
 </metadata>
 <defs>
  <style type="text/css">*{stroke-linejoin: round; stroke-linecap: butt}</style>
 </defs>
 <g id="figure_1">
  <g id="patch_1">
   <path d="M 0 360 
L 360 360 
L 360 0 
L 0 0 
z
" style="fill: #ffffff"/>
  </g>
  <g id="axes_1">
   <g id="patch_2">
    <path d="M 45 320.4 
L 324 320.4 
L 324 43.2 
L 45 43.2 
z
" style="fill: #ffffff"/>
   </g>
   <g id="PathCollection_1">
    <defs>
     <path id="mbdb8522769" d="M 0 0.5 
C 0.132602 0.5 0.25979 0.447317 0.353553 0.353553 
C 0.447317 0.25979 0.5 0.132602 0.5 0 
C 0.5 -0.132602 0.447317 -0.25979 0.353553 -0.353553 
C 0.25979 -0.447317 0.132602 -0.5 0 -0.5 
C -0.132602 -0.5 -0.25979 -0.447317 -0.353553 -0.353553 
C -0.447317 -0.25979 -0.5 -0.132602 -0.5 0 
C -0.5 0.132602 -0.447317 0.25979 -0.353553 0.353553 
C -0.25979 0.447317 -0.132602 0.5 0 0.5 
z
" style="stroke: #ff0000"/>
    </defs>
    <g clip-path="url(#p6cd6f8a7b0)">
     <use xlink:href="#mbdb8522769" x="233.631409" y="181.336455" style="fill: #ff0000; stroke: #ff0000"/>
     <use xlink:href="#mbdb8522769" x="232.245884" y="176.70989" style="fill: #ff0000; stroke: #ff0000"/>
     <use xlink:href="#mbdb8522769" x="230.308442" y="172.37558" style="fill: #ff0000; stroke: #ff0000"/>
     <use xlink:href="#mbdb8522769" x="228.104595" y="168.335098" style="fill: #ff0000; stroke: #ff0000"/>
     <use xlink:href="#mbdb8522769" x="225.873141" y="164.501709" style="fill: #ff0000; stroke: #ff0000"/>
     <use xlink:href="#mbdb8522769" x="223.716851" y="160.757619" style="fill: #ff0000; stroke: #ff0000"/>
     <use xlink:href="#mbdb8522769" x="221.583689" y="157.027519" style="fill: #ff0000; stroke: #ff0000"/>
     <use xlink:href="#mbdb8522769" x="219.322152" y="153.323448" style="fill: #ff0000; stroke: #ff0000"/>
     <use xlink:href="#mbdb8522769" x="216.771202" y="149.736999" style="fill: #ff0000; stroke: #ff0000"/>
     <use xlink:href="#mbdb8522769" x="213.832273" y="146.390398" style="fill: #ff0000; stroke: #ff0000"/>
     <use xlink:href="#mbdb8522769" x="210.491496" y="143.382138" style="fill: #ff0000; stroke: #ff0000"/>
     <use xlink:href="#mbdb8522769" x="206.795873" y="140.760157" style="fill: #ff0000; stroke: #ff0000"/>
     <use xlink:href="#mbdb8522769" x="202.812603" y="138.530247" style="fill: #ff0000; stroke: #ff0000"/>
     <use xlink:href="#mbdb8522769" x="198.600721" y="136.680606" style="fill: #ff0000; stroke: #ff0000"/>
     <use xlink:href="#mbdb8522769" x="194.203904" y="135.196772" style="fill: #ff0000; stroke: #ff0000"/>
     <use xlink:href="#mbdb8522769" x="189.65331" y="134.05804" style="fill: #ff0000; stroke: #ff0000"/>
     <use xlink:href="#mbdb8522769" x="184.966555" y="133.228955" style="fill: #ff0000; stroke: #ff0000"/>
     <use xlink:href="#mbdb8522769" x="180.141846" y="132.6664" style="fill: #ff0000; stroke: #ff0000"/>
     <use xlink:href="#mbdb8522769" x="175.15913" y="132.349296" style="fill: #ff0000; stroke: #ff0000"/>
     <use xlink:href="#mbdb8522769" x="170.000142" y="132.317111" style="fill: #ff0000; stroke: #ff0000"/>
     <use xlink:href="#mbdb8522769" x="164.686378" y="132.691652" style="fill: #ff0000; stroke: #ff0000"/>
     <use xlink:href="#mbdb8522769" x="159.318175" y="133.661289" style="fill: #ff0000; stroke: #ff0000"/>
     <use xlink:href="#mbdb8522769" x="154.090202" y="135.424853" style="fill: #ff0000; stroke: #ff0000"/>
     <use xlink:href="#mbdb8522769" x="149.265242" y="138.114938" style="fill: #ff0000; stroke: #ff0000"/>
     <use xlink:href="#mbdb8522769" x="145.107921" y="141.734973" style="fill: #ff0000; stroke: #ff0000"/>
     <use xlink:href="#mbdb8522769" x="141.802967" y="146.141552" style="fill: #ff0000; stroke: #ff0000"/>
     <use xlink:href="#mbdb8522769" x="139.394876" y="151.082884" style="fill: #ff0000; stroke: #ff0000"/>
     <use xlink:href="#mbdb8522769" x="137.779015" y="156.276913" style="fill: #ff0000; stroke: #ff0000"/>
     <use xlink:href="#mbdb8522769" x="136.75168" y="161.494047" style="fill: #ff0000; stroke: #ff0000"/>
     <use xlink:href="#mbdb8522769" x="136.100337" y="166.608684" style="fill: #ff0000; stroke: #ff0000"/>
     <use xlink:href="#mbdb8522769" x="135.697197" y="171.599398" style="fill: #ff0000; stroke: #ff0000"/>
     <use xlink:href="#mbdb8522769" x="135.555757" y="176.501313" style="fill: #ff0000; stroke: #ff0000"/>
     <use xlink:href="#mbdb8522769" x="135.822674" y="181.336455" style="fill: #ff0000; stroke: #ff0000"/>
     <use xlink:href="#mbdb8522769" x="136.704972" y="186.059139" style="fill: #ff0000; stroke: #ff0000"/>
     <use xlink:href="#mbdb8522769" x="138.364852" y="190.546306" style="fill: #ff0000; stroke: #ff0000"/>
     <use xlink:href="#mbdb8522769" x="140.833288" y="194.637763" style="fill: #ff0000; stroke: #ff0000"/>
     <use xlink:href="#mbdb8522769" x="143.984719" y="198.20217" style="fill: #ff0000; stroke: #ff0000"/>
     <use xlink:href="#mbdb8522769" x="147.581737" y="201.190136" style="fill: #ff0000; stroke: #ff0000"/>
     <use xlink:href="#mbdb8522769" x="151.361736" y="203.645612" style="fill: #ff0000; stroke: #ff0000"/>
     <use xlink:href="#mbdb8522769" x="155.119383" y="205.673364" style="fill: #ff0000; stroke: #ff0000"/>
     <use xlink:href="#mbdb8522769" x="158.748229" y="207.385631" style="fill: #ff0000; stroke: #ff0000"/>
     <use xlink:href="#mbdb8522769" x="162.232817" y="208.858878" style="fill: #ff0000; stroke: #ff0000"/>
     <use xlink:href="#mbdb8522769" x="165.609653" y="210.119205" style="fill: #ff0000; stroke: #ff0000"/>
     <use xlink:href="#mbdb8522769" x="168.924793" y="211.154855" style="fill: #ff0000; stroke: #ff0000"/>
     <use xlink:href="#mbdb8522769" x="172.206692" y="211.942748" style="fill: #ff0000; stroke: #ff0000"/>
     <use xlink:href="#mbdb8522769" x="175.458438" y="212.478298" style="fill: #ff0000; stroke: #ff0000"/>
     <use xlink:href="#mbdb8522769" x="178.666749" y="212.803391" style="fill: #ff0000; stroke: #ff0000"/>
     <use xlink:href="#mbdb8522769" x="181.825308" y="213.024309" style="fill: #ff0000; stroke: #ff0000"/>
     <use xlink:href="#mbdb8522769" x="184.966555" y="213.302567" style="fill: #ff0000; stroke: #ff0000"/>
     <use xlink:href="#mbdb8522769" x="188.185088" y="213.803942" style="fill: #ff0000; stroke: #ff0000"/>
     <use xlink:href="#mbdb8522769" x="191.628959" y="214.614529" style="fill: #ff0000; stroke: #ff0000"/>
     <use xlink:href="#mbdb8522769" x="195.447399" y="215.664258" style="fill: #ff0000; stroke: #ff0000"/>
     <use xlink:href="#mbdb8522769" x="199.713565" y="216.709193" style="fill: #ff0000; stroke: #ff0000"/>
     <use xlink:href="#mbdb8522769" x="204.366267" y="217.396607" style="fill: #ff0000; stroke: #ff0000"/>
     <use xlink:href="#mbdb8522769" x="209.210646" y="217.386211" style="fill: #ff0000; stroke: #ff0000"/>
     <use xlink:href="#mbdb8522769" x="213.982241" y="216.464068" style="fill: #ff0000; stroke: #ff0000"/>
     <use xlink:href="#mbdb8522769" x="218.43773" y="214.591687" style="fill: #ff0000; stroke: #ff0000"/>
     <use xlink:href="#mbdb8522769" x="222.420686" y="211.875958" style="fill: #ff0000; stroke: #ff0000"/>
     <use xlink:href="#mbdb8522769" x="225.871359" y="208.491837" style="fill: #ff0000; stroke: #ff0000"/>
     <use xlink:href="#mbdb8522769" x="228.786037" y="204.607346" style="fill: #ff0000; stroke: #ff0000"/>
     <use xlink:href="#mbdb8522769" x="231.15705" y="200.345747" style="fill: #ff0000; stroke: #ff0000"/>
     <use xlink:href="#mbdb8522769" x="232.928804" y="195.791778" style="fill: #ff0000; stroke: #ff0000"/>
     <use xlink:href="#mbdb8522769" x="233.994978" y="191.025896" style="fill: #ff0000; stroke: #ff0000"/>
     <use xlink:href="#mbdb8522769" x="234.243568" y="186.158505" style="fill: #ff0000; stroke: #ff0000"/>
    </g>
   </g>
   <g id="matplotlib.axis_1">
    <g id="xtick_1">
     <g id="line2d_1">
      <defs>
       <path id="m3dea857e27" d="M 0 0 
L 0 3.5 
" style="stroke: #000000; stroke-width: 0.8"/>
      </defs>
      <g>
       <use xlink:href="#m3dea857e27" x="45" y="320.4" style="stroke: #000000; stroke-width: 0.8"/>
      </g>
     </g>
     <g id="text_1">
      <!-- −3 -->
      <g transform="translate(37.628906 334.998438)scale(0.1 -0.1)">
       <defs>
        <path id="DejaVuSans-2212" d="M 678 2272 
L 4684 2272 
L 4684 1741 
L 678 1741 
L 678 2272 
z
" transform="scale(0.015625)"/>
        <path id="DejaVuSans-33" d="M 2597 2516 
Q 3050 2419 3304 2112 
Q 3559 1806 3559 1356 
Q 3559 666 3084 287 
Q 2609 -91 1734 -91 
Q 1441 -91 1130 -33 
Q 819 25 488 141 
L 488 750 
Q 750 597 1062 519 
Q 1375 441 1716 441 
Q 2309 441 2620 675 
Q 2931 909 2931 1356 
Q 2931 1769 2642 2001 
Q 2353 2234 1838 2234 
L 1294 2234 
L 1294 2753 
L 1863 2753 
Q 2328 2753 2575 2939 
Q 2822 3125 2822 3475 
Q 2822 3834 2567 4026 
Q 2313 4219 1838 4219 
Q 1578 4219 1281 4162 
Q 984 4106 628 3988 
L 628 4550 
Q 988 4650 1302 4700 
Q 1616 4750 1894 4750 
Q 2613 4750 3031 4423 
Q 3450 4097 3450 3541 
Q 3450 3153 3228 2886 
Q 3006 2619 2597 2516 
z
" transform="scale(0.015625)"/>
       </defs>
       <use xlink:href="#DejaVuSans-2212"/>
       <use xlink:href="#DejaVuSans-33" x="83.789062"/>
      </g>
     </g>
    </g>
    <g id="xtick_2">
     <g id="line2d_2">
      <g>
       <use xlink:href="#m3dea857e27" x="91.655518" y="320.4" style="stroke: #000000; stroke-width: 0.8"/>
      </g>
     </g>
     <g id="text_2">
      <!-- −2 -->
      <g transform="translate(84.284425 334.998438)scale(0.1 -0.1)">
       <defs>
        <path id="DejaVuSans-32" d="M 1228 531 
L 3431 531 
L 3431 0 
L 469 0 
L 469 531 
Q 828 903 1448 1529 
Q 2069 2156 2228 2338 
Q 2531 2678 2651 2914 
Q 2772 3150 2772 3378 
Q 2772 3750 2511 3984 
Q 2250 4219 1831 4219 
Q 1534 4219 1204 4116 
Q 875 4013 500 3803 
L 500 4441 
Q 881 4594 1212 4672 
Q 1544 4750 1819 4750 
Q 2544 4750 2975 4387 
Q 3406 4025 3406 3419 
Q 3406 3131 3298 2873 
Q 3191 2616 2906 2266 
Q 2828 2175 2409 1742 
Q 1991 1309 1228 531 
z
" transform="scale(0.015625)"/>
       </defs>
       <use xlink:href="#DejaVuSans-2212"/>
       <use xlink:href="#DejaVuSans-32" x="83.789062"/>
      </g>
     </g>
    </g>
    <g id="xtick_3">
     <g id="line2d_3">
      <g>
       <use xlink:href="#m3dea857e27" x="138.311037" y="320.4" style="stroke: #000000; stroke-width: 0.8"/>
      </g>
     </g>
     <g id="text_3">
      <!-- −1 -->
      <g transform="translate(130.939943 334.998438)scale(0.1 -0.1)">
       <defs>
        <path id="DejaVuSans-31" d="M 794 531 
L 1825 531 
L 1825 4091 
L 703 3866 
L 703 4441 
L 1819 4666 
L 2450 4666 
L 2450 531 
L 3481 531 
L 3481 0 
L 794 0 
L 794 531 
z
" transform="scale(0.015625)"/>
       </defs>
       <use xlink:href="#DejaVuSans-2212"/>
       <use xlink:href="#DejaVuSans-31" x="83.789062"/>
      </g>
     </g>
    </g>
    <g id="xtick_4">
     <g id="line2d_4">
      <g>
       <use xlink:href="#m3dea857e27" x="184.966555" y="320.4" style="stroke: #000000; stroke-width: 0.8"/>
      </g>
     </g>
     <g id="text_4">
      <!-- 0 -->
      <g transform="translate(181.785305 334.998438)scale(0.1 -0.1)">
       <defs>
        <path id="DejaVuSans-30" d="M 2034 4250 
Q 1547 4250 1301 3770 
Q 1056 3291 1056 2328 
Q 1056 1369 1301 889 
Q 1547 409 2034 409 
Q 2525 409 2770 889 
Q 3016 1369 3016 2328 
Q 3016 3291 2770 3770 
Q 2525 4250 2034 4250 
z
M 2034 4750 
Q 2819 4750 3233 4129 
Q 3647 3509 3647 2328 
Q 3647 1150 3233 529 
Q 2819 -91 2034 -91 
Q 1250 -91 836 529 
Q 422 1150 422 2328 
Q 422 3509 836 4129 
Q 1250 4750 2034 4750 
z
" transform="scale(0.015625)"/>
       </defs>
       <use xlink:href="#DejaVuSans-30"/>
      </g>
     </g>
    </g>
    <g id="xtick_5">
     <g id="line2d_5">
      <g>
       <use xlink:href="#m3dea857e27" x="231.622074" y="320.4" style="stroke: #000000; stroke-width: 0.8"/>
      </g>
     </g>
     <g id="text_5">
      <!-- 1 -->
      <g transform="translate(228.440824 334.998438)scale(0.1 -0.1)">
       <use xlink:href="#DejaVuSans-31"/>
      </g>
     </g>
    </g>
    <g id="xtick_6">
     <g id="line2d_6">
      <g>
       <use xlink:href="#m3dea857e27" x="278.277592" y="320.4" style="stroke: #000000; stroke-width: 0.8"/>
      </g>
     </g>
     <g id="text_6">
      <!-- 2 -->
      <g transform="translate(275.096342 334.998438)scale(0.1 -0.1)">
       <use xlink:href="#DejaVuSans-32"/>
      </g>
     </g>
    </g>
   </g>
   <g id="matplotlib.axis_2">
    <g id="ytick_1">
     <g id="line2d_7">
      <defs>
       <path id="me29b0753c6" d="M 0 0 
L -3.5 0 
" style="stroke: #000000; stroke-width: 0.8"/>
      </defs>
      <g>
       <use xlink:href="#me29b0753c6" x="45" y="320.4" style="stroke: #000000; stroke-width: 0.8"/>
      </g>
     </g>
     <g id="text_7">
      <!-- −3 -->
      <g transform="translate(23.257812 324.199219)scale(0.1 -0.1)">
       <use xlink:href="#DejaVuSans-2212"/>
       <use xlink:href="#DejaVuSans-33" x="83.789062"/>
      </g>
     </g>
    </g>
    <g id="ytick_2">
     <g id="line2d_8">
      <g>
       <use xlink:href="#me29b0753c6" x="45" y="274.045485" style="stroke: #000000; stroke-width: 0.8"/>
      </g>
     </g>
     <g id="text_8">
      <!-- −2 -->
      <g transform="translate(23.257812 277.844704)scale(0.1 -0.1)">
       <use xlink:href="#DejaVuSans-2212"/>
       <use xlink:href="#DejaVuSans-32" x="83.789062"/>
      </g>
     </g>
    </g>
    <g id="ytick_3">
     <g id="line2d_9">
      <g>
       <use xlink:href="#me29b0753c6" x="45" y="227.69097" style="stroke: #000000; stroke-width: 0.8"/>
      </g>
     </g>
     <g id="text_9">
      <!-- −1 -->
      <g transform="translate(23.257812 231.490189)scale(0.1 -0.1)">
       <use xlink:href="#DejaVuSans-2212"/>
       <use xlink:href="#DejaVuSans-31" x="83.789062"/>
      </g>
     </g>
    </g>
    <g id="ytick_4">
     <g id="line2d_10">
      <g>
       <use xlink:href="#me29b0753c6" x="45" y="181.336455" style="stroke: #000000; stroke-width: 0.8"/>
      </g>
     </g>
     <g id="text_10">
      <!-- 0 -->
      <g transform="translate(31.6375 185.135674)scale(0.1 -0.1)">
       <use xlink:href="#DejaVuSans-30"/>
      </g>
     </g>
    </g>
    <g id="ytick_5">
     <g id="line2d_11">
      <g>
       <use xlink:href="#me29b0753c6" x="45" y="134.98194" style="stroke: #000000; stroke-width: 0.8"/>
      </g>
     </g>
     <g id="text_11">
      <!-- 1 -->
      <g transform="translate(31.6375 138.781159)scale(0.1 -0.1)">
       <use xlink:href="#DejaVuSans-31"/>
      </g>
     </g>
    </g>
    <g id="ytick_6">
     <g id="line2d_12">
      <g>
       <use xlink:href="#me29b0753c6" x="45" y="88.627425" style="stroke: #000000; stroke-width: 0.8"/>
      </g>
     </g>
     <g id="text_12">
      <!-- 2 -->
      <g transform="translate(31.6375 92.426643)scale(0.1 -0.1)">
       <use xlink:href="#DejaVuSans-32"/>
      </g>
     </g>
    </g>
   </g>
   <g id="PathCollection_2">
    <path d="M 200.829431 193.612758 
L 193.299795 191.534448 
L 189.632107 190.590049 
L 186.832776 190.170834 
L 185.899666 190.159552 
L 184.033445 190.363517 
L 180.301003 190.025995 
L 179.313685 189.680268 
L 176.568562 188.429131 
L 172.83612 186.957131 
L 171.90301 186.737825 
L 168.170569 186.113281 
L 165.371237 185.464144 
L 164.438127 185.011883 
L 161.638796 183.189239 
L 160.705686 181.739365 
L 160.510409 181.336455 
L 160.02121 179.482274 
L 159.592055 177.628094 
L 159.391298 175.773913 
L 159.341841 174.846823 
L 159.993578 170.211371 
L 160.417953 169.284281 
L 160.629545 167.4301 
L 160.854231 163.721739 
L 161.078003 162.794649 
L 161.864493 160.940468 
L 162.157467 160.013378 
L 162.728584 159.086288 
L 163.505017 158.560047 
L 164.476334 158.159197 
L 166.304348 157.761175 
L 172.83612 156.523259 
L 176.568562 156.45007 
L 179.367893 156.650719 
L 181.234114 156.974242 
L 183.100334 157.464824 
L 188.125632 158.159197 
L 191.498328 159.3156 
L 196.16388 161.558156 
L 197.09699 162.127662 
L 198.0301 163.006329 
L 198.65456 164.648829 
L 198.963211 165.093483 
L 200.829431 166.764775 
L 203.824359 170.211371 
L 204.561873 171.746381 
L 206.147825 175.773913 
L 208.294314 179.959799 
L 209.769107 182.263545 
L 210.274364 184.117726 
L 210.324474 185.044816 
L 209.741204 187.826087 
L 209.296996 189.680268 
L 209.227425 189.810262 
L 208.294314 190.925853 
L 206.428094 192.045206 
L 202.695652 193.945276 
L 201.762542 193.882771 
L 200.829431 193.612758 
L 200.829431 193.612758 
" clip-path="url(#p6cd6f8a7b0)" style="fill: none; stroke-dasharray: 5.55,2.4; stroke-dashoffset: 0; stroke: #000000; stroke-width: 1.5"/>
   </g>
   <g id="PathCollection_3">
    <path d="M 198.963211 216.567284 
L 198.950109 216.565886 
L 198.0301 216.434269 
L 197.09699 216.355428 
L 196.16388 216.287195 
L 195.230769 216.197647 
L 194.297659 216.111861 
L 193.364548 216.015455 
L 192.431438 215.866655 
L 191.498328 215.685005 
L 191.290257 215.638796 
L 190.565217 215.501255 
L 189.632107 215.254997 
L 188.698997 214.96485 
L 188.093756 214.711706 
L 187.765886 214.588192 
L 186.832776 214.319553 
L 185.899666 214.000135 
L 185.443776 213.784615 
L 184.966555 213.615607 
L 184.033445 213.387918 
L 183.100334 213.03094 
L 182.593873 212.857525 
L 182.167224 212.752906 
L 181.234114 212.604321 
L 180.301003 212.354298 
L 179.367893 212.047825 
L 178.872011 211.930435 
L 178.434783 211.860188 
L 177.501672 211.668339 
L 176.568562 211.405653 
L 175.635452 211.166754 
L 174.702341 211.121965 
L 173.769231 211.124353 
L 172.83612 211.114641 
L 171.90301 211.10337 
L 170.9699 211.090404 
L 170.036789 211.08039 
L 169.103679 211.038783 
L 168.812351 211.003344 
L 168.170569 210.922866 
L 167.237458 210.682025 
L 166.304348 210.443354 
L 165.371237 210.180253 
L 165.035584 210.076254 
L 164.438127 209.894693 
L 163.505017 209.63939 
L 162.571906 209.220402 
L 162.418715 209.149164 
L 161.638796 208.811324 
L 160.705686 208.386836 
L 160.32869 208.222074 
L 159.772575 208.003391 
L 158.839465 207.633278 
L 158.206079 207.294983 
L 157.906355 207.137967 
L 156.973244 206.554387 
L 156.703188 206.367893 
L 156.040134 205.938179 
L 155.272695 205.440803 
L 155.107023 205.356985 
L 154.173913 204.728687 
L 153.842208 204.513712 
L 153.240803 204.186694 
L 152.38808 203.586622 
L 152.307692 203.535684 
L 151.374582 202.979062 
L 150.848059 202.659532 
L 150.441472 202.482108 
L 149.508361 202.235174 
L 148.59526 201.732441 
L 148.575251 201.716094 
L 147.64214 201.352295 
L 146.854721 200.805351 
L 146.70903 200.673213 
L 145.77592 200.069482 
L 145.582854 199.878261 
L 144.842809 199.162867 
L 144.641879 198.951171 
L 143.909699 198.205694 
L 143.731532 198.02408 
L 142.976589 197.289994 
L 142.784703 197.09699 
L 142.043478 196.375733 
L 141.839512 196.1699 
L 141.110368 195.45863 
L 140.898315 195.242809 
L 140.177258 194.320125 
L 140.176638 194.315719 
L 139.608071 193.388629 
L 139.244147 192.807058 
L 139.10932 192.461538 
L 138.548012 191.534448 
L 138.311037 191.127902 
L 138.088865 190.607358 
L 137.652511 189.680268 
L 137.377926 188.848713 
L 137.372644 188.753177 
L 137.096893 187.826087 
L 136.796459 186.898997 
L 136.567965 185.971906 
L 136.444816 185.372867 
L 136.432692 185.044816 
L 136.318407 184.117726 
L 136.075431 183.190635 
L 135.915578 182.263545 
L 135.79552 181.336455 
L 135.820267 180.409365 
L 135.866062 179.482274 
L 136.055326 178.555184 
L 136.221524 177.628094 
L 136.24913 176.701003 
L 136.277049 175.773913 
L 136.310107 174.846823 
L 136.35791 173.919732 
L 136.38672 172.992642 
L 136.404052 172.065552 
L 136.423369 171.138462 
L 136.421701 170.211371 
L 136.384431 169.284281 
L 136.342228 168.357191 
L 136.218615 167.4301 
L 136.050365 166.50301 
L 136.044706 165.57592 
L 136.419761 164.648829 
L 136.444816 164.234215 
L 136.633444 163.721739 
L 136.88504 162.794649 
L 137.31019 161.867559 
L 137.369791 160.940468 
L 137.377926 160.557646 
L 137.502154 160.013378 
L 137.633501 159.086288 
L 137.727198 158.159197 
L 137.866174 157.232107 
L 138.083014 156.305017 
L 138.276927 155.377926 
L 138.311037 154.754194 
L 138.40021 154.450836 
L 138.595711 153.523746 
L 138.797364 152.596656 
L 138.946838 151.669565 
L 139.188137 150.742475 
L 139.244147 150.447115 
L 139.510516 149.815385 
L 140.177258 148.986719 
L 140.265562 148.888294 
L 140.998757 147.961204 
L 141.110368 147.822107 
L 141.738154 147.034114 
L 142.043478 146.650872 
L 142.476754 146.107023 
L 142.976589 145.479629 
L 143.214942 145.179933 
L 143.909699 144.30827 
L 143.962669 144.252843 
L 144.678644 143.325753 
L 144.842809 143.137685 
L 145.604166 142.398662 
L 145.77592 142.233519 
L 146.678718 141.471572 
L 146.70903 141.444177 
L 147.64214 140.709231 
L 147.853584 140.544482 
L 148.575251 139.971278 
L 149.029204 139.617391 
L 149.508361 139.22669 
L 150.181218 138.690301 
L 150.441472 138.466098 
L 151.374582 137.788442 
L 151.402984 137.763211 
L 152.307692 137.121277 
L 152.772863 136.83612 
L 153.240803 136.533564 
L 154.173913 136.059508 
L 154.487221 135.90903 
L 155.107023 135.626096 
L 156.040134 135.2917 
L 156.839284 134.98194 
L 156.973244 134.92336 
L 157.906355 134.713326 
L 158.839465 134.569146 
L 159.772575 134.479681 
L 160.705686 134.379402 
L 161.638796 134.300176 
L 162.571906 134.199426 
L 163.505017 134.059399 
L 163.540091 134.054849 
L 164.438127 133.965639 
L 165.371237 133.820317 
L 166.304348 133.691371 
L 167.237458 133.570702 
L 168.170569 133.432225 
L 169.103679 133.320303 
L 170.036789 133.173699 
L 170.9699 133.188055 
L 171.90301 133.232542 
L 172.728385 133.127759 
L 172.83612 133.115592 
L 173.769231 132.979907 
L 174.702341 132.858914 
L 175.635452 132.826103 
L 176.568562 132.807571 
L 177.501672 132.800583 
L 178.434783 132.822932 
L 179.367893 132.863999 
L 180.301003 132.881168 
L 181.234114 132.897036 
L 182.167224 132.938922 
L 182.884721 133.127759 
L 183.100334 133.197383 
L 184.033445 133.4152 
L 184.966555 133.644155 
L 185.899666 133.845894 
L 186.685601 134.054849 
L 186.832776 134.104334 
L 187.765886 134.373004 
L 188.698997 134.794196 
L 189.195306 134.98194 
L 189.632107 135.157905 
L 190.565217 135.397318 
L 191.498328 135.599358 
L 192.431438 135.795575 
L 192.898129 135.90903 
L 193.364548 136.032353 
L 194.297659 136.208063 
L 195.230769 136.404528 
L 196.16388 136.580946 
L 197.09699 136.788811 
L 197.269067 136.83612 
L 198.0301 137.028304 
L 198.963211 137.347587 
L 199.896321 137.675989 
L 200.200737 137.763211 
L 200.829431 137.94325 
L 201.762542 138.160822 
L 202.695652 138.374936 
L 203.518893 138.690301 
L 203.628763 138.748283 
L 204.561873 139.246508 
L 205.235573 139.617391 
L 205.494983 139.767052 
L 206.428094 140.412517 
L 206.605813 140.544482 
L 207.361204 141.063847 
L 207.95915 141.471572 
L 208.294314 141.699793 
L 209.194044 142.398662 
L 209.227425 142.428025 
L 210.160535 143.204905 
L 210.307424 143.325753 
L 211.093645 143.907537 
L 211.56029 144.252843 
L 212.026756 144.595353 
L 212.814693 145.179933 
L 212.959866 145.303882 
L 213.892977 145.968268 
L 214.034309 146.107023 
L 214.690259 147.034114 
L 214.826087 147.20535 
L 215.308694 147.961204 
L 215.759197 148.661728 
L 215.920846 148.888294 
L 216.495924 149.815385 
L 216.692308 150.062261 
L 217.184668 150.742475 
L 217.625418 151.351386 
L 217.874275 151.669565 
L 218.515691 152.596656 
L 218.558528 152.640497 
L 219.204738 153.523746 
L 219.491639 153.85399 
L 220.027107 154.450836 
L 220.424749 154.897891 
L 220.850912 155.377926 
L 221.35786 155.977418 
L 221.633918 156.305017 
L 222.202494 157.232107 
L 222.29097 157.334498 
L 222.821261 158.159197 
L 223.22408 158.793817 
L 223.437042 159.086288 
L 223.971277 160.013378 
L 224.157191 160.263911 
L 224.60443 160.940468 
L 225.090301 161.772484 
L 225.156749 161.867559 
L 225.66157 162.794649 
L 226.023411 163.483241 
L 226.170057 163.721739 
L 226.563809 164.648829 
L 226.956522 165.535873 
L 226.977322 165.57592 
L 227.368241 166.50301 
L 227.889632 167.338824 
L 227.956721 167.4301 
L 228.556032 168.357191 
L 228.822742 168.807538 
L 229.09897 169.284281 
L 229.482958 170.211371 
L 229.755853 170.868397 
L 229.874347 171.138462 
L 230.243266 172.065552 
L 230.600435 172.992642 
L 230.688963 173.155027 
L 231.015967 173.919732 
L 231.427353 174.846823 
L 231.622074 175.230835 
L 231.883852 175.773913 
L 232.268991 176.701003 
L 232.555184 177.418696 
L 232.656606 177.628094 
L 233.01588 178.555184 
L 233.341475 179.482274 
L 233.488294 179.789816 
L 233.764366 180.409365 
L 233.928143 181.336455 
L 233.981281 182.263545 
L 234.020089 183.190635 
L 234.051488 184.117726 
L 234.095328 185.044816 
L 234.135048 185.971906 
L 234.165079 186.898997 
L 234.209278 187.826087 
L 234.264849 188.753177 
L 234.288639 189.680268 
L 234.310862 190.607358 
L 234.104458 191.534448 
L 233.764762 192.461538 
L 233.488294 193.032708 
L 233.337843 193.388629 
L 233.075271 194.315719 
L 232.670528 195.242809 
L 232.555184 195.468931 
L 232.318461 196.1699 
L 232.016784 197.09699 
L 231.622074 197.840669 
L 231.525085 198.02408 
L 231.208088 198.951171 
L 230.761873 199.878261 
L 230.688963 200.006555 
L 230.366267 200.805351 
L 229.941358 201.732441 
L 229.755853 201.999552 
L 229.367743 202.659532 
L 228.841252 203.586622 
L 228.822742 203.611115 
L 228.276787 204.513712 
L 227.889632 205.057473 
L 227.580759 205.440803 
L 226.956522 206.167529 
L 226.801228 206.367893 
L 226.121636 207.294983 
L 226.023411 207.415491 
L 225.4225 208.222074 
L 225.090301 208.65254 
L 224.631213 209.149164 
L 224.157191 209.535561 
L 223.341114 210.076254 
L 223.22408 210.156953 
L 222.29097 210.795771 
L 221.985783 211.003344 
L 221.35786 211.422409 
L 220.547182 211.930435 
L 220.424749 212.007287 
L 219.491639 212.53128 
L 218.836619 212.857525 
L 218.558528 213.020386 
L 217.625418 213.639135 
L 217.425338 213.784615 
L 216.692308 214.324921 
L 216.149665 214.711706 
L 215.759197 214.991366 
L 214.826087 215.402407 
L 213.959051 215.638796 
L 213.892977 215.659494 
L 212.959866 215.963368 
L 212.026756 216.249974 
L 211.093645 216.504883 
L 210.9367 216.565886 
L 210.160535 216.825209 
L 209.227425 217.121152 
L 208.294314 217.177103 
L 207.361204 217.190477 
L 206.428094 217.176229 
L 205.494983 217.149753 
L 204.561873 217.097714 
L 203.628763 217.021587 
L 202.695652 216.944541 
L 201.762542 216.865004 
L 200.829431 216.778454 
L 199.896321 216.691239 
L 198.963211 216.567284 
z
" clip-path="url(#p6cd6f8a7b0)" style="fill: none; stroke: #000000; stroke-width: 1.5"/>
   </g>
   <g id="PathCollection_4">
    <path d="M 204.561873 239.81627 
L 203.950695 239.743144 
L 203.628763 239.704626 
L 202.695652 239.642816 
L 201.762542 239.624234 
L 200.829431 239.622212 
L 199.896321 239.627213 
L 198.963211 239.632229 
L 198.0301 239.637251 
L 197.09699 239.642263 
L 196.16388 239.647265 
L 195.230769 239.53313 
L 194.297659 239.409928 
L 193.364548 239.286739 
L 192.431438 239.163534 
L 191.498328 239.039041 
L 190.565217 238.950964 
L 189.632107 238.86357 
L 189.129464 238.816054 
L 188.698997 238.775532 
L 187.765886 238.687727 
L 186.832776 238.601655 
L 185.899666 238.516737 
L 184.966555 238.406562 
L 184.033445 238.258266 
L 183.100334 238.15887 
L 182.167224 238.059836 
L 181.234114 237.960794 
L 180.818534 237.888963 
L 180.301003 237.797186 
L 179.367893 237.498975 
L 178.434783 237.147046 
L 177.954547 236.961873 
L 177.501672 236.787329 
L 176.568562 236.433378 
L 175.635452 236.190345 
L 174.767897 236.034783 
L 174.702341 236.023115 
L 173.769231 235.868143 
L 172.83612 235.667076 
L 171.90301 235.469011 
L 170.9699 235.273909 
L 170.163794 235.107692 
L 170.036789 235.080889 
L 169.103679 234.87944 
L 168.170569 234.67999 
L 167.237458 234.483506 
L 166.304348 234.289932 
L 165.782501 234.180602 
L 165.371237 234.092323 
L 164.438127 233.885661 
L 163.505017 233.686558 
L 162.571906 233.507869 
L 161.638796 233.330122 
L 161.22394 233.253512 
L 160.705686 233.157838 
L 159.772575 232.988078 
L 158.839465 232.817401 
L 157.906355 232.646196 
L 156.973244 232.475612 
L 156.162482 232.326421 
L 156.040134 232.303863 
L 155.107023 232.06641 
L 154.173913 231.796244 
L 153.240803 231.506947 
L 152.98181 231.399331 
L 152.307692 231.100412 
L 151.374582 230.676693 
L 150.929506 230.472241 
L 150.441472 230.246817 
L 149.508361 229.815814 
L 148.922388 229.545151 
L 148.575251 229.384806 
L 147.64214 228.939913 
L 146.994361 228.61806 
L 146.70903 228.476721 
L 145.77592 228.013655 
L 145.169088 227.69097 
L 144.842809 227.516235 
L 143.909699 227.015319 
L 143.441318 226.76388 
L 142.976589 226.5144 
L 142.043478 225.960036 
L 141.85242 225.836789 
L 141.110368 225.358112 
L 140.415248 224.909699 
L 140.177258 224.756176 
L 139.244147 224.154234 
L 138.978087 223.982609 
L 138.311037 223.552322 
L 137.540902 223.055518 
L 137.377926 222.950385 
L 136.444816 222.34792 
L 136.108209 222.128428 
L 135.511706 221.73316 
L 134.713875 221.201338 
L 134.578595 221.09158 
L 133.807198 220.274247 
L 133.645485 220.092523 
L 132.982183 219.347157 
L 132.712375 219.043965 
L 132.157188 218.420067 
L 131.779264 217.995379 
L 131.332177 217.492977 
L 130.846154 216.946823 
L 130.496013 216.565886 
L 129.913043 216.058753 
L 129.316695 215.638796 
L 128.979933 215.423995 
L 128.046823 214.836674 
L 127.848279 214.711706 
L 127.113712 214.123491 
L 126.800349 213.784615 
L 126.180602 213.049945 
L 126.021281 212.857525 
L 125.263624 211.930435 
L 125.247492 211.91006 
L 124.544315 211.003344 
L 124.314381 210.718996 
L 123.797978 210.076254 
L 123.381271 209.566993 
L 123.042653 209.149164 
L 122.448161 208.424259 
L 122.282862 208.222074 
L 121.522034 207.294983 
L 121.51505 207.286473 
L 120.760018 206.367893 
L 120.58194 206.155181 
L 119.973984 205.440803 
L 119.648829 204.940811 
L 119.419692 204.513712 
L 119.103768 203.586622 
L 118.78935 202.659532 
L 118.715719 202.442426 
L 118.474677 201.732441 
L 118.158736 200.805351 
L 117.82868 199.878261 
L 117.782609 199.754117 
L 117.478907 198.951171 
L 117.128264 198.02408 
L 116.849498 197.206559 
L 116.814242 197.09699 
L 116.500166 196.1699 
L 116.151933 195.242809 
L 115.916388 194.615683 
L 115.803722 194.315719 
L 115.455489 193.388629 
L 115.107268 192.461538 
L 114.983278 192.131436 
L 114.759041 191.534448 
L 114.410818 190.607358 
L 114.062749 189.680268 
L 114.050167 189.644926 
L 113.733827 188.753177 
L 113.395269 187.826087 
L 113.117057 186.965519 
L 113.095796 186.898997 
L 112.895984 185.971906 
L 112.695944 185.044816 
L 112.53283 184.117726 
L 112.473869 183.190635 
L 112.408838 182.263545 
L 112.422139 181.336455 
L 112.459654 180.409365 
L 112.592449 179.482274 
L 112.740307 178.555184 
L 112.884401 177.628094 
L 113.022161 176.701003 
L 113.092598 175.773913 
L 113.069923 174.846823 
L 113.047177 173.919732 
L 113.024481 172.992642 
L 113.00171 172.065552 
L 112.978876 171.138462 
L 112.988148 170.211371 
L 113.022417 169.284281 
L 113.066747 168.357191 
L 113.114774 167.4301 
L 113.117057 167.386491 
L 113.163799 166.50301 
L 113.212857 165.57592 
L 113.261906 164.648829 
L 113.310956 163.721739 
L 113.359998 162.794649 
L 113.409048 161.867559 
L 113.599467 160.940468 
L 113.886588 160.013378 
L 114.050167 159.498161 
L 114.181448 159.086288 
L 114.475426 158.159197 
L 114.769435 157.232107 
L 114.983278 156.557619 
L 115.063375 156.305017 
L 115.385636 155.377926 
L 115.668508 154.450836 
L 115.858154 153.523746 
L 115.916388 153.148528 
L 116.002616 152.596656 
L 116.147522 151.669565 
L 116.291456 150.742475 
L 116.433442 149.815385 
L 116.573604 148.888294 
L 116.731488 147.961204 
L 116.849498 147.302242 
L 116.897792 147.034114 
L 117.064787 146.107023 
L 117.231776 145.179933 
L 117.385691 144.252843 
L 117.483581 143.325753 
L 117.579755 142.398662 
L 117.685835 141.471572 
L 117.782609 141.235029 
L 118.092774 140.544482 
L 118.503405 139.617391 
L 118.715719 139.266035 
L 119.10475 138.690301 
L 119.648829 137.896599 
L 119.740291 137.763211 
L 120.38521 136.83612 
L 120.58194 136.566541 
L 121.069293 135.90903 
L 121.51505 135.300274 
L 121.739281 134.98194 
L 122.33842 134.054849 
L 122.448161 133.880232 
L 122.919702 133.127759 
L 123.381271 132.399079 
L 123.508026 132.200669 
L 124.100294 131.273579 
L 124.314381 130.939045 
L 124.694484 130.346488 
L 125.247492 129.484665 
L 125.289372 129.419398 
L 125.884264 128.492308 
L 126.180602 128.030488 
L 126.481125 127.565217 
L 127.094191 126.638127 
L 127.113712 126.609081 
L 127.755572 125.711037 
L 128.046823 125.377917 
L 128.821303 124.783946 
L 128.979933 124.687012 
L 129.913043 124.114454 
L 130.330732 123.856856 
L 130.846154 123.537287 
L 131.779264 122.952078 
L 131.8128 122.929766 
L 132.712375 122.306044 
L 133.149891 122.002676 
L 133.645485 121.659039 
L 134.486925 121.075585 
L 134.578595 121.014311 
L 135.511706 120.412782 
L 135.930422 120.148495 
L 136.444816 119.824668 
L 137.377926 119.237226 
L 137.403043 119.221405 
L 138.311037 118.649784 
L 138.875678 118.294314 
L 139.244147 118.062345 
L 140.177258 117.474909 
L 140.34831 117.367224 
L 141.110368 116.887466 
L 141.834145 116.440134 
L 142.043478 116.315871 
L 142.976589 115.822509 
L 143.708417 115.513043 
L 143.909699 115.436917 
L 144.842809 115.127998 
L 145.77592 114.806261 
L 146.426562 114.585953 
L 146.70903 114.494444 
L 147.64214 114.296924 
L 148.575251 114.062797 
L 149.508361 113.75435 
L 149.792134 113.658863 
L 150.441472 113.440372 
L 151.374582 113.126388 
L 152.307692 112.812385 
L 152.561606 112.731773 
L 153.240803 112.521104 
L 154.173913 112.254583 
L 155.107023 112.013893 
L 155.956276 111.804682 
L 156.040134 111.784024 
L 156.973244 111.554152 
L 157.906355 111.324271 
L 158.839465 111.094403 
L 159.772575 110.884636 
L 159.809302 110.877592 
L 160.705686 110.712767 
L 161.638796 110.541206 
L 162.571906 110.369632 
L 163.505017 110.198067 
L 164.438127 110.026498 
L 165.371237 109.996714 
L 166.304348 110.055512 
L 167.237458 110.132417 
L 168.170569 110.206326 
L 169.103679 110.144278 
L 170.036789 110.076561 
L 170.9699 110.008838 
L 171.773731 109.950502 
L 171.90301 109.94112 
L 172.83612 109.882829 
L 173.769231 109.897782 
L 174.702341 109.912748 
L 175.635452 109.927688 
L 176.568562 109.942638 
L 177.058955 109.950502 
L 177.501672 109.957601 
L 178.434783 109.95891 
L 179.153586 109.950502 
L 179.367893 109.94801 
L 180.301003 109.931605 
L 181.234114 109.912647 
L 182.167224 109.883336 
L 183.100334 109.820257 
L 184.033445 109.881141 
L 184.358393 109.950502 
L 184.966555 110.075197 
L 185.899666 110.262282 
L 186.832776 110.449377 
L 187.765886 110.636471 
L 188.698997 110.824572 
L 188.955282 110.877592 
L 189.632107 111.018804 
L 190.565217 111.223097 
L 191.498328 111.443959 
L 192.431438 111.644852 
L 193.364548 111.728445 
L 194.215641 111.804682 
L 194.297659 111.812029 
L 195.230769 111.89561 
L 196.16388 111.995815 
L 197.09699 112.132185 
L 198.0301 112.29527 
L 198.963211 112.463101 
L 199.896321 112.657827 
L 200.26619 112.731773 
L 200.829431 112.843624 
L 201.762542 113.001656 
L 202.695652 113.319026 
L 203.628763 113.636388 
L 203.693025 113.658863 
L 204.561873 113.977993 
L 205.494983 114.35928 
L 206.036691 114.585953 
L 206.428094 114.749735 
L 207.361204 115.130327 
L 208.294314 115.51269 
L 208.295146 115.513043 
L 209.227425 115.909309 
L 210.160535 116.305934 
L 210.47626 116.440134 
L 211.093645 116.704606 
L 212.026756 117.111178 
L 212.608916 117.367224 
L 212.959866 117.521549 
L 213.892977 118.004415 
L 214.451352 118.294314 
L 214.826087 118.489014 
L 215.759197 118.984388 
L 216.136392 119.221405 
L 216.692308 119.577813 
L 217.561537 120.148495 
L 217.625418 120.190421 
L 218.558528 120.805415 
L 218.968448 121.075585 
L 219.491639 121.420409 
L 220.375085 122.002676 
L 220.424749 122.035407 
L 221.35786 122.61968 
L 221.868451 122.929766 
L 222.29097 123.186364 
L 223.22408 123.753043 
L 223.395017 123.856856 
L 224.157191 124.319748 
L 224.921524 124.783946 
L 225.090301 124.886446 
L 226.023411 125.453121 
L 226.448095 125.711037 
L 226.956522 126.019816 
L 227.889632 126.574673 
L 227.99907 126.638127 
L 228.822742 127.224624 
L 229.137355 127.565217 
L 229.755853 128.338329 
L 229.877155 128.492308 
L 230.594267 129.419398 
L 230.688963 129.538891 
L 231.310532 130.346488 
L 231.622074 130.773717 
L 231.976704 131.273579 
L 232.555184 132.088981 
L 232.634423 132.200669 
L 233.292181 133.127759 
L 233.488294 133.404184 
L 233.949918 134.054849 
L 234.421405 134.719423 
L 234.607647 134.98194 
L 235.265388 135.90903 
L 235.354515 136.034657 
L 235.941068 136.83612 
L 236.287625 137.279393 
L 236.669968 137.763211 
L 237.220736 138.467889 
L 237.397219 138.690301 
L 238.128939 139.617391 
L 238.153846 139.649276 
L 238.863811 140.544482 
L 239.086957 140.827145 
L 239.594092 141.471572 
L 240.020067 142.018106 
L 240.31423 142.398662 
L 240.888605 143.325753 
L 240.953177 143.442497 
L 241.410201 144.252843 
L 241.886288 145.097011 
L 241.933055 145.179933 
L 242.455953 146.107023 
L 242.819398 146.748655 
L 242.984159 147.034114 
L 243.610354 147.961204 
L 243.752508 148.17166 
L 244.236558 148.888294 
L 244.685619 149.553157 
L 244.862738 149.815385 
L 245.488938 150.742475 
L 245.618729 150.944203 
L 246.065047 151.669565 
L 246.551839 152.491686 
L 246.613993 152.596656 
L 247.162844 153.523746 
L 247.48495 154.074631 
L 247.705652 154.450836 
L 248.246435 155.377926 
L 248.41806 155.700961 
L 248.729708 156.305017 
L 249.136342 157.232107 
L 249.351171 157.727548 
L 249.54552 158.159197 
L 249.996534 159.086288 
L 250.284281 159.683381 
L 250.443309 160.013378 
L 250.88251 160.940468 
L 251.217391 161.674147 
L 251.304531 161.867559 
L 251.722236 162.794649 
L 252.139929 163.721739 
L 252.150502 163.745204 
L 252.544261 164.648829 
L 252.793541 165.57592 
L 253.009631 166.50301 
L 253.083612 166.849439 
L 253.207615 167.4301 
L 253.473094 168.357191 
L 253.787695 169.284281 
L 254.016722 169.968806 
L 254.09788 170.211371 
L 254.408066 171.138462 
L 254.718249 172.065552 
L 254.949833 172.75744 
L 255.028577 172.992642 
L 255.339175 173.919732 
L 255.68103 174.846823 
L 255.882943 175.303552 
L 256.090886 175.773913 
L 256.500724 176.701003 
L 256.816054 177.414315 
L 256.910559 177.628094 
L 257.320394 178.555184 
L 257.581894 179.482274 
L 257.609679 180.409365 
L 257.622255 181.336455 
L 257.634839 182.263545 
L 257.64739 183.190635 
L 257.659965 184.117726 
L 257.672533 185.044816 
L 257.685095 185.971906 
L 257.697667 186.898997 
L 257.710223 187.826087 
L 257.747834 188.753177 
L 257.749164 188.769884 
L 257.821607 189.680268 
L 257.895787 190.607358 
L 257.932123 191.534448 
L 257.924289 192.461538 
L 257.878271 193.388629 
L 257.832242 194.315719 
L 257.786205 195.242809 
L 257.749164 195.819877 
L 257.726848 196.1699 
L 257.539783 197.09699 
L 257.204164 198.02408 
L 256.847062 198.951171 
L 256.816054 199.032312 
L 256.493154 199.878261 
L 256.169142 200.805351 
L 255.882943 201.610816 
L 255.838557 201.732441 
L 255.494122 202.659532 
L 255.149711 203.586622 
L 254.949833 204.124631 
L 254.805283 204.513712 
L 254.460869 205.440803 
L 254.116449 206.367893 
L 254.016722 206.636341 
L 253.772038 207.294983 
L 253.427611 208.222074 
L 253.083612 209.148065 
L 253.083204 209.149164 
L 252.738767 210.076254 
L 252.38592 211.003344 
L 252.150502 211.5882 
L 251.991568 211.930435 
L 251.415407 212.857525 
L 251.217391 213.190679 
L 250.872366 213.784615 
L 250.292948 214.711706 
L 250.284281 214.725354 
L 249.704228 215.638796 
L 249.351171 216.194779 
L 249.115518 216.565886 
L 248.526803 217.492977 
L 248.41806 217.66422 
L 247.93808 218.420067 
L 247.48495 219.133643 
L 247.349366 219.347157 
L 246.757064 220.274247 
L 246.551839 220.559124 
L 246.034298 221.201338 
L 245.618729 221.679001 
L 245.215845 222.128428 
L 244.685619 222.652604 
L 244.258416 223.055518 
L 243.752508 223.509237 
L 243.208421 223.982609 
L 242.819398 224.335932 
L 242.229793 224.909699 
L 241.886288 225.245297 
L 241.282392 225.836789 
L 240.953177 226.160077 
L 240.335199 226.76388 
L 240.020067 227.06747 
L 239.162234 227.69097 
L 239.086957 227.735716 
L 238.153846 228.308374 
L 237.719123 228.61806 
L 237.220736 228.981659 
L 236.452401 229.545151 
L 236.287625 229.665532 
L 235.354515 230.354529 
L 235.203826 230.472241 
L 234.421405 231.086708 
L 234.023335 231.399331 
L 233.488294 231.81953 
L 232.842863 232.326421 
L 232.555184 232.552351 
L 231.662007 233.253512 
L 231.622074 233.284201 
L 230.688963 233.98111 
L 230.421848 234.180602 
L 229.755853 234.677986 
L 229.180485 235.107692 
L 228.822742 235.374876 
L 227.889632 235.989831 
L 227.780286 236.034783 
L 226.956522 236.339623 
L 226.023411 236.635599 
L 225.090301 236.914473 
L 224.931715 236.961873 
L 224.157191 237.193373 
L 223.22408 237.472267 
L 222.29097 237.751146 
L 221.829877 237.888963 
L 221.35786 238.030041 
L 220.424749 238.307612 
L 219.491639 238.581475 
L 218.667411 238.816054 
L 218.558528 238.846867 
L 217.625418 239.094988 
L 216.692308 239.342446 
L 215.759197 239.581322 
L 214.826087 239.612754 
L 213.892977 239.675342 
L 212.961096 239.743144 
L 212.959866 239.743233 
L 212.026756 239.811145 
L 211.093645 239.869096 
L 210.160535 239.903091 
L 209.227425 239.945972 
L 208.294314 239.988858 
L 207.361204 240.02725 
L 206.428094 240.020478 
L 205.494983 239.927921 
L 204.561873 239.81627 
z
" clip-path="url(#p6cd6f8a7b0)" style="fill: none; stroke: #000000; stroke-width: 1.5"/>
   </g>
   <g id="patch_3">
    <path d="M 45 320.4 
L 45 43.2 
" style="fill: none; stroke: #000000; stroke-width: 0.8; stroke-linejoin: miter; stroke-linecap: square"/>
   </g>
   <g id="patch_4">
    <path d="M 324 320.4 
L 324 43.2 
" style="fill: none; stroke: #000000; stroke-width: 0.8; stroke-linejoin: miter; stroke-linecap: square"/>
   </g>
   <g id="patch_5">
    <path d="M 45 320.4 
L 324 320.4 
" style="fill: none; stroke: #000000; stroke-width: 0.8; stroke-linejoin: miter; stroke-linecap: square"/>
   </g>
   <g id="patch_6">
    <path d="M 45 43.2 
L 324 43.2 
" style="fill: none; stroke: #000000; stroke-width: 0.8; stroke-linejoin: miter; stroke-linecap: square"/>
   </g>
  </g>
 </g>
 <defs>
  <clipPath id="p6cd6f8a7b0">
   <rect x="45" y="43.2" width="279" height="277.2"/>
  </clipPath>
 </defs>
</svg>
