<?xml version="1.0" encoding="utf-8" standalone="no"?>
<!DOCTYPE svg PUBLIC "-//W3C//DTD SVG 1.1//EN"
  "http://www.w3.org/Graphics/SVG/1.1/DTD/svg11.dtd">
<svg xmlns:xlink="http://www.w3.org/1999/xlink" width="360pt" height="360pt" viewBox="0 0 360 360" xmlns="http://www.w3.org/2000/svg" version="1.1">
 <metadata>
  <rdf:RDF xmlns:dc="http://purl.org/dc/elements/1.1/" xmlns:cc="http://creativecommons.org/ns#" xmlns:rdf="http://www.w3.org/1999/02/22-rdf-syntax-ns#">
   <cc:Work>
    <dc:type rdf:resource="http://purl.org/dc/dcmitype/StillImage"/>
    <dc:date>2022-04-10T19:53:24.416703</dc:date>
    <dc:format>image/svg+xml</dc:format>
    <dc:creator>
     <cc:Agent>
      <dc:title>Matplotlib v3.5.1, https://matplotlib.org/</dc:title>
     </cc:Agent>
    </dc:creator>
   </cc:Work>
  </rdf:RDF>
 </metadata>
 <defs>
  <style type="text/css">*{stroke-linejoin: round; stroke-linecap: butt}</style>
 </defs>
 <g id="figure_1">
  <g id="patch_1">
   <path d="M 0 360 
L 360 360 
L 360 0 
L 0 0 
z
" style="fill: #ffffff"/>
  </g>
  <g id="axes_1">
   <g id="patch_2">
    <path d="M 45 320.4 
L 324 320.4 
L 324 43.2 
L 45 43.2 
z
" style="fill: #ffffff"/>
   </g>
   <g id="PathCollection_1">
    <defs>
     <path id="m2b3f20c87d" d="M 0 0.5 
C 0.132602 0.5 0.25979 0.447317 0.353553 0.353553 
C 0.447317 0.25979 0.5 0.132602 0.5 0 
C 0.5 -0.132602 0.447317 -0.25979 0.353553 -0.353553 
C 0.25979 -0.447317 0.132602 -0.5 0 -0.5 
C -0.132602 -0.5 -0.25979 -0.447317 -0.353553 -0.353553 
C -0.447317 -0.25979 -0.5 -0.132602 -0.5 0 
C -0.5 0.132602 -0.447317 0.25979 -0.353553 0.353553 
C -0.25979 0.447317 -0.132602 0.5 0 0.5 
z
" style="stroke: #ff0000"/>
    </defs>
    <g clip-path="url(#p351b4c0d3f)">
     <use xlink:href="#m2b3f20c87d" x="228.217035" y="181.336455" style="fill: #ff0000; stroke: #ff0000"/>
     <use xlink:href="#m2b3f20c87d" x="229.954391" y="176.934126" style="fill: #ff0000; stroke: #ff0000"/>
     <use xlink:href="#m2b3f20c87d" x="231.276687" y="172.184227" style="fill: #ff0000; stroke: #ff0000"/>
     <use xlink:href="#m2b3f20c87d" x="231.971794" y="167.169564" style="fill: #ff0000; stroke: #ff0000"/>
     <use xlink:href="#m2b3f20c87d" x="231.895442" y="162.023284" style="fill: #ff0000; stroke: #ff0000"/>
     <use xlink:href="#m2b3f20c87d" x="231.023812" y="156.877165" style="fill: #ff0000; stroke: #ff0000"/>
     <use xlink:href="#m2b3f20c87d" x="229.440047" y="151.811936" style="fill: #ff0000; stroke: #ff0000"/>
     <use xlink:href="#m2b3f20c87d" x="227.262904" y="146.848685" style="fill: #ff0000; stroke: #ff0000"/>
     <use xlink:href="#m2b3f20c87d" x="224.565912" y="141.992578" style="fill: #ff0000; stroke: #ff0000"/>
     <use xlink:href="#m2b3f20c87d" x="221.340266" y="137.300905" style="fill: #ff0000; stroke: #ff0000"/>
     <use xlink:href="#m2b3f20c87d" x="217.521028" y="132.929574" style="fill: #ff0000; stroke: #ff0000"/>
     <use xlink:href="#m2b3f20c87d" x="213.052902" y="129.129601" style="fill: #ff0000; stroke: #ff0000"/>
     <use xlink:href="#m2b3f20c87d" x="207.953304" y="126.199565" style="fill: #ff0000; stroke: #ff0000"/>
     <use xlink:href="#m2b3f20c87d" x="202.344095" y="124.41997" style="fill: #ff0000; stroke: #ff0000"/>
     <use xlink:href="#m2b3f20c87d" x="196.44759" y="123.989777" style="fill: #ff0000; stroke: #ff0000"/>
     <use xlink:href="#m2b3f20c87d" x="190.554058" y="124.971589" style="fill: #ff0000; stroke: #ff0000"/>
     <use xlink:href="#m2b3f20c87d" x="184.966555" y="127.251006" style="fill: #ff0000; stroke: #ff0000"/>
     <use xlink:href="#m2b3f20c87d" x="179.929649" y="130.525827" style="fill: #ff0000; stroke: #ff0000"/>
     <use xlink:href="#m2b3f20c87d" x="175.558378" y="134.343502" style="fill: #ff0000; stroke: #ff0000"/>
     <use xlink:href="#m2b3f20c87d" x="171.793362" y="138.190426" style="fill: #ff0000; stroke: #ff0000"/>
     <use xlink:href="#m2b3f20c87d" x="168.405795" y="141.613186" style="fill: #ff0000; stroke: #ff0000"/>
     <use xlink:href="#m2b3f20c87d" x="165.060139" y="144.334442" style="fill: #ff0000; stroke: #ff0000"/>
     <use xlink:href="#m2b3f20c87d" x="161.419584" y="146.32328" style="fill: #ff0000; stroke: #ff0000"/>
     <use xlink:href="#m2b3f20c87d" x="157.259637" y="147.793291" style="fill: #ff0000; stroke: #ff0000"/>
     <use xlink:href="#m2b3f20c87d" x="152.549272" y="149.128316" style="fill: #ff0000; stroke: #ff0000"/>
     <use xlink:href="#m2b3f20c87d" x="147.47215" y="150.764114" style="fill: #ff0000; stroke: #ff0000"/>
     <use xlink:href="#m2b3f20c87d" x="142.385173" y="153.068046" style="fill: #ff0000; stroke: #ff0000"/>
     <use xlink:href="#m2b3f20c87d" x="137.732043" y="156.251969" style="fill: #ff0000; stroke: #ff0000"/>
     <use xlink:href="#m2b3f20c87d" x="133.937139" y="160.335747" style="fill: #ff0000; stroke: #ff0000"/>
     <use xlink:href="#m2b3f20c87d" x="131.305503" y="165.163571" style="fill: #ff0000; stroke: #ff0000"/>
     <use xlink:href="#m2b3f20c87d" x="129.955118" y="170.464596" style="fill: #ff0000; stroke: #ff0000"/>
     <use xlink:href="#m2b3f20c87d" x="129.80353" y="175.938423" style="fill: #ff0000; stroke: #ff0000"/>
     <use xlink:href="#m2b3f20c87d" x="130.61368" y="181.336455" style="fill: #ff0000; stroke: #ff0000"/>
     <use xlink:href="#m2b3f20c87d" x="132.078455" y="186.511871" style="fill: #ff0000; stroke: #ff0000"/>
     <use xlink:href="#m2b3f20c87d" x="133.907827" y="191.427143" style="fill: #ff0000; stroke: #ff0000"/>
     <use xlink:href="#m2b3f20c87d" x="135.88937" y="196.127809" style="fill: #ff0000; stroke: #ff0000"/>
     <use xlink:href="#m2b3f20c87d" x="137.914673" y="200.700244" style="fill: #ff0000; stroke: #ff0000"/>
     <use xlink:href="#m2b3f20c87d" x="139.980724" y="205.226751" style="fill: #ff0000; stroke: #ff0000"/>
     <use xlink:href="#m2b3f20c87d" x="142.17518" y="209.744271" style="fill: #ff0000; stroke: #ff0000"/>
     <use xlink:href="#m2b3f20c87d" x="144.645487" y="214.213613" style="fill: #ff0000; stroke: #ff0000"/>
     <use xlink:href="#m2b3f20c87d" x="147.55066" y="218.510957" style="fill: #ff0000; stroke: #ff0000"/>
     <use xlink:href="#m2b3f20c87d" x="151.006161" y="222.450342" style="fill: #ff0000; stroke: #ff0000"/>
     <use xlink:href="#m2b3f20c87d" x="155.043619" y="225.830372" style="fill: #ff0000; stroke: #ff0000"/>
     <use xlink:href="#m2b3f20c87d" x="159.602769" y="228.482618" style="fill: #ff0000; stroke: #ff0000"/>
     <use xlink:href="#m2b3f20c87d" x="164.553858" y="230.299126" style="fill: #ff0000; stroke: #ff0000"/>
     <use xlink:href="#m2b3f20c87d" x="169.732194" y="231.233406" style="fill: #ff0000; stroke: #ff0000"/>
     <use xlink:href="#m2b3f20c87d" x="174.966238" y="231.287088" style="fill: #ff0000; stroke: #ff0000"/>
     <use xlink:href="#m2b3f20c87d" x="180.093083" y="230.49841" style="fill: #ff0000; stroke: #ff0000"/>
     <use xlink:href="#m2b3f20c87d" x="184.966555" y="228.939597" style="fill: #ff0000; stroke: #ff0000"/>
     <use xlink:href="#m2b3f20c87d" x="189.465467" y="226.719976" style="fill: #ff0000; stroke: #ff0000"/>
     <use xlink:href="#m2b3f20c87d" x="193.50553" y="223.987821" style="fill: #ff0000; stroke: #ff0000"/>
     <use xlink:href="#m2b3f20c87d" x="197.053585" y="220.924984" style="fill: #ff0000; stroke: #ff0000"/>
     <use xlink:href="#m2b3f20c87d" x="200.139065" y="217.729814" style="fill: #ff0000; stroke: #ff0000"/>
     <use xlink:href="#m2b3f20c87d" x="202.854555" y="214.586638" style="fill: #ff0000; stroke: #ff0000"/>
     <use xlink:href="#m2b3f20c87d" x="205.337445" y="211.626954" style="fill: #ff0000; stroke: #ff0000"/>
     <use xlink:href="#m2b3f20c87d" x="207.731837" y="208.897066" style="fill: #ff0000; stroke: #ff0000"/>
     <use xlink:href="#m2b3f20c87d" x="210.143079" y="206.35055" style="fill: #ff0000; stroke: #ff0000"/>
     <use xlink:href="#m2b3f20c87d" x="212.606927" y="203.873975" style="fill: #ff0000; stroke: #ff0000"/>
     <use xlink:href="#m2b3f20c87d" x="215.091077" y="201.335155" style="fill: #ff0000; stroke: #ff0000"/>
     <use xlink:href="#m2b3f20c87d" x="217.528641" y="198.628963" style="fill: #ff0000; stroke: #ff0000"/>
     <use xlink:href="#m2b3f20c87d" x="219.863695" y="195.698066" style="fill: #ff0000; stroke: #ff0000"/>
     <use xlink:href="#m2b3f20c87d" x="222.081775" y="192.522597" style="fill: #ff0000; stroke: #ff0000"/>
     <use xlink:href="#m2b3f20c87d" x="224.206478" y="189.091404" style="fill: #ff0000; stroke: #ff0000"/>
     <use xlink:href="#m2b3f20c87d" x="226.26145" y="185.377407" style="fill: #ff0000; stroke: #ff0000"/>
    </g>
   </g>
   <g id="matplotlib.axis_1">
    <g id="xtick_1">
     <g id="line2d_1">
      <defs>
       <path id="m399aced3c9" d="M 0 0 
L 0 3.5 
" style="stroke: #000000; stroke-width: 0.8"/>
      </defs>
      <g>
       <use xlink:href="#m399aced3c9" x="45" y="320.4" style="stroke: #000000; stroke-width: 0.8"/>
      </g>
     </g>
     <g id="text_1">
      <!-- −3 -->
      <g transform="translate(37.628906 334.998438)scale(0.1 -0.1)">
       <defs>
        <path id="DejaVuSans-2212" d="M 678 2272 
L 4684 2272 
L 4684 1741 
L 678 1741 
L 678 2272 
z
" transform="scale(0.015625)"/>
        <path id="DejaVuSans-33" d="M 2597 2516 
Q 3050 2419 3304 2112 
Q 3559 1806 3559 1356 
Q 3559 666 3084 287 
Q 2609 -91 1734 -91 
Q 1441 -91 1130 -33 
Q 819 25 488 141 
L 488 750 
Q 750 597 1062 519 
Q 1375 441 1716 441 
Q 2309 441 2620 675 
Q 2931 909 2931 1356 
Q 2931 1769 2642 2001 
Q 2353 2234 1838 2234 
L 1294 2234 
L 1294 2753 
L 1863 2753 
Q 2328 2753 2575 2939 
Q 2822 3125 2822 3475 
Q 2822 3834 2567 4026 
Q 2313 4219 1838 4219 
Q 1578 4219 1281 4162 
Q 984 4106 628 3988 
L 628 4550 
Q 988 4650 1302 4700 
Q 1616 4750 1894 4750 
Q 2613 4750 3031 4423 
Q 3450 4097 3450 3541 
Q 3450 3153 3228 2886 
Q 3006 2619 2597 2516 
z
" transform="scale(0.015625)"/>
       </defs>
       <use xlink:href="#DejaVuSans-2212"/>
       <use xlink:href="#DejaVuSans-33" x="83.789062"/>
      </g>
     </g>
    </g>
    <g id="xtick_2">
     <g id="line2d_2">
      <g>
       <use xlink:href="#m399aced3c9" x="91.655518" y="320.4" style="stroke: #000000; stroke-width: 0.8"/>
      </g>
     </g>
     <g id="text_2">
      <!-- −2 -->
      <g transform="translate(84.284425 334.998438)scale(0.1 -0.1)">
       <defs>
        <path id="DejaVuSans-32" d="M 1228 531 
L 3431 531 
L 3431 0 
L 469 0 
L 469 531 
Q 828 903 1448 1529 
Q 2069 2156 2228 2338 
Q 2531 2678 2651 2914 
Q 2772 3150 2772 3378 
Q 2772 3750 2511 3984 
Q 2250 4219 1831 4219 
Q 1534 4219 1204 4116 
Q 875 4013 500 3803 
L 500 4441 
Q 881 4594 1212 4672 
Q 1544 4750 1819 4750 
Q 2544 4750 2975 4387 
Q 3406 4025 3406 3419 
Q 3406 3131 3298 2873 
Q 3191 2616 2906 2266 
Q 2828 2175 2409 1742 
Q 1991 1309 1228 531 
z
" transform="scale(0.015625)"/>
       </defs>
       <use xlink:href="#DejaVuSans-2212"/>
       <use xlink:href="#DejaVuSans-32" x="83.789062"/>
      </g>
     </g>
    </g>
    <g id="xtick_3">
     <g id="line2d_3">
      <g>
       <use xlink:href="#m399aced3c9" x="138.311037" y="320.4" style="stroke: #000000; stroke-width: 0.8"/>
      </g>
     </g>
     <g id="text_3">
      <!-- −1 -->
      <g transform="translate(130.939943 334.998438)scale(0.1 -0.1)">
       <defs>
        <path id="DejaVuSans-31" d="M 794 531 
L 1825 531 
L 1825 4091 
L 703 3866 
L 703 4441 
L 1819 4666 
L 2450 4666 
L 2450 531 
L 3481 531 
L 3481 0 
L 794 0 
L 794 531 
z
" transform="scale(0.015625)"/>
       </defs>
       <use xlink:href="#DejaVuSans-2212"/>
       <use xlink:href="#DejaVuSans-31" x="83.789062"/>
      </g>
     </g>
    </g>
    <g id="xtick_4">
     <g id="line2d_4">
      <g>
       <use xlink:href="#m399aced3c9" x="184.966555" y="320.4" style="stroke: #000000; stroke-width: 0.8"/>
      </g>
     </g>
     <g id="text_4">
      <!-- 0 -->
      <g transform="translate(181.785305 334.998438)scale(0.1 -0.1)">
       <defs>
        <path id="DejaVuSans-30" d="M 2034 4250 
Q 1547 4250 1301 3770 
Q 1056 3291 1056 2328 
Q 1056 1369 1301 889 
Q 1547 409 2034 409 
Q 2525 409 2770 889 
Q 3016 1369 3016 2328 
Q 3016 3291 2770 3770 
Q 2525 4250 2034 4250 
z
M 2034 4750 
Q 2819 4750 3233 4129 
Q 3647 3509 3647 2328 
Q 3647 1150 3233 529 
Q 2819 -91 2034 -91 
Q 1250 -91 836 529 
Q 422 1150 422 2328 
Q 422 3509 836 4129 
Q 1250 4750 2034 4750 
z
" transform="scale(0.015625)"/>
       </defs>
       <use xlink:href="#DejaVuSans-30"/>
      </g>
     </g>
    </g>
    <g id="xtick_5">
     <g id="line2d_5">
      <g>
       <use xlink:href="#m399aced3c9" x="231.622074" y="320.4" style="stroke: #000000; stroke-width: 0.8"/>
      </g>
     </g>
     <g id="text_5">
      <!-- 1 -->
      <g transform="translate(228.440824 334.998438)scale(0.1 -0.1)">
       <use xlink:href="#DejaVuSans-31"/>
      </g>
     </g>
    </g>
    <g id="xtick_6">
     <g id="line2d_6">
      <g>
       <use xlink:href="#m399aced3c9" x="278.277592" y="320.4" style="stroke: #000000; stroke-width: 0.8"/>
      </g>
     </g>
     <g id="text_6">
      <!-- 2 -->
      <g transform="translate(275.096342 334.998438)scale(0.1 -0.1)">
       <use xlink:href="#DejaVuSans-32"/>
      </g>
     </g>
    </g>
   </g>
   <g id="matplotlib.axis_2">
    <g id="ytick_1">
     <g id="line2d_7">
      <defs>
       <path id="m520930748c" d="M 0 0 
L -3.5 0 
" style="stroke: #000000; stroke-width: 0.8"/>
      </defs>
      <g>
       <use xlink:href="#m520930748c" x="45" y="320.4" style="stroke: #000000; stroke-width: 0.8"/>
      </g>
     </g>
     <g id="text_7">
      <!-- −3 -->
      <g transform="translate(23.257812 324.199219)scale(0.1 -0.1)">
       <use xlink:href="#DejaVuSans-2212"/>
       <use xlink:href="#DejaVuSans-33" x="83.789062"/>
      </g>
     </g>
    </g>
    <g id="ytick_2">
     <g id="line2d_8">
      <g>
       <use xlink:href="#m520930748c" x="45" y="274.045485" style="stroke: #000000; stroke-width: 0.8"/>
      </g>
     </g>
     <g id="text_8">
      <!-- −2 -->
      <g transform="translate(23.257812 277.844704)scale(0.1 -0.1)">
       <use xlink:href="#DejaVuSans-2212"/>
       <use xlink:href="#DejaVuSans-32" x="83.789062"/>
      </g>
     </g>
    </g>
    <g id="ytick_3">
     <g id="line2d_9">
      <g>
       <use xlink:href="#m520930748c" x="45" y="227.69097" style="stroke: #000000; stroke-width: 0.8"/>
      </g>
     </g>
     <g id="text_9">
      <!-- −1 -->
      <g transform="translate(23.257812 231.490189)scale(0.1 -0.1)">
       <use xlink:href="#DejaVuSans-2212"/>
       <use xlink:href="#DejaVuSans-31" x="83.789062"/>
      </g>
     </g>
    </g>
    <g id="ytick_4">
     <g id="line2d_10">
      <g>
       <use xlink:href="#m520930748c" x="45" y="181.336455" style="stroke: #000000; stroke-width: 0.8"/>
      </g>
     </g>
     <g id="text_10">
      <!-- 0 -->
      <g transform="translate(31.6375 185.135674)scale(0.1 -0.1)">
       <use xlink:href="#DejaVuSans-30"/>
      </g>
     </g>
    </g>
    <g id="ytick_5">
     <g id="line2d_11">
      <g>
       <use xlink:href="#m520930748c" x="45" y="134.98194" style="stroke: #000000; stroke-width: 0.8"/>
      </g>
     </g>
     <g id="text_11">
      <!-- 1 -->
      <g transform="translate(31.6375 138.781159)scale(0.1 -0.1)">
       <use xlink:href="#DejaVuSans-31"/>
      </g>
     </g>
    </g>
    <g id="ytick_6">
     <g id="line2d_12">
      <g>
       <use xlink:href="#m520930748c" x="45" y="88.627425" style="stroke: #000000; stroke-width: 0.8"/>
      </g>
     </g>
     <g id="text_12">
      <!-- 2 -->
      <g transform="translate(31.6375 92.426643)scale(0.1 -0.1)">
       <use xlink:href="#DejaVuSans-32"/>
      </g>
     </g>
    </g>
   </g>
   <g id="PathCollection_2">
    <path d="M 171.90301 207.370428 
L 171.258178 207.294983 
L 170.9699 207.259373 
L 170.036789 206.98832 
L 169.103679 206.550852 
L 168.712936 206.367893 
L 168.170569 206.105445 
L 167.337203 205.440803 
L 167.237458 205.333655 
L 166.5519 204.513712 
L 166.304348 204.21047 
L 165.795076 203.586622 
L 165.371237 203.067434 
L 165.059267 202.659532 
L 164.576225 201.732441 
L 164.438127 201.416926 
L 164.17014 200.805351 
L 163.710503 199.878261 
L 163.505017 199.552268 
L 163.026767 198.951171 
L 162.571906 198.379484 
L 162.291753 198.02408 
L 161.924119 197.09699 
L 161.699866 196.1699 
L 161.638796 195.992924 
L 161.309102 195.242809 
L 160.757119 194.315719 
L 160.705686 194.216775 
L 160.266039 193.388629 
L 159.813428 192.461538 
L 159.772575 192.377862 
L 159.360806 191.534448 
L 158.897866 190.607358 
L 158.839465 190.492027 
L 158.428411 189.680268 
L 157.958944 188.753177 
L 157.906355 188.660685 
L 157.433595 187.826087 
L 156.973244 187.10213 
L 156.821583 186.898997 
L 156.223883 185.971906 
L 156.040134 185.610964 
L 155.744444 185.044816 
L 155.472484 184.117726 
L 155.209397 183.190635 
L 155.107023 182.679682 
L 155.029207 182.263545 
L 154.858223 181.336455 
L 154.975821 180.409365 
L 155.107023 179.827015 
L 155.184119 179.482274 
L 155.39357 178.555184 
L 155.584592 177.628094 
L 155.809868 176.701003 
L 156.040134 176.174398 
L 156.215229 175.773913 
L 156.973244 175.027512 
L 157.225738 174.846823 
L 157.906355 174.404212 
L 158.736596 173.919732 
L 158.839465 173.864524 
L 159.772575 173.363738 
L 160.524798 172.992642 
L 160.705686 172.912714 
L 161.638796 172.562156 
L 162.571906 172.229927 
L 162.999984 172.065552 
L 163.505017 171.868499 
L 164.438127 171.41811 
L 165.100807 171.138462 
L 165.371237 171.03945 
L 166.304348 170.691776 
L 167.237458 170.317989 
L 167.513496 170.211371 
L 168.170569 169.980278 
L 169.103679 169.589933 
L 169.56635 169.284281 
L 170.036789 168.979291 
L 170.926766 168.357191 
L 170.9699 168.32953 
L 171.90301 167.752605 
L 172.388248 167.4301 
L 172.83612 167.146275 
L 173.769231 166.552285 
L 173.850159 166.50301 
L 174.702341 166.019589 
L 175.370589 165.57592 
L 175.635452 165.3911 
L 176.568562 164.669124 
L 176.591331 164.648829 
L 177.501672 163.799383 
L 177.580148 163.721739 
L 178.434783 162.868714 
L 178.504454 162.794649 
L 179.367893 161.876818 
L 179.376121 161.867559 
L 180.19632 160.940468 
L 180.301003 160.820928 
L 181.017913 160.013378 
L 181.234114 159.783929 
L 181.944131 159.086288 
L 182.167224 158.868802 
L 182.892072 158.159197 
L 183.100334 157.971814 
L 183.948342 157.232107 
L 184.033445 157.157984 
L 184.966555 156.348331 
L 185.018234 156.305017 
L 185.899666 155.548365 
L 186.108355 155.377926 
L 186.832776 154.72902 
L 187.14113 154.450836 
L 187.765886 153.886967 
L 188.218662 153.523746 
L 188.698997 153.15033 
L 189.412653 152.596656 
L 189.632107 152.426581 
L 190.565217 151.720235 
L 190.630564 151.669565 
L 191.498328 150.97901 
L 191.861021 150.742475 
L 192.431438 150.404953 
L 193.364548 149.849361 
L 193.421227 149.815385 
L 194.297659 149.289982 
L 194.967722 148.888294 
L 195.230769 148.730607 
L 196.16388 148.269466 
L 197.013549 147.961204 
L 197.09699 147.931464 
L 197.703026 147.961204 
L 198.0301 147.978316 
L 198.963211 148.15995 
L 199.896321 148.437038 
L 200.829431 148.778136 
L 201.10581 148.888294 
L 201.762542 149.15005 
L 202.695652 149.637083 
L 202.854893 149.815385 
L 203.34786 150.742475 
L 203.628763 151.327751 
L 203.776256 151.669565 
L 204.166591 152.596656 
L 204.543176 153.523746 
L 204.561873 153.57021 
L 204.918597 154.450836 
L 205.491611 155.377926 
L 205.494983 155.382178 
L 206.231575 156.305017 
L 206.428094 156.590116 
L 206.855103 157.232107 
L 207.361204 157.913513 
L 207.5386 158.159197 
L 207.795051 159.086288 
L 207.985762 160.013378 
L 208.174277 160.940468 
L 208.294314 161.579815 
L 208.347879 161.867559 
L 208.518457 162.794649 
L 208.683622 163.721739 
L 208.824195 164.648829 
L 208.958542 165.57592 
L 208.844658 166.50301 
L 208.641022 167.4301 
L 208.437388 168.357191 
L 208.294314 169.008551 
L 208.233953 169.284281 
L 208.030717 170.211371 
L 207.827053 171.138462 
L 207.479412 172.065552 
L 207.361204 172.220829 
L 206.682173 172.992642 
L 206.428094 173.307397 
L 205.93435 173.919732 
L 205.494983 174.481074 
L 205.21036 174.846823 
L 204.561873 175.673967 
L 204.483964 175.773913 
L 203.757455 176.701003 
L 203.628763 176.865431 
L 203.031918 177.628094 
L 202.695652 178.057726 
L 202.308544 178.555184 
L 201.762542 179.251634 
L 201.589815 179.482274 
L 200.955242 180.409365 
L 200.829431 180.61416 
L 200.391876 181.336455 
L 199.896321 182.097249 
L 199.764006 182.263545 
L 198.963211 183.122887 
L 198.905009 183.190635 
L 198.149755 184.117726 
L 198.0301 184.305096 
L 197.600004 185.044816 
L 197.09699 185.766231 
L 196.936581 185.971906 
L 196.177698 186.898997 
L 196.16388 186.915879 
L 195.418815 187.826087 
L 195.230769 188.055813 
L 194.659938 188.753177 
L 194.297659 189.171434 
L 193.724236 189.680268 
L 193.364548 189.961144 
L 192.574184 190.607358 
L 192.431438 190.726848 
L 191.553546 191.534448 
L 191.498328 191.585649 
L 190.569343 192.461538 
L 190.565217 192.465686 
L 189.666296 193.388629 
L 189.632107 193.423523 
L 188.869618 194.315719 
L 188.698997 194.600035 
L 188.345104 195.242809 
L 187.778345 196.1699 
L 187.765886 196.189502 
L 187.189571 197.09699 
L 186.832776 197.614503 
L 186.548558 198.02408 
L 185.899666 198.930723 
L 185.885047 198.951171 
L 185.21557 199.878261 
L 184.966555 200.197879 
L 184.49614 200.805351 
L 184.033445 201.39818 
L 183.772759 201.732441 
L 183.100334 202.593796 
L 183.049057 202.659532 
L 182.325411 203.586622 
L 182.167224 203.789307 
L 181.600231 204.513712 
L 181.234114 204.977686 
L 180.777687 205.440803 
L 180.301003 205.821141 
L 179.461704 206.367893 
L 179.367893 206.424958 
L 178.434783 206.677011 
L 177.501672 206.948476 
L 176.568562 207.158619 
L 175.840861 207.294983 
L 175.635452 207.338028 
L 174.702341 207.385991 
L 173.769231 207.433148 
L 172.83612 207.418604 
L 171.90301 207.370428 
z
" clip-path="url(#p351b4c0d3f)" style="fill: none; stroke-dasharray: 5.55,2.4; stroke-dashoffset: 0; stroke: #000000; stroke-width: 1.5"/>
   </g>
   <g id="PathCollection_3">
    <path d="M 171.90301 232.326729 
L 171.878178 232.326421 
L 170.9699 232.222963 
L 170.036789 232.138784 
L 169.103679 232.075874 
L 168.170569 232.076767 
L 167.237458 231.963143 
L 166.304348 231.810844 
L 165.371237 231.634417 
L 164.50397 231.399331 
L 164.438127 231.37507 
L 163.505017 231.059359 
L 162.571906 230.731914 
L 161.989616 230.472241 
L 161.638796 230.30145 
L 160.705686 230.000438 
L 159.794568 229.545151 
L 159.772575 229.530065 
L 158.839465 228.85733 
L 158.571306 228.61806 
L 157.906355 228.044995 
L 157.511116 227.69097 
L 156.973244 227.22509 
L 156.461509 226.76388 
L 156.040134 226.360185 
L 155.510208 225.836789 
L 155.107023 225.42878 
L 154.58376 224.909699 
L 154.173913 224.494791 
L 153.657587 223.982609 
L 153.240803 223.560516 
L 152.7317 223.055518 
L 152.307692 222.625933 
L 151.719444 222.128428 
L 151.374582 221.898091 
L 150.441472 221.233192 
L 150.397131 221.201338 
L 149.508361 220.663489 
L 149.03507 220.274247 
L 148.575251 219.894622 
L 148.011873 219.347157 
L 147.64214 219.008518 
L 146.997843 218.420067 
L 146.70903 218.157806 
L 145.988344 217.492977 
L 145.77592 217.219675 
L 145.277348 216.565886 
L 144.842809 215.72143 
L 144.790771 215.638796 
L 144.184631 214.711706 
L 143.909699 214.188714 
L 143.656169 213.784615 
L 143.221757 212.857525 
L 142.976589 212.441927 
L 142.647563 211.930435 
L 142.265923 211.003344 
L 142.043478 210.668802 
L 141.654089 210.076254 
L 141.150339 209.149164 
L 141.110368 209.100609 
L 140.599554 208.222074 
L 140.366609 207.294983 
L 140.177258 206.855743 
L 139.96217 206.367893 
L 139.685956 205.440803 
L 139.440722 204.513712 
L 139.244147 203.878483 
L 139.136552 203.586622 
L 138.715572 202.659532 
L 138.311037 201.855974 
L 138.230593 201.732441 
L 137.776161 200.805351 
L 137.377926 200.054975 
L 137.252049 199.878261 
L 136.663707 198.951171 
L 136.444816 198.609292 
L 136.055115 198.02408 
L 135.511706 197.185543 
L 135.444074 197.09699 
L 134.847268 196.1699 
L 134.578595 195.770799 
L 134.240612 195.242809 
L 133.845066 194.315719 
L 133.645485 193.912115 
L 133.394601 193.388629 
L 133.173613 192.461538 
L 132.953958 191.534448 
L 132.712375 190.623177 
L 132.71145 190.607358 
L 132.62087 189.680268 
L 132.379767 188.753177 
L 132.214054 187.826087 
L 132.054058 186.898997 
L 131.863514 185.971906 
L 131.779264 185.824978 
L 131.5292 185.044816 
L 131.111245 184.117726 
L 130.846154 183.580037 
L 130.801669 183.190635 
L 130.288948 182.263545 
L 129.958886 181.336455 
L 129.913043 181.123124 
L 129.904826 180.409365 
L 129.875049 179.482274 
L 129.713708 178.555184 
L 129.485932 177.628094 
L 129.420176 176.701003 
L 129.374795 175.773913 
L 129.331756 174.846823 
L 129.281159 173.919732 
L 129.220735 172.992642 
L 129.202528 172.065552 
L 129.219781 171.138462 
L 129.279035 170.211371 
L 129.354461 169.284281 
L 129.664294 168.357191 
L 129.913043 167.574561 
L 129.997701 167.4301 
L 130.377046 166.50301 
L 130.827929 165.57592 
L 130.846154 165.417676 
L 131.178476 164.648829 
L 131.632395 163.721739 
L 131.779264 163.255427 
L 132.000508 162.794649 
L 132.439592 161.867559 
L 132.712375 161.548023 
L 133.251489 160.940468 
L 133.645485 160.524316 
L 134.156912 160.013378 
L 134.578595 159.614117 
L 135.153453 159.086288 
L 135.511706 158.757346 
L 136.214008 158.159197 
L 136.444816 157.953243 
L 137.326678 157.232107 
L 137.377926 157.182541 
L 138.311037 156.384236 
L 138.442184 156.305017 
L 139.244147 155.911307 
L 140.177258 155.577098 
L 140.561196 155.377926 
L 141.110368 155.077176 
L 142.043478 154.713404 
L 142.619771 154.450836 
L 142.976589 154.236305 
L 143.909699 153.803887 
L 144.836127 153.523746 
L 144.842809 153.520929 
L 145.77592 153.065764 
L 146.70903 152.807936 
L 147.194802 152.596656 
L 147.64214 152.350698 
L 148.575251 151.908142 
L 149.174242 151.669565 
L 149.508361 151.491672 
L 150.441472 151.076962 
L 151.255159 150.742475 
L 151.374582 150.678863 
L 152.307692 150.230319 
L 153.240803 149.938353 
L 153.493127 149.815385 
L 154.173913 149.489249 
L 155.107023 149.168964 
L 155.864442 148.888294 
L 156.040134 148.798633 
L 156.973244 148.400245 
L 157.906355 148.113822 
L 158.237472 147.961204 
L 158.839465 147.664423 
L 159.772575 147.233483 
L 160.063788 147.034114 
L 160.705686 146.518442 
L 161.21545 146.107023 
L 161.638796 145.756412 
L 162.464982 145.179933 
L 162.571906 145.097373 
L 163.505017 144.46463 
L 163.809525 144.252843 
L 164.438127 143.777484 
L 165.09635 143.325753 
L 165.371237 143.112986 
L 166.304348 142.504027 
L 166.433619 142.398662 
L 167.237458 141.836513 
L 167.775332 141.471572 
L 168.170569 141.157924 
L 169.022389 140.544482 
L 169.103679 140.474818 
L 170.036789 139.686833 
L 170.108514 139.617391 
L 170.9699 138.867042 
L 171.17444 138.690301 
L 171.90301 138.056287 
L 172.239304 137.763211 
L 172.83612 137.242762 
L 173.303459 136.83612 
L 173.769231 136.413069 
L 174.35213 135.90903 
L 174.702341 135.590181 
L 175.411335 134.98194 
L 175.635452 134.779112 
L 176.495107 134.054849 
L 176.568562 133.987884 
L 177.455799 133.127759 
L 177.501672 133.08289 
L 178.38954 132.200669 
L 178.434783 132.156768 
L 179.367893 131.294034 
L 179.388378 131.273579 
L 180.301003 130.557258 
L 180.590389 130.346488 
L 181.234114 129.87216 
L 181.853528 129.419398 
L 182.167224 129.168496 
L 183.100334 128.523228 
L 183.135755 128.492308 
L 184.033445 127.892673 
L 184.578215 127.565217 
L 184.966555 127.331394 
L 185.899666 126.949008 
L 186.619642 126.638127 
L 186.832776 126.530589 
L 187.765886 126.19258 
L 188.698997 125.879351 
L 189.150678 125.711037 
L 189.632107 125.553536 
L 190.565217 125.406616 
L 191.498328 125.300706 
L 192.431438 125.132214 
L 193.364548 124.943082 
L 193.861887 124.783946 
L 194.297659 124.659863 
L 195.230769 124.465609 
L 196.16388 124.378002 
L 197.09699 124.296351 
L 198.0301 124.202378 
L 198.963211 124.130687 
L 199.896321 124.047945 
L 200.829431 124.115332 
L 201.762542 124.24038 
L 202.695652 124.421287 
L 203.628763 124.644094 
L 204.120156 124.783946 
L 204.561873 124.917751 
L 205.494983 125.158323 
L 206.428094 125.52031 
L 206.862875 125.711037 
L 207.361204 125.919495 
L 208.294314 126.266633 
L 209.160881 126.638127 
L 209.227425 126.675475 
L 210.160535 127.063212 
L 211.093645 127.45141 
L 211.310806 127.565217 
L 212.026756 127.895025 
L 212.959866 128.303532 
L 213.312521 128.492308 
L 213.892977 128.790346 
L 214.826087 129.330317 
L 214.949762 129.419398 
L 215.759197 130.122105 
L 215.976919 130.346488 
L 216.692308 131.09179 
L 216.873466 131.273579 
L 217.625418 131.893309 
L 217.925296 132.200669 
L 218.558528 133.066674 
L 218.606799 133.127759 
L 219.239768 134.054849 
L 219.491639 134.405475 
L 219.89342 134.98194 
L 220.424749 135.729294 
L 220.569365 135.90903 
L 221.158174 136.83612 
L 221.35786 137.105331 
L 221.773911 137.763211 
L 222.29097 138.589437 
L 222.364767 138.690301 
L 222.927826 139.617391 
L 223.22408 140.06472 
L 223.558667 140.544482 
L 224.047847 141.471572 
L 224.157191 141.665301 
L 224.460706 142.398662 
L 224.907316 143.325753 
L 225.090301 143.562994 
L 225.540536 144.252843 
L 226.023411 145.100936 
L 226.07742 145.179933 
L 226.630516 146.107023 
L 226.956522 146.655702 
L 227.222987 147.034114 
L 227.677864 147.961204 
L 227.889632 148.307288 
L 228.226788 148.888294 
L 228.546489 149.815385 
L 228.822742 150.44588 
L 228.969305 150.742475 
L 229.349867 151.669565 
L 229.755853 152.592498 
L 229.757969 152.596656 
L 230.02514 153.523746 
L 230.23823 154.450836 
L 230.4492 155.377926 
L 230.688963 156.239785 
L 230.70981 156.305017 
L 230.96726 157.232107 
L 231.176123 158.159197 
L 231.394118 159.086288 
L 231.622074 159.898168 
L 231.65772 160.013378 
L 231.89828 160.940468 
L 232.065996 161.867559 
L 232.200969 162.794649 
L 232.313944 163.721739 
L 232.321537 164.648829 
L 232.219664 165.57592 
L 232.049968 166.50301 
L 231.888352 167.4301 
L 231.696008 168.357191 
L 231.622074 168.64093 
L 231.439462 169.284281 
L 231.225105 170.211371 
L 230.992327 171.138462 
L 230.755414 172.065552 
L 230.688963 172.302663 
L 230.491694 172.992642 
L 230.276917 173.919732 
L 230.122306 174.846823 
L 230.058803 175.773913 
L 229.997974 176.701003 
L 229.864043 177.628094 
L 229.755853 177.840499 
L 229.408855 178.555184 
L 228.982743 179.482274 
L 228.822742 179.813281 
L 228.545303 180.409365 
L 228.141089 181.336455 
L 227.889632 181.887664 
L 227.71732 182.263545 
L 227.298953 183.190635 
L 226.956522 183.984182 
L 226.888323 184.117726 
L 226.461624 185.044816 
L 226.023411 185.874247 
L 225.963471 185.971906 
L 225.456167 186.898997 
L 225.090301 187.579211 
L 224.951126 187.826087 
L 224.35716 188.753177 
L 224.157191 189.02497 
L 223.707792 189.680268 
L 223.22408 190.478654 
L 223.141077 190.607358 
L 222.534012 191.534448 
L 222.29097 191.874212 
L 221.88975 192.461538 
L 221.35786 193.249841 
L 221.263971 193.388629 
L 220.695045 194.315719 
L 220.424749 194.753185 
L 220.142077 195.242809 
L 219.491639 196.155738 
L 219.479689 196.1699 
L 218.651335 197.09699 
L 218.558528 197.198758 
L 217.801687 198.02408 
L 217.625418 198.21556 
L 217.018004 198.951171 
L 216.692308 199.3043 
L 216.198316 199.878261 
L 215.759197 200.375643 
L 215.334454 200.805351 
L 214.826087 201.275726 
L 214.331742 201.732441 
L 213.892977 202.146517 
L 213.325985 202.659532 
L 212.959866 202.988773 
L 212.274127 203.586622 
L 212.026756 203.811941 
L 211.253405 204.513712 
L 211.093645 204.675494 
L 210.354076 205.440803 
L 210.160535 205.638491 
L 209.43784 206.367893 
L 209.227425 206.578383 
L 208.450641 207.294983 
L 208.294314 207.424473 
L 207.361204 208.115159 
L 207.254905 208.222074 
L 206.464318 209.149164 
L 206.428094 209.18863 
L 205.664187 210.076254 
L 205.494983 210.26776 
L 204.855138 211.003344 
L 204.561873 211.359152 
L 204.125562 211.930435 
L 203.628763 212.611383 
L 203.44742 212.857525 
L 202.766003 213.784615 
L 202.695652 213.871417 
L 201.988396 214.711706 
L 201.762542 214.977067 
L 201.1967 215.638796 
L 200.829431 216.072919 
L 200.414698 216.565886 
L 199.896321 217.177972 
L 199.63238 217.492977 
L 198.963211 218.262871 
L 198.831445 218.420067 
L 198.0301 219.32139 
L 198.005588 219.347157 
L 197.199033 220.274247 
L 197.09699 220.388259 
L 196.381091 221.201338 
L 196.16388 221.450566 
L 195.597429 222.128428 
L 195.230769 222.563022 
L 194.845399 223.055518 
L 194.297659 223.746549 
L 194.11199 223.982609 
L 193.445377 224.909699 
L 193.364548 225.028352 
L 192.505843 225.836789 
L 192.431438 225.87814 
L 191.498328 226.51592 
L 191.07846 226.76388 
L 190.565217 227.049493 
L 189.632107 227.523382 
L 189.420027 227.69097 
L 188.698997 228.192727 
L 188.094744 228.61806 
L 187.765886 228.852493 
L 186.832776 229.498291 
L 186.776879 229.545151 
L 185.899666 230.037676 
L 184.966555 230.333348 
L 184.69786 230.472241 
L 184.033445 230.674705 
L 183.100334 231.041169 
L 182.167224 231.195099 
L 181.444755 231.399331 
L 181.234114 231.404734 
L 180.301003 231.485896 
L 179.367893 231.757695 
L 178.434783 231.894628 
L 177.501672 231.999403 
L 176.568562 232.087984 
L 175.635452 232.207567 
L 174.94798 232.326421 
L 174.702341 232.330434 
L 173.769231 232.368491 
L 172.83612 232.341484 
L 171.90301 232.326729 
z
" clip-path="url(#p351b4c0d3f)" style="fill: none; stroke: #000000; stroke-width: 1.5"/>
   </g>
   <g id="PathCollection_4">
    <path d="M 167.237458 254.671743 
L 166.435496 254.576589 
L 166.304348 254.56088 
L 165.371237 254.349884 
L 164.438127 254.138895 
L 163.505017 253.927883 
L 162.571906 253.716893 
L 162.309327 253.649498 
L 161.638796 253.475695 
L 160.705686 253.193596 
L 159.772575 252.91047 
L 159.158609 252.722408 
L 158.839465 252.624938 
L 157.906355 252.33487 
L 156.973244 252.044298 
L 156.173196 251.795318 
L 156.040134 251.753876 
L 155.107023 251.4628 
L 154.173913 251.171757 
L 153.240803 250.887945 
L 153.177229 250.868227 
L 152.307692 250.592859 
L 151.374582 250.28886 
L 150.529858 249.941137 
L 150.441472 249.9005 
L 149.508361 249.326181 
L 149.015462 249.014047 
L 148.575251 248.735278 
L 147.64214 248.144369 
L 147.553483 248.086957 
L 146.70903 247.523667 
L 146.188234 247.159866 
L 145.77592 246.867021 
L 144.936207 246.232776 
L 144.842809 246.162048 
L 143.909699 245.455449 
L 143.711933 245.305686 
L 142.976589 244.748839 
L 142.487659 244.378595 
L 142.043478 244.042233 
L 141.232464 243.451505 
L 141.110368 243.36819 
L 140.177258 242.790201 
L 139.760138 242.524415 
L 139.244147 242.195632 
L 138.311037 241.601055 
L 138.305183 241.597324 
L 137.377926 241.006487 
L 136.862865 240.670234 
L 136.444816 240.379077 
L 135.581794 239.743144 
L 135.511706 239.691529 
L 134.578595 239.003724 
L 134.348824 238.816054 
L 133.645485 238.152625 
L 133.394209 237.888963 
L 132.712375 237.174776 
L 132.508611 236.961873 
L 131.779264 236.205294 
L 131.61489 236.034783 
L 130.846154 235.237331 
L 130.721184 235.107692 
L 129.913043 234.269367 
L 129.827485 234.180602 
L 128.979933 233.301477 
L 128.933021 233.253512 
L 128.046823 232.354926 
L 128.018709 232.326421 
L 127.161928 231.399331 
L 127.113712 231.318282 
L 126.693757 230.472241 
L 126.223602 229.545151 
L 126.180602 229.459494 
L 125.779588 228.61806 
L 125.331949 227.69097 
L 125.247492 227.517475 
L 124.894508 226.76388 
L 124.3581 225.836789 
L 124.314381 225.764673 
L 123.803824 224.909699 
L 123.381271 224.189648 
L 123.26289 223.982609 
L 122.784927 223.055518 
L 122.448161 222.446796 
L 122.256808 222.128428 
L 121.62535 221.201338 
L 121.51505 221.03911 
L 120.991002 220.274247 
L 120.58194 219.680494 
L 120.368135 219.347157 
L 119.977894 218.420067 
L 119.648829 217.559194 
L 119.623518 217.492977 
L 119.269136 216.565886 
L 118.914769 215.638796 
L 118.715719 215.118065 
L 118.560392 214.711706 
L 118.206025 213.784615 
L 117.820039 212.857525 
L 117.782609 212.781613 
L 117.324431 211.930435 
L 116.849498 211.080024 
L 116.806674 211.003344 
L 116.294502 210.076254 
L 115.916388 209.392682 
L 115.778534 209.149164 
L 115.253155 208.222074 
L 114.983278 207.731064 
L 114.7426 207.294983 
L 114.267893 206.367893 
L 114.050167 206.068313 
L 113.581665 205.440803 
L 113.117057 204.778798 
L 112.949823 204.513712 
L 112.533292 203.586622 
L 112.184726 202.659532 
L 112.183946 202.657107 
L 111.886751 201.732441 
L 111.588779 200.805351 
L 111.290808 199.878261 
L 111.250836 199.753897 
L 110.992826 198.951171 
L 110.680522 198.02408 
L 110.317726 197.112844 
L 110.31144 197.09699 
L 109.946206 196.1699 
L 109.683133 195.242809 
L 109.480317 194.315719 
L 109.384615 193.869135 
L 109.281935 193.388629 
L 109.108387 192.461538 
L 108.961386 191.534448 
L 108.814385 190.607358 
L 108.698842 189.680268 
L 108.603979 188.753177 
L 108.509124 187.826087 
L 108.451505 187.263017 
L 108.414255 186.898997 
L 108.3194 185.971906 
L 108.22454 185.044816 
L 108.138203 184.117726 
L 107.940556 183.190635 
L 107.696946 182.263545 
L 107.518395 181.658368 
L 107.411538 181.336455 
L 107.059635 180.409365 
L 106.702045 179.482274 
L 106.585284 178.671063 
L 106.570413 178.555184 
L 106.461376 177.628094 
L 106.352335 176.701003 
L 106.302405 175.773913 
L 106.355579 174.846823 
L 106.475657 173.919732 
L 106.585284 173.073313 
L 106.595733 172.992642 
L 106.686691 172.065552 
L 106.770156 171.138462 
L 106.853632 170.211371 
L 106.937103 169.284281 
L 107.020576 168.357191 
L 107.249264 167.4301 
L 107.518395 166.663362 
L 107.57468 166.50301 
L 107.857959 165.57592 
L 108.070116 164.648829 
L 108.282282 163.721739 
L 108.451505 162.982266 
L 108.49444 162.794649 
L 108.706614 161.867559 
L 108.918774 160.940468 
L 109.130941 160.013378 
L 109.343102 159.086288 
L 109.384615 158.936801 
L 109.608792 158.159197 
L 109.879006 157.232107 
L 110.14924 156.305017 
L 110.317726 155.726905 
L 110.421167 155.377926 
L 110.702514 154.450836 
L 110.996626 153.523746 
L 111.250836 153.074786 
L 111.557849 152.596656 
L 112.183946 151.684012 
L 112.193858 151.669565 
L 112.829864 150.742475 
L 113.117057 150.323849 
L 113.465873 149.815385 
L 114.050167 149.041245 
L 114.172065 148.888294 
L 114.951752 147.961204 
L 114.983278 147.924203 
L 115.73164 147.034114 
L 115.916388 146.800078 
L 116.458504 146.107023 
L 116.849498 145.61675 
L 117.226399 145.179933 
L 117.782609 144.556989 
L 118.054173 144.252843 
L 118.715719 143.51193 
L 118.881952 143.325753 
L 119.648829 142.519188 
L 119.771916 142.398662 
L 120.58194 141.633849 
L 120.751875 141.471572 
L 121.51505 140.723117 
L 121.694085 140.544482 
L 122.448161 139.792085 
L 122.623239 139.617391 
L 123.381271 138.861022 
L 123.552368 138.690301 
L 124.314381 137.929978 
L 124.481516 137.763211 
L 125.247492 137.002007 
L 125.432955 136.83612 
L 126.180602 136.245266 
L 126.620966 135.90903 
L 127.113712 135.532796 
L 128.046823 135.045623 
L 128.19582 134.98194 
L 128.979933 134.652338 
L 129.913043 134.260808 
L 130.403894 134.054849 
L 130.846154 133.870602 
L 131.779264 133.522111 
L 132.712375 133.173881 
L 132.812718 133.127759 
L 133.645485 132.714949 
L 134.578595 132.252408 
L 134.68133 132.200669 
L 135.511706 131.777324 
L 136.444816 131.366955 
L 136.687406 131.273579 
L 137.377926 131.020968 
L 138.311037 130.679606 
L 139.221623 130.346488 
L 139.244147 130.338078 
L 140.177258 129.982531 
L 141.110368 129.626058 
L 141.651348 129.419398 
L 142.043478 129.270518 
L 142.976589 128.913185 
L 143.909699 128.545058 
L 144.04127 128.492308 
L 144.842809 128.1594 
L 145.77592 127.659233 
L 145.94264 127.565217 
L 146.70903 127.13934 
L 147.596521 126.638127 
L 147.64214 126.612596 
L 148.575251 126.092779 
L 149.253121 125.711037 
L 149.508361 125.568196 
L 150.441472 125.066524 
L 150.95134 124.783946 
L 151.374582 124.541473 
L 152.307692 124.008738 
L 152.573733 123.856856 
L 153.240803 123.467883 
L 154.106699 122.929766 
L 154.173913 122.887507 
L 155.107023 122.195839 
L 155.310984 122.002676 
L 156.040134 121.311195 
L 156.290921 121.075585 
L 156.973244 120.443268 
L 157.313226 120.148495 
L 157.906355 119.656167 
L 158.451345 119.221405 
L 158.839465 118.916147 
L 159.630095 118.294314 
L 159.772575 118.182253 
L 160.705686 117.448344 
L 160.811023 117.367224 
L 161.638796 116.716536 
L 161.995455 116.440134 
L 162.571906 115.988522 
L 163.178827 115.513043 
L 163.505017 115.257503 
L 164.362199 114.585953 
L 164.438127 114.526468 
L 165.371237 113.795442 
L 165.545574 113.658863 
L 166.304348 113.064428 
L 166.728951 112.731773 
L 167.237458 112.329329 
L 167.894951 111.804682 
L 168.170569 111.584291 
L 169.054379 110.877592 
L 169.103679 110.838172 
L 170.036789 110.108101 
L 170.253262 109.950502 
L 170.9699 109.439631 
L 171.597643 109.023411 
L 171.90301 108.847409 
L 172.83612 108.489498 
L 173.769231 108.131599 
L 173.861206 108.096321 
L 174.702341 107.77369 
L 175.635452 107.410022 
L 176.132847 107.169231 
L 176.568562 106.963984 
L 177.501672 106.537128 
L 178.146519 106.24214 
L 178.434783 106.110273 
L 179.367893 105.724485 
L 180.301003 105.340825 
L 180.363691 105.31505 
L 181.234114 104.957163 
L 182.167224 104.573505 
L 182.618501 104.38796 
L 183.100334 104.18985 
L 184.033445 103.815072 
L 184.966555 103.491594 
L 185.062948 103.46087 
L 185.899666 103.193878 
L 186.832776 102.960869 
L 187.765886 102.806049 
L 188.698997 102.651216 
L 189.406819 102.533779 
L 189.632107 102.496401 
L 190.565217 102.346428 
L 191.498328 102.199975 
L 192.431438 102.05544 
L 193.364548 101.928601 
L 194.297659 101.831144 
L 195.230769 101.733697 
L 196.16388 101.63623 
L 196.446753 101.606689 
L 197.09699 101.538987 
L 198.0301 101.444701 
L 198.963211 101.376262 
L 199.896321 101.330653 
L 200.829431 101.288761 
L 201.762542 101.247422 
L 202.695652 101.241755 
L 203.628763 101.499062 
L 204.074124 101.606689 
L 204.561873 101.723448 
L 205.494983 101.915378 
L 206.428094 102.125633 
L 207.361204 102.346772 
L 208.205108 102.533779 
L 208.294314 102.553455 
L 209.227425 102.733406 
L 210.160535 102.913368 
L 211.093645 103.093323 
L 212.026756 103.276112 
L 212.84303 103.46087 
L 212.959866 103.487733 
L 213.892977 103.71419 
L 214.826087 104.038466 
L 215.645336 104.38796 
L 215.759197 104.436969 
L 216.692308 104.845176 
L 217.625418 105.264578 
L 217.733067 105.31505 
L 218.558528 105.699933 
L 219.491639 106.145546 
L 219.694126 106.24214 
L 220.424749 106.58815 
L 221.35786 107.030041 
L 221.650645 107.169231 
L 222.29097 107.473754 
L 223.22408 107.924835 
L 223.578815 108.096321 
L 224.157191 108.38913 
L 225.090301 108.959648 
L 225.193093 109.023411 
L 226.023411 109.538469 
L 226.687623 109.950502 
L 226.956522 110.117309 
L 227.889632 110.696135 
L 228.182152 110.877592 
L 228.822742 111.274971 
L 229.676687 111.804682 
L 229.755853 111.853789 
L 230.688963 112.43263 
L 231.16976 112.731773 
L 231.622074 113.088895 
L 232.117992 113.658863 
L 232.555184 114.161331 
L 232.924639 114.585953 
L 233.488294 115.227365 
L 233.747184 115.513043 
L 234.421405 116.247803 
L 234.597887 116.440134 
L 235.354515 117.264731 
L 235.448561 117.367224 
L 236.287625 118.281645 
L 236.299153 118.294314 
L 237.117654 119.221405 
L 237.220736 119.346681 
L 237.85094 120.148495 
L 238.153846 120.580534 
L 238.486274 121.075585 
L 239.086957 121.950569 
L 239.123309 122.002676 
L 239.773315 122.929766 
L 240.020067 123.281663 
L 240.429498 123.856856 
L 240.953177 124.601856 
L 241.083172 124.783946 
L 241.745385 125.711037 
L 241.886288 125.90891 
L 242.406874 126.638127 
L 242.819398 127.466391 
L 242.860123 127.565217 
L 243.215021 128.492308 
L 243.589495 129.419398 
L 243.752508 129.714928 
L 244.151339 130.346488 
L 244.685619 131.119502 
L 244.790347 131.273579 
L 245.407394 132.200669 
L 245.618729 132.532519 
L 246.000534 133.127759 
L 246.551839 133.99734 
L 246.588431 134.054849 
L 247.175739 134.98194 
L 247.48495 135.474417 
L 247.748988 135.90903 
L 248.27198 136.83612 
L 248.41806 137.104268 
L 248.772777 137.763211 
L 249.273667 138.690301 
L 249.351171 138.83366 
L 249.775607 139.617391 
L 250.267789 140.544482 
L 250.284281 140.584076 
L 250.633618 141.471572 
L 250.975834 142.398662 
L 251.217391 143.053979 
L 251.31678 143.325753 
L 251.643826 144.252843 
L 251.970876 145.179933 
L 252.150502 145.689113 
L 252.297928 146.107023 
L 252.595162 147.034114 
L 252.746662 147.961204 
L 252.876103 148.888294 
L 253.051157 149.815385 
L 253.083612 149.947325 
L 253.279206 150.742475 
L 253.507266 151.669565 
L 253.734493 152.596656 
L 253.949352 153.523746 
L 254.016722 153.832822 
L 254.146129 154.450836 
L 254.313824 155.377926 
L 254.481526 156.305017 
L 254.645235 157.232107 
L 254.79916 158.159197 
L 254.949833 159.022501 
L 254.961244 159.086288 
L 255.11708 160.013378 
L 255.260937 160.940468 
L 255.404772 161.867559 
L 255.506735 162.794649 
L 255.402882 163.721739 
L 255.29904 164.648829 
L 255.195191 165.57592 
L 255.091366 166.50301 
L 254.98752 167.4301 
L 254.949833 167.766555 
L 254.883673 168.357191 
L 254.757631 169.284281 
L 254.627582 170.211371 
L 254.497561 171.138462 
L 254.36752 172.065552 
L 254.237491 172.992642 
L 254.105738 173.919732 
L 254.016722 174.358083 
L 253.913356 174.846823 
L 253.685498 175.773913 
L 253.540445 176.701003 
L 253.419508 177.628094 
L 253.330786 178.555184 
L 253.248403 179.482274 
L 253.182646 180.409365 
L 253.116915 181.336455 
L 253.083612 181.806165 
L 253.051184 182.263545 
L 252.983829 183.190635 
L 252.64019 184.117726 
L 252.234539 185.044816 
L 252.150502 185.236885 
L 251.828912 185.971906 
L 251.42326 186.898997 
L 251.217391 187.369519 
L 251.017625 187.826087 
L 250.611968 188.753177 
L 250.284281 189.502113 
L 250.206332 189.680268 
L 249.794737 190.607358 
L 249.366065 191.534448 
L 249.351171 191.565823 
L 248.925966 192.461538 
L 248.41806 193.365405 
L 248.404337 193.388629 
L 247.818235 194.315719 
L 247.48495 194.898059 
L 247.288077 195.242809 
L 246.764734 196.1699 
L 246.551839 196.555153 
L 246.252422 197.09699 
L 245.740111 198.02408 
L 245.618729 198.24374 
L 245.227809 198.951171 
L 244.715512 199.878261 
L 244.685619 199.932355 
L 244.204853 200.805351 
L 243.752508 201.642695 
L 243.705735 201.732441 
L 243.292509 202.659532 
L 242.906342 203.586622 
L 242.819398 203.780912 
L 242.47559 204.513712 
L 242.03997 205.440803 
L 241.886288 205.705655 
L 241.448548 206.367893 
L 240.953177 206.990686 
L 240.716497 207.294983 
L 240.020067 208.209933 
L 240.010829 208.222074 
L 239.242955 209.149164 
L 239.086957 209.3255 
L 238.392254 210.076254 
L 238.153846 210.324044 
L 237.500282 211.003344 
L 237.220736 211.293892 
L 236.608273 211.930435 
L 236.287625 212.263694 
L 235.716283 212.857525 
L 235.354515 213.233537 
L 234.8243 213.784615 
L 234.421405 214.203358 
L 233.9323 214.711706 
L 233.488294 215.17319 
L 233.040478 215.638796 
L 232.555184 216.175201 
L 232.223837 216.565886 
L 231.622074 217.2626 
L 231.420716 217.492977 
L 230.688963 218.303541 
L 230.56987 218.420067 
L 229.755853 219.166377 
L 229.558039 219.347157 
L 228.822742 220.019149 
L 228.543602 220.274247 
L 227.889632 220.871896 
L 227.529149 221.201338 
L 226.956522 221.724662 
L 226.543506 222.128428 
L 226.023411 222.724066 
L 225.746645 223.055518 
L 225.090301 223.841557 
L 224.972519 223.982609 
L 224.198395 224.909699 
L 224.157191 224.959045 
L 223.372094 225.836789 
L 223.22408 225.980218 
L 222.325985 226.76388 
L 222.29097 226.794434 
L 221.35786 227.608666 
L 221.26359 227.69097 
L 220.424749 228.442103 
L 220.237226 228.61806 
L 219.491639 229.406855 
L 219.368249 229.545151 
L 218.558528 230.447572 
L 218.536504 230.472241 
L 217.709327 231.399331 
L 217.625418 231.4927 
L 216.86151 232.326421 
L 216.692308 232.511315 
L 216.072593 233.253512 
L 215.759197 233.649697 
L 215.357213 234.180602 
L 214.826087 234.9061 
L 214.673567 235.107692 
L 213.892977 236.015535 
L 213.876359 236.034783 
L 213.075928 236.961873 
L 212.959866 237.094006 
L 212.245379 237.888963 
L 212.026756 238.130351 
L 211.405714 238.816054 
L 211.093645 239.160612 
L 210.566039 239.743144 
L 210.160535 240.189331 
L 209.69938 240.670234 
L 209.227425 241.127905 
L 208.743342 241.597324 
L 208.294314 242.032735 
L 207.78242 242.524415 
L 207.361204 242.932783 
L 206.814509 243.451505 
L 206.428094 243.819111 
L 205.83835 244.378595 
L 205.494983 244.704346 
L 204.566966 245.305686 
L 204.561873 245.308396 
L 203.628763 245.752743 
L 202.695652 246.203789 
L 202.635684 246.232776 
L 201.762542 246.64736 
L 200.829431 247.084715 
L 200.66823 247.159866 
L 199.896321 247.519717 
L 198.963211 247.954717 
L 198.67955 248.086957 
L 198.0301 248.389723 
L 197.09699 248.874828 
L 196.835063 249.014047 
L 196.16388 249.370734 
L 195.230769 249.874457 
L 195.107267 249.941137 
L 194.297659 250.383367 
L 193.469158 250.868227 
L 193.364548 250.930765 
L 192.431438 251.423394 
L 191.498328 251.698065 
L 191.138912 251.795318 
L 190.565217 251.950552 
L 189.632107 252.202525 
L 188.698997 252.545617 
L 188.034592 252.722408 
L 187.765886 252.791585 
L 186.832776 253.003674 
L 185.899666 253.21573 
L 184.966555 253.427795 
L 184.033445 253.639865 
L 183.991057 253.649498 
L 183.100334 253.85193 
L 182.167224 254.064002 
L 181.234114 254.24248 
L 180.301003 254.399017 
L 179.367893 254.555553 
L 179.220972 254.576589 
L 178.434783 254.687478 
L 177.501672 254.793016 
L 176.568562 254.863357 
L 175.635452 254.92946 
L 174.702341 254.995566 
L 173.769231 255.061651 
L 172.83612 255.124138 
L 171.90301 255.149872 
L 170.9699 255.066642 
L 170.036789 254.975983 
L 169.103679 254.874789 
L 168.170569 254.773271 
L 167.237458 254.671743 
z
" clip-path="url(#p351b4c0d3f)" style="fill: none; stroke: #000000; stroke-width: 1.5"/>
   </g>
   <g id="patch_3">
    <path d="M 45 320.4 
L 45 43.2 
" style="fill: none; stroke: #000000; stroke-width: 0.8; stroke-linejoin: miter; stroke-linecap: square"/>
   </g>
   <g id="patch_4">
    <path d="M 324 320.4 
L 324 43.2 
" style="fill: none; stroke: #000000; stroke-width: 0.8; stroke-linejoin: miter; stroke-linecap: square"/>
   </g>
   <g id="patch_5">
    <path d="M 45 320.4 
L 324 320.4 
" style="fill: none; stroke: #000000; stroke-width: 0.8; stroke-linejoin: miter; stroke-linecap: square"/>
   </g>
   <g id="patch_6">
    <path d="M 45 43.2 
L 324 43.2 
" style="fill: none; stroke: #000000; stroke-width: 0.8; stroke-linejoin: miter; stroke-linecap: square"/>
   </g>
  </g>
 </g>
 <defs>
  <clipPath id="p351b4c0d3f">
   <rect x="45" y="43.2" width="279" height="277.2"/>
  </clipPath>
 </defs>
</svg>
