<?xml version="1.0" encoding="utf-8" standalone="no"?>
<!DOCTYPE svg PUBLIC "-//W3C//DTD SVG 1.1//EN"
  "http://www.w3.org/Graphics/SVG/1.1/DTD/svg11.dtd">
<svg xmlns:xlink="http://www.w3.org/1999/xlink" width="360pt" height="360pt" viewBox="0 0 360 360" xmlns="http://www.w3.org/2000/svg" version="1.1">
 <metadata>
  <rdf:RDF xmlns:dc="http://purl.org/dc/elements/1.1/" xmlns:cc="http://creativecommons.org/ns#" xmlns:rdf="http://www.w3.org/1999/02/22-rdf-syntax-ns#">
   <cc:Work>
    <dc:type rdf:resource="http://purl.org/dc/dcmitype/StillImage"/>
    <dc:date>2022-04-10T19:53:29.192758</dc:date>
    <dc:format>image/svg+xml</dc:format>
    <dc:creator>
     <cc:Agent>
      <dc:title>Matplotlib v3.5.1, https://matplotlib.org/</dc:title>
     </cc:Agent>
    </dc:creator>
   </cc:Work>
  </rdf:RDF>
 </metadata>
 <defs>
  <style type="text/css">*{stroke-linejoin: round; stroke-linecap: butt}</style>
 </defs>
 <g id="figure_1">
  <g id="patch_1">
   <path d="M 0 360 
L 360 360 
L 360 0 
L 0 0 
z
" style="fill: #ffffff"/>
  </g>
  <g id="axes_1">
   <g id="patch_2">
    <path d="M 45 320.4 
L 324 320.4 
L 324 43.2 
L 45 43.2 
z
" style="fill: #ffffff"/>
   </g>
   <g id="PathCollection_1">
    <defs>
     <path id="me5b7620231" d="M 0 0.5 
C 0.132602 0.5 0.25979 0.447317 0.353553 0.353553 
C 0.447317 0.25979 0.5 0.132602 0.5 0 
C 0.5 -0.132602 0.447317 -0.25979 0.353553 -0.353553 
C 0.25979 -0.447317 0.132602 -0.5 0 -0.5 
C -0.132602 -0.5 -0.25979 -0.447317 -0.353553 -0.353553 
C -0.447317 -0.25979 -0.5 -0.132602 -0.5 0 
C -0.5 0.132602 -0.447317 0.25979 -0.353553 0.353553 
C -0.25979 0.447317 -0.132602 0.5 0 0.5 
z
" style="stroke: #ff0000"/>
    </defs>
    <g clip-path="url(#p70d7743787)">
     <use xlink:href="#me5b7620231" x="252.783207" y="181.336455" style="fill: #ff0000; stroke: #ff0000"/>
     <use xlink:href="#me5b7620231" x="253.129617" y="174.666292" style="fill: #ff0000; stroke: #ff0000"/>
     <use xlink:href="#me5b7620231" x="252.050431" y="168.078731" style="fill: #ff0000; stroke: #ff0000"/>
     <use xlink:href="#me5b7620231" x="249.557483" y="161.86942" style="fill: #ff0000; stroke: #ff0000"/>
     <use xlink:href="#me5b7620231" x="245.860943" y="156.275904" style="fill: #ff0000; stroke: #ff0000"/>
     <use xlink:href="#me5b7620231" x="241.30044" y="151.419631" style="fill: #ff0000; stroke: #ff0000"/>
     <use xlink:href="#me5b7620231" x="236.235014" y="147.300975" style="fill: #ff0000; stroke: #ff0000"/>
     <use xlink:href="#me5b7620231" x="230.941899" y="143.848891" style="fill: #ff0000; stroke: #ff0000"/>
     <use xlink:href="#me5b7620231" x="225.567091" y="140.997858" style="fill: #ff0000; stroke: #ff0000"/>
     <use xlink:href="#me5b7620231" x="220.144085" y="138.749053" style="fill: #ff0000; stroke: #ff0000"/>
     <use xlink:href="#me5b7620231" x="214.663248" y="137.17895" style="fill: #ff0000; stroke: #ff0000"/>
     <use xlink:href="#me5b7620231" x="209.149177" y="136.385839" style="fill: #ff0000; stroke: #ff0000"/>
     <use xlink:href="#me5b7620231" x="203.700529" y="136.400432" style="fill: #ff0000; stroke: #ff0000"/>
     <use xlink:href="#me5b7620231" x="198.469248" y="137.111219" style="fill: #ff0000; stroke: #ff0000"/>
     <use xlink:href="#me5b7620231" x="193.59207" y="138.252829" style="fill: #ff0000; stroke: #ff0000"/>
     <use xlink:href="#me5b7620231" x="189.116411" y="139.474095" style="fill: #ff0000; stroke: #ff0000"/>
     <use xlink:href="#me5b7620231" x="184.966555" y="140.457438" style="fill: #ff0000; stroke: #ff0000"/>
     <use xlink:href="#me5b7620231" x="180.970969" y="141.030313" style="fill: #ff0000; stroke: #ff0000"/>
     <use xlink:href="#me5b7620231" x="176.934111" y="141.21516" style="fill: #ff0000; stroke: #ff0000"/>
     <use xlink:href="#me5b7620231" x="172.713066" y="141.202722" style="fill: #ff0000; stroke: #ff0000"/>
     <use xlink:href="#me5b7620231" x="168.264852" y="141.275116" style="fill: #ff0000; stroke: #ff0000"/>
     <use xlink:href="#me5b7620231" x="163.653941" y="141.720605" style="fill: #ff0000; stroke: #ff0000"/>
     <use xlink:href="#me5b7620231" x="159.029476" y="142.769308" style="fill: #ff0000; stroke: #ff0000"/>
     <use xlink:href="#me5b7620231" x="154.587317" y="144.558067" style="fill: #ff0000; stroke: #ff0000"/>
     <use xlink:href="#me5b7620231" x="150.528535" y="147.120615" style="fill: #ff0000; stroke: #ff0000"/>
     <use xlink:href="#me5b7620231" x="147.021777" y="150.396887" style="fill: #ff0000; stroke: #ff0000"/>
     <use xlink:href="#me5b7620231" x="144.174925" y="154.256205" style="fill: #ff0000; stroke: #ff0000"/>
     <use xlink:href="#me5b7620231" x="142.021306" y="158.529836" style="fill: #ff0000; stroke: #ff0000"/>
     <use xlink:href="#me5b7620231" x="140.526418" y="163.047507" style="fill: #ff0000; stroke: #ff0000"/>
     <use xlink:href="#me5b7620231" x="139.617934" y="167.668852" style="fill: #ff0000; stroke: #ff0000"/>
     <use xlink:href="#me5b7620231" x="139.2303" y="172.297642" style="fill: #ff0000; stroke: #ff0000"/>
     <use xlink:href="#me5b7620231" x="139.340853" y="176.871707" style="fill: #ff0000; stroke: #ff0000"/>
     <use xlink:href="#me5b7620231" x="139.973115" y="181.336455" style="fill: #ff0000; stroke: #ff0000"/>
     <use xlink:href="#me5b7620231" x="141.16323" y="185.622872" style="fill: #ff0000; stroke: #ff0000"/>
     <use xlink:href="#me5b7620231" x="142.913854" y="189.647291" style="fill: #ff0000; stroke: #ff0000"/>
     <use xlink:href="#me5b7620231" x="145.169812" y="193.33078" style="fill: #ff0000; stroke: #ff0000"/>
     <use xlink:href="#me5b7620231" x="147.831021" y="196.619258" style="fill: #ff0000; stroke: #ff0000"/>
     <use xlink:href="#me5b7620231" x="150.787541" y="199.487654" style="fill: #ff0000; stroke: #ff0000"/>
     <use xlink:href="#me5b7620231" x="153.946829" y="201.929452" style="fill: #ff0000; stroke: #ff0000"/>
     <use xlink:href="#me5b7620231" x="157.235173" y="203.948182" style="fill: #ff0000; stroke: #ff0000"/>
     <use xlink:href="#me5b7620231" x="160.580753" y="205.56493" style="fill: #ff0000; stroke: #ff0000"/>
     <use xlink:href="#me5b7620231" x="163.90179" y="206.838349" style="fill: #ff0000; stroke: #ff0000"/>
     <use xlink:href="#me5b7620231" x="167.11725" y="207.877483" style="fill: #ff0000; stroke: #ff0000"/>
     <use xlink:href="#me5b7620231" x="170.176093" y="208.828941" style="fill: #ff0000; stroke: #ff0000"/>
     <use xlink:href="#me5b7620231" x="173.083676" y="209.83918" style="fill: #ff0000; stroke: #ff0000"/>
     <use xlink:href="#me5b7620231" x="175.905935" y="211.012614" style="fill: #ff0000; stroke: #ff0000"/>
     <use xlink:href="#me5b7620231" x="178.74975" y="212.388807" style="fill: #ff0000; stroke: #ff0000"/>
     <use xlink:href="#me5b7620231" x="181.733948" y="213.945913" style="fill: #ff0000; stroke: #ff0000"/>
     <use xlink:href="#me5b7620231" x="184.966555" y="215.619718" style="fill: #ff0000; stroke: #ff0000"/>
     <use xlink:href="#me5b7620231" x="188.533892" y="217.322561" style="fill: #ff0000; stroke: #ff0000"/>
     <use xlink:href="#me5b7620231" x="192.497571" y="218.953163" style="fill: #ff0000; stroke: #ff0000"/>
     <use xlink:href="#me5b7620231" x="196.892257" y="220.396588" style="fill: #ff0000; stroke: #ff0000"/>
     <use xlink:href="#me5b7620231" x="201.71853" y="221.518379" style="fill: #ff0000; stroke: #ff0000"/>
     <use xlink:href="#me5b7620231" x="206.929281" y="222.160731" style="fill: #ff0000; stroke: #ff0000"/>
     <use xlink:href="#me5b7620231" x="212.415554" y="222.151751" style="fill: #ff0000; stroke: #ff0000"/>
     <use xlink:href="#me5b7620231" x="218.006028" y="221.335435" style="fill: #ff0000; stroke: #ff0000"/>
     <use xlink:href="#me5b7620231" x="223.494247" y="219.615581" style="fill: #ff0000; stroke: #ff0000"/>
     <use xlink:href="#me5b7620231" x="228.69239" y="216.989805" style="fill: #ff0000; stroke: #ff0000"/>
     <use xlink:href="#me5b7620231" x="233.486647" y="213.547382" style="fill: #ff0000; stroke: #ff0000"/>
     <use xlink:href="#me5b7620231" x="237.857713" y="209.424975" style="fill: #ff0000; stroke: #ff0000"/>
     <use xlink:href="#me5b7620231" x="241.845289" y="204.744398" style="fill: #ff0000; stroke: #ff0000"/>
     <use xlink:href="#me5b7620231" x="245.469959" y="199.571552" style="fill: #ff0000; stroke: #ff0000"/>
     <use xlink:href="#me5b7620231" x="248.654752" y="193.923093" style="fill: #ff0000; stroke: #ff0000"/>
     <use xlink:href="#me5b7620231" x="251.192535" y="187.817063" style="fill: #ff0000; stroke: #ff0000"/>
    </g>
   </g>
   <g id="matplotlib.axis_1">
    <g id="xtick_1">
     <g id="line2d_1">
      <defs>
       <path id="ma983cb3558" d="M 0 0 
L 0 3.5 
" style="stroke: #000000; stroke-width: 0.8"/>
      </defs>
      <g>
       <use xlink:href="#ma983cb3558" x="45" y="320.4" style="stroke: #000000; stroke-width: 0.8"/>
      </g>
     </g>
     <g id="text_1">
      <!-- −3 -->
      <g transform="translate(37.628906 334.998438)scale(0.1 -0.1)">
       <defs>
        <path id="DejaVuSans-2212" d="M 678 2272 
L 4684 2272 
L 4684 1741 
L 678 1741 
L 678 2272 
z
" transform="scale(0.015625)"/>
        <path id="DejaVuSans-33" d="M 2597 2516 
Q 3050 2419 3304 2112 
Q 3559 1806 3559 1356 
Q 3559 666 3084 287 
Q 2609 -91 1734 -91 
Q 1441 -91 1130 -33 
Q 819 25 488 141 
L 488 750 
Q 750 597 1062 519 
Q 1375 441 1716 441 
Q 2309 441 2620 675 
Q 2931 909 2931 1356 
Q 2931 1769 2642 2001 
Q 2353 2234 1838 2234 
L 1294 2234 
L 1294 2753 
L 1863 2753 
Q 2328 2753 2575 2939 
Q 2822 3125 2822 3475 
Q 2822 3834 2567 4026 
Q 2313 4219 1838 4219 
Q 1578 4219 1281 4162 
Q 984 4106 628 3988 
L 628 4550 
Q 988 4650 1302 4700 
Q 1616 4750 1894 4750 
Q 2613 4750 3031 4423 
Q 3450 4097 3450 3541 
Q 3450 3153 3228 2886 
Q 3006 2619 2597 2516 
z
" transform="scale(0.015625)"/>
       </defs>
       <use xlink:href="#DejaVuSans-2212"/>
       <use xlink:href="#DejaVuSans-33" x="83.789062"/>
      </g>
     </g>
    </g>
    <g id="xtick_2">
     <g id="line2d_2">
      <g>
       <use xlink:href="#ma983cb3558" x="91.655518" y="320.4" style="stroke: #000000; stroke-width: 0.8"/>
      </g>
     </g>
     <g id="text_2">
      <!-- −2 -->
      <g transform="translate(84.284425 334.998438)scale(0.1 -0.1)">
       <defs>
        <path id="DejaVuSans-32" d="M 1228 531 
L 3431 531 
L 3431 0 
L 469 0 
L 469 531 
Q 828 903 1448 1529 
Q 2069 2156 2228 2338 
Q 2531 2678 2651 2914 
Q 2772 3150 2772 3378 
Q 2772 3750 2511 3984 
Q 2250 4219 1831 4219 
Q 1534 4219 1204 4116 
Q 875 4013 500 3803 
L 500 4441 
Q 881 4594 1212 4672 
Q 1544 4750 1819 4750 
Q 2544 4750 2975 4387 
Q 3406 4025 3406 3419 
Q 3406 3131 3298 2873 
Q 3191 2616 2906 2266 
Q 2828 2175 2409 1742 
Q 1991 1309 1228 531 
z
" transform="scale(0.015625)"/>
       </defs>
       <use xlink:href="#DejaVuSans-2212"/>
       <use xlink:href="#DejaVuSans-32" x="83.789062"/>
      </g>
     </g>
    </g>
    <g id="xtick_3">
     <g id="line2d_3">
      <g>
       <use xlink:href="#ma983cb3558" x="138.311037" y="320.4" style="stroke: #000000; stroke-width: 0.8"/>
      </g>
     </g>
     <g id="text_3">
      <!-- −1 -->
      <g transform="translate(130.939943 334.998438)scale(0.1 -0.1)">
       <defs>
        <path id="DejaVuSans-31" d="M 794 531 
L 1825 531 
L 1825 4091 
L 703 3866 
L 703 4441 
L 1819 4666 
L 2450 4666 
L 2450 531 
L 3481 531 
L 3481 0 
L 794 0 
L 794 531 
z
" transform="scale(0.015625)"/>
       </defs>
       <use xlink:href="#DejaVuSans-2212"/>
       <use xlink:href="#DejaVuSans-31" x="83.789062"/>
      </g>
     </g>
    </g>
    <g id="xtick_4">
     <g id="line2d_4">
      <g>
       <use xlink:href="#ma983cb3558" x="184.966555" y="320.4" style="stroke: #000000; stroke-width: 0.8"/>
      </g>
     </g>
     <g id="text_4">
      <!-- 0 -->
      <g transform="translate(181.785305 334.998438)scale(0.1 -0.1)">
       <defs>
        <path id="DejaVuSans-30" d="M 2034 4250 
Q 1547 4250 1301 3770 
Q 1056 3291 1056 2328 
Q 1056 1369 1301 889 
Q 1547 409 2034 409 
Q 2525 409 2770 889 
Q 3016 1369 3016 2328 
Q 3016 3291 2770 3770 
Q 2525 4250 2034 4250 
z
M 2034 4750 
Q 2819 4750 3233 4129 
Q 3647 3509 3647 2328 
Q 3647 1150 3233 529 
Q 2819 -91 2034 -91 
Q 1250 -91 836 529 
Q 422 1150 422 2328 
Q 422 3509 836 4129 
Q 1250 4750 2034 4750 
z
" transform="scale(0.015625)"/>
       </defs>
       <use xlink:href="#DejaVuSans-30"/>
      </g>
     </g>
    </g>
    <g id="xtick_5">
     <g id="line2d_5">
      <g>
       <use xlink:href="#ma983cb3558" x="231.622074" y="320.4" style="stroke: #000000; stroke-width: 0.8"/>
      </g>
     </g>
     <g id="text_5">
      <!-- 1 -->
      <g transform="translate(228.440824 334.998438)scale(0.1 -0.1)">
       <use xlink:href="#DejaVuSans-31"/>
      </g>
     </g>
    </g>
    <g id="xtick_6">
     <g id="line2d_6">
      <g>
       <use xlink:href="#ma983cb3558" x="278.277592" y="320.4" style="stroke: #000000; stroke-width: 0.8"/>
      </g>
     </g>
     <g id="text_6">
      <!-- 2 -->
      <g transform="translate(275.096342 334.998438)scale(0.1 -0.1)">
       <use xlink:href="#DejaVuSans-32"/>
      </g>
     </g>
    </g>
   </g>
   <g id="matplotlib.axis_2">
    <g id="ytick_1">
     <g id="line2d_7">
      <defs>
       <path id="m2ccfe4b477" d="M 0 0 
L -3.5 0 
" style="stroke: #000000; stroke-width: 0.8"/>
      </defs>
      <g>
       <use xlink:href="#m2ccfe4b477" x="45" y="320.4" style="stroke: #000000; stroke-width: 0.8"/>
      </g>
     </g>
     <g id="text_7">
      <!-- −3 -->
      <g transform="translate(23.257812 324.199219)scale(0.1 -0.1)">
       <use xlink:href="#DejaVuSans-2212"/>
       <use xlink:href="#DejaVuSans-33" x="83.789062"/>
      </g>
     </g>
    </g>
    <g id="ytick_2">
     <g id="line2d_8">
      <g>
       <use xlink:href="#m2ccfe4b477" x="45" y="274.045485" style="stroke: #000000; stroke-width: 0.8"/>
      </g>
     </g>
     <g id="text_8">
      <!-- −2 -->
      <g transform="translate(23.257812 277.844704)scale(0.1 -0.1)">
       <use xlink:href="#DejaVuSans-2212"/>
       <use xlink:href="#DejaVuSans-32" x="83.789062"/>
      </g>
     </g>
    </g>
    <g id="ytick_3">
     <g id="line2d_9">
      <g>
       <use xlink:href="#m2ccfe4b477" x="45" y="227.69097" style="stroke: #000000; stroke-width: 0.8"/>
      </g>
     </g>
     <g id="text_9">
      <!-- −1 -->
      <g transform="translate(23.257812 231.490189)scale(0.1 -0.1)">
       <use xlink:href="#DejaVuSans-2212"/>
       <use xlink:href="#DejaVuSans-31" x="83.789062"/>
      </g>
     </g>
    </g>
    <g id="ytick_4">
     <g id="line2d_10">
      <g>
       <use xlink:href="#m2ccfe4b477" x="45" y="181.336455" style="stroke: #000000; stroke-width: 0.8"/>
      </g>
     </g>
     <g id="text_10">
      <!-- 0 -->
      <g transform="translate(31.6375 185.135674)scale(0.1 -0.1)">
       <use xlink:href="#DejaVuSans-30"/>
      </g>
     </g>
    </g>
    <g id="ytick_5">
     <g id="line2d_11">
      <g>
       <use xlink:href="#m2ccfe4b477" x="45" y="134.98194" style="stroke: #000000; stroke-width: 0.8"/>
      </g>
     </g>
     <g id="text_11">
      <!-- 1 -->
      <g transform="translate(31.6375 138.781159)scale(0.1 -0.1)">
       <use xlink:href="#DejaVuSans-31"/>
      </g>
     </g>
    </g>
    <g id="ytick_6">
     <g id="line2d_12">
      <g>
       <use xlink:href="#m2ccfe4b477" x="45" y="88.627425" style="stroke: #000000; stroke-width: 0.8"/>
      </g>
     </g>
     <g id="text_12">
      <!-- 2 -->
      <g transform="translate(31.6375 92.426643)scale(0.1 -0.1)">
       <use xlink:href="#DejaVuSans-32"/>
      </g>
     </g>
    </g>
   </g>
   <g id="PathCollection_2">
    <path d="M 205.494983 199.056429 
L 204.923578 198.951171 
L 204.561873 198.884548 
L 203.628763 198.70989 
L 202.695652 198.467218 
L 201.762542 198.091588 
L 201.643434 198.02408 
L 200.829431 197.54491 
L 200.174477 197.09699 
L 199.896321 196.91445 
L 198.963211 196.271183 
L 198.825137 196.1699 
L 198.0301 195.594719 
L 197.568262 195.242809 
L 197.09699 194.875092 
L 196.396765 194.315719 
L 196.16388 194.137169 
L 195.230769 193.408124 
L 195.205735 193.388629 
L 194.297659 192.716001 
L 193.971508 192.461538 
L 193.364548 192.006083 
L 192.666938 191.534448 
L 192.431438 191.407627 
L 191.498328 190.950504 
L 190.806813 190.607358 
L 190.565217 190.494161 
L 189.632107 190.178661 
L 188.698997 189.900229 
L 187.959609 189.680268 
L 187.765886 189.622793 
L 186.832776 189.345113 
L 185.899666 189.067312 
L 184.966555 188.791563 
L 184.800671 188.753177 
L 184.033445 188.582089 
L 183.100334 188.440433 
L 182.167224 188.327954 
L 181.234114 188.211229 
L 180.301003 188.003037 
L 179.740187 187.826087 
L 179.367893 187.70881 
L 178.434783 187.413369 
L 177.501672 187.117929 
L 176.869775 186.898997 
L 176.568562 186.79768 
L 175.635452 186.417345 
L 174.702341 186.138982 
L 174.003711 185.971906 
L 173.769231 185.918666 
L 172.83612 185.707485 
L 171.90301 185.534276 
L 170.9699 185.42554 
L 170.036789 185.127203 
L 169.816805 185.044816 
L 169.103679 184.764049 
L 168.170569 184.20518 
L 168.075589 184.117726 
L 167.478341 183.190635 
L 167.237458 182.83581 
L 166.898223 182.263545 
L 166.304348 181.478722 
L 166.196717 181.336455 
L 165.472673 180.409365 
L 165.371237 180.280638 
L 164.74134 179.482274 
L 164.438127 179.056063 
L 164.110605 178.555184 
L 163.544146 177.628094 
L 163.505017 177.56476 
L 162.949197 176.701003 
L 162.691028 175.773913 
L 162.571906 174.863486 
L 162.569649 174.846823 
L 162.447574 173.919732 
L 162.439092 172.992642 
L 162.555971 172.065552 
L 162.571906 171.938232 
L 162.669407 171.138462 
L 162.921984 170.211371 
L 163.342464 169.284281 
L 163.505017 168.974237 
L 163.823085 168.357191 
L 164.420245 167.4301 
L 164.438127 167.409523 
L 165.368173 166.50301 
L 165.371237 166.500065 
L 166.304348 165.844984 
L 166.949106 165.57592 
L 167.237458 165.425593 
L 168.170569 165.02347 
L 169.103679 164.741914 
L 169.593423 164.648829 
L 170.036789 164.574169 
L 170.9699 164.436055 
L 171.90301 164.295361 
L 172.83612 164.152249 
L 173.769231 163.992935 
L 174.702341 163.823203 
L 175.635452 163.803197 
L 176.568562 163.775445 
L 176.851073 163.721739 
L 177.501672 163.595534 
L 178.434783 163.404909 
L 179.367893 163.204916 
L 180.301003 163.004921 
L 181.234114 162.80492 
L 181.353459 162.794649 
L 182.167224 162.732084 
L 183.100334 162.751339 
L 184.033445 162.78281 
L 184.384381 162.794649 
L 184.966555 162.814361 
L 185.899666 162.846066 
L 186.832776 162.877906 
L 187.765886 162.908494 
L 188.698997 162.911285 
L 189.632107 162.91381 
L 190.565217 162.917033 
L 191.498328 162.83245 
L 191.690055 162.794649 
L 192.431438 162.646071 
L 193.364548 162.453317 
L 194.297659 162.265852 
L 195.230769 162.084241 
L 196.16388 161.909429 
L 196.435975 161.867559 
L 197.09699 161.765176 
L 198.0301 161.700032 
L 198.963211 161.52334 
L 199.896321 161.206074 
L 200.7758 160.940468 
L 200.829431 160.923905 
L 201.762542 160.663159 
L 202.695652 160.387096 
L 203.628763 160.073005 
L 203.799258 160.013378 
L 204.561873 159.746669 
L 205.494983 159.450939 
L 206.428094 159.245753 
L 207.361204 159.382513 
L 208.294314 159.551691 
L 209.227425 159.761177 
L 210.080513 160.013378 
L 210.160535 160.040314 
L 211.093645 160.524555 
L 211.776007 160.940468 
L 212.026756 161.093306 
L 212.959866 161.581227 
L 213.640752 161.867559 
L 213.892977 161.966684 
L 214.826087 162.335716 
L 215.759197 162.686443 
L 216.104459 162.794649 
L 216.692308 162.98325 
L 217.625418 163.282616 
L 218.558528 163.620052 
L 218.805012 163.721739 
L 219.491639 164.006429 
L 220.424749 164.393317 
L 221.041001 164.648829 
L 221.35786 164.780204 
L 222.29097 165.167093 
L 222.875806 165.57592 
L 223.22408 166.001948 
L 223.557559 166.50301 
L 224.157191 167.31691 
L 224.239356 167.4301 
L 224.933248 168.357191 
L 225.090301 168.537911 
L 225.737755 169.284281 
L 226.023411 169.635818 
L 226.483703 170.211371 
L 226.956522 170.84822 
L 227.151119 171.138462 
L 227.710626 172.065552 
L 227.889632 172.682289 
L 227.971502 172.992642 
L 228.168133 173.919732 
L 228.364774 174.846823 
L 228.565369 175.773913 
L 228.762468 176.701003 
L 228.822742 176.949854 
L 228.991073 177.628094 
L 229.210597 178.555184 
L 229.423214 179.482274 
L 229.151809 180.409365 
L 228.822742 180.973497 
L 228.607851 181.336455 
L 228.191556 182.263545 
L 227.889632 182.790619 
L 227.644897 183.190635 
L 227.058099 184.117726 
L 226.956522 184.273163 
L 226.452252 185.044816 
L 226.023411 185.776479 
L 225.911289 185.971906 
L 225.381692 186.898997 
L 225.090301 187.360819 
L 224.796681 187.826087 
L 224.265927 188.753177 
L 224.157191 188.95667 
L 223.770533 189.680268 
L 223.275146 190.607358 
L 223.22408 190.702923 
L 222.779439 191.534448 
L 222.29097 192.399971 
L 222.255348 192.461538 
L 221.686116 193.388629 
L 221.35786 193.746018 
L 220.816666 194.315719 
L 220.424749 194.692249 
L 219.831978 195.242809 
L 219.491639 195.551931 
L 218.811256 196.1699 
L 218.558528 196.364595 
L 217.625418 196.839966 
L 217.111814 197.09699 
L 216.692308 197.350021 
L 215.759197 197.908222 
L 215.552403 198.02408 
L 214.826087 198.436828 
L 213.910135 198.951171 
L 213.892977 198.960768 
L 212.959866 199.318004 
L 212.026756 199.420417 
L 211.093645 199.522829 
L 210.160535 199.625244 
L 209.227425 199.68787 
L 208.294314 199.537583 
L 207.361204 199.384047 
L 206.428094 199.228283 
L 205.494983 199.056429 
z
" clip-path="url(#p70d7743787)" style="fill: none; stroke-dasharray: 5.55,2.4; stroke-dashoffset: 0; stroke: #000000; stroke-width: 1.5"/>
   </g>
   <g id="PathCollection_3">
    <path d="M 208.294314 222.148049 
L 208.067804 222.128428 
L 207.361204 222.036056 
L 206.428094 221.939765 
L 205.494983 221.863582 
L 204.561873 221.777346 
L 203.628763 221.666436 
L 202.695652 221.574206 
L 201.762542 221.505184 
L 200.829431 221.34351 
L 200.263786 221.201338 
L 199.896321 221.098844 
L 198.963211 220.887592 
L 198.0301 220.651021 
L 197.09699 220.420627 
L 196.519352 220.274247 
L 196.16388 220.177384 
L 195.230769 219.99328 
L 194.297659 219.809948 
L 193.364548 219.598549 
L 192.479735 219.347157 
L 192.431438 219.330475 
L 191.498328 219.103014 
L 190.565217 218.859983 
L 189.632107 218.569349 
L 189.310885 218.420067 
L 188.698997 218.176515 
L 187.765886 217.642308 
L 187.548178 217.492977 
L 186.832776 217.059497 
L 186.13396 216.565886 
L 185.899666 216.423394 
L 184.966555 215.895031 
L 184.568229 215.638796 
L 184.033445 215.336963 
L 183.127827 214.711706 
L 183.100334 214.69419 
L 182.167224 214.120778 
L 181.412083 213.784615 
L 181.234114 213.720605 
L 180.301003 213.269061 
L 179.425774 212.857525 
L 179.367893 212.834021 
L 178.434783 212.387455 
L 177.501672 211.938856 
L 177.484229 211.930435 
L 176.568562 211.489733 
L 175.635452 211.039076 
L 175.564975 211.003344 
L 174.702341 210.518178 
L 173.953197 210.076254 
L 173.769231 209.970652 
L 172.83612 209.293279 
L 172.588696 209.149164 
L 171.90301 208.793736 
L 170.9699 208.312266 
L 170.795439 208.222074 
L 170.036789 207.840187 
L 169.103679 207.429967 
L 168.764576 207.294983 
L 168.170569 207.074928 
L 167.237458 206.726934 
L 166.304348 206.445802 
L 166.09275 206.367893 
L 165.371237 206.109501 
L 164.438127 205.721798 
L 163.753198 205.440803 
L 163.505017 205.345384 
L 162.571906 204.973286 
L 161.638796 204.598257 
L 161.427881 204.513712 
L 160.705686 204.243712 
L 159.772575 203.866773 
L 159.07748 203.586622 
L 158.839465 203.499052 
L 157.906355 203.110634 
L 157.060004 202.659532 
L 156.973244 202.622857 
L 156.040134 202.171163 
L 155.215313 201.732441 
L 155.107023 201.686712 
L 154.173913 201.132462 
L 153.711021 200.805351 
L 153.240803 200.596746 
L 152.307692 200.087255 
L 151.898957 199.878261 
L 151.374582 199.679664 
L 150.441472 199.035926 
L 150.327403 198.951171 
L 149.508361 198.373453 
L 149.129299 198.02408 
L 148.575251 197.595171 
L 148.051958 197.09699 
L 147.64214 196.755393 
L 147.044374 196.1699 
L 146.70903 195.871941 
L 146.052952 195.242809 
L 145.77592 194.986792 
L 145.163581 194.315719 
L 144.842809 193.559467 
L 144.744585 193.388629 
L 144.202334 192.461538 
L 143.909699 192.013623 
L 143.565026 191.534448 
L 143.090589 190.607358 
L 142.976589 190.456763 
L 142.519458 189.680268 
L 142.108146 188.753177 
L 142.043478 188.654097 
L 141.616594 187.826087 
L 141.338823 186.898997 
L 141.110368 186.282057 
L 141.003873 185.971906 
L 140.727755 185.044816 
L 140.6142 184.117726 
L 140.496168 183.190635 
L 140.404852 182.263545 
L 140.267394 181.336455 
L 140.177258 180.927881 
L 140.107004 180.409365 
L 139.745991 179.482274 
L 139.463709 178.555184 
L 139.244147 177.78486 
L 139.230718 177.628094 
L 139.088453 176.701003 
L 138.878874 175.773913 
L 138.543255 174.846823 
L 138.311037 174.429498 
L 138.085684 173.919732 
L 137.834745 172.992642 
L 137.664755 172.065552 
L 137.712152 171.138462 
L 137.983946 170.211371 
L 138.305938 169.284281 
L 138.311037 169.189469 
L 138.581879 168.357191 
L 138.884088 167.4301 
L 139.243778 166.50301 
L 139.244147 166.495241 
L 139.590674 165.57592 
L 140.002131 164.648829 
L 140.177258 163.944104 
L 140.294134 163.721739 
L 140.597257 162.794649 
L 140.996514 161.867559 
L 141.110368 161.359588 
L 141.301748 160.940468 
L 141.584725 160.013378 
L 141.962717 159.086288 
L 142.043478 158.721198 
L 142.283098 158.159197 
L 142.563606 157.232107 
L 142.907226 156.305017 
L 142.976589 156.062498 
L 143.366733 155.377926 
L 143.909699 154.733761 
L 144.131244 154.450836 
L 144.754155 153.523746 
L 144.842809 153.404444 
L 145.418798 152.596656 
L 145.77592 152.202796 
L 146.29412 151.669565 
L 146.70903 151.226464 
L 147.163085 150.742475 
L 147.64214 150.236992 
L 148.110352 149.815385 
L 148.575251 149.42682 
L 149.332795 148.888294 
L 149.508361 148.747135 
L 150.441472 148.102399 
L 150.617629 147.961204 
L 151.374582 147.399686 
L 151.897144 147.034114 
L 152.307692 146.71615 
L 153.215654 146.107023 
L 153.240803 146.087669 
L 154.173913 145.441402 
L 154.575241 145.179933 
L 155.107023 144.830491 
L 156.040134 144.447219 
L 156.449301 144.252843 
L 156.973244 143.988087 
L 157.906355 143.703452 
L 158.839465 143.434627 
L 159.121347 143.325753 
L 159.772575 143.088875 
L 160.705686 142.814324 
L 161.638796 142.538306 
L 162.02005 142.398662 
L 162.571906 142.197295 
L 163.505017 141.936231 
L 164.438127 141.707108 
L 165.33512 141.471572 
L 165.371237 141.460676 
L 166.304348 141.22268 
L 167.237458 141.121363 
L 168.170569 141.041053 
L 169.103679 140.954957 
L 170.036789 140.922389 
L 170.9699 140.944814 
L 171.90301 140.992367 
L 172.83612 140.985904 
L 173.769231 140.912276 
L 174.702341 140.774213 
L 175.635452 140.593956 
L 175.87744 140.544482 
L 176.568562 140.422818 
L 177.501672 140.296397 
L 178.434783 140.218104 
L 179.367893 140.115949 
L 180.301003 139.965226 
L 181.234114 139.889102 
L 182.167224 139.822973 
L 183.100334 139.779224 
L 184.033445 139.74146 
L 184.966555 139.645554 
L 185.097054 139.617391 
L 185.899666 139.466762 
L 186.832776 139.313147 
L 187.765886 139.157047 
L 188.698997 139.016145 
L 189.632107 138.895566 
L 190.565217 138.827651 
L 191.498328 138.728999 
L 191.67158 138.690301 
L 192.431438 138.555794 
L 193.364548 138.410057 
L 194.297659 138.24152 
L 195.230769 138.077324 
L 196.16388 137.939955 
L 197.056836 137.763211 
L 197.09699 137.755839 
L 198.0301 137.593906 
L 198.963211 137.440675 
L 199.896321 137.351488 
L 200.829431 137.310002 
L 201.762542 137.090367 
L 202.496021 136.83612 
L 202.695652 136.779924 
L 203.628763 136.494299 
L 204.561873 136.29685 
L 205.494983 136.219028 
L 206.428094 136.153384 
L 207.361204 136.071872 
L 208.294314 136.081156 
L 209.227425 136.225094 
L 210.160535 136.456354 
L 211.093645 136.646891 
L 211.960111 136.83612 
L 212.026756 136.859072 
L 212.959866 137.07596 
L 213.892977 137.240412 
L 214.826087 137.389188 
L 215.759197 137.466535 
L 216.692308 137.62961 
L 217.037202 137.763211 
L 217.625418 138.096719 
L 218.558528 138.664654 
L 218.614943 138.690301 
L 219.491639 138.989988 
L 220.424749 139.305065 
L 221.352812 139.617391 
L 221.35786 139.619579 
L 222.29097 139.934839 
L 223.22408 140.25589 
L 224.052782 140.544482 
L 224.157191 140.589568 
L 225.090301 140.998838 
L 226.010335 141.471572 
L 226.023411 141.479579 
L 226.956522 141.901016 
L 227.889632 142.351366 
L 227.968162 142.398662 
L 228.822742 142.925113 
L 229.453735 143.325753 
L 229.755853 143.516012 
L 230.688963 144.109988 
L 230.913959 144.252843 
L 231.622074 144.702375 
L 232.346383 145.179933 
L 232.555184 145.321349 
L 233.488294 145.957126 
L 233.700664 146.107023 
L 234.421405 146.613729 
L 235.097959 147.034114 
L 235.354515 147.21178 
L 236.287625 147.688718 
L 236.880908 147.961204 
L 237.220736 148.154075 
L 238.153846 148.524387 
L 238.645773 148.888294 
L 239.086957 149.325922 
L 239.57235 149.815385 
L 240.020067 150.259151 
L 240.474773 150.742475 
L 240.953177 151.302408 
L 241.264013 151.669565 
L 241.886288 152.40777 
L 242.049364 152.596656 
L 242.819398 153.514475 
L 242.827801 153.523746 
L 243.595516 154.450836 
L 243.752508 154.621756 
L 244.389866 155.377926 
L 244.685619 155.846178 
L 244.946926 156.305017 
L 245.310512 157.232107 
L 245.618729 157.894014 
L 245.764551 158.159197 
L 246.211845 159.086288 
L 246.551839 159.704 
L 246.773868 160.013378 
L 247.228382 160.940468 
L 247.48495 161.366883 
L 247.840026 161.867559 
L 248.223374 162.794649 
L 248.41806 163.112151 
L 248.806455 163.721739 
L 249.161098 164.648829 
L 249.351171 164.997122 
L 249.707535 165.57592 
L 250.088228 166.50301 
L 250.284281 166.889199 
L 250.597987 167.4301 
L 250.842139 168.357191 
L 251.024577 169.284281 
L 251.217391 169.889202 
L 251.342807 170.211371 
L 251.617042 171.138462 
L 251.824103 172.065552 
L 251.958502 172.992642 
L 252.150502 173.737622 
L 252.212599 173.919732 
L 252.466372 174.846823 
L 252.654331 175.773913 
L 252.782248 176.701003 
L 252.876869 177.628094 
L 252.966047 178.555184 
L 252.844038 179.482274 
L 252.642252 180.409365 
L 252.357159 181.336455 
L 252.150502 181.871841 
L 252.035342 182.263545 
L 251.967118 183.190635 
L 251.896187 184.117726 
L 251.817567 185.044816 
L 251.311603 185.971906 
L 251.217391 186.131573 
L 250.865942 186.898997 
L 250.284281 187.713145 
L 250.213043 187.826087 
L 249.779905 188.753177 
L 249.351171 189.373699 
L 249.192682 189.680268 
L 248.665697 190.607358 
L 248.41806 190.995697 
L 248.154066 191.534448 
L 247.542341 192.461538 
L 247.48495 192.572106 
L 247.199082 193.388629 
L 246.726141 194.315719 
L 246.551839 194.692538 
L 246.373718 195.242809 
L 246.01485 196.1699 
L 245.618729 196.892786 
L 245.517781 197.09699 
L 245.133658 198.02408 
L 244.685619 198.724116 
L 244.565388 198.951171 
L 244.198469 199.878261 
L 243.752508 200.606933 
L 243.648249 200.805351 
L 243.265313 201.732441 
L 242.819398 202.51488 
L 242.744546 202.659532 
L 242.291942 203.586622 
L 241.886288 204.115249 
L 241.61204 204.513712 
L 240.994663 205.440803 
L 240.953177 205.49759 
L 240.38931 206.367893 
L 240.020067 206.847994 
L 239.696316 207.294983 
L 239.086957 208.146765 
L 239.034077 208.222074 
L 238.379059 209.149164 
L 238.153846 209.424862 
L 237.665851 210.076254 
L 237.220736 210.642954 
L 236.924115 211.003344 
L 236.287625 211.774423 
L 236.155254 211.930435 
L 235.354515 212.740461 
L 235.226526 212.857525 
L 234.421405 213.609035 
L 234.225329 213.784615 
L 233.488294 214.453346 
L 233.124108 214.711706 
L 232.555184 215.076755 
L 231.745126 215.638796 
L 231.622074 215.721794 
L 230.688963 216.353616 
L 230.360129 216.565886 
L 229.755853 216.956759 
L 228.926888 217.492977 
L 228.822742 217.560788 
L 227.889632 218.225934 
L 227.634129 218.420067 
L 226.956522 218.928695 
L 226.390281 219.347157 
L 226.023411 219.614299 
L 225.090301 220.028318 
L 224.267389 220.274247 
L 224.157191 220.308792 
L 223.22408 220.595983 
L 222.29097 220.893137 
L 221.35786 221.185911 
L 221.316512 221.201338 
L 220.424749 221.489378 
L 219.491639 221.789013 
L 218.558528 222.060047 
L 218.346829 222.128428 
L 217.625418 222.343706 
L 216.692308 222.604655 
L 215.759197 222.73523 
L 214.826087 222.695318 
L 213.892977 222.648347 
L 212.959866 222.589811 
L 212.026756 222.530265 
L 211.093645 222.457681 
L 210.160535 222.356772 
L 209.227425 222.25639 
L 208.294314 222.148049 
z
" clip-path="url(#p70d7743787)" style="fill: none; stroke: #000000; stroke-width: 1.5"/>
   </g>
   <g id="PathCollection_4">
    <path d="M 206.428094 245.326815 
L 206.251518 245.305686 
L 205.494983 245.215158 
L 204.561873 245.103516 
L 203.628763 244.991876 
L 202.695652 244.885848 
L 201.762542 244.800283 
L 200.829431 244.716192 
L 199.896321 244.636682 
L 198.963211 244.626784 
L 198.0301 244.631794 
L 197.09699 244.63351 
L 196.16388 244.440159 
L 195.88478 244.378595 
L 195.230769 244.234015 
L 194.297659 243.986243 
L 193.364548 243.658909 
L 192.752737 243.451505 
L 192.431438 243.342834 
L 191.498328 243.035425 
L 190.565217 242.722152 
L 189.978227 242.524415 
L 189.632107 242.407819 
L 188.698997 242.106894 
L 187.765886 241.817674 
L 187.054929 241.597324 
L 186.832776 241.528468 
L 185.899666 241.218652 
L 184.966555 240.861169 
L 184.468177 240.670234 
L 184.033445 240.503683 
L 183.100334 240.146199 
L 182.167224 239.788715 
L 182.04827 239.743144 
L 181.234114 239.436742 
L 180.301003 239.098627 
L 179.511047 238.816054 
L 179.367893 238.763751 
L 178.434783 238.352856 
L 177.501672 237.901637 
L 177.477709 237.888963 
L 176.568562 237.398309 
L 175.752858 236.961873 
L 175.635452 236.898761 
L 174.702341 236.447989 
L 173.769231 236.039644 
L 173.758121 236.034783 
L 172.83612 235.631327 
L 171.90301 235.279987 
L 171.426118 235.107692 
L 170.9699 234.942865 
L 170.036789 234.605749 
L 169.103679 234.268637 
L 168.860009 234.180602 
L 168.170569 233.931516 
L 167.237458 233.594379 
L 166.304348 233.257279 
L 166.294472 233.253512 
L 165.371237 232.906276 
L 164.438127 232.535421 
L 163.991208 232.326421 
L 163.505017 232.084324 
L 162.571906 231.494164 
L 162.442564 231.399331 
L 161.638796 230.861054 
L 160.806412 230.472241 
L 160.705686 230.425947 
L 159.772575 229.997111 
L 158.839465 229.568088 
L 158.789678 229.545151 
L 157.906355 229.137094 
L 156.973244 228.708362 
L 156.777743 228.61806 
L 156.040134 228.27717 
L 155.107023 227.846352 
L 154.770634 227.69097 
L 154.173913 227.415338 
L 153.240803 226.983854 
L 152.772888 226.76388 
L 152.307692 226.542843 
L 151.374582 226.079212 
L 150.894024 225.836789 
L 150.441472 225.608501 
L 149.508361 225.137785 
L 149.056202 224.909699 
L 148.575251 224.667089 
L 147.64214 224.196374 
L 147.218398 223.982609 
L 146.70903 223.722747 
L 145.77592 223.239886 
L 145.403099 223.055518 
L 144.842809 222.792573 
L 143.909699 222.354521 
L 143.395014 222.128428 
L 142.976589 221.94432 
L 142.043478 221.537853 
L 141.303243 221.201338 
L 141.110368 221.099379 
L 140.177258 220.515293 
L 139.792573 220.274247 
L 139.244147 219.902479 
L 138.600474 219.347157 
L 138.311037 219.085852 
L 137.571723 218.420067 
L 137.377926 218.245149 
L 136.534478 217.492977 
L 136.444816 217.413514 
L 135.511706 216.593027 
L 135.480798 216.565886 
L 134.578595 215.771878 
L 134.429193 215.638796 
L 133.645485 214.933226 
L 133.399169 214.711706 
L 132.712375 214.185687 
L 132.084351 213.784615 
L 131.779264 213.597616 
L 130.846154 212.944977 
L 130.747117 212.857525 
L 129.913043 212.016731 
L 129.827436 211.930435 
L 128.979933 211.082975 
L 128.899884 211.003344 
L 128.06968 210.076254 
L 128.046823 210.049151 
L 127.29104 209.149164 
L 127.113712 208.93603 
L 126.541136 208.222074 
L 126.180602 207.756463 
L 125.816355 207.294983 
L 125.247492 206.577298 
L 125.081511 206.367893 
L 124.346619 205.440803 
L 124.314381 205.397806 
L 123.76484 204.513712 
L 123.461413 203.586622 
L 123.381271 203.342509 
L 123.156034 202.659532 
L 122.850278 201.732441 
L 122.544523 200.805351 
L 122.448161 200.525906 
L 122.221362 199.878261 
L 121.889507 198.951171 
L 121.557673 198.02408 
L 121.51505 197.905009 
L 121.225814 197.09699 
L 120.870412 196.1699 
L 120.58194 195.63503 
L 120.370408 195.242809 
L 119.947659 194.315719 
L 119.648829 193.475885 
L 119.617782 193.388629 
L 119.28789 192.461538 
L 118.958005 191.534448 
L 118.715719 190.853525 
L 118.628129 190.607358 
L 118.29825 189.680268 
L 117.971421 188.753177 
L 117.782609 188.2062 
L 117.651643 187.826087 
L 117.358745 186.898997 
L 117.028851 185.971906 
L 116.849498 185.493804 
L 116.660791 185.044816 
L 116.1791 184.117726 
L 115.945987 183.190635 
L 115.916388 182.829437 
L 115.871351 182.263545 
L 115.836909 181.336455 
L 115.7976 180.409365 
L 115.755819 179.482274 
L 115.723046 178.555184 
L 115.616119 177.628094 
L 115.44017 176.701003 
L 115.258797 175.773913 
L 115.067608 174.846823 
L 114.983278 174.434211 
L 114.878111 173.919732 
L 114.69212 172.992642 
L 114.539731 172.065552 
L 114.501882 171.138462 
L 114.539322 170.211371 
L 114.577844 169.284281 
L 114.620231 168.357191 
L 114.752218 167.4301 
L 114.983278 166.661387 
L 115.030883 166.50301 
L 115.309541 165.57592 
L 115.588215 164.648829 
L 115.866887 163.721739 
L 115.916388 163.557057 
L 116.145554 162.794649 
L 116.424211 161.867559 
L 116.702894 160.940468 
L 116.849498 160.452718 
L 116.98155 160.013378 
L 117.307735 159.086288 
L 117.700493 158.159197 
L 117.782609 157.965363 
L 118.093242 157.232107 
L 118.487792 156.305017 
L 118.715719 155.789024 
L 118.89872 155.377926 
L 119.308994 154.450836 
L 119.648829 153.684479 
L 119.718932 153.523746 
L 120.051302 152.596656 
L 120.356119 151.669565 
L 120.58194 150.948201 
L 120.646127 150.742475 
L 120.935397 149.815385 
L 121.224678 148.888294 
L 121.513951 147.961204 
L 121.51505 147.957681 
L 121.803212 147.034114 
L 122.084108 146.107023 
L 122.448161 145.375066 
L 122.556254 145.179933 
L 123.146216 144.252843 
L 123.381271 143.85066 
L 123.663432 143.325753 
L 124.094534 142.398662 
L 124.314381 141.931457 
L 124.531873 141.471572 
L 125.114656 140.544482 
L 125.247492 140.359696 
L 125.781526 139.617391 
L 126.180602 139.062046 
L 126.447965 138.690301 
L 127.113712 137.763574 
L 127.113991 137.763211 
L 127.86904 136.83612 
L 128.046823 136.630171 
L 128.668035 135.90903 
L 128.979933 135.543203 
L 129.458456 134.98194 
L 129.913043 134.452192 
L 130.291383 134.054849 
L 130.846154 133.544189 
L 131.322223 133.127759 
L 131.779264 132.764847 
L 132.571527 132.200669 
L 132.712375 132.100369 
L 133.645485 131.435881 
L 133.873399 131.273579 
L 134.578595 130.771395 
L 135.17527 130.346488 
L 135.511706 130.106902 
L 136.444816 129.438365 
L 136.470963 129.419398 
L 137.377926 128.746597 
L 137.720725 128.492308 
L 138.311037 128.054415 
L 139.013683 127.565217 
L 139.244147 127.420654 
L 140.177258 126.849604 
L 140.522822 126.638127 
L 141.110368 126.278559 
L 142.037707 125.711037 
L 142.043478 125.707506 
L 142.976589 125.136451 
L 143.552588 124.783946 
L 143.909699 124.565952 
L 144.842809 124.115494 
L 145.386137 123.856856 
L 145.77592 123.663021 
L 146.70903 123.178584 
L 147.187762 122.929766 
L 147.64214 122.693602 
L 148.575251 122.208598 
L 149.014733 122.002676 
L 149.508361 121.782113 
L 150.441472 121.439834 
L 151.374582 121.09754 
L 151.437802 121.075585 
L 152.307692 120.797162 
L 153.240803 120.591621 
L 154.173913 120.41061 
L 155.107023 120.254901 
L 155.705202 120.148495 
L 156.040134 120.087816 
L 156.973244 119.899182 
L 157.906355 119.643516 
L 158.839465 119.365647 
L 159.323845 119.221405 
L 159.772575 119.087777 
L 160.705686 118.809898 
L 161.638796 118.532021 
L 162.547865 118.294314 
L 162.571906 118.287934 
L 163.505017 118.059831 
L 164.438127 117.964474 
L 165.371237 117.947563 
L 166.304348 117.930648 
L 167.237458 117.913731 
L 168.170569 117.896812 
L 169.103679 117.755954 
L 170.036789 117.586511 
L 170.9699 117.417072 
L 171.244432 117.367224 
L 171.90301 117.247643 
L 172.83612 117.078186 
L 173.769231 116.947354 
L 174.702341 116.849286 
L 175.635452 116.751218 
L 176.568562 116.65315 
L 177.501672 116.555077 
L 178.434783 116.473554 
L 178.810002 116.440134 
L 179.367893 116.3893 
L 180.301003 116.293476 
L 181.234114 116.197634 
L 182.167224 116.101792 
L 183.100334 116.005959 
L 184.033445 115.91013 
L 184.966555 115.806374 
L 185.899666 115.654312 
L 186.631945 115.513043 
L 186.832776 115.474091 
L 187.765886 115.240459 
L 188.698997 115.006829 
L 189.632107 114.773188 
L 190.379911 114.585953 
L 190.565217 114.539556 
L 191.498328 114.305915 
L 192.431438 114.072277 
L 193.364548 113.838642 
L 194.082539 113.658863 
L 194.297659 113.604999 
L 195.230769 113.374493 
L 196.16388 113.1549 
L 197.09699 112.963239 
L 198.0301 112.780671 
L 198.284458 112.731773 
L 198.963211 112.59874 
L 199.896321 112.422453 
L 200.829431 112.300736 
L 201.762542 112.383693 
L 202.695652 112.486465 
L 203.628763 112.627635 
L 204.134487 112.731773 
L 204.561873 112.819779 
L 205.494983 112.842205 
L 206.428094 112.777247 
L 207.361204 112.810393 
L 208.294314 112.89087 
L 209.227425 112.973023 
L 210.160535 113.055192 
L 211.093645 113.159408 
L 212.026756 113.294526 
L 212.959866 113.403308 
L 213.892977 113.459338 
L 214.826087 113.502618 
L 215.759197 113.545899 
L 216.683283 113.658863 
L 216.692308 113.660003 
L 217.625418 113.797615 
L 218.558528 114.079934 
L 219.491639 114.462913 
L 219.786485 114.585953 
L 220.424749 114.8523 
L 221.35786 115.183013 
L 222.29097 115.486722 
L 222.371832 115.513043 
L 223.22408 115.790453 
L 224.157191 116.094174 
L 225.090301 116.395864 
L 225.237338 116.440134 
L 226.023411 116.6768 
L 226.956522 116.918567 
L 227.889632 117.142886 
L 228.808214 117.367224 
L 228.822742 117.370772 
L 229.755853 117.598646 
L 230.688963 117.826531 
L 231.622074 118.054415 
L 232.531742 118.294314 
L 232.555184 118.3005 
L 233.488294 118.575697 
L 234.421405 119.002731 
L 234.872954 119.221405 
L 235.354515 119.454608 
L 236.287625 119.906474 
L 236.787405 120.148495 
L 237.220736 120.354241 
L 238.153846 120.829019 
L 238.570864 121.075585 
L 239.086957 121.37682 
L 240.020067 121.916423 
L 240.167365 122.002676 
L 240.953177 122.465189 
L 241.723308 122.929766 
L 241.886288 123.029215 
L 242.819398 123.59861 
L 243.242605 123.856856 
L 243.752508 124.168004 
L 244.685619 124.737383 
L 244.756664 124.783946 
L 245.618729 125.561438 
L 245.76713 125.711037 
L 246.551839 126.353691 
L 246.942185 126.638127 
L 247.48495 127.026494 
L 248.243653 127.565217 
L 248.41806 127.689054 
L 249.351171 128.34916 
L 249.580666 128.492308 
L 250.284281 128.921436 
L 251.100051 129.419398 
L 251.217391 129.491024 
L 252.150502 130.060615 
L 252.490135 130.346488 
L 253.083612 130.978198 
L 253.341913 131.273579 
L 254.016722 132.045217 
L 254.153809 132.200669 
L 254.949833 133.112154 
L 254.964343 133.127759 
L 255.882943 134.003894 
L 255.938267 134.054849 
L 256.816054 134.852298 
L 256.956655 134.98194 
L 257.749164 135.709467 
L 257.955774 135.90903 
L 258.682274 136.648576 
L 258.862412 136.83612 
L 259.615385 137.653358 
L 259.719585 137.763211 
L 260.548495 138.665322 
L 260.571447 138.690301 
L 261.423885 139.617391 
L 261.481605 139.679137 
L 262.311141 140.544482 
L 262.414716 140.651488 
L 263.210918 141.471572 
L 263.347826 141.646317 
L 263.846464 142.398662 
L 264.280936 143.160017 
L 264.375776 143.325753 
L 264.891924 144.252843 
L 265.214047 144.83147 
L 265.40566 145.179933 
L 265.85833 146.107023 
L 266.147157 146.714149 
L 266.299376 147.034114 
L 266.740429 147.961204 
L 267.080268 148.676697 
L 267.179198 148.888294 
L 267.602355 149.815385 
L 268.013378 150.71591 
L 268.025503 150.742475 
L 268.444892 151.669565 
L 268.820149 152.596656 
L 268.946488 152.976856 
L 269.123867 153.523746 
L 269.493677 154.450836 
L 269.867492 155.377926 
L 269.879599 155.400405 
L 270.369809 156.305017 
L 270.812709 157.087771 
L 270.894376 157.232107 
L 271.415069 158.159197 
L 271.745819 158.762714 
L 271.924329 159.086288 
L 272.429542 160.013378 
L 272.67893 160.541759 
L 272.859679 160.940468 
L 273.13937 161.867559 
L 273.385971 162.794649 
L 273.61204 163.70981 
L 273.614987 163.721739 
L 273.844034 164.648829 
L 274.072787 165.57592 
L 274.276909 166.50301 
L 274.464638 167.4301 
L 274.545151 167.83174 
L 274.650477 168.357191 
L 274.853159 169.284281 
L 275.062097 170.211371 
L 275.271053 171.138462 
L 275.478261 172.057862 
L 275.479994 172.065552 
L 275.688951 172.992642 
L 275.8979 173.919732 
L 276.106849 174.846823 
L 276.315801 175.773913 
L 276.411371 176.197954 
L 276.524757 176.701003 
L 276.536972 177.628094 
L 276.44428 178.555184 
L 276.411371 178.826738 
L 276.331928 179.482274 
L 276.219565 180.409365 
L 276.107223 181.336455 
L 275.994877 182.263545 
L 275.851356 183.190635 
L 275.732881 184.117726 
L 275.703572 185.044816 
L 275.67422 185.971906 
L 275.627689 186.898997 
L 275.576258 187.826087 
L 275.521871 188.753177 
L 275.478261 189.166796 
L 275.422741 189.680268 
L 275.282339 190.607358 
L 274.979833 191.534448 
L 274.545151 192.324884 
L 274.470095 192.461538 
L 273.968458 193.388629 
L 273.61204 194.047335 
L 273.466817 194.315719 
L 272.965163 195.242809 
L 272.67893 195.771803 
L 272.463525 196.1699 
L 271.968829 197.09699 
L 271.745819 197.565305 
L 271.527649 198.02408 
L 271.086745 198.951171 
L 270.812709 199.527377 
L 270.64334 199.878261 
L 270.229493 200.805351 
L 269.884812 201.732441 
L 269.879599 201.745667 
L 269.509992 202.659532 
L 269.099078 203.586622 
L 268.946488 203.982757 
L 268.746644 204.513712 
L 268.397702 205.440803 
L 268.048755 206.367893 
L 268.013378 206.461891 
L 267.699826 207.294983 
L 267.350869 208.222074 
L 267.080268 208.934537 
L 266.998428 209.149164 
L 266.608286 210.076254 
L 266.217104 211.003344 
L 266.147157 211.169425 
L 265.830544 211.930435 
L 265.442421 212.857525 
L 265.214047 213.339722 
L 264.967617 213.784615 
L 264.280936 214.657125 
L 264.23777 214.711706 
L 263.508454 215.638796 
L 263.347826 215.842715 
L 262.778672 216.565886 
L 262.414716 217.028318 
L 262.054736 217.492977 
L 261.481605 218.268844 
L 261.368219 218.420067 
L 260.630715 219.347157 
L 260.548495 219.450208 
L 259.886074 220.274247 
L 259.615385 220.614193 
L 259.142476 221.201338 
L 258.682274 221.781039 
L 258.403284 222.128428 
L 257.749164 222.947351 
L 257.66026 223.055518 
L 256.856187 223.982609 
L 256.816054 224.029075 
L 256.055893 224.909699 
L 255.882943 225.114891 
L 255.269734 225.836789 
L 254.949833 226.193239 
L 254.423682 226.76388 
L 254.016722 227.205254 
L 253.568842 227.69097 
L 253.083612 228.182911 
L 252.633701 228.61806 
L 252.150502 229.065301 
L 251.631463 229.545151 
L 251.217391 229.915403 
L 250.517095 230.472241 
L 250.284281 230.648287 
L 249.351171 231.353904 
L 249.291096 231.399331 
L 248.41806 232.059527 
L 248.065695 232.326421 
L 247.48495 232.794903 
L 246.918815 233.253512 
L 246.551839 233.547385 
L 245.750285 234.180602 
L 245.618729 234.283919 
L 244.685619 235.016737 
L 244.569802 235.107692 
L 243.752508 235.749546 
L 243.389309 236.034783 
L 242.819398 236.482359 
L 242.208817 236.961873 
L 241.886288 237.215174 
L 241.028341 237.888963 
L 240.953177 237.947992 
L 240.020067 238.680827 
L 239.84788 238.816054 
L 239.086957 239.413642 
L 238.663235 239.743144 
L 238.153846 240.070936 
L 237.220736 240.398999 
L 236.375255 240.670234 
L 236.287625 240.698704 
L 235.354515 241.001702 
L 234.421405 241.287681 
L 233.488294 241.566567 
L 233.385388 241.597324 
L 232.555184 241.845459 
L 231.622074 242.124349 
L 230.688963 242.403239 
L 230.283528 242.524415 
L 229.755853 242.682127 
L 228.822742 242.961028 
L 227.889632 243.239897 
L 227.181637 243.451505 
L 226.956522 243.518789 
L 226.023411 243.797686 
L 225.090301 244.076566 
L 224.157191 244.355473 
L 224.079878 244.378595 
L 223.22408 244.647337 
L 222.29097 244.87807 
L 221.35786 244.94991 
L 220.424749 245.020927 
L 219.491639 245.091107 
L 218.558528 245.14965 
L 217.625418 245.187178 
L 216.692308 245.219656 
L 215.759197 245.256817 
L 214.826087 245.294817 
L 214.559307 245.305686 
L 213.892977 245.332832 
L 212.959866 245.370853 
L 212.026756 245.408771 
L 211.093645 245.446215 
L 210.160535 245.483657 
L 209.227425 245.502544 
L 208.294314 245.497444 
L 207.361204 245.433053 
L 206.428094 245.326815 
z
" clip-path="url(#p70d7743787)" style="fill: none; stroke: #000000; stroke-width: 1.5"/>
   </g>
   <g id="patch_3">
    <path d="M 45 320.4 
L 45 43.2 
" style="fill: none; stroke: #000000; stroke-width: 0.8; stroke-linejoin: miter; stroke-linecap: square"/>
   </g>
   <g id="patch_4">
    <path d="M 324 320.4 
L 324 43.2 
" style="fill: none; stroke: #000000; stroke-width: 0.8; stroke-linejoin: miter; stroke-linecap: square"/>
   </g>
   <g id="patch_5">
    <path d="M 45 320.4 
L 324 320.4 
" style="fill: none; stroke: #000000; stroke-width: 0.8; stroke-linejoin: miter; stroke-linecap: square"/>
   </g>
   <g id="patch_6">
    <path d="M 45 43.2 
L 324 43.2 
" style="fill: none; stroke: #000000; stroke-width: 0.8; stroke-linejoin: miter; stroke-linecap: square"/>
   </g>
  </g>
 </g>
 <defs>
  <clipPath id="p70d7743787">
   <rect x="45" y="43.2" width="279" height="277.2"/>
  </clipPath>
 </defs>
</svg>
