<?xml version="1.0" encoding="utf-8" standalone="no"?>
<!DOCTYPE svg PUBLIC "-//W3C//DTD SVG 1.1//EN"
  "http://www.w3.org/Graphics/SVG/1.1/DTD/svg11.dtd">
<svg xmlns:xlink="http://www.w3.org/1999/xlink" width="360pt" height="360pt" viewBox="0 0 360 360" xmlns="http://www.w3.org/2000/svg" version="1.1">
 <metadata>
  <rdf:RDF xmlns:dc="http://purl.org/dc/elements/1.1/" xmlns:cc="http://creativecommons.org/ns#" xmlns:rdf="http://www.w3.org/1999/02/22-rdf-syntax-ns#">
   <cc:Work>
    <dc:type rdf:resource="http://purl.org/dc/dcmitype/StillImage"/>
    <dc:date>2022-04-10T19:53:25.756697</dc:date>
    <dc:format>image/svg+xml</dc:format>
    <dc:creator>
     <cc:Agent>
      <dc:title>Matplotlib v3.5.1, https://matplotlib.org/</dc:title>
     </cc:Agent>
    </dc:creator>
   </cc:Work>
  </rdf:RDF>
 </metadata>
 <defs>
  <style type="text/css">*{stroke-linejoin: round; stroke-linecap: butt}</style>
 </defs>
 <g id="figure_1">
  <g id="patch_1">
   <path d="M 0 360 
L 360 360 
L 360 0 
L 0 0 
z
" style="fill: #ffffff"/>
  </g>
  <g id="axes_1">
   <g id="patch_2">
    <path d="M 45 320.4 
L 324 320.4 
L 324 43.2 
L 45 43.2 
z
" style="fill: #ffffff"/>
   </g>
   <g id="PathCollection_1">
    <defs>
     <path id="m079c5e4322" d="M 0 0.5 
C 0.132602 0.5 0.25979 0.447317 0.353553 0.353553 
C 0.447317 0.25979 0.5 0.132602 0.5 0 
C 0.5 -0.132602 0.447317 -0.25979 0.353553 -0.353553 
C 0.25979 -0.447317 0.132602 -0.5 0 -0.5 
C -0.132602 -0.5 -0.25979 -0.447317 -0.353553 -0.353553 
C -0.447317 -0.25979 -0.5 -0.132602 -0.5 0 
C -0.5 0.132602 -0.447317 0.25979 -0.353553 0.353553 
C -0.25979 0.447317 -0.132602 0.5 0 0.5 
z
" style="stroke: #ff0000"/>
    </defs>
    <g clip-path="url(#p49f0359ba4)">
     <use xlink:href="#m079c5e4322" x="227.705444" y="181.336455" style="fill: #ff0000; stroke: #ff0000"/>
     <use xlink:href="#m079c5e4322" x="230.142502" y="176.915718" style="fill: #ff0000; stroke: #ff0000"/>
     <use xlink:href="#m079c5e4322" x="232.554954" y="171.931604" style="fill: #ff0000; stroke: #ff0000"/>
     <use xlink:href="#m079c5e4322" x="234.520254" y="166.401485" style="fill: #ff0000; stroke: #ff0000"/>
     <use xlink:href="#m079c5e4322" x="235.651787" y="160.477393" style="fill: #ff0000; stroke: #ff0000"/>
     <use xlink:href="#m079c5e4322" x="235.681857" y="154.403451" style="fill: #ff0000; stroke: #ff0000"/>
     <use xlink:href="#m079c5e4322" x="234.494719" y="148.456301" style="fill: #ff0000; stroke: #ff0000"/>
     <use xlink:href="#m079c5e4322" x="232.112229" y="142.894622" style="fill: #ff0000; stroke: #ff0000"/>
     <use xlink:href="#m079c5e4322" x="228.651912" y="137.932939" style="fill: #ff0000; stroke: #ff0000"/>
     <use xlink:href="#m079c5e4322" x="224.282852" y="133.738486" style="fill: #ff0000; stroke: #ff0000"/>
     <use xlink:href="#m079c5e4322" x="219.197524" y="130.436708" style="fill: #ff0000; stroke: #ff0000"/>
     <use xlink:href="#m079c5e4322" x="213.601918" y="128.109092" style="fill: #ff0000; stroke: #ff0000"/>
     <use xlink:href="#m079c5e4322" x="207.712705" y="126.776675" style="fill: #ff0000; stroke: #ff0000"/>
     <use xlink:href="#m079c5e4322" x="201.747035" y="126.375517" style="fill: #ff0000; stroke: #ff0000"/>
     <use xlink:href="#m079c5e4322" x="195.897205" y="126.738895" style="fill: #ff0000; stroke: #ff0000"/>
     <use xlink:href="#m079c5e4322" x="190.293155" y="127.603495" style="fill: #ff0000; stroke: #ff0000"/>
     <use xlink:href="#m079c5e4322" x="184.966555" y="128.654074" style="fill: #ff0000; stroke: #ff0000"/>
     <use xlink:href="#m079c5e4322" x="179.838801" y="129.609382" style="fill: #ff0000; stroke: #ff0000"/>
     <use xlink:href="#m079c5e4322" x="174.75453" y="130.328359" style="fill: #ff0000; stroke: #ff0000"/>
     <use xlink:href="#m079c5e4322" x="169.56424" y="130.889406" style="fill: #ff0000; stroke: #ff0000"/>
     <use xlink:href="#m079c5e4322" x="164.22666" y="131.588954" style="fill: #ff0000; stroke: #ff0000"/>
     <use xlink:href="#m079c5e4322" x="158.874579" y="132.836733" style="fill: #ff0000; stroke: #ff0000"/>
     <use xlink:href="#m079c5e4322" x="153.793962" y="134.98436" style="fill: #ff0000; stroke: #ff0000"/>
     <use xlink:href="#m079c5e4322" x="149.312697" y="138.172389" style="fill: #ff0000; stroke: #ff0000"/>
     <use xlink:href="#m079c5e4322" x="145.655205" y="142.278726" style="fill: #ff0000; stroke: #ff0000"/>
     <use xlink:href="#m079c5e4322" x="142.847109" y="146.992929" style="fill: #ff0000; stroke: #ff0000"/>
     <use xlink:href="#m079c5e4322" x="140.724345" y="151.965476" style="fill: #ff0000; stroke: #ff0000"/>
     <use xlink:href="#m079c5e4322" x="139.032915" y="156.942813" style="fill: #ff0000; stroke: #ff0000"/>
     <use xlink:href="#m079c5e4322" x="137.550662" y="161.822861" style="fill: #ff0000; stroke: #ff0000"/>
     <use xlink:href="#m079c5e4322" x="136.162175" y="166.627322" style="fill: #ff0000; stroke: #ff0000"/>
     <use xlink:href="#m079c5e4322" x="134.86677" y="171.435281" style="fill: #ff0000; stroke: #ff0000"/>
     <use xlink:href="#m079c5e4322" x="133.750283" y="176.324637" style="fill: #ff0000; stroke: #ff0000"/>
     <use xlink:href="#m079c5e4322" x="132.95968" y="181.336455" style="fill: #ff0000; stroke: #ff0000"/>
     <use xlink:href="#m079c5e4322" x="132.686771" y="186.452344" style="fill: #ff0000; stroke: #ff0000"/>
     <use xlink:href="#m079c5e4322" x="133.136964" y="191.579488" style="fill: #ff0000; stroke: #ff0000"/>
     <use xlink:href="#m079c5e4322" x="134.468087" y="196.556168" style="fill: #ff0000; stroke: #ff0000"/>
     <use xlink:href="#m079c5e4322" x="136.72232" y="201.190946" style="fill: #ff0000; stroke: #ff0000"/>
     <use xlink:href="#m079c5e4322" x="139.796435" y="205.32462" style="fill: #ff0000; stroke: #ff0000"/>
     <use xlink:href="#m079c5e4322" x="143.474767" y="208.881518" style="fill: #ff0000; stroke: #ff0000"/>
     <use xlink:href="#m079c5e4322" x="147.505095" y="211.881933" style="fill: #ff0000; stroke: #ff0000"/>
     <use xlink:href="#m079c5e4322" x="151.67217" y="214.416038" style="fill: #ff0000; stroke: #ff0000"/>
     <use xlink:href="#m079c5e4322" x="155.83635" y="216.602711" style="fill: #ff0000; stroke: #ff0000"/>
     <use xlink:href="#m079c5e4322" x="159.936357" y="218.555114" style="fill: #ff0000; stroke: #ff0000"/>
     <use xlink:href="#m079c5e4322" x="163.973999" y="220.357383" style="fill: #ff0000; stroke: #ff0000"/>
     <use xlink:href="#m079c5e4322" x="167.994405" y="222.0465" style="fill: #ff0000; stroke: #ff0000"/>
     <use xlink:href="#m079c5e4322" x="172.063085" y="223.599062" style="fill: #ff0000; stroke: #ff0000"/>
     <use xlink:href="#m079c5e4322" x="176.238548" y="224.932022" style="fill: #ff0000; stroke: #ff0000"/>
     <use xlink:href="#m079c5e4322" x="180.546548" y="225.924012" style="fill: #ff0000; stroke: #ff0000"/>
     <use xlink:href="#m079c5e4322" x="184.966555" y="226.45084" style="fill: #ff0000; stroke: #ff0000"/>
     <use xlink:href="#m079c5e4322" x="189.435669" y="226.419381" style="fill: #ff0000; stroke: #ff0000"/>
     <use xlink:href="#m079c5e4322" x="193.865813" y="225.787405" style="fill: #ff0000; stroke: #ff0000"/>
     <use xlink:href="#m079c5e4322" x="198.165375" y="224.566418" style="fill: #ff0000; stroke: #ff0000"/>
     <use xlink:href="#m079c5e4322" x="202.257043" y="222.810076" style="fill: #ff0000; stroke: #ff0000"/>
     <use xlink:href="#m079c5e4322" x="206.085219" y="220.591791" style="fill: #ff0000; stroke: #ff0000"/>
     <use xlink:href="#m079c5e4322" x="209.609038" y="217.978601" style="fill: #ff0000; stroke: #ff0000"/>
     <use xlink:href="#m079c5e4322" x="212.784712" y="215.01429" style="fill: #ff0000; stroke: #ff0000"/>
     <use xlink:href="#m079c5e4322" x="215.551683" y="211.72426" style="fill: #ff0000; stroke: #ff0000"/>
     <use xlink:href="#m079c5e4322" x="217.840858" y="208.141638" style="fill: #ff0000; stroke: #ff0000"/>
     <use xlink:href="#m079c5e4322" x="219.612196" y="204.336581" style="fill: #ff0000; stroke: #ff0000"/>
     <use xlink:href="#m079c5e4322" x="220.907328" y="200.423258" style="fill: #ff0000; stroke: #ff0000"/>
     <use xlink:href="#m079c5e4322" x="221.885191" y="196.529995" style="fill: #ff0000; stroke: #ff0000"/>
     <use xlink:href="#m079c5e4322" x="222.808691" y="192.741681" style="fill: #ff0000; stroke: #ff0000"/>
     <use xlink:href="#m079c5e4322" x="223.971912" y="189.045047" style="fill: #ff0000; stroke: #ff0000"/>
     <use xlink:href="#m079c5e4322" x="225.590759" y="185.311776" style="fill: #ff0000; stroke: #ff0000"/>
    </g>
   </g>
   <g id="matplotlib.axis_1">
    <g id="xtick_1">
     <g id="line2d_1">
      <defs>
       <path id="m236aad833a" d="M 0 0 
L 0 3.5 
" style="stroke: #000000; stroke-width: 0.8"/>
      </defs>
      <g>
       <use xlink:href="#m236aad833a" x="45" y="320.4" style="stroke: #000000; stroke-width: 0.8"/>
      </g>
     </g>
     <g id="text_1">
      <!-- −3 -->
      <g transform="translate(37.628906 334.998438)scale(0.1 -0.1)">
       <defs>
        <path id="DejaVuSans-2212" d="M 678 2272 
L 4684 2272 
L 4684 1741 
L 678 1741 
L 678 2272 
z
" transform="scale(0.015625)"/>
        <path id="DejaVuSans-33" d="M 2597 2516 
Q 3050 2419 3304 2112 
Q 3559 1806 3559 1356 
Q 3559 666 3084 287 
Q 2609 -91 1734 -91 
Q 1441 -91 1130 -33 
Q 819 25 488 141 
L 488 750 
Q 750 597 1062 519 
Q 1375 441 1716 441 
Q 2309 441 2620 675 
Q 2931 909 2931 1356 
Q 2931 1769 2642 2001 
Q 2353 2234 1838 2234 
L 1294 2234 
L 1294 2753 
L 1863 2753 
Q 2328 2753 2575 2939 
Q 2822 3125 2822 3475 
Q 2822 3834 2567 4026 
Q 2313 4219 1838 4219 
Q 1578 4219 1281 4162 
Q 984 4106 628 3988 
L 628 4550 
Q 988 4650 1302 4700 
Q 1616 4750 1894 4750 
Q 2613 4750 3031 4423 
Q 3450 4097 3450 3541 
Q 3450 3153 3228 2886 
Q 3006 2619 2597 2516 
z
" transform="scale(0.015625)"/>
       </defs>
       <use xlink:href="#DejaVuSans-2212"/>
       <use xlink:href="#DejaVuSans-33" x="83.789062"/>
      </g>
     </g>
    </g>
    <g id="xtick_2">
     <g id="line2d_2">
      <g>
       <use xlink:href="#m236aad833a" x="91.655518" y="320.4" style="stroke: #000000; stroke-width: 0.8"/>
      </g>
     </g>
     <g id="text_2">
      <!-- −2 -->
      <g transform="translate(84.284425 334.998438)scale(0.1 -0.1)">
       <defs>
        <path id="DejaVuSans-32" d="M 1228 531 
L 3431 531 
L 3431 0 
L 469 0 
L 469 531 
Q 828 903 1448 1529 
Q 2069 2156 2228 2338 
Q 2531 2678 2651 2914 
Q 2772 3150 2772 3378 
Q 2772 3750 2511 3984 
Q 2250 4219 1831 4219 
Q 1534 4219 1204 4116 
Q 875 4013 500 3803 
L 500 4441 
Q 881 4594 1212 4672 
Q 1544 4750 1819 4750 
Q 2544 4750 2975 4387 
Q 3406 4025 3406 3419 
Q 3406 3131 3298 2873 
Q 3191 2616 2906 2266 
Q 2828 2175 2409 1742 
Q 1991 1309 1228 531 
z
" transform="scale(0.015625)"/>
       </defs>
       <use xlink:href="#DejaVuSans-2212"/>
       <use xlink:href="#DejaVuSans-32" x="83.789062"/>
      </g>
     </g>
    </g>
    <g id="xtick_3">
     <g id="line2d_3">
      <g>
       <use xlink:href="#m236aad833a" x="138.311037" y="320.4" style="stroke: #000000; stroke-width: 0.8"/>
      </g>
     </g>
     <g id="text_3">
      <!-- −1 -->
      <g transform="translate(130.939943 334.998438)scale(0.1 -0.1)">
       <defs>
        <path id="DejaVuSans-31" d="M 794 531 
L 1825 531 
L 1825 4091 
L 703 3866 
L 703 4441 
L 1819 4666 
L 2450 4666 
L 2450 531 
L 3481 531 
L 3481 0 
L 794 0 
L 794 531 
z
" transform="scale(0.015625)"/>
       </defs>
       <use xlink:href="#DejaVuSans-2212"/>
       <use xlink:href="#DejaVuSans-31" x="83.789062"/>
      </g>
     </g>
    </g>
    <g id="xtick_4">
     <g id="line2d_4">
      <g>
       <use xlink:href="#m236aad833a" x="184.966555" y="320.4" style="stroke: #000000; stroke-width: 0.8"/>
      </g>
     </g>
     <g id="text_4">
      <!-- 0 -->
      <g transform="translate(181.785305 334.998438)scale(0.1 -0.1)">
       <defs>
        <path id="DejaVuSans-30" d="M 2034 4250 
Q 1547 4250 1301 3770 
Q 1056 3291 1056 2328 
Q 1056 1369 1301 889 
Q 1547 409 2034 409 
Q 2525 409 2770 889 
Q 3016 1369 3016 2328 
Q 3016 3291 2770 3770 
Q 2525 4250 2034 4250 
z
M 2034 4750 
Q 2819 4750 3233 4129 
Q 3647 3509 3647 2328 
Q 3647 1150 3233 529 
Q 2819 -91 2034 -91 
Q 1250 -91 836 529 
Q 422 1150 422 2328 
Q 422 3509 836 4129 
Q 1250 4750 2034 4750 
z
" transform="scale(0.015625)"/>
       </defs>
       <use xlink:href="#DejaVuSans-30"/>
      </g>
     </g>
    </g>
    <g id="xtick_5">
     <g id="line2d_5">
      <g>
       <use xlink:href="#m236aad833a" x="231.622074" y="320.4" style="stroke: #000000; stroke-width: 0.8"/>
      </g>
     </g>
     <g id="text_5">
      <!-- 1 -->
      <g transform="translate(228.440824 334.998438)scale(0.1 -0.1)">
       <use xlink:href="#DejaVuSans-31"/>
      </g>
     </g>
    </g>
    <g id="xtick_6">
     <g id="line2d_6">
      <g>
       <use xlink:href="#m236aad833a" x="278.277592" y="320.4" style="stroke: #000000; stroke-width: 0.8"/>
      </g>
     </g>
     <g id="text_6">
      <!-- 2 -->
      <g transform="translate(275.096342 334.998438)scale(0.1 -0.1)">
       <use xlink:href="#DejaVuSans-32"/>
      </g>
     </g>
    </g>
   </g>
   <g id="matplotlib.axis_2">
    <g id="ytick_1">
     <g id="line2d_7">
      <defs>
       <path id="m9d06548c3d" d="M 0 0 
L -3.5 0 
" style="stroke: #000000; stroke-width: 0.8"/>
      </defs>
      <g>
       <use xlink:href="#m9d06548c3d" x="45" y="320.4" style="stroke: #000000; stroke-width: 0.8"/>
      </g>
     </g>
     <g id="text_7">
      <!-- −3 -->
      <g transform="translate(23.257812 324.199219)scale(0.1 -0.1)">
       <use xlink:href="#DejaVuSans-2212"/>
       <use xlink:href="#DejaVuSans-33" x="83.789062"/>
      </g>
     </g>
    </g>
    <g id="ytick_2">
     <g id="line2d_8">
      <g>
       <use xlink:href="#m9d06548c3d" x="45" y="274.045485" style="stroke: #000000; stroke-width: 0.8"/>
      </g>
     </g>
     <g id="text_8">
      <!-- −2 -->
      <g transform="translate(23.257812 277.844704)scale(0.1 -0.1)">
       <use xlink:href="#DejaVuSans-2212"/>
       <use xlink:href="#DejaVuSans-32" x="83.789062"/>
      </g>
     </g>
    </g>
    <g id="ytick_3">
     <g id="line2d_9">
      <g>
       <use xlink:href="#m9d06548c3d" x="45" y="227.69097" style="stroke: #000000; stroke-width: 0.8"/>
      </g>
     </g>
     <g id="text_9">
      <!-- −1 -->
      <g transform="translate(23.257812 231.490189)scale(0.1 -0.1)">
       <use xlink:href="#DejaVuSans-2212"/>
       <use xlink:href="#DejaVuSans-31" x="83.789062"/>
      </g>
     </g>
    </g>
    <g id="ytick_4">
     <g id="line2d_10">
      <g>
       <use xlink:href="#m9d06548c3d" x="45" y="181.336455" style="stroke: #000000; stroke-width: 0.8"/>
      </g>
     </g>
     <g id="text_10">
      <!-- 0 -->
      <g transform="translate(31.6375 185.135674)scale(0.1 -0.1)">
       <use xlink:href="#DejaVuSans-30"/>
      </g>
     </g>
    </g>
    <g id="ytick_5">
     <g id="line2d_11">
      <g>
       <use xlink:href="#m9d06548c3d" x="45" y="134.98194" style="stroke: #000000; stroke-width: 0.8"/>
      </g>
     </g>
     <g id="text_11">
      <!-- 1 -->
      <g transform="translate(31.6375 138.781159)scale(0.1 -0.1)">
       <use xlink:href="#DejaVuSans-31"/>
      </g>
     </g>
    </g>
    <g id="ytick_6">
     <g id="line2d_12">
      <g>
       <use xlink:href="#m9d06548c3d" x="45" y="88.627425" style="stroke: #000000; stroke-width: 0.8"/>
      </g>
     </g>
     <g id="text_12">
      <!-- 2 -->
      <g transform="translate(31.6375 92.426643)scale(0.1 -0.1)">
       <use xlink:href="#DejaVuSans-32"/>
      </g>
     </g>
    </g>
   </g>
   <g id="PathCollection_2">
    <path d="M 179.367893 201.880344 
L 177.501672 201.432493 
L 176.15177 200.805351 
L 171.90301 198.422389 
L 164.748076 195.242809 
L 162.571906 193.971319 
L 161.638796 193.065497 
L 160.320162 191.534448 
L 158.351396 185.971906 
L 158.164276 184.117726 
L 158.426756 182.263545 
L 159.878497 174.846823 
L 159.772575 170.714073 
L 160.177004 169.284281 
L 160.342954 167.4301 
L 160.789645 165.57592 
L 162.198775 161.867559 
L 162.720065 160.940468 
L 163.512041 160.013378 
L 165.612414 158.159197 
L 166.304348 157.60605 
L 168.170569 156.80909 
L 177.501672 153.581875 
L 179.367893 153.206747 
L 184.966555 152.35271 
L 188.698997 152.208643 
L 191.498328 152.066857 
L 192.431438 151.919365 
L 193.364548 151.483932 
L 195.956282 149.815385 
L 196.16388 149.70877 
L 198.0301 149.209801 
L 198.963211 149.048658 
L 201.762542 149.164573 
L 204.141232 149.815385 
L 207.361204 150.830768 
L 209.227425 153.117375 
L 210.617805 155.377926 
L 210.77988 157.232107 
L 211.441213 160.940468 
L 211.553448 161.867559 
L 211.483605 162.794649 
L 210.381175 167.4301 
L 209.877245 169.284281 
L 208.294314 174.124282 
L 207.361204 175.245684 
L 203.628763 178.928618 
L 201.926173 181.336455 
L 200.829431 183.447739 
L 200.526496 185.044816 
L 200.024877 186.898997 
L 198.385663 192.461538 
L 197.852507 194.315719 
L 197.09699 195.757151 
L 196.787938 196.1699 
L 195.230769 197.593371 
L 191.145533 200.805351 
L 189.632107 201.27778 
L 188.344135 201.732441 
L 187.765886 201.86615 
L 185.899666 201.911599 
L 182.167224 202.568835 
L 179.367893 201.880344 
L 179.367893 201.880344 
" clip-path="url(#p49f0359ba4)" style="fill: none; stroke-dasharray: 5.55,2.4; stroke-dashoffset: 0; stroke: #000000; stroke-width: 1.5"/>
   </g>
   <g id="PathCollection_3">
    <path d="M 180.301003 225.893656 
L 179.933702 225.836789 
L 179.367893 225.663285 
L 178.434783 225.407979 
L 177.501672 225.093752 
L 177.022879 224.909699 
L 176.568562 224.726964 
L 175.635452 224.418467 
L 174.702341 224.110533 
L 174.405606 223.982609 
L 173.769231 223.745849 
L 172.83612 223.467208 
L 171.90301 223.167712 
L 171.564651 223.055518 
L 170.9699 222.882894 
L 170.036789 222.703589 
L 169.103679 222.362992 
L 168.550651 222.128428 
L 168.170569 221.993378 
L 167.237458 221.786567 
L 166.304348 221.381904 
L 165.879518 221.201338 
L 165.371237 221.049685 
L 164.438127 220.583585 
L 163.919375 220.274247 
L 163.505017 220.042268 
L 162.571906 219.465587 
L 162.33336 219.347157 
L 161.638796 219.009049 
L 160.705686 218.529362 
L 160.519234 218.420067 
L 159.772575 217.985854 
L 158.938426 217.492977 
L 158.839465 217.444284 
L 157.906355 216.886153 
L 157.349629 216.565886 
L 156.973244 216.37933 
L 156.040134 215.82 
L 155.718235 215.638796 
L 155.107023 215.318037 
L 154.173913 214.734133 
L 154.138584 214.711706 
L 153.240803 214.127423 
L 152.740481 213.784615 
L 152.307692 213.56095 
L 151.374582 212.900245 
L 151.300765 212.857525 
L 150.441472 212.520699 
L 149.550878 211.930435 
L 149.508361 211.897899 
L 148.575251 211.572888 
L 147.64214 211.011805 
L 147.627625 211.003344 
L 146.70903 210.646724 
L 145.77592 210.131943 
L 145.664397 210.076254 
L 144.842809 209.690622 
L 144.107764 209.149164 
L 143.909699 208.973349 
L 142.976589 208.38904 
L 142.776161 208.222074 
L 142.043478 207.654608 
L 141.704895 207.294983 
L 141.110368 206.519648 
L 141.025014 206.367893 
L 140.307374 205.440803 
L 140.177258 205.311431 
L 139.544234 204.513712 
L 139.244147 204.175553 
L 138.690659 203.586622 
L 138.311037 203.195993 
L 137.774261 202.659532 
L 137.377926 202.27581 
L 136.854933 201.732441 
L 136.444816 200.911825 
L 136.439764 200.805351 
L 136.000375 199.878261 
L 135.65678 198.951171 
L 135.511706 198.656737 
L 135.406291 198.02408 
L 134.970318 197.09699 
L 134.740957 196.1699 
L 134.578595 195.748023 
L 134.555101 195.242809 
L 134.4663 194.315719 
L 134.175726 193.388629 
L 133.946458 192.461538 
L 133.790879 191.534448 
L 133.645485 190.949161 
L 133.638909 190.607358 
L 133.561924 189.680268 
L 133.201281 188.753177 
L 133.019584 187.826087 
L 132.849476 186.898997 
L 132.712375 186.308567 
L 132.707131 185.971906 
L 132.660634 185.044816 
L 132.562704 184.117726 
L 132.671276 183.190635 
L 132.699133 182.263545 
L 132.712375 181.414344 
L 132.726482 181.336455 
L 132.861359 180.409365 
L 132.96501 179.482274 
L 133.186571 178.555184 
L 133.572335 177.628094 
L 133.645485 176.82704 
L 133.693774 176.701003 
L 133.978604 175.773913 
L 134.517005 174.846823 
L 134.578595 174.360923 
L 134.803662 173.919732 
L 135.135381 172.992642 
L 135.466269 172.065552 
L 135.511706 171.144947 
L 135.513803 171.138462 
L 135.705682 170.211371 
L 135.771747 169.284281 
L 135.9342 168.357191 
L 136.068048 167.4301 
L 136.206475 166.50301 
L 136.444816 165.88053 
L 136.596331 165.57592 
L 136.765785 164.648829 
L 136.951474 163.721739 
L 137.272827 162.794649 
L 137.377926 161.970351 
L 137.421469 161.867559 
L 137.690418 160.940468 
L 137.909651 160.013378 
L 138.256167 159.086288 
L 138.311037 158.44176 
L 138.415197 158.159197 
L 138.635809 157.232107 
L 138.837645 156.305017 
L 139.124032 155.377926 
L 139.234812 154.450836 
L 139.244147 154.016725 
L 139.323886 153.523746 
L 139.714139 152.596656 
L 140.177258 151.75852 
L 140.244281 151.669565 
L 140.769683 150.742475 
L 141.110368 150.144292 
L 141.30858 149.815385 
L 141.699171 148.888294 
L 142.043478 148.116911 
L 142.132805 147.961204 
L 142.537793 147.034114 
L 142.976589 146.120519 
L 142.985573 146.107023 
L 143.449143 145.179933 
L 143.909699 144.570818 
L 144.173586 144.252843 
L 144.842809 143.441684 
L 144.945942 143.325753 
L 145.692359 142.398662 
L 145.77592 142.30015 
L 146.638764 141.471572 
L 146.70903 141.411777 
L 147.64214 140.748136 
L 147.930578 140.544482 
L 148.575251 140.079082 
L 149.220171 139.617391 
L 149.508361 139.394901 
L 150.441472 138.729434 
L 150.489859 138.690301 
L 151.374582 138.013532 
L 151.704696 137.763211 
L 152.307692 137.304632 
L 152.962817 136.83612 
L 153.240803 136.634804 
L 154.173913 136.019384 
L 154.337386 135.90903 
L 155.107023 135.446141 
L 156.008899 134.98194 
L 156.040134 134.963147 
L 156.973244 134.522709 
L 157.906355 134.059908 
L 157.914324 134.054849 
L 158.839465 133.578611 
L 159.646535 133.127759 
L 159.772575 133.048449 
L 160.705686 132.671757 
L 161.638796 132.651718 
L 162.571906 132.650739 
L 163.505017 132.643136 
L 164.438127 132.596297 
L 165.371237 132.527783 
L 166.304348 132.377385 
L 166.909546 132.200669 
L 167.237458 132.105818 
L 168.170569 131.861036 
L 169.103679 131.600188 
L 170.036789 131.357459 
L 170.272029 131.273579 
L 170.9699 131.066602 
L 171.90301 130.83015 
L 172.83612 130.625631 
L 173.769231 130.440021 
L 174.109715 130.346488 
L 174.702341 130.210899 
L 175.635452 130.023074 
L 176.568562 129.809928 
L 177.501672 129.52243 
L 177.770091 129.419398 
L 178.434783 129.214923 
L 179.367893 129.002619 
L 180.301003 128.822363 
L 181.234114 128.710612 
L 182.167224 128.572888 
L 182.55843 128.492308 
L 183.100334 128.410586 
L 184.033445 128.274662 
L 184.966555 128.179156 
L 185.899666 128.068514 
L 186.832776 127.870072 
L 187.765886 127.70326 
L 188.367221 127.565217 
L 188.698997 127.496955 
L 189.632107 127.314086 
L 190.565217 127.125263 
L 191.498328 127.004585 
L 192.431438 126.890389 
L 193.364548 126.742276 
L 194.297659 126.678717 
L 194.766432 126.638127 
L 195.230769 126.617594 
L 196.16388 126.571373 
L 197.09699 126.50715 
L 198.0301 126.48456 
L 198.963211 126.586017 
L 199.896321 126.563062 
L 200.829431 126.431453 
L 201.762542 126.326083 
L 202.695652 126.218211 
L 203.628763 126.106287 
L 204.561873 126.000557 
L 205.494983 125.97765 
L 206.428094 125.958 
L 207.361204 126.015862 
L 208.294314 126.27944 
L 209.227425 126.577632 
L 209.444084 126.638127 
L 210.160535 126.885956 
L 211.093645 127.142039 
L 212.026756 127.399467 
L 212.625136 127.565217 
L 212.959866 127.687943 
L 213.892977 127.912578 
L 214.826087 128.163943 
L 215.759197 128.457257 
L 215.881657 128.492308 
L 216.692308 128.827876 
L 217.625418 129.216845 
L 218.120894 129.419398 
L 218.558528 129.619464 
L 219.491639 129.982768 
L 220.424749 130.346126 
L 220.428257 130.346488 
L 221.35786 130.910048 
L 221.956253 131.273579 
L 222.29097 131.49401 
L 223.22408 132.041712 
L 223.485684 132.200669 
L 224.157191 132.608885 
L 225.090301 133.11963 
L 225.113024 133.127759 
L 226.001558 134.054849 
L 226.023411 134.076337 
L 226.82017 134.98194 
L 226.956522 135.129485 
L 227.64655 135.90903 
L 227.889632 136.183646 
L 228.467188 136.83612 
L 228.822742 137.237801 
L 229.287819 137.763211 
L 229.755853 138.291969 
L 230.108442 138.690301 
L 230.688963 139.372004 
L 230.8747 139.617391 
L 231.574197 140.544482 
L 231.622074 140.604559 
L 232.061103 141.471572 
L 232.384453 142.398662 
L 232.555184 142.64145 
L 232.913316 143.325753 
L 233.366698 144.252843 
L 233.488294 144.413562 
L 233.897685 145.179933 
L 234.404539 146.107023 
L 234.421405 146.126609 
L 234.874564 147.034114 
L 235.235175 147.961204 
L 235.354515 148.184538 
L 235.601905 148.888294 
L 235.737716 149.815385 
L 235.829872 150.742475 
L 235.92722 151.669565 
L 236.007311 152.596656 
L 236.106777 153.523746 
L 236.224209 154.450836 
L 236.287625 154.943589 
L 236.302724 155.377926 
L 236.326334 156.305017 
L 236.355725 157.232107 
L 236.377931 158.159197 
L 236.379931 159.086288 
L 236.361335 160.013378 
L 236.287625 160.631987 
L 236.205013 160.940468 
L 235.905109 161.867559 
L 235.535089 162.794649 
L 235.354515 163.358602 
L 235.20674 163.721739 
L 234.881149 164.648829 
L 234.532835 165.57592 
L 234.421405 165.855947 
L 234.163495 166.50301 
L 233.82187 167.4301 
L 233.488294 168.305923 
L 233.459336 168.357191 
L 233.11545 169.284281 
L 232.759564 170.211371 
L 232.555184 170.741235 
L 232.371795 171.138462 
L 232.052647 172.065552 
L 231.827473 172.992642 
L 231.622074 173.868958 
L 231.603708 173.919732 
L 231.375699 174.846823 
L 231.178598 175.773913 
L 230.964912 176.701003 
L 230.755607 177.628094 
L 230.688963 177.880859 
L 230.502145 178.555184 
L 230.270648 179.482274 
L 229.755853 180.292498 
L 229.665528 180.409365 
L 229.092168 181.336455 
L 228.822742 181.761619 
L 228.503634 182.263545 
L 227.951106 183.190635 
L 227.889632 183.284941 
L 227.411956 184.117726 
L 226.956522 184.98237 
L 226.914147 185.044816 
L 226.533149 185.971906 
L 226.209561 186.898997 
L 226.023411 187.361422 
L 225.841024 187.826087 
L 225.500286 188.753177 
L 225.090301 189.635109 
L 225.064267 189.680268 
L 224.528375 190.607358 
L 224.157191 191.343083 
L 224.055761 191.534448 
L 223.641393 192.461538 
L 223.22408 193.305249 
L 223.176698 193.388629 
L 222.761903 194.315719 
L 222.306131 195.242809 
L 222.29097 195.269582 
L 221.882472 196.1699 
L 221.43902 197.09699 
L 221.35786 197.24175 
L 221.029461 198.02408 
L 220.775625 198.951171 
L 220.476761 199.878261 
L 220.424749 200.005878 
L 220.177924 200.805351 
L 219.898118 201.732441 
L 219.604737 202.659532 
L 219.491639 202.943135 
L 219.26885 203.586622 
L 218.956949 204.513712 
L 218.558528 205.249478 
L 218.437606 205.440803 
L 217.940809 206.367893 
L 217.625418 206.903292 
L 217.400691 207.294983 
L 216.860618 208.222074 
L 216.692308 208.504285 
L 216.326071 209.149164 
L 215.769048 210.076254 
L 215.759197 210.092899 
L 215.253042 211.003344 
L 214.826087 211.731392 
L 214.705854 211.930435 
L 214.200346 212.857525 
L 213.892977 213.355026 
L 213.631963 213.784615 
L 213.064477 214.711706 
L 212.959866 214.872415 
L 212.429124 215.638796 
L 212.026756 216.072567 
L 211.503728 216.565886 
L 211.093645 216.927302 
L 210.439142 217.492977 
L 210.160535 217.737972 
L 209.366477 218.420067 
L 209.227425 218.541969 
L 208.294314 219.329324 
L 208.274952 219.347157 
L 207.361204 220.131909 
L 207.199146 220.274247 
L 206.428094 221.003068 
L 206.233368 221.201338 
L 205.494983 221.900941 
L 205.224757 222.128428 
L 204.561873 222.596097 
L 203.628763 222.921353 
L 203.336487 223.055518 
L 202.695652 223.331962 
L 201.762542 223.711452 
L 200.99015 223.982609 
L 200.829431 224.018281 
L 199.896321 224.353203 
L 198.963211 224.617197 
L 198.0301 224.892276 
L 197.991634 224.909699 
L 197.09699 225.204266 
L 196.16388 225.485618 
L 195.230769 225.665311 
L 194.297659 225.651982 
L 193.364548 225.690322 
L 192.431438 225.735547 
L 191.498328 225.788209 
L 190.958182 225.836789 
L 190.565217 225.843058 
L 189.632107 225.888929 
L 188.698997 225.984364 
L 187.765886 226.117643 
L 186.832776 226.232845 
L 185.899666 226.375364 
L 184.966555 226.491895 
L 184.033445 226.60432 
L 183.100334 226.622566 
L 182.167224 226.426431 
L 181.234114 226.176065 
L 180.301003 225.893656 
z
" clip-path="url(#p49f0359ba4)" style="fill: none; stroke: #000000; stroke-width: 1.5"/>
   </g>
   <g id="PathCollection_4">
    <path d="M 178.434783 249.216559 
L 177.697966 249.014047 
L 177.501672 248.959816 
L 176.568562 248.665195 
L 175.635452 248.366317 
L 174.702341 248.143003 
L 174.476401 248.086957 
L 173.769231 247.91106 
L 172.83612 247.678946 
L 171.90301 247.446833 
L 170.9699 247.214721 
L 170.749379 247.159866 
L 170.036789 246.98261 
L 169.103679 246.748889 
L 168.170569 246.509012 
L 167.237458 246.268049 
L 167.101318 246.232776 
L 166.304348 246.024771 
L 165.371237 245.750368 
L 164.438127 245.514705 
L 163.679861 245.305686 
L 163.505017 245.255539 
L 162.571906 244.9417 
L 161.638796 244.542109 
L 161.273668 244.378595 
L 160.705686 244.124238 
L 159.772575 243.703056 
L 159.220616 243.451505 
L 158.839465 243.277798 
L 157.906355 242.85984 
L 157.113068 242.524415 
L 156.973244 242.465293 
L 156.040134 242.070744 
L 155.107023 241.675129 
L 154.921814 241.597324 
L 154.173913 241.269447 
L 153.240803 240.721848 
L 153.151248 240.670234 
L 152.307692 240.228177 
L 151.374582 239.881633 
L 151.006139 239.743144 
L 150.441472 239.527482 
L 149.508361 239.152322 
L 148.6994 238.816054 
L 148.575251 238.764447 
L 147.64214 238.376543 
L 146.70903 237.988661 
L 146.469187 237.888963 
L 145.77592 237.600786 
L 144.842809 237.176764 
L 144.431762 236.961873 
L 143.909699 236.688625 
L 142.976589 236.190422 
L 142.686104 236.034783 
L 142.043478 235.678736 
L 141.110368 235.136096 
L 141.061607 235.107692 
L 140.177258 234.59256 
L 139.536608 234.180602 
L 139.244147 233.991724 
L 138.311037 233.392288 
L 138.093699 233.253512 
L 137.377926 232.796467 
L 136.641804 232.326421 
L 136.444816 232.200637 
L 135.511706 231.604821 
L 135.189899 231.399331 
L 134.578595 231.008911 
L 133.738903 230.472241 
L 133.645485 230.412532 
L 132.712375 229.816166 
L 132.294158 229.545151 
L 131.779264 229.160926 
L 131.196659 228.61806 
L 130.846154 228.302368 
L 130.14941 227.69097 
L 129.913043 227.505226 
L 128.979933 226.820001 
L 128.903506 226.76388 
L 128.046823 226.134804 
L 127.640993 225.836789 
L 127.113712 225.430624 
L 126.479183 224.909699 
L 126.180602 224.64707 
L 125.432729 223.982609 
L 125.247492 223.814034 
L 124.414171 223.055518 
L 124.314381 222.962386 
L 123.56681 222.128428 
L 123.381271 221.854288 
L 122.94608 221.201338 
L 122.448161 220.464085 
L 122.322284 220.274247 
L 121.717108 219.347157 
L 121.51505 219.032319 
L 121.122115 218.420067 
L 120.58194 217.578405 
L 120.528172 217.492977 
L 119.897277 216.565886 
L 119.648829 216.248022 
L 119.172341 215.638796 
L 118.715719 215.081778 
L 118.410949 214.711706 
L 117.782609 213.949771 
L 117.646492 213.784615 
L 116.885667 212.857525 
L 116.849498 212.813452 
L 116.159149 211.930435 
L 115.916388 211.291145 
L 115.821593 211.003344 
L 115.516222 210.076254 
L 115.210847 209.149164 
L 114.983278 208.439264 
L 114.9121 208.222074 
L 114.60792 207.294983 
L 114.302159 206.367893 
L 114.050167 205.603814 
L 113.996407 205.440803 
L 113.690658 204.513712 
L 113.372819 203.586622 
L 113.117057 202.872097 
L 113.043849 202.659532 
L 112.872395 201.732441 
L 112.716869 200.805351 
L 112.562791 199.878261 
L 112.410217 198.951171 
L 112.265642 198.02408 
L 112.183946 197.497895 
L 112.121703 197.09699 
L 111.977753 196.1699 
L 111.661624 195.242809 
L 111.267676 194.315719 
L 111.250836 194.257298 
L 111.003448 193.388629 
L 110.78165 192.461538 
L 110.560315 191.534448 
L 110.338994 190.607358 
L 110.317726 190.518271 
L 110.117664 189.680268 
L 109.901743 188.753177 
L 109.734078 187.826087 
L 109.574504 186.898997 
L 109.420077 185.971906 
L 109.384615 185.759021 
L 109.265646 185.044816 
L 109.241047 184.117726 
L 109.274838 183.190635 
L 109.343587 182.263545 
L 109.384615 181.736698 
L 109.415785 181.336455 
L 109.652292 180.409365 
L 109.853807 179.482274 
L 110.044125 178.555184 
L 110.20632 177.628094 
L 110.317726 176.988787 
L 110.367875 176.701003 
L 110.529427 175.773913 
L 110.69099 174.846823 
L 110.850409 173.919732 
L 111.064955 172.992642 
L 111.250836 172.359642 
L 111.337195 172.065552 
L 111.610007 171.138462 
L 111.760805 170.211371 
L 111.920207 169.284281 
L 112.056908 168.357191 
L 112.183946 167.46282 
L 112.188594 167.4301 
L 112.32027 166.50301 
L 112.451966 165.57592 
L 112.584311 164.648829 
L 112.720757 163.721739 
L 112.859064 162.794649 
L 113.098641 161.867559 
L 113.117057 161.824087 
L 113.491399 160.940468 
L 113.884161 160.013378 
L 114.050167 159.621511 
L 114.276905 159.086288 
L 114.669661 158.159197 
L 114.983278 157.418916 
L 115.062419 157.232107 
L 115.454976 156.305017 
L 115.775297 155.377926 
L 115.916388 154.910424 
L 116.059681 154.450836 
L 116.357901 153.523746 
L 116.60854 152.596656 
L 116.795662 151.669565 
L 116.849498 151.400816 
L 116.981377 150.742475 
L 117.150559 149.815385 
L 117.311716 148.888294 
L 117.472869 147.961204 
L 117.63404 147.034114 
L 117.782609 146.179484 
L 117.795061 146.107023 
L 118.037181 145.179933 
L 118.477086 144.252843 
L 118.715719 143.749898 
L 118.916962 143.325753 
L 119.355798 142.398662 
L 119.648829 141.780658 
L 119.795535 141.471572 
L 120.242251 140.544482 
L 120.58194 139.854416 
L 120.699417 139.617391 
L 121.159585 138.690301 
L 121.51505 137.973952 
L 121.61724 137.763211 
L 121.996858 136.83612 
L 122.34384 135.90903 
L 122.448161 135.630845 
L 122.692448 134.98194 
L 123.066299 134.054849 
L 123.381271 133.548949 
L 123.677416 133.127759 
L 124.314381 132.243767 
L 124.345436 132.200669 
L 125.016828 131.273579 
L 125.247492 130.954971 
L 125.68833 130.346488 
L 126.180602 129.666331 
L 126.35776 129.419398 
L 127.00255 128.492308 
L 127.113712 128.326815 
L 127.621178 127.565217 
L 128.046823 126.958471 
L 128.287297 126.638127 
L 128.979933 125.769642 
L 129.026672 125.711037 
L 129.795622 124.783946 
L 129.913043 124.666982 
L 130.846154 123.873561 
L 130.8658 123.856856 
L 131.779264 123.080134 
L 131.959604 122.929766 
L 132.712375 122.373918 
L 133.251748 122.002676 
L 133.645485 121.730963 
L 134.578595 121.092123 
L 134.605843 121.075585 
L 135.511706 120.520358 
L 136.054647 120.148495 
L 136.444816 119.863648 
L 137.309464 119.221405 
L 137.377926 119.17061 
L 138.311037 118.47657 
L 138.556005 118.294314 
L 139.244147 117.78233 
L 139.841242 117.367224 
L 140.177258 117.132944 
L 141.110368 116.524633 
L 141.242627 116.440134 
L 142.043478 115.918394 
L 142.647673 115.513043 
L 142.976589 115.292378 
L 143.909699 114.666376 
L 144.029575 114.585953 
L 144.842809 114.038752 
L 145.404339 113.658863 
L 145.77592 113.405646 
L 146.70903 112.867713 
L 147.007688 112.731773 
L 147.64214 112.436618 
L 148.575251 111.996911 
L 149.036647 111.804682 
L 149.508361 111.613388 
L 150.441472 111.24969 
L 151.374582 110.885984 
L 151.396113 110.877592 
L 152.307692 110.522275 
L 153.240803 110.222893 
L 154.173913 109.992771 
L 154.359675 109.950502 
L 155.107023 109.787287 
L 156.040134 109.720777 
L 156.973244 109.654293 
L 157.906355 109.587789 
L 158.839465 109.521286 
L 159.772575 109.454769 
L 160.705686 109.388276 
L 161.638796 109.309518 
L 162.571906 109.101176 
L 162.932435 109.023411 
L 163.505017 108.898132 
L 164.438127 108.709795 
L 165.371237 108.53059 
L 166.304348 108.363753 
L 167.237458 108.196914 
L 167.800093 108.096321 
L 168.170569 108.030082 
L 169.103679 107.863233 
L 170.036789 107.672743 
L 170.9699 107.472681 
L 171.90301 107.272616 
L 172.385192 107.169231 
L 172.83612 107.072546 
L 173.769231 106.878896 
L 174.702341 106.728821 
L 175.635452 106.576265 
L 176.568562 106.419605 
L 177.501672 106.373912 
L 178.434783 106.342966 
L 179.367893 106.26839 
L 179.642244 106.24214 
L 180.301003 106.177632 
L 181.234114 106.01671 
L 182.167224 105.854554 
L 183.100334 105.689902 
L 184.033445 105.52522 
L 184.966555 105.360528 
L 185.224246 105.31505 
L 185.899666 105.19585 
L 186.832776 105.031168 
L 187.765886 104.866481 
L 188.698997 104.707534 
L 189.632107 104.560432 
L 190.565217 104.49951 
L 191.498328 104.48492 
L 192.208228 104.38796 
L 192.431438 104.357474 
L 193.364548 104.230032 
L 194.297659 104.098064 
L 195.230769 103.94713 
L 196.16388 103.79828 
L 197.09699 103.649773 
L 198.0301 103.501267 
L 198.283959 103.46087 
L 198.963211 103.352778 
L 199.896321 103.291213 
L 200.829431 103.278155 
L 201.762542 103.265537 
L 202.695652 103.252916 
L 203.628763 103.240306 
L 204.561873 103.15069 
L 205.494983 103.039757 
L 206.428094 102.993876 
L 207.361204 102.96744 
L 208.294314 102.982437 
L 209.227425 103.020661 
L 210.160535 103.250618 
L 211.013755 103.46087 
L 211.093645 103.480556 
L 212.026756 103.721681 
L 212.959866 104.027196 
L 213.892977 104.332696 
L 214.066612 104.38796 
L 214.826087 104.631072 
L 215.759197 104.890578 
L 216.692308 105.127918 
L 217.39222 105.31505 
L 217.625418 105.378357 
L 218.558528 105.692673 
L 219.491639 106.00889 
L 220.167329 106.24214 
L 220.424749 106.333324 
L 221.35786 106.623517 
L 222.29097 106.892586 
L 223.22408 107.166064 
L 223.23491 107.169231 
L 224.157191 107.434514 
L 225.090301 107.84553 
L 225.604058 108.096321 
L 226.023411 108.301024 
L 226.956522 108.756517 
L 227.503289 109.023411 
L 227.889632 109.211998 
L 228.822742 109.667501 
L 229.402505 109.950502 
L 229.755853 110.122984 
L 230.688963 110.578503 
L 231.301685 110.877592 
L 231.622074 111.033982 
L 232.555184 111.489481 
L 233.200903 111.804682 
L 233.488294 111.944967 
L 234.421405 112.400465 
L 235.10166 112.731773 
L 235.354515 112.854984 
L 236.287625 113.308864 
L 237.027559 113.658863 
L 237.220736 113.747148 
L 238.153846 114.111965 
L 239.086957 114.481387 
L 239.240519 114.585953 
L 240.020067 115.307965 
L 240.226691 115.513043 
L 240.953177 116.281255 
L 241.095251 116.440134 
L 241.886288 117.318758 
L 241.930714 117.367224 
L 242.817678 118.294314 
L 242.819398 118.296106 
L 243.719748 119.221405 
L 243.752508 119.25659 
L 244.544202 120.148495 
L 244.685619 120.318491 
L 245.306957 121.075585 
L 245.618729 121.459683 
L 246.059477 122.002676 
L 246.551839 122.609261 
L 246.814744 122.929766 
L 247.48495 123.738677 
L 247.584045 123.856856 
L 248.361445 124.783946 
L 248.41806 124.851464 
L 249.138852 125.711037 
L 249.351171 125.964238 
L 249.836123 126.638127 
L 250.284281 127.53601 
L 250.29826 127.565217 
L 250.773484 128.492308 
L 251.217391 129.358738 
L 251.248017 129.419398 
L 251.792972 130.346488 
L 252.150502 130.889332 
L 252.403185 131.273579 
L 252.990223 132.200669 
L 253.083612 132.369102 
L 253.497811 133.127759 
L 253.977351 134.054849 
L 254.016722 134.130929 
L 254.45013 134.98194 
L 254.912422 135.90903 
L 254.949833 135.984056 
L 255.367952 136.83612 
L 255.833757 137.763211 
L 255.882943 137.861488 
L 256.285915 138.690301 
L 256.641096 139.617391 
L 256.816054 140.120425 
L 256.961304 140.544482 
L 257.272586 141.471572 
L 257.567168 142.398662 
L 257.749164 142.98079 
L 257.854259 143.325753 
L 258.007321 144.252843 
L 258.137915 145.179933 
L 258.268312 146.107023 
L 258.398511 147.034114 
L 258.528502 147.961204 
L 258.658276 148.888294 
L 258.682274 149.059868 
L 258.784826 149.815385 
L 258.902529 150.742475 
L 258.97375 151.669565 
L 259.003496 152.596656 
L 259.022957 153.523746 
L 259.032567 154.450836 
L 259.014861 155.377926 
L 258.985922 156.305017 
L 258.953993 157.232107 
L 258.924188 158.159197 
L 258.946369 159.086288 
L 258.755082 160.013378 
L 258.682274 160.366297 
L 258.563823 160.940468 
L 258.37255 161.867559 
L 258.181279 162.794649 
L 257.990008 163.721739 
L 257.798735 164.648829 
L 257.749164 164.889096 
L 257.607462 165.57592 
L 257.416197 166.50301 
L 257.223355 167.4301 
L 256.983647 168.357191 
L 256.816054 168.985926 
L 256.736523 169.284281 
L 256.489408 170.211371 
L 256.241405 171.138462 
L 255.973141 172.065552 
L 255.882943 172.375748 
L 255.698472 172.992642 
L 255.375621 173.919732 
L 255.05276 174.846823 
L 254.949833 175.233163 
L 254.807716 175.773913 
L 254.626733 176.701003 
L 254.45525 177.628094 
L 254.283774 178.555184 
L 254.076258 179.482274 
L 254.016722 179.719418 
L 253.843505 180.409365 
L 253.610755 181.336455 
L 253.384204 182.263545 
L 253.18188 183.190635 
L 253.083612 183.671636 
L 252.994974 184.117726 
L 252.803584 185.044816 
L 252.31566 185.971906 
L 252.150502 186.280218 
L 251.81717 186.898997 
L 251.397542 187.826087 
L 251.217391 188.248607 
L 251.003275 188.753177 
L 250.61531 189.680268 
L 250.284281 190.476541 
L 250.230018 190.607358 
L 249.846604 191.534448 
L 249.463335 192.461538 
L 249.351171 192.732865 
L 249.080081 193.388629 
L 248.696822 194.315719 
L 248.41806 194.922266 
L 248.273506 195.242809 
L 247.80494 196.1699 
L 247.48495 196.783864 
L 247.321754 197.09699 
L 246.838585 198.02408 
L 246.551839 198.574262 
L 246.355406 198.951171 
L 245.89276 199.878261 
L 245.618729 200.517517 
L 245.495589 200.805351 
L 245.107141 201.732441 
L 244.749421 202.659532 
L 244.685619 202.825668 
L 244.393385 203.586622 
L 244.074259 204.513712 
L 243.791747 205.440803 
L 243.752508 205.571721 
L 243.497935 206.367893 
L 243.153766 207.294983 
L 242.819398 208.099797 
L 242.768149 208.222074 
L 242.37419 209.149164 
L 241.980233 210.076254 
L 241.886288 210.285026 
L 241.54507 211.003344 
L 241.090207 211.930435 
L 240.953177 212.204198 
L 240.647085 212.857525 
L 240.301899 213.784615 
L 240.020067 214.413676 
L 239.874332 214.711706 
L 239.354943 215.638796 
L 239.086957 216.115156 
L 238.828532 216.565886 
L 238.308784 217.492977 
L 238.153846 217.75594 
L 237.771159 218.420067 
L 237.255 219.347157 
L 237.220736 219.409323 
L 236.733557 220.274247 
L 236.287625 221.076126 
L 236.217415 221.201338 
L 235.696916 222.128428 
L 235.354515 222.740124 
L 235.178464 223.055518 
L 234.65778 223.982609 
L 234.421405 224.404146 
L 234.119633 224.909699 
L 233.488294 225.835002 
L 233.487063 225.836789 
L 232.842899 226.76388 
L 232.555184 227.166922 
L 232.181156 227.69097 
L 231.622074 228.474312 
L 231.519477 228.61806 
L 230.857764 229.545151 
L 230.688963 229.779008 
L 230.177409 230.472241 
L 229.755853 231.033541 
L 229.486392 231.399331 
L 228.822742 232.320609 
L 228.818572 232.326421 
L 228.1534 233.253512 
L 227.889632 233.621139 
L 227.448854 234.180602 
L 226.956522 234.645793 
L 226.373941 235.107692 
L 226.023411 235.382132 
L 225.16878 236.034783 
L 225.090301 236.090853 
L 224.157191 236.730504 
L 223.81967 236.961873 
L 223.22408 237.370144 
L 222.467244 237.888963 
L 222.29097 238.016395 
L 221.35786 238.753722 
L 221.279401 238.816054 
L 220.424749 239.495029 
L 220.112438 239.743144 
L 219.491639 240.236344 
L 218.945485 240.670234 
L 218.558528 240.977654 
L 217.778521 241.597324 
L 217.625418 241.718953 
L 216.692308 242.334011 
L 216.159437 242.524415 
L 215.759197 242.661631 
L 214.826087 242.981 
L 213.892977 243.305798 
L 213.487901 243.451505 
L 212.959866 243.644184 
L 212.026756 243.984654 
L 211.093645 244.325145 
L 210.947159 244.378595 
L 210.160535 244.66562 
L 209.227425 245.006096 
L 208.406383 245.305686 
L 208.294314 245.345971 
L 207.361204 245.679013 
L 206.428094 245.998182 
L 205.680128 246.232776 
L 205.494983 246.289552 
L 204.561873 246.586447 
L 203.628763 246.883335 
L 202.759702 247.159866 
L 202.695652 247.180246 
L 201.762542 247.519068 
L 200.829431 247.700194 
L 199.896321 247.827267 
L 198.963211 247.954347 
L 198.0301 248.069098 
L 197.826003 248.086957 
L 197.09699 248.150489 
L 196.16388 248.245675 
L 195.230769 248.37237 
L 194.297659 248.497817 
L 193.364548 248.623243 
L 192.431438 248.754527 
L 191.498328 248.887188 
L 190.60596 249.014047 
L 190.565217 249.019839 
L 189.632107 249.152491 
L 188.698997 249.291846 
L 187.765886 249.341942 
L 186.832776 249.392029 
L 185.899666 249.442114 
L 184.966555 249.49185 
L 184.033445 249.541498 
L 183.100334 249.591134 
L 182.167224 249.640782 
L 181.234114 249.639072 
L 180.301003 249.623351 
L 179.367893 249.490909 
L 178.434783 249.216559 
z
" clip-path="url(#p49f0359ba4)" style="fill: none; stroke: #000000; stroke-width: 1.5"/>
   </g>
   <g id="patch_3">
    <path d="M 45 320.4 
L 45 43.2 
" style="fill: none; stroke: #000000; stroke-width: 0.8; stroke-linejoin: miter; stroke-linecap: square"/>
   </g>
   <g id="patch_4">
    <path d="M 324 320.4 
L 324 43.2 
" style="fill: none; stroke: #000000; stroke-width: 0.8; stroke-linejoin: miter; stroke-linecap: square"/>
   </g>
   <g id="patch_5">
    <path d="M 45 320.4 
L 324 320.4 
" style="fill: none; stroke: #000000; stroke-width: 0.8; stroke-linejoin: miter; stroke-linecap: square"/>
   </g>
   <g id="patch_6">
    <path d="M 45 43.2 
L 324 43.2 
" style="fill: none; stroke: #000000; stroke-width: 0.8; stroke-linejoin: miter; stroke-linecap: square"/>
   </g>
  </g>
 </g>
 <defs>
  <clipPath id="p49f0359ba4">
   <rect x="45" y="43.2" width="279" height="277.2"/>
  </clipPath>
 </defs>
</svg>
