<?xml version="1.0" encoding="utf-8" standalone="no"?>
<!DOCTYPE svg PUBLIC "-//W3C//DTD SVG 1.1//EN"
  "http://www.w3.org/Graphics/SVG/1.1/DTD/svg11.dtd">
<svg xmlns:xlink="http://www.w3.org/1999/xlink" width="360pt" height="360pt" viewBox="0 0 360 360" xmlns="http://www.w3.org/2000/svg" version="1.1">
 <metadata>
  <rdf:RDF xmlns:dc="http://purl.org/dc/elements/1.1/" xmlns:cc="http://creativecommons.org/ns#" xmlns:rdf="http://www.w3.org/1999/02/22-rdf-syntax-ns#">
   <cc:Work>
    <dc:type rdf:resource="http://purl.org/dc/dcmitype/StillImage"/>
    <dc:date>2022-04-10T19:53:23.992958</dc:date>
    <dc:format>image/svg+xml</dc:format>
    <dc:creator>
     <cc:Agent>
      <dc:title>Matplotlib v3.5.1, https://matplotlib.org/</dc:title>
     </cc:Agent>
    </dc:creator>
   </cc:Work>
  </rdf:RDF>
 </metadata>
 <defs>
  <style type="text/css">*{stroke-linejoin: round; stroke-linecap: butt}</style>
 </defs>
 <g id="figure_1">
  <g id="patch_1">
   <path d="M 0 360 
L 360 360 
L 360 0 
L 0 0 
z
" style="fill: #ffffff"/>
  </g>
  <g id="axes_1">
   <g id="patch_2">
    <path d="M 45 320.4 
L 324 320.4 
L 324 43.2 
L 45 43.2 
z
" style="fill: #ffffff"/>
   </g>
   <g id="PathCollection_1">
    <defs>
     <path id="m14f43231be" d="M 0 0.5 
C 0.132602 0.5 0.25979 0.447317 0.353553 0.353553 
C 0.447317 0.25979 0.5 0.132602 0.5 0 
C 0.5 -0.132602 0.447317 -0.25979 0.353553 -0.353553 
C 0.25979 -0.447317 0.132602 -0.5 0 -0.5 
C -0.132602 -0.5 -0.25979 -0.447317 -0.353553 -0.353553 
C -0.447317 -0.25979 -0.5 -0.132602 -0.5 0 
C -0.5 0.132602 -0.447317 0.25979 -0.353553 0.353553 
C -0.25979 0.447317 -0.132602 0.5 0 0.5 
z
" style="stroke: #ff0000"/>
    </defs>
    <g clip-path="url(#p5aa45f1eb1)">
     <use xlink:href="#m14f43231be" x="225.431593" y="181.336455" style="fill: #ff0000; stroke: #ff0000"/>
     <use xlink:href="#m14f43231be" x="226.853737" y="177.237544" style="fill: #ff0000; stroke: #ff0000"/>
     <use xlink:href="#m14f43231be" x="227.76128" y="172.878973" style="fill: #ff0000; stroke: #ff0000"/>
     <use xlink:href="#m14f43231be" x="227.938467" y="168.385167" style="fill: #ff0000; stroke: #ff0000"/>
     <use xlink:href="#m14f43231be" x="227.225495" y="163.945159" style="fill: #ff0000; stroke: #ff0000"/>
     <use xlink:href="#m14f43231be" x="225.551242" y="159.783443" style="fill: #ff0000; stroke: #ff0000"/>
     <use xlink:href="#m14f43231be" x="222.952732" y="156.118655" style="fill: #ff0000; stroke: #ff0000"/>
     <use xlink:href="#m14f43231be" x="219.572108" y="153.119638" style="fill: #ff0000; stroke: #ff0000"/>
     <use xlink:href="#m14f43231be" x="215.627362" y="150.87346" style="fill: #ff0000; stroke: #ff0000"/>
     <use xlink:href="#m14f43231be" x="211.364334" y="149.37819" style="fill: #ff0000; stroke: #ff0000"/>
     <use xlink:href="#m14f43231be" x="207.00773" y="148.562325" style="fill: #ff0000; stroke: #ff0000"/>
     <use xlink:href="#m14f43231be" x="202.729709" y="148.318336" style="fill: #ff0000; stroke: #ff0000"/>
     <use xlink:href="#m14f43231be" x="198.643434" y="148.530574" style="fill: #ff0000; stroke: #ff0000"/>
     <use xlink:href="#m14f43231be" x="194.813282" y="149.085567" style="fill: #ff0000; stroke: #ff0000"/>
     <use xlink:href="#m14f43231be" x="191.266104" y="149.870808" style="fill: #ff0000; stroke: #ff0000"/>
     <use xlink:href="#m14f43231be" x="187.995575" y="150.780718" style="fill: #ff0000; stroke: #ff0000"/>
     <use xlink:href="#m14f43231be" x="184.966555" y="151.741355" style="fill: #ff0000; stroke: #ff0000"/>
     <use xlink:href="#m14f43231be" x="182.131925" y="152.741653" style="fill: #ff0000; stroke: #ff0000"/>
     <use xlink:href="#m14f43231be" x="179.461752" y="153.840488" style="fill: #ff0000; stroke: #ff0000"/>
     <use xlink:href="#m14f43231be" x="176.964652" y="155.1279" style="fill: #ff0000; stroke: #ff0000"/>
     <use xlink:href="#m14f43231be" x="174.67618" y="156.653571" style="fill: #ff0000; stroke: #ff0000"/>
     <use xlink:href="#m14f43231be" x="172.609736" y="158.36762" style="fill: #ff0000; stroke: #ff0000"/>
     <use xlink:href="#m14f43231be" x="170.69682" y="160.118068" style="fill: #ff0000; stroke: #ff0000"/>
     <use xlink:href="#m14f43231be" x="168.758545" y="161.714354" style="fill: #ff0000; stroke: #ff0000"/>
     <use xlink:href="#m14f43231be" x="166.53606" y="163.024866" style="fill: #ff0000; stroke: #ff0000"/>
     <use xlink:href="#m14f43231be" x="163.775703" y="164.057771" style="fill: #ff0000; stroke: #ff0000"/>
     <use xlink:href="#m14f43231be" x="160.336128" y="164.985107" style="fill: #ff0000; stroke: #ff0000"/>
     <use xlink:href="#m14f43231be" x="156.272013" y="166.097854" style="fill: #ff0000; stroke: #ff0000"/>
     <use xlink:href="#m14f43231be" x="151.854952" y="167.709665" style="fill: #ff0000; stroke: #ff0000"/>
     <use xlink:href="#m14f43231be" x="147.515441" y="170.049078" style="fill: #ff0000; stroke: #ff0000"/>
     <use xlink:href="#m14f43231be" x="143.724183" y="173.185764" style="fill: #ff0000; stroke: #ff0000"/>
     <use xlink:href="#m14f43231be" x="140.860273" y="177.020392" style="fill: #ff0000; stroke: #ff0000"/>
     <use xlink:href="#m14f43231be" x="139.120671" y="181.336455" style="fill: #ff0000; stroke: #ff0000"/>
     <use xlink:href="#m14f43231be" x="138.504365" y="185.883058" style="fill: #ff0000; stroke: #ff0000"/>
     <use xlink:href="#m14f43231be" x="138.867524" y="190.446963" style="fill: #ff0000; stroke: #ff0000"/>
     <use xlink:href="#m14f43231be" x="140.013047" y="194.884975" style="fill: #ff0000; stroke: #ff0000"/>
     <use xlink:href="#m14f43231be" x="141.766683" y="199.114983" style="fill: #ff0000; stroke: #ff0000"/>
     <use xlink:href="#m14f43231be" x="144.008741" y="203.087621" style="fill: #ff0000; stroke: #ff0000"/>
     <use xlink:href="#m14f43231be" x="146.664117" y="206.764211" style="fill: #ff0000; stroke: #ff0000"/>
     <use xlink:href="#m14f43231be" x="149.678572" y="210.109715" style="fill: #ff0000; stroke: #ff0000"/>
     <use xlink:href="#m14f43231be" x="153.006762" y="213.090056" style="fill: #ff0000; stroke: #ff0000"/>
     <use xlink:href="#m14f43231be" x="156.613384" y="215.662" style="fill: #ff0000; stroke: #ff0000"/>
     <use xlink:href="#m14f43231be" x="160.470115" y="217.761443" style="fill: #ff0000; stroke: #ff0000"/>
     <use xlink:href="#m14f43231be" x="164.537182" y="219.310538" style="fill: #ff0000; stroke: #ff0000"/>
     <use xlink:href="#m14f43231be" x="168.741164" y="220.255294" style="fill: #ff0000; stroke: #ff0000"/>
     <use xlink:href="#m14f43231be" x="172.97351" y="220.617158" style="fill: #ff0000; stroke: #ff0000"/>
     <use xlink:href="#m14f43231be" x="177.121678" y="220.52087" style="fill: #ff0000; stroke: #ff0000"/>
     <use xlink:href="#m14f43231be" x="181.117105" y="220.168422" style="fill: #ff0000; stroke: #ff0000"/>
     <use xlink:href="#m14f43231be" x="184.966555" y="219.762429" style="fill: #ff0000; stroke: #ff0000"/>
     <use xlink:href="#m14f43231be" x="188.741472" y="219.416555" style="fill: #ff0000; stroke: #ff0000"/>
     <use xlink:href="#m14f43231be" x="192.527156" y="219.10094" style="fill: #ff0000; stroke: #ff0000"/>
     <use xlink:href="#m14f43231be" x="196.359473" y="218.651567" style="fill: #ff0000; stroke: #ff0000"/>
     <use xlink:href="#m14f43231be" x="200.184519" y="217.838841" style="fill: #ff0000; stroke: #ff0000"/>
     <use xlink:href="#m14f43231be" x="203.863714" y="216.462462" style="fill: #ff0000; stroke: #ff0000"/>
     <use xlink:href="#m14f43231be" x="207.222265" y="214.429588" style="fill: #ff0000; stroke: #ff0000"/>
     <use xlink:href="#m14f43231be" x="210.116701" y="211.784283" style="fill: #ff0000; stroke: #ff0000"/>
     <use xlink:href="#m14f43231be" x="212.489285" y="208.681619" style="fill: #ff0000; stroke: #ff0000"/>
     <use xlink:href="#m14f43231be" x="214.387281" y="205.325647" style="fill: #ff0000; stroke: #ff0000"/>
     <use xlink:href="#m14f43231be" x="215.944816" y="201.901925" style="fill: #ff0000; stroke: #ff0000"/>
     <use xlink:href="#m14f43231be" x="217.340061" y="198.528815" style="fill: #ff0000; stroke: #ff0000"/>
     <use xlink:href="#m14f43231be" x="218.743934" y="195.237239" style="fill: #ff0000; stroke: #ff0000"/>
     <use xlink:href="#m14f43231be" x="220.273144" y="191.977494" style="fill: #ff0000; stroke: #ff0000"/>
     <use xlink:href="#m14f43231be" x="221.957482" y="188.646937" style="fill: #ff0000; stroke: #ff0000"/>
     <use xlink:href="#m14f43231be" x="223.72859" y="185.129552" style="fill: #ff0000; stroke: #ff0000"/>
    </g>
   </g>
   <g id="matplotlib.axis_1">
    <g id="xtick_1">
     <g id="line2d_1">
      <defs>
       <path id="mb24ddb0ba8" d="M 0 0 
L 0 3.5 
" style="stroke: #000000; stroke-width: 0.8"/>
      </defs>
      <g>
       <use xlink:href="#mb24ddb0ba8" x="45" y="320.4" style="stroke: #000000; stroke-width: 0.8"/>
      </g>
     </g>
     <g id="text_1">
      <!-- −3 -->
      <g transform="translate(37.628906 334.998438)scale(0.1 -0.1)">
       <defs>
        <path id="DejaVuSans-2212" d="M 678 2272 
L 4684 2272 
L 4684 1741 
L 678 1741 
L 678 2272 
z
" transform="scale(0.015625)"/>
        <path id="DejaVuSans-33" d="M 2597 2516 
Q 3050 2419 3304 2112 
Q 3559 1806 3559 1356 
Q 3559 666 3084 287 
Q 2609 -91 1734 -91 
Q 1441 -91 1130 -33 
Q 819 25 488 141 
L 488 750 
Q 750 597 1062 519 
Q 1375 441 1716 441 
Q 2309 441 2620 675 
Q 2931 909 2931 1356 
Q 2931 1769 2642 2001 
Q 2353 2234 1838 2234 
L 1294 2234 
L 1294 2753 
L 1863 2753 
Q 2328 2753 2575 2939 
Q 2822 3125 2822 3475 
Q 2822 3834 2567 4026 
Q 2313 4219 1838 4219 
Q 1578 4219 1281 4162 
Q 984 4106 628 3988 
L 628 4550 
Q 988 4650 1302 4700 
Q 1616 4750 1894 4750 
Q 2613 4750 3031 4423 
Q 3450 4097 3450 3541 
Q 3450 3153 3228 2886 
Q 3006 2619 2597 2516 
z
" transform="scale(0.015625)"/>
       </defs>
       <use xlink:href="#DejaVuSans-2212"/>
       <use xlink:href="#DejaVuSans-33" x="83.789062"/>
      </g>
     </g>
    </g>
    <g id="xtick_2">
     <g id="line2d_2">
      <g>
       <use xlink:href="#mb24ddb0ba8" x="91.655518" y="320.4" style="stroke: #000000; stroke-width: 0.8"/>
      </g>
     </g>
     <g id="text_2">
      <!-- −2 -->
      <g transform="translate(84.284425 334.998438)scale(0.1 -0.1)">
       <defs>
        <path id="DejaVuSans-32" d="M 1228 531 
L 3431 531 
L 3431 0 
L 469 0 
L 469 531 
Q 828 903 1448 1529 
Q 2069 2156 2228 2338 
Q 2531 2678 2651 2914 
Q 2772 3150 2772 3378 
Q 2772 3750 2511 3984 
Q 2250 4219 1831 4219 
Q 1534 4219 1204 4116 
Q 875 4013 500 3803 
L 500 4441 
Q 881 4594 1212 4672 
Q 1544 4750 1819 4750 
Q 2544 4750 2975 4387 
Q 3406 4025 3406 3419 
Q 3406 3131 3298 2873 
Q 3191 2616 2906 2266 
Q 2828 2175 2409 1742 
Q 1991 1309 1228 531 
z
" transform="scale(0.015625)"/>
       </defs>
       <use xlink:href="#DejaVuSans-2212"/>
       <use xlink:href="#DejaVuSans-32" x="83.789062"/>
      </g>
     </g>
    </g>
    <g id="xtick_3">
     <g id="line2d_3">
      <g>
       <use xlink:href="#mb24ddb0ba8" x="138.311037" y="320.4" style="stroke: #000000; stroke-width: 0.8"/>
      </g>
     </g>
     <g id="text_3">
      <!-- −1 -->
      <g transform="translate(130.939943 334.998438)scale(0.1 -0.1)">
       <defs>
        <path id="DejaVuSans-31" d="M 794 531 
L 1825 531 
L 1825 4091 
L 703 3866 
L 703 4441 
L 1819 4666 
L 2450 4666 
L 2450 531 
L 3481 531 
L 3481 0 
L 794 0 
L 794 531 
z
" transform="scale(0.015625)"/>
       </defs>
       <use xlink:href="#DejaVuSans-2212"/>
       <use xlink:href="#DejaVuSans-31" x="83.789062"/>
      </g>
     </g>
    </g>
    <g id="xtick_4">
     <g id="line2d_4">
      <g>
       <use xlink:href="#mb24ddb0ba8" x="184.966555" y="320.4" style="stroke: #000000; stroke-width: 0.8"/>
      </g>
     </g>
     <g id="text_4">
      <!-- 0 -->
      <g transform="translate(181.785305 334.998438)scale(0.1 -0.1)">
       <defs>
        <path id="DejaVuSans-30" d="M 2034 4250 
Q 1547 4250 1301 3770 
Q 1056 3291 1056 2328 
Q 1056 1369 1301 889 
Q 1547 409 2034 409 
Q 2525 409 2770 889 
Q 3016 1369 3016 2328 
Q 3016 3291 2770 3770 
Q 2525 4250 2034 4250 
z
M 2034 4750 
Q 2819 4750 3233 4129 
Q 3647 3509 3647 2328 
Q 3647 1150 3233 529 
Q 2819 -91 2034 -91 
Q 1250 -91 836 529 
Q 422 1150 422 2328 
Q 422 3509 836 4129 
Q 1250 4750 2034 4750 
z
" transform="scale(0.015625)"/>
       </defs>
       <use xlink:href="#DejaVuSans-30"/>
      </g>
     </g>
    </g>
    <g id="xtick_5">
     <g id="line2d_5">
      <g>
       <use xlink:href="#mb24ddb0ba8" x="231.622074" y="320.4" style="stroke: #000000; stroke-width: 0.8"/>
      </g>
     </g>
     <g id="text_5">
      <!-- 1 -->
      <g transform="translate(228.440824 334.998438)scale(0.1 -0.1)">
       <use xlink:href="#DejaVuSans-31"/>
      </g>
     </g>
    </g>
    <g id="xtick_6">
     <g id="line2d_6">
      <g>
       <use xlink:href="#mb24ddb0ba8" x="278.277592" y="320.4" style="stroke: #000000; stroke-width: 0.8"/>
      </g>
     </g>
     <g id="text_6">
      <!-- 2 -->
      <g transform="translate(275.096342 334.998438)scale(0.1 -0.1)">
       <use xlink:href="#DejaVuSans-32"/>
      </g>
     </g>
    </g>
   </g>
   <g id="matplotlib.axis_2">
    <g id="ytick_1">
     <g id="line2d_7">
      <defs>
       <path id="m2ff3ad6d02" d="M 0 0 
L -3.5 0 
" style="stroke: #000000; stroke-width: 0.8"/>
      </defs>
      <g>
       <use xlink:href="#m2ff3ad6d02" x="45" y="320.4" style="stroke: #000000; stroke-width: 0.8"/>
      </g>
     </g>
     <g id="text_7">
      <!-- −3 -->
      <g transform="translate(23.257812 324.199219)scale(0.1 -0.1)">
       <use xlink:href="#DejaVuSans-2212"/>
       <use xlink:href="#DejaVuSans-33" x="83.789062"/>
      </g>
     </g>
    </g>
    <g id="ytick_2">
     <g id="line2d_8">
      <g>
       <use xlink:href="#m2ff3ad6d02" x="45" y="274.045485" style="stroke: #000000; stroke-width: 0.8"/>
      </g>
     </g>
     <g id="text_8">
      <!-- −2 -->
      <g transform="translate(23.257812 277.844704)scale(0.1 -0.1)">
       <use xlink:href="#DejaVuSans-2212"/>
       <use xlink:href="#DejaVuSans-32" x="83.789062"/>
      </g>
     </g>
    </g>
    <g id="ytick_3">
     <g id="line2d_9">
      <g>
       <use xlink:href="#m2ff3ad6d02" x="45" y="227.69097" style="stroke: #000000; stroke-width: 0.8"/>
      </g>
     </g>
     <g id="text_9">
      <!-- −1 -->
      <g transform="translate(23.257812 231.490189)scale(0.1 -0.1)">
       <use xlink:href="#DejaVuSans-2212"/>
       <use xlink:href="#DejaVuSans-31" x="83.789062"/>
      </g>
     </g>
    </g>
    <g id="ytick_4">
     <g id="line2d_10">
      <g>
       <use xlink:href="#m2ff3ad6d02" x="45" y="181.336455" style="stroke: #000000; stroke-width: 0.8"/>
      </g>
     </g>
     <g id="text_10">
      <!-- 0 -->
      <g transform="translate(31.6375 185.135674)scale(0.1 -0.1)">
       <use xlink:href="#DejaVuSans-30"/>
      </g>
     </g>
    </g>
    <g id="ytick_5">
     <g id="line2d_11">
      <g>
       <use xlink:href="#m2ff3ad6d02" x="45" y="134.98194" style="stroke: #000000; stroke-width: 0.8"/>
      </g>
     </g>
     <g id="text_11">
      <!-- 1 -->
      <g transform="translate(31.6375 138.781159)scale(0.1 -0.1)">
       <use xlink:href="#DejaVuSans-31"/>
      </g>
     </g>
    </g>
    <g id="ytick_6">
     <g id="line2d_12">
      <g>
       <use xlink:href="#m2ff3ad6d02" x="45" y="88.627425" style="stroke: #000000; stroke-width: 0.8"/>
      </g>
     </g>
     <g id="text_12">
      <!-- 2 -->
      <g transform="translate(31.6375 92.426643)scale(0.1 -0.1)">
       <use xlink:href="#DejaVuSans-32"/>
      </g>
     </g>
    </g>
   </g>
   <g id="PathCollection_2">
    <path d="M 172.83612 196.363838 
L 172.278165 196.1699 
L 171.90301 196.016792 
L 170.9699 195.564734 
L 170.345593 195.242809 
L 170.036789 195.038514 
L 169.360571 194.315719 
L 169.103679 193.973393 
L 168.720639 193.388629 
L 168.403835 192.461538 
L 168.920343 191.534448 
L 169.103679 191.059205 
L 169.347055 190.607358 
L 169.810068 189.680268 
L 170.036789 189.371611 
L 170.9699 188.77849 
L 171.035835 188.753177 
L 171.90301 188.343985 
L 172.83612 188.000104 
L 173.459602 187.826087 
L 173.769231 187.756991 
L 174.702341 187.535455 
L 175.635452 187.275854 
L 176.568562 186.98006 
L 176.758185 186.898997 
L 177.501672 186.633479 
L 178.419151 185.971906 
L 178.434783 185.958032 
L 179.271313 185.044816 
L 179.367893 184.882096 
L 179.772563 184.117726 
L 180.199446 183.190635 
L 180.301003 183.048669 
L 180.852692 182.263545 
L 181.234114 181.827863 
L 181.610172 181.336455 
L 182.167224 180.619476 
L 182.309895 180.409365 
L 182.952877 179.482274 
L 183.100334 179.311495 
L 183.836732 178.555184 
L 184.033445 178.378274 
L 184.966555 177.719161 
L 185.163618 177.628094 
L 185.899666 177.267752 
L 186.832776 177.027316 
L 187.531258 176.701003 
L 187.765886 176.588833 
L 188.698997 176.153984 
L 189.575638 175.773913 
L 189.632107 175.747844 
L 190.565217 175.275265 
L 191.344034 174.846823 
L 191.498328 174.761106 
L 192.431438 174.249236 
L 193.031083 173.919732 
L 193.364548 173.736495 
L 194.297659 173.298451 
L 195.230769 173.091366 
L 196.087536 172.992642 
L 196.16388 172.984248 
L 197.09699 172.811987 
L 198.0301 172.596318 
L 198.963211 172.390618 
L 199.896321 172.180925 
L 200.829431 172.127836 
L 201.762542 172.159929 
L 202.695652 172.921266 
L 202.707674 172.992642 
L 202.736063 173.919732 
L 202.71946 174.846823 
L 202.695652 175.14987 
L 202.646627 175.773913 
L 202.614316 176.701003 
L 202.505888 177.628094 
L 202.128912 178.555184 
L 201.762542 179.155632 
L 201.595709 179.482274 
L 200.984825 180.409365 
L 200.829431 180.655969 
L 200.400443 181.336455 
L 199.896321 182.24469 
L 199.886025 182.263545 
L 199.515503 183.190635 
L 199.175594 184.117726 
L 198.963211 184.696711 
L 198.835349 185.044816 
L 198.491629 185.971906 
L 198.056558 186.898997 
L 198.0301 186.948102 
L 197.492399 187.826087 
L 197.09699 188.415578 
L 196.874541 188.753177 
L 196.390658 189.680268 
L 196.16388 190.021786 
L 195.73814 190.607358 
L 195.230769 191.310429 
L 195.069298 191.534448 
L 194.408681 192.461538 
L 194.297659 192.61188 
L 193.599089 193.388629 
L 193.364548 193.596064 
L 192.53012 194.315719 
L 192.431438 194.388593 
L 191.498328 194.78967 
L 190.565217 195.128087 
L 190.042059 195.242809 
L 189.632107 195.329301 
L 188.698997 195.535376 
L 187.765886 195.829911 
L 186.832776 195.880808 
L 185.899666 195.907006 
L 184.966555 195.922652 
L 184.033445 195.886862 
L 183.100334 195.837496 
L 182.167224 195.771604 
L 181.234114 195.647345 
L 180.301003 195.491232 
L 179.367893 195.452371 
L 178.434783 195.657059 
L 177.501672 195.866564 
L 176.568562 196.093493 
L 176.277747 196.1699 
L 175.635452 196.316461 
L 174.702341 196.55069 
L 173.769231 196.562819 
L 172.83612 196.363838 
z
" clip-path="url(#p5aa45f1eb1)" style="fill: none; stroke-dasharray: 5.55,2.4; stroke-dashoffset: 0; stroke: #000000; stroke-width: 1.5"/>
   </g>
   <g id="PathCollection_3">
    <path d="M 168.170569 219.450903 
L 167.768261 219.347157 
L 167.237458 219.241057 
L 166.304348 219.186293 
L 165.371237 219.083602 
L 164.438127 218.844488 
L 163.505017 218.469521 
L 163.320467 218.420067 
L 162.571906 218.292909 
L 161.638796 218.041835 
L 160.705686 217.703205 
L 159.941083 217.492977 
L 159.772575 217.460874 
L 158.839465 217.103071 
L 157.954932 216.565886 
L 157.906355 216.545418 
L 156.973244 215.972174 
L 156.414881 215.638796 
L 156.040134 215.466544 
L 155.107023 214.860036 
L 154.864544 214.711706 
L 154.173913 214.337499 
L 153.345965 213.784615 
L 153.240803 213.727318 
L 152.307692 213.057105 
L 152.086384 212.857525 
L 151.374582 212.105119 
L 151.211745 211.930435 
L 150.441472 211.10293 
L 150.348651 211.003344 
L 149.508361 210.098251 
L 149.487886 210.076254 
L 148.613082 209.149164 
L 148.575251 209.103574 
L 147.964045 208.222074 
L 147.64214 207.523909 
L 147.502527 207.294983 
L 146.972902 206.367893 
L 146.70903 205.970715 
L 146.28316 205.440803 
L 145.77592 204.710251 
L 145.613149 204.513712 
L 144.842809 203.768699 
L 144.661297 203.586622 
L 143.909699 202.900072 
L 143.668178 202.659532 
L 142.976589 202.127261 
L 142.525534 201.732441 
L 142.043478 201.220075 
L 141.69567 200.805351 
L 141.141073 199.878261 
L 141.110368 199.838879 
L 140.598635 198.951171 
L 140.177258 198.180976 
L 140.073752 198.02408 
L 139.577047 197.09699 
L 139.244147 196.477903 
L 139.060764 196.1699 
L 138.768627 195.242809 
L 138.523331 194.315719 
L 138.37257 193.388629 
L 138.311037 193.097961 
L 138.235319 192.461538 
L 138.071964 191.534448 
L 137.998909 190.607358 
L 138.227451 189.680268 
L 138.311037 189.388747 
L 138.536382 188.753177 
L 138.796601 187.826087 
L 139.086223 186.898997 
L 139.244147 186.370883 
L 139.373354 185.971906 
L 139.495342 185.044816 
L 139.58016 184.117726 
L 139.677044 183.190635 
L 139.779218 182.263545 
L 139.861459 181.336455 
L 139.939872 180.409365 
L 140.166695 179.482274 
L 140.177258 179.425623 
L 140.46909 178.555184 
L 140.742175 177.628094 
L 141.043614 176.701003 
L 141.110368 176.600183 
L 141.899866 175.773913 
L 142.043478 175.640655 
L 142.976589 174.938311 
L 143.068455 174.846823 
L 143.909699 174.182784 
L 144.248493 173.919732 
L 144.842809 173.423631 
L 145.418576 172.992642 
L 145.77592 172.68163 
L 146.678304 172.065552 
L 146.70903 172.039831 
L 147.64214 171.322893 
L 147.87521 171.138462 
L 148.575251 170.558934 
L 149.508361 170.29829 
L 149.663199 170.211371 
L 150.441472 169.835869 
L 151.374582 169.534362 
L 152.202958 169.284281 
L 152.307692 169.236794 
L 153.240803 168.804449 
L 154.173913 168.550269 
L 154.575021 168.357191 
L 155.107023 167.999601 
L 156.040134 167.580075 
L 156.327924 167.4301 
L 156.973244 167.00078 
L 157.906355 166.597127 
L 158.071012 166.50301 
L 158.839465 165.992823 
L 159.772575 165.613431 
L 159.846964 165.57592 
L 160.705686 165.127936 
L 161.638796 164.822537 
L 162.048838 164.648829 
L 162.571906 164.355962 
L 163.505017 164.048471 
L 164.438127 163.860577 
L 164.867571 163.721739 
L 165.371237 163.524862 
L 166.304348 163.114453 
L 167.082174 162.794649 
L 167.237458 162.706557 
L 168.170569 162.260954 
L 169.005991 161.867559 
L 169.103679 161.803366 
L 170.036789 161.168115 
L 170.362868 160.940468 
L 170.9699 160.475484 
L 171.774348 160.013378 
L 171.90301 159.932991 
L 172.83612 159.456986 
L 173.43352 159.086288 
L 173.769231 158.839734 
L 174.702341 158.298144 
L 174.878098 158.159197 
L 175.635452 157.634726 
L 176.238821 157.232107 
L 176.568562 156.972187 
L 177.458085 156.305017 
L 177.501672 156.269609 
L 178.434783 155.557095 
L 178.648164 155.377926 
L 179.367893 154.806062 
L 179.807207 154.450836 
L 180.301003 154.041168 
L 181.234114 153.624293 
L 181.405699 153.523746 
L 182.167224 153.186394 
L 183.100334 152.740513 
L 183.284434 152.596656 
L 184.033445 152.104521 
L 184.704642 151.669565 
L 184.966555 151.476 
L 185.899666 151.01535 
L 186.491488 150.742475 
L 186.832776 150.573839 
L 187.765886 150.173026 
L 188.575229 149.815385 
L 188.698997 149.753563 
L 189.632107 149.383768 
L 190.565217 149.126824 
L 191.226356 148.888294 
L 191.498328 148.798455 
L 192.431438 148.539302 
L 193.364548 148.422394 
L 194.297659 148.357354 
L 195.230769 148.311651 
L 196.16388 148.205199 
L 197.09699 148.029111 
L 197.362318 147.961204 
L 198.0301 147.850576 
L 198.963211 147.80435 
L 199.896321 147.759447 
L 200.829431 147.715827 
L 201.762542 147.680905 
L 202.695652 147.64523 
L 203.628763 147.723489 
L 204.561873 147.913606 
L 204.754295 147.961204 
L 205.494983 148.139145 
L 206.428094 148.357384 
L 207.361204 148.585712 
L 208.294314 148.807802 
L 208.57723 148.888294 
L 209.227425 149.065687 
L 210.160535 149.334051 
L 211.093645 149.614852 
L 211.777702 149.815385 
L 212.026756 149.907493 
L 212.959866 150.023106 
L 213.892977 150.310314 
L 214.826087 150.664485 
L 215.017771 150.742475 
L 215.759197 151.028898 
L 216.692308 151.390385 
L 217.417607 151.669565 
L 217.625418 151.767262 
L 218.558528 152.171809 
L 219.322631 152.596656 
L 219.491639 152.717575 
L 220.424749 153.246763 
L 220.795907 153.523746 
L 221.35786 154.099603 
L 221.649928 154.450836 
L 222.29097 155.158654 
L 222.487672 155.377926 
L 223.22408 156.207635 
L 223.310759 156.305017 
L 224.110256 157.232107 
L 224.157191 157.278114 
L 224.922637 158.159197 
L 225.090301 158.347217 
L 225.692404 159.086288 
L 226.023411 159.524502 
L 226.362108 160.013378 
L 226.711962 160.940468 
L 226.956522 161.483274 
L 227.111545 161.867559 
L 227.433374 162.794649 
L 227.72376 163.721739 
L 227.889632 164.100226 
L 228.075336 164.648829 
L 228.272183 165.57592 
L 228.505506 166.50301 
L 228.686613 167.4301 
L 228.822742 167.887162 
L 228.936263 168.357191 
L 229.109723 169.284281 
L 229.08153 170.211371 
L 228.822742 170.969091 
L 228.730373 171.138462 
L 228.441559 172.065552 
L 228.082511 172.992642 
L 227.889632 173.427144 
L 227.651417 173.919732 
L 227.387882 174.846823 
L 227.087645 175.773913 
L 226.956522 176.149389 
L 226.757128 176.701003 
L 226.553 177.628094 
L 226.337085 178.555184 
L 226.113843 179.482274 
L 226.023411 179.820698 
L 225.855643 180.409365 
L 225.669849 181.336455 
L 225.463254 182.263545 
L 225.264945 183.190635 
L 225.090301 183.592643 
L 224.866586 184.117726 
L 224.4386 185.044816 
L 224.157191 185.60476 
L 223.970459 185.971906 
L 223.551948 186.898997 
L 223.22408 187.558477 
L 223.07913 187.826087 
L 222.658972 188.753177 
L 222.29097 189.422057 
L 222.134507 189.680268 
L 221.67874 190.607358 
L 221.35786 191.142258 
L 221.131967 191.534448 
L 220.679078 192.461538 
L 220.424749 192.911779 
L 220.186099 193.388629 
L 219.747787 194.315719 
L 219.491639 194.770026 
L 219.251883 195.242809 
L 218.794282 196.1699 
L 218.558528 196.552038 
L 218.268932 197.09699 
L 217.796886 198.02408 
L 217.625418 198.281094 
L 217.273144 198.951171 
L 216.768008 199.878261 
L 216.692308 199.985923 
L 216.211871 200.805351 
L 215.759197 201.516962 
L 215.605682 201.732441 
L 214.987554 202.659532 
L 214.826087 202.943091 
L 214.509331 203.586622 
L 214.077382 204.513712 
L 213.892977 204.925818 
L 213.669889 205.440803 
L 213.261289 206.367893 
L 212.959866 206.945111 
L 212.775101 207.294983 
L 212.285761 208.222074 
L 212.026756 208.692261 
L 211.772243 209.149164 
L 211.236787 210.076254 
L 211.093645 210.283516 
L 210.572696 211.003344 
L 210.160535 211.5731 
L 209.894789 211.930435 
L 209.227425 212.69949 
L 209.056766 212.857525 
L 208.294314 213.560479 
L 208.051296 213.784615 
L 207.361204 214.39486 
L 207.005885 214.711706 
L 206.428094 215.183358 
L 205.890568 215.638796 
L 205.494983 215.895462 
L 204.561873 216.209217 
L 203.628763 216.442289 
L 203.201789 216.565886 
L 202.695652 216.663716 
L 201.762542 216.921371 
L 200.829431 217.160836 
L 199.896321 217.385566 
L 199.560192 217.492977 
L 198.963211 217.661419 
L 198.0301 217.947445 
L 197.09699 218.223241 
L 196.603839 218.420067 
L 196.16388 218.599452 
L 195.230769 218.884334 
L 194.297659 219.056761 
L 193.364548 219.029787 
L 192.431438 219.000078 
L 191.498328 218.982058 
L 190.565217 219.032288 
L 189.632107 219.100205 
L 188.698997 219.160791 
L 187.765886 219.233401 
L 186.832776 219.321987 
L 186.600549 219.347157 
L 185.899666 219.410201 
L 184.966555 219.49417 
L 184.033445 219.573864 
L 183.100334 219.648232 
L 182.167224 219.723656 
L 181.234114 219.808446 
L 180.301003 219.931837 
L 179.367893 220.040496 
L 178.434783 220.149129 
L 177.501672 220.178504 
L 176.568562 220.124465 
L 175.635452 220.086619 
L 174.702341 220.054199 
L 173.769231 220.011519 
L 172.83612 219.972081 
L 171.90301 219.943562 
L 170.9699 219.861907 
L 170.036789 219.753486 
L 169.103679 219.618005 
L 168.170569 219.450903 
z
" clip-path="url(#p5aa45f1eb1)" style="fill: none; stroke: #000000; stroke-width: 1.5"/>
   </g>
   <g id="PathCollection_4">
    <path d="M 168.170569 243.612203 
L 164.438127 242.927708 
L 160.294063 241.597324 
L 156.973244 240.205758 
L 149.508361 238.319236 
L 146.452184 236.961873 
L 142.96218 235.107692 
L 139.244147 232.734997 
L 137.74286 231.399331 
L 129.781131 223.982609 
L 128.979933 222.789227 
L 127.113712 219.297208 
L 125.86674 217.492977 
L 121.038619 211.930435 
L 119.737603 208.222074 
L 118.715719 205.145069 
L 117.06267 201.732441 
L 115.52522 196.1699 
L 115.21072 194.315719 
L 114.983278 193.062608 
L 114.913197 191.534448 
L 114.920341 187.826087 
L 115.011292 185.971906 
L 115.522151 184.117726 
L 116.488858 174.846823 
L 116.600667 173.919732 
L 117.503969 171.138462 
L 118.167876 169.284281 
L 118.715719 168.290814 
L 126.180602 159.874271 
L 131.503208 154.450836 
L 133.807595 152.596656 
L 136.444816 150.276604 
L 137.377926 149.48967 
L 140.177258 148.056593 
L 142.043478 147.211287 
L 146.70903 145.397058 
L 151.374582 143.786451 
L 153.240803 143.062816 
L 155.107023 141.918244 
L 157.106081 140.544482 
L 158.839465 139.263638 
L 165.371237 135.433918 
L 167.237458 134.492629 
L 168.665954 134.054849 
L 169.103679 133.873657 
L 174.962567 130.346488 
L 176.568562 129.797713 
L 178.434783 129.391594 
L 180.301003 129.103741 
L 191.498328 125.882941 
L 198.963211 124.942159 
L 203.694191 124.783946 
L 207.361204 125.016888 
L 211.093645 126.140341 
L 213.892977 126.961487 
L 216.692308 127.356224 
L 219.491639 127.8242 
L 221.35786 128.221496 
L 223.22408 129.048151 
L 226.093818 130.346488 
L 228.171207 131.273579 
L 234.421405 134.360778 
L 236.690633 136.83612 
L 240.953177 141.556363 
L 242.819398 143.393985 
L 245.336489 146.107023 
L 246.551839 148.260585 
L 247.48495 150.232019 
L 249.988637 156.305017 
L 251.77513 162.794649 
L 251.837053 164.648829 
L 251.78286 168.357191 
L 251.366467 170.211371 
L 250.911061 172.065552 
L 250.224781 175.773913 
L 249.848028 178.555184 
L 248.810287 183.190635 
L 248.41806 185.213155 
L 248.077985 188.753177 
L 247.82668 189.680268 
L 246.468624 192.461538 
L 243.988639 197.09699 
L 241.840208 201.732441 
L 239.086957 208.249118 
L 237.220736 212.040693 
L 234.421405 216.855433 
L 232.946746 219.347157 
L 229.755853 224.925918 
L 227.889632 226.863732 
L 224.157191 230.557532 
L 217.625418 235.310596 
L 214.826087 236.366947 
L 202.695652 241.261603 
L 201.762542 241.693779 
L 199.896321 241.963867 
L 184.033445 243.31404 
L 182.167224 243.59042 
L 178.434783 244.210052 
L 177.501672 244.327811 
L 174.702341 244.221017 
L 169.103679 243.777197 
L 168.170569 243.612203 
L 168.170569 243.612203 
" clip-path="url(#p5aa45f1eb1)" style="fill: none; stroke: #000000; stroke-width: 1.5"/>
   </g>
   <g id="patch_3">
    <path d="M 45 320.4 
L 45 43.2 
" style="fill: none; stroke: #000000; stroke-width: 0.8; stroke-linejoin: miter; stroke-linecap: square"/>
   </g>
   <g id="patch_4">
    <path d="M 324 320.4 
L 324 43.2 
" style="fill: none; stroke: #000000; stroke-width: 0.8; stroke-linejoin: miter; stroke-linecap: square"/>
   </g>
   <g id="patch_5">
    <path d="M 45 320.4 
L 324 320.4 
" style="fill: none; stroke: #000000; stroke-width: 0.8; stroke-linejoin: miter; stroke-linecap: square"/>
   </g>
   <g id="patch_6">
    <path d="M 45 43.2 
L 324 43.2 
" style="fill: none; stroke: #000000; stroke-width: 0.8; stroke-linejoin: miter; stroke-linecap: square"/>
   </g>
  </g>
 </g>
 <defs>
  <clipPath id="p5aa45f1eb1">
   <rect x="45" y="43.2" width="279" height="277.2"/>
  </clipPath>
 </defs>
</svg>
