<?xml version="1.0" encoding="utf-8" standalone="no"?>
<!DOCTYPE svg PUBLIC "-//W3C//DTD SVG 1.1//EN"
  "http://www.w3.org/Graphics/SVG/1.1/DTD/svg11.dtd">
<svg xmlns:xlink="http://www.w3.org/1999/xlink" width="360pt" height="360pt" viewBox="0 0 360 360" xmlns="http://www.w3.org/2000/svg" version="1.1">
 <metadata>
  <rdf:RDF xmlns:dc="http://purl.org/dc/elements/1.1/" xmlns:cc="http://creativecommons.org/ns#" xmlns:rdf="http://www.w3.org/1999/02/22-rdf-syntax-ns#">
   <cc:Work>
    <dc:type rdf:resource="http://purl.org/dc/dcmitype/StillImage"/>
    <dc:date>2022-04-10T19:53:29.921334</dc:date>
    <dc:format>image/svg+xml</dc:format>
    <dc:creator>
     <cc:Agent>
      <dc:title>Matplotlib v3.5.1, https://matplotlib.org/</dc:title>
     </cc:Agent>
    </dc:creator>
   </cc:Work>
  </rdf:RDF>
 </metadata>
 <defs>
  <style type="text/css">*{stroke-linejoin: round; stroke-linecap: butt}</style>
 </defs>
 <g id="figure_1">
  <g id="patch_1">
   <path d="M 0 360 
L 360 360 
L 360 0 
L 0 0 
z
" style="fill: #ffffff"/>
  </g>
  <g id="axes_1">
   <g id="patch_2">
    <path d="M 45 320.4 
L 324 320.4 
L 324 43.2 
L 45 43.2 
z
" style="fill: #ffffff"/>
   </g>
   <g id="PathCollection_1">
    <defs>
     <path id="mc527033da0" d="M 0 0.5 
C 0.132602 0.5 0.25979 0.447317 0.353553 0.353553 
C 0.447317 0.25979 0.5 0.132602 0.5 0 
C 0.5 -0.132602 0.447317 -0.25979 0.353553 -0.353553 
C 0.25979 -0.447317 0.132602 -0.5 0 -0.5 
C -0.132602 -0.5 -0.25979 -0.447317 -0.353553 -0.353553 
C -0.447317 -0.25979 -0.5 -0.132602 -0.5 0 
C -0.5 0.132602 -0.447317 0.25979 -0.353553 0.353553 
C -0.25979 0.447317 -0.132602 0.5 0 0.5 
z
" style="stroke: #ff0000"/>
    </defs>
    <g clip-path="url(#p2aa0e72591)">
     <use xlink:href="#mc527033da0" x="232.420652" y="181.336455" style="fill: #ff0000; stroke: #ff0000"/>
     <use xlink:href="#mc527033da0" x="233.124542" y="176.623908" style="fill: #ff0000; stroke: #ff0000"/>
     <use xlink:href="#mc527033da0" x="233.752097" y="171.695014" style="fill: #ff0000; stroke: #ff0000"/>
     <use xlink:href="#mc527033da0" x="234.280152" y="166.473849" style="fill: #ff0000; stroke: #ff0000"/>
     <use xlink:href="#mc527033da0" x="234.557986" y="160.927537" style="fill: #ff0000; stroke: #ff0000"/>
     <use xlink:href="#mc527033da0" x="234.317579" y="155.127968" style="fill: #ff0000; stroke: #ff0000"/>
     <use xlink:href="#mc527033da0" x="233.234839" y="149.292695" style="fill: #ff0000; stroke: #ff0000"/>
     <use xlink:href="#mc527033da0" x="231.031696" y="143.775672" style="fill: #ff0000; stroke: #ff0000"/>
     <use xlink:href="#mc527033da0" x="227.580747" y="138.997193" style="fill: #ff0000; stroke: #ff0000"/>
     <use xlink:href="#mc527033da0" x="222.964227" y="135.33487" style="fill: #ff0000; stroke: #ff0000"/>
     <use xlink:href="#mc527033da0" x="217.460182" y="133.020048" style="fill: #ff0000; stroke: #ff0000"/>
     <use xlink:href="#mc527033da0" x="211.46593" y="132.079462" style="fill: #ff0000; stroke: #ff0000"/>
     <use xlink:href="#mc527033da0" x="205.394511" y="132.337185" style="fill: #ff0000; stroke: #ff0000"/>
     <use xlink:href="#mc527033da0" x="199.581816" y="133.467235" style="fill: #ff0000; stroke: #ff0000"/>
     <use xlink:href="#mc527033da0" x="194.228448" y="135.07418" style="fill: #ff0000; stroke: #ff0000"/>
     <use xlink:href="#mc527033da0" x="189.38388" y="136.775953" style="fill: #ff0000; stroke: #ff0000"/>
     <use xlink:href="#mc527033da0" x="184.966555" y="138.268175" style="fill: #ff0000; stroke: #ff0000"/>
     <use xlink:href="#mc527033da0" x="180.805677" y="139.362906" style="fill: #ff0000; stroke: #ff0000"/>
     <use xlink:href="#mc527033da0" x="176.69271" y="140.009382" style="fill: #ff0000; stroke: #ff0000"/>
     <use xlink:href="#mc527033da0" x="172.438883" y="140.304696" style="fill: #ff0000; stroke: #ff0000"/>
     <use xlink:href="#mc527033da0" x="167.93581" y="140.485863" style="fill: #ff0000; stroke: #ff0000"/>
     <use xlink:href="#mc527033da0" x="163.202748" y="140.881928" style="fill: #ff0000; stroke: #ff0000"/>
     <use xlink:href="#mc527033da0" x="158.390706" y="141.819489" style="fill: #ff0000; stroke: #ff0000"/>
     <use xlink:href="#mc527033da0" x="153.724402" y="143.513385" style="fill: #ff0000; stroke: #ff0000"/>
     <use xlink:href="#mc527033da0" x="149.402354" y="146.0017" style="fill: #ff0000; stroke: #ff0000"/>
     <use xlink:href="#mc527033da0" x="145.51424" y="149.167665" style="fill: #ff0000; stroke: #ff0000"/>
     <use xlink:href="#mc527033da0" x="142.034116" y="152.834991" style="fill: #ff0000; stroke: #ff0000"/>
     <use xlink:href="#mc527033da0" x="138.89806" y="156.871197" style="fill: #ff0000; stroke: #ff0000"/>
     <use xlink:href="#mc527033da0" x="136.110999" y="161.23038" style="fill: #ff0000; stroke: #ff0000"/>
     <use xlink:href="#mc527033da0" x="133.803107" y="165.916323" style="fill: #ff0000; stroke: #ff0000"/>
     <use xlink:href="#mc527033da0" x="132.193347" y="170.906935" style="fill: #ff0000; stroke: #ff0000"/>
     <use xlink:href="#mc527033da0" x="131.485679" y="176.103032" style="fill: #ff0000; stroke: #ff0000"/>
     <use xlink:href="#mc527033da0" x="131.766919" y="181.336455" style="fill: #ff0000; stroke: #ff0000"/>
     <use xlink:href="#mc527033da0" x="132.964809" y="186.425136" style="fill: #ff0000; stroke: #ff0000"/>
     <use xlink:href="#mc527033da0" x="134.879263" y="191.235159" style="fill: #ff0000; stroke: #ff0000"/>
     <use xlink:href="#mc527033da0" x="137.259162" y="195.714967" style="fill: #ff0000; stroke: #ff0000"/>
     <use xlink:href="#mc527033da0" x="139.884588" y="199.889542" style="fill: #ff0000; stroke: #ff0000"/>
     <use xlink:href="#mc527033da0" x="142.623995" y="203.823008" style="fill: #ff0000; stroke: #ff0000"/>
     <use xlink:href="#mc527033da0" x="145.450974" y="207.569577" style="fill: #ff0000; stroke: #ff0000"/>
     <use xlink:href="#mc527033da0" x="148.419465" y="211.136371" style="fill: #ff0000; stroke: #ff0000"/>
     <use xlink:href="#mc527033da0" x="151.610568" y="214.477242" style="fill: #ff0000; stroke: #ff0000"/>
     <use xlink:href="#mc527033da0" x="155.076523" y="217.52259" style="fill: #ff0000; stroke: #ff0000"/>
     <use xlink:href="#mc527033da0" x="158.809922" y="220.230067" style="fill: #ff0000; stroke: #ff0000"/>
     <use xlink:href="#mc527033da0" x="162.753555" y="222.625941" style="fill: #ff0000; stroke: #ff0000"/>
     <use xlink:href="#mc527033da0" x="166.84335" y="224.807464" style="fill: #ff0000; stroke: #ff0000"/>
     <use xlink:href="#mc527033da0" x="171.056806" y="226.894917" style="fill: #ff0000; stroke: #ff0000"/>
     <use xlink:href="#mc527033da0" x="175.434248" y="228.949426" style="fill: #ff0000; stroke: #ff0000"/>
     <use xlink:href="#mc527033da0" x="180.053735" y="230.895347" style="fill: #ff0000; stroke: #ff0000"/>
     <use xlink:href="#mc527033da0" x="184.966555" y="232.491984" style="fill: #ff0000; stroke: #ff0000"/>
     <use xlink:href="#mc527033da0" x="190.126012" y="233.383328" style="fill: #ff0000; stroke: #ff0000"/>
     <use xlink:href="#mc527033da0" x="195.353662" y="233.219069" style="fill: #ff0000; stroke: #ff0000"/>
     <use xlink:href="#mc527033da0" x="200.373641" y="231.79913" style="fill: #ff0000; stroke: #ff0000"/>
     <use xlink:href="#mc527033da0" x="204.908961" y="229.171066" style="fill: #ff0000; stroke: #ff0000"/>
     <use xlink:href="#mc527033da0" x="208.793403" y="225.625758" style="fill: #ff0000; stroke: #ff0000"/>
     <use xlink:href="#mc527033da0" x="212.037146" y="221.589076" style="fill: #ff0000; stroke: #ff0000"/>
     <use xlink:href="#mc527033da0" x="214.808398" y="217.464249" style="fill: #ff0000; stroke: #ff0000"/>
     <use xlink:href="#mc527033da0" x="217.342131" y="213.503156" style="fill: #ff0000; stroke: #ff0000"/>
     <use xlink:href="#mc527033da0" x="219.8269" y="209.761025" style="fill: #ff0000; stroke: #ff0000"/>
     <use xlink:href="#mc527033da0" x="222.327421" y="206.139131" style="fill: #ff0000; stroke: #ff0000"/>
     <use xlink:href="#mc527033da0" x="224.775563" y="202.477533" style="fill: #ff0000; stroke: #ff0000"/>
     <use xlink:href="#mc527033da0" x="227.024949" y="198.645217" style="fill: #ff0000; stroke: #ff0000"/>
     <use xlink:href="#mc527033da0" x="228.934621" y="194.587973" style="fill: #ff0000; stroke: #ff0000"/>
     <use xlink:href="#mc527033da0" x="230.437769" y="190.322888" style="fill: #ff0000; stroke: #ff0000"/>
     <use xlink:href="#mc527033da0" x="231.565279" y="185.896418" style="fill: #ff0000; stroke: #ff0000"/>
    </g>
   </g>
   <g id="matplotlib.axis_1">
    <g id="xtick_1">
     <g id="line2d_1">
      <defs>
       <path id="m6556a49053" d="M 0 0 
L 0 3.5 
" style="stroke: #000000; stroke-width: 0.8"/>
      </defs>
      <g>
       <use xlink:href="#m6556a49053" x="45" y="320.4" style="stroke: #000000; stroke-width: 0.8"/>
      </g>
     </g>
     <g id="text_1">
      <!-- −3 -->
      <g transform="translate(37.628906 334.998438)scale(0.1 -0.1)">
       <defs>
        <path id="DejaVuSans-2212" d="M 678 2272 
L 4684 2272 
L 4684 1741 
L 678 1741 
L 678 2272 
z
" transform="scale(0.015625)"/>
        <path id="DejaVuSans-33" d="M 2597 2516 
Q 3050 2419 3304 2112 
Q 3559 1806 3559 1356 
Q 3559 666 3084 287 
Q 2609 -91 1734 -91 
Q 1441 -91 1130 -33 
Q 819 25 488 141 
L 488 750 
Q 750 597 1062 519 
Q 1375 441 1716 441 
Q 2309 441 2620 675 
Q 2931 909 2931 1356 
Q 2931 1769 2642 2001 
Q 2353 2234 1838 2234 
L 1294 2234 
L 1294 2753 
L 1863 2753 
Q 2328 2753 2575 2939 
Q 2822 3125 2822 3475 
Q 2822 3834 2567 4026 
Q 2313 4219 1838 4219 
Q 1578 4219 1281 4162 
Q 984 4106 628 3988 
L 628 4550 
Q 988 4650 1302 4700 
Q 1616 4750 1894 4750 
Q 2613 4750 3031 4423 
Q 3450 4097 3450 3541 
Q 3450 3153 3228 2886 
Q 3006 2619 2597 2516 
z
" transform="scale(0.015625)"/>
       </defs>
       <use xlink:href="#DejaVuSans-2212"/>
       <use xlink:href="#DejaVuSans-33" x="83.789062"/>
      </g>
     </g>
    </g>
    <g id="xtick_2">
     <g id="line2d_2">
      <g>
       <use xlink:href="#m6556a49053" x="91.655518" y="320.4" style="stroke: #000000; stroke-width: 0.8"/>
      </g>
     </g>
     <g id="text_2">
      <!-- −2 -->
      <g transform="translate(84.284425 334.998438)scale(0.1 -0.1)">
       <defs>
        <path id="DejaVuSans-32" d="M 1228 531 
L 3431 531 
L 3431 0 
L 469 0 
L 469 531 
Q 828 903 1448 1529 
Q 2069 2156 2228 2338 
Q 2531 2678 2651 2914 
Q 2772 3150 2772 3378 
Q 2772 3750 2511 3984 
Q 2250 4219 1831 4219 
Q 1534 4219 1204 4116 
Q 875 4013 500 3803 
L 500 4441 
Q 881 4594 1212 4672 
Q 1544 4750 1819 4750 
Q 2544 4750 2975 4387 
Q 3406 4025 3406 3419 
Q 3406 3131 3298 2873 
Q 3191 2616 2906 2266 
Q 2828 2175 2409 1742 
Q 1991 1309 1228 531 
z
" transform="scale(0.015625)"/>
       </defs>
       <use xlink:href="#DejaVuSans-2212"/>
       <use xlink:href="#DejaVuSans-32" x="83.789062"/>
      </g>
     </g>
    </g>
    <g id="xtick_3">
     <g id="line2d_3">
      <g>
       <use xlink:href="#m6556a49053" x="138.311037" y="320.4" style="stroke: #000000; stroke-width: 0.8"/>
      </g>
     </g>
     <g id="text_3">
      <!-- −1 -->
      <g transform="translate(130.939943 334.998438)scale(0.1 -0.1)">
       <defs>
        <path id="DejaVuSans-31" d="M 794 531 
L 1825 531 
L 1825 4091 
L 703 3866 
L 703 4441 
L 1819 4666 
L 2450 4666 
L 2450 531 
L 3481 531 
L 3481 0 
L 794 0 
L 794 531 
z
" transform="scale(0.015625)"/>
       </defs>
       <use xlink:href="#DejaVuSans-2212"/>
       <use xlink:href="#DejaVuSans-31" x="83.789062"/>
      </g>
     </g>
    </g>
    <g id="xtick_4">
     <g id="line2d_4">
      <g>
       <use xlink:href="#m6556a49053" x="184.966555" y="320.4" style="stroke: #000000; stroke-width: 0.8"/>
      </g>
     </g>
     <g id="text_4">
      <!-- 0 -->
      <g transform="translate(181.785305 334.998438)scale(0.1 -0.1)">
       <defs>
        <path id="DejaVuSans-30" d="M 2034 4250 
Q 1547 4250 1301 3770 
Q 1056 3291 1056 2328 
Q 1056 1369 1301 889 
Q 1547 409 2034 409 
Q 2525 409 2770 889 
Q 3016 1369 3016 2328 
Q 3016 3291 2770 3770 
Q 2525 4250 2034 4250 
z
M 2034 4750 
Q 2819 4750 3233 4129 
Q 3647 3509 3647 2328 
Q 3647 1150 3233 529 
Q 2819 -91 2034 -91 
Q 1250 -91 836 529 
Q 422 1150 422 2328 
Q 422 3509 836 4129 
Q 1250 4750 2034 4750 
z
" transform="scale(0.015625)"/>
       </defs>
       <use xlink:href="#DejaVuSans-30"/>
      </g>
     </g>
    </g>
    <g id="xtick_5">
     <g id="line2d_5">
      <g>
       <use xlink:href="#m6556a49053" x="231.622074" y="320.4" style="stroke: #000000; stroke-width: 0.8"/>
      </g>
     </g>
     <g id="text_5">
      <!-- 1 -->
      <g transform="translate(228.440824 334.998438)scale(0.1 -0.1)">
       <use xlink:href="#DejaVuSans-31"/>
      </g>
     </g>
    </g>
    <g id="xtick_6">
     <g id="line2d_6">
      <g>
       <use xlink:href="#m6556a49053" x="278.277592" y="320.4" style="stroke: #000000; stroke-width: 0.8"/>
      </g>
     </g>
     <g id="text_6">
      <!-- 2 -->
      <g transform="translate(275.096342 334.998438)scale(0.1 -0.1)">
       <use xlink:href="#DejaVuSans-32"/>
      </g>
     </g>
    </g>
   </g>
   <g id="matplotlib.axis_2">
    <g id="ytick_1">
     <g id="line2d_7">
      <defs>
       <path id="m0283023680" d="M 0 0 
L -3.5 0 
" style="stroke: #000000; stroke-width: 0.8"/>
      </defs>
      <g>
       <use xlink:href="#m0283023680" x="45" y="320.4" style="stroke: #000000; stroke-width: 0.8"/>
      </g>
     </g>
     <g id="text_7">
      <!-- −3 -->
      <g transform="translate(23.257812 324.199219)scale(0.1 -0.1)">
       <use xlink:href="#DejaVuSans-2212"/>
       <use xlink:href="#DejaVuSans-33" x="83.789062"/>
      </g>
     </g>
    </g>
    <g id="ytick_2">
     <g id="line2d_8">
      <g>
       <use xlink:href="#m0283023680" x="45" y="274.045485" style="stroke: #000000; stroke-width: 0.8"/>
      </g>
     </g>
     <g id="text_8">
      <!-- −2 -->
      <g transform="translate(23.257812 277.844704)scale(0.1 -0.1)">
       <use xlink:href="#DejaVuSans-2212"/>
       <use xlink:href="#DejaVuSans-32" x="83.789062"/>
      </g>
     </g>
    </g>
    <g id="ytick_3">
     <g id="line2d_9">
      <g>
       <use xlink:href="#m0283023680" x="45" y="227.69097" style="stroke: #000000; stroke-width: 0.8"/>
      </g>
     </g>
     <g id="text_9">
      <!-- −1 -->
      <g transform="translate(23.257812 231.490189)scale(0.1 -0.1)">
       <use xlink:href="#DejaVuSans-2212"/>
       <use xlink:href="#DejaVuSans-31" x="83.789062"/>
      </g>
     </g>
    </g>
    <g id="ytick_4">
     <g id="line2d_10">
      <g>
       <use xlink:href="#m0283023680" x="45" y="181.336455" style="stroke: #000000; stroke-width: 0.8"/>
      </g>
     </g>
     <g id="text_10">
      <!-- 0 -->
      <g transform="translate(31.6375 185.135674)scale(0.1 -0.1)">
       <use xlink:href="#DejaVuSans-30"/>
      </g>
     </g>
    </g>
    <g id="ytick_5">
     <g id="line2d_11">
      <g>
       <use xlink:href="#m0283023680" x="45" y="134.98194" style="stroke: #000000; stroke-width: 0.8"/>
      </g>
     </g>
     <g id="text_11">
      <!-- 1 -->
      <g transform="translate(31.6375 138.781159)scale(0.1 -0.1)">
       <use xlink:href="#DejaVuSans-31"/>
      </g>
     </g>
    </g>
    <g id="ytick_6">
     <g id="line2d_12">
      <g>
       <use xlink:href="#m0283023680" x="45" y="88.627425" style="stroke: #000000; stroke-width: 0.8"/>
      </g>
     </g>
     <g id="text_12">
      <!-- 2 -->
      <g transform="translate(31.6375 92.426643)scale(0.1 -0.1)">
       <use xlink:href="#DejaVuSans-32"/>
      </g>
     </g>
    </g>
   </g>
   <g id="PathCollection_2">
    <path d="M 188.698997 209.256841 
L 188.241488 209.149164 
L 187.765886 209.038046 
L 186.832776 208.595891 
L 186.153372 208.222074 
L 185.899666 208.081443 
L 184.966555 207.579168 
L 184.471306 207.294983 
L 184.033445 207.033138 
L 183.100334 206.595947 
L 182.487479 206.367893 
L 182.167224 206.246551 
L 181.234114 205.770241 
L 180.652133 205.440803 
L 180.301003 205.225435 
L 179.367893 204.676759 
L 179.090609 204.513712 
L 178.434783 204.128074 
L 177.513505 203.586622 
L 177.501672 203.579708 
L 176.568562 203.067744 
L 175.635452 202.708135 
L 175.483849 202.659532 
L 174.702341 202.420306 
L 173.769231 202.100444 
L 172.934006 201.732441 
L 172.83612 201.689658 
L 171.90301 201.168057 
L 171.435706 200.805351 
L 170.9699 200.431044 
L 170.320853 199.878261 
L 170.036789 199.636325 
L 169.246906 198.951171 
L 169.103679 198.828778 
L 168.170569 198.177662 
L 167.911863 198.02408 
L 167.237458 197.530052 
L 166.646284 197.09699 
L 166.304348 196.846508 
L 165.607545 196.1699 
L 165.371237 195.877386 
L 164.973269 195.242809 
L 164.438127 194.389512 
L 164.391848 194.315719 
L 163.810434 193.388629 
L 163.505017 192.901631 
L 163.229014 192.461538 
L 162.642691 191.534448 
L 162.571906 191.420624 
L 162.061529 190.607358 
L 161.638796 189.960557 
L 161.43436 189.680268 
L 160.705686 188.8457 
L 160.618796 188.753177 
L 159.840954 187.826087 
L 159.772575 187.709928 
L 159.318137 186.898997 
L 158.975685 185.971906 
L 158.839465 185.603126 
L 158.635104 185.044816 
L 158.29664 184.117726 
L 157.959258 183.190635 
L 157.906355 183.044991 
L 157.622585 182.263545 
L 157.285936 181.336455 
L 156.973244 180.475353 
L 156.949161 180.409365 
L 156.722433 179.482274 
L 156.65319 178.555184 
L 156.583946 177.628094 
L 156.509117 176.701003 
L 156.380917 175.773913 
L 156.384953 174.846823 
L 156.458028 173.919732 
L 156.501176 172.992642 
L 156.545103 172.065552 
L 156.708379 171.138462 
L 156.973244 170.802248 
L 157.815814 170.211371 
L 157.906355 170.14425 
L 158.680623 169.284281 
L 158.839465 169.068035 
L 159.347433 168.357191 
L 159.772575 167.762473 
L 160.036785 167.4301 
L 160.705686 166.752853 
L 161.017352 166.50301 
L 161.638796 166.012133 
L 162.279759 165.57592 
L 162.571906 165.410541 
L 163.505017 164.980782 
L 164.223198 164.648829 
L 164.438127 164.529277 
L 165.371237 164.020467 
L 166.304348 163.732572 
L 166.357865 163.721739 
L 167.237458 163.571851 
L 168.170569 163.441389 
L 169.103679 163.332662 
L 170.036789 163.233996 
L 170.9699 163.134588 
L 171.90301 163.016832 
L 172.83612 162.881497 
L 173.353718 162.794649 
L 173.769231 162.725312 
L 174.702341 162.604753 
L 175.635452 162.632656 
L 176.568562 162.743202 
L 177.000492 162.794649 
L 177.501672 162.857886 
L 178.434783 162.970928 
L 179.367893 163.003348 
L 180.301003 163.027704 
L 181.234114 162.91636 
L 182.167224 162.855112 
L 183.100334 162.869857 
L 184.033445 162.841872 
L 184.495766 162.794649 
L 184.966555 162.746561 
L 185.899666 162.651249 
L 186.832776 162.555155 
L 187.765886 162.375465 
L 188.698997 161.995582 
L 188.962817 161.867559 
L 189.632107 161.522117 
L 190.565217 160.978064 
L 190.628266 160.940468 
L 191.498328 160.421224 
L 192.181719 160.013378 
L 192.431438 159.864344 
L 193.364548 159.307457 
L 193.73514 159.086288 
L 194.297659 158.750572 
L 195.230769 158.242223 
L 195.387254 158.159197 
L 196.16388 157.747621 
L 197.09699 157.323611 
L 197.319523 157.232107 
L 198.0301 156.944372 
L 198.963211 156.567283 
L 199.611195 156.305017 
L 199.896321 156.189407 
L 200.829431 155.894596 
L 201.762542 155.613597 
L 202.572947 155.377926 
L 202.695652 155.343225 
L 203.628763 155.294667 
L 204.153561 155.377926 
L 204.561873 155.448087 
L 205.494983 155.632193 
L 206.428094 155.851 
L 207.361204 156.283011 
L 207.382934 156.305017 
L 208.024017 157.232107 
L 208.294314 157.61538 
L 208.690272 158.159197 
L 209.227425 158.864126 
L 209.375636 159.086288 
L 209.954303 160.013378 
L 210.160535 160.346291 
L 210.524814 160.940468 
L 210.675248 161.867559 
L 210.662146 162.794649 
L 210.639499 163.721739 
L 210.6115 164.648829 
L 210.52342 165.57592 
L 210.357839 166.50301 
L 210.193255 167.4301 
L 210.160535 167.618055 
L 210.031867 168.357191 
L 209.87048 169.284281 
L 209.709098 170.211371 
L 209.547714 171.138462 
L 209.467133 172.065552 
L 209.546862 172.992642 
L 209.341612 173.919732 
L 209.227425 174.384698 
L 209.115295 174.846823 
L 208.904345 175.773913 
L 208.693403 176.701003 
L 208.482446 177.628094 
L 208.294314 178.206411 
L 208.168386 178.555184 
L 207.978688 179.482274 
L 207.883623 180.409365 
L 207.664702 181.336455 
L 207.361204 181.814509 
L 207.101439 182.263545 
L 206.550962 183.190635 
L 206.428094 183.395993 
L 205.996267 184.117726 
L 205.567338 185.044816 
L 205.494983 185.24012 
L 205.223488 185.971906 
L 204.879164 186.898997 
L 204.561873 187.753291 
L 204.534377 187.826087 
L 204.14703 188.753177 
L 203.745879 189.680268 
L 203.628763 189.902105 
L 203.209322 190.607358 
L 202.707498 191.534448 
L 202.695652 191.557273 
L 202.226351 192.461538 
L 201.762542 193.357549 
L 201.746466 193.388629 
L 201.30818 194.315719 
L 200.978759 195.242809 
L 200.829431 195.520271 
L 200.42365 196.1699 
L 199.896321 196.876681 
L 199.736412 197.09699 
L 199.157173 198.02408 
L 198.963211 198.344361 
L 198.602012 198.951171 
L 198.040298 199.878261 
L 198.0301 199.893343 
L 197.419691 200.805351 
L 197.09699 201.287546 
L 196.795448 201.732441 
L 196.194789 202.659532 
L 196.16388 202.709137 
L 195.520605 203.586622 
L 195.230769 203.886087 
L 194.666186 204.513712 
L 194.297659 204.923295 
L 193.830742 205.440803 
L 193.364548 205.958903 
L 192.991956 206.367893 
L 192.431438 206.991694 
L 192.154219 207.294983 
L 191.498328 207.928572 
L 190.964586 208.222074 
L 190.565217 208.442397 
L 189.632107 208.956969 
L 189.090312 209.149164 
L 188.698997 209.256841 
z
" clip-path="url(#p2aa0e72591)" style="fill: none; stroke-dasharray: 5.55,2.4; stroke-dashoffset: 0; stroke: #000000; stroke-width: 1.5"/>
   </g>
   <g id="PathCollection_3">
    <path d="M 185.899666 233.294015 
L 185.098832 233.253512 
L 184.966555 233.220176 
L 184.033445 233.073234 
L 183.100334 232.975417 
L 182.167224 232.870831 
L 181.234114 232.64159 
L 180.382376 232.326421 
L 180.301003 232.283692 
L 179.367893 231.997998 
L 178.434783 231.638139 
L 177.68195 231.399331 
L 177.501672 231.314777 
L 176.568562 230.872455 
L 175.769343 230.472241 
L 175.635452 230.388921 
L 174.702341 230.044949 
L 173.769231 229.663708 
L 173.40915 229.545151 
L 172.83612 229.314997 
L 171.90301 228.983353 
L 171.060762 228.61806 
L 170.9699 228.568934 
L 170.036789 228.090944 
L 169.448164 227.69097 
L 169.103679 227.477557 
L 168.170569 226.822778 
L 168.082667 226.76388 
L 167.237458 226.231306 
L 166.726373 225.836789 
L 166.304348 225.536256 
L 165.543756 224.909699 
L 165.371237 224.781941 
L 164.448906 223.982609 
L 164.438127 223.973135 
L 163.505017 223.203952 
L 163.324357 223.055518 
L 162.571906 222.438449 
L 162.199581 222.128428 
L 161.638796 221.658771 
L 161.101156 221.201338 
L 160.705686 220.866233 
L 160.00835 220.274247 
L 159.772575 220.074403 
L 158.925774 219.347157 
L 158.839465 219.267945 
L 157.915663 218.420067 
L 157.906355 218.411681 
L 156.973244 217.559107 
L 156.901173 217.492977 
L 156.040134 216.7229 
L 155.850985 216.565886 
L 155.107023 215.958982 
L 154.750815 215.638796 
L 154.173913 215.148664 
L 153.697189 214.711706 
L 153.240803 214.315752 
L 152.649916 213.784615 
L 152.307692 213.53236 
L 151.533789 212.857525 
L 151.374582 212.740864 
L 150.447676 211.930435 
L 150.441472 211.924505 
L 149.508361 211.073131 
L 149.434417 211.003344 
L 148.575251 210.411163 
L 148.194999 210.076254 
L 147.64214 209.675753 
L 147.053242 209.149164 
L 146.70903 208.869776 
L 146.031088 208.222074 
L 145.77592 208.00028 
L 145.051865 207.294983 
L 144.842809 206.92603 
L 144.49526 206.367893 
L 143.964089 205.440803 
L 143.909699 205.386734 
L 143.223257 204.513712 
L 142.976589 204.200637 
L 142.478677 203.586622 
L 142.043478 202.975221 
L 141.788705 202.659532 
L 141.190826 201.732441 
L 141.110368 201.630301 
L 140.54729 200.805351 
L 140.177258 200.246942 
L 139.911576 199.878261 
L 139.347408 198.951171 
L 139.244147 198.817503 
L 138.710759 198.02408 
L 138.311037 197.410304 
L 138.086991 197.09699 
L 137.505448 196.1699 
L 137.377926 196.001394 
L 136.852563 195.242809 
L 136.444816 194.627756 
L 136.231935 194.315719 
L 135.768034 193.388629 
L 135.511706 192.613132 
L 135.494343 192.461538 
L 135.202024 191.534448 
L 134.955638 190.607358 
L 134.726119 189.680268 
L 134.578595 189.228802 
L 134.532291 188.753177 
L 134.127808 187.826087 
L 133.664159 186.898997 
L 133.645485 186.87736 
L 133.153333 185.971906 
L 132.838744 185.044816 
L 132.712375 184.808407 
L 132.657366 184.117726 
L 132.132709 183.190635 
L 131.91047 182.263545 
L 131.779264 181.870084 
L 131.766816 181.336455 
L 131.525399 180.409365 
L 131.415635 179.482274 
L 131.374134 178.555184 
L 131.32106 177.628094 
L 131.30476 176.701003 
L 131.30869 175.773913 
L 131.313534 174.846823 
L 131.501135 173.919732 
L 131.329131 172.992642 
L 131.210676 172.065552 
L 131.12286 171.138462 
L 131.131344 170.211371 
L 131.365714 169.284281 
L 131.769678 168.357191 
L 131.779264 168.027479 
L 132.024693 167.4301 
L 132.304625 166.50301 
L 132.707624 165.57592 
L 132.712375 165.485124 
L 133.058335 164.648829 
L 133.515538 163.721739 
L 133.645485 163.22497 
L 133.852993 162.794649 
L 134.204732 161.867559 
L 134.578595 161.322072 
L 134.874414 160.940468 
L 135.511706 160.169457 
L 135.655177 160.013378 
L 136.424708 159.086288 
L 136.444816 159.04135 
L 137.157885 158.159197 
L 137.377926 157.814287 
L 137.720572 157.232107 
L 138.294324 156.305017 
L 138.311037 156.230652 
L 138.828496 155.377926 
L 139.244147 154.845002 
L 139.57594 154.450836 
L 140.177258 153.740209 
L 140.37269 153.523746 
L 141.110368 152.698838 
L 141.213234 152.596656 
L 142.043478 151.700139 
L 142.074257 151.669565 
L 142.934332 150.742475 
L 142.976589 150.696901 
L 143.804173 149.815385 
L 143.909699 149.701321 
L 144.702324 148.888294 
L 144.842809 148.747127 
L 145.77592 148.166752 
L 146.170584 147.961204 
L 146.70903 147.66034 
L 147.64214 147.246094 
L 148.05462 147.034114 
L 148.575251 146.742674 
L 149.508361 146.316229 
L 149.822874 146.107023 
L 150.441472 145.675809 
L 151.365164 145.179933 
L 151.374582 145.173958 
L 152.307692 144.70782 
L 153.240803 144.275884 
L 153.276573 144.252843 
L 154.173913 143.804683 
L 155.107023 143.37137 
L 155.180709 143.325753 
L 156.040134 142.895833 
L 156.973244 142.450936 
L 157.057475 142.398662 
L 157.906355 141.967209 
L 158.839465 141.620475 
L 159.355382 141.471572 
L 159.772575 141.35914 
L 160.705686 141.313731 
L 161.638796 141.270542 
L 162.571906 141.230849 
L 163.505017 141.200215 
L 164.438127 141.170694 
L 165.371237 141.135641 
L 166.304348 141.084533 
L 167.237458 141.028617 
L 168.170569 140.961547 
L 169.103679 140.894477 
L 170.036789 140.835629 
L 170.9699 140.784806 
L 171.90301 140.773956 
L 172.83612 140.692302 
L 173.769231 140.573073 
L 173.95926 140.544482 
L 174.702341 140.44928 
L 175.635452 140.338747 
L 176.568562 140.197406 
L 177.501672 139.968772 
L 178.434783 139.747516 
L 178.88543 139.617391 
L 179.367893 139.488715 
L 180.301003 139.268699 
L 181.234114 139.050408 
L 182.167224 138.758317 
L 182.318161 138.690301 
L 183.100334 138.389126 
L 184.033445 137.97195 
L 184.408591 137.763211 
L 184.966555 137.458715 
L 185.899666 136.954668 
L 186.086218 136.83612 
L 186.832776 136.431566 
L 187.765886 135.931783 
L 187.798872 135.90903 
L 188.698997 135.480989 
L 189.632107 135.126729 
L 189.939017 134.98194 
L 190.565217 134.723651 
L 191.498328 134.338809 
L 192.20355 134.054849 
L 192.431438 133.96601 
L 193.364548 133.743149 
L 194.297659 133.531391 
L 195.230769 133.339967 
L 196.123851 133.127759 
L 196.16388 133.122036 
L 197.09699 132.932522 
L 198.0301 132.761638 
L 198.963211 132.589595 
L 199.896321 132.436452 
L 200.829431 132.265428 
L 201.166748 132.200669 
L 201.762542 132.121741 
L 202.695652 131.982511 
L 203.628763 131.84672 
L 204.561873 131.710934 
L 205.494983 131.575144 
L 206.428094 131.459111 
L 207.361204 131.314224 
L 207.567226 131.273579 
L 208.294314 131.166801 
L 209.227425 131.149793 
L 210.160535 131.178477 
L 211.093645 131.210497 
L 212.026756 131.242739 
L 212.959866 131.269206 
L 213.014316 131.273579 
L 213.892977 131.400416 
L 214.826087 131.613133 
L 215.759197 131.834187 
L 216.692308 132.157629 
L 216.80653 132.200669 
L 217.625418 132.541618 
L 218.558528 132.909201 
L 219.109343 133.127759 
L 219.491639 133.301225 
L 220.424749 133.61935 
L 221.35786 134.042946 
L 221.407204 134.054849 
L 222.29097 134.549962 
L 223.05726 134.98194 
L 223.22408 135.100027 
L 224.157191 135.60871 
L 224.591474 135.90903 
L 225.090301 136.378604 
L 225.476563 136.83612 
L 226.023411 137.473594 
L 226.274124 137.763211 
L 226.956522 138.551246 
L 227.076901 138.690301 
L 227.877521 139.617391 
L 227.889632 139.629369 
L 228.676641 140.544482 
L 228.822742 140.705576 
L 229.486508 141.471572 
L 229.755853 141.781629 
L 230.288384 142.398662 
L 230.688963 142.879105 
L 231.038071 143.325753 
L 231.622074 144.054417 
L 231.781105 144.252843 
L 232.379799 145.179933 
L 232.555184 145.511361 
L 232.788995 146.107023 
L 233.142333 147.034114 
L 233.481633 147.961204 
L 233.488294 147.972802 
L 233.76565 148.888294 
L 234.027056 149.815385 
L 234.242289 150.742475 
L 234.421405 151.163922 
L 234.52079 151.669565 
L 234.78584 152.596656 
L 234.867923 153.523746 
L 234.761521 154.450836 
L 234.703261 155.377926 
L 234.705634 156.305017 
L 234.708067 157.232107 
L 234.710582 158.159197 
L 234.711852 159.086288 
L 234.711756 160.013378 
L 234.710688 160.940468 
L 234.720443 161.867559 
L 234.763776 162.794649 
L 234.783943 163.721739 
L 234.777011 164.648829 
L 234.765063 165.57592 
L 234.709909 166.50301 
L 234.643022 167.4301 
L 234.566866 168.357191 
L 234.482518 169.284281 
L 234.421405 170.182827 
L 234.418226 170.211371 
L 234.329637 171.138462 
L 234.101811 172.065552 
L 233.761804 172.992642 
L 233.488294 173.732448 
L 233.394687 173.919732 
L 233.074845 174.846823 
L 232.831117 175.773913 
L 232.620102 176.701003 
L 232.555184 176.951507 
L 232.36818 177.628094 
L 232.18368 178.555184 
L 231.995474 179.482274 
L 231.844021 180.409365 
L 231.79719 181.336455 
L 231.746709 182.263545 
L 231.692345 183.190635 
L 231.633447 184.117726 
L 231.622074 184.288173 
L 231.561502 185.044816 
L 231.500449 185.971906 
L 231.449182 186.898997 
L 231.174593 187.826087 
L 230.773811 188.753177 
L 230.688963 188.923682 
L 230.375793 189.680268 
L 230.05677 190.607358 
L 229.755853 191.276164 
L 229.629816 191.534448 
L 229.229127 192.461538 
L 228.822742 193.264162 
L 228.747662 193.388629 
L 228.367867 194.315719 
L 227.942604 195.242809 
L 227.889632 195.328027 
L 227.467019 196.1699 
L 226.961561 197.09699 
L 226.956522 197.104758 
L 226.488599 198.02408 
L 226.023411 198.873043 
L 225.973584 198.951171 
L 225.528834 199.878261 
L 225.090301 200.748087 
L 225.057317 200.805351 
L 224.672687 201.732441 
L 224.297522 202.659532 
L 224.157191 203.017041 
L 223.973711 203.586622 
L 223.658189 204.513712 
L 223.301496 205.440803 
L 223.22408 205.576934 
L 222.814868 206.367893 
L 222.29097 207.170617 
L 222.203342 207.294983 
L 221.648822 208.222074 
L 221.35786 208.676354 
L 221.091029 209.149164 
L 220.63173 210.076254 
L 220.424749 210.425982 
L 220.064755 211.003344 
L 219.491639 211.895329 
L 219.466813 211.930435 
L 218.901869 212.857525 
L 218.558528 213.383104 
L 218.305502 213.784615 
L 217.716137 214.711706 
L 217.625418 214.843991 
L 217.085304 215.638796 
L 216.692308 216.183069 
L 216.428368 216.565886 
L 215.768429 217.492977 
L 215.759197 217.504722 
L 215.068633 218.420067 
L 214.826087 218.732317 
L 214.363941 219.347157 
L 213.892977 219.966961 
L 213.66983 220.274247 
L 212.959866 221.191514 
L 212.951008 221.201338 
L 212.228338 222.128428 
L 212.026756 222.376376 
L 211.470301 223.055518 
L 211.093645 223.460801 
L 210.593857 223.982609 
L 210.160535 224.423682 
L 209.694461 224.909699 
L 209.227425 225.384823 
L 208.793504 225.836789 
L 208.294314 226.344334 
L 207.891074 226.76388 
L 207.361204 227.302339 
L 206.987284 227.69097 
L 206.428094 228.25893 
L 206.063295 228.61806 
L 205.494983 229.137682 
L 205.045406 229.545151 
L 204.561873 229.998107 
L 204.045219 230.472241 
L 203.628763 230.823187 
L 202.887109 231.399331 
L 202.695652 231.492638 
L 201.762542 231.929078 
L 200.829431 232.208635 
L 200.586025 232.326421 
L 199.896321 232.569854 
L 198.963211 232.854613 
L 198.0301 232.890443 
L 197.09699 232.906104 
L 196.16388 232.925046 
L 195.230769 232.947562 
L 194.297659 232.972093 
L 193.364548 233.002 
L 192.431438 233.035499 
L 191.498328 233.078777 
L 190.565217 233.193953 
L 190.325363 233.253512 
L 189.632107 233.293954 
L 188.698997 233.441569 
L 187.765886 233.63296 
L 186.832776 233.526301 
L 185.899666 233.294015 
z
" clip-path="url(#p2aa0e72591)" style="fill: none; stroke: #000000; stroke-width: 1.5"/>
   </g>
   <g id="PathCollection_4">
    <path d="M 182.167224 256.613448 
L 181.429073 256.430769 
L 181.234114 256.38252 
L 180.301003 256.142888 
L 179.367893 255.816844 
L 178.471288 255.503679 
L 178.434783 255.490846 
L 177.501672 255.160216 
L 176.568562 254.829597 
L 175.854474 254.576589 
L 175.635452 254.498987 
L 174.702341 254.168354 
L 173.769231 253.837734 
L 173.237986 253.649498 
L 172.83612 253.507106 
L 171.90301 253.176486 
L 170.9699 252.929627 
L 170.16373 252.722408 
L 170.036789 252.689628 
L 169.103679 252.44136 
L 168.170569 252.192289 
L 167.237458 251.995659 
L 166.763325 251.795318 
L 166.304348 251.586994 
L 165.371237 251.149113 
L 164.772701 250.868227 
L 164.438127 250.71122 
L 163.505017 250.273345 
L 162.797127 249.941137 
L 162.571906 249.835444 
L 161.638796 249.397563 
L 160.970781 249.014047 
L 160.705686 248.853484 
L 159.772575 248.276699 
L 159.465494 248.086957 
L 158.839465 247.698162 
L 157.913181 247.159866 
L 157.906355 247.155961 
L 156.973244 246.62438 
L 156.285968 246.232776 
L 156.040134 246.092612 
L 155.107023 245.561055 
L 154.681851 245.305686 
L 154.173913 244.992288 
L 153.240803 244.406914 
L 153.195746 244.378595 
L 152.307692 243.816934 
L 151.754401 243.451505 
L 151.374582 243.194481 
L 150.441472 242.562677 
L 150.387066 242.524415 
L 149.508361 241.877051 
L 149.144186 241.597324 
L 148.575251 241.158347 
L 147.946538 240.670234 
L 147.64214 240.4319 
L 146.781881 239.743144 
L 146.70903 239.683145 
L 145.77592 238.88291 
L 145.697963 238.816054 
L 144.842809 238.082663 
L 144.616944 237.888963 
L 143.909699 237.282437 
L 143.547666 236.961873 
L 142.976589 236.433288 
L 142.562433 236.034783 
L 142.043478 235.535425 
L 141.598948 235.107692 
L 141.110368 234.637571 
L 140.635449 234.180602 
L 140.177258 233.739736 
L 139.579416 233.253512 
L 139.244147 233.010299 
L 138.311037 232.407873 
L 138.193753 232.326421 
L 137.377926 231.757671 
L 136.934398 231.399331 
L 136.444816 230.943993 
L 135.952969 230.472241 
L 135.511706 230.10574 
L 134.791793 229.545151 
L 134.578595 229.384977 
L 133.645485 228.683956 
L 133.557775 228.61806 
L 132.712375 227.98293 
L 132.323741 227.69097 
L 131.779264 227.247886 
L 131.299599 226.76388 
L 130.846154 226.224284 
L 130.533668 225.836789 
L 129.913043 224.962587 
L 129.874197 224.909699 
L 129.058772 223.982609 
L 128.979933 223.897011 
L 128.219011 223.055518 
L 128.046823 222.865613 
L 127.380048 222.128428 
L 127.113712 221.837122 
L 126.538024 221.201338 
L 126.180602 220.810798 
L 125.69066 220.274247 
L 125.247492 219.790113 
L 124.838277 219.347157 
L 124.314381 218.783851 
L 124.024512 218.420067 
L 123.559396 217.492977 
L 123.381271 217.126156 
L 123.107732 216.565886 
L 122.654896 215.638796 
L 122.448161 215.223316 
L 122.187312 214.711706 
L 121.714639 213.784615 
L 121.51505 213.393159 
L 121.241949 212.857525 
L 120.737718 211.930435 
L 120.58194 211.662029 
L 120.190297 211.003344 
L 119.648829 210.081773 
L 119.645573 210.076254 
L 119.144951 209.149164 
L 118.715719 208.548866 
L 118.476116 208.222074 
L 117.782609 207.30969 
L 117.77143 207.294983 
L 117.066757 206.367893 
L 116.849498 206.082067 
L 116.362061 205.440803 
L 115.916388 204.854457 
L 115.657402 204.513712 
L 115.018538 203.586622 
L 114.983278 203.512923 
L 114.58951 202.659532 
L 114.131994 201.732441 
L 114.050167 201.587889 
L 113.617714 200.805351 
L 113.261791 199.878261 
L 113.117057 199.455821 
L 112.944157 198.951171 
L 112.55576 198.02408 
L 112.275314 197.09699 
L 112.183946 196.738646 
L 112.038933 196.1699 
L 111.808763 195.242809 
L 111.587441 194.315719 
L 111.367583 193.388629 
L 111.250836 192.872753 
L 111.159236 192.461538 
L 110.998367 191.534448 
L 110.837501 190.607358 
L 110.67679 189.680268 
L 110.517548 188.753177 
L 110.362465 187.826087 
L 110.317726 187.557517 
L 110.208029 186.898997 
L 110.053598 185.971906 
L 109.879588 185.044816 
L 109.685837 184.117726 
L 109.43668 183.190635 
L 109.384615 182.998711 
L 109.185181 182.263545 
L 108.93827 181.336455 
L 108.756595 180.409365 
L 108.64217 179.482274 
L 108.526013 178.555184 
L 108.451505 177.960548 
L 108.409848 177.628094 
L 108.293687 176.701003 
L 108.177508 175.773913 
L 108.067514 174.846823 
L 108.120478 173.919732 
L 108.197313 172.992642 
L 108.273232 172.065552 
L 108.348771 171.138462 
L 108.422787 170.211371 
L 108.451505 169.851644 
L 108.4968 169.284281 
L 108.570834 168.357191 
L 108.644842 167.4301 
L 108.745656 166.50301 
L 109.064457 165.57592 
L 109.383235 164.648829 
L 109.384615 164.644815 
L 109.702031 163.721739 
L 110.020819 162.794649 
L 110.317726 162.018483 
L 110.377872 161.867559 
L 110.764739 160.940468 
L 111.151574 160.013378 
L 111.250836 159.76208 
L 111.497836 159.086288 
L 111.760893 158.159197 
L 112.023968 157.232107 
L 112.183946 156.655137 
L 112.280646 156.305017 
L 112.528467 155.377926 
L 112.775482 154.450836 
L 113.036732 153.523746 
L 113.117057 153.378149 
L 113.599079 152.596656 
L 114.050167 151.865307 
L 114.170898 151.669565 
L 114.742718 150.742475 
L 114.983278 150.35246 
L 115.314548 149.815385 
L 115.88636 148.888294 
L 115.916388 148.839611 
L 116.458193 147.961204 
L 116.849498 147.330638 
L 117.037948 147.034114 
L 117.670998 146.107023 
L 117.782609 145.943572 
L 118.304036 145.179933 
L 118.715719 144.576995 
L 118.934103 144.252843 
L 119.575445 143.325753 
L 119.648829 143.222239 
L 120.239326 142.398662 
L 120.58194 141.920786 
L 120.904007 141.471572 
L 121.51505 140.619335 
L 121.568718 140.544482 
L 122.233419 139.617391 
L 122.448161 139.317881 
L 122.89844 138.690301 
L 123.381271 138.023464 
L 123.572682 137.763211 
L 124.264457 136.83612 
L 124.314381 136.77109 
L 124.980413 135.90903 
L 125.247492 135.576823 
L 125.737366 134.98194 
L 126.180602 134.446759 
L 126.505187 134.054849 
L 127.113712 133.320121 
L 127.281585 133.127759 
L 128.046823 132.391574 
L 128.269175 132.200669 
L 128.979933 131.627671 
L 129.474587 131.273579 
L 129.913043 130.988678 
L 130.846154 130.364333 
L 130.872572 130.346488 
L 131.779264 129.738739 
L 132.249556 129.419398 
L 132.712375 129.108006 
L 133.620315 128.492308 
L 133.645485 128.47533 
L 134.578595 127.913359 
L 135.159773 127.565217 
L 135.511706 127.337046 
L 136.444816 126.796432 
L 136.717321 126.638127 
L 137.377926 126.257035 
L 138.311037 125.720085 
L 138.327626 125.711037 
L 139.244147 125.218649 
L 140.053285 124.783946 
L 140.177258 124.717429 
L 141.110368 124.216458 
L 141.779559 123.856856 
L 142.043478 123.71507 
L 142.976589 123.210711 
L 143.493832 122.929766 
L 143.909699 122.693208 
L 144.842809 122.125862 
L 145.045419 122.002676 
L 145.77592 121.593584 
L 146.70903 121.230278 
L 147.136406 121.075585 
L 147.64214 120.892533 
L 148.575251 120.55479 
L 149.508361 120.217045 
L 149.710817 120.148495 
L 150.441472 119.909044 
L 151.374582 119.696399 
L 152.307692 119.480785 
L 153.240803 119.27203 
L 153.545159 119.221405 
L 154.173913 119.121487 
L 155.107023 119.024031 
L 156.040134 118.919126 
L 156.973244 118.803217 
L 157.906355 118.687323 
L 158.839465 118.585106 
L 159.772575 118.505361 
L 160.705686 118.425622 
L 161.638796 118.345881 
L 162.242145 118.294314 
L 162.571906 118.266131 
L 163.505017 118.186401 
L 164.438127 118.106661 
L 165.371237 118.010917 
L 166.304348 117.854977 
L 167.237458 117.699035 
L 168.170569 117.543096 
L 169.103679 117.387154 
L 169.22293 117.367224 
L 170.036789 117.231201 
L 170.9699 117.075259 
L 171.90301 116.919319 
L 172.83612 116.695728 
L 173.649302 116.440134 
L 173.769231 116.403728 
L 174.702341 116.160594 
L 175.635452 115.832137 
L 176.488068 115.513043 
L 176.568562 115.482918 
L 177.501672 115.287501 
L 178.434783 115.150553 
L 179.367893 115.000452 
L 180.301003 114.845833 
L 181.234114 114.691223 
L 181.643075 114.585953 
L 182.167224 114.450152 
L 183.100334 114.151358 
L 184.033445 113.852568 
L 184.63839 113.658863 
L 184.966555 113.553682 
L 185.899666 113.252307 
L 186.832776 112.945211 
L 187.445125 112.731773 
L 187.765886 112.617443 
L 188.698997 112.211076 
L 189.632107 111.92016 
L 190.105762 111.804682 
L 190.565217 111.692662 
L 191.498328 111.464715 
L 192.431438 111.206754 
L 193.364548 110.948121 
L 193.619022 110.877592 
L 194.297659 110.689499 
L 195.230769 110.430859 
L 196.16388 110.173272 
L 196.991381 109.950502 
L 197.09699 109.921939 
L 198.0301 109.680578 
L 198.963211 109.475252 
L 199.896321 109.280429 
L 200.829431 109.085602 
L 201.127303 109.023411 
L 201.762542 108.890786 
L 202.695652 108.752657 
L 203.628763 108.639716 
L 204.561873 108.475892 
L 205.494983 108.311247 
L 206.428094 108.146611 
L 206.740732 108.096321 
L 207.361204 107.999103 
L 208.294314 107.877212 
L 209.227425 107.755326 
L 210.160535 107.761725 
L 211.093645 107.808774 
L 212.026756 107.886232 
L 212.959866 108.043212 
L 213.287207 108.096321 
L 213.892977 108.195002 
L 214.826087 108.355994 
L 215.759197 108.53504 
L 216.692308 108.740317 
L 217.625418 108.969105 
L 217.83348 109.023411 
L 218.558528 109.212659 
L 219.491639 109.456198 
L 220.424749 109.699756 
L 221.35786 109.9433 
L 221.385454 109.950502 
L 222.29097 110.186613 
L 223.22408 110.437344 
L 224.157191 110.687644 
L 224.768263 110.877592 
L 225.090301 110.983514 
L 226.023411 111.410669 
L 226.829796 111.804682 
L 226.956522 111.867072 
L 227.889632 112.326448 
L 228.712945 112.731773 
L 228.822742 112.785827 
L 229.755853 113.245207 
L 230.5961 113.658863 
L 230.688963 113.70458 
L 231.622074 114.163969 
L 232.47925 114.585953 
L 232.555184 114.623335 
L 233.488294 115.082733 
L 234.362408 115.513043 
L 234.421405 115.542087 
L 235.354515 116.001473 
L 236.245524 116.440134 
L 236.287625 116.460963 
L 237.220736 116.924549 
L 238.122516 117.367224 
L 238.153846 117.381842 
L 239.086957 117.798425 
L 239.717537 118.294314 
L 240.020067 118.566517 
L 240.738418 119.221405 
L 240.953177 119.421489 
L 241.644231 120.148495 
L 241.886288 120.420566 
L 242.470631 121.075585 
L 242.819398 121.468504 
L 243.301159 122.002676 
L 243.752508 122.487494 
L 244.16152 122.929766 
L 244.685619 123.578616 
L 244.903403 123.856856 
L 245.618729 124.770773 
L 245.62904 124.783946 
L 246.352081 125.711037 
L 246.551839 125.963543 
L 247.07954 126.638127 
L 247.48495 127.154462 
L 247.811656 127.565217 
L 248.41806 128.323266 
L 248.551004 128.492308 
L 249.267367 129.419398 
L 249.351171 129.523992 
L 250.042746 130.346488 
L 250.284281 130.738745 
L 250.541234 131.273579 
L 250.965996 132.200669 
L 251.217391 132.73655 
L 251.403575 133.127759 
L 251.844823 134.054849 
L 252.150502 134.697122 
L 252.286053 134.98194 
L 252.689117 135.90903 
L 253.042521 136.83612 
L 253.083612 136.941179 
L 253.403584 137.763211 
L 253.77389 138.690301 
L 254.016722 139.298234 
L 254.144208 139.617391 
L 254.514519 140.544482 
L 254.884831 141.471572 
L 254.949833 141.609448 
L 255.337356 142.398662 
L 255.792196 143.325753 
L 255.882943 143.521408 
L 256.20662 144.252843 
L 256.500253 145.179933 
L 256.788379 146.107023 
L 256.816054 146.196062 
L 257.076531 147.034114 
L 257.351787 147.961204 
L 257.464631 148.888294 
L 257.561188 149.815385 
L 257.657383 150.742475 
L 257.749164 151.623662 
L 257.753936 151.669565 
L 257.824953 152.596656 
L 257.893609 153.523746 
L 257.960244 154.450836 
L 258.023004 155.377926 
L 258.041327 156.305017 
L 258.037082 157.232107 
L 258.032837 158.159197 
L 258.0316 159.086288 
L 258.087958 160.013378 
L 258.141413 160.940468 
L 258.151316 161.867559 
L 258.153145 162.794649 
L 258.148692 163.721739 
L 258.141684 164.648829 
L 258.134682 165.57592 
L 258.127667 166.50301 
L 258.120663 167.4301 
L 258.107233 168.357191 
L 258.065963 169.284281 
L 257.933323 170.211371 
L 257.749164 170.846469 
L 257.664496 171.138462 
L 257.395676 172.065552 
L 257.143971 172.992642 
L 256.920836 173.919732 
L 256.816054 174.355087 
L 256.701508 174.846823 
L 256.492179 175.773913 
L 256.315997 176.701003 
L 256.209139 177.628094 
L 256.076204 178.555184 
L 255.942215 179.482274 
L 255.882943 179.892432 
L 255.808241 180.409365 
L 255.674251 181.336455 
L 255.632908 182.263545 
L 255.606979 183.190635 
L 255.551771 184.117726 
L 255.496725 185.044816 
L 255.441664 185.971906 
L 255.386612 186.898997 
L 255.331558 187.826087 
L 255.27649 188.753177 
L 255.221454 189.680268 
L 255.166389 190.607358 
L 255.111327 191.534448 
L 255.026103 192.461538 
L 254.949833 192.846515 
L 254.829305 193.388629 
L 254.403883 194.315719 
L 254.016722 195.073875 
L 253.931844 195.242809 
L 253.450641 196.1699 
L 253.083612 196.851452 
L 252.95227 197.09699 
L 252.495017 198.02408 
L 252.150502 198.801296 
L 252.084068 198.951171 
L 251.673134 199.878261 
L 251.262186 200.805351 
L 251.217391 200.906406 
L 250.851236 201.732441 
L 250.441812 202.659532 
L 250.284281 203.059607 
L 250.08352 203.586622 
L 249.761611 204.513712 
L 249.445539 205.440803 
L 249.351171 205.773422 
L 249.183069 206.367893 
L 248.920896 207.294983 
L 248.65872 208.222074 
L 248.41806 209.073126 
L 248.396558 209.149164 
L 248.13438 210.076254 
L 247.860443 211.003344 
L 247.487641 211.930435 
L 247.48495 211.936139 
L 247.049205 212.857525 
L 246.573937 213.784615 
L 246.551839 213.8259 
L 246.07529 214.711706 
L 245.618729 215.595981 
L 245.596336 215.638796 
L 245.014765 216.565886 
L 244.685619 216.994076 
L 244.302128 217.492977 
L 243.752508 218.207987 
L 243.589232 218.420067 
L 242.863027 219.347157 
L 242.819398 219.398818 
L 242.080095 220.274247 
L 241.886288 220.503739 
L 241.319118 221.201338 
L 240.953177 221.679686 
L 240.60672 222.128428 
L 240.020067 222.905316 
L 239.916003 223.055518 
L 239.374306 223.982609 
L 239.086957 224.485029 
L 238.841976 224.909699 
L 238.30252 225.836789 
L 238.153846 226.09576 
L 237.768471 226.76388 
L 237.233608 227.69097 
L 237.220736 227.713492 
L 236.672487 228.61806 
L 236.287625 229.180385 
L 236.027284 229.545151 
L 235.365597 230.472241 
L 235.354515 230.487767 
L 234.703897 231.399331 
L 234.421405 231.795132 
L 234.042204 232.326421 
L 233.488294 233.102488 
L 233.377225 233.253512 
L 232.66385 234.180602 
L 232.555184 234.319824 
L 231.940229 235.107692 
L 231.622074 235.515315 
L 231.216628 236.034783 
L 230.688963 236.710848 
L 230.490424 236.961873 
L 229.755853 237.865363 
L 229.736476 237.888963 
L 228.97531 238.816054 
L 228.822742 239.001879 
L 228.227726 239.743144 
L 227.889632 240.133294 
L 227.413375 240.670234 
L 226.956522 241.209167 
L 226.616941 241.597324 
L 226.023411 242.183502 
L 225.641164 242.524415 
L 225.090301 242.9822 
L 224.507363 243.451505 
L 224.157191 243.740754 
L 223.380229 244.378595 
L 223.22408 244.50642 
L 222.29097 245.251271 
L 222.222804 245.305686 
L 221.35786 245.996118 
L 221.061382 246.232776 
L 220.424749 246.740969 
L 219.89998 247.159866 
L 219.491639 247.485815 
L 218.727334 248.086957 
L 218.558528 248.219869 
L 217.625418 248.939072 
L 217.528146 249.014047 
L 216.692308 249.658299 
L 216.325351 249.941137 
L 215.759197 250.377503 
L 215.122549 250.868227 
L 214.826087 251.089219 
L 213.892977 251.529178 
L 213.165041 251.795318 
L 212.959866 251.870045 
L 212.026756 252.207274 
L 211.093645 252.540191 
L 210.577584 252.722408 
L 210.160535 252.868868 
L 209.227425 253.196144 
L 208.294314 253.523428 
L 207.934857 253.649498 
L 207.361204 253.850692 
L 206.428094 254.177963 
L 205.494983 254.505242 
L 204.798662 254.576589 
L 204.561873 254.599131 
L 203.628763 254.679046 
L 202.695652 254.758958 
L 201.762542 254.838878 
L 200.829431 254.918799 
L 199.896321 254.960559 
L 198.963211 254.983565 
L 198.0301 255.093635 
L 197.09699 255.220701 
L 196.16388 255.347787 
L 195.230769 255.478274 
L 195.053429 255.503679 
L 194.297659 255.61195 
L 193.364548 255.745644 
L 192.431438 255.879312 
L 191.498328 255.986287 
L 190.565217 256.061749 
L 189.632107 256.206385 
L 188.698997 256.410523 
L 188.606745 256.430769 
L 187.765886 256.615314 
L 186.832776 256.736201 
L 185.899666 256.785852 
L 184.966555 256.835494 
L 184.033445 256.885138 
L 183.100334 256.844366 
L 182.167224 256.613448 
z
" clip-path="url(#p2aa0e72591)" style="fill: none; stroke: #000000; stroke-width: 1.5"/>
   </g>
   <g id="patch_3">
    <path d="M 45 320.4 
L 45 43.2 
" style="fill: none; stroke: #000000; stroke-width: 0.8; stroke-linejoin: miter; stroke-linecap: square"/>
   </g>
   <g id="patch_4">
    <path d="M 324 320.4 
L 324 43.2 
" style="fill: none; stroke: #000000; stroke-width: 0.8; stroke-linejoin: miter; stroke-linecap: square"/>
   </g>
   <g id="patch_5">
    <path d="M 45 320.4 
L 324 320.4 
" style="fill: none; stroke: #000000; stroke-width: 0.8; stroke-linejoin: miter; stroke-linecap: square"/>
   </g>
   <g id="patch_6">
    <path d="M 45 43.2 
L 324 43.2 
" style="fill: none; stroke: #000000; stroke-width: 0.8; stroke-linejoin: miter; stroke-linecap: square"/>
   </g>
  </g>
 </g>
 <defs>
  <clipPath id="p2aa0e72591">
   <rect x="45" y="43.2" width="279" height="277.2"/>
  </clipPath>
 </defs>
</svg>
