<?xml version="1.0" encoding="utf-8" standalone="no"?>
<!DOCTYPE svg PUBLIC "-//W3C//DTD SVG 1.1//EN"
  "http://www.w3.org/Graphics/SVG/1.1/DTD/svg11.dtd">
<svg xmlns:xlink="http://www.w3.org/1999/xlink" width="360pt" height="360pt" viewBox="0 0 360 360" xmlns="http://www.w3.org/2000/svg" version="1.1">
 <metadata>
  <rdf:RDF xmlns:dc="http://purl.org/dc/elements/1.1/" xmlns:cc="http://creativecommons.org/ns#" xmlns:rdf="http://www.w3.org/1999/02/22-rdf-syntax-ns#">
   <cc:Work>
    <dc:type rdf:resource="http://purl.org/dc/dcmitype/StillImage"/>
    <dc:date>2022-04-10T19:53:29.481818</dc:date>
    <dc:format>image/svg+xml</dc:format>
    <dc:creator>
     <cc:Agent>
      <dc:title>Matplotlib v3.5.1, https://matplotlib.org/</dc:title>
     </cc:Agent>
    </dc:creator>
   </cc:Work>
  </rdf:RDF>
 </metadata>
 <defs>
  <style type="text/css">*{stroke-linejoin: round; stroke-linecap: butt}</style>
 </defs>
 <g id="figure_1">
  <g id="patch_1">
   <path d="M 0 360 
L 360 360 
L 360 0 
L 0 0 
z
" style="fill: #ffffff"/>
  </g>
  <g id="axes_1">
   <g id="patch_2">
    <path d="M 45 320.4 
L 324 320.4 
L 324 43.2 
L 45 43.2 
z
" style="fill: #ffffff"/>
   </g>
   <g id="PathCollection_1">
    <defs>
     <path id="me7048af40a" d="M 0 0.5 
C 0.132602 0.5 0.25979 0.447317 0.353553 0.353553 
C 0.447317 0.25979 0.5 0.132602 0.5 0 
C 0.5 -0.132602 0.447317 -0.25979 0.353553 -0.353553 
C 0.25979 -0.447317 0.132602 -0.5 0 -0.5 
C -0.132602 -0.5 -0.25979 -0.447317 -0.353553 -0.353553 
C -0.447317 -0.25979 -0.5 -0.132602 -0.5 0 
C -0.5 0.132602 -0.447317 0.25979 -0.353553 0.353553 
C -0.25979 0.447317 -0.132602 0.5 0 0.5 
z
" style="stroke: #ff0000"/>
    </defs>
    <g clip-path="url(#p135069c6ac)">
     <use xlink:href="#me7048af40a" x="232.549321" y="181.336455" style="fill: #ff0000; stroke: #ff0000"/>
     <use xlink:href="#me7048af40a" x="234.427946" y="176.496362" style="fill: #ff0000; stroke: #ff0000"/>
     <use xlink:href="#me7048af40a" x="234.921141" y="171.463977" style="fill: #ff0000; stroke: #ff0000"/>
     <use xlink:href="#me7048af40a" x="233.911177" y="166.585055" style="fill: #ff0000; stroke: #ff0000"/>
     <use xlink:href="#me7048af40a" x="231.492751" y="162.189007" style="fill: #ff0000; stroke: #ff0000"/>
     <use xlink:href="#me7048af40a" x="227.934191" y="158.517947" style="fill: #ff0000; stroke: #ff0000"/>
     <use xlink:href="#me7048af40a" x="223.606239" y="155.684813" style="fill: #ff0000; stroke: #ff0000"/>
     <use xlink:href="#me7048af40a" x="218.907772" y="153.661326" style="fill: #ff0000; stroke: #ff0000"/>
     <use xlink:href="#me7048af40a" x="214.200676" y="152.290942" style="fill: #ff0000; stroke: #ff0000"/>
     <use xlink:href="#me7048af40a" x="209.756142" y="151.325134" style="fill: #ff0000; stroke: #ff0000"/>
     <use xlink:href="#me7048af40a" x="205.718288" y="150.479661" style="fill: #ff0000; stroke: #ff0000"/>
     <use xlink:href="#me7048af40a" x="202.09475" y="149.498595" style="fill: #ff0000; stroke: #ff0000"/>
     <use xlink:href="#me7048af40a" x="198.77724" y="148.209622" style="fill: #ff0000; stroke: #ff0000"/>
     <use xlink:href="#me7048af40a" x="195.584173" y="146.560676" style="fill: #ff0000; stroke: #ff0000"/>
     <use xlink:href="#me7048af40a" x="192.314149" y="144.63592" style="fill: #ff0000; stroke: #ff0000"/>
     <use xlink:href="#me7048af40a" x="188.801867" y="142.647105" style="fill: #ff0000; stroke: #ff0000"/>
     <use xlink:href="#me7048af40a" x="184.966555" y="140.891178" style="fill: #ff0000; stroke: #ff0000"/>
     <use xlink:href="#me7048af40a" x="180.836462" y="139.673455" style="fill: #ff0000; stroke: #ff0000"/>
     <use xlink:href="#me7048af40a" x="176.534551" y="139.219397" style="fill: #ff0000; stroke: #ff0000"/>
     <use xlink:href="#me7048af40a" x="172.228161" y="139.61452" style="fill: #ff0000; stroke: #ff0000"/>
     <use xlink:href="#me7048af40a" x="168.066959" y="140.800442" style="fill: #ff0000; stroke: #ff0000"/>
     <use xlink:href="#me7048af40a" x="164.138725" y="142.62172" style="fill: #ff0000; stroke: #ff0000"/>
     <use xlink:href="#me7048af40a" x="160.456885" y="144.891795" style="fill: #ff0000; stroke: #ff0000"/>
     <use xlink:href="#me7048af40a" x="156.973153" y="147.446461" style="fill: #ff0000; stroke: #ff0000"/>
     <use xlink:href="#me7048af40a" x="153.601126" y="150.173384" style="fill: #ff0000; stroke: #ff0000"/>
     <use xlink:href="#me7048af40a" x="150.243569" y="153.023884" style="fill: #ff0000; stroke: #ff0000"/>
     <use xlink:href="#me7048af40a" x="146.824815" y="156.015382" style="fill: #ff0000; stroke: #ff0000"/>
     <use xlink:href="#me7048af40a" x="143.328312" y="159.223938" style="fill: #ff0000; stroke: #ff0000"/>
     <use xlink:href="#me7048af40a" x="139.828574" y="162.760315" style="fill: #ff0000; stroke: #ff0000"/>
     <use xlink:href="#me7048af40a" x="136.498701" y="166.728747" style="fill: #ff0000; stroke: #ff0000"/>
     <use xlink:href="#me7048af40a" x="133.581284" y="171.181232" style="fill: #ff0000; stroke: #ff0000"/>
     <use xlink:href="#me7048af40a" x="131.331614" y="176.087955" style="fill: #ff0000; stroke: #ff0000"/>
     <use xlink:href="#me7048af40a" x="129.96134" y="181.336455" style="fill: #ff0000; stroke: #ff0000"/>
     <use xlink:href="#me7048af40a" x="129.608636" y="186.753558" style="fill: #ff0000; stroke: #ff0000"/>
     <use xlink:href="#me7048af40a" x="130.336677" y="192.132906" style="fill: #ff0000; stroke: #ff0000"/>
     <use xlink:href="#me7048af40a" x="132.138657" y="197.258234" style="fill: #ff0000; stroke: #ff0000"/>
     <use xlink:href="#me7048af40a" x="134.93028" y="201.928444" style="fill: #ff0000; stroke: #ff0000"/>
     <use xlink:href="#me7048af40a" x="138.537709" y="205.993082" style="fill: #ff0000; stroke: #ff0000"/>
     <use xlink:href="#me7048af40a" x="142.709527" y="209.389536" style="fill: #ff0000; stroke: #ff0000"/>
     <use xlink:href="#me7048af40a" x="147.16895" y="212.156021" style="fill: #ff0000; stroke: #ff0000"/>
     <use xlink:href="#me7048af40a" x="151.686799" y="214.401503" style="fill: #ff0000; stroke: #ff0000"/>
     <use xlink:href="#me7048af40a" x="156.132976" y="216.243602" style="fill: #ff0000; stroke: #ff0000"/>
     <use xlink:href="#me7048af40a" x="160.477573" y="217.750352" style="fill: #ff0000; stroke: #ff0000"/>
     <use xlink:href="#me7048af40a" x="164.748521" y="218.917702" style="fill: #ff0000; stroke: #ff0000"/>
     <use xlink:href="#me7048af40a" x="168.977879" y="219.687501" style="fill: #ff0000; stroke: #ff0000"/>
     <use xlink:href="#me7048af40a" x="173.166126" y="219.986284" style="fill: #ff0000; stroke: #ff0000"/>
     <use xlink:href="#me7048af40a" x="177.273772" y="219.761177" style="fill: #ff0000; stroke: #ff0000"/>
     <use xlink:href="#me7048af40a" x="181.232835" y="219.00098" style="fill: #ff0000; stroke: #ff0000"/>
     <use xlink:href="#me7048af40a" x="184.966555" y="217.742547" style="fill: #ff0000; stroke: #ff0000"/>
     <use xlink:href="#me7048af40a" x="188.409382" y="216.066547" style="fill: #ff0000; stroke: #ff0000"/>
     <use xlink:href="#me7048af40a" x="191.52314" y="214.085973" style="fill: #ff0000; stroke: #ff0000"/>
     <use xlink:href="#me7048af40a" x="194.30732" y="211.930168" style="fill: #ff0000; stroke: #ff0000"/>
     <use xlink:href="#me7048af40a" x="196.802829" y="209.72739" style="fill: #ff0000; stroke: #ff0000"/>
     <use xlink:href="#me7048af40a" x="199.08942" y="207.588013" style="fill: #ff0000; stroke: #ff0000"/>
     <use xlink:href="#me7048af40a" x="201.276913" y="205.589145" style="fill: #ff0000; stroke: #ff0000"/>
     <use xlink:href="#me7048af40a" x="203.490229" y="203.761997" style="fill: #ff0000; stroke: #ff0000"/>
     <use xlink:href="#me7048af40a" x="205.850438" y="202.085603" style="fill: #ff0000; stroke: #ff0000"/>
     <use xlink:href="#me7048af40a" x="208.457325" y="200.490455" style="fill: #ff0000; stroke: #ff0000"/>
     <use xlink:href="#me7048af40a" x="211.378861" y="198.870735" style="fill: #ff0000; stroke: #ff0000"/>
     <use xlink:href="#me7048af40a" x="214.645936" y="197.098066" style="fill: #ff0000; stroke: #ff0000"/>
     <use xlink:href="#me7048af40a" x="218.242296" y="195.030794" style="fill: #ff0000; stroke: #ff0000"/>
     <use xlink:href="#me7048af40a" x="222.080301" y="192.522152" style="fill: #ff0000; stroke: #ff0000"/>
     <use xlink:href="#me7048af40a" x="225.967967" y="189.439525" style="fill: #ff0000; stroke: #ff0000"/>
     <use xlink:href="#me7048af40a" x="229.592361" y="185.703357" style="fill: #ff0000; stroke: #ff0000"/>
    </g>
   </g>
   <g id="matplotlib.axis_1">
    <g id="xtick_1">
     <g id="line2d_1">
      <defs>
       <path id="mddfa1fde39" d="M 0 0 
L 0 3.5 
" style="stroke: #000000; stroke-width: 0.8"/>
      </defs>
      <g>
       <use xlink:href="#mddfa1fde39" x="45" y="320.4" style="stroke: #000000; stroke-width: 0.8"/>
      </g>
     </g>
     <g id="text_1">
      <!-- −3 -->
      <g transform="translate(37.628906 334.998438)scale(0.1 -0.1)">
       <defs>
        <path id="DejaVuSans-2212" d="M 678 2272 
L 4684 2272 
L 4684 1741 
L 678 1741 
L 678 2272 
z
" transform="scale(0.015625)"/>
        <path id="DejaVuSans-33" d="M 2597 2516 
Q 3050 2419 3304 2112 
Q 3559 1806 3559 1356 
Q 3559 666 3084 287 
Q 2609 -91 1734 -91 
Q 1441 -91 1130 -33 
Q 819 25 488 141 
L 488 750 
Q 750 597 1062 519 
Q 1375 441 1716 441 
Q 2309 441 2620 675 
Q 2931 909 2931 1356 
Q 2931 1769 2642 2001 
Q 2353 2234 1838 2234 
L 1294 2234 
L 1294 2753 
L 1863 2753 
Q 2328 2753 2575 2939 
Q 2822 3125 2822 3475 
Q 2822 3834 2567 4026 
Q 2313 4219 1838 4219 
Q 1578 4219 1281 4162 
Q 984 4106 628 3988 
L 628 4550 
Q 988 4650 1302 4700 
Q 1616 4750 1894 4750 
Q 2613 4750 3031 4423 
Q 3450 4097 3450 3541 
Q 3450 3153 3228 2886 
Q 3006 2619 2597 2516 
z
" transform="scale(0.015625)"/>
       </defs>
       <use xlink:href="#DejaVuSans-2212"/>
       <use xlink:href="#DejaVuSans-33" x="83.789062"/>
      </g>
     </g>
    </g>
    <g id="xtick_2">
     <g id="line2d_2">
      <g>
       <use xlink:href="#mddfa1fde39" x="91.655518" y="320.4" style="stroke: #000000; stroke-width: 0.8"/>
      </g>
     </g>
     <g id="text_2">
      <!-- −2 -->
      <g transform="translate(84.284425 334.998438)scale(0.1 -0.1)">
       <defs>
        <path id="DejaVuSans-32" d="M 1228 531 
L 3431 531 
L 3431 0 
L 469 0 
L 469 531 
Q 828 903 1448 1529 
Q 2069 2156 2228 2338 
Q 2531 2678 2651 2914 
Q 2772 3150 2772 3378 
Q 2772 3750 2511 3984 
Q 2250 4219 1831 4219 
Q 1534 4219 1204 4116 
Q 875 4013 500 3803 
L 500 4441 
Q 881 4594 1212 4672 
Q 1544 4750 1819 4750 
Q 2544 4750 2975 4387 
Q 3406 4025 3406 3419 
Q 3406 3131 3298 2873 
Q 3191 2616 2906 2266 
Q 2828 2175 2409 1742 
Q 1991 1309 1228 531 
z
" transform="scale(0.015625)"/>
       </defs>
       <use xlink:href="#DejaVuSans-2212"/>
       <use xlink:href="#DejaVuSans-32" x="83.789062"/>
      </g>
     </g>
    </g>
    <g id="xtick_3">
     <g id="line2d_3">
      <g>
       <use xlink:href="#mddfa1fde39" x="138.311037" y="320.4" style="stroke: #000000; stroke-width: 0.8"/>
      </g>
     </g>
     <g id="text_3">
      <!-- −1 -->
      <g transform="translate(130.939943 334.998438)scale(0.1 -0.1)">
       <defs>
        <path id="DejaVuSans-31" d="M 794 531 
L 1825 531 
L 1825 4091 
L 703 3866 
L 703 4441 
L 1819 4666 
L 2450 4666 
L 2450 531 
L 3481 531 
L 3481 0 
L 794 0 
L 794 531 
z
" transform="scale(0.015625)"/>
       </defs>
       <use xlink:href="#DejaVuSans-2212"/>
       <use xlink:href="#DejaVuSans-31" x="83.789062"/>
      </g>
     </g>
    </g>
    <g id="xtick_4">
     <g id="line2d_4">
      <g>
       <use xlink:href="#mddfa1fde39" x="184.966555" y="320.4" style="stroke: #000000; stroke-width: 0.8"/>
      </g>
     </g>
     <g id="text_4">
      <!-- 0 -->
      <g transform="translate(181.785305 334.998438)scale(0.1 -0.1)">
       <defs>
        <path id="DejaVuSans-30" d="M 2034 4250 
Q 1547 4250 1301 3770 
Q 1056 3291 1056 2328 
Q 1056 1369 1301 889 
Q 1547 409 2034 409 
Q 2525 409 2770 889 
Q 3016 1369 3016 2328 
Q 3016 3291 2770 3770 
Q 2525 4250 2034 4250 
z
M 2034 4750 
Q 2819 4750 3233 4129 
Q 3647 3509 3647 2328 
Q 3647 1150 3233 529 
Q 2819 -91 2034 -91 
Q 1250 -91 836 529 
Q 422 1150 422 2328 
Q 422 3509 836 4129 
Q 1250 4750 2034 4750 
z
" transform="scale(0.015625)"/>
       </defs>
       <use xlink:href="#DejaVuSans-30"/>
      </g>
     </g>
    </g>
    <g id="xtick_5">
     <g id="line2d_5">
      <g>
       <use xlink:href="#mddfa1fde39" x="231.622074" y="320.4" style="stroke: #000000; stroke-width: 0.8"/>
      </g>
     </g>
     <g id="text_5">
      <!-- 1 -->
      <g transform="translate(228.440824 334.998438)scale(0.1 -0.1)">
       <use xlink:href="#DejaVuSans-31"/>
      </g>
     </g>
    </g>
    <g id="xtick_6">
     <g id="line2d_6">
      <g>
       <use xlink:href="#mddfa1fde39" x="278.277592" y="320.4" style="stroke: #000000; stroke-width: 0.8"/>
      </g>
     </g>
     <g id="text_6">
      <!-- 2 -->
      <g transform="translate(275.096342 334.998438)scale(0.1 -0.1)">
       <use xlink:href="#DejaVuSans-32"/>
      </g>
     </g>
    </g>
   </g>
   <g id="matplotlib.axis_2">
    <g id="ytick_1">
     <g id="line2d_7">
      <defs>
       <path id="m1944970576" d="M 0 0 
L -3.5 0 
" style="stroke: #000000; stroke-width: 0.8"/>
      </defs>
      <g>
       <use xlink:href="#m1944970576" x="45" y="320.4" style="stroke: #000000; stroke-width: 0.8"/>
      </g>
     </g>
     <g id="text_7">
      <!-- −3 -->
      <g transform="translate(23.257812 324.199219)scale(0.1 -0.1)">
       <use xlink:href="#DejaVuSans-2212"/>
       <use xlink:href="#DejaVuSans-33" x="83.789062"/>
      </g>
     </g>
    </g>
    <g id="ytick_2">
     <g id="line2d_8">
      <g>
       <use xlink:href="#m1944970576" x="45" y="274.045485" style="stroke: #000000; stroke-width: 0.8"/>
      </g>
     </g>
     <g id="text_8">
      <!-- −2 -->
      <g transform="translate(23.257812 277.844704)scale(0.1 -0.1)">
       <use xlink:href="#DejaVuSans-2212"/>
       <use xlink:href="#DejaVuSans-32" x="83.789062"/>
      </g>
     </g>
    </g>
    <g id="ytick_3">
     <g id="line2d_9">
      <g>
       <use xlink:href="#m1944970576" x="45" y="227.69097" style="stroke: #000000; stroke-width: 0.8"/>
      </g>
     </g>
     <g id="text_9">
      <!-- −1 -->
      <g transform="translate(23.257812 231.490189)scale(0.1 -0.1)">
       <use xlink:href="#DejaVuSans-2212"/>
       <use xlink:href="#DejaVuSans-31" x="83.789062"/>
      </g>
     </g>
    </g>
    <g id="ytick_4">
     <g id="line2d_10">
      <g>
       <use xlink:href="#m1944970576" x="45" y="181.336455" style="stroke: #000000; stroke-width: 0.8"/>
      </g>
     </g>
     <g id="text_10">
      <!-- 0 -->
      <g transform="translate(31.6375 185.135674)scale(0.1 -0.1)">
       <use xlink:href="#DejaVuSans-30"/>
      </g>
     </g>
    </g>
    <g id="ytick_5">
     <g id="line2d_11">
      <g>
       <use xlink:href="#m1944970576" x="45" y="134.98194" style="stroke: #000000; stroke-width: 0.8"/>
      </g>
     </g>
     <g id="text_11">
      <!-- 1 -->
      <g transform="translate(31.6375 138.781159)scale(0.1 -0.1)">
       <use xlink:href="#DejaVuSans-31"/>
      </g>
     </g>
    </g>
    <g id="ytick_6">
     <g id="line2d_12">
      <g>
       <use xlink:href="#m1944970576" x="45" y="88.627425" style="stroke: #000000; stroke-width: 0.8"/>
      </g>
     </g>
     <g id="text_12">
      <!-- 2 -->
      <g transform="translate(31.6375 92.426643)scale(0.1 -0.1)">
       <use xlink:href="#DejaVuSans-32"/>
      </g>
     </g>
    </g>
   </g>
   <g id="PathCollection_2">
    <path d="M 169.103679 195.385566 
L 167.237458 194.894129 
L 165.371237 194.273798 
L 163.505017 193.739411 
L 162.538755 193.388629 
L 160.705686 192.384605 
L 157.651185 190.607358 
L 156.713262 189.680268 
L 155.107023 187.644916 
L 154.786452 186.898997 
L 154.531672 185.044816 
L 154.491518 184.117726 
L 154.567437 183.190635 
L 155.107023 181.800386 
L 156.758283 178.555184 
L 157.109236 177.628094 
L 157.934004 176.701003 
L 159.772575 175.633666 
L 161.638796 174.682036 
L 162.571906 174.27977 
L 163.505017 173.551626 
L 165.371237 171.737618 
L 166.304348 170.970107 
L 168.170569 169.890799 
L 169.395716 169.284281 
L 173.035526 166.50301 
L 174.702341 165.539938 
L 175.635452 165.312883 
L 176.568562 165.515657 
L 178.434783 165.463183 
L 184.966555 166.506612 
L 186.832776 167.201588 
L 187.765886 167.722048 
L 191.565787 169.284281 
L 202.695652 175.09565 
L 204.640912 175.773913 
L 203.628763 176.874896 
L 201.422534 179.482274 
L 200.402208 180.409365 
L 193.011723 183.190635 
L 191.321312 184.117726 
L 185.785621 187.826087 
L 184.033445 189.327457 
L 182.089493 191.534448 
L 180.301003 193.55405 
L 177.501672 195.395702 
L 174.702341 195.807597 
L 171.90301 195.832085 
L 169.103679 195.385566 
L 169.103679 195.385566 
" clip-path="url(#p135069c6ac)" style="fill: none; stroke-dasharray: 5.55,2.4; stroke-dashoffset: 0; stroke: #000000; stroke-width: 1.5"/>
   </g>
   <g id="PathCollection_3">
    <path d="M 162.571906 219.456902 
L 159.772575 218.920677 
L 158.687217 218.420067 
L 156.973244 217.81429 
L 156.040134 217.379132 
L 155.107023 217.061211 
L 154.173913 216.517501 
L 153.240803 216.212849 
L 147.64214 213.132518 
L 142.043478 209.145572 
L 140.579695 208.222074 
L 139.244147 207.071371 
L 138.311037 206.224831 
L 132.712375 198.202922 
L 132.691056 198.02408 
L 132.025272 197.09699 
L 131.77624 196.1699 
L 131.665691 195.242809 
L 131.22151 194.315719 
L 130.846154 193.108167 
L 129.905056 190.607358 
L 129.769971 189.680268 
L 129.49923 188.753177 
L 129.347578 187.826087 
L 129.359891 183.190635 
L 129.506032 182.263545 
L 129.845872 181.336455 
L 130.018127 179.482274 
L 130.380969 178.555184 
L 131.770866 175.773913 
L 131.779264 175.571925 
L 135.190293 168.357191 
L 138.065119 163.721739 
L 139.244147 162.603764 
L 145.77592 157.605982 
L 147.64214 155.813346 
L 149.577514 154.450836 
L 151.374582 152.818376 
L 156.973244 146.358561 
L 157.906355 145.819741 
L 161.019027 144.252843 
L 164.556739 142.398662 
L 167.237458 141.414931 
L 168.170569 141.161405 
L 173.769231 140.472472 
L 176.568562 139.862633 
L 179.367893 139.785007 
L 182.228595 140.544482 
L 186.832776 142.188583 
L 193.692545 145.179933 
L 195.230769 145.925801 
L 196.16388 146.431367 
L 198.0301 147.678923 
L 200.829431 148.992683 
L 206.847998 150.742475 
L 208.294314 151.164167 
L 212.959866 151.714444 
L 217.625418 153.142149 
L 219.491639 153.814437 
L 224.157191 155.712084 
L 225.477243 156.305017 
L 226.023411 156.605415 
L 226.956522 157.258048 
L 232.555184 163.010234 
L 232.991099 163.721739 
L 234.205505 166.50301 
L 235.565609 169.284281 
L 235.868081 171.138462 
L 235.979134 172.992642 
L 235.488123 175.773913 
L 235.244916 176.701003 
L 232.555184 181.389612 
L 230.663124 184.117726 
L 228.316367 186.898997 
L 223.210168 191.534448 
L 217.542513 196.1699 
L 215.759197 197.73549 
L 214.826087 198.380959 
L 213.622071 198.951171 
L 211.952501 199.878261 
L 204.561873 203.955555 
L 202.695652 204.97978 
L 200.332584 206.367893 
L 198.963211 207.468445 
L 193.364548 212.596013 
L 192.431438 213.312697 
L 189.632107 214.544455 
L 187.744483 215.638796 
L 184.033445 217.818237 
L 183.100334 218.115861 
L 178.434783 218.574042 
L 170.036789 219.86206 
L 168.170569 219.950671 
L 166.304348 219.794166 
L 164.438127 219.495614 
L 162.571906 219.456902 
L 162.571906 219.456902 
" clip-path="url(#p135069c6ac)" style="fill: none; stroke: #000000; stroke-width: 1.5"/>
   </g>
   <g id="PathCollection_4">
    <path d="M 165.371237 243.494539 
L 165.126821 243.451505 
L 164.438127 243.330244 
L 163.505017 243.165942 
L 162.571906 243.001649 
L 161.638796 242.837353 
L 160.705686 242.672921 
L 160.125625 242.524415 
L 159.772575 242.433088 
L 158.839465 242.158695 
L 157.906355 241.884871 
L 156.973244 241.610481 
L 156.928793 241.597324 
L 156.040134 241.330765 
L 155.107023 241.033786 
L 154.173913 240.736808 
L 153.984965 240.670234 
L 153.240803 240.420902 
L 152.307692 240.198912 
L 151.374582 239.973671 
L 150.441472 239.748061 
L 150.423858 239.743144 
L 149.508361 239.481264 
L 148.575251 239.214344 
L 147.64214 238.947426 
L 147.182894 238.816054 
L 146.70903 238.680501 
L 145.77592 238.413598 
L 144.842809 238.125068 
L 144.275673 237.888963 
L 143.909699 237.727037 
L 142.976589 237.292766 
L 142.295789 236.961873 
L 142.043478 236.837525 
L 141.110368 236.29106 
L 140.694826 236.034783 
L 140.177258 235.715583 
L 139.244147 235.140091 
L 139.191615 235.107692 
L 138.311037 234.564605 
L 137.68839 234.180602 
L 137.377926 233.989124 
L 136.444816 233.413535 
L 136.187615 233.253512 
L 135.511706 232.834287 
L 134.696976 232.326421 
L 134.578595 232.252018 
L 133.645485 231.659898 
L 133.236428 231.399331 
L 132.712375 231.058273 
L 131.820782 230.472241 
L 131.779264 230.444934 
L 130.846154 229.831226 
L 130.411197 229.545151 
L 129.913043 229.215687 
L 129.012673 228.61806 
L 128.979933 228.596269 
L 128.046823 227.943287 
L 127.753694 227.69097 
L 127.113712 227.111196 
L 126.730327 226.76388 
L 126.180602 226.265869 
L 125.707302 225.836789 
L 125.247492 225.420204 
L 124.68727 224.909699 
L 124.314381 224.571014 
L 123.668871 223.982609 
L 123.381271 223.730691 
L 122.582803 223.055518 
L 122.448161 222.934607 
L 121.55846 222.128428 
L 121.51505 222.088841 
L 120.58194 221.23863 
L 120.54276 221.201338 
L 119.766416 220.274247 
L 119.648829 220.105006 
L 119.135597 219.347157 
L 118.715719 218.668739 
L 118.566441 218.420067 
L 118.009908 217.492977 
L 117.782609 217.113382 
L 117.454912 216.565886 
L 116.903467 215.638796 
L 116.849498 215.548729 
L 116.350139 214.711706 
L 115.916388 214.006407 
L 115.778739 213.784615 
L 115.17736 212.857525 
L 114.983278 212.557806 
L 114.577028 211.930435 
L 114.050167 211.116803 
L 113.97811 211.003344 
L 113.376363 210.076254 
L 113.117057 209.675814 
L 112.77806 209.149164 
L 112.183946 208.234699 
L 112.175413 208.222074 
L 111.416538 207.294983 
L 111.250836 207.003635 
L 110.959918 206.367893 
L 110.660107 205.440803 
L 110.366642 204.513712 
L 110.317726 204.367602 
L 110.053784 203.586622 
L 109.746365 202.659532 
L 109.441131 201.732441 
L 109.384615 201.560789 
L 109.135418 200.805351 
L 108.821527 199.878261 
L 108.634278 198.951171 
L 108.48261 198.02408 
L 108.451505 197.834744 
L 108.327572 197.09699 
L 108.167928 196.1699 
L 107.871677 195.242809 
L 107.544238 194.315719 
L 107.518395 194.239829 
L 107.228527 193.388629 
L 106.918595 192.461538 
L 106.637601 191.534448 
L 106.585284 191.336776 
L 106.393015 190.607358 
L 106.200572 189.680268 
L 106.152399 188.753177 
L 106.150402 187.826087 
L 106.298802 186.898997 
L 106.446716 185.971906 
L 106.559812 185.044816 
L 106.585284 184.878176 
L 106.70102 184.117726 
L 106.86545 183.190635 
L 107.029898 182.263545 
L 107.186276 181.336455 
L 107.333072 180.409365 
L 107.476633 179.482274 
L 107.518395 179.212458 
L 107.624015 178.555184 
L 107.784495 177.628094 
L 107.949989 176.701003 
L 108.115478 175.773913 
L 108.348473 174.846823 
L 108.451505 174.44117 
L 108.581834 173.919732 
L 108.809264 172.992642 
L 109.036699 172.065552 
L 109.264123 171.138462 
L 109.384615 170.614387 
L 109.477192 170.211371 
L 109.68982 169.284281 
L 109.902453 168.357191 
L 110.11508 167.4301 
L 110.317726 166.5466 
L 110.327724 166.50301 
L 110.606443 165.57592 
L 110.985196 164.648829 
L 111.250836 164.012241 
L 111.372059 163.721739 
L 111.758905 162.794649 
L 112.145745 161.867559 
L 112.183946 161.776006 
L 112.532597 160.940468 
L 112.921899 160.013378 
L 113.117057 159.565717 
L 113.332853 159.086288 
L 113.750155 158.159197 
L 114.050167 157.492679 
L 114.167458 157.232107 
L 114.584759 156.305017 
L 114.983278 155.419653 
L 115.00206 155.377926 
L 115.521445 154.450836 
L 115.916388 154.027311 
L 116.385969 153.523746 
L 116.849498 153.026682 
L 117.250508 152.596656 
L 117.782609 152.02604 
L 118.11502 151.669565 
L 118.715719 151.057962 
L 119.007816 150.742475 
L 119.648829 149.974283 
L 119.783834 149.815385 
L 120.58194 148.969175 
L 120.661813 148.888294 
L 121.51505 148.028604 
L 121.581648 147.961204 
L 122.448161 147.126178 
L 122.552552 147.034114 
L 123.381271 146.320868 
L 123.629057 146.107023 
L 124.314381 145.516953 
L 124.705807 145.179933 
L 125.247492 144.713557 
L 125.782584 144.252843 
L 126.180602 143.912921 
L 126.886339 143.325753 
L 127.113712 143.136731 
L 128.001523 142.398662 
L 128.046823 142.364334 
L 128.979933 141.603074 
L 129.109646 141.471572 
L 129.913043 140.606383 
L 129.970138 140.544482 
L 130.822385 139.617391 
L 130.846154 139.591529 
L 131.674431 138.690301 
L 131.779264 138.576234 
L 132.526482 137.763211 
L 132.712375 137.560943 
L 133.378508 136.83612 
L 133.645485 136.545626 
L 134.230565 135.90903 
L 134.578595 135.530346 
L 135.082602 134.98194 
L 135.511706 134.476501 
L 135.876522 134.054849 
L 136.444816 133.47835 
L 136.813807 133.127759 
L 137.377926 132.618367 
L 137.840509 132.200669 
L 138.311037 131.7758 
L 138.867207 131.273579 
L 139.244147 130.932872 
L 139.890037 130.346488 
L 140.177258 130.08305 
L 141.035259 129.419398 
L 141.110368 129.371722 
L 142.043478 128.858144 
L 142.695301 128.492308 
L 142.976589 128.335391 
L 143.909699 127.811061 
L 144.346916 127.565217 
L 144.842809 127.28669 
L 145.77592 126.762579 
L 145.997493 126.638127 
L 146.70903 126.238481 
L 147.64214 125.714387 
L 147.648105 125.711037 
L 148.575251 125.190283 
L 149.298705 124.783946 
L 149.508361 124.666705 
L 150.441472 124.134848 
L 150.939122 123.856856 
L 151.374582 123.613612 
L 152.307692 123.092388 
L 152.597032 122.929766 
L 153.240803 122.561314 
L 154.173913 122.027681 
L 154.218896 122.002676 
L 155.107023 121.540454 
L 156.040134 121.13376 
L 156.171173 121.075585 
L 156.973244 120.719507 
L 157.906355 120.277039 
L 158.164796 120.148495 
L 158.839465 119.810571 
L 159.772575 119.49855 
L 160.684486 119.221405 
L 160.705686 119.214962 
L 161.638796 118.928271 
L 162.571906 118.612894 
L 163.505017 118.366992 
L 163.80266 118.294314 
L 164.438127 118.136935 
L 165.371237 117.941629 
L 166.304348 117.746241 
L 167.237458 117.613089 
L 168.170569 117.591665 
L 169.103679 117.497401 
L 170.036789 117.403055 
L 170.388318 117.367224 
L 170.9699 117.307954 
L 171.90301 117.211523 
L 172.83612 117.115113 
L 173.769231 117.018703 
L 174.702341 116.92229 
L 175.635452 116.825858 
L 176.568562 116.729445 
L 177.501672 116.642606 
L 178.434783 116.596762 
L 179.367893 116.550901 
L 180.301003 116.535588 
L 181.234114 116.707153 
L 182.167224 116.88791 
L 183.100334 117.070636 
L 184.033445 117.254796 
L 184.591098 117.367224 
L 184.966555 117.443044 
L 185.899666 117.631053 
L 186.832776 117.819167 
L 187.765886 117.959684 
L 188.698997 118.079986 
L 189.632107 118.200433 
L 189.96165 118.294314 
L 190.565217 118.46483 
L 191.498328 118.746082 
L 192.431438 119.053343 
L 192.925192 119.221405 
L 193.364548 119.371058 
L 194.297659 119.689393 
L 195.230769 120.001386 
L 195.739305 120.148495 
L 196.16388 120.273609 
L 197.09699 120.59874 
L 198.0301 120.938182 
L 198.383124 121.075585 
L 198.963211 121.302138 
L 199.896321 121.710291 
L 200.619011 122.002676 
L 200.829431 122.088093 
L 201.762542 122.48536 
L 202.602038 122.929766 
L 202.695652 122.983656 
L 203.628763 123.523715 
L 204.329377 123.856856 
L 204.561873 123.961935 
L 205.494983 124.385862 
L 206.11137 124.783946 
L 206.428094 124.995345 
L 207.361204 125.665245 
L 207.445775 125.711037 
L 208.294314 126.123221 
L 209.227425 126.432084 
L 209.849914 126.638127 
L 210.160535 126.740942 
L 211.093645 127.092407 
L 212.026756 127.410865 
L 212.497863 127.565217 
L 212.959866 127.716586 
L 213.892977 128.022309 
L 214.826087 128.328037 
L 215.352955 128.492308 
L 215.759197 128.620352 
L 216.692308 128.902893 
L 217.625418 129.184049 
L 218.558528 129.414898 
L 218.572093 129.419398 
L 219.491639 129.737146 
L 220.424749 130.064345 
L 221.241131 130.346488 
L 221.35786 130.384869 
L 222.29097 130.610271 
L 223.22408 130.812351 
L 224.157191 131.019179 
L 224.744455 131.273579 
L 225.090301 131.430344 
L 226.023411 131.828085 
L 226.891447 132.200669 
L 226.956522 132.23137 
L 227.889632 132.654403 
L 228.822742 133.07832 
L 228.928219 133.127759 
L 229.755853 133.515695 
L 230.688963 133.953059 
L 230.906129 134.054849 
L 231.622074 134.390435 
L 232.555184 134.82781 
L 232.887648 134.98194 
L 233.488294 135.256205 
L 234.421405 135.677516 
L 234.934053 135.90903 
L 235.354515 136.098889 
L 236.287625 136.520156 
L 236.987399 136.83612 
L 237.220736 136.941467 
L 238.153846 137.362767 
L 239.040798 137.763211 
L 239.086957 137.784048 
L 240.020067 138.205321 
L 240.953177 138.626606 
L 241.041609 138.690301 
L 241.886288 139.443379 
L 242.073135 139.617391 
L 242.819398 140.352101 
L 243.007308 140.544482 
L 243.752508 141.314989 
L 243.903447 141.471572 
L 244.685619 142.270936 
L 244.813 142.398662 
L 245.618729 143.209382 
L 245.734736 143.325753 
L 246.551839 144.147932 
L 246.656103 144.252843 
L 247.48495 145.086855 
L 247.577453 145.179933 
L 248.41806 146.025769 
L 248.501166 146.107023 
L 249.351171 146.928414 
L 249.460944 147.034114 
L 250.284281 147.880056 
L 250.346479 147.961204 
L 250.860344 148.888294 
L 251.217391 149.533446 
L 251.373424 149.815385 
L 251.883693 150.742475 
L 252.150502 151.266362 
L 252.342065 151.669565 
L 252.735687 152.596656 
L 253.083612 153.427397 
L 253.123964 153.523746 
L 253.553214 154.450836 
L 254.006135 155.377926 
L 254.016722 155.399463 
L 254.467901 156.305017 
L 254.922719 157.232107 
L 254.949833 157.292102 
L 255.353456 158.159197 
L 255.779374 159.086288 
L 255.882943 159.334778 
L 256.165784 160.013378 
L 256.539261 160.940468 
L 256.816054 161.658297 
L 256.896419 161.867559 
L 257.252459 162.794649 
L 257.608488 163.721739 
L 257.749164 164.088037 
L 257.964537 164.648829 
L 258.320566 165.57592 
L 258.626555 166.50301 
L 258.682274 166.812704 
L 258.794589 167.4301 
L 258.82932 168.357191 
L 258.714276 169.284281 
L 258.682274 169.542181 
L 258.599584 170.211371 
L 258.493894 171.138462 
L 258.38685 172.065552 
L 258.279509 172.992642 
L 258.159077 173.919732 
L 258.035868 174.846823 
L 257.912676 175.773913 
L 257.789475 176.701003 
L 257.749164 177.004357 
L 257.666277 177.628094 
L 257.538729 178.555184 
L 257.403986 179.482274 
L 257.383916 180.409365 
L 257.374195 181.336455 
L 257.364449 182.263545 
L 257.086526 183.190635 
L 256.816054 183.956541 
L 256.759131 184.117726 
L 256.424552 185.044816 
L 256.042587 185.971906 
L 255.882943 186.352748 
L 255.648507 186.898997 
L 255.228853 187.826087 
L 254.949833 188.476339 
L 254.83098 188.753177 
L 254.397125 189.680268 
L 254.016722 190.356147 
L 253.877356 190.607358 
L 253.349791 191.534448 
L 253.083612 192.002343 
L 252.822376 192.461538 
L 252.294945 193.388629 
L 252.150502 193.642533 
L 251.767526 194.315719 
L 251.223917 195.242809 
L 251.217391 195.253833 
L 250.675149 196.1699 
L 250.284281 196.7565 
L 250.039999 197.09699 
L 249.351171 197.941388 
L 249.279742 198.02408 
L 248.41806 198.850605 
L 248.302207 198.951171 
L 247.48495 199.661989 
L 247.23629 199.878261 
L 246.551839 200.474072 
L 246.176755 200.805351 
L 245.618729 201.333949 
L 245.198054 201.732441 
L 244.685619 202.217861 
L 244.219367 202.659532 
L 243.752508 203.101769 
L 243.245287 203.586622 
L 242.819398 204.015528 
L 242.32577 204.513712 
L 241.886288 204.957252 
L 241.407159 205.440803 
L 240.953177 205.898961 
L 240.488523 206.367893 
L 240.020067 206.861542 
L 239.605128 207.294983 
L 239.086957 207.876453 
L 238.778953 208.222074 
L 238.153846 208.923503 
L 237.952744 209.149164 
L 237.220736 209.968869 
L 237.123779 210.076254 
L 236.287625 210.911247 
L 236.188859 211.003344 
L 235.354515 211.780874 
L 235.194028 211.930435 
L 234.421405 212.625404 
L 234.161806 212.857525 
L 233.488294 213.437231 
L 233.084689 213.784615 
L 232.555184 214.240435 
L 232.01616 214.711706 
L 231.622074 215.04819 
L 230.84142 215.638796 
L 230.688963 215.750331 
L 229.755853 216.38794 
L 229.430236 216.565886 
L 228.822742 216.887979 
L 227.889632 217.428706 
L 227.780524 217.492977 
L 226.956522 217.978351 
L 226.206608 218.420067 
L 226.023411 218.52665 
L 225.090301 219.041405 
L 224.51865 219.347157 
L 224.157191 219.540484 
L 223.22408 220.049412 
L 222.825065 220.274247 
L 222.29097 220.57537 
L 221.35786 221.101478 
L 221.17615 221.201338 
L 220.424749 221.618412 
L 219.491639 222.124333 
L 219.484119 222.128428 
L 218.558528 222.627175 
L 217.834723 223.055518 
L 217.625418 223.176284 
L 216.692308 223.654894 
L 216.063181 223.982609 
L 215.759197 224.154937 
L 214.826087 224.775287 
L 214.635861 224.909699 
L 213.892977 225.438445 
L 213.338427 225.836789 
L 212.959866 226.106932 
L 212.060338 226.76388 
L 212.026756 226.788 
L 211.093645 227.4444 
L 210.742526 227.69097 
L 210.160535 228.098431 
L 209.464119 228.61806 
L 209.227425 228.795592 
L 208.32797 229.545151 
L 208.294314 229.574372 
L 207.361204 230.41103 
L 207.292904 230.472241 
L 206.428094 231.247276 
L 206.258429 231.399331 
L 205.494983 232.083531 
L 205.22601 232.326421 
L 204.561873 232.941546 
L 204.073085 233.253512 
L 203.628763 233.49043 
L 202.695652 233.971233 
L 202.336481 234.180602 
L 201.762542 234.521313 
L 200.829431 235.10125 
L 200.8181 235.107692 
L 199.896321 235.635317 
L 199.198423 236.034783 
L 198.963211 236.169412 
L 198.0301 236.703502 
L 197.578706 236.961873 
L 197.09699 237.237609 
L 196.16388 237.771709 
L 195.957014 237.888963 
L 195.230769 238.290583 
L 194.297659 238.805063 
L 194.277725 238.816054 
L 193.364548 239.319552 
L 192.596262 239.743144 
L 192.431438 239.834018 
L 191.498328 240.348606 
L 190.941289 240.670234 
L 190.565217 240.87785 
L 189.632107 241.196613 
L 188.698997 241.453037 
L 187.765886 241.583864 
L 187.658669 241.597324 
L 186.832776 241.701003 
L 185.899666 241.822732 
L 184.966555 241.946663 
L 184.033445 242.070595 
L 183.100334 242.19452 
L 182.167224 242.318448 
L 181.234114 242.442391 
L 180.616533 242.524415 
L 180.301003 242.566322 
L 179.367893 242.690247 
L 178.434783 242.81418 
L 177.501672 242.938108 
L 176.568562 243.049001 
L 175.635452 243.112567 
L 174.702341 243.16549 
L 173.769231 243.216895 
L 172.83612 243.256375 
L 171.90301 243.300423 
L 170.9699 243.420064 
L 170.724718 243.451505 
L 170.036789 243.539719 
L 169.103679 243.659352 
L 168.170569 243.778993 
L 167.237458 243.791523 
L 166.304348 243.658318 
L 165.371237 243.494539 
z
" clip-path="url(#p135069c6ac)" style="fill: none; stroke: #000000; stroke-width: 1.5"/>
   </g>
   <g id="patch_3">
    <path d="M 45 320.4 
L 45 43.2 
" style="fill: none; stroke: #000000; stroke-width: 0.8; stroke-linejoin: miter; stroke-linecap: square"/>
   </g>
   <g id="patch_4">
    <path d="M 324 320.4 
L 324 43.2 
" style="fill: none; stroke: #000000; stroke-width: 0.8; stroke-linejoin: miter; stroke-linecap: square"/>
   </g>
   <g id="patch_5">
    <path d="M 45 320.4 
L 324 320.4 
" style="fill: none; stroke: #000000; stroke-width: 0.8; stroke-linejoin: miter; stroke-linecap: square"/>
   </g>
   <g id="patch_6">
    <path d="M 45 43.2 
L 324 43.2 
" style="fill: none; stroke: #000000; stroke-width: 0.8; stroke-linejoin: miter; stroke-linecap: square"/>
   </g>
  </g>
 </g>
 <defs>
  <clipPath id="p135069c6ac">
   <rect x="45" y="43.2" width="279" height="277.2"/>
  </clipPath>
 </defs>
</svg>
