<?xml version="1.0" encoding="utf-8" standalone="no"?>
<!DOCTYPE svg PUBLIC "-//W3C//DTD SVG 1.1//EN"
  "http://www.w3.org/Graphics/SVG/1.1/DTD/svg11.dtd">
<svg xmlns:xlink="http://www.w3.org/1999/xlink" width="360pt" height="360pt" viewBox="0 0 360 360" xmlns="http://www.w3.org/2000/svg" version="1.1">
 <metadata>
  <rdf:RDF xmlns:dc="http://purl.org/dc/elements/1.1/" xmlns:cc="http://creativecommons.org/ns#" xmlns:rdf="http://www.w3.org/1999/02/22-rdf-syntax-ns#">
   <cc:Work>
    <dc:type rdf:resource="http://purl.org/dc/dcmitype/StillImage"/>
    <dc:date>2022-04-10T19:53:25.177783</dc:date>
    <dc:format>image/svg+xml</dc:format>
    <dc:creator>
     <cc:Agent>
      <dc:title>Matplotlib v3.5.1, https://matplotlib.org/</dc:title>
     </cc:Agent>
    </dc:creator>
   </cc:Work>
  </rdf:RDF>
 </metadata>
 <defs>
  <style type="text/css">*{stroke-linejoin: round; stroke-linecap: butt}</style>
 </defs>
 <g id="figure_1">
  <g id="patch_1">
   <path d="M 0 360 
L 360 360 
L 360 0 
L 0 0 
z
" style="fill: #ffffff"/>
  </g>
  <g id="axes_1">
   <g id="patch_2">
    <path d="M 45 320.4 
L 324 320.4 
L 324 43.2 
L 45 43.2 
z
" style="fill: #ffffff"/>
   </g>
   <g id="PathCollection_1">
    <defs>
     <path id="ma06abce6ca" d="M 0 0.5 
C 0.132602 0.5 0.25979 0.447317 0.353553 0.353553 
C 0.447317 0.25979 0.5 0.132602 0.5 0 
C 0.5 -0.132602 0.447317 -0.25979 0.353553 -0.353553 
C 0.25979 -0.447317 0.132602 -0.5 0 -0.5 
C -0.132602 -0.5 -0.25979 -0.447317 -0.353553 -0.353553 
C -0.447317 -0.25979 -0.5 -0.132602 -0.5 0 
C -0.5 0.132602 -0.447317 0.25979 -0.353553 0.353553 
C -0.25979 0.447317 -0.132602 0.5 0 0.5 
z
" style="stroke: #ff0000"/>
    </defs>
    <g clip-path="url(#p79104d29a0)">
     <use xlink:href="#ma06abce6ca" x="231.952391" y="181.336455" style="fill: #ff0000; stroke: #ff0000"/>
     <use xlink:href="#ma06abce6ca" x="230.584726" y="176.872444" style="fill: #ff0000; stroke: #ff0000"/>
     <use xlink:href="#ma06abce6ca" x="228.54671" y="172.72375" style="fill: #ff0000; stroke: #ff0000"/>
     <use xlink:href="#ma06abce6ca" x="226.11242" y="168.935519" style="fill: #ff0000; stroke: #ff0000"/>
     <use xlink:href="#ma06abce6ca" x="223.553383" y="165.456385" style="fill: #ff0000; stroke: #ff0000"/>
     <use xlink:href="#ma06abce6ca" x="221.047887" y="162.175006" style="fill: #ff0000; stroke: #ff0000"/>
     <use xlink:href="#ma06abce6ca" x="218.638209" y="158.982928" style="fill: #ff0000; stroke: #ff0000"/>
     <use xlink:href="#ma06abce6ca" x="216.24839" y="155.829744" style="fill: #ff0000; stroke: #ff0000"/>
     <use xlink:href="#ma06abce6ca" x="213.744669" y="152.744006" style="fill: #ff0000; stroke: #ff0000"/>
     <use xlink:href="#ma06abce6ca" x="211.004004" y="149.814421" style="fill: #ff0000; stroke: #ff0000"/>
     <use xlink:href="#ma06abce6ca" x="207.959878" y="147.146527" style="fill: #ff0000; stroke: #ff0000"/>
     <use xlink:href="#ma06abce6ca" x="204.612576" y="144.818464" style="fill: #ff0000; stroke: #ff0000"/>
     <use xlink:href="#ma06abce6ca" x="201.010138" y="142.853708" style="fill: #ff0000; stroke: #ff0000"/>
     <use xlink:href="#ma06abce6ca" x="197.215736" y="141.216834" style="fill: #ff0000; stroke: #ff0000"/>
     <use xlink:href="#ma06abce6ca" x="193.276124" y="139.830947" style="fill: #ff0000; stroke: #ff0000"/>
     <use xlink:href="#ma06abce6ca" x="189.201672" y="138.614013" style="fill: #ff0000; stroke: #ff0000"/>
     <use xlink:href="#ma06abce6ca" x="184.966555" y="137.52726" style="fill: #ff0000; stroke: #ff0000"/>
     <use xlink:href="#ma06abce6ca" x="180.533422" y="136.61649" style="fill: #ff0000; stroke: #ff0000"/>
     <use xlink:href="#ma06abce6ca" x="175.893554" y="136.017677" style="fill: #ff0000; stroke: #ff0000"/>
     <use xlink:href="#ma06abce6ca" x="171.097198" y="135.910286" style="fill: #ff0000; stroke: #ff0000"/>
     <use xlink:href="#ma06abce6ca" x="166.247172" y="136.435432" style="fill: #ff0000; stroke: #ff0000"/>
     <use xlink:href="#ma06abce6ca" x="161.451231" y="137.62621" style="fill: #ff0000; stroke: #ff0000"/>
     <use xlink:href="#ma06abce6ca" x="156.76087" y="139.396004" style="fill: #ff0000; stroke: #ff0000"/>
     <use xlink:href="#ma06abce6ca" x="152.139691" y="141.594867" style="fill: #ff0000; stroke: #ff0000"/>
     <use xlink:href="#ma06abce6ca" x="147.487891" y="144.099588" style="fill: #ff0000; stroke: #ff0000"/>
     <use xlink:href="#ma06abce6ca" x="142.71195" y="146.882722" style="fill: #ff0000; stroke: #ff0000"/>
     <use xlink:href="#ma06abce6ca" x="137.798852" y="150.023335" style="fill: #ff0000; stroke: #ff0000"/>
     <use xlink:href="#ma06abce6ca" x="132.855775" y="153.662365" style="fill: #ff0000; stroke: #ff0000"/>
     <use xlink:href="#ma06abce6ca" x="128.105362" y="157.93573" style="fill: #ff0000; stroke: #ff0000"/>
     <use xlink:href="#ma06abce6ca" x="123.855302" y="162.918158" style="fill: #ff0000; stroke: #ff0000"/>
     <use xlink:href="#ma06abce6ca" x="120.464016" y="168.588879" style="fill: #ff0000; stroke: #ff0000"/>
     <use xlink:href="#ma06abce6ca" x="118.304571" y="174.813181" style="fill: #ff0000; stroke: #ff0000"/>
     <use xlink:href="#ma06abce6ca" x="117.71182" y="181.336455" style="fill: #ff0000; stroke: #ff0000"/>
     <use xlink:href="#ma06abce6ca" x="118.903177" y="187.801151" style="fill: #ff0000; stroke: #ff0000"/>
     <use xlink:href="#ma06abce6ca" x="121.888398" y="193.802532" style="fill: #ff0000; stroke: #ff0000"/>
     <use xlink:href="#ma06abce6ca" x="126.408242" y="198.985322" style="fill: #ff0000; stroke: #ff0000"/>
     <use xlink:href="#ma06abce6ca" x="131.946108" y="203.156554" style="fill: #ff0000; stroke: #ff0000"/>
     <use xlink:href="#ma06abce6ca" x="137.833176" y="206.367233" style="fill: #ff0000; stroke: #ff0000"/>
     <use xlink:href="#ma06abce6ca" x="143.42453" y="208.914868" style="fill: #ff0000; stroke: #ff0000"/>
     <use xlink:href="#ma06abce6ca" x="148.283003" y="211.24764" style="fill: #ff0000; stroke: #ff0000"/>
     <use xlink:href="#ma06abce6ca" x="152.293942" y="213.798277" style="fill: #ff0000; stroke: #ff0000"/>
     <use xlink:href="#ma06abce6ca" x="155.660311" y="216.815831" style="fill: #ff0000; stroke: #ff0000"/>
     <use xlink:href="#ma06abce6ca" x="158.782487" y="220.270861" style="fill: #ff0000; stroke: #ff0000"/>
     <use xlink:href="#ma06abce6ca" x="162.080556" y="223.876911" style="fill: #ff0000; stroke: #ff0000"/>
     <use xlink:href="#ma06abce6ca" x="165.839274" y="227.215878" style="fill: #ff0000; stroke: #ff0000"/>
     <use xlink:href="#ma06abce6ca" x="170.137125" y="229.90714" style="fill: #ff0000; stroke: #ff0000"/>
     <use xlink:href="#ma06abce6ca" x="174.874929" y="231.743168" style="fill: #ff0000; stroke: #ff0000"/>
     <use xlink:href="#ma06abce6ca" x="179.871529" y="232.733376" style="fill: #ff0000; stroke: #ff0000"/>
     <use xlink:href="#ma06abce6ca" x="184.966555" y="233.043096" style="fill: #ff0000; stroke: #ff0000"/>
     <use xlink:href="#ma06abce6ca" x="190.074747" y="232.866186" style="fill: #ff0000; stroke: #ff0000"/>
     <use xlink:href="#ma06abce6ca" x="195.170272" y="232.303053" style="fill: #ff0000; stroke: #ff0000"/>
     <use xlink:href="#ma06abce6ca" x="200.224495" y="231.310635" style="fill: #ff0000; stroke: #ff0000"/>
     <use xlink:href="#ma06abce6ca" x="205.149016" y="229.746873" style="fill: #ff0000; stroke: #ff0000"/>
     <use xlink:href="#ma06abce6ca" x="209.788595" y="227.47562" style="fill: #ff0000; stroke: #ff0000"/>
     <use xlink:href="#ma06abce6ca" x="213.971467" y="224.465315" style="fill: #ff0000; stroke: #ff0000"/>
     <use xlink:href="#ma06abce6ca" x="217.584752" y="220.825421" style="fill: #ff0000; stroke: #ff0000"/>
     <use xlink:href="#ma06abce6ca" x="220.626884" y="216.766717" style="fill: #ff0000; stroke: #ff0000"/>
     <use xlink:href="#ma06abce6ca" x="223.204304" y="212.514907" style="fill: #ff0000; stroke: #ff0000"/>
     <use xlink:href="#ma06abce6ca" x="225.472306" y="208.226919" style="fill: #ff0000; stroke: #ff0000"/>
     <use xlink:href="#ma06abce6ca" x="227.549263" y="203.950542" style="fill: #ff0000; stroke: #ff0000"/>
     <use xlink:href="#ma06abce6ca" x="229.445639" y="199.641431" style="fill: #ff0000; stroke: #ff0000"/>
     <use xlink:href="#ma06abce6ca" x="231.041421" y="195.222941" style="fill: #ff0000; stroke: #ff0000"/>
     <use xlink:href="#ma06abce6ca" x="232.123941" y="190.656125" style="fill: #ff0000; stroke: #ff0000"/>
     <use xlink:href="#ma06abce6ca" x="232.472096" y="185.985156" style="fill: #ff0000; stroke: #ff0000"/>
    </g>
   </g>
   <g id="matplotlib.axis_1">
    <g id="xtick_1">
     <g id="line2d_1">
      <defs>
       <path id="mb4c81137ce" d="M 0 0 
L 0 3.5 
" style="stroke: #000000; stroke-width: 0.8"/>
      </defs>
      <g>
       <use xlink:href="#mb4c81137ce" x="45" y="320.4" style="stroke: #000000; stroke-width: 0.8"/>
      </g>
     </g>
     <g id="text_1">
      <!-- −3 -->
      <g transform="translate(37.628906 334.998438)scale(0.1 -0.1)">
       <defs>
        <path id="DejaVuSans-2212" d="M 678 2272 
L 4684 2272 
L 4684 1741 
L 678 1741 
L 678 2272 
z
" transform="scale(0.015625)"/>
        <path id="DejaVuSans-33" d="M 2597 2516 
Q 3050 2419 3304 2112 
Q 3559 1806 3559 1356 
Q 3559 666 3084 287 
Q 2609 -91 1734 -91 
Q 1441 -91 1130 -33 
Q 819 25 488 141 
L 488 750 
Q 750 597 1062 519 
Q 1375 441 1716 441 
Q 2309 441 2620 675 
Q 2931 909 2931 1356 
Q 2931 1769 2642 2001 
Q 2353 2234 1838 2234 
L 1294 2234 
L 1294 2753 
L 1863 2753 
Q 2328 2753 2575 2939 
Q 2822 3125 2822 3475 
Q 2822 3834 2567 4026 
Q 2313 4219 1838 4219 
Q 1578 4219 1281 4162 
Q 984 4106 628 3988 
L 628 4550 
Q 988 4650 1302 4700 
Q 1616 4750 1894 4750 
Q 2613 4750 3031 4423 
Q 3450 4097 3450 3541 
Q 3450 3153 3228 2886 
Q 3006 2619 2597 2516 
z
" transform="scale(0.015625)"/>
       </defs>
       <use xlink:href="#DejaVuSans-2212"/>
       <use xlink:href="#DejaVuSans-33" x="83.789062"/>
      </g>
     </g>
    </g>
    <g id="xtick_2">
     <g id="line2d_2">
      <g>
       <use xlink:href="#mb4c81137ce" x="91.655518" y="320.4" style="stroke: #000000; stroke-width: 0.8"/>
      </g>
     </g>
     <g id="text_2">
      <!-- −2 -->
      <g transform="translate(84.284425 334.998438)scale(0.1 -0.1)">
       <defs>
        <path id="DejaVuSans-32" d="M 1228 531 
L 3431 531 
L 3431 0 
L 469 0 
L 469 531 
Q 828 903 1448 1529 
Q 2069 2156 2228 2338 
Q 2531 2678 2651 2914 
Q 2772 3150 2772 3378 
Q 2772 3750 2511 3984 
Q 2250 4219 1831 4219 
Q 1534 4219 1204 4116 
Q 875 4013 500 3803 
L 500 4441 
Q 881 4594 1212 4672 
Q 1544 4750 1819 4750 
Q 2544 4750 2975 4387 
Q 3406 4025 3406 3419 
Q 3406 3131 3298 2873 
Q 3191 2616 2906 2266 
Q 2828 2175 2409 1742 
Q 1991 1309 1228 531 
z
" transform="scale(0.015625)"/>
       </defs>
       <use xlink:href="#DejaVuSans-2212"/>
       <use xlink:href="#DejaVuSans-32" x="83.789062"/>
      </g>
     </g>
    </g>
    <g id="xtick_3">
     <g id="line2d_3">
      <g>
       <use xlink:href="#mb4c81137ce" x="138.311037" y="320.4" style="stroke: #000000; stroke-width: 0.8"/>
      </g>
     </g>
     <g id="text_3">
      <!-- −1 -->
      <g transform="translate(130.939943 334.998438)scale(0.1 -0.1)">
       <defs>
        <path id="DejaVuSans-31" d="M 794 531 
L 1825 531 
L 1825 4091 
L 703 3866 
L 703 4441 
L 1819 4666 
L 2450 4666 
L 2450 531 
L 3481 531 
L 3481 0 
L 794 0 
L 794 531 
z
" transform="scale(0.015625)"/>
       </defs>
       <use xlink:href="#DejaVuSans-2212"/>
       <use xlink:href="#DejaVuSans-31" x="83.789062"/>
      </g>
     </g>
    </g>
    <g id="xtick_4">
     <g id="line2d_4">
      <g>
       <use xlink:href="#mb4c81137ce" x="184.966555" y="320.4" style="stroke: #000000; stroke-width: 0.8"/>
      </g>
     </g>
     <g id="text_4">
      <!-- 0 -->
      <g transform="translate(181.785305 334.998438)scale(0.1 -0.1)">
       <defs>
        <path id="DejaVuSans-30" d="M 2034 4250 
Q 1547 4250 1301 3770 
Q 1056 3291 1056 2328 
Q 1056 1369 1301 889 
Q 1547 409 2034 409 
Q 2525 409 2770 889 
Q 3016 1369 3016 2328 
Q 3016 3291 2770 3770 
Q 2525 4250 2034 4250 
z
M 2034 4750 
Q 2819 4750 3233 4129 
Q 3647 3509 3647 2328 
Q 3647 1150 3233 529 
Q 2819 -91 2034 -91 
Q 1250 -91 836 529 
Q 422 1150 422 2328 
Q 422 3509 836 4129 
Q 1250 4750 2034 4750 
z
" transform="scale(0.015625)"/>
       </defs>
       <use xlink:href="#DejaVuSans-30"/>
      </g>
     </g>
    </g>
    <g id="xtick_5">
     <g id="line2d_5">
      <g>
       <use xlink:href="#mb4c81137ce" x="231.622074" y="320.4" style="stroke: #000000; stroke-width: 0.8"/>
      </g>
     </g>
     <g id="text_5">
      <!-- 1 -->
      <g transform="translate(228.440824 334.998438)scale(0.1 -0.1)">
       <use xlink:href="#DejaVuSans-31"/>
      </g>
     </g>
    </g>
    <g id="xtick_6">
     <g id="line2d_6">
      <g>
       <use xlink:href="#mb4c81137ce" x="278.277592" y="320.4" style="stroke: #000000; stroke-width: 0.8"/>
      </g>
     </g>
     <g id="text_6">
      <!-- 2 -->
      <g transform="translate(275.096342 334.998438)scale(0.1 -0.1)">
       <use xlink:href="#DejaVuSans-32"/>
      </g>
     </g>
    </g>
   </g>
   <g id="matplotlib.axis_2">
    <g id="ytick_1">
     <g id="line2d_7">
      <defs>
       <path id="me5c1963288" d="M 0 0 
L -3.5 0 
" style="stroke: #000000; stroke-width: 0.8"/>
      </defs>
      <g>
       <use xlink:href="#me5c1963288" x="45" y="320.4" style="stroke: #000000; stroke-width: 0.8"/>
      </g>
     </g>
     <g id="text_7">
      <!-- −3 -->
      <g transform="translate(23.257812 324.199219)scale(0.1 -0.1)">
       <use xlink:href="#DejaVuSans-2212"/>
       <use xlink:href="#DejaVuSans-33" x="83.789062"/>
      </g>
     </g>
    </g>
    <g id="ytick_2">
     <g id="line2d_8">
      <g>
       <use xlink:href="#me5c1963288" x="45" y="274.045485" style="stroke: #000000; stroke-width: 0.8"/>
      </g>
     </g>
     <g id="text_8">
      <!-- −2 -->
      <g transform="translate(23.257812 277.844704)scale(0.1 -0.1)">
       <use xlink:href="#DejaVuSans-2212"/>
       <use xlink:href="#DejaVuSans-32" x="83.789062"/>
      </g>
     </g>
    </g>
    <g id="ytick_3">
     <g id="line2d_9">
      <g>
       <use xlink:href="#me5c1963288" x="45" y="227.69097" style="stroke: #000000; stroke-width: 0.8"/>
      </g>
     </g>
     <g id="text_9">
      <!-- −1 -->
      <g transform="translate(23.257812 231.490189)scale(0.1 -0.1)">
       <use xlink:href="#DejaVuSans-2212"/>
       <use xlink:href="#DejaVuSans-31" x="83.789062"/>
      </g>
     </g>
    </g>
    <g id="ytick_4">
     <g id="line2d_10">
      <g>
       <use xlink:href="#me5c1963288" x="45" y="181.336455" style="stroke: #000000; stroke-width: 0.8"/>
      </g>
     </g>
     <g id="text_10">
      <!-- 0 -->
      <g transform="translate(31.6375 185.135674)scale(0.1 -0.1)">
       <use xlink:href="#DejaVuSans-30"/>
      </g>
     </g>
    </g>
    <g id="ytick_5">
     <g id="line2d_11">
      <g>
       <use xlink:href="#me5c1963288" x="45" y="134.98194" style="stroke: #000000; stroke-width: 0.8"/>
      </g>
     </g>
     <g id="text_11">
      <!-- 1 -->
      <g transform="translate(31.6375 138.781159)scale(0.1 -0.1)">
       <use xlink:href="#DejaVuSans-31"/>
      </g>
     </g>
    </g>
    <g id="ytick_6">
     <g id="line2d_12">
      <g>
       <use xlink:href="#me5c1963288" x="45" y="88.627425" style="stroke: #000000; stroke-width: 0.8"/>
      </g>
     </g>
     <g id="text_12">
      <!-- 2 -->
      <g transform="translate(31.6375 92.426643)scale(0.1 -0.1)">
       <use xlink:href="#DejaVuSans-32"/>
      </g>
     </g>
    </g>
   </g>
   <g id="PathCollection_2">
    <path d="M 181.234114 209.459507 
L 179.30602 208.222074 
L 175.475537 204.513712 
L 172.439469 200.805351 
L 166.304348 195.820445 
L 164.664735 194.315719 
L 160.08498 190.607358 
L 159.772575 190.425595 
L 150.441472 186.745902 
L 145.77592 184.556321 
L 144.842809 184.035711 
L 144.256493 183.190635 
L 142.947953 180.409365 
L 142.73167 179.482274 
L 142.976589 178.017947 
L 143.362869 176.701003 
L 143.909699 175.502906 
L 144.856114 172.065552 
L 146.184678 171.138462 
L 154.173913 167.280621 
L 156.973244 166.164214 
L 162.678945 162.794649 
L 166.304348 161.216053 
L 167.237458 160.880591 
L 168.170569 160.678803 
L 170.036789 159.922913 
L 171.90301 159.553817 
L 176.568562 158.976445 
L 181.459189 160.013378 
L 185.899666 161.727381 
L 186.832776 162.1652 
L 190.691196 164.648829 
L 194.297659 167.471547 
L 197.386402 169.284281 
L 199.01528 171.138462 
L 204.561873 177.675434 
L 205.494983 179.356139 
L 207.123087 183.190635 
L 208.394932 185.971906 
L 207.761415 187.826087 
L 206.851157 191.534448 
L 206.140268 195.242809 
L 205.866363 196.1699 
L 204.561873 198.40077 
L 203.459117 199.878261 
L 201.712726 202.659532 
L 198.0301 205.929049 
L 194.51141 209.149164 
L 194.297659 209.35715 
L 193.364548 209.827524 
L 192.431438 209.826704 
L 187.765886 209.204523 
L 184.966555 209.177718 
L 181.234114 209.459507 
L 181.234114 209.459507 
" clip-path="url(#p79104d29a0)" style="fill: none; stroke-dasharray: 5.55,2.4; stroke-dashoffset: 0; stroke: #000000; stroke-width: 1.5"/>
   </g>
   <g id="PathCollection_3">
    <path d="M 176.568562 233.42037 
L 174.350812 232.326421 
L 170.036789 230.138175 
L 167.954894 228.61806 
L 160.705686 222.046096 
L 157.817 219.347157 
L 154.173913 216.343282 
L 152.307692 214.630925 
L 149.508361 212.491541 
L 148.575251 211.927412 
L 147.64214 211.509967 
L 146.70903 210.945622 
L 145.77592 210.538279 
L 144.842809 209.943349 
L 143.327636 209.149164 
L 138.311037 206.363442 
L 135.511706 205.129987 
L 134.578595 204.934813 
L 132.712375 204.246817 
L 131.779264 203.970332 
L 130.846154 203.315913 
L 129.913043 202.642641 
L 128.979933 201.77147 
L 128.705087 201.732441 
L 126.177852 199.878261 
L 124.314381 198.003819 
L 123.381271 196.991266 
L 121.507484 195.242809 
L 119.628814 193.388629 
L 119.010958 192.461538 
L 118.282355 190.607358 
L 117.660936 187.826087 
L 117.257247 186.898997 
L 117.07534 185.044816 
L 117.10649 174.846823 
L 117.396437 173.919732 
L 117.864771 172.992642 
L 118.149268 172.065552 
L 118.66864 171.138462 
L 118.715719 170.478161 
L 118.851805 170.211371 
L 119.13951 169.284281 
L 119.648829 168.151052 
L 120.888581 165.57592 
L 121.478208 164.648829 
L 121.51505 164.222557 
L 121.775092 163.721739 
L 122.399771 162.794649 
L 122.448161 162.516251 
L 122.81509 161.867559 
L 123.623603 160.940468 
L 131.779264 154.159882 
L 134.578595 152.223034 
L 137.377926 150.959026 
L 139.244147 149.640521 
L 140.507205 148.888294 
L 141.110368 148.436904 
L 146.777718 145.179933 
L 148.575251 143.894026 
L 156.496349 139.617391 
L 157.957553 138.690301 
L 160.869181 136.83612 
L 161.638796 136.425364 
L 162.571906 136.25949 
L 164.438127 136.156901 
L 169.103679 135.251082 
L 172.83612 135.118778 
L 175.635452 135.150452 
L 176.568562 135.078623 
L 178.434783 135.193832 
L 180.301003 135.626351 
L 184.966555 137.208164 
L 190.565217 139.995012 
L 192.431438 140.632769 
L 197.290586 142.398662 
L 198.0301 142.727462 
L 200.829431 143.655803 
L 202.073316 144.252843 
L 208.294314 148.105672 
L 210.616382 149.815385 
L 212.026756 150.940861 
L 214.997801 153.523746 
L 216.692308 155.588793 
L 222.29097 161.960127 
L 223.45741 163.721739 
L 224.157191 165.095391 
L 224.475093 165.57592 
L 225.090301 166.850084 
L 226.487748 169.284281 
L 227.482194 171.138462 
L 229.167785 173.919732 
L 230.83927 178.555184 
L 231.883445 182.263545 
L 232.3316 184.117726 
L 232.438135 185.971906 
L 231.969463 191.534448 
L 231.174257 193.388629 
L 230.627402 194.315719 
L 229.755853 196.109429 
L 229.712689 196.1699 
L 228.822742 198.783384 
L 228.750835 198.951171 
L 228.321377 200.805351 
L 227.565985 202.659532 
L 226.117564 206.367893 
L 225.771801 207.294983 
L 225.090301 208.71345 
L 223.792129 211.003344 
L 220.424749 216.00916 
L 218.269515 219.347157 
L 216.692308 221.371489 
L 212.959866 224.484649 
L 211.093645 226.028221 
L 206.428094 230.139641 
L 202.695652 231.7041 
L 199.896321 232.641702 
L 193.364548 233.273932 
L 189.632107 233.768908 
L 182.167224 234.125127 
L 179.367893 234.144847 
L 177.501672 233.866425 
L 176.568562 233.42037 
L 176.568562 233.42037 
" clip-path="url(#p79104d29a0)" style="fill: none; stroke: #000000; stroke-width: 1.5"/>
    <path d="M 119.648829 173.927921 
L 119.65262 173.919732 
L 119.648829 173.749372 
L 119.514159 173.919732 
L 119.648829 173.927921 
z
" clip-path="url(#p79104d29a0)" style="fill: none; stroke: #000000; stroke-width: 1.5"/>
   </g>
   <g id="PathCollection_4">
    <path d="M 174.702341 256.495226 
L 173.769231 256.343139 
L 171.90301 255.694059 
L 166.304348 253.526731 
L 164.305504 252.722408 
L 156.040134 248.70097 
L 154.947501 248.086957 
L 146.70903 241.415943 
L 139.244147 234.816727 
L 138.311037 233.937428 
L 130.846154 229.054551 
L 123.338757 224.909699 
L 119.648829 222.603979 
L 117.037751 220.274247 
L 106.338896 210.076254 
L 101.898808 205.440803 
L 98.444749 198.951171 
L 96.833123 194.315719 
L 95.733043 190.607358 
L 95.265175 188.753177 
L 94.897788 186.898997 
L 94.773123 185.971906 
L 94.889045 179.482274 
L 95.093277 177.628094 
L 96.819306 168.357191 
L 98.255929 162.794649 
L 99.449154 159.086288 
L 102.044375 152.596656 
L 110.112629 143.325753 
L 113.117057 140.850269 
L 117.87258 136.83612 
L 119.870345 134.98194 
L 122.870779 132.200669 
L 123.846192 131.273579 
L 125.325133 130.346488 
L 131.779264 126.80273 
L 138.439543 122.929766 
L 144.998353 118.294314 
L 146.70903 117.314132 
L 148.575251 116.5742 
L 155.107023 114.184694 
L 156.973244 113.825428 
L 159.772575 113.599123 
L 164.438127 112.618818 
L 169.103679 111.529262 
L 172.83612 111.380113 
L 175.635452 111.623919 
L 178.434783 112.347208 
L 182.167224 113.299857 
L 186.832776 114.270921 
L 189.632107 114.935779 
L 193.364548 116.001905 
L 194.297659 116.177656 
L 196.16388 116.939529 
L 198.0301 117.798491 
L 201.762542 119.359358 
L 205.494983 120.864736 
L 209.227425 121.923034 
L 211.093645 122.671296 
L 218.558528 126.940633 
L 224.157191 130.470393 
L 227.889632 133.385146 
L 228.822742 134.173005 
L 230.185618 135.90903 
L 234.421405 141.732722 
L 236.287625 143.597509 
L 240.998781 147.961204 
L 242.367258 149.815385 
L 244.733199 153.523746 
L 246.88521 157.232107 
L 250.284281 164.04596 
L 252.435264 169.284281 
L 252.88068 171.138462 
L 253.083612 172.114884 
L 254.733218 176.701003 
L 255.350528 178.555184 
L 256.443764 183.190635 
L 256.353641 188.753177 
L 255.852254 194.315719 
L 255.329258 198.02408 
L 253.234765 202.659532 
L 251.6931 206.367893 
L 248.894329 214.711706 
L 247.377736 218.420067 
L 245.442409 221.201338 
L 241.886288 226.053605 
L 237.220736 232.472584 
L 232.555184 238.684898 
L 231.622074 239.769396 
L 228.322575 242.524415 
L 225.879018 244.378595 
L 219.491639 249.341027 
L 218.558528 249.989072 
L 208.294314 253.920527 
L 206.428094 254.606308 
L 203.628763 255.013163 
L 195.230769 256.489081 
L 192.431438 256.765861 
L 190.565217 256.849548 
L 187.765886 256.787043 
L 177.501672 256.850012 
L 174.702341 256.495226 
L 174.702341 256.495226 
" clip-path="url(#p79104d29a0)" style="fill: none; stroke: #000000; stroke-width: 1.5"/>
   </g>
   <g id="patch_3">
    <path d="M 45 320.4 
L 45 43.2 
" style="fill: none; stroke: #000000; stroke-width: 0.8; stroke-linejoin: miter; stroke-linecap: square"/>
   </g>
   <g id="patch_4">
    <path d="M 324 320.4 
L 324 43.2 
" style="fill: none; stroke: #000000; stroke-width: 0.8; stroke-linejoin: miter; stroke-linecap: square"/>
   </g>
   <g id="patch_5">
    <path d="M 45 320.4 
L 324 320.4 
" style="fill: none; stroke: #000000; stroke-width: 0.8; stroke-linejoin: miter; stroke-linecap: square"/>
   </g>
   <g id="patch_6">
    <path d="M 45 43.2 
L 324 43.2 
" style="fill: none; stroke: #000000; stroke-width: 0.8; stroke-linejoin: miter; stroke-linecap: square"/>
   </g>
  </g>
 </g>
 <defs>
  <clipPath id="p79104d29a0">
   <rect x="45" y="43.2" width="279" height="277.2"/>
  </clipPath>
 </defs>
</svg>
