<?xml version="1.0" encoding="utf-8" standalone="no"?>
<!DOCTYPE svg PUBLIC "-//W3C//DTD SVG 1.1//EN"
  "http://www.w3.org/Graphics/SVG/1.1/DTD/svg11.dtd">
<svg xmlns:xlink="http://www.w3.org/1999/xlink" width="360pt" height="360pt" viewBox="0 0 360 360" xmlns="http://www.w3.org/2000/svg" version="1.1">
 <metadata>
  <rdf:RDF xmlns:dc="http://purl.org/dc/elements/1.1/" xmlns:cc="http://creativecommons.org/ns#" xmlns:rdf="http://www.w3.org/1999/02/22-rdf-syntax-ns#">
   <cc:Work>
    <dc:type rdf:resource="http://purl.org/dc/dcmitype/StillImage"/>
    <dc:date>2022-04-10T19:53:28.551384</dc:date>
    <dc:format>image/svg+xml</dc:format>
    <dc:creator>
     <cc:Agent>
      <dc:title>Matplotlib v3.5.1, https://matplotlib.org/</dc:title>
     </cc:Agent>
    </dc:creator>
   </cc:Work>
  </rdf:RDF>
 </metadata>
 <defs>
  <style type="text/css">*{stroke-linejoin: round; stroke-linecap: butt}</style>
 </defs>
 <g id="figure_1">
  <g id="patch_1">
   <path d="M 0 360 
L 360 360 
L 360 0 
L 0 0 
z
" style="fill: #ffffff"/>
  </g>
  <g id="axes_1">
   <g id="patch_2">
    <path d="M 45 320.4 
L 324 320.4 
L 324 43.2 
L 45 43.2 
z
" style="fill: #ffffff"/>
   </g>
   <g id="PathCollection_1">
    <defs>
     <path id="m3c329a9d53" d="M 0 0.5 
C 0.132602 0.5 0.25979 0.447317 0.353553 0.353553 
C 0.447317 0.25979 0.5 0.132602 0.5 0 
C 0.5 -0.132602 0.447317 -0.25979 0.353553 -0.353553 
C 0.25979 -0.447317 0.132602 -0.5 0 -0.5 
C -0.132602 -0.5 -0.25979 -0.447317 -0.353553 -0.353553 
C -0.447317 -0.25979 -0.5 -0.132602 -0.5 0 
C -0.5 0.132602 -0.447317 0.25979 -0.353553 0.353553 
C -0.25979 0.447317 -0.132602 0.5 0 0.5 
z
" style="stroke: #ff0000"/>
    </defs>
    <g clip-path="url(#pb2d6aff29d)">
     <use xlink:href="#m3c329a9d53" x="237.139452" y="181.336455" style="fill: #ff0000; stroke: #ff0000"/>
     <use xlink:href="#m3c329a9d53" x="237.055523" y="176.239238" style="fill: #ff0000; stroke: #ff0000"/>
     <use xlink:href="#m3c329a9d53" x="236.34831" y="171.181927" style="fill: #ff0000; stroke: #ff0000"/>
     <use xlink:href="#m3c329a9d53" x="235.157993" y="166.209277" style="fill: #ff0000; stroke: #ff0000"/>
     <use xlink:href="#m3c329a9d53" x="233.61993" y="161.313586" style="fill: #ff0000; stroke: #ff0000"/>
     <use xlink:href="#m3c329a9d53" x="231.818931" y="156.454907" style="fill: #ff0000; stroke: #ff0000"/>
     <use xlink:href="#m3c329a9d53" x="229.74378" y="151.610297" style="fill: #ff0000; stroke: #ff0000"/>
     <use xlink:href="#m3c329a9d53" x="227.272643" y="146.840744" style="fill: #ff0000; stroke: #ff0000"/>
     <use xlink:href="#m3c329a9d53" x="224.216935" y="142.339303" style="fill: #ff0000; stroke: #ff0000"/>
     <use xlink:href="#m3c329a9d53" x="220.41729" y="138.418299" style="fill: #ff0000; stroke: #ff0000"/>
     <use xlink:href="#m3c329a9d53" x="215.844943" y="135.421828" style="fill: #ff0000; stroke: #ff0000"/>
     <use xlink:href="#m3c329a9d53" x="210.649466" y="133.597104" style="fill: #ff0000; stroke: #ff0000"/>
     <use xlink:href="#m3c329a9d53" x="205.122642" y="132.989299" style="fill: #ff0000; stroke: #ff0000"/>
     <use xlink:href="#m3c329a9d53" x="199.597941" y="133.414423" style="fill: #ff0000; stroke: #ff0000"/>
     <use xlink:href="#m3c329a9d53" x="194.339276" y="134.520604" style="fill: #ff0000; stroke: #ff0000"/>
     <use xlink:href="#m3c329a9d53" x="189.470393" y="135.903246" style="fill: #ff0000; stroke: #ff0000"/>
     <use xlink:href="#m3c329a9d53" x="184.966555" y="137.222528" style="fill: #ff0000; stroke: #ff0000"/>
     <use xlink:href="#m3c329a9d53" x="180.698717" y="138.283927" style="fill: #ff0000; stroke: #ff0000"/>
     <use xlink:href="#m3c329a9d53" x="176.50356" y="139.064599" style="fill: #ff0000; stroke: #ff0000"/>
     <use xlink:href="#m3c329a9d53" x="172.250247" y="139.686857" style="fill: #ff0000; stroke: #ff0000"/>
     <use xlink:href="#m3c329a9d53" x="167.880847" y="140.354027" style="fill: #ff0000; stroke: #ff0000"/>
     <use xlink:href="#m3c329a9d53" x="163.41454" y="141.275606" style="fill: #ff0000; stroke: #ff0000"/>
     <use xlink:href="#m3c329a9d53" x="158.923061" y="142.611075" style="fill: #ff0000; stroke: #ff0000"/>
     <use xlink:href="#m3c329a9d53" x="154.497513" y="144.449346" style="fill: #ff0000; stroke: #ff0000"/>
     <use xlink:href="#m3c329a9d53" x="150.225314" y="146.819351" style="fill: #ff0000; stroke: #ff0000"/>
     <use xlink:href="#m3c329a9d53" x="146.182402" y="149.712474" style="fill: #ff0000; stroke: #ff0000"/>
     <use xlink:href="#m3c329a9d53" x="142.431786" y="153.098991" style="fill: #ff0000; stroke: #ff0000"/>
     <use xlink:href="#m3c329a9d53" x="139.017274" y="156.934507" style="fill: #ff0000; stroke: #ff0000"/>
     <use xlink:href="#m3c329a9d53" x="135.952307" y="161.165072" style="fill: #ff0000; stroke: #ff0000"/>
     <use xlink:href="#m3c329a9d53" x="133.217935" y="165.739959" style="fill: #ff0000; stroke: #ff0000"/>
     <use xlink:href="#m3c329a9d53" x="130.786201" y="170.628842" style="fill: #ff0000; stroke: #ff0000"/>
     <use xlink:href="#m3c329a9d53" x="128.668013" y="175.827306" style="fill: #ff0000; stroke: #ff0000"/>
     <use xlink:href="#m3c329a9d53" x="126.958842" y="181.336455" style="fill: #ff0000; stroke: #ff0000"/>
     <use xlink:href="#m3c329a9d53" x="125.845448" y="187.121808" style="fill: #ff0000; stroke: #ff0000"/>
     <use xlink:href="#m3c329a9d53" x="125.55677" y="193.077555" style="fill: #ff0000; stroke: #ff0000"/>
     <use xlink:href="#m3c329a9d53" x="126.278885" y="199.024309" style="fill: #ff0000; stroke: #ff0000"/>
     <use xlink:href="#m3c329a9d53" x="128.078491" y="204.748238" style="fill: #ff0000; stroke: #ff0000"/>
     <use xlink:href="#m3c329a9d53" x="130.87518" y="210.062366" style="fill: #ff0000; stroke: #ff0000"/>
     <use xlink:href="#m3c329a9d53" x="134.476252" y="214.855342" style="fill: #ff0000; stroke: #ff0000"/>
     <use xlink:href="#m3c329a9d53" x="138.65522" y="219.097981" style="fill: #ff0000; stroke: #ff0000"/>
     <use xlink:href="#m3c329a9d53" x="143.231495" y="222.802256" style="fill: #ff0000; stroke: #ff0000"/>
     <use xlink:href="#m3c329a9d53" x="148.107678" y="225.959367" style="fill: #ff0000; stroke: #ff0000"/>
     <use xlink:href="#m3c329a9d53" x="153.247531" y="228.501065" style="fill: #ff0000; stroke: #ff0000"/>
     <use xlink:href="#m3c329a9d53" x="158.617158" y="230.31467" style="fill: #ff0000; stroke: #ff0000"/>
     <use xlink:href="#m3c329a9d53" x="164.134682" y="231.304578" style="fill: #ff0000; stroke: #ff0000"/>
     <use xlink:href="#m3c329a9d53" x="169.662727" y="231.460933" style="fill: #ff0000; stroke: #ff0000"/>
     <use xlink:href="#m3c329a9d53" x="175.045125" y="230.893057" style="fill: #ff0000; stroke: #ff0000"/>
     <use xlink:href="#m3c329a9d53" x="180.16145" y="229.808752" style="fill: #ff0000; stroke: #ff0000"/>
     <use xlink:href="#m3c329a9d53" x="184.966555" y="228.449558" style="fill: #ff0000; stroke: #ff0000"/>
     <use xlink:href="#m3c329a9d53" x="189.494272" y="227.010549" style="fill: #ff0000; stroke: #ff0000"/>
     <use xlink:href="#m3c329a9d53" x="193.824017" y="225.578634" style="fill: #ff0000; stroke: #ff0000"/>
     <use xlink:href="#m3c329a9d53" x="198.028257" y="224.117316" style="fill: #ff0000; stroke: #ff0000"/>
     <use xlink:href="#m3c329a9d53" x="202.130753" y="222.507152" style="fill: #ff0000; stroke: #ff0000"/>
     <use xlink:href="#m3c329a9d53" x="206.101712" y="220.622448" style="fill: #ff0000; stroke: #ff0000"/>
     <use xlink:href="#m3c329a9d53" x="209.89343" y="218.401477" style="fill: #ff0000; stroke: #ff0000"/>
     <use xlink:href="#m3c329a9d53" x="213.490886" y="215.869214" style="fill: #ff0000; stroke: #ff0000"/>
     <use xlink:href="#m3c329a9d53" x="216.938056" y="213.101687" style="fill: #ff0000; stroke: #ff0000"/>
     <use xlink:href="#m3c329a9d53" x="220.315602" y="210.159505" style="fill: #ff0000; stroke: #ff0000"/>
     <use xlink:href="#m3c329a9d53" x="223.679807" y="207.036936" style="fill: #ff0000; stroke: #ff0000"/>
     <use xlink:href="#m3c329a9d53" x="227.001215" y="203.659494" style="fill: #ff0000; stroke: #ff0000"/>
     <use xlink:href="#m3c329a9d53" x="230.143878" y="199.928785" style="fill: #ff0000; stroke: #ff0000"/>
     <use xlink:href="#m3c329a9d53" x="232.900483" y="195.783243" style="fill: #ff0000; stroke: #ff0000"/>
     <use xlink:href="#m3c329a9d53" x="235.063294" y="191.237026" style="fill: #ff0000; stroke: #ff0000"/>
     <use xlink:href="#m3c329a9d53" x="236.490887" y="186.378419" style="fill: #ff0000; stroke: #ff0000"/>
    </g>
   </g>
   <g id="matplotlib.axis_1">
    <g id="xtick_1">
     <g id="line2d_1">
      <defs>
       <path id="m90fbddfa52" d="M 0 0 
L 0 3.5 
" style="stroke: #000000; stroke-width: 0.8"/>
      </defs>
      <g>
       <use xlink:href="#m90fbddfa52" x="45" y="320.4" style="stroke: #000000; stroke-width: 0.8"/>
      </g>
     </g>
     <g id="text_1">
      <!-- −3 -->
      <g transform="translate(37.628906 334.998438)scale(0.1 -0.1)">
       <defs>
        <path id="DejaVuSans-2212" d="M 678 2272 
L 4684 2272 
L 4684 1741 
L 678 1741 
L 678 2272 
z
" transform="scale(0.015625)"/>
        <path id="DejaVuSans-33" d="M 2597 2516 
Q 3050 2419 3304 2112 
Q 3559 1806 3559 1356 
Q 3559 666 3084 287 
Q 2609 -91 1734 -91 
Q 1441 -91 1130 -33 
Q 819 25 488 141 
L 488 750 
Q 750 597 1062 519 
Q 1375 441 1716 441 
Q 2309 441 2620 675 
Q 2931 909 2931 1356 
Q 2931 1769 2642 2001 
Q 2353 2234 1838 2234 
L 1294 2234 
L 1294 2753 
L 1863 2753 
Q 2328 2753 2575 2939 
Q 2822 3125 2822 3475 
Q 2822 3834 2567 4026 
Q 2313 4219 1838 4219 
Q 1578 4219 1281 4162 
Q 984 4106 628 3988 
L 628 4550 
Q 988 4650 1302 4700 
Q 1616 4750 1894 4750 
Q 2613 4750 3031 4423 
Q 3450 4097 3450 3541 
Q 3450 3153 3228 2886 
Q 3006 2619 2597 2516 
z
" transform="scale(0.015625)"/>
       </defs>
       <use xlink:href="#DejaVuSans-2212"/>
       <use xlink:href="#DejaVuSans-33" x="83.789062"/>
      </g>
     </g>
    </g>
    <g id="xtick_2">
     <g id="line2d_2">
      <g>
       <use xlink:href="#m90fbddfa52" x="91.655518" y="320.4" style="stroke: #000000; stroke-width: 0.8"/>
      </g>
     </g>
     <g id="text_2">
      <!-- −2 -->
      <g transform="translate(84.284425 334.998438)scale(0.1 -0.1)">
       <defs>
        <path id="DejaVuSans-32" d="M 1228 531 
L 3431 531 
L 3431 0 
L 469 0 
L 469 531 
Q 828 903 1448 1529 
Q 2069 2156 2228 2338 
Q 2531 2678 2651 2914 
Q 2772 3150 2772 3378 
Q 2772 3750 2511 3984 
Q 2250 4219 1831 4219 
Q 1534 4219 1204 4116 
Q 875 4013 500 3803 
L 500 4441 
Q 881 4594 1212 4672 
Q 1544 4750 1819 4750 
Q 2544 4750 2975 4387 
Q 3406 4025 3406 3419 
Q 3406 3131 3298 2873 
Q 3191 2616 2906 2266 
Q 2828 2175 2409 1742 
Q 1991 1309 1228 531 
z
" transform="scale(0.015625)"/>
       </defs>
       <use xlink:href="#DejaVuSans-2212"/>
       <use xlink:href="#DejaVuSans-32" x="83.789062"/>
      </g>
     </g>
    </g>
    <g id="xtick_3">
     <g id="line2d_3">
      <g>
       <use xlink:href="#m90fbddfa52" x="138.311037" y="320.4" style="stroke: #000000; stroke-width: 0.8"/>
      </g>
     </g>
     <g id="text_3">
      <!-- −1 -->
      <g transform="translate(130.939943 334.998438)scale(0.1 -0.1)">
       <defs>
        <path id="DejaVuSans-31" d="M 794 531 
L 1825 531 
L 1825 4091 
L 703 3866 
L 703 4441 
L 1819 4666 
L 2450 4666 
L 2450 531 
L 3481 531 
L 3481 0 
L 794 0 
L 794 531 
z
" transform="scale(0.015625)"/>
       </defs>
       <use xlink:href="#DejaVuSans-2212"/>
       <use xlink:href="#DejaVuSans-31" x="83.789062"/>
      </g>
     </g>
    </g>
    <g id="xtick_4">
     <g id="line2d_4">
      <g>
       <use xlink:href="#m90fbddfa52" x="184.966555" y="320.4" style="stroke: #000000; stroke-width: 0.8"/>
      </g>
     </g>
     <g id="text_4">
      <!-- 0 -->
      <g transform="translate(181.785305 334.998438)scale(0.1 -0.1)">
       <defs>
        <path id="DejaVuSans-30" d="M 2034 4250 
Q 1547 4250 1301 3770 
Q 1056 3291 1056 2328 
Q 1056 1369 1301 889 
Q 1547 409 2034 409 
Q 2525 409 2770 889 
Q 3016 1369 3016 2328 
Q 3016 3291 2770 3770 
Q 2525 4250 2034 4250 
z
M 2034 4750 
Q 2819 4750 3233 4129 
Q 3647 3509 3647 2328 
Q 3647 1150 3233 529 
Q 2819 -91 2034 -91 
Q 1250 -91 836 529 
Q 422 1150 422 2328 
Q 422 3509 836 4129 
Q 1250 4750 2034 4750 
z
" transform="scale(0.015625)"/>
       </defs>
       <use xlink:href="#DejaVuSans-30"/>
      </g>
     </g>
    </g>
    <g id="xtick_5">
     <g id="line2d_5">
      <g>
       <use xlink:href="#m90fbddfa52" x="231.622074" y="320.4" style="stroke: #000000; stroke-width: 0.8"/>
      </g>
     </g>
     <g id="text_5">
      <!-- 1 -->
      <g transform="translate(228.440824 334.998438)scale(0.1 -0.1)">
       <use xlink:href="#DejaVuSans-31"/>
      </g>
     </g>
    </g>
    <g id="xtick_6">
     <g id="line2d_6">
      <g>
       <use xlink:href="#m90fbddfa52" x="278.277592" y="320.4" style="stroke: #000000; stroke-width: 0.8"/>
      </g>
     </g>
     <g id="text_6">
      <!-- 2 -->
      <g transform="translate(275.096342 334.998438)scale(0.1 -0.1)">
       <use xlink:href="#DejaVuSans-32"/>
      </g>
     </g>
    </g>
   </g>
   <g id="matplotlib.axis_2">
    <g id="ytick_1">
     <g id="line2d_7">
      <defs>
       <path id="m7732db80fa" d="M 0 0 
L -3.5 0 
" style="stroke: #000000; stroke-width: 0.8"/>
      </defs>
      <g>
       <use xlink:href="#m7732db80fa" x="45" y="320.4" style="stroke: #000000; stroke-width: 0.8"/>
      </g>
     </g>
     <g id="text_7">
      <!-- −3 -->
      <g transform="translate(23.257812 324.199219)scale(0.1 -0.1)">
       <use xlink:href="#DejaVuSans-2212"/>
       <use xlink:href="#DejaVuSans-33" x="83.789062"/>
      </g>
     </g>
    </g>
    <g id="ytick_2">
     <g id="line2d_8">
      <g>
       <use xlink:href="#m7732db80fa" x="45" y="274.045485" style="stroke: #000000; stroke-width: 0.8"/>
      </g>
     </g>
     <g id="text_8">
      <!-- −2 -->
      <g transform="translate(23.257812 277.844704)scale(0.1 -0.1)">
       <use xlink:href="#DejaVuSans-2212"/>
       <use xlink:href="#DejaVuSans-32" x="83.789062"/>
      </g>
     </g>
    </g>
    <g id="ytick_3">
     <g id="line2d_9">
      <g>
       <use xlink:href="#m7732db80fa" x="45" y="227.69097" style="stroke: #000000; stroke-width: 0.8"/>
      </g>
     </g>
     <g id="text_9">
      <!-- −1 -->
      <g transform="translate(23.257812 231.490189)scale(0.1 -0.1)">
       <use xlink:href="#DejaVuSans-2212"/>
       <use xlink:href="#DejaVuSans-31" x="83.789062"/>
      </g>
     </g>
    </g>
    <g id="ytick_4">
     <g id="line2d_10">
      <g>
       <use xlink:href="#m7732db80fa" x="45" y="181.336455" style="stroke: #000000; stroke-width: 0.8"/>
      </g>
     </g>
     <g id="text_10">
      <!-- 0 -->
      <g transform="translate(31.6375 185.135674)scale(0.1 -0.1)">
       <use xlink:href="#DejaVuSans-30"/>
      </g>
     </g>
    </g>
    <g id="ytick_5">
     <g id="line2d_11">
      <g>
       <use xlink:href="#m7732db80fa" x="45" y="134.98194" style="stroke: #000000; stroke-width: 0.8"/>
      </g>
     </g>
     <g id="text_11">
      <!-- 1 -->
      <g transform="translate(31.6375 138.781159)scale(0.1 -0.1)">
       <use xlink:href="#DejaVuSans-31"/>
      </g>
     </g>
    </g>
    <g id="ytick_6">
     <g id="line2d_12">
      <g>
       <use xlink:href="#m7732db80fa" x="45" y="88.627425" style="stroke: #000000; stroke-width: 0.8"/>
      </g>
     </g>
     <g id="text_12">
      <!-- 2 -->
      <g transform="translate(31.6375 92.426643)scale(0.1 -0.1)">
       <use xlink:href="#DejaVuSans-32"/>
      </g>
     </g>
    </g>
   </g>
   <g id="PathCollection_2">
    <path d="M 170.9699 208.256926 
L 166.304348 207.722554 
L 165.371237 207.535585 
L 164.438127 207.164153 
L 159.667732 204.513712 
L 157.906355 203.29074 
L 155.9384 201.732441 
L 152.307692 199.634929 
L 150.864537 198.02408 
L 149.910598 195.242809 
L 149.713613 194.315719 
L 149.760946 192.461538 
L 149.792868 191.534448 
L 150.444186 189.680268 
L 151.442415 186.898997 
L 152.351748 184.117726 
L 152.988386 180.409365 
L 153.452444 177.628094 
L 153.870476 176.701003 
L 155.107023 175.464617 
L 156.973244 174.278866 
L 157.906355 173.694552 
L 158.579725 172.992642 
L 160.13956 170.211371 
L 161.638796 168.743492 
L 162.571906 167.9447 
L 163.763718 167.4301 
L 167.237458 166.972739 
L 170.9699 166.436892 
L 173.769231 165.229084 
L 176.568562 164.212125 
L 178.434783 163.701339 
L 181.234114 162.320558 
L 184.033445 161.587596 
L 187.765886 160.903194 
L 190.565217 160.550785 
L 191.498328 160.332234 
L 196.16388 157.789208 
L 198.0301 157.033086 
L 198.963211 156.930239 
L 202.695652 157.433278 
L 204.561873 157.892643 
L 206.428094 158.684204 
L 206.846147 159.086288 
L 208.294314 161.104768 
L 209.812821 162.794649 
L 211.093645 164.186445 
L 211.412365 164.648829 
L 211.880835 165.57592 
L 212.61601 171.138462 
L 213.112284 175.773913 
L 213.841483 178.555184 
L 213.682944 179.482274 
L 212.959866 180.564533 
L 209.970456 184.117726 
L 208.294314 186.395047 
L 207.095992 187.826087 
L 203.628763 192.827694 
L 202.695652 193.733643 
L 200.829431 194.956588 
L 198.826491 196.1699 
L 194.297659 199.999252 
L 193.364548 200.526965 
L 191.498328 201.062447 
L 189.632107 201.740033 
L 184.033445 205.65024 
L 183.048981 206.367893 
L 182.167224 206.8683 
L 178.434783 207.855643 
L 175.635452 208.295227 
L 170.9699 208.256926 
L 170.9699 208.256926 
" clip-path="url(#pb2d6aff29d)" style="fill: none; stroke-dasharray: 5.55,2.4; stroke-dashoffset: 0; stroke: #000000; stroke-width: 1.5"/>
   </g>
   <g id="PathCollection_3">
    <path d="M 161.638796 231.458108 
L 160.705686 231.224418 
L 156.973244 230.73192 
L 156.040134 230.435588 
L 154.173913 229.424391 
L 149.644384 226.76388 
L 149.508361 226.6641 
L 143.325947 223.055518 
L 138.927379 220.274247 
L 136.444816 218.351847 
L 135.511706 217.400178 
L 130.74306 211.003344 
L 128.018872 208.222074 
L 127.443759 207.294983 
L 127.112941 206.367893 
L 127.031992 205.440803 
L 126.606213 204.513712 
L 126.177677 202.659532 
L 126.133089 200.805351 
L 125.764313 199.878261 
L 125.247492 196.847021 
L 125.134908 195.242809 
L 124.761393 194.315719 
L 124.311308 191.534448 
L 124.317098 189.680268 
L 124.781255 185.971906 
L 125.21091 185.044816 
L 125.356792 184.117726 
L 125.77909 182.263545 
L 126.146048 181.336455 
L 126.21867 180.409365 
L 126.634356 178.555184 
L 127.048274 177.628094 
L 127.113712 177.05852 
L 128.205861 174.846823 
L 128.979933 173.279916 
L 129.183718 172.992642 
L 130.009462 172.065552 
L 131.779264 169.021764 
L 133.645485 165.023228 
L 133.906853 164.648829 
L 138.12466 160.013378 
L 138.824166 159.086288 
L 140.177258 157.339296 
L 140.283708 157.232107 
L 142.976589 153.987977 
L 144.383428 152.596656 
L 145.77592 151.472132 
L 156.040134 144.174002 
L 156.973244 143.676184 
L 158.839465 143.027849 
L 161.813065 142.398662 
L 165.371237 141.304226 
L 183.100334 137.320411 
L 194.297659 135.150703 
L 195.230769 134.82071 
L 199.896321 133.75578 
L 205.494983 133.265513 
L 208.294314 133.443061 
L 212.026756 134.222197 
L 216.254141 135.90903 
L 218.558528 137.198969 
L 223.22408 140.597544 
L 225.290035 143.325753 
L 227.448584 146.107023 
L 229.755853 149.057353 
L 230.9965 151.669565 
L 232.977881 157.232107 
L 233.488294 158.676621 
L 233.986582 160.013378 
L 236.344171 170.211371 
L 236.881417 174.846823 
L 237.005132 176.701003 
L 236.25595 185.044816 
L 235.354515 187.112336 
L 234.421405 188.906955 
L 232.409533 192.461538 
L 231.700109 194.315719 
L 229.647815 198.02408 
L 228.451614 199.878261 
L 226.6613 202.659532 
L 226.023411 203.612889 
L 225.090301 204.672816 
L 222.29097 207.317866 
L 218.558528 211.07565 
L 217.138846 212.857525 
L 214.826087 214.987932 
L 209.492914 219.347157 
L 206.428094 221.635201 
L 202.365462 223.055518 
L 194.297659 225.550933 
L 191.498328 226.59422 
L 189.724954 227.69097 
L 189.632107 227.727511 
L 188.698997 228.311401 
L 184.966555 229.267453 
L 180.301003 230.511171 
L 179.367893 230.896606 
L 177.289922 231.399331 
L 176.568562 231.424685 
L 173.769231 231.838018 
L 163.505017 231.689637 
L 161.638796 231.458108 
L 161.638796 231.458108 
" clip-path="url(#pb2d6aff29d)" style="fill: none; stroke: #000000; stroke-width: 1.5"/>
   </g>
   <g id="PathCollection_4">
    <path d="M 170.036789 254.578495 
L 169.117192 254.576589 
L 169.103679 254.57656 
L 168.170569 254.569318 
L 167.237458 254.562065 
L 166.304348 254.553535 
L 165.371237 254.517853 
L 164.438127 254.481914 
L 163.505017 254.445986 
L 162.571906 254.410054 
L 161.638796 254.374121 
L 160.705686 254.3382 
L 159.772575 254.296659 
L 158.839465 254.144814 
L 157.906355 253.985947 
L 156.973244 253.823871 
L 156.040134 253.662135 
L 155.968211 253.649498 
L 155.107023 253.496622 
L 154.173913 253.21341 
L 153.240803 252.909425 
L 152.666748 252.722408 
L 152.307692 252.605434 
L 151.374582 252.30144 
L 150.441472 252.023094 
L 149.508361 251.846687 
L 149.242884 251.795318 
L 148.575251 251.661485 
L 147.64214 251.345462 
L 146.70903 250.979537 
L 146.437943 250.868227 
L 145.77592 250.583659 
L 144.842809 250.107117 
L 144.517794 249.941137 
L 143.909699 249.630596 
L 142.976589 249.15407 
L 142.702404 249.014047 
L 142.043478 248.677163 
L 141.110368 248.191283 
L 140.912606 248.086957 
L 140.177258 247.698265 
L 139.244147 247.205033 
L 139.158698 247.159866 
L 138.311037 246.703319 
L 137.482994 246.232776 
L 137.377926 246.172336 
L 136.444816 245.581843 
L 136.011434 245.305686 
L 135.511706 244.987258 
L 134.578595 244.392681 
L 134.556491 244.378595 
L 133.645485 243.798115 
L 133.101518 243.451505 
L 132.712375 243.203537 
L 131.779264 242.608956 
L 131.646712 242.524415 
L 130.846154 242.014143 
L 130.200688 241.597324 
L 129.913043 241.408121 
L 128.979933 240.78601 
L 128.815362 240.670234 
L 128.046823 240.110837 
L 127.536917 239.743144 
L 127.113712 239.438545 
L 126.248737 238.816054 
L 126.180602 238.767108 
L 125.247492 238.109629 
L 124.929562 237.888963 
L 124.314381 237.463729 
L 123.574521 236.961873 
L 123.381271 236.817562 
L 122.55244 236.034783 
L 122.448161 235.931223 
L 121.618907 235.107692 
L 121.51505 235.004534 
L 120.685379 234.180602 
L 120.58194 234.077447 
L 119.754213 233.253512 
L 119.648829 233.149658 
L 118.796658 232.326421 
L 118.715719 232.252405 
L 117.913738 231.399331 
L 117.782609 231.209988 
L 117.307996 230.472241 
L 116.849498 229.74716 
L 116.723541 229.545151 
L 116.122674 228.61806 
L 115.916388 228.326268 
L 115.465937 227.69097 
L 114.983278 226.983886 
L 114.833099 226.76388 
L 114.200271 225.836789 
L 114.050167 225.618089 
L 113.547152 224.909699 
L 113.117057 224.32195 
L 112.86874 223.982609 
L 112.183946 223.157021 
L 112.090254 223.055518 
L 111.250836 222.217935 
L 111.160046 222.128428 
L 110.317726 221.298001 
L 110.225273 221.201338 
L 109.448926 220.274247 
L 109.384615 220.19503 
L 108.696315 219.347157 
L 108.451505 219.04559 
L 107.958136 218.420067 
L 107.554874 217.492977 
L 107.518395 217.394708 
L 107.21071 216.565886 
L 106.866549 215.638796 
L 106.585284 214.844268 
L 106.5398 214.711706 
L 106.237362 213.784615 
L 105.940175 212.857525 
L 105.652174 211.943387 
L 105.64817 211.930435 
L 105.364646 211.003344 
L 105.168934 210.076254 
L 105.042646 209.149164 
L 104.912403 208.222074 
L 104.775933 207.294983 
L 104.719064 206.886542 
L 104.646104 206.367893 
L 104.515539 205.440803 
L 104.391427 204.513712 
L 104.267354 203.586622 
L 104.120632 202.659532 
L 103.785953 201.748143 
L 103.780194 201.732441 
L 103.431277 200.805351 
L 103.227677 199.878261 
L 103.024283 198.951171 
L 102.852843 198.171395 
L 102.820492 198.02408 
L 102.621145 197.09699 
L 102.439949 196.1699 
L 102.291673 195.242809 
L 102.194849 194.315719 
L 102.106176 193.388629 
L 102.017488 192.461538 
L 102.047392 191.534448 
L 102.120766 190.607358 
L 102.19415 189.680268 
L 102.267519 188.753177 
L 102.3409 187.826087 
L 102.442157 186.898997 
L 102.551578 185.971906 
L 102.627093 185.044816 
L 102.701363 184.117726 
L 102.767064 183.190635 
L 102.852843 182.586888 
L 102.897708 182.263545 
L 103.094282 181.336455 
L 103.292596 180.409365 
L 103.491117 179.482274 
L 103.686779 178.555184 
L 103.785953 178.157119 
L 103.922293 177.628094 
L 104.174197 176.701003 
L 104.446022 175.773913 
L 104.719064 174.960109 
L 104.757342 174.846823 
L 105.070592 173.919732 
L 105.383855 172.992642 
L 105.652174 172.198569 
L 105.69712 172.065552 
L 106.01037 171.138462 
L 106.323626 170.211371 
L 106.50057 169.284281 
L 106.585284 169.046788 
L 106.843468 168.357191 
L 107.23623 167.4301 
L 107.518395 166.76406 
L 107.628989 166.50301 
L 108.021733 165.57592 
L 108.414503 164.648829 
L 108.451505 164.561486 
L 108.807252 163.721739 
L 109.200015 162.794649 
L 109.384615 162.358895 
L 109.592766 161.867559 
L 109.985531 160.940468 
L 110.317726 160.156325 
L 110.378284 160.013378 
L 110.771043 159.086288 
L 111.1782 158.159197 
L 111.250836 157.997108 
L 111.599841 157.232107 
L 112.080178 156.305017 
L 112.183946 156.183415 
L 112.870569 155.377926 
L 113.117057 155.027151 
L 113.512426 154.450836 
L 114.050167 153.66559 
L 114.147998 153.523746 
L 114.798871 152.596656 
L 114.983278 152.334238 
L 115.451404 151.669565 
L 115.916388 151.002134 
L 116.106464 150.742475 
L 116.785098 149.815385 
L 116.849498 149.727406 
L 117.463729 148.888294 
L 117.782609 148.452666 
L 118.142359 147.961204 
L 118.715719 147.207953 
L 118.853567 147.034114 
L 119.630245 146.107023 
L 119.648829 146.0851 
L 120.4293 145.179933 
L 120.58194 145.008978 
L 121.25707 144.252843 
L 121.51505 143.964843 
L 122.10095 143.325753 
L 122.448161 142.949695 
L 122.928826 142.398662 
L 123.381271 141.813557 
L 123.633257 141.471572 
L 124.314381 140.56505 
L 124.330108 140.544482 
L 125.04927 139.617391 
L 125.247492 139.362488 
L 125.770811 138.690301 
L 126.180602 138.191404 
L 126.572616 137.763211 
L 127.113712 137.237056 
L 127.524639 136.83612 
L 128.046823 136.328314 
L 128.47736 135.90903 
L 128.979933 135.420299 
L 129.430686 134.98194 
L 129.913043 134.512837 
L 130.377687 134.054849 
L 130.846154 133.586241 
L 131.350969 133.127759 
L 131.779264 132.765218 
L 132.44621 132.200669 
L 132.712375 131.980168 
L 133.645485 131.356083 
L 133.762524 131.273579 
L 134.578595 130.657439 
L 134.987695 130.346488 
L 135.511706 129.978765 
L 136.39042 129.419398 
L 136.444816 129.386033 
L 137.377926 128.813678 
L 137.901852 128.492308 
L 138.311037 128.241317 
L 139.244147 127.668954 
L 139.413269 127.565217 
L 140.177258 127.096594 
L 140.924692 126.638127 
L 141.110368 126.524366 
L 142.043478 125.952265 
L 142.43663 125.711037 
L 142.976589 125.380529 
L 143.909699 124.809375 
L 143.951219 124.783946 
L 144.842809 124.238202 
L 145.465816 123.856856 
L 145.77592 123.660245 
L 146.70903 123.0174 
L 146.838032 122.929766 
L 147.64214 122.384541 
L 148.20533 122.002676 
L 148.575251 121.751846 
L 149.508361 121.118304 
L 149.570968 121.075585 
L 150.441472 120.474185 
L 150.985518 120.148495 
L 151.374582 119.957674 
L 152.307692 119.789099 
L 153.240803 119.605781 
L 154.173913 119.392287 
L 154.909567 119.221405 
L 155.107023 119.175537 
L 156.040134 118.958792 
L 156.973244 118.734439 
L 157.906355 118.502393 
L 158.743106 118.294314 
L 158.839465 118.270353 
L 159.772575 118.066222 
L 160.705686 117.955762 
L 161.638796 117.852648 
L 162.571906 117.743243 
L 163.505017 117.525135 
L 164.180641 117.367224 
L 164.438127 117.307043 
L 165.371237 117.088953 
L 166.304348 116.87325 
L 167.237458 116.705677 
L 168.170569 116.538107 
L 168.716174 116.440134 
L 169.103679 116.37055 
L 170.036789 116.202966 
L 170.9699 116.035403 
L 171.90301 115.873145 
L 172.83612 115.724538 
L 173.769231 115.578013 
L 174.177318 115.513043 
L 174.702341 115.429223 
L 175.635452 115.278751 
L 176.568562 115.113643 
L 177.501672 114.939846 
L 178.434783 114.724358 
L 178.92399 114.585953 
L 179.367893 114.460366 
L 180.301003 114.203893 
L 181.234114 113.915748 
L 182.143617 113.658863 
L 182.167224 113.652235 
L 183.100334 113.41943 
L 184.033445 113.194461 
L 184.966555 112.980155 
L 185.899666 112.765863 
L 186.048101 112.731773 
L 186.832776 112.55156 
L 187.765886 112.337262 
L 188.698997 112.122968 
L 189.632107 111.908655 
L 190.222331 111.804682 
L 190.565217 111.744812 
L 191.498328 111.602611 
L 192.431438 111.506796 
L 193.364548 111.469349 
L 194.297659 111.347871 
L 195.230769 111.226409 
L 196.16388 111.096555 
L 197.09699 110.949167 
L 197.435758 110.877592 
L 198.0301 110.755662 
L 198.963211 110.534976 
L 199.896321 110.326021 
L 200.829431 110.178297 
L 201.762542 110.043393 
L 202.495018 109.950502 
L 202.695652 109.925066 
L 203.628763 109.84474 
L 204.561873 109.720252 
L 205.494983 109.628422 
L 206.428094 109.552576 
L 207.361204 109.576074 
L 208.294314 109.599583 
L 209.227425 109.736205 
L 210.097076 109.950502 
L 210.160535 109.966139 
L 211.093645 110.196096 
L 212.026756 110.443248 
L 212.959866 110.724502 
L 213.494362 110.877592 
L 213.892977 110.992191 
L 214.826087 111.214035 
L 215.759197 111.396822 
L 216.692308 111.604325 
L 217.424052 111.804682 
L 217.625418 111.860273 
L 218.558528 112.119582 
L 219.491639 112.378892 
L 220.424749 112.659746 
L 220.566846 112.731773 
L 221.35786 113.146495 
L 222.29097 113.598512 
L 222.415557 113.658863 
L 223.22408 114.045794 
L 224.157191 114.492529 
L 224.352274 114.585953 
L 225.090301 114.933875 
L 226.023411 115.373758 
L 226.318869 115.513043 
L 226.956522 115.813648 
L 227.889632 116.253536 
L 228.266475 116.440134 
L 228.822742 116.728533 
L 229.755853 117.281602 
L 229.898191 117.367224 
L 230.688963 117.84395 
L 231.418762 118.294314 
L 231.622074 118.419779 
L 232.555184 118.995601 
L 232.921094 119.221405 
L 233.488294 119.571418 
L 234.421405 120.147232 
L 234.423451 120.148495 
L 235.354515 120.723056 
L 236.00129 121.075585 
L 236.287625 121.221871 
L 237.220736 121.697239 
L 237.585025 122.002676 
L 238.153846 122.619147 
L 238.440447 122.929766 
L 239.086957 123.626013 
L 239.30435 123.856856 
L 240.020067 124.673751 
L 240.112184 124.783946 
L 240.874117 125.711037 
L 240.953177 125.807232 
L 241.636081 126.638127 
L 241.886288 126.942565 
L 242.398022 127.565217 
L 242.819398 128.077922 
L 243.159968 128.492308 
L 243.752508 129.213263 
L 243.920324 129.419398 
L 244.635497 130.346488 
L 244.685619 130.414217 
L 245.323436 131.273579 
L 245.618729 131.673023 
L 246.016614 132.200669 
L 246.551839 132.867969 
L 246.767207 133.127759 
L 247.48495 133.99424 
L 247.53479 134.054849 
L 248.174412 134.98194 
L 248.41806 135.398798 
L 248.711868 135.90903 
L 249.243477 136.83612 
L 249.351171 137.023932 
L 249.774598 137.763211 
L 250.284281 138.682566 
L 250.288521 138.690301 
L 250.793274 139.617391 
L 251.217391 140.400441 
L 251.294508 140.544482 
L 251.747593 141.471572 
L 252.150502 142.3029 
L 252.196914 142.398662 
L 252.646192 143.325753 
L 253.083612 144.228371 
L 253.09537 144.252843 
L 253.533164 145.179933 
L 253.964305 146.107023 
L 254.016722 146.221194 
L 254.390793 147.034114 
L 254.728546 147.961204 
L 254.949833 148.661466 
L 255.022083 148.888294 
L 255.347021 149.815385 
L 255.681536 150.742475 
L 255.882943 151.332632 
L 255.997058 151.669565 
L 256.287215 152.596656 
L 256.577392 153.523746 
L 256.799789 154.450836 
L 256.816054 154.567311 
L 256.929245 155.377926 
L 257.0586 156.305017 
L 257.259767 157.232107 
L 257.505873 158.159197 
L 257.737117 159.086288 
L 257.749164 159.138123 
L 257.953794 160.013378 
L 258.13107 160.940468 
L 258.284601 161.867559 
L 258.428452 162.794649 
L 258.572304 163.721739 
L 258.682274 164.430482 
L 258.716153 164.648829 
L 258.860005 165.57592 
L 259.003865 166.50301 
L 259.14772 167.4301 
L 259.291569 168.357191 
L 259.435421 169.284281 
L 259.57567 170.211371 
L 259.615385 170.409494 
L 259.761508 171.138462 
L 259.947352 172.065552 
L 260.133185 172.992642 
L 260.319017 173.919732 
L 260.504869 174.846823 
L 260.50745 175.773913 
L 260.43324 176.701003 
L 260.35902 177.628094 
L 260.325281 178.555184 
L 260.329256 179.482274 
L 260.331469 180.409365 
L 260.333714 181.336455 
L 260.331042 182.263545 
L 260.282531 183.190635 
L 260.203398 184.117726 
L 260.117181 185.044816 
L 260.029303 185.971906 
L 259.941415 186.898997 
L 259.853535 187.826087 
L 259.765647 188.753177 
L 259.689847 189.680268 
L 259.624879 190.607358 
L 259.615385 190.647238 
L 259.384793 191.534448 
L 258.971252 192.461538 
L 258.682274 193.002805 
L 258.477847 193.388629 
L 257.976215 194.315719 
L 257.749164 194.735326 
L 257.474563 195.242809 
L 256.972927 196.1699 
L 256.816054 196.462916 
L 256.480332 197.09699 
L 256.027373 198.02408 
L 255.882943 198.297902 
L 255.520573 198.951171 
L 255.04794 199.878261 
L 254.949833 200.088414 
L 254.615136 200.805351 
L 254.182334 201.732441 
L 254.016722 202.159582 
L 253.829387 202.659532 
L 253.48541 203.586622 
L 253.141451 204.513712 
L 253.083612 204.669602 
L 252.797483 205.440803 
L 252.451359 206.367893 
L 252.150502 207.122944 
L 252.082102 207.294983 
L 251.711478 208.222074 
L 251.31908 209.149164 
L 251.217391 209.379474 
L 250.906474 210.076254 
L 250.476799 211.003344 
L 250.284281 211.386283 
L 249.986946 211.930435 
L 249.396371 212.857525 
L 249.351171 212.928482 
L 248.805812 213.784615 
L 248.41806 214.270041 
L 248.03473 214.711706 
L 247.48495 215.33818 
L 247.208751 215.638796 
L 246.551839 216.278983 
L 246.246646 216.565886 
L 245.618729 217.149634 
L 245.250027 217.492977 
L 244.685619 218.026775 
L 244.285055 218.420067 
L 243.752508 218.945338 
L 243.343228 219.347157 
L 242.819398 219.863812 
L 242.401331 220.274247 
L 241.886288 220.782209 
L 241.459195 221.201338 
L 240.953177 221.700191 
L 240.515938 222.128428 
L 240.020067 222.610589 
L 239.507207 223.055518 
L 239.086957 223.403553 
L 238.433254 223.982609 
L 238.153846 224.234684 
L 237.431575 224.909699 
L 237.220736 225.140597 
L 236.632925 225.836789 
L 236.287625 226.245767 
L 235.849194 226.76388 
L 235.354515 227.335878 
L 235.046245 227.69097 
L 234.421405 228.406421 
L 234.238047 228.61806 
L 233.488294 229.478626 
L 233.430615 229.545151 
L 232.627303 230.472241 
L 232.555184 230.552067 
L 231.645974 231.399331 
L 231.622074 231.419339 
L 230.688963 232.200451 
L 230.541092 232.326421 
L 229.755853 233.007061 
L 229.468241 233.253512 
L 228.822742 233.753073 
L 228.255068 234.180602 
L 227.889632 234.452688 
L 226.984413 235.107692 
L 226.956522 235.128741 
L 226.023411 235.836908 
L 225.759383 236.034783 
L 225.090301 236.540484 
L 224.531268 236.961873 
L 224.157191 237.22567 
L 223.22408 237.841591 
L 223.15231 237.888963 
L 222.29097 238.457498 
L 221.795406 238.816054 
L 221.35786 239.151585 
L 220.587218 239.743144 
L 220.424749 239.867855 
L 219.491639 240.584089 
L 219.37941 240.670234 
L 218.558528 241.241854 
L 217.665049 241.597324 
L 217.625418 241.611802 
L 216.692308 241.931768 
L 215.759197 242.251724 
L 214.963885 242.524415 
L 214.826087 242.571606 
L 213.892977 242.88888 
L 212.959866 243.197048 
L 212.139429 243.451505 
L 212.026756 243.486182 
L 211.093645 243.773007 
L 210.160535 244.059549 
L 209.227425 244.346059 
L 209.121468 244.378595 
L 208.294314 244.632594 
L 207.361204 244.919117 
L 206.428094 245.205641 
L 206.102558 245.305686 
L 205.494983 245.496778 
L 204.561873 245.895712 
L 203.796622 246.232776 
L 203.628763 246.308179 
L 202.695652 246.740882 
L 201.795431 247.159866 
L 201.762542 247.175173 
L 200.829431 247.591491 
L 199.896321 247.996111 
L 199.686812 248.086957 
L 198.963211 248.40072 
L 198.0301 248.783044 
L 197.43662 249.014047 
L 197.09699 249.14694 
L 196.16388 249.507161 
L 195.230769 249.871694 
L 194.873269 249.941137 
L 194.297659 250.045512 
L 193.364548 250.195703 
L 192.431438 250.429812 
L 191.498328 250.726545 
L 191.052756 250.868227 
L 190.565217 251.023256 
L 189.632107 251.319985 
L 188.698997 251.616716 
L 188.137335 251.795318 
L 187.765886 251.913433 
L 186.832776 252.210157 
L 185.899666 252.506878 
L 185.182648 252.722408 
L 184.966555 252.786856 
L 184.033445 253.038502 
L 183.100334 253.242876 
L 182.167224 253.361197 
L 181.234114 253.476602 
L 180.301003 253.578175 
L 179.628559 253.649498 
L 179.367893 253.677546 
L 178.434783 253.778818 
L 177.501672 253.882482 
L 176.568562 253.98863 
L 175.635452 254.099185 
L 174.702341 254.209728 
L 173.769231 254.355556 
L 172.83612 254.494205 
L 171.90301 254.543005 
L 170.9699 254.560742 
L 170.136984 254.576589 
L 170.036789 254.578495 
z
" clip-path="url(#pb2d6aff29d)" style="fill: none; stroke: #000000; stroke-width: 1.5"/>
   </g>
   <g id="patch_3">
    <path d="M 45 320.4 
L 45 43.2 
" style="fill: none; stroke: #000000; stroke-width: 0.8; stroke-linejoin: miter; stroke-linecap: square"/>
   </g>
   <g id="patch_4">
    <path d="M 324 320.4 
L 324 43.2 
" style="fill: none; stroke: #000000; stroke-width: 0.8; stroke-linejoin: miter; stroke-linecap: square"/>
   </g>
   <g id="patch_5">
    <path d="M 45 320.4 
L 324 320.4 
" style="fill: none; stroke: #000000; stroke-width: 0.8; stroke-linejoin: miter; stroke-linecap: square"/>
   </g>
   <g id="patch_6">
    <path d="M 45 43.2 
L 324 43.2 
" style="fill: none; stroke: #000000; stroke-width: 0.8; stroke-linejoin: miter; stroke-linecap: square"/>
   </g>
  </g>
 </g>
 <defs>
  <clipPath id="pb2d6aff29d">
   <rect x="45" y="43.2" width="279" height="277.2"/>
  </clipPath>
 </defs>
</svg>
