<?xml version="1.0" encoding="utf-8" standalone="no"?>
<!DOCTYPE svg PUBLIC "-//W3C//DTD SVG 1.1//EN"
  "http://www.w3.org/Graphics/SVG/1.1/DTD/svg11.dtd">
<svg xmlns:xlink="http://www.w3.org/1999/xlink" width="360pt" height="360pt" viewBox="0 0 360 360" xmlns="http://www.w3.org/2000/svg" version="1.1">
 <metadata>
  <rdf:RDF xmlns:dc="http://purl.org/dc/elements/1.1/" xmlns:cc="http://creativecommons.org/ns#" xmlns:rdf="http://www.w3.org/1999/02/22-rdf-syntax-ns#">
   <cc:Work>
    <dc:type rdf:resource="http://purl.org/dc/dcmitype/StillImage"/>
    <dc:date>2022-04-10T19:53:26.940678</dc:date>
    <dc:format>image/svg+xml</dc:format>
    <dc:creator>
     <cc:Agent>
      <dc:title>Matplotlib v3.5.1, https://matplotlib.org/</dc:title>
     </cc:Agent>
    </dc:creator>
   </cc:Work>
  </rdf:RDF>
 </metadata>
 <defs>
  <style type="text/css">*{stroke-linejoin: round; stroke-linecap: butt}</style>
 </defs>
 <g id="figure_1">
  <g id="patch_1">
   <path d="M 0 360 
L 360 360 
L 360 0 
L 0 0 
z
" style="fill: #ffffff"/>
  </g>
  <g id="axes_1">
   <g id="patch_2">
    <path d="M 45 320.4 
L 324 320.4 
L 324 43.2 
L 45 43.2 
z
" style="fill: #ffffff"/>
   </g>
   <g id="PathCollection_1">
    <defs>
     <path id="mae8e837006" d="M 0 0.5 
C 0.132602 0.5 0.25979 0.447317 0.353553 0.353553 
C 0.447317 0.25979 0.5 0.132602 0.5 0 
C 0.5 -0.132602 0.447317 -0.25979 0.353553 -0.353553 
C 0.25979 -0.447317 0.132602 -0.5 0 -0.5 
C -0.132602 -0.5 -0.25979 -0.447317 -0.353553 -0.353553 
C -0.447317 -0.25979 -0.5 -0.132602 -0.5 0 
C -0.5 0.132602 -0.447317 0.25979 -0.353553 0.353553 
C -0.25979 0.447317 -0.132602 0.5 0 0.5 
z
" style="stroke: #ff0000"/>
    </defs>
    <g clip-path="url(#p595bdbc3cf)">
     <use xlink:href="#mae8e837006" x="233.164932" y="181.336455" style="fill: #ff0000; stroke: #ff0000"/>
     <use xlink:href="#mae8e837006" x="230.653214" y="176.865742" style="fill: #ff0000; stroke: #ff0000"/>
     <use xlink:href="#mae8e837006" x="227.614183" y="172.908044" style="fill: #ff0000; stroke: #ff0000"/>
     <use xlink:href="#mae8e837006" x="224.452709" y="169.435738" style="fill: #ff0000; stroke: #ff0000"/>
     <use xlink:href="#mae8e837006" x="221.509314" y="166.297604" style="fill: #ff0000; stroke: #ff0000"/>
     <use xlink:href="#mae8e837006" x="218.942234" y="163.29324" style="fill: #ff0000; stroke: #ff0000"/>
     <use xlink:href="#mae8e837006" x="216.693483" y="160.273969" style="fill: #ff0000; stroke: #ff0000"/>
     <use xlink:href="#mae8e837006" x="214.556871" y="157.208982" style="fill: #ff0000; stroke: #ff0000"/>
     <use xlink:href="#mae8e837006" x="212.303977" y="154.175403" style="fill: #ff0000; stroke: #ff0000"/>
     <use xlink:href="#mae8e837006" x="209.79243" y="151.281203" style="fill: #ff0000; stroke: #ff0000"/>
     <use xlink:href="#mae8e837006" x="206.99984" y="148.574056" style="fill: #ff0000; stroke: #ff0000"/>
     <use xlink:href="#mae8e837006" x="203.978773" y="145.996577" style="fill: #ff0000; stroke: #ff0000"/>
     <use xlink:href="#mae8e837006" x="200.775209" y="143.417218" style="fill: #ff0000; stroke: #ff0000"/>
     <use xlink:href="#mae8e837006" x="197.367575" y="140.719516" style="fill: #ff0000; stroke: #ff0000"/>
     <use xlink:href="#mae8e837006" x="193.662918" y="137.89895" style="fill: #ff0000; stroke: #ff0000"/>
     <use xlink:href="#mae8e837006" x="189.548744" y="135.112863" style="fill: #ff0000; stroke: #ff0000"/>
     <use xlink:href="#mae8e837006" x="184.966555" y="132.653506" style="fill: #ff0000; stroke: #ff0000"/>
     <use xlink:href="#mae8e837006" x="179.962115" y="130.853338" style="fill: #ff0000; stroke: #ff0000"/>
     <use xlink:href="#mae8e837006" x="174.682091" y="129.966533" style="fill: #ff0000; stroke: #ff0000"/>
     <use xlink:href="#mae8e837006" x="169.318618" y="130.08492" style="fill: #ff0000; stroke: #ff0000"/>
     <use xlink:href="#mae8e837006" x="164.035897" y="131.131384" style="fill: #ff0000; stroke: #ff0000"/>
     <use xlink:href="#mae8e837006" x="158.926218" y="132.93272" style="fill: #ff0000; stroke: #ff0000"/>
     <use xlink:href="#mae8e837006" x="154.024813" y="135.327624" style="fill: #ff0000; stroke: #ff0000"/>
     <use xlink:href="#mae8e837006" x="149.372204" y="138.24443" style="fill: #ff0000; stroke: #ff0000"/>
     <use xlink:href="#mae8e837006" x="145.077777" y="141.705023" style="fill: #ff0000; stroke: #ff0000"/>
     <use xlink:href="#mae8e837006" x="141.336979" y="145.761592" style="fill: #ff0000; stroke: #ff0000"/>
     <use xlink:href="#mae8e837006" x="138.387232" y="150.413942" style="fill: #ff0000; stroke: #ff0000"/>
     <use xlink:href="#mae8e837006" x="136.427769" y="155.559317" style="fill: #ff0000; stroke: #ff0000"/>
     <use xlink:href="#mae8e837006" x="135.547069" y="160.998299" style="fill: #ff0000; stroke: #ff0000"/>
     <use xlink:href="#mae8e837006" x="135.691991" y="166.485613" style="fill: #ff0000; stroke: #ff0000"/>
     <use xlink:href="#mae8e837006" x="136.688885" y="171.795384" style="fill: #ff0000; stroke: #ff0000"/>
     <use xlink:href="#mae8e837006" x="138.304845" y="176.770328" style="fill: #ff0000; stroke: #ff0000"/>
     <use xlink:href="#mae8e837006" x="140.323272" y="181.336455" style="fill: #ff0000; stroke: #ff0000"/>
     <use xlink:href="#mae8e837006" x="142.602778" y="185.482004" style="fill: #ff0000; stroke: #ff0000"/>
     <use xlink:href="#mae8e837006" x="145.095025" y="189.216228" style="fill: #ff0000; stroke: #ff0000"/>
     <use xlink:href="#mae8e837006" x="147.816415" y="192.533121" style="fill: #ff0000; stroke: #ff0000"/>
     <use xlink:href="#mae8e837006" x="150.792567" y="195.40046" style="fill: #ff0000; stroke: #ff0000"/>
     <use xlink:href="#mae8e837006" x="154.007519" y="197.777644" style="fill: #ff0000; stroke: #ff0000"/>
     <use xlink:href="#mae8e837006" x="157.382361" y="199.648713" style="fill: #ff0000; stroke: #ff0000"/>
     <use xlink:href="#mae8e837006" x="160.787328" y="201.051812" style="fill: #ff0000; stroke: #ff0000"/>
     <use xlink:href="#mae8e837006" x="164.074054" y="202.094166" style="fill: #ff0000; stroke: #ff0000"/>
     <use xlink:href="#mae8e837006" x="167.112231" y="202.951653" style="fill: #ff0000; stroke: #ff0000"/>
     <use xlink:href="#mae8e837006" x="169.822774" y="203.854503" style="fill: #ff0000; stroke: #ff0000"/>
     <use xlink:href="#mae8e837006" x="172.2058" y="205.056126" style="fill: #ff0000; stroke: #ff0000"/>
     <use xlink:href="#mae8e837006" x="174.358936" y="206.780292" style="fill: #ff0000; stroke: #ff0000"/>
     <use xlink:href="#mae8e837006" x="176.474311" y="209.151018" style="fill: #ff0000; stroke: #ff0000"/>
     <use xlink:href="#mae8e837006" x="178.802224" y="212.126706" style="fill: #ff0000; stroke: #ff0000"/>
     <use xlink:href="#mae8e837006" x="181.582623" y="215.472429" style="fill: #ff0000; stroke: #ff0000"/>
     <use xlink:href="#mae8e837006" x="184.966555" y="218.797218" style="fill: #ff0000; stroke: #ff0000"/>
     <use xlink:href="#mae8e837006" x="188.963377" y="221.655057" style="fill: #ff0000; stroke: #ff0000"/>
     <use xlink:href="#mae8e837006" x="193.442546" y="223.673225" style="fill: #ff0000; stroke: #ff0000"/>
     <use xlink:href="#mae8e837006" x="198.191606" y="224.652333" style="fill: #ff0000; stroke: #ff0000"/>
     <use xlink:href="#mae8e837006" x="203.000367" y="224.593041" style="fill: #ff0000; stroke: #ff0000"/>
     <use xlink:href="#mae8e837006" x="207.725861" y="223.641414" style="fill: #ff0000; stroke: #ff0000"/>
     <use xlink:href="#mae8e837006" x="212.30514" y="221.987571" style="fill: #ff0000; stroke: #ff0000"/>
     <use xlink:href="#mae8e837006" x="216.716945" y="219.774817" style="fill: #ff0000; stroke: #ff0000"/>
     <use xlink:href="#mae8e837006" x="220.925727" y="217.063632" style="fill: #ff0000; stroke: #ff0000"/>
     <use xlink:href="#mae8e837006" x="224.848145" y="213.855269" style="fill: #ff0000; stroke: #ff0000"/>
     <use xlink:href="#mae8e837006" x="228.357862" y="210.142547" style="fill: #ff0000; stroke: #ff0000"/>
     <use xlink:href="#mae8e837006" x="231.311293" y="205.948415" style="fill: #ff0000; stroke: #ff0000"/>
     <use xlink:href="#mae8e837006" x="233.56576" y="201.337031" style="fill: #ff0000; stroke: #ff0000"/>
     <use xlink:href="#mae8e837006" x="234.981486" y="196.410435" style="fill: #ff0000; stroke: #ff0000"/>
     <use xlink:href="#mae8e837006" x="235.42735" y="191.308974" style="fill: #ff0000; stroke: #ff0000"/>
     <use xlink:href="#mae8e837006" x="234.815692" y="186.214491" style="fill: #ff0000; stroke: #ff0000"/>
    </g>
   </g>
   <g id="matplotlib.axis_1">
    <g id="xtick_1">
     <g id="line2d_1">
      <defs>
       <path id="m4fd8501e17" d="M 0 0 
L 0 3.5 
" style="stroke: #000000; stroke-width: 0.8"/>
      </defs>
      <g>
       <use xlink:href="#m4fd8501e17" x="45" y="320.4" style="stroke: #000000; stroke-width: 0.8"/>
      </g>
     </g>
     <g id="text_1">
      <!-- −3 -->
      <g transform="translate(37.628906 334.998438)scale(0.1 -0.1)">
       <defs>
        <path id="DejaVuSans-2212" d="M 678 2272 
L 4684 2272 
L 4684 1741 
L 678 1741 
L 678 2272 
z
" transform="scale(0.015625)"/>
        <path id="DejaVuSans-33" d="M 2597 2516 
Q 3050 2419 3304 2112 
Q 3559 1806 3559 1356 
Q 3559 666 3084 287 
Q 2609 -91 1734 -91 
Q 1441 -91 1130 -33 
Q 819 25 488 141 
L 488 750 
Q 750 597 1062 519 
Q 1375 441 1716 441 
Q 2309 441 2620 675 
Q 2931 909 2931 1356 
Q 2931 1769 2642 2001 
Q 2353 2234 1838 2234 
L 1294 2234 
L 1294 2753 
L 1863 2753 
Q 2328 2753 2575 2939 
Q 2822 3125 2822 3475 
Q 2822 3834 2567 4026 
Q 2313 4219 1838 4219 
Q 1578 4219 1281 4162 
Q 984 4106 628 3988 
L 628 4550 
Q 988 4650 1302 4700 
Q 1616 4750 1894 4750 
Q 2613 4750 3031 4423 
Q 3450 4097 3450 3541 
Q 3450 3153 3228 2886 
Q 3006 2619 2597 2516 
z
" transform="scale(0.015625)"/>
       </defs>
       <use xlink:href="#DejaVuSans-2212"/>
       <use xlink:href="#DejaVuSans-33" x="83.789062"/>
      </g>
     </g>
    </g>
    <g id="xtick_2">
     <g id="line2d_2">
      <g>
       <use xlink:href="#m4fd8501e17" x="91.655518" y="320.4" style="stroke: #000000; stroke-width: 0.8"/>
      </g>
     </g>
     <g id="text_2">
      <!-- −2 -->
      <g transform="translate(84.284425 334.998438)scale(0.1 -0.1)">
       <defs>
        <path id="DejaVuSans-32" d="M 1228 531 
L 3431 531 
L 3431 0 
L 469 0 
L 469 531 
Q 828 903 1448 1529 
Q 2069 2156 2228 2338 
Q 2531 2678 2651 2914 
Q 2772 3150 2772 3378 
Q 2772 3750 2511 3984 
Q 2250 4219 1831 4219 
Q 1534 4219 1204 4116 
Q 875 4013 500 3803 
L 500 4441 
Q 881 4594 1212 4672 
Q 1544 4750 1819 4750 
Q 2544 4750 2975 4387 
Q 3406 4025 3406 3419 
Q 3406 3131 3298 2873 
Q 3191 2616 2906 2266 
Q 2828 2175 2409 1742 
Q 1991 1309 1228 531 
z
" transform="scale(0.015625)"/>
       </defs>
       <use xlink:href="#DejaVuSans-2212"/>
       <use xlink:href="#DejaVuSans-32" x="83.789062"/>
      </g>
     </g>
    </g>
    <g id="xtick_3">
     <g id="line2d_3">
      <g>
       <use xlink:href="#m4fd8501e17" x="138.311037" y="320.4" style="stroke: #000000; stroke-width: 0.8"/>
      </g>
     </g>
     <g id="text_3">
      <!-- −1 -->
      <g transform="translate(130.939943 334.998438)scale(0.1 -0.1)">
       <defs>
        <path id="DejaVuSans-31" d="M 794 531 
L 1825 531 
L 1825 4091 
L 703 3866 
L 703 4441 
L 1819 4666 
L 2450 4666 
L 2450 531 
L 3481 531 
L 3481 0 
L 794 0 
L 794 531 
z
" transform="scale(0.015625)"/>
       </defs>
       <use xlink:href="#DejaVuSans-2212"/>
       <use xlink:href="#DejaVuSans-31" x="83.789062"/>
      </g>
     </g>
    </g>
    <g id="xtick_4">
     <g id="line2d_4">
      <g>
       <use xlink:href="#m4fd8501e17" x="184.966555" y="320.4" style="stroke: #000000; stroke-width: 0.8"/>
      </g>
     </g>
     <g id="text_4">
      <!-- 0 -->
      <g transform="translate(181.785305 334.998438)scale(0.1 -0.1)">
       <defs>
        <path id="DejaVuSans-30" d="M 2034 4250 
Q 1547 4250 1301 3770 
Q 1056 3291 1056 2328 
Q 1056 1369 1301 889 
Q 1547 409 2034 409 
Q 2525 409 2770 889 
Q 3016 1369 3016 2328 
Q 3016 3291 2770 3770 
Q 2525 4250 2034 4250 
z
M 2034 4750 
Q 2819 4750 3233 4129 
Q 3647 3509 3647 2328 
Q 3647 1150 3233 529 
Q 2819 -91 2034 -91 
Q 1250 -91 836 529 
Q 422 1150 422 2328 
Q 422 3509 836 4129 
Q 1250 4750 2034 4750 
z
" transform="scale(0.015625)"/>
       </defs>
       <use xlink:href="#DejaVuSans-30"/>
      </g>
     </g>
    </g>
    <g id="xtick_5">
     <g id="line2d_5">
      <g>
       <use xlink:href="#m4fd8501e17" x="231.622074" y="320.4" style="stroke: #000000; stroke-width: 0.8"/>
      </g>
     </g>
     <g id="text_5">
      <!-- 1 -->
      <g transform="translate(228.440824 334.998438)scale(0.1 -0.1)">
       <use xlink:href="#DejaVuSans-31"/>
      </g>
     </g>
    </g>
    <g id="xtick_6">
     <g id="line2d_6">
      <g>
       <use xlink:href="#m4fd8501e17" x="278.277592" y="320.4" style="stroke: #000000; stroke-width: 0.8"/>
      </g>
     </g>
     <g id="text_6">
      <!-- 2 -->
      <g transform="translate(275.096342 334.998438)scale(0.1 -0.1)">
       <use xlink:href="#DejaVuSans-32"/>
      </g>
     </g>
    </g>
   </g>
   <g id="matplotlib.axis_2">
    <g id="ytick_1">
     <g id="line2d_7">
      <defs>
       <path id="m190ace004e" d="M 0 0 
L -3.5 0 
" style="stroke: #000000; stroke-width: 0.8"/>
      </defs>
      <g>
       <use xlink:href="#m190ace004e" x="45" y="320.4" style="stroke: #000000; stroke-width: 0.8"/>
      </g>
     </g>
     <g id="text_7">
      <!-- −3 -->
      <g transform="translate(23.257812 324.199219)scale(0.1 -0.1)">
       <use xlink:href="#DejaVuSans-2212"/>
       <use xlink:href="#DejaVuSans-33" x="83.789062"/>
      </g>
     </g>
    </g>
    <g id="ytick_2">
     <g id="line2d_8">
      <g>
       <use xlink:href="#m190ace004e" x="45" y="274.045485" style="stroke: #000000; stroke-width: 0.8"/>
      </g>
     </g>
     <g id="text_8">
      <!-- −2 -->
      <g transform="translate(23.257812 277.844704)scale(0.1 -0.1)">
       <use xlink:href="#DejaVuSans-2212"/>
       <use xlink:href="#DejaVuSans-32" x="83.789062"/>
      </g>
     </g>
    </g>
    <g id="ytick_3">
     <g id="line2d_9">
      <g>
       <use xlink:href="#m190ace004e" x="45" y="227.69097" style="stroke: #000000; stroke-width: 0.8"/>
      </g>
     </g>
     <g id="text_9">
      <!-- −1 -->
      <g transform="translate(23.257812 231.490189)scale(0.1 -0.1)">
       <use xlink:href="#DejaVuSans-2212"/>
       <use xlink:href="#DejaVuSans-31" x="83.789062"/>
      </g>
     </g>
    </g>
    <g id="ytick_4">
     <g id="line2d_10">
      <g>
       <use xlink:href="#m190ace004e" x="45" y="181.336455" style="stroke: #000000; stroke-width: 0.8"/>
      </g>
     </g>
     <g id="text_10">
      <!-- 0 -->
      <g transform="translate(31.6375 185.135674)scale(0.1 -0.1)">
       <use xlink:href="#DejaVuSans-30"/>
      </g>
     </g>
    </g>
    <g id="ytick_5">
     <g id="line2d_11">
      <g>
       <use xlink:href="#m190ace004e" x="45" y="134.98194" style="stroke: #000000; stroke-width: 0.8"/>
      </g>
     </g>
     <g id="text_11">
      <!-- 1 -->
      <g transform="translate(31.6375 138.781159)scale(0.1 -0.1)">
       <use xlink:href="#DejaVuSans-31"/>
      </g>
     </g>
    </g>
    <g id="ytick_6">
     <g id="line2d_12">
      <g>
       <use xlink:href="#m190ace004e" x="45" y="88.627425" style="stroke: #000000; stroke-width: 0.8"/>
      </g>
     </g>
     <g id="text_12">
      <!-- 2 -->
      <g transform="translate(31.6375 92.426643)scale(0.1 -0.1)">
       <use xlink:href="#DejaVuSans-32"/>
      </g>
     </g>
    </g>
   </g>
   <g id="PathCollection_2">
    <path d="M 203.628763 198.476767 
L 203.020497 198.02408 
L 202.695652 197.761277 
L 201.911729 197.09699 
L 201.762542 196.96199 
L 200.829431 196.367826 
L 200.587941 196.1699 
L 199.896321 195.621043 
L 199.380841 195.242809 
L 198.963211 194.921523 
L 198.234531 194.315719 
L 198.0301 194.153895 
L 197.09699 193.482924 
L 196.961351 193.388629 
L 196.16388 192.827753 
L 195.637638 192.461538 
L 195.230769 192.176273 
L 194.297659 191.644322 
L 194.053694 191.534448 
L 193.364548 191.251468 
L 192.431438 190.851621 
L 191.963577 190.607358 
L 191.498328 190.302461 
L 190.565217 189.691138 
L 190.548361 189.680268 
L 189.632107 189.127612 
L 189.088781 188.753177 
L 188.698997 188.522978 
L 187.765886 187.881308 
L 187.686545 187.826087 
L 186.832776 187.287642 
L 186.343884 186.898997 
L 185.899666 186.471449 
L 185.40166 185.971906 
L 184.966555 185.47184 
L 184.528888 185.044816 
L 184.033445 184.428792 
L 183.76149 184.117726 
L 183.100334 183.358616 
L 182.95403 183.190635 
L 182.167224 182.287269 
L 182.14689 182.263545 
L 181.239679 181.336455 
L 181.234114 181.332162 
L 180.301003 180.785516 
L 179.578738 180.409365 
L 179.367893 180.314038 
L 178.434783 179.889006 
L 177.501672 179.704923 
L 176.568562 179.562827 
L 176.007484 179.482274 
L 175.635452 179.429921 
L 174.702341 179.320144 
L 173.769231 179.287761 
L 172.83612 179.169761 
L 171.90301 178.993711 
L 170.9699 178.697845 
L 170.679234 178.555184 
L 170.036789 178.172017 
L 169.145578 177.628094 
L 169.103679 177.601188 
L 168.170569 176.882794 
L 167.944525 176.701003 
L 167.237458 176.131463 
L 166.830268 175.773913 
L 166.304348 175.049274 
L 166.146686 174.846823 
L 165.611657 173.919732 
L 165.371237 173.444565 
L 165.143344 172.992642 
L 165.025541 172.065552 
L 165.065091 171.138462 
L 164.903223 170.211371 
L 164.570631 169.284281 
L 164.438127 168.961131 
L 164.189656 168.357191 
L 163.789792 167.4301 
L 163.505017 166.825068 
L 163.35795 166.50301 
L 162.980081 165.57592 
L 162.579583 164.648829 
L 162.571906 164.631163 
L 162.189563 163.721739 
L 161.913793 162.794649 
L 162.168885 161.867559 
L 162.470837 160.940468 
L 162.439107 160.013378 
L 162.571906 159.79268 
L 162.963097 159.086288 
L 163.505017 158.338289 
L 163.634695 158.159197 
L 164.413402 157.232107 
L 164.438127 157.210311 
L 165.371237 156.577011 
L 165.862768 156.305017 
L 166.304348 156.071966 
L 167.237458 155.577908 
L 167.582464 155.377926 
L 168.170569 154.980512 
L 169.103679 154.578725 
L 169.496054 154.450836 
L 170.036789 154.279873 
L 170.9699 154.145552 
L 171.90301 153.973485 
L 172.83612 153.828438 
L 173.769231 153.841352 
L 174.702341 153.957428 
L 175.635452 154.365026 
L 175.807476 154.450836 
L 176.568562 154.978976 
L 177.501672 155.323965 
L 177.642866 155.377926 
L 178.434783 155.621497 
L 179.367893 156.153732 
L 179.569015 156.305017 
L 180.301003 156.861549 
L 180.790185 157.232107 
L 181.234114 157.816756 
L 181.466718 158.159197 
L 182.167224 158.883936 
L 182.378683 159.086288 
L 183.100334 159.649287 
L 183.566119 160.013378 
L 184.033445 160.376907 
L 184.757503 160.940468 
L 184.966555 161.109882 
L 185.800838 161.867559 
L 185.899666 161.952841 
L 186.81171 162.794649 
L 186.832776 162.81393 
L 187.765886 163.694317 
L 187.795322 163.721739 
L 188.637273 164.648829 
L 188.698997 164.727218 
L 189.367254 165.57592 
L 189.632107 165.912287 
L 190.097032 166.50301 
L 190.565217 167.047899 
L 190.888449 167.4301 
L 191.498328 168.060731 
L 191.786835 168.357191 
L 192.431438 169.008157 
L 192.682521 169.284281 
L 193.364548 169.892577 
L 193.687744 170.211371 
L 194.297659 170.81958 
L 194.587405 171.138462 
L 195.230769 171.880585 
L 195.401279 172.065552 
L 196.16388 172.780592 
L 196.392077 172.992642 
L 197.09699 173.705499 
L 197.308834 173.919732 
L 198.0301 174.64913 
L 198.225626 174.846823 
L 198.963211 175.592721 
L 199.145756 175.773913 
L 199.896321 176.519396 
L 200.09149 176.701003 
L 200.829431 177.406621 
L 201.071724 177.628094 
L 201.762542 178.259547 
L 202.085969 178.555184 
L 202.695652 179.112479 
L 203.100208 179.482274 
L 203.628763 179.965412 
L 204.114448 180.409365 
L 204.561873 180.818342 
L 205.13618 181.336455 
L 205.494983 181.664083 
L 206.185156 182.263545 
L 206.428094 182.49626 
L 207.227611 183.190635 
L 207.361204 183.359808 
L 207.959941 184.117726 
L 208.294314 184.564109 
L 208.651703 185.044816 
L 208.894879 185.971906 
L 209.149659 186.898997 
L 209.227425 187.093479 
L 209.527942 187.826087 
L 209.927939 188.753177 
L 210.160535 189.305471 
L 210.283318 189.680268 
L 210.466831 190.607358 
L 210.624101 191.534448 
L 210.326288 192.461538 
L 210.160535 192.722095 
L 209.716605 193.388629 
L 209.227425 194.048582 
L 209.028116 194.315719 
L 208.294314 195.225689 
L 208.278316 195.242809 
L 207.38709 196.1699 
L 207.361204 196.19685 
L 206.525482 197.09699 
L 206.428094 197.188712 
L 205.494983 197.782467 
L 205.097787 198.02408 
L 204.561873 198.342839 
L 203.628763 198.476767 
z
" clip-path="url(#p595bdbc3cf)" style="fill: none; stroke-dasharray: 5.55,2.4; stroke-dashoffset: 0; stroke: #000000; stroke-width: 1.5"/>
   </g>
   <g id="PathCollection_3">
    <path d="M 200.829431 224.090075 
L 200.448767 223.982609 
L 199.896321 223.820764 
L 198.963211 223.622705 
L 198.0301 223.39378 
L 197.09699 223.15643 
L 196.725314 223.055518 
L 196.16388 222.896814 
L 195.230769 222.510519 
L 194.605435 222.128428 
L 194.297659 221.933325 
L 193.364548 221.430298 
L 192.930707 221.201338 
L 192.431438 220.948282 
L 191.498328 220.499446 
L 191.088405 220.274247 
L 190.565217 220.02126 
L 189.632107 219.602245 
L 189.172317 219.347157 
L 188.698997 219.132663 
L 187.765886 218.591172 
L 187.481462 218.420067 
L 186.832776 218.051905 
L 186.083753 217.492977 
L 185.899666 217.373684 
L 184.966555 216.648837 
L 184.857186 216.565886 
L 184.033445 215.950228 
L 183.62585 215.638796 
L 183.100334 215.255649 
L 182.297432 214.711706 
L 182.167224 214.625561 
L 181.234114 214.000795 
L 180.910482 213.784615 
L 180.301003 213.377498 
L 179.522584 212.857525 
L 179.367893 212.754194 
L 178.434783 212.132164 
L 178.130596 211.930435 
L 177.501672 211.512196 
L 176.715416 211.003344 
L 176.568562 210.901916 
L 175.635452 210.220379 
L 175.480029 210.076254 
L 174.702341 209.299623 
L 174.54451 209.149164 
L 173.769231 208.431945 
L 173.54337 208.222074 
L 172.83612 207.560993 
L 172.552251 207.294983 
L 171.90301 206.769873 
L 171.376934 206.367893 
L 170.9699 206.057217 
L 170.280205 205.440803 
L 170.036789 205.224486 
L 169.23766 204.513712 
L 169.103679 204.394636 
L 168.194523 203.586622 
L 168.170569 203.565332 
L 167.237458 202.703857 
L 167.174882 202.659532 
L 166.304348 202.132158 
L 165.506243 201.732441 
L 165.371237 201.665936 
L 164.438127 201.212973 
L 163.624239 200.805351 
L 163.505017 200.747418 
L 162.571906 200.302041 
L 161.707772 199.878261 
L 161.638796 199.845507 
L 160.705686 199.407837 
L 159.772575 198.956697 
L 159.761445 198.951171 
L 158.839465 198.518784 
L 157.906355 198.07088 
L 157.813251 198.02408 
L 156.973244 197.680118 
L 156.040134 197.414936 
L 155.107023 197.165041 
L 154.913417 197.09699 
L 154.173913 196.788388 
L 153.240803 196.172137 
L 153.238063 196.1699 
L 152.307692 195.429552 
L 152.079872 195.242809 
L 151.374582 194.677056 
L 150.935372 194.315719 
L 150.441472 194.021443 
L 149.636664 193.388629 
L 149.508361 193.286371 
L 148.750783 192.461538 
L 148.575251 192.266165 
L 147.91411 191.534448 
L 147.64214 191.22358 
L 147.083971 190.607358 
L 146.70903 190.18844 
L 146.24127 189.680268 
L 145.77592 189.070054 
L 145.513601 188.753177 
L 144.871621 187.826087 
L 144.842809 187.794849 
L 144.10571 186.898997 
L 143.909699 186.612472 
L 143.423558 185.971906 
L 142.976589 185.235106 
L 142.819088 185.044816 
L 142.043478 184.275593 
L 141.871787 184.117726 
L 141.110368 183.361742 
L 140.991627 183.190635 
L 140.466491 182.263545 
L 140.177258 181.678916 
L 139.970159 181.336455 
L 139.563151 180.409365 
L 139.244147 179.633505 
L 139.194319 179.482274 
L 138.720839 178.555184 
L 138.483599 177.628094 
L 138.311037 177.130096 
L 138.223064 176.701003 
L 137.895469 175.773913 
L 137.691989 174.846823 
L 137.484883 173.919732 
L 137.377926 173.711742 
L 137.032131 172.992642 
L 136.533749 172.065552 
L 136.444816 171.868129 
L 136.210746 171.138462 
L 135.946274 170.211371 
L 135.886607 169.284281 
L 135.896086 168.357191 
L 135.906093 167.4301 
L 135.919587 166.50301 
L 135.917131 165.57592 
L 135.896218 164.648829 
L 135.875304 163.721739 
L 135.852311 162.794649 
L 135.828757 161.867559 
L 135.841424 160.940468 
L 135.903907 160.013378 
L 135.976137 159.086288 
L 136.102311 158.159197 
L 136.436263 157.232107 
L 136.444816 157.121054 
L 136.731408 156.305017 
L 136.873677 155.377926 
L 136.997834 154.450836 
L 137.377926 153.757607 
L 137.551788 153.523746 
L 138.120798 152.596656 
L 138.311037 152.238089 
L 138.65493 151.669565 
L 139.208221 150.742475 
L 139.244147 150.662257 
L 139.832448 149.815385 
L 140.177258 149.391137 
L 140.585197 148.888294 
L 141.110368 148.242411 
L 141.338602 147.961204 
L 142.043478 147.092374 
L 142.100474 147.034114 
L 142.651415 146.107023 
L 142.976589 145.653474 
L 143.300388 145.179933 
L 143.909699 144.308166 
L 143.959568 144.252843 
L 144.559822 143.325753 
L 144.842809 142.959969 
L 145.243078 142.398662 
L 145.77592 141.751885 
L 146.034619 141.471572 
L 146.70903 140.74933 
L 146.911393 140.544482 
L 147.64214 139.807175 
L 147.868513 139.617391 
L 148.575251 139.073679 
L 149.100513 138.690301 
L 149.508361 138.354877 
L 150.342579 137.763211 
L 150.441472 137.691726 
L 151.374582 137.146362 
L 151.892542 136.83612 
L 152.307692 136.542646 
L 153.240803 136.026872 
L 153.401096 135.90903 
L 154.173913 135.408009 
L 154.869629 134.98194 
L 155.107023 134.815187 
L 156.040134 134.272276 
L 156.399803 134.054849 
L 156.973244 133.682126 
L 157.906355 133.157931 
L 157.944831 133.127759 
L 158.839465 132.589797 
L 159.672821 132.200669 
L 159.772575 132.146581 
L 160.705686 131.76306 
L 161.638796 131.456071 
L 162.332464 131.273579 
L 162.571906 131.206682 
L 163.505017 130.99627 
L 164.438127 130.823448 
L 165.371237 130.63874 
L 166.304348 130.477911 
L 167.108311 130.346488 
L 167.237458 130.326077 
L 168.170569 130.303427 
L 169.103679 130.281296 
L 169.780518 130.346488 
L 170.036789 130.378236 
L 170.9699 130.530599 
L 171.90301 130.580617 
L 172.83612 130.561951 
L 173.769231 130.54213 
L 174.702341 130.521045 
L 175.635452 130.508372 
L 176.568562 130.581973 
L 177.501672 130.647774 
L 178.434783 130.833808 
L 179.367893 131.109907 
L 179.801221 131.273579 
L 180.301003 131.458248 
L 181.234114 131.764658 
L 182.167224 132.066543 
L 182.481745 132.200669 
L 183.100334 132.440469 
L 184.033445 132.763252 
L 184.940981 133.127759 
L 184.966555 133.142143 
L 185.899666 133.520579 
L 186.832776 133.883557 
L 187.15904 134.054849 
L 187.765886 134.329782 
L 188.698997 134.745557 
L 189.071546 134.98194 
L 189.632107 135.309931 
L 190.565217 135.8251 
L 190.694626 135.90903 
L 191.498328 136.345262 
L 192.267352 136.83612 
L 192.431438 136.944848 
L 193.364548 137.537739 
L 193.611249 137.763211 
L 194.297659 138.353074 
L 194.658914 138.690301 
L 195.230769 139.202279 
L 195.67061 139.617391 
L 196.16388 140.058171 
L 196.747181 140.544482 
L 197.09699 140.81389 
L 198.0301 141.457189 
L 198.051933 141.471572 
L 198.963211 141.943345 
L 199.771831 142.398662 
L 199.896321 142.49179 
L 200.612071 143.325753 
L 200.829431 143.630346 
L 201.332485 144.252843 
L 201.762542 144.682133 
L 202.319422 145.179933 
L 202.695652 145.484155 
L 203.467448 146.107023 
L 203.628763 146.237211 
L 204.561873 146.97991 
L 204.625317 147.034114 
L 205.494983 147.758181 
L 205.698502 147.961204 
L 206.428094 148.639739 
L 206.675891 148.888294 
L 207.361204 149.507218 
L 207.670522 149.815385 
L 208.294314 150.353847 
L 208.727252 150.742475 
L 209.227425 151.164947 
L 209.787203 151.669565 
L 210.160535 151.987908 
L 210.885668 152.596656 
L 211.093645 152.784604 
L 212.026756 153.462958 
L 212.100945 153.523746 
L 212.959866 154.278336 
L 213.117167 154.450836 
L 213.892977 155.360892 
L 213.908596 155.377926 
L 214.717699 156.305017 
L 214.826087 156.411041 
L 215.515131 157.232107 
L 215.759197 157.531205 
L 216.283024 158.159197 
L 216.692308 158.639485 
L 217.107894 159.086288 
L 217.625418 159.689559 
L 217.924669 160.013378 
L 218.558528 160.783994 
L 218.698773 160.940468 
L 219.398223 161.867559 
L 219.491639 161.970884 
L 220.114732 162.794649 
L 220.424749 163.204511 
L 220.855376 163.721739 
L 221.35786 164.40894 
L 221.554105 164.648829 
L 222.203395 165.57592 
L 222.29097 165.670266 
L 222.904101 166.50301 
L 223.22408 166.982835 
L 223.564979 167.4301 
L 224.157191 168.306173 
L 224.19646 168.357191 
L 224.848255 169.284281 
L 225.090301 169.607657 
L 225.562044 170.211371 
L 226.023411 170.884059 
L 226.217832 171.138462 
L 226.931327 172.065552 
L 226.956522 172.090087 
L 227.663408 172.992642 
L 227.889632 173.276907 
L 228.406261 173.919732 
L 228.822742 174.440854 
L 229.168769 174.846823 
L 229.755853 175.5359 
L 229.973735 175.773913 
L 230.688963 176.639424 
L 230.744774 176.701003 
L 231.501516 177.628094 
L 231.622074 177.745504 
L 232.344066 178.555184 
L 232.555184 178.806713 
L 233.111261 179.482274 
L 233.488294 180.059496 
L 233.754005 180.409365 
L 234.193433 181.336455 
L 234.421405 181.796584 
L 234.673542 182.263545 
L 235.043646 183.190635 
L 235.088779 184.117726 
L 235.153204 185.044816 
L 235.243617 185.971906 
L 235.354515 186.89398 
L 235.35509 186.898997 
L 235.354515 186.911736 
L 235.305637 187.826087 
L 235.299931 188.753177 
L 235.35137 189.680268 
L 235.354515 190.082663 
L 235.358045 190.607358 
L 235.354515 190.753232 
L 235.333265 191.534448 
L 235.314795 192.461538 
L 235.305646 193.388629 
L 235.29188 194.315719 
L 235.354515 195.09197 
L 235.366855 195.242809 
L 235.581015 196.1699 
L 235.656653 197.09699 
L 235.561143 198.02408 
L 235.354515 198.420523 
L 235.152621 198.951171 
L 234.741758 199.878261 
L 234.421405 200.3696 
L 234.213802 200.805351 
L 233.780547 201.732441 
L 233.488294 202.167526 
L 233.253332 202.659532 
L 232.85965 203.586622 
L 232.555184 204.080985 
L 232.347953 204.513712 
L 231.901782 205.440803 
L 231.622074 205.813827 
L 231.274652 206.367893 
L 230.699235 207.294983 
L 230.688963 207.309057 
L 230.140222 208.222074 
L 229.755853 208.69536 
L 229.36321 209.149164 
L 228.822742 209.737194 
L 228.501587 210.076254 
L 227.889632 210.717499 
L 227.616033 211.003344 
L 226.956522 211.726614 
L 226.784998 211.930435 
L 226.023411 212.800275 
L 225.974082 212.857525 
L 225.090301 213.782574 
L 225.088196 213.784615 
L 224.157191 214.604113 
L 224.029117 214.711706 
L 223.22408 215.388005 
L 222.92555 215.638796 
L 222.29097 216.177133 
L 221.776044 216.565886 
L 221.35786 216.841933 
L 220.424749 217.328195 
L 220.140508 217.492977 
L 219.491639 217.879288 
L 218.558528 218.380652 
L 218.494597 218.420067 
L 217.625418 218.828395 
L 216.692308 219.33518 
L 216.677058 219.347157 
L 215.759197 219.953182 
L 215.268402 220.274247 
L 214.826087 220.576187 
L 213.892977 221.158405 
L 213.832309 221.201338 
L 212.959866 221.755094 
L 212.365709 222.128428 
L 212.026756 222.349841 
L 211.093645 222.927407 
L 210.893429 223.055518 
L 210.160535 223.467083 
L 209.227425 223.727579 
L 208.294314 223.807712 
L 207.361204 223.856977 
L 206.428094 223.913207 
L 205.494983 223.977881 
L 205.43337 223.982609 
L 204.561873 224.025108 
L 203.628763 224.110497 
L 202.695652 224.184483 
L 201.762542 224.249632 
L 200.829431 224.090075 
z
" clip-path="url(#p595bdbc3cf)" style="fill: none; stroke: #000000; stroke-width: 1.5"/>
   </g>
   <g id="PathCollection_4">
    <path d="M 197.09699 248.117283 
L 195.230769 247.730901 
L 190.565217 246.262569 
L 182.906108 243.451505 
L 180.301003 241.993186 
L 169.103679 235.021819 
L 166.828873 233.253512 
L 165.371237 232.030435 
L 159.273389 225.836789 
L 157.906355 224.643215 
L 156.973244 223.921917 
L 155.378679 223.055518 
L 149.508361 220.677622 
L 144.842809 218.705936 
L 140.177258 216.326981 
L 139.113173 215.638796 
L 134.578595 211.905888 
L 133.227796 211.003344 
L 129.913043 207.946175 
L 125.247492 203.670305 
L 125.180146 203.586622 
L 123.381271 200.603131 
L 122.448161 198.821977 
L 121.51505 196.802205 
L 119.118611 192.461538 
L 118.1636 189.680268 
L 115.792367 182.263545 
L 115.157426 180.409365 
L 113.943985 175.773913 
L 111.885025 165.57592 
L 112.04612 160.940468 
L 112.299473 158.159197 
L 115.068445 147.034114 
L 115.347806 146.107023 
L 115.916388 145.137511 
L 117.423877 143.325753 
L 119.746392 138.690301 
L 128.979933 125.370567 
L 132.189252 122.002676 
L 134.778544 120.148495 
L 143.909699 114.270744 
L 145.77592 113.078217 
L 153.240803 109.813671 
L 155.107023 109.176435 
L 159.772575 107.927595 
L 161.638796 107.568964 
L 169.413705 107.169231 
L 170.9699 107.024337 
L 174.702341 107.133503 
L 176.568562 107.342093 
L 185.899666 109.083798 
L 190.92863 109.950502 
L 194.297659 110.981707 
L 197.09699 111.943493 
L 201.762542 114.482201 
L 205.494983 117.444353 
L 209.227425 120.227901 
L 210.527365 121.075585 
L 214.826087 124.388603 
L 216.692308 125.795673 
L 224.157191 131.887934 
L 226.138197 134.054849 
L 228.291171 135.90903 
L 231.004915 139.617391 
L 233.488294 142.883341 
L 237.220736 146.722534 
L 242.361667 151.669565 
L 244.685619 154.866153 
L 245.677936 156.305017 
L 247.32196 159.086288 
L 248.968151 161.867559 
L 251.473428 166.50301 
L 254.949833 174.349166 
L 256.240253 176.701003 
L 257.749164 180.173485 
L 258.160597 181.336455 
L 258.361678 183.190635 
L 259.082888 195.242809 
L 259.04609 199.878261 
L 258.982592 203.586622 
L 258.682274 204.900114 
L 257.438178 208.222074 
L 253.789844 215.638796 
L 252.060173 218.420067 
L 248.112505 223.982609 
L 246.401082 225.836789 
L 243.528865 228.61806 
L 241.467264 230.472241 
L 239.380263 232.326421 
L 235.354515 235.270269 
L 228.822742 239.551028 
L 224.573345 242.524415 
L 223.22408 243.612025 
L 221.7244 244.378595 
L 215.759197 246.642984 
L 210.132009 247.159866 
L 198.963211 248.089942 
L 197.09699 248.117283 
L 197.09699 248.117283 
" clip-path="url(#p595bdbc3cf)" style="fill: none; stroke: #000000; stroke-width: 1.5"/>
   </g>
   <g id="patch_3">
    <path d="M 45 320.4 
L 45 43.2 
" style="fill: none; stroke: #000000; stroke-width: 0.8; stroke-linejoin: miter; stroke-linecap: square"/>
   </g>
   <g id="patch_4">
    <path d="M 324 320.4 
L 324 43.2 
" style="fill: none; stroke: #000000; stroke-width: 0.8; stroke-linejoin: miter; stroke-linecap: square"/>
   </g>
   <g id="patch_5">
    <path d="M 45 320.4 
L 324 320.4 
" style="fill: none; stroke: #000000; stroke-width: 0.8; stroke-linejoin: miter; stroke-linecap: square"/>
   </g>
   <g id="patch_6">
    <path d="M 45 43.2 
L 324 43.2 
" style="fill: none; stroke: #000000; stroke-width: 0.8; stroke-linejoin: miter; stroke-linecap: square"/>
   </g>
  </g>
 </g>
 <defs>
  <clipPath id="p595bdbc3cf">
   <rect x="45" y="43.2" width="279" height="277.2"/>
  </clipPath>
 </defs>
</svg>
