<?xml version="1.0" encoding="utf-8" standalone="no"?>
<!DOCTYPE svg PUBLIC "-//W3C//DTD SVG 1.1//EN"
  "http://www.w3.org/Graphics/SVG/1.1/DTD/svg11.dtd">
<svg xmlns:xlink="http://www.w3.org/1999/xlink" width="360pt" height="360pt" viewBox="0 0 360 360" xmlns="http://www.w3.org/2000/svg" version="1.1">
 <metadata>
  <rdf:RDF xmlns:dc="http://purl.org/dc/elements/1.1/" xmlns:cc="http://creativecommons.org/ns#" xmlns:rdf="http://www.w3.org/1999/02/22-rdf-syntax-ns#">
   <cc:Work>
    <dc:type rdf:resource="http://purl.org/dc/dcmitype/StillImage"/>
    <dc:date>2022-04-10T19:53:28.362315</dc:date>
    <dc:format>image/svg+xml</dc:format>
    <dc:creator>
     <cc:Agent>
      <dc:title>Matplotlib v3.5.1, https://matplotlib.org/</dc:title>
     </cc:Agent>
    </dc:creator>
   </cc:Work>
  </rdf:RDF>
 </metadata>
 <defs>
  <style type="text/css">*{stroke-linejoin: round; stroke-linecap: butt}</style>
 </defs>
 <g id="figure_1">
  <g id="patch_1">
   <path d="M 0 360 
L 360 360 
L 360 0 
L 0 0 
z
" style="fill: #ffffff"/>
  </g>
  <g id="axes_1">
   <g id="patch_2">
    <path d="M 45 320.4 
L 324 320.4 
L 324 43.2 
L 45 43.2 
z
" style="fill: #ffffff"/>
   </g>
   <g id="PathCollection_1">
    <defs>
     <path id="mb1beae75de" d="M 0 0.5 
C 0.132602 0.5 0.25979 0.447317 0.353553 0.353553 
C 0.447317 0.25979 0.5 0.132602 0.5 0 
C 0.5 -0.132602 0.447317 -0.25979 0.353553 -0.353553 
C 0.25979 -0.447317 0.132602 -0.5 0 -0.5 
C -0.132602 -0.5 -0.25979 -0.447317 -0.353553 -0.353553 
C -0.447317 -0.25979 -0.5 -0.132602 -0.5 0 
C -0.5 0.132602 -0.447317 0.25979 -0.353553 0.353553 
C -0.25979 0.447317 -0.132602 0.5 0 0.5 
z
" style="stroke: #ff0000"/>
    </defs>
    <g clip-path="url(#p12712688cd)">
     <use xlink:href="#mb1beae75de" x="240.990447" y="181.336455" style="fill: #ff0000; stroke: #ff0000"/>
     <use xlink:href="#mb1beae75de" x="240.258934" y="175.925765" style="fill: #ff0000; stroke: #ff0000"/>
     <use xlink:href="#mb1beae75de" x="239.633564" y="170.532665" style="fill: #ff0000; stroke: #ff0000"/>
     <use xlink:href="#mb1beae75de" x="238.920016" y="165.075442" style="fill: #ff0000; stroke: #ff0000"/>
     <use xlink:href="#mb1beae75de" x="237.754586" y="159.612004" style="fill: #ff0000; stroke: #ff0000"/>
     <use xlink:href="#mb1beae75de" x="235.751166" y="154.366643" style="fill: #ff0000; stroke: #ff0000"/>
     <use xlink:href="#mb1beae75de" x="232.662523" y="149.672637" style="fill: #ff0000; stroke: #ff0000"/>
     <use xlink:href="#mb1beae75de" x="228.48813" y="145.849656" style="fill: #ff0000; stroke: #ff0000"/>
     <use xlink:href="#mb1beae75de" x="223.481387" y="143.070106" style="fill: #ff0000; stroke: #ff0000"/>
     <use xlink:href="#mb1beae75de" x="218.052217" y="141.281556" style="fill: #ff0000; stroke: #ff0000"/>
     <use xlink:href="#mb1beae75de" x="212.610146" y="140.231811" style="fill: #ff0000; stroke: #ff0000"/>
     <use xlink:href="#mb1beae75de" x="207.424472" y="139.591717" style="fill: #ff0000; stroke: #ff0000"/>
     <use xlink:href="#mb1beae75de" x="202.569888" y="139.112431" style="fill: #ff0000; stroke: #ff0000"/>
     <use xlink:href="#mb1beae75de" x="197.975876" y="138.727157" style="fill: #ff0000; stroke: #ff0000"/>
     <use xlink:href="#mb1beae75de" x="193.535218" y="138.536799" style="fill: #ff0000; stroke: #ff0000"/>
     <use xlink:href="#mb1beae75de" x="189.194043" y="138.690968" style="fill: #ff0000; stroke: #ff0000"/>
     <use xlink:href="#mb1beae75de" x="184.966555" y="139.242676" style="fill: #ff0000; stroke: #ff0000"/>
     <use xlink:href="#mb1beae75de" x="180.875883" y="140.071122" style="fill: #ff0000; stroke: #ff0000"/>
     <use xlink:href="#mb1beae75de" x="176.875462" y="140.922215" style="fill: #ff0000; stroke: #ff0000"/>
     <use xlink:href="#mb1beae75de" x="172.817144" y="141.543607" style="fill: #ff0000; stroke: #ff0000"/>
     <use xlink:href="#mb1beae75de" x="168.499006" y="141.836765" style="fill: #ff0000; stroke: #ff0000"/>
     <use xlink:href="#mb1beae75de" x="163.772963" y="141.941842" style="fill: #ff0000; stroke: #ff0000"/>
     <use xlink:href="#mb1beae75de" x="158.652818" y="142.209236" style="fill: #ff0000; stroke: #ff0000"/>
     <use xlink:href="#mb1beae75de" x="153.358933" y="143.070933" style="fill: #ff0000; stroke: #ff0000"/>
     <use xlink:href="#mb1beae75de" x="148.268834" y="144.875493" style="fill: #ff0000; stroke: #ff0000"/>
     <use xlink:href="#mb1beae75de" x="143.796728" y="147.767233" style="fill: #ff0000; stroke: #ff0000"/>
     <use xlink:href="#mb1beae75de" x="140.267213" y="151.662" style="fill: #ff0000; stroke: #ff0000"/>
     <use xlink:href="#mb1beae75de" x="137.849405" y="156.314295" style="fill: #ff0000; stroke: #ff0000"/>
     <use xlink:href="#mb1beae75de" x="136.574486" y="161.421124" style="fill: #ff0000; stroke: #ff0000"/>
     <use xlink:href="#mb1beae75de" x="136.403484" y="166.70005" style="fill: #ff0000; stroke: #ff0000"/>
     <use xlink:href="#mb1beae75de" x="137.284552" y="171.913105" style="fill: #ff0000; stroke: #ff0000"/>
     <use xlink:href="#mb1beae75de" x="139.157117" y="176.853728" style="fill: #ff0000; stroke: #ff0000"/>
     <use xlink:href="#mb1beae75de" x="141.90514" y="181.336455" style="fill: #ff0000; stroke: #ff0000"/>
     <use xlink:href="#mb1beae75de" x="145.299418" y="185.218121" style="fill: #ff0000; stroke: #ff0000"/>
     <use xlink:href="#mb1beae75de" x="148.977206" y="188.448996" style="fill: #ff0000; stroke: #ff0000"/>
     <use xlink:href="#mb1beae75de" x="152.486793" y="191.125518" style="fill: #ff0000; stroke: #ff0000"/>
     <use xlink:href="#mb1beae75de" x="155.390311" y="193.508298" style="fill: #ff0000; stroke: #ff0000"/>
     <use xlink:href="#mb1beae75de" x="157.388231" y="195.982273" style="fill: #ff0000; stroke: #ff0000"/>
     <use xlink:href="#mb1beae75de" x="158.417184" y="198.961728" style="fill: #ff0000; stroke: #ff0000"/>
     <use xlink:href="#mb1beae75de" x="158.682884" y="202.767742" style="fill: #ff0000; stroke: #ff0000"/>
     <use xlink:href="#mb1beae75de" x="158.615184" y="207.517817" style="fill: #ff0000; stroke: #ff0000"/>
     <use xlink:href="#mb1beae75de" x="158.759135" y="213.064263" style="fill: #ff0000; stroke: #ff0000"/>
     <use xlink:href="#mb1beae75de" x="159.633956" y="219.004769" style="fill: #ff0000; stroke: #ff0000"/>
     <use xlink:href="#mb1beae75de" x="161.600144" y="224.769899" style="fill: #ff0000; stroke: #ff0000"/>
     <use xlink:href="#mb1beae75de" x="164.775192" y="229.768227" style="fill: #ff0000; stroke: #ff0000"/>
     <use xlink:href="#mb1beae75de" x="169.026983" y="233.543179" style="fill: #ff0000; stroke: #ff0000"/>
     <use xlink:href="#mb1beae75de" x="174.046297" y="235.882105" style="fill: #ff0000; stroke: #ff0000"/>
     <use xlink:href="#mb1beae75de" x="179.464917" y="236.835142" style="fill: #ff0000; stroke: #ff0000"/>
     <use xlink:href="#mb1beae75de" x="184.966555" y="236.646574" style="fill: #ff0000; stroke: #ff0000"/>
     <use xlink:href="#mb1beae75de" x="190.35021" y="235.644969" style="fill: #ff0000; stroke: #ff0000"/>
     <use xlink:href="#mb1beae75de" x="195.539646" y="234.148039" style="fill: #ff0000; stroke: #ff0000"/>
     <use xlink:href="#mb1beae75de" x="200.560129" y="232.409934" style="fill: #ff0000; stroke: #ff0000"/>
     <use xlink:href="#mb1beae75de" x="205.504875" y="230.600449" style="fill: #ff0000; stroke: #ff0000"/>
     <use xlink:href="#mb1beae75de" x="210.495925" y="228.790404" style="fill: #ff0000; stroke: #ff0000"/>
     <use xlink:href="#mb1beae75de" x="215.631615" y="226.933874" style="fill: #ff0000; stroke: #ff0000"/>
     <use xlink:href="#mb1beae75de" x="220.921471" y="224.864994" style="fill: #ff0000; stroke: #ff0000"/>
     <use xlink:href="#mb1beae75de" x="226.231933" y="222.335604" style="fill: #ff0000; stroke: #ff0000"/>
     <use xlink:href="#mb1beae75de" x="231.278716" y="219.098654" style="fill: #ff0000; stroke: #ff0000"/>
     <use xlink:href="#mb1beae75de" x="235.68658" y="215.007847" style="fill: #ff0000; stroke: #ff0000"/>
     <use xlink:href="#mb1beae75de" x="239.101698" y="210.085609" style="fill: #ff0000; stroke: #ff0000"/>
     <use xlink:href="#mb1beae75de" x="241.311253" y="204.52462" style="fill: #ff0000; stroke: #ff0000"/>
     <use xlink:href="#mb1beae75de" x="242.319836" y="198.622138" style="fill: #ff0000; stroke: #ff0000"/>
     <use xlink:href="#mb1beae75de" x="242.35195" y="192.677477" style="fill: #ff0000; stroke: #ff0000"/>
     <use xlink:href="#mb1beae75de" x="241.77856" y="186.895849" style="fill: #ff0000; stroke: #ff0000"/>
    </g>
   </g>
   <g id="matplotlib.axis_1">
    <g id="xtick_1">
     <g id="line2d_1">
      <defs>
       <path id="me0001c8d12" d="M 0 0 
L 0 3.5 
" style="stroke: #000000; stroke-width: 0.8"/>
      </defs>
      <g>
       <use xlink:href="#me0001c8d12" x="45" y="320.4" style="stroke: #000000; stroke-width: 0.8"/>
      </g>
     </g>
     <g id="text_1">
      <!-- −3 -->
      <g transform="translate(37.628906 334.998438)scale(0.1 -0.1)">
       <defs>
        <path id="DejaVuSans-2212" d="M 678 2272 
L 4684 2272 
L 4684 1741 
L 678 1741 
L 678 2272 
z
" transform="scale(0.015625)"/>
        <path id="DejaVuSans-33" d="M 2597 2516 
Q 3050 2419 3304 2112 
Q 3559 1806 3559 1356 
Q 3559 666 3084 287 
Q 2609 -91 1734 -91 
Q 1441 -91 1130 -33 
Q 819 25 488 141 
L 488 750 
Q 750 597 1062 519 
Q 1375 441 1716 441 
Q 2309 441 2620 675 
Q 2931 909 2931 1356 
Q 2931 1769 2642 2001 
Q 2353 2234 1838 2234 
L 1294 2234 
L 1294 2753 
L 1863 2753 
Q 2328 2753 2575 2939 
Q 2822 3125 2822 3475 
Q 2822 3834 2567 4026 
Q 2313 4219 1838 4219 
Q 1578 4219 1281 4162 
Q 984 4106 628 3988 
L 628 4550 
Q 988 4650 1302 4700 
Q 1616 4750 1894 4750 
Q 2613 4750 3031 4423 
Q 3450 4097 3450 3541 
Q 3450 3153 3228 2886 
Q 3006 2619 2597 2516 
z
" transform="scale(0.015625)"/>
       </defs>
       <use xlink:href="#DejaVuSans-2212"/>
       <use xlink:href="#DejaVuSans-33" x="83.789062"/>
      </g>
     </g>
    </g>
    <g id="xtick_2">
     <g id="line2d_2">
      <g>
       <use xlink:href="#me0001c8d12" x="91.655518" y="320.4" style="stroke: #000000; stroke-width: 0.8"/>
      </g>
     </g>
     <g id="text_2">
      <!-- −2 -->
      <g transform="translate(84.284425 334.998438)scale(0.1 -0.1)">
       <defs>
        <path id="DejaVuSans-32" d="M 1228 531 
L 3431 531 
L 3431 0 
L 469 0 
L 469 531 
Q 828 903 1448 1529 
Q 2069 2156 2228 2338 
Q 2531 2678 2651 2914 
Q 2772 3150 2772 3378 
Q 2772 3750 2511 3984 
Q 2250 4219 1831 4219 
Q 1534 4219 1204 4116 
Q 875 4013 500 3803 
L 500 4441 
Q 881 4594 1212 4672 
Q 1544 4750 1819 4750 
Q 2544 4750 2975 4387 
Q 3406 4025 3406 3419 
Q 3406 3131 3298 2873 
Q 3191 2616 2906 2266 
Q 2828 2175 2409 1742 
Q 1991 1309 1228 531 
z
" transform="scale(0.015625)"/>
       </defs>
       <use xlink:href="#DejaVuSans-2212"/>
       <use xlink:href="#DejaVuSans-32" x="83.789062"/>
      </g>
     </g>
    </g>
    <g id="xtick_3">
     <g id="line2d_3">
      <g>
       <use xlink:href="#me0001c8d12" x="138.311037" y="320.4" style="stroke: #000000; stroke-width: 0.8"/>
      </g>
     </g>
     <g id="text_3">
      <!-- −1 -->
      <g transform="translate(130.939943 334.998438)scale(0.1 -0.1)">
       <defs>
        <path id="DejaVuSans-31" d="M 794 531 
L 1825 531 
L 1825 4091 
L 703 3866 
L 703 4441 
L 1819 4666 
L 2450 4666 
L 2450 531 
L 3481 531 
L 3481 0 
L 794 0 
L 794 531 
z
" transform="scale(0.015625)"/>
       </defs>
       <use xlink:href="#DejaVuSans-2212"/>
       <use xlink:href="#DejaVuSans-31" x="83.789062"/>
      </g>
     </g>
    </g>
    <g id="xtick_4">
     <g id="line2d_4">
      <g>
       <use xlink:href="#me0001c8d12" x="184.966555" y="320.4" style="stroke: #000000; stroke-width: 0.8"/>
      </g>
     </g>
     <g id="text_4">
      <!-- 0 -->
      <g transform="translate(181.785305 334.998438)scale(0.1 -0.1)">
       <defs>
        <path id="DejaVuSans-30" d="M 2034 4250 
Q 1547 4250 1301 3770 
Q 1056 3291 1056 2328 
Q 1056 1369 1301 889 
Q 1547 409 2034 409 
Q 2525 409 2770 889 
Q 3016 1369 3016 2328 
Q 3016 3291 2770 3770 
Q 2525 4250 2034 4250 
z
M 2034 4750 
Q 2819 4750 3233 4129 
Q 3647 3509 3647 2328 
Q 3647 1150 3233 529 
Q 2819 -91 2034 -91 
Q 1250 -91 836 529 
Q 422 1150 422 2328 
Q 422 3509 836 4129 
Q 1250 4750 2034 4750 
z
" transform="scale(0.015625)"/>
       </defs>
       <use xlink:href="#DejaVuSans-30"/>
      </g>
     </g>
    </g>
    <g id="xtick_5">
     <g id="line2d_5">
      <g>
       <use xlink:href="#me0001c8d12" x="231.622074" y="320.4" style="stroke: #000000; stroke-width: 0.8"/>
      </g>
     </g>
     <g id="text_5">
      <!-- 1 -->
      <g transform="translate(228.440824 334.998438)scale(0.1 -0.1)">
       <use xlink:href="#DejaVuSans-31"/>
      </g>
     </g>
    </g>
    <g id="xtick_6">
     <g id="line2d_6">
      <g>
       <use xlink:href="#me0001c8d12" x="278.277592" y="320.4" style="stroke: #000000; stroke-width: 0.8"/>
      </g>
     </g>
     <g id="text_6">
      <!-- 2 -->
      <g transform="translate(275.096342 334.998438)scale(0.1 -0.1)">
       <use xlink:href="#DejaVuSans-32"/>
      </g>
     </g>
    </g>
   </g>
   <g id="matplotlib.axis_2">
    <g id="ytick_1">
     <g id="line2d_7">
      <defs>
       <path id="m74d586dfcc" d="M 0 0 
L -3.5 0 
" style="stroke: #000000; stroke-width: 0.8"/>
      </defs>
      <g>
       <use xlink:href="#m74d586dfcc" x="45" y="320.4" style="stroke: #000000; stroke-width: 0.8"/>
      </g>
     </g>
     <g id="text_7">
      <!-- −3 -->
      <g transform="translate(23.257812 324.199219)scale(0.1 -0.1)">
       <use xlink:href="#DejaVuSans-2212"/>
       <use xlink:href="#DejaVuSans-33" x="83.789062"/>
      </g>
     </g>
    </g>
    <g id="ytick_2">
     <g id="line2d_8">
      <g>
       <use xlink:href="#m74d586dfcc" x="45" y="274.045485" style="stroke: #000000; stroke-width: 0.8"/>
      </g>
     </g>
     <g id="text_8">
      <!-- −2 -->
      <g transform="translate(23.257812 277.844704)scale(0.1 -0.1)">
       <use xlink:href="#DejaVuSans-2212"/>
       <use xlink:href="#DejaVuSans-32" x="83.789062"/>
      </g>
     </g>
    </g>
    <g id="ytick_3">
     <g id="line2d_9">
      <g>
       <use xlink:href="#m74d586dfcc" x="45" y="227.69097" style="stroke: #000000; stroke-width: 0.8"/>
      </g>
     </g>
     <g id="text_9">
      <!-- −1 -->
      <g transform="translate(23.257812 231.490189)scale(0.1 -0.1)">
       <use xlink:href="#DejaVuSans-2212"/>
       <use xlink:href="#DejaVuSans-31" x="83.789062"/>
      </g>
     </g>
    </g>
    <g id="ytick_4">
     <g id="line2d_10">
      <g>
       <use xlink:href="#m74d586dfcc" x="45" y="181.336455" style="stroke: #000000; stroke-width: 0.8"/>
      </g>
     </g>
     <g id="text_10">
      <!-- 0 -->
      <g transform="translate(31.6375 185.135674)scale(0.1 -0.1)">
       <use xlink:href="#DejaVuSans-30"/>
      </g>
     </g>
    </g>
    <g id="ytick_5">
     <g id="line2d_11">
      <g>
       <use xlink:href="#m74d586dfcc" x="45" y="134.98194" style="stroke: #000000; stroke-width: 0.8"/>
      </g>
     </g>
     <g id="text_11">
      <!-- 1 -->
      <g transform="translate(31.6375 138.781159)scale(0.1 -0.1)">
       <use xlink:href="#DejaVuSans-31"/>
      </g>
     </g>
    </g>
    <g id="ytick_6">
     <g id="line2d_12">
      <g>
       <use xlink:href="#m74d586dfcc" x="45" y="88.627425" style="stroke: #000000; stroke-width: 0.8"/>
      </g>
     </g>
     <g id="text_12">
      <!-- 2 -->
      <g transform="translate(31.6375 92.426643)scale(0.1 -0.1)">
       <use xlink:href="#DejaVuSans-32"/>
      </g>
     </g>
    </g>
   </g>
   <g id="PathCollection_2">
    <path d="M 183.100334 212.986726 
L 182.632399 212.857525 
L 182.167224 212.635146 
L 181.911322 211.930435 
L 181.722215 211.003344 
L 181.89471 210.076254 
L 181.963734 209.149164 
L 182.044164 208.222074 
L 182.141253 207.294983 
L 182.167224 207.048937 
L 182.239113 206.367893 
L 182.393945 205.440803 
L 182.587052 204.513712 
L 182.785569 203.586622 
L 182.986661 202.659532 
L 182.852619 201.732441 
L 182.395143 200.805351 
L 182.167224 200.418641 
L 181.848302 199.878261 
L 181.302162 198.951171 
L 181.234114 198.835899 
L 180.754668 198.02408 
L 180.301003 197.255352 
L 180.207421 197.09699 
L 179.633494 196.1699 
L 179.367893 195.757126 
L 179.036953 195.242809 
L 178.440418 194.315719 
L 178.434783 194.306961 
L 177.872671 193.388629 
L 177.501672 192.698927 
L 177.400078 192.461538 
L 177.113323 191.534448 
L 177.225057 190.607358 
L 177.025847 189.680268 
L 176.735149 188.753177 
L 176.568562 188.190802 
L 176.473152 187.826087 
L 176.245283 186.898997 
L 176.033619 185.971906 
L 175.738124 185.044816 
L 175.635452 184.860523 
L 175.244306 184.117726 
L 174.702341 183.201913 
L 174.696132 183.190635 
L 174.153865 182.263545 
L 173.769231 181.626269 
L 173.59749 181.336455 
L 173.020819 180.409365 
L 172.83612 180.1122 
L 172.441291 179.482274 
L 171.90301 178.611671 
L 171.865899 178.555184 
L 171.259736 177.628094 
L 170.9699 177.164674 
L 170.652711 176.701003 
L 170.036789 175.781128 
L 170.032063 175.773913 
L 169.418872 174.846823 
L 169.103679 174.393437 
L 168.774206 173.919732 
L 168.170569 173.053174 
L 168.129584 172.992642 
L 167.511141 172.065552 
L 167.237458 171.468781 
L 167.080061 171.138462 
L 166.578882 170.211371 
L 166.304348 169.74472 
L 166.034637 169.284281 
L 165.587117 168.357191 
L 166.046966 167.4301 
L 166.304348 167.229266 
L 167.237458 166.600922 
L 167.406212 166.50301 
L 168.170569 166.068951 
L 168.810607 165.57592 
L 169.103679 165.337677 
L 169.696731 164.648829 
L 170.036789 164.327498 
L 170.9699 163.775039 
L 171.41122 163.721739 
L 171.90301 163.664235 
L 172.83612 163.618651 
L 173.769231 163.618855 
L 174.503847 163.721739 
L 174.702341 163.75034 
L 175.635452 163.882855 
L 176.568562 163.969544 
L 177.501672 163.98752 
L 178.434783 163.998703 
L 179.367893 163.93642 
L 180.301003 163.842889 
L 181.234114 163.749481 
L 181.437382 163.721739 
L 182.167224 163.608632 
L 183.100334 163.460111 
L 184.033445 163.310549 
L 184.966555 163.171742 
L 185.899666 163.063981 
L 186.832776 162.971243 
L 187.765886 162.922101 
L 188.698997 162.903367 
L 189.632107 162.94045 
L 190.565217 163.14449 
L 191.498328 163.261108 
L 192.431438 163.305353 
L 193.364548 163.160237 
L 194.297659 162.925403 
L 194.819994 162.794649 
L 195.230769 162.698397 
L 196.16388 162.517523 
L 197.09699 162.448175 
L 198.0301 162.4473 
L 198.963211 162.479489 
L 199.896321 162.534903 
L 200.829431 162.590322 
L 201.762542 162.645737 
L 202.695652 162.702014 
L 203.628763 162.784596 
L 203.708487 162.794649 
L 204.561873 162.918589 
L 205.494983 163.05593 
L 206.428094 163.196412 
L 207.361204 163.336896 
L 208.294314 163.513667 
L 209.193491 163.721739 
L 209.227425 163.729846 
L 210.160535 163.985691 
L 211.093645 164.241786 
L 212.026756 164.585262 
L 212.133357 164.648829 
L 212.959866 165.50635 
L 213.004043 165.57592 
L 213.566708 166.50301 
L 213.892977 167.042661 
L 214.112048 167.4301 
L 214.622019 168.357191 
L 214.826087 168.73965 
L 215.094279 169.284281 
L 215.473667 170.211371 
L 215.557015 171.138462 
L 215.600894 172.065552 
L 215.759197 172.991162 
L 215.759452 172.992642 
L 215.897445 173.919732 
L 216.040276 174.846823 
L 216.193589 175.773913 
L 216.354062 176.701003 
L 216.564672 177.628094 
L 216.692308 177.895725 
L 217.003887 178.555184 
L 217.406532 179.482274 
L 217.625418 180.009896 
L 217.787281 180.409365 
L 218.171436 181.336455 
L 218.558528 182.207061 
L 218.582391 182.263545 
L 218.689239 183.190635 
L 218.836798 184.117726 
L 218.984357 185.044816 
L 219.131911 185.971906 
L 219.279466 186.898997 
L 219.427024 187.826087 
L 219.491639 188.232069 
L 219.574576 188.753177 
L 219.7219 189.680268 
L 219.865322 190.607358 
L 219.998451 191.534448 
L 220.13852 192.461538 
L 220.31428 193.388629 
L 220.204882 194.315719 
L 219.91055 195.242809 
L 219.585255 196.1699 
L 219.491639 196.388161 
L 219.156115 197.09699 
L 218.558528 197.965745 
L 218.506777 198.02408 
L 217.763494 198.951171 
L 217.625418 199.124551 
L 216.984861 199.878261 
L 216.692308 200.160965 
L 216.052699 200.805351 
L 215.759197 201.080679 
L 215.064416 201.732441 
L 214.826087 201.956017 
L 214.020091 202.659532 
L 213.892977 202.791765 
L 213.247025 203.586622 
L 212.959866 203.928066 
L 212.377688 204.513712 
L 212.026756 204.759957 
L 211.111451 205.440803 
L 211.093645 205.45236 
L 210.160535 205.832443 
L 209.227425 206.071083 
L 208.294314 206.324521 
L 208.127941 206.367893 
L 207.361204 206.551301 
L 206.428094 206.786518 
L 205.494983 207.034071 
L 204.561873 207.272448 
L 204.479625 207.294983 
L 203.628763 207.525898 
L 202.695652 207.807234 
L 201.762542 208.079607 
L 201.275028 208.222074 
L 200.829431 208.349143 
L 199.896321 208.626692 
L 198.963211 208.899982 
L 198.0301 209.134696 
L 197.9567 209.149164 
L 197.09699 209.314506 
L 196.16388 209.493822 
L 195.230769 209.666197 
L 194.297659 209.812764 
L 193.364548 209.999341 
L 193.058831 210.076254 
L 192.431438 210.232809 
L 191.498328 210.459286 
L 190.565217 210.732558 
L 189.632107 210.994128 
L 189.599227 211.003344 
L 188.698997 211.271628 
L 187.765886 211.624035 
L 187.040998 211.930435 
L 186.832776 212.017107 
L 185.899666 212.396467 
L 184.966555 212.73723 
L 184.180836 212.857525 
L 184.033445 212.881165 
L 183.100334 212.986726 
z
" clip-path="url(#p12712688cd)" style="fill: none; stroke-dasharray: 5.55,2.4; stroke-dashoffset: 0; stroke: #000000; stroke-width: 1.5"/>
   </g>
   <g id="PathCollection_3">
    <path d="M 175.635452 236.963266 
L 174.702341 236.918544 
L 172.83612 236.532882 
L 170.9699 235.504502 
L 168.040971 233.253512 
L 165.371237 231.040761 
L 162.571906 228.39138 
L 160.783259 225.836789 
L 159.162335 221.201338 
L 158.449704 218.420067 
L 158.148898 214.711706 
L 157.985504 212.857525 
L 157.981386 207.294983 
L 158.022895 205.440803 
L 156.8788 199.878261 
L 156.613932 198.951171 
L 155.500584 197.09699 
L 154.850937 196.1699 
L 149.494652 189.680268 
L 143.909699 184.096803 
L 142.530997 182.263545 
L 141.976349 181.336455 
L 140.599051 179.482274 
L 139.101659 176.701003 
L 137.233528 174.846823 
L 136.444816 173.599658 
L 135.686972 171.138462 
L 135.002653 167.4301 
L 134.764486 165.57592 
L 135.050126 163.721739 
L 136.536876 160.013378 
L 136.997268 158.159197 
L 140.834399 151.669565 
L 142.043478 150.130429 
L 142.976589 149.31969 
L 151.374582 144.436143 
L 154.173913 142.978893 
L 158.839465 141.823281 
L 161.638796 141.597383 
L 165.371237 141.03565 
L 170.036789 140.804976 
L 173.769231 140.962389 
L 184.033445 139.75714 
L 186.832776 139.208035 
L 189.632107 138.800732 
L 190.739671 138.690301 
L 193.364548 139.013128 
L 201.762542 138.682439 
L 205.494983 138.621242 
L 208.294314 138.837435 
L 210.160535 138.923535 
L 211.093645 139.003051 
L 212.026756 139.234388 
L 212.959866 139.626767 
L 215.759197 141.12064 
L 219.491639 142.521089 
L 226.956522 146.194586 
L 228.859509 147.034114 
L 229.923844 147.961204 
L 232.561985 150.742475 
L 234.671109 153.523746 
L 238.585006 164.648829 
L 239.086957 167.621989 
L 239.543035 169.284281 
L 240.020067 171.190222 
L 240.513241 172.992642 
L 241.740759 180.409365 
L 241.651321 183.190635 
L 241.589265 187.826087 
L 241.812953 191.534448 
L 242.409264 196.1699 
L 242.515288 198.951171 
L 242.335333 199.878261 
L 241.886288 200.853965 
L 241.37517 202.659532 
L 240.932778 203.586622 
L 240.706509 204.513712 
L 239.533609 207.294983 
L 238.941835 208.222074 
L 238.507612 209.149164 
L 237.913866 210.076254 
L 236.198788 212.857525 
L 235.354515 214.085355 
L 234.421405 215.084809 
L 233.488294 215.869597 
L 232.418139 216.565886 
L 227.889632 220.461383 
L 222.29097 224.94865 
L 216.692308 227.031973 
L 214.826087 227.590128 
L 212.959866 228.147867 
L 208.294314 229.337811 
L 202.626954 231.399331 
L 198.963211 232.836858 
L 197.09699 233.529476 
L 193.364548 235.072652 
L 193.316113 235.107692 
L 190.565217 236.36185 
L 188.698997 236.991272 
L 186.832776 237.090592 
L 184.966555 237.220513 
L 180.301003 237.286947 
L 177.501672 237.009234 
L 175.635452 236.963266 
L 175.635452 236.963266 
" clip-path="url(#p12712688cd)" style="fill: none; stroke: #000000; stroke-width: 1.5"/>
   </g>
   <g id="PathCollection_4">
    <path d="M 177.501672 260.162753 
L 177.238896 260.13913 
L 176.568562 260.077593 
L 175.635452 259.976479 
L 174.702341 259.875368 
L 173.769231 259.774247 
L 172.83612 259.673142 
L 171.90301 259.561679 
L 170.9699 259.453977 
L 170.036789 259.29031 
L 169.62068 259.21204 
L 169.103679 259.114677 
L 168.170569 258.905873 
L 167.237458 258.62217 
L 166.304348 258.338213 
L 166.129486 258.28495 
L 165.371237 258.054053 
L 164.438127 257.752926 
L 163.505017 257.413197 
L 163.378036 257.35786 
L 162.571906 256.999465 
L 161.638796 256.584604 
L 161.341519 256.430769 
L 160.705686 256.071613 
L 159.860503 255.503679 
L 159.772575 255.443392 
L 158.839465 254.799382 
L 158.504543 254.576589 
L 157.906355 254.175718 
L 157.105598 253.649498 
L 156.973244 253.562523 
L 156.040134 252.934539 
L 155.752232 252.722408 
L 155.107023 252.22001 
L 154.590973 251.795318 
L 154.173913 251.44878 
L 153.475213 250.868227 
L 153.240803 250.673458 
L 152.359437 249.941137 
L 152.307692 249.898143 
L 151.374582 249.125934 
L 151.240337 249.014047 
L 150.441472 248.32479 
L 150.176498 248.086957 
L 149.508361 247.487247 
L 149.143614 247.159866 
L 148.575251 246.649734 
L 148.110712 246.232776 
L 147.64214 245.81749 
L 147.101644 245.305686 
L 146.70903 244.862453 
L 146.33152 244.378595 
L 145.77592 243.666455 
L 145.608222 243.451505 
L 144.884899 242.524415 
L 144.842809 242.470467 
L 144.161602 241.597324 
L 143.909699 241.27445 
L 143.443074 240.670234 
L 142.976589 240.080462 
L 142.716449 239.743144 
L 142.043478 238.858994 
L 142.011598 238.816054 
L 141.315506 237.888963 
L 141.110368 237.51572 
L 140.860262 236.961873 
L 140.507404 236.034783 
L 140.177258 235.163089 
L 140.156885 235.107692 
L 139.815944 234.180602 
L 139.475009 233.253512 
L 139.244147 232.625757 
L 139.134061 232.326421 
L 138.793109 231.399331 
L 138.45951 230.472241 
L 138.311037 229.994124 
L 138.156073 229.545151 
L 137.796735 228.61806 
L 137.437404 227.69097 
L 137.377926 227.537515 
L 137.078065 226.76388 
L 136.819038 225.836789 
L 136.785609 224.909699 
L 136.752181 223.982609 
L 136.699541 223.055518 
L 136.520564 222.128428 
L 136.444816 221.744774 
L 136.337521 221.201338 
L 136.154467 220.274247 
L 135.96931 219.347157 
L 135.782467 218.420067 
L 135.593929 217.492977 
L 135.511706 217.084906 
L 135.406109 216.565886 
L 135.218445 215.638796 
L 135.030779 214.711706 
L 134.843116 213.784615 
L 134.600589 212.857525 
L 134.578595 212.798402 
L 134.24143 211.930435 
L 133.923485 211.003344 
L 133.645485 210.238955 
L 133.586391 210.076254 
L 133.229053 209.149164 
L 132.796562 208.222074 
L 132.712375 208.082149 
L 132.239688 207.294983 
L 131.779264 206.528222 
L 131.68299 206.367893 
L 131.126269 205.440803 
L 130.846154 204.974321 
L 130.569568 204.513712 
L 130.012863 203.586622 
L 129.913043 203.432757 
L 129.382752 202.659532 
L 128.979933 202.100812 
L 128.7134 201.732441 
L 128.046823 200.81501 
L 128.039426 200.805351 
L 127.298587 199.878261 
L 127.113712 199.643294 
L 126.572584 198.951171 
L 126.180602 198.455439 
L 125.804824 198.02408 
L 125.247492 197.441673 
L 124.918034 197.09699 
L 124.314381 196.49903 
L 124.027016 196.1699 
L 123.381271 195.346139 
L 123.300377 195.242809 
L 122.574599 194.315719 
L 122.448161 194.154216 
L 121.8488 193.388629 
L 121.51505 192.960415 
L 121.119823 192.461538 
L 120.58194 191.819289 
L 120.355186 191.534448 
L 119.773372 190.607358 
L 119.648829 190.408847 
L 119.191646 189.680268 
L 118.715719 188.902878 
L 118.629667 188.753177 
L 118.294528 187.826087 
L 117.989901 186.898997 
L 117.782609 186.386587 
L 117.593637 185.971906 
L 116.996443 185.044816 
L 116.849498 184.816691 
L 116.399265 184.117726 
L 115.916388 183.30552 
L 115.855994 183.190635 
L 115.556092 182.263545 
L 115.242171 181.336455 
L 114.983278 180.614764 
L 114.909224 180.409365 
L 114.571592 179.482274 
L 114.246431 178.555184 
L 114.050167 177.935477 
L 113.953639 177.628094 
L 113.654579 176.701003 
L 113.375811 175.773913 
L 113.213755 174.846823 
L 113.117057 174.248632 
L 113.064512 173.919732 
L 112.914021 172.992642 
L 112.764152 172.065552 
L 112.608644 171.138462 
L 112.449228 170.211371 
L 112.290859 169.284281 
L 112.183946 168.658361 
L 112.132505 168.357191 
L 111.974153 167.4301 
L 111.83585 166.50301 
L 111.782769 165.57592 
L 111.736233 164.648829 
L 111.837732 163.721739 
L 111.895 162.794649 
L 111.920518 161.867559 
L 112.120859 160.940468 
L 112.183946 160.71125 
L 112.376022 160.013378 
L 112.631171 159.086288 
L 112.884572 158.159197 
L 113.117057 157.278282 
L 113.129147 157.232107 
L 113.363904 156.305017 
L 113.598322 155.377926 
L 113.838475 154.450836 
L 114.050167 153.66224 
L 114.088207 153.523746 
L 114.342923 152.596656 
L 114.597618 151.669565 
L 114.852301 150.742475 
L 114.983278 150.483948 
L 115.362193 149.815385 
L 115.916388 148.913905 
L 115.932133 148.888294 
L 116.502079 147.961204 
L 116.849498 147.396094 
L 117.072034 147.034114 
L 117.641994 146.107023 
L 117.782609 145.878297 
L 118.211942 145.179933 
L 118.679148 144.252843 
L 118.715719 144.175965 
L 119.130256 143.325753 
L 119.582881 142.398662 
L 119.648829 142.263579 
L 120.035786 141.471572 
L 120.494656 140.544482 
L 120.58194 140.368563 
L 120.954515 139.617391 
L 121.411534 138.690301 
L 121.51505 138.479916 
L 121.891197 137.763211 
L 122.448161 136.970775 
L 122.549107 136.83612 
L 123.266216 135.90903 
L 123.381271 135.763155 
L 124.008035 134.98194 
L 124.314381 134.600621 
L 124.752844 134.054849 
L 125.247492 133.439148 
L 125.513499 133.127759 
L 126.180602 132.423556 
L 126.399121 132.200669 
L 127.113712 131.471821 
L 127.330316 131.273579 
L 128.046823 130.691689 
L 128.474342 130.346488 
L 128.979933 129.938245 
L 129.665623 129.419398 
L 129.913043 129.254573 
L 130.846154 128.764869 
L 131.367075 128.492308 
L 131.779264 128.266123 
L 132.712375 127.715888 
L 132.967888 127.565217 
L 133.645485 127.165655 
L 134.578595 126.688708 
L 134.680191 126.638127 
L 135.511706 126.225171 
L 136.444816 125.759578 
L 136.542316 125.711037 
L 137.377926 125.295356 
L 138.311037 124.817106 
L 138.375493 124.783946 
L 139.244147 124.343936 
L 140.177258 123.864703 
L 140.192303 123.856856 
L 141.110368 123.385872 
L 141.936078 122.929766 
L 142.043478 122.867731 
L 142.976589 122.327518 
L 143.535829 122.002676 
L 143.909699 121.798311 
L 144.842809 121.41948 
L 145.77592 121.085272 
L 145.81688 121.075585 
L 146.70903 120.872606 
L 147.64214 120.665874 
L 148.575251 120.471588 
L 149.508361 120.326469 
L 150.441472 120.182651 
L 150.643779 120.148495 
L 151.374582 120.020978 
L 152.307692 119.842087 
L 153.240803 119.663202 
L 154.173913 119.484317 
L 155.107023 119.278204 
L 155.340797 119.221405 
L 156.040134 119.041717 
L 156.973244 118.74772 
L 157.906355 118.473645 
L 158.722175 118.294314 
L 158.839465 118.268314 
L 159.772575 118.148943 
L 160.705686 118.117943 
L 161.638796 117.993651 
L 162.571906 117.809029 
L 163.505017 117.624411 
L 164.438127 117.480953 
L 165.371237 117.45232 
L 166.304348 117.423684 
L 166.953229 117.367224 
L 167.237458 117.341981 
L 168.170569 117.238611 
L 169.103679 117.135242 
L 170.036789 117.0295 
L 170.9699 116.91658 
L 171.90301 116.803026 
L 172.83612 116.689447 
L 173.769231 116.555528 
L 174.400749 116.440134 
L 174.702341 116.385026 
L 175.635452 116.214508 
L 176.568562 116.043993 
L 177.501672 115.873482 
L 178.434783 115.702975 
L 179.367893 115.542241 
L 179.562841 115.513043 
L 180.301003 115.402511 
L 181.234114 115.261032 
L 182.167224 115.119564 
L 183.100334 114.978088 
L 184.033445 114.836605 
L 184.966555 114.695115 
L 185.899666 114.586225 
L 185.902617 114.585953 
L 186.832776 114.500112 
L 187.765886 114.556582 
L 188.207135 114.585953 
L 188.698997 114.619212 
L 189.632107 114.700666 
L 190.565217 114.795732 
L 191.498328 114.959069 
L 192.431438 115.254418 
L 193.364548 115.511014 
L 193.374376 115.513043 
L 194.297659 115.703698 
L 195.230769 115.896386 
L 196.16388 116.076942 
L 197.09699 116.116429 
L 198.0301 116.035141 
L 198.963211 115.952854 
L 199.896321 115.885442 
L 200.829431 115.851882 
L 201.762542 115.833985 
L 202.695652 115.816088 
L 203.628763 115.798198 
L 204.561873 115.78029 
L 205.494983 115.759707 
L 206.428094 115.724525 
L 207.361204 115.60355 
L 208.294314 115.718052 
L 209.227425 115.889921 
L 210.160535 116.061807 
L 211.093645 116.233681 
L 212.026756 116.405551 
L 212.209285 116.440134 
L 212.959866 116.586521 
L 213.892977 116.780475 
L 214.826087 116.97443 
L 215.759197 117.168378 
L 216.692308 117.362326 
L 216.71587 117.367224 
L 217.625418 117.556284 
L 218.558528 117.763158 
L 219.491639 118.000908 
L 220.424749 118.193667 
L 220.912001 118.294314 
L 221.35786 118.386412 
L 222.29097 118.579166 
L 223.22408 118.787855 
L 224.157191 119.021075 
L 224.958698 119.221405 
L 225.090301 119.254299 
L 226.023411 119.490348 
L 226.956522 119.732786 
L 227.889632 119.975223 
L 228.348453 120.148495 
L 228.822742 120.343568 
L 229.755853 120.804971 
L 230.303097 121.075585 
L 230.688963 121.266397 
L 231.622074 121.727795 
L 232.154602 122.002676 
L 232.555184 122.219125 
L 233.488294 122.792159 
L 233.712367 122.929766 
L 234.421405 123.365192 
L 235.222057 123.856856 
L 235.354515 123.937801 
L 236.287625 124.502839 
L 236.756101 124.783946 
L 237.220736 125.064933 
L 238.153846 125.579442 
L 238.423422 125.711037 
L 239.086957 126.034945 
L 240.020067 126.521023 
L 240.200982 126.638127 
L 240.953177 127.284913 
L 241.279173 127.565217 
L 241.886288 128.087231 
L 242.372625 128.492308 
L 242.819398 128.766007 
L 243.752508 129.212709 
L 244.026264 129.419398 
L 244.685619 130.060938 
L 244.974729 130.346488 
L 245.618729 130.982578 
L 245.913343 131.273579 
L 246.551839 131.904229 
L 246.85197 132.200669 
L 247.48495 132.825871 
L 247.790597 133.127759 
L 248.41806 133.737794 
L 248.75448 134.054849 
L 249.351171 134.601599 
L 249.765106 134.98194 
L 250.284281 135.462053 
L 250.759585 135.90903 
L 251.217391 136.364449 
L 251.672436 136.83612 
L 252.150502 137.331648 
L 252.563137 137.763211 
L 253.083612 138.312911 
L 253.436715 138.690301 
L 254.016722 139.451155 
L 254.121951 139.617391 
L 254.645346 140.544482 
L 254.949833 141.083846 
L 255.168717 141.471572 
L 255.692135 142.398662 
L 255.882943 142.738149 
L 256.214021 143.325753 
L 256.710883 144.252843 
L 256.816054 144.471454 
L 257.154797 145.179933 
L 257.602096 146.107023 
L 257.749164 146.453248 
L 257.999745 147.034114 
L 258.368689 147.961204 
L 258.682274 148.750267 
L 258.73663 148.888294 
L 259.01263 149.815385 
L 259.256797 150.742475 
L 259.489382 151.669565 
L 259.615385 152.202431 
L 259.706872 152.596656 
L 259.921997 153.523746 
L 260.124341 154.450836 
L 260.296634 155.377926 
L 260.548495 156.240255 
L 260.567886 156.305017 
L 260.866162 157.232107 
L 261.164422 158.159197 
L 261.429131 159.086288 
L 261.481605 159.472648 
L 261.554711 160.013378 
L 261.664327 160.940468 
L 261.774781 161.867559 
L 261.888574 162.794649 
L 262.036533 163.721739 
L 262.242858 164.648829 
L 262.414716 165.42101 
L 262.449193 165.57592 
L 262.667942 166.50301 
L 262.955322 167.4301 
L 263.208543 168.357191 
L 263.347826 168.867173 
L 263.461741 169.284281 
L 263.714944 170.211371 
L 263.968164 171.138462 
L 264.217912 172.065552 
L 264.280936 172.334139 
L 264.42936 172.992642 
L 264.621147 173.919732 
L 264.789719 174.846823 
L 264.958593 175.773913 
L 265.127579 176.701003 
L 265.214047 177.175403 
L 265.296558 177.628094 
L 265.465528 178.555184 
L 265.49447 179.482274 
L 265.418568 180.409365 
L 265.452667 181.336455 
L 265.486767 182.263545 
L 265.520875 183.190635 
L 265.554975 184.117726 
L 265.589078 185.044816 
L 265.6185 185.971906 
L 265.650742 186.898997 
L 265.660586 187.826087 
L 265.645486 188.753177 
L 265.630378 189.680268 
L 265.639033 190.607358 
L 265.676165 191.534448 
L 265.713293 192.461538 
L 265.74218 193.388629 
L 265.767198 194.315719 
L 265.792215 195.242809 
L 265.817225 196.1699 
L 265.842242 197.09699 
L 265.867255 198.02408 
L 265.846186 198.951171 
L 265.793925 199.878261 
L 265.741682 200.805351 
L 265.689426 201.732441 
L 265.653701 202.659532 
L 265.667208 203.586622 
L 265.680699 204.513712 
L 265.653906 205.440803 
L 265.354019 206.367893 
L 265.214047 206.770676 
L 265.026124 207.294983 
L 264.693849 208.222074 
L 264.359388 209.149164 
L 264.280936 209.348428 
L 263.987345 210.076254 
L 263.620988 211.003344 
L 263.347826 211.703057 
L 263.259102 211.930435 
L 262.894827 212.857525 
L 262.508515 213.784615 
L 262.414716 214.006418 
L 262.115457 214.711706 
L 261.695229 215.638796 
L 261.481605 216.147389 
L 261.308921 216.565886 
L 260.927414 217.492977 
L 260.548495 218.405633 
L 260.542433 218.420067 
L 260.157261 219.347157 
L 259.777523 220.274247 
L 259.615385 220.654272 
L 259.376139 221.201338 
L 258.93651 222.128428 
L 258.682274 222.65889 
L 258.470305 223.055518 
L 257.882759 223.982609 
L 257.749164 224.195652 
L 257.290242 224.909699 
L 256.816054 225.49773 
L 256.511912 225.836789 
L 255.882943 226.48623 
L 255.596043 226.76388 
L 254.949833 227.380988 
L 254.625231 227.69097 
L 254.016722 228.272067 
L 253.654 228.61806 
L 253.083612 229.162748 
L 252.68229 229.545151 
L 252.150502 230.051961 
L 251.709418 230.472241 
L 251.217391 231.020419 
L 250.912751 231.399331 
L 250.284281 232.153101 
L 250.124208 232.326421 
L 249.351171 233.117594 
L 249.218371 233.253512 
L 248.41806 234.093871 
L 248.325205 234.180602 
L 247.48495 234.883989 
L 247.217709 235.107692 
L 246.551839 235.673671 
L 246.133401 236.034783 
L 245.618729 236.508495 
L 245.126169 236.961873 
L 244.685619 237.367373 
L 244.118922 237.888963 
L 243.752508 238.223041 
L 243.068297 238.816054 
L 242.819398 239.011522 
L 241.887799 239.743144 
L 241.886288 239.744331 
L 240.953177 240.477157 
L 240.707326 240.670234 
L 240.020067 241.209177 
L 239.520243 241.597324 
L 239.086957 241.925679 
L 238.296892 242.524415 
L 238.153846 242.632821 
L 237.220736 243.339934 
L 237.07351 243.451505 
L 236.287625 244.047077 
L 235.850166 244.378595 
L 235.354515 244.754218 
L 234.421405 245.269457 
L 234.316624 245.305686 
L 233.488294 245.588155 
L 232.555184 245.892014 
L 231.622074 246.191654 
L 231.501035 246.232776 
L 230.688963 246.512222 
L 229.755853 246.833337 
L 228.822742 247.154444 
L 228.806986 247.159866 
L 227.889632 247.475335 
L 226.956522 247.774555 
L 226.023411 248.060901 
L 225.938558 248.086957 
L 225.090301 248.347418 
L 224.157191 248.633945 
L 223.22408 248.920486 
L 222.919375 249.014047 
L 222.29097 249.213521 
L 221.35786 249.555978 
L 220.424749 249.909789 
L 220.342074 249.941137 
L 219.491639 250.2636 
L 218.558528 250.606461 
L 217.789945 250.868227 
L 217.625418 250.924782 
L 216.692308 251.232178 
L 215.759197 251.539599 
L 214.982991 251.795318 
L 214.826087 251.847008 
L 213.892977 252.154425 
L 212.959866 252.461833 
L 212.154532 252.722408 
L 212.026756 252.763708 
L 211.093645 253.047924 
L 210.160535 253.332156 
L 209.227425 253.616383 
L 209.118705 253.649498 
L 208.294314 253.900605 
L 207.361204 254.184834 
L 206.428094 254.469061 
L 206.075073 254.576589 
L 205.494983 254.753286 
L 204.561873 255.03752 
L 203.628763 255.321737 
L 203.146584 255.503679 
L 202.695652 255.669996 
L 201.762542 256.04898 
L 200.829431 256.42805 
L 200.822733 256.430769 
L 199.896321 256.806984 
L 198.963211 257.168349 
L 198.467172 257.35786 
L 198.0301 257.525357 
L 197.09699 257.943719 
L 196.342115 258.28495 
L 196.16388 258.365583 
L 195.230769 258.72958 
L 194.297659 258.950214 
L 193.364548 259.132168 
L 192.431438 259.21119 
L 192.420115 259.21204 
L 191.498328 259.281695 
L 190.565217 259.336863 
L 189.632107 259.391168 
L 188.698997 259.471675 
L 187.765886 259.608899 
L 186.832776 259.746143 
L 185.899666 259.883367 
L 184.966555 260.009185 
L 184.033445 260.077467 
L 183.100334 260.12185 
L 182.737093 260.13913 
L 182.167224 260.16624 
L 181.234114 260.210791 
L 180.301003 260.255884 
L 179.367893 260.301442 
L 178.434783 260.236206 
L 177.501672 260.162753 
z
" clip-path="url(#p12712688cd)" style="fill: none; stroke: #000000; stroke-width: 1.5"/>
   </g>
   <g id="patch_3">
    <path d="M 45 320.4 
L 45 43.2 
" style="fill: none; stroke: #000000; stroke-width: 0.8; stroke-linejoin: miter; stroke-linecap: square"/>
   </g>
   <g id="patch_4">
    <path d="M 324 320.4 
L 324 43.2 
" style="fill: none; stroke: #000000; stroke-width: 0.8; stroke-linejoin: miter; stroke-linecap: square"/>
   </g>
   <g id="patch_5">
    <path d="M 45 320.4 
L 324 320.4 
" style="fill: none; stroke: #000000; stroke-width: 0.8; stroke-linejoin: miter; stroke-linecap: square"/>
   </g>
   <g id="patch_6">
    <path d="M 45 43.2 
L 324 43.2 
" style="fill: none; stroke: #000000; stroke-width: 0.8; stroke-linejoin: miter; stroke-linecap: square"/>
   </g>
  </g>
 </g>
 <defs>
  <clipPath id="p12712688cd">
   <rect x="45" y="43.2" width="279" height="277.2"/>
  </clipPath>
 </defs>
</svg>
