<?xml version="1.0" encoding="utf-8" standalone="no"?>
<!DOCTYPE svg PUBLIC "-//W3C//DTD SVG 1.1//EN"
  "http://www.w3.org/Graphics/SVG/1.1/DTD/svg11.dtd">
<svg xmlns:xlink="http://www.w3.org/1999/xlink" width="360pt" height="360pt" viewBox="0 0 360 360" xmlns="http://www.w3.org/2000/svg" version="1.1">
 <metadata>
  <rdf:RDF xmlns:dc="http://purl.org/dc/elements/1.1/" xmlns:cc="http://creativecommons.org/ns#" xmlns:rdf="http://www.w3.org/1999/02/22-rdf-syntax-ns#">
   <cc:Work>
    <dc:type rdf:resource="http://purl.org/dc/dcmitype/StillImage"/>
    <dc:date>2022-04-10T19:53:30.179876</dc:date>
    <dc:format>image/svg+xml</dc:format>
    <dc:creator>
     <cc:Agent>
      <dc:title>Matplotlib v3.5.1, https://matplotlib.org/</dc:title>
     </cc:Agent>
    </dc:creator>
   </cc:Work>
  </rdf:RDF>
 </metadata>
 <defs>
  <style type="text/css">*{stroke-linejoin: round; stroke-linecap: butt}</style>
 </defs>
 <g id="figure_1">
  <g id="patch_1">
   <path d="M 0 360 
L 360 360 
L 360 0 
L 0 0 
z
" style="fill: #ffffff"/>
  </g>
  <g id="axes_1">
   <g id="patch_2">
    <path d="M 45 320.4 
L 324 320.4 
L 324 43.2 
L 45 43.2 
z
" style="fill: #ffffff"/>
   </g>
   <g id="PathCollection_1">
    <defs>
     <path id="m58e0511296" d="M 0 0.5 
C 0.132602 0.5 0.25979 0.447317 0.353553 0.353553 
C 0.447317 0.25979 0.5 0.132602 0.5 0 
C 0.5 -0.132602 0.447317 -0.25979 0.353553 -0.353553 
C 0.25979 -0.447317 0.132602 -0.5 0 -0.5 
C -0.132602 -0.5 -0.25979 -0.447317 -0.353553 -0.353553 
C -0.447317 -0.25979 -0.5 -0.132602 -0.5 0 
C -0.5 0.132602 -0.447317 0.25979 -0.353553 0.353553 
C -0.25979 0.447317 -0.132602 0.5 0 0.5 
z
" style="stroke: #ff0000"/>
    </defs>
    <g clip-path="url(#pf2b2f8bd36)">
     <use xlink:href="#m58e0511296" x="224.465169" y="181.336455" style="fill: #ff0000; stroke: #ff0000"/>
     <use xlink:href="#m58e0511296" x="223.928236" y="177.523822" style="fill: #ff0000; stroke: #ff0000"/>
     <use xlink:href="#m58e0511296" x="223.000692" y="173.819804" style="fill: #ff0000; stroke: #ff0000"/>
     <use xlink:href="#m58e0511296" x="221.60503" y="170.293999" style="fill: #ff0000; stroke: #ff0000"/>
     <use xlink:href="#m58e0511296" x="219.720933" y="167.033596" style="fill: #ff0000; stroke: #ff0000"/>
     <use xlink:href="#m58e0511296" x="217.40487" y="164.109676" style="fill: #ff0000; stroke: #ff0000"/>
     <use xlink:href="#m58e0511296" x="214.788874" y="161.538378" style="fill: #ff0000; stroke: #ff0000"/>
     <use xlink:href="#m58e0511296" x="212.049417" y="159.25352" style="fill: #ff0000; stroke: #ff0000"/>
     <use xlink:href="#m58e0511296" x="209.353389" y="157.106956" style="fill: #ff0000; stroke: #ff0000"/>
     <use xlink:href="#m58e0511296" x="206.803096" y="154.900217" style="fill: #ff0000; stroke: #ff0000"/>
     <use xlink:href="#m58e0511296" x="204.401788" y="152.437231" style="fill: #ff0000; stroke: #ff0000"/>
     <use xlink:href="#m58e0511296" x="202.048807" y="149.583994" style="fill: #ff0000; stroke: #ff0000"/>
     <use xlink:href="#m58e0511296" x="199.563519" y="146.323622" style="fill: #ff0000; stroke: #ff0000"/>
     <use xlink:href="#m58e0511296" x="196.734526" y="142.792938" style="fill: #ff0000; stroke: #ff0000"/>
     <use xlink:href="#m58e0511296" x="193.386261" y="139.280824" style="fill: #ff0000; stroke: #ff0000"/>
     <use xlink:href="#m58e0511296" x="189.443631" y="136.173209" style="fill: #ff0000; stroke: #ff0000"/>
     <use xlink:href="#m58e0511296" x="184.966555" y="133.852666" style="fill: #ff0000; stroke: #ff0000"/>
     <use xlink:href="#m58e0511296" x="180.134235" y="132.589627" style="fill: #ff0000; stroke: #ff0000"/>
     <use xlink:href="#m58e0511296" x="175.184015" y="132.473596" style="fill: #ff0000; stroke: #ff0000"/>
     <use xlink:href="#m58e0511296" x="170.335294" y="133.41483" style="fill: #ff0000; stroke: #ff0000"/>
     <use xlink:href="#m58e0511296" x="165.736309" y="135.210056" style="fill: #ff0000; stroke: #ff0000"/>
     <use xlink:href="#m58e0511296" x="161.455455" y="137.634062" style="fill: #ff0000; stroke: #ff0000"/>
     <use xlink:href="#m58e0511296" x="157.511141" y="140.51162" style="fill: #ff0000; stroke: #ff0000"/>
     <use xlink:href="#m58e0511296" x="153.913671" y="143.742523" style="fill: #ff0000; stroke: #ff0000"/>
     <use xlink:href="#m58e0511296" x="150.691262" y="147.282292" style="fill: #ff0000; stroke: #ff0000"/>
     <use xlink:href="#m58e0511296" x="147.888068" y="151.103246" style="fill: #ff0000; stroke: #ff0000"/>
     <use xlink:href="#m58e0511296" x="145.543291" y="155.164619" style="fill: #ff0000; stroke: #ff0000"/>
     <use xlink:href="#m58e0511296" x="143.672781" y="159.406873" style="fill: #ff0000; stroke: #ff0000"/>
     <use xlink:href="#m58e0511296" x="142.269993" y="163.76506" style="fill: #ff0000; stroke: #ff0000"/>
     <use xlink:href="#m58e0511296" x="141.324676" y="168.183246" style="fill: #ff0000; stroke: #ff0000"/>
     <use xlink:href="#m58e0511296" x="140.8404" y="172.615844" style="fill: #ff0000; stroke: #ff0000"/>
     <use xlink:href="#m58e0511296" x="140.83188" y="177.017613" style="fill: #ff0000; stroke: #ff0000"/>
     <use xlink:href="#m58e0511296" x="141.301463" y="181.336455" style="fill: #ff0000; stroke: #ff0000"/>
     <use xlink:href="#m58e0511296" x="142.214394" y="185.520009" style="fill: #ff0000; stroke: #ff0000"/>
     <use xlink:href="#m58e0511296" x="143.495354" y="189.532369" style="fill: #ff0000; stroke: #ff0000"/>
     <use xlink:href="#m58e0511296" x="145.051548" y="193.366423" style="fill: #ff0000; stroke: #ff0000"/>
     <use xlink:href="#m58e0511296" x="146.807035" y="197.04067" style="fill: #ff0000; stroke: #ff0000"/>
     <use xlink:href="#m58e0511296" x="148.727049" y="200.581904" style="fill: #ff0000; stroke: #ff0000"/>
     <use xlink:href="#m58e0511296" x="150.821724" y="204.004109" style="fill: #ff0000; stroke: #ff0000"/>
     <use xlink:href="#m58e0511296" x="153.132305" y="207.293596" style="fill: #ff0000; stroke: #ff0000"/>
     <use xlink:href="#m58e0511296" x="155.708175" y="210.406072" style="fill: #ff0000; stroke: #ff0000"/>
     <use xlink:href="#m58e0511296" x="158.581424" y="213.279409" style="fill: #ff0000; stroke: #ff0000"/>
     <use xlink:href="#m58e0511296" x="161.746329" y="215.863776" style="fill: #ff0000; stroke: #ff0000"/>
     <use xlink:href="#m58e0511296" x="165.155134" y="218.16189" style="fill: #ff0000; stroke: #ff0000"/>
     <use xlink:href="#m58e0511296" x="168.740108" y="220.257827" style="fill: #ff0000; stroke: #ff0000"/>
     <use xlink:href="#m58e0511296" x="172.457626" y="222.306826" style="fill: #ff0000; stroke: #ff0000"/>
     <use xlink:href="#m58e0511296" x="176.330425" y="224.473103" style="fill: #ff0000; stroke: #ff0000"/>
     <use xlink:href="#m58e0511296" x="180.45635" y="226.8339" style="fill: #ff0000; stroke: #ff0000"/>
     <use xlink:href="#m58e0511296" x="184.966555" y="229.295335" style="fill: #ff0000; stroke: #ff0000"/>
     <use xlink:href="#m58e0511296" x="189.946115" y="231.568592" style="fill: #ff0000; stroke: #ff0000"/>
     <use xlink:href="#m58e0511296" x="195.355598" y="233.228738" style="fill: #ff0000; stroke: #ff0000"/>
     <use xlink:href="#m58e0511296" x="200.996075" y="233.837783" style="fill: #ff0000; stroke: #ff0000"/>
     <use xlink:href="#m58e0511296" x="206.539317" y="233.081701" style="fill: #ff0000; stroke: #ff0000"/>
     <use xlink:href="#m58e0511296" x="211.612474" y="230.865843" style="fill: #ff0000; stroke: #ff0000"/>
     <use xlink:href="#m58e0511296" x="215.901178" y="227.3347" style="fill: #ff0000; stroke: #ff0000"/>
     <use xlink:href="#m58e0511296" x="219.229131" y="222.816175" style="fill: #ff0000; stroke: #ff0000"/>
     <use xlink:href="#m58e0511296" x="221.586084" y="217.719729" style="fill: #ff0000; stroke: #ff0000"/>
     <use xlink:href="#m58e0511296" x="223.101015" y="212.430686" style="fill: #ff0000; stroke: #ff0000"/>
     <use xlink:href="#m58e0511296" x="223.980508" y="207.236562" style="fill: #ff0000; stroke: #ff0000"/>
     <use xlink:href="#m58e0511296" x="224.442296" y="202.300547" style="fill: #ff0000; stroke: #ff0000"/>
     <use xlink:href="#m58e0511296" x="224.666261" y="197.67452" style="fill: #ff0000; stroke: #ff0000"/>
     <use xlink:href="#m58e0511296" x="224.768635" y="193.332388" style="fill: #ff0000; stroke: #ff0000"/>
     <use xlink:href="#m58e0511296" x="224.793815" y="189.207479" style="fill: #ff0000; stroke: #ff0000"/>
     <use xlink:href="#m58e0511296" x="224.718274" y="185.226398" style="fill: #ff0000; stroke: #ff0000"/>
    </g>
   </g>
   <g id="matplotlib.axis_1">
    <g id="xtick_1">
     <g id="line2d_1">
      <defs>
       <path id="m96784d4b4a" d="M 0 0 
L 0 3.5 
" style="stroke: #000000; stroke-width: 0.8"/>
      </defs>
      <g>
       <use xlink:href="#m96784d4b4a" x="45" y="320.4" style="stroke: #000000; stroke-width: 0.8"/>
      </g>
     </g>
     <g id="text_1">
      <!-- −3 -->
      <g transform="translate(37.628906 334.998438)scale(0.1 -0.1)">
       <defs>
        <path id="DejaVuSans-2212" d="M 678 2272 
L 4684 2272 
L 4684 1741 
L 678 1741 
L 678 2272 
z
" transform="scale(0.015625)"/>
        <path id="DejaVuSans-33" d="M 2597 2516 
Q 3050 2419 3304 2112 
Q 3559 1806 3559 1356 
Q 3559 666 3084 287 
Q 2609 -91 1734 -91 
Q 1441 -91 1130 -33 
Q 819 25 488 141 
L 488 750 
Q 750 597 1062 519 
Q 1375 441 1716 441 
Q 2309 441 2620 675 
Q 2931 909 2931 1356 
Q 2931 1769 2642 2001 
Q 2353 2234 1838 2234 
L 1294 2234 
L 1294 2753 
L 1863 2753 
Q 2328 2753 2575 2939 
Q 2822 3125 2822 3475 
Q 2822 3834 2567 4026 
Q 2313 4219 1838 4219 
Q 1578 4219 1281 4162 
Q 984 4106 628 3988 
L 628 4550 
Q 988 4650 1302 4700 
Q 1616 4750 1894 4750 
Q 2613 4750 3031 4423 
Q 3450 4097 3450 3541 
Q 3450 3153 3228 2886 
Q 3006 2619 2597 2516 
z
" transform="scale(0.015625)"/>
       </defs>
       <use xlink:href="#DejaVuSans-2212"/>
       <use xlink:href="#DejaVuSans-33" x="83.789062"/>
      </g>
     </g>
    </g>
    <g id="xtick_2">
     <g id="line2d_2">
      <g>
       <use xlink:href="#m96784d4b4a" x="91.655518" y="320.4" style="stroke: #000000; stroke-width: 0.8"/>
      </g>
     </g>
     <g id="text_2">
      <!-- −2 -->
      <g transform="translate(84.284425 334.998438)scale(0.1 -0.1)">
       <defs>
        <path id="DejaVuSans-32" d="M 1228 531 
L 3431 531 
L 3431 0 
L 469 0 
L 469 531 
Q 828 903 1448 1529 
Q 2069 2156 2228 2338 
Q 2531 2678 2651 2914 
Q 2772 3150 2772 3378 
Q 2772 3750 2511 3984 
Q 2250 4219 1831 4219 
Q 1534 4219 1204 4116 
Q 875 4013 500 3803 
L 500 4441 
Q 881 4594 1212 4672 
Q 1544 4750 1819 4750 
Q 2544 4750 2975 4387 
Q 3406 4025 3406 3419 
Q 3406 3131 3298 2873 
Q 3191 2616 2906 2266 
Q 2828 2175 2409 1742 
Q 1991 1309 1228 531 
z
" transform="scale(0.015625)"/>
       </defs>
       <use xlink:href="#DejaVuSans-2212"/>
       <use xlink:href="#DejaVuSans-32" x="83.789062"/>
      </g>
     </g>
    </g>
    <g id="xtick_3">
     <g id="line2d_3">
      <g>
       <use xlink:href="#m96784d4b4a" x="138.311037" y="320.4" style="stroke: #000000; stroke-width: 0.8"/>
      </g>
     </g>
     <g id="text_3">
      <!-- −1 -->
      <g transform="translate(130.939943 334.998438)scale(0.1 -0.1)">
       <defs>
        <path id="DejaVuSans-31" d="M 794 531 
L 1825 531 
L 1825 4091 
L 703 3866 
L 703 4441 
L 1819 4666 
L 2450 4666 
L 2450 531 
L 3481 531 
L 3481 0 
L 794 0 
L 794 531 
z
" transform="scale(0.015625)"/>
       </defs>
       <use xlink:href="#DejaVuSans-2212"/>
       <use xlink:href="#DejaVuSans-31" x="83.789062"/>
      </g>
     </g>
    </g>
    <g id="xtick_4">
     <g id="line2d_4">
      <g>
       <use xlink:href="#m96784d4b4a" x="184.966555" y="320.4" style="stroke: #000000; stroke-width: 0.8"/>
      </g>
     </g>
     <g id="text_4">
      <!-- 0 -->
      <g transform="translate(181.785305 334.998438)scale(0.1 -0.1)">
       <defs>
        <path id="DejaVuSans-30" d="M 2034 4250 
Q 1547 4250 1301 3770 
Q 1056 3291 1056 2328 
Q 1056 1369 1301 889 
Q 1547 409 2034 409 
Q 2525 409 2770 889 
Q 3016 1369 3016 2328 
Q 3016 3291 2770 3770 
Q 2525 4250 2034 4250 
z
M 2034 4750 
Q 2819 4750 3233 4129 
Q 3647 3509 3647 2328 
Q 3647 1150 3233 529 
Q 2819 -91 2034 -91 
Q 1250 -91 836 529 
Q 422 1150 422 2328 
Q 422 3509 836 4129 
Q 1250 4750 2034 4750 
z
" transform="scale(0.015625)"/>
       </defs>
       <use xlink:href="#DejaVuSans-30"/>
      </g>
     </g>
    </g>
    <g id="xtick_5">
     <g id="line2d_5">
      <g>
       <use xlink:href="#m96784d4b4a" x="231.622074" y="320.4" style="stroke: #000000; stroke-width: 0.8"/>
      </g>
     </g>
     <g id="text_5">
      <!-- 1 -->
      <g transform="translate(228.440824 334.998438)scale(0.1 -0.1)">
       <use xlink:href="#DejaVuSans-31"/>
      </g>
     </g>
    </g>
    <g id="xtick_6">
     <g id="line2d_6">
      <g>
       <use xlink:href="#m96784d4b4a" x="278.277592" y="320.4" style="stroke: #000000; stroke-width: 0.8"/>
      </g>
     </g>
     <g id="text_6">
      <!-- 2 -->
      <g transform="translate(275.096342 334.998438)scale(0.1 -0.1)">
       <use xlink:href="#DejaVuSans-32"/>
      </g>
     </g>
    </g>
   </g>
   <g id="matplotlib.axis_2">
    <g id="ytick_1">
     <g id="line2d_7">
      <defs>
       <path id="mb7942034d6" d="M 0 0 
L -3.5 0 
" style="stroke: #000000; stroke-width: 0.8"/>
      </defs>
      <g>
       <use xlink:href="#mb7942034d6" x="45" y="320.4" style="stroke: #000000; stroke-width: 0.8"/>
      </g>
     </g>
     <g id="text_7">
      <!-- −3 -->
      <g transform="translate(23.257812 324.199219)scale(0.1 -0.1)">
       <use xlink:href="#DejaVuSans-2212"/>
       <use xlink:href="#DejaVuSans-33" x="83.789062"/>
      </g>
     </g>
    </g>
    <g id="ytick_2">
     <g id="line2d_8">
      <g>
       <use xlink:href="#mb7942034d6" x="45" y="274.045485" style="stroke: #000000; stroke-width: 0.8"/>
      </g>
     </g>
     <g id="text_8">
      <!-- −2 -->
      <g transform="translate(23.257812 277.844704)scale(0.1 -0.1)">
       <use xlink:href="#DejaVuSans-2212"/>
       <use xlink:href="#DejaVuSans-32" x="83.789062"/>
      </g>
     </g>
    </g>
    <g id="ytick_3">
     <g id="line2d_9">
      <g>
       <use xlink:href="#mb7942034d6" x="45" y="227.69097" style="stroke: #000000; stroke-width: 0.8"/>
      </g>
     </g>
     <g id="text_9">
      <!-- −1 -->
      <g transform="translate(23.257812 231.490189)scale(0.1 -0.1)">
       <use xlink:href="#DejaVuSans-2212"/>
       <use xlink:href="#DejaVuSans-31" x="83.789062"/>
      </g>
     </g>
    </g>
    <g id="ytick_4">
     <g id="line2d_10">
      <g>
       <use xlink:href="#mb7942034d6" x="45" y="181.336455" style="stroke: #000000; stroke-width: 0.8"/>
      </g>
     </g>
     <g id="text_10">
      <!-- 0 -->
      <g transform="translate(31.6375 185.135674)scale(0.1 -0.1)">
       <use xlink:href="#DejaVuSans-30"/>
      </g>
     </g>
    </g>
    <g id="ytick_5">
     <g id="line2d_11">
      <g>
       <use xlink:href="#mb7942034d6" x="45" y="134.98194" style="stroke: #000000; stroke-width: 0.8"/>
      </g>
     </g>
     <g id="text_11">
      <!-- 1 -->
      <g transform="translate(31.6375 138.781159)scale(0.1 -0.1)">
       <use xlink:href="#DejaVuSans-31"/>
      </g>
     </g>
    </g>
    <g id="ytick_6">
     <g id="line2d_12">
      <g>
       <use xlink:href="#mb7942034d6" x="45" y="88.627425" style="stroke: #000000; stroke-width: 0.8"/>
      </g>
     </g>
     <g id="text_12">
      <!-- 2 -->
      <g transform="translate(31.6375 92.426643)scale(0.1 -0.1)">
       <use xlink:href="#DejaVuSans-32"/>
      </g>
     </g>
    </g>
   </g>
   <g id="PathCollection_2">
    <path d="M 194.297659 208.521031 
L 193.582408 208.222074 
L 193.364548 208.130998 
L 192.431438 207.74092 
L 191.498328 207.352263 
L 191.402364 207.294983 
L 190.565217 206.808641 
L 189.786693 206.367893 
L 189.632107 206.27927 
L 188.698997 205.567282 
L 188.553645 205.440803 
L 187.765886 204.750162 
L 187.493857 204.513712 
L 186.832776 203.912887 
L 186.454015 203.586622 
L 185.899666 203.092174 
L 185.362065 202.659532 
L 184.966555 202.3413 
L 184.210016 201.732441 
L 184.033445 201.589219 
L 183.133623 200.805351 
L 183.100334 200.774946 
L 182.167224 200.027457 
L 181.96282 199.878261 
L 181.234114 199.373715 
L 180.570761 198.951171 
L 180.301003 198.780718 
L 179.367893 198.203285 
L 179.163584 198.02408 
L 178.434783 197.409827 
L 178.050338 197.09699 
L 177.501672 196.734762 
L 176.66107 196.1699 
L 176.568562 196.109356 
L 175.635452 195.509054 
L 175.319334 195.242809 
L 174.702341 194.690432 
L 174.329423 194.315719 
L 173.769231 193.606347 
L 173.597447 193.388629 
L 172.864841 192.461538 
L 172.83612 192.424493 
L 172.134344 191.534448 
L 171.90301 191.22968 
L 171.43969 190.607358 
L 170.9699 189.966227 
L 170.768893 189.680268 
L 170.11722 188.753177 
L 170.036789 188.642571 
L 169.3768 187.826087 
L 169.103679 187.467851 
L 168.732286 186.898997 
L 168.170569 186.02323 
L 168.137398 185.971906 
L 167.458118 185.044816 
L 167.237458 184.785325 
L 166.672787 184.117726 
L 166.304348 183.482563 
L 166.135007 183.190635 
L 165.729569 182.263545 
L 165.387708 181.336455 
L 165.371237 181.293437 
L 165.008486 180.409365 
L 164.634876 179.482274 
L 164.529821 178.555184 
L 164.438127 177.83288 
L 164.414097 177.628094 
L 164.359195 176.701003 
L 164.368578 175.773913 
L 164.400697 174.846823 
L 164.438127 174.747649 
L 164.766443 173.919732 
L 165.167014 172.992642 
L 165.371237 172.531195 
L 165.574218 172.065552 
L 166.040294 171.138462 
L 166.304348 170.566323 
L 166.446764 170.211371 
L 166.859947 169.284281 
L 167.237458 168.483874 
L 167.296825 168.357191 
L 167.739727 167.4301 
L 168.170569 166.550465 
L 168.192699 166.50301 
L 168.520934 165.57592 
L 168.795427 164.648829 
L 169.103679 163.850755 
L 169.168633 163.721739 
L 169.744023 162.794649 
L 170.036789 162.323918 
L 170.333468 161.867559 
L 170.937379 160.940468 
L 170.9699 160.890162 
L 171.574551 160.013378 
L 171.90301 159.574191 
L 172.447429 159.086288 
L 172.83612 158.757412 
L 173.769231 158.665172 
L 174.702341 158.638114 
L 175.635452 158.694192 
L 176.568562 158.861308 
L 177.501672 158.921711 
L 178.434783 158.93099 
L 179.367893 159.007122 
L 179.91672 159.086288 
L 180.301003 159.156985 
L 181.234114 159.681422 
L 181.594433 160.013378 
L 182.167224 160.593134 
L 182.414041 160.940468 
L 182.894711 161.867559 
L 183.100334 162.348696 
L 183.307613 162.794649 
L 183.75334 163.721739 
L 184.033445 164.2993 
L 184.179206 164.648829 
L 184.547155 165.57592 
L 184.966555 166.500144 
L 184.967855 166.50301 
L 185.350204 167.4301 
L 185.899666 168.07392 
L 186.19111 168.357191 
L 186.832776 168.870827 
L 187.404827 169.284281 
L 187.765886 169.542017 
L 188.613705 170.211371 
L 188.698997 170.281231 
L 189.632107 171.046906 
L 189.731683 171.138462 
L 190.565217 171.841209 
L 190.77032 172.065552 
L 191.498328 172.86185 
L 191.619912 172.992642 
L 192.431438 173.881794 
L 192.468491 173.919732 
L 193.364548 174.843393 
L 193.367898 174.846823 
L 194.273176 175.773913 
L 194.297659 175.798985 
L 195.178463 176.701003 
L 195.230769 176.755304 
L 196.077729 177.628094 
L 196.16388 177.717654 
L 196.96999 178.555184 
L 197.09699 178.759519 
L 197.507575 179.482274 
L 197.66755 180.409365 
L 197.825699 181.336455 
L 198.006085 182.263545 
L 198.0301 182.338815 
L 198.301879 183.190635 
L 198.615734 184.117726 
L 198.934953 185.044816 
L 198.963211 185.123128 
L 199.26334 185.971906 
L 199.682001 186.898997 
L 199.896321 187.350569 
L 200.109509 187.826087 
L 200.530029 188.753177 
L 200.829431 189.406644 
L 200.960972 189.680268 
L 201.36568 190.607358 
L 201.740907 191.534448 
L 201.762542 191.626792 
L 201.998561 192.461538 
L 202.023251 193.388629 
L 202.047985 194.315719 
L 202.08108 195.242809 
L 202.148268 196.1699 
L 202.217988 197.09699 
L 202.240318 198.02408 
L 202.120073 198.951171 
L 202.089409 199.878261 
L 202.039476 200.805351 
L 201.986219 201.732441 
L 201.83334 202.659532 
L 201.762542 202.947795 
L 201.540986 203.586622 
L 200.961047 204.513712 
L 200.829431 204.677795 
L 200.100251 205.440803 
L 199.896321 205.630418 
L 199.108646 206.367893 
L 198.963211 206.503131 
L 198.0301 207.081278 
L 197.67192 207.294983 
L 197.09699 207.638012 
L 196.16388 208.194507 
L 196.115028 208.222074 
L 195.230769 208.630071 
L 194.297659 208.521031 
z
" clip-path="url(#pf2b2f8bd36)" style="fill: none; stroke-dasharray: 5.55,2.4; stroke-dashoffset: 0; stroke: #000000; stroke-width: 1.5"/>
   </g>
   <g id="PathCollection_3">
    <path d="M 193.364548 233.378387 
L 193.034569 233.253512 
L 192.431438 232.994057 
L 191.498328 232.633997 
L 190.78143 232.326421 
L 190.565217 232.213195 
L 189.632107 231.892777 
L 188.698997 231.463405 
L 188.445444 231.399331 
L 187.765886 231.137834 
L 186.832776 230.788262 
L 186.023683 230.472241 
L 185.899666 230.410023 
L 184.966555 230.06253 
L 184.162744 229.545151 
L 184.033445 229.451912 
L 183.100334 228.894897 
L 182.65389 228.61806 
L 182.167224 228.328289 
L 181.234114 227.754682 
L 181.140151 227.69097 
L 180.301003 227.195394 
L 179.61611 226.76388 
L 179.367893 226.615791 
L 178.434783 226.134508 
L 177.957616 225.836789 
L 177.501672 225.609053 
L 176.568562 225.068466 
L 176.300828 224.909699 
L 175.635452 224.580255 
L 174.757381 223.982609 
L 174.702341 223.948923 
L 173.769231 223.33488 
L 173.319996 223.055518 
L 172.83612 222.794154 
L 171.90301 222.166003 
L 171.846844 222.128428 
L 170.9699 221.531843 
L 170.471471 221.201338 
L 170.036789 220.908291 
L 169.103679 220.309857 
L 169.044771 220.274247 
L 168.170569 219.762176 
L 167.385028 219.347157 
L 167.237458 219.268609 
L 166.304348 218.776418 
L 165.733755 218.420067 
L 165.371237 218.184555 
L 164.472608 217.492977 
L 164.438127 217.465476 
L 163.505017 216.734481 
L 163.293094 216.565886 
L 162.571906 215.938913 
L 162.239924 215.638796 
L 161.638796 215.082492 
L 161.256809 214.711706 
L 160.705686 214.111364 
L 160.42318 213.784615 
L 159.772575 213.023244 
L 159.631403 212.857525 
L 158.885229 211.930435 
L 158.839465 211.867698 
L 158.048227 211.003344 
L 157.906355 210.887307 
L 156.973244 210.263857 
L 156.739042 210.076254 
L 156.040134 209.312974 
L 155.90604 209.149164 
L 155.174089 208.222074 
L 155.107023 208.138292 
L 154.423323 207.294983 
L 154.173913 206.987354 
L 153.679668 206.367893 
L 153.240803 205.837375 
L 152.921616 205.440803 
L 152.307692 204.678034 
L 152.178381 204.513712 
L 151.661611 203.586622 
L 151.374582 203.110483 
L 151.080077 202.659532 
L 150.480171 201.732441 
L 150.441472 201.670089 
L 149.835865 200.805351 
L 149.508361 200.200994 
L 149.301148 199.878261 
L 148.671507 198.951171 
L 148.575251 198.802275 
L 148.014109 198.02408 
L 147.64214 197.308855 
L 147.504457 197.09699 
L 146.866356 196.1699 
L 146.70903 195.880265 
L 146.281283 195.242809 
L 145.834567 194.315719 
L 145.77592 194.229804 
L 145.221255 193.388629 
L 144.842809 192.465674 
L 144.84052 192.461538 
L 144.208478 191.534448 
L 143.909699 190.884855 
L 143.752338 190.607358 
L 143.349013 189.680268 
L 143.099488 188.753177 
L 142.976589 188.388237 
L 142.772992 187.826087 
L 142.535719 186.898997 
L 142.36554 185.971906 
L 142.271087 185.044816 
L 142.217097 184.117726 
L 142.228678 183.190635 
L 142.043478 182.452056 
L 141.987022 182.263545 
L 141.718322 181.336455 
L 141.52581 180.409365 
L 141.397324 179.482274 
L 141.167651 178.555184 
L 141.110368 178.396208 
L 140.890611 177.628094 
L 140.626333 176.701003 
L 140.453148 175.773913 
L 140.399803 174.846823 
L 140.51428 173.919732 
L 140.623487 172.992642 
L 140.772921 172.065552 
L 141.02023 171.138462 
L 141.110368 170.670343 
L 141.254076 170.211371 
L 141.3544 169.284281 
L 141.35757 168.357191 
L 141.516175 167.4301 
L 141.68491 166.50301 
L 141.91154 165.57592 
L 142.043478 165.181825 
L 142.224656 164.648829 
L 142.493654 163.721739 
L 142.772977 162.794649 
L 142.976589 162.071973 
L 143.046102 161.867559 
L 143.253589 160.940468 
L 143.608578 160.013378 
L 143.909699 159.548916 
L 144.181893 159.086288 
L 144.688705 158.159197 
L 144.842809 157.931801 
L 145.243003 157.232107 
L 145.77592 156.332494 
L 145.799156 156.305017 
L 146.230677 155.377926 
L 146.70903 154.505621 
L 146.74893 154.450836 
L 147.059004 153.523746 
L 147.340548 152.596656 
L 147.64214 152.06468 
L 147.856134 151.669565 
L 148.483366 150.742475 
L 148.575251 150.624131 
L 149.109734 149.815385 
L 149.508361 149.295747 
L 149.779694 148.888294 
L 150.364448 147.961204 
L 150.441472 147.857099 
L 150.946554 147.034114 
L 151.374582 146.436832 
L 151.599409 146.107023 
L 152.260498 145.179933 
L 152.307692 145.121908 
L 152.931936 144.252843 
L 153.240803 143.884188 
L 153.664881 143.325753 
L 154.173913 142.694134 
L 154.429479 142.398662 
L 155.107023 141.72674 
L 155.444158 141.471572 
L 156.040134 141.064039 
L 156.834525 140.544482 
L 156.973244 140.439803 
L 157.906355 139.84956 
L 158.262426 139.617391 
L 158.839465 139.246246 
L 159.680187 138.690301 
L 159.772575 138.62136 
L 160.705686 137.992961 
L 161.098732 137.763211 
L 161.638796 137.446328 
L 162.571906 136.929789 
L 162.714636 136.83612 
L 163.505017 136.382654 
L 164.330541 135.90903 
L 164.438127 135.839162 
L 165.371237 135.307315 
L 165.898593 134.98194 
L 166.304348 134.728918 
L 167.237458 134.32135 
L 167.925403 134.054849 
L 168.170569 133.946571 
L 169.103679 133.576014 
L 170.036789 133.211613 
L 170.196951 133.127759 
L 170.9699 132.806617 
L 171.90301 132.446286 
L 172.543179 132.200669 
L 172.83612 132.082747 
L 173.769231 131.840018 
L 174.702341 131.791399 
L 175.635452 131.74493 
L 176.568562 131.737295 
L 177.501672 131.78489 
L 178.434783 131.906299 
L 179.367893 132.040235 
L 180.301003 132.195045 
L 180.32536 132.200669 
L 181.234114 132.425513 
L 182.167224 132.657749 
L 183.100334 132.872748 
L 183.977718 133.127759 
L 184.033445 133.150387 
L 184.966555 133.460584 
L 185.899666 133.758755 
L 186.531795 134.054849 
L 186.832776 134.209244 
L 187.765886 134.732087 
L 188.061946 134.98194 
L 188.698997 135.497237 
L 189.214598 135.90903 
L 189.632107 136.245943 
L 190.372931 136.83612 
L 190.565217 136.990912 
L 191.498328 137.728298 
L 191.538818 137.763211 
L 192.431438 138.466507 
L 192.704307 138.690301 
L 193.364548 139.214771 
L 193.871392 139.617391 
L 194.297659 139.956001 
L 195.085008 140.544482 
L 195.230769 140.662304 
L 196.123505 141.471572 
L 196.16388 141.509258 
L 197.09699 142.346029 
L 197.150108 142.398662 
L 197.864806 143.325753 
L 198.0301 143.562373 
L 198.502587 144.252843 
L 198.963211 144.752172 
L 199.341224 145.179933 
L 199.896321 145.846122 
L 200.126763 146.107023 
L 200.829431 146.89989 
L 200.956542 147.034114 
L 201.762542 147.926055 
L 201.796205 147.961204 
L 202.650144 148.888294 
L 202.695652 148.93334 
L 203.498059 149.815385 
L 203.628763 149.956674 
L 204.355039 150.742475 
L 204.561873 150.945416 
L 205.339462 151.669565 
L 205.494983 151.813726 
L 206.395038 152.596656 
L 206.428094 152.629839 
L 207.287486 153.523746 
L 207.361204 153.596503 
L 208.146579 154.450836 
L 208.294314 154.597226 
L 209.047918 155.377926 
L 209.227425 155.556157 
L 209.94955 156.305017 
L 210.160535 156.520554 
L 210.847108 157.232107 
L 211.093645 157.487613 
L 211.74165 158.159197 
L 212.026756 158.454677 
L 212.6362 159.086288 
L 212.959866 159.421724 
L 213.530747 160.013378 
L 213.892977 160.393603 
L 214.40842 160.940468 
L 214.826087 161.412106 
L 215.247443 161.867559 
L 215.759197 162.628359 
L 215.876102 162.794649 
L 216.394046 163.721739 
L 216.692308 164.224812 
L 216.978479 164.648829 
L 217.453705 165.57592 
L 217.625418 165.809435 
L 218.068551 166.50301 
L 218.558528 167.379353 
L 218.593094 167.4301 
L 219.129777 168.357191 
L 219.491639 168.955499 
L 219.719614 169.284281 
L 220.241728 170.211371 
L 220.424749 170.453204 
L 220.897102 171.138462 
L 221.35786 171.855283 
L 221.509869 172.065552 
L 222.069304 172.992642 
L 222.29097 173.382745 
L 222.596725 173.919732 
L 223.074915 174.846823 
L 223.22408 175.068752 
L 223.61063 175.773913 
L 223.931021 176.701003 
L 224.065345 177.628094 
L 224.103628 178.555184 
L 224.121949 179.482274 
L 224.141587 180.409365 
L 224.157191 181.106936 
L 224.161042 181.336455 
L 224.196489 182.263545 
L 224.254553 183.190635 
L 224.330949 184.117726 
L 224.388196 185.044816 
L 224.441367 185.971906 
L 224.490723 186.898997 
L 224.55219 187.826087 
L 224.59627 188.753177 
L 224.642826 189.680268 
L 224.651692 190.607358 
L 224.692965 191.534448 
L 224.738002 192.461538 
L 224.778861 193.388629 
L 224.815828 194.315719 
L 224.853605 195.242809 
L 224.936096 196.1699 
L 225.086188 197.09699 
L 225.090301 197.109393 
L 225.310329 198.02408 
L 225.123085 198.951171 
L 225.090301 199.093378 
L 224.940441 199.878261 
L 224.839049 200.805351 
L 224.748561 201.732441 
L 224.585393 202.659532 
L 224.239285 203.586622 
L 224.157191 203.823912 
L 223.978745 204.513712 
L 223.903716 205.440803 
L 223.829326 206.367893 
L 223.733044 207.294983 
L 223.633907 208.222074 
L 223.520045 209.149164 
L 223.385395 210.076254 
L 223.22408 210.840611 
L 223.1837 211.003344 
L 223.032533 211.930435 
L 222.92187 212.857525 
L 222.782269 213.784615 
L 222.651112 214.711706 
L 222.413278 215.638796 
L 222.29097 215.983253 
L 222.107623 216.565886 
L 221.828547 217.492977 
L 221.491373 218.420067 
L 221.35786 218.689096 
L 221.036391 219.347157 
L 220.56924 220.274247 
L 220.424749 220.525635 
L 220.059139 221.201338 
L 219.547815 222.128428 
L 219.491639 222.228544 
L 219.050652 223.055518 
L 218.558528 223.840776 
L 218.45087 223.982609 
L 217.625418 224.791085 
L 217.500544 224.909699 
L 216.692308 225.681709 
L 216.526527 225.836789 
L 215.759197 226.553696 
L 215.534532 226.76388 
L 214.826087 227.424143 
L 214.540937 227.69097 
L 213.892977 228.251942 
L 213.43148 228.61806 
L 212.959866 228.994245 
L 212.207163 229.545151 
L 212.026756 229.674831 
L 211.093645 230.327061 
L 210.914139 230.472241 
L 210.160535 231.086685 
L 209.764475 231.399331 
L 209.227425 231.772437 
L 208.294314 232.066992 
L 207.538269 232.326421 
L 207.361204 232.374481 
L 206.428094 232.738493 
L 205.494983 232.988945 
L 204.561873 233.076623 
L 203.628763 233.237923 
L 203.562783 233.253512 
L 202.695652 233.376309 
L 201.762542 233.556167 
L 200.829431 233.694122 
L 199.896321 233.82117 
L 198.963211 233.912093 
L 198.0301 234.018084 
L 197.09699 233.987171 
L 196.16388 233.872217 
L 195.230769 233.770885 
L 194.297659 233.648631 
L 193.364548 233.378387 
z
" clip-path="url(#pf2b2f8bd36)" style="fill: none; stroke: #000000; stroke-width: 1.5"/>
   </g>
   <g id="PathCollection_4">
    <path d="M 196.16388 256.548419 
L 195.269093 256.430769 
L 195.230769 256.425795 
L 194.297659 256.252175 
L 193.364548 256.046019 
L 192.431438 255.8395 
L 191.498328 255.633021 
L 190.850348 255.503679 
L 190.565217 255.447759 
L 189.632107 255.237039 
L 188.698997 254.923386 
L 187.765886 254.609733 
L 187.664617 254.576589 
L 186.832776 254.303217 
L 185.899666 254.032042 
L 184.966555 253.772891 
L 184.517124 253.649498 
L 184.033445 253.516688 
L 183.100334 253.260481 
L 182.167224 253.004282 
L 181.234114 252.748066 
L 181.140664 252.722408 
L 180.301003 252.488661 
L 179.367893 252.202636 
L 178.434783 251.903644 
L 178.096668 251.795318 
L 177.501672 251.604691 
L 176.568562 251.286817 
L 175.635452 250.919496 
L 175.509323 250.868227 
L 174.702341 250.515884 
L 173.769231 250.01578 
L 173.624215 249.941137 
L 172.83612 249.528521 
L 171.919356 249.014047 
L 171.90301 249.004621 
L 170.9699 248.458921 
L 170.356015 248.086957 
L 170.036789 247.89661 
L 169.103679 247.3226 
L 168.833564 247.159866 
L 168.170569 246.760678 
L 167.290786 246.232776 
L 167.237458 246.200777 
L 166.304348 245.640881 
L 165.749417 245.305686 
L 165.371237 245.078173 
L 164.438127 244.50439 
L 164.247041 244.378595 
L 163.505017 243.885953 
L 162.802212 243.451505 
L 162.571906 243.309136 
L 161.638796 242.732294 
L 161.266384 242.524415 
L 160.705686 242.221364 
L 159.772575 241.75224 
L 159.464433 241.597324 
L 158.839465 241.282869 
L 157.906355 240.80669 
L 157.641847 240.670234 
L 156.973244 240.312539 
L 156.040134 239.807023 
L 155.925436 239.743144 
L 155.107023 239.259534 
L 154.476276 238.816054 
L 154.173913 238.603457 
L 153.240803 237.947386 
L 153.157719 237.888963 
L 152.307692 237.291282 
L 151.839613 236.961873 
L 151.374582 236.634817 
L 150.52215 236.034783 
L 150.441472 235.978026 
L 149.508361 235.316184 
L 149.249108 235.107692 
L 148.575251 234.54886 
L 148.144546 234.180602 
L 147.64214 233.750457 
L 147.028423 233.253512 
L 146.70903 232.998145 
L 145.799904 232.326421 
L 145.77592 232.308206 
L 144.842809 231.519949 
L 144.696623 231.399331 
L 143.909699 230.751131 
L 143.571129 230.472241 
L 142.976589 229.982492 
L 142.439043 229.545151 
L 142.043478 229.226188 
L 141.284408 228.61806 
L 141.110368 228.478862 
L 140.177258 227.731056 
L 140.127221 227.69097 
L 139.244147 226.987277 
L 138.968332 226.76388 
L 138.311037 226.182603 
L 137.958263 225.836789 
L 137.377926 225.123068 
L 137.220812 224.909699 
L 136.496281 223.982609 
L 136.444816 223.916682 
L 135.773492 223.055518 
L 135.511706 222.719694 
L 135.042589 222.128428 
L 134.578595 221.537486 
L 134.316925 221.201338 
L 133.645485 220.325793 
L 133.605955 220.274247 
L 132.894982 219.347157 
L 132.712375 219.109037 
L 132.184015 218.420067 
L 131.779264 217.892286 
L 131.473042 217.492977 
L 130.846154 216.675512 
L 130.762085 216.565886 
L 130.051102 215.638796 
L 129.913043 215.458772 
L 129.340131 214.711706 
L 128.979933 214.07524 
L 128.834102 213.784615 
L 128.466978 212.857525 
L 128.09983 211.930435 
L 128.046823 211.796579 
L 127.732706 211.003344 
L 127.36557 210.076254 
L 127.113712 209.407005 
L 127.018758 209.149164 
L 126.67734 208.222074 
L 126.302535 207.294983 
L 126.180602 207.034406 
L 125.884194 206.367893 
L 125.390738 205.440803 
L 125.247492 205.16916 
L 124.903642 204.513712 
L 124.426498 203.586622 
L 124.314381 203.368773 
L 123.949375 202.659532 
L 123.472236 201.732441 
L 123.381271 201.555687 
L 122.995111 200.805351 
L 122.517977 199.878261 
L 122.448161 199.688691 
L 122.192946 198.951171 
L 121.895253 198.02408 
L 121.597559 197.09699 
L 121.51505 196.845966 
L 121.287973 196.1699 
L 120.953677 195.242809 
L 120.608676 194.315719 
L 120.58194 194.245557 
L 120.25306 193.388629 
L 119.83228 192.461538 
L 119.648829 192.058768 
L 119.410748 191.534448 
L 119.092783 190.607358 
L 118.840751 189.680268 
L 118.715719 189.184928 
L 118.607589 188.753177 
L 118.374067 187.826087 
L 118.13873 186.898997 
L 117.904725 185.971906 
L 117.782609 185.418757 
L 117.702727 185.044816 
L 117.68946 184.117726 
L 117.69074 183.190635 
L 117.692331 182.263545 
L 117.705764 181.336455 
L 117.614992 180.409365 
L 117.391176 179.482274 
L 117.36038 178.555184 
L 117.352624 177.628094 
L 117.33823 176.701003 
L 117.317366 175.773913 
L 117.295501 174.846823 
L 117.273892 173.919732 
L 117.252276 172.992642 
L 117.23068 172.065552 
L 117.209079 171.138462 
L 117.313989 170.211371 
L 117.549339 169.284281 
L 117.782609 168.393442 
L 117.792373 168.357191 
L 118.049223 167.4301 
L 118.302436 166.50301 
L 118.554559 165.57592 
L 118.715719 164.978529 
L 118.805433 164.648829 
L 119.05354 163.721739 
L 119.292549 162.794649 
L 119.52369 161.867559 
L 119.648829 161.172483 
L 119.689141 160.940468 
L 119.866839 160.013378 
L 120.044538 159.086288 
L 120.223543 158.159197 
L 120.401267 157.232107 
L 120.58194 156.333378 
L 120.58778 156.305017 
L 120.785917 155.377926 
L 120.994168 154.450836 
L 121.20927 153.523746 
L 121.423624 152.596656 
L 121.51505 152.315291 
L 121.757736 151.669565 
L 122.342588 150.742475 
L 122.448161 150.557381 
L 122.840798 149.815385 
L 123.277906 148.888294 
L 123.381271 148.668455 
L 123.716387 147.961204 
L 124.152051 147.034114 
L 124.314381 146.690798 
L 124.592539 146.107023 
L 125.029121 145.179933 
L 125.247492 144.718941 
L 125.469256 144.252843 
L 125.907454 143.325753 
L 126.180602 142.74911 
L 126.346603 142.398662 
L 126.785781 141.471572 
L 127.113712 140.766 
L 127.225061 140.544482 
L 127.806231 139.617391 
L 128.046823 139.226952 
L 128.378889 138.690301 
L 128.979933 137.853366 
L 129.048992 137.763211 
L 129.74108 136.83612 
L 129.913043 136.597623 
L 130.405707 135.90903 
L 130.846154 135.287248 
L 131.059746 134.98194 
L 131.699279 134.054849 
L 131.779264 133.938897 
L 132.338793 133.127759 
L 132.712375 132.586197 
L 132.977882 132.200669 
L 133.644319 131.273579 
L 133.645485 131.272171 
L 134.434015 130.346488 
L 134.578595 130.17676 
L 135.223741 129.419398 
L 135.511706 129.08135 
L 136.013484 128.492308 
L 136.444816 127.985951 
L 136.798039 127.565217 
L 137.377926 126.856679 
L 137.554964 126.638127 
L 138.306737 125.711037 
L 138.311037 125.70604 
L 139.165208 124.783946 
L 139.244147 124.707856 
L 140.175813 123.856856 
L 140.177258 123.855593 
L 141.110368 123.117371 
L 141.347777 122.929766 
L 142.043478 122.380013 
L 142.543506 122.002676 
L 142.976589 121.686802 
L 143.838812 121.075585 
L 143.909699 121.025334 
L 144.842809 120.363869 
L 145.146634 120.148495 
L 145.77592 119.70241 
L 146.454433 119.221405 
L 146.70903 119.039263 
L 147.64214 118.377384 
L 147.771281 118.294314 
L 148.575251 117.780704 
L 149.253606 117.367224 
L 149.508361 117.209727 
L 150.441472 116.603017 
L 150.685954 116.440134 
L 151.374582 115.980627 
L 152.079501 115.513043 
L 152.307692 115.369581 
L 153.240803 115.016104 
L 154.173913 114.755525 
L 154.77242 114.585953 
L 155.107023 114.489743 
L 156.040134 114.217271 
L 156.973244 113.799921 
L 157.281536 113.658863 
L 157.906355 113.374105 
L 158.839465 112.98598 
L 159.48001 112.731773 
L 159.772575 112.614682 
L 160.705686 112.241201 
L 161.638796 111.866258 
L 161.789701 111.804682 
L 162.571906 111.483864 
L 163.505017 111.098625 
L 164.035318 110.877592 
L 164.438127 110.709722 
L 165.371237 110.317516 
L 166.244426 109.950502 
L 166.304348 109.925315 
L 167.237458 109.533108 
L 168.170569 109.164676 
L 168.575273 109.023411 
L 169.103679 108.840059 
L 170.036789 108.587677 
L 170.9699 108.375281 
L 171.90301 108.143165 
L 172.091314 108.096321 
L 172.83612 107.911039 
L 173.769231 107.678913 
L 174.702341 107.58203 
L 175.635452 107.799084 
L 176.568562 108.038034 
L 176.796168 108.096321 
L 177.501672 108.276997 
L 178.434783 108.453068 
L 179.367893 108.599317 
L 180.301003 108.74557 
L 181.234114 108.893967 
L 182.073954 109.023411 
L 182.167224 109.038028 
L 183.100334 109.19406 
L 184.033445 109.348359 
L 184.966555 109.501903 
L 185.899666 109.657833 
L 186.832776 109.813764 
L 187.565416 109.950502 
L 187.765886 109.988259 
L 188.698997 110.241501 
L 189.632107 110.504836 
L 190.565217 110.768177 
L 190.952936 110.877592 
L 191.498328 111.031327 
L 192.431438 111.445241 
L 193.176799 111.804682 
L 193.364548 111.895224 
L 194.297659 112.359439 
L 195.018005 112.731773 
L 195.230769 112.843884 
L 196.16388 113.337062 
L 196.769282 113.658863 
L 197.09699 113.831783 
L 198.0301 114.33106 
L 198.507707 114.585953 
L 198.963211 114.835054 
L 199.896321 115.492179 
L 199.926474 115.513043 
L 200.829431 116.133299 
L 201.311227 116.440134 
L 201.762542 116.730901 
L 202.695652 117.301278 
L 202.797577 117.367224 
L 203.628763 117.911659 
L 204.191005 118.294314 
L 204.561873 118.562303 
L 205.468753 119.221405 
L 205.494983 119.239654 
L 206.428094 119.823897 
L 206.930566 120.148495 
L 207.361204 120.43091 
L 208.294314 121.048228 
L 208.333335 121.075585 
L 209.227425 121.73997 
L 209.548361 122.002676 
L 210.160535 122.516719 
L 210.597173 122.929766 
L 211.093645 123.414672 
L 211.544334 123.856856 
L 212.026756 124.330177 
L 212.489245 124.783946 
L 212.959866 125.245687 
L 213.43417 125.711037 
L 213.892977 126.161189 
L 214.379096 126.638127 
L 214.826087 127.076678 
L 215.32402 127.565217 
L 215.759197 127.992183 
L 216.306803 128.492308 
L 216.692308 128.820087 
L 217.383735 129.419398 
L 217.625418 129.623341 
L 218.456351 130.346488 
L 218.558528 130.432354 
L 219.491639 131.161432 
L 219.646881 131.273579 
L 220.424749 131.83846 
L 220.803869 132.200669 
L 221.35786 132.987684 
L 221.456241 133.127759 
L 222.094352 134.054849 
L 222.29097 134.348301 
L 222.71553 134.98194 
L 223.22408 135.740866 
L 223.336919 135.90903 
L 223.959012 136.83612 
L 224.157191 137.131465 
L 224.581105 137.763211 
L 225.090301 138.47725 
L 225.247579 138.690301 
L 225.954506 139.617391 
L 226.023411 139.706292 
L 226.70372 140.544482 
L 226.956522 140.823944 
L 227.550959 141.471572 
L 227.889632 141.840558 
L 228.40189 142.398662 
L 228.822742 142.857177 
L 229.25283 143.325753 
L 229.755853 143.832611 
L 230.182342 144.252843 
L 230.688963 144.745083 
L 231.136517 145.179933 
L 231.622074 145.651708 
L 232.090691 146.107023 
L 232.555184 146.558337 
L 233.044859 147.034114 
L 233.488294 147.464957 
L 233.999039 147.961204 
L 234.421405 148.422057 
L 234.798371 148.888294 
L 235.354515 149.64121 
L 235.486068 149.815385 
L 236.165021 150.742475 
L 236.287625 150.909992 
L 236.826046 151.669565 
L 237.220736 152.242814 
L 237.464364 152.596656 
L 238.095269 153.523746 
L 238.153846 153.610846 
L 238.719421 154.450836 
L 239.086957 155.011542 
L 239.328561 155.377926 
L 239.87264 156.305017 
L 240.020067 156.563544 
L 240.396045 157.232107 
L 240.867792 158.159197 
L 240.953177 158.332957 
L 241.324418 159.086288 
L 241.783022 160.013378 
L 241.886288 160.225021 
L 242.225356 160.940468 
L 242.590134 161.867559 
L 242.819398 162.490469 
L 242.932707 162.794649 
L 243.266792 163.721739 
L 243.600862 164.648829 
L 243.752508 165.079579 
L 243.928213 165.57592 
L 244.262953 166.50301 
L 244.600257 167.4301 
L 244.685619 167.677147 
L 244.917041 168.357191 
L 245.286439 169.284281 
L 245.618729 170.118229 
L 245.655842 170.211371 
L 245.949742 171.138462 
L 246.26004 172.065552 
L 246.551839 172.912895 
L 246.579364 172.992642 
L 246.887375 173.919732 
L 247.195261 174.846823 
L 247.396699 175.773913 
L 247.454071 176.701003 
L 247.48495 177.199986 
L 247.511444 177.628094 
L 247.568819 178.555184 
L 247.626204 179.482274 
L 247.683592 180.409365 
L 247.741033 181.336455 
L 247.771542 182.263545 
L 247.793186 183.190635 
L 247.824023 184.117726 
L 247.911491 185.044816 
L 248.007214 185.971906 
L 248.101769 186.898997 
L 248.15816 187.826087 
L 248.144034 188.753177 
L 248.12013 189.680268 
L 248.105397 190.607358 
L 248.135982 191.534448 
L 248.162696 192.461538 
L 248.193789 193.388629 
L 248.224878 194.315719 
L 248.272985 195.242809 
L 248.413861 196.1699 
L 248.41806 196.201816 
L 248.53277 197.09699 
L 248.637149 198.02408 
L 248.682337 198.951171 
L 248.727533 199.878261 
L 248.772712 200.805351 
L 248.81791 201.732441 
L 248.861485 202.659532 
L 248.895491 203.586622 
L 248.838614 204.513712 
L 248.631696 205.440803 
L 248.424783 206.367893 
L 248.41806 206.398011 
L 248.217857 207.294983 
L 248.020353 208.222074 
L 247.847957 209.149164 
L 247.675587 210.076254 
L 247.503197 211.003344 
L 247.48495 211.099824 
L 247.322627 211.930435 
L 247.118828 212.857525 
L 246.915041 213.784615 
L 246.711256 214.711706 
L 246.551839 215.406864 
L 246.499101 215.638796 
L 246.267036 216.565886 
L 246.001669 217.492977 
L 245.694403 218.420067 
L 245.618729 218.636063 
L 245.368896 219.347157 
L 245.086449 220.274247 
L 244.88744 221.201338 
L 244.685773 222.128428 
L 244.685619 222.128951 
L 244.414606 223.055518 
L 244.134206 223.982609 
L 243.853621 224.909699 
L 243.752508 225.139114 
L 243.430309 225.836789 
L 243.034646 226.76388 
L 242.819398 227.25111 
L 242.613031 227.69097 
L 242.179036 228.61806 
L 241.886288 229.240473 
L 241.739936 229.545151 
L 241.291649 230.472241 
L 240.953177 231.169807 
L 240.837196 231.399331 
L 240.351396 232.326421 
L 240.020067 232.9719 
L 239.872886 233.253512 
L 239.341832 234.180602 
L 239.086957 234.580313 
L 238.748075 235.107692 
L 238.163274 236.034783 
L 238.153846 236.050075 
L 237.597969 236.961873 
L 237.220736 237.527603 
L 236.97052 237.888963 
L 236.301623 238.816054 
L 236.287625 238.835455 
L 235.632742 239.743144 
L 235.354515 240.128766 
L 234.963856 240.670234 
L 234.421405 241.422104 
L 234.288219 241.597324 
L 233.507187 242.524415 
L 233.488294 242.543387 
L 232.555184 243.328027 
L 232.404983 243.451505 
L 231.622074 244.061093 
L 231.187025 244.378595 
L 230.688963 244.737053 
L 229.898831 245.305686 
L 229.755853 245.408587 
L 228.822742 246.080157 
L 228.61068 246.232776 
L 227.889632 246.751715 
L 227.322535 247.159866 
L 226.956522 247.426068 
L 226.123821 248.086957 
L 226.023411 248.170655 
L 225.090301 248.948477 
L 225.01164 249.014047 
L 224.157191 249.726317 
L 223.899481 249.941137 
L 223.22408 250.504125 
L 222.787289 250.868227 
L 222.29097 251.277606 
L 221.563776 251.795318 
L 221.35786 251.915847 
L 220.424749 252.290889 
L 219.491639 252.665933 
L 219.348588 252.722408 
L 218.558528 253.034576 
L 217.625418 253.38837 
L 216.936792 253.649498 
L 216.692308 253.742205 
L 215.759197 254.09602 
L 214.826087 254.449838 
L 214.491814 254.576589 
L 213.892977 254.803658 
L 212.959866 255.157013 
L 212.043899 255.503679 
L 212.026756 255.510167 
L 211.093645 255.863313 
L 210.160535 256.086449 
L 209.227425 256.28178 
L 208.329787 256.430769 
L 208.294314 256.436542 
L 207.361204 256.58841 
L 206.428094 256.724962 
L 205.494983 256.855332 
L 204.561873 256.971021 
L 203.628763 256.914733 
L 202.695652 256.846263 
L 201.762542 256.814814 
L 200.829431 256.783365 
L 199.896321 256.751914 
L 198.963211 256.720475 
L 198.0301 256.689032 
L 197.09699 256.626744 
L 196.16388 256.548419 
z
" clip-path="url(#pf2b2f8bd36)" style="fill: none; stroke: #000000; stroke-width: 1.5"/>
   </g>
   <g id="patch_3">
    <path d="M 45 320.4 
L 45 43.2 
" style="fill: none; stroke: #000000; stroke-width: 0.8; stroke-linejoin: miter; stroke-linecap: square"/>
   </g>
   <g id="patch_4">
    <path d="M 324 320.4 
L 324 43.2 
" style="fill: none; stroke: #000000; stroke-width: 0.8; stroke-linejoin: miter; stroke-linecap: square"/>
   </g>
   <g id="patch_5">
    <path d="M 45 320.4 
L 324 320.4 
" style="fill: none; stroke: #000000; stroke-width: 0.8; stroke-linejoin: miter; stroke-linecap: square"/>
   </g>
   <g id="patch_6">
    <path d="M 45 43.2 
L 324 43.2 
" style="fill: none; stroke: #000000; stroke-width: 0.8; stroke-linejoin: miter; stroke-linecap: square"/>
   </g>
  </g>
 </g>
 <defs>
  <clipPath id="pf2b2f8bd36">
   <rect x="45" y="43.2" width="279" height="277.2"/>
  </clipPath>
 </defs>
</svg>
