<?xml version="1.0" encoding="utf-8" standalone="no"?>
<!DOCTYPE svg PUBLIC "-//W3C//DTD SVG 1.1//EN"
  "http://www.w3.org/Graphics/SVG/1.1/DTD/svg11.dtd">
<svg xmlns:xlink="http://www.w3.org/1999/xlink" width="360pt" height="360pt" viewBox="0 0 360 360" xmlns="http://www.w3.org/2000/svg" version="1.1">
 <metadata>
  <rdf:RDF xmlns:dc="http://purl.org/dc/elements/1.1/" xmlns:cc="http://creativecommons.org/ns#" xmlns:rdf="http://www.w3.org/1999/02/22-rdf-syntax-ns#">
   <cc:Work>
    <dc:type rdf:resource="http://purl.org/dc/dcmitype/StillImage"/>
    <dc:date>2022-04-03T22:41:42.807478</dc:date>
    <dc:format>image/svg+xml</dc:format>
    <dc:creator>
     <cc:Agent>
      <dc:title>Matplotlib v3.5.1, https://matplotlib.org/</dc:title>
     </cc:Agent>
    </dc:creator>
   </cc:Work>
  </rdf:RDF>
 </metadata>
 <defs>
  <style type="text/css">*{stroke-linejoin: round; stroke-linecap: butt}</style>
 </defs>
 <g id="figure_1">
  <g id="patch_1">
   <path d="M 0 360 
L 360 360 
L 360 0 
L 0 0 
z
" style="fill: #ffffff"/>
  </g>
  <g id="axes_1">
   <g id="patch_2">
    <path d="M 45 320.4 
L 324 320.4 
L 324 43.2 
L 45 43.2 
z
" style="fill: #ffffff"/>
   </g>
   <g id="PathCollection_1">
    <defs>
     <path id="m3637c0dda3" d="M 0 0.5 
C 0.132602 0.5 0.25979 0.447317 0.353553 0.353553 
C 0.447317 0.25979 0.5 0.132602 0.5 0 
C 0.5 -0.132602 0.447317 -0.25979 0.353553 -0.353553 
C 0.25979 -0.447317 0.132602 -0.5 0 -0.5 
C -0.132602 -0.5 -0.25979 -0.447317 -0.353553 -0.353553 
C -0.447317 -0.25979 -0.5 -0.132602 -0.5 0 
C -0.5 0.132602 -0.447317 0.25979 -0.353553 0.353553 
C -0.25979 0.447317 -0.132602 0.5 0 0.5 
z
" style="stroke: #ff0000"/>
    </defs>
    <g clip-path="url(#pda4c5a8201)">
     <use xlink:href="#m3637c0dda3" x="225.276218" y="181.568614" style="fill: #ff0000; stroke: #ff0000"/>
     <use xlink:href="#m3637c0dda3" x="222.400278" y="177.882635" style="fill: #ff0000; stroke: #ff0000"/>
     <use xlink:href="#m3637c0dda3" x="219.741395" y="174.649916" style="fill: #ff0000; stroke: #ff0000"/>
     <use xlink:href="#m3637c0dda3" x="217.452815" y="171.707168" style="fill: #ff0000; stroke: #ff0000"/>
     <use xlink:href="#m3637c0dda3" x="215.607688" y="168.862362" style="fill: #ff0000; stroke: #ff0000"/>
     <use xlink:href="#m3637c0dda3" x="214.196057" y="165.921825" style="fill: #ff0000; stroke: #ff0000"/>
     <use xlink:href="#m3637c0dda3" x="213.121243" y="162.7225" style="fill: #ff0000; stroke: #ff0000"/>
     <use xlink:href="#m3637c0dda3" x="212.207965" y="159.165874" style="fill: #ff0000; stroke: #ff0000"/>
     <use xlink:href="#m3637c0dda3" x="211.229949" y="155.242503" style="fill: #ff0000; stroke: #ff0000"/>
     <use xlink:href="#m3637c0dda3" x="209.952719" y="151.036422" style="fill: #ff0000; stroke: #ff0000"/>
     <use xlink:href="#m3637c0dda3" x="208.17821" y="146.706587" style="fill: #ff0000; stroke: #ff0000"/>
     <use xlink:href="#m3637c0dda3" x="205.777228" y="142.451431" style="fill: #ff0000; stroke: #ff0000"/>
     <use xlink:href="#m3637c0dda3" x="202.701463" y="138.468508" style="fill: #ff0000; stroke: #ff0000"/>
     <use xlink:href="#m3637c0dda3" x="198.974478" y="134.923276" style="fill: #ff0000; stroke: #ff0000"/>
     <use xlink:href="#m3637c0dda3" x="194.668827" y="131.939543" style="fill: #ff0000; stroke: #ff0000"/>
     <use xlink:href="#m3637c0dda3" x="189.883023" y="129.615777" style="fill: #ff0000; stroke: #ff0000"/>
     <use xlink:href="#m3637c0dda3" x="184.732888" y="128.055978" style="fill: #ff0000; stroke: #ff0000"/>
     <use xlink:href="#m3637c0dda3" x="179.362051" y="127.389405" style="fill: #ff0000; stroke: #ff0000"/>
     <use xlink:href="#m3637c0dda3" x="173.959061" y="127.754373" style="fill: #ff0000; stroke: #ff0000"/>
     <use xlink:href="#m3637c0dda3" x="168.757294" y="129.24391" style="fill: #ff0000; stroke: #ff0000"/>
     <use xlink:href="#m3637c0dda3" x="164.001692" y="131.841981" style="fill: #ff0000; stroke: #ff0000"/>
     <use xlink:href="#m3637c0dda3" x="159.89112" y="135.392777" style="fill: #ff0000; stroke: #ff0000"/>
     <use xlink:href="#m3637c0dda3" x="156.526775" y="139.627528" style="fill: #ff0000; stroke: #ff0000"/>
     <use xlink:href="#m3637c0dda3" x="153.896105" y="144.236303" style="fill: #ff0000; stroke: #ff0000"/>
     <use xlink:href="#m3637c0dda3" x="151.898853" y="148.946412" style="fill: #ff0000; stroke: #ff0000"/>
     <use xlink:href="#m3637c0dda3" x="150.396917" y="153.57161" style="fill: #ff0000; stroke: #ff0000"/>
     <use xlink:href="#m3637c0dda3" x="149.260134" y="158.019395" style="fill: #ff0000; stroke: #ff0000"/>
     <use xlink:href="#m3637c0dda3" x="148.387479" y="162.266924" style="fill: #ff0000; stroke: #ff0000"/>
     <use xlink:href="#m3637c0dda3" x="147.699097" y="166.327683" style="fill: #ff0000; stroke: #ff0000"/>
     <use xlink:href="#m3637c0dda3" x="147.111699" y="170.229979" style="fill: #ff0000; stroke: #ff0000"/>
     <use xlink:href="#m3637c0dda3" x="146.521995" y="174.017031" style="fill: #ff0000; stroke: #ff0000"/>
     <use xlink:href="#m3637c0dda3" x="145.821492" y="177.760902" style="fill: #ff0000; stroke: #ff0000"/>
     <use xlink:href="#m3637c0dda3" x="144.946548" y="181.568614" style="fill: #ff0000; stroke: #ff0000"/>
     <use xlink:href="#m3637c0dda3" x="143.939586" y="185.560483" style="fill: #ff0000; stroke: #ff0000"/>
     <use xlink:href="#m3637c0dda3" x="142.980756" y="189.820049" style="fill: #ff0000; stroke: #ff0000"/>
     <use xlink:href="#m3637c0dda3" x="142.359065" y="194.339644" style="fill: #ff0000; stroke: #ff0000"/>
     <use xlink:href="#m3637c0dda3" x="142.383736" y="198.997036" style="fill: #ff0000; stroke: #ff0000"/>
     <use xlink:href="#m3637c0dda3" x="143.271584" y="203.587166" style="fill: #ff0000; stroke: #ff0000"/>
     <use xlink:href="#m3637c0dda3" x="145.064032" y="207.903491" style="fill: #ff0000; stroke: #ff0000"/>
     <use xlink:href="#m3637c0dda3" x="147.616937" y="211.83237" style="fill: #ff0000; stroke: #ff0000"/>
     <use xlink:href="#m3637c0dda3" x="150.671511" y="215.410241" style="fill: #ff0000; stroke: #ff0000"/>
     <use xlink:href="#m3637c0dda3" x="153.972903" y="218.80795" style="fill: #ff0000; stroke: #ff0000"/>
     <use xlink:href="#m3637c0dda3" x="157.378632" y="222.243033" style="fill: #ff0000; stroke: #ff0000"/>
     <use xlink:href="#m3637c0dda3" x="160.906005" y="225.857984" style="fill: #ff0000; stroke: #ff0000"/>
     <use xlink:href="#m3637c0dda3" x="164.700234" y="229.6197" style="fill: #ff0000; stroke: #ff0000"/>
     <use xlink:href="#m3637c0dda3" x="168.94264" y="233.286257" style="fill: #ff0000; stroke: #ff0000"/>
     <use xlink:href="#m3637c0dda3" x="173.743366" y="236.460233" style="fill: #ff0000; stroke: #ff0000"/>
     <use xlink:href="#m3637c0dda3" x="179.068012" y="238.713993" style="fill: #ff0000; stroke: #ff0000"/>
     <use xlink:href="#m3637c0dda3" x="184.732888" y="239.740756" style="fill: #ff0000; stroke: #ff0000"/>
     <use xlink:href="#m3637c0dda3" x="190.472453" y="239.467424" style="fill: #ff0000; stroke: #ff0000"/>
     <use xlink:href="#m3637c0dda3" x="196.045724" y="238.075154" style="fill: #ff0000; stroke: #ff0000"/>
     <use xlink:href="#m3637c0dda3" x="201.325583" y="235.914503" style="fill: #ff0000; stroke: #ff0000"/>
     <use xlink:href="#m3637c0dda3" x="206.322805" y="233.355009" style="fill: #ff0000; stroke: #ff0000"/>
     <use xlink:href="#m3637c0dda3" x="211.133482" y="230.641994" style="fill: #ff0000; stroke: #ff0000"/>
     <use xlink:href="#m3637c0dda3" x="215.841096" y="227.824972" style="fill: #ff0000; stroke: #ff0000"/>
     <use xlink:href="#m3637c0dda3" x="220.425918" y="224.780103" style="fill: #ff0000; stroke: #ff0000"/>
     <use xlink:href="#m3637c0dda3" x="224.724798" y="221.302512" style="fill: #ff0000; stroke: #ff0000"/>
     <use xlink:href="#m3637c0dda3" x="228.455851" y="217.219622" style="fill: #ff0000; stroke: #ff0000"/>
     <use xlink:href="#m3637c0dda3" x="231.294684" y="212.479492" style="fill: #ff0000; stroke: #ff0000"/>
     <use xlink:href="#m3637c0dda3" x="232.972528" y="207.186886" style="fill: #ff0000; stroke: #ff0000"/>
     <use xlink:href="#m3637c0dda3" x="233.361663" y="201.581359" style="fill: #ff0000; stroke: #ff0000"/>
     <use xlink:href="#m3637c0dda3" x="232.51801" y="195.970554" style="fill: #ff0000; stroke: #ff0000"/>
     <use xlink:href="#m3637c0dda3" x="230.66596" y="190.646324" style="fill: #ff0000; stroke: #ff0000"/>
     <use xlink:href="#m3637c0dda3" x="228.134644" y="185.815735" style="fill: #ff0000; stroke: #ff0000"/>
    </g>
   </g>
   <g id="matplotlib.axis_1">
    <g id="xtick_1">
     <g id="line2d_1">
      <defs>
       <path id="mceb6d7229a" d="M 0 0 
L 0 3.5 
" style="stroke: #000000; stroke-width: 0.8"/>
      </defs>
      <g>
       <use xlink:href="#mceb6d7229a" x="45" y="320.4" style="stroke: #000000; stroke-width: 0.8"/>
      </g>
     </g>
     <g id="text_1">
      <!-- −3 -->
      <g transform="translate(37.628906 334.998438)scale(0.1 -0.1)">
       <defs>
        <path id="DejaVuSans-2212" d="M 678 2272 
L 4684 2272 
L 4684 1741 
L 678 1741 
L 678 2272 
z
" transform="scale(0.015625)"/>
        <path id="DejaVuSans-33" d="M 2597 2516 
Q 3050 2419 3304 2112 
Q 3559 1806 3559 1356 
Q 3559 666 3084 287 
Q 2609 -91 1734 -91 
Q 1441 -91 1130 -33 
Q 819 25 488 141 
L 488 750 
Q 750 597 1062 519 
Q 1375 441 1716 441 
Q 2309 441 2620 675 
Q 2931 909 2931 1356 
Q 2931 1769 2642 2001 
Q 2353 2234 1838 2234 
L 1294 2234 
L 1294 2753 
L 1863 2753 
Q 2328 2753 2575 2939 
Q 2822 3125 2822 3475 
Q 2822 3834 2567 4026 
Q 2313 4219 1838 4219 
Q 1578 4219 1281 4162 
Q 984 4106 628 3988 
L 628 4550 
Q 988 4650 1302 4700 
Q 1616 4750 1894 4750 
Q 2613 4750 3031 4423 
Q 3450 4097 3450 3541 
Q 3450 3153 3228 2886 
Q 3006 2619 2597 2516 
z
" transform="scale(0.015625)"/>
       </defs>
       <use xlink:href="#DejaVuSans-2212"/>
       <use xlink:href="#DejaVuSans-33" x="83.789062"/>
      </g>
     </g>
    </g>
    <g id="xtick_2">
     <g id="line2d_2">
      <g>
       <use xlink:href="#mceb6d7229a" x="91.577629" y="320.4" style="stroke: #000000; stroke-width: 0.8"/>
      </g>
     </g>
     <g id="text_2">
      <!-- −2 -->
      <g transform="translate(84.206536 334.998438)scale(0.1 -0.1)">
       <defs>
        <path id="DejaVuSans-32" d="M 1228 531 
L 3431 531 
L 3431 0 
L 469 0 
L 469 531 
Q 828 903 1448 1529 
Q 2069 2156 2228 2338 
Q 2531 2678 2651 2914 
Q 2772 3150 2772 3378 
Q 2772 3750 2511 3984 
Q 2250 4219 1831 4219 
Q 1534 4219 1204 4116 
Q 875 4013 500 3803 
L 500 4441 
Q 881 4594 1212 4672 
Q 1544 4750 1819 4750 
Q 2544 4750 2975 4387 
Q 3406 4025 3406 3419 
Q 3406 3131 3298 2873 
Q 3191 2616 2906 2266 
Q 2828 2175 2409 1742 
Q 1991 1309 1228 531 
z
" transform="scale(0.015625)"/>
       </defs>
       <use xlink:href="#DejaVuSans-2212"/>
       <use xlink:href="#DejaVuSans-32" x="83.789062"/>
      </g>
     </g>
    </g>
    <g id="xtick_3">
     <g id="line2d_3">
      <g>
       <use xlink:href="#mceb6d7229a" x="138.155259" y="320.4" style="stroke: #000000; stroke-width: 0.8"/>
      </g>
     </g>
     <g id="text_3">
      <!-- −1 -->
      <g transform="translate(130.784165 334.998438)scale(0.1 -0.1)">
       <defs>
        <path id="DejaVuSans-31" d="M 794 531 
L 1825 531 
L 1825 4091 
L 703 3866 
L 703 4441 
L 1819 4666 
L 2450 4666 
L 2450 531 
L 3481 531 
L 3481 0 
L 794 0 
L 794 531 
z
" transform="scale(0.015625)"/>
       </defs>
       <use xlink:href="#DejaVuSans-2212"/>
       <use xlink:href="#DejaVuSans-31" x="83.789062"/>
      </g>
     </g>
    </g>
    <g id="xtick_4">
     <g id="line2d_4">
      <g>
       <use xlink:href="#mceb6d7229a" x="184.732888" y="320.4" style="stroke: #000000; stroke-width: 0.8"/>
      </g>
     </g>
     <g id="text_4">
      <!-- 0 -->
      <g transform="translate(181.551638 334.998438)scale(0.1 -0.1)">
       <defs>
        <path id="DejaVuSans-30" d="M 2034 4250 
Q 1547 4250 1301 3770 
Q 1056 3291 1056 2328 
Q 1056 1369 1301 889 
Q 1547 409 2034 409 
Q 2525 409 2770 889 
Q 3016 1369 3016 2328 
Q 3016 3291 2770 3770 
Q 2525 4250 2034 4250 
z
M 2034 4750 
Q 2819 4750 3233 4129 
Q 3647 3509 3647 2328 
Q 3647 1150 3233 529 
Q 2819 -91 2034 -91 
Q 1250 -91 836 529 
Q 422 1150 422 2328 
Q 422 3509 836 4129 
Q 1250 4750 2034 4750 
z
" transform="scale(0.015625)"/>
       </defs>
       <use xlink:href="#DejaVuSans-30"/>
      </g>
     </g>
    </g>
    <g id="xtick_5">
     <g id="line2d_5">
      <g>
       <use xlink:href="#mceb6d7229a" x="231.310518" y="320.4" style="stroke: #000000; stroke-width: 0.8"/>
      </g>
     </g>
     <g id="text_5">
      <!-- 1 -->
      <g transform="translate(228.129268 334.998438)scale(0.1 -0.1)">
       <use xlink:href="#DejaVuSans-31"/>
      </g>
     </g>
    </g>
    <g id="xtick_6">
     <g id="line2d_6">
      <g>
       <use xlink:href="#mceb6d7229a" x="277.888147" y="320.4" style="stroke: #000000; stroke-width: 0.8"/>
      </g>
     </g>
     <g id="text_6">
      <!-- 2 -->
      <g transform="translate(274.706897 334.998438)scale(0.1 -0.1)">
       <use xlink:href="#DejaVuSans-32"/>
      </g>
     </g>
    </g>
   </g>
   <g id="matplotlib.axis_2">
    <g id="ytick_1">
     <g id="line2d_7">
      <defs>
       <path id="m4ceb7e3b7a" d="M 0 0 
L -3.5 0 
" style="stroke: #000000; stroke-width: 0.8"/>
      </defs>
      <g>
       <use xlink:href="#m4ceb7e3b7a" x="45" y="320.4" style="stroke: #000000; stroke-width: 0.8"/>
      </g>
     </g>
     <g id="text_7">
      <!-- −3 -->
      <g transform="translate(23.257812 324.199219)scale(0.1 -0.1)">
       <use xlink:href="#DejaVuSans-2212"/>
       <use xlink:href="#DejaVuSans-33" x="83.789062"/>
      </g>
     </g>
    </g>
    <g id="ytick_2">
     <g id="line2d_8">
      <g>
       <use xlink:href="#m4ceb7e3b7a" x="45" y="274.122871" style="stroke: #000000; stroke-width: 0.8"/>
      </g>
     </g>
     <g id="text_8">
      <!-- −2 -->
      <g transform="translate(23.257812 277.92209)scale(0.1 -0.1)">
       <use xlink:href="#DejaVuSans-2212"/>
       <use xlink:href="#DejaVuSans-32" x="83.789062"/>
      </g>
     </g>
    </g>
    <g id="ytick_3">
     <g id="line2d_9">
      <g>
       <use xlink:href="#m4ceb7e3b7a" x="45" y="227.845743" style="stroke: #000000; stroke-width: 0.8"/>
      </g>
     </g>
     <g id="text_9">
      <!-- −1 -->
      <g transform="translate(23.257812 231.644962)scale(0.1 -0.1)">
       <use xlink:href="#DejaVuSans-2212"/>
       <use xlink:href="#DejaVuSans-31" x="83.789062"/>
      </g>
     </g>
    </g>
    <g id="ytick_4">
     <g id="line2d_10">
      <g>
       <use xlink:href="#m4ceb7e3b7a" x="45" y="181.568614" style="stroke: #000000; stroke-width: 0.8"/>
      </g>
     </g>
     <g id="text_10">
      <!-- 0 -->
      <g transform="translate(31.6375 185.367833)scale(0.1 -0.1)">
       <use xlink:href="#DejaVuSans-30"/>
      </g>
     </g>
    </g>
    <g id="ytick_5">
     <g id="line2d_11">
      <g>
       <use xlink:href="#m4ceb7e3b7a" x="45" y="135.291486" style="stroke: #000000; stroke-width: 0.8"/>
      </g>
     </g>
     <g id="text_11">
      <!-- 1 -->
      <g transform="translate(31.6375 139.090705)scale(0.1 -0.1)">
       <use xlink:href="#DejaVuSans-31"/>
      </g>
     </g>
    </g>
    <g id="ytick_6">
     <g id="line2d_12">
      <g>
       <use xlink:href="#m4ceb7e3b7a" x="45" y="89.014357" style="stroke: #000000; stroke-width: 0.8"/>
      </g>
     </g>
     <g id="text_12">
      <!-- 2 -->
      <g transform="translate(31.6375 92.813576)scale(0.1 -0.1)">
       <use xlink:href="#DejaVuSans-32"/>
      </g>
     </g>
    </g>
   </g>
   <g id="PathCollection_2">
    <path d="M 185.198664 215.95432 
L 184.96872 215.813689 
L 184.732888 215.669457 
L 184.267112 215.384596 
L 184.193345 215.350918 
L 183.801336 215.158832 
L 183.335559 214.922037 
L 183.278502 214.888147 
L 182.869783 214.639615 
L 182.501469 214.425376 
L 182.404007 214.368684 
L 181.93823 214.097755 
L 181.733015 213.962604 
L 181.472454 213.77782 
L 181.157127 213.499833 
L 181.006678 213.3672 
L 180.632195 213.037062 
L 180.540902 212.956579 
L 180.107259 212.57429 
L 180.075125 212.545962 
L 179.609349 212.135343 
L 179.580335 212.111519 
L 179.143573 211.774068 
L 178.984094 211.648748 
L 178.677796 211.372641 
L 178.470716 211.185977 
L 178.21202 210.955218 
L 177.945539 210.723205 
L 177.746244 210.550986 
L 177.410007 210.260434 
L 177.280467 210.148493 
L 176.874469 209.797663 
L 176.814691 209.746007 
L 176.348915 209.343514 
L 176.338937 209.334891 
L 175.883139 208.941023 
L 175.803401 208.87212 
L 175.417362 208.538535 
L 175.267863 208.409349 
L 174.951586 208.136043 
L 174.732333 207.946578 
L 174.48581 207.733549 
L 174.196798 207.483806 
L 174.020033 207.331059 
L 173.66127 207.021035 
L 173.554257 206.928561 
L 173.12573 206.558264 
L 173.088481 206.526076 
L 172.622705 206.123585 
L 172.590195 206.095492 
L 172.156928 205.721093 
L 172.054662 205.632721 
L 171.691152 205.258338 
L 171.623513 205.16995 
L 171.355286 204.707179 
L 171.225376 204.485808 
L 171.097382 204.244407 
L 170.852009 203.781636 
L 170.759599 203.607349 
L 170.608385 203.318865 
L 170.420315 202.856093 
L 170.293823 202.45106 
L 170.272256 202.393322 
L 170.087804 201.930551 
L 169.88 201.46778 
L 169.828047 201.360572 
L 169.599611 201.005008 
L 169.36227 200.635582 
L 169.3023 200.542237 
L 169.004983 200.079466 
L 168.896494 199.900883 
L 168.726247 199.616694 
L 168.502563 199.153923 
L 168.430718 199.005292 
L 168.278872 198.691152 
L 168.05518 198.228381 
L 167.964942 198.041693 
L 167.831495 197.765609 
L 167.607811 197.302838 
L 167.499165 197.078071 
L 167.398238 196.840067 
L 167.218325 196.377295 
L 167.057321 195.914524 
L 167.033389 195.841968 
L 166.904681 195.451753 
L 166.752034 194.988982 
L 166.668575 194.52621 
L 166.660528 194.063439 
L 166.652483 193.600668 
L 166.644444 193.137896 
L 166.636398 192.675125 
L 166.628353 192.212354 
L 166.620309 191.749583 
L 166.612263 191.286811 
L 166.604047 190.82404 
L 166.594804 190.361269 
L 166.586333 189.898497 
L 166.578543 189.435726 
L 166.587715 188.972955 
L 166.603544 188.510184 
L 166.620267 188.047412 
L 166.636995 187.584641 
L 166.653719 187.12187 
L 166.67044 186.659098 
L 166.691042 186.196327 
L 166.720622 185.733556 
L 166.771228 185.270785 
L 166.821832 184.808013 
L 166.872439 184.345242 
L 166.923044 183.882471 
L 166.97365 183.419699 
L 167.024256 182.956928 
L 167.033389 182.873413 
L 167.081317 182.494157 
L 167.357583 182.031386 
L 167.499165 181.82937 
L 167.681914 181.568614 
L 167.964942 181.118321 
L 167.973279 181.105843 
L 168.109412 180.643072 
L 168.301305 180.180301 
L 168.430718 179.971179 
L 168.572317 179.717529 
L 168.876265 179.254758 
L 168.896494 179.225398 
L 169.201991 178.791987 
L 169.36227 178.5698 
L 169.535821 178.329215 
L 169.828047 177.924125 
L 169.869658 177.866444 
L 170.202637 177.403673 
L 170.293823 177.276674 
L 170.534912 176.940902 
L 170.659969 176.47813 
L 170.700757 176.015359 
L 170.741542 175.552588 
L 170.759599 175.347711 
L 170.782329 175.089816 
L 170.823118 174.627045 
L 170.863897 174.164274 
L 170.904691 173.701503 
L 170.945474 173.238731 
L 170.963747 172.77596 
L 170.804321 172.313189 
L 170.759599 172.210602 
L 170.602578 171.850417 
L 170.464347 171.387646 
L 170.386182 170.924875 
L 170.308018 170.462104 
L 170.293823 170.333213 
L 170.261583 169.999332 
L 170.293823 169.782731 
L 170.330464 169.536561 
L 170.39933 169.07379 
L 170.468199 168.611018 
L 170.537067 168.148247 
L 170.675612 167.685476 
L 170.759599 167.47356 
L 170.850115 167.222705 
L 171.018301 166.759933 
L 171.188085 166.297162 
L 171.225376 166.1961 
L 171.327407 165.834391 
L 171.45769 165.371619 
L 171.601924 164.908848 
L 171.691152 164.649172 
L 171.760496 164.446077 
L 171.9185 163.983306 
L 172.076444 163.520534 
L 172.156928 163.284994 
L 172.234509 163.057763 
L 172.385078 162.594992 
L 172.515354 162.13222 
L 172.622705 161.868536 
L 172.710118 161.669449 
L 172.865812 161.206678 
L 173.009507 160.743907 
L 173.088481 160.489588 
L 173.153212 160.281135 
L 173.296912 159.818364 
L 173.440614 159.355593 
L 173.554257 158.989614 
L 173.584313 158.892821 
L 173.704415 158.43005 
L 173.77728 157.967279 
L 173.86335 157.504508 
L 173.97783 157.041736 
L 174.020033 156.824993 
L 174.060729 156.578965 
L 174.151463 156.116194 
L 174.356924 155.653422 
L 174.48581 155.431922 
L 174.574524 155.190651 
L 174.762297 154.72788 
L 174.950063 154.265109 
L 174.951586 154.261356 
L 175.137841 153.802337 
L 175.325608 153.339566 
L 175.417362 153.14716 
L 175.58471 152.876795 
L 175.883139 152.480208 
L 175.93294 152.414023 
L 176.281166 151.951252 
L 176.348915 151.861218 
L 176.619076 151.488481 
L 176.814691 151.206501 
L 176.93143 151.02571 
L 177.278935 150.562938 
L 177.280467 150.561512 
L 177.746244 150.346658 
L 178.21202 150.15466 
L 178.42151 150.100167 
L 178.677796 150.033502 
L 179.143573 149.943833 
L 179.434231 150.100167 
L 179.609349 150.194358 
L 180.075125 150.444903 
L 180.294577 150.562938 
L 180.540902 150.695428 
L 181.006678 150.945952 
L 181.154959 151.02571 
L 181.472454 151.196488 
L 181.93823 151.447022 
L 182.015309 151.488481 
L 182.404007 151.69756 
L 182.869783 151.948085 
L 182.874732 151.951252 
L 183.335559 152.300243 
L 183.417878 152.414023 
L 183.723503 152.876795 
L 183.801336 152.998732 
L 184.011947 153.339566 
L 184.267112 153.752498 
L 184.297909 153.802337 
L 184.583866 154.265109 
L 184.732888 154.506273 
L 184.876169 154.72788 
L 185.198664 155.100434 
L 185.306923 155.190651 
L 185.664441 155.488588 
L 185.862237 155.653422 
L 186.130217 155.876742 
L 186.417557 156.116194 
L 186.595993 156.26489 
L 186.972884 156.578965 
L 187.06177 156.653037 
L 187.477706 157.041736 
L 187.527546 157.084008 
L 187.952246 157.504508 
L 187.993322 157.544036 
L 188.420749 157.967279 
L 188.459098 158.02917 
L 188.669584 158.43005 
L 188.856289 158.892821 
L 188.924875 159.054533 
L 189.052563 159.355593 
L 189.248836 159.818364 
L 189.390651 160.152724 
L 189.440661 160.281135 
L 189.495755 160.743907 
L 189.643579 161.206678 
L 189.817707 161.669449 
L 189.856427 161.808409 
L 189.943966 162.13222 
L 189.976693 162.594992 
L 190.010816 163.057763 
L 189.983009 163.520534 
L 189.97374 163.983306 
L 189.973249 164.446077 
L 189.98394 164.908848 
L 189.999162 165.371619 
L 190.017028 165.834391 
L 190.03489 166.297162 
L 190.052753 166.759933 
L 190.070618 167.222705 
L 190.088483 167.685476 
L 190.106349 168.148247 
L 190.124211 168.611018 
L 190.147833 169.07379 
L 190.172473 169.536561 
L 190.198156 169.999332 
L 190.22495 170.462104 
L 190.25293 170.924875 
L 190.320704 171.387646 
L 190.322204 171.390185 
L 190.654173 171.850417 
L 190.78798 172.03592 
L 190.987983 172.313189 
L 191.253756 172.681639 
L 191.321792 172.77596 
L 191.655597 173.238731 
L 191.719533 173.329389 
L 191.986227 173.701503 
L 192.185309 174.029917 
L 192.2668 174.164274 
L 192.547224 174.627045 
L 192.651085 174.798444 
L 192.827645 175.089816 
L 193.108064 175.552588 
L 193.116861 175.567105 
L 193.388488 176.015359 
L 193.582638 176.335755 
L 193.668913 176.47813 
L 193.949328 176.940902 
L 194.048414 177.104421 
L 194.229751 177.403673 
L 194.510174 177.866444 
L 194.51419 177.873072 
L 194.790594 178.329215 
L 194.979967 178.641733 
L 195.071014 178.791987 
L 195.351437 179.254758 
L 195.445743 179.410385 
L 195.631865 179.717529 
L 195.911519 180.087388 
L 195.977145 180.180301 
L 196.377295 180.589405 
L 196.429788 180.643072 
L 196.843072 181.065602 
L 196.882433 181.105843 
L 197.308848 181.541794 
L 197.335082 181.568614 
L 197.774624 182.017993 
L 197.78823 182.031386 
L 198.240401 182.469827 
L 198.267439 182.494157 
L 198.706177 182.880693 
L 198.771013 182.956928 
L 199.166745 183.419699 
L 199.171953 183.426705 
L 199.500392 183.882471 
L 199.63773 184.165405 
L 199.725023 184.345242 
L 199.959376 184.808013 
L 200.103506 185.040943 
L 200.25797 185.270785 
L 200.568973 185.733556 
L 200.569282 185.734033 
L 200.876288 186.196327 
L 201.035058 186.453423 
L 201.168234 186.659098 
L 201.441978 187.12187 
L 201.500835 187.224331 
L 201.707809 187.584641 
L 201.966611 188.035186 
L 201.973634 188.047412 
L 202.239459 188.510184 
L 202.432387 188.846039 
L 202.505291 188.972955 
L 202.771113 189.435726 
L 202.898164 189.656908 
L 203.036937 189.898497 
L 203.302761 190.361269 
L 203.36394 190.467777 
L 203.568584 190.82404 
L 203.829716 191.278637 
L 203.834412 191.286811 
L 204.100236 191.749583 
L 204.295492 192.0895 
L 204.366062 192.212354 
L 204.631887 192.675125 
L 204.761269 192.900369 
L 204.897708 193.137896 
L 205.16353 193.600668 
L 205.227045 193.711241 
L 205.42936 194.063439 
L 205.692821 194.506935 
L 205.704432 194.52621 
L 205.983352 194.988982 
L 206.158598 195.279749 
L 206.262266 195.451753 
L 206.541187 195.914524 
L 206.624374 196.052544 
L 206.820107 196.377295 
L 207.09015 196.825342 
L 207.098982 196.840067 
L 207.360086 197.302838 
L 207.555927 197.599605 
L 207.655172 197.765609 
L 207.89522 198.228381 
L 208.021703 198.562969 
L 208.060151 198.691152 
L 208.151142 199.153923 
L 208.214511 199.616694 
L 208.249947 200.079466 
L 208.273791 200.542237 
L 208.297649 201.005008 
L 208.321499 201.46778 
L 208.345344 201.930551 
L 208.369188 202.393322 
L 208.250467 202.856093 
L 208.054829 203.318865 
L 208.021703 203.37734 
L 207.758156 203.781636 
L 207.555927 204.030225 
L 207.367518 204.244407 
L 207.09015 204.555484 
L 206.95489 204.707179 
L 206.624374 205.077853 
L 206.542256 205.16995 
L 206.158598 205.600241 
L 206.129638 205.632721 
L 205.71701 206.095492 
L 205.692821 206.122621 
L 205.304382 206.558264 
L 205.227045 206.64037 
L 204.761269 207.020086 
L 204.75991 207.021035 
L 204.295492 207.345411 
L 204.096792 207.483806 
L 203.829716 207.643501 
L 203.36394 207.942706 
L 203.357769 207.946578 
L 202.898164 208.197515 
L 202.501229 208.409349 
L 202.432387 208.446548 
L 202.086657 208.87212 
L 201.966611 209.019718 
L 201.746021 209.334891 
L 201.51472 209.797663 
L 201.500835 209.823051 
L 201.152401 210.260434 
L 201.035058 210.417756 
L 200.799153 210.723205 
L 200.569282 210.990028 
L 200.270006 211.185977 
L 200.103506 211.252499 
L 199.63773 211.440673 
L 199.18091 211.648748 
L 199.171953 211.653691 
L 198.706177 211.866748 
L 198.240401 212.078777 
L 198.165023 212.111519 
L 197.774624 212.280622 
L 197.308848 212.488523 
L 197.119189 212.57429 
L 196.843072 212.697584 
L 196.377295 212.862129 
L 195.911519 212.991646 
L 195.740878 213.037062 
L 195.445743 213.113988 
L 194.979967 213.232832 
L 194.51419 213.34672 
L 194.048414 213.460587 
L 193.887875 213.499833 
L 193.582638 213.574282 
L 193.116861 213.646611 
L 192.651085 213.64417 
L 192.185309 213.677192 
L 191.719533 213.797682 
L 191.263419 213.962604 
L 191.253756 213.966098 
L 190.78798 214.134507 
L 190.322204 214.302919 
L 189.983513 214.425376 
L 189.856427 214.471324 
L 189.390651 214.639741 
L 188.924875 214.809429 
L 188.713943 214.888147 
L 188.459098 214.983323 
L 187.993322 215.157285 
L 187.527546 215.33108 
L 187.472452 215.350918 
L 187.06177 215.498613 
L 186.595993 215.666124 
L 186.185699 215.813689 
L 186.130217 215.833645 
L 185.664441 216.00116 
L 185.198664 215.95432 
z
" clip-path="url(#pda4c5a8201)" style="fill: none; stroke-dasharray: 5.55,2.4; stroke-dashoffset: 0; stroke: #000000; stroke-width: 1.5"/>
   </g>
   <g id="PathCollection_3">
    <path d="M 182.869783 240.345229 
L 182.776753 240.340568 
L 182.404007 240.147665 
L 181.93823 239.890644 
L 181.740662 239.877796 
L 181.472454 239.735171 
L 181.006678 239.442999 
L 180.704586 239.415025 
L 180.540902 239.325518 
L 180.075125 239.015162 
L 179.670842 238.952254 
L 179.609349 238.918964 
L 179.143573 238.707969 
L 178.677796 238.491082 
L 178.63242 238.489482 
L 178.21202 238.298478 
L 177.746244 238.042838 
L 177.317273 238.026711 
L 177.280467 238.012517 
L 176.814691 237.857636 
L 176.348915 237.586086 
L 175.883139 237.565166 
L 175.820819 237.56394 
L 175.417362 237.427923 
L 174.951586 237.130904 
L 174.528777 237.101169 
L 174.48581 237.07499 
L 174.020033 236.649685 
L 173.970363 236.638397 
L 173.554257 236.272112 
L 173.202593 236.175626 
L 173.088481 236.089804 
L 172.622705 235.717187 
L 172.611342 235.712855 
L 172.156928 235.28734 
L 171.854882 235.250083 
L 171.691152 235.133082 
L 171.225376 234.789653 
L 171.219977 234.787312 
L 170.759599 234.350869 
L 170.491743 234.324541 
L 170.293823 234.184847 
L 169.828047 233.862505 
L 169.826519 233.86177 
L 169.36227 233.418144 
L 169.119195 233.398998 
L 168.896494 233.249841 
L 168.430718 232.937499 
L 168.427613 232.936227 
L 167.964942 232.499576 
L 167.677831 232.473456 
L 167.499165 232.350286 
L 167.033389 232.014025 
L 167.023734 232.010684 
L 166.567613 231.586874 
L 166.236456 231.547913 
L 166.101836 231.452305 
L 165.63606 231.091058 
L 165.613867 231.085142 
L 165.170284 230.664565 
L 164.947385 230.622371 
L 164.704508 230.410199 
L 164.419098 230.159599 
L 164.238731 229.994319 
L 163.902896 229.696828 
L 163.772955 229.580152 
L 163.357979 229.234057 
L 163.307179 229.188775 
L 162.841402 228.773783 
L 162.837509 228.771285 
L 162.375626 228.321135 
L 162.348127 228.308514 
L 161.90985 227.890329 
L 161.72081 227.845743 
L 161.444073 227.600404 
L 161.186895 227.382972 
L 160.978297 227.195412 
L 160.649117 226.9202 
L 160.512521 226.798255 
L 160.099581 226.457429 
L 160.046745 226.410647 
L 159.580968 225.997557 
L 159.575195 225.994658 
L 159.115192 225.559352 
L 158.92262 225.531886 
L 158.649416 225.313869 
L 158.293829 225.069115 
L 158.183639 224.973076 
L 157.867398 224.606344 
L 157.717863 224.442543 
L 157.457993 224.143573 
L 157.252087 223.919123 
L 157.043443 223.680801 
L 156.786311 223.401755 
L 156.726054 223.21803 
L 156.320534 222.802635 
L 156.298928 222.755259 
L 155.854758 222.305595 
L 155.84652 222.292487 
L 155.388982 221.831555 
L 155.387641 221.829716 
L 154.975096 221.366945 
L 154.923205 221.309593 
L 154.575396 220.904174 
L 154.457429 220.774545 
L 154.16919 220.441402 
L 153.991653 220.247328 
L 153.757392 219.978631 
L 153.525876 219.726736 
L 153.416598 219.51586 
L 153.0601 219.143431 
L 153.027086 219.053088 
L 152.594324 218.614903 
L 152.580581 218.590317 
L 152.128548 218.133759 
L 152.124241 218.127546 
L 151.67699 217.664775 
L 151.662771 217.649001 
L 151.281401 217.202003 
L 151.196995 217.108941 
L 150.878682 216.739232 
L 150.731219 216.570205 
L 150.497279 216.276461 
L 150.265442 215.988016 
L 150.240916 215.813689 
L 149.799666 215.355011 
L 149.797988 215.350918 
L 149.465749 214.888147 
L 149.33389 214.719089 
L 149.127871 214.425376 
L 148.868114 214.101802 
L 148.850878 213.962604 
L 148.407652 213.499833 
L 148.402337 213.492746 
L 148.099095 213.037062 
L 147.936561 212.828349 
L 147.77177 212.57429 
L 147.470785 212.205797 
L 147.459343 212.111519 
L 147.04434 211.648748 
L 147.005008 211.596188 
L 146.732779 211.185977 
L 146.539232 210.93705 
L 146.429843 210.723205 
L 146.073456 210.291937 
L 146.07018 210.260434 
L 145.877782 209.797663 
L 145.647189 209.334891 
L 145.607679 209.239097 
L 145.480682 208.87212 
L 145.27238 208.409349 
L 145.141903 208.061625 
L 145.10379 207.946578 
L 144.933298 207.483806 
L 144.766228 207.021035 
L 144.676127 206.771452 
L 144.599162 206.558264 
L 144.432086 206.095492 
L 144.265018 205.632721 
L 144.210351 205.481298 
L 144.097945 205.16995 
L 143.942301 204.707179 
L 143.810187 204.244407 
L 143.744574 204.014573 
L 143.678076 203.781636 
L 143.545963 203.318865 
L 143.413847 202.856093 
L 143.281734 202.393322 
L 143.278798 202.383039 
L 143.149621 201.930551 
L 143.013751 201.46778 
L 142.875346 201.005008 
L 142.813022 200.719135 
L 142.776155 200.542237 
L 142.741804 200.079466 
L 142.787312 199.616694 
L 142.813022 199.355231 
L 142.832816 199.153923 
L 142.878324 198.691152 
L 142.923828 198.228381 
L 142.969337 197.765609 
L 143.014843 197.302838 
L 143.060347 196.840067 
L 143.105853 196.377295 
L 143.151359 195.914524 
L 143.196867 195.451753 
L 143.242369 194.988982 
L 143.278798 194.618548 
L 143.287879 194.52621 
L 143.333384 194.063439 
L 143.378888 193.600668 
L 143.424394 193.137896 
L 143.4699 192.675125 
L 143.515407 192.212354 
L 143.560724 191.749583 
L 143.606125 191.286811 
L 143.651458 190.82404 
L 143.696585 190.361269 
L 143.741263 189.898497 
L 143.722561 189.435726 
L 143.699904 188.972955 
L 143.677252 188.510184 
L 143.654596 188.047412 
L 143.631942 187.584641 
L 143.609287 187.12187 
L 143.586635 186.659098 
L 143.563982 186.196327 
L 143.571584 185.733556 
L 143.689082 185.270785 
L 143.744574 185.052233 
L 143.806584 184.808013 
L 143.924086 184.345242 
L 144.044221 183.882471 
L 144.210351 183.435448 
L 144.216491 183.419699 
L 144.396918 182.956928 
L 144.577343 182.494157 
L 144.676127 182.240787 
L 144.75777 182.031386 
L 144.9382 181.568614 
L 145.118628 181.105843 
L 145.141903 181.046145 
L 145.299055 180.643072 
L 145.479481 180.180301 
L 145.607679 179.851485 
L 145.659839 179.717529 
L 145.836915 179.254758 
L 146.008904 178.791987 
L 146.073456 178.616574 
L 146.179204 178.329215 
L 146.349507 177.866444 
L 146.525532 177.403673 
L 146.539232 177.369568 
L 146.707328 176.940902 
L 146.886762 176.47813 
L 147.005008 176.181778 
L 147.070265 176.015359 
L 147.249376 175.552588 
L 147.431319 175.089816 
L 147.470785 174.992986 
L 147.613366 174.627045 
L 147.790097 174.164274 
L 147.936561 173.806216 
L 147.977624 173.701503 
L 148.150341 173.238731 
L 148.341966 172.77596 
L 148.402337 172.693509 
L 148.671688 172.313189 
L 148.77744 171.850417 
L 148.868114 171.409185 
L 148.872106 171.387646 
L 148.919775 170.924875 
L 148.970697 170.462104 
L 149.019807 169.999332 
L 149.068909 169.536561 
L 149.118016 169.07379 
L 149.071768 168.611018 
L 148.995673 168.148247 
L 148.88538 167.685476 
L 148.868114 167.37248 
L 148.843486 167.222705 
L 148.807765 166.759933 
L 148.868114 166.596215 
L 148.978989 166.297162 
L 149.150566 165.834391 
L 149.322141 165.371619 
L 149.33389 165.298284 
L 149.391089 164.908848 
L 149.415891 164.446077 
L 149.437874 163.983306 
L 149.396366 163.520534 
L 149.33389 163.104532 
L 149.326866 163.057763 
L 149.257364 162.594992 
L 149.229422 162.13222 
L 149.223765 161.669449 
L 149.218105 161.206678 
L 149.212451 160.743907 
L 149.206796 160.281135 
L 149.20122 159.818364 
L 149.277238 159.355593 
L 149.33389 159.032311 
L 149.358334 158.892821 
L 149.439439 158.43005 
L 149.520536 157.967279 
L 149.601636 157.504508 
L 149.68273 157.041736 
L 149.763829 156.578965 
L 149.799666 156.374467 
L 149.844927 156.116194 
L 149.926026 155.653422 
L 150.007124 155.190651 
L 150.088218 154.72788 
L 150.169314 154.265109 
L 150.250416 153.802337 
L 150.265442 153.716591 
L 150.331513 153.339566 
L 150.412613 152.876795 
L 150.493711 152.414023 
L 150.585804 151.951252 
L 150.731219 151.515683 
L 150.741092 151.488481 
L 150.924322 151.02571 
L 151.10754 150.562938 
L 151.196995 150.338176 
L 151.291915 150.100167 
L 151.476824 149.637396 
L 151.661731 149.174624 
L 151.662771 149.17202 
L 151.846641 148.711853 
L 152.03156 148.249082 
L 152.128548 148.006346 
L 152.216465 147.786311 
L 152.401378 147.323539 
L 152.586329 146.860768 
L 152.594324 146.840666 
L 152.771202 146.397997 
L 152.956458 145.935225 
L 153.0601 145.674972 
L 153.14102 145.472454 
L 153.326329 145.009683 
L 153.513935 144.546912 
L 153.525876 144.509341 
L 153.695942 144.08414 
L 153.903408 143.621369 
L 153.991653 143.34358 
L 154.073422 143.158598 
L 154.37724 142.695826 
L 154.457429 142.563061 
L 154.679673 142.233055 
L 154.923205 141.796392 
L 154.939658 141.770284 
L 155.244418 141.307513 
L 155.388982 141.077511 
L 155.550975 140.844741 
L 155.849733 140.38197 
L 155.854758 140.339142 
L 156.124645 139.919199 
L 156.320534 139.614393 
L 156.429916 139.456427 
L 156.776452 138.993656 
L 156.786311 138.889642 
L 157.016872 138.530885 
L 157.252087 138.164882 
L 157.315105 138.068114 
L 157.704727 137.605342 
L 157.717863 137.44013 
L 157.909098 137.142571 
L 158.183639 136.715378 
L 158.206504 136.6798 
L 158.633913 136.217028 
L 158.649416 136.08521 
L 158.899941 135.754257 
L 159.114308 135.291486 
L 159.115192 135.289902 
L 159.563677 134.828715 
L 159.580968 134.752181 
L 159.918812 134.365943 
L 160.044679 133.903172 
L 160.046745 133.900852 
L 160.509754 133.440401 
L 160.512521 133.438096 
L 160.978297 133.360461 
L 161.397058 132.977629 
L 161.444073 132.963657 
L 161.907826 132.514858 
L 161.90985 132.513689 
L 162.375626 132.467408 
L 162.817014 132.052087 
L 162.841402 132.042098 
L 163.305978 131.589316 
L 163.307179 131.588522 
L 163.772955 131.525227 
L 164.198382 131.126544 
L 164.238731 131.11092 
L 164.699595 130.663773 
L 164.704508 130.660769 
L 165.170284 130.495852 
L 165.514915 130.201002 
L 165.63606 130.183448 
L 166.101836 129.825246 
L 166.278904 129.73823 
L 166.567613 129.727973 
L 167.033389 129.64805 
L 167.470162 129.275459 
L 167.499165 129.270116 
L 167.964942 129.24612 
L 168.430718 129.208245 
L 168.896494 128.848952 
L 169.033996 128.812688 
L 169.36227 128.807828 
L 169.828047 128.788774 
L 170.293823 128.672649 
L 170.746599 128.349917 
L 170.759599 128.348782 
L 171.225376 128.339045 
L 171.691152 128.317823 
L 172.156928 128.259313 
L 172.622705 127.938731 
L 172.852838 127.887145 
L 173.088481 127.884145 
L 173.554257 127.873006 
L 174.020033 127.830735 
L 174.48581 127.52109 
L 174.917256 127.424374 
L 174.951586 127.42393 
L 175.417362 127.414025 
L 175.883139 127.374607 
L 176.348915 127.110734 
L 176.814691 127.024171 
L 177.144393 126.961603 
L 177.280467 126.959875 
L 177.746244 126.949495 
L 178.21202 126.909876 
L 178.677796 126.687477 
L 179.143573 126.613032 
L 179.609349 126.632222 
L 180.075125 126.651518 
L 180.540902 126.670924 
L 181.006678 126.690441 
L 181.472454 126.747412 
L 181.93823 126.835762 
L 182.404007 126.955301 
L 182.564045 126.961603 
L 182.869783 127.04551 
L 183.335559 127.159496 
L 183.801336 127.25033 
L 184.267112 127.326103 
L 184.732888 127.394111 
L 184.951636 127.424374 
L 185.198664 127.475029 
L 185.664441 127.590867 
L 186.130217 127.691439 
L 186.595993 127.779574 
L 187.06177 127.857435 
L 187.208399 127.887145 
L 187.527546 127.974353 
L 187.993322 128.145783 
L 188.459098 128.315326 
L 188.573056 128.349917 
L 188.924875 128.476292 
L 189.390651 128.643606 
L 189.856427 128.811102 
L 189.861339 128.812688 
L 190.322204 128.978237 
L 190.78798 129.229553 
L 190.85306 129.275459 
L 191.253756 129.558107 
L 191.458593 129.73823 
L 191.719533 129.959091 
L 191.993009 130.201002 
L 192.185309 130.371104 
L 192.516169 130.663773 
L 192.651085 130.783114 
L 193.039332 131.126544 
L 193.116861 131.195126 
L 193.562494 131.589316 
L 193.582638 131.607134 
L 194.048414 131.879841 
L 194.439997 132.052087 
L 194.51419 132.084722 
L 194.979967 132.289605 
L 195.445743 132.496534 
L 195.492073 132.514858 
L 195.911519 132.69936 
L 196.377295 132.909507 
L 196.544126 132.977629 
L 196.843072 133.121997 
L 197.277736 133.440401 
L 197.308848 133.465701 
L 197.774624 133.84737 
L 197.846802 133.903172 
L 198.240401 134.223248 
L 198.415877 134.365943 
L 198.706177 134.602015 
L 198.984951 134.828715 
L 199.171953 134.980784 
L 199.536758 135.291486 
L 199.63773 135.378062 
L 200.066452 135.754257 
L 200.103506 135.786773 
L 200.569282 136.198295 
L 200.59148 136.217028 
L 201.035058 136.61063 
L 201.11777 136.6798 
L 201.500835 137.017501 
L 201.648548 137.142571 
L 201.966611 137.421675 
L 202.175921 137.605342 
L 202.432387 137.830389 
L 202.695817 138.068114 
L 202.898164 138.281906 
L 203.109252 138.530885 
L 203.36394 138.829356 
L 203.489168 138.993656 
L 203.829716 139.386237 
L 203.884838 139.456427 
L 204.291277 139.919199 
L 204.295492 139.924164 
L 204.684119 140.38197 
L 204.761269 140.472852 
L 205.064674 140.844741 
L 205.227045 141.03464 
L 205.435989 141.307513 
L 205.692821 141.60243 
L 205.823013 141.770284 
L 206.158598 142.171082 
L 206.206814 142.233055 
L 206.587079 142.695826 
L 206.624374 142.743256 
L 206.950957 143.158598 
L 207.09015 143.342185 
L 207.305819 143.621369 
L 207.555927 143.996779 
L 207.61105 144.08414 
L 207.896645 144.546912 
L 208.021703 144.75463 
L 208.179593 145.009683 
L 208.487479 145.414853 
L 208.537725 145.472454 
L 208.941415 145.935225 
L 208.953255 145.948799 
L 209.345085 146.397997 
L 209.419032 146.482768 
L 209.748768 146.860768 
L 209.884808 147.016724 
L 210.126428 147.323539 
L 210.306542 147.786311 
L 210.350584 147.934187 
L 210.444371 148.249082 
L 210.582202 148.711853 
L 210.720039 149.174624 
L 210.816361 149.498034 
L 210.857867 149.637396 
L 210.995706 150.100167 
L 211.133537 150.562938 
L 211.271372 151.02571 
L 211.282137 151.061854 
L 211.4092 151.488481 
L 211.547037 151.951252 
L 211.684864 152.414023 
L 211.747913 152.625707 
L 211.822697 152.876795 
L 211.960531 153.339566 
L 212.098364 153.802337 
L 212.213689 154.189556 
L 212.235675 154.265109 
L 212.315357 154.72788 
L 212.394876 155.190651 
L 212.474392 155.653422 
L 212.553911 156.116194 
L 212.633427 156.578965 
L 212.679466 156.843941 
L 212.713835 157.041736 
L 212.798622 157.504508 
L 212.883407 157.967279 
L 212.968196 158.43005 
L 213.036074 158.892821 
L 213.09072 159.355593 
L 213.145242 159.817351 
L 213.145362 159.818364 
L 213.200004 160.281135 
L 213.255071 160.743907 
L 213.364214 161.206678 
L 213.479917 161.669449 
L 213.595621 162.13222 
L 213.611018 162.193805 
L 213.711325 162.594992 
L 213.828433 163.057763 
L 213.947362 163.520534 
L 214.066288 163.983306 
L 214.076795 164.000069 
L 214.345549 164.446077 
L 214.542571 164.736273 
L 214.57583 164.908848 
L 214.857289 165.371619 
L 215.008347 165.554726 
L 215.050092 165.834391 
L 215.474124 166.264298 
L 215.486128 166.297162 
L 215.644159 166.759933 
L 215.9399 167.081434 
L 215.973286 167.222705 
L 216.287449 167.685476 
L 216.405676 167.827822 
L 216.470012 168.148247 
L 216.871452 168.564449 
L 216.885858 168.611018 
L 216.999502 169.07379 
L 217.337229 169.436276 
L 217.369929 169.536561 
L 217.803005 169.977078 
L 217.815137 169.999332 
L 218.009587 170.462104 
L 218.268781 170.757465 
L 218.34421 170.924875 
L 218.734558 171.340011 
L 218.750532 171.387646 
L 219.200334 171.845281 
L 219.203121 171.850417 
L 219.325267 172.313189 
L 219.66611 172.70742 
L 219.695114 172.77596 
L 220.113221 173.238731 
L 220.131886 173.269706 
L 220.389889 173.701503 
L 220.597663 174.043097 
L 220.625895 174.164274 
L 220.954204 174.627045 
L 221.063439 174.805186 
L 221.237969 175.089816 
L 221.523355 175.552588 
L 221.529215 175.560382 
L 221.854008 176.015359 
L 221.994992 176.199715 
L 222.200206 176.47813 
L 222.460768 176.815005 
L 222.558145 176.940902 
L 222.916096 177.403673 
L 222.926544 177.417181 
L 223.274037 177.866444 
L 223.392321 178.019371 
L 223.63198 178.329215 
L 223.858097 178.621549 
L 223.989924 178.791987 
L 224.323873 179.223746 
L 224.347861 179.254758 
L 224.705808 179.717529 
L 224.789649 179.825925 
L 225.063752 180.180301 
L 225.255426 180.424669 
L 225.439477 180.643072 
L 225.721202 180.943095 
L 225.874025 181.105843 
L 226.186978 181.439118 
L 226.308576 181.568614 
L 226.652755 181.935151 
L 226.743121 182.031386 
L 227.118531 182.431169 
L 227.171689 182.494157 
L 227.389405 182.956928 
L 227.584307 183.41074 
L 227.586731 183.419699 
L 227.786901 183.882471 
L 227.986257 184.345242 
L 228.050083 184.497332 
L 228.169072 184.808013 
L 228.328203 185.270785 
L 228.51586 185.606 
L 228.583518 185.733556 
L 228.842776 186.196327 
L 228.981636 186.444184 
L 229.102039 186.659098 
L 229.361304 187.12187 
L 229.447412 187.275572 
L 229.620565 187.584641 
L 229.879832 188.047412 
L 229.913189 188.106954 
L 230.13909 188.510184 
L 230.378965 188.938348 
L 230.381393 188.972955 
L 230.628053 189.435726 
L 230.837542 189.898497 
L 230.844741 189.91673 
L 230.902713 190.361269 
L 231.154092 190.82404 
L 231.302831 191.286811 
L 231.310518 191.310726 
L 231.35184 191.749583 
L 231.600306 192.212354 
L 231.749042 192.675125 
L 231.776294 192.759913 
L 231.795757 193.137896 
L 231.974132 193.600668 
L 232.161149 194.063439 
L 232.24207 194.402623 
L 232.244034 194.52621 
L 232.26698 194.988982 
L 232.39514 195.451753 
L 232.602765 195.914524 
L 232.707846 196.354994 
L 232.708157 196.377295 
L 232.722801 196.840067 
L 232.825058 197.302838 
L 233.044382 197.765609 
L 233.154782 198.228381 
L 233.173623 198.307346 
L 233.182909 198.691152 
L 233.26447 199.153923 
L 233.486007 199.616694 
L 233.596412 200.079466 
L 233.639399 200.259661 
L 233.645024 200.542237 
L 233.705059 201.005008 
L 233.911911 201.46778 
L 233.997354 201.930551 
L 234.101018 202.393322 
L 234.105175 202.656123 
L 234.109207 202.856093 
L 234.117558 203.318865 
L 234.121818 203.781636 
L 234.126608 204.244407 
L 234.1319 204.707179 
L 234.105175 204.828648 
L 234.093891 205.16995 
L 233.834993 205.632721 
L 233.707093 206.095492 
L 233.639399 206.310649 
L 233.630869 206.558264 
L 233.406684 207.021035 
L 233.270284 207.483806 
L 233.173623 207.791023 
L 233.168058 207.946578 
L 232.966367 208.409349 
L 232.833477 208.87212 
L 232.707846 209.271415 
L 232.703997 209.334891 
L 232.445497 209.797663 
L 232.24207 210.213994 
L 232.233725 210.260434 
L 231.964908 210.723205 
L 231.776294 211.125478 
L 231.740272 211.185977 
L 231.48315 211.648748 
L 231.310518 212.034458 
L 231.266244 212.111519 
L 231.000066 212.57429 
L 230.844741 212.940185 
L 230.791326 213.037062 
L 230.5155 213.499833 
L 230.378965 213.824493 
L 230.304592 213.962604 
L 230.029242 214.425376 
L 229.913189 214.677574 
L 229.784788 214.888147 
L 229.447412 215.343917 
L 229.44223 215.350918 
L 229.088279 215.813689 
L 228.981636 215.973141 
L 228.757103 216.276461 
L 228.51586 216.602355 
L 228.414536 216.739232 
L 228.070043 217.202003 
L 228.050083 217.23159 
L 227.729418 217.664775 
L 227.584307 217.860807 
L 227.386855 218.127546 
L 227.118531 218.490028 
L 227.044294 218.590317 
L 226.701727 219.053088 
L 226.652755 219.119246 
L 226.359172 219.51586 
L 226.186978 219.748478 
L 226.016608 219.978631 
L 225.721202 220.377707 
L 225.674052 220.441402 
L 225.331481 220.904174 
L 225.255426 221.00692 
L 224.988924 221.366945 
L 224.789649 221.636149 
L 224.646364 221.829716 
L 224.323873 222.265368 
L 224.303798 222.292487 
L 223.858097 222.69763 
L 223.780442 222.755259 
L 223.392321 223.037919 
L 223.145006 223.21803 
L 222.926544 223.453104 
L 222.773724 223.680801 
L 222.460768 223.843143 
L 221.994992 224.035427 
L 221.733012 224.143573 
L 221.529215 224.227701 
L 221.063439 224.419984 
L 220.612023 224.606344 
L 220.597663 224.612272 
L 220.131886 224.813171 
L 219.66611 225.058251 
L 219.646665 225.069115 
L 219.200334 225.370458 
L 218.959484 225.531886 
L 218.734558 225.682644 
L 218.269033 225.994658 
L 218.268781 225.994827 
L 217.803005 226.307014 
L 217.578586 226.457429 
L 217.337229 226.619196 
L 216.888125 226.9202 
L 216.871452 226.931375 
L 216.405676 227.243566 
L 216.197689 227.382972 
L 215.9399 227.555754 
L 215.507246 227.845743 
L 215.474124 227.867944 
L 215.008347 228.18013 
L 214.8168 228.308514 
L 214.542571 228.481924 
L 214.081527 228.771285 
L 214.076795 228.774251 
L 213.611018 229.066146 
L 213.34308 229.234057 
L 213.145242 229.358039 
L 212.679466 229.649938 
L 212.604646 229.696828 
L 212.213689 229.941837 
L 211.866208 230.159599 
L 211.747913 230.233734 
L 211.282137 230.564011 
L 211.222605 230.622371 
L 210.816361 231.083954 
L 210.815435 231.085142 
L 210.45481 231.547913 
L 210.350584 231.681663 
L 210.080073 232.010684 
L 209.884808 232.192944 
L 209.49381 232.473456 
L 209.419032 232.527104 
L 208.953255 232.861268 
L 208.848773 232.936227 
L 208.487479 233.195435 
L 208.203738 233.398998 
L 208.021703 233.529594 
L 207.558696 233.86177 
L 207.555927 233.863757 
L 207.09015 234.133243 
L 206.659025 234.324541 
L 206.624374 234.339917 
L 206.158598 234.546594 
L 205.692821 234.753267 
L 205.616096 234.787312 
L 205.227045 234.959944 
L 204.761269 235.166619 
L 204.573169 235.250083 
L 204.295492 235.373297 
L 203.829716 235.579973 
L 203.453787 235.712855 
L 203.36394 235.743417 
L 202.898164 235.883661 
L 202.432387 236.023904 
L 201.966611 236.164146 
L 201.936294 236.175626 
L 201.500835 236.343636 
L 201.035058 236.53938 
L 200.784151 236.638397 
L 200.569282 236.721913 
L 200.103506 236.876411 
L 199.63773 237.030913 
L 199.425923 237.101169 
L 199.171953 237.185409 
L 198.706177 237.339911 
L 198.240401 237.49441 
L 198.030784 237.56394 
L 197.774624 237.648908 
L 197.308848 237.803404 
L 196.843072 237.957906 
L 196.635635 238.026711 
L 196.377295 238.112401 
L 195.911519 238.266904 
L 195.445743 238.421403 
L 195.240506 238.489482 
L 194.979967 238.575906 
L 194.51419 238.730403 
L 194.048414 238.884901 
L 193.845365 238.952254 
L 193.582638 239.039402 
L 193.116861 239.193901 
L 192.651085 239.348401 
L 192.450233 239.415025 
L 192.185309 239.479463 
L 191.719533 239.657399 
L 191.253756 239.770491 
L 190.78798 239.834991 
L 190.478859 239.877796 
L 190.322204 239.880526 
L 189.856427 239.896648 
L 189.390651 239.993681 
L 188.924875 240.09297 
L 188.459098 240.157467 
L 187.993322 240.221963 
L 187.527546 240.286462 
L 187.136779 240.340568 
L 187.06177 240.341527 
L 186.595993 240.350611 
L 186.130217 240.374703 
L 185.664441 240.541999 
L 185.198664 240.608925 
L 184.732888 240.634019 
L 184.267112 240.66345 
L 183.801336 240.694761 
L 183.335559 240.562779 
L 182.869783 240.345229 
z
" clip-path="url(#pda4c5a8201)" style="fill: none; stroke: #000000; stroke-width: 1.5"/>
   </g>
   <g id="PathCollection_4">
    <path d="M 180.075125 263.02173 
L 179.726787 263.016361 
L 179.609349 263.014461 
L 179.143573 262.92545 
L 178.677796 262.836442 
L 178.21202 262.74743 
L 177.746244 262.658426 
L 177.280467 262.56942 
L 177.197624 262.553589 
L 176.814691 262.480414 
L 176.348915 262.391408 
L 175.883139 262.302398 
L 175.417362 262.2134 
L 174.951586 262.12439 
L 174.775901 262.090818 
L 174.48581 262.035385 
L 174.020033 261.946375 
L 173.554257 261.857376 
L 173.088481 261.768367 
L 172.622705 261.679358 
L 172.354209 261.628047 
L 172.156928 261.590347 
L 171.691152 261.501342 
L 171.225376 261.412342 
L 170.759599 261.322912 
L 170.293823 261.233835 
L 169.933425 261.165275 
L 169.828047 261.145094 
L 169.36227 261.054529 
L 168.896494 260.962716 
L 168.430718 260.831931 
L 168.105523 260.702504 
L 167.964942 260.645122 
L 167.499165 260.452301 
L 167.033389 260.257897 
L 166.99009 260.239733 
L 166.567613 260.062671 
L 166.130985 259.776962 
L 166.101836 259.755863 
L 165.63606 259.398684 
L 165.526643 259.31419 
L 165.170284 259.041957 
L 164.921379 258.851419 
L 164.704508 258.681775 
L 164.345896 258.388648 
L 164.238731 258.293944 
L 163.82223 257.925876 
L 163.772955 257.88233 
L 163.307179 257.468915 
L 163.30096 257.463105 
L 162.841402 257.033806 
L 162.80557 257.000334 
L 162.375626 256.598698 
L 162.310179 256.537563 
L 161.90985 256.163593 
L 161.814792 256.074791 
L 161.444073 255.728485 
L 161.319397 255.61202 
L 160.978297 255.293388 
L 160.823999 255.149249 
L 160.512521 254.858277 
L 160.305352 254.686477 
L 160.046745 254.504397 
L 159.618063 254.223706 
L 159.580968 254.199418 
L 159.115192 253.894438 
L 158.911297 253.760935 
L 158.649416 253.589461 
L 158.204536 253.298164 
L 158.183639 253.284481 
L 157.717863 252.979491 
L 157.497793 252.835392 
L 157.252087 252.674512 
L 156.791045 252.372621 
L 156.786311 252.369521 
L 156.320534 252.064554 
L 156.084267 251.90985 
L 155.854758 251.762684 
L 155.388982 251.487995 
L 155.316391 251.447078 
L 154.923205 251.219544 
L 154.55985 250.984307 
L 154.457429 250.91515 
L 153.991653 250.600638 
L 153.874508 250.521536 
L 153.525876 250.286125 
L 153.189161 250.058765 
L 153.0601 249.971617 
L 152.594324 249.657107 
L 152.503819 249.595993 
L 152.128548 249.342594 
L 151.818479 249.133222 
L 151.662771 249.028081 
L 151.196995 248.713566 
L 151.133145 248.670451 
L 150.731219 248.399052 
L 150.447802 248.207679 
L 150.265442 248.084545 
L 149.799666 247.770035 
L 149.762454 247.744908 
L 149.33389 247.455524 
L 149.077112 247.282137 
L 148.868114 247.141012 
L 148.402337 246.826497 
L 148.391775 246.819366 
L 147.936561 246.511989 
L 147.743308 246.356594 
L 147.470785 246.104613 
L 147.275631 245.893823 
L 147.005008 245.60151 
L 146.847196 245.431052 
L 146.539232 245.098415 
L 146.418748 244.96828 
L 146.073456 244.595318 
L 145.990311 244.505509 
L 145.607679 244.092223 
L 145.562081 244.042738 
L 145.141903 243.586912 
L 145.135504 243.579967 
L 144.709129 243.117195 
L 144.676127 243.081376 
L 144.282745 242.654424 
L 144.210351 242.575854 
L 143.856352 242.191653 
L 143.744574 242.070334 
L 143.429979 241.728881 
L 143.278798 241.564791 
L 143.003605 241.26611 
L 142.813022 241.059264 
L 142.577223 240.803339 
L 142.347245 240.553734 
L 142.150836 240.340568 
L 141.881469 240.048213 
L 141.724458 239.877796 
L 141.415693 239.542688 
L 141.29807 239.415025 
L 140.949917 239.03715 
L 140.870972 238.952254 
L 140.48414 238.572883 
L 140.394374 238.489482 
L 140.018364 238.140138 
L 139.896282 238.026711 
L 139.552588 237.707382 
L 139.402577 237.56394 
L 139.086811 237.189148 
L 139.014352 237.101169 
L 138.633223 236.638397 
L 138.621035 236.623599 
L 138.252089 236.175626 
L 138.155259 236.05805 
L 137.870961 235.712855 
L 137.689482 235.492502 
L 137.489829 235.250083 
L 137.223706 234.926955 
L 137.1087 234.787312 
L 136.75793 234.361406 
L 136.727568 234.324541 
L 136.346434 233.86177 
L 136.292154 233.795864 
L 135.965302 233.398998 
L 135.826377 233.230317 
L 135.584164 232.936227 
L 135.360601 232.664779 
L 135.203035 232.473456 
L 134.894825 232.099209 
L 134.821917 232.010684 
L 134.440779 231.547913 
L 134.429048 231.53367 
L 134.059658 231.085142 
L 133.963272 230.968114 
L 133.678522 230.622371 
L 133.497496 230.401139 
L 133.306109 230.159599 
L 133.03172 229.809026 
L 132.943905 229.696828 
L 132.581699 229.234057 
L 132.565943 229.215106 
L 132.197823 228.771285 
L 132.100167 228.658269 
L 131.797942 228.308514 
L 131.634391 228.119241 
L 131.398064 227.845743 
L 131.168614 227.580205 
L 130.998186 227.382972 
L 130.702838 227.041179 
L 130.598302 226.9202 
L 130.237062 226.502158 
L 130.19841 226.457429 
L 129.798539 225.994658 
L 129.771285 225.963118 
L 129.39866 225.531886 
L 129.305509 225.424084 
L 128.998783 225.069115 
L 128.839733 224.885051 
L 128.598899 224.606344 
L 128.373957 224.346024 
L 128.199018 224.143573 
L 127.90818 223.806994 
L 127.799136 223.680801 
L 127.442404 223.267961 
L 127.399259 223.21803 
L 126.999382 222.755259 
L 126.976628 222.728926 
L 126.599499 222.292487 
L 126.510851 222.1899 
L 126.19983 221.829716 
L 126.045075 221.636531 
L 125.842025 221.366945 
L 125.579299 221.021117 
L 125.490021 220.904174 
L 125.159869 220.441402 
L 125.113523 220.369051 
L 124.863423 219.978631 
L 124.647746 219.641925 
L 124.566994 219.51586 
L 124.27094 219.053088 
L 124.18197 218.91345 
L 123.975725 218.590317 
L 123.716194 218.182541 
L 123.681128 218.127546 
L 123.38998 217.664775 
L 123.250417 217.442336 
L 123.099624 217.202003 
L 122.809268 216.739232 
L 122.784641 216.69998 
L 122.518914 216.276461 
L 122.319554 215.813689 
L 122.318865 215.811737 
L 122.156094 215.350918 
L 122.010961 214.888147 
L 121.917378 214.425376 
L 121.853088 214.107478 
L 121.823791 213.962604 
L 121.730212 213.499833 
L 121.636624 213.037062 
L 121.543047 212.57429 
L 121.437288 212.111519 
L 121.387312 211.926022 
L 121.310238 211.648748 
L 121.181604 211.185977 
L 121.052764 210.723205 
L 120.921536 210.303962 
L 120.907507 210.260434 
L 120.75835 209.797663 
L 120.609207 209.334891 
L 120.470873 208.87212 
L 120.45576 208.804076 
L 120.368218 208.409349 
L 120.300566 207.946578 
L 120.251077 207.483806 
L 120.201599 207.021035 
L 120.152112 206.558264 
L 120.102625 206.095492 
L 120.053144 205.632721 
L 120.003674 205.16995 
L 119.989983 205.041924 
L 119.954187 204.707179 
L 119.904702 204.244407 
L 119.855226 203.781636 
L 119.805742 203.318865 
L 119.756252 202.856093 
L 119.706768 202.393322 
L 119.657279 201.930551 
L 119.607795 201.46778 
L 119.558313 201.005008 
L 119.524207 200.686027 
L 119.508833 200.542237 
L 119.459351 200.079466 
L 119.409873 199.616694 
L 119.360387 199.153923 
L 119.310906 198.691152 
L 119.261423 198.228381 
L 119.211937 197.765609 
L 119.162451 197.302838 
L 119.112968 196.840067 
L 119.063491 196.377295 
L 119.058431 196.329971 
L 119.014004 195.914524 
L 118.964526 195.451753 
L 118.915035 194.988982 
L 118.865556 194.52621 
L 118.825382 194.063439 
L 118.889253 193.600668 
L 118.964409 193.137896 
L 119.033796 192.675125 
L 119.058431 192.502817 
L 119.099958 192.212354 
L 119.166128 191.749583 
L 119.232293 191.286811 
L 119.29846 190.82404 
L 119.360187 190.361269 
L 119.415367 189.898497 
L 119.470429 189.435726 
L 119.524207 189.046779 
L 119.534695 188.972955 
L 119.614696 188.510184 
L 119.6947 188.047412 
L 119.774708 187.584641 
L 119.854713 187.12187 
L 119.934714 186.659098 
L 119.989983 186.339428 
L 120.014724 186.196327 
L 120.094726 185.733556 
L 120.174722 185.270785 
L 120.254727 184.808013 
L 120.334729 184.345242 
L 120.414711 183.882471 
L 120.45576 183.645168 
L 120.494737 183.419699 
L 120.574739 182.956928 
L 120.654675 182.494157 
L 120.734507 182.031386 
L 120.814503 181.568614 
L 120.894672 181.105843 
L 120.921536 180.950091 
L 120.974363 180.643072 
L 121.054102 180.180301 
L 121.133996 179.717529 
L 121.213883 179.254758 
L 121.293678 178.791987 
L 121.37349 178.329215 
L 121.387312 178.249216 
L 121.453491 177.866444 
L 121.535301 177.403673 
L 121.617284 176.940902 
L 121.69929 176.47813 
L 121.781299 176.015359 
L 121.853088 175.610206 
L 121.863298 175.552588 
L 121.945305 175.089816 
L 122.027309 174.627045 
L 122.109319 174.164274 
L 122.208551 173.701503 
L 122.318865 173.329437 
L 122.346817 173.238731 
L 122.516992 172.77596 
L 122.687168 172.313189 
L 122.784641 172.048109 
L 122.857336 171.850417 
L 123.02751 171.387646 
L 123.197679 170.924875 
L 123.250417 170.781459 
L 123.367852 170.462104 
L 123.538023 169.999332 
L 123.708192 169.536561 
L 123.716194 169.5148 
L 123.878363 169.07379 
L 124.04853 168.611018 
L 124.069112 168.148247 
L 124.071945 167.685476 
L 124.074775 167.222705 
L 124.0512 166.759933 
L 123.95537 166.297162 
L 123.862773 165.834391 
L 123.770716 165.371619 
L 123.716194 165.091802 
L 123.680513 164.908848 
L 123.590676 164.446077 
L 123.500853 163.983306 
L 123.411021 163.520534 
L 123.321194 163.057763 
L 123.250417 162.693119 
L 123.231371 162.594992 
L 123.143424 162.13222 
L 123.222827 161.669449 
L 123.250417 161.518804 
L 123.307134 161.206678 
L 123.391219 160.743907 
L 123.47531 160.281135 
L 123.579159 159.818364 
L 123.716194 159.509326 
L 123.792846 159.355593 
L 124.020988 158.892821 
L 124.18197 158.566281 
L 124.249133 158.43005 
L 124.476996 157.967279 
L 124.646532 157.504508 
L 124.647746 157.501062 
L 124.809636 157.041736 
L 124.972354 156.578965 
L 125.113523 156.157049 
L 125.126863 156.116194 
L 125.277963 155.653422 
L 125.429076 155.190651 
L 125.579299 154.730561 
L 125.580174 154.72788 
L 125.731658 154.265109 
L 125.913417 153.802337 
L 126.045075 153.516302 
L 126.126705 153.339566 
L 126.340445 152.876795 
L 126.510851 152.507859 
L 126.554192 152.414023 
L 126.732342 151.951252 
L 126.845425 151.488481 
L 126.958514 151.02571 
L 126.976628 150.95159 
L 127.071602 150.562938 
L 127.184687 150.100167 
L 127.297772 149.637396 
L 127.410863 149.174624 
L 127.442404 149.045546 
L 127.523944 148.711853 
L 127.637031 148.249082 
L 127.756993 147.786311 
L 127.896655 147.323539 
L 127.90818 147.285351 
L 128.036323 146.860768 
L 128.189715 146.397997 
L 128.355846 145.935225 
L 128.373957 145.882075 
L 128.510929 145.472454 
L 128.665632 145.009683 
L 128.820344 144.546912 
L 128.839733 144.488911 
L 128.975044 144.08414 
L 129.129745 143.621369 
L 129.284457 143.158598 
L 129.305509 143.095625 
L 129.439157 142.695826 
L 129.593866 142.233055 
L 129.748572 141.770284 
L 129.771285 141.702341 
L 129.903279 141.307513 
L 130.057986 140.844741 
L 130.212694 140.38197 
L 130.237062 140.309075 
L 130.367391 139.919199 
L 130.522106 139.456427 
L 130.691586 138.993656 
L 130.702838 138.971167 
L 130.938655 138.530885 
L 131.168614 138.101521 
L 131.186506 138.068114 
L 131.434355 137.605342 
L 131.634391 137.231851 
L 131.682208 137.142571 
L 131.930067 136.6798 
L 132.100167 136.352589 
L 132.169631 136.217028 
L 132.405545 135.754257 
L 132.565943 135.439613 
L 132.641454 135.291486 
L 132.877367 134.828715 
L 133.03172 134.525941 
L 133.113282 134.365943 
L 133.349192 133.903172 
L 133.497496 133.612264 
L 133.585111 133.440401 
L 133.821024 132.977629 
L 133.963272 132.698601 
L 134.056943 132.514858 
L 134.292856 132.052087 
L 134.429048 131.784928 
L 134.528769 131.589316 
L 134.764692 131.126544 
L 134.894825 130.871278 
L 135.000605 130.663773 
L 135.236507 130.201002 
L 135.360601 129.957576 
L 135.472423 129.73823 
L 135.752121 129.275459 
L 135.826377 129.166475 
L 136.067424 128.812688 
L 136.292154 128.482831 
L 136.382708 128.349917 
L 136.698014 127.887145 
L 136.75793 127.799205 
L 137.013605 127.424374 
L 137.223706 127.115831 
L 137.329249 126.961603 
L 137.645586 126.498831 
L 137.689482 126.434458 
L 137.961989 126.03606 
L 138.155259 125.753508 
L 138.278532 125.573289 
L 138.595089 125.110518 
L 138.621035 125.072585 
L 138.911634 124.647746 
L 139.086811 124.391654 
L 139.228183 124.184975 
L 139.544713 123.722204 
L 139.552588 123.710692 
L 139.861273 123.259432 
L 140.018364 123.029781 
L 140.177835 122.796661 
L 140.48414 122.348846 
L 140.49437 122.33389 
L 140.810921 121.871119 
L 140.949917 121.667911 
L 141.147974 121.408347 
L 141.415693 121.127171 
L 141.59018 120.945576 
L 141.881469 120.642423 
L 142.034844 120.482805 
L 142.347245 120.157682 
L 142.479506 120.020033 
L 142.813022 119.672926 
L 142.924158 119.557262 
L 143.278798 119.188175 
L 143.368814 119.094491 
L 143.744574 118.70343 
L 143.813479 118.63172 
L 144.210351 118.218673 
L 144.258129 118.168948 
L 144.676127 117.73393 
L 144.702794 117.706177 
L 145.141903 117.24918 
L 145.147451 117.243406 
L 145.592097 116.780634 
L 145.607679 116.764417 
L 146.036769 116.317863 
L 146.073456 116.279681 
L 146.481418 115.855092 
L 146.539232 115.794925 
L 146.926085 115.392321 
L 147.005008 115.310182 
L 147.414916 114.929549 
L 147.470785 114.884355 
L 147.936561 114.545151 
L 148.044177 114.466778 
L 148.402337 114.212616 
L 148.69202 114.004007 
L 148.868114 113.879885 
L 149.33389 113.549634 
L 149.345704 113.541235 
L 149.799666 113.218515 
L 149.996672 113.078464 
L 150.265442 112.887392 
L 150.647631 112.615693 
L 150.731219 112.556271 
L 151.196995 112.225156 
L 151.298604 112.152922 
L 151.662771 111.894034 
L 151.949575 111.69015 
L 152.128548 111.562919 
L 152.594324 111.231806 
L 152.600552 111.227379 
L 153.0601 110.900683 
L 153.251505 110.764608 
L 153.525876 110.569552 
L 153.902481 110.301836 
L 153.991653 110.237758 
L 154.457429 110.003054 
L 154.908617 109.839065 
L 154.923205 109.833684 
L 155.388982 109.661094 
L 155.854758 109.48851 
L 156.157614 109.376294 
L 156.320534 109.31593 
L 156.786311 109.143351 
L 157.252087 108.970773 
L 157.406599 108.913523 
L 157.717863 108.79819 
L 158.183639 108.625603 
L 158.649416 108.453018 
L 158.655533 108.450751 
L 159.115192 108.280421 
L 159.580968 108.107833 
L 159.904423 107.98798 
L 160.046745 107.935247 
L 160.512521 107.762666 
L 160.978297 107.590071 
L 161.15335 107.525209 
L 161.444073 107.417487 
L 161.90985 107.244913 
L 162.375626 107.072312 
L 162.402277 107.062437 
L 162.841402 106.899742 
L 163.307179 106.727156 
L 163.651268 106.599666 
L 163.772955 106.55458 
L 164.238731 106.38199 
L 164.704508 106.209409 
L 164.919505 106.136895 
L 165.170284 106.053858 
L 165.63606 105.912859 
L 166.101836 105.771856 
L 166.424668 105.674124 
L 166.567613 105.630849 
L 167.033389 105.489838 
L 167.499165 105.348837 
L 167.953329 105.211352 
L 167.964942 105.207837 
L 168.430718 105.066822 
L 168.896494 104.969996 
L 169.36227 104.967036 
L 169.828047 104.953216 
L 170.293823 104.916676 
L 170.759599 104.879435 
L 171.225376 104.842197 
L 171.691152 104.804961 
L 172.156928 104.767712 
L 172.396314 104.748581 
L 172.622705 104.730489 
L 173.088481 104.693248 
L 173.554257 104.656007 
L 174.020033 104.618769 
L 174.48581 104.581534 
L 174.951586 104.544298 
L 175.417362 104.50705 
L 175.883139 104.469815 
L 176.348915 104.43455 
L 176.814691 104.422894 
L 177.280467 104.42074 
L 177.746244 104.418579 
L 178.21202 104.416422 
L 178.677796 104.424967 
L 179.143573 104.447962 
L 179.609349 104.530412 
L 180.075125 104.587127 
L 180.540902 104.605552 
L 181.006678 104.623982 
L 181.472454 104.642404 
L 181.93823 104.660841 
L 182.404007 104.679256 
L 182.869783 104.716714 
L 183.160402 104.748581 
L 183.335559 104.767829 
L 183.801336 104.818994 
L 184.267112 104.870159 
L 184.732888 104.921334 
L 185.198664 104.9725 
L 185.664441 105.023668 
L 186.130217 105.07483 
L 186.595993 105.126004 
L 187.06177 105.179111 
L 187.33149 105.211352 
L 187.527546 105.234787 
L 187.993322 105.290456 
L 188.459098 105.338851 
L 188.924875 105.372241 
L 189.390651 105.407826 
L 189.856427 105.444647 
L 190.322204 105.481473 
L 190.78798 105.518294 
L 191.253756 105.555114 
L 191.719533 105.599033 
L 192.06963 105.674124 
L 192.185309 105.699122 
L 192.651085 105.799771 
L 193.116861 105.900671 
L 193.582638 106.001562 
L 194.048414 106.102451 
L 194.207435 106.136895 
L 194.51419 106.203338 
L 194.979967 106.304232 
L 195.445743 106.408559 
L 195.911519 106.519989 
L 196.24378 106.599666 
L 196.377295 106.631768 
L 196.843072 106.814243 
L 197.308848 107.015707 
L 197.414466 107.062437 
L 197.774624 107.221767 
L 198.240401 107.456869 
L 198.324171 107.525209 
L 198.706177 107.86407 
L 198.845865 107.98798 
L 199.171953 108.277244 
L 199.367548 108.450751 
L 199.63773 108.69042 
L 199.889245 108.913523 
L 200.103506 109.103585 
L 200.41093 109.376294 
L 200.569282 109.51676 
L 200.955555 109.839065 
L 201.035058 109.897322 
L 201.500835 110.088552 
L 201.966611 110.279789 
L 202.017517 110.301836 
L 202.432387 110.482499 
L 202.898164 110.696734 
L 203.045731 110.764608 
L 203.36394 110.910968 
L 203.829716 111.125206 
L 204.051854 111.227379 
L 204.295492 111.339441 
L 204.761269 111.553673 
L 205.057985 111.69015 
L 205.227045 111.767913 
L 205.692821 111.982148 
L 206.064087 112.152922 
L 206.158598 112.196394 
L 206.624374 112.410629 
L 207.070198 112.615693 
L 207.09015 112.62487 
L 207.555927 112.839099 
L 208.021703 113.053334 
L 208.076341 113.078464 
L 208.487479 113.267568 
L 208.953255 113.481799 
L 209.082487 113.541235 
L 209.419032 113.69603 
L 209.884808 113.910277 
L 210.088595 114.004007 
L 210.350584 114.124509 
L 210.816361 114.338746 
L 211.094708 114.466778 
L 211.282137 114.553113 
L 211.747913 114.866114 
L 211.822019 114.929549 
L 212.213689 115.26481 
L 212.362645 115.392321 
L 212.679466 115.66353 
L 212.903255 115.855092 
L 213.145242 116.062234 
L 213.443874 116.317863 
L 213.611018 116.460942 
L 213.984492 116.780634 
L 214.076795 116.859645 
L 214.525102 117.243406 
L 214.542571 117.258359 
L 215.008347 117.657066 
L 215.065718 117.706177 
L 215.474124 118.055788 
L 215.606322 118.168948 
L 215.9399 118.454478 
L 216.146946 118.63172 
L 216.405676 118.853206 
L 216.687556 119.094491 
L 216.871452 119.264505 
L 217.111513 119.557262 
L 217.337229 119.826893 
L 217.5349 120.020033 
L 217.803005 120.273892 
L 218.023641 120.482805 
L 218.268781 120.714919 
L 218.512386 120.945576 
L 218.734558 121.155937 
L 219.001137 121.408347 
L 219.200334 121.596958 
L 219.456247 121.871119 
L 219.66611 122.10601 
L 219.86722 122.33389 
L 220.131886 122.633776 
L 220.275647 122.796661 
L 220.597663 123.191892 
L 220.649028 123.259432 
L 220.994147 123.722204 
L 221.063439 123.815115 
L 221.33928 124.184975 
L 221.529215 124.43966 
L 221.684397 124.647746 
L 221.994992 125.0642 
L 222.02975 125.110518 
L 222.383057 125.573289 
L 222.460768 125.673719 
L 222.741136 126.03606 
L 222.926544 126.275672 
L 223.09922 126.498831 
L 223.392321 126.877633 
L 223.457294 126.961603 
L 223.815375 127.424374 
L 223.858097 127.479397 
L 224.178637 127.887145 
L 224.323873 128.069924 
L 224.546356 128.349917 
L 224.789649 128.6561 
L 224.914076 128.812688 
L 225.255426 129.242267 
L 225.2818 129.275459 
L 225.649515 129.73823 
L 225.721202 129.828449 
L 226.017231 130.201002 
L 226.186978 130.414625 
L 226.38495 130.663773 
L 226.652755 131.000806 
L 226.752665 131.126544 
L 227.118531 131.586987 
L 227.120381 131.589316 
L 227.488094 132.052087 
L 227.584307 132.17317 
L 227.855823 132.514858 
L 228.050083 132.75933 
L 228.223181 132.977629 
L 228.492579 133.440401 
L 228.51586 133.487883 
L 228.719471 133.903172 
L 228.94636 134.365943 
L 228.981636 134.437893 
L 229.173249 134.828715 
L 229.400146 135.291486 
L 229.447412 135.387892 
L 229.627033 135.754257 
L 229.809976 136.217028 
L 229.913189 136.514627 
L 229.970475 136.6798 
L 230.129814 137.142571 
L 230.285143 137.605342 
L 230.378965 137.884853 
L 230.440478 138.068114 
L 230.595806 138.530885 
L 230.751134 138.993656 
L 230.844741 139.272543 
L 230.906462 139.456427 
L 231.061803 139.919199 
L 231.21713 140.38197 
L 231.310518 140.660193 
L 231.372462 140.844741 
L 231.527794 141.307513 
L 231.68312 141.770284 
L 231.776294 142.047868 
L 231.838359 142.233055 
L 231.99302 142.695826 
L 232.146941 143.158598 
L 232.24207 143.444994 
L 232.300653 143.621369 
L 232.454376 144.08414 
L 232.619448 144.546912 
L 232.707846 144.739353 
L 232.832021 145.009683 
L 233.044604 145.472454 
L 233.173623 145.753309 
L 233.257188 145.935225 
L 233.469773 146.397997 
L 233.639399 146.767256 
L 233.682355 146.860768 
L 233.894894 147.323539 
L 234.105175 147.781429 
L 234.107417 147.786311 
L 234.319782 148.249082 
L 234.532146 148.711853 
L 234.570952 148.796412 
L 234.744519 149.174624 
L 234.956883 149.637396 
L 235.036728 149.853551 
L 235.125429 150.100167 
L 235.270112 150.562938 
L 235.414801 151.02571 
L 235.502504 151.38929 
L 235.527466 151.488481 
L 235.613191 151.951252 
L 235.721851 152.414023 
L 235.830508 152.876795 
L 235.939173 153.339566 
L 235.96828 153.463538 
L 236.047828 153.802337 
L 236.156498 154.265109 
L 236.265162 154.72788 
L 236.373831 155.190651 
L 236.434057 155.447157 
L 236.482485 155.653422 
L 236.576423 156.116194 
L 236.659278 156.578965 
L 236.817704 157.041736 
L 236.899833 157.160942 
L 237.146877 157.504508 
L 237.365609 157.808698 
L 237.479637 157.967279 
L 237.812395 158.43005 
L 237.831386 158.45646 
L 238.145158 158.892821 
L 238.297162 159.104216 
L 238.47792 159.355593 
L 238.762938 159.751967 
L 238.810629 159.818364 
L 239.142885 160.281135 
L 239.228715 160.400736 
L 239.474972 160.743907 
L 239.694491 161.049809 
L 239.807059 161.206678 
L 240.13913 161.669449 
L 240.160267 161.698905 
L 240.471209 162.13222 
L 240.626043 162.347988 
L 240.806433 162.594992 
L 241.09182 162.987411 
L 241.143455 163.057763 
L 241.483112 163.520534 
L 241.557596 163.622015 
L 241.82277 163.983306 
L 242.023372 164.256624 
L 242.162421 164.446077 
L 242.489149 164.891241 
L 242.502072 164.908848 
L 242.841725 165.371619 
L 242.954925 165.525851 
L 243.181382 165.834391 
L 243.420701 166.160462 
L 243.521037 166.297162 
L 243.860596 166.759933 
L 243.886477 166.79612 
L 244.191997 167.222705 
L 244.352254 167.434988 
L 244.551562 167.685476 
L 244.81803 168.005977 
L 244.927309 168.148247 
L 245.233027 168.611018 
L 245.283806 168.691363 
L 245.525508 169.07379 
L 245.749583 169.428323 
L 245.81799 169.536561 
L 246.110462 169.999332 
L 246.215359 170.165308 
L 246.402943 170.462104 
L 246.681135 170.902251 
L 246.695434 170.924875 
L 246.987915 171.387646 
L 247.146912 171.639213 
L 247.280396 171.850417 
L 247.572877 172.313189 
L 247.612688 172.37618 
L 247.865357 172.77596 
L 248.078464 173.113143 
L 248.157839 173.238731 
L 248.450325 173.701503 
L 248.54424 173.853497 
L 248.732278 174.164274 
L 249.008191 174.627045 
L 249.010017 174.630107 
L 249.284109 175.089816 
L 249.475793 175.41131 
L 249.560031 175.552588 
L 249.838456 176.015359 
L 249.941569 176.182941 
L 250.12244 176.47813 
L 250.407346 176.929148 
L 250.414661 176.940902 
L 250.704874 177.403673 
L 250.873122 177.669008 
L 250.988748 177.866444 
L 251.227677 178.329215 
L 251.338898 178.545539 
L 251.465568 178.791987 
L 251.703418 179.254758 
L 251.804674 179.451764 
L 251.941273 179.717529 
L 252.179132 180.180301 
L 252.270451 180.380697 
L 252.389012 180.643072 
L 252.51969 181.105843 
L 252.650371 181.568614 
L 252.736227 181.872673 
L 252.781042 182.031386 
L 252.911725 182.494157 
L 253.042403 182.956928 
L 253.173821 183.419699 
L 253.202003 183.517193 
L 253.308847 183.882471 
L 253.457992 184.345242 
L 253.59979 184.808013 
L 253.66778 185.049258 
L 253.730212 185.270785 
L 253.852526 185.733556 
L 253.895323 186.196327 
L 253.938133 186.659098 
L 253.980939 187.12187 
L 254.023748 187.584641 
L 254.066551 188.047412 
L 254.109354 188.510184 
L 254.133556 188.789531 
L 254.149015 188.972955 
L 254.250897 189.435726 
L 254.371719 189.898497 
L 254.492689 190.361269 
L 254.599332 190.763199 
L 254.615303 190.82404 
L 254.736769 191.286811 
L 254.857463 191.749583 
L 254.978382 192.212354 
L 255.065109 192.537745 
L 255.101168 192.675125 
L 255.22248 193.137896 
L 255.342558 193.600668 
L 255.464256 194.063439 
L 255.530885 194.313377 
L 255.586571 194.52621 
L 255.707289 194.988982 
L 255.827833 195.451753 
L 255.949145 195.914524 
L 255.996661 196.091999 
L 256.071018 196.377295 
L 256.192238 196.840067 
L 256.314521 197.302838 
L 256.460287 197.765609 
L 256.462437 197.771767 
L 256.616708 198.228381 
L 256.774531 198.691152 
L 256.908297 199.153923 
L 256.928214 199.266661 
L 256.987459 199.616694 
L 257.065827 200.079466 
L 257.144176 200.542237 
L 257.222531 201.005008 
L 257.300876 201.46778 
L 257.378886 201.930551 
L 257.39399 202.097151 
L 257.42253 202.393322 
L 257.429893 202.856093 
L 257.436714 203.318865 
L 257.443529 203.781636 
L 257.450338 204.244407 
L 257.457154 204.707179 
L 257.463952 205.16995 
L 257.470759 205.632721 
L 257.477557 206.095492 
L 257.476683 206.558264 
L 257.39399 206.828095 
L 257.33461 207.021035 
L 257.192122 207.483806 
L 257.049288 207.946578 
L 256.928214 208.341551 
L 256.907348 208.409349 
L 256.764006 208.87212 
L 256.621424 209.334891 
L 256.47895 209.797663 
L 256.462437 209.851114 
L 256.335675 210.260434 
L 256.193035 210.723205 
L 256.05008 211.185977 
L 255.996661 211.358902 
L 255.907126 211.648748 
L 255.764168 212.111519 
L 255.621215 212.57429 
L 255.530885 212.866715 
L 255.478265 213.037062 
L 255.335301 213.499833 
L 255.192346 213.962604 
L 255.065109 214.374505 
L 255.049395 214.425376 
L 254.90644 214.888147 
L 254.763484 215.350918 
L 254.620532 215.813689 
L 254.599332 215.882312 
L 254.477568 216.276461 
L 254.334617 216.739232 
L 254.191666 217.202003 
L 254.133556 217.390105 
L 254.048702 217.664775 
L 253.908442 218.127546 
L 253.767249 218.590317 
L 253.66778 218.924764 
L 253.630404 219.053088 
L 253.494734 219.51586 
L 253.360216 219.978631 
L 253.225696 220.441402 
L 253.202003 220.52291 
L 253.091178 220.904174 
L 252.956659 221.366945 
L 252.822142 221.829716 
L 252.736227 222.125283 
L 252.687624 222.292487 
L 252.553102 222.755259 
L 252.418588 223.21803 
L 252.270451 223.650412 
L 252.258872 223.680801 
L 252.037543 224.143573 
L 251.816217 224.606344 
L 251.804674 224.630478 
L 251.594891 225.069115 
L 251.373568 225.531886 
L 251.338898 225.596861 
L 251.105185 225.994658 
L 250.873122 226.315776 
L 250.770753 226.457429 
L 250.436314 226.9202 
L 250.407346 226.960284 
L 250.101878 227.382972 
L 249.941569 227.604802 
L 249.767448 227.845743 
L 249.475793 228.249324 
L 249.433018 228.308514 
L 249.098583 228.771285 
L 249.010017 228.893838 
L 248.764148 229.234057 
L 248.54424 229.538356 
L 248.429718 229.696828 
L 248.098611 230.159599 
L 248.078464 230.187954 
L 247.769797 230.622371 
L 247.612688 230.843474 
L 247.440967 231.085142 
L 247.146912 231.49898 
L 247.112142 231.547913 
L 246.783321 232.010684 
L 246.681135 232.154493 
L 246.454491 232.473456 
L 246.215359 232.809996 
L 246.121661 232.936227 
L 245.749583 233.284913 
L 245.612492 233.398998 
L 245.283806 233.672528 
L 245.067044 233.86177 
L 244.81803 234.109927 
L 244.603903 234.324541 
L 244.352254 234.57676 
L 244.14218 234.787312 
L 243.886477 235.043594 
L 243.680453 235.250083 
L 243.420701 235.510423 
L 243.218726 235.712855 
L 242.954925 235.977247 
L 242.756997 236.175626 
L 242.489149 236.444084 
L 242.295269 236.638397 
L 242.023372 236.910908 
L 241.833543 237.101169 
L 241.557596 237.377741 
L 241.371815 237.56394 
L 241.09182 237.844572 
L 240.910094 238.026711 
L 240.626043 238.311403 
L 240.448365 238.489482 
L 240.160267 238.77823 
L 239.986642 238.952254 
L 239.694491 239.245071 
L 239.524918 239.415025 
L 239.228715 239.711895 
L 239.063184 239.877796 
L 238.762938 240.174447 
L 238.575946 240.340568 
L 238.297162 240.571315 
L 238.016835 240.803339 
L 237.831386 240.956835 
L 237.457732 241.26611 
L 237.365609 241.34236 
L 236.899833 241.727886 
L 236.89863 241.728881 
L 236.434057 242.113418 
L 236.339534 242.191653 
L 235.96828 242.498928 
L 235.780414 242.654424 
L 235.502504 242.884448 
L 235.208575 243.117195 
L 235.036728 243.248863 
L 234.570952 243.578423 
L 234.56877 243.579967 
L 234.105175 243.907991 
L 233.914738 244.042738 
L 233.639399 244.237557 
L 233.260689 244.505509 
L 233.173623 244.567113 
L 232.707846 244.896676 
L 232.606643 244.96828 
L 232.24207 245.226226 
L 231.952581 245.431052 
L 231.776294 245.55578 
L 231.310518 245.873622 
L 231.277254 245.893823 
L 230.844741 246.152093 
L 230.499814 246.356594 
L 230.378965 246.428289 
L 229.913189 246.704302 
L 229.719021 246.819366 
L 229.447412 246.98032 
L 228.981636 247.256342 
L 228.938109 247.282137 
L 228.51586 247.532366 
L 228.157198 247.744908 
L 228.050083 247.808383 
L 227.584307 248.084397 
L 227.376265 248.207679 
L 227.118531 248.360407 
L 226.652755 248.636413 
L 226.595315 248.670451 
L 226.186978 248.912433 
L 225.797257 249.133222 
L 225.721202 249.17259 
L 225.255426 249.387859 
L 224.835042 249.595993 
L 224.789649 249.618468 
L 224.323873 249.849081 
L 223.900379 250.058765 
L 223.858097 250.0797 
L 223.392321 250.310311 
L 222.965694 250.521536 
L 222.926544 250.540919 
L 222.460768 250.77153 
L 222.031018 250.984307 
L 221.994992 251.002145 
L 221.529215 251.258374 
L 221.245787 251.447078 
L 221.063439 251.56848 
L 220.597663 251.878583 
L 220.550701 251.90985 
L 220.131886 252.188689 
L 219.855626 252.372621 
L 219.66611 252.4988 
L 219.200334 252.808911 
L 219.160559 252.835392 
L 218.734558 253.11901 
L 218.46548 253.298164 
L 218.268781 253.429127 
L 217.803005 253.739232 
L 217.770409 253.760935 
L 217.337229 254.049337 
L 217.075333 254.223706 
L 216.871452 254.35945 
L 216.405676 254.669546 
L 216.380245 254.686477 
L 215.9399 254.979647 
L 215.685168 255.149249 
L 215.474124 255.289316 
L 215.008347 255.599436 
L 214.989455 255.61202 
L 214.542571 255.907833 
L 214.290821 256.074791 
L 214.076795 256.216549 
L 213.611018 256.525157 
L 213.593434 256.537563 
L 213.145242 256.844793 
L 212.89168 257.000334 
L 212.679466 257.123369 
L 212.213689 257.33168 
L 211.919834 257.463105 
L 211.747913 257.539996 
L 211.282137 257.748302 
L 210.885079 257.925876 
L 210.816361 257.956609 
L 210.350584 258.158416 
L 209.884808 258.31187 
L 209.650127 258.388648 
L 209.419032 258.46425 
L 208.953255 258.616638 
L 208.487479 258.762967 
L 208.152838 258.851419 
L 208.021703 258.883129 
L 207.555927 258.995759 
L 207.09015 259.108396 
L 206.624374 259.221023 
L 206.239082 259.31419 
L 206.158598 259.333652 
L 205.692821 259.447782 
L 205.227045 259.607074 
L 204.761269 259.745614 
L 204.621715 259.776962 
L 204.295492 259.850239 
L 203.829716 259.954858 
L 203.36394 260.059483 
L 202.898164 260.164101 
L 202.561424 260.239733 
L 202.432387 260.268715 
L 201.966611 260.37334 
L 201.500835 260.477961 
L 201.035058 260.582582 
L 200.569282 260.687206 
L 200.501167 260.702504 
L 200.103506 260.791815 
L 199.63773 260.896442 
L 199.171953 261.001063 
L 198.706177 261.105683 
L 198.440862 261.165275 
L 198.240401 261.210302 
L 197.774624 261.314926 
L 197.308848 261.419544 
L 196.843072 261.524168 
L 196.380608 261.628047 
L 196.377295 261.628791 
L 195.911519 261.733407 
L 195.445743 261.837984 
L 194.979967 261.942529 
L 194.51419 262.047002 
L 194.31876 262.090818 
L 194.048414 262.151429 
L 193.582638 262.206277 
L 193.116861 262.232441 
L 192.651085 262.258607 
L 192.185309 262.284765 
L 191.719533 262.310929 
L 191.253756 262.337091 
L 190.78798 262.363259 
L 190.322204 262.38942 
L 189.856427 262.415583 
L 189.390651 262.441748 
L 188.924875 262.467906 
L 188.459098 262.494072 
L 187.993322 262.520239 
L 187.527546 262.546398 
L 187.3995 262.553589 
L 187.06177 262.572557 
L 186.595993 262.598722 
L 186.130217 262.624888 
L 185.664441 262.651052 
L 185.198664 262.677205 
L 184.732888 262.703371 
L 184.267112 262.729533 
L 183.801336 262.755694 
L 183.335559 262.78186 
L 182.869783 262.80821 
L 182.404007 262.84363 
L 181.93823 262.879247 
L 181.472454 262.914875 
L 181.006678 262.950496 
L 180.540902 262.986105 
L 180.145319 263.016361 
L 180.075125 263.02173 
z
" clip-path="url(#pda4c5a8201)" style="fill: none; stroke: #000000; stroke-width: 1.5"/>
   </g>
   <g id="patch_3">
    <path d="M 45 320.4 
L 45 43.2 
" style="fill: none; stroke: #000000; stroke-width: 0.8; stroke-linejoin: miter; stroke-linecap: square"/>
   </g>
   <g id="patch_4">
    <path d="M 324 320.4 
L 324 43.2 
" style="fill: none; stroke: #000000; stroke-width: 0.8; stroke-linejoin: miter; stroke-linecap: square"/>
   </g>
   <g id="patch_5">
    <path d="M 45 320.4 
L 324 320.4 
" style="fill: none; stroke: #000000; stroke-width: 0.8; stroke-linejoin: miter; stroke-linecap: square"/>
   </g>
   <g id="patch_6">
    <path d="M 45 43.2 
L 324 43.2 
" style="fill: none; stroke: #000000; stroke-width: 0.8; stroke-linejoin: miter; stroke-linecap: square"/>
   </g>
  </g>
 </g>
 <defs>
  <clipPath id="pda4c5a8201">
   <rect x="45" y="43.2" width="279" height="277.2"/>
  </clipPath>
 </defs>
</svg>
