<?xml version="1.0" encoding="utf-8" standalone="no"?>
<!DOCTYPE svg PUBLIC "-//W3C//DTD SVG 1.1//EN"
  "http://www.w3.org/Graphics/SVG/1.1/DTD/svg11.dtd">
<svg xmlns:xlink="http://www.w3.org/1999/xlink" width="360pt" height="360pt" viewBox="0 0 360 360" xmlns="http://www.w3.org/2000/svg" version="1.1">
 <metadata>
  <rdf:RDF xmlns:dc="http://purl.org/dc/elements/1.1/" xmlns:cc="http://creativecommons.org/ns#" xmlns:rdf="http://www.w3.org/1999/02/22-rdf-syntax-ns#">
   <cc:Work>
    <dc:type rdf:resource="http://purl.org/dc/dcmitype/StillImage"/>
    <dc:date>2022-04-03T22:41:39.850075</dc:date>
    <dc:format>image/svg+xml</dc:format>
    <dc:creator>
     <cc:Agent>
      <dc:title>Matplotlib v3.5.1, https://matplotlib.org/</dc:title>
     </cc:Agent>
    </dc:creator>
   </cc:Work>
  </rdf:RDF>
 </metadata>
 <defs>
  <style type="text/css">*{stroke-linejoin: round; stroke-linecap: butt}</style>
 </defs>
 <g id="figure_1">
  <g id="patch_1">
   <path d="M 0 360 
L 360 360 
L 360 0 
L 0 0 
z
" style="fill: #ffffff"/>
  </g>
  <g id="axes_1">
   <g id="patch_2">
    <path d="M 45 320.4 
L 324 320.4 
L 324 43.2 
L 45 43.2 
z
" style="fill: #ffffff"/>
   </g>
   <g id="PathCollection_1">
    <defs>
     <path id="m5f3475e4a5" d="M 0 0.5 
C 0.132602 0.5 0.25979 0.447317 0.353553 0.353553 
C 0.447317 0.25979 0.5 0.132602 0.5 0 
C 0.5 -0.132602 0.447317 -0.25979 0.353553 -0.353553 
C 0.25979 -0.447317 0.132602 -0.5 0 -0.5 
C -0.132602 -0.5 -0.25979 -0.447317 -0.353553 -0.353553 
C -0.447317 -0.25979 -0.5 -0.132602 -0.5 0 
C -0.5 0.132602 -0.447317 0.25979 -0.353553 0.353553 
C -0.25979 0.447317 -0.132602 0.5 0 0.5 
z
" style="stroke: #ff0000"/>
    </defs>
    <g clip-path="url(#pc2194f920f)">
     <use xlink:href="#m5f3475e4a5" x="226.490706" y="181.568614" style="fill: #ff0000; stroke: #ff0000"/>
     <use xlink:href="#m5f3475e4a5" x="227.736771" y="177.360428" style="fill: #ff0000; stroke: #ff0000"/>
     <use xlink:href="#m5f3475e4a5" x="228.942401" y="172.83153" style="fill: #ff0000; stroke: #ff0000"/>
     <use xlink:href="#m5f3475e4a5" x="229.779651" y="167.991988" style="fill: #ff0000; stroke: #ff0000"/>
     <use xlink:href="#m5f3475e4a5" x="229.9686" y="162.952254" style="fill: #ff0000; stroke: #ff0000"/>
     <use xlink:href="#m5f3475e4a5" x="229.381378" y="157.857468" style="fill: #ff0000; stroke: #ff0000"/>
     <use xlink:href="#m5f3475e4a5" x="228.051198" y="152.810983" style="fill: #ff0000; stroke: #ff0000"/>
     <use xlink:href="#m5f3475e4a5" x="226.092069" y="147.844997" style="fill: #ff0000; stroke: #ff0000"/>
     <use xlink:href="#m5f3475e4a5" x="223.594542" y="142.95768" style="fill: #ff0000; stroke: #ff0000"/>
     <use xlink:href="#m5f3475e4a5" x="220.569896" y="138.182819" style="fill: #ff0000; stroke: #ff0000"/>
     <use xlink:href="#m5f3475e4a5" x="216.969244" y="133.634756" style="fill: #ff0000; stroke: #ff0000"/>
     <use xlink:href="#m5f3475e4a5" x="212.746846" y="129.496317" style="fill: #ff0000; stroke: #ff0000"/>
     <use xlink:href="#m5f3475e4a5" x="207.914095" y="125.965291" style="fill: #ff0000; stroke: #ff0000"/>
     <use xlink:href="#m5f3475e4a5" x="202.552906" y="123.202887" style="fill: #ff0000; stroke: #ff0000"/>
     <use xlink:href="#m5f3475e4a5" x="196.79601" y="121.314465" style="fill: #ff0000; stroke: #ff0000"/>
     <use xlink:href="#m5f3475e4a5" x="190.800773" y="120.357822" style="fill: #ff0000; stroke: #ff0000"/>
     <use xlink:href="#m5f3475e4a5" x="184.732888" y="120.353515" style="fill: #ff0000; stroke: #ff0000"/>
     <use xlink:href="#m5f3475e4a5" x="178.756549" y="121.2813" style="fill: #ff0000; stroke: #ff0000"/>
     <use xlink:href="#m5f3475e4a5" x="173.021146" y="123.069575" style="fill: #ff0000; stroke: #ff0000"/>
     <use xlink:href="#m5f3475e4a5" x="167.643122" y="125.594674" style="fill: #ff0000; stroke: #ff0000"/>
     <use xlink:href="#m5f3475e4a5" x="162.690644" y="128.697249" style="fill: #ff0000; stroke: #ff0000"/>
     <use xlink:href="#m5f3475e4a5" x="158.178515" y="132.209391" style="fill: #ff0000; stroke: #ff0000"/>
     <use xlink:href="#m5f3475e4a5" x="154.075472" y="135.982561" style="fill: #ff0000; stroke: #ff0000"/>
     <use xlink:href="#m5f3475e4a5" x="150.323272" y="139.910881" style="fill: #ff0000; stroke: #ff0000"/>
     <use xlink:href="#m5f3475e4a5" x="146.866001" y="143.94603" style="fill: #ff0000; stroke: #ff0000"/>
     <use xlink:href="#m5f3475e4a5" x="143.682928" y="148.09713" style="fill: #ff0000; stroke: #ff0000"/>
     <use xlink:href="#m5f3475e4a5" x="140.810583" y="152.41001" style="fill: #ff0000; stroke: #ff0000"/>
     <use xlink:href="#m5f3475e4a5" x="138.33898" y="156.930541" style="fill: #ff0000; stroke: #ff0000"/>
     <use xlink:href="#m5f3475e4a5" x="136.379556" y="161.669225" style="fill: #ff0000; stroke: #ff0000"/>
     <use xlink:href="#m5f3475e4a5" x="135.021159" y="166.586016" style="fill: #ff0000; stroke: #ff0000"/>
     <use xlink:href="#m5f3475e4a5" x="134.299785" y="171.601567" style="fill: #ff0000; stroke: #ff0000"/>
     <use xlink:href="#m5f3475e4a5" x="134.198403" y="176.623513" style="fill: #ff0000; stroke: #ff0000"/>
     <use xlink:href="#m5f3475e4a5" x="134.672069" y="181.568614" style="fill: #ff0000; stroke: #ff0000"/>
     <use xlink:href="#m5f3475e4a5" x="135.67745" y="186.368982" style="fill: #ff0000; stroke: #ff0000"/>
     <use xlink:href="#m5f3475e4a5" x="137.186393" y="190.965184" style="fill: #ff0000; stroke: #ff0000"/>
     <use xlink:href="#m5f3475e4a5" x="139.177057" y="195.298668" style="fill: #ff0000; stroke: #ff0000"/>
     <use xlink:href="#m5f3475e4a5" x="141.611441" y="199.314867" style="fill: #ff0000; stroke: #ff0000"/>
     <use xlink:href="#m5f3475e4a5" x="144.415151" y="202.97986" style="fill: #ff0000; stroke: #ff0000"/>
     <use xlink:href="#m5f3475e4a5" x="147.472906" y="206.304317" style="fill: #ff0000; stroke: #ff0000"/>
     <use xlink:href="#m5f3475e4a5" x="150.64602" y="209.362504" style="fill: #ff0000; stroke: #ff0000"/>
     <use xlink:href="#m5f3475e4a5" x="153.809897" y="212.292102" style="fill: #ff0000; stroke: #ff0000"/>
     <use xlink:href="#m5f3475e4a5" x="156.900496" y="215.263684" style="fill: #ff0000; stroke: #ff0000"/>
     <use xlink:href="#m5f3475e4a5" x="159.949579" y="218.420162" style="fill: #ff0000; stroke: #ff0000"/>
     <use xlink:href="#m5f3475e4a5" x="163.086077" y="221.80567" style="fill: #ff0000; stroke: #ff0000"/>
     <use xlink:href="#m5f3475e4a5" x="166.493311" y="225.318757" style="fill: #ff0000; stroke: #ff0000"/>
     <use xlink:href="#m5f3475e4a5" x="170.336717" y="228.720252" style="fill: #ff0000; stroke: #ff0000"/>
     <use xlink:href="#m5f3475e4a5" x="174.696781" y="231.698015" style="fill: #ff0000; stroke: #ff0000"/>
     <use xlink:href="#m5f3475e4a5" x="179.539593" y="233.956842" style="fill: #ff0000; stroke: #ff0000"/>
     <use xlink:href="#m5f3475e4a5" x="184.732888" y="235.288307" style="fill: #ff0000; stroke: #ff0000"/>
     <use xlink:href="#m5f3475e4a5" x="190.088398" y="235.593213" style="fill: #ff0000; stroke: #ff0000"/>
     <use xlink:href="#m5f3475e4a5" x="195.402718" y="234.863399" style="fill: #ff0000; stroke: #ff0000"/>
     <use xlink:href="#m5f3475e4a5" x="200.48223" y="233.152279" style="fill: #ff0000; stroke: #ff0000"/>
     <use xlink:href="#m5f3475e4a5" x="205.157132" y="230.558982" style="fill: #ff0000; stroke: #ff0000"/>
     <use xlink:href="#m5f3475e4a5" x="209.296612" y="227.227622" style="fill: #ff0000; stroke: #ff0000"/>
     <use xlink:href="#m5f3475e4a5" x="212.827556" y="223.343987" style="fill: #ff0000; stroke: #ff0000"/>
     <use xlink:href="#m5f3475e4a5" x="215.745332" y="219.113588" style="fill: #ff0000; stroke: #ff0000"/>
     <use xlink:href="#m5f3475e4a5" x="218.103185" y="214.723619" style="fill: #ff0000; stroke: #ff0000"/>
     <use xlink:href="#m5f3475e4a5" x="219.980687" y="210.309109" style="fill: #ff0000; stroke: #ff0000"/>
     <use xlink:href="#m5f3475e4a5" x="221.450197" y="205.944054" style="fill: #ff0000; stroke: #ff0000"/>
     <use xlink:href="#m5f3475e4a5" x="222.566805" y="201.660796" style="fill: #ff0000; stroke: #ff0000"/>
     <use xlink:href="#m5f3475e4a5" x="223.392242" y="197.478532" style="fill: #ff0000; stroke: #ff0000"/>
     <use xlink:href="#m5f3475e4a5" x="224.033825" y="193.413508" style="fill: #ff0000; stroke: #ff0000"/>
     <use xlink:href="#m5f3475e4a5" x="224.657519" y="189.458882" style="fill: #ff0000; stroke: #ff0000"/>
     <use xlink:href="#m5f3475e4a5" x="225.443016" y="185.552344" style="fill: #ff0000; stroke: #ff0000"/>
    </g>
   </g>
   <g id="matplotlib.axis_1">
    <g id="xtick_1">
     <g id="line2d_1">
      <defs>
       <path id="m0834795053" d="M 0 0 
L 0 3.5 
" style="stroke: #000000; stroke-width: 0.8"/>
      </defs>
      <g>
       <use xlink:href="#m0834795053" x="45" y="320.4" style="stroke: #000000; stroke-width: 0.8"/>
      </g>
     </g>
     <g id="text_1">
      <!-- −3 -->
      <g transform="translate(37.628906 334.998438)scale(0.1 -0.1)">
       <defs>
        <path id="DejaVuSans-2212" d="M 678 2272 
L 4684 2272 
L 4684 1741 
L 678 1741 
L 678 2272 
z
" transform="scale(0.015625)"/>
        <path id="DejaVuSans-33" d="M 2597 2516 
Q 3050 2419 3304 2112 
Q 3559 1806 3559 1356 
Q 3559 666 3084 287 
Q 2609 -91 1734 -91 
Q 1441 -91 1130 -33 
Q 819 25 488 141 
L 488 750 
Q 750 597 1062 519 
Q 1375 441 1716 441 
Q 2309 441 2620 675 
Q 2931 909 2931 1356 
Q 2931 1769 2642 2001 
Q 2353 2234 1838 2234 
L 1294 2234 
L 1294 2753 
L 1863 2753 
Q 2328 2753 2575 2939 
Q 2822 3125 2822 3475 
Q 2822 3834 2567 4026 
Q 2313 4219 1838 4219 
Q 1578 4219 1281 4162 
Q 984 4106 628 3988 
L 628 4550 
Q 988 4650 1302 4700 
Q 1616 4750 1894 4750 
Q 2613 4750 3031 4423 
Q 3450 4097 3450 3541 
Q 3450 3153 3228 2886 
Q 3006 2619 2597 2516 
z
" transform="scale(0.015625)"/>
       </defs>
       <use xlink:href="#DejaVuSans-2212"/>
       <use xlink:href="#DejaVuSans-33" x="83.789062"/>
      </g>
     </g>
    </g>
    <g id="xtick_2">
     <g id="line2d_2">
      <g>
       <use xlink:href="#m0834795053" x="91.577629" y="320.4" style="stroke: #000000; stroke-width: 0.8"/>
      </g>
     </g>
     <g id="text_2">
      <!-- −2 -->
      <g transform="translate(84.206536 334.998438)scale(0.1 -0.1)">
       <defs>
        <path id="DejaVuSans-32" d="M 1228 531 
L 3431 531 
L 3431 0 
L 469 0 
L 469 531 
Q 828 903 1448 1529 
Q 2069 2156 2228 2338 
Q 2531 2678 2651 2914 
Q 2772 3150 2772 3378 
Q 2772 3750 2511 3984 
Q 2250 4219 1831 4219 
Q 1534 4219 1204 4116 
Q 875 4013 500 3803 
L 500 4441 
Q 881 4594 1212 4672 
Q 1544 4750 1819 4750 
Q 2544 4750 2975 4387 
Q 3406 4025 3406 3419 
Q 3406 3131 3298 2873 
Q 3191 2616 2906 2266 
Q 2828 2175 2409 1742 
Q 1991 1309 1228 531 
z
" transform="scale(0.015625)"/>
       </defs>
       <use xlink:href="#DejaVuSans-2212"/>
       <use xlink:href="#DejaVuSans-32" x="83.789062"/>
      </g>
     </g>
    </g>
    <g id="xtick_3">
     <g id="line2d_3">
      <g>
       <use xlink:href="#m0834795053" x="138.155259" y="320.4" style="stroke: #000000; stroke-width: 0.8"/>
      </g>
     </g>
     <g id="text_3">
      <!-- −1 -->
      <g transform="translate(130.784165 334.998438)scale(0.1 -0.1)">
       <defs>
        <path id="DejaVuSans-31" d="M 794 531 
L 1825 531 
L 1825 4091 
L 703 3866 
L 703 4441 
L 1819 4666 
L 2450 4666 
L 2450 531 
L 3481 531 
L 3481 0 
L 794 0 
L 794 531 
z
" transform="scale(0.015625)"/>
       </defs>
       <use xlink:href="#DejaVuSans-2212"/>
       <use xlink:href="#DejaVuSans-31" x="83.789062"/>
      </g>
     </g>
    </g>
    <g id="xtick_4">
     <g id="line2d_4">
      <g>
       <use xlink:href="#m0834795053" x="184.732888" y="320.4" style="stroke: #000000; stroke-width: 0.8"/>
      </g>
     </g>
     <g id="text_4">
      <!-- 0 -->
      <g transform="translate(181.551638 334.998438)scale(0.1 -0.1)">
       <defs>
        <path id="DejaVuSans-30" d="M 2034 4250 
Q 1547 4250 1301 3770 
Q 1056 3291 1056 2328 
Q 1056 1369 1301 889 
Q 1547 409 2034 409 
Q 2525 409 2770 889 
Q 3016 1369 3016 2328 
Q 3016 3291 2770 3770 
Q 2525 4250 2034 4250 
z
M 2034 4750 
Q 2819 4750 3233 4129 
Q 3647 3509 3647 2328 
Q 3647 1150 3233 529 
Q 2819 -91 2034 -91 
Q 1250 -91 836 529 
Q 422 1150 422 2328 
Q 422 3509 836 4129 
Q 1250 4750 2034 4750 
z
" transform="scale(0.015625)"/>
       </defs>
       <use xlink:href="#DejaVuSans-30"/>
      </g>
     </g>
    </g>
    <g id="xtick_5">
     <g id="line2d_5">
      <g>
       <use xlink:href="#m0834795053" x="231.310518" y="320.4" style="stroke: #000000; stroke-width: 0.8"/>
      </g>
     </g>
     <g id="text_5">
      <!-- 1 -->
      <g transform="translate(228.129268 334.998438)scale(0.1 -0.1)">
       <use xlink:href="#DejaVuSans-31"/>
      </g>
     </g>
    </g>
    <g id="xtick_6">
     <g id="line2d_6">
      <g>
       <use xlink:href="#m0834795053" x="277.888147" y="320.4" style="stroke: #000000; stroke-width: 0.8"/>
      </g>
     </g>
     <g id="text_6">
      <!-- 2 -->
      <g transform="translate(274.706897 334.998438)scale(0.1 -0.1)">
       <use xlink:href="#DejaVuSans-32"/>
      </g>
     </g>
    </g>
   </g>
   <g id="matplotlib.axis_2">
    <g id="ytick_1">
     <g id="line2d_7">
      <defs>
       <path id="mb156da0f10" d="M 0 0 
L -3.5 0 
" style="stroke: #000000; stroke-width: 0.8"/>
      </defs>
      <g>
       <use xlink:href="#mb156da0f10" x="45" y="320.4" style="stroke: #000000; stroke-width: 0.8"/>
      </g>
     </g>
     <g id="text_7">
      <!-- −3 -->
      <g transform="translate(23.257812 324.199219)scale(0.1 -0.1)">
       <use xlink:href="#DejaVuSans-2212"/>
       <use xlink:href="#DejaVuSans-33" x="83.789062"/>
      </g>
     </g>
    </g>
    <g id="ytick_2">
     <g id="line2d_8">
      <g>
       <use xlink:href="#mb156da0f10" x="45" y="274.122871" style="stroke: #000000; stroke-width: 0.8"/>
      </g>
     </g>
     <g id="text_8">
      <!-- −2 -->
      <g transform="translate(23.257812 277.92209)scale(0.1 -0.1)">
       <use xlink:href="#DejaVuSans-2212"/>
       <use xlink:href="#DejaVuSans-32" x="83.789062"/>
      </g>
     </g>
    </g>
    <g id="ytick_3">
     <g id="line2d_9">
      <g>
       <use xlink:href="#mb156da0f10" x="45" y="227.845743" style="stroke: #000000; stroke-width: 0.8"/>
      </g>
     </g>
     <g id="text_9">
      <!-- −1 -->
      <g transform="translate(23.257812 231.644962)scale(0.1 -0.1)">
       <use xlink:href="#DejaVuSans-2212"/>
       <use xlink:href="#DejaVuSans-31" x="83.789062"/>
      </g>
     </g>
    </g>
    <g id="ytick_4">
     <g id="line2d_10">
      <g>
       <use xlink:href="#mb156da0f10" x="45" y="181.568614" style="stroke: #000000; stroke-width: 0.8"/>
      </g>
     </g>
     <g id="text_10">
      <!-- 0 -->
      <g transform="translate(31.6375 185.367833)scale(0.1 -0.1)">
       <use xlink:href="#DejaVuSans-30"/>
      </g>
     </g>
    </g>
    <g id="ytick_5">
     <g id="line2d_11">
      <g>
       <use xlink:href="#mb156da0f10" x="45" y="135.291486" style="stroke: #000000; stroke-width: 0.8"/>
      </g>
     </g>
     <g id="text_11">
      <!-- 1 -->
      <g transform="translate(31.6375 139.090705)scale(0.1 -0.1)">
       <use xlink:href="#DejaVuSans-31"/>
      </g>
     </g>
    </g>
    <g id="ytick_6">
     <g id="line2d_12">
      <g>
       <use xlink:href="#mb156da0f10" x="45" y="89.014357" style="stroke: #000000; stroke-width: 0.8"/>
      </g>
     </g>
     <g id="text_12">
      <!-- 2 -->
      <g transform="translate(31.6375 92.813576)scale(0.1 -0.1)">
       <use xlink:href="#DejaVuSans-32"/>
      </g>
     </g>
    </g>
   </g>
   <g id="PathCollection_2">
    <path d="M 190.322204 214.572945 
L 189.938726 214.425376 
L 189.856427 214.395585 
L 189.390651 214.15632 
L 189.036151 213.962604 
L 188.924875 213.903664 
L 188.459098 213.626024 
L 188.266133 213.499833 
L 187.993322 213.295821 
L 187.649685 213.037062 
L 187.527546 212.945089 
L 187.06177 212.594359 
L 187.035119 212.57429 
L 186.595993 212.243623 
L 186.43197 212.111519 
L 186.130217 211.875459 
L 185.856166 211.648748 
L 185.664441 211.471231 
L 185.198664 211.216919 
L 185.119402 211.185977 
L 184.732888 211.006465 
L 184.437128 210.723205 
L 184.267112 210.527003 
L 184.036124 210.260434 
L 183.801336 209.989478 
L 183.635123 209.797663 
L 183.335559 209.451955 
L 183.234122 209.334891 
L 182.869783 208.914427 
L 182.833122 208.87212 
L 182.432118 208.409349 
L 182.404007 208.376617 
L 182.03183 207.946578 
L 181.93823 207.836503 
L 181.63375 207.483806 
L 181.472454 207.293589 
L 181.237764 207.021035 
L 181.006678 206.747715 
L 180.8461 206.558264 
L 180.540902 206.197118 
L 180.450775 206.095492 
L 180.075125 205.748197 
L 179.958399 205.632721 
L 179.609349 205.265362 
L 179.521291 205.16995 
L 179.143573 204.760687 
L 179.094187 204.707179 
L 178.677796 204.256014 
L 178.665431 204.244407 
L 178.21202 203.830982 
L 178.155812 203.781636 
L 177.746244 203.422075 
L 177.62868 203.318865 
L 177.280467 203.013162 
L 177.101555 202.856093 
L 176.814691 202.604258 
L 176.57442 202.393322 
L 176.348915 202.19535 
L 176.047288 201.930551 
L 175.883139 201.786442 
L 175.520153 201.46778 
L 175.417362 201.377541 
L 174.993015 201.005008 
L 174.951586 200.968638 
L 174.48581 200.559723 
L 174.465891 200.542237 
L 174.020033 200.161031 
L 173.912305 200.079466 
L 173.554257 199.810894 
L 173.286587 199.616694 
L 173.088481 199.472961 
L 172.648748 199.153923 
L 172.622705 199.135028 
L 172.156928 198.797092 
L 172.010909 198.691152 
L 171.691152 198.486295 
L 171.335432 198.228381 
L 171.225376 198.159358 
L 170.759599 197.855457 
L 170.637264 197.765609 
L 170.293823 197.518017 
L 169.995337 197.302838 
L 169.828047 197.182238 
L 169.390274 196.840067 
L 169.36227 196.814516 
L 168.896494 196.42644 
L 168.837998 196.377295 
L 168.430718 195.962753 
L 168.370552 195.914524 
L 167.964942 195.488276 
L 167.92794 195.451753 
L 167.499165 195.094011 
L 167.373282 194.988982 
L 167.033389 194.705394 
L 166.818624 194.52621 
L 166.567613 194.316784 
L 166.263968 194.063439 
L 166.101836 193.880795 
L 165.869797 193.600668 
L 165.63606 193.298637 
L 165.511666 193.137896 
L 165.170284 192.696769 
L 165.153534 192.675125 
L 164.795399 192.212354 
L 164.704508 192.094905 
L 164.437272 191.749583 
L 164.238731 191.493035 
L 164.079136 191.286811 
L 163.772955 190.891169 
L 163.721006 190.82404 
L 163.362869 190.361269 
L 163.307179 190.289305 
L 163.004742 189.898497 
L 162.841402 189.687435 
L 162.646608 189.435726 
L 162.375626 189.085567 
L 162.28848 188.972955 
L 161.930345 188.510184 
L 161.90985 188.48281 
L 161.680342 188.047412 
L 161.447332 187.584641 
L 161.444073 187.578169 
L 161.214319 187.12187 
L 160.981299 186.659098 
L 160.978297 186.653136 
L 160.748288 186.196327 
L 160.51528 185.733556 
L 160.512521 185.728077 
L 160.282267 185.270785 
L 160.049181 184.808013 
L 160.046745 184.803136 
L 159.81366 184.345242 
L 159.583085 183.882471 
L 159.580968 183.878387 
L 159.33892 183.419699 
L 159.115192 182.980426 
L 159.103001 182.956928 
L 158.862007 182.494157 
L 158.649416 182.08681 
L 158.619827 182.031386 
L 158.40117 181.568614 
L 158.183639 181.171489 
L 158.147681 181.105843 
L 157.894194 180.643072 
L 157.717863 180.321163 
L 157.640704 180.180301 
L 157.413819 179.717529 
L 157.391467 179.254758 
L 157.374881 178.791987 
L 157.358289 178.329215 
L 157.341702 177.866444 
L 157.325105 177.403673 
L 157.308517 176.940902 
L 157.291928 176.47813 
L 157.275338 176.015359 
L 157.338769 175.552588 
L 157.523227 175.089816 
L 157.708169 174.627045 
L 157.717863 174.603363 
L 157.900869 174.164274 
L 158.092992 173.701503 
L 158.183639 173.498376 
L 158.300209 173.238731 
L 158.506021 172.77596 
L 158.649416 172.454636 
L 158.712431 172.313189 
L 158.921728 171.850417 
L 159.115192 171.428588 
L 159.133969 171.387646 
L 159.331725 170.924875 
L 159.531745 170.462104 
L 159.580968 170.341818 
L 159.721119 169.999332 
L 159.8802 169.536561 
L 160.023128 169.07379 
L 160.046745 168.903125 
L 160.090115 168.611018 
L 160.092102 168.148247 
L 160.121268 167.685476 
L 160.336295 167.222705 
L 160.512521 166.843427 
L 160.551315 166.759933 
L 160.766341 166.297162 
L 160.978297 165.841001 
L 160.981369 165.834391 
L 161.196393 165.371619 
L 161.377969 164.908848 
L 161.444073 164.718148 
L 161.524971 164.446077 
L 161.662571 163.983306 
L 161.800164 163.520534 
L 161.90985 163.151652 
L 161.937767 163.057763 
L 162.075364 162.594992 
L 162.21297 162.13222 
L 162.352061 161.669449 
L 162.375626 161.588852 
L 162.492866 161.206678 
L 162.66623 160.743907 
L 162.841402 160.294294 
L 162.846745 160.281135 
L 163.034891 159.818364 
L 163.223402 159.355593 
L 163.307179 159.192208 
L 163.456799 158.892821 
L 163.72766 158.43005 
L 163.772955 158.352665 
L 163.998527 157.967279 
L 164.238731 157.568566 
L 164.282135 157.504508 
L 164.704508 157.05879 
L 164.721983 157.041736 
L 165.170284 156.604266 
L 165.196212 156.578965 
L 165.63606 156.149745 
L 165.670442 156.116194 
L 166.101836 155.695217 
L 166.144186 155.653422 
L 166.567613 155.215118 
L 166.590317 155.190651 
L 167.019745 154.72788 
L 167.033389 154.713177 
L 167.449172 154.265109 
L 167.499165 154.211234 
L 167.878605 153.802337 
L 167.964942 153.709298 
L 168.308033 153.339566 
L 168.430718 153.207353 
L 168.838552 152.876795 
L 168.896494 152.832809 
L 169.36227 152.675417 
L 169.828047 152.523063 
L 170.161373 152.414023 
L 170.293823 152.370696 
L 170.759599 152.218333 
L 171.225376 152.000825 
L 171.293107 151.951252 
L 171.691152 151.659914 
L 171.925378 151.488481 
L 172.156928 151.31901 
L 172.557657 151.02571 
L 172.622705 150.978101 
L 173.088481 150.637192 
L 173.189936 150.562938 
L 173.554257 150.296292 
L 173.822222 150.100167 
L 174.020033 149.955388 
L 174.454499 149.637396 
L 174.48581 149.614479 
L 174.951586 149.273575 
L 175.086781 149.174624 
L 175.417362 148.932669 
L 175.652131 148.711853 
L 175.883139 148.518737 
L 176.120433 148.249082 
L 176.348915 147.98944 
L 176.527665 147.786311 
L 176.814691 147.460133 
L 176.93489 147.323539 
L 177.280467 146.93083 
L 177.34212 146.860768 
L 177.746244 146.401526 
L 177.752497 146.397997 
L 178.21202 146.208031 
L 178.677796 146.135979 
L 179.143573 146.063921 
L 179.603203 145.935225 
L 179.609349 145.933697 
L 180.075125 145.711856 
L 180.540902 145.489993 
L 180.577724 145.472454 
L 181.006678 145.26814 
L 181.472454 145.04629 
L 181.552147 145.009683 
L 181.93823 144.834825 
L 182.404007 144.627574 
L 182.585293 144.546912 
L 182.869783 144.420329 
L 183.335559 144.213079 
L 183.625341 144.08414 
L 183.801336 144.005831 
L 184.267112 143.798584 
L 184.665385 143.621369 
L 184.732888 143.591358 
L 185.198664 143.384089 
L 185.664441 143.17883 
L 185.718263 143.158598 
L 186.130217 143.002274 
L 186.595993 142.8606 
L 187.06177 142.754699 
L 187.320728 142.695826 
L 187.527546 142.649105 
L 187.993322 142.543492 
L 188.459098 142.437349 
L 188.924875 142.351434 
L 189.390651 142.378937 
L 189.856427 142.406625 
L 190.322204 142.434216 
L 190.78798 142.461708 
L 191.253756 142.489114 
L 191.719533 142.621296 
L 191.847849 142.695826 
L 192.185309 142.893772 
L 192.638319 143.158598 
L 192.651085 143.166076 
L 193.116861 143.438917 
L 193.376383 143.621369 
L 193.582638 143.767648 
L 194.02085 144.08414 
L 194.048414 144.104048 
L 194.51419 144.431426 
L 194.693769 144.546912 
L 194.979967 144.730114 
L 195.413606 145.009683 
L 195.445743 145.03532 
L 195.859267 145.472454 
L 195.911519 145.542285 
L 196.19766 145.935225 
L 196.377295 146.182654 
L 196.533635 146.397997 
L 196.843072 146.824216 
L 196.869608 146.860768 
L 197.205578 147.323539 
L 197.308848 147.46578 
L 197.541554 147.786311 
L 197.774624 148.107339 
L 197.877531 148.249082 
L 198.213507 148.711853 
L 198.240401 148.748897 
L 198.549477 149.174624 
L 198.706177 149.390463 
L 198.88545 149.637396 
L 199.171953 150.032043 
L 199.235853 150.100167 
L 199.63773 150.393276 
L 199.881963 150.562938 
L 200.103506 150.716835 
L 200.54814 151.02571 
L 200.569282 151.040396 
L 201.035058 151.363952 
L 201.214325 151.488481 
L 201.500835 151.68751 
L 201.880503 151.951252 
L 201.966611 152.011068 
L 202.432387 152.32158 
L 202.601806 152.414023 
L 202.898164 152.588143 
L 203.36394 152.827274 
L 203.431308 152.876795 
L 203.829716 153.310192 
L 203.851479 153.339566 
L 204.164934 153.802337 
L 204.295492 154.060341 
L 204.37524 154.265109 
L 204.556505 154.72788 
L 204.737333 155.190651 
L 204.761269 155.255943 
L 204.874563 155.653422 
L 205.015821 156.116194 
L 205.152752 156.578965 
L 205.227045 156.830047 
L 205.289684 157.041736 
L 205.426619 157.504508 
L 205.563553 157.967279 
L 205.692821 158.404145 
L 205.700487 158.43005 
L 205.837421 158.892821 
L 205.97435 159.355593 
L 206.111285 159.818364 
L 206.158598 159.978256 
L 206.248223 160.281135 
L 206.385155 160.743907 
L 206.522089 161.206678 
L 206.624374 161.552344 
L 206.659026 161.669449 
L 206.790863 162.13222 
L 206.817007 162.594992 
L 206.840459 163.057763 
L 206.863915 163.520534 
L 206.887372 163.983306 
L 206.910823 164.446077 
L 206.92872 164.908848 
L 206.936736 165.371619 
L 206.94475 165.834391 
L 206.952762 166.297162 
L 206.960775 166.759933 
L 206.96878 167.222705 
L 206.976793 167.685476 
L 206.984809 168.148247 
L 206.992817 168.611018 
L 206.974649 169.07379 
L 206.912167 169.536561 
L 206.849686 169.999332 
L 206.78721 170.462104 
L 206.724725 170.924875 
L 206.662246 171.387646 
L 206.624374 171.594469 
L 206.576402 171.850417 
L 206.441579 172.313189 
L 206.305317 172.77596 
L 206.167556 173.238731 
L 206.158598 173.257708 
L 205.927242 173.701503 
L 205.692821 174.098819 
L 205.656427 174.164274 
L 205.394331 174.627045 
L 205.227045 174.914751 
L 205.14218 175.089816 
L 204.917837 175.552588 
L 204.761269 175.882903 
L 204.699977 176.015359 
L 204.517567 176.47813 
L 204.335159 176.940902 
L 204.295492 177.041536 
L 204.152752 177.403673 
L 203.970348 177.866444 
L 203.829716 178.246818 
L 203.793347 178.329215 
L 203.617713 178.791987 
L 203.446098 179.254758 
L 203.36394 179.484904 
L 203.273485 179.717529 
L 203.116871 180.180301 
L 203.034518 180.643072 
L 202.972235 181.105843 
L 202.909953 181.568614 
L 202.898164 181.656207 
L 202.851763 182.031386 
L 202.808959 182.494157 
L 202.788955 182.956928 
L 202.743358 183.419699 
L 202.697522 183.882471 
L 202.651686 184.345242 
L 202.605852 184.808013 
L 202.560018 185.270785 
L 202.504381 185.733556 
L 202.432387 186.071608 
L 202.405827 186.196327 
L 202.307268 186.659098 
L 202.333112 187.12187 
L 202.394667 187.584641 
L 202.432387 187.868219 
L 202.456223 188.047412 
L 202.517775 188.510184 
L 202.579333 188.972955 
L 202.640885 189.435726 
L 202.627652 189.898497 
L 202.50223 190.361269 
L 202.432387 190.618983 
L 202.376815 190.82404 
L 202.251394 191.286811 
L 202.155718 191.749583 
L 202.089113 192.212354 
L 202.022517 192.675125 
L 201.966611 192.87442 
L 201.882917 193.137896 
L 201.711797 193.600668 
L 201.545381 194.063439 
L 201.500835 194.188695 
L 201.348993 194.52621 
L 201.035058 194.922661 
L 200.980449 194.988982 
L 200.599387 195.451753 
L 200.569282 195.488878 
L 200.238366 195.914524 
L 200.103506 196.106374 
L 199.91306 196.377295 
L 199.63773 196.768976 
L 199.587757 196.840067 
L 199.262451 197.302838 
L 199.171953 197.43158 
L 198.937148 197.765609 
L 198.706177 198.094183 
L 198.615862 198.228381 
L 198.3202 198.691152 
L 198.240401 198.832382 
L 198.049179 199.153923 
L 197.816792 199.616694 
L 197.774624 199.703343 
L 197.591581 200.079466 
L 197.366366 200.542237 
L 197.308848 200.66043 
L 197.141162 201.005008 
L 196.915951 201.46778 
L 196.843072 201.617534 
L 196.690741 201.930551 
L 196.465536 202.393322 
L 196.377295 202.574643 
L 196.26436 202.856093 
L 196.204778 203.318865 
L 196.152333 203.781636 
L 196.10147 204.244407 
L 196.046284 204.707179 
L 195.911519 205.106315 
L 195.90035 205.16995 
L 195.820582 205.632721 
L 195.723755 206.095492 
L 195.60373 206.558264 
L 195.451054 207.021035 
L 195.445743 207.035148 
L 195.334508 207.483806 
L 195.198996 207.946578 
L 194.993834 208.409349 
L 194.979967 208.433583 
L 194.778755 208.87212 
L 194.591841 209.334891 
L 194.51419 209.482084 
L 194.349386 209.797663 
L 194.103017 210.260434 
L 194.048414 210.362998 
L 193.85665 210.723205 
L 193.590168 211.185977 
L 193.582638 211.198411 
L 193.309917 211.648748 
L 193.116861 211.967528 
L 193.029581 212.111519 
L 192.749409 212.57429 
L 192.651085 212.736649 
L 192.462139 213.037062 
L 192.185309 213.393259 
L 192.06585 213.499833 
L 191.719533 213.835112 
L 191.575561 213.962604 
L 191.253756 214.251445 
L 190.84283 214.425376 
L 190.78798 214.449737 
L 190.322204 214.572945 
z
" clip-path="url(#pc2194f920f)" style="fill: none; stroke-dasharray: 5.55,2.4; stroke-dashoffset: 0; stroke: #000000; stroke-width: 1.5"/>
   </g>
   <g id="PathCollection_3">
    <path d="M 187.993322 236.176187 
L 186.130217 236.061365 
L 183.801336 235.346783 
L 181.006678 234.504093 
L 174.350824 232.010684 
L 168.430718 227.053491 
L 167.881173 226.457429 
L 165.63606 223.422193 
L 165.089801 222.755259 
L 163.307179 220.762071 
L 159.580968 217.594068 
L 153.860823 212.57429 
L 151.662771 210.691977 
L 147.564853 206.558264 
L 144.210351 202.723496 
L 139.979325 198.228381 
L 139.003493 196.840067 
L 135.760621 189.898497 
L 134.610454 183.882471 
L 133.497496 173.204906 
L 133.615402 171.850417 
L 134.580032 164.908848 
L 135.055668 163.057763 
L 136.75793 158.384115 
L 137.689482 156.021146 
L 138.621035 154.549636 
L 140.018364 152.207379 
L 140.679695 151.488481 
L 141.583441 150.562938 
L 144.433702 146.397997 
L 147.005008 143.848525 
L 149.850096 140.844741 
L 153.991653 136.929306 
L 156.309601 134.365943 
L 160.512521 129.691432 
L 161.90985 128.767694 
L 174.951586 122.366282 
L 181.006678 121.866356 
L 186.130217 121.334938 
L 187.993322 121.595863 
L 191.253756 121.092972 
L 192.651085 121.22027 
L 197.308848 122.397555 
L 199.19748 122.796661 
L 204.761269 123.861917 
L 205.692821 124.302128 
L 209.884808 127.640836 
L 215.008347 131.7359 
L 216.179637 132.977629 
L 216.78299 133.903172 
L 217.886831 135.754257 
L 221.128923 138.993656 
L 222.980701 142.695826 
L 226.352741 149.637396 
L 228.581005 156.578965 
L 229.186843 158.892821 
L 229.297288 162.594992 
L 229.539676 170.462104 
L 228.981636 174.193999 
L 227.558991 177.866444 
L 225.625378 182.956928 
L 223.727178 189.898497 
L 223.152379 191.749583 
L 223.118143 193.600668 
L 223.277795 196.840067 
L 222.66932 199.616694 
L 222.460768 201.039026 
L 221.473753 207.021035 
L 221.333695 207.946578 
L 220.252864 210.260434 
L 215.474124 219.844349 
L 211.123665 225.531886 
L 208.953255 227.636536 
L 205.039008 230.622371 
L 200.941042 232.936227 
L 194.51419 235.801512 
L 193.558917 236.175626 
L 187.993322 236.176187 
L 187.993322 236.176187 
" clip-path="url(#pc2194f920f)" style="fill: none; stroke: #000000; stroke-width: 1.5"/>
   </g>
   <g id="PathCollection_4">
    <path d="M 194.048414 258.871548 
L 182.404007 258.476715 
L 181.301401 258.388648 
L 163.772955 253.235823 
L 158.649416 249.861044 
L 155.854758 247.742195 
L 150.246686 241.728881 
L 145.141903 237.412375 
L 142.33116 234.787312 
L 134.110703 225.994658 
L 131.834261 223.680801 
L 121.387312 211.455962 
L 120.734976 210.260434 
L 114.335252 198.228381 
L 113.346229 194.063439 
L 112.25288 188.972955 
L 111.217958 182.494157 
L 110.922241 180.643072 
L 110.577136 176.47813 
L 110.590177 170.462104 
L 111.310091 164.446077 
L 112.537563 159.669164 
L 113.891455 155.653422 
L 117.661102 145.409615 
L 128.839733 128.910503 
L 131.168614 126.716288 
L 133.963272 123.925593 
L 140.829469 116.780634 
L 143.744574 113.968224 
L 154.923205 105.543897 
L 158.649416 103.510128 
L 172.156928 99.464263 
L 173.554257 98.958734 
L 175.883139 98.456956 
L 176.814691 98.251854 
L 182.404007 97.542848 
L 190.850175 96.418698 
L 192.185309 96.637177 
L 193.582638 97.364978 
L 195.445743 98.34442 
L 196.377295 98.489382 
L 202.432387 100.028747 
L 206.624374 100.842974 
L 217.337229 104.850657 
L 219.66611 105.68121 
L 224.96778 109.839065 
L 227.878875 112.615693 
L 234.198252 118.63172 
L 237.831386 122.340411 
L 239.723727 124.184975 
L 242.489149 129.754539 
L 247.328616 139.919199 
L 249.300621 144.08414 
L 249.842939 146.397997 
L 250.45577 148.711853 
L 252.508684 155.190651 
L 253.130648 162.13222 
L 253.262213 166.759933 
L 252.462923 174.164274 
L 252.270451 175.789836 
L 251.338898 178.638787 
L 249.625043 185.733556 
L 246.974314 197.765609 
L 246.761678 199.616694 
L 244.81803 207.53099 
L 244.352254 211.544255 
L 242.023372 220.496235 
L 237.365609 230.306279 
L 232.590092 237.101169 
L 228.753714 242.191653 
L 227.118531 243.756205 
L 226.186978 244.513769 
L 214.076795 252.03775 
L 211.282137 253.688113 
L 200.103506 258.07957 
L 199.171953 258.246395 
L 197.308848 258.423234 
L 194.048414 258.871548 
L 194.048414 258.871548 
" clip-path="url(#pc2194f920f)" style="fill: none; stroke: #000000; stroke-width: 1.5"/>
   </g>
   <g id="patch_3">
    <path d="M 45 320.4 
L 45 43.2 
" style="fill: none; stroke: #000000; stroke-width: 0.8; stroke-linejoin: miter; stroke-linecap: square"/>
   </g>
   <g id="patch_4">
    <path d="M 324 320.4 
L 324 43.2 
" style="fill: none; stroke: #000000; stroke-width: 0.8; stroke-linejoin: miter; stroke-linecap: square"/>
   </g>
   <g id="patch_5">
    <path d="M 45 320.4 
L 324 320.4 
" style="fill: none; stroke: #000000; stroke-width: 0.8; stroke-linejoin: miter; stroke-linecap: square"/>
   </g>
   <g id="patch_6">
    <path d="M 45 43.2 
L 324 43.2 
" style="fill: none; stroke: #000000; stroke-width: 0.8; stroke-linejoin: miter; stroke-linecap: square"/>
   </g>
  </g>
 </g>
 <defs>
  <clipPath id="pc2194f920f">
   <rect x="45" y="43.2" width="279" height="277.2"/>
  </clipPath>
 </defs>
</svg>
