<?xml version="1.0" encoding="utf-8" standalone="no"?>
<!DOCTYPE svg PUBLIC "-//W3C//DTD SVG 1.1//EN"
  "http://www.w3.org/Graphics/SVG/1.1/DTD/svg11.dtd">
<svg xmlns:xlink="http://www.w3.org/1999/xlink" width="360pt" height="360pt" viewBox="0 0 360 360" xmlns="http://www.w3.org/2000/svg" version="1.1">
 <metadata>
  <rdf:RDF xmlns:dc="http://purl.org/dc/elements/1.1/" xmlns:cc="http://creativecommons.org/ns#" xmlns:rdf="http://www.w3.org/1999/02/22-rdf-syntax-ns#">
   <cc:Work>
    <dc:type rdf:resource="http://purl.org/dc/dcmitype/StillImage"/>
    <dc:date>2022-04-10T19:53:25.275797</dc:date>
    <dc:format>image/svg+xml</dc:format>
    <dc:creator>
     <cc:Agent>
      <dc:title>Matplotlib v3.5.1, https://matplotlib.org/</dc:title>
     </cc:Agent>
    </dc:creator>
   </cc:Work>
  </rdf:RDF>
 </metadata>
 <defs>
  <style type="text/css">*{stroke-linejoin: round; stroke-linecap: butt}</style>
 </defs>
 <g id="figure_1">
  <g id="patch_1">
   <path d="M 0 360 
L 360 360 
L 360 0 
L 0 0 
z
" style="fill: #ffffff"/>
  </g>
  <g id="axes_1">
   <g id="patch_2">
    <path d="M 45 320.4 
L 324 320.4 
L 324 43.2 
L 45 43.2 
z
" style="fill: #ffffff"/>
   </g>
   <g id="PathCollection_1">
    <defs>
     <path id="m6a4ce43a23" d="M 0 0.5 
C 0.132602 0.5 0.25979 0.447317 0.353553 0.353553 
C 0.447317 0.25979 0.5 0.132602 0.5 0 
C 0.5 -0.132602 0.447317 -0.25979 0.353553 -0.353553 
C 0.25979 -0.447317 0.132602 -0.5 0 -0.5 
C -0.132602 -0.5 -0.25979 -0.447317 -0.353553 -0.353553 
C -0.447317 -0.25979 -0.5 -0.132602 -0.5 0 
C -0.5 0.132602 -0.447317 0.25979 -0.353553 0.353553 
C -0.25979 0.447317 -0.132602 0.5 0 0.5 
z
" style="stroke: #ff0000"/>
    </defs>
    <g clip-path="url(#pb7f7ab45c8)">
     <use xlink:href="#m6a4ce43a23" x="249.664737" y="181.336455" style="fill: #ff0000; stroke: #ff0000"/>
     <use xlink:href="#m6a4ce43a23" x="250.543038" y="174.919404" style="fill: #ff0000; stroke: #ff0000"/>
     <use xlink:href="#m6a4ce43a23" x="250.622426" y="168.360947" style="fill: #ff0000; stroke: #ff0000"/>
     <use xlink:href="#m6a4ce43a23" x="249.672744" y="161.834682" style="fill: #ff0000; stroke: #ff0000"/>
     <use xlink:href="#m6a4ce43a23" x="247.544099" y="155.583216" style="fill: #ff0000; stroke: #ff0000"/>
     <use xlink:href="#m6a4ce43a23" x="244.243054" y="149.856919" style="fill: #ff0000; stroke: #ff0000"/>
     <use xlink:href="#m6a4ce43a23" x="239.954433" y="144.831773" style="fill: #ff0000; stroke: #ff0000"/>
     <use xlink:href="#m6a4ce43a23" x="234.990879" y="140.547417" style="fill: #ff0000; stroke: #ff0000"/>
     <use xlink:href="#m6a4ce43a23" x="229.690298" y="136.901253" style="fill: #ff0000; stroke: #ff0000"/>
     <use xlink:href="#m6a4ce43a23" x="224.310395" y="133.705142" style="fill: #ff0000; stroke: #ff0000"/>
     <use xlink:href="#m6a4ce43a23" x="218.969509" y="130.775755" style="fill: #ff0000; stroke: #ff0000"/>
     <use xlink:href="#m6a4ce43a23" x="213.653991" y="128.012298" style="fill: #ff0000; stroke: #ff0000"/>
     <use xlink:href="#m6a4ce43a23" x="208.27479" y="125.428438" style="fill: #ff0000; stroke: #ff0000"/>
     <use xlink:href="#m6a4ce43a23" x="202.73561" y="123.137646" style="fill: #ff0000; stroke: #ff0000"/>
     <use xlink:href="#m6a4ce43a23" x="196.982741" y="121.316748" style="fill: #ff0000; stroke: #ff0000"/>
     <use xlink:href="#m6a4ce43a23" x="191.029945" y="120.171002" style="fill: #ff0000; stroke: #ff0000"/>
     <use xlink:href="#m6a4ce43a23" x="184.966555" y="119.901918" style="fill: #ff0000; stroke: #ff0000"/>
     <use xlink:href="#m6a4ce43a23" x="178.951982" y="120.663449" style="fill: #ff0000; stroke: #ff0000"/>
     <use xlink:href="#m6a4ce43a23" x="173.188059" y="122.503985" style="fill: #ff0000; stroke: #ff0000"/>
     <use xlink:href="#m6a4ce43a23" x="167.863941" y="125.320431" style="fill: #ff0000; stroke: #ff0000"/>
     <use xlink:href="#m6a4ce43a23" x="163.090384" y="128.86344" style="fill: #ff0000; stroke: #ff0000"/>
     <use xlink:href="#m6a4ce43a23" x="158.859514" y="132.808731" style="fill: #ff0000; stroke: #ff0000"/>
     <use xlink:href="#m6a4ce43a23" x="155.058555" y="136.864747" style="fill: #ff0000; stroke: #ff0000"/>
     <use xlink:href="#m6a4ce43a23" x="151.532681" y="140.859996" style="fill: #ff0000; stroke: #ff0000"/>
     <use xlink:href="#m6a4ce43a23" x="148.159666" y="144.767029" style="fill: #ff0000; stroke: #ff0000"/>
     <use xlink:href="#m6a4ce43a23" x="144.893229" y="148.661302" style="fill: #ff0000; stroke: #ff0000"/>
     <use xlink:href="#m6a4ce43a23" x="141.755518" y="152.650038" style="fill: #ff0000; stroke: #ff0000"/>
     <use xlink:href="#m6a4ce43a23" x="138.793504" y="156.815671" style="fill: #ff0000; stroke: #ff0000"/>
     <use xlink:href="#m6a4ce43a23" x="136.036904" y="161.199887" style="fill: #ff0000; stroke: #ff0000"/>
     <use xlink:href="#m6a4ce43a23" x="133.493795" y="165.8231" style="fill: #ff0000; stroke: #ff0000"/>
     <use xlink:href="#m6a4ce43a23" x="131.19493" y="170.709619" style="fill: #ff0000; stroke: #ff0000"/>
     <use xlink:href="#m6a4ce43a23" x="129.261476" y="175.88538" style="fill: #ff0000; stroke: #ff0000"/>
     <use xlink:href="#m6a4ce43a23" x="127.944854" y="181.336455" style="fill: #ff0000; stroke: #ff0000"/>
     <use xlink:href="#m6a4ce43a23" x="127.592405" y="186.950858" style="fill: #ff0000; stroke: #ff0000"/>
     <use xlink:href="#m6a4ce43a23" x="128.531957" y="192.489571" style="fill: #ff0000; stroke: #ff0000"/>
     <use xlink:href="#m6a4ce43a23" x="130.920132" y="197.625485" style="fill: #ff0000; stroke: #ff0000"/>
     <use xlink:href="#m6a4ce43a23" x="134.630034" y="202.052008" style="fill: #ff0000; stroke: #ff0000"/>
     <use xlink:href="#m6a4ce43a23" x="139.243241" y="205.618401" style="fill: #ff0000; stroke: #ff0000"/>
     <use xlink:href="#m6a4ce43a23" x="144.163768" y="208.424112" style="fill: #ff0000; stroke: #ff0000"/>
     <use xlink:href="#m6a4ce43a23" x="148.813114" y="210.815395" style="fill: #ff0000; stroke: #ff0000"/>
     <use xlink:href="#m6a4ce43a23" x="152.825287" y="213.27036" style="fill: #ff0000; stroke: #ff0000"/>
     <use xlink:href="#m6a4ce43a23" x="156.15899" y="216.212109" style="fill: #ff0000; stroke: #ff0000"/>
     <use xlink:href="#m6a4ce43a23" x="159.081165" y="219.826742" style="fill: #ff0000; stroke: #ff0000"/>
     <use xlink:href="#m6a4ce43a23" x="162.03319" y="223.964956" style="fill: #ff0000; stroke: #ff0000"/>
     <use xlink:href="#m6a4ce43a23" x="165.440533" y="228.172313" style="fill: #ff0000; stroke: #ff0000"/>
     <use xlink:href="#m6a4ce43a23" x="169.547062" y="231.839769" style="fill: #ff0000; stroke: #ff0000"/>
     <use xlink:href="#m6a4ce43a23" x="174.339813" y="234.416025" style="fill: #ff0000; stroke: #ff0000"/>
     <use xlink:href="#m6a4ce43a23" x="179.587665" y="235.596901" style="fill: #ff0000; stroke: #ff0000"/>
     <use xlink:href="#m6a4ce43a23" x="184.966555" y="235.415365" style="fill: #ff0000; stroke: #ff0000"/>
     <use xlink:href="#m6a4ce43a23" x="190.206786" y="234.198156" style="fill: #ff0000; stroke: #ff0000"/>
     <use xlink:href="#m6a4ce43a23" x="195.192623" y="232.414694" style="fill: #ff0000; stroke: #ff0000"/>
     <use xlink:href="#m6a4ce43a23" x="199.97458" y="230.492091" style="fill: #ff0000; stroke: #ff0000"/>
     <use xlink:href="#m6a4ce43a23" x="204.703585" y="228.678444" style="fill: #ff0000; stroke: #ff0000"/>
     <use xlink:href="#m6a4ce43a23" x="209.532784" y="227.000119" style="fill: #ff0000; stroke: #ff0000"/>
     <use xlink:href="#m6a4ce43a23" x="214.53623" y="225.305089" style="fill: #ff0000; stroke: #ff0000"/>
     <use xlink:href="#m6a4ce43a23" x="219.671145" y="223.351296" style="fill: #ff0000; stroke: #ff0000"/>
     <use xlink:href="#m6a4ce43a23" x="224.786717" y="220.899712" style="fill: #ff0000; stroke: #ff0000"/>
     <use xlink:href="#m6a4ce43a23" x="229.670704" y="217.787507" style="fill: #ff0000; stroke: #ff0000"/>
     <use xlink:href="#m6a4ce43a23" x="234.118166" y="213.966627" style="fill: #ff0000; stroke: #ff0000"/>
     <use xlink:href="#m6a4ce43a23" x="237.996648" y="209.498758" style="fill: #ff0000; stroke: #ff0000"/>
     <use xlink:href="#m6a4ce43a23" x="241.277987" y="204.51093" style="fill: #ff0000; stroke: #ff0000"/>
     <use xlink:href="#m6a4ce43a23" x="244.020801" y="199.134791" style="fill: #ff0000; stroke: #ff0000"/>
     <use xlink:href="#m6a4ce43a23" x="246.313709" y="193.460435" style="fill: #ff0000; stroke: #ff0000"/>
     <use xlink:href="#m6a4ce43a23" x="248.207565" y="187.524966" style="fill: #ff0000; stroke: #ff0000"/>
    </g>
   </g>
   <g id="matplotlib.axis_1">
    <g id="xtick_1">
     <g id="line2d_1">
      <defs>
       <path id="m416d306c44" d="M 0 0 
L 0 3.5 
" style="stroke: #000000; stroke-width: 0.8"/>
      </defs>
      <g>
       <use xlink:href="#m416d306c44" x="45" y="320.4" style="stroke: #000000; stroke-width: 0.8"/>
      </g>
     </g>
     <g id="text_1">
      <!-- −3 -->
      <g transform="translate(37.628906 334.998438)scale(0.1 -0.1)">
       <defs>
        <path id="DejaVuSans-2212" d="M 678 2272 
L 4684 2272 
L 4684 1741 
L 678 1741 
L 678 2272 
z
" transform="scale(0.015625)"/>
        <path id="DejaVuSans-33" d="M 2597 2516 
Q 3050 2419 3304 2112 
Q 3559 1806 3559 1356 
Q 3559 666 3084 287 
Q 2609 -91 1734 -91 
Q 1441 -91 1130 -33 
Q 819 25 488 141 
L 488 750 
Q 750 597 1062 519 
Q 1375 441 1716 441 
Q 2309 441 2620 675 
Q 2931 909 2931 1356 
Q 2931 1769 2642 2001 
Q 2353 2234 1838 2234 
L 1294 2234 
L 1294 2753 
L 1863 2753 
Q 2328 2753 2575 2939 
Q 2822 3125 2822 3475 
Q 2822 3834 2567 4026 
Q 2313 4219 1838 4219 
Q 1578 4219 1281 4162 
Q 984 4106 628 3988 
L 628 4550 
Q 988 4650 1302 4700 
Q 1616 4750 1894 4750 
Q 2613 4750 3031 4423 
Q 3450 4097 3450 3541 
Q 3450 3153 3228 2886 
Q 3006 2619 2597 2516 
z
" transform="scale(0.015625)"/>
       </defs>
       <use xlink:href="#DejaVuSans-2212"/>
       <use xlink:href="#DejaVuSans-33" x="83.789062"/>
      </g>
     </g>
    </g>
    <g id="xtick_2">
     <g id="line2d_2">
      <g>
       <use xlink:href="#m416d306c44" x="91.655518" y="320.4" style="stroke: #000000; stroke-width: 0.8"/>
      </g>
     </g>
     <g id="text_2">
      <!-- −2 -->
      <g transform="translate(84.284425 334.998438)scale(0.1 -0.1)">
       <defs>
        <path id="DejaVuSans-32" d="M 1228 531 
L 3431 531 
L 3431 0 
L 469 0 
L 469 531 
Q 828 903 1448 1529 
Q 2069 2156 2228 2338 
Q 2531 2678 2651 2914 
Q 2772 3150 2772 3378 
Q 2772 3750 2511 3984 
Q 2250 4219 1831 4219 
Q 1534 4219 1204 4116 
Q 875 4013 500 3803 
L 500 4441 
Q 881 4594 1212 4672 
Q 1544 4750 1819 4750 
Q 2544 4750 2975 4387 
Q 3406 4025 3406 3419 
Q 3406 3131 3298 2873 
Q 3191 2616 2906 2266 
Q 2828 2175 2409 1742 
Q 1991 1309 1228 531 
z
" transform="scale(0.015625)"/>
       </defs>
       <use xlink:href="#DejaVuSans-2212"/>
       <use xlink:href="#DejaVuSans-32" x="83.789062"/>
      </g>
     </g>
    </g>
    <g id="xtick_3">
     <g id="line2d_3">
      <g>
       <use xlink:href="#m416d306c44" x="138.311037" y="320.4" style="stroke: #000000; stroke-width: 0.8"/>
      </g>
     </g>
     <g id="text_3">
      <!-- −1 -->
      <g transform="translate(130.939943 334.998438)scale(0.1 -0.1)">
       <defs>
        <path id="DejaVuSans-31" d="M 794 531 
L 1825 531 
L 1825 4091 
L 703 3866 
L 703 4441 
L 1819 4666 
L 2450 4666 
L 2450 531 
L 3481 531 
L 3481 0 
L 794 0 
L 794 531 
z
" transform="scale(0.015625)"/>
       </defs>
       <use xlink:href="#DejaVuSans-2212"/>
       <use xlink:href="#DejaVuSans-31" x="83.789062"/>
      </g>
     </g>
    </g>
    <g id="xtick_4">
     <g id="line2d_4">
      <g>
       <use xlink:href="#m416d306c44" x="184.966555" y="320.4" style="stroke: #000000; stroke-width: 0.8"/>
      </g>
     </g>
     <g id="text_4">
      <!-- 0 -->
      <g transform="translate(181.785305 334.998438)scale(0.1 -0.1)">
       <defs>
        <path id="DejaVuSans-30" d="M 2034 4250 
Q 1547 4250 1301 3770 
Q 1056 3291 1056 2328 
Q 1056 1369 1301 889 
Q 1547 409 2034 409 
Q 2525 409 2770 889 
Q 3016 1369 3016 2328 
Q 3016 3291 2770 3770 
Q 2525 4250 2034 4250 
z
M 2034 4750 
Q 2819 4750 3233 4129 
Q 3647 3509 3647 2328 
Q 3647 1150 3233 529 
Q 2819 -91 2034 -91 
Q 1250 -91 836 529 
Q 422 1150 422 2328 
Q 422 3509 836 4129 
Q 1250 4750 2034 4750 
z
" transform="scale(0.015625)"/>
       </defs>
       <use xlink:href="#DejaVuSans-30"/>
      </g>
     </g>
    </g>
    <g id="xtick_5">
     <g id="line2d_5">
      <g>
       <use xlink:href="#m416d306c44" x="231.622074" y="320.4" style="stroke: #000000; stroke-width: 0.8"/>
      </g>
     </g>
     <g id="text_5">
      <!-- 1 -->
      <g transform="translate(228.440824 334.998438)scale(0.1 -0.1)">
       <use xlink:href="#DejaVuSans-31"/>
      </g>
     </g>
    </g>
    <g id="xtick_6">
     <g id="line2d_6">
      <g>
       <use xlink:href="#m416d306c44" x="278.277592" y="320.4" style="stroke: #000000; stroke-width: 0.8"/>
      </g>
     </g>
     <g id="text_6">
      <!-- 2 -->
      <g transform="translate(275.096342 334.998438)scale(0.1 -0.1)">
       <use xlink:href="#DejaVuSans-32"/>
      </g>
     </g>
    </g>
   </g>
   <g id="matplotlib.axis_2">
    <g id="ytick_1">
     <g id="line2d_7">
      <defs>
       <path id="m21a793aa01" d="M 0 0 
L -3.5 0 
" style="stroke: #000000; stroke-width: 0.8"/>
      </defs>
      <g>
       <use xlink:href="#m21a793aa01" x="45" y="320.4" style="stroke: #000000; stroke-width: 0.8"/>
      </g>
     </g>
     <g id="text_7">
      <!-- −3 -->
      <g transform="translate(23.257812 324.199219)scale(0.1 -0.1)">
       <use xlink:href="#DejaVuSans-2212"/>
       <use xlink:href="#DejaVuSans-33" x="83.789062"/>
      </g>
     </g>
    </g>
    <g id="ytick_2">
     <g id="line2d_8">
      <g>
       <use xlink:href="#m21a793aa01" x="45" y="274.045485" style="stroke: #000000; stroke-width: 0.8"/>
      </g>
     </g>
     <g id="text_8">
      <!-- −2 -->
      <g transform="translate(23.257812 277.844704)scale(0.1 -0.1)">
       <use xlink:href="#DejaVuSans-2212"/>
       <use xlink:href="#DejaVuSans-32" x="83.789062"/>
      </g>
     </g>
    </g>
    <g id="ytick_3">
     <g id="line2d_9">
      <g>
       <use xlink:href="#m21a793aa01" x="45" y="227.69097" style="stroke: #000000; stroke-width: 0.8"/>
      </g>
     </g>
     <g id="text_9">
      <!-- −1 -->
      <g transform="translate(23.257812 231.490189)scale(0.1 -0.1)">
       <use xlink:href="#DejaVuSans-2212"/>
       <use xlink:href="#DejaVuSans-31" x="83.789062"/>
      </g>
     </g>
    </g>
    <g id="ytick_4">
     <g id="line2d_10">
      <g>
       <use xlink:href="#m21a793aa01" x="45" y="181.336455" style="stroke: #000000; stroke-width: 0.8"/>
      </g>
     </g>
     <g id="text_10">
      <!-- 0 -->
      <g transform="translate(31.6375 185.135674)scale(0.1 -0.1)">
       <use xlink:href="#DejaVuSans-30"/>
      </g>
     </g>
    </g>
    <g id="ytick_5">
     <g id="line2d_11">
      <g>
       <use xlink:href="#m21a793aa01" x="45" y="134.98194" style="stroke: #000000; stroke-width: 0.8"/>
      </g>
     </g>
     <g id="text_11">
      <!-- 1 -->
      <g transform="translate(31.6375 138.781159)scale(0.1 -0.1)">
       <use xlink:href="#DejaVuSans-31"/>
      </g>
     </g>
    </g>
    <g id="ytick_6">
     <g id="line2d_12">
      <g>
       <use xlink:href="#m21a793aa01" x="45" y="88.627425" style="stroke: #000000; stroke-width: 0.8"/>
      </g>
     </g>
     <g id="text_12">
      <!-- 2 -->
      <g transform="translate(31.6375 92.426643)scale(0.1 -0.1)">
       <use xlink:href="#DejaVuSans-32"/>
      </g>
     </g>
    </g>
   </g>
   <g id="PathCollection_2">
    <path d="M 182.167224 210.213478 
L 178.145953 206.367893 
L 175.635452 203.46513 
L 171.90301 200.55437 
L 167.237458 196.042797 
L 163.0284 192.461538 
L 161.638796 191.387087 
L 159.772575 190.36506 
L 156.973244 189.371105 
L 156.040134 188.329336 
L 153.573396 185.044816 
L 152.95971 184.117726 
L 152.49431 183.190635 
L 151.975818 181.336455 
L 151.845864 180.409365 
L 151.845291 179.482274 
L 152.059992 178.555184 
L 153.240803 176.535598 
L 156.183308 172.992642 
L 157.221052 171.138462 
L 158.003077 170.211371 
L 159.772575 168.693243 
L 162.571906 167.053923 
L 162.967292 166.50301 
L 165.682775 160.940468 
L 166.817413 159.086288 
L 167.34466 158.159197 
L 167.637578 157.232107 
L 168.181779 156.305017 
L 169.588911 154.450836 
L 170.992251 152.596656 
L 173.391328 149.815385 
L 173.769231 149.503195 
L 175.635452 148.364804 
L 178.629056 146.107023 
L 182.167224 144.227844 
L 184.966555 143.583035 
L 186.832776 143.657691 
L 189.632107 144.545572 
L 192.431438 145.849595 
L 194.806563 147.034114 
L 195.230769 147.262521 
L 198.0301 147.915823 
L 200.829431 148.459362 
L 202.695652 148.529244 
L 203.993395 148.888294 
L 205.657915 149.815385 
L 206.896209 150.742475 
L 210.160535 153.413099 
L 211.093645 153.812386 
L 212.959866 154.898266 
L 215.759197 156.578184 
L 223.22408 160.347201 
L 226.060735 163.721739 
L 226.956522 164.961599 
L 227.282452 165.57592 
L 227.600824 167.4301 
L 227.990551 169.284281 
L 228.302088 171.138462 
L 228.306043 172.065552 
L 226.956522 178.628054 
L 226.593769 180.409365 
L 225.6982 182.263545 
L 223.807566 185.971906 
L 221.23257 192.461538 
L 219.994434 195.242809 
L 219.462233 196.1699 
L 218.091541 198.02408 
L 216.692308 199.092269 
L 212.959866 201.29165 
L 207.340651 204.513712 
L 206.428094 204.836763 
L 198.765325 206.367893 
L 192.409232 208.222074 
L 190.410688 209.149164 
L 188.404737 210.076254 
L 185.899666 210.739261 
L 184.966555 210.822804 
L 183.100334 210.631192 
L 182.167224 210.213478 
L 182.167224 210.213478 
" clip-path="url(#pb7f7ab45c8)" style="fill: none; stroke-dasharray: 5.55,2.4; stroke-dashoffset: 0; stroke: #000000; stroke-width: 1.5"/>
   </g>
   <g id="PathCollection_3">
    <path d="M 186.832776 235.108607 
L 186.683816 235.107692 
L 185.899666 235.075912 
L 184.966555 234.979132 
L 184.033445 234.927063 
L 183.100334 234.881491 
L 182.167224 234.843083 
L 181.234114 234.797965 
L 180.301003 234.748568 
L 179.367893 234.699161 
L 178.434783 234.646752 
L 177.501672 234.581758 
L 176.568562 234.515392 
L 175.635452 234.378963 
L 174.702341 234.190919 
L 174.653466 234.180602 
L 173.769231 234.003325 
L 172.83612 233.744153 
L 171.90301 233.365703 
L 171.702596 233.253512 
L 170.9699 232.918465 
L 170.036789 232.493026 
L 169.783751 232.326421 
L 169.103679 231.937271 
L 168.341794 231.399331 
L 168.170569 231.274658 
L 167.287363 230.472241 
L 167.237458 230.424998 
L 166.304348 229.585738 
L 166.26312 229.545151 
L 165.371237 228.717102 
L 165.276463 228.61806 
L 164.438127 227.807022 
L 164.326666 227.69097 
L 163.505017 226.833765 
L 163.437902 226.76388 
L 162.571906 225.847359 
L 162.561763 225.836789 
L 161.676009 224.909699 
L 161.638796 224.866023 
L 160.831794 223.982609 
L 160.705686 223.834265 
L 160.001549 223.055518 
L 159.772575 222.805371 
L 159.140184 222.128428 
L 158.839465 221.802708 
L 158.243075 221.201338 
L 157.906355 220.839584 
L 157.381089 220.274247 
L 156.973244 219.833937 
L 156.523868 219.347157 
L 156.040134 218.796566 
L 155.697465 218.420067 
L 155.107023 217.723361 
L 154.886208 217.492977 
L 154.173913 216.852756 
L 153.867758 216.565886 
L 153.240803 216.037447 
L 152.818194 215.638796 
L 152.307692 215.215391 
L 151.77041 214.711706 
L 151.374582 214.376609 
L 150.747721 213.784615 
L 150.441472 213.521317 
L 149.741852 212.857525 
L 149.508361 212.654213 
L 148.660689 211.930435 
L 148.575251 211.851883 
L 147.64214 211.439673 
L 146.971409 211.003344 
L 146.70903 210.835103 
L 145.77592 210.429613 
L 145.194099 210.076254 
L 144.842809 209.868866 
L 143.909699 209.445844 
L 143.432239 209.149164 
L 142.976589 208.885142 
L 142.273241 208.222074 
L 142.043478 207.90762 
L 141.587426 207.294983 
L 141.110368 206.748499 
L 140.765373 206.367893 
L 140.177258 205.828286 
L 139.688176 205.440803 
L 139.244147 205.102052 
L 138.494885 204.513712 
L 138.311037 204.345111 
L 137.377926 203.617853 
L 137.279722 203.586622 
L 136.444816 202.978037 
L 136.02138 202.659532 
L 135.511706 202.289536 
L 134.76594 201.732441 
L 134.578595 201.566943 
L 133.645485 200.836006 
L 133.49565 200.805351 
L 132.712375 200.007132 
L 132.624891 199.878261 
L 131.779264 198.954518 
L 131.77818 198.951171 
L 130.978842 198.02408 
L 130.846154 197.869665 
L 130.206266 197.09699 
L 129.913043 196.730448 
L 129.486009 196.1699 
L 128.995668 195.242809 
L 128.979933 195.216398 
L 128.586823 194.315719 
L 128.203136 193.388629 
L 128.046823 193.080629 
L 127.929413 192.461538 
L 127.51987 191.534448 
L 127.278515 190.607358 
L 127.113712 190.139865 
L 127.091474 189.680268 
L 127.015854 188.753177 
L 126.787262 187.826087 
L 126.628627 186.898997 
L 126.51287 185.971906 
L 126.419552 185.044816 
L 126.310897 184.117726 
L 126.33135 183.190635 
L 126.384575 182.263545 
L 126.430966 181.336455 
L 126.469957 180.409365 
L 126.515098 179.482274 
L 126.894771 178.555184 
L 127.107485 177.628094 
L 127.113712 177.346629 
L 127.33998 176.701003 
L 127.555312 175.773913 
L 128.004321 174.846823 
L 128.046823 174.228333 
L 128.204733 173.919732 
L 128.487173 172.992642 
L 128.947526 172.065552 
L 128.979933 171.784603 
L 129.420076 171.138462 
L 129.913043 170.33007 
L 130.008066 170.211371 
L 130.389228 169.284281 
L 130.841692 168.357191 
L 130.846154 168.249138 
L 131.28673 167.4301 
L 131.779264 166.554919 
L 131.816379 166.50301 
L 132.33223 165.57592 
L 132.712375 164.948594 
L 132.903253 164.648829 
L 133.558192 163.721739 
L 133.645485 163.507739 
L 134.117455 162.794649 
L 134.578595 162.097919 
L 134.745423 161.867559 
L 135.368802 160.940468 
L 135.511706 160.688104 
L 135.957524 160.013378 
L 136.444816 159.258918 
L 136.573069 159.086288 
L 137.15142 158.159197 
L 137.377926 157.91327 
L 138.125707 157.232107 
L 138.311037 157.076392 
L 139.227407 156.305017 
L 139.244147 156.296118 
L 140.177258 155.5208 
L 140.322841 155.377926 
L 141.110368 154.711025 
L 141.415617 154.450836 
L 142.043478 153.908405 
L 142.398851 153.523746 
L 142.976589 152.647208 
L 143.02308 152.596656 
L 143.537346 151.669565 
L 143.909699 151.05065 
L 144.123193 150.742475 
L 144.608394 149.815385 
L 144.842809 149.448099 
L 145.162235 148.888294 
L 145.633914 147.961204 
L 145.77592 147.747929 
L 146.190519 147.034114 
L 146.70903 146.213175 
L 146.794165 146.107023 
L 147.507414 145.179933 
L 147.64214 145.046807 
L 148.575251 144.33949 
L 148.680221 144.252843 
L 149.508361 143.630332 
L 149.858773 143.325753 
L 150.441472 142.715024 
L 150.738625 142.398662 
L 151.374582 141.721596 
L 151.609421 141.471572 
L 152.307692 140.728146 
L 152.480201 140.544482 
L 153.240803 139.734708 
L 153.357274 139.617391 
L 154.173913 138.776128 
L 154.259224 138.690301 
L 155.107023 137.82348 
L 155.162127 137.763211 
L 155.950929 136.83612 
L 156.040134 136.733137 
L 156.635584 135.90903 
L 156.973244 135.444922 
L 157.308416 134.98194 
L 157.906355 134.143758 
L 157.978691 134.054849 
L 158.678976 133.127759 
L 158.839465 132.957964 
L 159.569098 132.200669 
L 159.772575 131.981636 
L 160.414122 131.273579 
L 160.705686 130.951785 
L 161.266752 130.346488 
L 161.638796 129.95426 
L 162.202005 129.419398 
L 162.571906 129.067804 
L 163.17186 128.492308 
L 163.505017 128.165313 
L 164.105223 127.565217 
L 164.438127 127.257393 
L 165.168421 126.638127 
L 165.371237 126.475829 
L 166.304348 125.732109 
L 166.326967 125.711037 
L 167.237458 124.982438 
L 167.496433 124.783946 
L 168.170569 124.337195 
L 169.103679 123.945037 
L 169.258618 123.856856 
L 170.036789 123.507063 
L 170.9699 123.204677 
L 171.847076 122.929766 
L 171.90301 122.91577 
L 172.83612 122.631943 
L 173.769231 122.373932 
L 174.702341 122.159593 
L 175.218201 122.002676 
L 175.635452 121.892031 
L 176.568562 121.665569 
L 177.501672 121.432899 
L 178.434783 121.224056 
L 178.947659 121.075585 
L 179.367893 120.969096 
L 180.301003 120.795352 
L 181.234114 120.627801 
L 182.167224 120.471984 
L 183.100334 120.342102 
L 184.033445 120.265385 
L 184.966555 120.183803 
L 185.316091 120.148495 
L 185.899666 120.113597 
L 186.832776 120.034677 
L 187.765886 119.973462 
L 188.698997 120.059791 
L 189.632107 120.146581 
L 189.659178 120.148495 
L 190.565217 120.254286 
L 191.498328 120.340461 
L 192.431438 120.410193 
L 193.364548 120.640597 
L 194.297659 120.91813 
L 194.830182 121.075585 
L 195.230769 121.203641 
L 196.16388 121.493945 
L 197.09699 121.884126 
L 197.348786 122.002676 
L 198.0301 122.320983 
L 198.963211 122.791582 
L 199.225594 122.929766 
L 199.896321 123.282722 
L 200.829431 123.778273 
L 200.994168 123.856856 
L 201.762542 124.194808 
L 202.695652 124.542834 
L 203.321795 124.783946 
L 203.628763 124.923558 
L 204.561873 125.257147 
L 205.494983 125.607524 
L 205.745685 125.711037 
L 206.428094 125.972937 
L 207.361204 126.326349 
L 208.1696 126.638127 
L 208.294314 126.700484 
L 209.227425 127.040644 
L 210.160535 127.389619 
L 210.594352 127.565217 
L 211.093645 127.772392 
L 212.026756 128.087089 
L 212.909681 128.492308 
L 212.959866 128.524275 
L 213.892977 128.993324 
L 214.690838 129.419398 
L 214.826087 129.512871 
L 215.759197 129.980661 
L 216.692308 130.318444 
L 216.805178 130.346488 
L 217.625418 130.613647 
L 218.558528 130.862813 
L 219.491639 131.125013 
L 219.864261 131.273579 
L 220.424749 131.513991 
L 221.35786 131.938708 
L 221.855421 132.200669 
L 222.29097 132.447617 
L 223.22408 132.962232 
L 223.474263 133.127759 
L 224.157191 133.591942 
L 224.852829 134.054849 
L 225.090301 134.213008 
L 226.023411 134.833173 
L 226.246266 134.98194 
L 226.956522 135.453728 
L 227.640497 135.90903 
L 227.889632 136.074263 
L 228.822742 136.701622 
L 229.004822 136.83612 
L 229.755853 137.358081 
L 230.307838 137.763211 
L 230.688963 138.032385 
L 231.575302 138.690301 
L 231.622074 138.736304 
L 232.555184 139.399636 
L 232.859933 139.617391 
L 233.488294 140.065229 
L 234.160726 140.544482 
L 234.421405 140.750953 
L 235.354515 141.271426 
L 235.698653 141.471572 
L 236.287625 141.813775 
L 237.066228 142.398662 
L 237.220736 142.546038 
L 238.012736 143.325753 
L 238.153846 143.465942 
L 238.941006 144.252843 
L 239.086957 144.400665 
L 239.786126 145.179933 
L 240.020067 145.426941 
L 240.662654 146.107023 
L 240.953177 146.414369 
L 241.538769 147.034114 
L 241.886288 147.401747 
L 242.41492 147.961204 
L 242.819398 148.450442 
L 243.126694 148.888294 
L 243.642145 149.815385 
L 243.752508 149.949363 
L 244.220057 150.742475 
L 244.685619 151.51757 
L 244.791428 151.669565 
L 245.307725 152.596656 
L 245.618729 153.097583 
L 245.887294 153.523746 
L 246.361128 154.450836 
L 246.551839 154.703223 
L 246.944736 155.377926 
L 247.365824 156.305017 
L 247.48495 156.452508 
L 247.915374 157.232107 
L 248.324567 158.159197 
L 248.41806 158.303225 
L 248.784033 159.086288 
L 249.059489 160.013378 
L 249.289851 160.940468 
L 249.351171 161.114102 
L 249.542779 161.867559 
L 249.758866 162.794649 
L 249.922406 163.721739 
L 250.050472 164.648829 
L 250.284281 165.535763 
L 250.295865 165.57592 
L 250.497836 166.50301 
L 250.627177 167.4301 
L 250.734691 168.357191 
L 250.83009 169.284281 
L 250.899693 170.211371 
L 250.785002 171.138462 
L 250.643898 172.065552 
L 250.429703 172.992642 
L 250.284281 173.488911 
L 250.159969 173.919732 
L 249.989781 174.846823 
L 249.787041 175.773913 
L 249.502578 176.701003 
L 249.351171 177.159585 
L 249.216788 177.628094 
L 249.062003 178.555184 
L 248.889593 179.482274 
L 248.664667 180.409365 
L 248.486531 181.336455 
L 248.41806 182.210474 
L 248.413757 182.263545 
L 248.346765 183.190635 
L 248.29229 184.117726 
L 248.244545 185.044816 
L 248.022232 185.971906 
L 247.560385 186.898997 
L 247.48495 187.037711 
L 247.158554 187.826087 
L 246.712204 188.753177 
L 246.551839 189.016695 
L 246.232213 189.680268 
L 245.73348 190.607358 
L 245.618729 190.803329 
L 245.281522 191.534448 
L 244.771179 192.461538 
L 244.685619 192.609099 
L 244.328528 193.388629 
L 243.916717 194.315719 
L 243.752508 194.671446 
L 243.558206 195.242809 
L 243.271029 196.1699 
L 242.834262 197.09699 
L 242.819398 197.132266 
L 242.558679 198.02408 
L 242.238717 198.951171 
L 241.886288 199.731017 
L 241.819917 199.878261 
L 241.594975 200.805351 
L 241.260239 201.732441 
L 240.953177 202.369945 
L 240.843258 202.659532 
L 240.583911 203.586622 
L 240.106002 204.513712 
L 240.020067 204.656208 
L 239.644826 205.440803 
L 239.086957 206.25294 
L 239.015046 206.367893 
L 238.547372 207.294983 
L 238.153846 207.772835 
L 237.809666 208.222074 
L 237.220736 208.86156 
L 236.95279 209.149164 
L 236.287625 209.86775 
L 236.090531 210.076254 
L 235.354515 210.857141 
L 235.216336 211.003344 
L 234.421405 211.846884 
L 234.334092 211.930435 
L 233.488294 212.69286 
L 233.320185 212.857525 
L 232.555184 213.686516 
L 232.463925 213.784615 
L 231.622074 214.697533 
L 231.608868 214.711706 
L 230.817077 215.638796 
L 230.688963 215.785795 
L 229.942822 216.565886 
L 229.755853 216.727444 
L 228.822742 217.459665 
L 228.780801 217.492977 
L 227.889632 218.1981 
L 227.61109 218.420067 
L 226.956522 218.938733 
L 226.446524 219.347157 
L 226.023411 219.683138 
L 225.269051 220.274247 
L 225.090301 220.404466 
L 224.157191 221.058785 
L 223.950986 221.201338 
L 223.22408 221.69972 
L 222.607358 222.128428 
L 222.29097 222.34723 
L 221.35786 223.006797 
L 221.284953 223.055518 
L 220.424749 223.63427 
L 219.910566 223.982609 
L 219.491639 224.264472 
L 218.558528 224.681324 
L 217.705854 224.909699 
L 217.625418 224.933298 
L 216.692308 225.162612 
L 215.759197 225.388792 
L 214.826087 225.603149 
L 213.892977 225.805476 
L 213.773411 225.836789 
L 212.959866 226.019175 
L 212.026756 226.228743 
L 211.093645 226.440686 
L 210.160535 226.6426 
L 209.663578 226.76388 
L 209.227425 226.869178 
L 208.294314 227.147986 
L 207.361204 227.479611 
L 206.880605 227.69097 
L 206.428094 227.905656 
L 205.494983 228.349186 
L 204.919864 228.61806 
L 204.561873 228.788578 
L 203.628763 229.231503 
L 202.96055 229.545151 
L 202.695652 229.673332 
L 201.762542 230.113266 
L 200.920939 230.472241 
L 200.829431 230.508868 
L 199.896321 230.883994 
L 198.963211 231.247987 
L 198.593354 231.399331 
L 198.0301 231.632436 
L 197.09699 232.014793 
L 196.278343 232.326421 
L 196.16388 232.373977 
L 195.230769 232.74924 
L 194.297659 233.091726 
L 193.897463 233.253512 
L 193.364548 233.450887 
L 192.431438 233.806787 
L 191.498328 233.988937 
L 190.789954 234.180602 
L 190.565217 234.197163 
L 189.632107 234.448956 
L 188.698997 234.668521 
L 187.765886 234.87952 
L 186.851695 235.107692 
L 186.832776 235.108607 
z
" clip-path="url(#pb7f7ab45c8)" style="fill: none; stroke: #000000; stroke-width: 1.5"/>
   </g>
   <g id="PathCollection_4">
    <path d="M 171.90301 257.415359 
L 171.335369 257.35786 
L 170.9699 257.320838 
L 170.036789 257.16499 
L 169.103679 256.918651 
L 168.170569 256.671116 
L 167.539924 256.430769 
L 167.237458 256.314391 
L 166.304348 255.954536 
L 165.371237 255.594718 
L 165.135514 255.503679 
L 164.438127 255.234176 
L 163.505017 254.873873 
L 162.844307 254.576589 
L 162.571906 254.449008 
L 161.638796 253.992148 
L 160.963384 253.649498 
L 160.705686 253.514319 
L 159.772575 252.993126 
L 159.287891 252.722408 
L 158.839465 252.453365 
L 157.998185 251.795318 
L 157.906355 251.720533 
L 156.973244 250.960623 
L 156.85979 250.868227 
L 156.040134 250.200699 
L 155.721795 249.941137 
L 155.107023 249.450666 
L 154.550124 249.014047 
L 154.173913 248.725011 
L 153.350899 248.086957 
L 153.240803 248.001603 
L 152.307692 247.278193 
L 152.155072 247.159866 
L 151.374582 246.554755 
L 150.931236 246.232776 
L 150.441472 245.868564 
L 149.670151 245.305686 
L 149.508361 245.187431 
L 148.575251 244.491309 
L 148.43637 244.378595 
L 147.64214 243.713824 
L 147.328738 243.451505 
L 146.70903 242.927479 
L 146.269832 242.524415 
L 145.77592 242.054887 
L 145.295295 241.597324 
L 144.842809 241.163911 
L 144.336736 240.670234 
L 143.909699 240.248113 
L 143.398869 239.743144 
L 142.976589 239.325717 
L 142.461005 238.816054 
L 142.043478 238.403322 
L 141.533742 237.888963 
L 141.110368 237.459941 
L 140.636967 236.961873 
L 140.177258 236.478223 
L 139.755769 236.034783 
L 139.244147 235.496512 
L 138.874584 235.107692 
L 138.311037 234.514782 
L 137.976791 234.180602 
L 137.377926 233.646135 
L 136.838511 233.253512 
L 136.444816 232.966946 
L 135.548273 232.326421 
L 135.511706 232.300404 
L 134.578595 231.642588 
L 134.188771 231.399331 
L 133.645485 231.095045 
L 132.712375 230.578179 
L 132.524236 230.472241 
L 131.779264 230.013669 
L 131.038528 229.545151 
L 130.846154 229.422967 
L 129.913043 228.828893 
L 129.581687 228.61806 
L 128.979933 228.229482 
L 128.330807 227.69097 
L 128.046823 227.426154 
L 127.336606 226.76388 
L 127.113712 226.556036 
L 126.342386 225.836789 
L 126.180602 225.685927 
L 125.34816 224.909699 
L 125.247492 224.815722 
L 124.354235 223.982609 
L 124.314381 223.942399 
L 123.578642 223.055518 
L 123.381271 222.777443 
L 122.92061 222.128428 
L 122.448161 221.4628 
L 122.262582 221.201338 
L 121.604536 220.274247 
L 121.51505 220.149601 
L 120.941441 219.347157 
L 120.58194 218.91244 
L 120.134188 218.420067 
L 119.648829 217.919755 
L 119.225883 217.492977 
L 118.715719 216.978186 
L 118.307129 216.565886 
L 117.782609 216.040876 
L 117.375327 215.638796 
L 116.849498 215.126008 
L 116.424653 214.711706 
L 115.916388 214.216058 
L 115.473965 213.784615 
L 114.983278 213.306101 
L 114.523297 212.857525 
L 114.050167 212.387578 
L 113.588176 211.930435 
L 113.117057 211.443024 
L 112.727792 211.003344 
L 112.183946 210.187635 
L 112.11223 210.076254 
L 111.400794 209.149164 
L 111.250836 208.970393 
L 110.686753 208.222074 
L 110.317726 207.519434 
L 110.201587 207.294983 
L 109.716453 206.367893 
L 109.384615 205.73943 
L 109.236732 205.440803 
L 108.77754 204.513712 
L 108.451505 203.86499 
L 108.312857 203.586622 
L 107.853803 202.659532 
L 107.518395 201.9811 
L 107.392953 201.732441 
L 106.93437 200.805351 
L 106.585284 199.941182 
L 106.561289 199.878261 
L 106.263318 198.951171 
L 105.965342 198.02408 
L 105.667367 197.09699 
L 105.652174 197.04972 
L 105.369388 196.1699 
L 105.071413 195.242809 
L 104.773443 194.315719 
L 104.719064 194.146533 
L 104.475456 193.388629 
L 104.179923 192.461538 
L 103.81701 191.534448 
L 103.785953 191.448071 
L 103.486088 190.607358 
L 103.301809 189.680268 
L 103.142871 188.753177 
L 103.119347 187.826087 
L 103.120506 186.898997 
L 103.17144 185.971906 
L 103.24034 185.044816 
L 103.248288 184.117726 
L 103.330564 183.190635 
L 103.413673 182.263545 
L 103.496799 181.336455 
L 103.579911 180.409365 
L 103.76733 179.482274 
L 103.785953 179.413139 
L 104.017063 178.555184 
L 104.266816 177.628094 
L 104.516553 176.701003 
L 104.719064 175.943875 
L 104.764346 175.773913 
L 104.996442 174.846823 
L 105.228546 173.919732 
L 105.460987 172.992642 
L 105.652174 172.197956 
L 105.683957 172.065552 
L 105.905363 171.138462 
L 106.126805 170.211371 
L 106.348241 169.284281 
L 106.552087 168.357191 
L 106.585284 168.180701 
L 106.732968 167.4301 
L 107.025336 166.50301 
L 107.414204 165.57592 
L 107.518395 165.333739 
L 107.813869 164.648829 
L 108.208158 163.721739 
L 108.451505 163.147329 
L 108.600918 162.794649 
L 108.993671 161.867559 
L 109.384615 160.944741 
L 109.386426 160.940468 
L 109.779185 160.013378 
L 110.181098 159.086288 
L 110.317726 158.779769 
L 110.600831 158.159197 
L 111.023779 157.232107 
L 111.250836 156.734411 
L 111.446736 156.305017 
L 111.869688 155.377926 
L 112.183946 154.689071 
L 112.292631 154.450836 
L 112.718703 153.523746 
L 113.117057 152.68783 
L 113.160715 152.596656 
L 113.604641 151.669565 
L 114.042664 150.742475 
L 114.050167 150.726153 
L 114.466991 149.815385 
L 114.878461 148.888294 
L 114.983278 148.730942 
L 115.574887 147.961204 
L 115.916388 147.570723 
L 116.385678 147.034114 
L 116.849498 146.503763 
L 117.196478 146.107023 
L 117.782609 145.436844 
L 118.025193 145.179933 
L 118.715719 144.484856 
L 118.947829 144.252843 
L 119.648829 143.552117 
L 119.875287 143.325753 
L 120.58194 142.619395 
L 120.804716 142.398662 
L 121.51505 141.724107 
L 121.783537 141.471572 
L 122.448161 140.846453 
L 122.772099 140.544482 
L 123.381271 139.981918 
L 123.736574 139.617391 
L 124.314269 138.690301 
L 124.314381 138.690083 
L 124.790248 137.763211 
L 125.247492 136.872576 
L 125.266207 136.83612 
L 125.742163 135.90903 
L 126.180602 135.055027 
L 126.218902 134.98194 
L 126.790064 134.054849 
L 127.113712 133.648954 
L 127.530879 133.127759 
L 128.046823 132.486613 
L 128.286973 132.200669 
L 128.979933 131.469843 
L 129.174843 131.273579 
L 129.913043 130.530253 
L 130.095543 130.346488 
L 130.846154 129.590673 
L 131.016069 129.419398 
L 131.779264 128.62704 
L 131.907766 128.492308 
L 132.712375 127.641098 
L 132.777772 127.565217 
L 133.489866 126.638127 
L 133.645485 126.435528 
L 134.201981 125.711037 
L 134.578595 125.220715 
L 134.914074 124.783946 
L 135.511706 124.005891 
L 135.626182 123.856856 
L 136.358615 122.929766 
L 136.444816 122.826266 
L 137.1742 122.002676 
L 137.377926 121.773642 
L 137.996453 121.075585 
L 138.311037 120.722097 
L 138.820791 120.148495 
L 139.244147 119.672886 
L 139.645279 119.221405 
L 140.177258 118.583687 
L 140.408403 118.294314 
L 141.110368 117.415522 
L 141.148947 117.367224 
L 141.889481 116.440134 
L 142.043478 116.278836 
L 142.934869 115.513043 
L 142.976589 115.479502 
L 143.909699 114.781371 
L 144.186057 114.585953 
L 144.842809 114.109224 
L 145.452061 113.658863 
L 145.77592 113.416616 
L 146.696363 112.731773 
L 146.70903 112.721921 
L 147.64214 111.927051 
L 147.781526 111.804682 
L 148.575251 111.095711 
L 148.811282 110.877592 
L 149.508361 110.236154 
L 149.840941 109.950502 
L 150.441472 109.457119 
L 150.949268 109.023411 
L 151.374582 108.653779 
L 151.955124 108.096321 
L 152.307692 107.757771 
L 152.920604 107.169231 
L 153.240803 106.861765 
L 153.886091 106.24214 
L 154.173913 105.965769 
L 154.959882 105.31505 
L 155.107023 105.211555 
L 156.040134 104.764335 
L 156.838339 104.38796 
L 156.973244 104.324349 
L 157.906355 103.884344 
L 158.804393 103.46087 
L 158.839465 103.444331 
L 159.772575 103.004348 
L 160.705686 102.564345 
L 160.770509 102.533779 
L 161.638796 102.124351 
L 162.571906 101.713575 
L 162.908587 101.606689 
L 163.505017 101.422492 
L 164.438127 101.21866 
L 165.371237 101.038355 
L 166.304348 100.864693 
L 167.237458 100.701566 
L 167.36348 100.679599 
L 168.170569 100.53898 
L 169.103679 100.345819 
L 170.036789 100.144388 
L 170.9699 99.938296 
L 171.810333 99.752508 
L 171.90301 99.731972 
L 172.83612 99.525244 
L 173.769231 99.318593 
L 174.702341 99.112032 
L 175.635452 98.905539 
L 175.997611 98.825418 
L 176.568562 98.698942 
L 177.501672 98.492251 
L 178.434783 98.285547 
L 179.367893 98.078855 
L 180.1829 97.898328 
L 180.301003 97.872168 
L 181.234114 97.674713 
L 182.167224 97.604756 
L 183.100334 97.526865 
L 184.033445 97.439637 
L 184.966555 97.352409 
L 185.899666 97.265182 
L 186.832776 97.177951 
L 187.765886 97.084912 
L 188.651882 96.971237 
L 188.698997 96.965215 
L 188.845724 96.971237 
L 189.632107 97.003869 
L 190.565217 97.052019 
L 191.498328 97.104471 
L 192.431438 97.157831 
L 193.364548 97.282899 
L 194.297659 97.488864 
L 195.230769 97.697822 
L 196.12614 97.898328 
L 196.16388 97.906779 
L 197.09699 98.115755 
L 198.0301 98.379692 
L 198.963211 98.657105 
L 199.554744 98.825418 
L 199.896321 98.928199 
L 200.829431 99.268912 
L 201.762542 99.608312 
L 202.158978 99.752508 
L 202.695652 99.947714 
L 203.628763 100.291986 
L 204.561873 100.651141 
L 204.635467 100.679599 
L 205.494983 101.00263 
L 206.428094 101.306166 
L 207.361204 101.569907 
L 207.543529 101.606689 
L 208.294314 101.759208 
L 209.227425 101.962836 
L 210.160535 102.19907 
L 211.093645 102.476631 
L 211.264286 102.533779 
L 212.026756 102.789141 
L 212.959866 103.101666 
L 213.892977 103.414188 
L 213.994705 103.46087 
L 214.826087 103.845728 
L 215.759197 104.332569 
L 215.859645 104.38796 
L 216.692308 104.861449 
L 217.490018 105.31505 
L 217.625418 105.392044 
L 218.558528 105.922651 
L 219.120375 106.24214 
L 219.491639 106.453255 
L 220.424749 106.984679 
L 220.793824 107.169231 
L 221.35786 107.452716 
L 222.29097 107.877092 
L 222.773008 108.096321 
L 223.22408 108.301466 
L 224.157191 108.717266 
L 224.866965 109.023411 
L 225.090301 109.119741 
L 226.023411 109.502408 
L 226.956522 109.842937 
L 227.251257 109.950502 
L 227.889632 110.183476 
L 228.822742 110.529162 
L 229.706587 110.877592 
L 229.755853 110.896491 
L 230.688963 111.184774 
L 231.622074 111.447831 
L 232.53306 111.804682 
L 232.555184 111.814003 
L 233.488294 112.267917 
L 234.421405 112.721833 
L 234.439594 112.731773 
L 235.354515 113.253515 
L 236.032799 113.658863 
L 236.287625 113.811148 
L 237.220736 114.368765 
L 237.58017 114.585953 
L 238.153846 114.935903 
L 239.086957 115.508377 
L 239.094598 115.513043 
L 240.020067 116.078887 
L 240.601703 116.440134 
L 240.953177 116.654822 
L 241.886288 117.234978 
L 242.097081 117.367224 
L 242.819398 117.812983 
L 243.599365 118.294314 
L 243.752508 118.388823 
L 244.685619 118.962757 
L 245.132361 119.221405 
L 245.618729 119.536209 
L 246.45115 120.148495 
L 246.551839 120.222554 
L 247.48495 120.889805 
L 247.785013 121.075585 
L 248.41806 121.452941 
L 249.340299 122.002676 
L 249.351171 122.009156 
L 250.284281 122.565384 
L 250.892308 122.929766 
L 251.217391 123.143974 
L 251.91004 123.856856 
L 252.150502 124.151102 
L 252.667848 124.783946 
L 253.083612 125.265891 
L 253.477784 125.711037 
L 254.016722 126.318478 
L 254.29983 126.638127 
L 254.949833 127.371512 
L 255.121407 127.565217 
L 255.882943 128.424978 
L 255.942583 128.492308 
L 256.816054 129.412726 
L 256.822826 129.419398 
L 257.749164 130.341043 
L 257.754345 130.346488 
L 258.613705 131.273579 
L 258.682274 131.347537 
L 259.477665 132.200669 
L 259.615385 132.349429 
L 260.345488 133.127759 
L 260.548495 133.344575 
L 261.225022 134.054849 
L 261.481605 134.41379 
L 261.827818 134.98194 
L 262.368349 135.90903 
L 262.414716 135.9893 
L 262.91618 136.83612 
L 263.347826 137.565056 
L 263.465163 137.763211 
L 264.006582 138.690301 
L 264.280936 139.175028 
L 264.530636 139.617391 
L 265.054011 140.544482 
L 265.214047 140.855268 
L 265.519753 141.471572 
L 265.996294 142.398662 
L 266.147157 142.685514 
L 266.482293 143.325753 
L 266.90511 144.252843 
L 267.080268 144.684982 
L 267.282808 145.179933 
L 267.668617 146.107023 
L 268.013378 146.92583 
L 268.05897 147.034114 
L 268.449319 147.961204 
L 268.835509 148.888294 
L 268.946488 149.162154 
L 269.209509 149.815385 
L 269.58279 150.742475 
L 269.879599 151.479611 
L 269.956082 151.669565 
L 270.329348 152.596656 
L 270.702634 153.523746 
L 270.812709 153.850808 
L 271.00317 154.450836 
L 271.165184 155.377926 
L 271.429343 156.305017 
L 271.699865 157.232107 
L 271.745819 157.389599 
L 271.970383 158.159197 
L 272.219167 159.086288 
L 272.422588 160.013378 
L 272.609917 160.940468 
L 272.67893 161.28478 
L 272.795741 161.867559 
L 272.981582 162.794649 
L 273.167428 163.721739 
L 273.353264 164.648829 
L 273.539111 165.57592 
L 273.61204 165.939782 
L 273.724929 166.50301 
L 273.910783 167.4301 
L 274.096622 168.357191 
L 274.073869 169.284281 
L 273.999654 170.211371 
L 273.925432 171.138462 
L 273.85128 172.065552 
L 273.777402 172.992642 
L 273.703543 173.919732 
L 273.629653 174.846823 
L 273.61204 175.067905 
L 273.555794 175.773913 
L 273.481917 176.701003 
L 273.428033 177.628094 
L 273.376703 178.555184 
L 273.291934 179.482274 
L 273.140972 180.409365 
L 272.990003 181.336455 
L 272.839025 182.263545 
L 272.799501 183.190635 
L 272.747265 184.117726 
L 272.694387 185.044816 
L 272.67893 185.315924 
L 272.641529 185.971906 
L 272.588638 186.898997 
L 272.535776 187.826087 
L 272.483337 188.753177 
L 272.433797 189.680268 
L 272.38425 190.607358 
L 272.306376 191.534448 
L 271.875444 192.461538 
L 271.745819 192.7215 
L 271.410326 193.388629 
L 270.944106 194.315719 
L 270.812709 194.577002 
L 270.477884 195.242809 
L 270.011646 196.1699 
L 269.879599 196.428435 
L 269.540776 197.09699 
L 269.000587 198.02408 
L 268.946488 198.130138 
L 268.505328 198.951171 
L 268.032137 199.878261 
L 268.013378 199.914466 
L 267.551799 200.805351 
L 267.080268 201.715459 
L 267.071306 201.732441 
L 266.588901 202.659532 
L 266.147157 203.570063 
L 266.139235 203.586622 
L 265.74683 204.513712 
L 265.362609 205.440803 
L 265.214047 205.799771 
L 264.973316 206.367893 
L 264.582413 207.294983 
L 264.280936 208.023645 
L 264.198958 208.222074 
L 263.818625 209.149164 
L 263.447625 210.076254 
L 263.347826 210.334826 
L 263.092345 211.003344 
L 262.730057 211.930435 
L 262.414716 212.732953 
L 262.366351 212.857525 
L 262.006736 213.784615 
L 261.631342 214.711706 
L 261.481605 215.069855 
L 261.244676 215.638796 
L 260.858563 216.565886 
L 260.548495 217.310427 
L 260.472472 217.492977 
L 259.990303 218.420067 
L 259.615385 219.037516 
L 259.427374 219.347157 
L 258.856377 220.274247 
L 258.682274 220.519435 
L 258.160874 221.201338 
L 257.749164 221.728254 
L 257.4151 222.128428 
L 256.816054 222.763785 
L 256.532247 223.055518 
L 255.882943 223.694888 
L 255.590747 223.982609 
L 254.949833 224.61368 
L 254.649206 224.909699 
L 254.016722 225.532508 
L 253.707711 225.836789 
L 253.083612 226.451321 
L 252.788785 226.76388 
L 252.150502 227.562703 
L 252.051538 227.69097 
L 251.33623 228.61806 
L 251.217391 228.772084 
L 250.616473 229.545151 
L 250.284281 229.961622 
L 249.832823 230.472241 
L 249.351171 230.930718 
L 248.819877 231.399331 
L 248.41806 231.753746 
L 247.768796 232.326421 
L 247.48495 232.576786 
L 246.717699 233.253512 
L 246.551839 233.405965 
L 245.766903 234.180602 
L 245.618729 234.339033 
L 244.781031 235.107692 
L 244.685619 235.184842 
L 243.752508 235.931134 
L 243.622915 236.034783 
L 242.819398 236.677423 
L 242.463732 236.961873 
L 241.886288 237.423715 
L 241.304563 237.888963 
L 240.953177 238.169985 
L 240.145395 238.816054 
L 240.020067 238.916293 
L 239.086957 239.662595 
L 238.986245 239.743144 
L 238.153846 240.408865 
L 237.827047 240.670234 
L 237.220736 241.155159 
L 236.667883 241.597324 
L 236.287625 241.901443 
L 235.500465 242.524415 
L 235.354515 242.640044 
L 234.421405 243.353857 
L 234.286562 243.451505 
L 233.488294 243.978397 
L 232.881993 244.378595 
L 232.555184 244.594312 
L 231.622074 245.167614 
L 231.211687 245.305686 
L 230.688963 245.461909 
L 229.755853 245.740798 
L 228.822742 246.01968 
L 228.10979 246.232776 
L 227.889632 246.29858 
L 226.956522 246.577465 
L 226.023411 246.874575 
L 225.196917 247.159866 
L 225.090301 247.196668 
L 224.157191 247.518756 
L 223.22408 247.834285 
L 222.428329 248.086957 
L 222.29097 248.130572 
L 221.35786 248.425748 
L 220.424749 248.717083 
L 219.491639 249.004817 
L 219.460972 249.014047 
L 218.558528 249.285643 
L 217.625418 249.550467 
L 216.692308 249.814329 
L 216.243841 249.941137 
L 215.759197 250.083129 
L 214.826087 250.450392 
L 213.892977 250.817727 
L 213.764693 250.868227 
L 212.959866 251.185059 
L 212.026756 251.552421 
L 211.409747 251.795318 
L 211.093645 251.919756 
L 210.160535 252.287101 
L 209.227425 252.654454 
L 209.054805 252.722408 
L 208.294314 253.021793 
L 207.361204 253.389134 
L 206.699868 253.649498 
L 206.428094 253.756491 
L 205.494983 254.123809 
L 204.561873 254.479253 
L 204.275903 254.576589 
L 203.628763 254.794421 
L 202.695652 255.124217 
L 201.762542 255.444003 
L 201.586353 255.503679 
L 200.829431 255.760043 
L 199.896321 256.069584 
L 198.963211 256.353467 
L 198.0301 256.41381 
L 197.626291 256.430769 
L 197.09699 256.453456 
L 196.16388 256.499755 
L 195.230769 256.5466 
L 194.297659 256.648015 
L 193.364548 256.750152 
L 192.431438 256.853537 
L 191.498328 256.920711 
L 190.565217 256.998121 
L 189.632107 257.135627 
L 188.698997 257.284212 
L 188.236461 257.35786 
L 187.765886 257.432787 
L 186.832776 257.581377 
L 185.899666 257.729954 
L 184.966555 257.878537 
L 184.033445 257.919498 
L 183.100334 257.938051 
L 182.167224 257.953167 
L 181.234114 257.928907 
L 180.301003 257.893383 
L 179.367893 257.861338 
L 178.434783 257.831424 
L 177.501672 257.806313 
L 176.568562 257.781202 
L 175.635452 257.727928 
L 174.702341 257.66096 
L 173.769231 257.594022 
L 172.83612 257.509856 
L 171.90301 257.415359 
z
" clip-path="url(#pb7f7ab45c8)" style="fill: none; stroke: #000000; stroke-width: 1.5"/>
   </g>
   <g id="patch_3">
    <path d="M 45 320.4 
L 45 43.2 
" style="fill: none; stroke: #000000; stroke-width: 0.8; stroke-linejoin: miter; stroke-linecap: square"/>
   </g>
   <g id="patch_4">
    <path d="M 324 320.4 
L 324 43.2 
" style="fill: none; stroke: #000000; stroke-width: 0.8; stroke-linejoin: miter; stroke-linecap: square"/>
   </g>
   <g id="patch_5">
    <path d="M 45 320.4 
L 324 320.4 
" style="fill: none; stroke: #000000; stroke-width: 0.8; stroke-linejoin: miter; stroke-linecap: square"/>
   </g>
   <g id="patch_6">
    <path d="M 45 43.2 
L 324 43.2 
" style="fill: none; stroke: #000000; stroke-width: 0.8; stroke-linejoin: miter; stroke-linecap: square"/>
   </g>
  </g>
 </g>
 <defs>
  <clipPath id="pb7f7ab45c8">
   <rect x="45" y="43.2" width="279" height="277.2"/>
  </clipPath>
 </defs>
</svg>
