<?xml version="1.0" encoding="utf-8" standalone="no"?>
<!DOCTYPE svg PUBLIC "-//W3C//DTD SVG 1.1//EN"
  "http://www.w3.org/Graphics/SVG/1.1/DTD/svg11.dtd">
<svg xmlns:xlink="http://www.w3.org/1999/xlink" width="360pt" height="360pt" viewBox="0 0 360 360" xmlns="http://www.w3.org/2000/svg" version="1.1">
 <metadata>
  <rdf:RDF xmlns:dc="http://purl.org/dc/elements/1.1/" xmlns:cc="http://creativecommons.org/ns#" xmlns:rdf="http://www.w3.org/1999/02/22-rdf-syntax-ns#">
   <cc:Work>
    <dc:type rdf:resource="http://purl.org/dc/dcmitype/StillImage"/>
    <dc:date>2022-04-03T22:41:42.962960</dc:date>
    <dc:format>image/svg+xml</dc:format>
    <dc:creator>
     <cc:Agent>
      <dc:title>Matplotlib v3.5.1, https://matplotlib.org/</dc:title>
     </cc:Agent>
    </dc:creator>
   </cc:Work>
  </rdf:RDF>
 </metadata>
 <defs>
  <style type="text/css">*{stroke-linejoin: round; stroke-linecap: butt}</style>
 </defs>
 <g id="figure_1">
  <g id="patch_1">
   <path d="M 0 360 
L 360 360 
L 360 0 
L 0 0 
z
" style="fill: #ffffff"/>
  </g>
  <g id="axes_1">
   <g id="patch_2">
    <path d="M 45 320.4 
L 324 320.4 
L 324 43.2 
L 45 43.2 
z
" style="fill: #ffffff"/>
   </g>
   <g id="PathCollection_1">
    <defs>
     <path id="m1e9ab367b8" d="M 0 0.5 
C 0.132602 0.5 0.25979 0.447317 0.353553 0.353553 
C 0.447317 0.25979 0.5 0.132602 0.5 0 
C 0.5 -0.132602 0.447317 -0.25979 0.353553 -0.353553 
C 0.25979 -0.447317 0.132602 -0.5 0 -0.5 
C -0.132602 -0.5 -0.25979 -0.447317 -0.353553 -0.353553 
C -0.447317 -0.25979 -0.5 -0.132602 -0.5 0 
C -0.5 0.132602 -0.447317 0.25979 -0.353553 0.353553 
C -0.25979 0.447317 -0.132602 0.5 0 0.5 
z
" style="stroke: #ff0000"/>
    </defs>
    <g clip-path="url(#p04c88f1f4a)">
     <use xlink:href="#m1e9ab367b8" x="223.272093" y="181.568614" style="fill: #ff0000; stroke: #ff0000"/>
     <use xlink:href="#m1e9ab367b8" x="220.46839" y="178.071682" style="fill: #ff0000; stroke: #ff0000"/>
     <use xlink:href="#m1e9ab367b8" x="218.092698" y="174.975746" style="fill: #ff0000; stroke: #ff0000"/>
     <use xlink:href="#m1e9ab367b8" x="216.181075" y="172.090458" style="fill: #ff0000; stroke: #ff0000"/>
     <use xlink:href="#m1e9ab367b8" x="214.612532" y="169.271909" style="fill: #ff0000; stroke: #ff0000"/>
     <use xlink:href="#m1e9ab367b8" x="213.170641" y="166.466385" style="fill: #ff0000; stroke: #ff0000"/>
     <use xlink:href="#m1e9ab367b8" x="211.624251" y="163.716304" style="fill: #ff0000; stroke: #ff0000"/>
     <use xlink:href="#m1e9ab367b8" x="209.798754" y="161.130307" style="fill: #ff0000; stroke: #ff0000"/>
     <use xlink:href="#m1e9ab367b8" x="207.616327" y="158.83281" style="fill: #ff0000; stroke: #ff0000"/>
     <use xlink:href="#m1e9ab367b8" x="205.097384" y="156.914495" style="fill: #ff0000; stroke: #ff0000"/>
     <use xlink:href="#m1e9ab367b8" x="202.330755" y="155.401462" style="fill: #ff0000; stroke: #ff0000"/>
     <use xlink:href="#m1e9ab367b8" x="199.429711" y="154.250185" style="fill: #ff0000; stroke: #ff0000"/>
     <use xlink:href="#m1e9ab367b8" x="196.490913" y="153.365369" style="fill: #ff0000; stroke: #ff0000"/>
     <use xlink:href="#m1e9ab367b8" x="193.56738" y="152.633091" style="fill: #ff0000; stroke: #ff0000"/>
     <use xlink:href="#m1e9ab367b8" x="190.660653" y="151.95999" style="fill: #ff0000; stroke: #ff0000"/>
     <use xlink:href="#m1e9ab367b8" x="187.732774" y="151.306772" style="fill: #ff0000; stroke: #ff0000"/>
     <use xlink:href="#m1e9ab367b8" x="184.732888" y="150.702911" style="fill: #ff0000; stroke: #ff0000"/>
     <use xlink:href="#m1e9ab367b8" x="181.626692" y="150.234343" style="fill: #ff0000; stroke: #ff0000"/>
     <use xlink:href="#m1e9ab367b8" x="178.414118" y="150.00696" style="fill: #ff0000; stroke: #ff0000"/>
     <use xlink:href="#m1e9ab367b8" x="175.125063" y="150.100199" style="fill: #ff0000; stroke: #ff0000"/>
     <use xlink:href="#m1e9ab367b8" x="171.79296" y="150.53041" style="fill: #ff0000; stroke: #ff0000"/>
     <use xlink:href="#m1e9ab367b8" x="168.417333" y="151.241289" style="fill: #ff0000; stroke: #ff0000"/>
     <use xlink:href="#m1e9ab367b8" x="164.934296" y="152.129092" style="fill: #ff0000; stroke: #ff0000"/>
     <use xlink:href="#m1e9ab367b8" x="161.214321" y="153.096044" style="fill: #ff0000; stroke: #ff0000"/>
     <use xlink:href="#m1e9ab367b8" x="157.097087" y="154.111109" style="fill: #ff0000; stroke: #ff0000"/>
     <use xlink:href="#m1e9ab367b8" x="152.456043" y="155.250589" style="fill: #ff0000; stroke: #ff0000"/>
     <use xlink:href="#m1e9ab367b8" x="147.268787" y="156.697404" style="fill: #ff0000; stroke: #ff0000"/>
     <use xlink:href="#m1e9ab367b8" x="141.66341" y="158.696022" style="fill: #ff0000; stroke: #ff0000"/>
     <use xlink:href="#m1e9ab367b8" x="135.920595" y="161.480344" style="fill: #ff0000; stroke: #ff0000"/>
     <use xlink:href="#m1e9ab367b8" x="130.431044" y="165.202603" style="fill: #ff0000; stroke: #ff0000"/>
     <use xlink:href="#m1e9ab367b8" x="125.625236" y="169.887225" style="fill: #ff0000; stroke: #ff0000"/>
     <use xlink:href="#m1e9ab367b8" x="121.898046" y="175.41985" style="fill: #ff0000; stroke: #ff0000"/>
     <use xlink:href="#m1e9ab367b8" x="119.545538" y="181.568614" style="fill: #ff0000; stroke: #ff0000"/>
     <use xlink:href="#m1e9ab367b8" x="118.723988" y="188.02798" style="fill: #ff0000; stroke: #ff0000"/>
     <use xlink:href="#m1e9ab367b8" x="119.437178" y="194.472944" style="fill: #ff0000; stroke: #ff0000"/>
     <use xlink:href="#m1e9ab367b8" x="121.554401" y="200.609954" style="fill: #ff0000; stroke: #ff0000"/>
     <use xlink:href="#m1e9ab367b8" x="124.853513" y="206.211445" style="fill: #ff0000; stroke: #ff0000"/>
     <use xlink:href="#m1e9ab367b8" x="129.07277" y="211.127626" style="fill: #ff0000; stroke: #ff0000"/>
     <use xlink:href="#m1e9ab367b8" x="133.951266" y="215.280899" style="fill: #ff0000; stroke: #ff0000"/>
     <use xlink:href="#m1e9ab367b8" x="139.246666" y="218.657356" style="fill: #ff0000; stroke: #ff0000"/>
     <use xlink:href="#m1e9ab367b8" x="144.736168" y="221.307291" style="fill: #ff0000; stroke: #ff0000"/>
     <use xlink:href="#m1e9ab367b8" x="150.219208" y="223.352333" style="fill: #ff0000; stroke: #ff0000"/>
     <use xlink:href="#m1e9ab367b8" x="155.537265" y="224.981053" style="fill: #ff0000; stroke: #ff0000"/>
     <use xlink:href="#m1e9ab367b8" x="160.607398" y="226.413035" style="fill: #ff0000; stroke: #ff0000"/>
     <use xlink:href="#m1e9ab367b8" x="165.446034" y="227.830795" style="fill: #ff0000; stroke: #ff0000"/>
     <use xlink:href="#m1e9ab367b8" x="170.157063" y="229.308671" style="fill: #ff0000; stroke: #ff0000"/>
     <use xlink:href="#m1e9ab367b8" x="174.880064" y="230.782534" style="fill: #ff0000; stroke: #ff0000"/>
     <use xlink:href="#m1e9ab367b8" x="179.725071" y="232.085805" style="fill: #ff0000; stroke: #ff0000"/>
     <use xlink:href="#m1e9ab367b8" x="184.732888" y="233.034568" style="fill: #ff0000; stroke: #ff0000"/>
     <use xlink:href="#m1e9ab367b8" x="189.881892" y="233.510047" style="fill: #ff0000; stroke: #ff0000"/>
     <use xlink:href="#m1e9ab367b8" x="195.12753" y="233.488862" style="fill: #ff0000; stroke: #ff0000"/>
     <use xlink:href="#m1e9ab367b8" x="200.438333" y="233.008502" style="fill: #ff0000; stroke: #ff0000"/>
     <use xlink:href="#m1e9ab367b8" x="205.798682" y="232.097829" style="fill: #ff0000; stroke: #ff0000"/>
     <use xlink:href="#m1e9ab367b8" x="211.175446" y="230.719996" style="fill: #ff0000; stroke: #ff0000"/>
     <use xlink:href="#m1e9ab367b8" x="216.470945" y="228.761526" style="fill: #ff0000; stroke: #ff0000"/>
     <use xlink:href="#m1e9ab367b8" x="221.493057" y="226.072026" style="fill: #ff0000; stroke: #ff0000"/>
     <use xlink:href="#m1e9ab367b8" x="225.963766" y="222.533486" style="fill: #ff0000; stroke: #ff0000"/>
     <use xlink:href="#m1e9ab367b8" x="229.568084" y="218.12652" style="fill: #ff0000; stroke: #ff0000"/>
     <use xlink:href="#m1e9ab367b8" x="232.026201" y="212.965122" style="fill: #ff0000; stroke: #ff0000"/>
     <use xlink:href="#m1e9ab367b8" x="233.162653" y="207.287855" style="fill: #ff0000; stroke: #ff0000"/>
     <use xlink:href="#m1e9ab367b8" x="232.95158" y="201.412594" style="fill: #ff0000; stroke: #ff0000"/>
     <use xlink:href="#m1e9ab367b8" x="231.530391" y="195.672895" style="fill: #ff0000; stroke: #ff0000"/>
     <use xlink:href="#m1e9ab367b8" x="229.18292" y="190.353232" style="fill: #ff0000; stroke: #ff0000"/>
     <use xlink:href="#m1e9ab367b8" x="226.293248" y="185.635544" style="fill: #ff0000; stroke: #ff0000"/>
    </g>
   </g>
   <g id="matplotlib.axis_1">
    <g id="xtick_1">
     <g id="line2d_1">
      <defs>
       <path id="m0ae8b9dc67" d="M 0 0 
L 0 3.5 
" style="stroke: #000000; stroke-width: 0.8"/>
      </defs>
      <g>
       <use xlink:href="#m0ae8b9dc67" x="45" y="320.4" style="stroke: #000000; stroke-width: 0.8"/>
      </g>
     </g>
     <g id="text_1">
      <!-- −3 -->
      <g transform="translate(37.628906 334.998438)scale(0.1 -0.1)">
       <defs>
        <path id="DejaVuSans-2212" d="M 678 2272 
L 4684 2272 
L 4684 1741 
L 678 1741 
L 678 2272 
z
" transform="scale(0.015625)"/>
        <path id="DejaVuSans-33" d="M 2597 2516 
Q 3050 2419 3304 2112 
Q 3559 1806 3559 1356 
Q 3559 666 3084 287 
Q 2609 -91 1734 -91 
Q 1441 -91 1130 -33 
Q 819 25 488 141 
L 488 750 
Q 750 597 1062 519 
Q 1375 441 1716 441 
Q 2309 441 2620 675 
Q 2931 909 2931 1356 
Q 2931 1769 2642 2001 
Q 2353 2234 1838 2234 
L 1294 2234 
L 1294 2753 
L 1863 2753 
Q 2328 2753 2575 2939 
Q 2822 3125 2822 3475 
Q 2822 3834 2567 4026 
Q 2313 4219 1838 4219 
Q 1578 4219 1281 4162 
Q 984 4106 628 3988 
L 628 4550 
Q 988 4650 1302 4700 
Q 1616 4750 1894 4750 
Q 2613 4750 3031 4423 
Q 3450 4097 3450 3541 
Q 3450 3153 3228 2886 
Q 3006 2619 2597 2516 
z
" transform="scale(0.015625)"/>
       </defs>
       <use xlink:href="#DejaVuSans-2212"/>
       <use xlink:href="#DejaVuSans-33" x="83.789062"/>
      </g>
     </g>
    </g>
    <g id="xtick_2">
     <g id="line2d_2">
      <g>
       <use xlink:href="#m0ae8b9dc67" x="91.577629" y="320.4" style="stroke: #000000; stroke-width: 0.8"/>
      </g>
     </g>
     <g id="text_2">
      <!-- −2 -->
      <g transform="translate(84.206536 334.998438)scale(0.1 -0.1)">
       <defs>
        <path id="DejaVuSans-32" d="M 1228 531 
L 3431 531 
L 3431 0 
L 469 0 
L 469 531 
Q 828 903 1448 1529 
Q 2069 2156 2228 2338 
Q 2531 2678 2651 2914 
Q 2772 3150 2772 3378 
Q 2772 3750 2511 3984 
Q 2250 4219 1831 4219 
Q 1534 4219 1204 4116 
Q 875 4013 500 3803 
L 500 4441 
Q 881 4594 1212 4672 
Q 1544 4750 1819 4750 
Q 2544 4750 2975 4387 
Q 3406 4025 3406 3419 
Q 3406 3131 3298 2873 
Q 3191 2616 2906 2266 
Q 2828 2175 2409 1742 
Q 1991 1309 1228 531 
z
" transform="scale(0.015625)"/>
       </defs>
       <use xlink:href="#DejaVuSans-2212"/>
       <use xlink:href="#DejaVuSans-32" x="83.789062"/>
      </g>
     </g>
    </g>
    <g id="xtick_3">
     <g id="line2d_3">
      <g>
       <use xlink:href="#m0ae8b9dc67" x="138.155259" y="320.4" style="stroke: #000000; stroke-width: 0.8"/>
      </g>
     </g>
     <g id="text_3">
      <!-- −1 -->
      <g transform="translate(130.784165 334.998438)scale(0.1 -0.1)">
       <defs>
        <path id="DejaVuSans-31" d="M 794 531 
L 1825 531 
L 1825 4091 
L 703 3866 
L 703 4441 
L 1819 4666 
L 2450 4666 
L 2450 531 
L 3481 531 
L 3481 0 
L 794 0 
L 794 531 
z
" transform="scale(0.015625)"/>
       </defs>
       <use xlink:href="#DejaVuSans-2212"/>
       <use xlink:href="#DejaVuSans-31" x="83.789062"/>
      </g>
     </g>
    </g>
    <g id="xtick_4">
     <g id="line2d_4">
      <g>
       <use xlink:href="#m0ae8b9dc67" x="184.732888" y="320.4" style="stroke: #000000; stroke-width: 0.8"/>
      </g>
     </g>
     <g id="text_4">
      <!-- 0 -->
      <g transform="translate(181.551638 334.998438)scale(0.1 -0.1)">
       <defs>
        <path id="DejaVuSans-30" d="M 2034 4250 
Q 1547 4250 1301 3770 
Q 1056 3291 1056 2328 
Q 1056 1369 1301 889 
Q 1547 409 2034 409 
Q 2525 409 2770 889 
Q 3016 1369 3016 2328 
Q 3016 3291 2770 3770 
Q 2525 4250 2034 4250 
z
M 2034 4750 
Q 2819 4750 3233 4129 
Q 3647 3509 3647 2328 
Q 3647 1150 3233 529 
Q 2819 -91 2034 -91 
Q 1250 -91 836 529 
Q 422 1150 422 2328 
Q 422 3509 836 4129 
Q 1250 4750 2034 4750 
z
" transform="scale(0.015625)"/>
       </defs>
       <use xlink:href="#DejaVuSans-30"/>
      </g>
     </g>
    </g>
    <g id="xtick_5">
     <g id="line2d_5">
      <g>
       <use xlink:href="#m0ae8b9dc67" x="231.310518" y="320.4" style="stroke: #000000; stroke-width: 0.8"/>
      </g>
     </g>
     <g id="text_5">
      <!-- 1 -->
      <g transform="translate(228.129268 334.998438)scale(0.1 -0.1)">
       <use xlink:href="#DejaVuSans-31"/>
      </g>
     </g>
    </g>
    <g id="xtick_6">
     <g id="line2d_6">
      <g>
       <use xlink:href="#m0ae8b9dc67" x="277.888147" y="320.4" style="stroke: #000000; stroke-width: 0.8"/>
      </g>
     </g>
     <g id="text_6">
      <!-- 2 -->
      <g transform="translate(274.706897 334.998438)scale(0.1 -0.1)">
       <use xlink:href="#DejaVuSans-32"/>
      </g>
     </g>
    </g>
   </g>
   <g id="matplotlib.axis_2">
    <g id="ytick_1">
     <g id="line2d_7">
      <defs>
       <path id="m392ae3fc83" d="M 0 0 
L -3.5 0 
" style="stroke: #000000; stroke-width: 0.8"/>
      </defs>
      <g>
       <use xlink:href="#m392ae3fc83" x="45" y="320.4" style="stroke: #000000; stroke-width: 0.8"/>
      </g>
     </g>
     <g id="text_7">
      <!-- −3 -->
      <g transform="translate(23.257812 324.199219)scale(0.1 -0.1)">
       <use xlink:href="#DejaVuSans-2212"/>
       <use xlink:href="#DejaVuSans-33" x="83.789062"/>
      </g>
     </g>
    </g>
    <g id="ytick_2">
     <g id="line2d_8">
      <g>
       <use xlink:href="#m392ae3fc83" x="45" y="274.122871" style="stroke: #000000; stroke-width: 0.8"/>
      </g>
     </g>
     <g id="text_8">
      <!-- −2 -->
      <g transform="translate(23.257812 277.92209)scale(0.1 -0.1)">
       <use xlink:href="#DejaVuSans-2212"/>
       <use xlink:href="#DejaVuSans-32" x="83.789062"/>
      </g>
     </g>
    </g>
    <g id="ytick_3">
     <g id="line2d_9">
      <g>
       <use xlink:href="#m392ae3fc83" x="45" y="227.845743" style="stroke: #000000; stroke-width: 0.8"/>
      </g>
     </g>
     <g id="text_9">
      <!-- −1 -->
      <g transform="translate(23.257812 231.644962)scale(0.1 -0.1)">
       <use xlink:href="#DejaVuSans-2212"/>
       <use xlink:href="#DejaVuSans-31" x="83.789062"/>
      </g>
     </g>
    </g>
    <g id="ytick_4">
     <g id="line2d_10">
      <g>
       <use xlink:href="#m392ae3fc83" x="45" y="181.568614" style="stroke: #000000; stroke-width: 0.8"/>
      </g>
     </g>
     <g id="text_10">
      <!-- 0 -->
      <g transform="translate(31.6375 185.367833)scale(0.1 -0.1)">
       <use xlink:href="#DejaVuSans-30"/>
      </g>
     </g>
    </g>
    <g id="ytick_5">
     <g id="line2d_11">
      <g>
       <use xlink:href="#m392ae3fc83" x="45" y="135.291486" style="stroke: #000000; stroke-width: 0.8"/>
      </g>
     </g>
     <g id="text_11">
      <!-- 1 -->
      <g transform="translate(31.6375 139.090705)scale(0.1 -0.1)">
       <use xlink:href="#DejaVuSans-31"/>
      </g>
     </g>
    </g>
    <g id="ytick_6">
     <g id="line2d_12">
      <g>
       <use xlink:href="#m392ae3fc83" x="45" y="89.014357" style="stroke: #000000; stroke-width: 0.8"/>
      </g>
     </g>
     <g id="text_12">
      <!-- 2 -->
      <g transform="translate(31.6375 92.813576)scale(0.1 -0.1)">
       <use xlink:href="#DejaVuSans-32"/>
      </g>
     </g>
    </g>
   </g>
   <g id="PathCollection_2">
    <path d="M 186.595993 211.227376 
L 186.484006 211.185977 
L 186.130217 211.054501 
L 185.664441 210.881411 
L 185.238734 210.723205 
L 185.198664 210.708314 
L 184.732888 210.535226 
L 184.267112 210.362132 
L 183.993454 210.260434 
L 183.801336 210.189037 
L 183.335559 210.015944 
L 182.869783 209.842853 
L 182.748182 209.797663 
L 182.404007 209.669757 
L 181.93823 209.496665 
L 181.50292 209.334891 
L 181.472454 209.323171 
L 181.006678 209.142358 
L 180.540902 208.960223 
L 180.320205 208.87212 
L 180.075125 208.775639 
L 179.609349 208.604222 
L 179.143573 208.431892 
L 179.080839 208.409349 
L 178.677796 208.260109 
L 178.21202 208.026325 
L 178.053735 207.946578 
L 177.746244 207.791658 
L 177.280467 207.556987 
L 177.135215 207.483806 
L 176.814691 207.322319 
L 176.348915 207.087641 
L 176.216713 207.021035 
L 175.883139 206.852976 
L 175.417362 206.618306 
L 175.298189 206.558264 
L 174.951586 206.38364 
L 174.48581 206.14897 
L 174.418511 206.095492 
L 174.020033 205.738506 
L 173.864816 205.632721 
L 173.554257 205.437406 
L 173.088481 205.300331 
L 172.645443 205.16995 
L 172.622705 205.163258 
L 172.156928 205.026175 
L 171.691152 204.889099 
L 171.225376 204.829137 
L 170.759599 204.858826 
L 170.293823 204.888516 
L 169.828047 204.918206 
L 169.36227 204.941011 
L 168.896494 204.892143 
L 168.430718 204.834884 
L 167.964942 204.716666 
L 167.932735 204.707179 
L 167.499165 204.579462 
L 167.033389 204.442258 
L 166.567613 204.305053 
L 166.361734 204.244407 
L 166.101836 204.167848 
L 165.63606 204.030644 
L 165.170284 203.893443 
L 164.790727 203.781636 
L 164.704508 203.756238 
L 164.238731 203.619034 
L 163.772955 203.481829 
L 163.307179 203.344623 
L 163.219734 203.318865 
L 162.841402 203.207421 
L 162.375626 203.073857 
L 161.90985 202.960297 
L 161.444073 202.866444 
L 161.392707 202.856093 
L 160.978297 202.772587 
L 160.512521 202.716749 
L 160.046745 202.667065 
L 159.580968 202.616903 
L 159.115192 202.558672 
L 158.649416 202.496893 
L 158.305256 202.393322 
L 158.183639 202.352113 
L 157.717863 202.148076 
L 157.252087 201.94404 
L 157.221295 201.930551 
L 156.786311 201.740004 
L 156.320534 201.53597 
L 156.164868 201.46778 
L 155.854758 201.331934 
L 155.388982 201.127901 
L 155.10844 201.005008 
L 154.923205 200.931179 
L 154.457429 200.754116 
L 153.991653 200.588385 
L 153.856423 200.542237 
L 153.525876 200.429536 
L 153.0601 200.270729 
L 152.594324 200.111924 
L 152.499126 200.079466 
L 152.128548 199.952817 
L 151.662771 199.794311 
L 151.196995 199.635504 
L 151.148973 199.616694 
L 150.731219 199.430731 
L 150.265442 199.175879 
L 150.225035 199.153923 
L 149.799666 198.917375 
L 149.392853 198.691152 
L 149.33389 198.658364 
L 148.868114 198.39532 
L 148.579713 198.228381 
L 148.402337 198.124873 
L 147.936561 197.820293 
L 147.869422 197.765609 
L 147.470785 197.395143 
L 147.37146 197.302838 
L 147.005008 196.96228 
L 146.873501 196.840067 
L 146.539232 196.529423 
L 146.375536 196.377295 
L 146.073456 196.096566 
L 145.877573 195.914524 
L 145.607679 195.664318 
L 145.378988 195.451753 
L 145.141903 195.233091 
L 144.877677 194.988982 
L 144.676127 194.803069 
L 144.45338 194.52621 
L 144.210351 194.17657 
L 144.13203 194.063439 
L 143.811647 193.600668 
L 143.744574 193.503785 
L 143.491272 193.137896 
L 143.278798 192.830987 
L 143.170894 192.675125 
L 142.867568 192.212354 
L 142.813022 192.094388 
L 142.651931 191.749583 
L 142.500087 191.286811 
L 142.371989 190.82404 
L 142.347245 190.734648 
L 142.243895 190.361269 
L 142.150706 189.898497 
L 142.064331 189.435726 
L 141.977954 188.972955 
L 141.891592 188.510184 
L 141.88911 188.047412 
L 141.925221 187.584641 
L 142.010413 187.12187 
L 142.135564 186.659098 
L 142.347245 186.209214 
L 142.353852 186.196327 
L 142.595492 185.733556 
L 142.813022 185.273923 
L 142.814498 185.270785 
L 143.026627 184.808013 
L 143.278798 184.46775 
L 143.374024 184.345242 
L 143.733741 183.882471 
L 143.744574 183.868534 
L 144.093454 183.419699 
L 144.210351 183.26931 
L 144.453162 182.956928 
L 144.676127 182.767 
L 145.101559 182.494157 
L 145.141903 182.469186 
L 145.607679 182.179641 
L 145.827749 182.031386 
L 146.073456 181.856638 
L 146.478433 181.568614 
L 146.539232 181.525372 
L 147.005008 181.194107 
L 147.129111 181.105843 
L 147.470785 180.888382 
L 147.809055 180.643072 
L 147.936561 180.566281 
L 148.402337 180.292613 
L 148.577436 180.180301 
L 148.868114 180.005238 
L 149.21682 179.717529 
L 149.33389 179.616667 
L 149.712071 179.254758 
L 149.799666 179.170931 
L 150.190702 178.791987 
L 150.265442 178.740612 
L 150.731219 178.612036 
L 151.196995 178.51071 
L 151.662771 178.401701 
L 152.014316 178.329215 
L 152.128548 178.298137 
L 152.594324 178.171159 
L 153.0601 178.045705 
L 153.525876 177.94375 
L 153.896497 177.866444 
L 153.991653 177.846596 
L 154.457429 177.749435 
L 154.923205 177.652281 
L 155.388982 177.555121 
L 155.854758 177.457968 
L 156.115063 177.403673 
L 156.320534 177.360815 
L 156.786311 177.263654 
L 157.252087 177.166497 
L 157.717863 177.082955 
L 158.183639 177.012212 
L 158.649416 176.94146 
L 158.653094 176.940902 
L 159.115192 176.870711 
L 159.580968 176.795827 
L 160.046745 176.706069 
L 160.512521 176.594313 
L 160.978297 176.482554 
L 160.996735 176.47813 
L 161.444073 176.370791 
L 161.90985 176.259039 
L 162.375626 176.147278 
L 162.841402 176.035519 
L 162.925424 176.015359 
L 163.307179 175.923762 
L 163.772955 175.811999 
L 164.238731 175.700245 
L 164.704508 175.588481 
L 164.854099 175.552588 
L 165.170284 175.476724 
L 165.63606 175.364965 
L 166.101836 175.253207 
L 166.567613 175.105116 
L 166.612995 175.089816 
L 167.033389 174.948093 
L 167.499165 174.791061 
L 167.964942 174.634033 
L 167.985669 174.627045 
L 168.430718 174.477005 
L 168.896494 174.329192 
L 169.36227 174.189866 
L 169.447827 174.164274 
L 169.828047 174.050542 
L 170.293823 173.911227 
L 170.759599 173.771902 
L 170.994971 173.701503 
L 171.225376 173.6249 
L 171.691152 173.52498 
L 172.156928 173.3978 
L 172.622705 173.250886 
L 172.661236 173.238731 
L 173.088481 173.103959 
L 173.554257 172.957041 
L 174.020033 172.810123 
L 174.128342 172.77596 
L 174.48581 172.663208 
L 174.951586 172.516288 
L 175.417362 172.369368 
L 175.595471 172.313189 
L 175.883139 172.222451 
L 176.348915 172.05175 
L 176.714237 171.850417 
L 176.814691 171.795516 
L 177.280467 171.547171 
L 177.577312 171.387646 
L 177.746244 171.311547 
L 178.21202 171.326484 
L 178.677796 171.36186 
L 179.143573 171.384811 
L 179.203673 171.387646 
L 179.609349 171.42381 
L 180.075125 171.596531 
L 180.540902 171.769248 
L 180.759802 171.850417 
L 181.006678 171.929673 
L 181.472454 172.023922 
L 181.93823 172.08894 
L 182.404007 172.153956 
L 182.869783 172.218981 
L 183.335559 172.283993 
L 183.544706 172.313189 
L 183.801336 172.35281 
L 184.267112 172.53658 
L 184.505832 172.77596 
L 184.732888 172.982836 
L 184.957912 173.238731 
L 185.198664 173.512838 
L 185.364106 173.701503 
L 185.664441 174.044489 
L 185.769332 174.164274 
L 186.130217 174.549216 
L 186.203775 174.627045 
L 186.595993 175.02179 
L 186.676109 175.089816 
L 187.06177 175.379194 
L 187.469792 175.552588 
L 187.527546 175.577131 
L 187.993322 175.775071 
L 188.459098 175.982729 
L 188.521391 176.015359 
L 188.924875 176.226711 
L 189.390651 176.470696 
L 189.402229 176.47813 
L 189.856427 176.776656 
L 190.098151 176.940902 
L 190.322204 177.09314 
L 190.779206 177.403673 
L 190.78798 177.409635 
L 191.253756 177.726117 
L 191.460275 177.866444 
L 191.719533 178.042604 
L 192.141342 178.329215 
L 192.185309 178.35909 
L 192.651085 178.675577 
L 192.822408 178.791987 
L 193.116861 179.017368 
L 193.339711 179.254758 
L 193.582638 179.611215 
L 193.655092 179.717529 
L 193.970478 180.180301 
L 194.048414 180.294658 
L 194.285861 180.643072 
L 194.51419 180.978109 
L 194.601241 181.105843 
L 194.916626 181.568614 
L 194.979967 181.686972 
L 195.167488 182.031386 
L 195.445743 182.378125 
L 195.538856 182.494157 
L 195.910231 182.956928 
L 195.911519 182.958533 
L 196.281595 183.419699 
L 196.377295 183.538956 
L 196.591195 183.882471 
L 196.843072 184.297374 
L 196.866961 184.345242 
L 197.097916 184.808013 
L 197.308848 185.230667 
L 197.335242 185.270785 
L 197.641629 185.733556 
L 197.774624 185.92362 
L 198.025386 186.196327 
L 198.240401 186.430161 
L 198.450913 186.659098 
L 198.706177 186.968953 
L 198.831265 187.12187 
L 199.119829 187.584641 
L 199.171953 187.668234 
L 199.408391 188.047412 
L 199.63773 188.410796 
L 199.699986 188.510184 
L 200.038294 188.972955 
L 200.103506 189.061067 
L 200.380788 189.435726 
L 200.569282 189.690408 
L 200.723293 189.898497 
L 201.035058 190.320285 
L 201.065379 190.361269 
L 201.398273 190.82404 
L 201.500835 190.96668 
L 201.731015 191.286811 
L 201.966611 191.614487 
L 202.063746 191.749583 
L 202.396485 192.212354 
L 202.432387 192.262287 
L 202.729223 192.675125 
L 202.898164 192.910088 
L 203.061959 193.137896 
L 203.36394 193.55789 
L 203.394698 193.600668 
L 203.721875 194.063439 
L 203.829716 194.230196 
L 204.021737 194.52621 
L 204.295492 194.947086 
L 204.322748 194.988982 
L 204.623817 195.451753 
L 204.761269 195.663024 
L 204.924888 195.914524 
L 205.225943 196.377295 
L 205.227045 196.37899 
L 205.527014 196.840067 
L 205.692821 197.094928 
L 205.828082 197.302838 
L 206.129152 197.765609 
L 206.158598 197.810871 
L 206.430214 198.228381 
L 206.624374 198.526827 
L 206.731279 198.691152 
L 207.032356 199.153923 
L 207.09015 199.242759 
L 207.33342 199.616694 
L 207.555927 199.958709 
L 207.634488 200.079466 
L 207.93556 200.542237 
L 208.021703 200.689981 
L 208.218588 201.005008 
L 208.337001 201.46778 
L 208.353978 201.930551 
L 208.310732 202.393322 
L 208.287305 202.856093 
L 208.266172 203.318865 
L 208.245045 203.781636 
L 208.223687 204.244407 
L 208.202185 204.707179 
L 208.107755 205.16995 
L 208.021703 205.464141 
L 207.971587 205.632721 
L 207.555927 206.052698 
L 207.488172 206.095492 
L 207.09015 206.329051 
L 206.699529 206.558264 
L 206.624374 206.602191 
L 206.158598 206.875684 
L 205.910904 207.021035 
L 205.692821 207.149008 
L 205.227045 207.422329 
L 205.122277 207.483806 
L 204.761269 207.705227 
L 204.358413 207.946578 
L 204.295492 207.986838 
L 203.829716 208.284873 
L 203.582388 208.409349 
L 203.36394 208.48398 
L 202.898164 208.578152 
L 202.432387 208.672323 
L 201.966611 208.766491 
L 201.500835 208.860842 
L 201.444173 208.87212 
L 201.035058 208.954838 
L 200.569282 209.049007 
L 200.103506 209.147411 
L 199.63773 209.222711 
L 199.171953 209.322153 
L 199.126157 209.334891 
L 198.706177 209.457876 
L 198.240401 209.589333 
L 197.774624 209.720029 
L 197.541013 209.797663 
L 197.308848 209.904998 
L 196.843072 210.140888 
L 196.608246 210.260434 
L 196.377295 210.383381 
L 195.911519 210.623207 
L 195.59134 210.723205 
L 195.445743 210.770612 
L 194.979967 210.81642 
L 194.51419 210.864468 
L 194.048414 210.912521 
L 193.582638 210.960573 
L 193.116861 211.008625 
L 192.651085 211.056672 
L 192.185309 211.104728 
L 191.909958 211.185977 
L 191.719533 211.24887 
L 191.253756 211.41132 
L 190.78798 211.542756 
L 190.322204 211.546999 
L 189.856427 211.562914 
L 189.390651 211.531914 
L 188.924875 211.498184 
L 188.459098 211.464455 
L 187.993322 211.430728 
L 187.527546 211.396999 
L 187.06177 211.359218 
L 186.595993 211.227376 
z
" clip-path="url(#p04c88f1f4a)" style="fill: none; stroke-dasharray: 5.55,2.4; stroke-dashoffset: 0; stroke: #000000; stroke-width: 1.5"/>
   </g>
   <g id="PathCollection_3">
    <path d="M 188.924875 234.345445 
L 188.649757 234.324541 
L 188.459098 234.282868 
L 187.993322 234.19142 
L 187.527546 234.112298 
L 187.06177 234.043163 
L 186.595993 233.948972 
L 186.130217 233.870439 
L 185.965068 233.86177 
L 185.664441 233.797178 
L 185.198664 233.708813 
L 184.732888 233.623542 
L 184.267112 233.497596 
L 183.801336 233.399998 
L 183.777957 233.398998 
L 183.335559 233.263094 
L 182.869783 233.147105 
L 182.404007 233.006638 
L 181.983394 232.936227 
L 181.93823 232.920833 
L 181.472454 232.780644 
L 181.006678 232.667468 
L 180.540902 232.518193 
L 180.188805 232.473456 
L 180.075125 232.435084 
L 179.609349 232.298535 
L 179.143573 232.188098 
L 178.677796 232.031998 
L 178.394253 232.010684 
L 178.21202 231.949761 
L 177.746244 231.816757 
L 177.280467 231.716697 
L 176.814691 231.612657 
L 176.348915 231.551437 
L 176.237984 231.547913 
L 175.883139 231.469289 
L 175.417362 231.379155 
L 174.951586 231.301107 
L 174.48581 231.232759 
L 174.020033 231.108737 
L 173.92538 231.085142 
L 173.554257 230.875566 
L 173.088481 230.655442 
L 172.982333 230.622371 
L 172.622705 230.415863 
L 172.156928 230.198671 
L 172.040093 230.159599 
L 171.691152 229.955916 
L 171.225376 229.742723 
L 171.097856 229.696828 
L 170.759599 229.496058 
L 170.293823 229.287606 
L 170.15622 229.234057 
L 169.828047 229.036306 
L 169.36227 228.829321 
L 169.210751 228.771285 
L 168.896494 228.598091 
L 168.430718 228.450469 
L 167.964942 228.32442 
L 167.883288 228.308514 
L 167.499165 228.143894 
L 167.033389 227.989433 
L 166.567613 227.86341 
L 166.487845 227.845743 
L 166.101836 227.69049 
L 165.63606 227.52854 
L 165.170284 227.403686 
L 165.092897 227.382972 
L 164.704508 227.238002 
L 164.238731 227.067799 
L 163.772955 226.938511 
L 163.698694 226.9202 
L 163.307179 226.786573 
L 162.841402 226.607237 
L 162.375626 226.472682 
L 162.314303 226.457429 
L 161.90985 226.322015 
L 161.444073 226.146887 
L 160.978297 226.006613 
L 160.932089 225.994658 
L 160.512521 225.85418 
L 160.046745 225.686769 
L 159.580968 225.540259 
L 159.54991 225.531886 
L 159.115192 225.386341 
L 158.649416 225.226925 
L 158.183639 225.073599 
L 158.155599 225.069115 
L 157.717863 224.998082 
L 157.252087 224.928495 
L 156.786311 224.858909 
L 156.320534 224.78932 
L 155.854758 224.714928 
L 155.388982 224.645661 
L 155.095793 224.606344 
L 154.923205 224.580559 
L 154.457429 224.510969 
L 153.991653 224.441383 
L 153.525876 224.371797 
L 153.0601 224.302209 
L 152.594324 224.232621 
L 152.128548 224.162107 
L 151.998274 224.143573 
L 151.662771 224.093444 
L 151.196995 224.023855 
L 150.731219 223.95427 
L 150.265442 223.884681 
L 149.799666 223.815099 
L 149.33389 223.745507 
L 148.900799 223.680801 
L 148.868114 223.675918 
L 148.402337 223.554427 
L 147.936561 223.388952 
L 147.470785 223.223479 
L 147.455447 223.21803 
L 147.005008 223.058008 
L 146.539232 222.892528 
L 146.152844 222.755259 
L 146.073456 222.727055 
L 145.607679 222.561584 
L 145.141903 222.396106 
L 144.850232 222.292487 
L 144.676127 222.230635 
L 144.210351 222.065161 
L 143.744574 221.899007 
L 143.555929 221.829716 
L 143.278798 221.727923 
L 142.813022 221.529876 
L 142.472205 221.366945 
L 142.347245 221.307206 
L 141.881469 221.084543 
L 141.487228 220.904174 
L 141.415693 220.871297 
L 140.949917 220.675253 
L 140.48414 220.479214 
L 140.394304 220.441402 
L 140.018364 220.28317 
L 139.552588 220.087119 
L 139.294832 219.978631 
L 139.086811 219.890024 
L 138.621035 219.634859 
L 138.421302 219.51586 
L 138.155259 219.357356 
L 137.689482 219.079853 
L 137.64456 219.053088 
L 137.223706 218.802351 
L 136.867814 218.590317 
L 136.75793 218.52485 
L 136.292154 218.247345 
L 136.091076 218.127546 
L 135.826377 217.969844 
L 135.360601 217.692346 
L 135.314324 217.664775 
L 134.894825 217.414838 
L 134.537584 217.202003 
L 134.429048 217.12847 
L 133.963272 216.797097 
L 133.885635 216.739232 
L 133.497496 216.430843 
L 133.303199 216.276461 
L 133.03172 216.060759 
L 132.72076 215.813689 
L 132.565943 215.690682 
L 132.138323 215.350918 
L 132.100167 215.320602 
L 131.634391 214.942648 
L 131.578857 214.888147 
L 131.168614 214.459136 
L 131.136332 214.425376 
L 130.702838 213.972051 
L 130.693805 213.962604 
L 130.251289 213.499833 
L 130.237062 213.484955 
L 129.808762 213.037062 
L 129.771285 212.99787 
L 129.366238 212.57429 
L 129.305509 212.492752 
L 129.060036 212.111519 
L 128.839733 211.780104 
L 128.759929 211.648748 
L 128.442368 211.185977 
L 128.373957 211.083689 
L 128.132856 210.723205 
L 127.90818 210.387273 
L 127.852599 210.260434 
L 127.513834 209.797663 
L 127.442404 209.690861 
L 127.216913 209.334891 
L 126.976628 208.984958 
L 126.963394 208.87212 
L 126.585307 208.409349 
L 126.510851 208.298025 
L 126.30516 207.946578 
L 126.045075 207.580779 
L 126.038621 207.483806 
L 125.660909 207.021035 
L 125.579299 206.899665 
L 125.50417 206.558264 
L 125.113523 206.122837 
L 125.109368 206.095492 
L 124.762538 205.632721 
L 124.647746 205.46847 
L 124.619984 205.16995 
L 124.18197 204.716311 
L 124.178972 204.707179 
L 123.872011 204.244407 
L 123.716194 204.031741 
L 123.700363 203.781636 
L 123.250417 203.322099 
L 123.248922 203.318865 
L 123.176188 202.856093 
L 122.784641 202.43973 
L 122.77366 202.393322 
L 122.318865 201.930635 
L 122.318818 201.930551 
L 122.282398 201.46778 
L 121.853088 201.026566 
L 121.844867 201.005008 
L 121.617142 200.542237 
L 121.387312 200.273744 
L 121.364478 200.079466 
L 120.921536 199.627489 
L 120.916177 199.616694 
L 120.847692 199.153923 
L 120.45576 198.745288 
L 120.439212 198.691152 
L 119.989983 198.234263 
L 119.986765 198.228381 
L 119.957415 197.765609 
L 119.524207 197.319256 
L 119.517546 197.302838 
L 119.481594 196.840067 
L 119.058431 196.398684 
L 119.050969 196.377295 
L 119.026224 195.914524 
L 118.592654 195.462749 
L 118.588389 195.451753 
L 118.582202 194.988982 
L 118.576118 194.52621 
L 118.567877 194.063439 
L 118.567512 193.600668 
L 118.567125 193.137896 
L 118.566715 192.675125 
L 118.566279 192.212354 
L 118.565814 191.749583 
L 118.565319 191.286811 
L 118.564789 190.82404 
L 118.564222 190.361269 
L 118.563372 189.898497 
L 118.564704 189.435726 
L 118.571021 188.972955 
L 118.576648 188.510184 
L 118.581247 188.047412 
L 118.584909 187.584641 
L 118.587895 187.12187 
L 118.592618 186.659098 
L 118.592654 186.655133 
L 118.686456 186.196327 
L 118.793277 185.733556 
L 119.014108 185.270785 
L 119.043165 184.808013 
L 119.054224 184.345242 
L 119.058431 184.030848 
L 119.08796 183.882471 
L 119.17381 183.419699 
L 119.284222 182.956928 
L 119.501701 182.494157 
L 119.52347 182.031386 
L 119.524207 181.996391 
L 119.648727 181.568614 
L 119.752878 181.105843 
L 119.952377 180.643072 
L 119.983195 180.180301 
L 119.989983 179.877085 
L 120.031528 179.717529 
L 120.139535 179.254758 
L 120.232063 178.791987 
L 120.403321 178.329215 
L 120.448171 177.866444 
L 120.45576 177.581353 
L 120.504351 177.403673 
L 120.64205 176.940902 
L 120.800014 176.47813 
L 120.921536 176.039235 
L 120.931417 176.015359 
L 121.14529 175.552588 
L 121.378494 175.089816 
L 121.387312 175.02448 
L 121.637015 174.627045 
L 121.85135 174.164274 
L 121.853088 174.146885 
L 122.127795 173.701503 
L 122.318865 173.280275 
L 122.339887 173.238731 
L 122.53715 172.77596 
L 122.739189 172.313189 
L 122.784641 172.161729 
L 122.984305 171.850417 
L 123.24043 171.387646 
L 123.250417 171.323322 
L 123.545939 170.924875 
L 123.716194 170.761524 
L 124.025103 170.462104 
L 124.18197 170.311545 
L 124.507267 169.999332 
L 124.647746 169.864503 
L 124.989432 169.536561 
L 125.113523 169.426594 
L 125.567612 169.07379 
L 125.579299 169.072995 
L 126.045075 168.796925 
L 126.329837 168.611018 
L 126.510851 168.586932 
L 126.976628 168.217451 
L 127.072809 168.148247 
L 127.442404 167.918297 
L 127.808374 167.685476 
L 127.90818 167.676453 
L 128.373957 167.296555 
L 128.457672 167.222705 
L 128.839733 166.832279 
L 128.90415 166.759933 
L 129.301183 166.297162 
L 129.305509 166.294107 
L 129.771285 165.927898 
L 129.888344 165.834391 
L 130.237062 165.563381 
L 130.483802 165.371619 
L 130.702838 165.20139 
L 131.079269 164.908848 
L 131.168614 164.896955 
L 131.634391 164.482029 
L 131.678106 164.446077 
L 132.100167 164.123966 
L 132.270179 163.983306 
L 132.565943 163.753445 
L 132.865637 163.520534 
L 133.03172 163.432551 
L 133.489311 163.057763 
L 133.497496 163.057046 
L 133.963272 162.835002 
L 134.429048 162.595477 
L 134.429916 162.594992 
L 134.894825 162.383066 
L 135.360601 162.143805 
L 135.381496 162.13222 
L 135.826377 161.931298 
L 136.292154 161.691437 
L 136.331483 161.669449 
L 136.75793 161.474612 
L 137.223706 161.224563 
L 137.256328 161.206678 
L 137.689482 161.013087 
L 138.155259 160.748488 
L 138.163571 160.743907 
L 138.621035 160.537602 
L 139.049394 160.281135 
L 139.086811 160.278896 
L 139.552588 160.058029 
L 139.939809 159.818364 
L 140.018364 159.812579 
L 140.48414 159.57703 
L 140.85132 159.355593 
L 140.949917 159.346625 
L 141.415693 159.094426 
L 141.759824 158.892821 
L 141.881469 158.877659 
L 142.347245 158.630723 
L 142.722835 158.43005 
L 142.813022 158.424517 
L 143.278798 158.21683 
L 143.73073 157.967279 
L 143.744574 157.966659 
L 144.210351 157.797119 
L 144.676127 157.566435 
L 144.800118 157.504508 
L 145.141903 157.444324 
L 145.607679 157.165398 
L 145.839723 157.041736 
L 146.073456 157.023601 
L 146.539232 156.763005 
L 146.910765 156.578965 
L 147.005008 156.574983 
L 147.470785 156.386451 
L 147.936561 156.187829 
L 148.083011 156.116194 
L 148.402337 156.089978 
L 148.868114 155.828583 
L 149.229316 155.653422 
L 149.33389 155.649185 
L 149.799666 155.451143 
L 150.265442 155.255226 
L 150.394433 155.190651 
L 150.731219 155.164215 
L 151.196995 154.894522 
L 151.651492 154.72788 
L 151.662771 154.727651 
L 152.128548 154.709294 
L 152.594324 154.489053 
L 153.0601 154.354131 
L 153.316336 154.265109 
L 153.525876 154.260255 
L 153.991653 154.229643 
L 154.457429 153.9688 
L 154.923205 153.823108 
L 154.981406 153.802337 
L 155.388982 153.791 
L 155.854758 153.726869 
L 156.320534 153.445692 
L 156.646445 153.339566 
L 156.786311 153.336982 
L 157.252087 153.318485 
L 157.717863 153.142584 
L 158.183639 152.901808 
L 158.247831 152.876795 
L 158.649416 152.8639 
L 159.115192 152.749842 
L 159.580968 152.442032 
L 159.653423 152.414023 
L 160.046745 152.402425 
L 160.512521 152.317431 
L 160.978297 151.981686 
L 161.058989 151.951252 
L 161.444073 151.940754 
L 161.90985 151.874595 
L 162.375626 151.521232 
L 162.464566 151.488481 
L 162.841402 151.478928 
L 163.307179 151.427716 
L 163.772955 151.060662 
L 163.870133 151.02571 
L 164.238731 151.017261 
L 164.704508 150.978934 
L 165.170284 150.710772 
L 165.63606 150.596955 
L 165.759975 150.562938 
L 166.101836 150.553703 
L 166.567613 150.514328 
L 167.033389 150.397556 
L 167.499165 150.331054 
L 167.964942 150.260319 
L 168.430718 150.182539 
L 168.876546 150.100167 
L 168.896494 150.09694 
L 169.36227 150.034439 
L 169.828047 149.962374 
L 170.293823 149.875097 
L 170.759599 149.790097 
L 171.225376 149.709682 
L 171.691152 149.669112 
L 172.156928 149.638173 
L 172.168636 149.637396 
L 172.622705 149.611028 
L 173.088481 149.580415 
L 173.554257 149.515998 
L 174.020033 149.450058 
L 174.48581 149.385555 
L 174.951586 149.347478 
L 175.417362 149.297656 
L 175.883139 149.221871 
L 176.348915 149.270123 
L 176.814691 149.439552 
L 177.280467 149.55173 
L 177.746244 149.612571 
L 178.21202 149.628835 
L 178.677796 149.636378 
L 178.768167 149.637396 
L 179.143573 149.721418 
L 179.609349 150.03718 
L 180.075125 150.082587 
L 180.540902 150.09577 
L 180.835856 150.100167 
L 181.006678 150.141502 
L 181.472454 150.243197 
L 181.93823 150.502193 
L 182.404007 150.540802 
L 182.869783 150.547883 
L 183.335559 150.549913 
L 183.801336 150.554362 
L 184.221628 150.562938 
L 184.267112 150.574244 
L 184.732888 150.682359 
L 185.198664 150.778171 
L 185.664441 150.863668 
L 186.130217 151.002666 
L 186.595993 151.025407 
L 186.607976 151.02571 
L 187.06177 151.148647 
L 187.527546 151.258534 
L 187.993322 151.354935 
L 188.459098 151.44018 
L 188.749297 151.488481 
L 188.924875 151.528331 
L 189.390651 151.637453 
L 189.856427 151.763777 
L 190.322204 151.883042 
L 190.628393 151.951252 
L 190.78798 151.991872 
L 191.253756 152.101475 
L 191.719533 152.189505 
L 192.185309 152.277529 
L 192.651085 152.387901 
L 192.752342 152.414023 
L 193.116861 152.508059 
L 193.582638 152.557738 
L 194.048414 152.556078 
L 194.51419 152.554417 
L 194.979967 152.552756 
L 195.445743 152.551094 
L 195.911519 152.549436 
L 196.377295 152.547779 
L 196.843072 152.546121 
L 197.308848 152.544459 
L 197.774624 152.553851 
L 198.240401 152.640888 
L 198.706177 152.727941 
L 199.171953 152.86983 
L 199.190439 152.876795 
L 199.63773 153.045317 
L 200.103506 153.221204 
L 200.407092 153.339566 
L 200.569282 153.417063 
L 201.035058 153.785408 
L 201.055878 153.802337 
L 201.500835 154.166119 
L 201.614229 154.265109 
L 201.966611 154.581481 
L 202.129673 154.72788 
L 202.432387 155.003125 
L 202.638001 155.190651 
L 202.898164 155.408335 
L 203.193842 155.653422 
L 203.36394 155.794416 
L 203.730312 156.116194 
L 203.829716 156.208735 
L 204.226598 156.578965 
L 204.295492 156.643234 
L 204.722675 157.041736 
L 204.761269 157.077739 
L 205.218745 157.504508 
L 205.227045 157.51225 
L 205.692821 157.946761 
L 205.714815 157.967279 
L 206.158598 158.381265 
L 206.210893 158.43005 
L 206.624374 158.805825 
L 206.725607 158.892821 
L 207.09015 159.192333 
L 207.28886 159.355593 
L 207.555927 159.582084 
L 207.835792 159.818364 
L 208.021703 159.976025 
L 208.38149 160.281135 
L 208.487479 160.375926 
L 208.901576 160.743907 
L 208.953255 160.792336 
L 209.395507 161.206678 
L 209.419032 161.228722 
L 209.884808 161.665187 
L 209.889356 161.669449 
L 210.350584 162.101662 
L 210.383196 162.13222 
L 210.816361 162.538126 
L 210.877043 162.594992 
L 211.282137 162.974597 
L 211.370888 163.057763 
L 211.747913 163.41106 
L 211.864739 163.520534 
L 212.213689 163.847528 
L 212.34125 163.983306 
L 212.635662 164.446077 
L 212.679466 164.52599 
L 212.889327 164.908848 
L 213.142988 165.371619 
L 213.145242 165.375732 
L 213.39664 165.834391 
L 213.611018 166.225499 
L 213.650299 166.297162 
L 213.90396 166.759933 
L 214.076795 167.075255 
L 214.157615 167.222705 
L 214.411278 167.685476 
L 214.542571 167.925007 
L 214.664932 168.148247 
L 214.918593 168.611018 
L 215.008347 168.774767 
L 215.172248 169.07379 
L 215.444789 169.536561 
L 215.474124 169.58215 
L 215.74762 169.999332 
L 215.9399 170.29263 
L 216.050998 170.462104 
L 216.35437 170.924875 
L 216.405676 171.003136 
L 216.657748 171.387646 
L 216.871452 171.713632 
L 216.961125 171.850417 
L 217.264505 172.313189 
L 217.337229 172.424124 
L 217.56788 172.77596 
L 217.803005 173.134624 
L 217.871252 173.238731 
L 218.174627 173.701503 
L 218.268781 173.845131 
L 218.478 174.164274 
L 218.734558 174.555622 
L 218.78138 174.627045 
L 219.084753 175.089816 
L 219.200334 175.266125 
L 219.388132 175.552588 
L 219.66611 175.976617 
L 219.691507 176.015359 
L 219.984412 176.47813 
L 220.131886 176.79368 
L 220.201166 176.940902 
L 220.515199 177.403673 
L 220.597663 177.520338 
L 220.842286 177.866444 
L 221.063439 178.179351 
L 221.162861 178.329215 
L 221.49643 178.791987 
L 221.529215 178.838374 
L 221.823513 179.254758 
L 221.994992 179.496116 
L 222.133121 179.717529 
L 222.460768 180.156384 
L 222.47586 180.180301 
L 222.809897 180.643072 
L 222.926544 180.807246 
L 223.103014 181.105843 
L 223.392321 181.486371 
L 223.445605 181.568614 
L 223.774513 182.031386 
L 223.858097 182.146448 
L 224.069059 182.494157 
L 224.323873 182.809628 
L 224.425678 182.956928 
L 224.789649 183.416858 
L 224.791751 183.419699 
L 225.105714 183.882471 
L 225.255426 184.064208 
L 225.457542 184.345242 
L 225.721202 184.676794 
L 225.818223 184.808013 
L 226.154025 185.270785 
L 226.186978 185.310837 
L 226.490404 185.733556 
L 226.652755 185.936722 
L 226.844697 186.196327 
L 227.109333 186.659098 
L 227.118531 186.673636 
L 227.359269 187.12187 
L 227.584307 187.54088 
L 227.597033 187.584641 
L 227.856361 188.047412 
L 228.050083 188.408104 
L 228.092609 188.510184 
L 228.353454 188.972955 
L 228.51586 189.275335 
L 228.601127 189.435726 
L 228.850549 189.898497 
L 228.981636 190.142566 
L 229.0991 190.361269 
L 229.347095 190.82404 
L 229.447412 191.009785 
L 229.596197 191.286811 
L 229.843836 191.749583 
L 229.913189 191.877032 
L 230.093288 192.212354 
L 230.341062 192.675125 
L 230.378965 192.744254 
L 230.590383 193.137896 
L 230.838765 193.600668 
L 230.844741 193.611484 
L 231.087479 194.063439 
L 231.310518 194.478717 
L 231.31535 194.52621 
L 231.584577 194.988982 
L 231.776294 195.345938 
L 231.790468 195.451753 
L 232.081673 195.914524 
L 232.24207 196.213162 
L 232.274238 196.377295 
L 232.578772 196.840067 
L 232.707846 197.080389 
L 232.78364 197.302838 
L 233.075869 197.765609 
L 233.173623 197.97736 
L 233.197284 198.228381 
L 233.441476 198.691152 
L 233.609621 199.153923 
L 233.639399 199.229633 
L 233.66077 199.616694 
L 233.93309 200.079466 
L 234.105175 200.468688 
L 234.10717 200.542237 
L 234.111602 201.005008 
L 234.113663 201.46778 
L 234.114745 201.930551 
L 234.116028 202.393322 
L 234.117498 202.856093 
L 234.116634 203.318865 
L 234.11211 203.781636 
L 234.108024 204.244407 
L 234.105175 204.277888 
L 233.766082 204.707179 
L 233.669786 205.16995 
L 233.653133 205.632721 
L 233.646211 206.095492 
L 233.639399 206.333903 
L 233.52214 206.558264 
L 233.23087 207.021035 
L 233.196742 207.483806 
L 233.185619 207.946578 
L 233.180083 208.409349 
L 233.173623 208.45483 
L 232.805395 208.87212 
L 232.732324 209.334891 
L 232.717873 209.797663 
L 232.707846 209.92206 
L 232.441151 210.260434 
L 232.396214 210.723205 
L 232.437193 211.185977 
L 232.293529 211.648748 
L 232.248901 212.111519 
L 232.24207 212.350594 
L 232.172234 212.57429 
L 231.949694 213.037062 
L 231.790268 213.499833 
L 231.776294 213.842623 
L 231.73884 213.962604 
L 231.59437 214.425376 
L 231.342276 214.888147 
L 231.310518 215.334656 
L 231.305441 215.350918 
L 231.160974 215.813689 
L 230.944073 216.276461 
L 230.847858 216.739232 
L 230.844741 216.784619 
L 230.536215 217.202003 
L 230.378965 217.385247 
L 230.139085 217.664775 
L 229.913189 217.928011 
L 229.741957 218.127546 
L 229.447412 218.470774 
L 229.344827 218.590317 
L 228.981636 219.013547 
L 228.947703 219.053088 
L 228.655845 219.51586 
L 228.51586 219.861739 
L 228.465314 219.978631 
L 228.267764 220.441402 
L 228.050083 220.757225 
L 227.940313 220.904174 
L 227.629832 221.366945 
L 227.584307 221.432996 
L 227.31024 221.829716 
L 227.118531 222.108158 
L 226.970062 222.292487 
L 226.672947 222.755259 
L 226.652755 222.784556 
L 226.330745 223.21803 
L 226.186978 223.434361 
L 225.987874 223.680801 
L 225.721202 223.995099 
L 225.544582 224.143573 
L 225.255426 224.32384 
L 224.811999 224.606344 
L 224.789649 224.618605 
L 224.323873 224.845857 
L 223.954036 225.069115 
L 223.858097 225.118346 
L 223.392321 225.380142 
L 223.122943 225.531886 
L 222.926544 225.624493 
L 222.460768 225.901834 
L 222.291578 225.994658 
L 221.994992 226.138867 
L 221.529215 226.412922 
L 221.448092 226.457429 
L 221.063439 226.664057 
L 220.604348 226.9202 
L 220.597663 226.923321 
L 220.131886 227.18247 
L 219.777517 227.382972 
L 219.66611 227.438319 
L 219.200334 227.718748 
L 218.984546 227.845743 
L 218.734558 227.992863 
L 218.268781 228.266973 
L 218.198193 228.308514 
L 217.803005 228.541087 
L 217.411852 228.771285 
L 217.337229 228.813552 
L 216.871452 229.08931 
L 216.625498 229.234057 
L 216.405676 229.363424 
L 215.9399 229.633631 
L 215.825849 229.696828 
L 215.474124 229.88572 
L 215.008347 230.135868 
L 214.962249 230.159599 
L 214.542571 230.35544 
L 214.076795 230.475181 
L 213.611018 230.550712 
L 213.145242 230.620458 
L 213.13219 230.622371 
L 212.679466 230.685606 
L 212.213689 230.755007 
L 211.747913 230.822265 
L 211.282137 230.889527 
L 210.816361 230.956786 
L 210.350584 231.024048 
L 209.927516 231.085142 
L 209.884808 231.090658 
L 209.419032 231.155642 
L 208.953255 231.22583 
L 208.487479 231.293095 
L 208.021703 231.360354 
L 207.555927 231.427616 
L 207.09015 231.494881 
L 206.72291 231.547913 
L 206.624374 231.560552 
L 206.158598 231.625579 
L 205.692821 231.696659 
L 205.227045 231.763916 
L 204.761269 231.831185 
L 204.295492 231.898443 
L 203.829716 231.977861 
L 203.639139 232.010684 
L 203.36394 232.06135 
L 202.898164 232.192477 
L 202.432387 232.333519 
L 201.970262 232.473456 
L 201.966611 232.474413 
L 201.500835 232.614718 
L 201.035058 232.756649 
L 200.569282 232.897693 
L 200.442027 232.936227 
L 200.103506 233.028111 
L 199.63773 233.17978 
L 199.171953 233.320821 
L 198.913787 233.398998 
L 198.706177 233.450322 
L 198.240401 233.588344 
L 197.774624 233.743942 
L 197.385516 233.86177 
L 197.308848 233.879171 
L 196.843072 234.000244 
L 196.377295 234.124038 
L 195.911519 234.294701 
L 195.819109 234.324541 
L 195.445743 234.413702 
L 194.979967 234.549031 
L 194.51419 234.616146 
L 194.048414 234.629157 
L 193.582638 234.642023 
L 193.116861 234.647283 
L 192.651085 234.625728 
L 192.185309 234.591921 
L 191.719533 234.560939 
L 191.253756 234.53242 
L 190.78798 234.506102 
L 190.322204 234.481727 
L 189.856427 234.45712 
L 189.390651 234.413122 
L 188.924875 234.345445 
z
" clip-path="url(#p04c88f1f4a)" style="fill: none; stroke: #000000; stroke-width: 1.5"/>
   </g>
   <g id="PathCollection_4">
    <path d="M 189.390651 257.010738 
L 181.472454 255.886994 
L 167.964942 253.271219 
L 166.101836 252.990011 
L 165.170284 252.792799 
L 160.978297 251.444973 
L 146.539232 247.219131 
L 140.649594 244.505509 
L 128.216032 238.952254 
L 121.853088 235.18727 
L 117.195326 232.359457 
L 112.071786 228.234653 
L 110.299132 225.994658 
L 108.648264 223.680801 
L 107.05694 221.366945 
L 102.723098 213.037062 
L 96.784591 201.46778 
L 96.583803 200.542237 
L 95.779466 193.600668 
L 95.737035 187.584641 
L 95.943521 184.808013 
L 97.008991 176.940902 
L 99.753228 166.297162 
L 100.427379 164.565951 
L 101.358932 163.19195 
L 102.75626 161.080635 
L 103.687813 159.761215 
L 106.948247 156.698076 
L 110.775774 151.488481 
L 113.292286 148.711853 
L 113.934891 148.202441 
L 115.33222 147.281216 
L 119.989983 144.818056 
L 131.634391 138.487207 
L 138.155259 135.89109 
L 152.128548 131.399513 
L 164.238731 127.206664 
L 165.170284 127.072673 
L 168.430718 126.977458 
L 172.622705 127.26209 
L 176.348915 127.329265 
L 181.006678 127.131178 
L 182.404007 127.334253 
L 189.390651 128.652544 
L 193.116861 129.500551 
L 195.911519 129.983872 
L 198.240401 130.301302 
L 199.76681 130.663773 
L 201.035058 130.94829 
L 207.600317 131.589316 
L 209.899172 132.052087 
L 211.747913 132.769468 
L 216.105496 135.291486 
L 230.844741 149.274516 
L 234.11904 154.72788 
L 238.762938 162.02272 
L 242.515904 168.148247 
L 244.699757 171.850417 
L 245.419623 173.238731 
L 249.200564 179.717529 
L 251.153737 182.956928 
L 253.34807 187.584641 
L 256.374268 197.302838 
L 256.562262 202.393322 
L 256.41734 205.16995 
L 256.164886 207.021035 
L 255.905243 208.409349 
L 255.947315 210.723205 
L 255.500246 215.813689 
L 254.489314 221.366945 
L 253.940363 222.292487 
L 250.729929 226.9202 
L 250.014421 227.845743 
L 243.886477 238.102489 
L 242.954925 239.14323 
L 239.694491 241.932989 
L 235.502504 245.141767 
L 232.707846 246.622288 
L 227.395801 248.670451 
L 225.721202 249.345836 
L 218.734558 252.15462 
L 216.871452 252.961614 
L 209.419032 255.001129 
L 204.761269 255.995893 
L 202.432387 256.496212 
L 196.377295 257.168092 
L 193.116861 257.297922 
L 190.322204 257.130661 
L 189.390651 257.010738 
L 189.390651 257.010738 
" clip-path="url(#p04c88f1f4a)" style="fill: none; stroke: #000000; stroke-width: 1.5"/>
   </g>
   <g id="patch_3">
    <path d="M 45 320.4 
L 45 43.2 
" style="fill: none; stroke: #000000; stroke-width: 0.8; stroke-linejoin: miter; stroke-linecap: square"/>
   </g>
   <g id="patch_4">
    <path d="M 324 320.4 
L 324 43.2 
" style="fill: none; stroke: #000000; stroke-width: 0.8; stroke-linejoin: miter; stroke-linecap: square"/>
   </g>
   <g id="patch_5">
    <path d="M 45 320.4 
L 324 320.4 
" style="fill: none; stroke: #000000; stroke-width: 0.8; stroke-linejoin: miter; stroke-linecap: square"/>
   </g>
   <g id="patch_6">
    <path d="M 45 43.2 
L 324 43.2 
" style="fill: none; stroke: #000000; stroke-width: 0.8; stroke-linejoin: miter; stroke-linecap: square"/>
   </g>
  </g>
 </g>
 <defs>
  <clipPath id="p04c88f1f4a">
   <rect x="45" y="43.2" width="279" height="277.2"/>
  </clipPath>
 </defs>
</svg>
