<?xml version="1.0" encoding="utf-8" standalone="no"?>
<!DOCTYPE svg PUBLIC "-//W3C//DTD SVG 1.1//EN"
  "http://www.w3.org/Graphics/SVG/1.1/DTD/svg11.dtd">
<svg xmlns:xlink="http://www.w3.org/1999/xlink" width="360pt" height="360pt" viewBox="0 0 360 360" xmlns="http://www.w3.org/2000/svg" version="1.1">
 <metadata>
  <rdf:RDF xmlns:dc="http://purl.org/dc/elements/1.1/" xmlns:cc="http://creativecommons.org/ns#" xmlns:rdf="http://www.w3.org/1999/02/22-rdf-syntax-ns#">
   <cc:Work>
    <dc:type rdf:resource="http://purl.org/dc/dcmitype/StillImage"/>
    <dc:date>2022-04-10T19:53:29.289148</dc:date>
    <dc:format>image/svg+xml</dc:format>
    <dc:creator>
     <cc:Agent>
      <dc:title>Matplotlib v3.5.1, https://matplotlib.org/</dc:title>
     </cc:Agent>
    </dc:creator>
   </cc:Work>
  </rdf:RDF>
 </metadata>
 <defs>
  <style type="text/css">*{stroke-linejoin: round; stroke-linecap: butt}</style>
 </defs>
 <g id="figure_1">
  <g id="patch_1">
   <path d="M 0 360 
L 360 360 
L 360 0 
L 0 0 
z
" style="fill: #ffffff"/>
  </g>
  <g id="axes_1">
   <g id="patch_2">
    <path d="M 45 320.4 
L 324 320.4 
L 324 43.2 
L 45 43.2 
z
" style="fill: #ffffff"/>
   </g>
   <g id="PathCollection_1">
    <defs>
     <path id="mf803fe7689" d="M 0 0.5 
C 0.132602 0.5 0.25979 0.447317 0.353553 0.353553 
C 0.447317 0.25979 0.5 0.132602 0.5 0 
C 0.5 -0.132602 0.447317 -0.25979 0.353553 -0.353553 
C 0.25979 -0.447317 0.132602 -0.5 0 -0.5 
C -0.132602 -0.5 -0.25979 -0.447317 -0.353553 -0.353553 
C -0.447317 -0.25979 -0.5 -0.132602 -0.5 0 
C -0.5 0.132602 -0.447317 0.25979 -0.353553 0.353553 
C -0.25979 0.447317 -0.132602 0.5 0 0.5 
z
" style="stroke: #ff0000"/>
    </defs>
    <g clip-path="url(#p80de8995b5)">
     <use xlink:href="#mf803fe7689" x="246.692641" y="181.336455" style="fill: #ff0000; stroke: #ff0000"/>
     <use xlink:href="#mf803fe7689" x="244.870738" y="175.474473" style="fill: #ff0000; stroke: #ff0000"/>
     <use xlink:href="#mf803fe7689" x="242.315052" y="170.002725" style="fill: #ff0000; stroke: #ff0000"/>
     <use xlink:href="#mf803fe7689" x="239.327621" y="164.952594" style="fill: #ff0000; stroke: #ff0000"/>
     <use xlink:href="#mf803fe7689" x="236.184898" y="160.257996" style="fill: #ff0000; stroke: #ff0000"/>
     <use xlink:href="#mf803fe7689" x="233.042051" y="155.805353" style="fill: #ff0000; stroke: #ff0000"/>
     <use xlink:href="#mf803fe7689" x="229.896582" y="151.508857" style="fill: #ff0000; stroke: #ff0000"/>
     <use xlink:href="#mf803fe7689" x="226.629363" y="147.365265" style="fill: #ff0000; stroke: #ff0000"/>
     <use xlink:href="#mf803fe7689" x="223.094539" y="143.454458" style="fill: #ff0000; stroke: #ff0000"/>
     <use xlink:href="#mf803fe7689" x="219.203364" y="139.887929" style="fill: #ff0000; stroke: #ff0000"/>
     <use xlink:href="#mf803fe7689" x="214.957924" y="136.740782" style="fill: #ff0000; stroke: #ff0000"/>
     <use xlink:href="#mf803fe7689" x="210.426939" y="134.010737" style="fill: #ff0000; stroke: #ff0000"/>
     <use xlink:href="#mf803fe7689" x="205.690284" y="131.627731" style="fill: #ff0000; stroke: #ff0000"/>
     <use xlink:href="#mf803fe7689" x="200.791162" y="129.506276" style="fill: #ff0000; stroke: #ff0000"/>
     <use xlink:href="#mf803fe7689" x="195.722852" y="127.609774" style="fill: #ff0000; stroke: #ff0000"/>
     <use xlink:href="#mf803fe7689" x="190.452862" y="125.992421" style="fill: #ff0000; stroke: #ff0000"/>
     <use xlink:href="#mf803fe7689" x="184.966555" y="124.798719" style="fill: #ff0000; stroke: #ff0000"/>
     <use xlink:href="#mf803fe7689" x="179.3048" y="124.222563" style="fill: #ff0000; stroke: #ff0000"/>
     <use xlink:href="#mf803fe7689" x="173.576813" y="124.445775" style="fill: #ff0000; stroke: #ff0000"/>
     <use xlink:href="#mf803fe7689" x="167.944024" y="125.582727" style="fill: #ff0000; stroke: #ff0000"/>
     <use xlink:href="#mf803fe7689" x="162.58557" y="127.652573" style="fill: #ff0000; stroke: #ff0000"/>
     <use xlink:href="#mf803fe7689" x="157.663978" y="130.58647" style="fill: #ff0000; stroke: #ff0000"/>
     <use xlink:href="#mf803fe7689" x="153.306787" y="134.259955" style="fill: #ff0000; stroke: #ff0000"/>
     <use xlink:href="#mf803fe7689" x="149.607307" y="138.529057" style="fill: #ff0000; stroke: #ff0000"/>
     <use xlink:href="#mf803fe7689" x="146.633308" y="143.250519" style="fill: #ff0000; stroke: #ff0000"/>
     <use xlink:href="#mf803fe7689" x="144.427312" y="148.281401" style="fill: #ff0000; stroke: #ff0000"/>
     <use xlink:href="#mf803fe7689" x="142.991898" y="153.470831" style="fill: #ff0000; stroke: #ff0000"/>
     <use xlink:href="#mf803fe7689" x="142.27096" y="158.662418" style="fill: #ff0000; stroke: #ff0000"/>
     <use xlink:href="#mf803fe7689" x="142.147812" y="163.714777" style="fill: #ff0000; stroke: #ff0000"/>
     <use xlink:href="#mf803fe7689" x="142.472587" y="168.529214" style="fill: #ff0000; stroke: #ff0000"/>
     <use xlink:href="#mf803fe7689" x="143.110205" y="173.064424" style="fill: #ff0000; stroke: #ff0000"/>
     <use xlink:href="#mf803fe7689" x="143.983861" y="177.326053" style="fill: #ff0000; stroke: #ff0000"/>
     <use xlink:href="#mf803fe7689" x="145.090077" y="181.336455" style="fill: #ff0000; stroke: #ff0000"/>
     <use xlink:href="#mf803fe7689" x="146.47642" y="185.102945" style="fill: #ff0000; stroke: #ff0000"/>
     <use xlink:href="#mf803fe7689" x="148.190487" y="188.604475" style="fill: #ff0000; stroke: #ff0000"/>
     <use xlink:href="#mf803fe7689" x="150.222421" y="191.807976" style="fill: #ff0000; stroke: #ff0000"/>
     <use xlink:href="#mf803fe7689" x="152.471093" y="194.709677" style="fill: #ff0000; stroke: #ff0000"/>
     <use xlink:href="#mf803fe7689" x="154.759342" y="197.378379" style="fill: #ff0000; stroke: #ff0000"/>
     <use xlink:href="#mf803fe7689" x="156.900645" y="199.968509" style="fill: #ff0000; stroke: #ff0000"/>
     <use xlink:href="#mf803fe7689" x="158.787213" y="202.682674" style="fill: #ff0000; stroke: #ff0000"/>
     <use xlink:href="#mf803fe7689" x="160.451031" y="205.693814" style="fill: #ff0000; stroke: #ff0000"/>
     <use xlink:href="#mf803fe7689" x="162.061479" y="209.066308" style="fill: #ff0000; stroke: #ff0000"/>
     <use xlink:href="#mf803fe7689" x="163.859565" y="212.721498" style="fill: #ff0000; stroke: #ff0000"/>
     <use xlink:href="#mf803fe7689" x="166.065435" y="216.469825" style="fill: #ff0000; stroke: #ff0000"/>
     <use xlink:href="#mf803fe7689" x="168.808853" y="220.092934" style="fill: #ff0000; stroke: #ff0000"/>
     <use xlink:href="#mf803fe7689" x="172.114772" y="223.429772" style="fill: #ff0000; stroke: #ff0000"/>
     <use xlink:href="#mf803fe7689" x="175.940709" y="226.419698" style="fill: #ff0000; stroke: #ff0000"/>
     <use xlink:href="#mf803fe7689" x="180.233449" y="229.082453" style="fill: #ff0000; stroke: #ff0000"/>
     <use xlink:href="#mf803fe7689" x="184.966555" y="231.451115" style="fill: #ff0000; stroke: #ff0000"/>
     <use xlink:href="#mf803fe7689" x="190.137403" y="233.49824" style="fill: #ff0000; stroke: #ff0000"/>
     <use xlink:href="#mf803fe7689" x="195.729557" y="235.096626" style="fill: #ff0000; stroke: #ff0000"/>
     <use xlink:href="#mf803fe7689" x="201.667434" y="236.036677" style="fill: #ff0000; stroke: #ff0000"/>
     <use xlink:href="#mf803fe7689" x="207.794548" y="236.092547" style="fill: #ff0000; stroke: #ff0000"/>
     <use xlink:href="#mf803fe7689" x="213.892466" y="235.103888" style="fill: #ff0000; stroke: #ff0000"/>
     <use xlink:href="#mf803fe7689" x="219.733241" y="233.032786" style="fill: #ff0000; stroke: #ff0000"/>
     <use xlink:href="#mf803fe7689" x="225.138452" y="229.970248" style="fill: #ff0000; stroke: #ff0000"/>
     <use xlink:href="#mf803fe7689" x="230.014407" y="226.093675" style="fill: #ff0000; stroke: #ff0000"/>
     <use xlink:href="#mf803fe7689" x="234.346517" y="221.60009" style="fill: #ff0000; stroke: #ff0000"/>
     <use xlink:href="#mf803fe7689" x="238.157445" y="216.648174" style="fill: #ff0000; stroke: #ff0000"/>
     <use xlink:href="#mf803fe7689" x="241.451597" y="211.333552" style="fill: #ff0000; stroke: #ff0000"/>
     <use xlink:href="#mf803fe7689" x="244.173861" y="205.702701" style="fill: #ff0000; stroke: #ff0000"/>
     <use xlink:href="#mf803fe7689" x="246.201849" y="199.792136" style="fill: #ff0000; stroke: #ff0000"/>
     <use xlink:href="#mf803fe7689" x="247.375722" y="193.67032" style="fill: #ff0000; stroke: #ff0000"/>
     <use xlink:href="#mf803fe7689" x="247.556337" y="187.461239" style="fill: #ff0000; stroke: #ff0000"/>
    </g>
   </g>
   <g id="matplotlib.axis_1">
    <g id="xtick_1">
     <g id="line2d_1">
      <defs>
       <path id="m3088183292" d="M 0 0 
L 0 3.5 
" style="stroke: #000000; stroke-width: 0.8"/>
      </defs>
      <g>
       <use xlink:href="#m3088183292" x="45" y="320.4" style="stroke: #000000; stroke-width: 0.8"/>
      </g>
     </g>
     <g id="text_1">
      <!-- −3 -->
      <g transform="translate(37.628906 334.998438)scale(0.1 -0.1)">
       <defs>
        <path id="DejaVuSans-2212" d="M 678 2272 
L 4684 2272 
L 4684 1741 
L 678 1741 
L 678 2272 
z
" transform="scale(0.015625)"/>
        <path id="DejaVuSans-33" d="M 2597 2516 
Q 3050 2419 3304 2112 
Q 3559 1806 3559 1356 
Q 3559 666 3084 287 
Q 2609 -91 1734 -91 
Q 1441 -91 1130 -33 
Q 819 25 488 141 
L 488 750 
Q 750 597 1062 519 
Q 1375 441 1716 441 
Q 2309 441 2620 675 
Q 2931 909 2931 1356 
Q 2931 1769 2642 2001 
Q 2353 2234 1838 2234 
L 1294 2234 
L 1294 2753 
L 1863 2753 
Q 2328 2753 2575 2939 
Q 2822 3125 2822 3475 
Q 2822 3834 2567 4026 
Q 2313 4219 1838 4219 
Q 1578 4219 1281 4162 
Q 984 4106 628 3988 
L 628 4550 
Q 988 4650 1302 4700 
Q 1616 4750 1894 4750 
Q 2613 4750 3031 4423 
Q 3450 4097 3450 3541 
Q 3450 3153 3228 2886 
Q 3006 2619 2597 2516 
z
" transform="scale(0.015625)"/>
       </defs>
       <use xlink:href="#DejaVuSans-2212"/>
       <use xlink:href="#DejaVuSans-33" x="83.789062"/>
      </g>
     </g>
    </g>
    <g id="xtick_2">
     <g id="line2d_2">
      <g>
       <use xlink:href="#m3088183292" x="91.655518" y="320.4" style="stroke: #000000; stroke-width: 0.8"/>
      </g>
     </g>
     <g id="text_2">
      <!-- −2 -->
      <g transform="translate(84.284425 334.998438)scale(0.1 -0.1)">
       <defs>
        <path id="DejaVuSans-32" d="M 1228 531 
L 3431 531 
L 3431 0 
L 469 0 
L 469 531 
Q 828 903 1448 1529 
Q 2069 2156 2228 2338 
Q 2531 2678 2651 2914 
Q 2772 3150 2772 3378 
Q 2772 3750 2511 3984 
Q 2250 4219 1831 4219 
Q 1534 4219 1204 4116 
Q 875 4013 500 3803 
L 500 4441 
Q 881 4594 1212 4672 
Q 1544 4750 1819 4750 
Q 2544 4750 2975 4387 
Q 3406 4025 3406 3419 
Q 3406 3131 3298 2873 
Q 3191 2616 2906 2266 
Q 2828 2175 2409 1742 
Q 1991 1309 1228 531 
z
" transform="scale(0.015625)"/>
       </defs>
       <use xlink:href="#DejaVuSans-2212"/>
       <use xlink:href="#DejaVuSans-32" x="83.789062"/>
      </g>
     </g>
    </g>
    <g id="xtick_3">
     <g id="line2d_3">
      <g>
       <use xlink:href="#m3088183292" x="138.311037" y="320.4" style="stroke: #000000; stroke-width: 0.8"/>
      </g>
     </g>
     <g id="text_3">
      <!-- −1 -->
      <g transform="translate(130.939943 334.998438)scale(0.1 -0.1)">
       <defs>
        <path id="DejaVuSans-31" d="M 794 531 
L 1825 531 
L 1825 4091 
L 703 3866 
L 703 4441 
L 1819 4666 
L 2450 4666 
L 2450 531 
L 3481 531 
L 3481 0 
L 794 0 
L 794 531 
z
" transform="scale(0.015625)"/>
       </defs>
       <use xlink:href="#DejaVuSans-2212"/>
       <use xlink:href="#DejaVuSans-31" x="83.789062"/>
      </g>
     </g>
    </g>
    <g id="xtick_4">
     <g id="line2d_4">
      <g>
       <use xlink:href="#m3088183292" x="184.966555" y="320.4" style="stroke: #000000; stroke-width: 0.8"/>
      </g>
     </g>
     <g id="text_4">
      <!-- 0 -->
      <g transform="translate(181.785305 334.998438)scale(0.1 -0.1)">
       <defs>
        <path id="DejaVuSans-30" d="M 2034 4250 
Q 1547 4250 1301 3770 
Q 1056 3291 1056 2328 
Q 1056 1369 1301 889 
Q 1547 409 2034 409 
Q 2525 409 2770 889 
Q 3016 1369 3016 2328 
Q 3016 3291 2770 3770 
Q 2525 4250 2034 4250 
z
M 2034 4750 
Q 2819 4750 3233 4129 
Q 3647 3509 3647 2328 
Q 3647 1150 3233 529 
Q 2819 -91 2034 -91 
Q 1250 -91 836 529 
Q 422 1150 422 2328 
Q 422 3509 836 4129 
Q 1250 4750 2034 4750 
z
" transform="scale(0.015625)"/>
       </defs>
       <use xlink:href="#DejaVuSans-30"/>
      </g>
     </g>
    </g>
    <g id="xtick_5">
     <g id="line2d_5">
      <g>
       <use xlink:href="#m3088183292" x="231.622074" y="320.4" style="stroke: #000000; stroke-width: 0.8"/>
      </g>
     </g>
     <g id="text_5">
      <!-- 1 -->
      <g transform="translate(228.440824 334.998438)scale(0.1 -0.1)">
       <use xlink:href="#DejaVuSans-31"/>
      </g>
     </g>
    </g>
    <g id="xtick_6">
     <g id="line2d_6">
      <g>
       <use xlink:href="#m3088183292" x="278.277592" y="320.4" style="stroke: #000000; stroke-width: 0.8"/>
      </g>
     </g>
     <g id="text_6">
      <!-- 2 -->
      <g transform="translate(275.096342 334.998438)scale(0.1 -0.1)">
       <use xlink:href="#DejaVuSans-32"/>
      </g>
     </g>
    </g>
   </g>
   <g id="matplotlib.axis_2">
    <g id="ytick_1">
     <g id="line2d_7">
      <defs>
       <path id="mf60d73b6b6" d="M 0 0 
L -3.5 0 
" style="stroke: #000000; stroke-width: 0.8"/>
      </defs>
      <g>
       <use xlink:href="#mf60d73b6b6" x="45" y="320.4" style="stroke: #000000; stroke-width: 0.8"/>
      </g>
     </g>
     <g id="text_7">
      <!-- −3 -->
      <g transform="translate(23.257812 324.199219)scale(0.1 -0.1)">
       <use xlink:href="#DejaVuSans-2212"/>
       <use xlink:href="#DejaVuSans-33" x="83.789062"/>
      </g>
     </g>
    </g>
    <g id="ytick_2">
     <g id="line2d_8">
      <g>
       <use xlink:href="#mf60d73b6b6" x="45" y="274.045485" style="stroke: #000000; stroke-width: 0.8"/>
      </g>
     </g>
     <g id="text_8">
      <!-- −2 -->
      <g transform="translate(23.257812 277.844704)scale(0.1 -0.1)">
       <use xlink:href="#DejaVuSans-2212"/>
       <use xlink:href="#DejaVuSans-32" x="83.789062"/>
      </g>
     </g>
    </g>
    <g id="ytick_3">
     <g id="line2d_9">
      <g>
       <use xlink:href="#mf60d73b6b6" x="45" y="227.69097" style="stroke: #000000; stroke-width: 0.8"/>
      </g>
     </g>
     <g id="text_9">
      <!-- −1 -->
      <g transform="translate(23.257812 231.490189)scale(0.1 -0.1)">
       <use xlink:href="#DejaVuSans-2212"/>
       <use xlink:href="#DejaVuSans-31" x="83.789062"/>
      </g>
     </g>
    </g>
    <g id="ytick_4">
     <g id="line2d_10">
      <g>
       <use xlink:href="#mf60d73b6b6" x="45" y="181.336455" style="stroke: #000000; stroke-width: 0.8"/>
      </g>
     </g>
     <g id="text_10">
      <!-- 0 -->
      <g transform="translate(31.6375 185.135674)scale(0.1 -0.1)">
       <use xlink:href="#DejaVuSans-30"/>
      </g>
     </g>
    </g>
    <g id="ytick_5">
     <g id="line2d_11">
      <g>
       <use xlink:href="#mf60d73b6b6" x="45" y="134.98194" style="stroke: #000000; stroke-width: 0.8"/>
      </g>
     </g>
     <g id="text_11">
      <!-- 1 -->
      <g transform="translate(31.6375 138.781159)scale(0.1 -0.1)">
       <use xlink:href="#DejaVuSans-31"/>
      </g>
     </g>
    </g>
    <g id="ytick_6">
     <g id="line2d_12">
      <g>
       <use xlink:href="#mf60d73b6b6" x="45" y="88.627425" style="stroke: #000000; stroke-width: 0.8"/>
      </g>
     </g>
     <g id="text_12">
      <!-- 2 -->
      <g transform="translate(31.6375 92.426643)scale(0.1 -0.1)">
       <use xlink:href="#DejaVuSans-32"/>
      </g>
     </g>
    </g>
   </g>
   <g id="PathCollection_2">
    <path d="M 194.297659 213.815036 
L 194.263657 213.784615 
L 193.364548 212.986835 
L 193.252738 212.857525 
L 192.46478 211.930435 
L 192.431438 211.893194 
L 191.728925 211.003344 
L 191.498328 210.717289 
L 191.044444 210.076254 
L 190.565217 209.427674 
L 190.331599 209.149164 
L 189.632107 208.423183 
L 189.418817 208.222074 
L 188.698997 207.390684 
L 188.606334 207.294983 
L 187.817091 206.367893 
L 187.765886 206.305924 
L 186.923078 205.440803 
L 186.832776 205.34085 
L 186.060056 204.513712 
L 185.899666 204.310456 
L 185.271864 203.586622 
L 184.966555 203.23318 
L 184.46398 202.659532 
L 184.033445 202.114779 
L 183.784067 201.732441 
L 183.188839 200.805351 
L 183.100334 200.651096 
L 182.656921 199.878261 
L 182.387528 198.951171 
L 182.179907 198.02408 
L 182.167224 197.967446 
L 181.97229 197.09699 
L 181.76467 196.1699 
L 181.55748 195.242809 
L 181.345575 194.315719 
L 181.234114 194.047809 
L 180.911212 193.388629 
L 180.301003 192.692735 
L 180.096354 192.461538 
L 179.367893 191.639179 
L 179.275303 191.534448 
L 178.4544 190.607358 
L 178.434783 190.585123 
L 177.681982 189.680268 
L 177.501672 189.463265 
L 176.911039 188.753177 
L 176.568562 188.340913 
L 176.135125 187.826087 
L 175.635452 187.170366 
L 175.442542 186.898997 
L 174.758649 185.971906 
L 174.702341 185.904669 
L 174.040193 185.044816 
L 173.769231 184.693901 
L 173.328724 184.117726 
L 172.83612 183.472992 
L 172.620283 183.190635 
L 171.911869 182.263545 
L 171.90301 182.249961 
L 171.304569 181.336455 
L 170.9699 180.768881 
L 170.744672 180.409365 
L 170.167602 179.482274 
L 170.036789 179.269785 
L 169.592333 178.555184 
L 169.103679 177.767877 
L 169.016808 177.628094 
L 168.568516 176.701003 
L 168.214738 175.773913 
L 168.170569 175.508417 
L 168.065832 174.846823 
L 167.914678 173.919732 
L 167.746461 172.992642 
L 167.665333 172.065552 
L 167.624379 171.138462 
L 167.553375 170.211371 
L 167.41999 169.284281 
L 167.237458 168.383252 
L 167.232182 168.357191 
L 167.039262 167.4301 
L 166.846351 166.50301 
L 166.653534 165.57592 
L 166.464193 164.648829 
L 166.34806 163.721739 
L 166.397021 162.794649 
L 166.46265 161.867559 
L 166.629627 160.940468 
L 166.933861 160.013378 
L 166.898046 159.086288 
L 166.497137 158.159197 
L 166.506092 157.232107 
L 167.009291 156.305017 
L 167.237458 156.041821 
L 167.745984 155.377926 
L 168.170569 154.84388 
L 168.461347 154.450836 
L 169.103679 153.577589 
L 169.151755 153.523746 
L 170.035801 152.596656 
L 170.036789 152.595622 
L 170.918731 151.669565 
L 170.9699 151.616029 
L 171.802219 150.742475 
L 171.90301 150.648842 
L 172.83612 149.918277 
L 172.976494 149.815385 
L 173.769231 149.229975 
L 174.225907 148.888294 
L 174.702341 148.539167 
L 175.635452 148.040716 
L 175.826627 147.961204 
L 176.568562 147.660653 
L 177.501672 147.426028 
L 178.434783 147.211961 
L 179.367893 147.058853 
L 179.567559 147.034114 
L 180.301003 146.943493 
L 180.779011 147.034114 
L 181.234114 147.121155 
L 182.167224 147.341783 
L 183.100334 147.611464 
L 184.033445 147.821843 
L 184.60194 147.961204 
L 184.966555 148.054095 
L 185.899666 148.34745 
L 186.819268 148.888294 
L 186.832776 148.899833 
L 187.765886 149.554112 
L 188.390932 149.815385 
L 188.698997 149.914368 
L 189.632107 150.222447 
L 190.565217 150.5467 
L 191.124181 150.742475 
L 191.498328 150.879069 
L 192.431438 151.319393 
L 192.937427 151.669565 
L 193.364548 151.958423 
L 194.297659 152.413398 
L 194.739346 152.596656 
L 195.230769 152.804004 
L 196.16388 153.19929 
L 196.936614 153.523746 
L 197.09699 153.5928 
L 198.0301 154.119326 
L 198.591072 154.450836 
L 198.963211 154.673741 
L 199.896321 155.194498 
L 200.257742 155.377926 
L 200.829431 155.668072 
L 201.762542 156.151207 
L 202.019786 156.305017 
L 202.695652 156.700596 
L 203.453764 157.232107 
L 203.628763 157.364782 
L 204.444099 158.159197 
L 204.561873 158.271118 
L 205.428755 159.086288 
L 205.494983 159.149475 
L 206.34987 160.013378 
L 206.428094 160.093555 
L 207.34292 160.940468 
L 207.361204 160.957233 
L 208.294314 161.63307 
L 208.617739 161.867559 
L 209.227425 162.344349 
L 209.677403 162.794649 
L 210.160535 163.452189 
L 210.364936 163.721739 
L 211.054221 164.648829 
L 211.093645 164.701856 
L 211.743514 165.57592 
L 212.026756 165.966883 
L 212.407492 166.50301 
L 212.959866 167.338263 
L 213.019612 167.4301 
L 213.589621 168.357191 
L 213.892977 168.775455 
L 214.251472 169.284281 
L 214.826087 170.064388 
L 214.93343 170.211371 
L 215.587644 171.138462 
L 215.759197 171.34832 
L 216.299233 172.065552 
L 216.692308 172.565717 
L 217.013089 172.992642 
L 217.537201 173.919732 
L 217.625418 174.082593 
L 218.049086 174.846823 
L 218.558528 175.663933 
L 218.626788 175.773913 
L 219.205352 176.701003 
L 219.491639 177.160135 
L 219.783426 177.628094 
L 220.3615 178.555184 
L 220.424749 178.656619 
L 220.939584 179.482274 
L 221.35786 180.19198 
L 221.470412 180.409365 
L 221.876579 181.336455 
L 222.276645 182.263545 
L 222.29097 182.292862 
L 222.71725 183.190635 
L 223.175482 184.117726 
L 223.22408 184.410078 
L 223.323724 185.044816 
L 223.383369 185.971906 
L 223.43851 186.898997 
L 223.531428 187.826087 
L 223.748042 188.753177 
L 223.974945 189.680268 
L 224.157191 190.42467 
L 224.20191 190.607358 
L 224.428256 191.534448 
L 224.345492 192.461538 
L 224.157191 193.365267 
L 224.152323 193.388629 
L 223.939679 194.315719 
L 223.602745 195.242809 
L 223.246493 196.1699 
L 223.22408 196.228349 
L 222.879842 197.09699 
L 222.522184 198.02408 
L 222.29097 198.520331 
L 222.065672 198.951171 
L 221.575804 199.878261 
L 221.35786 200.291926 
L 221.082493 200.805351 
L 220.604193 201.732441 
L 220.424749 202.019097 
L 219.96285 202.659532 
L 219.491639 203.349826 
L 219.328886 203.586622 
L 218.558528 204.48804 
L 218.536591 204.513712 
L 217.737226 205.440803 
L 217.625418 205.558667 
L 216.814638 206.367893 
L 216.692308 206.470952 
L 215.759197 207.131785 
L 215.543488 207.294983 
L 214.826087 207.847252 
L 214.349273 208.222074 
L 213.892977 208.585982 
L 213.19532 209.149164 
L 212.959866 209.33964 
L 212.054271 210.076254 
L 212.026756 210.098635 
L 211.093645 210.857625 
L 210.914496 211.003344 
L 210.160535 211.616609 
L 209.355577 211.930435 
L 209.227425 211.970069 
L 208.294314 212.256298 
L 207.361204 212.542527 
L 206.428094 212.792746 
L 206.179508 212.857525 
L 205.494983 213.035983 
L 204.561873 213.279299 
L 203.628763 213.52492 
L 202.695652 213.770587 
L 202.642371 213.784615 
L 201.762542 214.011807 
L 200.829431 214.261491 
L 199.896321 214.419764 
L 198.963211 214.340837 
L 198.0301 214.234866 
L 197.09699 214.156647 
L 196.16388 214.057765 
L 195.230769 213.936397 
L 194.297659 213.815036 
z
" clip-path="url(#p80de8995b5)" style="fill: none; stroke-dasharray: 5.55,2.4; stroke-dashoffset: 0; stroke: #000000; stroke-width: 1.5"/>
   </g>
   <g id="PathCollection_3">
    <path d="M 201.762542 236.051624 
L 201.321195 236.034783 
L 200.829431 235.981619 
L 199.896321 235.89746 
L 198.963211 235.827773 
L 198.0301 235.817443 
L 197.09699 235.762447 
L 196.16388 235.640814 
L 195.230769 235.484293 
L 194.297659 235.32864 
L 193.364548 235.14077 
L 192.991451 235.107692 
L 192.431438 234.988845 
L 191.498328 234.837075 
L 190.565217 234.495557 
L 189.759876 234.180602 
L 189.632107 234.112819 
L 188.698997 233.757337 
L 187.765886 233.346012 
L 187.399702 233.253512 
L 186.832776 233.032062 
L 185.899666 232.561062 
L 185.397814 232.326421 
L 184.966555 232.118391 
L 184.033445 231.691172 
L 183.421672 231.399331 
L 183.100334 231.235141 
L 182.167224 230.944898 
L 181.234114 230.72454 
L 180.742588 230.472241 
L 180.301003 230.252845 
L 179.367893 229.784814 
L 179.039484 229.545151 
L 178.434783 229.111816 
L 177.830099 228.61806 
L 177.501672 228.353607 
L 176.690037 227.69097 
L 176.568562 227.590584 
L 175.635452 226.81282 
L 175.577547 226.76388 
L 174.702341 226.058803 
L 174.442028 225.836789 
L 173.769231 225.250201 
L 173.389544 224.909699 
L 172.83612 224.409474 
L 172.371357 223.982609 
L 171.90301 223.541799 
L 171.441042 223.055518 
L 170.9699 222.544488 
L 170.572858 222.128428 
L 170.036789 221.564179 
L 169.679578 221.201338 
L 169.103679 220.598642 
L 168.776914 220.274247 
L 168.170569 219.615095 
L 167.923665 219.347157 
L 167.237458 218.571952 
L 167.102612 218.420067 
L 166.304348 217.528624 
L 166.272321 217.492977 
L 165.542998 216.565886 
L 165.371237 216.332462 
L 164.842791 215.638796 
L 164.438127 215.054783 
L 164.216479 214.711706 
L 163.772052 213.784615 
L 163.505017 213.06791 
L 163.420389 212.857525 
L 163.026318 211.930435 
L 162.668167 211.003344 
L 162.571906 210.747658 
L 162.283134 210.076254 
L 161.920004 209.149164 
L 161.638796 208.521963 
L 161.494072 208.222074 
L 160.995116 207.294983 
L 160.705686 206.746717 
L 160.488855 206.367893 
L 159.977676 205.440803 
L 159.772575 205.065347 
L 159.463505 204.513712 
L 158.963797 203.586622 
L 158.839465 203.346395 
L 158.472916 202.659532 
L 157.992425 201.732441 
L 157.906355 201.545298 
L 157.550602 200.805351 
L 157.094193 199.878261 
L 156.973244 199.597688 
L 156.666374 198.951171 
L 156.15226 198.02408 
L 156.040134 197.829215 
L 155.521627 197.09699 
L 155.107023 196.552469 
L 154.814093 196.1699 
L 154.173913 195.264285 
L 154.157999 195.242809 
L 153.547838 194.315719 
L 153.240803 193.846855 
L 152.936478 193.388629 
L 152.320691 192.461538 
L 152.307692 192.440222 
L 151.672832 191.534448 
L 151.374582 191.236872 
L 150.784237 190.607358 
L 150.441472 190.265927 
L 149.887883 189.680268 
L 149.508361 189.258912 
L 149.054445 188.753177 
L 148.575251 188.097102 
L 148.384317 187.826087 
L 147.765089 186.898997 
L 147.64214 186.647724 
L 147.257548 185.971906 
L 146.873592 185.044816 
L 146.70903 184.666666 
L 146.397688 184.117726 
L 145.931566 183.190635 
L 145.77592 182.941583 
L 145.292349 182.263545 
L 144.845395 181.336455 
L 144.842809 181.330201 
L 144.524934 180.409365 
L 144.353786 179.482274 
L 144.215291 178.555184 
L 144.015236 177.628094 
L 143.909699 177.335479 
L 143.73416 176.701003 
L 143.48043 175.773913 
L 143.331614 174.846823 
L 143.128858 173.919732 
L 142.976589 173.481022 
L 142.8951 172.992642 
L 142.618057 172.065552 
L 142.470051 171.138462 
L 142.08935 170.211371 
L 142.043478 170.153031 
L 141.551885 169.284281 
L 141.299626 168.357191 
L 141.110368 167.647584 
L 141.098834 167.4301 
L 141.110368 166.636775 
L 141.122484 166.50301 
L 141.187373 165.57592 
L 141.243684 164.648829 
L 141.423481 163.721739 
L 141.538131 162.794649 
L 141.677498 161.867559 
L 141.862231 160.940468 
L 142.020627 160.013378 
L 142.043478 159.680059 
L 142.178692 159.086288 
L 142.303709 158.159197 
L 142.404706 157.232107 
L 142.533024 156.305017 
L 142.667937 155.377926 
L 142.906849 154.450836 
L 142.976589 153.803763 
L 143.0516 153.523746 
L 143.185104 152.596656 
L 143.281407 151.669565 
L 143.3509 150.742475 
L 143.442246 149.815385 
L 143.751298 148.888294 
L 143.909699 148.527907 
L 144.172157 147.961204 
L 144.46602 147.034114 
L 144.839788 146.107023 
L 144.842809 146.09397 
L 145.211362 145.179933 
L 145.681451 144.252843 
L 145.77592 144.130358 
L 146.352668 143.325753 
L 146.70903 142.828323 
L 147.015967 142.398662 
L 147.64214 141.525618 
L 147.691755 141.471572 
L 148.416639 140.544482 
L 148.575251 140.366526 
L 149.219575 139.617391 
L 149.508361 139.283113 
L 150.006454 138.690301 
L 150.441472 138.180614 
L 150.793088 137.763211 
L 151.374582 137.08349 
L 151.583482 136.83612 
L 152.307692 135.991495 
L 152.384752 135.90903 
L 153.229658 134.98194 
L 153.240803 134.970632 
L 154.101532 134.054849 
L 154.173913 133.977893 
L 154.941753 133.127759 
L 155.107023 132.969294 
L 156.040134 132.296037 
L 156.182816 132.200669 
L 156.973244 131.733395 
L 157.658777 131.273579 
L 157.906355 131.100262 
L 158.839465 130.50638 
L 159.091371 130.346488 
L 159.772575 129.90342 
L 160.586605 129.419398 
L 160.705686 129.348644 
L 161.638796 128.995462 
L 162.571906 128.690256 
L 163.000097 128.492308 
L 163.505017 128.272734 
L 164.438127 127.887118 
L 165.265482 127.565217 
L 165.371237 127.521932 
L 166.304348 127.177572 
L 167.237458 126.841759 
L 167.739861 126.638127 
L 168.170569 126.471059 
L 169.103679 126.121869 
L 170.036789 125.784148 
L 170.210679 125.711037 
L 170.9699 125.47062 
L 171.90301 125.291443 
L 172.83612 125.107674 
L 173.769231 124.950014 
L 174.415558 124.783946 
L 174.702341 124.719535 
L 175.635452 124.519427 
L 176.568562 124.317088 
L 177.501672 124.124262 
L 178.434783 124.001196 
L 179.367893 123.894563 
L 179.654791 123.856856 
L 180.301003 123.801765 
L 181.234114 123.755259 
L 182.167224 123.79133 
L 183.100334 123.825092 
L 184.033445 123.852257 
L 184.216874 123.856856 
L 184.966555 123.88778 
L 185.899666 123.953973 
L 186.832776 124.149519 
L 187.765886 124.401726 
L 188.698997 124.6453 
L 189.272992 124.783946 
L 189.632107 124.8858 
L 190.565217 125.111457 
L 191.498328 125.412034 
L 192.244317 125.711037 
L 192.431438 125.802568 
L 193.364548 126.088114 
L 194.297659 126.383172 
L 195.04702 126.638127 
L 195.230769 126.715312 
L 196.16388 127.07855 
L 197.09699 127.524988 
L 197.186609 127.565217 
L 198.0301 127.883991 
L 198.963211 128.225363 
L 199.614004 128.492308 
L 199.896321 128.621538 
L 200.829431 128.987784 
L 201.762542 129.380644 
L 201.829367 129.419398 
L 202.695652 129.848717 
L 203.569744 130.346488 
L 203.628763 130.390197 
L 204.561873 130.944158 
L 205.073128 131.273579 
L 205.494983 131.543803 
L 206.428094 132.136727 
L 206.517842 132.200669 
L 207.361204 132.739367 
L 207.962296 133.127759 
L 208.294314 133.340707 
L 209.227425 133.930172 
L 209.410964 134.054849 
L 210.160535 134.533429 
L 210.861302 134.98194 
L 211.093645 135.138365 
L 212.026756 135.727346 
L 212.28047 135.90903 
L 212.959866 136.579072 
L 213.180142 136.83612 
L 213.892977 137.675451 
L 213.993981 137.763211 
L 214.826087 138.318706 
L 215.471706 138.690301 
L 215.759197 138.855669 
L 216.692308 139.389741 
L 217.062998 139.617391 
L 217.625418 139.952607 
L 218.558528 140.535387 
L 218.570841 140.544482 
L 219.491639 141.158715 
L 219.938545 141.471572 
L 220.424749 141.813948 
L 221.198462 142.398662 
L 221.35786 142.542739 
L 222.29097 143.217659 
L 222.425332 143.325753 
L 223.22408 143.929259 
L 223.652349 144.252843 
L 224.157191 144.629893 
L 224.904042 145.179933 
L 225.090301 145.341795 
L 225.745986 146.107023 
L 226.023411 146.476488 
L 226.424149 147.034114 
L 226.956522 147.750641 
L 227.129402 147.961204 
L 227.889632 148.82558 
L 227.947478 148.888294 
L 228.719809 149.815385 
L 228.822742 149.917525 
L 229.552238 150.742475 
L 229.755853 150.949193 
L 230.429627 151.669565 
L 230.688963 151.945781 
L 231.297899 152.596656 
L 231.622074 152.941913 
L 232.167194 153.523746 
L 232.555184 153.936901 
L 233.037817 154.450836 
L 233.488294 154.930538 
L 233.865021 155.377926 
L 234.421405 156.224522 
L 234.48301 156.305017 
L 235.061248 157.232107 
L 235.354515 157.673986 
L 235.672685 158.159197 
L 236.176144 159.086288 
L 236.287625 159.218547 
L 236.754756 160.013378 
L 237.220736 160.817429 
L 237.3095 160.940468 
L 237.803651 161.867559 
L 238.153846 162.560348 
L 238.29431 162.794649 
L 238.715902 163.721739 
L 239.086957 164.374508 
L 239.267813 164.648829 
L 239.746123 165.57592 
L 240.020067 166.089466 
L 240.270921 166.50301 
L 240.722336 167.4301 
L 240.953177 167.860503 
L 241.243664 168.357191 
L 241.516131 169.284281 
L 241.768858 170.211371 
L 241.886288 170.492673 
L 242.131403 171.138462 
L 242.377868 172.065552 
L 242.558358 172.992642 
L 242.819398 173.667799 
L 242.948524 173.919732 
L 243.339537 174.846823 
L 243.676142 175.773913 
L 243.752508 175.921886 
L 244.114639 176.701003 
L 244.432985 177.628094 
L 244.685619 178.336887 
L 244.795317 178.555184 
L 245.169263 179.482274 
L 245.407332 180.409365 
L 245.618729 181.057541 
L 245.73648 181.336455 
L 246.045328 182.263545 
L 246.16033 183.190635 
L 246.11846 184.117726 
L 246.074043 185.044816 
L 246.028215 185.971906 
L 245.987294 186.898997 
L 245.999575 187.826087 
L 246.013783 188.753177 
L 246.029676 189.680268 
L 246.04638 190.607358 
L 246.020399 191.534448 
L 245.964407 192.461538 
L 245.907923 193.388629 
L 245.848108 194.315719 
L 245.785111 195.242809 
L 245.716548 196.1699 
L 245.658248 197.09699 
L 245.618729 197.213061 
L 245.417424 198.02408 
L 245.208436 198.951171 
L 244.870173 199.878261 
L 244.685619 200.37027 
L 244.549194 200.805351 
L 244.415361 201.732441 
L 244.180845 202.659532 
L 243.776384 203.586622 
L 243.752508 203.649945 
L 243.53851 204.513712 
L 243.271931 205.440803 
L 242.923607 206.367893 
L 242.819398 206.611546 
L 242.61287 207.294983 
L 242.362348 208.222074 
L 242.011098 209.149164 
L 241.886288 209.369331 
L 241.527697 210.076254 
L 240.991219 211.003344 
L 240.953177 211.059645 
L 240.484375 211.930435 
L 240.020067 212.716787 
L 239.935111 212.857525 
L 239.213364 213.784615 
L 239.086957 213.923721 
L 238.446099 214.711706 
L 238.153846 215.045634 
L 237.664791 215.638796 
L 237.220736 216.209697 
L 236.971595 216.565886 
L 236.437359 217.492977 
L 236.287625 217.709331 
L 235.842455 218.420067 
L 235.354515 219.174047 
L 235.229766 219.347157 
L 234.494063 220.274247 
L 234.421405 220.359592 
L 233.74604 221.201338 
L 233.488294 221.522578 
L 233.00185 222.128428 
L 232.555184 222.663666 
L 232.236035 223.055518 
L 231.622074 223.776609 
L 231.431409 223.982609 
L 230.688963 224.657359 
L 230.373648 224.909699 
L 229.755853 225.41002 
L 229.228222 225.836789 
L 228.822742 226.170704 
L 228.11416 226.76388 
L 227.889632 226.953085 
L 227.007095 227.69097 
L 226.956522 227.733587 
L 226.023411 228.520937 
L 225.904998 228.61806 
L 225.090301 229.303358 
L 224.804454 229.545151 
L 224.157191 230.096486 
L 223.712434 230.472241 
L 223.22408 230.900916 
L 222.651347 231.399331 
L 222.29097 231.672333 
L 221.35786 232.063655 
L 220.501509 232.326421 
L 220.424749 232.343891 
L 219.491639 232.637726 
L 218.558528 232.927141 
L 217.625418 233.147705 
L 217.203494 233.253512 
L 216.692308 233.359147 
L 215.759197 233.596299 
L 214.826087 233.877046 
L 213.892977 234.12815 
L 213.738818 234.180602 
L 212.959866 234.405898 
L 212.026756 234.687572 
L 211.093645 234.926446 
L 210.469791 235.107692 
L 210.160535 235.184417 
L 209.227425 235.47522 
L 208.294314 235.727539 
L 207.361204 235.951418 
L 207.055093 236.034783 
L 206.428094 236.155584 
L 205.494983 236.160931 
L 204.561873 236.127583 
L 203.628763 236.096351 
L 202.695652 236.072377 
L 201.762542 236.051624 
z
" clip-path="url(#p80de8995b5)" style="fill: none; stroke: #000000; stroke-width: 1.5"/>
   </g>
   <g id="PathCollection_4">
    <path d="M 202.695652 259.273711 
L 202.206984 259.21204 
L 201.762542 259.155805 
L 200.829431 259.037711 
L 199.896321 258.919642 
L 198.963211 258.776121 
L 198.0301 258.610407 
L 197.09699 258.444688 
L 196.254415 258.28495 
L 196.16388 258.26799 
L 195.230769 258.038678 
L 194.297659 257.808839 
L 193.364548 257.58582 
L 192.431438 257.382818 
L 192.31598 257.35786 
L 191.498328 257.181111 
L 190.565217 256.979421 
L 189.632107 256.84031 
L 188.698997 256.78106 
L 187.765886 256.721808 
L 186.832776 256.532681 
L 186.494667 256.430769 
L 185.899666 256.248422 
L 184.966555 255.933662 
L 184.033445 255.570528 
L 183.867128 255.503679 
L 183.100334 255.196516 
L 182.167224 254.90159 
L 181.234114 254.660767 
L 180.915076 254.576589 
L 180.301003 254.414559 
L 179.367893 254.168366 
L 178.434783 253.922159 
L 177.501672 253.675967 
L 177.401366 253.649498 
L 176.568562 253.429744 
L 175.635452 253.18461 
L 174.702341 252.943639 
L 173.985424 252.722408 
L 173.769231 252.654487 
L 172.83612 252.330708 
L 171.90301 252.006567 
L 171.304323 251.795318 
L 170.9699 251.677675 
L 170.036789 251.315526 
L 169.311753 250.868227 
L 169.103679 250.733353 
L 168.170569 250.018377 
L 168.070493 249.941137 
L 167.237458 249.298211 
L 166.869261 249.014047 
L 166.304348 248.578055 
L 165.668042 248.086957 
L 165.371237 247.857889 
L 164.466829 247.159866 
L 164.438127 247.137714 
L 163.505017 246.416757 
L 163.267087 246.232776 
L 162.571906 245.690563 
L 162.092589 245.305686 
L 161.638796 244.937423 
L 160.950193 244.378595 
L 160.705686 244.180162 
L 159.84372 243.451505 
L 159.772575 243.387786 
L 158.839465 242.549641 
L 158.812554 242.524415 
L 157.906355 241.684308 
L 157.803807 241.597324 
L 156.973244 240.892812 
L 156.710849 240.670234 
L 156.040134 240.101299 
L 155.6179 239.743144 
L 155.107023 239.309788 
L 154.524957 238.816054 
L 154.173913 238.518287 
L 153.432008 237.888963 
L 153.240803 237.726771 
L 152.339049 236.961873 
L 152.307692 236.935276 
L 151.374582 236.14376 
L 151.246107 236.034783 
L 150.441472 235.294683 
L 150.274483 235.107692 
L 149.510667 234.180602 
L 149.508361 234.177803 
L 148.746826 233.253512 
L 148.575251 233.045262 
L 147.987913 232.326421 
L 147.64214 231.900818 
L 147.256514 231.399331 
L 146.70903 230.687376 
L 146.543595 230.472241 
L 145.830687 229.545151 
L 145.77592 229.468937 
L 145.203066 228.61806 
L 144.842809 227.932143 
L 144.732522 227.69097 
L 144.443964 226.76388 
L 144.080996 225.836789 
L 143.909699 225.42257 
L 143.697605 224.909699 
L 143.314214 223.982609 
L 142.976589 223.166165 
L 142.923232 223.055518 
L 142.397783 222.128428 
L 142.043478 221.504426 
L 141.871385 221.201338 
L 141.303144 220.274247 
L 141.110368 220.020778 
L 140.590717 219.347157 
L 140.177258 218.779106 
L 139.923848 218.420067 
L 139.26816 217.492977 
L 139.244147 217.459232 
L 138.61016 216.565886 
L 138.311037 216.020172 
L 138.123199 215.638796 
L 137.739438 214.711706 
L 137.377926 213.843267 
L 137.353332 213.784615 
L 136.964577 212.857525 
L 136.575809 211.930435 
L 136.444816 211.698648 
L 136.018315 211.003344 
L 135.511706 210.286375 
L 135.363735 210.076254 
L 134.710877 209.149164 
L 134.578595 208.961318 
L 134.058013 208.222074 
L 133.645485 207.636263 
L 133.405155 207.294983 
L 132.75818 206.367893 
L 132.712375 206.301719 
L 132.111775 205.440803 
L 131.779264 204.964488 
L 131.465263 204.513712 
L 130.846154 203.604571 
L 130.834268 203.586622 
L 130.197848 202.659532 
L 129.913043 202.272571 
L 129.502499 201.732441 
L 128.979933 201.044942 
L 128.797819 200.805351 
L 128.093142 199.878261 
L 128.046823 199.817322 
L 127.388458 198.951171 
L 127.113712 198.569044 
L 126.761639 198.02408 
L 126.283451 197.09699 
L 126.180602 196.923872 
L 125.730552 196.1699 
L 125.247492 195.360615 
L 125.177173 195.242809 
L 124.69878 194.315719 
L 124.340565 193.388629 
L 124.314381 193.32559 
L 123.955117 192.461538 
L 123.670043 191.534448 
L 123.467371 190.607358 
L 123.381271 190.148873 
L 123.294621 189.680268 
L 123.079117 188.753177 
L 122.737108 187.826087 
L 122.448161 187.041496 
L 122.396368 186.898997 
L 122.058084 185.971906 
L 121.794733 185.044816 
L 121.61649 184.117726 
L 121.51505 183.554337 
L 121.450256 183.190635 
L 121.28341 182.263545 
L 121.099797 181.336455 
L 120.798527 180.409365 
L 120.58194 179.982052 
L 120.32783 179.482274 
L 119.919118 178.555184 
L 119.715247 177.628094 
L 119.648829 177.316287 
L 119.517766 176.701003 
L 119.320287 175.773913 
L 119.122804 174.846823 
L 118.925318 173.919732 
L 118.727855 172.992642 
L 118.715719 172.923989 
L 118.568494 172.065552 
L 118.451294 171.138462 
L 118.339609 170.211371 
L 118.224476 169.284281 
L 118.109165 168.357191 
L 117.990729 167.4301 
L 117.882989 166.50301 
L 117.782609 165.683106 
L 117.769497 165.57592 
L 117.68661 164.648829 
L 117.744754 163.721739 
L 117.782609 163.462756 
L 117.884829 162.794649 
L 118.183187 161.867559 
L 118.483602 160.940468 
L 118.713457 160.013378 
L 118.715719 160.002682 
L 118.909551 159.086288 
L 119.107137 158.159197 
L 119.350807 157.232107 
L 119.599997 156.305017 
L 119.648829 156.102629 
L 119.823221 155.377926 
L 120.000177 154.450836 
L 120.174712 153.523746 
L 120.346216 152.596656 
L 120.517735 151.669565 
L 120.58194 151.322739 
L 120.688901 150.742475 
L 120.855961 149.815385 
L 121.015929 148.888294 
L 121.168563 147.961204 
L 121.321189 147.034114 
L 121.473818 146.107023 
L 121.51505 145.856592 
L 121.625621 145.179933 
L 121.732085 144.252843 
L 121.823201 143.325753 
L 121.914323 142.398662 
L 122.056501 141.471572 
L 122.448161 140.614307 
L 122.481018 140.544482 
L 122.917282 139.617391 
L 123.353546 138.690301 
L 123.381271 138.631382 
L 123.7898 137.763211 
L 124.226051 136.83612 
L 124.314381 136.648411 
L 124.650871 135.90903 
L 124.998102 134.98194 
L 125.247492 134.306648 
L 125.343217 134.054849 
L 125.836365 133.127759 
L 126.180602 132.632061 
L 126.477851 132.200669 
L 127.09249 131.273579 
L 127.113712 131.240576 
L 127.687632 130.346488 
L 128.046823 129.785076 
L 128.281273 129.419398 
L 128.87498 128.492308 
L 128.979933 128.329175 
L 129.47141 127.565217 
L 129.913043 126.87874 
L 130.070799 126.638127 
L 130.74665 125.711037 
L 130.846154 125.581774 
L 131.460305 124.783946 
L 131.779264 124.369591 
L 132.17396 123.856856 
L 132.712375 123.157416 
L 132.887614 122.929766 
L 133.601279 122.002676 
L 133.645485 121.945339 
L 134.315323 121.075585 
L 134.578595 120.734441 
L 135.051118 120.148495 
L 135.511706 119.655921 
L 135.916608 119.221405 
L 136.444816 118.620699 
L 136.728082 118.294314 
L 137.377926 117.545564 
L 137.532709 117.367224 
L 138.311037 116.466529 
L 138.333758 116.440134 
L 139.244147 115.54922 
L 139.28916 115.513043 
L 140.177258 114.801597 
L 140.446446 114.585953 
L 141.110368 114.078136 
L 141.721214 113.658863 
L 142.043478 113.434411 
L 142.976589 112.822877 
L 143.117884 112.731773 
L 143.909699 112.218977 
L 144.517829 111.804682 
L 144.842809 111.570446 
L 145.766572 110.877592 
L 145.77592 110.870585 
L 146.70903 110.170887 
L 147.002837 109.950502 
L 147.64214 109.524277 
L 148.575251 109.108376 
L 148.776137 109.023411 
L 149.508361 108.713701 
L 150.441472 108.31895 
L 150.967977 108.096321 
L 151.374582 107.92434 
L 152.307692 107.529578 
L 153.240803 107.253003 
L 153.546893 107.169231 
L 154.173913 106.996782 
L 155.107023 106.736547 
L 156.040134 106.478364 
L 156.921875 106.24214 
L 156.973244 106.228291 
L 157.906355 106.009363 
L 158.839465 105.675105 
L 159.717248 105.31505 
L 159.772575 105.292356 
L 160.705686 104.909628 
L 161.638796 104.526888 
L 161.971616 104.38796 
L 162.571906 104.136977 
L 163.505017 103.762085 
L 164.251305 103.46087 
L 164.438127 103.385466 
L 165.371237 103.035039 
L 166.304348 102.861955 
L 167.237458 102.703292 
L 168.152609 102.533779 
L 168.170569 102.530437 
L 169.103679 102.356753 
L 170.036789 102.183071 
L 170.9699 102.009393 
L 171.90301 101.835714 
L 172.83612 101.662039 
L 173.133501 101.606689 
L 173.769231 101.490264 
L 174.702341 101.327401 
L 175.635452 101.167539 
L 176.568562 100.993595 
L 177.501672 100.855158 
L 178.434783 100.717326 
L 178.690856 100.679599 
L 179.367893 100.579848 
L 180.301003 100.442382 
L 181.234114 100.304906 
L 182.167224 100.169211 
L 183.100334 100.216238 
L 184.033445 100.405255 
L 184.966555 100.587616 
L 185.440959 100.679599 
L 185.899666 100.768538 
L 186.832776 100.949459 
L 187.765886 101.130375 
L 188.698997 101.311308 
L 189.632107 101.543024 
L 189.861452 101.606689 
L 190.565217 101.804884 
L 191.498328 102.035175 
L 192.431438 102.248197 
L 193.364548 102.461076 
L 193.674918 102.533779 
L 194.297659 102.679551 
L 195.230769 102.833535 
L 196.16388 102.986413 
L 197.09699 103.139269 
L 198.0301 103.367697 
L 198.412943 103.46087 
L 198.963211 103.596192 
L 199.896321 103.845614 
L 200.829431 104.106237 
L 201.762542 104.366838 
L 201.832492 104.38796 
L 202.695652 104.654355 
L 203.628763 104.936542 
L 204.350004 105.31505 
L 204.561873 105.428729 
L 205.494983 105.935982 
L 206.056442 106.24214 
L 206.428094 106.4448 
L 207.361204 106.95361 
L 207.754675 107.169231 
L 208.294314 107.475779 
L 209.227425 107.984342 
L 209.433001 108.096321 
L 210.160535 108.492611 
L 211.093645 109.00088 
L 211.135009 109.023411 
L 212.026756 109.509148 
L 212.837036 109.950502 
L 212.959866 110.017455 
L 213.892977 110.534853 
L 214.752609 110.877592 
L 214.826087 110.907177 
L 215.759197 111.275012 
L 216.692308 111.708905 
L 216.865648 111.804682 
L 217.625418 112.224484 
L 218.543573 112.731773 
L 218.558528 112.740036 
L 219.491639 113.255639 
L 220.221412 113.658863 
L 220.424749 113.771214 
L 221.35786 114.286783 
L 221.899313 114.585953 
L 222.29097 114.805285 
L 223.22408 115.418943 
L 223.360891 115.513043 
L 224.157191 116.060747 
L 224.701594 116.440134 
L 225.090301 116.713781 
L 226.016207 117.367224 
L 226.023411 117.372309 
L 226.956522 118.030853 
L 227.329835 118.294314 
L 227.889632 118.689378 
L 228.643489 119.221405 
L 228.822742 119.347444 
L 229.755853 120.006436 
L 229.979464 120.148495 
L 230.688963 120.573002 
L 231.507533 121.075585 
L 231.622074 121.144787 
L 232.555184 121.707561 
L 233.042088 122.002676 
L 233.488294 122.272255 
L 234.421405 122.835984 
L 234.576632 122.929766 
L 235.354515 123.399728 
L 236.122285 123.856856 
L 236.287625 123.953531 
L 237.220736 124.495695 
L 237.68886 124.783946 
L 238.153846 125.182725 
L 238.68977 125.711037 
L 239.086957 126.074757 
L 239.768375 126.638127 
L 240.020067 126.850003 
L 240.622754 127.565217 
L 240.953177 128.014285 
L 241.292316 128.492308 
L 241.886288 129.329513 
L 241.949686 129.419398 
L 242.607801 130.346488 
L 242.819398 130.644746 
L 243.260792 131.273579 
L 243.752508 131.927129 
L 243.962288 132.200669 
L 244.677638 133.127759 
L 244.685619 133.137895 
L 245.402057 134.054849 
L 245.618729 134.338001 
L 246.125668 134.98194 
L 246.551839 135.527504 
L 246.851697 135.90903 
L 247.48495 136.714752 
L 247.580336 136.83612 
L 248.316308 137.763211 
L 248.41806 137.877206 
L 249.214185 138.690301 
L 249.351171 138.817965 
L 250.215001 139.617391 
L 250.284281 139.682978 
L 251.197128 140.544482 
L 251.217391 140.563662 
L 252.137856 141.471572 
L 252.150502 141.487063 
L 252.798323 142.398662 
L 253.083612 142.800131 
L 253.457122 143.325753 
L 254.016722 144.119978 
L 254.10837 144.252843 
L 254.732897 145.179933 
L 254.949833 145.507369 
L 255.347124 146.107023 
L 255.882943 146.915779 
L 255.961343 147.034114 
L 256.575579 147.961204 
L 256.816054 148.324167 
L 257.193863 148.888294 
L 257.749164 149.737949 
L 257.798479 149.815385 
L 258.364351 150.742475 
L 258.682274 151.283149 
L 258.914767 151.669565 
L 259.450034 152.596656 
L 259.615385 152.887049 
L 259.979205 153.523746 
L 260.504162 154.450836 
L 260.548495 154.52598 
L 261.03806 155.377926 
L 261.481605 156.208919 
L 261.532735 156.305017 
L 261.996373 157.232107 
L 262.398885 158.159197 
L 262.414716 158.198433 
L 262.773216 159.086288 
L 263.146801 160.013378 
L 263.347826 160.512224 
L 263.520206 160.940468 
L 263.885668 161.867559 
L 264.236896 162.794649 
L 264.280936 162.898485 
L 264.608432 163.721739 
L 264.90502 164.648829 
L 265.201371 165.57592 
L 265.214047 165.615573 
L 265.497733 166.50301 
L 265.79408 167.4301 
L 266.090444 168.357191 
L 266.147157 168.538138 
L 266.381248 169.284281 
L 266.634916 170.211371 
L 266.88859 171.138462 
L 267.080268 171.839024 
L 267.142245 172.065552 
L 267.39591 172.992642 
L 267.649576 173.919732 
L 267.952663 174.846823 
L 268.013378 174.992483 
L 268.339095 175.773913 
L 268.72555 176.701003 
L 268.946488 177.231023 
L 269.112007 177.628094 
L 269.49844 178.555184 
L 269.879599 179.473772 
L 269.882975 179.482274 
L 270.219801 180.409365 
L 270.482188 181.336455 
L 270.553304 182.263545 
L 270.580748 183.190635 
L 270.603933 184.117726 
L 270.623248 185.044816 
L 270.619953 185.971906 
L 270.576788 186.898997 
L 270.529285 187.826087 
L 270.446122 188.753177 
L 270.351227 189.680268 
L 270.255739 190.607358 
L 270.14907 191.534448 
L 270.08585 192.461538 
L 270.022618 193.388629 
L 269.959383 194.315719 
L 269.896159 195.242809 
L 269.879599 196.053899 
L 269.877218 196.1699 
L 269.8772 197.09699 
L 269.827619 198.02408 
L 269.750953 198.951171 
L 269.67429 199.878261 
L 269.597634 200.805351 
L 269.521065 201.732441 
L 269.456772 202.659532 
L 269.269887 203.586622 
L 268.946488 204.329659 
L 268.866381 204.513712 
L 268.462886 205.440803 
L 268.060572 206.367893 
L 268.013378 206.501036 
L 267.740936 207.294983 
L 267.422438 208.222074 
L 267.104093 209.149164 
L 267.080268 209.218554 
L 266.788475 210.076254 
L 266.460533 211.003344 
L 266.147157 211.823853 
L 266.105623 211.930435 
L 265.766669 212.857525 
L 265.395501 213.784615 
L 265.214047 214.201246 
L 264.99364 214.711706 
L 264.652125 215.638796 
L 264.309112 216.565886 
L 264.280936 216.642038 
L 263.96126 217.492977 
L 263.618847 218.420067 
L 263.347826 219.160694 
L 263.277785 219.347157 
L 262.927403 220.274247 
L 262.577303 221.201338 
L 262.414716 221.594727 
L 262.195795 222.128428 
L 261.807133 223.055518 
L 261.481605 223.636714 
L 261.269004 223.982609 
L 260.662155 224.909699 
L 260.548495 225.074419 
L 259.972513 225.836789 
L 259.615385 226.272713 
L 259.213002 226.76388 
L 258.682274 227.411715 
L 258.453493 227.69097 
L 257.749164 228.550707 
L 257.693987 228.61806 
L 256.912691 229.545151 
L 256.816054 229.653894 
L 256.10394 230.472241 
L 255.882943 230.776824 
L 255.452563 231.399331 
L 254.949833 232.120597 
L 254.804552 232.326421 
L 254.139914 233.253512 
L 254.016722 233.42535 
L 253.475269 234.180602 
L 253.083612 234.726907 
L 252.804985 235.107692 
L 252.150502 235.976744 
L 252.106719 236.034783 
L 251.442346 236.961873 
L 251.217391 237.279488 
L 250.745466 237.888963 
L 250.284281 238.450671 
L 249.984291 238.816054 
L 249.351171 239.587208 
L 249.223146 239.743144 
L 248.461961 240.670234 
L 248.41806 240.723704 
L 247.700799 241.597324 
L 247.48495 241.849776 
L 246.882619 242.524415 
L 246.551839 242.848691 
L 245.808468 243.451505 
L 245.618729 243.593211 
L 244.685619 244.290097 
L 244.56712 244.378595 
L 243.752508 244.986989 
L 243.329051 245.305686 
L 242.819398 245.695634 
L 242.133299 246.232776 
L 241.886288 246.426156 
L 240.953177 247.156694 
L 240.949125 247.159866 
L 240.020067 247.887214 
L 239.763879 248.086957 
L 239.086957 248.585603 
L 238.461545 249.014047 
L 238.153846 249.217805 
L 237.220736 249.835725 
L 237.061556 249.941137 
L 236.287625 250.45364 
L 235.661547 250.868227 
L 235.354515 251.071549 
L 234.421405 251.656538 
L 234.002058 251.795318 
L 233.488294 251.942757 
L 232.555184 252.211403 
L 231.622074 252.523751 
L 231.09588 252.722408 
L 230.688963 252.876701 
L 229.755853 253.230519 
L 228.822742 253.58434 
L 228.650899 253.649498 
L 227.889632 253.938141 
L 226.956522 254.291961 
L 226.205876 254.576589 
L 226.023411 254.645774 
L 225.090301 254.999582 
L 224.157191 255.353398 
L 223.760867 255.503679 
L 223.22408 255.707222 
L 222.29097 256.061042 
L 221.35786 256.41486 
L 221.315902 256.430769 
L 220.424749 256.768679 
L 219.491639 257.107376 
L 218.785011 257.35786 
L 218.558528 257.438142 
L 217.625418 257.754773 
L 216.692308 258.057698 
L 215.883449 258.28495 
L 215.759197 258.319354 
L 214.826087 258.577495 
L 213.892977 258.835656 
L 212.959866 258.997705 
L 212.026756 259.016585 
L 211.093645 259.0322 
L 210.160535 259.028126 
L 209.227425 259.024054 
L 208.294314 259.019975 
L 207.361204 259.015888 
L 206.428094 259.067357 
L 205.494983 259.149951 
L 204.793678 259.21204 
L 204.561873 259.232563 
L 203.628763 259.315185 
L 202.695652 259.273711 
z
" clip-path="url(#p80de8995b5)" style="fill: none; stroke: #000000; stroke-width: 1.5"/>
   </g>
   <g id="patch_3">
    <path d="M 45 320.4 
L 45 43.2 
" style="fill: none; stroke: #000000; stroke-width: 0.8; stroke-linejoin: miter; stroke-linecap: square"/>
   </g>
   <g id="patch_4">
    <path d="M 324 320.4 
L 324 43.2 
" style="fill: none; stroke: #000000; stroke-width: 0.8; stroke-linejoin: miter; stroke-linecap: square"/>
   </g>
   <g id="patch_5">
    <path d="M 45 320.4 
L 324 320.4 
" style="fill: none; stroke: #000000; stroke-width: 0.8; stroke-linejoin: miter; stroke-linecap: square"/>
   </g>
   <g id="patch_6">
    <path d="M 45 43.2 
L 324 43.2 
" style="fill: none; stroke: #000000; stroke-width: 0.8; stroke-linejoin: miter; stroke-linecap: square"/>
   </g>
  </g>
 </g>
 <defs>
  <clipPath id="p80de8995b5">
   <rect x="45" y="43.2" width="279" height="277.2"/>
  </clipPath>
 </defs>
</svg>
