<?xml version="1.0" encoding="utf-8" standalone="no"?>
<!DOCTYPE svg PUBLIC "-//W3C//DTD SVG 1.1//EN"
  "http://www.w3.org/Graphics/SVG/1.1/DTD/svg11.dtd">
<svg xmlns:xlink="http://www.w3.org/1999/xlink" width="360pt" height="360pt" viewBox="0 0 360 360" xmlns="http://www.w3.org/2000/svg" version="1.1">
 <metadata>
  <rdf:RDF xmlns:dc="http://purl.org/dc/elements/1.1/" xmlns:cc="http://creativecommons.org/ns#" xmlns:rdf="http://www.w3.org/1999/02/22-rdf-syntax-ns#">
   <cc:Work>
    <dc:type rdf:resource="http://purl.org/dc/dcmitype/StillImage"/>
    <dc:date>2022-04-03T22:41:43.273529</dc:date>
    <dc:format>image/svg+xml</dc:format>
    <dc:creator>
     <cc:Agent>
      <dc:title>Matplotlib v3.5.1, https://matplotlib.org/</dc:title>
     </cc:Agent>
    </dc:creator>
   </cc:Work>
  </rdf:RDF>
 </metadata>
 <defs>
  <style type="text/css">*{stroke-linejoin: round; stroke-linecap: butt}</style>
 </defs>
 <g id="figure_1">
  <g id="patch_1">
   <path d="M 0 360 
L 360 360 
L 360 0 
L 0 0 
z
" style="fill: #ffffff"/>
  </g>
  <g id="axes_1">
   <g id="patch_2">
    <path d="M 45 320.4 
L 324 320.4 
L 324 43.2 
L 45 43.2 
z
" style="fill: #ffffff"/>
   </g>
   <g id="PathCollection_1">
    <defs>
     <path id="m51758966c7" d="M 0 0.5 
C 0.132602 0.5 0.25979 0.447317 0.353553 0.353553 
C 0.447317 0.25979 0.5 0.132602 0.5 0 
C 0.5 -0.132602 0.447317 -0.25979 0.353553 -0.353553 
C 0.25979 -0.447317 0.132602 -0.5 0 -0.5 
C -0.132602 -0.5 -0.25979 -0.447317 -0.353553 -0.353553 
C -0.447317 -0.25979 -0.5 -0.132602 -0.5 0 
C -0.5 0.132602 -0.447317 0.25979 -0.353553 0.353553 
C -0.25979 0.447317 -0.132602 0.5 0 0.5 
z
" style="stroke: #ff0000"/>
    </defs>
    <g clip-path="url(#p2bd47a768d)">
     <use xlink:href="#m51758966c7" x="237.886437" y="181.568614" style="fill: #ff0000; stroke: #ff0000"/>
     <use xlink:href="#m51758966c7" x="236.861192" y="176.467548" style="fill: #ff0000; stroke: #ff0000"/>
     <use xlink:href="#m51758966c7" x="235.058381" y="171.622834" style="fill: #ff0000; stroke: #ff0000"/>
     <use xlink:href="#m51758966c7" x="232.575598" y="167.149319" style="fill: #ff0000; stroke: #ff0000"/>
     <use xlink:href="#m51758966c7" x="229.573596" y="163.114815" style="fill: #ff0000; stroke: #ff0000"/>
     <use xlink:href="#m51758966c7" x="226.260125" y="159.515049" style="fill: #ff0000; stroke: #ff0000"/>
     <use xlink:href="#m51758966c7" x="222.855611" y="156.260166" style="fill: #ff0000; stroke: #ff0000"/>
     <use xlink:href="#m51758966c7" x="219.545415" y="153.183033" style="fill: #ff0000; stroke: #ff0000"/>
     <use xlink:href="#m51758966c7" x="216.434354" y="150.071674" style="fill: #ff0000; stroke: #ff0000"/>
     <use xlink:href="#m51758966c7" x="213.520956" y="146.716565" style="fill: #ff0000; stroke: #ff0000"/>
     <use xlink:href="#m51758966c7" x="210.698862" y="142.958503" style="fill: #ff0000; stroke: #ff0000"/>
     <use xlink:href="#m51758966c7" x="207.780127" y="138.728445" style="fill: #ff0000; stroke: #ff0000"/>
     <use xlink:href="#m51758966c7" x="204.531635" y="134.078588" style="fill: #ff0000; stroke: #ff0000"/>
     <use xlink:href="#m51758966c7" x="200.721312" y="129.201889" style="fill: #ff0000; stroke: #ff0000"/>
     <use xlink:href="#m51758966c7" x="196.173097" y="124.425856" style="fill: #ff0000; stroke: #ff0000"/>
     <use xlink:href="#m51758966c7" x="190.820134" y="120.162508" style="fill: #ff0000; stroke: #ff0000"/>
     <use xlink:href="#m51758966c7" x="184.732888" y="116.814693" style="fill: #ff0000; stroke: #ff0000"/>
     <use xlink:href="#m51758966c7" x="178.101218" y="114.670545" style="fill: #ff0000; stroke: #ff0000"/>
     <use xlink:href="#m51758966c7" x="171.172326" y="113.834896" style="fill: #ff0000; stroke: #ff0000"/>
     <use xlink:href="#m51758966c7" x="164.173423" y="114.230401" style="fill: #ff0000; stroke: #ff0000"/>
     <use xlink:href="#m51758966c7" x="157.256747" y="115.663298" style="fill: #ff0000; stroke: #ff0000"/>
     <use xlink:href="#m51758966c7" x="150.489774" y="117.917573" style="fill: #ff0000; stroke: #ff0000"/>
     <use xlink:href="#m51758966c7" x="143.888171" y="120.834553" style="fill: #ff0000; stroke: #ff0000"/>
     <use xlink:href="#m51758966c7" x="137.469452" y="124.349504" style="fill: #ff0000; stroke: #ff0000"/>
     <use xlink:href="#m51758966c7" x="131.299885" y="128.48034" style="fill: #ff0000; stroke: #ff0000"/>
     <use xlink:href="#m51758966c7" x="125.516356" y="133.284396" style="fill: #ff0000; stroke: #ff0000"/>
     <use xlink:href="#m51758966c7" x="120.322039" y="138.808325" style="fill: #ff0000; stroke: #ff0000"/>
     <use xlink:href="#m51758966c7" x="115.966701" y="145.049459" style="fill: #ff0000; stroke: #ff0000"/>
     <use xlink:href="#m51758966c7" x="112.719336" y="151.932069" style="fill: #ff0000; stroke: #ff0000"/>
     <use xlink:href="#m51758966c7" x="110.828733" y="159.29467" style="fill: #ff0000; stroke: #ff0000"/>
     <use xlink:href="#m51758966c7" x="110.465532" y="166.891226" style="fill: #ff0000; stroke: #ff0000"/>
     <use xlink:href="#m51758966c7" x="111.656625" y="174.417665" style="fill: #ff0000; stroke: #ff0000"/>
     <use xlink:href="#m51758966c7" x="114.244017" y="181.568614" style="fill: #ff0000; stroke: #ff0000"/>
     <use xlink:href="#m51758966c7" x="117.900654" y="188.108548" style="fill: #ff0000; stroke: #ff0000"/>
     <use xlink:href="#m51758966c7" x="122.208894" y="193.925173" style="fill: #ff0000; stroke: #ff0000"/>
     <use xlink:href="#m51758966c7" x="126.772637" y="199.037232" style="fill: #ff0000; stroke: #ff0000"/>
     <use xlink:href="#m51758966c7" x="131.316449" y="203.551681" style="fill: #ff0000; stroke: #ff0000"/>
     <use xlink:href="#m51758966c7" x="135.732665" y="207.590804" style="fill: #ff0000; stroke: #ff0000"/>
     <use xlink:href="#m51758966c7" x="140.062097" y="211.224114" style="fill: #ff0000; stroke: #ff0000"/>
     <use xlink:href="#m51758966c7" x="144.421827" y="214.437612" style="fill: #ff0000; stroke: #ff0000"/>
     <use xlink:href="#m51758966c7" x="148.91476" y="217.155658" style="fill: #ff0000; stroke: #ff0000"/>
     <use xlink:href="#m51758966c7" x="153.562667" y="219.3046" style="fill: #ff0000; stroke: #ff0000"/>
     <use xlink:href="#m51758966c7" x="158.292804" y="220.883704" style="fill: #ff0000; stroke: #ff0000"/>
     <use xlink:href="#m51758966c7" x="162.980296" y="222.002296" style="fill: #ff0000; stroke: #ff0000"/>
     <use xlink:href="#m51758966c7" x="167.518471" y="222.85977" style="fill: #ff0000; stroke: #ff0000"/>
     <use xlink:href="#m51758966c7" x="171.876191" y="223.678027" style="fill: #ff0000; stroke: #ff0000"/>
     <use xlink:href="#m51758966c7" x="176.113537" y="224.621457" style="fill: #ff0000; stroke: #ff0000"/>
     <use xlink:href="#m51758966c7" x="180.354045" y="225.740923" style="fill: #ff0000; stroke: #ff0000"/>
     <use xlink:href="#m51758966c7" x="184.732888" y="226.959304" style="fill: #ff0000; stroke: #ff0000"/>
     <use xlink:href="#m51758966c7" x="189.345068" y="228.094742" style="fill: #ff0000; stroke: #ff0000"/>
     <use xlink:href="#m51758966c7" x="194.210381" y="228.907793" style="fill: #ff0000; stroke: #ff0000"/>
     <use xlink:href="#m51758966c7" x="199.263002" y="229.158952" style="fill: #ff0000; stroke: #ff0000"/>
     <use xlink:href="#m51758966c7" x="204.367426" y="228.664763" style="fill: #ff0000; stroke: #ff0000"/>
     <use xlink:href="#m51758966c7" x="209.356524" y="227.338986" style="fill: #ff0000; stroke: #ff0000"/>
     <use xlink:href="#m51758966c7" x="214.078961" y="225.204765" style="fill: #ff0000; stroke: #ff0000"/>
     <use xlink:href="#m51758966c7" x="218.4365" y="222.371629" style="fill: #ff0000; stroke: #ff0000"/>
     <use xlink:href="#m51758966c7" x="222.394423" y="218.987172" style="fill: #ff0000; stroke: #ff0000"/>
     <use xlink:href="#m51758966c7" x="225.962284" y="215.186408" style="fill: #ff0000; stroke: #ff0000"/>
     <use xlink:href="#m51758966c7" x="229.158185" y="211.061139" style="fill: #ff0000; stroke: #ff0000"/>
     <use xlink:href="#m51758966c7" x="231.97617" y="206.657758" style="fill: #ff0000; stroke: #ff0000"/>
     <use xlink:href="#m51758966c7" x="234.370237" y="201.996429" style="fill: #ff0000; stroke: #ff0000"/>
     <use xlink:href="#m51758966c7" x="236.257408" y="197.097569" style="fill: #ff0000; stroke: #ff0000"/>
     <use xlink:href="#m51758966c7" x="237.534586" y="192.003764" style="fill: #ff0000; stroke: #ff0000"/>
     <use xlink:href="#m51758966c7" x="238.101933" y="186.791094" style="fill: #ff0000; stroke: #ff0000"/>
    </g>
   </g>
   <g id="matplotlib.axis_1">
    <g id="xtick_1">
     <g id="line2d_1">
      <defs>
       <path id="m91e08cf11a" d="M 0 0 
L 0 3.5 
" style="stroke: #000000; stroke-width: 0.8"/>
      </defs>
      <g>
       <use xlink:href="#m91e08cf11a" x="45" y="320.4" style="stroke: #000000; stroke-width: 0.8"/>
      </g>
     </g>
     <g id="text_1">
      <!-- −3 -->
      <g transform="translate(37.628906 334.998438)scale(0.1 -0.1)">
       <defs>
        <path id="DejaVuSans-2212" d="M 678 2272 
L 4684 2272 
L 4684 1741 
L 678 1741 
L 678 2272 
z
" transform="scale(0.015625)"/>
        <path id="DejaVuSans-33" d="M 2597 2516 
Q 3050 2419 3304 2112 
Q 3559 1806 3559 1356 
Q 3559 666 3084 287 
Q 2609 -91 1734 -91 
Q 1441 -91 1130 -33 
Q 819 25 488 141 
L 488 750 
Q 750 597 1062 519 
Q 1375 441 1716 441 
Q 2309 441 2620 675 
Q 2931 909 2931 1356 
Q 2931 1769 2642 2001 
Q 2353 2234 1838 2234 
L 1294 2234 
L 1294 2753 
L 1863 2753 
Q 2328 2753 2575 2939 
Q 2822 3125 2822 3475 
Q 2822 3834 2567 4026 
Q 2313 4219 1838 4219 
Q 1578 4219 1281 4162 
Q 984 4106 628 3988 
L 628 4550 
Q 988 4650 1302 4700 
Q 1616 4750 1894 4750 
Q 2613 4750 3031 4423 
Q 3450 4097 3450 3541 
Q 3450 3153 3228 2886 
Q 3006 2619 2597 2516 
z
" transform="scale(0.015625)"/>
       </defs>
       <use xlink:href="#DejaVuSans-2212"/>
       <use xlink:href="#DejaVuSans-33" x="83.789062"/>
      </g>
     </g>
    </g>
    <g id="xtick_2">
     <g id="line2d_2">
      <g>
       <use xlink:href="#m91e08cf11a" x="91.577629" y="320.4" style="stroke: #000000; stroke-width: 0.8"/>
      </g>
     </g>
     <g id="text_2">
      <!-- −2 -->
      <g transform="translate(84.206536 334.998438)scale(0.1 -0.1)">
       <defs>
        <path id="DejaVuSans-32" d="M 1228 531 
L 3431 531 
L 3431 0 
L 469 0 
L 469 531 
Q 828 903 1448 1529 
Q 2069 2156 2228 2338 
Q 2531 2678 2651 2914 
Q 2772 3150 2772 3378 
Q 2772 3750 2511 3984 
Q 2250 4219 1831 4219 
Q 1534 4219 1204 4116 
Q 875 4013 500 3803 
L 500 4441 
Q 881 4594 1212 4672 
Q 1544 4750 1819 4750 
Q 2544 4750 2975 4387 
Q 3406 4025 3406 3419 
Q 3406 3131 3298 2873 
Q 3191 2616 2906 2266 
Q 2828 2175 2409 1742 
Q 1991 1309 1228 531 
z
" transform="scale(0.015625)"/>
       </defs>
       <use xlink:href="#DejaVuSans-2212"/>
       <use xlink:href="#DejaVuSans-32" x="83.789062"/>
      </g>
     </g>
    </g>
    <g id="xtick_3">
     <g id="line2d_3">
      <g>
       <use xlink:href="#m91e08cf11a" x="138.155259" y="320.4" style="stroke: #000000; stroke-width: 0.8"/>
      </g>
     </g>
     <g id="text_3">
      <!-- −1 -->
      <g transform="translate(130.784165 334.998438)scale(0.1 -0.1)">
       <defs>
        <path id="DejaVuSans-31" d="M 794 531 
L 1825 531 
L 1825 4091 
L 703 3866 
L 703 4441 
L 1819 4666 
L 2450 4666 
L 2450 531 
L 3481 531 
L 3481 0 
L 794 0 
L 794 531 
z
" transform="scale(0.015625)"/>
       </defs>
       <use xlink:href="#DejaVuSans-2212"/>
       <use xlink:href="#DejaVuSans-31" x="83.789062"/>
      </g>
     </g>
    </g>
    <g id="xtick_4">
     <g id="line2d_4">
      <g>
       <use xlink:href="#m91e08cf11a" x="184.732888" y="320.4" style="stroke: #000000; stroke-width: 0.8"/>
      </g>
     </g>
     <g id="text_4">
      <!-- 0 -->
      <g transform="translate(181.551638 334.998438)scale(0.1 -0.1)">
       <defs>
        <path id="DejaVuSans-30" d="M 2034 4250 
Q 1547 4250 1301 3770 
Q 1056 3291 1056 2328 
Q 1056 1369 1301 889 
Q 1547 409 2034 409 
Q 2525 409 2770 889 
Q 3016 1369 3016 2328 
Q 3016 3291 2770 3770 
Q 2525 4250 2034 4250 
z
M 2034 4750 
Q 2819 4750 3233 4129 
Q 3647 3509 3647 2328 
Q 3647 1150 3233 529 
Q 2819 -91 2034 -91 
Q 1250 -91 836 529 
Q 422 1150 422 2328 
Q 422 3509 836 4129 
Q 1250 4750 2034 4750 
z
" transform="scale(0.015625)"/>
       </defs>
       <use xlink:href="#DejaVuSans-30"/>
      </g>
     </g>
    </g>
    <g id="xtick_5">
     <g id="line2d_5">
      <g>
       <use xlink:href="#m91e08cf11a" x="231.310518" y="320.4" style="stroke: #000000; stroke-width: 0.8"/>
      </g>
     </g>
     <g id="text_5">
      <!-- 1 -->
      <g transform="translate(228.129268 334.998438)scale(0.1 -0.1)">
       <use xlink:href="#DejaVuSans-31"/>
      </g>
     </g>
    </g>
    <g id="xtick_6">
     <g id="line2d_6">
      <g>
       <use xlink:href="#m91e08cf11a" x="277.888147" y="320.4" style="stroke: #000000; stroke-width: 0.8"/>
      </g>
     </g>
     <g id="text_6">
      <!-- 2 -->
      <g transform="translate(274.706897 334.998438)scale(0.1 -0.1)">
       <use xlink:href="#DejaVuSans-32"/>
      </g>
     </g>
    </g>
   </g>
   <g id="matplotlib.axis_2">
    <g id="ytick_1">
     <g id="line2d_7">
      <defs>
       <path id="mb4976b5bfb" d="M 0 0 
L -3.5 0 
" style="stroke: #000000; stroke-width: 0.8"/>
      </defs>
      <g>
       <use xlink:href="#mb4976b5bfb" x="45" y="320.4" style="stroke: #000000; stroke-width: 0.8"/>
      </g>
     </g>
     <g id="text_7">
      <!-- −3 -->
      <g transform="translate(23.257812 324.199219)scale(0.1 -0.1)">
       <use xlink:href="#DejaVuSans-2212"/>
       <use xlink:href="#DejaVuSans-33" x="83.789062"/>
      </g>
     </g>
    </g>
    <g id="ytick_2">
     <g id="line2d_8">
      <g>
       <use xlink:href="#mb4976b5bfb" x="45" y="274.122871" style="stroke: #000000; stroke-width: 0.8"/>
      </g>
     </g>
     <g id="text_8">
      <!-- −2 -->
      <g transform="translate(23.257812 277.92209)scale(0.1 -0.1)">
       <use xlink:href="#DejaVuSans-2212"/>
       <use xlink:href="#DejaVuSans-32" x="83.789062"/>
      </g>
     </g>
    </g>
    <g id="ytick_3">
     <g id="line2d_9">
      <g>
       <use xlink:href="#mb4976b5bfb" x="45" y="227.845743" style="stroke: #000000; stroke-width: 0.8"/>
      </g>
     </g>
     <g id="text_9">
      <!-- −1 -->
      <g transform="translate(23.257812 231.644962)scale(0.1 -0.1)">
       <use xlink:href="#DejaVuSans-2212"/>
       <use xlink:href="#DejaVuSans-31" x="83.789062"/>
      </g>
     </g>
    </g>
    <g id="ytick_4">
     <g id="line2d_10">
      <g>
       <use xlink:href="#mb4976b5bfb" x="45" y="181.568614" style="stroke: #000000; stroke-width: 0.8"/>
      </g>
     </g>
     <g id="text_10">
      <!-- 0 -->
      <g transform="translate(31.6375 185.367833)scale(0.1 -0.1)">
       <use xlink:href="#DejaVuSans-30"/>
      </g>
     </g>
    </g>
    <g id="ytick_5">
     <g id="line2d_11">
      <g>
       <use xlink:href="#mb4976b5bfb" x="45" y="135.291486" style="stroke: #000000; stroke-width: 0.8"/>
      </g>
     </g>
     <g id="text_11">
      <!-- 1 -->
      <g transform="translate(31.6375 139.090705)scale(0.1 -0.1)">
       <use xlink:href="#DejaVuSans-31"/>
      </g>
     </g>
    </g>
    <g id="ytick_6">
     <g id="line2d_12">
      <g>
       <use xlink:href="#mb4976b5bfb" x="45" y="89.014357" style="stroke: #000000; stroke-width: 0.8"/>
      </g>
     </g>
     <g id="text_12">
      <!-- 2 -->
      <g transform="translate(31.6375 92.813576)scale(0.1 -0.1)">
       <use xlink:href="#DejaVuSans-32"/>
      </g>
     </g>
    </g>
   </g>
   <g id="PathCollection_2">
    <path d="M 190.78798 206.605773 
L 190.650061 206.558264 
L 190.322204 206.445714 
L 189.856427 206.279606 
L 189.390651 206.114875 
L 189.335595 206.095492 
L 188.924875 205.949258 
L 188.459098 205.782804 
L 188.035766 205.632721 
L 187.993322 205.61761 
L 187.527546 205.45178 
L 187.06177 205.2858 
L 186.735942 205.16995 
L 186.595993 205.120125 
L 186.130217 204.954299 
L 185.664441 204.796052 
L 185.406491 204.707179 
L 185.198664 204.634831 
L 184.732888 204.444804 
L 184.267112 204.24909 
L 184.255681 204.244407 
L 183.801336 204.058275 
L 183.335559 203.867461 
L 183.126058 203.781636 
L 182.869783 203.676647 
L 182.404007 203.485832 
L 181.996445 203.318865 
L 181.93823 203.295016 
L 181.472454 203.1042 
L 181.006678 202.913386 
L 180.86683 202.856093 
L 180.540902 202.72257 
L 180.075125 202.531755 
L 179.73879 202.393322 
L 179.609349 202.336493 
L 179.143573 202.130286 
L 178.703037 201.930551 
L 178.677796 201.918496 
L 178.21202 201.694648 
L 177.746244 201.470801 
L 177.739956 201.46778 
L 177.280467 201.246962 
L 176.814691 201.023117 
L 176.77701 201.005008 
L 176.348915 200.79927 
L 175.883139 200.575422 
L 175.814088 200.542237 
L 175.417362 200.35158 
L 174.951586 200.127737 
L 174.851143 200.079466 
L 174.48581 199.903892 
L 174.020033 199.694353 
L 173.814965 199.616694 
L 173.554257 199.517966 
L 173.088481 199.341574 
L 172.622705 199.16518 
L 172.59159 199.153923 
L 172.156928 198.995524 
L 171.691152 198.858429 
L 171.225376 198.721336 
L 171.122823 198.691152 
L 170.759599 198.584245 
L 170.293823 198.480744 
L 169.828047 198.416757 
L 169.36227 198.352767 
L 168.896494 198.288784 
L 168.456813 198.228381 
L 168.430718 198.224796 
L 167.964942 198.160812 
L 167.499165 198.096826 
L 167.033389 198.032837 
L 166.567613 197.96885 
L 166.101836 197.938795 
L 165.63606 197.922933 
L 165.170284 197.907073 
L 164.704508 197.891209 
L 164.238731 197.875732 
L 163.772955 197.861959 
L 163.307179 197.850092 
L 162.841402 197.838214 
L 162.375626 197.826349 
L 161.90985 197.802628 
L 161.803595 197.765609 
L 161.444073 197.627647 
L 160.978297 197.448906 
L 160.597662 197.302838 
L 160.512521 197.270165 
L 160.046745 197.091425 
L 159.580968 196.916777 
L 159.194653 196.840067 
L 159.115192 196.819861 
L 158.649416 196.746834 
L 158.183639 196.669975 
L 157.717863 196.593108 
L 157.252087 196.516243 
L 156.786311 196.439173 
L 156.437912 196.377295 
L 156.320534 196.356653 
L 155.854758 196.072182 
L 155.59979 195.914524 
L 155.388982 195.783945 
L 154.923205 195.495921 
L 154.852007 195.451753 
L 154.457429 195.206978 
L 154.11501 194.988982 
L 153.991653 194.91074 
L 153.525876 194.586453 
L 153.483659 194.52621 
L 153.152167 194.063439 
L 153.0601 193.937892 
L 152.837261 193.600668 
L 152.594324 193.232798 
L 152.531635 193.137896 
L 152.227271 192.675125 
L 152.128548 192.524965 
L 151.92332 192.212354 
L 151.662771 191.815694 
L 151.619362 191.749583 
L 151.315515 191.286811 
L 151.196995 191.106335 
L 151.011635 190.82404 
L 150.731219 190.396984 
L 150.707768 190.361269 
L 150.386432 189.898497 
L 150.265442 189.751133 
L 149.996881 189.435726 
L 149.799666 189.204111 
L 149.602845 188.972955 
L 149.33389 188.657083 
L 149.208809 188.510184 
L 148.868114 188.110058 
L 148.814526 188.047412 
L 148.420737 187.584641 
L 148.402337 187.563032 
L 148.023283 187.12187 
L 147.936561 187.020226 
L 147.530835 186.659098 
L 147.470785 186.59241 
L 147.005008 186.206259 
L 146.993025 186.196327 
L 146.539232 185.820241 
L 146.434639 185.733556 
L 146.073456 185.434215 
L 145.87626 185.270785 
L 145.607679 185.048193 
L 145.317879 184.808013 
L 145.141903 184.662168 
L 144.759491 184.345242 
L 144.676127 184.276153 
L 144.210351 183.890121 
L 144.201119 183.882471 
L 143.744574 183.5041 
L 143.642737 183.419699 
L 143.278798 183.118078 
L 143.084354 182.956928 
L 142.813022 182.732058 
L 142.525972 182.494157 
L 142.347245 182.339465 
L 141.989007 182.031386 
L 141.881469 181.920461 
L 141.539741 181.568614 
L 141.415693 181.440896 
L 141.090263 181.105843 
L 140.949917 180.961344 
L 140.640792 180.643072 
L 140.48414 180.4802 
L 140.263622 180.180301 
L 140.018364 179.819879 
L 139.948718 179.717529 
L 139.633818 179.254758 
L 139.552588 179.135383 
L 139.318922 178.791987 
L 139.086811 178.450879 
L 139.004023 178.329215 
L 138.689122 177.866444 
L 138.621035 177.766385 
L 138.37422 177.403673 
L 138.155259 177.081886 
L 138.059325 176.940902 
L 137.744426 176.47813 
L 137.689482 176.397387 
L 137.429524 176.015359 
L 137.223706 175.712893 
L 137.114623 175.552588 
L 136.79967 175.089816 
L 136.75793 175.028505 
L 136.484595 174.627045 
L 136.292154 174.34435 
L 136.169556 174.164274 
L 135.854508 173.701503 
L 135.826377 173.660198 
L 135.539321 173.238731 
L 135.360601 172.83014 
L 135.340966 172.77596 
L 135.229824 172.313189 
L 135.11844 171.850417 
L 135.006822 171.387646 
L 134.895206 170.924875 
L 134.894825 170.923333 
L 134.780112 170.462104 
L 134.617624 169.999332 
L 134.456476 169.536561 
L 134.429048 169.464106 
L 134.29278 169.07379 
L 134.140837 168.611018 
L 133.970603 168.148247 
L 133.963272 168.127798 
L 133.819746 167.685476 
L 133.66438 167.222705 
L 133.497496 166.772849 
L 133.493146 166.759933 
L 133.35195 166.297162 
L 133.296882 165.834391 
L 133.278644 165.371619 
L 133.251122 164.908848 
L 133.270148 164.446077 
L 133.310679 163.983306 
L 133.358819 163.520534 
L 133.400857 163.057763 
L 133.497496 162.74848 
L 133.550832 162.594992 
L 133.737746 162.13222 
L 133.910014 161.669449 
L 133.963272 161.543597 
L 134.122164 161.206678 
L 134.394476 160.743907 
L 134.429048 160.685152 
L 134.666786 160.281135 
L 134.894825 159.893598 
L 134.939093 159.818364 
L 135.211395 159.355593 
L 135.360601 159.102023 
L 135.483702 158.892821 
L 135.75601 158.43005 
L 135.826377 158.310466 
L 136.038393 157.967279 
L 136.292154 157.64684 
L 136.410496 157.504508 
L 136.75793 157.086279 
L 136.79496 157.041736 
L 137.173866 156.578965 
L 137.223706 156.511727 
L 137.54132 156.116194 
L 137.689482 155.873667 
L 137.830705 155.653422 
L 138.113369 155.190651 
L 138.155259 155.124444 
L 138.406169 154.72788 
L 138.621035 154.38829 
L 138.698975 154.265109 
L 138.991777 153.802337 
L 139.086811 153.652136 
L 139.284577 153.339566 
L 139.552588 152.915974 
L 139.577377 152.876795 
L 139.870175 152.414023 
L 140.018364 152.179808 
L 140.162973 151.951252 
L 140.455777 151.488481 
L 140.48414 151.443653 
L 140.792552 151.02571 
L 140.949917 150.862601 
L 141.225859 150.562938 
L 141.415693 150.349571 
L 141.637586 150.100167 
L 141.881469 149.826049 
L 142.049316 149.637396 
L 142.347245 149.302527 
L 142.46104 149.174624 
L 142.813022 148.77901 
L 142.872772 148.711853 
L 143.278798 148.255492 
L 143.284501 148.249082 
L 143.696227 147.786311 
L 143.744574 147.73197 
L 144.047159 147.323539 
L 144.210351 147.106314 
L 144.37329 146.860768 
L 144.676127 146.404396 
L 144.680373 146.397997 
L 144.987458 145.935225 
L 145.141903 145.702484 
L 145.29455 145.472454 
L 145.60164 145.009683 
L 145.607679 145.000582 
L 145.90873 144.546912 
L 146.073456 144.298675 
L 146.274577 144.08414 
L 146.539232 143.894094 
L 147.005008 143.741268 
L 147.370429 143.621369 
L 147.470785 143.588441 
L 147.936561 143.435617 
L 148.402337 143.282789 
L 148.780844 143.158598 
L 148.868114 143.129964 
L 149.33389 142.97714 
L 149.799666 142.824317 
L 150.191283 142.695826 
L 150.265442 142.671495 
L 150.731219 142.518671 
L 151.196995 142.365843 
L 151.601703 142.233055 
L 151.662771 142.213018 
L 152.128548 142.060198 
L 152.594324 141.907375 
L 153.012145 141.770284 
L 153.0601 141.754549 
L 153.525876 141.601725 
L 153.991653 141.448897 
L 154.42257 141.307513 
L 154.457429 141.296075 
L 154.923205 141.143253 
L 155.388982 140.990422 
L 155.832972 140.844741 
L 155.854758 140.837593 
L 156.320534 140.684774 
L 156.786311 140.53195 
L 157.243405 140.38197 
L 157.252087 140.379121 
L 157.717863 140.226299 
L 158.183639 140.073474 
L 158.649416 139.920642 
L 158.653814 139.919199 
L 159.115192 139.767828 
L 159.580968 139.615003 
L 160.046745 139.462178 
L 160.064273 139.456427 
L 160.512521 139.309358 
L 160.978297 139.127483 
L 161.301653 138.993656 
L 161.444073 138.934714 
L 161.90985 138.741949 
L 162.375626 138.549181 
L 162.419833 138.530885 
L 162.841402 138.356413 
L 163.307179 138.163648 
L 163.538016 138.068114 
L 163.772955 137.97088 
L 164.238731 137.77811 
L 164.656191 137.605342 
L 164.704508 137.585346 
L 165.170284 137.392576 
L 165.63606 137.19981 
L 165.774363 137.142571 
L 166.101836 137.00704 
L 166.567613 136.814274 
L 166.923577 136.6798 
L 167.033389 136.639072 
L 167.499165 136.618065 
L 167.964942 136.624874 
L 168.430718 136.673879 
L 168.480605 136.6798 
L 168.896494 136.73059 
L 169.36227 136.789702 
L 169.828047 136.848822 
L 170.293823 136.909648 
L 170.759599 137.010114 
L 171.225376 137.111662 
L 171.378526 137.142571 
L 171.691152 137.20853 
L 172.156928 137.361767 
L 172.622705 137.589033 
L 172.655908 137.605342 
L 173.088481 137.817827 
L 173.554257 138.046632 
L 173.59799 138.068114 
L 174.020033 138.250399 
L 174.48581 138.384499 
L 174.951586 138.487171 
L 175.226896 138.530885 
L 175.417362 138.557169 
L 175.883139 138.630791 
L 176.348915 138.705287 
L 176.814691 138.779785 
L 177.280467 138.882728 
L 177.544564 138.993656 
L 177.746244 139.120925 
L 178.21202 139.414858 
L 178.298742 139.456427 
L 178.677796 139.598682 
L 179.143573 139.740826 
L 179.361484 139.919199 
L 179.609349 140.081025 
L 179.930258 140.38197 
L 180.075125 140.519469 
L 180.40704 140.844741 
L 180.540902 140.991323 
L 180.812458 141.307513 
L 181.006678 141.533661 
L 181.209897 141.770284 
L 181.472454 142.075995 
L 181.607342 142.233055 
L 181.93823 142.60248 
L 182.01905 142.695826 
L 182.404007 143.110296 
L 182.449189 143.158598 
L 182.869783 143.611712 
L 182.879639 143.621369 
L 183.322518 144.08414 
L 183.335559 144.097759 
L 183.795494 144.546912 
L 183.801336 144.551989 
L 184.267112 144.941472 
L 184.346044 145.009683 
L 184.732888 145.334723 
L 184.896807 145.472454 
L 185.198664 145.732252 
L 185.436148 145.935225 
L 185.664441 146.162941 
L 185.909645 146.397997 
L 186.130217 146.689815 
L 186.27647 146.860768 
L 186.595993 147.302811 
L 186.610977 147.323539 
L 186.945485 147.786311 
L 187.06177 147.947188 
L 187.279987 148.249082 
L 187.527546 148.591571 
L 187.614489 148.711853 
L 187.948996 149.174624 
L 187.993322 149.235945 
L 188.283495 149.637396 
L 188.459098 149.880335 
L 188.618005 150.100167 
L 188.910224 150.562938 
L 188.924875 150.591063 
L 189.151291 151.02571 
L 189.390651 151.485195 
L 189.392363 151.488481 
L 189.633436 151.951252 
L 189.856427 152.379323 
L 189.874504 152.414023 
L 190.115569 152.876795 
L 190.322204 153.211609 
L 190.395928 153.339566 
L 190.78798 153.694513 
L 190.907074 153.802337 
L 191.253756 154.116205 
L 191.418228 154.265109 
L 191.719533 154.710589 
L 191.730855 154.72788 
L 192.024581 155.190651 
L 192.185309 155.443885 
L 192.318301 155.653422 
L 192.612031 156.116194 
L 192.651085 156.180813 
L 192.898889 156.578965 
L 193.074726 157.041736 
L 193.116861 157.150934 
L 193.282461 157.504508 
L 193.488464 157.967279 
L 193.582638 158.125846 
L 193.754766 158.43005 
L 194.048414 158.829201 
L 194.095217 158.892821 
L 194.435656 159.355593 
L 194.51419 159.462561 
L 194.774845 159.818364 
L 194.979967 160.099031 
L 195.141478 160.281135 
L 195.445743 160.595957 
L 195.618308 160.743907 
L 195.911519 160.995289 
L 196.143343 161.206678 
L 196.377295 161.421407 
L 196.613896 161.669449 
L 196.843072 161.904197 
L 197.078153 162.13222 
L 197.308848 162.327986 
L 197.622985 162.594992 
L 197.774624 162.7323 
L 198.08656 163.057763 
L 198.240401 163.228657 
L 198.503152 163.520534 
L 198.706177 163.746062 
L 198.919746 163.983306 
L 199.171953 164.263474 
L 199.336337 164.446077 
L 199.63773 164.780875 
L 199.752931 164.908848 
L 200.103506 165.298286 
L 200.169521 165.371619 
L 200.569282 165.815697 
L 200.586111 165.834391 
L 201.002708 166.297162 
L 201.035058 166.333099 
L 201.419299 166.759933 
L 201.500835 166.850507 
L 201.835891 167.222705 
L 201.966611 167.3647 
L 202.256055 167.685476 
L 202.432387 167.871673 
L 202.686991 168.148247 
L 202.898164 168.370837 
L 203.126021 168.611018 
L 203.36394 168.861806 
L 203.565048 169.07379 
L 203.829716 169.352771 
L 204.004077 169.536561 
L 204.295492 169.843714 
L 204.44422 169.999332 
L 204.761269 170.33101 
L 204.886581 170.462104 
L 205.227045 170.818283 
L 205.328622 170.924875 
L 205.692821 171.30582 
L 205.770692 171.387646 
L 206.158598 171.798324 
L 206.204665 171.850417 
L 206.591514 172.313189 
L 206.624374 172.35255 
L 206.977153 172.77596 
L 207.09015 172.916287 
L 207.356851 173.238731 
L 207.555927 173.531907 
L 207.671966 173.701503 
L 207.98081 174.164274 
L 208.021703 174.225179 
L 208.289972 174.627045 
L 208.487479 174.924583 
L 208.597573 175.089816 
L 208.876062 175.552588 
L 208.953255 175.687592 
L 209.140669 176.015359 
L 209.405282 176.47813 
L 209.419032 176.502177 
L 209.669886 176.940902 
L 209.884808 177.316776 
L 209.934494 177.403673 
L 210.199099 177.866444 
L 210.350584 178.131377 
L 210.463708 178.329215 
L 210.728314 178.791987 
L 210.816361 178.945964 
L 210.992931 179.254758 
L 211.258179 179.717529 
L 211.282137 179.756019 
L 211.545406 180.180301 
L 211.747913 180.572634 
L 211.779944 180.643072 
L 211.97409 181.105843 
L 212.168232 181.568614 
L 212.213689 181.676966 
L 212.362378 182.031386 
L 212.556519 182.494157 
L 212.679466 182.787218 
L 212.750665 182.956928 
L 212.944809 183.419699 
L 213.13895 183.882471 
L 213.145242 183.89747 
L 213.333099 184.345242 
L 213.527242 184.808013 
L 213.611018 185.007712 
L 213.721384 185.270785 
L 213.91553 185.733556 
L 214.076795 186.134615 
L 214.100842 186.196327 
L 214.215235 186.659098 
L 214.329626 187.12187 
L 214.444021 187.584641 
L 214.542571 187.983323 
L 214.558413 188.047412 
L 214.672809 188.510184 
L 214.787199 188.972955 
L 214.901602 189.435726 
L 215.008347 189.867599 
L 215.015985 189.898497 
L 215.130382 190.361269 
L 215.244771 190.82404 
L 215.359166 191.286811 
L 215.401719 191.749583 
L 215.407215 192.212354 
L 215.411791 192.675125 
L 215.415658 193.137896 
L 215.434463 193.600668 
L 215.320227 194.063439 
L 215.151527 194.52621 
L 215.008347 194.896055 
L 214.969109 194.988982 
L 214.793209 195.451753 
L 214.542571 195.881498 
L 214.51362 195.914524 
L 214.076795 196.282009 
L 213.946098 196.377295 
L 213.611018 196.62159 
L 213.311357 196.840067 
L 213.145242 196.961117 
L 212.679466 197.177687 
L 212.278488 197.302838 
L 212.213689 197.332368 
L 211.747913 197.594098 
L 211.442683 197.765609 
L 211.282137 197.855822 
L 210.816361 198.117554 
L 210.619129 198.228381 
L 210.350584 198.37928 
L 209.884808 198.641014 
L 209.795582 198.691152 
L 209.419032 198.90274 
L 208.972032 199.153923 
L 208.953255 199.164474 
L 208.487479 199.426203 
L 208.148469 199.616694 
L 208.021703 199.687926 
L 207.555927 199.949659 
L 207.324917 200.079466 
L 207.09015 200.20722 
L 206.624374 200.454589 
L 206.458833 200.542237 
L 206.158598 200.696398 
L 205.692821 200.938662 
L 205.565263 201.005008 
L 205.227045 201.18092 
L 204.761269 201.423088 
L 204.675524 201.46778 
L 204.295492 201.665439 
L 203.829716 201.907274 
L 203.78487 201.930551 
L 203.36394 202.14844 
L 202.898164 202.392889 
L 202.897323 202.393322 
L 202.432387 202.633596 
L 202.005672 202.856093 
L 201.966611 202.880054 
L 201.500835 203.159508 
L 201.218295 203.318865 
L 201.035058 203.431722 
L 200.569282 203.735663 
L 200.484966 203.781636 
L 200.103506 203.986192 
L 199.63773 204.233462 
L 199.616897 204.244407 
L 199.171953 204.493484 
L 198.878241 204.707179 
L 198.706177 204.821783 
L 198.240401 205.004674 
L 197.819462 205.16995 
L 197.774624 205.187554 
L 197.308848 205.370448 
L 196.843072 205.553339 
L 196.640897 205.632721 
L 196.377295 205.73622 
L 195.911519 205.919106 
L 195.46228 206.095492 
L 195.445743 206.101986 
L 194.979967 206.284875 
L 194.51419 206.446683 
L 194.048414 206.549908 
L 194.010873 206.558264 
L 193.582638 206.651664 
L 193.116861 206.722321 
L 192.651085 206.746937 
L 192.185309 206.758114 
L 191.719533 206.739965 
L 191.253756 206.69476 
L 190.78798 206.605773 
z
" clip-path="url(#p2bd47a768d)" style="fill: none; stroke-dasharray: 5.55,2.4; stroke-dashoffset: 0; stroke: #000000; stroke-width: 1.5"/>
   </g>
   <g id="PathCollection_3">
    <path d="M 194.048414 228.818034 
L 193.779382 228.771285 
L 193.582638 228.736968 
L 193.116861 228.633917 
L 192.651085 228.530861 
L 192.185309 228.427812 
L 191.719533 228.324755 
L 191.646128 228.308514 
L 191.253756 228.221702 
L 190.78798 228.118643 
L 190.322204 228.015592 
L 189.856427 227.912542 
L 189.554511 227.845743 
L 189.390651 227.809488 
L 188.924875 227.706433 
L 188.459098 227.603376 
L 187.993322 227.500323 
L 187.527546 227.39727 
L 187.462918 227.382972 
L 187.06177 227.294219 
L 186.595993 227.191165 
L 186.130217 227.087406 
L 185.664441 226.981744 
L 185.411723 226.9202 
L 185.198664 226.867405 
L 184.732888 226.750993 
L 184.267112 226.632993 
L 183.801336 226.51499 
L 183.574125 226.457429 
L 183.335559 226.396993 
L 182.869783 226.278994 
L 182.404007 226.160992 
L 181.93823 226.042994 
L 181.747437 225.994658 
L 181.472454 225.924992 
L 181.006678 225.806992 
L 180.540902 225.688993 
L 180.075125 225.570989 
L 179.920776 225.531886 
L 179.609349 225.452992 
L 179.143573 225.334989 
L 178.677796 225.21699 
L 178.21202 225.098991 
L 178.0941 225.069115 
L 177.746244 224.980985 
L 177.280467 224.862988 
L 176.814691 224.744986 
L 176.348915 224.626986 
L 176.267435 224.606344 
L 175.883139 224.508985 
L 175.417362 224.405827 
L 174.951586 224.31828 
L 174.48581 224.237374 
L 174.020033 224.156473 
L 173.945756 224.143573 
L 173.554257 224.075576 
L 173.088481 223.994675 
L 172.622705 223.922001 
L 172.156928 223.876083 
L 171.691152 223.830157 
L 171.225376 223.812525 
L 170.759599 223.8134 
L 170.293823 223.812527 
L 169.828047 223.795455 
L 169.36227 223.768525 
L 168.896494 223.741601 
L 168.430718 223.713513 
L 167.964942 223.680861 
L 167.962991 223.680801 
L 167.499165 223.560841 
L 167.033389 223.420971 
L 166.567613 223.341231 
L 166.101836 223.26917 
L 165.63606 223.218782 
L 165.599242 223.21803 
L 165.170284 223.152234 
L 164.704508 223.057992 
L 164.238731 222.919174 
L 163.772955 222.774225 
L 163.483193 222.755259 
L 163.307179 222.710328 
L 162.841402 222.573523 
L 162.375626 222.441232 
L 161.90985 222.303141 
L 161.670227 222.292487 
L 161.444073 222.234761 
L 160.978297 222.090398 
L 160.512521 221.964117 
L 160.046745 221.836095 
L 159.857254 221.829716 
L 159.580968 221.759192 
L 159.115192 221.608492 
L 158.649416 221.487766 
L 158.183639 221.37072 
L 158.053808 221.366945 
L 157.717863 221.27659 
L 157.252087 221.127707 
L 156.786311 220.994578 
L 156.320534 220.906196 
L 156.246522 220.904174 
L 155.854758 220.789655 
L 155.388982 220.647943 
L 154.923205 220.494971 
L 154.457429 220.442164 
L 154.428181 220.441402 
L 153.991653 220.304226 
L 153.525876 220.157062 
L 153.099098 219.978631 
L 153.0601 219.957479 
L 152.594324 219.663098 
L 152.264258 219.51586 
L 152.128548 219.440446 
L 151.662771 219.163034 
L 151.426903 219.053088 
L 151.196995 218.920782 
L 150.731219 218.629956 
L 150.575913 218.590317 
L 150.265442 218.398805 
L 149.81792 218.127546 
L 149.799666 218.114201 
L 149.33389 217.724177 
L 149.225755 217.664775 
L 148.868114 217.382895 
L 148.607378 217.202003 
L 148.402337 217.044822 
L 147.940942 216.739232 
L 147.936561 216.73599 
L 147.470785 216.308513 
L 147.343717 216.276461 
L 147.005008 216.006525 
L 146.732109 215.813689 
L 146.539232 215.663769 
L 146.077727 215.350918 
L 146.073456 215.347701 
L 145.607679 214.909568 
L 145.463596 214.888147 
L 145.141903 214.629177 
L 144.858211 214.425376 
L 144.676127 214.282073 
L 144.214534 213.962604 
L 144.210351 213.959403 
L 143.744574 213.515967 
L 143.619685 213.499833 
L 143.278798 213.219356 
L 142.985474 213.037062 
L 142.813022 212.899806 
L 142.351359 212.57429 
L 142.347245 212.571098 
L 141.881469 212.123906 
L 141.843179 212.111519 
L 141.415693 211.716845 
L 141.113721 211.648748 
L 140.949917 211.517041 
L 140.48816 211.185977 
L 140.48414 211.182818 
L 140.018364 210.733255 
L 139.996006 210.723205 
L 139.552588 210.303267 
L 139.245649 210.260434 
L 139.086811 210.133825 
L 138.624998 209.797663 
L 138.621035 209.794513 
L 138.155259 209.343342 
L 138.139481 209.334891 
L 137.689482 208.902784 
L 137.511678 208.87212 
L 137.223706 208.627884 
L 136.761834 208.409349 
L 136.75793 208.406213 
L 136.292154 207.953889 
L 136.279703 207.946578 
L 135.826377 207.508326 
L 135.750175 207.483806 
L 135.360601 207.126507 
L 134.894825 207.021126 
L 134.894698 207.021035 
L 134.429048 206.565329 
L 134.417655 206.558264 
L 133.963272 206.117408 
L 133.909708 206.095492 
L 133.497496 205.708019 
L 133.03172 205.633066 
L 133.03125 205.632721 
L 132.565943 205.176818 
L 132.555356 205.16995 
L 132.100167 204.72709 
L 132.058373 204.707179 
L 131.634391 204.303418 
L 131.168614 204.244978 
L 131.167853 204.244407 
L 130.702838 203.788335 
L 130.69246 203.781636 
L 130.237062 203.341519 
L 130.131076 203.318865 
L 129.771285 203.004664 
L 129.305509 202.863792 
L 129.290504 202.856093 
L 128.839733 202.418441 
L 128.786454 202.393322 
L 128.373957 201.993776 
L 128.161494 201.930551 
L 127.90818 201.698339 
L 127.442404 201.471335 
L 127.437941 201.46778 
L 126.976628 201.013229 
L 126.965668 201.005008 
L 126.510851 200.558018 
L 126.487457 200.542237 
L 126.045075 200.109608 
L 126.013624 200.079466 
L 125.579299 199.640558 
L 125.564673 199.616694 
L 125.113523 199.16171 
L 125.107912 199.153923 
L 124.647746 198.691747 
L 124.647281 198.691152 
L 124.574848 198.228381 
L 124.18197 197.820722 
L 124.156411 197.765609 
L 123.716194 197.318785 
L 123.705756 197.302838 
L 123.250417 196.844107 
L 123.247436 196.840067 
L 123.096422 196.377295 
L 122.784641 196.039677 
L 122.748258 195.914524 
L 122.318865 195.476374 
L 122.304784 195.451753 
L 121.853088 194.995973 
L 121.848197 194.988982 
L 121.604828 194.52621 
L 121.387312 194.281501 
L 121.340275 194.063439 
L 120.921536 193.634325 
L 120.903554 193.600668 
L 120.45576 193.148214 
L 120.448737 193.137896 
L 119.989983 192.67576 
L 119.989503 192.675125 
L 119.928311 192.212354 
L 119.524207 191.795783 
L 119.502162 191.749583 
L 119.058431 191.29822 
L 119.05235 191.286811 
L 118.968336 190.82404 
L 118.592654 190.418512 
L 118.57528 190.361269 
L 118.126878 189.903623 
L 118.123874 189.898497 
L 118.07698 189.435726 
L 117.661102 189.000239 
L 117.648524 188.972955 
L 117.195326 188.51511 
L 117.191945 188.510184 
L 117.104291 188.047412 
L 116.729549 187.645473 
L 116.715696 187.584641 
L 116.618575 187.12187 
L 116.263773 186.720684 
L 116.25244 186.659098 
L 116.191119 186.196327 
L 115.797997 185.769147 
L 115.788708 185.733556 
L 115.744493 185.270785 
L 115.33222 184.831372 
L 115.324624 184.808013 
L 115.290665 184.345242 
L 114.866444 183.894581 
L 114.862318 183.882471 
L 114.84943 183.419699 
L 114.803003 182.956928 
L 114.400668 182.51703 
L 114.39536 182.494157 
L 114.383256 182.031386 
L 114.336689 181.568614 
L 113.934891 181.12632 
L 113.930061 181.105843 
L 113.919485 180.643072 
L 113.890888 180.180301 
L 113.664635 179.717529 
L 113.469115 179.431049 
L 113.45742 179.254758 
L 113.422118 178.791987 
L 113.003339 178.353448 
L 112.993594 178.329215 
L 112.943451 177.866444 
L 112.537563 177.437362 
L 112.525476 177.403673 
L 112.459991 176.940902 
L 112.071786 176.520838 
L 112.060265 176.47813 
L 112.034449 176.015359 
L 111.809707 175.552588 
L 111.60601 175.278832 
L 111.590458 175.089816 
L 111.5534 174.627045 
L 111.140234 174.183996 
L 111.134197 174.164274 
L 111.119238 173.701503 
L 111.059771 173.238731 
L 110.674457 172.813878 
L 110.666697 172.77596 
L 110.664833 172.313189 
L 110.662566 171.850417 
L 110.65975 171.387646 
L 110.656158 170.924875 
L 110.652066 170.462104 
L 110.646802 169.999332 
L 110.639011 169.536561 
L 110.626292 169.07379 
L 110.603384 168.611018 
L 110.559219 168.148247 
L 110.370364 167.685476 
L 110.220649 167.222705 
L 110.208681 167.066475 
L 110.207848 166.759933 
L 110.206354 166.297162 
L 110.204481 165.834391 
L 110.202062 165.371619 
L 110.199321 164.908848 
L 110.196127 164.446077 
L 110.19231 163.983306 
L 110.193308 163.520534 
L 110.194345 163.057763 
L 110.195424 162.594992 
L 110.196546 162.13222 
L 110.197716 161.669449 
L 110.198934 161.206678 
L 110.203556 160.743907 
L 110.208681 160.349072 
L 110.221512 160.281135 
L 110.336264 159.818364 
L 110.432865 159.355593 
L 110.515307 158.892821 
L 110.635334 158.43005 
L 110.671294 157.967279 
L 110.674457 157.883653 
L 110.797559 157.504508 
L 110.940861 157.041736 
L 111.053741 156.578965 
L 111.140234 156.142535 
L 111.14738 156.116194 
L 111.302784 155.653422 
L 111.439147 155.190651 
L 111.57649 154.72788 
L 111.60601 154.425673 
L 111.64957 154.265109 
L 111.806574 153.802337 
L 111.936391 153.339566 
L 112.06255 152.876795 
L 112.071786 152.70877 
L 112.151748 152.414023 
L 112.319527 151.951252 
L 112.498009 151.488481 
L 112.537563 151.356335 
L 112.685073 151.02571 
L 112.889373 150.562938 
L 113.003339 150.201747 
L 113.04506 150.100167 
L 113.278181 149.637396 
L 113.462527 149.174624 
L 113.469115 149.099348 
L 113.666724 148.711853 
L 113.884957 148.249082 
L 113.934891 148.090924 
L 114.13067 147.786311 
L 114.393884 147.323539 
L 114.400668 147.265617 
L 114.648698 146.860768 
L 114.863605 146.397997 
L 114.866444 146.361399 
L 115.12984 145.935225 
L 115.33222 145.544076 
L 115.379784 145.472454 
L 115.65934 145.009683 
L 115.797997 144.798811 
L 115.985641 144.546912 
L 116.263773 144.114054 
L 116.28517 144.08414 
L 116.658132 143.621369 
L 116.729549 143.430881 
L 116.924942 143.158598 
L 117.195326 142.756865 
L 117.240627 142.695826 
L 117.640794 142.233055 
L 117.661102 142.075264 
L 117.870679 141.770284 
L 118.126878 141.397452 
L 118.192029 141.307513 
L 118.582938 140.844741 
L 118.592654 140.772967 
L 118.90336 140.38197 
L 119.058431 140.134992 
L 119.220828 139.919199 
L 119.524207 139.643317 
L 119.703339 139.456427 
L 119.989983 139.192886 
L 120.22097 138.993656 
L 120.45576 138.778859 
L 120.745936 138.530885 
L 120.921536 138.371123 
L 121.279875 138.068114 
L 121.387312 137.975941 
L 121.8267 137.605342 
L 121.853088 137.583085 
L 122.318865 137.190454 
L 122.331463 137.142571 
L 122.784641 136.720255 
L 122.881847 136.6798 
L 123.250417 136.360856 
L 123.603479 136.217028 
L 123.716194 136.131845 
L 124.18197 135.755673 
L 124.183597 135.754257 
L 124.647746 135.299975 
L 124.657677 135.291486 
L 125.113523 134.846263 
L 125.131061 134.828715 
L 125.579299 134.389862 
L 125.600259 134.365943 
L 126.045075 133.929537 
L 126.068606 133.903172 
L 126.510851 133.468361 
L 126.536171 133.440401 
L 126.830293 132.977629 
L 126.976628 132.841358 
L 127.177097 132.514858 
L 127.442404 132.260978 
L 127.595257 132.052087 
L 127.90818 131.749295 
L 128.035379 131.589316 
L 128.373957 131.259716 
L 128.485114 131.126544 
L 128.839733 130.780018 
L 128.939918 130.663773 
L 129.305509 130.305593 
L 129.39762 130.201002 
L 129.771285 129.834211 
L 129.856974 129.73823 
L 130.237062 129.349197 
L 130.303547 129.275459 
L 130.702838 128.83215 
L 130.720384 128.812688 
L 131.062609 128.349917 
L 131.168614 128.245658 
L 131.408151 127.887145 
L 131.634391 127.66045 
L 132.034906 127.424374 
L 132.100167 127.359861 
L 132.565943 127.045776 
L 132.702709 126.961603 
L 133.03172 126.635412 
L 133.388858 126.498831 
L 133.497496 126.391489 
L 133.963272 126.102534 
L 134.072939 126.03606 
L 134.429048 125.68303 
L 134.733908 125.573289 
L 134.894825 125.414379 
L 135.360601 125.158583 
L 135.452769 125.110518 
L 135.826377 124.756616 
L 136.292154 124.693758 
L 136.439892 124.647746 
L 136.75793 124.367102 
L 137.223706 124.250788 
L 137.553026 124.184975 
L 137.689482 124.074604 
L 138.155259 123.815567 
L 138.621035 123.765351 
L 138.721427 123.722204 
L 139.086811 123.39374 
L 139.552588 123.323909 
L 139.729402 123.259432 
L 140.018364 122.998236 
L 140.48414 122.881914 
L 140.798746 122.796661 
L 140.949917 122.666432 
L 141.415693 122.447192 
L 141.881469 122.362513 
L 141.943189 122.33389 
L 142.347245 122.011684 
L 142.813022 121.9377 
L 142.960684 121.871119 
L 143.278798 121.580576 
L 143.744574 121.490856 
L 143.947929 121.408347 
L 144.210351 121.165612 
L 144.676127 121.042049 
L 144.955112 120.945576 
L 145.141903 120.776222 
L 145.607679 120.596412 
L 146.024933 120.482805 
L 146.073456 120.440349 
L 146.539232 120.155164 
L 147.005008 120.054428 
L 147.081458 120.020033 
L 147.470785 119.72024 
L 147.936561 119.635991 
L 148.118857 119.557262 
L 148.402337 119.302358 
L 148.868114 119.214458 
L 149.33389 119.139454 
L 149.488757 119.094491 
L 149.799666 118.876768 
L 150.265442 118.762255 
L 150.731219 118.711977 
L 151.04103 118.63172 
L 151.196995 118.485618 
L 151.662771 118.301624 
L 152.128548 118.241149 
L 152.594324 118.181789 
L 152.63793 118.168948 
L 153.0601 117.84269 
L 153.525876 117.766579 
L 153.991653 117.73501 
L 154.115629 117.706177 
L 154.457429 117.388786 
L 154.923205 117.284867 
L 155.388982 117.253722 
L 155.513428 117.243406 
L 155.854758 116.968777 
L 156.320534 116.786717 
L 156.397751 116.780634 
L 156.786311 116.53082 
L 157.117547 116.317863 
L 157.252087 116.239711 
L 157.717863 115.944908 
L 157.85504 115.855092 
L 158.183639 115.671987 
L 158.645882 115.392321 
L 158.649416 115.390004 
L 159.115192 115.064366 
L 159.308013 114.929549 
L 159.580968 114.872125 
L 160.046745 114.537806 
L 160.224331 114.466778 
L 160.512521 114.458262 
L 160.978297 114.444958 
L 161.444073 114.424383 
L 161.90985 114.360456 
L 162.327289 114.004007 
L 162.375626 113.995302 
L 162.841402 113.987658 
L 163.307179 113.974188 
L 163.772955 113.943453 
L 164.238731 113.803059 
L 164.587045 113.541235 
L 164.704508 113.529311 
L 165.170284 113.519768 
L 165.63606 113.502991 
L 166.101836 113.491455 
L 166.567613 113.46141 
L 167.033389 113.37994 
L 167.449179 113.078464 
L 167.499165 113.073091 
L 167.964942 113.066367 
L 168.430718 113.06159 
L 168.896494 113.054926 
L 169.36227 113.044979 
L 169.828047 113.028534 
L 170.293823 112.996133 
L 170.759599 112.90263 
L 171.208716 112.615693 
L 171.225376 112.614356 
L 171.259385 112.615693 
L 171.691152 112.810837 
L 172.156928 112.968943 
L 172.622705 113.017343 
L 173.088481 113.039712 
L 173.554257 113.052597 
L 174.020033 113.061619 
L 174.48581 113.072637 
L 174.516012 113.078464 
L 174.951586 113.45636 
L 175.417362 113.516434 
L 175.883139 113.532904 
L 176.105643 113.541235 
L 176.348915 113.666969 
L 176.814691 113.962079 
L 177.280467 113.991651 
L 177.746244 114.002229 
L 177.761046 114.004007 
L 178.21202 114.361172 
L 178.677796 114.446889 
L 179.143573 114.463261 
L 179.304233 114.466778 
L 179.609349 114.57668 
L 180.075125 114.890495 
L 180.540902 114.923073 
L 180.809179 114.929549 
L 181.006678 114.991769 
L 181.472454 115.250515 
L 181.93823 115.37969 
L 182.278055 115.392321 
L 182.404007 115.43306 
L 182.869783 115.578751 
L 183.335559 115.819628 
L 183.795883 115.855092 
L 183.801336 115.856923 
L 184.267112 116.021577 
L 184.732888 116.265445 
L 185.02293 116.317863 
L 185.198664 116.40072 
L 185.664441 116.582008 
L 186.130217 116.771908 
L 186.20109 116.780634 
L 186.595993 116.967629 
L 187.06177 117.136576 
L 187.35782 117.243406 
L 187.527546 117.325939 
L 187.993322 117.535653 
L 188.459098 117.69202 
L 188.498661 117.706177 
L 188.924875 117.913688 
L 189.329933 118.168948 
L 189.390651 118.217068 
L 189.856427 118.596648 
L 189.904613 118.63172 
L 190.322204 118.973808 
L 190.495967 119.094491 
L 190.78798 119.326405 
L 191.081767 119.557262 
L 191.253756 119.693565 
L 191.665703 120.020033 
L 191.719533 120.062693 
L 192.185309 120.43792 
L 192.249653 120.482805 
L 192.651085 120.800934 
L 192.8336 120.945576 
L 193.116861 121.170058 
L 193.417541 121.408347 
L 193.582638 121.535933 
L 194.048414 121.846967 
L 194.09307 121.871119 
L 194.51419 122.134362 
L 194.805719 122.33389 
L 194.979967 122.460997 
L 195.440116 122.796661 
L 195.445743 122.800814 
L 195.911519 123.171683 
L 196.017403 123.259432 
L 196.377295 123.556276 
L 196.576147 123.722204 
L 196.843072 123.944941 
L 197.130732 124.184975 
L 197.308848 124.338144 
L 197.636144 124.647746 
L 197.774624 124.782686 
L 198.05231 125.110518 
L 198.240401 125.33258 
L 198.47835 125.573289 
L 198.706177 125.802802 
L 198.932309 126.03606 
L 199.171953 126.307517 
L 199.337451 126.498831 
L 199.63773 126.845965 
L 199.737759 126.961603 
L 200.103506 127.384414 
L 200.138073 127.424374 
L 200.53829 127.887145 
L 200.569282 127.922869 
L 200.938698 128.349917 
L 201.035058 128.461308 
L 201.339016 128.812688 
L 201.500835 128.999755 
L 201.739327 129.275459 
L 201.966611 129.538201 
L 202.139642 129.73823 
L 202.432387 130.076651 
L 202.539959 130.201002 
L 202.898164 130.615094 
L 202.940273 130.663773 
L 203.340351 131.126544 
L 203.36394 131.15374 
L 203.740313 131.589316 
L 203.829716 131.692328 
L 204.140784 132.052087 
L 204.295492 132.230421 
L 204.541541 132.514858 
L 204.761269 132.768876 
L 204.941846 132.977629 
L 205.227045 133.307321 
L 205.342167 133.440401 
L 205.692821 133.845767 
L 205.742478 133.903172 
L 206.133505 134.365943 
L 206.158598 134.397685 
L 206.498887 134.828715 
L 206.624374 134.987384 
L 206.864548 135.291486 
L 207.09015 135.576649 
L 207.230473 135.754257 
L 207.555927 136.165468 
L 207.596678 136.217028 
L 207.961803 136.6798 
L 208.021703 136.75558 
L 208.326597 137.142571 
L 208.487479 137.345062 
L 208.693591 137.605342 
L 208.953255 137.93186 
L 209.06161 138.068114 
L 209.419032 138.517572 
L 209.429334 138.530885 
L 209.761733 138.993656 
L 209.884808 139.168538 
L 210.087417 139.456427 
L 210.350584 139.830373 
L 210.413096 139.919199 
L 210.73878 140.38197 
L 210.816361 140.492206 
L 211.064465 140.844741 
L 211.282137 141.154037 
L 211.390148 141.307513 
L 211.715828 141.770284 
L 211.747913 141.815875 
L 212.046997 142.233055 
L 212.213689 142.471825 
L 212.413523 142.695826 
L 212.679466 143.097189 
L 212.732175 143.158598 
L 213.132676 143.621369 
L 213.145242 143.639001 
L 213.50626 144.08414 
L 213.611018 144.221641 
L 213.860341 144.546912 
L 214.076795 144.831583 
L 214.213048 145.009683 
L 214.542571 145.443937 
L 214.564345 145.472454 
L 214.949768 145.935225 
L 215.008347 146.003928 
L 215.344353 146.397997 
L 215.474124 146.550197 
L 215.744156 146.860768 
L 215.9399 147.091158 
L 216.142958 147.323539 
L 216.405676 147.634399 
L 216.537825 147.786311 
L 216.871452 148.183283 
L 216.92842 148.249082 
L 217.288612 148.711853 
L 217.337229 148.777081 
L 217.633538 149.174624 
L 217.803005 149.401985 
L 217.978467 149.637396 
L 218.268781 150.0269 
L 218.323391 150.100167 
L 218.668318 150.562938 
L 218.734558 150.651808 
L 219.013252 151.02571 
L 219.200334 151.276708 
L 219.358176 151.488481 
L 219.66611 151.945322 
L 219.670065 151.951252 
L 219.727946 152.414023 
L 219.774641 152.876795 
L 220.081386 153.339566 
L 220.131886 153.415445 
L 220.38938 153.802337 
L 220.597663 154.115303 
L 220.697361 154.265109 
L 221.063439 154.620478 
L 221.172028 154.72788 
L 221.529215 155.074507 
L 221.648897 155.190651 
L 221.994992 155.526513 
L 222.125767 155.653422 
L 222.460768 155.97852 
L 222.602639 156.116194 
L 222.926544 156.423079 
L 223.087089 156.578965 
L 223.392321 156.854187 
L 223.59799 157.041736 
L 223.858097 157.276515 
L 224.11068 157.504508 
L 224.323873 157.696945 
L 224.623367 157.967279 
L 224.789649 158.140318 
L 225.057692 158.43005 
L 225.255426 158.665448 
L 225.446419 158.892821 
L 225.721202 159.21994 
L 225.835154 159.355593 
L 226.186978 159.774426 
L 226.223886 159.818364 
L 226.612616 160.281135 
L 226.652755 160.328919 
L 227.001343 160.743907 
L 227.118531 160.883415 
L 227.390079 161.206678 
L 227.584307 161.437899 
L 227.778815 161.669449 
L 228.050083 161.992384 
L 228.167547 162.13222 
L 228.51586 162.54687 
L 228.556282 162.594992 
L 228.945013 163.057763 
L 228.981636 163.101361 
L 229.32633 163.520534 
L 229.447412 163.673471 
L 229.690279 163.983306 
L 229.913189 164.250467 
L 230.07831 164.446077 
L 230.378965 164.802242 
L 230.468954 164.908848 
L 230.844741 165.354022 
L 230.859596 165.371619 
L 231.250238 165.834391 
L 231.310518 165.905801 
L 231.640879 166.297162 
L 231.776294 166.45758 
L 232.03152 166.759933 
L 232.24207 167.009366 
L 232.422155 167.222705 
L 232.707846 167.561144 
L 232.8128 167.685476 
L 233.173623 168.11293 
L 233.203434 168.148247 
L 233.59408 168.611018 
L 233.639399 168.664705 
L 233.984718 169.07379 
L 234.105175 169.216489 
L 234.375361 169.536561 
L 234.570952 169.815024 
L 234.69725 169.999332 
L 234.88501 170.462104 
L 235.036728 170.841445 
L 235.065732 170.924875 
L 235.255195 171.387646 
L 235.440281 171.850417 
L 235.502504 172.005988 
L 235.620447 172.313189 
L 235.797827 172.77596 
L 235.96828 173.226422 
L 235.972545 173.238731 
L 236.148051 173.701503 
L 236.323154 174.164274 
L 236.434057 174.457352 
L 236.498269 174.627045 
L 236.673375 175.089816 
L 236.848479 175.552588 
L 236.899833 175.688302 
L 237.023592 176.015359 
L 237.198702 176.47813 
L 237.365609 176.919212 
L 237.373313 176.940902 
L 237.493437 177.403673 
L 237.612131 177.866444 
L 237.799546 178.329215 
L 237.823617 178.791987 
L 237.827451 179.254758 
L 237.829557 179.717529 
L 237.830709 180.180301 
L 237.831386 180.554611 
L 237.833896 180.643072 
L 237.854591 181.105843 
L 237.868228 181.568614 
L 237.831386 181.854428 
L 237.830334 182.031386 
L 237.826339 182.494157 
L 237.816361 182.956928 
L 237.754046 183.419699 
L 237.544794 183.882471 
L 237.503129 184.345242 
L 237.461468 184.808013 
L 237.419806 185.270785 
L 237.378248 185.733556 
L 237.365609 185.877669 
L 237.364578 186.196327 
L 237.36278 186.659098 
L 237.360294 187.12187 
L 237.356638 187.584641 
L 237.350641 188.047412 
L 237.339042 188.510184 
L 237.307118 188.972955 
L 237.080125 189.435726 
L 237.043373 189.898497 
L 237.00662 190.361269 
L 236.969875 190.82404 
L 236.933116 191.286811 
L 236.899833 191.705857 
L 236.899725 191.749583 
L 236.898414 192.212354 
L 236.896711 192.675125 
L 236.894405 193.137896 
L 236.89111 193.600668 
L 236.886017 194.063439 
L 236.877076 194.52621 
L 236.857201 194.988982 
L 236.77532 195.451753 
L 236.565576 195.914524 
L 236.519121 196.377295 
L 236.434057 196.551728 
L 236.426562 196.840067 
L 236.059013 197.302838 
L 235.96828 197.484546 
L 235.961533 197.765609 
L 235.596864 198.228381 
L 235.502504 198.417352 
L 235.496398 198.691152 
L 235.134713 199.153923 
L 235.036728 199.35016 
L 235.031178 199.616694 
L 234.672574 200.079466 
L 234.570952 200.28298 
L 234.565889 200.542237 
L 234.27709 201.005008 
L 234.105175 201.29486 
L 234.100542 201.46778 
L 233.978269 201.930551 
L 233.639399 202.340729 
L 233.635149 202.393322 
L 233.559058 202.856093 
L 233.173623 203.288606 
L 233.169715 203.318865 
L 233.115181 203.781636 
L 232.707846 204.223565 
L 232.704247 204.244407 
L 232.295851 204.707179 
L 232.24207 204.782816 
L 232.225434 205.16995 
L 231.776294 205.624252 
L 231.772058 205.632721 
L 231.310518 206.095437 
L 231.31048 206.095492 
L 231.287602 206.558264 
L 230.844741 207.007399 
L 230.838398 207.021035 
L 230.378965 207.481925 
L 230.377736 207.483806 
L 230.347625 207.946578 
L 229.913189 208.388738 
L 229.904425 208.409349 
L 229.447412 208.86814 
L 229.444882 208.87212 
L 229.404178 209.334891 
L 228.981636 209.767118 
L 228.970066 209.797663 
L 228.51586 210.254016 
L 228.511899 210.260434 
L 228.454551 210.723205 
L 228.050083 211.140144 
L 228.035221 211.185977 
L 227.584307 211.638135 
L 227.576509 211.648748 
L 227.118531 212.104489 
L 227.112309 212.111519 
L 226.652755 212.568744 
L 226.647774 212.57429 
L 226.186978 213.032681 
L 226.182999 213.037062 
L 226.047364 213.499833 
L 225.721202 213.827937 
L 225.65624 213.962604 
L 225.255426 214.363231 
L 225.21438 214.425376 
L 224.789649 214.849039 
L 224.760388 214.888147 
L 224.323873 215.323128 
L 224.301628 215.350918 
L 223.858097 215.792627 
L 223.840507 215.813689 
L 223.392321 216.259857 
L 223.378044 216.276461 
L 222.926544 216.7258 
L 222.914736 216.739232 
L 222.460768 217.191066 
L 222.449357 217.202003 
L 221.994992 217.652038 
L 221.978894 217.664775 
L 221.529215 218.108926 
L 221.503987 218.127546 
L 221.063439 218.561816 
L 221.025698 218.590317 
L 220.597663 219.016696 
L 220.570968 219.053088 
L 220.131886 219.491427 
L 220.112561 219.51586 
L 219.66611 219.961106 
L 219.651592 219.978631 
L 219.200334 220.428351 
L 219.188535 220.441402 
L 218.734558 220.892122 
L 218.721975 220.904174 
L 218.268781 221.354104 
L 218.254793 221.366945 
L 217.803005 221.815269 
L 217.786508 221.829716 
L 217.337229 222.274847 
L 217.316724 222.292487 
L 216.871452 222.733459 
L 216.845505 222.755259 
L 216.405676 223.190591 
L 216.369765 223.21803 
L 215.9399 223.638849 
L 215.474124 223.672638 
L 215.461447 223.680801 
L 215.008347 224.126337 
L 214.970864 224.143573 
L 214.542571 224.55983 
L 214.076795 224.597609 
L 214.058396 224.606344 
L 213.611018 225.040265 
L 213.145242 225.060657 
L 213.122458 225.069115 
L 212.679466 225.496433 
L 212.213689 225.522575 
L 212.183883 225.531886 
L 211.747913 225.94878 
L 211.282137 225.984315 
L 211.239269 225.994658 
L 210.816361 226.392639 
L 210.350584 226.44416 
L 209.884808 226.452746 
L 209.867901 226.457429 
L 209.419032 226.883636 
L 208.953255 226.909643 
L 208.487479 226.91702 
L 208.476764 226.9202 
L 208.021703 227.354069 
L 207.555927 227.374901 
L 207.09015 227.381213 
L 207.084577 227.382972 
L 206.624374 227.82325 
L 206.158598 227.839962 
L 205.692821 227.845331 
L 205.689469 227.845743 
L 205.227045 228.249942 
L 204.761269 228.281169 
L 204.295492 228.293556 
L 203.829716 228.300201 
L 203.36394 228.304346 
L 202.898164 228.307306 
L 202.676858 228.308514 
L 202.432387 228.353674 
L 201.966611 228.439714 
L 201.500835 228.703371 
L 201.035058 228.756831 
L 200.569282 228.767304 
L 200.171583 228.771285 
L 200.103506 228.783861 
L 199.63773 228.869897 
L 199.171953 228.955933 
L 198.706177 229.001719 
L 198.240401 229.030396 
L 197.774624 229.059075 
L 197.308848 229.087753 
L 196.843072 229.116433 
L 196.377295 229.076217 
L 195.911519 229.02509 
L 195.445743 228.97396 
L 194.979967 228.922824 
L 194.51419 228.870827 
L 194.048414 228.818034 
z
" clip-path="url(#p2bd47a768d)" style="fill: none; stroke: #000000; stroke-width: 1.5"/>
   </g>
   <g id="PathCollection_4">
    <path d="M 191.253756 251.909915 
L 191.25308 251.90985 
L 190.78798 251.865744 
L 190.322204 251.821586 
L 189.856427 251.777424 
L 189.390651 251.733261 
L 188.924875 251.689102 
L 188.459098 251.629896 
L 187.993322 251.518381 
L 187.699852 251.447078 
L 187.527546 251.405179 
L 187.06177 251.291893 
L 186.595993 251.178615 
L 186.130217 251.065338 
L 185.797039 250.984307 
L 185.664441 250.952058 
L 185.198664 250.83878 
L 184.732888 250.725496 
L 184.267112 250.612218 
L 183.894261 250.521536 
L 183.801336 250.498935 
L 183.335559 250.385657 
L 182.869783 250.272379 
L 182.404007 250.159096 
L 181.991476 250.058765 
L 181.93823 250.045815 
L 181.472454 249.932538 
L 181.006678 249.819252 
L 180.540902 249.705981 
L 180.088665 249.595993 
L 180.075125 249.5927 
L 179.609349 249.479417 
L 179.143573 249.381079 
L 178.677796 249.316206 
L 178.21202 249.251328 
L 177.746244 249.198998 
L 177.280467 249.17599 
L 176.814691 249.154085 
L 176.449153 249.133222 
L 176.348915 249.127279 
L 175.883139 249.094458 
L 175.417362 249.063249 
L 174.951586 249.031099 
L 174.48581 248.938142 
L 174.020033 248.831089 
L 173.554257 248.724017 
L 173.32121 248.670451 
L 173.088481 248.616958 
L 172.622705 248.509881 
L 172.156928 248.402824 
L 171.691152 248.295756 
L 171.308019 248.207679 
L 171.225376 248.188682 
L 170.759599 248.081626 
L 170.293823 247.99073 
L 169.828047 247.906985 
L 169.36227 247.823239 
L 168.926554 247.744908 
L 168.896494 247.739504 
L 168.430718 247.655763 
L 167.964942 247.572018 
L 167.499165 247.488277 
L 167.033389 247.404534 
L 166.567613 247.320796 
L 166.352588 247.282137 
L 166.101836 247.237053 
L 165.63606 247.153311 
L 165.170284 247.069566 
L 164.704508 246.985822 
L 164.238731 246.902084 
L 163.778654 246.819366 
L 163.772955 246.818341 
L 163.307179 246.734593 
L 162.841402 246.65085 
L 162.375626 246.567116 
L 161.90985 246.483373 
L 161.444073 246.387082 
L 161.353291 246.356594 
L 160.978297 246.225252 
L 160.512521 246.062107 
L 160.046745 245.898966 
L 160.032062 245.893823 
L 159.580968 245.735824 
L 159.115192 245.572675 
L 158.710849 245.431052 
L 158.649416 245.409534 
L 158.183639 245.250162 
L 157.717863 245.11215 
L 157.252087 244.974813 
L 157.229933 244.96828 
L 156.786311 244.837474 
L 156.320534 244.700135 
L 155.854758 244.562796 
L 155.660471 244.505509 
L 155.388982 244.42546 
L 154.923205 244.288119 
L 154.457429 244.150778 
L 154.091017 244.042738 
L 153.991653 244.01344 
L 153.525876 243.876103 
L 153.0601 243.738764 
L 152.594324 243.601427 
L 152.521539 243.579967 
L 152.128548 243.46409 
L 151.662771 243.326746 
L 151.196995 243.189412 
L 150.952077 243.117195 
L 150.731219 243.052072 
L 150.265442 242.914732 
L 149.799666 242.777395 
L 149.382614 242.654424 
L 149.33389 242.640057 
L 148.868114 242.502725 
L 148.402337 242.365377 
L 147.936561 242.228036 
L 147.813159 242.191653 
L 147.470785 242.090706 
L 147.005008 241.953367 
L 146.539232 241.816029 
L 146.243682 241.728881 
L 146.073456 241.678687 
L 145.607679 241.541353 
L 145.141903 241.316385 
L 145.048043 241.26611 
L 144.676127 241.081788 
L 144.210351 240.850948 
L 144.114286 240.803339 
L 143.744574 240.620112 
L 143.278798 240.389267 
L 143.180533 240.340568 
L 142.813022 240.158432 
L 142.347245 239.927591 
L 142.24677 239.877796 
L 141.881469 239.696754 
L 141.415693 239.454276 
L 141.341587 239.415025 
L 140.949917 239.207573 
L 140.48414 238.960875 
L 140.467863 238.952254 
L 140.018364 238.714171 
L 139.594132 238.489482 
L 139.552588 238.467479 
L 139.086811 238.220772 
L 138.720411 238.026711 
L 138.621035 237.974078 
L 138.155259 237.727377 
L 137.846678 237.56394 
L 137.689482 237.480683 
L 137.223706 237.23398 
L 136.972951 237.101169 
L 136.75793 236.987283 
L 136.292154 236.740577 
L 136.099226 236.638397 
L 135.826377 236.493892 
L 135.360601 236.247197 
L 135.23738 236.175626 
L 134.894825 235.956956 
L 134.539264 235.712855 
L 134.429048 235.637188 
L 133.963272 235.317423 
L 133.865187 235.250083 
L 133.497496 234.997654 
L 133.191108 234.787312 
L 133.03172 234.677887 
L 132.565943 234.358118 
L 132.517034 234.324541 
L 132.100167 234.038352 
L 131.842959 233.86177 
L 131.634391 233.71858 
L 131.169411 233.398998 
L 131.168614 233.398451 
L 130.702838 233.077939 
L 130.496899 232.936227 
L 130.237062 232.757429 
L 129.824388 232.473456 
L 129.771285 232.436913 
L 129.305509 232.1164 
L 129.151879 232.010684 
L 128.839733 231.795889 
L 128.479369 231.547913 
L 128.373957 231.475377 
L 127.90818 231.154863 
L 127.808327 231.085142 
L 127.442404 230.806428 
L 127.210361 230.622371 
L 126.976628 230.43697 
L 126.626948 230.159599 
L 126.510851 230.06751 
L 126.045075 229.698047 
L 126.043538 229.696828 
L 125.579299 229.328897 
L 125.458904 229.234057 
L 125.113523 228.96242 
L 124.8705 228.771285 
L 124.647746 228.596094 
L 124.28208 228.308514 
L 124.18197 228.227812 
L 123.716194 227.861191 
L 123.696524 227.845743 
L 123.250417 227.485043 
L 123.12185 227.382972 
L 122.784641 227.111256 
L 122.547527 226.9202 
L 122.318865 226.735949 
L 121.973215 226.457429 
L 121.853088 226.360635 
L 121.398901 225.994658 
L 121.387312 225.98532 
L 120.921536 225.610014 
L 120.824576 225.531886 
L 120.45576 225.234705 
L 120.250257 225.069115 
L 119.989983 224.859392 
L 119.675942 224.606344 
L 119.524207 224.484078 
L 119.101628 224.143573 
L 119.058431 224.108766 
L 118.592654 223.733456 
L 118.527307 223.680801 
L 118.126878 223.358155 
L 117.952986 223.21803 
L 117.661102 222.982823 
L 117.378677 222.755259 
L 117.195326 222.607523 
L 116.804529 222.292487 
L 116.729549 222.232067 
L 116.263773 221.856503 
L 116.230556 221.829716 
L 115.797997 221.480921 
L 115.656656 221.366945 
L 115.33222 221.105322 
L 115.082768 220.904174 
L 114.866444 220.72974 
L 114.575123 220.441402 
L 114.400668 220.247807 
L 114.1655 219.978631 
L 113.934891 219.71468 
L 113.761182 219.51586 
L 113.469115 219.181562 
L 113.356871 219.053088 
L 113.003339 218.648438 
L 112.95256 218.590317 
L 112.548246 218.127546 
L 112.537563 218.115318 
L 112.143927 217.664775 
L 112.071786 217.582202 
L 111.739622 217.202003 
L 111.60601 217.04907 
L 111.318919 216.739232 
L 111.140234 216.563698 
L 110.847135 216.276461 
L 110.674457 216.107232 
L 110.374932 215.813689 
L 110.208681 215.650765 
L 109.902715 215.350918 
L 109.742905 215.1943 
L 109.430514 214.888147 
L 109.277129 214.737828 
L 108.9583 214.425376 
L 108.811352 214.281366 
L 108.486085 213.962604 
L 108.345576 213.824903 
L 108.013883 213.499833 
L 107.8798 213.368429 
L 107.541678 213.037062 
L 107.414023 212.911959 
L 107.07855 212.57429 
L 106.948247 212.429444 
L 106.685051 212.111519 
L 106.482471 211.866826 
L 106.301934 211.648748 
L 106.016694 211.304174 
L 105.918846 211.185977 
L 105.550918 210.74153 
L 105.535748 210.723205 
L 105.15264 210.260434 
L 105.085142 210.182589 
L 104.754164 209.797663 
L 104.619366 209.643648 
L 104.349125 209.334891 
L 104.153589 209.111489 
L 103.944084 208.87212 
L 103.687813 208.57932 
L 103.539048 208.409349 
L 103.222037 208.04715 
L 103.134011 207.946578 
L 102.768372 207.483806 
L 102.75626 207.467077 
L 102.423183 207.021035 
L 102.290484 206.843323 
L 102.077626 206.558264 
L 101.824708 206.21956 
L 101.732065 206.095492 
L 101.386503 205.632721 
L 101.358932 205.595798 
L 101.04095 205.16995 
L 100.893155 204.972028 
L 100.695385 204.707179 
L 100.427379 204.348256 
L 100.349836 204.244407 
L 100.004279 203.781636 
L 99.961603 203.724483 
L 99.661557 203.318865 
L 99.495826 203.095275 
L 99.322155 202.856093 
L 99.03005 202.45381 
L 98.986128 202.393322 
L 98.676429 201.930551 
L 98.564274 201.669972 
L 98.486791 201.46778 
L 98.309453 201.005008 
L 98.125656 200.542237 
L 98.098497 200.477125 
L 97.928376 200.079466 
L 97.730399 199.616694 
L 97.632721 199.388377 
L 97.532418 199.153923 
L 97.334448 198.691152 
L 97.166945 198.299637 
L 97.13646 198.228381 
L 96.938491 197.765609 
L 96.740512 197.302838 
L 96.701169 197.210872 
L 96.542538 196.840067 
L 96.344439 196.377295 
L 96.235392 196.122801 
L 96.14602 195.914524 
L 95.94743 195.451753 
L 95.769616 195.037375 
L 95.74885 194.988982 
L 95.550255 194.52621 
L 95.351683 194.063439 
L 95.30384 193.951947 
L 95.153097 193.600668 
L 94.954515 193.137896 
L 94.838063 192.866532 
L 94.755926 192.675125 
L 94.557341 192.212354 
L 94.372287 191.781103 
L 94.358761 191.749583 
L 94.155734 191.286811 
L 93.938664 190.82404 
L 93.906511 190.755491 
L 93.721594 190.361269 
L 93.504521 189.898497 
L 93.440735 189.762509 
L 93.287455 189.435726 
L 93.070385 188.972955 
L 92.974958 188.764628 
L 92.860914 188.510184 
L 92.687639 188.047412 
L 92.514369 187.584641 
L 92.509182 187.571526 
L 92.329063 187.12187 
L 92.126587 186.659098 
L 92.043406 186.486202 
L 91.897635 186.196327 
L 91.623519 185.733556 
L 91.577629 185.656083 
L 91.349405 185.270785 
L 91.111853 184.869754 
L 91.075282 184.808013 
L 90.801173 184.345242 
L 90.646077 184.0834 
L 90.527059 183.882471 
L 90.252939 183.419699 
L 90.180301 183.297071 
L 89.978825 182.956928 
L 89.714524 182.510721 
L 89.704713 182.494157 
L 89.430598 182.031386 
L 89.248748 181.723627 
L 89.157021 181.568614 
L 88.931124 181.105843 
L 88.782972 180.802211 
L 88.705322 180.643072 
L 88.528895 180.180301 
L 88.368083 179.717529 
L 88.317195 179.571086 
L 88.213322 179.254758 
L 88.185819 178.791987 
L 88.167921 178.329215 
L 88.150018 177.866444 
L 88.132125 177.403673 
L 88.114221 176.940902 
L 88.09547 176.47813 
L 88.075866 176.015359 
L 88.056266 175.552588 
L 88.036657 175.089816 
L 88.017061 174.627045 
L 87.997451 174.164274 
L 87.97785 173.701503 
L 87.958245 173.238731 
L 87.938637 172.77596 
L 87.919035 172.313189 
L 87.899432 171.850417 
L 87.879835 171.387646 
L 87.860234 170.924875 
L 87.851419 170.716793 
L 87.84063 170.462104 
L 87.821024 169.999332 
L 87.80143 169.536561 
L 87.781819 169.07379 
L 87.762222 168.611018 
L 87.742621 168.148247 
L 87.723022 167.685476 
L 87.703413 167.222705 
L 87.683812 166.759933 
L 87.664209 166.297162 
L 87.644604 165.834391 
L 87.625007 165.371619 
L 87.605398 164.908848 
L 87.585802 164.446077 
L 87.566192 163.983306 
L 87.546591 163.520534 
L 87.532061 163.057763 
L 87.540825 162.594992 
L 87.575179 162.13222 
L 87.633201 161.669449 
L 87.691225 161.206678 
L 87.749243 160.743907 
L 87.807263 160.281135 
L 87.851419 159.928992 
L 87.865291 159.818364 
L 87.923314 159.355593 
L 87.981329 158.892821 
L 88.039361 158.43005 
L 88.091732 157.967279 
L 88.131968 157.504508 
L 88.172202 157.041736 
L 88.212242 156.578965 
L 88.251698 156.116194 
L 88.290755 155.653422 
L 88.317195 155.340115 
L 88.329808 155.190651 
L 88.368851 154.72788 
L 88.4079 154.265109 
L 88.446964 153.802337 
L 88.486011 153.339566 
L 88.52506 152.876795 
L 88.605359 152.414023 
L 88.730593 151.951252 
L 88.782972 151.757693 
L 88.855824 151.488481 
L 88.98106 151.02571 
L 89.106298 150.562938 
L 89.231528 150.100167 
L 89.248748 150.03654 
L 89.356771 149.637396 
L 89.482003 149.174624 
L 89.607236 148.711853 
L 89.714524 148.303905 
L 89.728809 148.249082 
L 89.848003 147.786311 
L 89.96719 147.323539 
L 90.086384 146.860768 
L 90.180301 146.496137 
L 90.205578 146.397997 
L 90.324782 145.935225 
L 90.443966 145.472454 
L 90.563158 145.009683 
L 90.646077 144.687759 
L 90.682355 144.546912 
L 90.801549 144.08414 
L 90.920737 143.621369 
L 91.039928 143.158598 
L 91.111853 142.879337 
L 91.159116 142.695826 
L 91.278308 142.233055 
L 91.397502 141.770284 
L 91.523551 141.307513 
L 91.577629 141.194886 
L 91.763511 140.844741 
L 92.009165 140.38197 
L 92.043406 140.317467 
L 92.254826 139.919199 
L 92.500481 139.456427 
L 92.509182 139.440037 
L 92.746152 138.993656 
L 92.974958 138.562629 
L 92.99181 138.530885 
L 93.237476 138.068114 
L 93.440735 137.685236 
L 93.483147 137.605342 
L 93.720241 137.142571 
L 93.906511 136.769501 
L 93.951297 136.6798 
L 94.181596 136.217028 
L 94.372287 135.828406 
L 94.408457 135.754257 
L 94.656455 135.291486 
L 94.838063 135.020958 
L 94.968293 134.828715 
L 95.281787 134.365943 
L 95.30384 134.33339 
L 95.595275 133.903172 
L 95.769616 133.645809 
L 95.908763 133.440401 
L 96.222254 132.977629 
L 96.235392 132.958234 
L 96.539717 132.514858 
L 96.701169 132.300396 
L 96.88621 132.052087 
L 97.166945 131.664618 
L 97.221261 131.589316 
L 97.555072 131.126544 
L 97.632721 131.0041 
L 97.832415 130.663773 
L 98.098497 130.203031 
L 98.099669 130.201002 
L 98.366924 129.73823 
L 98.564274 129.396508 
L 98.634181 129.275459 
L 98.901433 128.812688 
L 99.03005 128.589975 
L 99.168686 128.349917 
L 99.435948 127.887145 
L 99.495826 127.783464 
L 99.703208 127.424374 
L 99.961603 126.976946 
L 99.970464 126.961603 
L 100.237723 126.498831 
L 100.427379 126.170422 
L 100.504974 126.03606 
L 100.772223 125.573289 
L 100.893155 125.363889 
L 101.039483 125.110518 
L 101.306744 124.647746 
L 101.358932 124.557383 
L 101.574002 124.184975 
L 101.824708 123.797753 
L 101.881099 123.722204 
L 102.232951 123.259432 
L 102.290484 123.183763 
L 102.584814 122.796661 
L 102.75626 122.605423 
L 103.04261 122.33389 
L 103.222037 122.175794 
L 103.567816 121.871119 
L 103.687813 121.765385 
L 104.093016 121.408347 
L 104.153589 121.354976 
L 104.618238 120.945576 
L 104.619366 120.944582 
L 105.085142 120.534166 
L 105.143434 120.482805 
L 105.550918 120.123762 
L 105.668643 120.020033 
L 106.016694 119.713354 
L 106.193844 119.557262 
L 106.482471 119.302941 
L 106.71904 119.094491 
L 106.948247 118.892532 
L 107.244244 118.63172 
L 107.414023 118.482122 
L 107.769447 118.168948 
L 107.8798 118.071715 
L 108.294648 117.706177 
L 108.345576 117.66121 
L 108.769666 117.243406 
L 108.811352 117.198152 
L 109.195972 116.780634 
L 109.277129 116.692543 
L 109.622291 116.317863 
L 109.742905 116.186933 
L 110.048604 115.855092 
L 110.208681 115.681334 
L 110.474934 115.392321 
L 110.674457 115.175733 
L 110.901255 114.929549 
L 111.140234 114.671977 
L 111.333732 114.466778 
L 111.60601 114.195353 
L 111.795917 114.004007 
L 112.071786 113.70557 
L 112.242525 113.541235 
L 112.537563 113.31176 
L 112.84657 113.078464 
L 113.003339 112.960113 
L 113.459544 112.615693 
L 113.469115 112.608466 
L 113.934891 112.256818 
L 114.072508 112.152922 
L 114.400668 111.905169 
L 114.685472 111.69015 
L 114.866444 111.553522 
L 115.298434 111.227379 
L 115.33222 111.201872 
L 115.797997 110.85022 
L 115.911397 110.764608 
L 116.263773 110.498573 
L 116.524358 110.301836 
L 116.729549 110.146925 
L 117.13733 109.839065 
L 117.195326 109.795281 
L 117.661102 109.443629 
L 117.750288 109.376294 
L 118.126878 109.091976 
L 118.363255 108.913523 
L 118.592654 108.740335 
L 118.97622 108.450751 
L 119.058431 108.388684 
L 119.524207 108.037039 
L 119.58919 107.98798 
L 119.989983 107.685389 
L 120.202155 107.525209 
L 120.45576 107.333742 
L 120.815117 107.062437 
L 120.921536 106.982094 
L 121.387312 106.630446 
L 121.42808 106.599666 
L 121.853088 106.278794 
L 122.041043 106.136895 
L 122.318865 105.927143 
L 122.653999 105.674124 
L 122.784641 105.575493 
L 123.250417 105.22386 
L 123.266985 105.211352 
L 123.716194 104.8722 
L 123.894562 104.748581 
L 124.18197 104.575532 
L 124.647746 104.386157 
L 124.894567 104.28581 
L 125.113523 104.19679 
L 125.579299 104.007419 
L 126.032785 103.823038 
L 126.045075 103.818041 
L 126.510851 103.62868 
L 126.976628 103.439313 
L 127.17105 103.360267 
L 127.442404 103.249943 
L 127.90818 103.060576 
L 128.309281 102.897496 
L 128.373957 102.8712 
L 128.839733 102.68183 
L 129.305509 102.492453 
L 129.447498 102.434725 
L 129.771285 102.301319 
L 130.237062 102.10329 
L 130.543997 101.971953 
L 130.702838 101.903986 
L 131.168614 101.704698 
L 131.625543 101.509182 
L 131.634391 101.505396 
L 132.100167 101.306105 
L 132.565943 101.106804 
L 132.70709 101.046411 
L 133.03172 100.90751 
L 133.497496 100.70822 
L 133.788656 100.583639 
L 133.963272 100.508873 
L 134.429048 100.309545 
L 134.870183 100.120868 
L 134.894825 100.110203 
L 135.360601 99.908565 
L 135.826377 99.707084 
L 135.93968 99.658097 
L 136.292154 99.505565 
L 136.75793 99.304003 
L 137.00907 99.195326 
L 137.223706 99.102446 
L 137.689482 98.900892 
L 138.078468 98.732554 
L 138.155259 98.699323 
L 138.621035 98.497763 
L 139.086811 98.296206 
L 139.147869 98.269783 
L 139.552588 98.094643 
L 140.018364 97.893084 
L 140.217275 97.807012 
L 140.48414 97.691533 
L 140.949917 97.489967 
L 141.28667 97.34424 
L 141.415693 97.288407 
L 141.881469 97.086848 
L 142.347245 96.885283 
L 142.35606 96.881469 
L 142.813022 96.683732 
L 143.278798 96.482159 
L 143.425446 96.418698 
L 143.744574 96.2806 
L 144.210351 96.079043 
L 144.494859 95.955927 
L 144.676127 95.877483 
L 145.141903 95.675928 
L 145.567954 95.493155 
L 145.607679 95.477271 
L 146.073456 95.332527 
L 146.539232 95.187792 
L 147.005008 95.043056 
L 147.04579 95.030384 
L 147.470785 94.898325 
L 147.936561 94.753587 
L 148.402337 94.608847 
L 148.535037 94.567613 
L 148.868114 94.464117 
L 149.33389 94.319382 
L 149.799666 94.174649 
L 150.024313 94.104841 
L 150.265442 94.029913 
L 150.731219 93.88482 
L 151.196995 93.729501 
L 151.448822 93.64207 
L 151.662771 93.56779 
L 152.128548 93.406094 
L 152.594324 93.244397 
L 152.781831 93.179299 
L 153.0601 93.082688 
L 153.525876 92.920985 
L 153.991653 92.759271 
L 154.114771 92.716528 
L 154.457429 92.597567 
L 154.923205 92.435868 
L 155.388982 92.27416 
L 155.447754 92.253756 
L 155.854758 92.112459 
L 156.320534 91.95076 
L 156.780736 91.790985 
L 156.786311 91.78905 
L 157.252087 91.627352 
L 157.717863 91.470897 
L 158.183639 91.346046 
L 158.250162 91.328214 
L 158.649416 91.221185 
L 159.115192 91.096331 
L 159.580968 90.971474 
L 159.976524 90.865442 
L 160.046745 90.846619 
L 160.512521 90.721764 
L 160.978297 90.596903 
L 161.444073 90.472045 
L 161.702866 90.402671 
L 161.90985 90.347186 
L 162.375626 90.222322 
L 162.841402 90.096982 
L 163.307179 89.953157 
L 163.350032 89.9399 
L 163.772955 89.808655 
L 164.238731 89.675758 
L 164.704508 89.604653 
L 165.170284 89.535375 
L 165.63606 89.489644 
L 165.801034 89.477129 
L 166.101836 89.454309 
L 166.567613 89.418962 
L 167.033389 89.383626 
L 167.499165 89.348282 
L 167.964942 89.312943 
L 168.430718 89.277603 
L 168.896494 89.242261 
L 169.36227 89.206922 
L 169.828047 89.171584 
L 170.293823 89.136243 
L 170.759599 89.10543 
L 171.225376 89.101631 
L 171.691152 89.097826 
L 172.156928 89.094015 
L 172.622705 89.090212 
L 173.088481 89.086396 
L 173.554257 89.0826 
L 174.020033 89.078797 
L 174.48581 89.074984 
L 174.951586 89.071176 
L 175.417362 89.093125 
L 175.883139 89.162062 
L 176.348915 89.230992 
L 176.814691 89.299922 
L 177.280467 89.399603 
L 177.553335 89.477129 
L 177.746244 89.531935 
L 178.21202 89.664265 
L 178.677796 89.796601 
L 179.101699 89.9399 
L 179.143573 89.954648 
L 179.609349 90.119925 
L 180.075125 90.285207 
L 180.406142 90.402671 
L 180.540902 90.450491 
L 181.006678 90.615773 
L 181.472454 90.781059 
L 181.710259 90.865442 
L 181.93823 90.946339 
L 182.404007 91.111615 
L 182.869783 91.276904 
L 183.014376 91.328214 
L 183.335559 91.442186 
L 183.801336 91.606949 
L 184.267112 91.759517 
L 184.364981 91.790985 
L 184.732888 91.909275 
L 185.198664 92.059025 
L 185.664441 92.208788 
L 185.804322 92.253756 
L 186.130217 92.358526 
L 186.595993 92.508297 
L 187.06177 92.658053 
L 187.243647 92.716528 
L 187.527546 92.807801 
L 187.993322 92.95756 
L 188.459098 93.107312 
L 188.68299 93.179299 
L 188.924875 93.25707 
L 189.390651 93.406821 
L 189.856427 93.556575 
L 190.122351 93.64207 
L 190.322204 93.706325 
L 190.78798 93.856087 
L 191.253756 94.005843 
L 191.561655 94.104841 
L 191.719533 94.155604 
L 192.185309 94.305348 
L 192.651085 94.455113 
L 193.000997 94.567613 
L 193.116861 94.604863 
L 193.582638 94.754478 
L 194.048414 94.886104 
L 194.51419 95.011738 
L 194.583237 95.030384 
L 194.979967 95.137523 
L 195.445743 95.263317 
L 195.911519 95.389104 
L 196.296807 95.493155 
L 196.377295 95.514892 
L 196.843072 95.640682 
L 197.308848 95.766477 
L 197.773716 95.955927 
L 197.774624 95.95631 
L 198.240401 96.15429 
L 198.706177 96.37874 
L 198.774191 96.418698 
L 199.171953 96.652214 
L 199.546796 96.881469 
L 199.63773 96.945004 
L 200.054716 97.34424 
L 200.103506 97.390953 
L 200.538045 97.807012 
L 200.569282 97.83692 
L 201.021383 98.269783 
L 201.035058 98.282876 
L 201.500835 98.728839 
L 201.504715 98.732554 
L 201.966611 99.174802 
L 201.988046 99.195326 
L 202.432387 99.620765 
L 202.471378 99.658097 
L 202.898164 100.066718 
L 202.954718 100.120868 
L 203.36394 100.512689 
L 203.438043 100.583639 
L 203.829716 100.958646 
L 203.921381 101.046411 
L 204.295492 101.405783 
L 204.388418 101.509182 
L 204.761269 101.950129 
L 204.779723 101.971953 
L 205.186237 102.434725 
L 205.227045 102.47813 
L 205.692821 102.892479 
L 205.698461 102.897496 
L 206.158598 103.306849 
L 206.218647 103.360267 
L 206.624374 103.720963 
L 206.74518 103.823038 
L 207.09015 104.107306 
L 207.30678 104.28581 
L 207.555927 104.491114 
L 207.868378 104.748581 
L 208.021703 104.874925 
L 208.457773 105.211352 
L 208.487479 105.233946 
L 208.953255 105.587841 
L 209.066817 105.674124 
L 209.419032 105.941733 
L 209.67589 106.136895 
L 209.884808 106.295633 
L 210.335024 106.599666 
L 210.350584 106.609186 
L 210.816361 106.888741 
L 211.106343 107.062437 
L 211.282137 107.166104 
L 211.747913 107.435094 
L 211.903958 107.525209 
L 212.213689 107.704078 
L 212.679466 107.973526 
L 212.702241 107.98798 
L 213.145242 108.28931 
L 213.382578 108.450751 
L 213.611018 108.606142 
L 214.06292 108.913523 
L 214.076795 108.924514 
L 214.527813 109.376294 
L 214.542571 109.391719 
L 214.97058 109.839065 
L 215.008347 109.878538 
L 215.413342 110.301836 
L 215.474124 110.366666 
L 215.840272 110.764608 
L 215.9399 110.87347 
L 216.263791 111.227379 
L 216.405676 111.382413 
L 216.687305 111.69015 
L 216.871452 111.891369 
L 217.110821 112.152922 
L 217.337229 112.400307 
L 217.534342 112.615693 
L 217.803005 112.909259 
L 217.957859 113.078464 
L 218.268781 113.418207 
L 218.381373 113.541235 
L 218.734558 113.927149 
L 218.804897 114.004007 
L 219.200334 114.436102 
L 219.228407 114.466778 
L 219.651925 114.929549 
L 219.66611 114.945133 
L 220.060342 115.392321 
L 220.131886 115.479436 
L 220.436886 115.855092 
L 220.597663 116.058049 
L 220.797547 116.317863 
L 221.063439 116.663473 
L 221.153576 116.780634 
L 221.509551 117.243406 
L 221.529215 117.269174 
L 221.862878 117.706177 
L 221.994992 117.87933 
L 222.215968 118.168948 
L 222.460768 118.489803 
L 222.569046 118.63172 
L 222.922149 119.094491 
L 222.926544 119.100251 
L 223.27523 119.557262 
L 223.392321 119.710725 
L 223.628327 120.020033 
L 223.858097 120.321177 
L 223.981415 120.482805 
L 224.323873 120.931633 
L 224.334511 120.945576 
L 224.687597 121.408347 
L 224.789649 121.542105 
L 225.040683 121.871119 
L 225.255426 122.152566 
L 225.393772 122.33389 
L 225.721202 122.763037 
L 225.746857 122.796661 
L 226.099942 123.259432 
L 226.186978 123.373506 
L 226.45304 123.722204 
L 226.652755 123.983962 
L 226.806119 124.184975 
L 227.118531 124.594444 
L 227.159199 124.647746 
L 227.512303 125.110518 
L 227.584307 125.20489 
L 227.86539 125.573289 
L 228.050083 125.815351 
L 228.218485 126.03606 
L 228.51586 126.425809 
L 228.571446 126.498831 
L 228.924147 126.961603 
L 228.981636 127.036945 
L 229.276396 127.424374 
L 229.447412 127.649149 
L 229.628486 127.887145 
L 229.913189 128.261358 
L 229.980565 128.349917 
L 230.333837 128.812688 
L 230.378965 128.871124 
L 230.691214 129.275459 
L 230.844741 129.474268 
L 231.048581 129.73823 
L 231.310518 130.077411 
L 231.405963 130.201002 
L 231.763341 130.663773 
L 231.776294 130.680545 
L 232.120717 131.126544 
L 232.24207 131.282997 
L 232.479967 131.589316 
L 232.707846 131.881611 
L 232.840751 132.052087 
L 233.173623 132.47906 
L 233.201531 132.514858 
L 233.583967 132.977629 
L 233.639399 133.039272 
L 234.000095 133.440401 
L 234.105175 133.557257 
L 234.416238 133.903172 
L 234.570952 134.075225 
L 234.832364 134.365943 
L 235.036728 134.593207 
L 235.24851 134.828715 
L 235.502504 135.111166 
L 235.664653 135.291486 
L 235.96828 135.629152 
L 236.080779 135.754257 
L 236.434057 136.147109 
L 236.496932 136.217028 
L 236.899833 136.665083 
L 236.913066 136.6798 
L 237.329211 137.142571 
L 237.365609 137.183047 
L 237.745344 137.605342 
L 237.831386 137.701023 
L 238.161501 138.068114 
L 238.297162 138.218978 
L 238.577631 138.530885 
L 238.762938 138.736951 
L 238.993782 138.993656 
L 239.228715 139.254929 
L 239.409905 139.456427 
L 239.694491 139.772897 
L 239.826053 139.919199 
L 240.160267 140.291663 
L 240.256136 140.38197 
L 240.626043 140.728361 
L 240.750323 140.844741 
L 241.09182 141.153203 
L 241.263875 141.307513 
L 241.557596 141.561009 
L 241.800076 141.770284 
L 242.023372 141.963007 
L 242.336275 142.233055 
L 242.489149 142.36499 
L 242.872484 142.695826 
L 242.954925 142.766978 
L 243.408677 143.158598 
L 243.420701 143.168976 
L 243.886477 143.570961 
L 243.944883 143.621369 
L 244.352254 143.972944 
L 244.481095 144.08414 
L 244.81803 144.374936 
L 245.017295 144.546912 
L 245.283806 144.776923 
L 245.553506 145.009683 
L 245.749583 145.178907 
L 246.030993 145.472454 
L 246.215359 145.77628 
L 246.305415 145.935225 
L 246.567633 146.397997 
L 246.681135 146.598311 
L 246.83893 146.860768 
L 247.146912 147.192287 
L 247.272527 147.323539 
L 247.612688 147.721825 
L 247.661481 147.786311 
L 247.988375 148.249082 
L 248.078464 148.378025 
L 248.311698 148.711853 
L 248.54424 149.122186 
L 248.572726 149.174624 
L 248.805605 149.637396 
L 249.010017 149.98133 
L 249.09125 150.100167 
L 249.475483 150.562938 
L 249.475793 150.563312 
L 249.859713 151.02571 
L 249.941569 151.1243 
L 250.24394 151.488481 
L 250.407346 151.685291 
L 250.628164 151.951252 
L 250.873122 152.246283 
L 251.012391 152.414023 
L 251.338898 152.807279 
L 251.396615 152.876795 
L 251.77926 153.339566 
L 251.804674 153.386816 
L 252.022017 153.802337 
L 252.204072 154.265109 
L 252.270451 154.433836 
L 252.38613 154.72788 
L 252.567943 155.190651 
L 252.736227 155.623194 
L 252.74799 155.653422 
L 252.927943 156.116194 
L 253.107906 156.578965 
L 253.202003 156.820927 
L 253.287879 157.041736 
L 253.467844 157.504508 
L 253.647804 157.967279 
L 253.66778 158.018643 
L 253.827774 158.43005 
L 254.057253 158.892821 
L 254.133556 159.00978 
L 254.359159 159.355593 
L 254.599332 159.723747 
L 254.660482 159.818364 
L 254.957278 160.281135 
L 255.065109 160.449322 
L 255.251007 160.743907 
L 255.500806 161.206678 
L 255.530885 161.264884 
L 255.739951 161.669449 
L 255.97908 162.13222 
L 255.996661 162.166242 
L 256.218222 162.594992 
L 256.462437 163.049469 
L 256.466847 163.057763 
L 256.73743 163.520534 
L 256.928214 163.846816 
L 257.004482 163.983306 
L 257.225953 164.446077 
L 257.39399 164.804257 
L 257.443058 164.908848 
L 257.660164 165.371619 
L 257.859766 165.797075 
L 257.877273 165.834391 
L 258.094379 166.297162 
L 258.311493 166.759933 
L 258.325543 166.78988 
L 258.528593 167.222705 
L 258.745705 167.685476 
L 258.791319 167.782707 
L 258.962806 168.148247 
L 259.179916 168.611018 
L 259.257095 168.775528 
L 259.397021 169.07379 
L 259.614135 169.536561 
L 259.722871 169.873089 
L 259.763598 169.999332 
L 259.893782 170.462104 
L 260.023959 170.924875 
L 260.154147 171.387646 
L 260.188648 171.51029 
L 260.28433 171.850417 
L 260.414512 172.313189 
L 260.544695 172.77596 
L 260.654424 173.166015 
L 260.67488 173.238731 
L 260.805063 173.701503 
L 260.935241 174.164274 
L 261.065424 174.627045 
L 261.1202 174.821768 
L 261.195605 175.089816 
L 261.325791 175.552588 
L 261.455976 176.015359 
L 261.585977 176.47749 
L 261.586157 176.47813 
L 261.709005 176.940902 
L 261.752198 177.403673 
L 261.795399 177.866444 
L 261.838586 178.329215 
L 261.881784 178.791987 
L 261.924977 179.254758 
L 261.968168 179.717529 
L 262.012321 180.180301 
L 262.051753 180.613099 
L 262.05455 180.643072 
L 262.104007 181.105843 
L 262.155491 181.568614 
L 262.153874 182.031386 
L 262.098966 182.494157 
L 262.051753 182.893644 
L 262.044274 182.956928 
L 261.989567 183.419699 
L 261.934866 183.882471 
L 261.889263 184.345242 
L 261.854638 184.808013 
L 261.820008 185.270785 
L 261.785384 185.733556 
L 261.750751 186.196327 
L 261.716129 186.659098 
L 261.681503 187.12187 
L 261.646873 187.584641 
L 261.612244 188.047412 
L 261.585977 188.398462 
L 261.577617 188.510184 
L 261.542987 188.972955 
L 261.508357 189.435726 
L 261.473733 189.898497 
L 261.439106 190.361269 
L 261.404476 190.82404 
L 261.372591 191.286811 
L 261.342749 191.749583 
L 261.312907 192.212354 
L 261.28306 192.675125 
L 261.253214 193.137896 
L 261.223372 193.600668 
L 261.193531 194.063439 
L 261.163679 194.52621 
L 261.133833 194.988982 
L 261.1202 195.20036 
L 261.103987 195.451753 
L 261.074139 195.914524 
L 261.044297 196.377295 
L 261.014455 196.840067 
L 260.984612 197.302838 
L 260.954761 197.765609 
L 260.924918 198.228381 
L 260.895074 198.691152 
L 260.865226 199.153923 
L 260.725966 199.616694 
L 260.654424 199.780114 
L 260.523375 200.079466 
L 260.320798 200.542237 
L 260.188648 200.845846 
L 260.119198 201.005008 
L 259.923316 201.46778 
L 259.728549 201.930551 
L 259.722871 201.94404 
L 259.53378 202.393322 
L 259.339013 202.856093 
L 259.257095 203.050731 
L 259.144246 203.318865 
L 258.949479 203.781636 
L 258.791319 204.15744 
L 258.754717 204.244407 
L 258.559947 204.707179 
L 258.365867 205.16995 
L 258.325543 205.264197 
L 258.170509 205.632721 
L 257.98016 206.095492 
L 257.859766 206.385214 
L 257.789085 206.558264 
L 257.599055 207.021035 
L 257.411504 207.483806 
L 257.39399 207.527019 
L 257.223944 207.946578 
L 257.036384 208.409349 
L 256.928214 208.676246 
L 256.848827 208.87212 
L 256.661267 209.334891 
L 256.473717 209.797663 
L 256.462437 209.825494 
L 256.286156 210.260434 
L 256.098595 210.723205 
L 255.996661 210.974726 
L 255.911046 211.185977 
L 255.723489 211.648748 
L 255.535922 212.111519 
L 255.530885 212.123947 
L 255.348368 212.57429 
L 255.160815 213.037062 
L 255.065109 213.273196 
L 254.973252 213.499833 
L 254.785695 213.962604 
L 254.599332 214.42243 
L 254.598138 214.425376 
L 254.405949 214.888147 
L 254.139932 215.350918 
L 254.133556 215.361411 
L 253.858736 215.813689 
L 253.66778 216.127956 
L 253.577543 216.276461 
L 253.296346 216.739232 
L 253.202003 216.894495 
L 253.01515 217.202003 
L 252.736227 217.661022 
L 252.733947 217.664775 
L 252.452749 218.127546 
L 252.270451 218.427554 
L 252.171548 218.590317 
L 251.890357 219.053088 
L 251.804674 219.194097 
L 251.609158 219.51586 
L 251.338898 219.960644 
L 251.327969 219.978631 
L 251.046768 220.441402 
L 250.873122 220.727177 
L 250.765572 220.904174 
L 250.484369 221.366945 
L 250.407346 221.48681 
L 250.187254 221.829716 
L 249.941569 222.198094 
L 249.878614 222.292487 
L 249.566586 222.755259 
L 249.475793 222.865453 
L 249.163895 223.21803 
L 249.010017 223.391978 
L 248.75451 223.680801 
L 248.54424 223.918492 
L 248.345127 224.143573 
L 248.078464 224.44501 
L 247.935741 224.606344 
L 247.612688 224.971526 
L 247.526357 225.069115 
L 247.146912 225.498039 
L 247.116969 225.531886 
L 246.707588 225.994658 
L 246.681135 226.02456 
L 246.298194 226.457429 
L 246.215359 226.551066 
L 245.88882 226.9202 
L 245.749583 227.077597 
L 245.479438 227.382972 
L 245.283806 227.604121 
L 245.070061 227.845743 
L 244.81803 228.130645 
L 244.660683 228.308514 
L 244.352254 228.657162 
L 244.251295 228.771285 
L 243.886477 229.183678 
L 243.841911 229.234057 
L 243.432533 229.696828 
L 243.420701 229.710203 
L 243.023152 230.159599 
L 242.954925 230.236724 
L 242.613764 230.622371 
L 242.489149 230.763235 
L 242.204368 231.085142 
L 242.023372 231.289743 
L 241.794994 231.547913 
L 241.557596 231.816271 
L 241.387385 232.010684 
L 241.09182 232.403594 
L 241.042013 232.473456 
L 240.684064 232.936227 
L 240.626043 233.009185 
L 240.316036 233.398998 
L 240.160267 233.594872 
L 239.947546 233.86177 
L 239.694491 234.178081 
L 239.576726 234.324541 
L 239.228715 234.757348 
L 239.20462 234.787312 
L 238.832519 235.250083 
L 238.762938 235.336617 
L 238.460403 235.712855 
L 238.297162 235.915875 
L 238.088307 236.175626 
L 237.831386 236.495143 
L 237.716193 236.638397 
L 237.365609 237.074404 
L 237.344089 237.101169 
L 236.971976 237.56394 
L 236.899833 237.653659 
L 236.596373 238.026711 
L 236.434057 238.204848 
L 236.158436 238.489482 
L 235.96828 238.685858 
L 235.710324 238.952254 
L 235.502504 239.166872 
L 235.259227 239.415025 
L 235.036728 239.633031 
L 234.783422 239.877796 
L 234.570952 240.083108 
L 234.304504 240.340568 
L 234.105175 240.533174 
L 233.792979 240.803339 
L 233.639399 240.921193 
L 233.189738 241.26611 
L 233.173623 241.278472 
L 232.707846 241.631644 
L 232.573794 241.728881 
L 232.24207 241.966369 
L 231.924985 242.191653 
L 231.776294 242.298688 
L 231.310518 242.633963 
L 231.282093 242.654424 
L 230.844741 242.969243 
L 230.639213 243.117195 
L 230.378965 243.304534 
L 229.996325 243.579967 
L 229.913189 243.638645 
L 229.447412 243.899799 
L 229.176997 244.042738 
L 228.981636 244.146008 
L 228.51586 244.392226 
L 228.30155 244.505509 
L 228.050083 244.638432 
L 227.584307 244.884643 
L 227.426083 244.96828 
L 227.118531 245.13085 
L 226.652755 245.377059 
L 226.550611 245.431052 
L 226.186978 245.622007 
L 225.721202 245.865733 
L 225.667471 245.893823 
L 225.255426 246.107303 
L 224.789649 246.324217 
L 224.71714 246.356594 
L 224.323873 246.532197 
L 223.858097 246.736165 
L 223.632487 246.819366 
L 223.392321 246.907127 
L 222.926544 247.077328 
L 222.460768 247.247526 
L 222.366052 247.282137 
L 221.994992 247.417726 
L 221.529215 247.587925 
L 221.099613 247.744908 
L 221.063439 247.758126 
L 220.597663 247.928326 
L 220.131886 248.098523 
L 219.833168 248.207679 
L 219.66611 248.268727 
L 219.200334 248.438922 
L 218.734558 248.60906 
L 218.566724 248.670451 
L 218.268781 248.779322 
L 217.803005 248.949157 
L 217.337229 249.119376 
L 217.299237 249.133222 
L 216.871452 249.290213 
L 216.405676 249.467858 
L 216.070218 249.595993 
L 215.9399 249.645772 
L 215.474124 249.823699 
L 215.008347 250.001619 
L 214.858754 250.058765 
L 214.542571 250.179549 
L 214.076795 250.357467 
L 213.647268 250.521536 
L 213.611018 250.535382 
L 213.145242 250.713311 
L 212.679466 250.89123 
L 212.213689 250.983314 
L 212.205975 250.984307 
L 211.747913 251.043304 
L 211.282137 251.103305 
L 210.816361 251.163296 
L 210.350584 251.223292 
L 209.884808 251.28328 
L 209.419032 251.343279 
L 208.953255 251.403272 
L 208.613178 251.447078 
L 208.487479 251.46327 
L 208.021703 251.523265 
L 207.555927 251.579604 
L 207.09015 251.624289 
L 206.624374 251.678102 
L 206.158598 251.731914 
L 205.692821 251.785723 
L 205.227045 251.839532 
L 204.761269 251.893346 
L 204.618421 251.90985 
L 204.295492 251.94716 
L 203.829716 251.99811 
L 203.36394 252.040777 
L 202.898164 252.085781 
L 202.432387 252.150998 
L 201.966611 252.217501 
L 201.500835 252.283994 
L 201.035058 252.325925 
L 200.569282 252.314607 
L 200.103506 252.303297 
L 199.63773 252.291981 
L 199.171953 252.280671 
L 198.706177 252.269353 
L 198.240401 252.258046 
L 197.774624 252.246728 
L 197.308848 252.235409 
L 196.843072 252.224095 
L 196.377295 252.212777 
L 195.911519 252.20146 
L 195.445743 252.190144 
L 194.979967 252.178832 
L 194.51419 252.167512 
L 194.048414 252.1562 
L 193.582638 252.144883 
L 193.116861 252.133568 
L 192.651085 252.082661 
L 192.185309 252.021058 
L 191.719533 251.959444 
L 191.253756 251.909915 
z
" clip-path="url(#p2bd47a768d)" style="fill: none; stroke: #000000; stroke-width: 1.5"/>
   </g>
   <g id="patch_3">
    <path d="M 45 320.4 
L 45 43.2 
" style="fill: none; stroke: #000000; stroke-width: 0.8; stroke-linejoin: miter; stroke-linecap: square"/>
   </g>
   <g id="patch_4">
    <path d="M 324 320.4 
L 324 43.2 
" style="fill: none; stroke: #000000; stroke-width: 0.8; stroke-linejoin: miter; stroke-linecap: square"/>
   </g>
   <g id="patch_5">
    <path d="M 45 320.4 
L 324 320.4 
" style="fill: none; stroke: #000000; stroke-width: 0.8; stroke-linejoin: miter; stroke-linecap: square"/>
   </g>
   <g id="patch_6">
    <path d="M 45 43.2 
L 324 43.2 
" style="fill: none; stroke: #000000; stroke-width: 0.8; stroke-linejoin: miter; stroke-linecap: square"/>
   </g>
  </g>
 </g>
 <defs>
  <clipPath id="p2bd47a768d">
   <rect x="45" y="43.2" width="279" height="277.2"/>
  </clipPath>
 </defs>
</svg>
