<?xml version="1.0" encoding="utf-8" standalone="no"?>
<!DOCTYPE svg PUBLIC "-//W3C//DTD SVG 1.1//EN"
  "http://www.w3.org/Graphics/SVG/1.1/DTD/svg11.dtd">
<svg xmlns:xlink="http://www.w3.org/1999/xlink" width="360pt" height="360pt" viewBox="0 0 360 360" xmlns="http://www.w3.org/2000/svg" version="1.1">
 <metadata>
  <rdf:RDF xmlns:dc="http://purl.org/dc/elements/1.1/" xmlns:cc="http://creativecommons.org/ns#" xmlns:rdf="http://www.w3.org/1999/02/22-rdf-syntax-ns#">
   <cc:Work>
    <dc:type rdf:resource="http://purl.org/dc/dcmitype/StillImage"/>
    <dc:date>2022-04-10T19:53:31.158286</dc:date>
    <dc:format>image/svg+xml</dc:format>
    <dc:creator>
     <cc:Agent>
      <dc:title>Matplotlib v3.5.1, https://matplotlib.org/</dc:title>
     </cc:Agent>
    </dc:creator>
   </cc:Work>
  </rdf:RDF>
 </metadata>
 <defs>
  <style type="text/css">*{stroke-linejoin: round; stroke-linecap: butt}</style>
 </defs>
 <g id="figure_1">
  <g id="patch_1">
   <path d="M 0 360 
L 360 360 
L 360 0 
L 0 0 
z
" style="fill: #ffffff"/>
  </g>
  <g id="axes_1">
   <g id="patch_2">
    <path d="M 45 320.4 
L 324 320.4 
L 324 43.2 
L 45 43.2 
z
" style="fill: #ffffff"/>
   </g>
   <g id="PathCollection_1">
    <defs>
     <path id="me8c96c80c7" d="M 0 0.5 
C 0.132602 0.5 0.25979 0.447317 0.353553 0.353553 
C 0.447317 0.25979 0.5 0.132602 0.5 0 
C 0.5 -0.132602 0.447317 -0.25979 0.353553 -0.353553 
C 0.25979 -0.447317 0.132602 -0.5 0 -0.5 
C -0.132602 -0.5 -0.25979 -0.447317 -0.353553 -0.353553 
C -0.447317 -0.25979 -0.5 -0.132602 -0.5 0 
C -0.5 0.132602 -0.447317 0.25979 -0.353553 0.353553 
C -0.25979 0.447317 -0.132602 0.5 0 0.5 
z
" style="stroke: #ff0000"/>
    </defs>
    <g clip-path="url(#pd4be9f16f2)">
     <use xlink:href="#me8c96c80c7" x="224.706886" y="181.336455" style="fill: #ff0000; stroke: #ff0000"/>
     <use xlink:href="#me8c96c80c7" x="226.033656" y="177.317794" style="fill: #ff0000; stroke: #ff0000"/>
     <use xlink:href="#me8c96c80c7" x="227.204962" y="172.988918" style="fill: #ff0000; stroke: #ff0000"/>
     <use xlink:href="#me8c96c80c7" x="227.866297" y="168.406918" style="fill: #ff0000; stroke: #ff0000"/>
     <use xlink:href="#me8c96c80c7" x="227.697139" y="163.751058" style="fill: #ff0000; stroke: #ff0000"/>
     <use xlink:href="#me8c96c80c7" x="226.51287" y="159.272758" style="fill: #ff0000; stroke: #ff0000"/>
     <use xlink:href="#me8c96c80c7" x="224.310523" y="155.217262" style="fill: #ff0000; stroke: #ff0000"/>
     <use xlink:href="#me8c96c80c7" x="221.254821" y="151.74758" style="fill: #ff0000; stroke: #ff0000"/>
     <use xlink:href="#me8c96c80c7" x="217.618634" y="148.895035" style="fill: #ff0000; stroke: #ff0000"/>
     <use xlink:href="#me8c96c80c7" x="213.699341" y="146.551331" style="fill: #ff0000; stroke: #ff0000"/>
     <use xlink:href="#me8c96c80c7" x="209.734917" y="144.507133" style="fill: #ff0000; stroke: #ff0000"/>
     <use xlink:href="#me8c96c80c7" x="205.843821" y="142.529828" style="fill: #ff0000; stroke: #ff0000"/>
     <use xlink:href="#me8c96c80c7" x="202.008475" y="140.45906" style="fill: #ff0000; stroke: #ff0000"/>
     <use xlink:href="#me8c96c80c7" x="198.109968" y="138.287964" style="fill: #ff0000; stroke: #ff0000"/>
     <use xlink:href="#me8c96c80c7" x="194.00352" y="136.197672" style="fill: #ff0000; stroke: #ff0000"/>
     <use xlink:href="#me8c96c80c7" x="189.60704" y="134.52479" style="fill: #ff0000; stroke: #ff0000"/>
     <use xlink:href="#me8c96c80c7" x="184.966555" y="133.66427" style="fill: #ff0000; stroke: #ff0000"/>
     <use xlink:href="#me8c96c80c7" x="180.267819" y="133.937176" style="fill: #ff0000; stroke: #ff0000"/>
     <use xlink:href="#me8c96c80c7" x="175.784532" y="135.473121" style="fill: #ff0000; stroke: #ff0000"/>
     <use xlink:href="#me8c96c80c7" x="171.783278" y="138.157397" style="fill: #ff0000; stroke: #ff0000"/>
     <use xlink:href="#me8c96c80c7" x="168.428313" y="141.667199" style="fill: #ff0000; stroke: #ff0000"/>
     <use xlink:href="#me8c96c80c7" x="165.730591" y="145.580678" style="fill: #ff0000; stroke: #ff0000"/>
     <use xlink:href="#me8c96c80c7" x="163.562469" y="149.509644" style="fill: #ff0000; stroke: #ff0000"/>
     <use xlink:href="#me8c96c80c7" x="161.726504" y="153.201068" style="fill: #ff0000; stroke: #ff0000"/>
     <use xlink:href="#me8c96c80c7" x="160.043777" y="156.574469" style="fill: #ff0000; stroke: #ff0000"/>
     <use xlink:href="#me8c96c80c7" x="158.424303" y="159.694325" style="fill: #ff0000; stroke: #ff0000"/>
     <use xlink:href="#me8c96c80c7" x="156.893828" y="162.699875" style="fill: #ff0000; stroke: #ff0000"/>
     <use xlink:href="#me8c96c80c7" x="155.567241" y="165.723576" style="fill: #ff0000; stroke: #ff0000"/>
     <use xlink:href="#me8c96c80c7" x="154.576707" y="168.82978" style="fill: #ff0000; stroke: #ff0000"/>
     <use xlink:href="#me8c96c80c7" x="153.984237" y="171.998706" style="fill: #ff0000; stroke: #ff0000"/>
     <use xlink:href="#me8c96c80c7" x="153.72547" y="175.162309" style="fill: #ff0000; stroke: #ff0000"/>
     <use xlink:href="#me8c96c80c7" x="153.624888" y="178.269485" style="fill: #ff0000; stroke: #ff0000"/>
     <use xlink:href="#me8c96c80c7" x="153.483731" y="181.336455" style="fill: #ff0000; stroke: #ff0000"/>
     <use xlink:href="#me8c96c80c7" x="153.191977" y="184.445787" style="fill: #ff0000; stroke: #ff0000"/>
     <use xlink:href="#me8c96c80c7" x="152.794794" y="187.69453" style="fill: #ff0000; stroke: #ff0000"/>
     <use xlink:href="#me8c96c80c7" x="152.473601" y="191.129493" style="fill: #ff0000; stroke: #ff0000"/>
     <use xlink:href="#me8c96c80c7" x="152.460565" y="194.714009" style="fill: #ff0000; stroke: #ff0000"/>
     <use xlink:href="#me8c96c80c7" x="152.945732" y="198.341519" style="fill: #ff0000; stroke: #ff0000"/>
     <use xlink:href="#me8c96c80c7" x="154.02828" y="201.87538" style="fill: #ff0000; stroke: #ff0000"/>
     <use xlink:href="#me8c96c80c7" x="155.722003" y="205.181997" style="fill: #ff0000; stroke: #ff0000"/>
     <use xlink:href="#me8c96c80c7" x="157.988872" y="208.140088" style="fill: #ff0000; stroke: #ff0000"/>
     <use xlink:href="#me8c96c80c7" x="160.767712" y="210.632596" style="fill: #ff0000; stroke: #ff0000"/>
     <use xlink:href="#me8c96c80c7" x="163.981558" y="212.540101" style="fill: #ff0000; stroke: #ff0000"/>
     <use xlink:href="#me8c96c80c7" x="167.527792" y="213.751599" style="fill: #ff0000; stroke: #ff0000"/>
     <use xlink:href="#me8c96c80c7" x="171.267304" y="214.196" style="fill: #ff0000; stroke: #ff0000"/>
     <use xlink:href="#me8c96c80c7" x="175.029876" y="213.881961" style="fill: #ff0000; stroke: #ff0000"/>
     <use xlink:href="#me8c96c80c7" x="178.642886" y="212.92258" style="fill: #ff0000; stroke: #ff0000"/>
     <use xlink:href="#me8c96c80c7" x="181.973932" y="211.52504" style="fill: #ff0000; stroke: #ff0000"/>
     <use xlink:href="#me8c96c80c7" x="184.966555" y="209.945111" style="fill: #ff0000; stroke: #ff0000"/>
     <use xlink:href="#me8c96c80c7" x="187.652221" y="208.428554" style="fill: #ff0000; stroke: #ff0000"/>
     <use xlink:href="#me8c96c80c7" x="190.137728" y="207.16597" style="fill: #ff0000; stroke: #ff0000"/>
     <use xlink:href="#me8c96c80c7" x="192.579377" y="206.270653" style="fill: #ff0000; stroke: #ff0000"/>
     <use xlink:href="#me8c96c80c7" x="195.152447" y="205.768722" style="fill: #ff0000; stroke: #ff0000"/>
     <use xlink:href="#me8c96c80c7" x="198.013886" y="205.588811" style="fill: #ff0000; stroke: #ff0000"/>
     <use xlink:href="#me8c96c80c7" x="201.254391" y="205.555657" style="fill: #ff0000; stroke: #ff0000"/>
     <use xlink:href="#me8c96c80c7" x="204.849091" y="205.407092" style="fill: #ff0000; stroke: #ff0000"/>
     <use xlink:href="#me8c96c80c7" x="208.631583" y="204.848805" style="fill: #ff0000; stroke: #ff0000"/>
     <use xlink:href="#me8c96c80c7" x="212.317511" y="203.637989" style="fill: #ff0000; stroke: #ff0000"/>
     <use xlink:href="#me8c96c80c7" x="215.585663" y="201.663495" style="fill: #ff0000; stroke: #ff0000"/>
     <use xlink:href="#me8c96c80c7" x="218.194097" y="198.982362" style="fill: #ff0000; stroke: #ff0000"/>
     <use xlink:href="#me8c96c80c7" x="220.081328" y="195.787631" style="fill: #ff0000; stroke: #ff0000"/>
     <use xlink:href="#me8c96c80c7" x="221.396753" y="192.316138" style="fill: #ff0000; stroke: #ff0000"/>
     <use xlink:href="#me8c96c80c7" x="222.432918" y="188.740897" style="fill: #ff0000; stroke: #ff0000"/>
     <use xlink:href="#me8c96c80c7" x="223.485075" y="185.105722" style="fill: #ff0000; stroke: #ff0000"/>
    </g>
   </g>
   <g id="matplotlib.axis_1">
    <g id="xtick_1">
     <g id="line2d_1">
      <defs>
       <path id="m2f67135425" d="M 0 0 
L 0 3.5 
" style="stroke: #000000; stroke-width: 0.8"/>
      </defs>
      <g>
       <use xlink:href="#m2f67135425" x="45" y="320.4" style="stroke: #000000; stroke-width: 0.8"/>
      </g>
     </g>
     <g id="text_1">
      <!-- −3 -->
      <g transform="translate(37.628906 334.998438)scale(0.1 -0.1)">
       <defs>
        <path id="DejaVuSans-2212" d="M 678 2272 
L 4684 2272 
L 4684 1741 
L 678 1741 
L 678 2272 
z
" transform="scale(0.015625)"/>
        <path id="DejaVuSans-33" d="M 2597 2516 
Q 3050 2419 3304 2112 
Q 3559 1806 3559 1356 
Q 3559 666 3084 287 
Q 2609 -91 1734 -91 
Q 1441 -91 1130 -33 
Q 819 25 488 141 
L 488 750 
Q 750 597 1062 519 
Q 1375 441 1716 441 
Q 2309 441 2620 675 
Q 2931 909 2931 1356 
Q 2931 1769 2642 2001 
Q 2353 2234 1838 2234 
L 1294 2234 
L 1294 2753 
L 1863 2753 
Q 2328 2753 2575 2939 
Q 2822 3125 2822 3475 
Q 2822 3834 2567 4026 
Q 2313 4219 1838 4219 
Q 1578 4219 1281 4162 
Q 984 4106 628 3988 
L 628 4550 
Q 988 4650 1302 4700 
Q 1616 4750 1894 4750 
Q 2613 4750 3031 4423 
Q 3450 4097 3450 3541 
Q 3450 3153 3228 2886 
Q 3006 2619 2597 2516 
z
" transform="scale(0.015625)"/>
       </defs>
       <use xlink:href="#DejaVuSans-2212"/>
       <use xlink:href="#DejaVuSans-33" x="83.789062"/>
      </g>
     </g>
    </g>
    <g id="xtick_2">
     <g id="line2d_2">
      <g>
       <use xlink:href="#m2f67135425" x="91.655518" y="320.4" style="stroke: #000000; stroke-width: 0.8"/>
      </g>
     </g>
     <g id="text_2">
      <!-- −2 -->
      <g transform="translate(84.284425 334.998438)scale(0.1 -0.1)">
       <defs>
        <path id="DejaVuSans-32" d="M 1228 531 
L 3431 531 
L 3431 0 
L 469 0 
L 469 531 
Q 828 903 1448 1529 
Q 2069 2156 2228 2338 
Q 2531 2678 2651 2914 
Q 2772 3150 2772 3378 
Q 2772 3750 2511 3984 
Q 2250 4219 1831 4219 
Q 1534 4219 1204 4116 
Q 875 4013 500 3803 
L 500 4441 
Q 881 4594 1212 4672 
Q 1544 4750 1819 4750 
Q 2544 4750 2975 4387 
Q 3406 4025 3406 3419 
Q 3406 3131 3298 2873 
Q 3191 2616 2906 2266 
Q 2828 2175 2409 1742 
Q 1991 1309 1228 531 
z
" transform="scale(0.015625)"/>
       </defs>
       <use xlink:href="#DejaVuSans-2212"/>
       <use xlink:href="#DejaVuSans-32" x="83.789062"/>
      </g>
     </g>
    </g>
    <g id="xtick_3">
     <g id="line2d_3">
      <g>
       <use xlink:href="#m2f67135425" x="138.311037" y="320.4" style="stroke: #000000; stroke-width: 0.8"/>
      </g>
     </g>
     <g id="text_3">
      <!-- −1 -->
      <g transform="translate(130.939943 334.998438)scale(0.1 -0.1)">
       <defs>
        <path id="DejaVuSans-31" d="M 794 531 
L 1825 531 
L 1825 4091 
L 703 3866 
L 703 4441 
L 1819 4666 
L 2450 4666 
L 2450 531 
L 3481 531 
L 3481 0 
L 794 0 
L 794 531 
z
" transform="scale(0.015625)"/>
       </defs>
       <use xlink:href="#DejaVuSans-2212"/>
       <use xlink:href="#DejaVuSans-31" x="83.789062"/>
      </g>
     </g>
    </g>
    <g id="xtick_4">
     <g id="line2d_4">
      <g>
       <use xlink:href="#m2f67135425" x="184.966555" y="320.4" style="stroke: #000000; stroke-width: 0.8"/>
      </g>
     </g>
     <g id="text_4">
      <!-- 0 -->
      <g transform="translate(181.785305 334.998438)scale(0.1 -0.1)">
       <defs>
        <path id="DejaVuSans-30" d="M 2034 4250 
Q 1547 4250 1301 3770 
Q 1056 3291 1056 2328 
Q 1056 1369 1301 889 
Q 1547 409 2034 409 
Q 2525 409 2770 889 
Q 3016 1369 3016 2328 
Q 3016 3291 2770 3770 
Q 2525 4250 2034 4250 
z
M 2034 4750 
Q 2819 4750 3233 4129 
Q 3647 3509 3647 2328 
Q 3647 1150 3233 529 
Q 2819 -91 2034 -91 
Q 1250 -91 836 529 
Q 422 1150 422 2328 
Q 422 3509 836 4129 
Q 1250 4750 2034 4750 
z
" transform="scale(0.015625)"/>
       </defs>
       <use xlink:href="#DejaVuSans-30"/>
      </g>
     </g>
    </g>
    <g id="xtick_5">
     <g id="line2d_5">
      <g>
       <use xlink:href="#m2f67135425" x="231.622074" y="320.4" style="stroke: #000000; stroke-width: 0.8"/>
      </g>
     </g>
     <g id="text_5">
      <!-- 1 -->
      <g transform="translate(228.440824 334.998438)scale(0.1 -0.1)">
       <use xlink:href="#DejaVuSans-31"/>
      </g>
     </g>
    </g>
    <g id="xtick_6">
     <g id="line2d_6">
      <g>
       <use xlink:href="#m2f67135425" x="278.277592" y="320.4" style="stroke: #000000; stroke-width: 0.8"/>
      </g>
     </g>
     <g id="text_6">
      <!-- 2 -->
      <g transform="translate(275.096342 334.998438)scale(0.1 -0.1)">
       <use xlink:href="#DejaVuSans-32"/>
      </g>
     </g>
    </g>
   </g>
   <g id="matplotlib.axis_2">
    <g id="ytick_1">
     <g id="line2d_7">
      <defs>
       <path id="m019e46ae87" d="M 0 0 
L -3.5 0 
" style="stroke: #000000; stroke-width: 0.8"/>
      </defs>
      <g>
       <use xlink:href="#m019e46ae87" x="45" y="320.4" style="stroke: #000000; stroke-width: 0.8"/>
      </g>
     </g>
     <g id="text_7">
      <!-- −3 -->
      <g transform="translate(23.257812 324.199219)scale(0.1 -0.1)">
       <use xlink:href="#DejaVuSans-2212"/>
       <use xlink:href="#DejaVuSans-33" x="83.789062"/>
      </g>
     </g>
    </g>
    <g id="ytick_2">
     <g id="line2d_8">
      <g>
       <use xlink:href="#m019e46ae87" x="45" y="274.045485" style="stroke: #000000; stroke-width: 0.8"/>
      </g>
     </g>
     <g id="text_8">
      <!-- −2 -->
      <g transform="translate(23.257812 277.844704)scale(0.1 -0.1)">
       <use xlink:href="#DejaVuSans-2212"/>
       <use xlink:href="#DejaVuSans-32" x="83.789062"/>
      </g>
     </g>
    </g>
    <g id="ytick_3">
     <g id="line2d_9">
      <g>
       <use xlink:href="#m019e46ae87" x="45" y="227.69097" style="stroke: #000000; stroke-width: 0.8"/>
      </g>
     </g>
     <g id="text_9">
      <!-- −1 -->
      <g transform="translate(23.257812 231.490189)scale(0.1 -0.1)">
       <use xlink:href="#DejaVuSans-2212"/>
       <use xlink:href="#DejaVuSans-31" x="83.789062"/>
      </g>
     </g>
    </g>
    <g id="ytick_4">
     <g id="line2d_10">
      <g>
       <use xlink:href="#m019e46ae87" x="45" y="181.336455" style="stroke: #000000; stroke-width: 0.8"/>
      </g>
     </g>
     <g id="text_10">
      <!-- 0 -->
      <g transform="translate(31.6375 185.135674)scale(0.1 -0.1)">
       <use xlink:href="#DejaVuSans-30"/>
      </g>
     </g>
    </g>
    <g id="ytick_5">
     <g id="line2d_11">
      <g>
       <use xlink:href="#m019e46ae87" x="45" y="134.98194" style="stroke: #000000; stroke-width: 0.8"/>
      </g>
     </g>
     <g id="text_11">
      <!-- 1 -->
      <g transform="translate(31.6375 138.781159)scale(0.1 -0.1)">
       <use xlink:href="#DejaVuSans-31"/>
      </g>
     </g>
    </g>
    <g id="ytick_6">
     <g id="line2d_12">
      <g>
       <use xlink:href="#m019e46ae87" x="45" y="88.627425" style="stroke: #000000; stroke-width: 0.8"/>
      </g>
     </g>
     <g id="text_12">
      <!-- 2 -->
      <g transform="translate(31.6375 92.426643)scale(0.1 -0.1)">
       <use xlink:href="#DejaVuSans-32"/>
      </g>
     </g>
    </g>
   </g>
   <g id="PathCollection_2">
    <path d="M 177.501672 186.035032 
L 177.455336 185.971906 
L 177.393918 185.044816 
L 177.385066 184.117726 
L 177.293918 183.190635 
L 176.823103 182.263545 
L 176.568562 181.771146 
L 176.359935 181.336455 
L 176.008235 180.409365 
L 175.779772 179.482274 
L 175.940705 178.555184 
L 176.284697 177.628094 
L 176.568562 176.828652 
L 176.613405 176.701003 
L 176.939824 175.773913 
L 177.291628 174.846823 
L 177.501672 174.01951 
L 177.52707 173.919732 
L 177.785189 172.992642 
L 178.056793 172.065552 
L 178.356425 171.138462 
L 178.434783 170.956226 
L 178.806653 170.211371 
L 179.347123 169.284281 
L 179.367893 169.249824 
L 179.907218 168.357191 
L 180.301003 167.734786 
L 180.546497 167.4301 
L 181.234114 166.673457 
L 181.400582 166.50301 
L 182.167224 165.597172 
L 182.18122 165.57592 
L 182.615553 164.648829 
L 183.051946 163.721739 
L 183.100334 163.612059 
L 183.471675 162.794649 
L 183.815212 161.867559 
L 184.033445 161.059314 
L 184.06917 160.940468 
L 184.445216 160.013378 
L 184.966555 159.174438 
L 185.108554 159.086288 
L 185.899666 158.778755 
L 186.832776 158.483146 
L 187.765886 158.31487 
L 188.698997 158.168889 
L 189.632107 158.346505 
L 190.565217 159.06165 
L 190.59256 159.086288 
L 191.498328 159.950901 
L 191.561982 160.013378 
L 192.431438 160.864678 
L 192.516425 160.940468 
L 193.364548 161.584537 
L 193.793042 161.867559 
L 194.297659 162.206152 
L 195.210412 162.794649 
L 195.230769 162.809754 
L 196.16388 163.430791 
L 196.599748 163.721739 
L 197.09699 164.067121 
L 197.878101 164.648829 
L 198.0301 164.774973 
L 198.963211 165.57303 
L 198.968724 165.57592 
L 199.896321 165.950399 
L 200.829431 166.134549 
L 201.762542 166.312271 
L 202.105405 166.50301 
L 202.695652 167.003959 
L 203.054158 167.4301 
L 203.628763 168.09955 
L 203.843398 168.357191 
L 204.245156 169.284281 
L 204.202274 170.211371 
L 203.926967 171.138462 
L 203.628763 172.007079 
L 203.608637 172.065552 
L 203.270508 172.992642 
L 202.878794 173.919732 
L 202.695652 174.327442 
L 202.451617 174.846823 
L 202.042274 175.773913 
L 201.762542 176.496616 
L 201.687685 176.701003 
L 201.558993 177.628094 
L 201.089616 178.555184 
L 200.829431 179.035237 
L 200.603896 179.482274 
L 200.244376 180.409365 
L 199.896321 180.868678 
L 199.181292 181.336455 
L 198.963211 181.44633 
L 198.0301 181.757846 
L 197.09699 182.048699 
L 196.407728 182.263545 
L 196.16388 182.340841 
L 195.230769 182.626375 
L 194.297659 182.739815 
L 193.364548 182.852312 
L 192.431438 183.086688 
L 192.185195 183.190635 
L 191.498328 183.51289 
L 190.565217 183.95307 
L 190.159925 184.117726 
L 189.632107 184.299685 
L 188.698997 184.605523 
L 187.765886 184.918369 
L 187.446001 185.044816 
L 186.832776 185.298351 
L 185.899666 185.699659 
L 185.155096 185.971906 
L 184.966555 186.045026 
L 184.033445 185.978947 
L 183.100334 186.036133 
L 182.167224 186.117464 
L 181.234114 186.170782 
L 180.301003 186.211536 
L 179.367893 186.199544 
L 178.434783 186.154859 
L 177.501672 186.035032 
" clip-path="url(#pd4be9f16f2)" style="fill: none; stroke-dasharray: 5.55,2.4; stroke-dashoffset: 0; stroke: #000000; stroke-width: 1.5"/>
   </g>
   <g id="PathCollection_3">
    <path d="M 166.304348 213.807714 
L 166.208671 213.784615 
L 165.371237 213.648265 
L 164.438127 213.264344 
L 163.71651 212.857525 
L 163.505017 212.766728 
L 162.571906 212.27047 
L 161.963696 211.930435 
L 161.638796 211.787922 
L 160.705686 211.128697 
L 160.539193 211.003344 
L 159.772575 210.364819 
L 159.441024 210.076254 
L 158.839465 209.648421 
L 158.288489 209.149164 
L 157.906355 208.682339 
L 157.591754 208.222074 
L 157.109505 207.294983 
L 156.973244 207.067066 
L 156.527192 206.367893 
L 156.166712 205.440803 
L 156.040134 205.258121 
L 155.551046 204.513712 
L 155.170735 203.586622 
L 155.107023 203.505679 
L 154.572261 202.659532 
L 154.173913 201.787643 
L 154.141241 201.732441 
L 153.599996 200.805351 
L 153.240803 200.072996 
L 153.118375 199.878261 
L 152.786975 198.951171 
L 152.685101 198.02408 
L 152.631779 197.09699 
L 152.579058 196.1699 
L 152.525435 195.242809 
L 152.307692 194.358417 
L 152.293201 194.315719 
L 152.021454 193.388629 
L 151.862599 192.461538 
L 151.897919 191.534448 
L 151.975062 190.607358 
L 152.058454 189.680268 
L 152.152561 188.753177 
L 152.24658 187.826087 
L 152.307692 187.111622 
L 152.324373 186.898997 
L 152.486219 185.971906 
L 152.493316 185.044816 
L 152.500273 184.117726 
L 152.507233 183.190635 
L 152.523036 182.263545 
L 152.595565 181.336455 
L 152.651041 180.409365 
L 152.710398 179.482274 
L 152.774535 178.555184 
L 152.796583 177.628094 
L 152.773319 176.701003 
L 152.736823 175.773913 
L 152.742693 174.846823 
L 153.084644 173.919732 
L 153.240803 173.632201 
L 153.501398 172.992642 
L 153.756523 172.065552 
L 154.173913 171.247542 
L 154.236545 171.138462 
L 154.626817 170.211371 
L 155.107023 169.496056 
L 155.237559 169.284281 
L 155.683528 168.357191 
L 156.040134 167.665382 
L 156.14803 167.4301 
L 156.332859 166.50301 
L 156.51751 165.57592 
L 156.973244 164.779601 
L 157.069796 164.648829 
L 157.358973 163.721739 
L 157.529856 162.794649 
L 157.710629 161.867559 
L 157.906355 161.103123 
L 157.953831 160.940468 
L 158.310515 160.013378 
L 158.717523 159.086288 
L 158.839465 158.814966 
L 159.085225 158.159197 
L 159.406001 157.232107 
L 159.744278 156.305017 
L 159.772575 156.239996 
L 160.07873 155.377926 
L 160.398477 154.450836 
L 160.705686 153.709001 
L 160.797177 153.523746 
L 161.172985 152.596656 
L 161.536014 151.669565 
L 161.638796 151.440019 
L 161.918379 150.742475 
L 162.28984 149.815385 
L 162.571906 149.049231 
L 162.645853 148.888294 
L 162.933752 147.961204 
L 163.28746 147.034114 
L 163.505017 146.694231 
L 163.896039 146.107023 
L 164.438127 145.307206 
L 164.535485 145.179933 
L 165.234651 144.252843 
L 165.371237 144.080222 
L 165.973505 143.325753 
L 166.304348 142.909056 
L 166.763289 142.398662 
L 167.237458 141.93493 
L 167.69807 141.471572 
L 168.170569 140.952713 
L 168.518864 140.544482 
L 169.103679 139.908808 
L 169.368735 139.617391 
L 170.036789 138.915363 
L 170.26293 138.690301 
L 170.9699 138.028901 
L 171.327494 137.763211 
L 171.90301 137.387972 
L 172.83612 137.012012 
L 173.296395 136.83612 
L 173.769231 136.674782 
L 174.702341 136.396417 
L 175.635452 136.138083 
L 176.412579 135.90903 
L 176.568562 135.866794 
L 177.501672 135.582927 
L 178.434783 135.296561 
L 179.367893 135.114459 
L 179.886171 134.98194 
L 180.301003 134.902528 
L 181.234114 134.717326 
L 182.167224 134.592467 
L 183.100334 134.472678 
L 184.033445 134.427426 
L 184.966555 134.463539 
L 185.899666 134.495762 
L 186.832776 134.529211 
L 187.765886 134.553625 
L 188.698997 134.627541 
L 189.632107 134.793198 
L 190.565217 134.969113 
L 190.64351 134.98194 
L 191.498328 135.22864 
L 192.431438 135.63715 
L 192.986045 135.90903 
L 193.364548 136.11917 
L 194.297659 136.626826 
L 194.643915 136.83612 
L 195.230769 137.190845 
L 196.16388 137.754501 
L 196.179682 137.763211 
L 197.09699 138.227903 
L 198.0301 138.589773 
L 198.28109 138.690301 
L 198.963211 138.95667 
L 199.896321 139.326849 
L 200.360266 139.617391 
L 200.829431 139.923988 
L 201.762542 140.533223 
L 201.779186 140.544482 
L 202.695652 141.119426 
L 203.317975 141.471572 
L 203.628763 141.660774 
L 204.561873 142.07143 
L 205.494983 142.355839 
L 205.768073 142.398662 
L 206.428094 142.603804 
L 207.361204 142.866371 
L 208.294314 143.319181 
L 208.308867 143.325753 
L 209.227425 143.780338 
L 210.013899 144.252843 
L 210.160535 144.35484 
L 211.093645 144.919239 
L 211.565838 145.179933 
L 212.026756 145.422135 
L 212.959866 145.774129 
L 213.813705 146.107023 
L 213.892977 146.148642 
L 214.826087 146.603386 
L 215.759197 147.020155 
L 215.828605 147.034114 
L 216.692308 147.399434 
L 217.625418 147.851607 
L 217.782118 147.961204 
L 218.558528 148.739117 
L 218.707419 148.888294 
L 219.491639 149.675749 
L 219.629631 149.815385 
L 220.424749 150.627501 
L 220.537315 150.742475 
L 221.35786 151.580564 
L 221.445 151.669565 
L 222.29097 152.533617 
L 222.352689 152.596656 
L 223.178516 153.523746 
L 223.22408 153.582735 
L 223.669556 154.450836 
L 224.073029 155.377926 
L 224.157191 155.522251 
L 224.44421 156.305017 
L 224.757419 157.232107 
L 225.090301 158.153896 
L 225.091272 158.159197 
L 225.40669 159.086288 
L 225.701518 160.013378 
L 225.962347 160.940468 
L 226.023411 161.110076 
L 226.225589 161.867559 
L 226.576103 162.794649 
L 226.813464 163.721739 
L 226.956522 164.266913 
L 227.03915 164.648829 
L 227.230751 165.57592 
L 227.390522 166.50301 
L 227.325349 167.4301 
L 227.130063 168.357191 
L 226.956522 169.050191 
L 226.871005 169.284281 
L 226.659069 170.211371 
L 226.432291 171.138462 
L 226.202693 172.065552 
L 226.023411 172.786023 
L 225.948393 172.992642 
L 225.741357 173.919732 
L 225.489469 174.846823 
L 225.205623 175.773913 
L 225.090301 176.260323 
L 224.970294 176.701003 
L 224.759881 177.628094 
L 224.507543 178.555184 
L 224.258645 179.482274 
L 224.157191 179.836005 
L 223.99007 180.409365 
L 223.906939 181.336455 
L 223.846409 182.263545 
L 223.785885 183.190635 
L 223.454426 184.117726 
L 223.22408 184.581112 
L 222.998832 185.044816 
L 222.608219 185.971906 
L 222.29097 186.811368 
L 222.252236 186.898997 
L 221.887837 187.826087 
L 221.587089 188.753177 
L 221.35786 189.412772 
L 221.255315 189.680268 
L 220.975131 190.607358 
L 220.674545 191.534448 
L 220.424749 192.289 
L 220.358589 192.461538 
L 220.09924 193.388629 
L 219.777785 194.315719 
L 219.491639 195.004285 
L 219.385992 195.242809 
L 219.012559 196.1699 
L 218.558528 197.096316 
L 218.558148 197.09699 
L 217.776178 198.02408 
L 217.625418 198.188693 
L 216.964865 198.951171 
L 216.692308 199.287798 
L 216.168887 199.878261 
L 215.759197 200.341288 
L 215.385136 200.805351 
L 214.826087 201.47099 
L 214.559079 201.732441 
L 213.892977 202.327963 
L 213.282294 202.659532 
L 212.959866 202.802508 
L 212.026756 203.127978 
L 211.093645 203.431964 
L 210.615619 203.586622 
L 210.160535 203.740974 
L 209.227425 204.047044 
L 208.294314 204.321149 
L 207.629754 204.513712 
L 207.361204 204.600276 
L 206.428094 204.8854 
L 205.494983 205.158876 
L 204.561873 205.385135 
L 204.366981 205.440803 
L 203.628763 205.647546 
L 202.695652 205.903307 
L 201.762542 206.150382 
L 200.829431 206.345159 
L 200.602844 206.367893 
L 199.896321 206.443668 
L 198.963211 206.547275 
L 198.0301 206.653421 
L 197.09699 206.830168 
L 196.16388 206.974636 
L 195.230769 207.090672 
L 194.297659 207.279912 
L 194.234059 207.294983 
L 193.364548 207.507708 
L 192.431438 207.667099 
L 191.498328 207.797173 
L 190.565217 207.938237 
L 189.757198 208.222074 
L 189.632107 208.283375 
L 188.698997 208.657214 
L 187.765886 208.998681 
L 187.459049 209.149164 
L 186.832776 209.502486 
L 185.899666 209.968518 
L 185.694045 210.076254 
L 184.966555 210.491899 
L 184.033445 210.962274 
L 183.960617 211.003344 
L 183.100334 211.474519 
L 182.230577 211.930435 
L 182.167224 211.971716 
L 181.234114 212.468942 
L 180.301003 212.695289 
L 179.367893 212.825134 
L 179.176062 212.857525 
L 178.434783 212.992032 
L 177.501672 213.120239 
L 176.568562 213.337149 
L 175.635452 213.518518 
L 174.702341 213.715012 
L 174.451767 213.784615 
L 173.769231 213.983673 
L 172.83612 214.182359 
L 171.90301 214.239311 
L 170.9699 214.292132 
L 170.036789 214.341248 
L 169.103679 214.382619 
L 168.170569 214.278296 
L 167.237458 214.103406 
L 166.304348 213.807714 
z
" clip-path="url(#pd4be9f16f2)" style="fill: none; stroke: #000000; stroke-width: 1.5"/>
   </g>
   <g id="PathCollection_4">
    <path d="M 163.505017 236.239561 
L 158.839465 235.084508 
L 152.307692 233.023272 
L 150.310945 232.326421 
L 146.70903 230.056872 
L 144.842809 228.501406 
L 141.110368 225.060249 
L 139.116487 223.055518 
L 136.874684 219.347157 
L 135.431868 216.565886 
L 131.779264 208.648889 
L 129.837055 200.805351 
L 129.315098 198.951171 
L 128.508372 193.388629 
L 128.509718 189.680268 
L 128.304203 186.898997 
L 128.557152 184.117726 
L 129.001686 181.336455 
L 129.324793 179.482274 
L 129.472375 177.628094 
L 129.593453 176.701003 
L 129.505823 170.211371 
L 130.208519 167.4301 
L 130.884692 165.57592 
L 132.412011 161.867559 
L 134.428787 155.377926 
L 134.933156 153.523746 
L 135.128199 152.596656 
L 136.62365 149.815385 
L 139.07617 145.179933 
L 142.976589 135.840785 
L 145.630976 132.200669 
L 148.918275 127.565217 
L 150.480616 125.711037 
L 156.040134 120.917043 
L 158.839465 118.603529 
L 162.571906 116.463138 
L 167.237458 114.582688 
L 170.9699 113.000146 
L 172.83612 112.30189 
L 174.702341 111.94507 
L 178.434783 111.595754 
L 181.234114 111.874528 
L 182.167224 111.938866 
L 186.832776 111.735305 
L 192.431438 112.331764 
L 200.848145 114.585953 
L 204.561873 116.091227 
L 208.294314 118.527105 
L 210.160535 119.594939 
L 212.959866 120.868661 
L 214.826087 121.596127 
L 217.625418 122.958504 
L 219.491639 123.529753 
L 229.755853 128.731789 
L 232.555184 130.203701 
L 233.488294 131.126513 
L 235.354515 133.140817 
L 241.886288 139.17546 
L 242.249406 139.617391 
L 244.896831 144.252843 
L 246.636188 147.961204 
L 247.863162 151.669565 
L 248.974839 155.377926 
L 249.433567 157.232107 
L 250.041369 165.57592 
L 249.262748 170.211371 
L 248.231494 178.555184 
L 247.337652 184.117726 
L 246.820725 188.753177 
L 246.551839 189.780009 
L 244.535287 194.315719 
L 242.456112 199.878261 
L 240.932509 203.586622 
L 239.546309 207.294983 
L 236.287625 212.376215 
L 234.421405 214.766102 
L 230.478893 219.347157 
L 229.421429 220.274247 
L 226.023411 222.730667 
L 221.35786 224.476732 
L 216.692308 226.041542 
L 212.959866 227.121505 
L 207.361204 228.92617 
L 205.494983 229.24363 
L 202.695652 229.685266 
L 198.963211 230.571485 
L 186.832776 235.11268 
L 183.100334 235.683554 
L 172.83612 236.895487 
L 165.371237 236.216622 
L 163.505017 236.239561 
L 163.505017 236.239561 
" clip-path="url(#pd4be9f16f2)" style="fill: none; stroke: #000000; stroke-width: 1.5"/>
   </g>
   <g id="patch_3">
    <path d="M 45 320.4 
L 45 43.2 
" style="fill: none; stroke: #000000; stroke-width: 0.8; stroke-linejoin: miter; stroke-linecap: square"/>
   </g>
   <g id="patch_4">
    <path d="M 324 320.4 
L 324 43.2 
" style="fill: none; stroke: #000000; stroke-width: 0.8; stroke-linejoin: miter; stroke-linecap: square"/>
   </g>
   <g id="patch_5">
    <path d="M 45 320.4 
L 324 320.4 
" style="fill: none; stroke: #000000; stroke-width: 0.8; stroke-linejoin: miter; stroke-linecap: square"/>
   </g>
   <g id="patch_6">
    <path d="M 45 43.2 
L 324 43.2 
" style="fill: none; stroke: #000000; stroke-width: 0.8; stroke-linejoin: miter; stroke-linecap: square"/>
   </g>
  </g>
 </g>
 <defs>
  <clipPath id="pd4be9f16f2">
   <rect x="45" y="43.2" width="279" height="277.2"/>
  </clipPath>
 </defs>
</svg>
