<?xml version="1.0" encoding="utf-8" standalone="no"?>
<!DOCTYPE svg PUBLIC "-//W3C//DTD SVG 1.1//EN"
  "http://www.w3.org/Graphics/SVG/1.1/DTD/svg11.dtd">
<svg xmlns:xlink="http://www.w3.org/1999/xlink" width="360pt" height="360pt" viewBox="0 0 360 360" xmlns="http://www.w3.org/2000/svg" version="1.1">
 <metadata>
  <rdf:RDF xmlns:dc="http://purl.org/dc/elements/1.1/" xmlns:cc="http://creativecommons.org/ns#" xmlns:rdf="http://www.w3.org/1999/02/22-rdf-syntax-ns#">
   <cc:Work>
    <dc:type rdf:resource="http://purl.org/dc/dcmitype/StillImage"/>
    <dc:date>2022-04-03T22:41:40.940774</dc:date>
    <dc:format>image/svg+xml</dc:format>
    <dc:creator>
     <cc:Agent>
      <dc:title>Matplotlib v3.5.1, https://matplotlib.org/</dc:title>
     </cc:Agent>
    </dc:creator>
   </cc:Work>
  </rdf:RDF>
 </metadata>
 <defs>
  <style type="text/css">*{stroke-linejoin: round; stroke-linecap: butt}</style>
 </defs>
 <g id="figure_1">
  <g id="patch_1">
   <path d="M 0 360 
L 360 360 
L 360 0 
L 0 0 
z
" style="fill: #ffffff"/>
  </g>
  <g id="axes_1">
   <g id="patch_2">
    <path d="M 45 320.4 
L 324 320.4 
L 324 43.2 
L 45 43.2 
z
" style="fill: #ffffff"/>
   </g>
   <g id="PathCollection_1">
    <defs>
     <path id="me013958d28" d="M 0 0.5 
C 0.132602 0.5 0.25979 0.447317 0.353553 0.353553 
C 0.447317 0.25979 0.5 0.132602 0.5 0 
C 0.5 -0.132602 0.447317 -0.25979 0.353553 -0.353553 
C 0.25979 -0.447317 0.132602 -0.5 0 -0.5 
C -0.132602 -0.5 -0.25979 -0.447317 -0.353553 -0.353553 
C -0.447317 -0.25979 -0.5 -0.132602 -0.5 0 
C -0.5 0.132602 -0.447317 0.25979 -0.353553 0.353553 
C -0.25979 0.447317 -0.132602 0.5 0 0.5 
z
" style="stroke: #ff0000"/>
    </defs>
    <g clip-path="url(#pa270767c62)">
     <use xlink:href="#me013958d28" x="221.931735" y="181.568614" style="fill: #ff0000; stroke: #ff0000"/>
     <use xlink:href="#me013958d28" x="221.110552" y="178.008843" style="fill: #ff0000; stroke: #ff0000"/>
     <use xlink:href="#me013958d28" x="219.829406" y="174.632522" style="fill: #ff0000; stroke: #ff0000"/>
     <use xlink:href="#me013958d28" x="218.1784" y="171.488485" style="fill: #ff0000; stroke: #ff0000"/>
     <use xlink:href="#me013958d28" x="216.287555" y="168.582568" style="fill: #ff0000; stroke: #ff0000"/>
     <use xlink:href="#me013958d28" x="214.293835" y="165.869899" style="fill: #ff0000; stroke: #ff0000"/>
     <use xlink:href="#me013958d28" x="212.303014" y="163.265695" style="fill: #ff0000; stroke: #ff0000"/>
     <use xlink:href="#me013958d28" x="210.366089" y="160.667711" style="fill: #ff0000; stroke: #ff0000"/>
     <use xlink:href="#me013958d28" x="208.476329" y="157.978357" style="fill: #ff0000; stroke: #ff0000"/>
     <use xlink:href="#me013958d28" x="206.57658" y="155.123719" style="fill: #ff0000; stroke: #ff0000"/>
     <use xlink:href="#me013958d28" x="204.564766" y="152.079598" style="fill: #ff0000; stroke: #ff0000"/>
     <use xlink:href="#me013958d28" x="202.301248" y="148.912577" style="fill: #ff0000; stroke: #ff0000"/>
     <use xlink:href="#me013958d28" x="199.635701" y="145.822162" style="fill: #ff0000; stroke: #ff0000"/>
     <use xlink:href="#me013958d28" x="196.463207" y="143.148416" style="fill: #ff0000; stroke: #ff0000"/>
     <use xlink:href="#me013958d28" x="192.791877" y="141.314732" style="fill: #ff0000; stroke: #ff0000"/>
     <use xlink:href="#me013958d28" x="188.783119" y="140.711234" style="fill: #ff0000; stroke: #ff0000"/>
     <use xlink:href="#me013958d28" x="184.732888" y="141.564211" style="fill: #ff0000; stroke: #ff0000"/>
     <use xlink:href="#me013958d28" x="180.993726" y="143.849198" style="fill: #ff0000; stroke: #ff0000"/>
     <use xlink:href="#me013958d28" x="177.868835" y="147.283319" style="fill: #ff0000; stroke: #ff0000"/>
     <use xlink:href="#me013958d28" x="175.520483" y="151.395315" style="fill: #ff0000; stroke: #ff0000"/>
     <use xlink:href="#me013958d28" x="173.924397" y="155.642957" style="fill: #ff0000; stroke: #ff0000"/>
     <use xlink:href="#me013958d28" x="172.8802" y="159.536858" style="fill: #ff0000; stroke: #ff0000"/>
     <use xlink:href="#me013958d28" x="172.067115" y="162.73524" style="fill: #ff0000; stroke: #ff0000"/>
     <use xlink:href="#me013958d28" x="171.122186" y="165.090924" style="fill: #ff0000; stroke: #ff0000"/>
     <use xlink:href="#me013958d28" x="169.718933" y="166.651524" style="fill: #ff0000; stroke: #ff0000"/>
     <use xlink:href="#me013958d28" x="167.634188" y="167.626606" style="fill: #ff0000; stroke: #ff0000"/>
     <use xlink:href="#me013958d28" x="164.799133" y="168.335236" style="fill: #ff0000; stroke: #ff0000"/>
     <use xlink:href="#me013958d28" x="161.328811" y="169.139582" style="fill: #ff0000; stroke: #ff0000"/>
     <use xlink:href="#me013958d28" x="157.51584" y="170.367677" style="fill: #ff0000; stroke: #ff0000"/>
     <use xlink:href="#me013958d28" x="153.773713" y="172.237841" style="fill: #ff0000; stroke: #ff0000"/>
     <use xlink:href="#me013958d28" x="150.533163" y="174.809755" style="fill: #ff0000; stroke: #ff0000"/>
     <use xlink:href="#me013958d28" x="148.123706" y="177.986187" style="fill: #ff0000; stroke: #ff0000"/>
     <use xlink:href="#me013958d28" x="146.688566" y="181.568614" style="fill: #ff0000; stroke: #ff0000"/>
     <use xlink:href="#me013958d28" x="146.168619" y="185.342359" style="fill: #ff0000; stroke: #ff0000"/>
     <use xlink:href="#me013958d28" x="146.356932" y="189.152819" style="fill: #ff0000; stroke: #ff0000"/>
     <use xlink:href="#me013958d28" x="146.99364" y="192.942832" style="fill: #ff0000; stroke: #ff0000"/>
     <use xlink:href="#me013958d28" x="147.86023" y="196.743233" style="fill: #ff0000; stroke: #ff0000"/>
     <use xlink:href="#me013958d28" x="148.843145" y="200.628317" style="fill: #ff0000; stroke: #ff0000"/>
     <use xlink:href="#me013958d28" x="149.954945" y="204.656571" style="fill: #ff0000; stroke: #ff0000"/>
     <use xlink:href="#me013958d28" x="151.315076" y="208.816967" style="fill: #ff0000; stroke: #ff0000"/>
     <use xlink:href="#me013958d28" x="153.100506" y="212.996916" style="fill: #ff0000; stroke: #ff0000"/>
     <use xlink:href="#me013958d28" x="155.482339" y="216.980564" style="fill: #ff0000; stroke: #ff0000"/>
     <use xlink:href="#me013958d28" x="158.566444" y="220.476814" style="fill: #ff0000; stroke: #ff0000"/>
     <use xlink:href="#me013958d28" x="162.351663" y="223.170797" style="fill: #ff0000; stroke: #ff0000"/>
     <use xlink:href="#me013958d28" x="166.71263" y="224.792691" style="fill: #ff0000; stroke: #ff0000"/>
     <use xlink:href="#me013958d28" x="171.412794" y="225.195786" style="fill: #ff0000; stroke: #ff0000"/>
     <use xlink:href="#me013958d28" x="176.153156" y="224.423562" style="fill: #ff0000; stroke: #ff0000"/>
     <use xlink:href="#me013958d28" x="180.65233" y="222.731918" style="fill: #ff0000; stroke: #ff0000"/>
     <use xlink:href="#me013958d28" x="184.732888" y="220.537883" style="fill: #ff0000; stroke: #ff0000"/>
     <use xlink:href="#me013958d28" x="188.373955" y="218.29848" style="fill: #ff0000; stroke: #ff0000"/>
     <use xlink:href="#me013958d28" x="191.699231" y="216.364837" style="fill: #ff0000; stroke: #ff0000"/>
     <use xlink:href="#me013958d28" x="194.902481" y="214.87698" style="fill: #ff0000; stroke: #ff0000"/>
     <use xlink:href="#me013958d28" x="198.148334" y="213.747411" style="fill: #ff0000; stroke: #ff0000"/>
     <use xlink:href="#me013958d28" x="201.499974" y="212.735245" style="fill: #ff0000; stroke: #ff0000"/>
     <use xlink:href="#me013958d28" x="204.906629" y="211.565964" style="fill: #ff0000; stroke: #ff0000"/>
     <use xlink:href="#me013958d28" x="208.245333" y="210.033773" style="fill: #ff0000; stroke: #ff0000"/>
     <use xlink:href="#me013958d28" x="211.380955" y="208.044758" style="fill: #ff0000; stroke: #ff0000"/>
     <use xlink:href="#me013958d28" x="214.207269" y="205.601556" style="fill: #ff0000; stroke: #ff0000"/>
     <use xlink:href="#me013958d28" x="216.656231" y="202.761494" style="fill: #ff0000; stroke: #ff0000"/>
     <use xlink:href="#me013958d28" x="218.687813" y="199.600808" style="fill: #ff0000; stroke: #ff0000"/>
     <use xlink:href="#me013958d28" x="220.278042" y="196.19691" style="fill: #ff0000; stroke: #ff0000"/>
     <use xlink:href="#me013958d28" x="221.411493" y="192.623165" style="fill: #ff0000; stroke: #ff0000"/>
     <use xlink:href="#me013958d28" x="222.075184" y="188.948537" style="fill: #ff0000; stroke: #ff0000"/>
     <use xlink:href="#me013958d28" x="222.253625" y="185.240243" style="fill: #ff0000; stroke: #ff0000"/>
    </g>
   </g>
   <g id="matplotlib.axis_1">
    <g id="xtick_1">
     <g id="line2d_1">
      <defs>
       <path id="mbbf2d557c3" d="M 0 0 
L 0 3.5 
" style="stroke: #000000; stroke-width: 0.8"/>
      </defs>
      <g>
       <use xlink:href="#mbbf2d557c3" x="45" y="320.4" style="stroke: #000000; stroke-width: 0.8"/>
      </g>
     </g>
     <g id="text_1">
      <!-- −3 -->
      <g transform="translate(37.628906 334.998438)scale(0.1 -0.1)">
       <defs>
        <path id="DejaVuSans-2212" d="M 678 2272 
L 4684 2272 
L 4684 1741 
L 678 1741 
L 678 2272 
z
" transform="scale(0.015625)"/>
        <path id="DejaVuSans-33" d="M 2597 2516 
Q 3050 2419 3304 2112 
Q 3559 1806 3559 1356 
Q 3559 666 3084 287 
Q 2609 -91 1734 -91 
Q 1441 -91 1130 -33 
Q 819 25 488 141 
L 488 750 
Q 750 597 1062 519 
Q 1375 441 1716 441 
Q 2309 441 2620 675 
Q 2931 909 2931 1356 
Q 2931 1769 2642 2001 
Q 2353 2234 1838 2234 
L 1294 2234 
L 1294 2753 
L 1863 2753 
Q 2328 2753 2575 2939 
Q 2822 3125 2822 3475 
Q 2822 3834 2567 4026 
Q 2313 4219 1838 4219 
Q 1578 4219 1281 4162 
Q 984 4106 628 3988 
L 628 4550 
Q 988 4650 1302 4700 
Q 1616 4750 1894 4750 
Q 2613 4750 3031 4423 
Q 3450 4097 3450 3541 
Q 3450 3153 3228 2886 
Q 3006 2619 2597 2516 
z
" transform="scale(0.015625)"/>
       </defs>
       <use xlink:href="#DejaVuSans-2212"/>
       <use xlink:href="#DejaVuSans-33" x="83.789062"/>
      </g>
     </g>
    </g>
    <g id="xtick_2">
     <g id="line2d_2">
      <g>
       <use xlink:href="#mbbf2d557c3" x="91.577629" y="320.4" style="stroke: #000000; stroke-width: 0.8"/>
      </g>
     </g>
     <g id="text_2">
      <!-- −2 -->
      <g transform="translate(84.206536 334.998438)scale(0.1 -0.1)">
       <defs>
        <path id="DejaVuSans-32" d="M 1228 531 
L 3431 531 
L 3431 0 
L 469 0 
L 469 531 
Q 828 903 1448 1529 
Q 2069 2156 2228 2338 
Q 2531 2678 2651 2914 
Q 2772 3150 2772 3378 
Q 2772 3750 2511 3984 
Q 2250 4219 1831 4219 
Q 1534 4219 1204 4116 
Q 875 4013 500 3803 
L 500 4441 
Q 881 4594 1212 4672 
Q 1544 4750 1819 4750 
Q 2544 4750 2975 4387 
Q 3406 4025 3406 3419 
Q 3406 3131 3298 2873 
Q 3191 2616 2906 2266 
Q 2828 2175 2409 1742 
Q 1991 1309 1228 531 
z
" transform="scale(0.015625)"/>
       </defs>
       <use xlink:href="#DejaVuSans-2212"/>
       <use xlink:href="#DejaVuSans-32" x="83.789062"/>
      </g>
     </g>
    </g>
    <g id="xtick_3">
     <g id="line2d_3">
      <g>
       <use xlink:href="#mbbf2d557c3" x="138.155259" y="320.4" style="stroke: #000000; stroke-width: 0.8"/>
      </g>
     </g>
     <g id="text_3">
      <!-- −1 -->
      <g transform="translate(130.784165 334.998438)scale(0.1 -0.1)">
       <defs>
        <path id="DejaVuSans-31" d="M 794 531 
L 1825 531 
L 1825 4091 
L 703 3866 
L 703 4441 
L 1819 4666 
L 2450 4666 
L 2450 531 
L 3481 531 
L 3481 0 
L 794 0 
L 794 531 
z
" transform="scale(0.015625)"/>
       </defs>
       <use xlink:href="#DejaVuSans-2212"/>
       <use xlink:href="#DejaVuSans-31" x="83.789062"/>
      </g>
     </g>
    </g>
    <g id="xtick_4">
     <g id="line2d_4">
      <g>
       <use xlink:href="#mbbf2d557c3" x="184.732888" y="320.4" style="stroke: #000000; stroke-width: 0.8"/>
      </g>
     </g>
     <g id="text_4">
      <!-- 0 -->
      <g transform="translate(181.551638 334.998438)scale(0.1 -0.1)">
       <defs>
        <path id="DejaVuSans-30" d="M 2034 4250 
Q 1547 4250 1301 3770 
Q 1056 3291 1056 2328 
Q 1056 1369 1301 889 
Q 1547 409 2034 409 
Q 2525 409 2770 889 
Q 3016 1369 3016 2328 
Q 3016 3291 2770 3770 
Q 2525 4250 2034 4250 
z
M 2034 4750 
Q 2819 4750 3233 4129 
Q 3647 3509 3647 2328 
Q 3647 1150 3233 529 
Q 2819 -91 2034 -91 
Q 1250 -91 836 529 
Q 422 1150 422 2328 
Q 422 3509 836 4129 
Q 1250 4750 2034 4750 
z
" transform="scale(0.015625)"/>
       </defs>
       <use xlink:href="#DejaVuSans-30"/>
      </g>
     </g>
    </g>
    <g id="xtick_5">
     <g id="line2d_5">
      <g>
       <use xlink:href="#mbbf2d557c3" x="231.310518" y="320.4" style="stroke: #000000; stroke-width: 0.8"/>
      </g>
     </g>
     <g id="text_5">
      <!-- 1 -->
      <g transform="translate(228.129268 334.998438)scale(0.1 -0.1)">
       <use xlink:href="#DejaVuSans-31"/>
      </g>
     </g>
    </g>
    <g id="xtick_6">
     <g id="line2d_6">
      <g>
       <use xlink:href="#mbbf2d557c3" x="277.888147" y="320.4" style="stroke: #000000; stroke-width: 0.8"/>
      </g>
     </g>
     <g id="text_6">
      <!-- 2 -->
      <g transform="translate(274.706897 334.998438)scale(0.1 -0.1)">
       <use xlink:href="#DejaVuSans-32"/>
      </g>
     </g>
    </g>
   </g>
   <g id="matplotlib.axis_2">
    <g id="ytick_1">
     <g id="line2d_7">
      <defs>
       <path id="m001b2f5e4a" d="M 0 0 
L -3.5 0 
" style="stroke: #000000; stroke-width: 0.8"/>
      </defs>
      <g>
       <use xlink:href="#m001b2f5e4a" x="45" y="320.4" style="stroke: #000000; stroke-width: 0.8"/>
      </g>
     </g>
     <g id="text_7">
      <!-- −3 -->
      <g transform="translate(23.257812 324.199219)scale(0.1 -0.1)">
       <use xlink:href="#DejaVuSans-2212"/>
       <use xlink:href="#DejaVuSans-33" x="83.789062"/>
      </g>
     </g>
    </g>
    <g id="ytick_2">
     <g id="line2d_8">
      <g>
       <use xlink:href="#m001b2f5e4a" x="45" y="274.122871" style="stroke: #000000; stroke-width: 0.8"/>
      </g>
     </g>
     <g id="text_8">
      <!-- −2 -->
      <g transform="translate(23.257812 277.92209)scale(0.1 -0.1)">
       <use xlink:href="#DejaVuSans-2212"/>
       <use xlink:href="#DejaVuSans-32" x="83.789062"/>
      </g>
     </g>
    </g>
    <g id="ytick_3">
     <g id="line2d_9">
      <g>
       <use xlink:href="#m001b2f5e4a" x="45" y="227.845743" style="stroke: #000000; stroke-width: 0.8"/>
      </g>
     </g>
     <g id="text_9">
      <!-- −1 -->
      <g transform="translate(23.257812 231.644962)scale(0.1 -0.1)">
       <use xlink:href="#DejaVuSans-2212"/>
       <use xlink:href="#DejaVuSans-31" x="83.789062"/>
      </g>
     </g>
    </g>
    <g id="ytick_4">
     <g id="line2d_10">
      <g>
       <use xlink:href="#m001b2f5e4a" x="45" y="181.568614" style="stroke: #000000; stroke-width: 0.8"/>
      </g>
     </g>
     <g id="text_10">
      <!-- 0 -->
      <g transform="translate(31.6375 185.367833)scale(0.1 -0.1)">
       <use xlink:href="#DejaVuSans-30"/>
      </g>
     </g>
    </g>
    <g id="ytick_5">
     <g id="line2d_11">
      <g>
       <use xlink:href="#m001b2f5e4a" x="45" y="135.291486" style="stroke: #000000; stroke-width: 0.8"/>
      </g>
     </g>
     <g id="text_11">
      <!-- 1 -->
      <g transform="translate(31.6375 139.090705)scale(0.1 -0.1)">
       <use xlink:href="#DejaVuSans-31"/>
      </g>
     </g>
    </g>
    <g id="ytick_6">
     <g id="line2d_12">
      <g>
       <use xlink:href="#m001b2f5e4a" x="45" y="89.014357" style="stroke: #000000; stroke-width: 0.8"/>
      </g>
     </g>
     <g id="text_12">
      <!-- 2 -->
      <g transform="translate(31.6375 92.813576)scale(0.1 -0.1)">
       <use xlink:href="#DejaVuSans-32"/>
      </g>
     </g>
    </g>
   </g>
   <g id="PathCollection_2">
    <path d="M 178.677796 198.736754 
L 176.657357 197.765609 
L 176.348915 197.465601 
L 175.883139 197.268893 
L 175.34193 196.840067 
L 174.951586 196.195947 
L 174.8361 195.914524 
L 174.48581 195.53694 
L 174.020033 195.443193 
L 173.460006 194.988982 
L 173.554257 194.491539 
L 174.020033 193.844029 
L 175.155455 192.675125 
L 176.83422 189.898497 
L 178.677796 185.557975 
L 179.143573 185.093113 
L 180.540902 184.014897 
L 181.006678 183.874354 
L 184.940471 181.568614 
L 187.993322 179.749878 
L 188.924875 179.474682 
L 189.992153 179.717529 
L 191.253756 179.889058 
L 192.185309 179.842445 
L 193.665681 179.717529 
L 194.51419 180.089924 
L 194.979967 180.74753 
L 195.445743 181.315765 
L 198.706177 183.927793 
L 198.854093 184.345242 
L 197.774624 188.099402 
L 196.843072 189.000456 
L 195.445743 190.079494 
L 188.459098 193.305169 
L 185.664441 194.641995 
L 184.097519 194.988982 
L 183.685662 195.451753 
L 182.914011 196.377295 
L 182.869783 196.407434 
L 181.472454 196.969805 
L 179.143573 198.820746 
L 178.677796 198.736754 
L 178.677796 198.736754 
" clip-path="url(#pa270767c62)" style="fill: none; stroke-dasharray: 5.55,2.4; stroke-dashoffset: 0; stroke: #000000; stroke-width: 1.5"/>
   </g>
   <g id="PathCollection_3">
    <path d="M 166.567613 225.21879 
L 166.302587 225.069115 
L 166.101836 224.95574 
L 165.63606 224.692703 
L 165.483147 224.606344 
L 165.170284 224.42965 
L 164.704508 224.166599 
L 164.663764 224.143573 
L 164.238731 223.898729 
L 163.885735 223.680801 
L 163.772955 223.611174 
L 163.307179 223.323627 
L 163.136133 223.21803 
L 162.841402 223.036073 
L 162.38654 222.755259 
L 162.375626 222.748521 
L 161.90985 222.460964 
L 161.636957 222.292487 
L 161.444073 222.173408 
L 160.978297 221.885857 
L 160.887361 221.829716 
L 160.512521 221.598303 
L 160.137773 221.366945 
L 160.046745 221.310747 
L 159.580968 221.023193 
L 159.388182 220.904174 
L 159.115192 220.735642 
L 158.649416 220.448086 
L 158.638589 220.441402 
L 158.183639 220.160537 
L 157.888991 219.978631 
L 157.717863 219.872983 
L 157.252087 219.585428 
L 157.139402 219.51586 
L 156.786311 219.297875 
L 156.389817 219.053088 
L 156.320534 219.007012 
L 155.854758 218.599918 
L 155.844299 218.590317 
L 155.388982 218.136088 
L 155.382274 218.127546 
L 155.115197 217.664775 
L 154.923205 217.332099 
L 154.848124 217.202003 
L 154.581055 216.739232 
L 154.457429 216.525014 
L 154.313987 216.276461 
L 154.04692 215.813689 
L 153.991653 215.717922 
L 153.77985 215.350918 
L 153.525876 214.910839 
L 153.512781 214.888147 
L 153.245709 214.425376 
L 153.0601 214.103755 
L 152.97864 213.962604 
L 152.711564 213.499833 
L 152.594324 213.296678 
L 152.459052 213.037062 
L 152.216676 212.57429 
L 152.128548 212.406787 
L 151.990062 212.111519 
L 151.77301 211.648748 
L 151.662771 211.413704 
L 151.555968 211.185977 
L 151.366836 210.723205 
L 151.205375 210.260434 
L 151.196995 210.236415 
L 151.043918 209.797663 
L 150.882458 209.334891 
L 150.731219 208.901413 
L 150.720998 208.87212 
L 150.565978 208.409349 
L 150.455214 207.946578 
L 150.353774 207.483806 
L 150.265442 207.080824 
L 150.252532 207.021035 
L 150.153257 206.558264 
L 150.055128 206.095492 
L 149.958129 205.632721 
L 149.862235 205.16995 
L 149.799666 204.829717 
L 149.778608 204.707179 
L 149.74908 204.244407 
L 149.719552 203.781636 
L 149.69002 203.318865 
L 149.636984 202.856093 
L 149.518632 202.393322 
L 149.400273 201.930551 
L 149.33389 201.699799 
L 149.267519 201.46778 
L 149.116552 201.005008 
L 148.965589 200.542237 
L 148.868114 200.243435 
L 148.814988 200.079466 
L 148.734646 199.616694 
L 148.65529 199.153923 
L 148.575934 198.691152 
L 148.49658 198.228381 
L 148.417226 197.765609 
L 148.402337 197.679504 
L 148.335351 197.302838 
L 148.247419 196.840067 
L 148.159489 196.377295 
L 148.071557 195.914524 
L 147.983626 195.451753 
L 147.936561 195.261642 
L 147.867094 194.988982 
L 147.724673 194.52621 
L 147.582253 194.063439 
L 147.470785 193.701242 
L 147.439832 193.600668 
L 147.297415 193.137896 
L 147.154996 192.675125 
L 147.012683 192.212354 
L 147.005008 192.186441 
L 146.878457 191.749583 
L 146.744097 191.286811 
L 146.616155 190.82404 
L 146.539232 190.545787 
L 146.497436 190.361269 
L 146.375642 189.898497 
L 146.232337 189.435726 
L 146.1044 188.972955 
L 146.073456 188.861035 
L 145.997045 188.510184 
L 145.876667 188.047412 
L 145.727285 187.584641 
L 145.731325 187.12187 
L 145.73438 186.659098 
L 145.737404 186.196327 
L 145.74162 185.733556 
L 145.81435 185.270785 
L 145.910848 184.808013 
L 145.991256 184.345242 
L 146.070669 183.882471 
L 146.073456 183.776178 
L 146.141715 183.419699 
L 146.270397 182.956928 
L 146.43218 182.494157 
L 146.538678 182.031386 
L 146.539232 182.020556 
L 146.68773 181.568614 
L 146.821796 181.105843 
L 146.926362 180.643072 
L 147.005008 180.255147 
L 147.025888 180.180301 
L 147.185253 179.717529 
L 147.307583 179.254758 
L 147.45565 178.791987 
L 147.470785 178.672512 
L 147.688181 178.329215 
L 147.926596 177.866444 
L 147.936561 177.800108 
L 148.185743 177.403673 
L 148.402337 176.94136 
L 148.4026 176.940902 
L 148.68047 176.47813 
L 148.868114 176.097101 
L 148.916785 176.015359 
L 149.188751 175.552588 
L 149.33389 175.311062 
L 149.487129 175.089816 
L 149.789241 174.627045 
L 149.799666 174.561329 
L 150.183324 174.164274 
L 150.265442 174.08105 
L 150.639946 173.701503 
L 150.731219 173.617621 
L 151.196995 173.309978 
L 151.299969 173.238731 
L 151.662771 173.023612 
L 152.006256 172.77596 
L 152.128548 172.713512 
L 152.594324 172.424836 
L 152.753748 172.313189 
L 153.0601 172.128594 
L 153.497505 171.850417 
L 153.525876 171.848019 
L 153.991653 171.639373 
L 154.445733 171.387646 
L 154.457429 171.386832 
L 154.923205 171.184166 
L 155.388982 170.929953 
L 155.398366 170.924875 
L 155.854758 170.729939 
L 156.320534 170.514217 
L 156.465818 170.462104 
L 156.786311 170.430907 
L 157.252087 170.234679 
L 157.717863 170.099966 
L 158.06581 169.999332 
L 158.183639 169.992729 
L 158.649416 169.830532 
L 159.115192 169.695817 
L 159.580968 169.561097 
L 159.6658 169.536561 
L 160.046745 169.426379 
L 160.512521 169.291664 
L 160.978297 169.156945 
L 161.265807 169.07379 
L 161.444073 169.04292 
L 161.90985 168.887514 
L 162.375626 168.752796 
L 162.841402 168.618074 
L 162.865796 168.611018 
L 163.307179 168.483358 
L 163.772955 168.34864 
L 164.238731 168.175028 
L 164.300172 168.148247 
L 164.704508 167.972009 
L 165.170284 167.768992 
L 165.361892 167.685476 
L 165.63606 167.565974 
L 166.101836 167.362953 
L 166.423605 167.222705 
L 166.567613 167.159936 
L 167.033389 166.956919 
L 167.409865 166.759933 
L 167.499165 166.71105 
L 167.964942 166.37526 
L 168.047911 166.297162 
L 168.430718 165.855304 
L 168.448837 165.834391 
L 168.824552 165.371619 
L 168.896494 165.263493 
L 169.11925 164.908848 
L 169.36227 164.521947 
L 169.409925 164.446077 
L 169.700592 163.983306 
L 169.828047 163.780383 
L 169.991257 163.520534 
L 170.281935 163.057763 
L 170.293823 163.038837 
L 170.572602 162.594992 
L 170.680496 162.13222 
L 170.742507 161.669449 
L 170.759599 161.54188 
L 170.80451 161.206678 
L 170.866521 160.743907 
L 170.928523 160.281135 
L 170.990534 159.818364 
L 171.05254 159.355593 
L 171.114546 158.892821 
L 171.172643 158.43005 
L 171.034091 157.967279 
L 171.21875 157.504508 
L 171.225376 157.483088 
L 171.519189 157.041736 
L 171.691152 156.689452 
L 171.756639 156.578965 
L 172.058875 156.116194 
L 172.156928 155.914337 
L 172.31485 155.653422 
L 172.59085 155.190651 
L 172.622705 155.128553 
L 172.875553 154.72788 
L 173.088481 154.331944 
L 173.128093 154.265109 
L 173.42476 153.802337 
L 173.554257 153.579223 
L 173.711757 153.339566 
L 174.020033 152.945671 
L 174.073938 152.876795 
L 174.445392 152.414023 
L 174.48581 152.356029 
L 174.808832 151.951252 
L 174.951586 151.755392 
L 175.160476 151.488481 
L 175.417362 151.160245 
L 175.522654 151.02571 
L 175.883139 150.565106 
L 175.884835 150.562938 
L 176.24966 150.100167 
L 176.348915 149.969959 
L 176.609188 149.637396 
L 176.814691 149.374819 
L 176.971371 149.174624 
L 177.280467 148.779665 
L 177.333699 148.711853 
L 177.700277 148.249082 
L 177.746244 148.191265 
L 178.068203 147.786311 
L 178.21202 147.605418 
L 178.436123 147.323539 
L 178.677796 147.019568 
L 178.804048 146.860768 
L 179.143573 146.433714 
L 179.17197 146.397997 
L 179.539888 145.935225 
L 179.609349 145.847857 
L 179.907806 145.472454 
L 180.075125 145.261996 
L 180.275725 145.009683 
L 180.540902 144.676143 
L 180.643646 144.546912 
L 181.006678 144.090293 
L 181.013386 144.08414 
L 181.472454 143.680987 
L 181.542802 143.621369 
L 181.93823 143.286257 
L 182.088864 143.158598 
L 182.404007 142.905422 
L 182.68042 142.695826 
L 182.869783 142.553702 
L 183.297014 142.233055 
L 183.335559 142.204126 
L 183.801336 141.85454 
L 183.913595 141.770284 
L 184.267112 141.504949 
L 184.530167 141.307513 
L 184.732888 141.155368 
L 185.198664 141.016394 
L 185.664441 140.980282 
L 186.130217 140.944167 
L 186.595993 140.908052 
L 187.06177 140.871936 
L 187.412505 140.844741 
L 187.527546 140.835821 
L 187.993322 140.799706 
L 188.459098 140.763597 
L 188.924875 140.736989 
L 189.390651 140.802776 
L 189.657286 140.844741 
L 189.856427 140.876084 
L 190.322204 140.949395 
L 190.78798 141.022706 
L 191.253756 141.096017 
L 191.719533 141.169326 
L 192.185309 141.242633 
L 192.35688 141.307513 
L 192.651085 141.405787 
L 193.116861 141.652189 
L 193.340097 141.770284 
L 193.582638 141.898592 
L 194.048414 142.144992 
L 194.214886 142.233055 
L 194.51419 142.39139 
L 194.979967 142.637794 
L 195.08967 142.695826 
L 195.445743 142.884188 
L 195.911519 143.130594 
L 195.964457 143.158598 
L 196.377295 143.376988 
L 196.839272 143.621369 
L 196.843072 143.623379 
L 197.308848 143.869788 
L 197.714045 144.08414 
L 197.774624 144.116187 
L 198.240401 144.346964 
L 198.693229 144.546912 
L 198.706177 144.553121 
L 199.171953 144.834936 
L 199.420624 145.009683 
L 199.63773 145.162249 
L 200.079176 145.472454 
L 200.103506 145.489551 
L 200.569282 145.820887 
L 200.711386 145.935225 
L 201.035058 146.221171 
L 201.22074 146.397997 
L 201.500835 146.660649 
L 201.71084 146.860768 
L 201.966611 147.104494 
L 202.196478 147.323539 
L 202.432387 147.548347 
L 202.682108 147.786311 
L 202.898164 147.992195 
L 203.167735 148.249082 
L 203.36394 148.449878 
L 203.546914 148.711853 
L 203.437495 149.174624 
L 203.409349 149.637396 
L 203.574482 150.100167 
L 203.739598 150.562938 
L 203.829716 150.815504 
L 203.904719 151.02571 
L 204.069843 151.488481 
L 204.234959 151.951252 
L 204.295492 152.22279 
L 204.333322 152.414023 
L 204.710273 152.876795 
L 204.761269 152.933688 
L 205.128742 153.339566 
L 205.227045 153.448142 
L 205.547725 153.802337 
L 205.692821 153.966078 
L 205.935031 154.265109 
L 206.158598 154.609281 
L 206.235636 154.72788 
L 206.536237 155.190651 
L 206.624374 155.326338 
L 206.836834 155.653422 
L 207.09015 156.043403 
L 207.137433 156.116194 
L 207.438034 156.578965 
L 207.555927 156.760457 
L 207.738637 157.041736 
L 208.021703 157.477517 
L 208.039235 157.504508 
L 208.339835 157.967279 
L 208.487479 158.194574 
L 208.640438 158.43005 
L 208.94104 158.892821 
L 208.953255 158.911626 
L 209.240928 159.355593 
L 209.419032 159.638667 
L 209.522814 159.818364 
L 209.723119 160.281135 
L 209.884808 160.657143 
L 209.922538 160.743907 
L 210.164882 161.206678 
L 210.350584 161.541854 
L 210.424122 161.669449 
L 210.744016 162.13222 
L 210.816361 162.231199 
L 211.082256 162.594992 
L 211.282137 162.83122 
L 211.603061 163.057763 
L 211.747913 163.147436 
L 212.213689 163.435832 
L 212.350567 163.520534 
L 212.679466 163.72415 
L 213.098067 163.983306 
L 213.145242 164.012511 
L 213.611018 164.328801 
L 213.797143 164.446077 
L 214.076795 164.633817 
L 214.530419 164.908848 
L 214.542571 164.916732 
L 215.008347 165.253167 
L 215.138861 165.371619 
L 215.420353 165.834391 
L 215.474124 165.908279 
L 215.711776 166.297162 
L 215.9399 166.647695 
L 216.010173 166.759933 
L 216.288504 167.222705 
L 216.405676 167.391603 
L 216.589671 167.685476 
L 216.871452 168.135528 
L 216.879416 168.148247 
L 217.168683 168.611018 
L 217.337229 168.879439 
L 217.458916 169.07379 
L 217.718188 169.536561 
L 217.803005 169.709253 
L 217.932483 169.999332 
L 218.134132 170.462104 
L 218.268781 170.752756 
L 218.345609 170.924875 
L 218.55072 171.387646 
L 218.734558 171.796266 
L 218.758729 171.850417 
L 218.962705 172.313189 
L 219.197731 172.77596 
L 219.200334 172.849985 
L 219.358375 173.238731 
L 219.644663 173.701503 
L 219.665356 174.164274 
L 219.66611 174.228846 
L 219.753713 174.627045 
L 220.097602 175.089816 
L 220.126702 175.552588 
L 220.131886 175.97608 
L 220.140765 176.015359 
L 220.546534 176.47813 
L 220.587591 176.940902 
L 220.59519 177.403673 
L 220.597663 177.420088 
L 220.989224 177.866444 
L 221.047404 178.329215 
L 221.055838 178.791987 
L 221.059518 179.254758 
L 221.063439 179.343881 
L 221.307085 179.717529 
L 221.485976 180.180301 
L 221.5087 180.643072 
L 221.517648 181.105843 
L 221.522434 181.568614 
L 221.524986 182.031386 
L 221.529215 182.053936 
L 221.932684 182.494157 
L 221.96688 182.956928 
L 221.978909 183.419699 
L 221.98505 183.882471 
L 221.988254 184.345242 
L 221.994992 184.38918 
L 222.370048 184.808013 
L 222.423326 185.270785 
L 222.4395 185.733556 
L 222.447318 186.196327 
L 222.451304 186.659098 
L 222.460768 186.740585 
L 222.788976 187.12187 
L 222.846656 187.584641 
L 222.460768 187.997088 
L 222.450861 188.047412 
L 222.446664 188.510184 
L 222.43982 188.972955 
L 222.426298 189.435726 
L 222.388124 189.898497 
L 221.994992 190.351469 
L 221.993055 190.361269 
L 221.979089 190.82404 
L 221.971933 191.286811 
L 221.958509 191.749583 
L 221.924169 192.212354 
L 221.647495 192.675125 
L 221.529215 192.814958 
L 221.510591 193.137896 
L 221.492437 193.600668 
L 221.250267 194.063439 
L 221.063439 194.277271 
L 221.035457 194.52621 
L 220.597663 194.967828 
L 220.58572 194.988982 
L 220.557536 195.451753 
L 220.131886 195.883238 
L 220.116437 195.914524 
L 220.067911 196.377295 
L 219.66611 196.788595 
L 219.645792 196.840067 
L 219.5346 197.302838 
L 219.200334 197.654767 
L 219.172814 197.765609 
L 218.734558 198.207544 
L 218.722673 198.228381 
L 218.695304 198.691152 
L 218.268781 199.123287 
L 218.254403 199.153923 
L 218.227643 199.616694 
L 217.803005 200.051716 
L 217.792179 200.079466 
L 217.777677 200.542237 
L 217.688159 201.005008 
L 217.337229 201.382341 
L 217.320338 201.46778 
L 217.28195 201.930551 
L 216.871452 202.348194 
L 216.844171 202.393322 
L 216.405676 202.833096 
L 216.389179 202.856093 
L 215.9399 203.314121 
L 215.935676 203.318865 
L 215.503565 203.781636 
L 215.474124 204.026877 
L 215.448009 204.244407 
L 215.39245 204.707179 
L 215.322646 205.16995 
L 215.008347 205.508113 
L 214.878192 205.632721 
L 214.542571 205.952885 
L 214.393632 206.095492 
L 214.076795 206.397776 
L 213.909206 206.558264 
L 213.611018 206.842803 
L 213.424308 207.021035 
L 213.145242 207.287326 
L 212.939341 207.483806 
L 212.679466 207.73179 
L 212.421015 207.946578 
L 212.213689 208.100098 
L 211.747913 208.32641 
L 211.57727 208.409349 
L 211.282137 208.550661 
L 210.816361 208.766114 
L 210.580985 208.87212 
L 210.350584 208.972249 
L 209.884808 209.174652 
L 209.514343 209.334891 
L 209.419032 209.37599 
L 208.953255 209.577579 
L 208.487479 209.77904 
L 208.448948 209.797663 
L 208.021703 210.001632 
L 207.555927 210.242255 
L 207.526157 210.260434 
L 207.09015 210.426428 
L 206.694335 210.723205 
L 206.624374 210.757088 
L 206.158598 210.982666 
L 205.738796 211.185977 
L 205.692821 211.208242 
L 205.227045 211.403805 
L 204.761269 211.554294 
L 204.401739 211.648748 
L 204.295492 211.676258 
L 203.829716 211.796853 
L 203.36394 211.927657 
L 202.898164 212.065721 
L 202.582493 212.111519 
L 202.432387 212.132081 
L 201.966611 212.190291 
L 201.500835 212.255815 
L 201.035058 212.352733 
L 200.569282 212.431271 
L 200.103506 212.502805 
L 199.63773 212.569473 
L 199.604334 212.57429 
L 199.171953 212.638379 
L 198.706177 212.72605 
L 198.240401 212.865449 
L 197.774624 213.035136 
L 197.752595 213.037062 
L 197.308848 213.195679 
L 196.843072 213.476959 
L 196.696765 213.499833 
L 196.377295 213.689222 
L 195.911519 213.928955 
L 195.817929 213.962604 
L 195.445743 214.265066 
L 194.979967 214.385159 
L 194.896768 214.425376 
L 194.51419 214.771661 
L 194.048414 214.861457 
L 193.971584 214.888147 
L 193.582638 215.27757 
L 193.196102 215.350918 
L 193.116861 215.432966 
L 192.749167 215.813689 
L 192.651085 215.915249 
L 192.302247 216.276461 
L 192.185309 216.397543 
L 191.856057 216.739232 
L 191.719533 216.880584 
L 191.509508 217.202003 
L 191.253756 217.498526 
L 191.050241 217.664775 
L 190.78798 217.841993 
L 190.32523 218.127546 
L 190.322204 218.129333 
L 189.856427 218.404375 
L 189.541539 218.590317 
L 189.390651 218.679417 
L 188.924875 218.954463 
L 188.757854 219.053088 
L 188.459098 219.229504 
L 187.993322 219.504546 
L 187.974163 219.51586 
L 187.527546 219.779587 
L 187.19047 219.978631 
L 187.06177 220.026569 
L 186.595993 220.329677 
L 186.224914 220.441402 
L 186.130217 220.454113 
L 186.017465 220.441402 
L 185.664441 220.384587 
L 185.198664 220.344148 
L 184.732888 220.368533 
L 184.267112 220.427412 
L 184.20809 220.441402 
L 183.801336 220.607538 
L 183.335559 220.797786 
L 183.075093 220.904174 
L 182.869783 220.988032 
L 182.404007 221.17828 
L 181.94211 221.366945 
L 181.93823 221.368529 
L 181.472454 221.55878 
L 181.006678 221.761629 
L 180.878746 221.829716 
L 180.540902 222.009522 
L 180.075125 222.257409 
L 180.009215 222.292487 
L 179.609349 222.505298 
L 179.143573 222.753186 
L 179.139677 222.755259 
L 178.677796 223.001073 
L 178.270142 223.21803 
L 178.21202 223.248962 
L 177.746244 223.496847 
L 177.325035 223.680801 
L 177.280467 223.699825 
L 176.814691 223.825382 
L 176.348915 223.950936 
L 175.883139 224.076493 
L 175.634291 224.143573 
L 175.417362 224.202049 
L 174.951586 224.327605 
L 174.48581 224.453162 
L 174.020033 224.578719 
L 173.917553 224.606344 
L 173.554257 224.704276 
L 173.088481 224.82983 
L 172.622705 224.955387 
L 172.200798 225.069115 
L 172.156928 225.080941 
L 171.691152 225.177438 
L 171.225376 225.112539 
L 170.759599 225.163181 
L 170.293823 225.213821 
L 169.828047 225.264462 
L 169.36227 225.315102 
L 168.896494 225.365742 
L 168.430718 225.416383 
L 167.964942 225.467026 
L 167.499165 225.483214 
L 167.033389 225.380635 
L 166.567613 225.21879 
z
" clip-path="url(#pa270767c62)" style="fill: none; stroke: #000000; stroke-width: 1.5"/>
   </g>
   <g id="PathCollection_4">
    <path d="M 161.444073 248.252296 
L 161.183707 248.207679 
L 160.978297 248.17248 
L 160.512521 248.09266 
L 160.046745 248.012841 
L 159.580968 247.933023 
L 159.115192 247.822197 
L 158.882465 247.744908 
L 158.649416 247.66795 
L 158.183639 247.517751 
L 157.717863 247.373181 
L 157.421426 247.282137 
L 157.252087 247.229958 
L 156.786311 247.03982 
L 156.443042 246.819366 
L 156.320534 246.740689 
L 155.854758 246.441552 
L 155.722469 246.356594 
L 155.388982 246.142426 
L 155.001887 245.893823 
L 154.923205 245.843292 
L 154.457429 245.544155 
L 154.290356 245.431052 
L 153.991653 245.225074 
L 153.621873 244.96828 
L 153.525876 244.901617 
L 153.0601 244.578148 
L 152.955503 244.505509 
L 152.594324 244.254694 
L 152.289114 244.042738 
L 152.128548 243.931231 
L 151.662771 243.607768 
L 151.622738 243.579967 
L 151.196995 243.284314 
L 150.956345 243.117195 
L 150.731219 242.960857 
L 150.289969 242.654424 
L 150.265442 242.637391 
L 149.799666 242.31394 
L 149.623572 242.191653 
L 149.33389 241.990481 
L 148.95719 241.728881 
L 148.868114 241.667022 
L 148.402337 241.34357 
L 148.290798 241.26611 
L 147.936561 241.0201 
L 147.624429 240.803339 
L 147.470785 240.696644 
L 147.005008 240.373188 
L 146.958035 240.340568 
L 146.539232 240.049728 
L 146.291656 239.877796 
L 146.073456 239.726267 
L 145.62528 239.415025 
L 145.607679 239.402802 
L 145.141903 239.079345 
L 144.958895 238.952254 
L 144.676127 238.75098 
L 144.38799 238.489482 
L 144.210351 238.312203 
L 143.924272 238.026711 
L 143.744574 237.847381 
L 143.460555 237.56394 
L 143.278798 237.382555 
L 142.996838 237.101169 
L 142.813022 236.917728 
L 142.533116 236.638397 
L 142.347245 236.452905 
L 142.069397 236.175626 
L 141.881469 235.988084 
L 141.605683 235.712855 
L 141.415693 235.523253 
L 141.141961 235.250083 
L 140.949917 235.058427 
L 140.679108 234.787312 
L 140.48414 234.591725 
L 140.21846 234.324541 
L 140.018364 234.123314 
L 139.758283 233.86177 
L 139.552588 233.654915 
L 139.298105 233.398998 
L 139.086811 233.186519 
L 138.837922 232.936227 
L 138.621035 232.718116 
L 138.377742 232.473456 
L 138.155259 232.249721 
L 137.93305 232.010684 
L 137.689482 231.63741 
L 137.638894 231.547913 
L 137.377321 231.085142 
L 137.223706 230.813374 
L 137.115006 230.622371 
L 136.83794 230.159599 
L 136.75793 230.032016 
L 136.537151 229.696828 
L 136.292154 229.324877 
L 136.232332 229.234057 
L 135.927515 228.771285 
L 135.826377 228.617739 
L 135.622697 228.308514 
L 135.360601 227.910602 
L 135.317879 227.845743 
L 135.013064 227.382972 
L 134.894825 227.20346 
L 134.708243 226.9202 
L 134.429048 226.49632 
L 134.403456 226.457429 
L 134.104446 225.994658 
L 133.963272 225.770637 
L 133.814189 225.531886 
L 133.525217 225.069115 
L 133.497496 225.024721 
L 133.248678 224.606344 
L 133.03172 224.166978 
L 133.020507 224.143573 
L 132.798822 223.680801 
L 132.577131 223.21803 
L 132.565943 223.194675 
L 132.355443 222.755259 
L 132.133761 222.292487 
L 132.100167 222.222359 
L 131.912075 221.829716 
L 131.690394 221.366945 
L 131.634391 221.250038 
L 131.468708 220.904174 
L 131.271707 220.441402 
L 131.168614 220.125497 
L 131.11546 219.978631 
L 130.887354 219.51586 
L 130.702838 219.095311 
L 130.684313 219.053088 
L 130.481256 218.590317 
L 130.278213 218.127546 
L 130.237062 218.033756 
L 130.075163 217.664775 
L 129.872128 217.202003 
L 129.771285 216.972151 
L 129.669094 216.739232 
L 129.466137 216.276461 
L 129.305509 215.910187 
L 129.26319 215.813689 
L 129.060237 215.350918 
L 128.857285 214.888147 
L 128.839733 214.848125 
L 128.654332 214.425376 
L 128.451374 213.962604 
L 128.373957 213.784638 
L 128.258107 213.499833 
L 128.142113 213.037062 
L 128.026115 212.57429 
L 127.910125 212.111519 
L 127.90818 212.103761 
L 127.794125 211.648748 
L 127.678124 211.185977 
L 127.562132 210.723205 
L 127.446134 210.260434 
L 127.442404 210.245552 
L 127.330137 209.797663 
L 127.21414 209.334891 
L 127.098149 208.87212 
L 126.982152 208.409349 
L 126.976628 208.387307 
L 126.866159 207.946578 
L 126.750159 207.483806 
L 126.634163 207.021035 
L 126.518171 206.558264 
L 126.510851 206.529064 
L 126.402172 206.095492 
L 126.286175 205.632721 
L 126.170175 205.16995 
L 126.05418 204.707179 
L 126.045075 204.670854 
L 125.938185 204.244407 
L 125.822188 203.781636 
L 125.706197 203.318865 
L 125.590192 202.856093 
L 125.579299 202.812631 
L 125.474203 202.393322 
L 125.358204 201.930551 
L 125.246222 201.46778 
L 125.172751 201.005008 
L 125.113523 200.700346 
L 125.082785 200.542237 
L 124.992813 200.079466 
L 124.898442 199.616694 
L 124.794476 199.153923 
L 124.690507 198.691152 
L 124.647746 198.500822 
L 124.586538 198.228381 
L 124.482579 197.765609 
L 124.378605 197.302838 
L 124.274641 196.840067 
L 124.18197 196.42753 
L 124.170685 196.377295 
L 124.066713 195.914524 
L 123.962752 195.451753 
L 123.858791 194.988982 
L 123.754831 194.52621 
L 123.716194 194.354222 
L 123.650868 194.063439 
L 123.54691 193.600668 
L 123.440338 193.137896 
L 123.330443 192.675125 
L 123.250417 192.338486 
L 123.220432 192.212354 
L 123.15785 191.749583 
L 123.158138 191.286811 
L 123.15843 190.82404 
L 123.158728 190.361269 
L 123.159018 189.898497 
L 123.159312 189.435726 
L 123.159607 188.972955 
L 123.159901 188.510184 
L 123.160192 188.047412 
L 123.160482 187.584641 
L 123.160775 187.12187 
L 123.161057 186.659098 
L 123.16072 186.196327 
L 123.158875 185.733556 
L 123.157033 185.270785 
L 123.155174 184.808013 
L 123.153328 184.345242 
L 123.151482 183.882471 
L 123.149641 183.419699 
L 123.14779 182.956928 
L 123.145947 182.494157 
L 123.1441 182.031386 
L 123.142253 181.568614 
L 123.140407 181.105843 
L 123.138563 180.643072 
L 123.136715 180.180301 
L 123.134869 179.717529 
L 123.133021 179.254758 
L 123.131175 178.791987 
L 123.12933 178.329215 
L 123.127474 177.866444 
L 123.125633 177.403673 
L 123.123788 176.940902 
L 123.12194 176.47813 
L 123.141598 176.015359 
L 123.238895 175.552588 
L 123.250417 175.513101 
L 123.373932 175.089816 
L 123.508967 174.627045 
L 123.654856 174.164274 
L 123.716194 174.036286 
L 123.887778 173.701503 
L 124.124956 173.238731 
L 124.18197 173.127488 
L 124.362133 172.77596 
L 124.617461 172.313189 
L 124.647746 172.262853 
L 124.895898 171.850417 
L 125.113523 171.488717 
L 125.174334 171.387646 
L 125.452769 170.924875 
L 125.579299 170.714169 
L 125.727975 170.462104 
L 125.990173 169.999332 
L 126.045075 169.902429 
L 126.252366 169.536561 
L 126.510851 169.080329 
L 126.514557 169.07379 
L 126.776756 168.611018 
L 126.976628 168.276499 
L 127.052154 168.148247 
L 127.318704 167.685476 
L 127.442404 167.460801 
L 127.573494 167.222705 
L 127.82828 166.759933 
L 127.90818 166.61481 
L 128.083065 166.297162 
L 128.370878 165.834391 
L 128.373957 165.829701 
L 128.674676 165.371619 
L 128.839733 165.120204 
L 128.978489 164.908848 
L 129.230102 164.446077 
L 129.305509 164.187736 
L 129.365178 163.983306 
L 129.500252 163.520534 
L 129.669799 163.057763 
L 129.771285 162.948804 
L 130.100833 162.594992 
L 130.237062 162.448738 
L 130.531882 162.13222 
L 130.702838 161.948677 
L 130.962921 161.669449 
L 131.168614 161.44861 
L 131.393954 161.206678 
L 131.634391 160.948542 
L 131.824995 160.743907 
L 132.100167 160.450076 
L 132.257587 160.281135 
L 132.565943 159.960795 
L 132.702903 159.818364 
L 133.03172 159.430976 
L 133.101995 159.355593 
L 133.497496 158.926761 
L 133.528798 158.892821 
L 133.9556 158.43005 
L 133.963272 158.421732 
L 134.382407 157.967279 
L 134.429048 157.916707 
L 134.809213 157.504508 
L 134.894825 157.411681 
L 135.23601 157.041736 
L 135.360601 156.906648 
L 135.662829 156.578965 
L 135.826377 156.401633 
L 136.089627 156.116194 
L 136.292154 155.896607 
L 136.516439 155.653422 
L 136.75793 155.417805 
L 137.025862 155.190651 
L 137.223706 155.043723 
L 137.689482 154.764809 
L 137.755082 154.72788 
L 138.155259 154.502597 
L 138.577098 154.265109 
L 138.621035 154.240374 
L 139.086811 153.978163 
L 139.397135 153.802337 
L 139.552588 153.713793 
L 140.018364 153.448018 
L 140.208423 153.339566 
L 140.48414 153.182239 
L 140.949917 152.916465 
L 141.019437 152.876795 
L 141.415693 152.650683 
L 141.830447 152.414023 
L 141.881469 152.38491 
L 142.347245 152.119131 
L 142.641449 151.951252 
L 142.813022 151.853349 
L 143.278798 151.587582 
L 143.452469 151.488481 
L 143.744574 151.321794 
L 144.210351 151.056027 
L 144.263482 151.02571 
L 144.676127 150.790247 
L 145.074479 150.562938 
L 145.141903 150.524465 
L 145.607679 150.227153 
L 145.770972 150.100167 
L 146.073456 149.83851 
L 146.30595 149.637396 
L 146.539232 149.435607 
L 146.840937 149.174624 
L 147.005008 149.032693 
L 147.375906 148.711853 
L 147.470785 148.629779 
L 147.91088 148.249082 
L 147.936561 148.225871 
L 148.376966 147.786311 
L 148.402337 147.759246 
L 148.810815 147.323539 
L 148.868114 147.262418 
L 149.24464 146.860768 
L 149.33389 146.765567 
L 149.67849 146.397997 
L 149.799666 146.268739 
L 150.112323 145.935225 
L 150.265442 145.771894 
L 150.546164 145.472454 
L 150.731219 145.275061 
L 150.980006 145.009683 
L 151.196995 144.778226 
L 151.41385 144.546912 
L 151.662771 144.281378 
L 151.847671 144.08414 
L 152.128548 143.784535 
L 152.275595 143.621369 
L 152.594324 143.245786 
L 152.668082 143.158598 
L 153.059583 142.695826 
L 153.0601 142.695215 
L 153.45108 142.233055 
L 153.525876 142.144642 
L 153.84258 141.770284 
L 153.991653 141.594077 
L 154.234085 141.307513 
L 154.457429 141.043513 
L 154.625588 140.844741 
L 154.923205 140.492939 
L 155.017085 140.38197 
L 155.388982 139.942368 
L 155.408583 139.919199 
L 155.800082 139.456427 
L 155.854758 139.391795 
L 156.191583 138.993656 
L 156.320534 138.841229 
L 156.583078 138.530885 
L 156.786311 138.290655 
L 156.974572 138.068114 
L 157.252087 137.740078 
L 157.366072 137.605342 
L 157.717863 137.189512 
L 157.757575 137.142571 
L 158.149066 136.6798 
L 158.183639 136.638932 
L 158.54057 136.217028 
L 158.649416 136.088373 
L 158.932084 135.754257 
L 159.115192 135.537811 
L 159.323577 135.291486 
L 159.580968 134.987236 
L 159.715072 134.828715 
L 160.046745 134.436661 
L 160.106572 134.365943 
L 160.494786 133.903172 
L 160.512521 133.881555 
L 160.870683 133.440401 
L 160.978297 133.307852 
L 161.246395 132.977629 
L 161.444073 132.734152 
L 161.622114 132.514858 
L 161.90985 132.160452 
L 161.99783 132.052087 
L 162.373545 131.589316 
L 162.375626 131.586752 
L 162.745728 131.126544 
L 162.841402 131.003905 
L 163.084568 130.663773 
L 163.307179 130.352389 
L 163.415406 130.201002 
L 163.760647 129.73823 
L 163.772955 129.722921 
L 164.136799 129.275459 
L 164.238731 129.150101 
L 164.513087 128.812688 
L 164.704508 128.577275 
L 164.889378 128.349917 
L 165.170284 128.004452 
L 165.265667 127.887145 
L 165.63606 127.431628 
L 165.641959 127.424374 
L 166.018249 126.961603 
L 166.101836 126.858803 
L 166.394521 126.498831 
L 166.567613 126.28596 
L 166.770822 126.03606 
L 167.033389 125.713148 
L 167.14711 125.573289 
L 167.499165 125.140311 
L 167.52339 125.110518 
L 167.899688 124.647746 
L 167.964942 124.567494 
L 168.307687 124.184975 
L 168.430718 124.076623 
L 168.872555 123.722204 
L 168.896494 123.703001 
L 169.36227 123.32937 
L 169.449456 123.259432 
L 169.828047 122.955736 
L 170.026346 122.796661 
L 170.293823 122.5821 
L 170.603257 122.33389 
L 170.759599 122.209955 
L 171.18542 121.871119 
L 171.225376 121.839476 
L 171.691152 121.462144 
L 171.755989 121.408347 
L 172.156928 121.071506 
L 172.306819 120.945576 
L 172.622705 120.680194 
L 172.857669 120.482805 
L 173.088481 120.31506 
L 173.554257 120.139648 
L 173.914357 120.020033 
L 174.020033 119.984932 
L 174.48581 119.830227 
L 174.951586 119.675516 
L 175.307617 119.557262 
L 175.417362 119.520811 
L 175.883139 119.366095 
L 176.348915 119.211381 
L 176.700828 119.094491 
L 176.814691 119.056672 
L 177.280467 118.901961 
L 177.746244 118.747246 
L 178.09405 118.63172 
L 178.21202 118.592534 
L 178.677796 118.437823 
L 179.143573 118.283111 
L 179.522967 118.168948 
L 179.609349 118.143014 
L 180.075125 118.03411 
L 180.540902 117.920816 
L 181.006678 117.802566 
L 181.386294 117.706177 
L 181.472454 117.684299 
L 181.93823 117.566046 
L 182.404007 117.447783 
L 182.869783 117.329529 
L 183.208956 117.243406 
L 183.335559 117.211258 
L 183.801336 117.093002 
L 184.267112 116.974742 
L 184.732888 116.856486 
L 185.10045 116.780634 
L 185.198664 116.761443 
L 185.664441 116.732197 
L 186.130217 116.702964 
L 186.595993 116.673729 
L 187.06177 116.641692 
L 187.527546 116.60772 
L 187.993322 116.575924 
L 188.459098 116.575732 
L 188.924875 116.632351 
L 189.390651 116.688974 
L 189.856427 116.778707 
L 189.862087 116.780634 
L 190.322204 116.937287 
L 190.78798 117.095882 
L 191.221283 117.243406 
L 191.253756 117.254461 
L 191.719533 117.413055 
L 192.185309 117.571638 
L 192.580458 117.706177 
L 192.651085 117.730224 
L 193.116861 117.888821 
L 193.582638 118.047405 
L 193.939617 118.168948 
L 194.048414 118.205992 
L 194.51419 118.363049 
L 194.979967 118.508942 
L 195.426763 118.63172 
L 195.445743 118.636922 
L 195.911519 118.764567 
L 196.377295 118.892217 
L 196.843072 119.019863 
L 197.115366 119.094491 
L 197.308848 119.147519 
L 197.774624 119.275164 
L 198.240401 119.402811 
L 198.706177 119.530465 
L 198.803952 119.557262 
L 199.171953 119.658117 
L 199.63773 119.785767 
L 200.103506 119.91341 
L 200.492556 120.020033 
L 200.569282 120.041061 
L 201.035058 120.168711 
L 201.500835 120.296358 
L 201.966611 120.424015 
L 202.181127 120.482805 
L 202.432387 120.551662 
L 202.898164 120.679306 
L 203.36394 120.806955 
L 203.829716 120.934621 
L 203.869637 120.945576 
L 204.295492 121.062439 
L 204.761269 121.190244 
L 205.227045 121.318063 
L 205.556075 121.408347 
L 205.692821 121.445869 
L 206.158598 121.573677 
L 206.624374 121.701499 
L 207.09015 121.829314 
L 207.240291 121.871119 
L 207.555927 121.963039 
L 208.021703 122.156992 
L 208.446485 122.33389 
L 208.487479 122.350962 
L 208.953255 122.544936 
L 209.419032 122.741422 
L 209.54891 122.796661 
L 209.884808 122.958995 
L 210.296129 123.259432 
L 210.350584 123.300348 
L 210.816361 123.657376 
L 210.895088 123.722204 
L 211.282137 124.043803 
L 211.452039 124.184975 
L 211.747913 124.430812 
L 212.008998 124.647746 
L 212.213689 124.81783 
L 212.565953 125.110518 
L 212.679466 125.204833 
L 213.122912 125.573289 
L 213.145242 125.591843 
L 213.611018 125.978857 
L 213.678641 126.03606 
L 214.076795 126.371035 
L 214.225589 126.498831 
L 214.542571 126.771078 
L 214.764388 126.961603 
L 215.008347 127.171142 
L 215.303174 127.424374 
L 215.474124 127.571199 
L 215.841982 127.887145 
L 215.9399 127.97125 
L 216.380773 128.349917 
L 216.405676 128.371306 
L 216.871452 128.771365 
L 216.919563 128.812688 
L 217.337229 129.171431 
L 217.458349 129.275459 
L 217.803005 129.571484 
L 217.996001 129.73823 
L 218.268781 129.974726 
L 218.527846 130.201002 
L 218.734558 130.381554 
L 219.057658 130.663773 
L 219.200334 130.788391 
L 219.587492 131.126544 
L 219.66611 131.195214 
L 220.117316 131.589316 
L 220.131886 131.606467 
L 220.392469 132.052087 
L 220.597663 132.46381 
L 220.623104 132.514858 
L 220.853742 132.977629 
L 221.063439 133.398383 
L 221.08438 133.440401 
L 221.315025 133.903172 
L 221.529215 134.332949 
L 221.545659 134.365943 
L 221.77647 134.828715 
L 221.994992 135.247993 
L 222.017341 135.291486 
L 222.261674 135.754257 
L 222.460768 136.131322 
L 222.504818 136.217028 
L 222.727587 136.6798 
L 222.926544 137.097233 
L 222.948153 137.142571 
L 223.168715 137.605342 
L 223.331807 138.068114 
L 223.392321 138.358045 
L 223.432281 138.530885 
L 223.599196 138.993656 
L 223.766114 139.456427 
L 223.858097 139.71145 
L 223.937556 139.919199 
L 224.193221 140.38197 
L 224.323873 140.543561 
L 224.628454 140.844741 
L 224.789649 141.008198 
L 225.044682 141.307513 
L 225.255426 141.554848 
L 225.438988 141.770284 
L 225.721202 142.101492 
L 225.833305 142.233055 
L 226.186978 142.648134 
L 226.227616 142.695826 
L 226.621933 143.158598 
L 226.652755 143.194771 
L 227.016232 143.621369 
L 227.118531 143.75128 
L 227.353966 144.08414 
L 227.584307 144.410884 
L 227.684788 144.546912 
L 227.923613 145.009683 
L 228.050083 145.274594 
L 228.144545 145.472454 
L 228.365492 145.935225 
L 228.51586 146.250181 
L 228.586433 146.397997 
L 228.807376 146.860768 
L 228.981636 147.082772 
L 229.192203 147.323539 
L 229.447412 147.567045 
L 229.677214 147.786311 
L 229.913189 148.008519 
L 230.20372 148.249082 
L 230.378965 148.406981 
L 230.66377 148.711853 
L 230.844741 148.906112 
L 231.094879 149.174624 
L 231.310518 149.406102 
L 231.525991 149.637396 
L 231.776294 149.90608 
L 231.957099 150.100167 
L 232.24207 150.406061 
L 232.388217 150.562938 
L 232.707846 150.906042 
L 232.819326 151.02571 
L 233.173623 151.365966 
L 233.307411 151.488481 
L 233.639399 151.792485 
L 233.812783 151.951252 
L 234.105175 152.218992 
L 234.318163 152.414023 
L 234.570952 152.645505 
L 234.82354 152.876795 
L 235.036728 153.07201 
L 235.328916 153.339566 
L 235.502504 153.498519 
L 235.834293 153.802337 
L 235.96828 153.940375 
L 236.259577 154.265109 
L 236.434057 154.467627 
L 236.635703 154.72788 
L 236.899833 155.131207 
L 236.938763 155.190651 
L 237.241829 155.653422 
L 237.365609 155.842436 
L 237.544885 156.116194 
L 237.831386 156.553681 
L 237.847943 156.578965 
L 238.150998 157.041736 
L 238.297162 157.264926 
L 238.454062 157.504508 
L 238.757125 157.967279 
L 238.762938 157.976156 
L 239.060176 158.43005 
L 239.228715 158.687409 
L 239.363234 158.892821 
L 239.666302 159.355593 
L 239.694491 159.402728 
L 239.933334 159.818364 
L 240.125093 160.281135 
L 240.160267 160.366017 
L 240.316862 160.743907 
L 240.508619 161.206678 
L 240.626043 161.490066 
L 240.700372 161.669449 
L 240.892141 162.13222 
L 241.084046 162.594992 
L 241.09182 162.612453 
L 241.28367 163.057763 
L 241.451777 163.520534 
L 241.557596 163.837747 
L 241.606151 163.983306 
L 241.760516 164.446077 
L 241.914885 164.908848 
L 242.023372 165.234062 
L 242.06926 165.371619 
L 242.223625 165.834391 
L 242.370714 166.297162 
L 242.489149 166.70218 
L 242.505988 166.759933 
L 242.634792 167.222705 
L 242.762633 167.685476 
L 242.891239 168.148247 
L 242.954925 168.3791 
L 243.018601 168.611018 
L 243.105532 169.07379 
L 243.185523 169.536561 
L 243.26536 169.999332 
L 243.3452 170.462104 
L 243.420701 170.899705 
L 243.425039 170.924875 
L 243.504874 171.387646 
L 243.584714 171.850417 
L 243.66455 172.313189 
L 243.74439 172.77596 
L 243.824229 173.238731 
L 243.886477 173.599568 
L 243.904062 173.701503 
L 243.983902 174.164274 
L 244.06374 174.627045 
L 244.143582 175.089816 
L 244.223412 175.552588 
L 244.303252 176.015359 
L 244.352254 176.299418 
L 244.383083 176.47813 
L 244.462922 176.940902 
L 244.542761 177.403673 
L 244.622597 177.866444 
L 244.702436 178.329215 
L 244.782279 178.791987 
L 244.81803 178.999233 
L 244.86078 179.254758 
L 244.938971 179.717529 
L 245.018141 180.180301 
L 245.098327 180.643072 
L 245.179536 181.105843 
L 245.261308 181.568614 
L 245.283806 181.699026 
L 245.33628 182.031386 
L 245.410088 182.494157 
L 245.487452 182.956928 
L 245.576083 183.419699 
L 245.665054 183.882471 
L 245.749583 184.328258 
L 245.752781 184.345242 
L 245.839913 184.808013 
L 245.92704 185.270785 
L 246.014176 185.733556 
L 246.101304 186.196327 
L 246.184179 186.659098 
L 246.215359 186.853796 
L 246.25799 187.12187 
L 246.33158 187.584641 
L 246.405169 188.047412 
L 246.478758 188.510184 
L 246.552348 188.972955 
L 246.625938 189.435726 
L 246.681135 189.782843 
L 246.699526 189.898497 
L 246.773118 190.361269 
L 246.813459 190.82404 
L 246.720309 191.286811 
L 246.681135 191.481423 
L 246.627157 191.749583 
L 246.534013 192.212354 
L 246.440864 192.675125 
L 246.347715 193.137896 
L 246.25457 193.600668 
L 246.215359 193.795484 
L 246.161429 194.063439 
L 246.068278 194.52621 
L 245.955764 194.988982 
L 245.74983 195.451753 
L 245.749583 195.452308 
L 245.543902 195.914524 
L 245.337971 196.377295 
L 245.283806 196.499013 
L 245.132036 196.840067 
L 244.926107 197.302838 
L 244.81803 197.545711 
L 244.720174 197.765609 
L 244.514251 198.228381 
L 244.352254 198.592406 
L 244.308311 198.691152 
L 244.102377 199.153923 
L 243.896452 199.616694 
L 243.886477 199.639109 
L 243.690517 200.079466 
L 243.48459 200.542237 
L 243.420701 200.685803 
L 243.278651 201.005008 
L 243.07272 201.46778 
L 242.954925 201.732487 
L 242.866787 201.930551 
L 242.660855 202.393322 
L 242.489149 202.779189 
L 242.454927 202.856093 
L 242.24899 203.318865 
L 242.042983 203.781636 
L 242.023372 203.825866 
L 241.837112 204.244407 
L 241.630845 204.707179 
L 241.557596 204.872183 
L 241.424919 205.16995 
L 241.218603 205.632721 
L 241.09182 205.917961 
L 241.01262 206.095492 
L 240.806255 206.558264 
L 240.626043 206.963211 
L 240.600215 207.021035 
L 240.393805 207.483806 
L 240.187595 207.946578 
L 240.160267 208.007855 
L 239.981213 208.409349 
L 239.774833 208.87212 
L 239.694491 209.05227 
L 239.568448 209.334891 
L 239.362068 209.797663 
L 239.228715 210.096686 
L 239.155689 210.260434 
L 238.949308 210.723205 
L 238.762938 211.141112 
L 238.74293 211.185977 
L 238.536541 211.648748 
L 238.330166 212.111519 
L 238.297162 212.185523 
L 238.123776 212.57429 
L 237.9174 213.037062 
L 237.831386 213.229941 
L 237.711024 213.499833 
L 237.504632 213.962604 
L 237.365609 214.274334 
L 237.29825 214.425376 
L 237.088085 214.888147 
L 236.899833 215.17872 
L 236.779711 215.350918 
L 236.4569 215.813689 
L 236.434057 215.843007 
L 236.057532 216.276461 
L 235.96828 216.372801 
L 235.627075 216.739232 
L 235.502504 216.873017 
L 235.196175 217.202003 
L 235.036728 217.373238 
L 234.765261 217.664775 
L 234.570952 217.873453 
L 234.329235 218.127546 
L 234.105175 218.351561 
L 233.864437 218.590317 
L 233.639399 218.813509 
L 233.397836 219.053088 
L 233.173623 219.275457 
L 232.931226 219.51586 
L 232.707846 219.739315 
L 232.482135 219.978631 
L 232.24207 220.24274 
L 232.061496 220.441402 
L 231.776294 220.755163 
L 231.640845 220.904174 
L 231.310518 221.267585 
L 231.220201 221.366945 
L 230.844741 221.777306 
L 230.792065 221.829716 
L 230.378965 222.226399 
L 230.31099 222.292487 
L 229.913189 222.681112 
L 229.837294 222.755259 
L 229.447412 223.115926 
L 229.323185 223.21803 
L 228.981636 223.503155 
L 228.768832 223.680801 
L 228.51586 223.898451 
L 228.220515 224.143573 
L 228.050083 224.29173 
L 227.687447 224.606344 
L 227.584307 224.69121 
L 227.118531 225.021675 
L 227.045054 225.069115 
L 226.652755 225.322378 
L 226.328091 225.531886 
L 226.186978 225.623232 
L 225.721202 225.926084 
L 225.615857 225.994658 
L 225.255426 226.229281 
L 224.873753 226.457429 
L 224.789649 226.507451 
L 224.323873 226.779888 
L 224.08398 226.9202 
L 223.858097 227.05232 
L 223.392321 227.324752 
L 223.292784 227.382972 
L 222.926544 227.597184 
L 222.501578 227.845743 
L 222.460768 227.869668 
L 221.994992 228.171048 
L 221.808437 228.308514 
L 221.529215 228.524144 
L 221.209187 228.771285 
L 221.063439 228.883839 
L 220.609939 229.234057 
L 220.597663 229.243537 
L 220.131886 229.603223 
L 220.003518 229.696828 
L 219.66611 229.915076 
L 219.21356 230.159599 
L 219.200334 230.166745 
L 218.734558 230.37227 
L 218.268781 230.550959 
L 218.082641 230.622371 
L 217.803005 230.729652 
L 217.337229 230.961554 
L 217.095366 231.085142 
L 216.871452 231.199035 
L 216.405676 231.435941 
L 216.18553 231.547913 
L 215.9399 231.672847 
L 215.474124 231.909756 
L 215.275684 232.010684 
L 215.008347 232.146657 
L 214.542571 232.370543 
L 214.314708 232.473456 
L 214.076795 232.580907 
L 213.611018 232.791218 
L 213.294616 232.936227 
L 213.145242 233.00535 
L 212.679466 233.228575 
L 212.28692 233.398998 
L 212.213689 233.428848 
L 211.747913 233.609114 
L 211.282137 233.789368 
L 211.095059 233.86177 
L 210.816361 233.96963 
L 210.350584 234.151425 
L 209.91255 234.324541 
L 209.884808 234.335504 
L 209.419032 234.519583 
L 208.953255 234.703657 
L 208.741578 234.787312 
L 208.487479 234.887733 
L 208.021703 235.071811 
L 207.555927 235.249044 
L 207.552646 235.250083 
L 207.09015 235.388972 
L 206.624374 235.528856 
L 206.158598 235.66873 
L 206.011672 235.712855 
L 205.692821 235.808611 
L 205.227045 235.948484 
L 204.761269 236.088361 
L 204.521625 236.175626 
L 204.295492 236.272992 
L 203.829716 236.558734 
L 203.699864 236.638397 
L 203.36394 236.844484 
L 202.945542 237.101169 
L 202.898164 237.130235 
L 202.432387 237.415978 
L 202.191208 237.56394 
L 201.966611 237.701726 
L 201.500835 237.987475 
L 201.436878 238.026711 
L 201.035058 238.273221 
L 200.682553 238.489482 
L 200.569282 238.558973 
L 200.103506 238.844717 
L 199.92822 238.952254 
L 199.63773 239.130467 
L 199.173896 239.415025 
L 199.171953 239.416217 
L 198.706177 239.670519 
L 198.265787 239.877796 
L 198.240401 239.889745 
L 197.774624 240.108961 
L 197.308848 240.32819 
L 197.282551 240.340568 
L 196.843072 240.547413 
L 196.377295 240.766633 
L 196.299307 240.803339 
L 195.911519 240.985853 
L 195.445743 241.205071 
L 195.316056 241.26611 
L 194.979967 241.4243 
L 194.51419 241.643522 
L 194.332829 241.728881 
L 194.048414 241.862742 
L 193.582638 242.081955 
L 193.349557 242.191653 
L 193.116861 242.301172 
L 192.651085 242.520396 
L 192.366321 242.654424 
L 192.185309 242.739621 
L 191.719533 242.958836 
L 191.383073 243.117195 
L 191.253756 243.178061 
L 190.78798 243.39728 
L 190.399839 243.579967 
L 190.322204 243.616506 
L 189.856427 243.835725 
L 189.41659 244.042738 
L 189.390651 244.054946 
L 188.924875 244.274167 
L 188.497268 244.505509 
L 188.459098 244.526992 
L 187.993322 244.799704 
L 187.705407 244.96828 
L 187.527546 245.072419 
L 187.06177 245.345125 
L 186.88238 245.431052 
L 186.595993 245.554002 
L 186.130217 245.733417 
L 185.713795 245.893823 
L 185.664441 245.912835 
L 185.198664 246.092256 
L 184.732888 246.221802 
L 184.267112 246.344279 
L 184.220277 246.356594 
L 183.801336 246.46675 
L 183.335559 246.589221 
L 182.869783 246.711692 
L 182.468137 246.819366 
L 182.404007 246.836508 
L 181.93823 246.963138 
L 181.472454 247.089775 
L 181.006678 247.145334 
L 180.540902 247.176243 
L 180.075125 247.207147 
L 179.609349 247.238057 
L 179.143573 247.268962 
L 178.945039 247.282137 
L 178.677796 247.299872 
L 178.21202 247.330777 
L 177.746244 247.361686 
L 177.280467 247.392592 
L 176.814691 247.423499 
L 176.348915 247.454405 
L 175.883139 247.485311 
L 175.417362 247.516221 
L 174.951586 247.547124 
L 174.48581 247.578029 
L 174.020033 247.608939 
L 173.554257 247.639846 
L 173.088481 247.670753 
L 172.622705 247.701665 
L 172.156928 247.732562 
L 171.970888 247.744908 
L 171.691152 247.763472 
L 171.225376 247.794382 
L 170.759599 247.825289 
L 170.293823 247.856188 
L 169.828047 247.887097 
L 169.36227 247.918008 
L 168.896494 247.948909 
L 168.430718 247.979816 
L 167.964942 248.010724 
L 167.499165 248.041633 
L 167.033389 248.072537 
L 166.567613 248.103447 
L 166.101836 248.134355 
L 165.63606 248.165264 
L 165.170284 248.196162 
L 164.99672 248.207679 
L 164.704508 248.22707 
L 164.238731 248.257977 
L 163.772955 248.288882 
L 163.307179 248.31979 
L 162.841402 248.350697 
L 162.375626 248.381607 
L 161.90985 248.332115 
L 161.444073 248.252296 
z
" clip-path="url(#pa270767c62)" style="fill: none; stroke: #000000; stroke-width: 1.5"/>
   </g>
   <g id="patch_3">
    <path d="M 45 320.4 
L 45 43.2 
" style="fill: none; stroke: #000000; stroke-width: 0.8; stroke-linejoin: miter; stroke-linecap: square"/>
   </g>
   <g id="patch_4">
    <path d="M 324 320.4 
L 324 43.2 
" style="fill: none; stroke: #000000; stroke-width: 0.8; stroke-linejoin: miter; stroke-linecap: square"/>
   </g>
   <g id="patch_5">
    <path d="M 45 320.4 
L 324 320.4 
" style="fill: none; stroke: #000000; stroke-width: 0.8; stroke-linejoin: miter; stroke-linecap: square"/>
   </g>
   <g id="patch_6">
    <path d="M 45 43.2 
L 324 43.2 
" style="fill: none; stroke: #000000; stroke-width: 0.8; stroke-linejoin: miter; stroke-linecap: square"/>
   </g>
  </g>
 </g>
 <defs>
  <clipPath id="pa270767c62">
   <rect x="45" y="43.2" width="279" height="277.2"/>
  </clipPath>
 </defs>
</svg>
