<?xml version="1.0" encoding="utf-8" standalone="no"?>
<!DOCTYPE svg PUBLIC "-//W3C//DTD SVG 1.1//EN"
  "http://www.w3.org/Graphics/SVG/1.1/DTD/svg11.dtd">
<svg xmlns:xlink="http://www.w3.org/1999/xlink" width="360pt" height="360pt" viewBox="0 0 360 360" xmlns="http://www.w3.org/2000/svg" version="1.1">
 <metadata>
  <rdf:RDF xmlns:dc="http://purl.org/dc/elements/1.1/" xmlns:cc="http://creativecommons.org/ns#" xmlns:rdf="http://www.w3.org/1999/02/22-rdf-syntax-ns#">
   <cc:Work>
    <dc:type rdf:resource="http://purl.org/dc/dcmitype/StillImage"/>
    <dc:date>2022-04-10T19:53:29.824395</dc:date>
    <dc:format>image/svg+xml</dc:format>
    <dc:creator>
     <cc:Agent>
      <dc:title>Matplotlib v3.5.1, https://matplotlib.org/</dc:title>
     </cc:Agent>
    </dc:creator>
   </cc:Work>
  </rdf:RDF>
 </metadata>
 <defs>
  <style type="text/css">*{stroke-linejoin: round; stroke-linecap: butt}</style>
 </defs>
 <g id="figure_1">
  <g id="patch_1">
   <path d="M 0 360 
L 360 360 
L 360 0 
L 0 0 
z
" style="fill: #ffffff"/>
  </g>
  <g id="axes_1">
   <g id="patch_2">
    <path d="M 45 320.4 
L 324 320.4 
L 324 43.2 
L 45 43.2 
z
" style="fill: #ffffff"/>
   </g>
   <g id="PathCollection_1">
    <defs>
     <path id="m18239978a9" d="M 0 0.5 
C 0.132602 0.5 0.25979 0.447317 0.353553 0.353553 
C 0.447317 0.25979 0.5 0.132602 0.5 0 
C 0.5 -0.132602 0.447317 -0.25979 0.353553 -0.353553 
C 0.25979 -0.447317 0.132602 -0.5 0 -0.5 
C -0.132602 -0.5 -0.25979 -0.447317 -0.353553 -0.353553 
C -0.447317 -0.25979 -0.5 -0.132602 -0.5 0 
C -0.5 0.132602 -0.447317 0.25979 -0.353553 0.353553 
C -0.25979 0.447317 -0.132602 0.5 0 0.5 
z
" style="stroke: #ff0000"/>
    </defs>
    <g clip-path="url(#p4f454d4cd6)">
     <use xlink:href="#m18239978a9" x="240.393317" y="181.336455" style="fill: #ff0000; stroke: #ff0000"/>
     <use xlink:href="#m18239978a9" x="240.339898" y="175.917842" style="fill: #ff0000; stroke: #ff0000"/>
     <use xlink:href="#m18239978a9" x="239.720038" y="170.515575" style="fill: #ff0000; stroke: #ff0000"/>
     <use xlink:href="#m18239978a9" x="238.667746" y="165.151474" style="fill: #ff0000; stroke: #ff0000"/>
     <use xlink:href="#m18239978a9" x="237.281448" y="159.80672" style="fill: #ff0000; stroke: #ff0000"/>
     <use xlink:href="#m18239978a9" x="235.613955" y="154.439511" style="fill: #ff0000; stroke: #ff0000"/>
     <use xlink:href="#m18239978a9" x="233.676908" y="148.999219" style="fill: #ff0000; stroke: #ff0000"/>
     <use xlink:href="#m18239978a9" x="231.439928" y="143.442806" style="fill: #ff0000; stroke: #ff0000"/>
     <use xlink:href="#m18239978a9" x="228.820027" y="137.765908" style="fill: #ff0000; stroke: #ff0000"/>
     <use xlink:href="#m18239978a9" x="225.680453" y="132.046492" style="fill: #ff0000; stroke: #ff0000"/>
     <use xlink:href="#m18239978a9" x="221.862014" y="126.474743" style="fill: #ff0000; stroke: #ff0000"/>
     <use xlink:href="#m18239978a9" x="217.245451" y="121.336498" style="fill: #ff0000; stroke: #ff0000"/>
     <use xlink:href="#m18239978a9" x="211.812326" y="116.943169" style="fill: #ff0000; stroke: #ff0000"/>
     <use xlink:href="#m18239978a9" x="205.665702" y="113.540744" style="fill: #ff0000; stroke: #ff0000"/>
     <use xlink:href="#m18239978a9" x="198.998295" y="111.249248" style="fill: #ff0000; stroke: #ff0000"/>
     <use xlink:href="#m18239978a9" x="192.031834" y="110.064279" style="fill: #ff0000; stroke: #ff0000"/>
     <use xlink:href="#m18239978a9" x="184.966555" y="109.910408" style="fill: #ff0000; stroke: #ff0000"/>
     <use xlink:href="#m18239978a9" x="177.964883" y="110.705928" style="fill: #ff0000; stroke: #ff0000"/>
     <use xlink:href="#m18239978a9" x="171.165102" y="112.399505" style="fill: #ff0000; stroke: #ff0000"/>
     <use xlink:href="#m18239978a9" x="164.702414" y="114.965514" style="fill: #ff0000; stroke: #ff0000"/>
     <use xlink:href="#m18239978a9" x="158.717246" y="118.373864" style="fill: #ff0000; stroke: #ff0000"/>
     <use xlink:href="#m18239978a9" x="153.347134" y="122.562328" style="fill: #ff0000; stroke: #ff0000"/>
     <use xlink:href="#m18239978a9" x="148.713051" y="127.429298" style="fill: #ff0000; stroke: #ff0000"/>
     <use xlink:href="#m18239978a9" x="144.91115" y="132.84369" style="fill: #ff0000; stroke: #ff0000"/>
     <use xlink:href="#m18239978a9" x="142.008914" y="138.65596" style="fill: #ff0000; stroke: #ff0000"/>
     <use xlink:href="#m18239978a9" x="140.035576" y="144.700449" style="fill: #ff0000; stroke: #ff0000"/>
     <use xlink:href="#m18239978a9" x="138.963079" y="150.796228" style="fill: #ff0000; stroke: #ff0000"/>
     <use xlink:href="#m18239978a9" x="138.690208" y="156.760814" style="fill: #ff0000; stroke: #ff0000"/>
     <use xlink:href="#m18239978a9" x="139.049634" y="162.439749" style="fill: #ff0000; stroke: #ff0000"/>
     <use xlink:href="#m18239978a9" x="139.843864" y="167.736945" style="fill: #ff0000; stroke: #ff0000"/>
     <use xlink:href="#m18239978a9" x="140.89284" y="172.626208" style="fill: #ff0000; stroke: #ff0000"/>
     <use xlink:href="#m18239978a9" x="142.065566" y="177.138337" style="fill: #ff0000; stroke: #ff0000"/>
     <use xlink:href="#m18239978a9" x="143.281238" y="181.336455" style="fill: #ff0000; stroke: #ff0000"/>
     <use xlink:href="#m18239978a9" x="144.490098" y="185.297318" style="fill: #ff0000; stroke: #ff0000"/>
     <use xlink:href="#m18239978a9" x="145.65891" y="189.104788" style="fill: #ff0000; stroke: #ff0000"/>
     <use xlink:href="#m18239978a9" x="146.77865" y="192.845893" style="fill: #ff0000; stroke: #ff0000"/>
     <use xlink:href="#m18239978a9" x="147.889722" y="196.5951" style="fill: #ff0000; stroke: #ff0000"/>
     <use xlink:href="#m18239978a9" x="149.101794" y="200.382891" style="fill: #ff0000; stroke: #ff0000"/>
     <use xlink:href="#m18239978a9" x="150.585175" y="204.161146" style="fill: #ff0000; stroke: #ff0000"/>
     <use xlink:href="#m18239978a9" x="152.52721" y="207.786981" style="fill: #ff0000; stroke: #ff0000"/>
     <use xlink:href="#m18239978a9" x="155.067776" y="211.042339" style="fill: #ff0000; stroke: #ff0000"/>
     <use xlink:href="#m18239978a9" x="158.240471" y="213.69218" style="fill: #ff0000; stroke: #ff0000"/>
     <use xlink:href="#m18239978a9" x="161.946433" y="215.566232" style="fill: #ff0000; stroke: #ff0000"/>
     <use xlink:href="#m18239978a9" x="165.977042" y="216.634129" style="fill: #ff0000; stroke: #ff0000"/>
     <use xlink:href="#m18239978a9" x="170.082528" y="217.037849" style="fill: #ff0000; stroke: #ff0000"/>
     <use xlink:href="#m18239978a9" x="174.060738" y="217.056169" style="fill: #ff0000; stroke: #ff0000"/>
     <use xlink:href="#m18239978a9" x="177.825519" y="217.005251" style="fill: #ff0000; stroke: #ff0000"/>
     <use xlink:href="#m18239978a9" x="181.419718" y="217.115761" style="fill: #ff0000; stroke: #ff0000"/>
     <use xlink:href="#m18239978a9" x="184.966555" y="217.447021" style="fill: #ff0000; stroke: #ff0000"/>
     <use xlink:href="#m18239978a9" x="188.58953" y="217.883818" style="fill: #ff0000; stroke: #ff0000"/>
     <use xlink:href="#m18239978a9" x="192.349919" y="218.215656" style="fill: #ff0000; stroke: #ff0000"/>
     <use xlink:href="#m18239978a9" x="196.236826" y="218.24986" style="fill: #ff0000; stroke: #ff0000"/>
     <use xlink:href="#m18239978a9" x="200.206734" y="217.892126" style="fill: #ff0000; stroke: #ff0000"/>
     <use xlink:href="#m18239978a9" x="204.23525" y="217.153071" style="fill: #ff0000; stroke: #ff0000"/>
     <use xlink:href="#m18239978a9" x="208.338639" y="216.08958" style="fill: #ff0000; stroke: #ff0000"/>
     <use xlink:href="#m18239978a9" x="212.549732" y="214.729813" style="fill: #ff0000; stroke: #ff0000"/>
     <use xlink:href="#m18239978a9" x="216.869584" y="213.033658" style="fill: #ff0000; stroke: #ff0000"/>
     <use xlink:href="#m18239978a9" x="221.232562" y="210.90718" style="fill: #ff0000; stroke: #ff0000"/>
     <use xlink:href="#m18239978a9" x="225.506688" y="208.249744" style="fill: #ff0000; stroke: #ff0000"/>
     <use xlink:href="#m18239978a9" x="229.520887" y="204.997598" style="fill: #ff0000; stroke: #ff0000"/>
     <use xlink:href="#m18239978a9" x="233.096055" y="201.143728" style="fill: #ff0000; stroke: #ff0000"/>
     <use xlink:href="#m18239978a9" x="236.067919" y="196.737875" style="fill: #ff0000; stroke: #ff0000"/>
     <use xlink:href="#m18239978a9" x="238.30744" y="191.878164" style="fill: #ff0000; stroke: #ff0000"/>
     <use xlink:href="#m18239978a9" x="239.745516" y="186.696903" style="fill: #ff0000; stroke: #ff0000"/>
    </g>
   </g>
   <g id="matplotlib.axis_1">
    <g id="xtick_1">
     <g id="line2d_1">
      <defs>
       <path id="mb54007559d" d="M 0 0 
L 0 3.5 
" style="stroke: #000000; stroke-width: 0.8"/>
      </defs>
      <g>
       <use xlink:href="#mb54007559d" x="45" y="320.4" style="stroke: #000000; stroke-width: 0.8"/>
      </g>
     </g>
     <g id="text_1">
      <!-- −3 -->
      <g transform="translate(37.628906 334.998438)scale(0.1 -0.1)">
       <defs>
        <path id="DejaVuSans-2212" d="M 678 2272 
L 4684 2272 
L 4684 1741 
L 678 1741 
L 678 2272 
z
" transform="scale(0.015625)"/>
        <path id="DejaVuSans-33" d="M 2597 2516 
Q 3050 2419 3304 2112 
Q 3559 1806 3559 1356 
Q 3559 666 3084 287 
Q 2609 -91 1734 -91 
Q 1441 -91 1130 -33 
Q 819 25 488 141 
L 488 750 
Q 750 597 1062 519 
Q 1375 441 1716 441 
Q 2309 441 2620 675 
Q 2931 909 2931 1356 
Q 2931 1769 2642 2001 
Q 2353 2234 1838 2234 
L 1294 2234 
L 1294 2753 
L 1863 2753 
Q 2328 2753 2575 2939 
Q 2822 3125 2822 3475 
Q 2822 3834 2567 4026 
Q 2313 4219 1838 4219 
Q 1578 4219 1281 4162 
Q 984 4106 628 3988 
L 628 4550 
Q 988 4650 1302 4700 
Q 1616 4750 1894 4750 
Q 2613 4750 3031 4423 
Q 3450 4097 3450 3541 
Q 3450 3153 3228 2886 
Q 3006 2619 2597 2516 
z
" transform="scale(0.015625)"/>
       </defs>
       <use xlink:href="#DejaVuSans-2212"/>
       <use xlink:href="#DejaVuSans-33" x="83.789062"/>
      </g>
     </g>
    </g>
    <g id="xtick_2">
     <g id="line2d_2">
      <g>
       <use xlink:href="#mb54007559d" x="91.655518" y="320.4" style="stroke: #000000; stroke-width: 0.8"/>
      </g>
     </g>
     <g id="text_2">
      <!-- −2 -->
      <g transform="translate(84.284425 334.998438)scale(0.1 -0.1)">
       <defs>
        <path id="DejaVuSans-32" d="M 1228 531 
L 3431 531 
L 3431 0 
L 469 0 
L 469 531 
Q 828 903 1448 1529 
Q 2069 2156 2228 2338 
Q 2531 2678 2651 2914 
Q 2772 3150 2772 3378 
Q 2772 3750 2511 3984 
Q 2250 4219 1831 4219 
Q 1534 4219 1204 4116 
Q 875 4013 500 3803 
L 500 4441 
Q 881 4594 1212 4672 
Q 1544 4750 1819 4750 
Q 2544 4750 2975 4387 
Q 3406 4025 3406 3419 
Q 3406 3131 3298 2873 
Q 3191 2616 2906 2266 
Q 2828 2175 2409 1742 
Q 1991 1309 1228 531 
z
" transform="scale(0.015625)"/>
       </defs>
       <use xlink:href="#DejaVuSans-2212"/>
       <use xlink:href="#DejaVuSans-32" x="83.789062"/>
      </g>
     </g>
    </g>
    <g id="xtick_3">
     <g id="line2d_3">
      <g>
       <use xlink:href="#mb54007559d" x="138.311037" y="320.4" style="stroke: #000000; stroke-width: 0.8"/>
      </g>
     </g>
     <g id="text_3">
      <!-- −1 -->
      <g transform="translate(130.939943 334.998438)scale(0.1 -0.1)">
       <defs>
        <path id="DejaVuSans-31" d="M 794 531 
L 1825 531 
L 1825 4091 
L 703 3866 
L 703 4441 
L 1819 4666 
L 2450 4666 
L 2450 531 
L 3481 531 
L 3481 0 
L 794 0 
L 794 531 
z
" transform="scale(0.015625)"/>
       </defs>
       <use xlink:href="#DejaVuSans-2212"/>
       <use xlink:href="#DejaVuSans-31" x="83.789062"/>
      </g>
     </g>
    </g>
    <g id="xtick_4">
     <g id="line2d_4">
      <g>
       <use xlink:href="#mb54007559d" x="184.966555" y="320.4" style="stroke: #000000; stroke-width: 0.8"/>
      </g>
     </g>
     <g id="text_4">
      <!-- 0 -->
      <g transform="translate(181.785305 334.998438)scale(0.1 -0.1)">
       <defs>
        <path id="DejaVuSans-30" d="M 2034 4250 
Q 1547 4250 1301 3770 
Q 1056 3291 1056 2328 
Q 1056 1369 1301 889 
Q 1547 409 2034 409 
Q 2525 409 2770 889 
Q 3016 1369 3016 2328 
Q 3016 3291 2770 3770 
Q 2525 4250 2034 4250 
z
M 2034 4750 
Q 2819 4750 3233 4129 
Q 3647 3509 3647 2328 
Q 3647 1150 3233 529 
Q 2819 -91 2034 -91 
Q 1250 -91 836 529 
Q 422 1150 422 2328 
Q 422 3509 836 4129 
Q 1250 4750 2034 4750 
z
" transform="scale(0.015625)"/>
       </defs>
       <use xlink:href="#DejaVuSans-30"/>
      </g>
     </g>
    </g>
    <g id="xtick_5">
     <g id="line2d_5">
      <g>
       <use xlink:href="#mb54007559d" x="231.622074" y="320.4" style="stroke: #000000; stroke-width: 0.8"/>
      </g>
     </g>
     <g id="text_5">
      <!-- 1 -->
      <g transform="translate(228.440824 334.998438)scale(0.1 -0.1)">
       <use xlink:href="#DejaVuSans-31"/>
      </g>
     </g>
    </g>
    <g id="xtick_6">
     <g id="line2d_6">
      <g>
       <use xlink:href="#mb54007559d" x="278.277592" y="320.4" style="stroke: #000000; stroke-width: 0.8"/>
      </g>
     </g>
     <g id="text_6">
      <!-- 2 -->
      <g transform="translate(275.096342 334.998438)scale(0.1 -0.1)">
       <use xlink:href="#DejaVuSans-32"/>
      </g>
     </g>
    </g>
   </g>
   <g id="matplotlib.axis_2">
    <g id="ytick_1">
     <g id="line2d_7">
      <defs>
       <path id="m6f85ad0c24" d="M 0 0 
L -3.5 0 
" style="stroke: #000000; stroke-width: 0.8"/>
      </defs>
      <g>
       <use xlink:href="#m6f85ad0c24" x="45" y="320.4" style="stroke: #000000; stroke-width: 0.8"/>
      </g>
     </g>
     <g id="text_7">
      <!-- −3 -->
      <g transform="translate(23.257812 324.199219)scale(0.1 -0.1)">
       <use xlink:href="#DejaVuSans-2212"/>
       <use xlink:href="#DejaVuSans-33" x="83.789062"/>
      </g>
     </g>
    </g>
    <g id="ytick_2">
     <g id="line2d_8">
      <g>
       <use xlink:href="#m6f85ad0c24" x="45" y="274.045485" style="stroke: #000000; stroke-width: 0.8"/>
      </g>
     </g>
     <g id="text_8">
      <!-- −2 -->
      <g transform="translate(23.257812 277.844704)scale(0.1 -0.1)">
       <use xlink:href="#DejaVuSans-2212"/>
       <use xlink:href="#DejaVuSans-32" x="83.789062"/>
      </g>
     </g>
    </g>
    <g id="ytick_3">
     <g id="line2d_9">
      <g>
       <use xlink:href="#m6f85ad0c24" x="45" y="227.69097" style="stroke: #000000; stroke-width: 0.8"/>
      </g>
     </g>
     <g id="text_9">
      <!-- −1 -->
      <g transform="translate(23.257812 231.490189)scale(0.1 -0.1)">
       <use xlink:href="#DejaVuSans-2212"/>
       <use xlink:href="#DejaVuSans-31" x="83.789062"/>
      </g>
     </g>
    </g>
    <g id="ytick_4">
     <g id="line2d_10">
      <g>
       <use xlink:href="#m6f85ad0c24" x="45" y="181.336455" style="stroke: #000000; stroke-width: 0.8"/>
      </g>
     </g>
     <g id="text_10">
      <!-- 0 -->
      <g transform="translate(31.6375 185.135674)scale(0.1 -0.1)">
       <use xlink:href="#DejaVuSans-30"/>
      </g>
     </g>
    </g>
    <g id="ytick_5">
     <g id="line2d_11">
      <g>
       <use xlink:href="#m6f85ad0c24" x="45" y="134.98194" style="stroke: #000000; stroke-width: 0.8"/>
      </g>
     </g>
     <g id="text_11">
      <!-- 1 -->
      <g transform="translate(31.6375 138.781159)scale(0.1 -0.1)">
       <use xlink:href="#DejaVuSans-31"/>
      </g>
     </g>
    </g>
    <g id="ytick_6">
     <g id="line2d_12">
      <g>
       <use xlink:href="#m6f85ad0c24" x="45" y="88.627425" style="stroke: #000000; stroke-width: 0.8"/>
      </g>
     </g>
     <g id="text_12">
      <!-- 2 -->
      <g transform="translate(31.6375 92.426643)scale(0.1 -0.1)">
       <use xlink:href="#DejaVuSans-32"/>
      </g>
     </g>
    </g>
   </g>
   <g id="PathCollection_2">
    <path d="M 193.364548 195.244496 
L 193.322756 195.242809 
L 192.431438 195.212101 
L 191.498328 195.024772 
L 190.565217 194.828944 
L 189.632107 194.621028 
L 188.698997 194.378339 
L 188.473265 194.315719 
L 187.765886 194.12821 
L 186.832776 193.861472 
L 185.899666 193.539174 
L 185.440949 193.388629 
L 184.966555 193.232467 
L 184.033445 193.024156 
L 183.100334 193.030909 
L 182.167224 193.058017 
L 181.234114 193.085131 
L 180.301003 193.112237 
L 179.367893 193.105927 
L 178.434783 193.046273 
L 177.501672 192.973029 
L 176.568562 192.758164 
L 175.785423 192.461538 
L 175.635452 192.398834 
L 174.702341 191.947463 
L 174.057111 191.534448 
L 173.769231 191.274496 
L 173.229525 190.607358 
L 172.83612 190.201382 
L 172.316755 189.680268 
L 171.90301 189.245712 
L 171.414538 188.753177 
L 170.9699 188.223059 
L 170.645026 187.826087 
L 170.036789 187.084855 
L 169.885562 186.898997 
L 169.399995 185.971906 
L 169.210152 185.044816 
L 169.103679 184.466735 
L 169.040941 184.117726 
L 168.862945 183.190635 
L 168.475445 182.263545 
L 168.170569 181.549343 
L 168.086225 181.336455 
L 167.726397 180.409365 
L 167.378028 179.482274 
L 167.237458 179.019553 
L 167.09017 178.555184 
L 166.802343 177.628094 
L 166.522379 176.701003 
L 166.304348 175.96086 
L 166.24972 175.773913 
L 165.957028 174.846823 
L 165.667525 173.919732 
L 165.455805 172.992642 
L 165.376741 172.065552 
L 165.371237 172.00102 
L 165.293921 171.138462 
L 165.179053 170.211371 
L 165.056193 169.284281 
L 164.931206 168.357191 
L 164.802505 167.4301 
L 164.507692 166.50301 
L 164.438127 166.331473 
L 164.122296 165.57592 
L 163.723461 164.648829 
L 163.505017 164.138141 
L 163.323759 163.721739 
L 163.009914 162.794649 
L 162.835295 161.867559 
L 162.67597 160.940468 
L 162.571906 160.243977 
L 162.539727 160.013378 
L 162.491815 159.086288 
L 162.571906 158.674916 
L 162.683427 158.159197 
L 162.851736 157.232107 
L 163.00072 156.305017 
L 163.037371 155.377926 
L 162.928528 154.450836 
L 162.785109 153.523746 
L 162.615132 152.596656 
L 162.571906 152.492887 
L 162.194511 151.669565 
L 161.924627 150.742475 
L 161.749775 149.815385 
L 161.820958 148.888294 
L 162.304291 147.961204 
L 162.571906 147.517701 
L 162.836861 147.034114 
L 163.359176 146.107023 
L 163.505017 145.857244 
L 163.901055 145.179933 
L 164.438127 144.405843 
L 164.544281 144.252843 
L 165.187508 143.325753 
L 165.371237 143.06094 
L 165.895056 142.398662 
L 166.304348 141.92593 
L 166.73085 141.471572 
L 167.237458 140.971977 
L 167.685237 140.544482 
L 168.170569 140.107226 
L 168.875291 139.617391 
L 169.103679 139.466285 
L 170.036789 138.816506 
L 170.231708 138.690301 
L 170.9699 138.210436 
L 171.630997 137.763211 
L 171.90301 137.567289 
L 172.83612 136.94486 
L 173.093271 136.83612 
L 173.769231 136.541752 
L 174.702341 136.095911 
L 175.082081 135.90903 
L 175.635452 135.631987 
L 176.568562 135.110722 
L 176.793225 134.98194 
L 177.501672 134.576096 
L 178.421904 134.054849 
L 178.434783 134.047478 
L 179.367893 133.527832 
L 180.301003 133.20374 
L 181.234114 133.130545 
L 181.389581 133.127759 
L 182.167224 133.113735 
L 183.100334 133.103899 
L 184.033445 133.093998 
L 184.966555 133.109122 
L 185.585559 133.127759 
L 185.899666 133.137207 
L 186.102841 133.127759 
L 186.832776 133.0934 
L 187.765886 133.047697 
L 188.698997 133.001993 
L 189.632107 132.959745 
L 190.565217 132.920533 
L 191.498328 132.946452 
L 192.431438 133.09623 
L 192.619248 133.127759 
L 193.364548 133.244507 
L 194.297659 133.390109 
L 195.230769 133.90265 
L 195.51191 134.054849 
L 196.16388 134.40377 
L 197.09699 134.842814 
L 197.325228 134.98194 
L 198.0301 135.733566 
L 198.233925 135.90903 
L 198.963211 136.391022 
L 199.896321 136.812594 
L 199.945864 136.83612 
L 200.829431 137.2947 
L 201.489491 137.763211 
L 201.762542 137.969221 
L 202.62557 138.690301 
L 202.695652 138.76142 
L 203.336295 139.617391 
L 203.628763 140.115158 
L 203.899484 140.544482 
L 204.456193 141.471572 
L 204.561873 141.648694 
L 204.97537 142.398662 
L 205.397342 143.325753 
L 205.494983 143.554628 
L 205.762432 144.252843 
L 206.094109 145.179933 
L 206.399425 146.107023 
L 206.428094 146.196466 
L 206.697283 147.034114 
L 206.968322 147.961204 
L 207.361204 148.765955 
L 207.429758 148.888294 
L 207.962266 149.815385 
L 208.294314 150.40395 
L 208.473196 150.742475 
L 208.92627 151.669565 
L 209.125967 152.596656 
L 209.220679 153.523746 
L 209.227425 153.589782 
L 209.321191 154.450836 
L 209.513537 155.377926 
L 209.870344 156.305017 
L 210.160535 157.02174 
L 210.24571 157.232107 
L 210.621076 158.159197 
L 210.996443 159.086288 
L 211.093645 159.326362 
L 211.371805 160.013378 
L 211.747169 160.940468 
L 212.026756 161.630994 
L 212.11939 161.867559 
L 212.514639 162.794649 
L 212.925642 163.721739 
L 212.959866 163.811558 
L 213.271937 164.648829 
L 213.594148 165.57592 
L 213.870016 166.50301 
L 213.892977 166.577069 
L 214.158712 167.4301 
L 214.444865 168.357191 
L 214.760642 169.284281 
L 214.826087 169.460264 
L 215.095468 170.211371 
L 215.374741 171.138462 
L 215.744223 172.065552 
L 215.759197 172.0982 
L 216.152912 172.992642 
L 216.592555 173.919732 
L 216.692308 174.140949 
L 217.009332 174.846823 
L 217.068704 175.773913 
L 217.11155 176.701003 
L 217.194139 177.628094 
L 217.353533 178.555184 
L 217.274466 179.482274 
L 217.055346 180.409365 
L 216.729182 181.336455 
L 216.692308 181.426487 
L 216.34947 182.263545 
L 215.969762 183.190635 
L 215.759197 183.720877 
L 215.60805 184.117726 
L 215.261716 185.044816 
L 214.826087 185.941484 
L 214.809357 185.971906 
L 214.261003 186.898997 
L 213.892977 187.506294 
L 213.680875 187.826087 
L 213.036587 188.753177 
L 212.959866 188.842516 
L 212.026756 189.612605 
L 211.947848 189.680268 
L 211.093645 190.48111 
L 210.958984 190.607358 
L 210.160535 191.196345 
L 209.585292 191.534448 
L 209.227425 191.714309 
L 208.294314 192.170226 
L 207.710061 192.461538 
L 207.361204 192.618541 
L 206.428094 193.034571 
L 205.494983 193.268145 
L 204.561873 193.314994 
L 203.674293 193.388629 
L 203.628763 193.39224 
L 202.695652 193.466949 
L 201.762542 193.558305 
L 200.829431 193.728763 
L 199.896321 193.920113 
L 198.963211 194.111273 
L 198.0301 194.302254 
L 197.964281 194.315719 
L 197.09699 194.49866 
L 196.16388 194.694637 
L 195.230769 194.892572 
L 194.297659 195.09019 
L 193.373289 195.242809 
L 193.364548 195.244496 
z
" clip-path="url(#p4f454d4cd6)" style="fill: none; stroke-dasharray: 5.55,2.4; stroke-dashoffset: 0; stroke: #000000; stroke-width: 1.5"/>
   </g>
   <g id="PathCollection_3">
    <path d="M 197.09699 217.566604 
L 194.297659 217.391345 
L 191.498328 217.239757 
L 187.765886 216.738325 
L 184.033445 216.985647 
L 176.568562 217.434928 
L 174.702341 217.353705 
L 172.83612 217.041475 
L 171.90301 216.852683 
L 169.103679 216.704252 
L 166.304348 216.375664 
L 164.128629 215.638796 
L 163.505017 215.40073 
L 160.525232 213.784615 
L 156.040134 210.637405 
L 151.806892 206.367893 
L 151.374582 205.434572 
L 150.266741 203.586622 
L 147.995833 198.951171 
L 147.64214 197.70567 
L 147.415212 196.1699 
L 146.952401 193.388629 
L 145.232355 189.680268 
L 144.534486 186.898997 
L 143.84252 182.263545 
L 143.407201 180.409365 
L 142.976589 179.2754 
L 142.644566 178.555184 
L 141.74802 174.846823 
L 141.110368 171.861562 
L 140.920441 170.211371 
L 140.592306 168.357191 
L 139.990389 163.721739 
L 139.523818 161.867559 
L 139.244147 160.863549 
L 139.103629 159.086288 
L 138.776221 158.159197 
L 138.27487 154.450836 
L 138.311037 153.120065 
L 138.609032 151.669565 
L 138.775626 150.742475 
L 139.233227 148.888294 
L 139.244147 148.560455 
L 139.575413 147.034114 
L 140.321444 140.544482 
L 140.641797 139.617391 
L 142.043478 136.753701 
L 148.731548 128.492308 
L 153.240803 123.333623 
L 154.816224 122.002676 
L 156.973244 119.837982 
L 160.01084 117.367224 
L 161.638796 116.23597 
L 166.304348 113.389781 
L 167.237458 113.087885 
L 169.103679 112.69708 
L 171.90301 112.065788 
L 178.434783 111.153369 
L 181.234114 110.984265 
L 184.033445 110.573451 
L 189.632107 109.90732 
L 191.498328 109.731022 
L 193.364548 110.054738 
L 196.908763 110.877592 
L 198.0301 111.243294 
L 201.762542 112.487304 
L 204.561873 113.123707 
L 206.428094 113.932624 
L 209.427114 115.513043 
L 212.959866 117.781378 
L 218.558528 122.045274 
L 220.550412 124.783946 
L 222.306881 127.565217 
L 227.656796 134.98194 
L 228.345341 136.83612 
L 228.931475 138.690301 
L 229.480559 140.544482 
L 229.755853 141.675958 
L 230.688963 143.637059 
L 231.929657 146.107023 
L 232.706962 147.961204 
L 233.488294 151.310333 
L 236.287625 160.40315 
L 237.52448 165.57592 
L 238.671789 170.211371 
L 239.377065 173.919732 
L 239.76222 181.336455 
L 239.774403 184.117726 
L 239.661396 185.044816 
L 237.953211 189.680268 
L 235.88746 196.1699 
L 234.897601 198.02408 
L 232.281288 201.732441 
L 230.406828 203.586622 
L 227.889632 205.576663 
L 226.831973 206.367893 
L 223.22408 208.546259 
L 222.29097 209.171945 
L 218.558528 212.155523 
L 217.37109 212.857525 
L 210.160535 215.268992 
L 202.695652 217.246208 
L 199.896321 217.805233 
L 198.0301 217.665933 
L 197.09699 217.566604 
L 197.09699 217.566604 
" clip-path="url(#p4f454d4cd6)" style="fill: none; stroke: #000000; stroke-width: 1.5"/>
   </g>
   <g id="PathCollection_4">
    <path d="M 171.90301 240.774615 
L 171.498774 240.670234 
L 170.9699 240.533668 
L 170.036789 240.352412 
L 169.103679 240.202531 
L 168.170569 240.035176 
L 167.237458 239.852008 
L 166.681806 239.743144 
L 166.304348 239.669107 
L 165.371237 239.48366 
L 164.438127 239.266738 
L 163.505017 239.032667 
L 162.641462 238.816054 
L 162.571906 238.798607 
L 161.638796 238.564561 
L 160.705686 238.329566 
L 159.772575 238.137177 
L 158.841957 237.888963 
L 158.839465 237.888299 
L 157.906355 237.626539 
L 156.973244 237.334611 
L 156.040134 237.044782 
L 155.791485 236.961873 
L 155.107023 236.72827 
L 154.173913 236.347998 
L 153.405368 236.034783 
L 153.240803 235.967715 
L 152.307692 235.587416 
L 151.374582 235.188761 
L 151.189432 235.107692 
L 150.441472 234.778583 
L 149.508361 234.367996 
L 149.082482 234.180602 
L 148.575251 233.957412 
L 147.64214 233.53911 
L 147.075038 233.253512 
L 146.70903 233.069189 
L 145.77592 232.597291 
L 145.30998 232.326421 
L 144.842809 232.04067 
L 143.909699 231.46459 
L 143.805086 231.399331 
L 142.976589 230.870671 
L 142.352182 230.472241 
L 142.043478 230.27526 
L 141.110368 229.568684 
L 141.083861 229.545151 
L 140.177258 228.726918 
L 140.059384 228.61806 
L 139.244147 227.862291 
L 139.059342 227.69097 
L 138.311037 226.99725 
L 138.059301 226.76388 
L 137.377926 226.132209 
L 137.059252 225.836789 
L 136.444816 225.26718 
L 136.059212 224.909699 
L 135.511706 224.381576 
L 135.127577 223.982609 
L 134.578595 223.319244 
L 134.361405 223.055518 
L 133.645485 222.232995 
L 133.554471 222.128428 
L 132.747573 221.201338 
L 132.712375 221.151095 
L 132.201523 220.274247 
L 131.779264 219.458087 
L 131.723481 219.347157 
L 131.276688 218.420067 
L 130.846154 217.530188 
L 130.828696 217.492977 
L 130.393724 216.565886 
L 129.959186 215.638796 
L 129.913043 215.542502 
L 129.523191 214.711706 
L 129.091428 213.784615 
L 128.979933 213.547494 
L 128.656732 212.857525 
L 128.222476 211.930435 
L 128.046823 211.555456 
L 127.785038 211.003344 
L 127.322966 210.076254 
L 127.113712 209.695779 
L 126.786885 209.149164 
L 126.180602 208.253872 
L 126.162496 208.222074 
L 125.954488 207.294983 
L 125.645659 206.367893 
L 125.350063 205.440803 
L 125.247492 205.115551 
L 125.058501 204.513712 
L 124.75641 203.586622 
L 124.452825 202.659532 
L 124.314381 202.23827 
L 124.147565 201.732441 
L 123.841802 200.805351 
L 123.536051 199.878261 
L 123.381271 199.367325 
L 123.260374 198.951171 
L 123.120131 198.02408 
L 122.984771 197.09699 
L 122.775515 196.1699 
L 122.465572 195.242809 
L 122.448161 195.19073 
L 122.155622 194.315719 
L 121.845663 193.388629 
L 121.535742 192.461538 
L 121.51505 192.399653 
L 121.225983 191.534448 
L 120.912771 190.607358 
L 120.58194 189.773615 
L 120.54534 189.680268 
L 120.213755 188.753177 
L 120.010164 187.826087 
L 119.806564 186.898997 
L 119.648829 186.180721 
L 119.60343 185.971906 
L 119.401073 185.044816 
L 119.197429 184.117726 
L 119.020895 183.190635 
L 118.975752 182.263545 
L 119.013474 181.336455 
L 119.056064 180.409365 
L 119.098903 179.482274 
L 119.133608 178.555184 
L 118.999595 177.628094 
L 118.867725 176.701003 
L 118.735865 175.773913 
L 118.715719 175.632272 
L 118.60405 174.846823 
L 118.461354 173.919732 
L 118.265395 172.992642 
L 117.833103 172.065552 
L 117.782609 171.934441 
L 117.51541 171.138462 
L 117.370345 170.211371 
L 117.222509 169.284281 
L 117.105929 168.357191 
L 117.007508 167.4301 
L 116.909078 166.50301 
L 116.849498 165.978078 
L 116.803895 165.57592 
L 116.691274 164.648829 
L 116.637199 163.721739 
L 116.677914 162.794649 
L 116.718637 161.867559 
L 116.696978 160.940468 
L 116.669575 160.013378 
L 116.699796 159.086288 
L 116.732177 158.159197 
L 116.76464 157.232107 
L 116.799989 156.305017 
L 116.780229 155.377926 
L 116.721934 154.450836 
L 116.663654 153.523746 
L 116.590748 152.596656 
L 116.510122 151.669565 
L 116.429492 150.742475 
L 116.528853 149.815385 
L 116.682562 148.888294 
L 116.836256 147.961204 
L 116.849498 147.885131 
L 116.999504 147.034114 
L 117.180172 146.107023 
L 117.360854 145.179933 
L 117.541529 144.252843 
L 117.72219 143.325753 
L 117.782609 143.015733 
L 117.902865 142.398662 
L 118.078433 141.471572 
L 118.252308 140.544482 
L 118.424455 139.617391 
L 118.596595 138.690301 
L 118.715719 138.022349 
L 118.76051 137.763211 
L 118.913147 136.83612 
L 119.026303 135.90903 
L 119.117429 134.98194 
L 119.223322 134.054849 
L 119.595545 133.127759 
L 119.648829 132.988698 
L 119.942395 132.200669 
L 120.294403 131.273579 
L 120.58194 130.477802 
L 120.628676 130.346488 
L 120.958638 129.419398 
L 121.288593 128.492308 
L 121.51505 127.856041 
L 121.618559 127.565217 
L 121.966736 126.638127 
L 122.448161 125.80125 
L 122.504938 125.711037 
L 123.093626 124.783946 
L 123.381271 124.331638 
L 123.683564 123.856856 
L 124.274133 122.929766 
L 124.314381 122.866613 
L 124.866124 122.002676 
L 125.247492 121.403575 
L 125.456703 121.075585 
L 126.048291 120.148495 
L 126.180602 119.942295 
L 126.643596 119.221405 
L 127.113712 118.488389 
L 127.238434 118.294314 
L 127.832953 117.367224 
L 128.046823 117.033929 
L 128.427856 116.440134 
L 128.979933 115.661421 
L 129.092277 115.513043 
L 129.807094 114.585953 
L 129.913043 114.448535 
L 130.521872 113.658863 
L 130.846154 113.238276 
L 131.236685 112.731773 
L 131.779264 112.028043 
L 131.951472 111.804682 
L 132.668044 110.877592 
L 132.712375 110.820258 
L 133.384862 109.950502 
L 133.645485 109.595463 
L 134.047964 109.023411 
L 134.578595 108.256879 
L 134.692545 108.096321 
L 135.460114 107.169231 
L 135.511706 107.108081 
L 136.388814 106.24214 
L 136.444816 106.196893 
L 137.377926 105.54566 
L 137.708164 105.31505 
L 138.311037 104.894173 
L 139.016059 104.38796 
L 139.244147 104.223987 
L 140.177258 103.561577 
L 140.322423 103.46087 
L 141.110368 102.914249 
L 141.719566 102.533779 
L 142.043478 102.339585 
L 142.976589 101.764677 
L 143.207762 101.606689 
L 143.909699 101.102432 
L 144.476268 100.679599 
L 144.842809 100.40604 
L 145.718467 99.752508 
L 145.77592 99.70963 
L 146.70903 99.013237 
L 146.960694 98.825418 
L 147.64214 98.316841 
L 148.246967 97.898328 
L 148.575251 97.679127 
L 149.508361 97.085952 
L 149.715782 96.971237 
L 150.441472 96.565907 
L 151.191186 96.044147 
L 151.374582 95.916515 
L 152.307692 95.265556 
L 152.520434 95.117057 
L 153.240803 94.659012 
L 154.173913 94.221216 
L 154.242638 94.189967 
L 155.107023 93.79315 
L 156.040134 93.357606 
L 156.249334 93.262876 
L 156.973244 92.93964 
L 157.906355 92.529424 
L 158.392889 92.335786 
L 158.839465 92.158055 
L 159.772575 91.786686 
L 160.705686 91.41529 
L 160.722977 91.408696 
L 161.638796 91.074292 
L 162.571906 90.865681 
L 163.505017 90.652117 
L 164.25004 90.481605 
L 164.438127 90.438559 
L 165.371237 90.225006 
L 166.304348 90.010948 
L 167.237458 89.793228 
L 168.170569 89.584232 
L 168.339188 89.554515 
L 169.103679 89.422286 
L 170.036789 89.279409 
L 170.9699 89.136534 
L 171.90301 88.993754 
L 172.83612 88.85148 
L 173.769231 88.711641 
L 174.417529 88.627425 
L 174.702341 88.589456 
L 175.635452 88.411845 
L 176.568562 88.309755 
L 177.501672 88.217184 
L 178.434783 88.124588 
L 179.367893 88.031997 
L 180.301003 87.939402 
L 181.234114 87.846815 
L 182.167224 87.754231 
L 182.689143 87.700334 
L 183.100334 87.655921 
L 184.033445 87.497194 
L 184.966555 87.340208 
L 185.899666 87.233527 
L 186.832776 87.127848 
L 187.765886 87.064374 
L 188.698997 87.115502 
L 189.632107 87.166618 
L 190.565217 87.217729 
L 191.498328 87.268845 
L 192.431438 87.31998 
L 193.364548 87.403892 
L 194.297659 87.597369 
L 194.794215 87.700334 
L 195.230769 87.79086 
L 196.16388 87.984349 
L 197.09699 88.181035 
L 198.0301 88.376082 
L 198.963211 88.568615 
L 199.2478 88.627425 
L 199.896321 88.761443 
L 200.829431 88.954282 
L 201.762542 89.125121 
L 202.695652 89.211555 
L 203.628763 89.297991 
L 204.561873 89.39241 
L 205.494983 89.517013 
L 205.831447 89.554515 
L 206.428094 89.619982 
L 207.361204 89.682033 
L 208.294314 89.900678 
L 209.227425 90.193849 
L 210.117452 90.481605 
L 210.160535 90.495535 
L 211.093645 90.800562 
L 212.026756 91.263497 
L 212.280589 91.408696 
L 212.959866 91.797252 
L 213.892977 92.27999 
L 214.002421 92.335786 
L 214.826087 92.74966 
L 215.759197 93.218372 
L 215.847818 93.262876 
L 216.692308 93.680923 
L 217.625418 94.142848 
L 217.720602 94.189967 
L 218.558528 94.613473 
L 219.490126 95.117057 
L 219.491639 95.117887 
L 220.424749 95.636878 
L 221.132968 96.044147 
L 221.35786 96.176956 
L 222.29097 96.780175 
L 222.572998 96.971237 
L 223.22408 97.423565 
L 223.873818 97.898328 
L 224.157191 98.110485 
L 225.090301 98.809093 
L 225.112106 98.825418 
L 226.023411 99.507694 
L 226.350412 99.752508 
L 226.956522 100.206296 
L 227.588693 100.679599 
L 227.889632 100.905615 
L 228.822393 101.606689 
L 228.822742 101.606952 
L 229.755853 102.371708 
L 229.940654 102.533779 
L 230.688963 103.159112 
L 231.066855 103.46087 
L 231.622074 103.90458 
L 232.227521 104.38796 
L 232.555184 104.649762 
L 233.388662 105.31505 
L 233.488294 105.394635 
L 234.421405 106.231977 
L 234.430486 106.24214 
L 235.184986 107.169231 
L 235.354515 107.377539 
L 235.939723 108.096321 
L 236.287625 108.523606 
L 236.694788 109.023411 
L 237.220736 109.669048 
L 237.450017 109.950502 
L 238.153846 110.785795 
L 238.232432 110.877592 
L 239.027033 111.804682 
L 239.086957 111.874598 
L 239.82162 112.731773 
L 240.020067 112.963305 
L 240.616229 113.658863 
L 240.953177 114.052003 
L 241.41082 114.585953 
L 241.886288 115.21002 
L 242.107091 115.513043 
L 242.799768 116.440134 
L 242.819398 116.465841 
L 243.508782 117.367224 
L 243.752508 117.682216 
L 244.258862 118.294314 
L 244.685619 118.809488 
L 245.016809 119.221405 
L 245.618729 120.015218 
L 245.718995 120.148495 
L 246.415348 121.075585 
L 246.551839 121.261506 
L 247.011782 122.002676 
L 247.388235 122.929766 
L 247.48495 123.168781 
L 247.769365 123.856856 
L 248.144119 124.783946 
L 248.41806 125.483593 
L 248.507115 125.711037 
L 248.870132 126.638127 
L 249.227664 127.565217 
L 249.351171 127.888236 
L 249.596514 128.492308 
L 250.088388 129.419398 
L 250.284281 129.775144 
L 250.598898 130.346488 
L 251.109415 131.273579 
L 251.217391 131.469657 
L 251.619927 132.200669 
L 252.121305 133.127759 
L 252.150502 133.190514 
L 252.5312 134.054849 
L 252.85902 134.98194 
L 253.083612 135.617105 
L 253.186835 135.90903 
L 253.514662 136.83612 
L 253.837112 137.763211 
L 254.016722 138.177174 
L 254.242039 138.690301 
L 254.684184 139.617391 
L 254.949833 140.177051 
L 255.123624 140.544482 
L 255.555571 141.471572 
L 255.882943 142.212132 
L 255.966491 142.398662 
L 256.369414 143.325753 
L 256.697904 144.252843 
L 256.816054 144.716002 
L 256.931358 145.179933 
L 257.184462 146.107023 
L 257.43756 147.034114 
L 257.690663 147.961204 
L 257.749164 148.181197 
L 257.938525 148.888294 
L 258.167124 149.815385 
L 258.386005 150.742475 
L 258.598206 151.669565 
L 258.682274 152.033028 
L 258.816135 152.596656 
L 259.0485 153.523746 
L 259.263863 154.450836 
L 259.447062 155.377926 
L 259.615385 156.229767 
L 259.630254 156.305017 
L 259.813439 157.232107 
L 259.996621 158.159197 
L 260.179815 159.086288 
L 260.363004 160.013378 
L 260.546187 160.940468 
L 260.548495 160.951326 
L 260.743331 161.867559 
L 260.949661 162.794649 
L 261.155987 163.721739 
L 261.336849 164.648829 
L 261.481605 165.448847 
L 261.504361 165.57592 
L 261.670373 166.50301 
L 261.836373 167.4301 
L 262.066698 168.357191 
L 262.314818 169.284281 
L 262.414716 169.657555 
L 262.562935 170.211371 
L 262.811057 171.138462 
L 262.93424 172.065552 
L 262.882929 172.992642 
L 262.830441 173.919732 
L 262.812418 174.846823 
L 262.842532 175.773913 
L 262.872657 176.701003 
L 262.902383 177.628094 
L 262.934578 178.555184 
L 262.964037 179.482274 
L 262.987104 180.409365 
L 263.006399 181.336455 
L 263.02706 182.263545 
L 263.047714 183.190635 
L 263.068377 184.117726 
L 263.089036 185.044816 
L 263.1097 185.971906 
L 263.118829 186.898997 
L 263.117033 187.826087 
L 263.105284 188.753177 
L 263.06098 189.680268 
L 262.994578 190.607358 
L 262.638708 191.534448 
L 262.414716 192.049361 
L 262.238658 192.461538 
L 261.802051 193.388629 
L 261.481605 194.069063 
L 261.365447 194.315719 
L 260.928848 195.242809 
L 260.548495 196.091741 
L 260.514572 196.1699 
L 260.16069 197.09699 
L 259.804619 198.02408 
L 259.615385 198.45388 
L 259.381707 198.951171 
L 258.934486 199.878261 
L 258.682274 200.401137 
L 258.487614 200.805351 
L 258.040106 201.732441 
L 257.749164 202.374223 
L 257.622681 202.659532 
L 257.220578 203.586622 
L 256.816054 204.509004 
L 256.813962 204.513712 
L 256.390527 205.440803 
L 256.027554 206.367893 
L 255.882943 206.732555 
L 255.65653 207.294983 
L 255.28925 208.222074 
L 254.949833 209.095471 
L 254.928485 209.149164 
L 254.555743 210.076254 
L 254.188225 211.003344 
L 254.016722 211.356845 
L 253.696486 211.930435 
L 253.083612 212.783344 
L 253.028455 212.857525 
L 252.338666 213.784615 
L 252.150502 214.023807 
L 251.583117 214.711706 
L 251.217391 215.124078 
L 250.759312 215.638796 
L 250.284281 216.172558 
L 249.934226 216.565886 
L 249.351171 217.192191 
L 249.047726 217.492977 
L 248.41806 218.084661 
L 248.055142 218.420067 
L 247.48495 218.947038 
L 247.052026 219.347157 
L 246.551839 219.847988 
L 246.132105 220.274247 
L 245.618729 220.779417 
L 245.122165 221.201338 
L 244.685619 221.543465 
L 243.939243 222.128428 
L 243.752508 222.274779 
L 242.819398 223.020309 
L 242.776426 223.055518 
L 241.886288 223.881352 
L 241.790645 223.982609 
L 240.953177 224.82364 
L 240.858383 224.909699 
L 240.020067 225.681007 
L 239.852125 225.836789 
L 239.086957 226.472913 
L 238.726815 226.76388 
L 238.153846 227.226783 
L 237.579269 227.69097 
L 237.220736 227.980633 
L 236.42118 228.61806 
L 236.287625 228.722645 
L 235.354515 229.453169 
L 235.237027 229.545151 
L 234.421405 230.183711 
L 234.052857 230.472241 
L 233.488294 230.914233 
L 232.868685 231.399331 
L 232.555184 231.64477 
L 231.684463 232.326421 
L 231.622074 232.375265 
L 230.688963 233.090976 
L 230.385981 233.253512 
L 229.755853 233.535346 
L 228.822742 233.869358 
L 227.95329 234.180602 
L 227.889632 234.203188 
L 226.956522 234.532018 
L 226.023411 234.85676 
L 225.294283 235.107692 
L 225.090301 235.177883 
L 224.157191 235.498994 
L 223.22408 235.820097 
L 222.600249 236.034783 
L 222.29097 236.141215 
L 221.35786 236.462318 
L 220.424749 236.783404 
L 219.86728 236.961873 
L 219.491639 237.076071 
L 218.558528 237.320045 
L 217.625418 237.543958 
L 216.692308 237.767882 
L 216.187732 237.888963 
L 215.759197 237.991797 
L 214.826087 238.216968 
L 213.892977 238.47705 
L 212.959866 238.763879 
L 212.780193 238.816054 
L 212.026756 239.026386 
L 211.093645 239.228004 
L 210.160535 239.42964 
L 209.227425 239.628871 
L 208.639001 239.743144 
L 208.294314 239.810082 
L 207.361204 239.984542 
L 206.428094 240.165356 
L 205.494983 240.183798 
L 204.561873 240.130096 
L 203.628763 240.106226 
L 202.695652 240.135058 
L 201.762542 240.163891 
L 200.829431 240.204132 
L 199.896321 240.319221 
L 198.963211 240.443419 
L 198.0301 240.56712 
L 197.09699 240.566796 
L 196.16388 240.52221 
L 195.230769 240.477637 
L 194.297659 240.433057 
L 193.364548 240.388481 
L 192.431438 240.343898 
L 191.498328 240.299322 
L 190.565217 240.254744 
L 189.632107 240.210168 
L 188.698997 240.18067 
L 187.765886 240.131777 
L 186.832776 240.112 
L 185.899666 240.201375 
L 184.966555 240.290999 
L 184.033445 240.383399 
L 183.100334 240.466381 
L 182.167224 240.54008 
L 181.234114 240.614499 
L 180.535275 240.670234 
L 180.301003 240.688918 
L 179.367893 240.763328 
L 178.434783 240.837761 
L 177.501672 240.908039 
L 176.568562 240.976227 
L 175.635452 241.044435 
L 174.702341 241.109838 
L 173.769231 241.135804 
L 172.83612 241.015569 
L 171.90301 240.774615 
z
" clip-path="url(#p4f454d4cd6)" style="fill: none; stroke: #000000; stroke-width: 1.5"/>
   </g>
   <g id="patch_3">
    <path d="M 45 320.4 
L 45 43.2 
" style="fill: none; stroke: #000000; stroke-width: 0.8; stroke-linejoin: miter; stroke-linecap: square"/>
   </g>
   <g id="patch_4">
    <path d="M 324 320.4 
L 324 43.2 
" style="fill: none; stroke: #000000; stroke-width: 0.8; stroke-linejoin: miter; stroke-linecap: square"/>
   </g>
   <g id="patch_5">
    <path d="M 45 320.4 
L 324 320.4 
" style="fill: none; stroke: #000000; stroke-width: 0.8; stroke-linejoin: miter; stroke-linecap: square"/>
   </g>
   <g id="patch_6">
    <path d="M 45 43.2 
L 324 43.2 
" style="fill: none; stroke: #000000; stroke-width: 0.8; stroke-linejoin: miter; stroke-linecap: square"/>
   </g>
  </g>
 </g>
 <defs>
  <clipPath id="p4f454d4cd6">
   <rect x="45" y="43.2" width="279" height="277.2"/>
  </clipPath>
 </defs>
</svg>
