<?xml version="1.0" encoding="utf-8" standalone="no"?>
<!DOCTYPE svg PUBLIC "-//W3C//DTD SVG 1.1//EN"
  "http://www.w3.org/Graphics/SVG/1.1/DTD/svg11.dtd">
<svg xmlns:xlink="http://www.w3.org/1999/xlink" width="360pt" height="360pt" viewBox="0 0 360 360" xmlns="http://www.w3.org/2000/svg" version="1.1">
 <metadata>
  <rdf:RDF xmlns:dc="http://purl.org/dc/elements/1.1/" xmlns:cc="http://creativecommons.org/ns#" xmlns:rdf="http://www.w3.org/1999/02/22-rdf-syntax-ns#">
   <cc:Work>
    <dc:type rdf:resource="http://purl.org/dc/dcmitype/StillImage"/>
    <dc:date>2022-04-10T19:53:28.267499</dc:date>
    <dc:format>image/svg+xml</dc:format>
    <dc:creator>
     <cc:Agent>
      <dc:title>Matplotlib v3.5.1, https://matplotlib.org/</dc:title>
     </cc:Agent>
    </dc:creator>
   </cc:Work>
  </rdf:RDF>
 </metadata>
 <defs>
  <style type="text/css">*{stroke-linejoin: round; stroke-linecap: butt}</style>
 </defs>
 <g id="figure_1">
  <g id="patch_1">
   <path d="M 0 360 
L 360 360 
L 360 0 
L 0 0 
z
" style="fill: #ffffff"/>
  </g>
  <g id="axes_1">
   <g id="patch_2">
    <path d="M 45 320.4 
L 324 320.4 
L 324 43.2 
L 45 43.2 
z
" style="fill: #ffffff"/>
   </g>
   <g id="PathCollection_1">
    <defs>
     <path id="m3aaf1c61d7" d="M 0 0.5 
C 0.132602 0.5 0.25979 0.447317 0.353553 0.353553 
C 0.447317 0.25979 0.5 0.132602 0.5 0 
C 0.5 -0.132602 0.447317 -0.25979 0.353553 -0.353553 
C 0.25979 -0.447317 0.132602 -0.5 0 -0.5 
C -0.132602 -0.5 -0.25979 -0.447317 -0.353553 -0.353553 
C -0.447317 -0.25979 -0.5 -0.132602 -0.5 0 
C -0.5 0.132602 -0.447317 0.25979 -0.353553 0.353553 
C -0.25979 0.447317 -0.132602 0.5 0 0.5 
z
" style="stroke: #ff0000"/>
    </defs>
    <g clip-path="url(#pe6da1a01ea)">
     <use xlink:href="#m3aaf1c61d7" x="241.809113" y="181.336455" style="fill: #ff0000; stroke: #ff0000"/>
     <use xlink:href="#m3aaf1c61d7" x="239.192628" y="176.03011" style="fill: #ff0000; stroke: #ff0000"/>
     <use xlink:href="#m3aaf1c61d7" x="235.717845" y="171.306525" style="fill: #ff0000; stroke: #ff0000"/>
     <use xlink:href="#m3aaf1c61d7" x="231.863539" y="167.202191" style="fill: #ff0000; stroke: #ff0000"/>
     <use xlink:href="#m3aaf1c61d7" x="228.087369" y="163.590463" style="fill: #ff0000; stroke: #ff0000"/>
     <use xlink:href="#m3aaf1c61d7" x="224.714307" y="160.227907" style="fill: #ff0000; stroke: #ff0000"/>
     <use xlink:href="#m3aaf1c61d7" x="221.86078" y="156.843567" style="fill: #ff0000; stroke: #ff0000"/>
     <use xlink:href="#m3aaf1c61d7" x="219.422321" y="153.241772" style="fill: #ff0000; stroke: #ff0000"/>
     <use xlink:href="#m3aaf1c61d7" x="217.129151" y="149.381359" style="fill: #ff0000; stroke: #ff0000"/>
     <use xlink:href="#m3aaf1c61d7" x="214.649838" y="145.400619" style="fill: #ff0000; stroke: #ff0000"/>
     <use xlink:href="#m3aaf1c61d7" x="211.706849" y="141.574968" style="fill: #ff0000; stroke: #ff0000"/>
     <use xlink:href="#m3aaf1c61d7" x="208.163188" y="138.218593" style="fill: #ff0000; stroke: #ff0000"/>
     <use xlink:href="#m3aaf1c61d7" x="204.048685" y="135.565334" style="fill: #ff0000; stroke: #ff0000"/>
     <use xlink:href="#m3aaf1c61d7" x="199.517481" y="133.677951" style="fill: #ff0000; stroke: #ff0000"/>
     <use xlink:href="#m3aaf1c61d7" x="194.757919" y="132.429524" style="fill: #ff0000; stroke: #ff0000"/>
     <use xlink:href="#m3aaf1c61d7" x="189.899613" y="131.573412" style="fill: #ff0000; stroke: #ff0000"/>
     <use xlink:href="#m3aaf1c61d7" x="184.966555" y="130.876412" style="fill: #ff0000; stroke: #ff0000"/>
     <use xlink:href="#m3aaf1c61d7" x="179.90254" y="130.252364" style="fill: #ff0000; stroke: #ff0000"/>
     <use xlink:href="#m3aaf1c61d7" x="174.653789" y="129.825165" style="fill: #ff0000; stroke: #ff0000"/>
     <use xlink:href="#m3aaf1c61d7" x="169.257405" y="129.88443" style="fill: #ff0000; stroke: #ff0000"/>
     <use xlink:href="#m3aaf1c61d7" x="163.880141" y="130.75778" style="fill: #ff0000; stroke: #ff0000"/>
     <use xlink:href="#m3aaf1c61d7" x="158.784921" y="132.670079" style="fill: #ff0000; stroke: #ff0000"/>
     <use xlink:href="#m3aaf1c61d7" x="154.248419" y="135.660115" style="fill: #ff0000; stroke: #ff0000"/>
     <use xlink:href="#m3aaf1c61d7" x="150.478309" y="139.583529" style="fill: #ff0000; stroke: #ff0000"/>
     <use xlink:href="#m3aaf1c61d7" x="147.570465" y="144.18163" style="fill: #ff0000; stroke: #ff0000"/>
     <use xlink:href="#m3aaf1c61d7" x="145.516808" y="149.169759" style="fill: #ff0000; stroke: #ff0000"/>
     <use xlink:href="#m3aaf1c61d7" x="144.245678" y="154.303176" style="fill: #ff0000; stroke: #ff0000"/>
     <use xlink:href="#m3aaf1c61d7" x="143.662806" y="159.401575" style="fill: #ff0000; stroke: #ff0000"/>
     <use xlink:href="#m3aaf1c61d7" x="143.666642" y="164.339838" style="fill: #ff0000; stroke: #ff0000"/>
     <use xlink:href="#m3aaf1c61d7" x="144.133448" y="169.029781" style="fill: #ff0000; stroke: #ff0000"/>
     <use xlink:href="#m3aaf1c61d7" x="144.893258" y="173.416807" style="fill: #ff0000; stroke: #ff0000"/>
     <use xlink:href="#m3aaf1c61d7" x="145.729825" y="177.496906" style="fill: #ff0000; stroke: #ff0000"/>
     <use xlink:href="#m3aaf1c61d7" x="146.424467" y="181.336455" style="fill: #ff0000; stroke: #ff0000"/>
     <use xlink:href="#m3aaf1c61d7" x="146.832329" y="185.068117" style="fill: #ff0000; stroke: #ff0000"/>
     <use xlink:href="#m3aaf1c61d7" x="146.952133" y="188.84921" style="fill: #ff0000; stroke: #ff0000"/>
     <use xlink:href="#m3aaf1c61d7" x="146.947396" y="192.795034" style="fill: #ff0000; stroke: #ff0000"/>
     <use xlink:href="#m3aaf1c61d7" x="147.100795" y="196.919776" style="fill: #ff0000; stroke: #ff0000"/>
     <use xlink:href="#m3aaf1c61d7" x="147.718293" y="201.117617" style="fill: #ff0000; stroke: #ff0000"/>
     <use xlink:href="#m3aaf1c61d7" x="149.024584" y="205.197172" style="fill: #ff0000; stroke: #ff0000"/>
     <use xlink:href="#m3aaf1c61d7" x="151.093702" y="208.95584" style="fill: #ff0000; stroke: #ff0000"/>
     <use xlink:href="#m3aaf1c61d7" x="153.839898" y="212.262295" style="fill: #ff0000; stroke: #ff0000"/>
     <use xlink:href="#m3aaf1c61d7" x="157.066688" y="215.113212" style="fill: #ff0000; stroke: #ff0000"/>
     <use xlink:href="#m3aaf1c61d7" x="160.550293" y="217.642222" style="fill: #ff0000; stroke: #ff0000"/>
     <use xlink:href="#m3aaf1c61d7" x="164.124913" y="220.076864" style="fill: #ff0000; stroke: #ff0000"/>
     <use xlink:href="#m3aaf1c61d7" x="167.740562" y="222.655377" style="fill: #ff0000; stroke: #ff0000"/>
     <use xlink:href="#m3aaf1c61d7" x="171.474674" y="225.526281" style="fill: #ff0000; stroke: #ff0000"/>
     <use xlink:href="#m3aaf1c61d7" x="175.492031" y="228.660801" style="fill: #ff0000; stroke: #ff0000"/>
     <use xlink:href="#m3aaf1c61d7" x="179.962975" y="231.8109" style="fill: #ff0000; stroke: #ff0000"/>
     <use xlink:href="#m3aaf1c61d7" x="184.966555" y="234.540003" style="fill: #ff0000; stroke: #ff0000"/>
     <use xlink:href="#m3aaf1c61d7" x="190.418473" y="236.333582" style="fill: #ff0000; stroke: #ff0000"/>
     <use xlink:href="#m3aaf1c61d7" x="196.063281" y="236.763547" style="fill: #ff0000; stroke: #ff0000"/>
     <use xlink:href="#m3aaf1c61d7" x="201.548548" y="235.647293" style="fill: #ff0000; stroke: #ff0000"/>
     <use xlink:href="#m3aaf1c61d7" x="206.559396" y="233.129864" style="fill: #ff0000; stroke: #ff0000"/>
     <use xlink:href="#m3aaf1c61d7" x="210.953741" y="229.641391" style="fill: #ff0000; stroke: #ff0000"/>
     <use xlink:href="#m3aaf1c61d7" x="214.826946" y="225.73737" style="fill: #ff0000; stroke: #ff0000"/>
     <use xlink:href="#m3aaf1c61d7" x="218.463722" y="221.88954" style="fill: #ff0000; stroke: #ff0000"/>
     <use xlink:href="#m3aaf1c61d7" x="222.193776" y="218.3235" style="fill: #ff0000; stroke: #ff0000"/>
     <use xlink:href="#m3aaf1c61d7" x="226.221236" y="214.974865" style="fill: #ff0000; stroke: #ff0000"/>
     <use xlink:href="#m3aaf1c61d7" x="230.511256" y="211.572116" style="fill: #ff0000; stroke: #ff0000"/>
     <use xlink:href="#m3aaf1c61d7" x="234.782154" y="207.79166" style="fill: #ff0000; stroke: #ff0000"/>
     <use xlink:href="#m3aaf1c61d7" x="238.593752" y="203.406257" style="fill: #ff0000; stroke: #ff0000"/>
     <use xlink:href="#m3aaf1c61d7" x="241.480416" y="198.369145" style="fill: #ff0000; stroke: #ff0000"/>
     <use xlink:href="#m3aaf1c61d7" x="243.072722" y="192.819922" style="fill: #ff0000; stroke: #ff0000"/>
     <use xlink:href="#m3aaf1c61d7" x="243.176869" y="187.032682" style="fill: #ff0000; stroke: #ff0000"/>
    </g>
   </g>
   <g id="matplotlib.axis_1">
    <g id="xtick_1">
     <g id="line2d_1">
      <defs>
       <path id="m734d48b9da" d="M 0 0 
L 0 3.5 
" style="stroke: #000000; stroke-width: 0.8"/>
      </defs>
      <g>
       <use xlink:href="#m734d48b9da" x="45" y="320.4" style="stroke: #000000; stroke-width: 0.8"/>
      </g>
     </g>
     <g id="text_1">
      <!-- −3 -->
      <g transform="translate(37.628906 334.998438)scale(0.1 -0.1)">
       <defs>
        <path id="DejaVuSans-2212" d="M 678 2272 
L 4684 2272 
L 4684 1741 
L 678 1741 
L 678 2272 
z
" transform="scale(0.015625)"/>
        <path id="DejaVuSans-33" d="M 2597 2516 
Q 3050 2419 3304 2112 
Q 3559 1806 3559 1356 
Q 3559 666 3084 287 
Q 2609 -91 1734 -91 
Q 1441 -91 1130 -33 
Q 819 25 488 141 
L 488 750 
Q 750 597 1062 519 
Q 1375 441 1716 441 
Q 2309 441 2620 675 
Q 2931 909 2931 1356 
Q 2931 1769 2642 2001 
Q 2353 2234 1838 2234 
L 1294 2234 
L 1294 2753 
L 1863 2753 
Q 2328 2753 2575 2939 
Q 2822 3125 2822 3475 
Q 2822 3834 2567 4026 
Q 2313 4219 1838 4219 
Q 1578 4219 1281 4162 
Q 984 4106 628 3988 
L 628 4550 
Q 988 4650 1302 4700 
Q 1616 4750 1894 4750 
Q 2613 4750 3031 4423 
Q 3450 4097 3450 3541 
Q 3450 3153 3228 2886 
Q 3006 2619 2597 2516 
z
" transform="scale(0.015625)"/>
       </defs>
       <use xlink:href="#DejaVuSans-2212"/>
       <use xlink:href="#DejaVuSans-33" x="83.789062"/>
      </g>
     </g>
    </g>
    <g id="xtick_2">
     <g id="line2d_2">
      <g>
       <use xlink:href="#m734d48b9da" x="91.655518" y="320.4" style="stroke: #000000; stroke-width: 0.8"/>
      </g>
     </g>
     <g id="text_2">
      <!-- −2 -->
      <g transform="translate(84.284425 334.998438)scale(0.1 -0.1)">
       <defs>
        <path id="DejaVuSans-32" d="M 1228 531 
L 3431 531 
L 3431 0 
L 469 0 
L 469 531 
Q 828 903 1448 1529 
Q 2069 2156 2228 2338 
Q 2531 2678 2651 2914 
Q 2772 3150 2772 3378 
Q 2772 3750 2511 3984 
Q 2250 4219 1831 4219 
Q 1534 4219 1204 4116 
Q 875 4013 500 3803 
L 500 4441 
Q 881 4594 1212 4672 
Q 1544 4750 1819 4750 
Q 2544 4750 2975 4387 
Q 3406 4025 3406 3419 
Q 3406 3131 3298 2873 
Q 3191 2616 2906 2266 
Q 2828 2175 2409 1742 
Q 1991 1309 1228 531 
z
" transform="scale(0.015625)"/>
       </defs>
       <use xlink:href="#DejaVuSans-2212"/>
       <use xlink:href="#DejaVuSans-32" x="83.789062"/>
      </g>
     </g>
    </g>
    <g id="xtick_3">
     <g id="line2d_3">
      <g>
       <use xlink:href="#m734d48b9da" x="138.311037" y="320.4" style="stroke: #000000; stroke-width: 0.8"/>
      </g>
     </g>
     <g id="text_3">
      <!-- −1 -->
      <g transform="translate(130.939943 334.998438)scale(0.1 -0.1)">
       <defs>
        <path id="DejaVuSans-31" d="M 794 531 
L 1825 531 
L 1825 4091 
L 703 3866 
L 703 4441 
L 1819 4666 
L 2450 4666 
L 2450 531 
L 3481 531 
L 3481 0 
L 794 0 
L 794 531 
z
" transform="scale(0.015625)"/>
       </defs>
       <use xlink:href="#DejaVuSans-2212"/>
       <use xlink:href="#DejaVuSans-31" x="83.789062"/>
      </g>
     </g>
    </g>
    <g id="xtick_4">
     <g id="line2d_4">
      <g>
       <use xlink:href="#m734d48b9da" x="184.966555" y="320.4" style="stroke: #000000; stroke-width: 0.8"/>
      </g>
     </g>
     <g id="text_4">
      <!-- 0 -->
      <g transform="translate(181.785305 334.998438)scale(0.1 -0.1)">
       <defs>
        <path id="DejaVuSans-30" d="M 2034 4250 
Q 1547 4250 1301 3770 
Q 1056 3291 1056 2328 
Q 1056 1369 1301 889 
Q 1547 409 2034 409 
Q 2525 409 2770 889 
Q 3016 1369 3016 2328 
Q 3016 3291 2770 3770 
Q 2525 4250 2034 4250 
z
M 2034 4750 
Q 2819 4750 3233 4129 
Q 3647 3509 3647 2328 
Q 3647 1150 3233 529 
Q 2819 -91 2034 -91 
Q 1250 -91 836 529 
Q 422 1150 422 2328 
Q 422 3509 836 4129 
Q 1250 4750 2034 4750 
z
" transform="scale(0.015625)"/>
       </defs>
       <use xlink:href="#DejaVuSans-30"/>
      </g>
     </g>
    </g>
    <g id="xtick_5">
     <g id="line2d_5">
      <g>
       <use xlink:href="#m734d48b9da" x="231.622074" y="320.4" style="stroke: #000000; stroke-width: 0.8"/>
      </g>
     </g>
     <g id="text_5">
      <!-- 1 -->
      <g transform="translate(228.440824 334.998438)scale(0.1 -0.1)">
       <use xlink:href="#DejaVuSans-31"/>
      </g>
     </g>
    </g>
    <g id="xtick_6">
     <g id="line2d_6">
      <g>
       <use xlink:href="#m734d48b9da" x="278.277592" y="320.4" style="stroke: #000000; stroke-width: 0.8"/>
      </g>
     </g>
     <g id="text_6">
      <!-- 2 -->
      <g transform="translate(275.096342 334.998438)scale(0.1 -0.1)">
       <use xlink:href="#DejaVuSans-32"/>
      </g>
     </g>
    </g>
   </g>
   <g id="matplotlib.axis_2">
    <g id="ytick_1">
     <g id="line2d_7">
      <defs>
       <path id="m70f3db9b1f" d="M 0 0 
L -3.5 0 
" style="stroke: #000000; stroke-width: 0.8"/>
      </defs>
      <g>
       <use xlink:href="#m70f3db9b1f" x="45" y="320.4" style="stroke: #000000; stroke-width: 0.8"/>
      </g>
     </g>
     <g id="text_7">
      <!-- −3 -->
      <g transform="translate(23.257812 324.199219)scale(0.1 -0.1)">
       <use xlink:href="#DejaVuSans-2212"/>
       <use xlink:href="#DejaVuSans-33" x="83.789062"/>
      </g>
     </g>
    </g>
    <g id="ytick_2">
     <g id="line2d_8">
      <g>
       <use xlink:href="#m70f3db9b1f" x="45" y="274.045485" style="stroke: #000000; stroke-width: 0.8"/>
      </g>
     </g>
     <g id="text_8">
      <!-- −2 -->
      <g transform="translate(23.257812 277.844704)scale(0.1 -0.1)">
       <use xlink:href="#DejaVuSans-2212"/>
       <use xlink:href="#DejaVuSans-32" x="83.789062"/>
      </g>
     </g>
    </g>
    <g id="ytick_3">
     <g id="line2d_9">
      <g>
       <use xlink:href="#m70f3db9b1f" x="45" y="227.69097" style="stroke: #000000; stroke-width: 0.8"/>
      </g>
     </g>
     <g id="text_9">
      <!-- −1 -->
      <g transform="translate(23.257812 231.490189)scale(0.1 -0.1)">
       <use xlink:href="#DejaVuSans-2212"/>
       <use xlink:href="#DejaVuSans-31" x="83.789062"/>
      </g>
     </g>
    </g>
    <g id="ytick_4">
     <g id="line2d_10">
      <g>
       <use xlink:href="#m70f3db9b1f" x="45" y="181.336455" style="stroke: #000000; stroke-width: 0.8"/>
      </g>
     </g>
     <g id="text_10">
      <!-- 0 -->
      <g transform="translate(31.6375 185.135674)scale(0.1 -0.1)">
       <use xlink:href="#DejaVuSans-30"/>
      </g>
     </g>
    </g>
    <g id="ytick_5">
     <g id="line2d_11">
      <g>
       <use xlink:href="#m70f3db9b1f" x="45" y="134.98194" style="stroke: #000000; stroke-width: 0.8"/>
      </g>
     </g>
     <g id="text_11">
      <!-- 1 -->
      <g transform="translate(31.6375 138.781159)scale(0.1 -0.1)">
       <use xlink:href="#DejaVuSans-31"/>
      </g>
     </g>
    </g>
    <g id="ytick_6">
     <g id="line2d_12">
      <g>
       <use xlink:href="#m70f3db9b1f" x="45" y="88.627425" style="stroke: #000000; stroke-width: 0.8"/>
      </g>
     </g>
     <g id="text_12">
      <!-- 2 -->
      <g transform="translate(31.6375 92.426643)scale(0.1 -0.1)">
       <use xlink:href="#DejaVuSans-32"/>
      </g>
     </g>
    </g>
   </g>
   <g id="PathCollection_2">
    <path d="M 189.632107 213.228482 
L 189.305729 212.857525 
L 188.698997 212.021772 
L 188.603872 211.930435 
L 187.765886 211.045148 
L 187.722809 211.003344 
L 186.835892 210.076254 
L 186.832776 210.07309 
L 185.899666 209.181263 
L 185.865029 209.149164 
L 184.966555 208.356019 
L 184.808932 208.222074 
L 184.033445 207.475021 
L 183.870795 207.294983 
L 183.100334 206.447758 
L 183.025007 206.367893 
L 182.175652 205.440803 
L 182.167224 205.432826 
L 181.234114 204.695979 
L 181.011943 204.513712 
L 180.301003 203.953857 
L 179.846207 203.586622 
L 179.367893 203.184915 
L 178.687758 202.659532 
L 178.434783 202.435643 
L 177.559263 201.732441 
L 177.501672 201.674403 
L 176.673086 200.805351 
L 176.568562 200.681343 
L 175.878356 199.878261 
L 175.635452 199.607917 
L 174.970354 198.951171 
L 174.702341 198.680627 
L 174.148928 198.02408 
L 173.792141 197.09699 
L 173.769231 197.002927 
L 173.569363 196.1699 
L 173.366639 195.242809 
L 173.201628 194.315719 
L 173.036907 193.388629 
L 172.866466 192.461538 
L 172.83612 192.380731 
L 172.529923 191.534448 
L 172.193779 190.607358 
L 171.927537 189.680268 
L 171.90301 189.581623 
L 171.696316 188.753177 
L 171.414105 187.826087 
L 171.153151 186.898997 
L 170.9699 186.099004 
L 170.942228 185.971906 
L 170.738496 185.044816 
L 170.519172 184.117726 
L 170.318067 183.190635 
L 170.238837 182.263545 
L 170.159606 181.336455 
L 170.036789 180.85959 
L 169.923355 180.409365 
L 169.614702 179.482274 
L 169.306057 178.555184 
L 169.103679 177.947308 
L 168.997458 177.628094 
L 168.790382 176.701003 
L 168.692632 175.773913 
L 168.617829 174.846823 
L 168.571544 173.919732 
L 168.513002 172.992642 
L 168.453771 172.065552 
L 168.241908 171.138462 
L 168.170569 170.730431 
L 168.079725 170.211371 
L 168.070185 169.284281 
L 168.001624 168.357191 
L 167.896758 167.4301 
L 167.791895 166.50301 
L 167.686551 165.57592 
L 167.583096 164.648829 
L 167.417368 163.721739 
L 167.237458 162.835085 
L 167.229428 162.794649 
L 167.071303 161.867559 
L 166.712838 160.940468 
L 166.325317 160.013378 
L 166.304348 159.949749 
L 166.016654 159.086288 
L 165.882487 158.159197 
L 166.304348 157.54854 
L 166.63013 157.232107 
L 167.237458 156.652754 
L 167.678232 156.305017 
L 168.170569 155.9768 
L 169.103679 155.439113 
L 169.282827 155.377926 
L 170.036789 155.116338 
L 170.9699 154.795063 
L 171.90301 154.464892 
L 171.942556 154.450836 
L 172.83612 154.132813 
L 173.769231 153.801682 
L 174.702341 153.541324 
L 174.826879 153.523746 
L 175.635452 153.417145 
L 176.568562 153.343122 
L 177.501672 153.313284 
L 178.434783 153.419071 
L 178.735811 153.523746 
L 179.367893 153.823974 
L 180.301003 154.193854 
L 181.088016 154.450836 
L 181.234114 154.49077 
L 182.167224 154.694447 
L 183.100334 154.845678 
L 184.033445 154.861848 
L 184.966555 154.83792 
L 185.899666 154.819561 
L 186.832776 155.04985 
L 187.455472 155.377926 
L 187.765886 155.519093 
L 188.698997 155.819787 
L 189.632107 156.026581 
L 190.565217 156.278736 
L 190.623726 156.305017 
L 191.498328 156.706798 
L 192.431438 157.133641 
L 192.634088 157.232107 
L 193.364548 157.591455 
L 194.297659 158.072681 
L 194.464159 158.159197 
L 195.230769 158.634915 
L 195.664661 159.086288 
L 196.16388 159.863352 
L 196.256955 160.013378 
L 196.837513 160.940468 
L 197.09699 161.324772 
L 197.454733 161.867559 
L 198.0301 162.685434 
L 198.103036 162.794649 
L 198.703587 163.721739 
L 198.963211 164.135728 
L 199.284995 164.648829 
L 199.896321 165.549457 
L 199.915023 165.57592 
L 200.573865 166.50301 
L 200.829431 166.884071 
L 201.200107 167.4301 
L 201.762542 168.273862 
L 201.816814 168.357191 
L 202.382819 169.284281 
L 202.695652 169.75275 
L 203.063038 170.211371 
L 203.628763 170.767467 
L 204.034626 171.138462 
L 204.561873 171.620413 
L 205.048848 172.065552 
L 205.494983 172.473365 
L 206.063069 172.992642 
L 206.428094 173.326304 
L 207.077297 173.919732 
L 207.361204 174.179247 
L 208.091523 174.846823 
L 208.294314 175.034434 
L 209.078058 175.773913 
L 209.227425 175.926699 
L 209.984393 176.701003 
L 210.160535 176.881181 
L 210.894426 177.628094 
L 211.093645 177.824897 
L 211.843676 178.555184 
L 212.026756 178.729703 
L 212.845552 179.482274 
L 212.959866 179.579889 
L 213.892977 180.376674 
L 213.93126 180.409365 
L 214.826087 181.173479 
L 215.013535 181.336455 
L 215.759197 182.209675 
L 215.800675 182.263545 
L 216.406165 183.190635 
L 216.692308 183.633861 
L 217.019952 184.117726 
L 217.625418 185.033054 
L 217.633322 185.044816 
L 218.220656 185.971906 
L 218.558528 186.538253 
L 218.752264 186.898997 
L 219.229516 187.826087 
L 219.491639 188.459073 
L 219.608027 188.753177 
L 219.560262 189.680268 
L 219.491639 189.783801 
L 218.925452 190.607358 
L 218.558528 191.137341 
L 218.291404 191.534448 
L 217.625418 192.458338 
L 217.623125 192.461538 
L 216.992265 193.388629 
L 216.692308 193.684155 
L 215.939504 194.315719 
L 215.759197 194.436937 
L 214.826087 195.080912 
L 214.601849 195.242809 
L 213.892977 195.718212 
L 213.283264 196.1699 
L 212.959866 196.430643 
L 212.156424 197.09699 
L 212.026756 197.200726 
L 211.093645 197.938633 
L 210.979646 198.02408 
L 210.160535 198.658074 
L 209.756592 198.951171 
L 209.227425 199.354798 
L 208.492067 199.878261 
L 208.294314 200.020015 
L 207.361204 200.68197 
L 207.186332 200.805351 
L 206.428094 201.342105 
L 205.874117 201.732441 
L 205.494983 202.000473 
L 204.708009 202.659532 
L 204.561873 202.80962 
L 203.814196 203.586622 
L 203.628763 203.769292 
L 202.695652 204.430582 
L 202.576167 204.513712 
L 201.762542 205.165762 
L 201.454438 205.440803 
L 200.829431 206.022916 
L 200.478053 206.367893 
L 199.896321 206.900447 
L 199.465356 207.294983 
L 198.963211 207.757451 
L 198.480301 208.222074 
L 198.0301 208.655014 
L 197.520529 209.149164 
L 197.09699 209.550221 
L 196.535404 210.076254 
L 196.16388 210.401616 
L 195.515493 211.003344 
L 195.230769 211.257843 
L 194.388865 211.930435 
L 194.297659 212.005524 
L 193.364548 212.81941 
L 193.283244 212.857525 
L 192.431438 213.135328 
L 191.498328 213.371561 
L 190.565217 213.522003 
L 189.632107 213.228482 
z
" clip-path="url(#pe6da1a01ea)" style="fill: none; stroke-dasharray: 5.55,2.4; stroke-dashoffset: 0; stroke: #000000; stroke-width: 1.5"/>
   </g>
   <g id="PathCollection_3">
    <path d="M 187.765886 236.429915 
L 186.888096 236.034783 
L 186.832776 235.999033 
L 185.899666 235.672464 
L 184.966555 235.167885 
L 184.612952 235.107692 
L 184.033445 234.84243 
L 183.100334 234.342552 
L 182.643581 234.180602 
L 182.167224 233.939285 
L 181.234114 233.384162 
L 180.824329 233.253512 
L 180.301003 232.974263 
L 179.367893 232.40212 
L 179.056292 232.326421 
L 178.434783 232.008124 
L 177.501672 231.485163 
L 177.301247 231.399331 
L 176.568562 230.968635 
L 175.724462 230.472241 
L 175.635452 230.407066 
L 174.702341 229.904012 
L 174.198718 229.545151 
L 173.769231 229.236692 
L 173.007024 228.61806 
L 172.83612 228.475655 
L 171.90702 227.69097 
L 171.90301 227.687025 
L 170.9699 226.963774 
L 170.734862 226.76388 
L 170.036789 226.21286 
L 169.601504 225.836789 
L 169.103679 225.436726 
L 168.492334 224.909699 
L 168.170569 224.652714 
L 167.457817 223.982609 
L 167.237458 223.758811 
L 166.431176 223.055518 
L 166.304348 222.946665 
L 165.371237 222.132067 
L 165.366897 222.128428 
L 164.438127 221.351451 
L 164.250211 221.201338 
L 163.505017 220.604699 
L 163.093335 220.274247 
L 162.571906 219.861121 
L 161.967466 219.347157 
L 161.638796 219.084816 
L 160.799473 218.420067 
L 160.705686 218.350616 
L 159.772575 217.640346 
L 159.598217 217.492977 
L 158.839465 216.767515 
L 158.641228 216.565886 
L 157.906355 215.750865 
L 157.817731 215.638796 
L 157.181681 214.711706 
L 156.973244 214.398522 
L 156.570216 213.784615 
L 156.040134 213.067795 
L 155.869634 212.857525 
L 155.11975 211.930435 
L 155.107023 211.915422 
L 154.344885 211.003344 
L 154.173913 210.78632 
L 153.586628 210.076254 
L 153.240803 209.62393 
L 152.853776 209.149164 
L 152.307692 208.400143 
L 152.185556 208.222074 
L 151.678244 207.294983 
L 151.397638 206.367893 
L 151.374582 206.326191 
L 150.93179 205.440803 
L 150.624404 204.513712 
L 150.441472 204.111774 
L 150.149459 203.586622 
L 149.706629 202.659532 
L 149.508361 202.063034 
L 149.354157 201.732441 
L 148.895221 200.805351 
L 148.588127 199.878261 
L 148.575251 199.842231 
L 148.258178 198.951171 
L 148.121621 198.02408 
L 148.096765 197.09699 
L 148.088358 196.1699 
L 148.06429 195.242809 
L 147.89925 194.315719 
L 147.780822 193.388629 
L 147.64214 192.903317 
L 147.488588 192.461538 
L 147.176096 191.534448 
L 146.966216 190.607358 
L 146.836351 189.680268 
L 146.70903 189.329495 
L 146.49206 188.753177 
L 146.311701 187.826087 
L 146.234634 186.898997 
L 146.180381 185.971906 
L 146.155384 185.044816 
L 146.144024 184.117726 
L 146.128589 183.190635 
L 146.107512 182.263545 
L 146.097857 181.336455 
L 146.090267 180.409365 
L 146.082475 179.482274 
L 146.015614 178.555184 
L 145.819979 177.628094 
L 145.77592 177.439853 
L 145.639238 176.701003 
L 145.469419 175.773913 
L 145.2951 174.846823 
L 145.025801 173.919732 
L 144.842809 173.591876 
L 144.546088 172.992642 
L 144.30927 172.065552 
L 143.922068 171.138462 
L 143.909699 171.097728 
L 143.686957 170.211371 
L 143.471939 169.284281 
L 143.419855 168.357191 
L 143.476632 167.4301 
L 143.532473 166.50301 
L 143.606374 165.57592 
L 143.675657 164.648829 
L 143.656604 163.721739 
L 143.634949 162.794649 
L 143.614114 161.867559 
L 143.570785 160.940468 
L 143.562266 160.013378 
L 143.553296 159.086288 
L 143.577287 158.159197 
L 143.642679 157.232107 
L 143.709492 156.305017 
L 143.758735 155.377926 
L 143.801739 154.450836 
L 143.842361 153.523746 
L 143.869579 152.596656 
L 143.882954 151.669565 
L 143.889199 150.742475 
L 143.895509 149.815385 
L 143.904847 148.888294 
L 143.909699 148.805622 
L 144.213637 147.961204 
L 144.834149 147.034114 
L 144.842809 147.011936 
L 145.478117 146.107023 
L 145.77592 145.675009 
L 146.11392 145.179933 
L 146.70903 144.302199 
L 146.753735 144.252843 
L 147.368128 143.325753 
L 147.64214 142.93636 
L 148.021299 142.398662 
L 148.575251 141.622067 
L 148.703396 141.471572 
L 149.422061 140.544482 
L 149.508361 140.445461 
L 150.265626 139.617391 
L 150.441472 139.442481 
L 151.374582 138.691298 
L 151.375612 138.690301 
L 152.307692 137.880366 
L 152.444462 137.763211 
L 153.240803 137.072476 
L 153.514021 136.83612 
L 154.173913 136.263942 
L 154.619755 135.90903 
L 155.107023 135.568682 
L 156.040134 135.005304 
L 156.074585 134.98194 
L 156.973244 134.482087 
L 157.68531 134.054849 
L 157.906355 133.913923 
L 158.839465 133.358754 
L 159.217564 133.127759 
L 159.772575 132.776788 
L 160.669283 132.200669 
L 160.705686 132.176795 
L 161.638796 131.734969 
L 162.571906 131.409973 
L 162.942863 131.273579 
L 163.505017 131.098625 
L 164.438127 130.962143 
L 165.371237 130.815103 
L 166.304348 130.666148 
L 167.237458 130.596111 
L 168.170569 130.560111 
L 169.103679 130.519529 
L 170.036789 130.465869 
L 170.9699 130.416149 
L 171.90301 130.36626 
L 172.233989 130.346488 
L 172.83612 130.320148 
L 173.769231 130.280468 
L 174.702341 130.242124 
L 175.635452 130.200428 
L 176.568562 130.23971 
L 177.501151 130.346488 
L 177.501672 130.346577 
L 178.434783 130.462924 
L 179.367893 130.524102 
L 180.301003 130.451106 
L 181.234114 130.377704 
L 181.433918 130.346488 
L 182.167224 130.261909 
L 183.100334 130.122525 
L 184.033445 129.99452 
L 184.966555 130.001598 
L 185.899666 130.016085 
L 186.832776 130.068801 
L 187.765886 130.134302 
L 188.698997 130.208494 
L 189.632107 130.286573 
L 190.136175 130.346488 
L 190.565217 130.408182 
L 191.498328 130.529121 
L 192.431438 130.604549 
L 193.364548 130.75639 
L 194.297659 131.055393 
L 194.876078 131.273579 
L 195.230769 131.41213 
L 196.16388 131.662752 
L 197.09699 131.899349 
L 197.770863 132.200669 
L 198.0301 132.328755 
L 198.963211 132.817565 
L 199.446052 133.127759 
L 199.896321 133.417708 
L 200.829431 133.998853 
L 200.907207 134.054849 
L 201.762542 134.598507 
L 202.367549 134.98194 
L 202.695652 135.195847 
L 203.628763 135.771817 
L 203.829211 135.90903 
L 204.561873 136.382038 
L 205.262561 136.83612 
L 205.494983 136.994912 
L 206.428094 137.60924 
L 206.650024 137.763211 
L 207.361204 138.243701 
L 208.06668 138.690301 
L 208.294314 138.866809 
L 208.978965 139.617391 
L 209.227425 139.982069 
L 209.564263 140.544482 
L 210.160535 141.321606 
L 210.286507 141.471572 
L 211.083635 142.398662 
L 211.093645 142.408607 
L 211.903099 143.325753 
L 212.026756 143.457001 
L 212.734673 144.252843 
L 212.959866 144.506009 
L 213.580997 145.179933 
L 213.892977 145.519156 
L 214.433143 146.107023 
L 214.826087 146.611832 
L 215.125415 147.034114 
L 215.602337 147.961204 
L 215.759197 148.209894 
L 216.148028 148.888294 
L 216.633628 149.815385 
L 216.692308 149.897398 
L 217.167107 150.742475 
L 217.625418 151.425273 
L 217.82332 151.669565 
L 218.476781 152.596656 
L 218.558528 152.690619 
L 219.203264 153.523746 
L 219.491639 153.901454 
L 219.924389 154.450836 
L 220.424749 155.102867 
L 220.658702 155.377926 
L 221.35786 156.251983 
L 221.403836 156.305017 
L 222.238728 157.232107 
L 222.29097 157.284106 
L 223.22408 158.072194 
L 223.320645 158.159197 
L 224.157191 158.870817 
L 224.394977 159.086288 
L 225.090301 159.683036 
L 225.451476 160.013378 
L 226.023411 160.512874 
L 226.501228 160.940468 
L 226.956522 161.340131 
L 227.557363 161.867559 
L 227.889632 162.218588 
L 228.374654 162.794649 
L 228.822742 163.305498 
L 229.202608 163.721739 
L 229.755853 164.271759 
L 230.133379 164.648829 
L 230.688963 165.215582 
L 231.035351 165.57592 
L 231.622074 166.219326 
L 231.880598 166.50301 
L 232.555184 167.29418 
L 232.677372 167.4301 
L 233.457313 168.357191 
L 233.488294 168.387604 
L 234.288994 169.284281 
L 234.421405 169.428647 
L 235.121668 170.211371 
L 235.354515 170.500497 
L 235.865131 171.138462 
L 236.287625 171.666563 
L 236.6463 172.065552 
L 237.220736 172.83297 
L 237.349642 172.992642 
L 237.943077 173.919732 
L 238.153846 174.232335 
L 238.595423 174.846823 
L 239.086957 175.606463 
L 239.21659 175.773913 
L 239.714754 176.701003 
L 240.020067 177.405289 
L 240.144462 177.628094 
L 240.477429 178.555184 
L 240.752269 179.482274 
L 240.953177 180.016525 
L 241.133565 180.409365 
L 241.45824 181.336455 
L 241.724159 182.263545 
L 241.886288 182.753124 
L 242.061409 183.190635 
L 242.355832 184.117726 
L 242.581212 185.044816 
L 242.713167 185.971906 
L 242.819398 186.454943 
L 242.924072 186.898997 
L 243.090168 187.826087 
L 242.919381 188.753177 
L 242.819398 189.260674 
L 242.735229 189.680268 
L 242.609245 190.607358 
L 242.562427 191.534448 
L 242.533023 192.461538 
L 242.472948 193.388629 
L 242.386572 194.315719 
L 242.146989 195.242809 
L 241.886288 195.648451 
L 241.64526 196.1699 
L 241.122096 197.09699 
L 240.953177 197.358695 
L 240.646278 198.02408 
L 240.020067 198.935682 
L 240.004883 198.951171 
L 239.548488 199.878261 
L 239.086957 200.544965 
L 238.916346 200.805351 
L 238.586539 201.732441 
L 238.208191 202.659532 
L 238.153846 202.745377 
L 237.658771 203.586622 
L 237.220736 204.094433 
L 236.859549 204.513712 
L 236.287625 205.137549 
L 235.996569 205.440803 
L 235.354515 206.107099 
L 235.096226 206.367893 
L 234.421405 207.059204 
L 234.18711 207.294983 
L 233.488294 207.979078 
L 233.230227 208.222074 
L 232.555184 208.855381 
L 232.239837 209.149164 
L 231.622074 209.727959 
L 231.24807 210.076254 
L 230.688963 210.62058 
L 230.244851 211.003344 
L 229.755853 211.407265 
L 229.116214 211.930435 
L 228.822742 212.163478 
L 227.924945 212.857525 
L 227.889632 212.886843 
L 226.956522 213.672407 
L 226.821346 213.784615 
L 226.023411 214.455257 
L 225.71371 214.711706 
L 225.090301 215.216388 
L 224.598904 215.638796 
L 224.157191 216.025366 
L 223.610465 216.565886 
L 223.22408 217.007387 
L 222.809148 217.492977 
L 222.29097 218.082987 
L 222.001141 218.420067 
L 221.35786 219.158856 
L 221.195654 219.347157 
L 220.424749 220.235803 
L 220.391115 220.274247 
L 219.591179 221.201338 
L 219.491639 221.316997 
L 218.800376 222.128428 
L 218.558528 222.378083 
L 217.792827 223.055518 
L 217.625418 223.199003 
L 216.692308 223.956286 
L 216.662571 223.982609 
L 215.759197 224.714914 
L 215.502846 224.909699 
L 214.826087 225.451627 
L 214.316565 225.836789 
L 213.892977 226.178389 
L 213.151647 226.76388 
L 212.959866 226.923437 
L 212.036867 227.69097 
L 212.026756 227.69961 
L 211.093645 228.518906 
L 210.978123 228.61806 
L 210.160535 229.335204 
L 209.913619 229.545151 
L 209.227425 230.144833 
L 208.840545 230.472241 
L 208.294314 230.962203 
L 207.789919 231.399331 
L 207.361204 231.786432 
L 206.754139 232.326421 
L 206.428094 232.611704 
L 205.494983 233.240556 
L 205.46722 233.253512 
L 204.561873 233.594871 
L 203.628763 233.927561 
L 202.989467 234.180602 
L 202.695652 234.292088 
L 201.762542 234.694221 
L 200.829431 234.993234 
L 200.607946 235.107692 
L 199.896321 235.424338 
L 198.963211 235.76999 
L 198.246808 236.034783 
L 198.0301 236.082308 
L 197.09699 236.39693 
L 196.16388 236.475359 
L 195.230769 236.548528 
L 194.297659 236.593133 
L 193.364548 236.621854 
L 192.431438 236.639623 
L 191.498328 236.651113 
L 190.565217 236.663053 
L 189.632107 236.675471 
L 188.698997 236.678837 
L 187.765886 236.429915 
z
" clip-path="url(#pe6da1a01ea)" style="fill: none; stroke: #000000; stroke-width: 1.5"/>
   </g>
   <g id="PathCollection_4">
    <path d="M 193.364548 259.340711 
L 186.832776 258.258297 
L 184.966555 258.151659 
L 182.167224 257.31854 
L 177.225031 255.503679 
L 175.635452 254.939292 
L 171.90301 253.726084 
L 166.750921 251.795318 
L 165.038952 250.868227 
L 163.505017 249.794775 
L 158.839465 246.344183 
L 154.173913 243.259572 
L 152.307692 241.846187 
L 146.691974 236.961873 
L 141.981997 232.326421 
L 139.244147 230.17524 
L 138.052012 228.61806 
L 135.511706 224.896102 
L 131.13852 218.420067 
L 130.312658 216.565886 
L 126.840806 210.076254 
L 125.896711 208.222074 
L 125.447394 205.440803 
L 124.721146 199.878261 
L 124.622028 198.02408 
L 123.838043 194.315719 
L 123.585736 192.461538 
L 123.405673 185.971906 
L 123.111884 181.336455 
L 122.009324 177.628094 
L 121.822658 176.701003 
L 120.039281 171.138462 
L 119.6547 168.357191 
L 119.726086 167.4301 
L 121.106409 160.013378 
L 121.978913 152.596656 
L 122.635424 142.398662 
L 122.721688 141.471572 
L 124.3731 136.83612 
L 128.979933 129.297071 
L 132.712375 124.012358 
L 133.704725 122.929766 
L 137.377926 119.117811 
L 141.110368 116.168121 
L 143.909699 113.973357 
L 145.77592 113.163233 
L 150.441472 111.229917 
L 156.973244 108.451342 
L 158.660831 108.096321 
L 159.772575 108.043942 
L 170.9699 107.685044 
L 176.568562 107.706145 
L 179.367893 107.364952 
L 181.234114 107.195478 
L 195.230769 107.763184 
L 198.0301 107.666648 
L 201.328702 108.096321 
L 201.762542 108.189789 
L 204.561873 109.37129 
L 208.294314 111.842348 
L 211.522071 113.658863 
L 216.692308 116.802321 
L 222.29097 121.474264 
L 224.967809 123.856856 
L 226.986846 125.711037 
L 231.622074 129.862009 
L 232.621415 131.273579 
L 238.153846 139.683671 
L 242.040669 144.252843 
L 248.41806 150.143489 
L 254.016722 157.51869 
L 257.749164 163.35888 
L 260.548495 168.525223 
L 262.205075 171.138462 
L 263.347826 174.336996 
L 264.738776 178.555184 
L 266.77834 185.971906 
L 266.734461 188.753177 
L 266.594676 192.461538 
L 265.494303 198.951171 
L 265.365945 200.805351 
L 264.630904 202.659532 
L 262.504812 207.294983 
L 261.448729 209.149164 
L 259.920093 211.930435 
L 259.495948 212.857525 
L 257.677899 215.638796 
L 254.949833 219.382131 
L 250.792787 223.982609 
L 246.876699 227.69097 
L 245.618729 228.828574 
L 243.479499 230.472241 
L 241.772593 232.326421 
L 238.965092 235.107692 
L 231.17023 242.524415 
L 223.877966 249.014047 
L 218.558528 253.19138 
L 217.625418 253.732569 
L 210.160535 256.165164 
L 203.628763 258.742474 
L 198.0301 259.429319 
L 196.16388 259.546141 
L 194.297659 259.492535 
L 193.364548 259.340711 
L 193.364548 259.340711 
" clip-path="url(#pe6da1a01ea)" style="fill: none; stroke: #000000; stroke-width: 1.5"/>
   </g>
   <g id="patch_3">
    <path d="M 45 320.4 
L 45 43.2 
" style="fill: none; stroke: #000000; stroke-width: 0.8; stroke-linejoin: miter; stroke-linecap: square"/>
   </g>
   <g id="patch_4">
    <path d="M 324 320.4 
L 324 43.2 
" style="fill: none; stroke: #000000; stroke-width: 0.8; stroke-linejoin: miter; stroke-linecap: square"/>
   </g>
   <g id="patch_5">
    <path d="M 45 320.4 
L 324 320.4 
" style="fill: none; stroke: #000000; stroke-width: 0.8; stroke-linejoin: miter; stroke-linecap: square"/>
   </g>
   <g id="patch_6">
    <path d="M 45 43.2 
L 324 43.2 
" style="fill: none; stroke: #000000; stroke-width: 0.8; stroke-linejoin: miter; stroke-linecap: square"/>
   </g>
  </g>
 </g>
 <defs>
  <clipPath id="pe6da1a01ea">
   <rect x="45" y="43.2" width="279" height="277.2"/>
  </clipPath>
 </defs>
</svg>
