<?xml version="1.0" encoding="utf-8" standalone="no"?>
<!DOCTYPE svg PUBLIC "-//W3C//DTD SVG 1.1//EN"
  "http://www.w3.org/Graphics/SVG/1.1/DTD/svg11.dtd">
<svg xmlns:xlink="http://www.w3.org/1999/xlink" width="360pt" height="360pt" viewBox="0 0 360 360" xmlns="http://www.w3.org/2000/svg" version="1.1">
 <metadata>
  <rdf:RDF xmlns:dc="http://purl.org/dc/elements/1.1/" xmlns:cc="http://creativecommons.org/ns#" xmlns:rdf="http://www.w3.org/1999/02/22-rdf-syntax-ns#">
   <cc:Work>
    <dc:type rdf:resource="http://purl.org/dc/dcmitype/StillImage"/>
    <dc:date>2022-04-10T19:53:32.368088</dc:date>
    <dc:format>image/svg+xml</dc:format>
    <dc:creator>
     <cc:Agent>
      <dc:title>Matplotlib v3.5.1, https://matplotlib.org/</dc:title>
     </cc:Agent>
    </dc:creator>
   </cc:Work>
  </rdf:RDF>
 </metadata>
 <defs>
  <style type="text/css">*{stroke-linejoin: round; stroke-linecap: butt}</style>
 </defs>
 <g id="figure_1">
  <g id="patch_1">
   <path d="M 0 360 
L 360 360 
L 360 0 
L 0 0 
z
" style="fill: #ffffff"/>
  </g>
  <g id="axes_1">
   <g id="patch_2">
    <path d="M 45 320.4 
L 324 320.4 
L 324 43.2 
L 45 43.2 
z
" style="fill: #ffffff"/>
   </g>
   <g id="PathCollection_1">
    <defs>
     <path id="m7040c053fc" d="M 0 0.5 
C 0.132602 0.5 0.25979 0.447317 0.353553 0.353553 
C 0.447317 0.25979 0.5 0.132602 0.5 0 
C 0.5 -0.132602 0.447317 -0.25979 0.353553 -0.353553 
C 0.25979 -0.447317 0.132602 -0.5 0 -0.5 
C -0.132602 -0.5 -0.25979 -0.447317 -0.353553 -0.353553 
C -0.447317 -0.25979 -0.5 -0.132602 -0.5 0 
C -0.5 0.132602 -0.447317 0.25979 -0.353553 0.353553 
C -0.25979 0.447317 -0.132602 0.5 0 0.5 
z
" style="stroke: #ff0000"/>
    </defs>
    <g clip-path="url(#pb40131cad3)">
     <use xlink:href="#m7040c053fc" x="223.352034" y="181.336455" style="fill: #ff0000; stroke: #ff0000"/>
     <use xlink:href="#m7040c053fc" x="221.266231" y="177.784315" style="fill: #ff0000; stroke: #ff0000"/>
     <use xlink:href="#m7040c053fc" x="218.95168" y="174.620007" style="fill: #ff0000; stroke: #ff0000"/>
     <use xlink:href="#m7040c053fc" x="216.679754" y="171.778426" style="fill: #ff0000; stroke: #ff0000"/>
     <use xlink:href="#m7040c053fc" x="214.645411" y="169.122383" style="fill: #ff0000; stroke: #ff0000"/>
     <use xlink:href="#m7040c053fc" x="212.949222" y="166.475905" style="fill: #ff0000; stroke: #ff0000"/>
     <use xlink:href="#m7040c053fc" x="211.589106" y="163.662601" style="fill: #ff0000; stroke: #ff0000"/>
     <use xlink:href="#m7040c053fc" x="210.460282" y="160.549275" style="fill: #ff0000; stroke: #ff0000"/>
     <use xlink:href="#m7040c053fc" x="209.370984" y="157.089474" style="fill: #ff0000; stroke: #ff0000"/>
     <use xlink:href="#m7040c053fc" x="208.080344" y="153.353927" style="fill: #ff0000; stroke: #ff0000"/>
     <use xlink:href="#m7040c053fc" x="206.35357" y="149.535028" style="fill: #ff0000; stroke: #ff0000"/>
     <use xlink:href="#m7040c053fc" x="204.019311" y="145.921224" style="fill: #ff0000; stroke: #ff0000"/>
     <use xlink:href="#m7040c053fc" x="201.013302" y="142.846117" style="fill: #ff0000; stroke: #ff0000"/>
     <use xlink:href="#m7040c053fc" x="197.397647" y="140.621022" style="fill: #ff0000; stroke: #ff0000"/>
     <use xlink:href="#m7040c053fc" x="193.3498" y="139.462941" style="fill: #ff0000; stroke: #ff0000"/>
     <use xlink:href="#m7040c053fc" x="189.120161" y="139.436269" style="fill: #ff0000; stroke: #ff0000"/>
     <use xlink:href="#m7040c053fc" x="184.966555" y="140.4304" style="fill: #ff0000; stroke: #ff0000"/>
     <use xlink:href="#m7040c053fc" x="181.085603" y="142.186705" style="fill: #ff0000; stroke: #ff0000"/>
     <use xlink:href="#m7040c053fc" x="177.565143" y="144.367102" style="fill: #ff0000; stroke: #ff0000"/>
     <use xlink:href="#m7040c053fc" x="174.371967" y="146.636105" style="fill: #ff0000; stroke: #ff0000"/>
     <use xlink:href="#m7040c053fc" x="171.370568" y="148.724605" style="fill: #ff0000; stroke: #ff0000"/>
     <use xlink:href="#m7040c053fc" x="168.355707" y="150.460238" style="fill: #ff0000; stroke: #ff0000"/>
     <use xlink:href="#m7040c053fc" x="165.085255" y="151.77395" style="fill: #ff0000; stroke: #ff0000"/>
     <use xlink:href="#m7040c053fc" x="161.31679" y="152.705051" style="fill: #ff0000; stroke: #ff0000"/>
     <use xlink:href="#m7040c053fc" x="156.863833" y="153.41504" style="fill: #ff0000; stroke: #ff0000"/>
     <use xlink:href="#m7040c053fc" x="151.676999" y="154.19268" style="fill: #ff0000; stroke: #ff0000"/>
     <use xlink:href="#m7040c053fc" x="145.923769" y="155.417206" style="fill: #ff0000; stroke: #ff0000"/>
     <use xlink:href="#m7040c053fc" x="140.015818" y="157.464796" style="fill: #ff0000; stroke: #ff0000"/>
     <use xlink:href="#m7040c053fc" x="134.544928" y="160.585877" style="fill: #ff0000; stroke: #ff0000"/>
     <use xlink:href="#m7040c053fc" x="130.137144" y="164.81144" style="fill: #ff0000; stroke: #ff0000"/>
     <use xlink:href="#m7040c053fc" x="127.286235" y="169.937147" style="fill: #ff0000; stroke: #ff0000"/>
     <use xlink:href="#m7040c053fc" x="126.241691" y="175.589876" style="fill: #ff0000; stroke: #ff0000"/>
     <use xlink:href="#m7040c053fc" x="126.991522" y="181.336455" style="fill: #ff0000; stroke: #ff0000"/>
     <use xlink:href="#m7040c053fc" x="129.322674" y="186.781541" style="fill: #ff0000; stroke: #ff0000"/>
     <use xlink:href="#m7040c053fc" x="132.906191" y="191.625096" style="fill: #ff0000; stroke: #ff0000"/>
     <use xlink:href="#m7040c053fc" x="137.364165" y="195.683321" style="fill: #ff0000; stroke: #ff0000"/>
     <use xlink:href="#m7040c053fc" x="142.312658" y="198.890292" style="fill: #ff0000; stroke: #ff0000"/>
     <use xlink:href="#m7040c053fc" x="147.399463" y="201.286935" style="fill: #ff0000; stroke: #ff0000"/>
     <use xlink:href="#m7040c053fc" x="152.347359" y="202.991289" style="fill: #ff0000; stroke: #ff0000"/>
     <use xlink:href="#m7040c053fc" x="156.989163" y="204.148775" style="fill: #ff0000; stroke: #ff0000"/>
     <use xlink:href="#m7040c053fc" x="161.270724" y="204.879409" style="fill: #ff0000; stroke: #ff0000"/>
     <use xlink:href="#m7040c053fc" x="165.214071" y="205.249646" style="fill: #ff0000; stroke: #ff0000"/>
     <use xlink:href="#m7040c053fc" x="168.860492" y="205.285369" style="fill: #ff0000; stroke: #ff0000"/>
     <use xlink:href="#m7040c053fc" x="172.227727" y="205.015367" style="fill: #ff0000; stroke: #ff0000"/>
     <use xlink:href="#m7040c053fc" x="175.30408" y="204.513234" style="fill: #ff0000; stroke: #ff0000"/>
     <use xlink:href="#m7040c053fc" x="178.075055" y="203.908116" style="fill: #ff0000; stroke: #ff0000"/>
     <use xlink:href="#m7040c053fc" x="180.55761" y="203.358717" style="fill: #ff0000; stroke: #ff0000"/>
     <use xlink:href="#m7040c053fc" x="182.818066" y="203.009696" style="fill: #ff0000; stroke: #ff0000"/>
     <use xlink:href="#m7040c053fc" x="184.966555" y="202.955889" style="fill: #ff0000; stroke: #ff0000"/>
     <use xlink:href="#m7040c053fc" x="187.136626" y="203.2274" style="fill: #ff0000; stroke: #ff0000"/>
     <use xlink:href="#m7040c053fc" x="189.462318" y="203.792364" style="fill: #ff0000; stroke: #ff0000"/>
     <use xlink:href="#m7040c053fc" x="192.059205" y="204.566942" style="fill: #ff0000; stroke: #ff0000"/>
     <use xlink:href="#m7040c053fc" x="195.009283" y="205.425324" style="fill: #ff0000; stroke: #ff0000"/>
     <use xlink:href="#m7040c053fc" x="198.348011" y="206.209883" style="fill: #ff0000; stroke: #ff0000"/>
     <use xlink:href="#m7040c053fc" x="202.054564" y="206.745473" style="fill: #ff0000; stroke: #ff0000"/>
     <use xlink:href="#m7040c053fc" x="206.04824" y="206.858833" style="fill: #ff0000; stroke: #ff0000"/>
     <use xlink:href="#m7040c053fc" x="210.191065" y="206.398226" style="fill: #ff0000; stroke: #ff0000"/>
     <use xlink:href="#m7040c053fc" x="214.292501" y="205.248365" style="fill: #ff0000; stroke: #ff0000"/>
     <use xlink:href="#m7040c053fc" x="218.114973" y="203.342622" style="fill: #ff0000; stroke: #ff0000"/>
     <use xlink:href="#m7040c053fc" x="221.388395" y="200.678735" style="fill: #ff0000; stroke: #ff0000"/>
     <use xlink:href="#m7040c053fc" x="223.845938" y="197.336923" style="fill: #ff0000; stroke: #ff0000"/>
     <use xlink:href="#m7040c053fc" x="225.281569" y="193.486981" style="fill: #ff0000; stroke: #ff0000"/>
     <use xlink:href="#m7040c053fc" x="225.609724" y="189.368726" style="fill: #ff0000; stroke: #ff0000"/>
     <use xlink:href="#m7040c053fc" x="224.897629" y="185.243949" style="fill: #ff0000; stroke: #ff0000"/>
    </g>
   </g>
   <g id="matplotlib.axis_1">
    <g id="xtick_1">
     <g id="line2d_1">
      <defs>
       <path id="md8158dd808" d="M 0 0 
L 0 3.5 
" style="stroke: #000000; stroke-width: 0.8"/>
      </defs>
      <g>
       <use xlink:href="#md8158dd808" x="45" y="320.4" style="stroke: #000000; stroke-width: 0.8"/>
      </g>
     </g>
     <g id="text_1">
      <!-- −3 -->
      <g transform="translate(37.628906 334.998438)scale(0.1 -0.1)">
       <defs>
        <path id="DejaVuSans-2212" d="M 678 2272 
L 4684 2272 
L 4684 1741 
L 678 1741 
L 678 2272 
z
" transform="scale(0.015625)"/>
        <path id="DejaVuSans-33" d="M 2597 2516 
Q 3050 2419 3304 2112 
Q 3559 1806 3559 1356 
Q 3559 666 3084 287 
Q 2609 -91 1734 -91 
Q 1441 -91 1130 -33 
Q 819 25 488 141 
L 488 750 
Q 750 597 1062 519 
Q 1375 441 1716 441 
Q 2309 441 2620 675 
Q 2931 909 2931 1356 
Q 2931 1769 2642 2001 
Q 2353 2234 1838 2234 
L 1294 2234 
L 1294 2753 
L 1863 2753 
Q 2328 2753 2575 2939 
Q 2822 3125 2822 3475 
Q 2822 3834 2567 4026 
Q 2313 4219 1838 4219 
Q 1578 4219 1281 4162 
Q 984 4106 628 3988 
L 628 4550 
Q 988 4650 1302 4700 
Q 1616 4750 1894 4750 
Q 2613 4750 3031 4423 
Q 3450 4097 3450 3541 
Q 3450 3153 3228 2886 
Q 3006 2619 2597 2516 
z
" transform="scale(0.015625)"/>
       </defs>
       <use xlink:href="#DejaVuSans-2212"/>
       <use xlink:href="#DejaVuSans-33" x="83.789062"/>
      </g>
     </g>
    </g>
    <g id="xtick_2">
     <g id="line2d_2">
      <g>
       <use xlink:href="#md8158dd808" x="91.655518" y="320.4" style="stroke: #000000; stroke-width: 0.8"/>
      </g>
     </g>
     <g id="text_2">
      <!-- −2 -->
      <g transform="translate(84.284425 334.998438)scale(0.1 -0.1)">
       <defs>
        <path id="DejaVuSans-32" d="M 1228 531 
L 3431 531 
L 3431 0 
L 469 0 
L 469 531 
Q 828 903 1448 1529 
Q 2069 2156 2228 2338 
Q 2531 2678 2651 2914 
Q 2772 3150 2772 3378 
Q 2772 3750 2511 3984 
Q 2250 4219 1831 4219 
Q 1534 4219 1204 4116 
Q 875 4013 500 3803 
L 500 4441 
Q 881 4594 1212 4672 
Q 1544 4750 1819 4750 
Q 2544 4750 2975 4387 
Q 3406 4025 3406 3419 
Q 3406 3131 3298 2873 
Q 3191 2616 2906 2266 
Q 2828 2175 2409 1742 
Q 1991 1309 1228 531 
z
" transform="scale(0.015625)"/>
       </defs>
       <use xlink:href="#DejaVuSans-2212"/>
       <use xlink:href="#DejaVuSans-32" x="83.789062"/>
      </g>
     </g>
    </g>
    <g id="xtick_3">
     <g id="line2d_3">
      <g>
       <use xlink:href="#md8158dd808" x="138.311037" y="320.4" style="stroke: #000000; stroke-width: 0.8"/>
      </g>
     </g>
     <g id="text_3">
      <!-- −1 -->
      <g transform="translate(130.939943 334.998438)scale(0.1 -0.1)">
       <defs>
        <path id="DejaVuSans-31" d="M 794 531 
L 1825 531 
L 1825 4091 
L 703 3866 
L 703 4441 
L 1819 4666 
L 2450 4666 
L 2450 531 
L 3481 531 
L 3481 0 
L 794 0 
L 794 531 
z
" transform="scale(0.015625)"/>
       </defs>
       <use xlink:href="#DejaVuSans-2212"/>
       <use xlink:href="#DejaVuSans-31" x="83.789062"/>
      </g>
     </g>
    </g>
    <g id="xtick_4">
     <g id="line2d_4">
      <g>
       <use xlink:href="#md8158dd808" x="184.966555" y="320.4" style="stroke: #000000; stroke-width: 0.8"/>
      </g>
     </g>
     <g id="text_4">
      <!-- 0 -->
      <g transform="translate(181.785305 334.998438)scale(0.1 -0.1)">
       <defs>
        <path id="DejaVuSans-30" d="M 2034 4250 
Q 1547 4250 1301 3770 
Q 1056 3291 1056 2328 
Q 1056 1369 1301 889 
Q 1547 409 2034 409 
Q 2525 409 2770 889 
Q 3016 1369 3016 2328 
Q 3016 3291 2770 3770 
Q 2525 4250 2034 4250 
z
M 2034 4750 
Q 2819 4750 3233 4129 
Q 3647 3509 3647 2328 
Q 3647 1150 3233 529 
Q 2819 -91 2034 -91 
Q 1250 -91 836 529 
Q 422 1150 422 2328 
Q 422 3509 836 4129 
Q 1250 4750 2034 4750 
z
" transform="scale(0.015625)"/>
       </defs>
       <use xlink:href="#DejaVuSans-30"/>
      </g>
     </g>
    </g>
    <g id="xtick_5">
     <g id="line2d_5">
      <g>
       <use xlink:href="#md8158dd808" x="231.622074" y="320.4" style="stroke: #000000; stroke-width: 0.8"/>
      </g>
     </g>
     <g id="text_5">
      <!-- 1 -->
      <g transform="translate(228.440824 334.998438)scale(0.1 -0.1)">
       <use xlink:href="#DejaVuSans-31"/>
      </g>
     </g>
    </g>
    <g id="xtick_6">
     <g id="line2d_6">
      <g>
       <use xlink:href="#md8158dd808" x="278.277592" y="320.4" style="stroke: #000000; stroke-width: 0.8"/>
      </g>
     </g>
     <g id="text_6">
      <!-- 2 -->
      <g transform="translate(275.096342 334.998438)scale(0.1 -0.1)">
       <use xlink:href="#DejaVuSans-32"/>
      </g>
     </g>
    </g>
   </g>
   <g id="matplotlib.axis_2">
    <g id="ytick_1">
     <g id="line2d_7">
      <defs>
       <path id="me33eaa3bbe" d="M 0 0 
L -3.5 0 
" style="stroke: #000000; stroke-width: 0.8"/>
      </defs>
      <g>
       <use xlink:href="#me33eaa3bbe" x="45" y="320.4" style="stroke: #000000; stroke-width: 0.8"/>
      </g>
     </g>
     <g id="text_7">
      <!-- −3 -->
      <g transform="translate(23.257812 324.199219)scale(0.1 -0.1)">
       <use xlink:href="#DejaVuSans-2212"/>
       <use xlink:href="#DejaVuSans-33" x="83.789062"/>
      </g>
     </g>
    </g>
    <g id="ytick_2">
     <g id="line2d_8">
      <g>
       <use xlink:href="#me33eaa3bbe" x="45" y="274.045485" style="stroke: #000000; stroke-width: 0.8"/>
      </g>
     </g>
     <g id="text_8">
      <!-- −2 -->
      <g transform="translate(23.257812 277.844704)scale(0.1 -0.1)">
       <use xlink:href="#DejaVuSans-2212"/>
       <use xlink:href="#DejaVuSans-32" x="83.789062"/>
      </g>
     </g>
    </g>
    <g id="ytick_3">
     <g id="line2d_9">
      <g>
       <use xlink:href="#me33eaa3bbe" x="45" y="227.69097" style="stroke: #000000; stroke-width: 0.8"/>
      </g>
     </g>
     <g id="text_9">
      <!-- −1 -->
      <g transform="translate(23.257812 231.490189)scale(0.1 -0.1)">
       <use xlink:href="#DejaVuSans-2212"/>
       <use xlink:href="#DejaVuSans-31" x="83.789062"/>
      </g>
     </g>
    </g>
    <g id="ytick_4">
     <g id="line2d_10">
      <g>
       <use xlink:href="#me33eaa3bbe" x="45" y="181.336455" style="stroke: #000000; stroke-width: 0.8"/>
      </g>
     </g>
     <g id="text_10">
      <!-- 0 -->
      <g transform="translate(31.6375 185.135674)scale(0.1 -0.1)">
       <use xlink:href="#DejaVuSans-30"/>
      </g>
     </g>
    </g>
    <g id="ytick_5">
     <g id="line2d_11">
      <g>
       <use xlink:href="#me33eaa3bbe" x="45" y="134.98194" style="stroke: #000000; stroke-width: 0.8"/>
      </g>
     </g>
     <g id="text_11">
      <!-- 1 -->
      <g transform="translate(31.6375 138.781159)scale(0.1 -0.1)">
       <use xlink:href="#DejaVuSans-31"/>
      </g>
     </g>
    </g>
    <g id="ytick_6">
     <g id="line2d_12">
      <g>
       <use xlink:href="#me33eaa3bbe" x="45" y="88.627425" style="stroke: #000000; stroke-width: 0.8"/>
      </g>
     </g>
     <g id="text_12">
      <!-- 2 -->
      <g transform="translate(31.6375 92.426643)scale(0.1 -0.1)">
       <use xlink:href="#DejaVuSans-32"/>
      </g>
     </g>
    </g>
   </g>
   <g id="PathCollection_2">
    <path d="M 164.438127 181.375564 
L 164.287377 181.336455 
L 163.505017 181.011962 
L 162.571906 180.609821 
L 162.085684 180.409365 
L 161.638796 180.207927 
L 160.705686 179.761146 
L 160.108545 179.482274 
L 159.772575 179.281794 
L 158.839465 178.752826 
L 158.488034 178.555184 
L 157.906355 178.194322 
L 157.066871 177.628094 
L 157.672581 176.701003 
L 157.906355 176.574479 
L 158.839465 176.045695 
L 159.332786 175.773913 
L 159.772575 175.602307 
L 160.705686 175.333259 
L 161.638796 175.105525 
L 162.571906 174.901908 
L 162.825922 174.846823 
L 163.505017 174.715923 
L 164.438127 174.601355 
L 165.371237 174.533021 
L 166.304348 174.46149 
L 167.237458 174.386713 
L 168.170569 174.191076 
L 169.103679 173.957233 
L 169.27391 173.919732 
L 170.036789 173.770775 
L 170.9699 173.567014 
L 171.90301 173.336509 
L 172.83612 173.159258 
L 173.472745 172.992642 
L 173.769231 172.904302 
L 174.702341 172.573308 
L 175.635452 172.255622 
L 176.224342 172.065552 
L 176.568562 171.954602 
L 177.501672 171.660653 
L 178.434783 171.365852 
L 179.061612 171.138462 
L 179.367893 171.022152 
L 180.301003 170.759389 
L 181.234114 170.530239 
L 182.167224 170.29398 
L 182.324548 170.211371 
L 183.100334 169.781416 
L 183.99918 169.284281 
L 184.033445 169.265322 
L 184.966555 168.748967 
L 185.674483 168.357191 
L 185.899666 168.251878 
L 186.832776 167.991498 
L 187.765886 167.80692 
L 188.698997 167.592659 
L 189.632107 167.734445 
L 190.322264 168.357191 
L 190.565217 168.673836 
L 191.054838 169.284281 
L 191.498328 169.989338 
L 191.619078 170.211371 
L 192.123269 171.138462 
L 192.431438 171.705116 
L 192.60831 172.065552 
L 193.077149 172.992642 
L 193.364548 173.573688 
L 193.501383 173.919732 
L 193.758499 174.846823 
L 193.753371 175.773913 
L 193.419915 176.701003 
L 193.364548 176.822799 
L 192.899002 177.628094 
L 192.431438 178.371286 
L 192.300165 178.555184 
L 191.562041 179.482274 
L 191.498328 179.559085 
L 190.565217 180.126334 
L 189.632107 180.299073 
L 188.9694 180.409365 
L 188.698997 180.452335 
L 187.765886 180.600591 
L 186.832776 180.748827 
L 185.899666 180.90689 
L 184.966555 181.069489 
L 184.033445 181.177204 
L 183.100334 181.274202 
L 182.678151 181.336455 
L 182.167224 181.38918 
L 181.234114 181.445672 
L 180.301003 181.455731 
L 179.367893 181.465792 
L 178.434783 181.469871 
L 177.501672 181.473849 
L 176.568562 181.500707 
L 175.635452 181.530352 
L 174.702341 181.572424 
L 173.769231 181.618897 
L 172.83612 181.672434 
L 171.90301 181.735412 
L 170.9699 181.793538 
L 170.036789 181.836441 
L 169.103679 181.889587 
L 168.170569 181.929553 
L 167.237458 181.825693 
L 166.304348 181.7154 
L 165.371237 181.591178 
L 164.438127 181.375564 
" clip-path="url(#pb40131cad3)" style="fill: none; stroke-dasharray: 5.55,2.4; stroke-dashoffset: 0; stroke: #000000; stroke-width: 1.5"/>
   </g>
   <g id="PathCollection_3">
    <path d="M 204.561873 207.344553 
L 199.896321 206.733333 
L 198.423993 206.367893 
L 192.431438 204.388313 
L 189.632107 203.814986 
L 186.832776 203.300581 
L 185.899666 203.097504 
L 183.100334 203.158603 
L 177.501672 203.289166 
L 174.702341 203.268743 
L 168.170569 203.849661 
L 164.438127 203.880982 
L 160.705686 203.686437 
L 156.973244 203.480739 
L 155.107023 203.143597 
L 153.240803 202.938062 
L 146.70903 201.279736 
L 144.842809 200.566466 
L 143.909699 200.325755 
L 142.976589 199.852364 
L 141.110368 199.228168 
L 137.377926 197.04426 
L 136.163359 196.1699 
L 132.466645 192.461538 
L 128.979933 188.456499 
L 128.551802 187.826087 
L 127.306622 185.044816 
L 127.110297 184.117726 
L 126.994449 183.190635 
L 126.732483 182.263545 
L 126.61009 180.409365 
L 126.446463 178.555184 
L 126.180602 177.559125 
L 126.154826 175.773913 
L 126.229343 174.846823 
L 126.911098 172.065552 
L 127.081926 171.138462 
L 127.141119 170.211371 
L 127.575943 167.4301 
L 128.123659 166.50301 
L 132.712375 161.427855 
L 133.645485 160.598046 
L 135.511706 159.302262 
L 137.377926 157.990947 
L 139.244147 156.918624 
L 142.043478 155.984057 
L 142.976589 155.663313 
L 144.095597 155.377926 
L 144.842809 155.090565 
L 146.70903 154.72216 
L 147.64214 154.622699 
L 149.508361 153.88109 
L 150.979246 153.523746 
L 152.307692 153.064709 
L 154.28943 152.596656 
L 156.040134 152.068677 
L 157.70889 151.669565 
L 158.839465 151.286133 
L 162.571906 150.456665 
L 165.121935 149.815385 
L 166.304348 149.397476 
L 170.036789 148.348146 
L 171.232131 147.961204 
L 172.83612 147.306611 
L 175.635452 146.317857 
L 177.501672 144.887172 
L 179.425903 143.325753 
L 182.167224 141.2898 
L 183.100334 140.859127 
L 185.899666 140.754291 
L 188.698997 140.723082 
L 191.498328 140.348198 
L 193.364548 140.391305 
L 194.297659 140.676941 
L 198.0301 141.402844 
L 198.963211 141.900491 
L 202.695652 144.479621 
L 204.76608 146.107023 
L 205.494983 147.154437 
L 205.894171 147.961204 
L 206.154196 148.888294 
L 206.673679 149.815385 
L 210.160535 158.657407 
L 210.801735 160.013378 
L 211.141201 160.940468 
L 212.246167 162.794649 
L 213.892977 165.905079 
L 214.989247 167.4301 
L 216.222996 169.284281 
L 217.201672 171.138462 
L 222.391425 181.336455 
L 223.22408 183.193837 
L 225.291525 186.898997 
L 225.672297 188.753177 
L 225.860166 191.534448 
L 225.909941 192.461538 
L 225.763743 193.388629 
L 225.47442 194.315719 
L 224.157191 196.688845 
L 222.038762 199.878261 
L 220.648042 202.659532 
L 219.491639 204.193753 
L 219.199595 204.513712 
L 217.625418 205.682342 
L 215.759197 206.407849 
L 211.093645 206.998066 
L 206.428094 207.577887 
L 204.561873 207.344553 
L 204.561873 207.344553 
" clip-path="url(#pb40131cad3)" style="fill: none; stroke: #000000; stroke-width: 1.5"/>
   </g>
   <g id="PathCollection_4">
    <path d="M 200.829431 229.622344 
L 200.041712 229.545151 
L 199.896321 229.530654 
L 198.963211 229.436697 
L 198.0301 229.320516 
L 197.09699 229.16134 
L 196.16388 229.011871 
L 195.230769 228.885366 
L 194.297659 228.77041 
L 193.364548 228.656761 
L 193.055666 228.61806 
L 192.431438 228.537794 
L 191.498328 228.417816 
L 190.565217 228.299216 
L 189.632107 228.181978 
L 188.698997 228.05749 
L 187.765886 227.873905 
L 186.832776 227.720875 
L 186.638677 227.69097 
L 185.899666 227.575711 
L 184.966555 227.431885 
L 184.033445 227.320096 
L 183.100334 227.275199 
L 182.167224 227.229904 
L 181.234114 227.184602 
L 180.301003 227.127853 
L 179.367893 227.061261 
L 178.434783 226.9954 
L 177.501672 226.940324 
L 176.568562 226.90625 
L 175.635452 226.928138 
L 174.702341 226.942319 
L 173.769231 226.970789 
L 172.83612 227.094605 
L 171.90301 227.224769 
L 170.9699 227.280243 
L 170.036789 227.366212 
L 169.103679 227.415461 
L 168.170569 227.462994 
L 167.237458 227.509794 
L 166.304348 227.549056 
L 165.371237 227.588296 
L 164.438127 227.611296 
L 163.505017 227.586137 
L 162.571906 227.560981 
L 161.638796 227.535813 
L 160.705686 227.510658 
L 159.772575 227.485501 
L 158.839465 227.462175 
L 157.906355 227.456939 
L 156.973244 227.45205 
L 156.040134 227.441049 
L 155.107023 227.409739 
L 154.173913 227.3778 
L 153.240803 227.34563 
L 152.307692 227.31301 
L 151.374582 227.261459 
L 150.441472 227.102888 
L 149.508361 226.872068 
L 149.100408 226.76388 
L 148.575251 226.626004 
L 147.64214 226.369263 
L 146.70903 226.112394 
L 145.802117 225.836789 
L 145.77592 225.828504 
L 144.842809 225.530163 
L 143.909699 225.244487 
L 142.976589 224.962246 
L 142.820124 224.909699 
L 142.043478 224.645785 
L 141.110368 224.289055 
L 140.33855 223.982609 
L 140.177258 223.918569 
L 139.244147 223.54807 
L 138.311037 223.170541 
L 138.089844 223.055518 
L 137.377926 222.645099 
L 136.578173 222.128428 
L 136.444816 222.041944 
L 135.511706 221.431405 
L 135.159894 221.201338 
L 134.578595 220.821993 
L 133.737704 220.274247 
L 133.645485 220.214178 
L 132.712375 219.606336 
L 132.314479 219.347157 
L 131.779264 219.048594 
L 130.846154 218.633242 
L 130.337453 218.420067 
L 129.913043 218.239668 
L 128.979933 217.825865 
L 128.266338 217.492977 
L 128.046823 217.386566 
L 127.113712 216.947082 
L 126.507013 216.565886 
L 126.180602 216.330937 
L 125.247492 215.640182 
L 125.245619 215.638796 
L 124.314381 214.94944 
L 123.997459 214.711706 
L 123.381271 214.23469 
L 122.816238 213.784615 
L 122.448161 213.492497 
L 121.636507 212.857525 
L 121.51505 212.764759 
L 120.58194 212.053381 
L 120.420819 211.930435 
L 119.648829 211.344012 
L 119.19284 211.003344 
L 118.715719 210.565255 
L 118.291584 210.076254 
L 117.782609 209.471314 
L 117.512713 209.149164 
L 116.849498 208.361561 
L 116.73321 208.222074 
L 116.041781 207.294983 
L 115.916388 207.112136 
L 115.40898 206.367893 
L 114.983278 205.814276 
L 114.670366 205.440803 
L 114.050167 204.731784 
L 113.859416 204.513712 
L 113.117057 203.665049 
L 113.048454 203.586622 
L 112.244017 202.659532 
L 112.183946 202.589638 
L 111.439022 201.732441 
L 111.250836 201.549151 
L 110.481592 200.805351 
L 110.317726 200.646905 
L 109.618374 199.878261 
L 109.384615 199.482835 
L 109.087158 198.951171 
L 108.573442 198.02408 
L 108.451505 197.804027 
L 108.063961 197.09699 
L 107.579533 196.1699 
L 107.518395 196.051793 
L 107.099617 195.242809 
L 106.678575 194.315719 
L 106.585284 194.097806 
L 106.281675 193.388629 
L 105.884771 192.461538 
L 105.652174 191.916104 
L 105.49881 191.534448 
L 105.241901 190.607358 
L 104.986532 189.680268 
L 104.728284 188.753177 
L 104.719064 188.716811 
L 104.490846 187.826087 
L 104.25852 186.898997 
L 104.028073 185.971906 
L 103.883394 185.044816 
L 103.901773 184.117726 
L 103.855973 183.190635 
L 103.785953 182.406123 
L 103.773228 182.263545 
L 103.690071 181.336455 
L 103.547755 180.409365 
L 103.395092 179.482274 
L 103.254544 178.555184 
L 103.229141 177.628094 
L 103.148609 176.701003 
L 102.961277 175.773913 
L 102.852843 175.23721 
L 102.773971 174.846823 
L 102.592031 173.919732 
L 102.456373 172.992642 
L 102.553323 172.065552 
L 102.807842 171.138462 
L 102.852843 170.985308 
L 103.07909 170.211371 
L 103.355539 169.284281 
L 103.632024 168.357191 
L 103.785953 167.841036 
L 103.908503 167.4301 
L 104.184991 166.50301 
L 104.461481 165.57592 
L 104.719064 164.712171 
L 104.737953 164.648829 
L 105.014439 163.721739 
L 105.290859 162.794649 
L 105.568871 161.867559 
L 105.652174 161.608105 
L 105.86736 160.940468 
L 106.166283 160.013378 
L 106.465178 159.086288 
L 106.585284 158.721723 
L 106.771328 158.159197 
L 107.281421 157.232107 
L 107.518395 156.906729 
L 107.95662 156.305017 
L 108.451505 155.625518 
L 108.631826 155.377926 
L 109.316975 154.450836 
L 109.384615 154.359788 
L 110.005711 153.523746 
L 110.317726 153.103743 
L 110.694007 152.596656 
L 111.250836 151.826303 
L 111.368439 151.669565 
L 112.094252 150.742475 
L 112.183946 150.632095 
L 112.85115 149.815385 
L 113.117057 149.489896 
L 113.610678 148.888294 
L 114.050167 148.395392 
L 114.466449 147.961204 
L 114.983278 147.460789 
L 115.44584 147.034114 
L 115.916388 146.638232 
L 116.572949 146.107023 
L 116.849498 145.8819 
L 117.68674 145.179933 
L 117.782609 145.095769 
L 118.715719 144.27544 
L 118.741426 144.252843 
L 119.648829 143.455228 
L 119.793033 143.325753 
L 120.58194 142.607534 
L 120.813159 142.398662 
L 121.51505 141.772137 
L 121.889293 141.471572 
L 122.448161 141.051436 
L 123.131957 140.544482 
L 123.381271 140.363741 
L 124.314381 139.690889 
L 124.415514 139.617391 
L 125.247492 139.031141 
L 125.805443 138.690301 
L 126.180602 138.444111 
L 127.05688 137.763211 
L 127.113712 137.719113 
L 128.046823 137.004667 
L 128.336415 136.83612 
L 128.979933 136.516413 
L 129.913043 136.13342 
L 130.459762 135.90903 
L 130.846154 135.750445 
L 131.779264 135.367481 
L 132.712375 135.019313 
L 132.816935 134.98194 
L 133.645485 134.693952 
L 134.578595 134.369627 
L 135.4842 134.054849 
L 135.511706 134.04503 
L 136.444816 133.685436 
L 137.377926 133.306075 
L 137.816549 133.127759 
L 138.311037 132.92673 
L 139.244147 132.547364 
L 140.096923 132.200669 
L 140.177258 132.168368 
L 141.110368 131.830106 
L 142.043478 131.514337 
L 142.87821 131.273579 
L 142.976589 131.245658 
L 143.909699 130.989222 
L 144.842809 130.754628 
L 145.77592 130.526089 
L 146.509213 130.346488 
L 146.70903 130.297549 
L 147.64214 130.069009 
L 148.575251 129.841243 
L 149.508361 129.62631 
L 150.441472 129.42983 
L 150.492678 129.419398 
L 151.374582 129.239783 
L 152.307692 129.055727 
L 153.240803 128.908186 
L 154.173913 128.778208 
L 155.107023 128.648313 
L 156.040134 128.497445 
L 156.070572 128.492308 
L 156.973244 128.333972 
L 157.906355 128.069034 
L 158.839465 127.774765 
L 159.416733 127.565217 
L 159.772575 127.423463 
L 160.705686 126.869147 
L 161.068902 126.638127 
L 161.638796 126.270751 
L 162.550506 125.711037 
L 162.571906 125.697739 
L 163.505017 125.114471 
L 164.033803 124.783946 
L 164.438127 124.53122 
L 165.371237 123.947957 
L 165.5228 123.856856 
L 166.304348 123.401545 
L 167.153807 122.929766 
L 167.237458 122.883307 
L 168.170569 122.365049 
L 168.780225 122.002676 
L 169.103679 121.811032 
L 170.036789 121.346441 
L 170.664584 121.075585 
L 170.9699 120.95041 
L 171.90301 120.576253 
L 172.83612 120.202108 
L 172.985467 120.148495 
L 173.769231 119.865879 
L 174.702341 119.543146 
L 175.632609 119.221405 
L 175.635452 119.220421 
L 176.568562 118.851487 
L 177.501672 118.442512 
L 177.975069 118.294314 
L 178.434783 118.150514 
L 179.367893 117.900064 
L 180.301003 117.643562 
L 181.234114 117.416417 
L 181.574155 117.367224 
L 182.167224 117.281428 
L 183.100334 117.146438 
L 184.033445 117.011445 
L 184.966555 116.876459 
L 185.899666 116.741694 
L 186.832776 116.612765 
L 187.765886 116.490855 
L 188.516127 116.440134 
L 188.698997 116.428068 
L 189.632107 116.433346 
L 189.721019 116.440134 
L 190.565217 116.504921 
L 191.498328 116.578177 
L 192.431438 116.655338 
L 193.364548 116.763008 
L 194.297659 116.870672 
L 195.230769 116.978337 
L 196.16388 117.086009 
L 197.09699 117.326544 
L 197.199589 117.367224 
L 198.0301 117.697417 
L 198.963211 118.071509 
L 199.514328 118.294314 
L 199.896321 118.448749 
L 200.829431 118.74599 
L 201.762542 118.966073 
L 202.695652 119.163458 
L 202.963972 119.221405 
L 203.628763 119.36694 
L 204.561873 119.574944 
L 205.494983 119.782972 
L 206.428094 119.992175 
L 207.084731 120.148495 
L 207.361204 120.21979 
L 208.294314 120.67524 
L 209.06579 121.075585 
L 209.227425 121.159462 
L 210.160535 121.729309 
L 210.565534 122.002676 
L 211.093645 122.359204 
L 211.938756 122.929766 
L 212.026756 122.989177 
L 212.959866 123.619155 
L 213.311952 123.856856 
L 213.892977 124.249106 
L 214.685171 124.783946 
L 214.826087 124.879085 
L 215.759197 125.509051 
L 216.058386 125.711037 
L 216.692308 126.139005 
L 217.431613 126.638127 
L 217.625418 126.764693 
L 218.558528 127.38722 
L 218.823912 127.565217 
L 219.491639 128.074877 
L 219.846062 128.492308 
L 220.424749 129.255882 
L 220.549892 129.419398 
L 221.262274 130.346488 
L 221.35786 130.490884 
L 221.84332 131.273579 
L 222.29097 132.048659 
L 222.388637 132.200669 
L 223.012162 133.127759 
L 223.22408 133.448169 
L 223.62512 134.054849 
L 224.157191 134.85975 
L 224.237955 134.98194 
L 224.850811 135.90903 
L 225.090301 136.271318 
L 225.466703 136.83612 
L 226.023411 137.681346 
L 226.078501 137.763211 
L 226.704269 138.690301 
L 226.956522 139.067937 
L 227.322781 139.617391 
L 227.889632 140.468767 
L 227.939464 140.544482 
L 228.557953 141.471572 
L 228.822742 141.885761 
L 229.106177 142.398662 
L 229.469647 143.325753 
L 229.755853 144.055778 
L 229.833112 144.252843 
L 230.196577 145.179933 
L 230.552884 146.107023 
L 230.688963 146.481748 
L 230.887885 147.034114 
L 231.307957 147.961204 
L 231.622074 148.596906 
L 231.766057 148.888294 
L 232.224144 149.815385 
L 232.555184 150.485361 
L 232.682226 150.742475 
L 233.14601 151.669565 
L 233.488294 152.194649 
L 233.78009 152.596656 
L 234.421405 153.482464 
L 234.450475 153.523746 
L 235.074712 154.450836 
L 235.354515 154.869548 
L 235.689784 155.377926 
L 236.277251 156.305017 
L 236.287625 156.321766 
L 236.849943 157.232107 
L 237.220736 157.947912 
L 237.326455 158.159197 
L 237.790355 159.086288 
L 238.153846 159.813357 
L 238.253234 160.013378 
L 238.707381 160.940468 
L 239.086957 161.734522 
L 239.149273 161.867559 
L 239.59375 162.794649 
L 240.020067 163.521977 
L 240.137151 163.721739 
L 240.680534 164.648829 
L 240.953177 165.113999 
L 241.22392 165.57592 
L 241.773413 166.50301 
L 241.886288 166.731556 
L 242.230359 167.4301 
L 242.645736 168.357191 
L 242.819398 168.765933 
L 243.04465 169.284281 
L 243.409849 170.211371 
L 243.73757 171.138462 
L 243.752508 171.182542 
L 244.047922 172.065552 
L 244.358118 172.992642 
L 244.668299 173.919732 
L 244.685619 173.971498 
L 244.978483 174.846823 
L 245.288669 175.773913 
L 245.59886 176.701003 
L 245.618729 176.760391 
L 245.909027 177.628094 
L 246.219211 178.555184 
L 246.52939 179.482274 
L 246.551839 179.549374 
L 246.839578 180.409365 
L 247.149758 181.336455 
L 247.460035 182.263545 
L 247.48495 182.345827 
L 247.735955 183.190635 
L 248.047288 184.117726 
L 248.417387 185.044816 
L 248.41806 185.049696 
L 248.537078 185.971906 
L 248.577999 186.898997 
L 248.626649 187.826087 
L 248.728099 188.753177 
L 248.830414 189.680268 
L 248.84474 190.607358 
L 248.820556 191.534448 
L 248.789913 192.461538 
L 248.759264 193.388629 
L 248.728632 194.315719 
L 248.69798 195.242809 
L 248.667215 196.1699 
L 248.639621 197.09699 
L 248.651421 198.02408 
L 248.480739 198.951171 
L 248.41806 199.146643 
L 248.185925 199.878261 
L 247.924269 200.805351 
L 247.665476 201.732441 
L 247.48495 202.381336 
L 247.407554 202.659532 
L 247.149633 203.586622 
L 246.874305 204.513712 
L 246.567878 205.440803 
L 246.551839 205.479509 
L 246.157924 206.367893 
L 245.690679 207.294983 
L 245.618729 207.437741 
L 245.223428 208.222074 
L 244.756179 209.149164 
L 244.685619 209.275595 
L 244.236828 210.076254 
L 243.752508 210.931147 
L 243.711606 211.003344 
L 243.204134 211.930435 
L 242.819398 212.70382 
L 242.738917 212.857525 
L 242.136679 213.784615 
L 241.886288 214.121147 
L 241.44262 214.711706 
L 240.953177 215.360228 
L 240.74247 215.638796 
L 240.020067 216.541314 
L 239.99923 216.565886 
L 239.205646 217.492977 
L 239.086957 217.625322 
L 238.377408 218.420067 
L 238.153846 218.689037 
L 237.647509 219.347157 
L 237.220736 219.907023 
L 236.900493 220.274247 
L 236.287625 220.871998 
L 235.930513 221.201338 
L 235.354515 221.667297 
L 234.707837 222.128428 
L 234.421405 222.332725 
L 233.488294 222.987275 
L 233.384697 223.055518 
L 232.555184 223.550416 
L 231.708975 223.982609 
L 231.622074 224.02658 
L 230.688963 224.498745 
L 229.876793 224.909699 
L 229.755853 224.970895 
L 228.822742 225.443069 
L 227.90441 225.836789 
L 227.889632 225.842221 
L 226.956522 226.037239 
L 226.023411 226.256144 
L 225.090301 226.473107 
L 224.157191 226.691108 
L 223.823366 226.76388 
L 223.22408 226.90626 
L 222.29097 227.191245 
L 221.35786 227.471696 
L 220.642717 227.69097 
L 220.424749 227.756861 
L 219.491639 228.035385 
L 218.558528 228.293288 
L 217.625418 228.546011 
L 217.35395 228.61806 
L 216.692308 228.790319 
L 215.759197 229.036175 
L 214.826087 229.286703 
L 213.892977 229.533056 
L 213.847168 229.545151 
L 212.959866 229.762541 
L 212.026756 229.769829 
L 211.093645 229.756993 
L 210.160535 229.736619 
L 209.227425 229.783049 
L 208.294314 229.82355 
L 207.361204 229.850008 
L 206.428094 229.876347 
L 205.494983 229.902695 
L 204.561873 229.9335 
L 203.628763 229.889882 
L 202.695652 229.80619 
L 201.762542 229.714537 
L 200.829431 229.622344 
z
" clip-path="url(#pb40131cad3)" style="fill: none; stroke: #000000; stroke-width: 1.5"/>
   </g>
   <g id="patch_3">
    <path d="M 45 320.4 
L 45 43.2 
" style="fill: none; stroke: #000000; stroke-width: 0.8; stroke-linejoin: miter; stroke-linecap: square"/>
   </g>
   <g id="patch_4">
    <path d="M 324 320.4 
L 324 43.2 
" style="fill: none; stroke: #000000; stroke-width: 0.8; stroke-linejoin: miter; stroke-linecap: square"/>
   </g>
   <g id="patch_5">
    <path d="M 45 320.4 
L 324 320.4 
" style="fill: none; stroke: #000000; stroke-width: 0.8; stroke-linejoin: miter; stroke-linecap: square"/>
   </g>
   <g id="patch_6">
    <path d="M 45 43.2 
L 324 43.2 
" style="fill: none; stroke: #000000; stroke-width: 0.8; stroke-linejoin: miter; stroke-linecap: square"/>
   </g>
  </g>
 </g>
 <defs>
  <clipPath id="pb40131cad3">
   <rect x="45" y="43.2" width="279" height="277.2"/>
  </clipPath>
 </defs>
</svg>
