<?xml version="1.0" encoding="utf-8" standalone="no"?>
<!DOCTYPE svg PUBLIC "-//W3C//DTD SVG 1.1//EN"
  "http://www.w3.org/Graphics/SVG/1.1/DTD/svg11.dtd">
<svg xmlns:xlink="http://www.w3.org/1999/xlink" width="360pt" height="360pt" viewBox="0 0 360 360" xmlns="http://www.w3.org/2000/svg" version="1.1">
 <metadata>
  <rdf:RDF xmlns:dc="http://purl.org/dc/elements/1.1/" xmlns:cc="http://creativecommons.org/ns#" xmlns:rdf="http://www.w3.org/1999/02/22-rdf-syntax-ns#">
   <cc:Work>
    <dc:type rdf:resource="http://purl.org/dc/dcmitype/StillImage"/>
    <dc:date>2022-04-10T19:53:32.570611</dc:date>
    <dc:format>image/svg+xml</dc:format>
    <dc:creator>
     <cc:Agent>
      <dc:title>Matplotlib v3.5.1, https://matplotlib.org/</dc:title>
     </cc:Agent>
    </dc:creator>
   </cc:Work>
  </rdf:RDF>
 </metadata>
 <defs>
  <style type="text/css">*{stroke-linejoin: round; stroke-linecap: butt}</style>
 </defs>
 <g id="figure_1">
  <g id="patch_1">
   <path d="M 0 360 
L 360 360 
L 360 0 
L 0 0 
z
" style="fill: #ffffff"/>
  </g>
  <g id="axes_1">
   <g id="patch_2">
    <path d="M 45 320.4 
L 324 320.4 
L 324 43.2 
L 45 43.2 
z
" style="fill: #ffffff"/>
   </g>
   <g id="PathCollection_1">
    <defs>
     <path id="md9188d99c7" d="M 0 0.5 
C 0.132602 0.5 0.25979 0.447317 0.353553 0.353553 
C 0.447317 0.25979 0.5 0.132602 0.5 0 
C 0.5 -0.132602 0.447317 -0.25979 0.353553 -0.353553 
C 0.25979 -0.447317 0.132602 -0.5 0 -0.5 
C -0.132602 -0.5 -0.25979 -0.447317 -0.353553 -0.353553 
C -0.447317 -0.25979 -0.5 -0.132602 -0.5 0 
C -0.5 0.132602 -0.447317 0.25979 -0.353553 0.353553 
C -0.25979 0.447317 -0.132602 0.5 0 0.5 
z
" style="stroke: #ff0000"/>
    </defs>
    <g clip-path="url(#peac9e1ef41)">
     <use xlink:href="#md9188d99c7" x="229.972689" y="181.336455" style="fill: #ff0000; stroke: #ff0000"/>
     <use xlink:href="#md9188d99c7" x="228.393287" y="177.08689" style="fill: #ff0000; stroke: #ff0000"/>
     <use xlink:href="#md9188d99c7" x="226.737184" y="173.081365" style="fill: #ff0000; stroke: #ff0000"/>
     <use xlink:href="#md9188d99c7" x="225.206332" y="169.208604" style="fill: #ff0000; stroke: #ff0000"/>
     <use xlink:href="#md9188d99c7" x="223.874481" y="165.32424" style="fill: #ff0000; stroke: #ff0000"/>
     <use xlink:href="#md9188d99c7" x="222.680953" y="161.307746" style="fill: #ff0000; stroke: #ff0000"/>
     <use xlink:href="#md9188d99c7" x="221.461127" y="157.108883" style="fill: #ff0000; stroke: #ff0000"/>
     <use xlink:href="#md9188d99c7" x="219.999883" y="152.770837" style="fill: #ff0000; stroke: #ff0000"/>
     <use xlink:href="#md9188d99c7" x="218.091694" y="148.425026" style="fill: #ff0000; stroke: #ff0000"/>
     <use xlink:href="#md9188d99c7" x="215.591622" y="144.260456" style="fill: #ff0000; stroke: #ff0000"/>
     <use xlink:href="#md9188d99c7" x="212.44452" y="140.478088" style="fill: #ff0000; stroke: #ff0000"/>
     <use xlink:href="#md9188d99c7" x="208.686762" y="137.245374" style="fill: #ff0000; stroke: #ff0000"/>
     <use xlink:href="#md9188d99c7" x="204.423658" y="134.665908" style="fill: #ff0000; stroke: #ff0000"/>
     <use xlink:href="#md9188d99c7" x="199.793366" y="132.774347" style="fill: #ff0000; stroke: #ff0000"/>
     <use xlink:href="#md9188d99c7" x="194.932237" y="131.558821" style="fill: #ff0000; stroke: #ff0000"/>
     <use xlink:href="#md9188d99c7" x="189.956262" y="131.001958" style="fill: #ff0000; stroke: #ff0000"/>
     <use xlink:href="#md9188d99c7" x="184.966555" y="131.119796" style="fill: #ff0000; stroke: #ff0000"/>
     <use xlink:href="#md9188d99c7" x="180.073112" y="131.973031" style="fill: #ff0000; stroke: #ff0000"/>
     <use xlink:href="#md9188d99c7" x="175.416917" y="133.63692" style="fill: #ff0000; stroke: #ff0000"/>
     <use xlink:href="#md9188d99c7" x="171.167986" y="136.142139" style="fill: #ff0000; stroke: #ff0000"/>
     <use xlink:href="#md9188d99c7" x="167.491739" y="139.420698" style="fill: #ff0000; stroke: #ff0000"/>
     <use xlink:href="#md9188d99c7" x="164.498262" y="143.290026" style="fill: #ff0000; stroke: #ff0000"/>
     <use xlink:href="#md9188d99c7" x="162.201518" y="147.485978" style="fill: #ff0000; stroke: #ff0000"/>
     <use xlink:href="#md9188d99c7" x="160.511344" y="151.729944" style="fill: #ff0000; stroke: #ff0000"/>
     <use xlink:href="#md9188d99c7" x="159.265718" y="155.801429" style="fill: #ff0000; stroke: #ff0000"/>
     <use xlink:href="#md9188d99c7" x="158.292688" y="159.587008" style="fill: #ff0000; stroke: #ff0000"/>
     <use xlink:href="#md9188d99c7" x="157.476331" y="163.08658" style="fill: #ff0000; stroke: #ff0000"/>
     <use xlink:href="#md9188d99c7" x="156.79669" y="166.376491" style="fill: #ff0000; stroke: #ff0000"/>
     <use xlink:href="#md9188d99c7" x="156.325254" y="169.549379" style="fill: #ff0000; stroke: #ff0000"/>
     <use xlink:href="#md9188d99c7" x="156.179565" y="172.660355" style="fill: #ff0000; stroke: #ff0000"/>
     <use xlink:href="#md9188d99c7" x="156.458037" y="175.702343" style="fill: #ff0000; stroke: #ff0000"/>
     <use xlink:href="#md9188d99c7" x="157.180573" y="178.61743" style="fill: #ff0000; stroke: #ff0000"/>
     <use xlink:href="#md9188d99c7" x="158.255795" y="181.336455" style="fill: #ff0000; stroke: #ff0000"/>
     <use xlink:href="#md9188d99c7" x="159.488183" y="183.829666" style="fill: #ff0000; stroke: #ff0000"/>
     <use xlink:href="#md9188d99c7" x="160.628042" y="186.146452" style="fill: #ff0000; stroke: #ff0000"/>
     <use xlink:href="#md9188d99c7" x="161.452104" y="188.423466" style="fill: #ff0000; stroke: #ff0000"/>
     <use xlink:href="#md9188d99c7" x="161.846798" y="190.851188" style="fill: #ff0000; stroke: #ff0000"/>
     <use xlink:href="#md9188d99c7" x="161.859897" y="193.607539" style="fill: #ff0000; stroke: #ff0000"/>
     <use xlink:href="#md9188d99c7" x="161.696648" y="196.784597" style="fill: #ff0000; stroke: #ff0000"/>
     <use xlink:href="#md9188d99c7" x="161.660302" y="200.340003" style="fill: #ff0000; stroke: #ff0000"/>
     <use xlink:href="#md9188d99c7" x="162.060946" y="204.094285" style="fill: #ff0000; stroke: #ff0000"/>
     <use xlink:href="#md9188d99c7" x="163.127496" y="207.775742" style="fill: #ff0000; stroke: #ff0000"/>
     <use xlink:href="#md9188d99c7" x="164.952502" y="211.096357" style="fill: #ff0000; stroke: #ff0000"/>
     <use xlink:href="#md9188d99c7" x="167.48448" y="213.832106" style="fill: #ff0000; stroke: #ff0000"/>
     <use xlink:href="#md9188d99c7" x="170.565253" y="215.879965" style="fill: #ff0000; stroke: #ff0000"/>
     <use xlink:href="#md9188d99c7" x="173.994916" y="217.271757" style="fill: #ff0000; stroke: #ff0000"/>
     <use xlink:href="#md9188d99c7" x="177.598205" y="218.140666" style="fill: #ff0000; stroke: #ff0000"/>
     <use xlink:href="#md9188d99c7" x="181.267095" y="218.655373" style="fill: #ff0000; stroke: #ff0000"/>
     <use xlink:href="#md9188d99c7" x="184.966555" y="218.951235" style="fill: #ff0000; stroke: #ff0000"/>
     <use xlink:href="#md9188d99c7" x="188.709078" y="219.089777" style="fill: #ff0000; stroke: #ff0000"/>
     <use xlink:href="#md9188d99c7" x="192.519448" y="219.062439" style="fill: #ff0000; stroke: #ff0000"/>
     <use xlink:href="#md9188d99c7" x="196.41323" y="218.827634" style="fill: #ff0000; stroke: #ff0000"/>
     <use xlink:href="#md9188d99c7" x="200.39719" y="218.348962" style="fill: #ff0000; stroke: #ff0000"/>
     <use xlink:href="#md9188d99c7" x="204.478381" y="217.605004" style="fill: #ff0000; stroke: #ff0000"/>
     <use xlink:href="#md9188d99c7" x="208.660169" y="216.567679" style="fill: #ff0000; stroke: #ff0000"/>
     <use xlink:href="#md9188d99c7" x="212.916969" y="215.174406" style="fill: #ff0000; stroke: #ff0000"/>
     <use xlink:href="#md9188d99c7" x="217.162243" y="213.324428" style="fill: #ff0000; stroke: #ff0000"/>
     <use xlink:href="#md9188d99c7" x="221.234528" y="210.908783" style="fill: #ff0000; stroke: #ff0000"/>
     <use xlink:href="#md9188d99c7" x="224.914959" y="207.856914" style="fill: #ff0000; stroke: #ff0000"/>
     <use xlink:href="#md9188d99c7" x="227.96909" y="204.173496" style="fill: #ff0000; stroke: #ff0000"/>
     <use xlink:href="#md9188d99c7" x="230.195209" y="199.94991" style="fill: #ff0000; stroke: #ff0000"/>
     <use xlink:href="#md9188d99c7" x="231.466598" y="195.351084" style="fill: #ff0000; stroke: #ff0000"/>
     <use xlink:href="#md9188d99c7" x="231.763894" y="190.584969" style="fill: #ff0000; stroke: #ff0000"/>
     <use xlink:href="#md9188d99c7" x="231.192487" y="185.859938" style="fill: #ff0000; stroke: #ff0000"/>
    </g>
   </g>
   <g id="matplotlib.axis_1">
    <g id="xtick_1">
     <g id="line2d_1">
      <defs>
       <path id="mdf348c621b" d="M 0 0 
L 0 3.5 
" style="stroke: #000000; stroke-width: 0.8"/>
      </defs>
      <g>
       <use xlink:href="#mdf348c621b" x="45" y="320.4" style="stroke: #000000; stroke-width: 0.8"/>
      </g>
     </g>
     <g id="text_1">
      <!-- −3 -->
      <g transform="translate(37.628906 334.998438)scale(0.1 -0.1)">
       <defs>
        <path id="DejaVuSans-2212" d="M 678 2272 
L 4684 2272 
L 4684 1741 
L 678 1741 
L 678 2272 
z
" transform="scale(0.015625)"/>
        <path id="DejaVuSans-33" d="M 2597 2516 
Q 3050 2419 3304 2112 
Q 3559 1806 3559 1356 
Q 3559 666 3084 287 
Q 2609 -91 1734 -91 
Q 1441 -91 1130 -33 
Q 819 25 488 141 
L 488 750 
Q 750 597 1062 519 
Q 1375 441 1716 441 
Q 2309 441 2620 675 
Q 2931 909 2931 1356 
Q 2931 1769 2642 2001 
Q 2353 2234 1838 2234 
L 1294 2234 
L 1294 2753 
L 1863 2753 
Q 2328 2753 2575 2939 
Q 2822 3125 2822 3475 
Q 2822 3834 2567 4026 
Q 2313 4219 1838 4219 
Q 1578 4219 1281 4162 
Q 984 4106 628 3988 
L 628 4550 
Q 988 4650 1302 4700 
Q 1616 4750 1894 4750 
Q 2613 4750 3031 4423 
Q 3450 4097 3450 3541 
Q 3450 3153 3228 2886 
Q 3006 2619 2597 2516 
z
" transform="scale(0.015625)"/>
       </defs>
       <use xlink:href="#DejaVuSans-2212"/>
       <use xlink:href="#DejaVuSans-33" x="83.789062"/>
      </g>
     </g>
    </g>
    <g id="xtick_2">
     <g id="line2d_2">
      <g>
       <use xlink:href="#mdf348c621b" x="91.655518" y="320.4" style="stroke: #000000; stroke-width: 0.8"/>
      </g>
     </g>
     <g id="text_2">
      <!-- −2 -->
      <g transform="translate(84.284425 334.998438)scale(0.1 -0.1)">
       <defs>
        <path id="DejaVuSans-32" d="M 1228 531 
L 3431 531 
L 3431 0 
L 469 0 
L 469 531 
Q 828 903 1448 1529 
Q 2069 2156 2228 2338 
Q 2531 2678 2651 2914 
Q 2772 3150 2772 3378 
Q 2772 3750 2511 3984 
Q 2250 4219 1831 4219 
Q 1534 4219 1204 4116 
Q 875 4013 500 3803 
L 500 4441 
Q 881 4594 1212 4672 
Q 1544 4750 1819 4750 
Q 2544 4750 2975 4387 
Q 3406 4025 3406 3419 
Q 3406 3131 3298 2873 
Q 3191 2616 2906 2266 
Q 2828 2175 2409 1742 
Q 1991 1309 1228 531 
z
" transform="scale(0.015625)"/>
       </defs>
       <use xlink:href="#DejaVuSans-2212"/>
       <use xlink:href="#DejaVuSans-32" x="83.789062"/>
      </g>
     </g>
    </g>
    <g id="xtick_3">
     <g id="line2d_3">
      <g>
       <use xlink:href="#mdf348c621b" x="138.311037" y="320.4" style="stroke: #000000; stroke-width: 0.8"/>
      </g>
     </g>
     <g id="text_3">
      <!-- −1 -->
      <g transform="translate(130.939943 334.998438)scale(0.1 -0.1)">
       <defs>
        <path id="DejaVuSans-31" d="M 794 531 
L 1825 531 
L 1825 4091 
L 703 3866 
L 703 4441 
L 1819 4666 
L 2450 4666 
L 2450 531 
L 3481 531 
L 3481 0 
L 794 0 
L 794 531 
z
" transform="scale(0.015625)"/>
       </defs>
       <use xlink:href="#DejaVuSans-2212"/>
       <use xlink:href="#DejaVuSans-31" x="83.789062"/>
      </g>
     </g>
    </g>
    <g id="xtick_4">
     <g id="line2d_4">
      <g>
       <use xlink:href="#mdf348c621b" x="184.966555" y="320.4" style="stroke: #000000; stroke-width: 0.8"/>
      </g>
     </g>
     <g id="text_4">
      <!-- 0 -->
      <g transform="translate(181.785305 334.998438)scale(0.1 -0.1)">
       <defs>
        <path id="DejaVuSans-30" d="M 2034 4250 
Q 1547 4250 1301 3770 
Q 1056 3291 1056 2328 
Q 1056 1369 1301 889 
Q 1547 409 2034 409 
Q 2525 409 2770 889 
Q 3016 1369 3016 2328 
Q 3016 3291 2770 3770 
Q 2525 4250 2034 4250 
z
M 2034 4750 
Q 2819 4750 3233 4129 
Q 3647 3509 3647 2328 
Q 3647 1150 3233 529 
Q 2819 -91 2034 -91 
Q 1250 -91 836 529 
Q 422 1150 422 2328 
Q 422 3509 836 4129 
Q 1250 4750 2034 4750 
z
" transform="scale(0.015625)"/>
       </defs>
       <use xlink:href="#DejaVuSans-30"/>
      </g>
     </g>
    </g>
    <g id="xtick_5">
     <g id="line2d_5">
      <g>
       <use xlink:href="#mdf348c621b" x="231.622074" y="320.4" style="stroke: #000000; stroke-width: 0.8"/>
      </g>
     </g>
     <g id="text_5">
      <!-- 1 -->
      <g transform="translate(228.440824 334.998438)scale(0.1 -0.1)">
       <use xlink:href="#DejaVuSans-31"/>
      </g>
     </g>
    </g>
    <g id="xtick_6">
     <g id="line2d_6">
      <g>
       <use xlink:href="#mdf348c621b" x="278.277592" y="320.4" style="stroke: #000000; stroke-width: 0.8"/>
      </g>
     </g>
     <g id="text_6">
      <!-- 2 -->
      <g transform="translate(275.096342 334.998438)scale(0.1 -0.1)">
       <use xlink:href="#DejaVuSans-32"/>
      </g>
     </g>
    </g>
   </g>
   <g id="matplotlib.axis_2">
    <g id="ytick_1">
     <g id="line2d_7">
      <defs>
       <path id="mb5481b3e7c" d="M 0 0 
L -3.5 0 
" style="stroke: #000000; stroke-width: 0.8"/>
      </defs>
      <g>
       <use xlink:href="#mb5481b3e7c" x="45" y="320.4" style="stroke: #000000; stroke-width: 0.8"/>
      </g>
     </g>
     <g id="text_7">
      <!-- −3 -->
      <g transform="translate(23.257812 324.199219)scale(0.1 -0.1)">
       <use xlink:href="#DejaVuSans-2212"/>
       <use xlink:href="#DejaVuSans-33" x="83.789062"/>
      </g>
     </g>
    </g>
    <g id="ytick_2">
     <g id="line2d_8">
      <g>
       <use xlink:href="#mb5481b3e7c" x="45" y="274.045485" style="stroke: #000000; stroke-width: 0.8"/>
      </g>
     </g>
     <g id="text_8">
      <!-- −2 -->
      <g transform="translate(23.257812 277.844704)scale(0.1 -0.1)">
       <use xlink:href="#DejaVuSans-2212"/>
       <use xlink:href="#DejaVuSans-32" x="83.789062"/>
      </g>
     </g>
    </g>
    <g id="ytick_3">
     <g id="line2d_9">
      <g>
       <use xlink:href="#mb5481b3e7c" x="45" y="227.69097" style="stroke: #000000; stroke-width: 0.8"/>
      </g>
     </g>
     <g id="text_9">
      <!-- −1 -->
      <g transform="translate(23.257812 231.490189)scale(0.1 -0.1)">
       <use xlink:href="#DejaVuSans-2212"/>
       <use xlink:href="#DejaVuSans-31" x="83.789062"/>
      </g>
     </g>
    </g>
    <g id="ytick_4">
     <g id="line2d_10">
      <g>
       <use xlink:href="#mb5481b3e7c" x="45" y="181.336455" style="stroke: #000000; stroke-width: 0.8"/>
      </g>
     </g>
     <g id="text_10">
      <!-- 0 -->
      <g transform="translate(31.6375 185.135674)scale(0.1 -0.1)">
       <use xlink:href="#DejaVuSans-30"/>
      </g>
     </g>
    </g>
    <g id="ytick_5">
     <g id="line2d_11">
      <g>
       <use xlink:href="#mb5481b3e7c" x="45" y="134.98194" style="stroke: #000000; stroke-width: 0.8"/>
      </g>
     </g>
     <g id="text_11">
      <!-- 1 -->
      <g transform="translate(31.6375 138.781159)scale(0.1 -0.1)">
       <use xlink:href="#DejaVuSans-31"/>
      </g>
     </g>
    </g>
    <g id="ytick_6">
     <g id="line2d_12">
      <g>
       <use xlink:href="#mb5481b3e7c" x="45" y="88.627425" style="stroke: #000000; stroke-width: 0.8"/>
      </g>
     </g>
     <g id="text_12">
      <!-- 2 -->
      <g transform="translate(31.6375 92.426643)scale(0.1 -0.1)">
       <use xlink:href="#DejaVuSans-32"/>
      </g>
     </g>
    </g>
   </g>
   <g id="PathCollection_2">
    <path d="M 192.431438 195.24878 
L 192.37567 195.242809 
L 191.498328 195.133787 
L 190.565217 194.814436 
L 189.632107 194.437226 
L 189.35859 194.315719 
L 188.698997 194.022972 
L 187.765886 193.58186 
L 187.381677 193.388629 
L 186.832776 193.080125 
L 186.277113 192.461538 
L 185.899666 192.03567 
L 185.606785 191.534448 
L 185.345714 190.607358 
L 185.130611 189.680268 
L 184.966555 189.21221 
L 184.801697 188.753177 
L 184.377926 187.826087 
L 184.033445 187.055935 
L 183.956678 186.898997 
L 183.542517 185.971906 
L 183.100334 185.167278 
L 183.030743 185.044816 
L 182.576035 184.117726 
L 182.284416 183.190635 
L 182.167224 182.585141 
L 182.117421 182.263545 
L 182.012696 181.336455 
L 181.775746 180.409365 
L 181.444636 179.482274 
L 181.234114 179.034804 
L 181.017058 178.555184 
L 180.639095 177.628094 
L 180.484333 176.701003 
L 180.342434 175.773913 
L 180.301003 175.498683 
L 180.206436 174.846823 
L 180.166646 173.919732 
L 180.224922 172.992642 
L 180.301003 172.533839 
L 180.406769 172.065552 
L 180.749412 171.138462 
L 180.996878 170.211371 
L 181.160516 169.284281 
L 181.234114 168.919333 
L 181.343401 168.357191 
L 181.49854 167.4301 
L 181.627969 166.50301 
L 181.770626 165.57592 
L 181.939341 164.648829 
L 182.129827 163.721739 
L 182.167224 163.539739 
L 182.334078 162.794649 
L 182.66657 161.867559 
L 183.100334 161.011248 
L 183.140388 160.940468 
L 183.647095 160.013378 
L 184.033445 159.311101 
L 184.163342 159.086288 
L 184.719291 158.159197 
L 184.966555 157.749076 
L 185.262352 157.232107 
L 185.801689 156.305017 
L 185.899666 156.196886 
L 186.830255 155.377926 
L 186.832776 155.375633 
L 187.765886 154.669697 
L 188.698997 154.602829 
L 189.632107 154.73105 
L 190.565217 155.031418 
L 191.498328 155.337011 
L 191.622035 155.377926 
L 192.431438 155.654396 
L 193.364548 155.687575 
L 194.297659 155.869039 
L 195.052929 156.305017 
L 195.230769 156.530603 
L 195.542247 157.232107 
L 195.953891 158.159197 
L 196.16388 158.632125 
L 196.358359 159.086288 
L 196.681317 160.013378 
L 196.896943 160.940468 
L 197.09699 161.660772 
L 197.168171 161.867559 
L 197.525202 162.794649 
L 198.0301 163.695622 
L 198.04274 163.721739 
L 198.491388 164.648829 
L 198.940037 165.57592 
L 198.963211 165.617222 
L 199.453851 166.50301 
L 199.896321 167.120349 
L 200.125966 167.4301 
L 200.713554 168.357191 
L 200.829431 168.704014 
L 200.982216 169.284281 
L 201.202356 170.211371 
L 201.379487 171.138462 
L 201.564445 172.065552 
L 201.762542 172.970831 
L 201.767275 172.992642 
L 202.008525 173.919732 
L 202.44073 174.846823 
L 202.695652 175.314754 
L 202.950204 175.773913 
L 203.470186 176.701003 
L 203.628763 176.979684 
L 203.998649 177.628094 
L 204.526036 178.555184 
L 204.561873 178.617164 
L 205.066728 179.482274 
L 205.494983 180.279296 
L 205.557393 180.409365 
L 205.961753 181.336455 
L 206.367211 182.263545 
L 206.428094 182.387412 
L 206.817332 183.190635 
L 207.287347 184.117726 
L 207.361204 184.263406 
L 207.757363 185.044816 
L 207.942256 185.971906 
L 208.03165 186.898997 
L 208.095213 187.826087 
L 208.19875 188.753177 
L 208.294314 189.41494 
L 208.332934 189.680268 
L 208.421027 190.607358 
L 208.294314 190.835552 
L 207.743292 191.534448 
L 207.361204 191.919522 
L 206.818444 192.461538 
L 206.428094 192.825435 
L 205.799834 193.388629 
L 205.494983 193.644497 
L 204.561873 194.225826 
L 204.283877 194.315719 
L 203.628763 194.523145 
L 202.695652 194.745564 
L 201.762542 194.845478 
L 200.829431 194.946464 
L 199.896321 195.052772 
L 198.963211 195.232494 
L 198.751599 195.242809 
L 198.0301 195.278553 
L 197.09699 195.324832 
L 196.16388 195.37117 
L 195.230769 195.351663 
L 194.297659 195.32515 
L 193.364548 195.289965 
L 192.431438 195.24878 
z
" clip-path="url(#peac9e1ef41)" style="fill: none; stroke-dasharray: 5.55,2.4; stroke-dashoffset: 0; stroke: #000000; stroke-width: 1.5"/>
   </g>
   <g id="PathCollection_3">
    <path d="M 181.234114 220.355795 
L 180.905723 220.274247 
L 180.301003 220.12269 
L 179.367893 219.771742 
L 178.479284 219.347157 
L 178.434783 219.320325 
L 177.501672 218.925551 
L 176.568562 218.477868 
L 176.451505 218.420067 
L 175.635452 218.112521 
L 174.702341 217.676438 
L 174.38908 217.492977 
L 173.769231 217.139839 
L 172.991855 216.565886 
L 172.83612 216.465749 
L 171.90301 215.819711 
L 171.628686 215.638796 
L 170.9699 215.24771 
L 170.334496 214.711706 
L 170.036789 214.471772 
L 169.103679 213.867493 
L 168.955869 213.784615 
L 168.170569 213.287901 
L 167.751753 212.857525 
L 167.237458 212.044919 
L 167.165002 211.930435 
L 166.553833 211.003344 
L 166.304348 210.570562 
L 165.991504 210.076254 
L 165.396016 209.149164 
L 165.371237 209.101229 
L 164.79455 208.222074 
L 164.438127 207.62185 
L 164.231254 207.294983 
L 163.6085 206.367893 
L 163.505017 206.158715 
L 163.041898 205.440803 
L 162.571906 204.673074 
L 162.47972 204.513712 
L 162.192039 203.586622 
L 161.992771 202.659532 
L 161.840361 201.732441 
L 161.730098 200.805351 
L 161.638796 200.066143 
L 161.605246 199.878261 
L 161.455153 198.951171 
L 161.324305 198.02408 
L 161.211689 197.09699 
L 161.08938 196.1699 
L 161.033559 195.242809 
L 160.880388 194.315719 
L 160.757008 193.388629 
L 160.705686 193.103729 
L 160.538258 192.461538 
L 160.385044 191.534448 
L 160.260229 190.607358 
L 160.173908 189.680268 
L 160.078021 188.753177 
L 159.998896 187.826087 
L 159.881954 186.898997 
L 159.772575 186.41398 
L 159.636119 185.971906 
L 159.321793 185.044816 
L 158.997801 184.117726 
L 158.839465 183.529228 
L 158.708814 183.190635 
L 158.224209 182.263545 
L 157.939478 181.336455 
L 157.906355 181.276254 
L 157.404315 180.409365 
L 157.102453 179.482274 
L 156.973244 178.902281 
L 156.86768 178.555184 
L 156.561713 177.628094 
L 156.380294 176.701003 
L 156.264689 175.773913 
L 156.19728 174.846823 
L 156.041311 173.919732 
L 156.040134 173.911864 
L 155.888072 172.992642 
L 156.040134 172.629792 
L 156.21172 172.065552 
L 156.576922 171.138462 
L 156.973244 170.572053 
L 157.162183 170.211371 
L 157.523383 169.284281 
L 157.715518 168.357191 
L 157.906355 167.532673 
L 157.92757 167.4301 
L 158.06432 166.50301 
L 158.134736 165.57592 
L 158.135414 164.648829 
L 158.330064 163.721739 
L 158.434405 162.794649 
L 158.523593 161.867559 
L 158.620945 160.940468 
L 158.676768 160.013378 
L 158.792812 159.086288 
L 158.839465 158.779922 
L 158.940107 158.159197 
L 159.036131 157.232107 
L 159.06799 156.305017 
L 159.29219 155.377926 
L 159.600309 154.450836 
L 159.772575 154.06152 
L 160.002736 153.523746 
L 160.369777 152.596656 
L 160.705686 151.753428 
L 160.750545 151.669565 
L 161.098152 150.742475 
L 161.408786 149.815385 
L 161.638796 149.163849 
L 161.756568 148.888294 
L 162.072531 147.961204 
L 162.408357 147.034114 
L 162.571906 146.636629 
L 162.798771 146.107023 
L 163.178449 145.179933 
L 163.50247 144.252843 
L 163.505017 144.24732 
L 163.987654 143.325753 
L 164.438127 142.802308 
L 164.848732 142.398662 
L 165.371237 141.882486 
L 165.80317 141.471572 
L 166.304348 140.994786 
L 166.772934 140.544482 
L 167.237458 140.103487 
L 167.786508 139.617391 
L 168.170569 139.277373 
L 168.850203 138.690301 
L 169.103679 138.498739 
L 170.036789 137.853583 
L 170.167473 137.763211 
L 170.9699 137.281007 
L 171.623273 136.83612 
L 171.90301 136.634963 
L 172.816251 135.90903 
L 172.83612 135.892796 
L 173.769231 135.151329 
L 174.035569 134.98194 
L 174.702341 134.608492 
L 175.635452 134.13231 
L 175.750214 134.054849 
L 176.568562 133.622473 
L 177.501672 133.130193 
L 177.505262 133.127759 
L 178.434783 132.683563 
L 179.367893 132.275792 
L 179.503839 132.200669 
L 180.301003 131.86645 
L 181.234114 131.553537 
L 182.167224 131.284599 
L 182.194934 131.273579 
L 183.100334 131.030218 
L 184.033445 130.89446 
L 184.966555 130.821284 
L 185.899666 130.757855 
L 186.832776 130.873447 
L 187.765886 130.99422 
L 188.698997 131.113723 
L 189.632107 131.252194 
L 189.841244 131.273579 
L 190.565217 131.404196 
L 191.498328 131.527166 
L 192.431438 131.60176 
L 193.364548 131.699922 
L 194.297659 131.737506 
L 195.230769 131.717323 
L 196.16388 131.715755 
L 197.09699 131.729391 
L 198.0301 131.795701 
L 198.963211 131.910081 
L 199.873629 132.200669 
L 199.896321 132.210624 
L 200.829431 132.505105 
L 201.762542 132.913326 
L 202.229794 133.127759 
L 202.695652 133.340477 
L 203.628763 133.873301 
L 203.956416 134.054849 
L 204.561873 134.387571 
L 205.494983 134.917175 
L 205.593158 134.98194 
L 206.428094 135.5042 
L 207.052353 135.90903 
L 207.361204 136.11921 
L 208.294314 136.728572 
L 208.465906 136.83612 
L 209.227425 137.322047 
L 210.02948 137.763211 
L 210.160535 137.862589 
L 211.093645 138.518077 
L 211.259559 138.690301 
L 211.937206 139.617391 
L 212.026756 139.716827 
L 212.575219 140.544482 
L 212.959866 141.210359 
L 213.118955 141.471572 
L 213.681552 142.398662 
L 213.892977 142.707696 
L 214.281389 143.325753 
L 214.826087 144.192717 
L 214.858554 144.252843 
L 215.406237 145.179933 
L 215.759197 145.769469 
L 215.965652 146.107023 
L 216.491678 147.034114 
L 216.692308 147.311607 
L 217.104238 147.961204 
L 217.625418 148.759722 
L 217.718834 148.888294 
L 218.294425 149.815385 
L 218.558528 150.458395 
L 218.649732 150.742475 
L 218.98249 151.669565 
L 219.251285 152.596656 
L 219.491639 153.095363 
L 219.688893 153.523746 
L 220.019938 154.450836 
L 220.351334 155.377926 
L 220.424749 155.490035 
L 220.812111 156.305017 
L 221.158696 157.232107 
L 221.35786 157.63987 
L 221.588787 158.159197 
L 221.901532 159.086288 
L 222.217026 160.013378 
L 222.29097 160.147536 
L 222.639188 160.940468 
L 222.961095 161.867559 
L 223.148284 162.794649 
L 223.22408 163.061046 
L 223.383362 163.721739 
L 223.660413 164.648829 
L 223.950438 165.57592 
L 224.157191 166.305319 
L 224.216899 166.50301 
L 224.454796 167.4301 
L 224.808887 168.357191 
L 225.090301 169.03127 
L 225.204988 169.284281 
L 225.553311 170.211371 
L 225.888672 171.138462 
L 226.023411 171.461041 
L 226.255162 172.065552 
L 226.618565 172.992642 
L 226.956522 173.875382 
L 226.974612 173.919732 
L 227.325244 174.846823 
L 227.676425 175.773913 
L 227.889632 176.337669 
L 228.027268 176.701003 
L 228.384882 177.628094 
L 228.777339 178.555184 
L 228.822742 178.643318 
L 229.188271 179.482274 
L 229.547928 180.409365 
L 229.755853 180.921341 
L 229.937284 181.336455 
L 230.271699 182.263545 
L 230.554156 183.190635 
L 230.688963 183.654368 
L 230.814795 184.117726 
L 230.848843 185.044816 
L 230.847335 185.971906 
L 230.884459 186.898997 
L 230.998916 187.826087 
L 231.102467 188.753177 
L 231.202481 189.680268 
L 231.299167 190.607358 
L 231.38854 191.534448 
L 231.444143 192.461538 
L 231.521023 193.388629 
L 231.622074 194.187423 
L 231.63766 194.315719 
L 231.745139 195.242809 
L 231.807929 196.1699 
L 231.648953 197.09699 
L 231.622074 197.149914 
L 231.322693 198.02408 
L 231.023855 198.951171 
L 230.688963 199.840213 
L 230.672033 199.878261 
L 230.342213 200.805351 
L 229.755853 201.704746 
L 229.735273 201.732441 
L 229.110024 202.659532 
L 228.822742 203.060612 
L 228.463627 203.586622 
L 227.889632 204.327914 
L 227.729243 204.513712 
L 226.956522 205.377765 
L 226.898553 205.440803 
L 226.051678 206.367893 
L 226.023411 206.395285 
L 225.090301 207.187221 
L 224.955788 207.294983 
L 224.157191 207.972118 
L 223.882222 208.222074 
L 223.22408 208.806461 
L 222.828354 209.149164 
L 222.29097 209.593157 
L 221.693703 210.076254 
L 221.35786 210.330308 
L 220.513934 211.003344 
L 220.424749 211.093003 
L 219.616179 211.930435 
L 219.491639 212.059737 
L 218.725228 212.857525 
L 218.558528 213.030485 
L 217.697354 213.784615 
L 217.625418 213.838554 
L 216.692308 214.343508 
L 215.759197 214.617553 
L 215.506655 214.711706 
L 214.826087 214.94213 
L 213.892977 215.244639 
L 212.959866 215.498882 
L 212.536914 215.638796 
L 212.026756 215.801994 
L 211.093645 216.100094 
L 210.160535 216.371083 
L 209.542448 216.565886 
L 209.227425 216.668114 
L 208.294314 216.981049 
L 207.361204 217.279443 
L 206.601841 217.492977 
L 206.428094 217.527364 
L 205.494983 217.779763 
L 204.561873 217.953402 
L 203.628763 217.948824 
L 202.695652 217.931308 
L 201.762542 217.913734 
L 200.829431 217.894305 
L 199.896321 217.849315 
L 198.963211 217.871229 
L 198.0301 218.057584 
L 197.09699 218.312273 
L 196.823214 218.420067 
L 196.16388 218.659595 
L 195.230769 219.000621 
L 194.297659 219.307665 
L 194.207429 219.347157 
L 193.364548 219.657986 
L 192.431438 219.978751 
L 191.498328 220.032048 
L 190.565217 220.069136 
L 189.632107 220.111853 
L 188.698997 220.159969 
L 187.765886 220.229698 
L 187.499671 220.274247 
L 186.832776 220.348509 
L 185.899666 220.5673 
L 184.966555 220.752486 
L 184.033445 220.695934 
L 183.100334 220.624168 
L 182.167224 220.498459 
L 181.234114 220.355795 
z
" clip-path="url(#peac9e1ef41)" style="fill: none; stroke: #000000; stroke-width: 1.5"/>
   </g>
   <g id="PathCollection_4">
    <path d="M 174.702341 242.604512 
L 172.83612 242.43464 
L 170.9699 241.888116 
L 168.170569 240.849329 
L 164.246917 238.816054 
L 158.839465 235.985596 
L 157.906355 235.665579 
L 155.948384 234.180602 
L 151.374582 230.426917 
L 148.212305 227.69097 
L 147.402198 226.76388 
L 143.987674 221.201338 
L 140.832375 214.711706 
L 140.177258 211.684713 
L 139.402585 208.222074 
L 138.715702 206.367893 
L 138.03435 204.513712 
L 137.572086 201.732441 
L 136.926368 198.02408 
L 135.744101 194.315719 
L 133.491581 182.263545 
L 131.632043 172.992642 
L 131.618081 170.211371 
L 131.81973 168.357191 
L 133.645485 162.449793 
L 135.15407 157.232107 
L 136.444816 149.634511 
L 138.005658 146.107023 
L 140.177258 140.495035 
L 142.976589 133.924858 
L 143.280673 133.127759 
L 143.909699 131.981902 
L 147.64214 126.547482 
L 149.56495 124.783946 
L 153.679421 121.075585 
L 156.973244 118.080886 
L 159.291076 116.440134 
L 160.839915 115.513043 
L 163.505017 114.451084 
L 166.304348 113.543221 
L 170.9699 111.375305 
L 174.235105 109.950502 
L 177.501672 108.570979 
L 178.434783 108.303012 
L 181.234114 107.987607 
L 183.100334 107.754618 
L 186.832776 108.12774 
L 198.0301 109.228092 
L 200.829431 109.25878 
L 201.762542 109.219777 
L 203.628763 109.514438 
L 209.227425 111.196043 
L 212.309498 112.731773 
L 215.759197 114.597781 
L 220.424749 117.389254 
L 227.209788 122.929766 
L 232.828971 129.419398 
L 234.153412 131.273579 
L 236.681805 134.98194 
L 237.951281 136.83612 
L 241.113201 144.252843 
L 243.081929 148.888294 
L 243.776854 150.742475 
L 247.48495 158.650883 
L 248.286453 161.867559 
L 249.851412 169.284281 
L 251.817568 174.846823 
L 254.534496 182.263545 
L 254.663716 185.044816 
L 254.62461 187.826087 
L 254.375158 193.388629 
L 254.112961 196.1699 
L 254.282533 202.659532 
L 253.083612 206.393458 
L 251.80866 210.076254 
L 251.217391 211.250348 
L 245.265187 220.274247 
L 243.595201 222.128428 
L 240.953177 223.985116 
L 239.597093 224.909699 
L 237.67674 226.76388 
L 232.149063 232.326421 
L 229.755853 234.208699 
L 227.889632 234.964237 
L 221.35786 236.963592 
L 216.692308 238.323327 
L 213.892977 239.095489 
L 210.160535 240.218971 
L 205.494983 240.932749 
L 200.829431 241.711526 
L 198.0301 242.424207 
L 193.364548 242.776249 
L 181.234114 243.260337 
L 178.434783 242.917478 
L 174.702341 242.604512 
L 174.702341 242.604512 
" clip-path="url(#peac9e1ef41)" style="fill: none; stroke: #000000; stroke-width: 1.5"/>
   </g>
   <g id="patch_3">
    <path d="M 45 320.4 
L 45 43.2 
" style="fill: none; stroke: #000000; stroke-width: 0.8; stroke-linejoin: miter; stroke-linecap: square"/>
   </g>
   <g id="patch_4">
    <path d="M 324 320.4 
L 324 43.2 
" style="fill: none; stroke: #000000; stroke-width: 0.8; stroke-linejoin: miter; stroke-linecap: square"/>
   </g>
   <g id="patch_5">
    <path d="M 45 320.4 
L 324 320.4 
" style="fill: none; stroke: #000000; stroke-width: 0.8; stroke-linejoin: miter; stroke-linecap: square"/>
   </g>
   <g id="patch_6">
    <path d="M 45 43.2 
L 324 43.2 
" style="fill: none; stroke: #000000; stroke-width: 0.8; stroke-linejoin: miter; stroke-linecap: square"/>
   </g>
  </g>
 </g>
 <defs>
  <clipPath id="peac9e1ef41">
   <rect x="45" y="43.2" width="279" height="277.2"/>
  </clipPath>
 </defs>
</svg>
