<?xml version="1.0" encoding="utf-8" standalone="no"?>
<!DOCTYPE svg PUBLIC "-//W3C//DTD SVG 1.1//EN"
  "http://www.w3.org/Graphics/SVG/1.1/DTD/svg11.dtd">
<svg xmlns:xlink="http://www.w3.org/1999/xlink" width="360pt" height="360pt" viewBox="0 0 360 360" xmlns="http://www.w3.org/2000/svg" version="1.1">
 <metadata>
  <rdf:RDF xmlns:dc="http://purl.org/dc/elements/1.1/" xmlns:cc="http://creativecommons.org/ns#" xmlns:rdf="http://www.w3.org/1999/02/22-rdf-syntax-ns#">
   <cc:Work>
    <dc:type rdf:resource="http://purl.org/dc/dcmitype/StillImage"/>
    <dc:date>2022-04-03T22:41:42.497382</dc:date>
    <dc:format>image/svg+xml</dc:format>
    <dc:creator>
     <cc:Agent>
      <dc:title>Matplotlib v3.5.1, https://matplotlib.org/</dc:title>
     </cc:Agent>
    </dc:creator>
   </cc:Work>
  </rdf:RDF>
 </metadata>
 <defs>
  <style type="text/css">*{stroke-linejoin: round; stroke-linecap: butt}</style>
 </defs>
 <g id="figure_1">
  <g id="patch_1">
   <path d="M 0 360 
L 360 360 
L 360 0 
L 0 0 
z
" style="fill: #ffffff"/>
  </g>
  <g id="axes_1">
   <g id="patch_2">
    <path d="M 45 320.4 
L 324 320.4 
L 324 43.2 
L 45 43.2 
z
" style="fill: #ffffff"/>
   </g>
   <g id="PathCollection_1">
    <defs>
     <path id="m8ada3c5008" d="M 0 0.5 
C 0.132602 0.5 0.25979 0.447317 0.353553 0.353553 
C 0.447317 0.25979 0.5 0.132602 0.5 0 
C 0.5 -0.132602 0.447317 -0.25979 0.353553 -0.353553 
C 0.25979 -0.447317 0.132602 -0.5 0 -0.5 
C -0.132602 -0.5 -0.25979 -0.447317 -0.353553 -0.353553 
C -0.447317 -0.25979 -0.5 -0.132602 -0.5 0 
C -0.5 0.132602 -0.447317 0.25979 -0.353553 0.353553 
C -0.25979 0.447317 -0.132602 0.5 0 0.5 
z
" style="stroke: #ff0000"/>
    </defs>
    <g clip-path="url(#p72c0b42cdf)">
     <use xlink:href="#m8ada3c5008" x="223.531018" y="181.568614" style="fill: #ff0000; stroke: #ff0000"/>
     <use xlink:href="#m8ada3c5008" x="224.036122" y="177.722558" style="fill: #ff0000; stroke: #ff0000"/>
     <use xlink:href="#m8ada3c5008" x="224.209227" y="173.766943" style="fill: #ff0000; stroke: #ff0000"/>
     <use xlink:href="#m8ada3c5008" x="224.017954" y="169.728504" style="fill: #ff0000; stroke: #ff0000"/>
     <use xlink:href="#m8ada3c5008" x="223.437085" y="165.640242" style="fill: #ff0000; stroke: #ff0000"/>
     <use xlink:href="#m8ada3c5008" x="222.444874" y="161.541186" style="fill: #ff0000; stroke: #ff0000"/>
     <use xlink:href="#m8ada3c5008" x="221.01921" y="157.479293" style="fill: #ff0000; stroke: #ff0000"/>
     <use xlink:href="#m8ada3c5008" x="219.135747" y="153.517071" style="fill: #ff0000; stroke: #ff0000"/>
     <use xlink:href="#m8ada3c5008" x="216.772223" y="149.735985" style="fill: #ff0000; stroke: #ff0000"/>
     <use xlink:href="#m8ada3c5008" x="213.920165" y="146.233265" style="fill: #ff0000; stroke: #ff0000"/>
     <use xlink:href="#m8ada3c5008" x="210.59841" y="143.107871" style="fill: #ff0000; stroke: #ff0000"/>
     <use xlink:href="#m8ada3c5008" x="206.858977" y="140.440678" style="fill: #ff0000; stroke: #ff0000"/>
     <use xlink:href="#m8ada3c5008" x="202.780078" y="138.279939" style="fill: #ff0000; stroke: #ff0000"/>
     <use xlink:href="#m8ada3c5008" x="198.450241" y="136.640304" style="fill: #ff0000; stroke: #ff0000"/>
     <use xlink:href="#m8ada3c5008" x="193.953303" y="135.513517" style="fill: #ff0000; stroke: #ff0000"/>
     <use xlink:href="#m8ada3c5008" x="189.361079" y="134.880974" style="fill: #ff0000; stroke: #ff0000"/>
     <use xlink:href="#m8ada3c5008" x="184.732888" y="134.720022" style="fill: #ff0000; stroke: #ff0000"/>
     <use xlink:href="#m8ada3c5008" x="180.11696" y="135.004668" style="fill: #ff0000; stroke: #ff0000"/>
     <use xlink:href="#m8ada3c5008" x="175.551188" y="135.706895" style="fill: #ff0000; stroke: #ff0000"/>
     <use xlink:href="#m8ada3c5008" x="171.064747" y="136.801488" style="fill: #ff0000; stroke: #ff0000"/>
     <use xlink:href="#m8ada3c5008" x="166.681679" y="138.270297" style="fill: #ff0000; stroke: #ff0000"/>
     <use xlink:href="#m8ada3c5008" x="162.424197" y="140.101257" style="fill: #ff0000; stroke: #ff0000"/>
     <use xlink:href="#m8ada3c5008" x="158.313371" y="142.284107" style="fill: #ff0000; stroke: #ff0000"/>
     <use xlink:href="#m8ada3c5008" x="154.36974" y="144.809705" style="fill: #ff0000; stroke: #ff0000"/>
     <use xlink:href="#m8ada3c5008" x="150.61996" y="147.67577" style="fill: #ff0000; stroke: #ff0000"/>
     <use xlink:href="#m8ada3c5008" x="147.111697" y="150.892894" style="fill: #ff0000; stroke: #ff0000"/>
     <use xlink:href="#m8ada3c5008" x="143.930016" y="154.480901" style="fill: #ff0000; stroke: #ff0000"/>
     <use xlink:href="#m8ada3c5008" x="141.203747" y="158.451912" style="fill: #ff0000; stroke: #ff0000"/>
     <use xlink:href="#m8ada3c5008" x="139.094653" y="162.7866" style="fill: #ff0000; stroke: #ff0000"/>
     <use xlink:href="#m8ada3c5008" x="137.771342" y="167.414892" style="fill: #ff0000; stroke: #ff0000"/>
     <use xlink:href="#m8ada3c5008" x="137.374233" y="172.209168" style="fill: #ff0000; stroke: #ff0000"/>
     <use xlink:href="#m8ada3c5008" x="137.97541" y="176.993116" style="fill: #ff0000; stroke: #ff0000"/>
     <use xlink:href="#m8ada3c5008" x="139.536201" y="181.568614" style="fill: #ff0000; stroke: #ff0000"/>
     <use xlink:href="#m8ada3c5008" x="141.874464" y="185.762567" style="fill: #ff0000; stroke: #ff0000"/>
     <use xlink:href="#m8ada3c5008" x="144.667094" y="189.48678" style="fill: #ff0000; stroke: #ff0000"/>
     <use xlink:href="#m8ada3c5008" x="147.51232" y="192.786507" style="fill: #ff0000; stroke: #ff0000"/>
     <use xlink:href="#m8ada3c5008" x="150.047981" y="195.842883" style="fill: #ff0000; stroke: #ff0000"/>
     <use xlink:href="#m8ada3c5008" x="152.079242" y="198.909747" style="fill: #ff0000; stroke: #ff0000"/>
     <use xlink:href="#m8ada3c5008" x="153.647385" y="202.205279" style="fill: #ff0000; stroke: #ff0000"/>
     <use xlink:href="#m8ada3c5008" x="154.996994" y="205.81479" style="fill: #ff0000; stroke: #ff0000"/>
     <use xlink:href="#m8ada3c5008" x="156.459672" y="209.659423" style="fill: #ff0000; stroke: #ff0000"/>
     <use xlink:href="#m8ada3c5008" x="158.321856" y="213.542925" style="fill: #ff0000; stroke: #ff0000"/>
     <use xlink:href="#m8ada3c5008" x="160.743912" y="217.239028" style="fill: #ff0000; stroke: #ff0000"/>
     <use xlink:href="#m8ada3c5008" x="163.753331" y="220.565379" style="fill: #ff0000; stroke: #ff0000"/>
     <use xlink:href="#m8ada3c5008" x="167.287567" y="223.413625" style="fill: #ff0000; stroke: #ff0000"/>
     <use xlink:href="#m8ada3c5008" x="171.246292" y="225.741129" style="fill: #ff0000; stroke: #ff0000"/>
     <use xlink:href="#m8ada3c5008" x="175.527992" y="227.546197" style="fill: #ff0000; stroke: #ff0000"/>
     <use xlink:href="#m8ada3c5008" x="180.046788" y="228.840428" style="fill: #ff0000; stroke: #ff0000"/>
     <use xlink:href="#m8ada3c5008" x="184.732888" y="229.619249" style="fill: #ff0000; stroke: #ff0000"/>
     <use xlink:href="#m8ada3c5008" x="189.517485" y="229.834026" style="fill: #ff0000; stroke: #ff0000"/>
     <use xlink:href="#m8ada3c5008" x="194.305452" y="229.382662" style="fill: #ff0000; stroke: #ff0000"/>
     <use xlink:href="#m8ada3c5008" x="198.95136" y="228.138236" style="fill: #ff0000; stroke: #ff0000"/>
     <use xlink:href="#m8ada3c5008" x="203.262344" y="226.014072" style="fill: #ff0000; stroke: #ff0000"/>
     <use xlink:href="#m8ada3c5008" x="207.039876" y="223.032806" style="fill: #ff0000; stroke: #ff0000"/>
     <use xlink:href="#m8ada3c5008" x="210.145388" y="219.355738" style="fill: #ff0000; stroke: #ff0000"/>
     <use xlink:href="#m8ada3c5008" x="212.554295" y="215.250384" style="fill: #ff0000; stroke: #ff0000"/>
     <use xlink:href="#m8ada3c5008" x="214.367258" y="211.011794" style="fill: #ff0000; stroke: #ff0000"/>
     <use xlink:href="#m8ada3c5008" x="215.77227" y="206.877632" style="fill: #ff0000; stroke: #ff0000"/>
     <use xlink:href="#m8ada3c5008" x="216.976834" y="202.974332" style="fill: #ff0000; stroke: #ff0000"/>
     <use xlink:href="#m8ada3c5008" x="218.141147" y="199.310494" style="fill: #ff0000; stroke: #ff0000"/>
     <use xlink:href="#m8ada3c5008" x="219.338708" y="195.810335" style="fill: #ff0000; stroke: #ff0000"/>
     <use xlink:href="#m8ada3c5008" x="220.555378" y="192.365141" style="fill: #ff0000; stroke: #ff0000"/>
     <use xlink:href="#m8ada3c5008" x="221.71891" y="188.878127" style="fill: #ff0000; stroke: #ff0000"/>
     <use xlink:href="#m8ada3c5008" x="222.738033" y="185.287645" style="fill: #ff0000; stroke: #ff0000"/>
    </g>
   </g>
   <g id="matplotlib.axis_1">
    <g id="xtick_1">
     <g id="line2d_1">
      <defs>
       <path id="m8e141efdc3" d="M 0 0 
L 0 3.5 
" style="stroke: #000000; stroke-width: 0.8"/>
      </defs>
      <g>
       <use xlink:href="#m8e141efdc3" x="45" y="320.4" style="stroke: #000000; stroke-width: 0.8"/>
      </g>
     </g>
     <g id="text_1">
      <!-- −3 -->
      <g transform="translate(37.628906 334.998438)scale(0.1 -0.1)">
       <defs>
        <path id="DejaVuSans-2212" d="M 678 2272 
L 4684 2272 
L 4684 1741 
L 678 1741 
L 678 2272 
z
" transform="scale(0.015625)"/>
        <path id="DejaVuSans-33" d="M 2597 2516 
Q 3050 2419 3304 2112 
Q 3559 1806 3559 1356 
Q 3559 666 3084 287 
Q 2609 -91 1734 -91 
Q 1441 -91 1130 -33 
Q 819 25 488 141 
L 488 750 
Q 750 597 1062 519 
Q 1375 441 1716 441 
Q 2309 441 2620 675 
Q 2931 909 2931 1356 
Q 2931 1769 2642 2001 
Q 2353 2234 1838 2234 
L 1294 2234 
L 1294 2753 
L 1863 2753 
Q 2328 2753 2575 2939 
Q 2822 3125 2822 3475 
Q 2822 3834 2567 4026 
Q 2313 4219 1838 4219 
Q 1578 4219 1281 4162 
Q 984 4106 628 3988 
L 628 4550 
Q 988 4650 1302 4700 
Q 1616 4750 1894 4750 
Q 2613 4750 3031 4423 
Q 3450 4097 3450 3541 
Q 3450 3153 3228 2886 
Q 3006 2619 2597 2516 
z
" transform="scale(0.015625)"/>
       </defs>
       <use xlink:href="#DejaVuSans-2212"/>
       <use xlink:href="#DejaVuSans-33" x="83.789062"/>
      </g>
     </g>
    </g>
    <g id="xtick_2">
     <g id="line2d_2">
      <g>
       <use xlink:href="#m8e141efdc3" x="91.577629" y="320.4" style="stroke: #000000; stroke-width: 0.8"/>
      </g>
     </g>
     <g id="text_2">
      <!-- −2 -->
      <g transform="translate(84.206536 334.998438)scale(0.1 -0.1)">
       <defs>
        <path id="DejaVuSans-32" d="M 1228 531 
L 3431 531 
L 3431 0 
L 469 0 
L 469 531 
Q 828 903 1448 1529 
Q 2069 2156 2228 2338 
Q 2531 2678 2651 2914 
Q 2772 3150 2772 3378 
Q 2772 3750 2511 3984 
Q 2250 4219 1831 4219 
Q 1534 4219 1204 4116 
Q 875 4013 500 3803 
L 500 4441 
Q 881 4594 1212 4672 
Q 1544 4750 1819 4750 
Q 2544 4750 2975 4387 
Q 3406 4025 3406 3419 
Q 3406 3131 3298 2873 
Q 3191 2616 2906 2266 
Q 2828 2175 2409 1742 
Q 1991 1309 1228 531 
z
" transform="scale(0.015625)"/>
       </defs>
       <use xlink:href="#DejaVuSans-2212"/>
       <use xlink:href="#DejaVuSans-32" x="83.789062"/>
      </g>
     </g>
    </g>
    <g id="xtick_3">
     <g id="line2d_3">
      <g>
       <use xlink:href="#m8e141efdc3" x="138.155259" y="320.4" style="stroke: #000000; stroke-width: 0.8"/>
      </g>
     </g>
     <g id="text_3">
      <!-- −1 -->
      <g transform="translate(130.784165 334.998438)scale(0.1 -0.1)">
       <defs>
        <path id="DejaVuSans-31" d="M 794 531 
L 1825 531 
L 1825 4091 
L 703 3866 
L 703 4441 
L 1819 4666 
L 2450 4666 
L 2450 531 
L 3481 531 
L 3481 0 
L 794 0 
L 794 531 
z
" transform="scale(0.015625)"/>
       </defs>
       <use xlink:href="#DejaVuSans-2212"/>
       <use xlink:href="#DejaVuSans-31" x="83.789062"/>
      </g>
     </g>
    </g>
    <g id="xtick_4">
     <g id="line2d_4">
      <g>
       <use xlink:href="#m8e141efdc3" x="184.732888" y="320.4" style="stroke: #000000; stroke-width: 0.8"/>
      </g>
     </g>
     <g id="text_4">
      <!-- 0 -->
      <g transform="translate(181.551638 334.998438)scale(0.1 -0.1)">
       <defs>
        <path id="DejaVuSans-30" d="M 2034 4250 
Q 1547 4250 1301 3770 
Q 1056 3291 1056 2328 
Q 1056 1369 1301 889 
Q 1547 409 2034 409 
Q 2525 409 2770 889 
Q 3016 1369 3016 2328 
Q 3016 3291 2770 3770 
Q 2525 4250 2034 4250 
z
M 2034 4750 
Q 2819 4750 3233 4129 
Q 3647 3509 3647 2328 
Q 3647 1150 3233 529 
Q 2819 -91 2034 -91 
Q 1250 -91 836 529 
Q 422 1150 422 2328 
Q 422 3509 836 4129 
Q 1250 4750 2034 4750 
z
" transform="scale(0.015625)"/>
       </defs>
       <use xlink:href="#DejaVuSans-30"/>
      </g>
     </g>
    </g>
    <g id="xtick_5">
     <g id="line2d_5">
      <g>
       <use xlink:href="#m8e141efdc3" x="231.310518" y="320.4" style="stroke: #000000; stroke-width: 0.8"/>
      </g>
     </g>
     <g id="text_5">
      <!-- 1 -->
      <g transform="translate(228.129268 334.998438)scale(0.1 -0.1)">
       <use xlink:href="#DejaVuSans-31"/>
      </g>
     </g>
    </g>
    <g id="xtick_6">
     <g id="line2d_6">
      <g>
       <use xlink:href="#m8e141efdc3" x="277.888147" y="320.4" style="stroke: #000000; stroke-width: 0.8"/>
      </g>
     </g>
     <g id="text_6">
      <!-- 2 -->
      <g transform="translate(274.706897 334.998438)scale(0.1 -0.1)">
       <use xlink:href="#DejaVuSans-32"/>
      </g>
     </g>
    </g>
   </g>
   <g id="matplotlib.axis_2">
    <g id="ytick_1">
     <g id="line2d_7">
      <defs>
       <path id="m1a5068738d" d="M 0 0 
L -3.5 0 
" style="stroke: #000000; stroke-width: 0.8"/>
      </defs>
      <g>
       <use xlink:href="#m1a5068738d" x="45" y="320.4" style="stroke: #000000; stroke-width: 0.8"/>
      </g>
     </g>
     <g id="text_7">
      <!-- −3 -->
      <g transform="translate(23.257812 324.199219)scale(0.1 -0.1)">
       <use xlink:href="#DejaVuSans-2212"/>
       <use xlink:href="#DejaVuSans-33" x="83.789062"/>
      </g>
     </g>
    </g>
    <g id="ytick_2">
     <g id="line2d_8">
      <g>
       <use xlink:href="#m1a5068738d" x="45" y="274.122871" style="stroke: #000000; stroke-width: 0.8"/>
      </g>
     </g>
     <g id="text_8">
      <!-- −2 -->
      <g transform="translate(23.257812 277.92209)scale(0.1 -0.1)">
       <use xlink:href="#DejaVuSans-2212"/>
       <use xlink:href="#DejaVuSans-32" x="83.789062"/>
      </g>
     </g>
    </g>
    <g id="ytick_3">
     <g id="line2d_9">
      <g>
       <use xlink:href="#m1a5068738d" x="45" y="227.845743" style="stroke: #000000; stroke-width: 0.8"/>
      </g>
     </g>
     <g id="text_9">
      <!-- −1 -->
      <g transform="translate(23.257812 231.644962)scale(0.1 -0.1)">
       <use xlink:href="#DejaVuSans-2212"/>
       <use xlink:href="#DejaVuSans-31" x="83.789062"/>
      </g>
     </g>
    </g>
    <g id="ytick_4">
     <g id="line2d_10">
      <g>
       <use xlink:href="#m1a5068738d" x="45" y="181.568614" style="stroke: #000000; stroke-width: 0.8"/>
      </g>
     </g>
     <g id="text_10">
      <!-- 0 -->
      <g transform="translate(31.6375 185.367833)scale(0.1 -0.1)">
       <use xlink:href="#DejaVuSans-30"/>
      </g>
     </g>
    </g>
    <g id="ytick_5">
     <g id="line2d_11">
      <g>
       <use xlink:href="#m1a5068738d" x="45" y="135.291486" style="stroke: #000000; stroke-width: 0.8"/>
      </g>
     </g>
     <g id="text_11">
      <!-- 1 -->
      <g transform="translate(31.6375 139.090705)scale(0.1 -0.1)">
       <use xlink:href="#DejaVuSans-31"/>
      </g>
     </g>
    </g>
    <g id="ytick_6">
     <g id="line2d_12">
      <g>
       <use xlink:href="#m1a5068738d" x="45" y="89.014357" style="stroke: #000000; stroke-width: 0.8"/>
      </g>
     </g>
     <g id="text_12">
      <!-- 2 -->
      <g transform="translate(31.6375 92.813576)scale(0.1 -0.1)">
       <use xlink:href="#DejaVuSans-32"/>
      </g>
     </g>
    </g>
   </g>
   <g id="PathCollection_2">
    <path d="M 186.130217 206.615392 
L 185.675939 206.558264 
L 185.664441 206.556737 
L 185.198664 206.499195 
L 184.732888 206.423668 
L 184.267112 206.215389 
L 184.007353 206.095492 
L 183.801336 206.0004 
L 183.335559 205.764583 
L 183.126563 205.632721 
L 182.869783 205.449951 
L 182.476749 205.16995 
L 182.404007 205.118622 
L 181.93823 204.810952 
L 181.771008 204.707179 
L 181.472454 204.521268 
L 181.015934 204.244407 
L 181.006678 204.238346 
L 180.540902 203.903529 
L 180.358042 203.781636 
L 180.075125 203.557519 
L 179.680627 203.318865 
L 179.609349 203.26287 
L 179.143573 202.908125 
L 179.068809 202.856093 
L 178.677796 202.464928 
L 178.597114 202.393322 
L 178.21202 202.00722 
L 178.128313 201.930551 
L 177.746244 201.580624 
L 177.623036 201.46778 
L 177.280467 201.154021 
L 177.11777 201.005008 
L 176.814691 200.642374 
L 176.779515 200.542237 
L 176.715691 200.079466 
L 176.667998 199.616694 
L 176.620298 199.153923 
L 176.572604 198.691152 
L 176.51826 198.228381 
L 176.446676 197.765609 
L 176.375982 197.302838 
L 176.348915 197.174262 
L 176.279891 196.840067 
L 176.160754 196.377295 
L 176.037619 195.914524 
L 175.905897 195.451753 
L 175.883139 195.371796 
L 175.77418 194.988982 
L 175.642462 194.52621 
L 175.510746 194.063439 
L 175.417362 193.735335 
L 175.379033 193.600668 
L 175.241222 193.137896 
L 174.951586 192.675543 
L 174.951322 192.675125 
L 174.659342 192.212354 
L 174.48581 191.93731 
L 174.367367 191.749583 
L 174.075391 191.286811 
L 174.020033 191.199071 
L 173.783416 190.82404 
L 173.554257 190.460841 
L 173.491373 190.361269 
L 173.197591 189.898497 
L 173.088481 189.726691 
L 172.903695 189.435726 
L 172.622705 188.993263 
L 172.609807 188.972955 
L 172.318202 188.510184 
L 172.156928 188.18553 
L 172.08112 188.047412 
L 171.875978 187.584641 
L 171.691152 187.167698 
L 171.670837 187.12187 
L 171.465699 186.659098 
L 171.260561 186.196327 
L 171.225376 186.116952 
L 171.055422 185.733556 
L 170.850282 185.270785 
L 170.759599 185.066214 
L 170.645144 184.808013 
L 170.440005 184.345242 
L 170.293823 184.015474 
L 170.234864 183.882471 
L 170.029724 183.419699 
L 169.828047 182.964726 
L 169.82459 182.956928 
L 169.605166 182.494157 
L 169.36227 182.174229 
L 169.22981 182.031386 
L 168.896494 181.697669 
L 168.789358 181.568614 
L 168.430718 181.238037 
L 168.28792 181.105843 
L 167.964942 180.820174 
L 167.76471 180.643072 
L 167.499165 180.408199 
L 167.241505 180.180301 
L 167.033389 179.996224 
L 166.718297 179.717529 
L 166.567613 179.58425 
L 166.19509 179.254758 
L 166.101836 179.159384 
L 165.678298 178.791987 
L 165.63606 178.747117 
L 165.19936 178.329215 
L 165.170284 178.299674 
L 164.704508 177.994526 
L 164.458928 177.866444 
L 164.238731 177.755609 
L 163.772955 177.511166 
L 163.585243 177.403673 
L 163.307179 177.029653 
L 163.252061 176.940902 
L 162.96466 176.47813 
L 162.841402 176.279653 
L 162.67727 176.015359 
L 162.375626 175.563236 
L 162.368834 175.552588 
L 162.054655 175.089816 
L 161.90985 174.831342 
L 161.792836 174.627045 
L 161.536148 174.164274 
L 161.444073 173.999921 
L 161.276892 173.701503 
L 161.079968 173.238731 
L 161.286106 172.77596 
L 161.444073 172.559375 
L 161.622416 172.313189 
L 161.90985 171.944464 
L 161.981634 171.850417 
L 162.358548 171.387646 
L 162.375626 171.366678 
L 162.735472 170.924875 
L 162.841402 170.774728 
L 163.035571 170.462104 
L 163.307179 170.013899 
L 163.316006 169.999332 
L 163.549951 169.536561 
L 163.767219 169.07379 
L 163.772955 169.050989 
L 163.884284 168.611018 
L 163.998633 168.148247 
L 164.121752 167.685476 
L 164.238731 167.329085 
L 164.27365 167.222705 
L 164.425553 166.759933 
L 164.577453 166.297162 
L 164.704508 165.970455 
L 164.757027 165.834391 
L 164.940431 165.371619 
L 165.123833 164.908848 
L 165.170284 164.846105 
L 165.63606 164.468666 
L 165.667169 164.446077 
L 166.101836 164.130448 
L 166.304472 163.983306 
L 166.567613 163.794186 
L 166.949918 163.520534 
L 167.033389 163.460882 
L 167.499165 163.128012 
L 167.597463 163.057763 
L 167.964942 162.795147 
L 168.245022 162.594992 
L 168.430718 162.462284 
L 168.892577 162.13222 
L 168.896494 162.129503 
L 169.36227 161.923166 
L 169.828047 161.758767 
L 170.073649 161.669449 
L 170.293823 161.583819 
L 170.759599 161.386699 
L 171.184982 161.206678 
L 171.225376 161.189583 
L 171.691152 160.992465 
L 172.156928 160.795347 
L 172.27848 160.743907 
L 172.622705 160.598228 
L 173.088481 160.398522 
L 173.37197 160.281135 
L 173.554257 160.203992 
L 174.020033 160.026113 
L 174.48581 159.866995 
L 174.622037 159.818364 
L 174.951586 159.700722 
L 175.417362 159.534449 
L 175.883139 159.368173 
L 175.91838 159.355593 
L 176.348915 159.201898 
L 176.814691 159.035626 
L 177.145531 158.892821 
L 177.280467 158.833891 
L 177.746244 158.579107 
L 178.018743 158.43005 
L 178.21202 158.324328 
L 178.677796 158.069546 
L 178.864757 157.967279 
L 179.143573 157.804851 
L 179.594364 157.504508 
L 179.609349 157.493843 
L 180.075125 157.162353 
L 180.298188 157.041736 
L 180.540902 156.927944 
L 181.006678 156.749326 
L 181.472454 156.729599 
L 181.93823 156.800468 
L 182.383261 157.041736 
L 182.404007 157.0526 
L 182.869783 157.316827 
L 183.254808 157.504508 
L 183.335559 157.541576 
L 183.801336 157.623162 
L 184.267112 157.702637 
L 184.732888 157.781876 
L 185.198664 157.860824 
L 185.664441 157.939481 
L 185.829459 157.967279 
L 186.130217 158.018308 
L 186.595993 158.097339 
L 187.06177 158.176369 
L 187.527546 158.255394 
L 187.993322 158.334484 
L 188.459098 158.413492 
L 188.556932 158.43005 
L 188.924875 158.492478 
L 189.390651 158.571508 
L 189.856427 158.65054 
L 190.322204 158.729569 
L 190.78798 158.803488 
L 191.253756 158.865849 
L 191.494473 158.892821 
L 191.719533 158.918039 
L 192.185309 158.970235 
L 192.651085 159.019297 
L 193.116861 159.090025 
L 193.582638 159.244778 
L 193.883743 159.355593 
L 194.048414 159.416197 
L 194.51419 159.623036 
L 194.795325 159.818364 
L 194.979967 159.954214 
L 195.401548 160.281135 
L 195.445743 160.315615 
L 195.911519 160.677533 
L 195.997144 160.743907 
L 196.377295 161.052394 
L 196.559359 161.206678 
L 196.843072 161.449199 
L 197.10073 161.669449 
L 197.308848 161.84735 
L 197.642104 162.13222 
L 197.774624 162.245502 
L 198.183471 162.594992 
L 198.240401 162.643655 
L 198.706177 163.041806 
L 198.719887 163.057763 
L 199.112358 163.520534 
L 199.171953 163.591822 
L 199.411136 163.983306 
L 199.63773 164.348589 
L 199.697645 164.446077 
L 199.916983 164.908848 
L 200.040783 165.371619 
L 200.103506 165.60774 
L 200.164595 165.834391 
L 200.185875 166.297162 
L 200.207155 166.759933 
L 200.228433 167.222705 
L 200.249708 167.685476 
L 200.281566 168.148247 
L 200.323689 168.611018 
L 200.365812 169.07379 
L 200.407933 169.536561 
L 200.450055 169.999332 
L 200.492174 170.462104 
L 200.4588 170.924875 
L 200.405751 171.387646 
L 200.351437 171.850417 
L 200.270558 172.313189 
L 200.218271 172.77596 
L 200.181685 173.238731 
L 200.145152 173.701503 
L 200.108659 174.164274 
L 200.103506 174.229061 
L 200.072088 174.627045 
L 200.042505 175.089816 
L 200.014682 175.552588 
L 199.988139 176.015359 
L 199.9616 176.47813 
L 199.935056 176.940902 
L 199.908517 177.403673 
L 199.881971 177.866444 
L 199.871135 178.329215 
L 199.879768 178.791987 
L 199.897441 179.254758 
L 199.915114 179.717529 
L 199.932786 180.180301 
L 199.950457 180.643072 
L 199.85531 181.105843 
L 199.755774 181.568614 
L 199.659048 182.031386 
L 199.63773 182.133387 
L 199.562329 182.494157 
L 199.465606 182.956928 
L 199.368882 183.419699 
L 199.27216 183.882471 
L 199.175434 184.345242 
L 199.171953 184.361895 
L 199.07871 184.808013 
L 198.981986 185.270785 
L 198.885264 185.733556 
L 198.788536 186.196327 
L 198.706177 186.491776 
L 198.65119 186.659098 
L 198.363464 187.12187 
L 198.240401 187.521831 
L 198.218168 187.584641 
L 198.16149 188.047412 
L 198.109184 188.510184 
L 198.062965 188.972955 
L 198.019916 189.435726 
L 197.977958 189.898497 
L 197.937027 190.361269 
L 197.897093 190.82404 
L 197.858118 191.286811 
L 197.820062 191.749583 
L 197.782894 192.212354 
L 197.774624 192.243623 
L 197.636309 192.675125 
L 197.308848 193.040681 
L 197.188362 193.137896 
L 196.843072 193.359219 
L 196.466376 193.600668 
L 196.377295 193.659489 
L 195.968473 194.063439 
L 195.911519 194.214309 
L 195.805651 194.52621 
L 195.608232 194.988982 
L 195.445743 195.369865 
L 195.410809 195.451753 
L 195.213391 195.914524 
L 195.013375 196.377295 
L 194.979967 196.459124 
L 194.814561 196.840067 
L 194.61019 197.302838 
L 194.51419 197.52796 
L 194.4098 197.765609 
L 194.215883 198.228381 
L 194.048414 198.612349 
L 194.011539 198.691152 
L 193.789706 199.153923 
L 193.582638 199.531013 
L 193.531364 199.616694 
L 193.309323 200.079466 
L 193.116861 200.504679 
L 193.099862 200.542237 
L 192.890402 201.005008 
L 192.680937 201.46778 
L 192.651085 201.533732 
L 192.471473 201.930551 
L 192.262012 202.393322 
L 192.185309 202.562782 
L 192.052545 202.856093 
L 191.843084 203.318865 
L 191.719533 203.591823 
L 191.61495 203.781636 
L 191.280059 204.244407 
L 191.253756 204.273725 
L 190.78798 204.576401 
L 190.586739 204.707179 
L 190.322204 204.879089 
L 189.874608 205.16995 
L 189.856427 205.181767 
L 189.390651 205.484448 
L 189.162485 205.632721 
L 188.924875 205.787129 
L 188.459098 206.077297 
L 188.426639 206.095492 
L 187.993322 206.318089 
L 187.527546 206.537857 
L 187.464379 206.558264 
L 187.06177 206.672469 
L 186.595993 206.657515 
L 186.130217 206.615392 
z
" clip-path="url(#p72c0b42cdf)" style="fill: none; stroke-dasharray: 5.55,2.4; stroke-dashoffset: 0; stroke: #000000; stroke-width: 1.5"/>
   </g>
   <g id="PathCollection_3">
    <path d="M 187.527546 230.627333 
L 187.506661 230.622371 
L 187.06177 230.221366 
L 186.595993 230.182376 
L 186.130217 230.168791 
L 185.664441 230.161335 
L 185.651543 230.159599 
L 185.198664 229.795296 
L 184.732888 229.743534 
L 184.267112 229.727402 
L 183.801336 229.716946 
L 183.335559 229.710013 
L 182.869783 229.705129 
L 182.404007 229.70059 
L 182.364787 229.696828 
L 181.93823 229.365405 
L 181.472454 229.262065 
L 181.006678 229.243233 
L 180.540902 229.234928 
L 180.534676 229.234057 
L 180.075125 228.847707 
L 179.609349 228.79051 
L 179.143573 228.77629 
L 178.829764 228.771285 
L 178.677796 228.717243 
L 178.21202 228.355055 
L 177.746244 228.320642 
L 177.280467 228.309856 
L 177.190894 228.308514 
L 176.814691 228.174866 
L 176.348915 227.873492 
L 175.883139 227.852017 
L 175.564404 227.845743 
L 175.417362 227.791817 
L 174.951586 227.588274 
L 174.48581 227.397812 
L 174.020033 227.384335 
L 173.944952 227.382972 
L 173.554257 227.239411 
L 173.088481 226.992658 
L 172.704197 226.9202 
L 172.622705 226.874081 
L 172.156928 226.534614 
L 171.88649 226.457429 
L 171.691152 226.346879 
L 171.225376 226.018674 
L 171.068798 225.994658 
L 170.759599 225.819659 
L 170.293823 225.536063 
L 170.252508 225.531886 
L 169.828047 225.288137 
L 169.433367 225.069115 
L 169.36227 225.028879 
L 168.896494 224.759225 
L 168.615656 224.606344 
L 168.430718 224.501682 
L 167.964942 224.232784 
L 167.797948 224.143573 
L 167.499165 223.974477 
L 167.033389 223.708675 
L 166.980239 223.680801 
L 166.567613 223.447279 
L 166.162534 223.21803 
L 166.101836 223.183679 
L 165.63606 222.860649 
L 165.540458 222.755259 
L 165.170284 222.343376 
L 165.124548 222.292487 
L 164.708639 221.829716 
L 164.704508 221.825119 
L 164.292721 221.366945 
L 164.238731 221.306873 
L 163.87681 220.904174 
L 163.772955 220.784413 
L 163.49102 220.441402 
L 163.307179 220.206632 
L 163.128637 219.978631 
L 162.841402 219.611824 
L 162.766256 219.51586 
L 162.403865 219.053088 
L 162.375626 219.017027 
L 162.041484 218.590317 
L 161.90985 218.422215 
L 161.679105 218.127546 
L 161.444073 217.827415 
L 161.316709 217.664775 
L 160.978297 217.232618 
L 160.954324 217.202003 
L 160.620445 216.739232 
L 160.512521 216.575931 
L 160.314604 216.276461 
L 160.046745 215.871166 
L 160.008758 215.813689 
L 159.705475 215.350918 
L 159.580968 215.156862 
L 159.41821 214.888147 
L 159.137916 214.425376 
L 159.115192 214.387857 
L 158.857618 213.962604 
L 158.649416 213.618859 
L 158.577324 213.499833 
L 158.297031 213.037062 
L 158.183639 212.849849 
L 158.016737 212.57429 
L 157.736442 212.111519 
L 157.717863 212.071117 
L 157.542925 211.648748 
L 157.351573 211.185977 
L 157.252087 210.944012 
L 157.161088 210.723205 
L 156.997108 210.260434 
L 156.833413 209.797663 
L 156.786311 209.664506 
L 156.669714 209.334891 
L 156.506009 208.87212 
L 156.342308 208.409349 
L 156.320534 208.347797 
L 156.178604 207.946578 
L 156.014909 207.483806 
L 155.854758 207.031067 
L 155.851209 207.021035 
L 155.687508 206.558264 
L 155.523804 206.095492 
L 155.388982 205.714356 
L 155.360104 205.632721 
L 155.196404 205.16995 
L 155.032702 204.707179 
L 154.923205 204.397646 
L 154.868999 204.244407 
L 154.70502 203.781636 
L 154.532625 203.318865 
L 154.457429 203.12323 
L 154.353108 202.856093 
L 154.172377 202.393322 
L 153.991654 201.930551 
L 153.991653 201.930547 
L 153.810922 201.46778 
L 153.630196 201.005008 
L 153.525876 200.737892 
L 153.449465 200.542237 
L 153.268738 200.079466 
L 153.067185 199.616694 
L 153.0601 199.603792 
L 152.813073 199.153923 
L 152.594324 198.755547 
L 152.558964 198.691152 
L 152.210312 198.228381 
L 152.128548 198.158546 
L 151.662771 197.831027 
L 151.569738 197.765609 
L 151.196995 197.435398 
L 151.056125 197.302838 
L 150.73341 196.840067 
L 150.731219 196.835899 
L 150.486676 196.377295 
L 150.265442 195.944182 
L 150.250293 195.914524 
L 150.013906 195.451753 
L 149.799666 195.032341 
L 149.777518 194.988982 
L 149.541127 194.52621 
L 149.33389 194.120507 
L 149.304749 194.063439 
L 149.068517 193.600668 
L 148.868114 193.208088 
L 148.832282 193.137896 
L 148.596049 192.675125 
L 148.402337 192.295654 
L 148.356589 192.212354 
L 147.982328 191.749583 
L 147.936561 191.69767 
L 147.574347 191.286811 
L 147.470785 191.169341 
L 147.166362 190.82404 
L 147.005008 190.64754 
L 146.753688 190.361269 
L 146.539232 190.139298 
L 146.30946 189.898497 
L 146.073456 189.654352 
L 145.868363 189.435726 
L 145.607679 189.164146 
L 145.430622 188.972955 
L 145.141903 188.661197 
L 145.00205 188.510184 
L 144.676127 188.158247 
L 144.572785 188.047412 
L 144.210351 187.657835 
L 144.141969 187.584641 
L 143.744574 187.159284 
L 143.70971 187.12187 
L 143.286133 186.659098 
L 143.278798 186.648676 
L 142.98498 186.196327 
L 142.813022 185.92912 
L 142.687168 185.733556 
L 142.376582 185.270785 
L 142.347245 185.234346 
L 142.004006 184.808013 
L 141.881469 184.655811 
L 141.631434 184.345242 
L 141.415693 184.077266 
L 141.258865 183.882471 
L 140.949917 183.498723 
L 140.886295 183.419699 
L 140.513719 182.956928 
L 140.48414 182.920189 
L 140.14115 182.494157 
L 140.018364 182.341644 
L 139.768579 182.031386 
L 139.552588 181.763101 
L 139.396009 181.568614 
L 139.086811 181.184561 
L 139.023437 181.105843 
L 138.650863 180.643072 
L 138.621035 180.606023 
L 138.278292 180.180301 
L 138.155259 179.996939 
L 137.957359 179.717529 
L 137.768134 179.254758 
L 137.689482 179.062403 
L 137.578913 178.791987 
L 137.38969 178.329215 
L 137.223706 177.923274 
L 137.212712 177.866444 
L 137.011249 177.403673 
L 136.822023 176.940902 
L 136.75793 176.77799 
L 136.640179 176.47813 
L 136.525022 176.015359 
L 136.460108 175.552588 
L 136.395198 175.089816 
L 136.330283 174.627045 
L 136.292154 174.355208 
L 136.290074 174.164274 
L 136.281653 173.701503 
L 136.260716 173.238731 
L 136.273377 172.77596 
L 136.289266 172.313189 
L 136.292154 172.153795 
L 136.347686 171.850417 
L 136.425288 171.387646 
L 136.49542 170.924875 
L 136.559104 170.462104 
L 136.617186 169.999332 
L 136.697594 169.536561 
L 136.753779 169.07379 
L 136.75793 169.008792 
L 136.932832 168.611018 
L 137.06827 168.148247 
L 137.210331 167.685476 
L 137.223706 167.509062 
L 137.329415 167.222705 
L 137.438222 166.759933 
L 137.51748 166.297162 
L 137.613678 165.834391 
L 137.689168 165.371619 
L 137.689482 165.362983 
L 137.821848 164.908848 
L 137.94156 164.446077 
L 138.135518 163.983306 
L 138.155259 163.890065 
L 138.366009 163.520534 
L 138.601065 163.057763 
L 138.621035 162.931971 
L 138.806945 162.594992 
L 139.066701 162.13222 
L 139.086811 161.973878 
L 139.249456 161.669449 
L 139.532392 161.206678 
L 139.552588 161.015811 
L 139.693396 160.743907 
L 139.998103 160.281135 
L 140.018364 160.057723 
L 140.138635 159.818364 
L 140.463831 159.355593 
L 140.48414 159.099638 
L 140.585057 158.892821 
L 140.929567 158.43005 
L 140.949917 158.141549 
L 141.034639 157.967279 
L 141.402089 157.504508 
L 141.415693 157.296589 
L 141.57583 157.041736 
L 141.881469 156.604064 
L 141.898997 156.578965 
L 142.335001 156.116194 
L 142.347245 156.067341 
L 142.728809 155.653422 
L 142.813022 155.367334 
L 142.968413 155.190651 
L 143.278798 154.837725 
L 143.375406 154.72788 
L 143.744574 154.308114 
L 143.782398 154.265109 
L 144.209197 153.802337 
L 144.210351 153.800991 
L 144.671012 153.339566 
L 144.676127 153.333415 
L 145.131254 152.876795 
L 145.141903 152.863431 
L 145.588753 152.414023 
L 145.607679 152.388613 
L 146.040794 151.951252 
L 146.073456 151.901667 
L 146.479344 151.488481 
L 146.539232 151.365692 
L 146.865276 151.02571 
L 147.005008 150.601826 
L 147.039219 150.562938 
L 147.469727 150.100167 
L 147.470785 150.098977 
L 147.932514 149.637396 
L 147.936561 149.632765 
L 148.394442 149.174624 
L 148.402337 149.165389 
L 148.85508 148.711853 
L 148.868114 148.696141 
L 149.313649 148.249082 
L 149.33389 148.226183 
L 149.777233 147.786311 
L 149.799666 147.769208 
L 150.251797 147.323539 
L 150.265442 147.312557 
L 150.723114 146.860768 
L 150.731219 146.854008 
L 151.192703 146.397997 
L 151.196995 146.394325 
L 151.662771 146.065915 
L 151.805044 145.935225 
L 152.128548 145.834715 
L 152.502708 145.472454 
L 152.594324 145.421091 
L 153.014614 145.009683 
L 153.0601 144.978349 
L 153.498901 144.546912 
L 153.525876 144.52645 
L 153.974658 144.08414 
L 153.991653 144.070507 
L 154.446678 143.621369 
L 154.457429 143.612421 
L 154.916728 143.158598 
L 154.923205 143.153065 
L 155.388982 142.755696 
L 155.454781 142.695826 
L 155.854758 142.579368 
L 156.212971 142.233055 
L 156.320534 142.174222 
L 156.733389 141.770284 
L 156.786311 141.734182 
L 157.224767 141.307513 
L 157.252087 141.291367 
L 157.711426 140.844741 
L 157.717863 140.840515 
L 158.183639 140.814166 
L 158.639826 140.38197 
L 158.649416 140.377718 
L 159.115192 140.358944 
L 159.580968 140.286603 
L 160.023021 139.919199 
L 160.046745 139.915333 
L 160.512521 139.905398 
L 160.978297 139.876776 
L 161.444073 139.466496 
L 161.480235 139.456427 
L 161.90985 139.449968 
L 162.375626 139.434836 
L 162.841402 139.36217 
L 163.297398 138.993656 
L 163.307179 138.992265 
L 163.772955 138.983202 
L 164.238731 138.955807 
L 164.704508 138.590534 
L 164.928505 138.530885 
L 165.170284 138.527363 
L 165.63606 138.513477 
L 166.101836 138.43809 
L 166.567613 138.094379 
L 166.666245 138.068114 
L 167.033389 138.061264 
L 167.499165 138.03558 
L 167.964942 137.722261 
L 168.403986 137.605342 
L 168.430718 137.604941 
L 168.896494 137.592569 
L 169.36227 137.332219 
L 169.75146 137.142571 
L 169.828047 137.139739 
L 170.293823 137.074306 
L 170.759599 136.729606 
L 170.902054 136.6798 
L 171.225376 136.669971 
L 171.691152 136.567234 
L 172.156928 136.241053 
L 172.225644 136.217028 
L 172.622705 136.203859 
L 173.088481 136.041739 
L 173.552616 135.754257 
L 173.554257 135.754163 
L 174.020033 135.737077 
L 174.48581 135.488927 
L 174.951586 135.307824 
L 175.129942 135.291486 
L 175.417362 135.289963 
L 175.883139 135.286674 
L 176.348915 135.28168 
L 176.814691 135.265453 
L 177.280467 135.048914 
L 177.746244 134.888063 
L 177.993436 134.828715 
L 178.21202 134.824969 
L 178.677796 134.803115 
L 179.143573 134.536462 
L 179.609349 134.399466 
L 179.702718 134.365943 
L 180.075125 134.350611 
L 180.540902 134.08398 
L 181.006678 133.929149 
L 181.111893 133.903172 
L 181.472454 133.893193 
L 181.93823 133.901352 
L 182.045821 133.903172 
L 182.404007 133.977932 
L 182.869783 134.066349 
L 183.335559 134.153283 
L 183.801336 134.295862 
L 184.267112 134.360239 
L 184.432182 134.365943 
L 184.732888 134.437515 
L 185.198664 134.53781 
L 185.664441 134.627124 
L 186.130217 134.707166 
L 186.595993 134.796124 
L 186.818554 134.828715 
L 187.06177 134.896055 
L 187.527546 135.011932 
L 187.993322 135.113292 
L 188.459098 135.180656 
L 188.924875 135.239486 
L 189.361566 135.291486 
L 189.390651 135.296158 
L 189.856427 135.403514 
L 190.322204 135.603985 
L 190.78798 135.613729 
L 191.253756 135.623748 
L 191.719533 135.634041 
L 192.185309 135.654986 
L 192.651085 135.715506 
L 192.966606 135.754257 
L 193.116861 135.775056 
L 193.582638 135.83953 
L 194.048414 135.904 
L 194.51419 135.968471 
L 194.979967 136.032945 
L 195.445743 136.097418 
L 195.911519 136.161892 
L 196.309871 136.217028 
L 196.377295 136.226361 
L 196.843072 136.290829 
L 197.308848 136.355307 
L 197.774624 136.419773 
L 198.240401 136.484243 
L 198.706177 136.548719 
L 199.171953 136.613193 
L 199.63773 136.67766 
L 199.647681 136.6798 
L 200.103506 136.778533 
L 200.569282 136.939554 
L 201.035058 137.100574 
L 201.151462 137.142571 
L 201.500835 137.268924 
L 201.966611 137.45067 
L 202.363006 137.605342 
L 202.432387 137.632599 
L 202.898164 137.831494 
L 203.36394 138.039045 
L 203.429177 138.068114 
L 203.829716 138.246586 
L 204.295492 138.472276 
L 204.406175 138.530885 
L 204.761269 138.718955 
L 205.227045 138.971033 
L 205.26829 138.993656 
L 205.692821 139.227243 
L 206.109338 139.456427 
L 206.158598 139.483898 
L 206.624374 139.818898 
L 206.743889 139.919199 
L 207.09015 140.229846 
L 207.259714 140.38197 
L 207.555927 140.647715 
L 207.775542 140.844741 
L 208.021703 141.065588 
L 208.291359 141.307513 
L 208.487479 141.483461 
L 208.807183 141.770284 
L 208.953255 141.901331 
L 209.323009 142.233055 
L 209.419032 142.319202 
L 209.838831 142.695826 
L 209.884808 142.737075 
L 210.350584 143.154944 
L 210.354657 143.158598 
L 210.816361 143.57282 
L 210.870476 143.621369 
L 211.282137 143.990686 
L 211.378508 144.08414 
L 211.747913 144.486112 
L 211.802261 144.546912 
L 212.213689 145.007221 
L 212.21589 145.009683 
L 212.634179 145.472454 
L 212.679466 145.52021 
L 213.076055 145.935225 
L 213.145242 146.009448 
L 213.502045 146.397997 
L 213.611018 146.516665 
L 213.926996 146.860768 
L 214.076795 147.023899 
L 214.351952 147.323539 
L 214.542571 147.534762 
L 214.77141 147.786311 
L 215.008347 148.052423 
L 215.183443 148.249082 
L 215.474124 148.575569 
L 215.595463 148.711853 
L 215.9399 149.098715 
L 216.007483 149.174624 
L 216.405676 149.62185 
L 216.419517 149.637396 
L 216.831541 150.100167 
L 216.871452 150.144847 
L 217.272137 150.562938 
L 217.337229 150.642197 
L 217.585749 151.02571 
L 217.803005 151.416618 
L 217.837967 151.488481 
L 218.10014 151.951252 
L 218.268781 152.25857 
L 218.341705 152.414023 
L 218.596766 152.876795 
L 218.734558 153.139134 
L 218.823586 153.339566 
L 219.082898 153.802337 
L 219.200334 154.021939 
L 219.307799 154.265109 
L 219.589185 154.72788 
L 219.66611 154.864514 
L 219.82039 155.190651 
L 220.110266 155.653422 
L 220.131886 155.691824 
L 220.33419 156.116194 
L 220.597663 156.533758 
L 220.620824 156.578965 
L 220.848744 157.041736 
L 221.063439 157.38359 
L 221.125008 157.504508 
L 221.361685 157.967279 
L 221.529215 158.326553 
L 221.552746 158.43005 
L 221.688576 158.892821 
L 221.848524 159.355593 
L 221.994992 159.690018 
L 222.020919 159.818364 
L 222.173045 160.281135 
L 222.383005 160.743907 
L 222.460768 160.879711 
L 222.608687 161.206678 
L 222.807847 161.669449 
L 222.926544 161.903667 
L 222.984817 162.13222 
L 223.092828 162.594992 
L 223.156249 163.057763 
L 223.236371 163.520534 
L 223.389351 163.983306 
L 223.392321 163.991358 
L 223.492259 164.446077 
L 223.657373 164.908848 
L 223.790642 165.371619 
L 223.858097 165.574642 
L 223.87727 165.834391 
L 224.041764 166.297162 
L 224.134666 166.759933 
L 224.207979 167.222705 
L 224.289149 167.685476 
L 224.323873 167.866337 
L 224.331151 168.148247 
L 224.377625 168.611018 
L 224.530098 169.07379 
L 224.609507 169.536561 
L 224.673466 169.999332 
L 224.67624 170.462104 
L 224.679092 170.924875 
L 224.66134 171.387646 
L 224.628952 171.850417 
L 224.596261 172.313189 
L 224.564734 172.77596 
L 224.534316 173.238731 
L 224.50323 173.701503 
L 224.433945 174.164274 
L 224.383119 174.627045 
L 224.346309 175.089816 
L 224.332455 175.552588 
L 224.325293 176.015359 
L 224.323873 176.14449 
L 224.291376 176.47813 
L 224.248042 176.940902 
L 224.206624 177.403673 
L 224.166971 177.866444 
L 224.116161 178.329215 
L 224.062823 178.791987 
L 224.014761 179.254758 
L 223.971246 179.717529 
L 223.929909 180.180301 
L 223.89306 180.643072 
L 223.858097 181.089139 
L 223.855893 181.105843 
L 223.659751 181.568614 
L 223.514022 182.031386 
L 223.399988 182.494157 
L 223.392321 182.524981 
L 223.214654 182.956928 
L 223.06331 183.419699 
L 222.946826 183.882471 
L 222.926544 183.952687 
L 222.771042 184.345242 
L 222.619513 184.808013 
L 222.50648 185.270785 
L 222.460768 185.454851 
L 222.366085 185.733556 
L 222.203805 186.196327 
L 222.079544 186.659098 
L 221.994992 187.051186 
L 221.973866 187.12187 
L 221.793792 187.584641 
L 221.656484 188.047412 
L 221.547844 188.510184 
L 221.529215 188.586032 
L 221.390491 188.972955 
L 221.2379 189.435726 
L 221.120283 189.898497 
L 221.063439 190.146028 
L 220.995204 190.361269 
L 220.82807 190.82404 
L 220.778158 191.286811 
L 220.734086 191.749583 
L 220.693848 192.212354 
L 220.661434 192.675125 
L 220.703701 193.137896 
L 220.753598 193.600668 
L 220.807209 194.063439 
L 220.723777 194.52621 
L 220.628692 194.988982 
L 220.600517 195.451753 
L 220.597663 195.643371 
L 220.565814 195.914524 
L 220.515169 196.377295 
L 220.468693 196.840067 
L 220.425906 197.302838 
L 220.330459 197.765609 
L 220.207618 198.228381 
L 220.131886 198.521445 
L 220.07106 198.691152 
L 219.896168 199.153923 
L 219.760222 199.616694 
L 219.66611 200.011421 
L 219.644109 200.079466 
L 219.467952 200.542237 
L 219.315939 201.005008 
L 219.200334 201.45199 
L 219.195229 201.46778 
L 219.045606 201.930551 
L 218.875644 202.393322 
L 218.743663 202.856093 
L 218.734558 202.892564 
L 218.596722 203.318865 
L 218.440549 203.781636 
L 218.292904 204.244407 
L 218.268781 204.333125 
L 218.147842 204.707179 
L 217.998213 205.16995 
L 217.844776 205.632721 
L 217.803005 205.736285 
L 217.63649 206.095492 
L 217.419117 206.558264 
L 217.337229 206.718793 
L 217.183344 207.021035 
L 216.946842 207.483806 
L 216.871452 207.631323 
L 216.71034 207.946578 
L 216.473839 208.409349 
L 216.405676 208.542723 
L 216.237332 208.87212 
L 216.000831 209.334891 
L 215.9399 209.454115 
L 215.777051 209.797663 
L 215.581978 210.260434 
L 215.474124 210.523209 
L 215.392037 210.723205 
L 215.16081 211.185977 
L 215.008347 211.485178 
L 214.922622 211.648748 
L 214.679292 212.111519 
L 214.542571 212.363262 
L 214.427962 212.57429 
L 214.176626 213.037062 
L 214.076795 213.220881 
L 213.925296 213.499833 
L 213.673961 213.962604 
L 213.611018 214.078501 
L 213.422632 214.425376 
L 213.170358 214.888147 
L 213.145242 214.932731 
L 212.902019 215.350918 
L 212.679466 215.733568 
L 212.632866 215.813689 
L 212.363716 216.276461 
L 212.213689 216.53441 
L 212.094562 216.739232 
L 211.825412 217.202003 
L 211.747913 217.341695 
L 211.570085 217.664775 
L 211.329348 218.127546 
L 211.282137 218.215523 
L 211.065269 218.590317 
L 210.816361 218.934465 
L 210.730567 219.053088 
L 210.395874 219.51586 
L 210.350584 219.578479 
L 210.06117 219.978631 
L 209.884808 220.222482 
L 209.726476 220.441402 
L 209.419032 220.866491 
L 209.390707 220.904174 
L 208.974233 221.366945 
L 208.953255 221.38854 
L 208.524709 221.829716 
L 208.487479 221.868043 
L 208.075184 222.292487 
L 208.021703 222.347544 
L 207.597574 222.755259 
L 207.555927 222.794378 
L 207.09015 223.214232 
L 207.086226 223.21803 
L 206.643712 223.680801 
L 206.624374 223.699723 
L 206.158598 224.076346 
L 206.075454 224.143573 
L 205.692821 224.452959 
L 205.503126 224.606344 
L 205.227045 224.829572 
L 204.930788 225.069115 
L 204.761269 225.202689 
L 204.295492 225.519217 
L 204.276692 225.531886 
L 203.829716 225.833117 
L 203.590013 225.994658 
L 203.36394 226.147011 
L 202.903323 226.457429 
L 202.898164 226.460906 
L 202.432387 226.774802 
L 202.202175 226.9202 
L 201.966611 227.065043 
L 201.500835 227.329453 
L 201.368877 227.382972 
L 201.035058 227.490809 
L 200.569282 227.622715 
L 200.103506 227.755209 
L 199.785244 227.845743 
L 199.63773 227.857637 
L 199.171953 228.020195 
L 198.706177 228.152689 
L 198.240401 228.285182 
L 198.158383 228.308514 
L 197.774624 228.332484 
L 197.308848 228.550175 
L 196.843072 228.682669 
L 196.436486 228.771285 
L 196.377295 228.772234 
L 195.911519 228.780853 
L 195.445743 228.799307 
L 194.979967 228.901136 
L 194.51419 229.224009 
L 194.491528 229.234057 
L 194.048414 229.261571 
L 193.583547 229.696828 
L 193.582638 229.697067 
L 193.116861 229.703953 
L 192.651085 229.717438 
L 192.185309 229.764581 
L 191.738883 230.159599 
L 191.719533 230.162948 
L 191.253756 230.171266 
L 190.78798 230.189037 
L 190.322204 230.249179 
L 189.895112 230.622371 
L 189.856427 230.629112 
L 189.390651 230.638621 
L 188.924875 230.640066 
L 188.459098 230.641006 
L 187.993322 230.635303 
L 187.527546 230.627333 
z
" clip-path="url(#p72c0b42cdf)" style="fill: none; stroke: #000000; stroke-width: 1.5"/>
   </g>
   <g id="PathCollection_4">
    <path d="M 183.335559 253.408015 
L 182.949091 253.298164 
L 182.869783 253.27562 
L 182.404007 253.14322 
L 181.93823 253.010827 
L 181.472454 252.878423 
L 181.321058 252.835392 
L 181.006678 252.746038 
L 180.540902 252.613636 
L 180.075125 252.481241 
L 179.692983 252.372621 
L 179.609349 252.348849 
L 179.143573 252.216453 
L 178.677796 252.084051 
L 178.21202 251.951659 
L 178.064938 251.90985 
L 177.746244 251.819259 
L 177.280467 251.686863 
L 176.814691 251.554468 
L 176.436883 251.447078 
L 176.348915 251.422074 
L 175.883139 251.289674 
L 175.417362 251.157279 
L 174.951586 251.024885 
L 174.808837 250.984307 
L 174.48581 250.892485 
L 174.020033 250.760085 
L 173.554257 250.62769 
L 173.180777 250.521536 
L 173.088481 250.495302 
L 172.622705 250.362899 
L 172.156928 250.230499 
L 171.691152 250.09811 
L 171.552734 250.058765 
L 171.225376 249.965712 
L 170.759599 249.833308 
L 170.293823 249.700913 
L 169.924696 249.595993 
L 169.828047 249.568522 
L 169.36227 249.436125 
L 168.896494 249.303728 
L 168.430718 249.171327 
L 168.296656 249.133222 
L 167.964942 249.038937 
L 167.499165 248.906539 
L 167.033389 248.774143 
L 166.668607 248.670451 
L 166.567613 248.641742 
L 166.101836 248.509355 
L 165.63606 248.376956 
L 165.170284 248.244558 
L 165.040541 248.207679 
L 164.704508 248.112163 
L 164.238731 247.979766 
L 163.772955 247.847374 
L 163.412479 247.744908 
L 163.307179 247.714976 
L 162.841402 247.582584 
L 162.375626 247.450185 
L 161.90985 247.31779 
L 161.816692 247.282137 
L 161.444073 247.121145 
L 160.978297 246.865481 
L 160.894282 246.819366 
L 160.512521 246.609816 
L 160.051179 246.356594 
L 160.046745 246.35416 
L 159.580968 246.098485 
L 159.208096 245.893823 
L 159.115192 245.842829 
L 158.649416 245.587166 
L 158.364997 245.431052 
L 158.183639 245.331503 
L 157.717863 245.07584 
L 157.521909 244.96828 
L 157.252087 244.820176 
L 156.786311 244.564515 
L 156.678811 244.505509 
L 156.320534 244.308852 
L 155.854758 244.053188 
L 155.83572 244.042738 
L 155.388982 243.759197 
L 155.20787 243.579967 
L 154.923205 243.292907 
L 154.748993 243.117195 
L 154.457429 242.823146 
L 154.290244 242.654424 
L 153.991653 242.353234 
L 153.83189 242.191653 
L 153.525876 241.883004 
L 153.373484 241.728881 
L 153.0601 241.412259 
L 152.915587 241.26611 
L 152.594324 240.941209 
L 152.458 240.803339 
L 152.128548 240.470148 
L 151.994836 240.340568 
L 151.662771 240.018619 
L 151.512266 239.877796 
L 151.196995 239.582806 
L 151.017678 239.415025 
L 150.731219 239.147004 
L 150.523074 238.952254 
L 150.265442 238.711201 
L 150.028473 238.489482 
L 149.799666 238.275395 
L 149.533883 238.026711 
L 149.33389 237.839591 
L 149.039273 237.56394 
L 148.868114 237.403793 
L 148.544692 237.101169 
L 148.402337 236.967974 
L 148.050091 236.638397 
L 147.936561 236.532169 
L 147.555486 236.175626 
L 147.470785 236.096378 
L 147.062865 235.712855 
L 147.005008 235.658154 
L 146.579958 235.250083 
L 146.539232 235.210985 
L 146.097923 234.787312 
L 146.073456 234.763822 
L 145.623388 234.324541 
L 145.607679 234.307946 
L 145.202653 233.86177 
L 145.141903 233.794849 
L 144.782558 233.398998 
L 144.676127 233.281755 
L 144.362453 232.936227 
L 144.210351 232.768672 
L 143.930214 232.473456 
L 143.744574 232.278538 
L 143.488133 232.010684 
L 143.278798 231.792044 
L 143.045059 231.547913 
L 142.813022 231.305556 
L 142.601988 231.085142 
L 142.347245 230.819071 
L 142.158921 230.622371 
L 141.881469 230.332586 
L 141.715845 230.159599 
L 141.415693 229.846091 
L 141.272786 229.696828 
L 140.949917 229.359601 
L 140.829716 229.234057 
L 140.48414 228.847376 
L 140.418209 228.771285 
L 140.020388 228.308514 
L 140.018364 228.30616 
L 139.674784 227.845743 
L 139.552588 227.63936 
L 139.408726 227.382972 
L 139.14905 226.9202 
L 139.086811 226.80767 
L 138.893549 226.457429 
L 138.639947 225.994658 
L 138.621035 225.960148 
L 138.386342 225.531886 
L 138.179186 225.069115 
L 138.155259 225.011411 
L 137.987299 224.606344 
L 137.795415 224.143573 
L 137.689482 223.888101 
L 137.603523 223.680801 
L 137.411636 223.21803 
L 137.223706 222.76481 
L 137.219746 222.755259 
L 137.027865 222.292487 
L 136.8361 221.829716 
L 136.75793 221.641076 
L 136.641771 221.366945 
L 136.440711 220.904174 
L 136.292154 220.563535 
L 136.238889 220.441402 
L 136.037056 219.978631 
L 135.835226 219.51586 
L 135.826377 219.495676 
L 135.602389 219.053088 
L 135.360601 218.673203 
L 135.307848 218.590317 
L 135.013309 218.127546 
L 134.894825 217.941396 
L 134.718747 217.664775 
L 134.429048 217.209641 
L 134.424187 217.202003 
L 134.129644 216.739232 
L 133.963272 216.477843 
L 133.835098 216.276461 
L 133.549898 215.813689 
L 133.497496 215.701209 
L 133.339231 215.350918 
L 133.067891 214.888147 
L 133.03172 214.82646 
L 132.796536 214.425376 
L 132.565943 214.032106 
L 132.525191 213.962604 
L 132.253845 213.499833 
L 132.100167 213.23774 
L 131.982501 213.037062 
L 131.711154 212.57429 
L 131.634391 212.443376 
L 131.439804 212.111519 
L 131.168614 211.649022 
L 131.168454 211.648748 
L 130.897113 211.185977 
L 130.702838 210.854652 
L 130.625763 210.723205 
L 130.354421 210.260434 
L 130.237062 210.063776 
L 130.079075 209.797663 
L 129.797044 209.334891 
L 129.771285 209.292626 
L 129.515023 208.87212 
L 129.305509 208.528328 
L 129.232999 208.409349 
L 128.950973 207.946578 
L 128.839733 207.764049 
L 128.668946 207.483806 
L 128.386927 207.021035 
L 128.373957 206.999752 
L 128.104896 206.558264 
L 127.90818 206.235479 
L 127.82287 206.095492 
L 127.540841 205.632721 
L 127.442404 205.4712 
L 127.258812 205.16995 
L 126.976788 204.707179 
L 126.976628 204.706924 
L 126.665374 204.244407 
L 126.510851 204.06956 
L 126.239286 203.781636 
L 126.045075 203.575712 
L 125.802837 203.318865 
L 125.579299 203.081855 
L 125.366377 202.856093 
L 125.113523 202.58799 
L 124.929923 202.393322 
L 124.647746 202.094133 
L 124.502123 201.930551 
L 124.18197 201.519676 
L 124.142746 201.46778 
L 123.792989 201.005008 
L 123.716194 200.903401 
L 123.443224 200.542237 
L 123.250417 200.287136 
L 123.093458 200.079466 
L 122.784641 199.670879 
L 122.743687 199.616694 
L 122.393934 199.153923 
L 122.318865 199.038914 
L 122.094788 198.691152 
L 121.853088 198.239442 
L 121.84717 198.228381 
L 121.558457 197.765609 
L 121.387312 197.498304 
L 121.262163 197.302838 
L 120.965872 196.840067 
L 120.921536 196.770818 
L 120.669585 196.377295 
L 120.45576 196.043341 
L 120.374655 195.914524 
L 120.151761 195.451753 
L 119.989983 195.086155 
L 119.946985 194.988982 
L 119.742219 194.52621 
L 119.537453 194.063439 
L 119.524207 194.033502 
L 119.332687 193.600668 
L 119.127922 193.137896 
L 119.058431 192.980851 
L 118.92315 192.675125 
L 118.71839 192.212354 
L 118.592654 191.928212 
L 118.51361 191.749583 
L 118.308845 191.286811 
L 118.126878 190.875588 
L 118.104069 190.82404 
L 117.899304 190.361269 
L 117.694534 189.898497 
L 117.661102 189.822941 
L 117.489767 189.435726 
L 117.285 188.972955 
L 117.195326 188.770288 
L 117.080236 188.510184 
L 116.875463 188.047412 
L 116.729549 187.717649 
L 116.670696 187.584641 
L 116.465926 187.12187 
L 116.263773 186.665 
L 116.261162 186.659098 
L 116.056398 186.196327 
L 115.851632 185.733556 
L 115.797997 185.61234 
L 115.646859 185.270785 
L 115.442094 184.808013 
L 115.33222 184.555378 
L 115.241973 184.345242 
L 115.069645 183.882471 
L 114.897302 183.419699 
L 114.866444 183.336838 
L 114.724966 182.956928 
L 114.552629 182.494157 
L 114.400668 182.086111 
L 114.380287 182.031386 
L 114.207947 181.568614 
L 114.035615 181.105843 
L 113.934891 180.835385 
L 113.863271 180.643072 
L 113.69284 180.180301 
L 113.606022 179.717529 
L 113.553732 179.254758 
L 113.502494 178.791987 
L 113.469115 178.485563 
L 113.452317 178.329215 
L 113.403442 177.866444 
L 113.370718 177.403673 
L 113.344005 176.940902 
L 113.316707 176.47813 
L 113.300641 176.015359 
L 113.284578 175.552588 
L 113.268509 175.089816 
L 113.252442 174.627045 
L 113.236378 174.164274 
L 113.220307 173.701503 
L 113.20424 173.238731 
L 113.215941 172.77596 
L 113.23278 172.313189 
L 113.258513 171.850417 
L 113.365798 171.387646 
L 113.400785 170.924875 
L 113.449265 170.462104 
L 113.469115 170.333183 
L 113.520519 169.999332 
L 113.591771 169.536561 
L 113.663032 169.07379 
L 113.734284 168.611018 
L 113.810346 168.148247 
L 113.934891 167.764776 
L 113.961058 167.685476 
L 114.113755 167.222705 
L 114.266459 166.759933 
L 114.400668 166.353201 
L 114.419159 166.297162 
L 114.57186 165.834391 
L 114.724555 165.371619 
L 114.866444 164.941609 
L 114.877254 164.908848 
L 115.021599 164.446077 
L 115.133836 163.983306 
L 115.246075 163.520534 
L 115.33222 163.165348 
L 115.358314 163.057763 
L 115.470548 162.594992 
L 115.582783 162.13222 
L 115.69502 161.669449 
L 115.797997 161.244876 
L 115.807261 161.206678 
L 115.9195 160.743907 
L 116.031736 160.281135 
L 116.143976 159.818364 
L 116.256217 159.355593 
L 116.263773 159.324437 
L 116.36845 158.892821 
L 116.478014 158.43005 
L 116.582255 157.967279 
L 116.686032 157.504508 
L 116.729549 157.313413 
L 116.790744 157.041736 
L 116.88441 156.578965 
L 116.978782 156.116194 
L 117.071905 155.653422 
L 117.166749 155.190651 
L 117.195326 155.051222 
L 117.261927 154.72788 
L 117.369034 154.265109 
L 117.527637 153.802337 
L 117.661102 153.580458 
L 117.808751 153.339566 
L 118.0924 152.876795 
L 118.126878 152.820547 
L 118.376066 152.414023 
L 118.592654 152.075473 
L 118.673165 151.951252 
L 118.98524 151.488481 
L 119.058431 151.379947 
L 119.297312 151.02571 
L 119.524207 150.689246 
L 119.609383 150.562938 
L 119.921459 150.100167 
L 119.989983 149.994361 
L 120.19142 149.637396 
L 120.429025 149.174624 
L 120.45576 149.122557 
L 120.666642 148.711853 
L 120.904257 148.249082 
L 120.921536 148.21543 
L 121.137968 147.786311 
L 121.317857 147.323539 
L 121.387312 147.135337 
L 121.488639 146.860768 
L 121.659408 146.397997 
L 121.830185 145.935225 
L 121.853088 145.873161 
L 122.000962 145.472454 
L 122.171737 145.009683 
L 122.318865 144.611003 
L 122.342517 144.546912 
L 122.513304 144.08414 
L 122.684085 143.621369 
L 122.784641 143.34889 
L 122.854865 143.158598 
L 123.033818 142.695826 
L 123.250417 142.349484 
L 123.348828 142.233055 
L 123.716194 141.843237 
L 123.784947 141.770284 
L 124.18197 141.349023 
L 124.221091 141.307513 
L 124.647746 140.85479 
L 124.657217 140.844741 
L 125.09335 140.38197 
L 125.113523 140.360565 
L 125.529483 139.919199 
L 125.579299 139.86634 
L 125.965612 139.456427 
L 126.045075 139.372111 
L 126.401748 138.993656 
L 126.510851 138.87789 
L 126.837888 138.530885 
L 126.976628 138.383677 
L 127.274032 138.068114 
L 127.442404 137.889454 
L 127.710166 137.605342 
L 127.90818 137.395233 
L 128.146292 137.142571 
L 128.373957 136.90101 
L 128.582438 136.6798 
L 128.839733 136.406784 
L 129.018566 136.217028 
L 129.305509 135.912559 
L 129.454698 135.754257 
L 129.771285 135.41833 
L 129.892827 135.291486 
L 130.237062 134.981235 
L 130.421612 134.828715 
L 130.702838 134.596302 
L 130.981578 134.365943 
L 131.168614 134.211368 
L 131.541531 133.903172 
L 131.634391 133.826429 
L 132.100167 133.441489 
L 132.101484 133.440401 
L 132.565943 133.056553 
L 132.661439 132.977629 
L 133.03172 132.671617 
L 133.221401 132.514858 
L 133.497496 132.286686 
L 133.781364 132.052087 
L 133.963272 131.901748 
L 134.341314 131.589316 
L 134.429048 131.516809 
L 134.894825 131.131871 
L 134.90127 131.126544 
L 135.360601 130.746933 
L 135.461229 130.663773 
L 135.826377 130.362003 
L 136.021184 130.201002 
L 136.292154 129.977059 
L 136.581145 129.73823 
L 136.75793 129.592129 
L 137.141089 129.275459 
L 137.223706 129.207378 
L 137.689482 128.821951 
L 137.700476 128.812688 
L 138.155259 128.444093 
L 138.270951 128.349917 
L 138.621035 128.064943 
L 138.839458 127.887145 
L 139.086811 127.685798 
L 139.407962 127.424374 
L 139.552588 127.306644 
L 139.976462 126.961603 
L 140.018364 126.927494 
L 140.48414 126.548352 
L 140.542377 126.498831 
L 140.949917 126.118682 
L 141.03445 126.03606 
L 141.415693 125.663432 
L 141.50792 125.573289 
L 141.881469 125.208175 
L 142.000249 125.110518 
L 142.347245 124.869099 
L 142.66691 124.647746 
L 142.813022 124.546573 
L 143.278798 124.224058 
L 143.33524 124.184975 
L 143.744574 123.901524 
L 144.003539 123.722204 
L 144.210351 123.579 
L 144.671854 123.259432 
L 144.676127 123.256474 
L 145.141903 122.93395 
L 145.35855 122.796661 
L 145.607679 122.652257 
L 146.073456 122.414745 
L 146.232026 122.33389 
L 146.539232 122.177243 
L 147.005008 121.939737 
L 147.139577 121.871119 
L 147.470785 121.702232 
L 147.936561 121.464727 
L 148.047128 121.408347 
L 148.402337 121.227223 
L 148.868114 120.989716 
L 148.954678 120.945576 
L 149.33389 120.752214 
L 149.799666 120.514719 
L 149.862253 120.482805 
L 150.265442 120.27721 
L 150.731219 120.039701 
L 150.769788 120.020033 
L 151.196995 119.802205 
L 151.662771 119.564695 
L 151.677349 119.557262 
L 152.128548 119.327196 
L 152.584927 119.094491 
L 152.594324 119.089572 
L 153.0601 118.877238 
L 153.525876 118.704293 
L 153.721336 118.63172 
L 153.991653 118.531351 
L 154.457429 118.358411 
L 154.923205 118.18547 
L 154.967703 118.168948 
L 155.388982 118.01253 
L 155.854758 117.839589 
L 156.21406 117.706177 
L 156.320534 117.666642 
L 156.786311 117.493702 
L 157.252087 117.320756 
L 157.464231 117.243406 
L 157.717863 117.152192 
L 158.183639 116.992789 
L 158.649416 116.833381 
L 158.803542 116.780634 
L 159.115192 116.67398 
L 159.580968 116.514575 
L 160.046745 116.355175 
L 160.155773 116.317863 
L 160.512521 116.195769 
L 160.978297 116.036362 
L 161.444073 115.87696 
L 161.507972 115.855092 
L 161.90985 115.717552 
L 162.375626 115.558142 
L 162.841402 115.398744 
L 162.860172 115.392321 
L 163.307179 115.239339 
L 163.772955 115.079931 
L 164.212381 114.929549 
L 164.238731 114.920531 
L 164.704508 114.761127 
L 165.170284 114.601717 
L 165.564587 114.466778 
L 165.63606 114.442318 
L 166.101836 114.282909 
L 166.567613 114.123507 
L 166.916798 114.004007 
L 167.033389 113.964105 
L 167.499165 113.804695 
L 167.964942 113.645293 
L 168.335979 113.541235 
L 168.430718 113.515979 
L 168.896494 113.441442 
L 169.36227 113.366898 
L 169.828047 113.292364 
L 170.293823 113.217821 
L 170.759599 113.143278 
L 171.164654 113.078464 
L 171.225376 113.068748 
L 171.691152 112.994208 
L 172.156928 112.91966 
L 172.622705 112.845128 
L 173.088481 112.770585 
L 173.554257 112.696047 
L 174.020033 112.621511 
L 174.056388 112.615693 
L 174.48581 112.54697 
L 174.951586 112.472432 
L 175.417362 112.397888 
L 175.883139 112.32335 
L 176.348915 112.246075 
L 176.814691 112.165267 
L 176.8856 112.152922 
L 177.280467 112.084176 
L 177.746244 112.003093 
L 178.21202 111.922016 
L 178.677796 111.84093 
L 179.143573 111.759851 
L 179.54394 111.69015 
L 179.609349 111.678763 
L 180.075125 111.597683 
L 180.540902 111.516601 
L 181.006678 111.45694 
L 181.472454 111.419141 
L 181.93823 111.381339 
L 182.404007 111.361063 
L 182.869783 111.408442 
L 183.335559 111.455813 
L 183.801336 111.50319 
L 184.267112 111.550564 
L 184.732888 111.597934 
L 185.131171 111.69015 
L 185.198664 111.706068 
L 185.664441 111.817659 
L 186.130217 111.926798 
L 186.595993 112.035359 
L 187.06177 112.143916 
L 187.124586 112.152922 
L 187.527546 112.208654 
L 187.993322 112.247463 
L 188.459098 112.286288 
L 188.924875 112.325105 
L 189.390651 112.363923 
L 189.856427 112.402739 
L 190.322204 112.44156 
L 190.78798 112.480376 
L 191.253756 112.519194 
L 191.719533 112.55802 
L 192.185309 112.59683 
L 192.411686 112.615693 
L 192.651085 112.63564 
L 193.116861 112.674458 
L 193.582638 112.713275 
L 194.048414 112.745206 
L 194.51419 112.754458 
L 194.979967 112.763728 
L 195.445743 112.772997 
L 195.911519 112.782266 
L 196.377295 112.79152 
L 196.843072 112.800792 
L 197.308848 112.810067 
L 197.774624 112.859849 
L 198.240401 112.836765 
L 198.706177 112.801276 
L 199.171953 112.765784 
L 199.63773 112.732594 
L 200.103506 112.699755 
L 200.569282 112.67142 
L 201.035058 112.778189 
L 201.500835 112.926849 
L 201.966611 113.075505 
L 201.975883 113.078464 
L 202.432387 113.224161 
L 202.898164 113.382865 
L 203.336203 113.541235 
L 203.36394 113.551264 
L 203.829716 113.719655 
L 204.295492 113.888051 
L 204.616208 114.004007 
L 204.761269 114.056453 
L 205.227045 114.224849 
L 205.692821 114.393248 
L 205.896206 114.466778 
L 206.158598 114.561641 
L 206.624374 114.730035 
L 207.09015 114.898431 
L 207.176221 114.929549 
L 207.555927 115.066826 
L 208.021703 115.235216 
L 208.456252 115.392321 
L 208.487479 115.403611 
L 208.953255 115.572008 
L 209.419032 115.740402 
L 209.736249 115.855092 
L 209.884808 115.908804 
L 210.350584 116.0772 
L 210.816361 116.245592 
L 211.016268 116.317863 
L 211.282137 116.413981 
L 211.747913 116.582373 
L 212.213689 116.750773 
L 212.296284 116.780634 
L 212.679466 116.919173 
L 213.145242 117.101531 
L 213.408686 117.243406 
L 213.611018 117.354734 
L 214.076795 117.611016 
L 214.250344 117.706177 
L 214.542571 117.86302 
L 215.008347 118.097356 
L 215.150652 118.168948 
L 215.474124 118.331681 
L 215.9399 118.566007 
L 216.070521 118.63172 
L 216.405676 118.800336 
L 216.871452 119.034665 
L 216.990369 119.094491 
L 217.337229 119.268998 
L 217.803005 119.503332 
L 217.910199 119.557262 
L 218.268781 119.737666 
L 218.734558 119.971999 
L 218.830037 120.020033 
L 219.200334 120.206325 
L 219.66611 120.440644 
L 219.749914 120.482805 
L 220.131886 120.674263 
L 220.597663 120.899371 
L 220.664804 120.945576 
L 221.063439 121.289384 
L 221.194473 121.408347 
L 221.529215 121.712257 
L 221.704198 121.871119 
L 221.994992 122.135119 
L 222.213932 122.33389 
L 222.460768 122.557987 
L 222.723667 122.796661 
L 222.926544 122.980844 
L 223.233409 123.259432 
L 223.392321 123.403702 
L 223.743129 123.722204 
L 223.858097 123.826553 
L 224.253275 124.184975 
L 224.323873 124.248976 
L 224.763736 124.647746 
L 224.789649 124.671239 
L 225.255426 125.093487 
L 225.274211 125.110518 
L 225.721202 125.514136 
L 225.787395 125.573289 
L 226.186978 125.929455 
L 226.30658 126.03606 
L 226.652755 126.34463 
L 226.825741 126.498831 
L 227.118531 126.759819 
L 227.344907 126.961603 
L 227.584307 127.174994 
L 227.864079 127.424374 
L 228.050083 127.590173 
L 228.383251 127.887145 
L 228.51586 128.005346 
L 228.87656 128.349917 
L 228.981636 128.459177 
L 229.317901 128.812688 
L 229.447412 128.948844 
L 229.758069 129.275459 
L 229.913189 129.438542 
L 230.198249 129.73823 
L 230.378965 129.935032 
L 230.615028 130.201002 
L 230.844741 130.461357 
L 231.023335 130.663773 
L 231.310518 130.989266 
L 231.43164 131.126544 
L 231.776294 131.517191 
L 231.839928 131.589316 
L 232.24207 132.037827 
L 232.255198 132.052087 
L 232.692357 132.514858 
L 232.707846 132.531255 
L 233.12952 132.977629 
L 233.173623 133.024314 
L 233.566688 133.440401 
L 233.639399 133.517371 
L 234.003861 133.903172 
L 234.105175 134.010426 
L 234.441008 134.365943 
L 234.570952 134.499494 
L 234.907263 134.828715 
L 235.036728 134.95236 
L 235.391802 135.291486 
L 235.502504 135.397214 
L 235.86402 135.754257 
L 235.96828 135.903513 
L 236.147754 136.217028 
L 236.412653 136.6798 
L 236.434057 136.717191 
L 236.677554 137.142571 
L 236.899833 137.530898 
L 236.942447 137.605342 
L 237.207361 138.068114 
L 237.365609 138.344565 
L 237.472265 138.530885 
L 237.737171 138.993656 
L 237.831386 139.158244 
L 238.002071 139.456427 
L 238.251252 139.919199 
L 238.297162 140.008744 
L 238.488513 140.38197 
L 238.725786 140.844741 
L 238.762938 140.917205 
L 238.963048 141.307513 
L 239.200316 141.770284 
L 239.228715 141.825671 
L 239.437593 142.233055 
L 239.674864 142.695826 
L 239.694491 142.734107 
L 239.912129 143.158598 
L 240.149394 143.621369 
L 240.160267 143.642576 
L 240.386668 144.08414 
L 240.623933 144.546912 
L 240.626043 144.551027 
L 240.864307 145.009683 
L 241.09182 145.441135 
L 241.108387 145.472454 
L 241.353205 145.935225 
L 241.557596 146.321605 
L 241.598007 146.397997 
L 241.84281 146.860768 
L 242.023372 147.202098 
L 242.087615 147.323539 
L 242.332423 147.786311 
L 242.489149 148.082562 
L 242.577243 148.249082 
L 242.817562 148.711853 
L 242.954925 148.977539 
L 243.056824 149.174624 
L 243.296088 149.637396 
L 243.420701 149.878416 
L 243.535353 150.100167 
L 243.774616 150.562938 
L 243.886477 150.779289 
L 244.013885 151.02571 
L 244.243358 151.488481 
L 244.352254 151.839153 
L 244.386356 151.951252 
L 244.527144 152.414023 
L 244.672269 152.876795 
L 244.81803 153.322347 
L 244.823663 153.339566 
L 244.975062 153.802337 
L 245.113602 154.265109 
L 245.232442 154.72788 
L 245.283806 154.931255 
L 245.349321 155.190651 
L 245.466204 155.653422 
L 245.583084 156.116194 
L 245.699966 156.578965 
L 245.749583 156.775422 
L 245.816839 157.041736 
L 245.93372 157.504508 
L 246.050599 157.967279 
L 246.14523 158.43005 
L 246.168406 158.892821 
L 246.209433 159.355593 
L 246.215359 159.414632 
L 246.255886 159.818364 
L 246.309556 160.281135 
L 246.381698 160.743907 
L 246.453833 161.206678 
L 246.525967 161.669449 
L 246.598102 162.13222 
L 246.670242 162.594992 
L 246.681135 162.664873 
L 246.742377 163.057763 
L 246.814516 163.520534 
L 246.886648 163.983306 
L 246.960726 164.446077 
L 247.035906 164.908848 
L 247.112399 165.371619 
L 247.146912 165.58021 
L 247.188968 165.834391 
L 247.265546 166.297162 
L 247.342122 166.759933 
L 247.404521 167.222705 
L 247.438743 167.685476 
L 247.472974 168.148247 
L 247.507197 168.611018 
L 247.541431 169.07379 
L 247.575661 169.536561 
L 247.609888 169.999332 
L 247.612688 170.034885 
L 247.64617 170.462104 
L 247.686562 170.924875 
L 247.691501 171.387646 
L 247.676598 171.850417 
L 247.661713 172.313189 
L 247.646813 172.77596 
L 247.631918 173.238731 
L 247.617017 173.701503 
L 247.612688 173.836045 
L 247.602125 174.164274 
L 247.58723 174.627045 
L 247.57233 175.089816 
L 247.557439 175.552588 
L 247.542546 176.015359 
L 247.527642 176.47813 
L 247.512751 176.940902 
L 247.494298 177.403673 
L 247.463125 177.866444 
L 247.429542 178.329215 
L 247.395959 178.791987 
L 247.362374 179.254758 
L 247.328787 179.717529 
L 247.2952 180.180301 
L 247.261612 180.643072 
L 247.228031 181.105843 
L 247.19445 181.568614 
L 247.160864 182.031386 
L 247.146912 182.223638 
L 247.127278 182.494157 
L 247.093697 182.956928 
L 247.060111 183.419699 
L 247.013047 183.882471 
L 246.956979 184.345242 
L 246.843655 184.808013 
L 246.682414 185.270785 
L 246.681135 185.274456 
L 246.521179 185.733556 
L 246.359937 186.196327 
L 246.215359 186.611262 
L 246.198691 186.659098 
L 246.03746 187.12187 
L 245.876223 187.584641 
L 245.749583 187.948127 
L 245.71499 188.047412 
L 245.562199 188.510184 
L 245.486547 188.972955 
L 245.410904 189.435726 
L 245.335256 189.898497 
L 245.283806 190.213241 
L 245.259609 190.361269 
L 245.183966 190.82404 
L 245.108322 191.286811 
L 245.032672 191.749583 
L 244.957025 192.212354 
L 244.881379 192.675125 
L 244.81803 193.062686 
L 244.805817 193.137896 
L 244.731538 193.600668 
L 244.660737 194.063439 
L 244.591178 194.52621 
L 244.521624 194.988982 
L 244.452066 195.451753 
L 244.38251 195.914524 
L 244.352254 196.05264 
L 244.278833 196.377295 
L 244.043699 196.840067 
L 243.886477 197.149501 
L 243.808568 197.302838 
L 243.573435 197.765609 
L 243.420701 198.066206 
L 243.338301 198.228381 
L 243.103167 198.691152 
L 242.954925 198.982905 
L 242.868029 199.153923 
L 242.632899 199.616694 
L 242.489149 199.899607 
L 242.397762 200.079466 
L 242.201965 200.542237 
L 242.06263 201.005008 
L 242.023372 201.135393 
L 241.923291 201.46778 
L 241.783954 201.930551 
L 241.649028 202.393322 
L 241.557596 202.723925 
L 241.521335 202.856093 
L 241.394372 203.318865 
L 241.26741 203.781636 
L 241.140454 204.244407 
L 241.09182 204.421672 
L 241.013489 204.707179 
L 240.88653 205.16995 
L 240.75957 205.632721 
L 240.632607 206.095492 
L 240.626043 206.119417 
L 240.505644 206.558264 
L 240.378685 207.021035 
L 240.251718 207.483806 
L 240.160267 207.886413 
L 240.147814 207.946578 
L 240.094406 208.409349 
L 240.041002 208.87212 
L 239.987596 209.334891 
L 239.93049 209.797663 
L 239.815698 210.260434 
L 239.694491 210.674988 
L 239.680393 210.723205 
L 239.545082 211.185977 
L 239.40977 211.648748 
L 239.274457 212.111519 
L 239.228715 212.267962 
L 239.139147 212.57429 
L 239.003835 213.037062 
L 238.868527 213.499833 
L 238.762938 213.860947 
L 238.733214 213.962604 
L 238.597912 214.425376 
L 238.462363 214.888147 
L 238.315505 215.350918 
L 238.297162 215.408509 
L 238.168106 215.813689 
L 237.984856 216.276461 
L 237.831386 216.581739 
L 237.752212 216.739232 
L 237.519578 217.202003 
L 237.365609 217.508267 
L 237.286927 217.664775 
L 237.054291 218.127546 
L 236.899833 218.434797 
L 236.821651 218.590317 
L 236.58901 219.053088 
L 236.434057 219.361319 
L 236.356366 219.51586 
L 236.123725 219.978631 
L 235.96828 220.28785 
L 235.891055 220.441402 
L 235.658447 220.904174 
L 235.502504 221.214372 
L 235.425562 221.366945 
L 235.192476 221.829716 
L 235.036728 222.139408 
L 234.959565 222.292487 
L 234.726296 222.755259 
L 234.570952 223.06343 
L 234.493021 223.21803 
L 234.260643 223.680801 
L 234.105175 224.00697 
L 234.040863 224.143573 
L 233.822997 224.606344 
L 233.639399 224.996327 
L 233.605131 225.069115 
L 233.387261 225.531886 
L 233.173623 225.985678 
L 233.169395 225.994658 
L 232.951527 226.457429 
L 232.733662 226.9202 
L 232.707846 226.975036 
L 232.515793 227.382972 
L 232.297926 227.845743 
L 232.24207 227.964391 
L 232.080065 228.308514 
L 231.808344 228.771285 
L 231.776294 228.81812 
L 231.491654 229.234057 
L 231.310518 229.498743 
L 231.174961 229.696828 
L 230.858266 230.159599 
L 230.844741 230.179363 
L 230.541578 230.622371 
L 230.378965 230.859998 
L 230.224881 231.085142 
L 229.913189 231.5406 
L 229.908184 231.547913 
L 229.591486 232.010684 
L 229.447412 232.221206 
L 229.274778 232.473456 
L 228.981636 232.901811 
L 228.958084 232.936227 
L 228.641384 233.398998 
L 228.51586 233.582418 
L 228.324683 233.86177 
L 228.050083 234.263016 
L 228.007203 234.324541 
L 227.632887 234.787312 
L 227.584307 234.842821 
L 227.22788 235.250083 
L 227.118531 235.375031 
L 226.822883 235.712855 
L 226.652755 235.907249 
L 226.417875 236.175626 
L 226.186978 236.439457 
L 226.012872 236.638397 
L 225.721202 236.972759 
L 225.610666 237.101169 
L 225.255426 237.506309 
L 225.200869 237.56394 
L 224.789649 237.994835 
L 224.759229 238.026711 
L 224.323873 238.482893 
L 224.317584 238.489482 
L 223.875958 238.952254 
L 223.858097 238.97097 
L 223.434318 239.415025 
L 223.392321 239.459032 
L 222.992674 239.877796 
L 222.926544 239.947089 
L 222.551039 240.340568 
L 222.460768 240.435158 
L 222.109341 240.803339 
L 221.994992 240.92316 
L 221.667084 241.26611 
L 221.529215 241.410333 
L 221.224637 241.728881 
L 221.063439 241.897045 
L 220.720865 242.191653 
L 220.597663 242.284563 
L 220.131886 242.635819 
L 220.107215 242.654424 
L 219.66611 242.987072 
L 219.493562 243.117195 
L 219.200334 243.338323 
L 218.879907 243.579967 
L 218.734558 243.695441 
L 218.268781 244.022378 
L 218.231556 244.042738 
L 217.803005 244.272962 
L 217.367813 244.505509 
L 217.337229 244.521934 
L 216.871452 244.772069 
L 216.5061 244.96828 
L 216.405676 245.022213 
L 215.9399 245.272354 
L 215.644385 245.431052 
L 215.474124 245.522488 
L 215.008347 245.772641 
L 214.782692 245.893823 
L 214.542571 246.022774 
L 214.076795 246.272916 
L 213.920981 246.356594 
L 213.611018 246.523059 
L 213.145242 246.773201 
L 213.04036 246.819366 
L 212.679466 246.974726 
L 212.213689 247.172637 
L 211.997409 247.282137 
L 211.747913 247.426979 
L 211.282137 247.675059 
L 211.145247 247.744908 
L 210.816361 247.912725 
L 210.350584 248.150387 
L 210.238296 248.207679 
L 209.884808 248.388041 
L 209.419032 248.625705 
L 209.33134 248.670451 
L 208.953255 248.86337 
L 208.487479 249.089144 
L 208.370734 249.133222 
L 208.021703 249.252039 
L 207.555927 249.388009 
L 207.09015 249.523977 
L 206.843454 249.595993 
L 206.624374 249.659947 
L 206.158598 249.795912 
L 205.692821 249.93188 
L 205.258157 250.058765 
L 205.227045 250.067847 
L 204.761269 250.203815 
L 204.295492 250.339786 
L 203.829716 250.475757 
L 203.672891 250.521536 
L 203.36394 250.61172 
L 202.898164 250.747685 
L 202.432387 250.883646 
L 202.087545 250.984307 
L 201.966611 251.019609 
L 201.500835 251.155587 
L 201.035058 251.29155 
L 200.569282 251.42752 
L 200.502279 251.447078 
L 200.103506 251.563485 
L 199.63773 251.699458 
L 199.171953 251.835432 
L 198.917023 251.90985 
L 198.706177 251.971398 
L 198.240401 252.107366 
L 197.774624 252.243326 
L 197.331725 252.372621 
L 197.308848 252.3793 
L 196.843072 252.515268 
L 196.377295 252.651238 
L 195.911519 252.787207 
L 195.65866 252.835392 
L 195.445743 252.876151 
L 194.979967 252.952675 
L 194.51419 253.029203 
L 194.048414 253.105725 
L 193.582638 253.182253 
L 193.116861 253.258779 
L 192.87715 253.298164 
L 192.651085 253.335306 
L 192.185309 253.411831 
L 191.719533 253.43864 
L 191.253756 253.43038 
L 190.78798 253.422124 
L 190.322204 253.413867 
L 189.856427 253.405612 
L 189.390651 253.4094 
L 188.924875 253.450316 
L 188.459098 253.49531 
L 187.993322 253.552456 
L 187.527546 253.567502 
L 187.06177 253.554289 
L 186.595993 253.541077 
L 186.130217 253.527871 
L 185.664441 253.514659 
L 185.198664 253.501447 
L 184.732888 253.488236 
L 184.267112 253.475027 
L 183.801336 253.461815 
L 183.335559 253.408015 
z
" clip-path="url(#p72c0b42cdf)" style="fill: none; stroke: #000000; stroke-width: 1.5"/>
   </g>
   <g id="patch_3">
    <path d="M 45 320.4 
L 45 43.2 
" style="fill: none; stroke: #000000; stroke-width: 0.8; stroke-linejoin: miter; stroke-linecap: square"/>
   </g>
   <g id="patch_4">
    <path d="M 324 320.4 
L 324 43.2 
" style="fill: none; stroke: #000000; stroke-width: 0.8; stroke-linejoin: miter; stroke-linecap: square"/>
   </g>
   <g id="patch_5">
    <path d="M 45 320.4 
L 324 320.4 
" style="fill: none; stroke: #000000; stroke-width: 0.8; stroke-linejoin: miter; stroke-linecap: square"/>
   </g>
   <g id="patch_6">
    <path d="M 45 43.2 
L 324 43.2 
" style="fill: none; stroke: #000000; stroke-width: 0.8; stroke-linejoin: miter; stroke-linecap: square"/>
   </g>
  </g>
 </g>
 <defs>
  <clipPath id="p72c0b42cdf">
   <rect x="45" y="43.2" width="279" height="277.2"/>
  </clipPath>
 </defs>
</svg>
