<?xml version="1.0" encoding="utf-8" standalone="no"?>
<!DOCTYPE svg PUBLIC "-//W3C//DTD SVG 1.1//EN"
  "http://www.w3.org/Graphics/SVG/1.1/DTD/svg11.dtd">
<svg xmlns:xlink="http://www.w3.org/1999/xlink" width="360pt" height="360pt" viewBox="0 0 360 360" xmlns="http://www.w3.org/2000/svg" version="1.1">
 <metadata>
  <rdf:RDF xmlns:dc="http://purl.org/dc/elements/1.1/" xmlns:cc="http://creativecommons.org/ns#" xmlns:rdf="http://www.w3.org/1999/02/22-rdf-syntax-ns#">
   <cc:Work>
    <dc:type rdf:resource="http://purl.org/dc/dcmitype/StillImage"/>
    <dc:date>2022-04-03T22:41:45.448406</dc:date>
    <dc:format>image/svg+xml</dc:format>
    <dc:creator>
     <cc:Agent>
      <dc:title>Matplotlib v3.5.1, https://matplotlib.org/</dc:title>
     </cc:Agent>
    </dc:creator>
   </cc:Work>
  </rdf:RDF>
 </metadata>
 <defs>
  <style type="text/css">*{stroke-linejoin: round; stroke-linecap: butt}</style>
 </defs>
 <g id="figure_1">
  <g id="patch_1">
   <path d="M 0 360 
L 360 360 
L 360 0 
L 0 0 
z
" style="fill: #ffffff"/>
  </g>
  <g id="axes_1">
   <g id="patch_2">
    <path d="M 45 320.4 
L 324 320.4 
L 324 43.2 
L 45 43.2 
z
" style="fill: #ffffff"/>
   </g>
   <g id="PathCollection_1">
    <defs>
     <path id="m14ea02f4fe" d="M 0 0.5 
C 0.132602 0.5 0.25979 0.447317 0.353553 0.353553 
C 0.447317 0.25979 0.5 0.132602 0.5 0 
C 0.5 -0.132602 0.447317 -0.25979 0.353553 -0.353553 
C 0.25979 -0.447317 0.132602 -0.5 0 -0.5 
C -0.132602 -0.5 -0.25979 -0.447317 -0.353553 -0.353553 
C -0.447317 -0.25979 -0.5 -0.132602 -0.5 0 
C -0.5 0.132602 -0.447317 0.25979 -0.353553 0.353553 
C -0.25979 0.447317 -0.132602 0.5 0 0.5 
z
" style="stroke: #ff0000"/>
    </defs>
    <g clip-path="url(#pcd21f6a0ca)">
     <use xlink:href="#m14ea02f4fe" x="203.472564" y="181.568614" style="fill: #ff0000; stroke: #ff0000"/>
     <use xlink:href="#m14ea02f4fe" x="203.349914" y="179.746827" style="fill: #ff0000; stroke: #ff0000"/>
     <use xlink:href="#m14ea02f4fe" x="203.895015" y="177.781621" style="fill: #ff0000; stroke: #ff0000"/>
     <use xlink:href="#m14ea02f4fe" x="204.849783" y="175.505591" style="fill: #ff0000; stroke: #ff0000"/>
     <use xlink:href="#m14ea02f4fe" x="205.901537" y="172.856843" style="fill: #ff0000; stroke: #ff0000"/>
     <use xlink:href="#m14ea02f4fe" x="206.761389" y="169.8701" style="fill: #ff0000; stroke: #ff0000"/>
     <use xlink:href="#m14ea02f4fe" x="207.207241" y="166.648615" style="fill: #ff0000; stroke: #ff0000"/>
     <use xlink:href="#m14ea02f4fe" x="207.092163" y="163.337217" style="fill: #ff0000; stroke: #ff0000"/>
     <use xlink:href="#m14ea02f4fe" x="206.334699" y="160.10617" style="fill: #ff0000; stroke: #ff0000"/>
     <use xlink:href="#m14ea02f4fe" x="204.911194" y="157.139905" style="fill: #ff0000; stroke: #ff0000"/>
     <use xlink:href="#m14ea02f4fe" x="202.859391" y="154.615407" style="fill: #ff0000; stroke: #ff0000"/>
     <use xlink:href="#m14ea02f4fe" x="200.283854" y="152.662505" style="fill: #ff0000; stroke: #ff0000"/>
     <use xlink:href="#m14ea02f4fe" x="197.344109" y="151.318861" style="fill: #ff0000; stroke: #ff0000"/>
     <use xlink:href="#m14ea02f4fe" x="194.216663" y="150.506502" style="fill: #ff0000; stroke: #ff0000"/>
     <use xlink:href="#m14ea02f4fe" x="191.0433" y="150.048707" style="fill: #ff0000; stroke: #ff0000"/>
     <use xlink:href="#m14ea02f4fe" x="187.889844" y="149.722295" style="fill: #ff0000; stroke: #ff0000"/>
     <use xlink:href="#m14ea02f4fe" x="184.732888" y="149.32191" style="fill: #ff0000; stroke: #ff0000"/>
     <use xlink:href="#m14ea02f4fe" x="181.475825" y="148.712447" style="fill: #ff0000; stroke: #ff0000"/>
     <use xlink:href="#m14ea02f4fe" x="177.983742" y="147.857271" style="fill: #ff0000; stroke: #ff0000"/>
     <use xlink:href="#m14ea02f4fe" x="174.123908" y="146.821125" style="fill: #ff0000; stroke: #ff0000"/>
     <use xlink:href="#m14ea02f4fe" x="169.801195" y="145.752889" style="fill: #ff0000; stroke: #ff0000"/>
     <use xlink:href="#m14ea02f4fe" x="164.98259" y="144.856795" style="fill: #ff0000; stroke: #ff0000"/>
     <use xlink:href="#m14ea02f4fe" x="159.71093" y="144.362207" style="fill: #ff0000; stroke: #ff0000"/>
     <use xlink:href="#m14ea02f4fe" x="154.112542" y="144.49833" style="fill: #ff0000; stroke: #ff0000"/>
     <use xlink:href="#m14ea02f4fe" x="148.401722" y="145.471842" style="fill: #ff0000; stroke: #ff0000"/>
     <use xlink:href="#m14ea02f4fe" x="142.877102" y="147.440072" style="fill: #ff0000; stroke: #ff0000"/>
     <use xlink:href="#m14ea02f4fe" x="137.899295" y="150.4773" style="fill: #ff0000; stroke: #ff0000"/>
     <use xlink:href="#m14ea02f4fe" x="133.844626" y="154.543758" style="fill: #ff0000; stroke: #ff0000"/>
     <use xlink:href="#m14ea02f4fe" x="131.043706" y="159.473303" style="fill: #ff0000; stroke: #ff0000"/>
     <use xlink:href="#m14ea02f4fe" x="129.723128" y="164.989244" style="fill: #ff0000; stroke: #ff0000"/>
     <use xlink:href="#m14ea02f4fe" x="129.96457" y="170.744803" style="fill: #ff0000; stroke: #ff0000"/>
     <use xlink:href="#m14ea02f4fe" x="131.685094" y="176.377571" style="fill: #ff0000; stroke: #ff0000"/>
     <use xlink:href="#m14ea02f4fe" x="134.638845" y="181.568614" style="fill: #ff0000; stroke: #ff0000"/>
     <use xlink:href="#m14ea02f4fe" x="138.445677" y="186.098094" style="fill: #ff0000; stroke: #ff0000"/>
     <use xlink:href="#m14ea02f4fe" x="142.652882" y="189.884847" style="fill: #ff0000; stroke: #ff0000"/>
     <use xlink:href="#m14ea02f4fe" x="146.822603" y="192.99438" style="fill: #ff0000; stroke: #ff0000"/>
     <use xlink:href="#m14ea02f4fe" x="150.618972" y="195.607897" style="fill: #ff0000; stroke: #ff0000"/>
     <use xlink:href="#m14ea02f4fe" x="153.863358" y="197.96227" style="fill: #ff0000; stroke: #ff0000"/>
     <use xlink:href="#m14ea02f4fe" x="156.540033" y="200.284943" style="fill: #ff0000; stroke: #ff0000"/>
     <use xlink:href="#m14ea02f4fe" x="158.75869" y="202.747562" style="fill: #ff0000; stroke: #ff0000"/>
     <use xlink:href="#m14ea02f4fe" x="160.699373" y="205.447074" style="fill: #ff0000; stroke: #ff0000"/>
     <use xlink:href="#m14ea02f4fe" x="162.567231" y="208.403295" style="fill: #ff0000; stroke: #ff0000"/>
     <use xlink:href="#m14ea02f4fe" x="164.566796" y="211.55459" style="fill: #ff0000; stroke: #ff0000"/>
     <use xlink:href="#m14ea02f4fe" x="166.883059" y="214.747846" style="fill: #ff0000; stroke: #ff0000"/>
     <use xlink:href="#m14ea02f4fe" x="169.651993" y="217.742221" style="fill: #ff0000; stroke: #ff0000"/>
     <use xlink:href="#m14ea02f4fe" x="172.922659" y="220.250539" style="fill: #ff0000; stroke: #ff0000"/>
     <use xlink:href="#m14ea02f4fe" x="176.635116" y="222.016216" style="fill: #ff0000; stroke: #ff0000"/>
     <use xlink:href="#m14ea02f4fe" x="180.63661" y="222.890502" style="fill: #ff0000; stroke: #ff0000"/>
     <use xlink:href="#m14ea02f4fe" x="184.732888" y="222.868347" style="fill: #ff0000; stroke: #ff0000"/>
     <use xlink:href="#m14ea02f4fe" x="188.747677" y="222.068465" style="fill: #ff0000; stroke: #ff0000"/>
     <use xlink:href="#m14ea02f4fe" x="192.562534" y="220.67695" style="fill: #ff0000; stroke: #ff0000"/>
     <use xlink:href="#m14ea02f4fe" x="196.126321" y="218.885412" style="fill: #ff0000; stroke: #ff0000"/>
     <use xlink:href="#m14ea02f4fe" x="199.438716" y="216.842571" style="fill: #ff0000; stroke: #ff0000"/>
     <use xlink:href="#m14ea02f4fe" x="202.515936" y="214.623714" style="fill: #ff0000; stroke: #ff0000"/>
     <use xlink:href="#m14ea02f4fe" x="205.346837" y="212.22053" style="fill: #ff0000; stroke: #ff0000"/>
     <use xlink:href="#m14ea02f4fe" x="207.852986" y="209.558781" style="fill: #ff0000; stroke: #ff0000"/>
     <use xlink:href="#m14ea02f4fe" x="209.874187" y="206.547712" style="fill: #ff0000; stroke: #ff0000"/>
     <use xlink:href="#m14ea02f4fe" x="211.198564" y="203.148306" style="fill: #ff0000; stroke: #ff0000"/>
     <use xlink:href="#m14ea02f4fe" x="211.637854" y="199.429955" style="fill: #ff0000; stroke: #ff0000"/>
     <use xlink:href="#m14ea02f4fe" x="211.122171" y="195.582977" style="fill: #ff0000; stroke: #ff0000"/>
     <use xlink:href="#m14ea02f4fe" x="209.771024" y="191.872839" style="fill: #ff0000; stroke: #ff0000"/>
     <use xlink:href="#m14ea02f4fe" x="207.900818" y="188.551188" style="fill: #ff0000; stroke: #ff0000"/>
     <use xlink:href="#m14ea02f4fe" x="205.954337" y="185.762589" style="fill: #ff0000; stroke: #ff0000"/>
     <use xlink:href="#m14ea02f4fe" x="204.374309" y="183.490645" style="fill: #ff0000; stroke: #ff0000"/>
    </g>
   </g>
   <g id="matplotlib.axis_1">
    <g id="xtick_1">
     <g id="line2d_1">
      <defs>
       <path id="m93fb5e062e" d="M 0 0 
L 0 3.5 
" style="stroke: #000000; stroke-width: 0.8"/>
      </defs>
      <g>
       <use xlink:href="#m93fb5e062e" x="45" y="320.4" style="stroke: #000000; stroke-width: 0.8"/>
      </g>
     </g>
     <g id="text_1">
      <!-- −3 -->
      <g transform="translate(37.628906 334.998438)scale(0.1 -0.1)">
       <defs>
        <path id="DejaVuSans-2212" d="M 678 2272 
L 4684 2272 
L 4684 1741 
L 678 1741 
L 678 2272 
z
" transform="scale(0.015625)"/>
        <path id="DejaVuSans-33" d="M 2597 2516 
Q 3050 2419 3304 2112 
Q 3559 1806 3559 1356 
Q 3559 666 3084 287 
Q 2609 -91 1734 -91 
Q 1441 -91 1130 -33 
Q 819 25 488 141 
L 488 750 
Q 750 597 1062 519 
Q 1375 441 1716 441 
Q 2309 441 2620 675 
Q 2931 909 2931 1356 
Q 2931 1769 2642 2001 
Q 2353 2234 1838 2234 
L 1294 2234 
L 1294 2753 
L 1863 2753 
Q 2328 2753 2575 2939 
Q 2822 3125 2822 3475 
Q 2822 3834 2567 4026 
Q 2313 4219 1838 4219 
Q 1578 4219 1281 4162 
Q 984 4106 628 3988 
L 628 4550 
Q 988 4650 1302 4700 
Q 1616 4750 1894 4750 
Q 2613 4750 3031 4423 
Q 3450 4097 3450 3541 
Q 3450 3153 3228 2886 
Q 3006 2619 2597 2516 
z
" transform="scale(0.015625)"/>
       </defs>
       <use xlink:href="#DejaVuSans-2212"/>
       <use xlink:href="#DejaVuSans-33" x="83.789062"/>
      </g>
     </g>
    </g>
    <g id="xtick_2">
     <g id="line2d_2">
      <g>
       <use xlink:href="#m93fb5e062e" x="91.577629" y="320.4" style="stroke: #000000; stroke-width: 0.8"/>
      </g>
     </g>
     <g id="text_2">
      <!-- −2 -->
      <g transform="translate(84.206536 334.998438)scale(0.1 -0.1)">
       <defs>
        <path id="DejaVuSans-32" d="M 1228 531 
L 3431 531 
L 3431 0 
L 469 0 
L 469 531 
Q 828 903 1448 1529 
Q 2069 2156 2228 2338 
Q 2531 2678 2651 2914 
Q 2772 3150 2772 3378 
Q 2772 3750 2511 3984 
Q 2250 4219 1831 4219 
Q 1534 4219 1204 4116 
Q 875 4013 500 3803 
L 500 4441 
Q 881 4594 1212 4672 
Q 1544 4750 1819 4750 
Q 2544 4750 2975 4387 
Q 3406 4025 3406 3419 
Q 3406 3131 3298 2873 
Q 3191 2616 2906 2266 
Q 2828 2175 2409 1742 
Q 1991 1309 1228 531 
z
" transform="scale(0.015625)"/>
       </defs>
       <use xlink:href="#DejaVuSans-2212"/>
       <use xlink:href="#DejaVuSans-32" x="83.789062"/>
      </g>
     </g>
    </g>
    <g id="xtick_3">
     <g id="line2d_3">
      <g>
       <use xlink:href="#m93fb5e062e" x="138.155259" y="320.4" style="stroke: #000000; stroke-width: 0.8"/>
      </g>
     </g>
     <g id="text_3">
      <!-- −1 -->
      <g transform="translate(130.784165 334.998438)scale(0.1 -0.1)">
       <defs>
        <path id="DejaVuSans-31" d="M 794 531 
L 1825 531 
L 1825 4091 
L 703 3866 
L 703 4441 
L 1819 4666 
L 2450 4666 
L 2450 531 
L 3481 531 
L 3481 0 
L 794 0 
L 794 531 
z
" transform="scale(0.015625)"/>
       </defs>
       <use xlink:href="#DejaVuSans-2212"/>
       <use xlink:href="#DejaVuSans-31" x="83.789062"/>
      </g>
     </g>
    </g>
    <g id="xtick_4">
     <g id="line2d_4">
      <g>
       <use xlink:href="#m93fb5e062e" x="184.732888" y="320.4" style="stroke: #000000; stroke-width: 0.8"/>
      </g>
     </g>
     <g id="text_4">
      <!-- 0 -->
      <g transform="translate(181.551638 334.998438)scale(0.1 -0.1)">
       <defs>
        <path id="DejaVuSans-30" d="M 2034 4250 
Q 1547 4250 1301 3770 
Q 1056 3291 1056 2328 
Q 1056 1369 1301 889 
Q 1547 409 2034 409 
Q 2525 409 2770 889 
Q 3016 1369 3016 2328 
Q 3016 3291 2770 3770 
Q 2525 4250 2034 4250 
z
M 2034 4750 
Q 2819 4750 3233 4129 
Q 3647 3509 3647 2328 
Q 3647 1150 3233 529 
Q 2819 -91 2034 -91 
Q 1250 -91 836 529 
Q 422 1150 422 2328 
Q 422 3509 836 4129 
Q 1250 4750 2034 4750 
z
" transform="scale(0.015625)"/>
       </defs>
       <use xlink:href="#DejaVuSans-30"/>
      </g>
     </g>
    </g>
    <g id="xtick_5">
     <g id="line2d_5">
      <g>
       <use xlink:href="#m93fb5e062e" x="231.310518" y="320.4" style="stroke: #000000; stroke-width: 0.8"/>
      </g>
     </g>
     <g id="text_5">
      <!-- 1 -->
      <g transform="translate(228.129268 334.998438)scale(0.1 -0.1)">
       <use xlink:href="#DejaVuSans-31"/>
      </g>
     </g>
    </g>
    <g id="xtick_6">
     <g id="line2d_6">
      <g>
       <use xlink:href="#m93fb5e062e" x="277.888147" y="320.4" style="stroke: #000000; stroke-width: 0.8"/>
      </g>
     </g>
     <g id="text_6">
      <!-- 2 -->
      <g transform="translate(274.706897 334.998438)scale(0.1 -0.1)">
       <use xlink:href="#DejaVuSans-32"/>
      </g>
     </g>
    </g>
   </g>
   <g id="matplotlib.axis_2">
    <g id="ytick_1">
     <g id="line2d_7">
      <defs>
       <path id="ma12d7b4ddb" d="M 0 0 
L -3.5 0 
" style="stroke: #000000; stroke-width: 0.8"/>
      </defs>
      <g>
       <use xlink:href="#ma12d7b4ddb" x="45" y="320.4" style="stroke: #000000; stroke-width: 0.8"/>
      </g>
     </g>
     <g id="text_7">
      <!-- −3 -->
      <g transform="translate(23.257812 324.199219)scale(0.1 -0.1)">
       <use xlink:href="#DejaVuSans-2212"/>
       <use xlink:href="#DejaVuSans-33" x="83.789062"/>
      </g>
     </g>
    </g>
    <g id="ytick_2">
     <g id="line2d_8">
      <g>
       <use xlink:href="#ma12d7b4ddb" x="45" y="274.122871" style="stroke: #000000; stroke-width: 0.8"/>
      </g>
     </g>
     <g id="text_8">
      <!-- −2 -->
      <g transform="translate(23.257812 277.92209)scale(0.1 -0.1)">
       <use xlink:href="#DejaVuSans-2212"/>
       <use xlink:href="#DejaVuSans-32" x="83.789062"/>
      </g>
     </g>
    </g>
    <g id="ytick_3">
     <g id="line2d_9">
      <g>
       <use xlink:href="#ma12d7b4ddb" x="45" y="227.845743" style="stroke: #000000; stroke-width: 0.8"/>
      </g>
     </g>
     <g id="text_9">
      <!-- −1 -->
      <g transform="translate(23.257812 231.644962)scale(0.1 -0.1)">
       <use xlink:href="#DejaVuSans-2212"/>
       <use xlink:href="#DejaVuSans-31" x="83.789062"/>
      </g>
     </g>
    </g>
    <g id="ytick_4">
     <g id="line2d_10">
      <g>
       <use xlink:href="#ma12d7b4ddb" x="45" y="181.568614" style="stroke: #000000; stroke-width: 0.8"/>
      </g>
     </g>
     <g id="text_10">
      <!-- 0 -->
      <g transform="translate(31.6375 185.367833)scale(0.1 -0.1)">
       <use xlink:href="#DejaVuSans-30"/>
      </g>
     </g>
    </g>
    <g id="ytick_5">
     <g id="line2d_11">
      <g>
       <use xlink:href="#ma12d7b4ddb" x="45" y="135.291486" style="stroke: #000000; stroke-width: 0.8"/>
      </g>
     </g>
     <g id="text_11">
      <!-- 1 -->
      <g transform="translate(31.6375 139.090705)scale(0.1 -0.1)">
       <use xlink:href="#DejaVuSans-31"/>
      </g>
     </g>
    </g>
    <g id="ytick_6">
     <g id="line2d_12">
      <g>
       <use xlink:href="#ma12d7b4ddb" x="45" y="89.014357" style="stroke: #000000; stroke-width: 0.8"/>
      </g>
     </g>
     <g id="text_12">
      <!-- 2 -->
      <g transform="translate(31.6375 92.813576)scale(0.1 -0.1)">
       <use xlink:href="#DejaVuSans-32"/>
      </g>
     </g>
    </g>
   </g>
   <g id="PathCollection_2">
    <path d="M 183.801336 197.452545 
L 183.54701 197.302838 
L 183.335559 197.169564 
L 182.937561 196.840067 
L 182.869783 196.781749 
L 182.470299 196.377295 
L 182.404007 196.332171 
L 181.93823 195.928735 
L 181.924161 195.914524 
L 181.472454 195.594413 
L 181.293032 195.451753 
L 181.006678 195.242294 
L 180.660368 194.988982 
L 180.540902 194.888232 
L 180.107442 194.52621 
L 180.075125 194.497061 
L 179.609349 194.076934 
L 179.594387 194.063439 
L 179.143573 193.656808 
L 179.081333 193.600668 
L 178.677796 193.236683 
L 178.568276 193.137896 
L 178.21202 192.68189 
L 178.204033 192.675125 
L 178.035439 192.212354 
L 177.842309 191.749583 
L 177.746244 191.519396 
L 177.649179 191.286811 
L 177.429591 190.82404 
L 177.280467 190.670752 
L 177.012307 190.361269 
L 176.814691 190.152643 
L 176.53259 189.898497 
L 176.348915 189.713186 
L 176.126434 189.435726 
L 175.883139 189.062027 
L 175.831225 188.972955 
L 175.56151 188.510184 
L 175.417362 188.262855 
L 175.291799 188.047412 
L 175.022087 187.584641 
L 174.951586 187.428245 
L 174.789461 187.12187 
L 174.657645 186.659098 
L 174.518654 186.196327 
L 174.48581 186.119504 
L 174.318618 185.733556 
L 174.116138 185.270785 
L 174.020033 185.064493 
L 173.90055 184.808013 
L 173.684956 184.345242 
L 173.554257 184.064693 
L 173.469365 183.882471 
L 173.192527 183.419699 
L 173.088481 183.34228 
L 172.622705 183.105048 
L 172.353539 182.956928 
L 172.156928 182.897914 
L 171.691152 182.760464 
L 171.225376 182.626915 
L 170.787895 182.494157 
L 170.759599 182.485993 
L 170.293823 182.400951 
L 169.828047 182.325197 
L 169.36227 182.24979 
L 168.896494 182.174385 
L 168.552757 182.031386 
L 168.430718 181.970665 
L 167.964942 181.636723 
L 167.869946 181.568614 
L 167.499165 181.30278 
L 167.224482 181.105843 
L 167.033389 180.968837 
L 166.579013 180.643072 
L 166.567613 180.634898 
L 166.101836 180.300954 
L 165.933553 180.180301 
L 165.63606 179.967009 
L 165.28809 179.717529 
L 165.170284 179.628549 
L 164.704508 179.299121 
L 164.642631 179.254758 
L 164.238731 178.956809 
L 164.006246 178.791987 
L 163.772955 178.597147 
L 163.36996 178.329215 
L 163.307179 178.276795 
L 162.841402 177.897614 
L 162.794689 177.866444 
L 162.375626 177.523809 
L 162.221596 177.403673 
L 161.90985 177.028504 
L 161.797388 176.940902 
L 161.90985 176.531377 
L 161.92356 176.47813 
L 161.90985 176.467344 
L 161.444073 176.139753 
L 161.255819 176.015359 
L 160.978297 175.831971 
L 160.614332 175.552588 
L 160.512521 175.473474 
L 160.118725 175.089816 
L 160.046745 175.026479 
L 159.580968 174.696338 
L 159.483205 174.627045 
L 159.115192 174.366199 
L 158.830308 174.164274 
L 158.649416 174.036055 
L 158.183639 173.717687 
L 158.158596 173.701503 
L 157.717863 173.41668 
L 157.442504 173.238731 
L 157.252087 173.115672 
L 156.786311 172.814666 
L 156.726418 172.77596 
L 156.320534 172.513651 
L 156.010344 172.313189 
L 155.854758 172.21264 
L 155.388982 171.911626 
L 155.294269 171.850417 
L 154.923205 171.61062 
L 154.57817 171.387646 
L 154.457429 171.309619 
L 153.991653 171.008605 
L 153.861332 170.924875 
L 153.525876 170.710987 
L 153.128463 170.462104 
L 153.0601 170.387672 
L 152.949743 169.999332 
L 153.0601 169.632028 
L 153.091472 169.536561 
L 153.160742 169.07379 
L 153.175547 168.611018 
L 153.196577 168.148247 
L 153.525876 167.830587 
L 153.937173 167.685476 
L 153.991653 167.665621 
L 154.457429 167.495868 
L 154.923205 167.334492 
L 155.206954 167.222705 
L 155.388982 167.156367 
L 155.854758 166.993907 
L 156.320534 166.820683 
L 156.461857 166.759933 
L 156.786311 166.652653 
L 157.252087 166.564694 
L 157.717863 166.565012 
L 158.183639 166.677833 
L 158.417674 166.759933 
L 158.649416 166.841228 
L 159.115192 167.000209 
L 159.580968 167.136078 
L 159.877935 167.222705 
L 160.046745 167.271948 
L 160.512521 167.407831 
L 160.978297 167.551018 
L 161.240285 167.685476 
L 161.444073 167.789806 
L 161.90985 168.028804 
L 162.143145 168.148247 
L 162.375626 168.267161 
L 162.841402 168.469784 
L 163.307179 168.571512 
L 163.772955 168.558692 
L 164.238731 168.541662 
L 164.704508 168.500992 
L 165.170284 168.442687 
L 165.63606 168.384384 
L 166.101836 168.326079 
L 166.567613 168.471645 
L 166.821499 168.611018 
L 167.033389 168.727336 
L 167.499165 168.983032 
L 167.664489 169.07379 
L 167.964942 169.238726 
L 168.430718 169.494415 
L 168.507491 169.536561 
L 168.896494 169.75011 
L 169.36227 169.972949 
L 169.459839 169.999332 
L 169.828047 170.09688 
L 170.293823 170.220276 
L 170.759599 170.343677 
L 171.20661 170.462104 
L 171.225376 170.467075 
L 171.691152 170.571067 
L 172.156928 170.649022 
L 172.622705 170.726086 
L 173.088481 170.803153 
L 173.554257 170.880216 
L 173.824178 170.924875 
L 174.020033 170.957279 
L 174.48581 171.034347 
L 174.951586 171.111409 
L 175.417362 171.188472 
L 175.883139 171.265539 
L 176.132741 171.387646 
L 176.276428 171.850417 
L 176.348915 172.152292 
L 176.387549 172.313189 
L 176.498667 172.77596 
L 176.609786 173.238731 
L 176.720918 173.701503 
L 176.770737 174.164274 
L 176.70018 174.627045 
L 176.629611 175.089816 
L 176.559046 175.552588 
L 176.541638 176.015359 
L 176.565687 176.47813 
L 176.518017 176.940902 
L 176.43813 177.403673 
L 176.358233 177.866444 
L 176.348915 177.920413 
L 176.273496 178.329215 
L 175.974873 178.791987 
L 175.883139 178.854999 
L 175.455635 179.254758 
L 175.75123 179.717529 
L 175.883139 179.91151 
L 176.065923 180.180301 
L 176.348915 180.569748 
L 176.431416 180.643072 
L 176.814691 180.875132 
L 177.195708 181.105843 
L 177.280467 181.157164 
L 177.746244 181.480792 
L 177.829959 181.568614 
L 178.21202 181.940773 
L 178.294112 182.031386 
L 178.677796 182.454887 
L 178.713375 182.494157 
L 179.132636 182.956928 
L 179.143573 182.974167 
L 179.53067 183.419699 
L 179.609349 183.644223 
L 179.724988 183.882471 
L 180.075125 184.299776 
L 180.105691 184.345242 
L 180.540902 184.573033 
L 180.943256 184.808013 
L 181.006678 184.843024 
L 181.472454 185.205878 
L 181.555204 185.270785 
L 181.93823 185.571766 
L 182.144593 185.733556 
L 182.404007 185.938135 
L 182.733855 186.196327 
L 182.869783 186.302037 
L 183.335559 186.586813 
L 183.458237 186.659098 
L 183.801336 186.862255 
L 184.243424 187.12187 
L 184.267112 187.135616 
L 184.732888 187.393103 
L 185.115162 187.584641 
L 185.198664 187.624685 
L 185.664441 187.847757 
L 186.081485 188.047412 
L 186.130217 188.070858 
L 186.475726 188.510184 
L 186.595993 188.670974 
L 186.817648 188.972955 
L 187.06177 189.304826 
L 187.147751 189.435726 
L 187.433198 189.898497 
L 187.527546 190.063356 
L 187.732856 190.361269 
L 187.820634 190.82404 
L 187.783714 191.286811 
L 187.746843 191.749583 
L 187.710019 192.212354 
L 187.67324 192.675125 
L 187.636515 193.137896 
L 187.599833 193.600668 
L 187.563197 194.063439 
L 187.527546 194.514386 
L 187.526517 194.52621 
L 187.485867 194.988982 
L 187.444438 195.451753 
L 187.39119 195.914524 
L 187.304404 196.377295 
L 187.217624 196.840067 
L 187.062128 197.302838 
L 187.06177 197.303148 
L 186.595993 197.515006 
L 186.130217 197.661663 
L 185.664441 197.691755 
L 185.198664 197.641022 
L 184.732888 197.590582 
L 184.267112 197.54505 
L 183.801336 197.452545 
z
" clip-path="url(#pcd21f6a0ca)" style="fill: none; stroke-dasharray: 5.55,2.4; stroke-dashoffset: 0; stroke: #000000; stroke-width: 1.5"/>
   </g>
   <g id="PathCollection_3">
    <path d="M 181.006678 223.22861 
L 180.643373 223.21803 
L 180.540902 223.199839 
L 180.075125 223.117155 
L 179.609349 223.034469 
L 179.143573 222.951783 
L 178.677796 222.861245 
L 178.21202 222.765458 
L 178.036541 222.755259 
L 177.746244 222.703724 
L 177.280467 222.621035 
L 176.814691 222.538347 
L 176.348915 222.455658 
L 175.883139 222.371524 
L 175.429752 222.292487 
L 175.417362 222.290288 
L 174.951586 222.207599 
L 174.48581 221.991224 
L 174.257577 221.829716 
L 174.020033 221.635824 
L 173.762333 221.366945 
L 173.554257 221.149847 
L 173.318795 220.904174 
L 173.088481 220.663874 
L 172.875257 220.441402 
L 172.622705 220.177892 
L 172.431726 219.978631 
L 172.156928 219.691915 
L 171.988194 219.51586 
L 171.691152 219.205932 
L 171.54466 219.053088 
L 171.225376 218.719954 
L 171.101128 218.590317 
L 170.759599 218.233979 
L 170.657591 218.127546 
L 170.293823 217.748003 
L 170.214053 217.664775 
L 169.828047 217.226483 
L 169.806081 217.202003 
L 169.401576 216.739232 
L 169.36227 216.694264 
L 169.006096 216.276461 
L 168.896494 216.148694 
L 168.621902 215.813689 
L 168.430718 215.580444 
L 168.242584 215.350918 
L 167.964942 215.023967 
L 167.846766 214.888147 
L 167.499165 214.493033 
L 167.439643 214.425376 
L 167.033389 213.963593 
L 167.032519 213.962604 
L 166.625399 213.499833 
L 166.567613 213.434148 
L 166.218274 213.037062 
L 166.101836 212.904708 
L 165.811152 212.57429 
L 165.63606 212.375262 
L 165.40404 212.111519 
L 165.170284 211.845816 
L 164.990506 211.648748 
L 164.704508 211.333235 
L 164.568251 211.185977 
L 164.238731 210.829857 
L 164.140049 210.723205 
L 163.772955 210.326468 
L 163.711854 210.260434 
L 163.307179 209.823085 
L 163.283656 209.797663 
L 162.855463 209.334891 
L 162.841402 209.319696 
L 162.427257 208.87212 
L 162.375626 208.815713 
L 162.012487 208.409349 
L 161.90985 208.281013 
L 161.642385 207.946578 
L 161.444073 207.698609 
L 161.272289 207.483806 
L 160.978297 207.116205 
L 160.902183 207.021035 
L 160.532092 206.558264 
L 160.512521 206.533793 
L 160.161985 206.095492 
L 160.046745 205.951397 
L 159.792166 205.632721 
L 159.580968 205.367787 
L 159.430379 205.16995 
L 159.115192 204.755864 
L 159.078134 204.707179 
L 158.725891 204.244407 
L 158.649416 204.143932 
L 158.373652 203.781636 
L 158.183639 203.532007 
L 158.0214 203.318865 
L 157.732221 202.856093 
L 157.717863 202.829252 
L 157.498283 202.393322 
L 157.265178 201.930551 
L 157.252087 201.904562 
L 157.032078 201.46778 
L 156.798977 201.005008 
L 156.786311 200.979861 
L 156.565877 200.542237 
L 156.332778 200.079466 
L 156.320534 200.055158 
L 156.099682 199.616694 
L 155.854758 199.221384 
L 155.798401 199.153923 
L 155.388982 198.810396 
L 155.246867 198.691152 
L 154.923205 198.419572 
L 154.695343 198.228381 
L 154.457429 198.028757 
L 154.143812 197.765609 
L 153.991653 197.637936 
L 153.592285 197.302838 
L 153.525876 197.247118 
L 153.0601 196.856304 
L 153.040748 196.840067 
L 152.594324 196.465486 
L 152.48922 196.377295 
L 152.128548 196.074665 
L 151.937692 195.914524 
L 151.662771 195.689337 
L 151.371443 195.451753 
L 151.196995 195.310743 
L 150.778844 194.988982 
L 150.731219 194.953801 
L 150.265442 194.632714 
L 150.110946 194.52621 
L 149.799666 194.311623 
L 149.434133 194.063439 
L 149.33389 193.997206 
L 148.868114 193.693552 
L 148.72676 193.600668 
L 148.402337 193.39623 
L 147.999453 193.137896 
L 147.936561 193.090748 
L 147.470785 192.741572 
L 147.382149 192.675125 
L 147.005008 192.392392 
L 146.764849 192.212354 
L 146.539232 192.043218 
L 146.147554 191.749583 
L 146.073456 191.694032 
L 145.607679 191.344856 
L 145.530253 191.286811 
L 145.141903 190.995672 
L 144.912961 190.82404 
L 144.676127 190.646493 
L 144.295657 190.361269 
L 144.210351 190.297317 
L 143.744574 189.93591 
L 143.698611 189.898497 
L 143.278798 189.551703 
L 143.138399 189.435726 
L 142.813022 189.166947 
L 142.578184 188.972955 
L 142.347245 188.782183 
L 142.017971 188.510184 
L 141.881469 188.397425 
L 141.457756 188.047412 
L 141.415693 188.012665 
L 140.949917 187.627905 
L 140.897542 187.584641 
L 140.48414 187.221476 
L 140.388091 187.12187 
L 140.018364 186.713427 
L 139.968701 186.659098 
L 139.552588 186.206573 
L 139.543167 186.196327 
L 139.11764 185.733556 
L 139.086811 185.700029 
L 138.692109 185.270785 
L 138.621035 185.19349 
L 138.266582 184.808013 
L 138.155259 184.686948 
L 137.841049 184.345242 
L 137.689482 184.180408 
L 137.415522 183.882471 
L 137.223706 183.673869 
L 137.001764 183.419699 
L 136.75793 183.1256 
L 136.606426 182.956928 
L 136.292154 182.62345 
L 136.177809 182.494157 
L 135.826377 182.077642 
L 135.787472 182.031386 
L 135.432008 181.568614 
L 135.360601 181.474378 
L 135.081352 181.105843 
L 134.894825 180.85968 
L 134.730689 180.643072 
L 134.429048 180.244999 
L 134.380024 180.180301 
L 134.029357 179.717529 
L 133.963272 179.630318 
L 133.678695 179.254758 
L 133.497496 179.015635 
L 133.328025 178.791987 
L 133.03172 178.40094 
L 132.977371 178.329215 
L 132.626703 177.866444 
L 132.565943 177.786261 
L 132.276032 177.403673 
L 132.117407 176.940902 
L 132.100167 176.855062 
L 132.024463 176.47813 
L 131.931525 176.015359 
L 131.838579 175.552588 
L 131.721473 175.089816 
L 131.634391 174.829329 
L 131.566766 174.627045 
L 131.412392 174.164274 
L 131.265139 173.701503 
L 131.168614 173.364514 
L 131.132586 173.238731 
L 131.000043 172.77596 
L 130.867492 172.313189 
L 130.734938 171.850417 
L 130.702838 171.73835 
L 130.602386 171.387646 
L 130.46984 170.924875 
L 130.399095 170.462104 
L 130.395781 169.999332 
L 130.380861 169.536561 
L 130.355547 169.07379 
L 130.331655 168.611018 
L 130.358769 168.148247 
L 130.368032 167.685476 
L 130.377294 167.222705 
L 130.386558 166.759933 
L 130.401065 166.297162 
L 130.43913 165.834391 
L 130.415806 165.371619 
L 130.378555 164.908848 
L 130.341298 164.446077 
L 130.304042 163.983306 
L 130.267993 163.520534 
L 130.277184 163.057763 
L 130.316058 162.594992 
L 130.360069 162.13222 
L 130.419343 161.669449 
L 130.488361 161.206678 
L 130.67054 160.743907 
L 130.702838 160.683395 
L 130.917546 160.281135 
L 131.164544 159.818364 
L 131.168614 159.810738 
L 131.411551 159.355593 
L 131.634391 158.938104 
L 131.65856 158.892821 
L 131.905561 158.43005 
L 132.100167 158.065436 
L 132.152557 157.967279 
L 132.399563 157.504508 
L 132.565943 157.192791 
L 132.64657 157.041736 
L 132.908637 156.578965 
L 133.03172 156.320141 
L 133.140576 156.116194 
L 133.413894 155.653422 
L 133.497496 155.493514 
L 133.678104 155.190651 
L 133.90907 154.72788 
L 133.963272 154.635153 
L 134.205651 154.265109 
L 134.429048 153.846535 
L 134.455869 153.802337 
L 134.7217 153.339566 
L 134.894825 153.044728 
L 135.003566 152.876795 
L 135.265157 152.414023 
L 135.360601 152.251473 
L 135.536885 151.951252 
L 135.826377 151.61327 
L 135.97502 151.488481 
L 136.292154 151.262383 
L 136.724801 151.02571 
L 136.75793 151.008857 
L 137.223706 150.774971 
L 137.630172 150.562938 
L 137.689482 150.527741 
L 138.155259 150.218025 
L 138.332502 150.100167 
L 138.621035 149.908309 
L 139.028465 149.637396 
L 139.086811 149.598599 
L 139.552588 149.288881 
L 139.724413 149.174624 
L 140.018364 148.979163 
L 140.420365 148.711853 
L 140.48414 148.669447 
L 140.949917 148.359738 
L 141.140544 148.249082 
L 141.415693 148.106295 
L 141.881469 147.963201 
L 142.347245 147.824315 
L 142.457249 147.786311 
L 142.813022 147.677012 
L 143.278798 147.533915 
L 143.744574 147.399968 
L 143.963575 147.323539 
L 144.210351 147.247726 
L 144.676127 147.106413 
L 145.141903 146.976409 
L 145.469895 146.860768 
L 145.607679 146.818438 
L 146.073456 146.679907 
L 146.539232 146.553661 
L 146.976236 146.397997 
L 147.005008 146.389157 
L 147.470785 146.25407 
L 147.936561 146.131756 
L 148.402337 145.968883 
L 148.492479 145.935225 
L 148.868114 145.828914 
L 149.33389 145.710712 
L 149.799666 145.552837 
L 150.019437 145.472454 
L 150.265442 145.404457 
L 150.731219 145.290556 
L 151.196995 145.137959 
L 151.555388 145.009683 
L 151.662771 144.980636 
L 152.128548 144.860849 
L 152.594324 144.663809 
L 152.895124 144.546912 
L 153.0601 144.497786 
L 153.525876 144.354529 
L 153.991653 144.216273 
L 154.457429 144.127769 
L 154.687697 144.08414 
L 154.923205 144.049495 
L 155.388982 143.969283 
L 155.854758 143.868572 
L 156.320534 143.768054 
L 156.786311 143.644898 
L 156.871358 143.621369 
L 157.252087 143.527905 
L 157.717863 143.375077 
L 158.183639 143.2308 
L 158.422802 143.158598 
L 158.649416 143.106755 
L 159.115192 143.092798 
L 159.580968 143.097639 
L 160.046745 143.102467 
L 160.512521 143.149794 
L 160.575602 143.158598 
L 160.978297 143.233529 
L 161.444073 143.320202 
L 161.90985 143.438455 
L 162.375626 143.586788 
L 162.504938 143.621369 
L 162.841402 143.733303 
L 163.307179 143.889132 
L 163.772955 144.048975 
L 163.91472 144.08414 
L 164.238731 144.176593 
L 164.704508 144.309496 
L 165.170284 144.443632 
L 165.536558 144.546912 
L 165.63606 144.575303 
L 166.101836 144.708209 
L 166.567613 144.841114 
L 167.033389 144.965543 
L 167.211462 145.009683 
L 167.499165 145.080997 
L 167.964942 145.196457 
L 168.430718 145.311908 
L 168.896494 145.427354 
L 169.078442 145.472454 
L 169.36227 145.542808 
L 169.828047 145.658258 
L 170.293823 145.773715 
L 170.759599 145.889168 
L 170.945412 145.935225 
L 171.225376 146.004622 
L 171.691152 146.120072 
L 172.156928 146.235527 
L 172.622705 146.350978 
L 172.812389 146.397997 
L 173.088481 146.466434 
L 173.554257 146.558513 
L 174.020033 146.610936 
L 174.48581 146.705408 
L 174.951586 146.826425 
L 175.083772 146.860768 
L 175.417362 146.947437 
L 175.883139 147.068459 
L 176.348915 147.189477 
L 176.814691 147.31049 
L 176.968386 147.323539 
L 177.280467 147.348515 
L 177.746244 147.369475 
L 178.21202 147.390427 
L 178.677796 147.411393 
L 179.143573 147.43235 
L 179.609349 147.453306 
L 180.075125 147.474265 
L 180.540902 147.495222 
L 181.006678 147.516183 
L 181.472454 147.53714 
L 181.93823 147.585439 
L 182.404007 147.664192 
L 182.869783 147.754095 
L 183.036701 147.786311 
L 183.335559 147.84399 
L 183.801336 147.933895 
L 184.267112 148.023797 
L 184.732888 148.113697 
L 185.198664 148.203606 
L 185.434286 148.249082 
L 185.664441 148.293501 
L 186.130217 148.383402 
L 186.595993 148.484819 
L 187.06177 148.64984 
L 187.236803 148.711853 
L 187.527546 148.814861 
L 187.993322 148.97988 
L 188.459098 149.144902 
L 188.542989 149.174624 
L 188.924875 149.309927 
L 189.390651 149.468821 
L 189.856427 149.602809 
L 189.976661 149.637396 
L 190.322204 149.736795 
L 190.78798 149.874538 
L 191.253756 150.028012 
L 191.453047 150.100167 
L 191.719533 150.203336 
L 192.185309 150.388928 
L 192.621996 150.562938 
L 192.651085 150.57453 
L 193.116861 150.760128 
L 193.582638 150.945734 
L 193.783344 151.02571 
L 194.048414 151.131329 
L 194.51419 151.316927 
L 194.944727 151.488481 
L 194.979967 151.502523 
L 195.445743 151.68813 
L 195.911519 151.873725 
L 196.106073 151.951252 
L 196.377295 152.059332 
L 196.843072 152.251864 
L 197.208897 152.414023 
L 197.308848 152.45833 
L 197.774624 152.664801 
L 198.240401 152.87127 
L 198.252864 152.876795 
L 198.706177 153.077742 
L 199.171953 153.28421 
L 199.296828 153.339566 
L 199.63773 153.490684 
L 200.103506 153.734916 
L 200.250585 153.802337 
L 200.569282 153.939443 
L 201.035058 154.128041 
L 201.373555 154.265109 
L 201.500835 154.316648 
L 201.966611 154.505253 
L 202.432387 154.693853 
L 202.516416 154.72788 
L 202.898164 154.882464 
L 203.36394 155.071067 
L 203.659259 155.190651 
L 203.829716 155.264928 
L 204.224727 155.653422 
L 204.295492 155.736247 
L 204.620121 156.116194 
L 204.761269 156.281395 
L 205.015509 156.578965 
L 205.227045 156.826545 
L 205.387344 157.041736 
L 205.581566 157.504508 
L 205.692821 157.804901 
L 205.752959 157.967279 
L 205.874888 158.43005 
L 205.901763 158.892821 
L 205.914052 159.355593 
L 205.883291 159.818364 
L 205.852537 160.281135 
L 205.821776 160.743907 
L 205.791015 161.206678 
L 205.760259 161.669449 
L 205.729498 162.13222 
L 205.69874 162.594992 
L 205.692821 162.684065 
L 205.66799 163.057763 
L 205.637229 163.520534 
L 205.606475 163.983306 
L 205.575717 164.446077 
L 205.544964 164.908848 
L 205.514195 165.371619 
L 205.483437 165.834391 
L 205.452678 166.297162 
L 205.42192 166.759933 
L 205.391162 167.222705 
L 205.360403 167.685476 
L 205.329644 168.148247 
L 205.304125 168.611018 
L 205.290967 169.07379 
L 205.27781 169.536561 
L 205.264651 169.999332 
L 205.251493 170.462104 
L 205.238339 170.924875 
L 205.227045 171.322177 
L 205.225184 171.387646 
L 205.212022 171.850417 
L 205.198868 172.313189 
L 205.185709 172.77596 
L 205.172552 173.238731 
L 205.159397 173.701503 
L 205.146238 174.164274 
L 205.133087 174.627045 
L 205.119929 175.089816 
L 205.111557 175.552588 
L 205.10727 176.015359 
L 205.102985 176.47813 
L 205.098696 176.940902 
L 205.094415 177.403673 
L 205.090127 177.866444 
L 205.08584 178.329215 
L 205.081548 178.791987 
L 205.077266 179.254758 
L 205.072979 179.717529 
L 205.068693 180.180301 
L 205.086016 180.643072 
L 205.111624 181.105843 
L 205.21799 181.568614 
L 205.227045 181.606834 
L 205.327626 182.031386 
L 205.437264 182.494157 
L 205.546897 182.956928 
L 205.656533 183.419699 
L 205.692821 183.572878 
L 205.766166 183.882471 
L 205.888492 184.345242 
L 206.026984 184.808013 
L 206.158598 185.067974 
L 206.257416 185.270785 
L 206.507525 185.733556 
L 206.624374 185.949761 
L 206.757632 186.196327 
L 207.007738 186.659098 
L 207.09015 186.811584 
L 207.257846 187.12187 
L 207.507957 187.584641 
L 207.555927 187.6734 
L 207.758065 188.047412 
L 208.008171 188.510184 
L 208.021703 188.53522 
L 208.258282 188.972955 
L 208.487479 189.397032 
L 208.508391 189.435726 
L 208.758499 189.898497 
L 208.953255 190.244001 
L 209.020452 190.361269 
L 209.28713 190.82404 
L 209.419032 191.052936 
L 209.553801 191.286811 
L 209.820479 191.749583 
L 209.884808 191.861216 
L 210.08715 192.212354 
L 210.296505 192.675125 
L 210.350584 192.813844 
L 210.476914 193.137896 
L 210.657321 193.600668 
L 210.816361 194.008616 
L 210.836123 194.063439 
L 210.922391 194.52621 
L 210.996547 194.988982 
L 211.070698 195.451753 
L 211.144856 195.914524 
L 211.215405 196.377295 
L 211.143972 196.840067 
L 211.06323 197.302838 
L 210.98249 197.765609 
L 210.901744 198.228381 
L 210.821004 198.691152 
L 210.816361 198.717766 
L 210.74661 199.153923 
L 210.733913 199.616694 
L 210.724635 200.079466 
L 210.715352 200.542237 
L 210.706073 201.005008 
L 210.696796 201.46778 
L 210.689002 201.930551 
L 210.679284 202.393322 
L 210.549297 202.856093 
L 210.419006 203.318865 
L 210.350584 203.558139 
L 210.297706 203.781636 
L 210.195264 204.244407 
L 210.109502 204.707179 
L 210.023738 205.16995 
L 209.93589 205.632721 
L 209.884808 205.793527 
L 209.794646 206.095492 
L 209.628484 206.558264 
L 209.462327 207.021035 
L 209.419032 207.141614 
L 209.296166 207.483806 
L 209.136785 207.946578 
L 208.988497 208.409349 
L 208.953255 208.519329 
L 208.84021 208.87212 
L 208.691921 209.334891 
L 208.543626 209.797663 
L 208.487479 209.972889 
L 208.375471 210.260434 
L 208.191497 210.723205 
L 208.021703 211.00174 
L 207.912497 211.185977 
L 207.618129 211.648748 
L 207.555927 211.746537 
L 207.323768 212.111519 
L 207.09015 212.478792 
L 207.026658 212.57429 
L 206.624374 213.022257 
L 206.600767 213.037062 
L 206.158598 213.250677 
L 205.692821 213.475694 
L 205.642854 213.499833 
L 205.227045 213.717515 
L 204.886219 213.962604 
L 204.761269 214.055391 
L 204.295492 214.231926 
L 203.932362 214.425376 
L 203.829716 214.480806 
L 203.36394 214.750519 
L 203.123335 214.888147 
L 202.898164 215.011629 
L 202.432387 215.283372 
L 202.31841 215.350918 
L 201.966611 215.557919 
L 201.583869 215.813689 
L 201.500835 215.831688 
L 201.035058 216.179316 
L 200.888857 216.276461 
L 200.569282 216.468223 
L 200.103506 216.723044 
L 200.067617 216.739232 
L 199.63773 216.906165 
L 199.171953 217.143226 
L 199.041638 217.202003 
L 198.706177 217.250937 
L 198.240401 217.565683 
L 198.036583 217.664775 
L 197.774624 217.691603 
L 197.308848 218.026306 
L 197.108415 218.127546 
L 196.843072 218.161378 
L 196.377295 218.504624 
L 196.211144 218.590317 
L 195.911519 218.639121 
L 195.445743 218.984627 
L 195.304723 219.053088 
L 194.979967 219.122617 
L 194.51419 219.433721 
L 194.337604 219.51586 
L 194.048414 219.546327 
L 193.582638 219.867033 
L 193.342727 219.978631 
L 193.116861 219.993838 
L 192.651085 220.298427 
L 192.345789 220.441402 
L 192.185309 220.448983 
L 191.719533 220.72214 
L 191.292343 220.904174 
L 191.253756 220.90522 
L 190.78798 221.026148 
L 190.322204 221.280342 
L 190.097858 221.366945 
L 189.856427 221.378603 
L 189.390651 221.629145 
L 188.924875 221.819742 
L 188.899036 221.829716 
L 188.459098 221.922739 
L 187.993322 222.179337 
L 187.700201 222.292487 
L 187.527546 222.300194 
L 187.06177 222.528435 
L 186.595993 222.718734 
L 186.501376 222.755259 
L 186.130217 222.825459 
L 185.664441 223.078338 
L 185.2745 223.21803 
L 185.198664 223.21974 
L 184.732888 223.249648 
L 184.267112 223.463124 
L 183.801336 223.591186 
L 183.335559 223.651341 
L 182.869783 223.608039 
L 182.404007 223.530592 
L 181.93823 223.438018 
L 181.472454 223.311961 
L 181.006678 223.22861 
z
" clip-path="url(#pcd21f6a0ca)" style="fill: none; stroke: #000000; stroke-width: 1.5"/>
   </g>
   <g id="PathCollection_4">
    <path d="M 179.143573 246.359573 
L 179.125364 246.356594 
L 178.677796 246.283373 
L 178.21202 246.207173 
L 177.746244 246.130965 
L 177.280467 246.054766 
L 176.814691 245.978561 
L 176.348915 245.902359 
L 176.296738 245.893823 
L 175.883139 245.82616 
L 175.417362 245.749953 
L 174.951586 245.673755 
L 174.48581 245.59755 
L 174.020033 245.521352 
L 173.554257 245.44515 
L 173.468079 245.431052 
L 173.088481 245.368947 
L 172.622705 245.292741 
L 172.156928 245.216538 
L 171.691152 245.140337 
L 171.225376 245.06413 
L 170.759599 244.987926 
L 170.63951 244.96828 
L 170.293823 244.91173 
L 169.828047 244.835527 
L 169.36227 244.759322 
L 168.896494 244.676489 
L 168.430718 244.583624 
L 168.060495 244.505509 
L 167.964942 244.485348 
L 167.499165 244.387069 
L 167.033389 244.28878 
L 166.567613 244.134015 
L 166.425033 244.042738 
L 166.101836 243.835795 
L 165.70468 243.579967 
L 165.63606 243.535735 
L 165.170284 243.235499 
L 164.986754 243.117195 
L 164.704508 242.941353 
L 164.238731 242.669654 
L 164.211923 242.654424 
L 163.772955 242.405034 
L 163.397369 242.191653 
L 163.307179 242.140413 
L 162.841402 241.874005 
L 162.661149 241.728881 
L 162.375626 241.465734 
L 162.159032 241.26611 
L 161.90985 241.036449 
L 161.656913 240.803339 
L 161.444073 240.607176 
L 161.154797 240.340568 
L 160.978297 240.177904 
L 160.652675 239.877796 
L 160.512521 239.748626 
L 160.150554 239.415025 
L 160.046745 239.31935 
L 159.648437 238.952254 
L 159.580968 238.890072 
L 159.146313 238.489482 
L 159.115192 238.4608 
L 158.649416 238.03152 
L 158.644312 238.026711 
L 158.183639 237.592702 
L 158.153631 237.56394 
L 157.717863 237.146746 
L 157.670312 237.101169 
L 157.252087 236.700491 
L 157.187303 236.638397 
L 156.786311 236.254053 
L 156.704488 236.175626 
L 156.320534 235.807607 
L 156.221679 235.712855 
L 155.854758 235.361165 
L 155.738874 235.250083 
L 155.388982 234.914709 
L 155.256079 234.787312 
L 154.923205 234.468241 
L 154.773294 234.324541 
L 154.457429 234.021774 
L 154.290512 233.86177 
L 153.991653 233.575284 
L 153.807746 233.398998 
L 153.525876 233.128808 
L 153.324975 232.936227 
L 153.0601 232.682317 
L 152.83868 232.473456 
L 152.594324 232.239362 
L 152.347233 232.010684 
L 152.128548 231.808032 
L 151.847457 231.547913 
L 151.662771 231.377009 
L 151.347375 231.085142 
L 151.196995 230.945982 
L 150.847284 230.622371 
L 150.731219 230.514962 
L 150.347215 230.159599 
L 150.265442 230.083928 
L 149.847133 229.696828 
L 149.799666 229.652902 
L 149.347056 229.234057 
L 149.33389 229.221873 
L 148.868114 228.790851 
L 148.846971 228.771285 
L 148.402337 228.359815 
L 148.346901 228.308514 
L 147.936561 227.928792 
L 147.846512 227.845743 
L 147.470785 227.512831 
L 147.320624 227.382972 
L 147.005008 227.110028 
L 146.785508 226.9202 
L 146.539232 226.707219 
L 146.250417 226.457429 
L 146.073456 226.30439 
L 145.715391 225.994658 
L 145.607679 225.901504 
L 145.18042 225.531886 
L 145.141903 225.498575 
L 144.676127 225.095623 
L 144.645487 225.069115 
L 144.210351 224.692652 
L 144.110591 224.606344 
L 143.744574 224.289683 
L 143.575694 224.143573 
L 143.278798 223.886709 
L 143.040803 223.680801 
L 142.813022 223.477791 
L 142.575641 223.21803 
L 142.347245 222.931008 
L 142.207392 222.755259 
L 141.881469 222.345678 
L 141.839143 222.292487 
L 141.470894 221.829716 
L 141.415693 221.760348 
L 141.102644 221.366945 
L 140.949917 221.173626 
L 140.736984 220.904174 
L 140.48414 220.583047 
L 140.3767 220.441402 
L 140.069792 219.978631 
L 140.018364 219.898104 
L 139.773566 219.51586 
L 139.552588 219.178916 
L 139.467465 219.053088 
L 139.154397 218.590317 
L 139.086811 218.490411 
L 138.84133 218.127546 
L 138.621035 217.801914 
L 138.528258 217.664775 
L 138.215188 217.202003 
L 138.155259 217.113414 
L 137.903659 216.739232 
L 137.689482 216.385372 
L 137.619799 216.276461 
L 137.223706 215.832395 
L 137.204164 215.813689 
L 136.75793 215.386577 
L 136.720674 215.350918 
L 136.292154 214.940761 
L 136.237185 214.888147 
L 135.826377 214.494959 
L 135.753677 214.425376 
L 135.360601 214.04915 
L 135.270182 213.962604 
L 134.894825 213.603322 
L 134.786702 213.499833 
L 134.429048 213.157514 
L 134.3032 213.037062 
L 133.963272 212.710128 
L 133.821915 212.57429 
L 133.497496 212.249319 
L 133.357493 212.111519 
L 133.03172 211.785159 
L 132.891777 211.648748 
L 132.565943 211.335945 
L 132.409666 211.185977 
L 132.100167 210.888872 
L 131.927517 210.723205 
L 131.634391 210.441812 
L 131.445375 210.260434 
L 131.168614 209.998564 
L 130.945067 209.797663 
L 130.702838 209.600452 
L 130.380157 209.334891 
L 130.237062 209.217126 
L 129.817855 208.87212 
L 129.771285 208.833794 
L 129.305509 208.450464 
L 129.255551 208.409349 
L 128.839733 208.067126 
L 128.693258 207.946578 
L 128.373957 207.684666 
L 128.13006 207.483806 
L 127.90818 207.304589 
L 127.561115 207.021035 
L 127.442404 206.924949 
L 126.989385 206.558264 
L 126.976628 206.547938 
L 126.510851 206.170922 
L 126.417661 206.095492 
L 126.045075 205.793917 
L 125.845927 205.632721 
L 125.579299 205.416905 
L 125.28649 205.16995 
L 125.113523 205.011121 
L 124.804727 204.707179 
L 124.647746 204.553009 
L 124.3318 204.244407 
L 124.18197 204.098066 
L 123.857998 203.781636 
L 123.716194 203.643128 
L 123.384221 203.318865 
L 123.250417 203.188172 
L 122.910423 202.856093 
L 122.784641 202.733237 
L 122.436638 202.393322 
L 122.318865 202.27829 
L 121.96284 201.930551 
L 121.853088 201.823351 
L 121.489054 201.46778 
L 121.387312 201.368405 
L 121.01526 201.005008 
L 120.921536 200.913463 
L 120.55025 200.542237 
L 120.45576 200.441523 
L 120.126458 200.079466 
L 119.989983 199.929413 
L 119.70557 199.616694 
L 119.524207 199.417283 
L 119.284674 199.153923 
L 119.058431 198.905174 
L 118.863777 198.691152 
L 118.592654 198.393059 
L 118.442879 198.228381 
L 118.126878 197.880936 
L 118.020551 197.765609 
L 117.661102 197.401223 
L 117.560338 197.302838 
L 117.195326 196.946432 
L 117.086389 196.840067 
L 116.729549 196.49165 
L 116.61243 196.377295 
L 116.263773 196.021197 
L 116.167772 195.914524 
L 115.797997 195.46958 
L 115.783181 195.451753 
L 115.398573 194.988982 
L 115.33222 194.909142 
L 115.013976 194.52621 
L 114.866444 194.348688 
L 114.629388 194.063439 
L 114.400668 193.788232 
L 114.244784 193.600668 
L 113.934891 193.182185 
L 113.904105 193.137896 
L 113.6063 192.675125 
L 113.469115 192.45704 
L 113.315883 192.212354 
L 113.021099 191.749583 
L 113.003339 191.722166 
L 112.721326 191.286811 
L 112.537563 191.003118 
L 112.421563 190.82404 
L 112.121788 190.361269 
L 112.071786 190.284078 
L 111.822027 189.898497 
L 111.60601 189.565012 
L 111.522262 189.435726 
L 111.222495 188.972955 
L 111.140234 188.845962 
L 110.922727 188.510184 
L 110.674457 188.12692 
L 110.622955 188.047412 
L 110.323187 187.584641 
L 110.208681 187.407868 
L 110.023423 187.12187 
L 109.742905 186.666032 
L 109.738672 186.659098 
L 109.46012 186.196327 
L 109.277129 185.892315 
L 109.181566 185.733556 
L 108.903016 185.270785 
L 108.811352 185.118497 
L 108.628831 184.808013 
L 108.475308 184.345242 
L 108.345576 183.906549 
L 108.338455 183.882471 
L 108.204434 183.419699 
L 108.112379 182.956928 
L 108.021907 182.494157 
L 107.931429 182.031386 
L 107.8798 181.76732 
L 107.840949 181.568614 
L 107.750482 181.105843 
L 107.660006 180.643072 
L 107.569529 180.180301 
L 107.479053 179.717529 
L 107.414023 179.384916 
L 107.388576 179.254758 
L 107.298094 178.791987 
L 107.20763 178.329215 
L 107.117151 177.866444 
L 107.026673 177.403673 
L 106.948247 177.002512 
L 106.936202 176.940902 
L 106.845726 176.47813 
L 106.755249 176.015359 
L 106.664775 175.552588 
L 106.574303 175.089816 
L 106.48383 174.627045 
L 106.482471 174.582791 
L 106.469966 174.164274 
L 106.457747 173.701503 
L 106.445528 173.238731 
L 106.433313 172.77596 
L 106.421096 172.313189 
L 106.408879 171.850417 
L 106.396667 171.387646 
L 106.384451 170.924875 
L 106.372235 170.462104 
L 106.368431 169.999332 
L 106.406756 169.536561 
L 106.436739 169.07379 
L 106.466726 168.611018 
L 106.482471 168.367883 
L 106.496694 168.148247 
L 106.526678 167.685476 
L 106.536784 167.222705 
L 106.545728 166.759933 
L 106.554673 166.297162 
L 106.563624 165.834391 
L 106.572562 165.371619 
L 106.581513 164.908848 
L 106.590455 164.446077 
L 106.610064 163.983306 
L 106.641458 163.520534 
L 106.76887 163.057763 
L 106.937179 162.594992 
L 106.948247 162.564563 
L 107.10551 162.13222 
L 107.273826 161.669449 
L 107.414023 161.349374 
L 107.47937 161.206678 
L 107.706766 160.743907 
L 107.831835 160.281135 
L 107.8798 160.103665 
L 107.956907 159.818364 
L 108.081978 159.355593 
L 108.158962 158.892821 
L 108.152335 158.43005 
L 108.145709 157.967279 
L 108.139077 157.504508 
L 108.13246 157.041736 
L 108.125817 156.578965 
L 108.192642 156.116194 
L 108.304269 155.653422 
L 108.345576 155.494456 
L 108.424208 155.190651 
L 108.549185 154.72788 
L 108.675148 154.265109 
L 108.801124 153.802337 
L 108.811352 153.764761 
L 108.927089 153.339566 
L 109.044176 152.876795 
L 109.146592 152.414023 
L 109.245411 151.951252 
L 109.277129 151.802699 
L 109.344218 151.488481 
L 109.443035 151.02571 
L 109.541852 150.562938 
L 109.676495 150.100167 
L 109.742905 149.989757 
L 109.981996 149.637396 
L 110.208681 149.303319 
L 110.296006 149.174624 
L 110.614967 148.711853 
L 110.674457 148.636793 
L 110.983529 148.249082 
L 111.140234 147.982089 
L 111.234274 147.786311 
L 111.439669 147.323539 
L 111.60601 146.948743 
L 111.645054 146.860768 
L 111.850456 146.397997 
L 112.055856 145.935225 
L 112.071786 145.899331 
L 112.261243 145.472454 
L 112.466638 145.009683 
L 112.537563 144.849884 
L 112.672037 144.546912 
L 112.87744 144.08414 
L 113.003339 143.80049 
L 113.082841 143.621369 
L 113.321346 143.158598 
L 113.469115 142.928945 
L 113.634185 142.695826 
L 113.934891 142.27118 
L 113.961889 142.233055 
L 114.289582 141.770284 
L 114.400668 141.613409 
L 114.617278 141.307513 
L 114.866444 140.955638 
L 114.944973 140.844741 
L 115.272674 140.38197 
L 115.33222 140.297879 
L 115.600371 139.919199 
L 115.797997 139.640111 
L 115.928067 139.456427 
L 116.255767 138.993656 
L 116.263773 138.98235 
L 116.583471 138.530885 
L 116.729549 138.324591 
L 116.911163 138.068114 
L 117.195326 137.66683 
L 117.241973 137.605342 
L 117.661102 137.247395 
L 117.820015 137.142571 
L 118.126878 136.942163 
L 118.473944 136.6798 
L 118.592654 136.566449 
L 118.936861 136.217028 
L 119.058431 136.093616 
L 119.39272 135.754257 
L 119.524207 135.620775 
L 119.84857 135.291486 
L 119.989983 135.147928 
L 120.304428 134.828715 
L 120.45576 134.675086 
L 120.760274 134.365943 
L 120.921536 134.202236 
L 121.261913 133.903172 
L 121.387312 133.809079 
L 121.853088 133.497535 
L 121.93851 133.440401 
L 122.318865 133.186 
L 122.630399 132.977629 
L 122.784641 132.874462 
L 123.250417 132.562915 
L 123.322264 132.514858 
L 123.716194 132.251368 
L 124.014138 132.052087 
L 124.18197 131.939831 
L 124.647746 131.628286 
L 124.706008 131.589316 
L 125.113523 131.316745 
L 125.397887 131.126544 
L 125.579299 131.005271 
L 126.045075 130.707365 
L 126.114131 130.663773 
L 126.510851 130.413348 
L 126.847247 130.201002 
L 126.976628 130.119332 
L 127.442404 129.825319 
L 127.580368 129.73823 
L 127.90818 129.531305 
L 128.31348 129.275459 
L 128.373957 129.237283 
L 128.839733 128.943268 
L 129.046595 128.812688 
L 129.305509 128.649256 
L 129.771285 128.35523 
L 129.779702 128.349917 
L 130.237062 128.061208 
L 130.51281 127.887145 
L 130.702838 127.760193 
L 131.157658 127.424374 
L 131.168614 127.416864 
L 131.634391 127.156814 
L 131.994077 126.961603 
L 132.100167 126.904026 
L 132.565943 126.651247 
L 132.846784 126.498831 
L 133.03172 126.398465 
L 133.497496 126.205129 
L 133.963272 126.04391 
L 133.985952 126.03606 
L 134.429048 125.882693 
L 134.894825 125.721475 
L 135.322935 125.573289 
L 135.360601 125.560251 
L 135.826377 125.399038 
L 136.292154 125.237813 
L 136.659903 125.110518 
L 136.75793 125.076586 
L 137.223706 124.915374 
L 137.689482 124.754156 
L 137.996903 124.647746 
L 138.155259 124.592933 
L 138.621035 124.431711 
L 139.086811 124.270492 
L 139.333879 124.184975 
L 139.552588 124.109274 
L 140.018364 123.948055 
L 140.48414 123.786833 
L 140.670861 123.722204 
L 140.949917 123.625613 
L 141.415693 123.464394 
L 141.881469 123.303174 
L 142.007836 123.259432 
L 142.347245 123.141946 
L 142.813022 122.980728 
L 143.278798 122.819512 
L 143.344816 122.796661 
L 143.744574 122.65829 
L 144.210351 122.505009 
L 144.676127 122.385652 
L 144.884192 122.33389 
L 145.141903 122.269777 
L 145.607679 122.153902 
L 146.073456 122.038028 
L 146.539232 121.922153 
L 146.744376 121.871119 
L 147.005008 121.80628 
L 147.470785 121.690408 
L 147.936561 121.574533 
L 148.402337 121.458658 
L 148.604568 121.408347 
L 148.868114 121.342781 
L 149.33389 121.226903 
L 149.799666 121.111031 
L 150.265442 120.995153 
L 150.464747 120.945576 
L 150.731219 120.879292 
L 151.196995 120.763413 
L 151.662771 120.647535 
L 152.128548 120.57432 
L 152.594324 120.595775 
L 153.0601 120.617228 
L 153.525876 120.638685 
L 153.991653 120.660137 
L 154.457429 120.681591 
L 154.923205 120.703051 
L 155.388982 120.724499 
L 155.854758 120.745947 
L 156.320534 120.760979 
L 156.786311 120.756964 
L 157.252087 120.750446 
L 157.717863 120.743925 
L 158.183639 120.737416 
L 158.649416 120.730901 
L 159.115192 120.724384 
L 159.580968 120.717867 
L 160.046745 120.711352 
L 160.512521 120.704837 
L 160.978297 120.698322 
L 161.444073 120.691801 
L 161.90985 120.685284 
L 162.375626 120.678766 
L 162.841402 120.711861 
L 163.307179 120.795448 
L 163.772955 120.91088 
L 163.91294 120.945576 
L 164.238731 121.026324 
L 164.704508 121.141761 
L 165.170284 121.257204 
L 165.63606 121.372644 
L 165.780123 121.408347 
L 166.101836 121.488078 
L 166.567613 121.603518 
L 167.033389 121.718962 
L 167.499165 121.834391 
L 167.647343 121.871119 
L 167.964942 121.949841 
L 168.430718 122.065273 
L 168.896494 122.180717 
L 169.36227 122.296158 
L 169.514515 122.33389 
L 169.828047 122.411595 
L 170.293823 122.527032 
L 170.759599 122.638221 
L 171.225376 122.731355 
L 171.552291 122.796661 
L 171.691152 122.824211 
L 172.156928 122.916667 
L 172.622705 123.009191 
L 173.088481 123.101791 
L 173.554257 123.19447 
L 173.880559 123.259432 
L 174.020033 123.286886 
L 174.48581 123.378566 
L 174.951586 123.470249 
L 175.417362 123.561932 
L 175.883139 123.653621 
L 176.168106 123.722204 
L 176.348915 123.766134 
L 176.814691 123.91135 
L 177.280467 124.066331 
L 177.68333 124.184975 
L 177.746244 124.203095 
L 178.21202 124.336601 
L 178.677796 124.470097 
L 179.143573 124.6036 
L 179.297587 124.647746 
L 179.609349 124.73711 
L 180.075125 124.870607 
L 180.540902 125.004111 
L 180.91214 125.110518 
L 181.006678 125.137615 
L 181.472454 125.27112 
L 181.93823 125.404621 
L 182.404007 125.538129 
L 182.526681 125.573289 
L 182.869783 125.671089 
L 183.335559 125.787129 
L 183.801336 125.897845 
L 184.267112 126.008559 
L 184.382812 126.03606 
L 184.732888 126.119271 
L 185.198664 126.229993 
L 185.664441 126.370875 
L 186.130217 126.452592 
L 186.487107 126.498831 
L 186.595993 126.512713 
L 187.06177 126.560891 
L 187.527546 126.59096 
L 187.993322 126.610731 
L 188.459098 126.623995 
L 188.924875 126.632757 
L 189.390651 126.641509 
L 189.856427 126.650263 
L 190.322204 126.659023 
L 190.78798 126.667775 
L 191.253756 126.676533 
L 191.719533 126.685289 
L 192.185309 126.694045 
L 192.651085 126.702799 
L 193.116861 126.711555 
L 193.582638 126.720309 
L 194.048414 126.729066 
L 194.51419 126.737818 
L 194.979967 126.746574 
L 195.445743 126.755366 
L 195.911519 126.764232 
L 196.377295 126.773098 
L 196.843072 126.84071 
L 197.308848 126.92126 
L 197.542121 126.961603 
L 197.774624 127.001812 
L 198.240401 127.082355 
L 198.706177 127.178853 
L 199.171953 127.341911 
L 199.404492 127.424374 
L 199.63773 127.507084 
L 200.103506 127.672229 
L 200.569282 127.83741 
L 200.709558 127.887145 
L 201.035058 128.002547 
L 201.500835 128.167712 
L 201.966611 128.332863 
L 202.014704 128.349917 
L 202.432387 128.498028 
L 202.898164 128.663177 
L 203.319828 128.812688 
L 203.36394 128.828329 
L 203.829716 128.993483 
L 204.295492 129.158646 
L 204.624937 129.275459 
L 204.761269 129.323673 
L 205.227045 129.486906 
L 205.692821 129.648182 
L 205.905196 129.73823 
L 206.158598 129.847068 
L 206.624374 130.048196 
L 206.979763 130.201002 
L 207.09015 130.248463 
L 207.555927 130.448737 
L 208.021703 130.649007 
L 208.055987 130.663773 
L 208.487479 130.852191 
L 208.953255 131.058315 
L 209.107434 131.126544 
L 209.419032 131.264441 
L 209.884808 131.470584 
L 210.153104 131.589316 
L 210.350584 131.676709 
L 210.816361 131.882845 
L 211.198784 132.052087 
L 211.282137 132.088974 
L 211.747913 132.295096 
L 212.213689 132.430732 
L 212.456494 132.514858 
L 212.679466 132.597457 
L 213.145242 132.775412 
L 213.611018 132.95372 
L 213.659842 132.977629 
L 214.076795 133.234389 
L 214.310045 133.440401 
L 214.542571 133.645768 
L 214.834027 133.903172 
L 215.008347 134.057273 
L 215.343466 134.365943 
L 215.474124 134.493248 
L 215.818424 134.828715 
L 215.9399 134.947075 
L 216.293396 135.291486 
L 216.405676 135.400884 
L 216.76834 135.754257 
L 216.871452 135.854729 
L 217.243287 136.217028 
L 217.337229 136.30856 
L 217.718225 136.6798 
L 217.803005 136.762405 
L 218.193183 137.142571 
L 218.268781 137.216231 
L 218.668133 137.605342 
L 218.734558 137.670064 
L 219.143086 138.068114 
L 219.200334 138.123894 
L 219.618033 138.530885 
L 219.66611 138.577728 
L 220.092988 138.993656 
L 220.131886 139.031558 
L 220.567934 139.456427 
L 220.597663 139.485392 
L 221.020168 139.919199 
L 221.063439 139.967586 
L 221.42606 140.38197 
L 221.529215 140.499848 
L 221.831031 140.844741 
L 221.994992 141.032104 
L 222.236002 141.307513 
L 222.460768 141.564364 
L 222.640967 141.770284 
L 222.926544 142.096621 
L 223.045938 142.233055 
L 223.392321 142.628869 
L 223.450915 142.695826 
L 223.855882 143.158598 
L 223.858097 143.161129 
L 224.260845 143.621369 
L 224.323873 143.693393 
L 224.665821 144.08414 
L 224.789649 144.225641 
L 225.070789 144.546912 
L 225.255426 144.757986 
L 225.432294 145.009683 
L 225.607446 145.472454 
L 225.721202 145.773007 
L 225.7826 145.935225 
L 225.957744 146.397997 
L 226.132891 146.860768 
L 226.186978 147.003679 
L 226.308036 147.323539 
L 226.483191 147.786311 
L 226.652755 148.234324 
L 226.65834 148.249082 
L 226.833484 148.711853 
L 227.008634 149.174624 
L 227.118531 149.465004 
L 227.183776 149.637396 
L 227.358924 150.100167 
L 227.538029 150.562938 
L 227.584307 150.678229 
L 227.723788 151.02571 
L 227.90954 151.488481 
L 228.050083 151.838596 
L 228.095306 151.951252 
L 228.281055 152.414023 
L 228.466815 152.876795 
L 228.51586 152.998978 
L 228.652571 153.339566 
L 228.83833 153.802337 
L 228.981636 154.159357 
L 229.024084 154.265109 
L 229.129984 154.72788 
L 229.182478 155.190651 
L 229.234973 155.653422 
L 229.287461 156.116194 
L 229.339955 156.578965 
L 229.392453 157.041736 
L 229.444943 157.504508 
L 229.447412 157.526275 
L 229.497434 157.967279 
L 229.549929 158.43005 
L 229.602421 158.892821 
L 229.654918 159.355593 
L 229.707408 159.818364 
L 229.759905 160.281135 
L 229.812393 160.743907 
L 229.864888 161.206678 
L 229.913189 161.632494 
L 229.917381 161.669449 
L 229.969874 162.13222 
L 230.022364 162.594992 
L 230.074862 163.057763 
L 230.095804 163.520534 
L 230.103401 163.983306 
L 230.109127 164.446077 
L 230.114845 164.908848 
L 230.120568 165.371619 
L 230.12629 165.834391 
L 230.13201 166.297162 
L 230.137734 166.759933 
L 230.143452 167.222705 
L 230.149175 167.685476 
L 230.154896 168.148247 
L 230.160619 168.611018 
L 230.174089 169.07379 
L 230.196889 169.536561 
L 230.219683 169.999332 
L 230.242481 170.462104 
L 230.265276 170.924875 
L 230.288072 171.387646 
L 230.310869 171.850417 
L 230.333662 172.313189 
L 230.356462 172.77596 
L 230.378965 173.232757 
L 230.379259 173.238731 
L 230.402063 173.701503 
L 230.424851 174.164274 
L 230.447654 174.627045 
L 230.470442 175.089816 
L 230.493242 175.552588 
L 230.516041 176.015359 
L 230.581489 176.47813 
L 230.698959 176.940902 
L 230.82022 177.403673 
L 230.844741 177.497246 
L 230.941492 177.866444 
L 231.062757 178.329215 
L 231.181774 178.791987 
L 231.2688 179.254758 
L 231.310518 179.493765 
L 231.349574 179.717529 
L 231.430351 180.180301 
L 231.511118 180.643072 
L 231.591887 181.105843 
L 231.672661 181.568614 
L 231.753436 182.031386 
L 231.776294 182.162357 
L 231.834202 182.494157 
L 231.914975 182.956928 
L 231.995744 183.419699 
L 232.076517 183.882471 
L 232.176541 184.345242 
L 232.24207 184.640502 
L 232.279247 184.808013 
L 232.381955 185.270785 
L 232.48466 185.733556 
L 232.580169 186.196327 
L 232.624699 186.659098 
L 232.666125 187.12187 
L 232.70755 187.584641 
L 232.707846 187.587957 
L 232.748973 188.047412 
L 232.790393 188.510184 
L 232.905867 188.972955 
L 233.033957 189.435726 
L 233.162778 189.898497 
L 233.173623 189.937457 
L 233.291594 190.361269 
L 233.420413 190.82404 
L 233.549226 191.286811 
L 233.639399 191.610749 
L 233.678044 191.749583 
L 233.806856 192.212354 
L 233.935671 192.675125 
L 234.064481 193.137896 
L 234.105175 193.284091 
L 234.193298 193.600668 
L 234.322114 194.063439 
L 234.450924 194.52621 
L 234.570952 194.919963 
L 234.592877 194.988982 
L 234.678126 195.451753 
L 234.737074 195.914524 
L 234.796021 196.377295 
L 234.854972 196.840067 
L 234.91392 197.302838 
L 234.972871 197.765609 
L 235.031818 198.228381 
L 235.036728 198.266923 
L 235.090767 198.691152 
L 235.149722 199.153923 
L 235.208664 199.616694 
L 235.267612 200.079466 
L 235.32657 200.542237 
L 235.385518 201.005008 
L 235.321155 201.46778 
L 235.228697 201.930551 
L 235.136237 202.393322 
L 235.043777 202.856093 
L 235.036728 202.891377 
L 234.951317 203.318865 
L 234.858855 203.781636 
L 234.766393 204.244407 
L 234.673931 204.707179 
L 234.58147 205.16995 
L 234.570952 205.222594 
L 234.489013 205.632721 
L 234.396557 206.095492 
L 234.304099 206.558264 
L 234.21164 207.021035 
L 234.119181 207.483806 
L 234.105175 207.553903 
L 234.026714 207.946578 
L 233.934257 208.409349 
L 233.8418 208.87212 
L 233.749338 209.334891 
L 233.65688 209.797663 
L 233.639399 209.885157 
L 233.564421 210.260434 
L 233.471956 210.723205 
L 233.379498 211.185977 
L 233.287036 211.648748 
L 233.185815 212.111519 
L 233.173623 212.165118 
L 233.080549 212.57429 
L 232.975275 213.037062 
L 232.870008 213.499833 
L 232.754152 213.962604 
L 232.707846 214.12189 
L 232.619619 214.425376 
L 232.485075 214.888147 
L 232.350537 215.350918 
L 232.24207 215.72402 
L 232.216002 215.813689 
L 232.081462 216.276461 
L 231.948204 216.739232 
L 231.820051 217.202003 
L 231.776294 217.360551 
L 231.692333 217.664775 
L 231.564623 218.127546 
L 231.398412 218.590317 
L 231.310518 218.732466 
L 231.09848 219.053088 
L 230.844741 219.436776 
L 230.792429 219.51586 
L 230.486134 219.978631 
L 230.378965 220.140449 
L 230.178484 220.441402 
L 229.913189 220.839645 
L 229.871844 220.904174 
L 229.610063 221.366945 
L 229.447412 221.669998 
L 229.361679 221.829716 
L 229.106997 222.292487 
L 228.981636 222.516793 
L 228.848363 222.755259 
L 228.589729 223.21803 
L 228.51586 223.321162 
L 228.225521 223.680801 
L 228.050083 223.877056 
L 227.811835 224.143573 
L 227.584307 224.398094 
L 227.398145 224.606344 
L 227.118531 224.919134 
L 226.984402 225.069115 
L 226.652755 225.440142 
L 226.57069 225.531886 
L 226.186978 225.961026 
L 226.156896 225.994658 
L 225.742949 226.457429 
L 225.721202 226.481752 
L 225.329037 226.9202 
L 225.255426 227.002498 
L 224.915104 227.382972 
L 224.789649 227.52323 
L 224.501175 227.845743 
L 224.323873 228.043965 
L 224.087248 228.308514 
L 223.858097 228.564706 
L 223.673322 228.771285 
L 223.392321 229.085445 
L 223.259393 229.234057 
L 222.926544 229.606186 
L 222.814809 229.696828 
L 222.460768 229.9141 
L 222.04729 230.159599 
L 221.994992 230.190651 
L 221.529215 230.467202 
L 221.267876 230.622371 
L 221.063439 230.74375 
L 220.597663 231.020305 
L 220.48942 231.085142 
L 220.131886 231.303827 
L 219.737567 231.547913 
L 219.66611 231.592145 
L 219.200334 231.880462 
L 218.989962 232.010684 
L 218.734558 232.168782 
L 218.268781 232.457096 
L 218.242353 232.473456 
L 217.803005 232.745419 
L 217.494751 232.936227 
L 217.337229 233.039014 
L 216.871452 233.386997 
L 216.855469 233.398998 
L 216.405676 233.736725 
L 216.239142 233.86177 
L 215.9399 234.086457 
L 215.622812 234.324541 
L 215.474124 234.435916 
L 215.008347 234.785852 
L 215.00641 234.787312 
L 214.542571 235.135234 
L 214.390183 235.250083 
L 214.076795 235.494378 
L 213.802315 235.712855 
L 213.611018 235.865218 
L 213.221288 236.175626 
L 213.145242 236.236194 
L 212.679466 236.607173 
L 212.640262 236.638397 
L 212.213689 236.97815 
L 212.030593 237.101169 
L 211.747913 237.282926 
L 211.282137 237.544189 
L 211.246925 237.56394 
L 210.816361 237.80545 
L 210.421895 238.026711 
L 210.350584 238.06671 
L 209.884808 238.320984 
L 209.558676 238.489482 
L 209.419032 238.561629 
L 208.953255 238.80227 
L 208.662963 238.952254 
L 208.487479 239.04292 
L 208.021703 239.283557 
L 207.767248 239.415025 
L 207.555927 239.524207 
L 207.09015 239.764854 
L 206.871543 239.877796 
L 206.624374 240.005496 
L 206.158598 240.246136 
L 205.913241 240.340568 
L 205.692821 240.422279 
L 205.227045 240.572557 
L 204.761269 240.722842 
L 204.511765 240.803339 
L 204.295492 240.874343 
L 203.829716 241.08364 
L 203.424081 241.26611 
L 203.36394 241.292875 
L 202.898164 241.464816 
L 202.432387 241.595502 
L 201.966611 241.720306 
L 201.935447 241.728881 
L 201.500835 241.850703 
L 201.035058 241.979123 
L 200.569282 242.107084 
L 200.265228 242.191653 
L 200.103506 242.237023 
L 199.63773 242.36618 
L 199.171953 242.495726 
L 198.706177 242.625251 
L 198.601377 242.654424 
L 198.240401 242.754829 
L 197.774624 242.884375 
L 197.308848 243.013878 
L 196.937561 243.117195 
L 196.843072 243.143475 
L 196.377295 243.273025 
L 195.911519 243.402542 
L 195.445743 243.532037 
L 195.273736 243.579967 
L 194.979967 243.661676 
L 194.51419 243.791223 
L 194.048414 243.920585 
L 193.609924 244.042738 
L 193.582638 244.050328 
L 193.116861 244.179872 
L 192.651085 244.309193 
L 192.185309 244.438783 
L 191.946081 244.505509 
L 191.719533 244.56852 
L 191.253756 244.697842 
L 190.78798 244.827259 
L 190.322204 244.957128 
L 190.282199 244.96828 
L 189.856427 245.08654 
L 189.390651 245.215801 
L 188.924875 245.291602 
L 188.459098 245.351345 
L 187.993322 245.410897 
L 187.835226 245.431052 
L 187.527546 245.470151 
L 187.06177 245.52945 
L 186.595993 245.588902 
L 186.130217 245.648383 
L 185.664441 245.707755 
L 185.198664 245.767123 
L 184.732888 245.826496 
L 184.267112 245.885874 
L 184.204749 245.893823 
L 183.801336 245.945242 
L 183.335559 246.004611 
L 182.869783 246.063985 
L 182.404007 246.123352 
L 181.93823 246.182724 
L 181.472454 246.24209 
L 181.006678 246.301469 
L 180.574215 246.356594 
L 180.540902 246.360841 
L 180.075125 246.420212 
L 179.609349 246.435775 
L 179.143573 246.359573 
z
" clip-path="url(#pcd21f6a0ca)" style="fill: none; stroke: #000000; stroke-width: 1.5"/>
   </g>
   <g id="patch_3">
    <path d="M 45 320.4 
L 45 43.2 
" style="fill: none; stroke: #000000; stroke-width: 0.8; stroke-linejoin: miter; stroke-linecap: square"/>
   </g>
   <g id="patch_4">
    <path d="M 324 320.4 
L 324 43.2 
" style="fill: none; stroke: #000000; stroke-width: 0.8; stroke-linejoin: miter; stroke-linecap: square"/>
   </g>
   <g id="patch_5">
    <path d="M 45 320.4 
L 324 320.4 
" style="fill: none; stroke: #000000; stroke-width: 0.8; stroke-linejoin: miter; stroke-linecap: square"/>
   </g>
   <g id="patch_6">
    <path d="M 45 43.2 
L 324 43.2 
" style="fill: none; stroke: #000000; stroke-width: 0.8; stroke-linejoin: miter; stroke-linecap: square"/>
   </g>
  </g>
 </g>
 <defs>
  <clipPath id="pcd21f6a0ca">
   <rect x="45" y="43.2" width="279" height="277.2"/>
  </clipPath>
 </defs>
</svg>
