<?xml version="1.0" encoding="utf-8" standalone="no"?>
<!DOCTYPE svg PUBLIC "-//W3C//DTD SVG 1.1//EN"
  "http://www.w3.org/Graphics/SVG/1.1/DTD/svg11.dtd">
<svg xmlns:xlink="http://www.w3.org/1999/xlink" width="360pt" height="360pt" viewBox="0 0 360 360" xmlns="http://www.w3.org/2000/svg" version="1.1">
 <metadata>
  <rdf:RDF xmlns:dc="http://purl.org/dc/elements/1.1/" xmlns:cc="http://creativecommons.org/ns#" xmlns:rdf="http://www.w3.org/1999/02/22-rdf-syntax-ns#">
   <cc:Work>
    <dc:type rdf:resource="http://purl.org/dc/dcmitype/StillImage"/>
    <dc:date>2022-04-03T22:41:40.316486</dc:date>
    <dc:format>image/svg+xml</dc:format>
    <dc:creator>
     <cc:Agent>
      <dc:title>Matplotlib v3.5.1, https://matplotlib.org/</dc:title>
     </cc:Agent>
    </dc:creator>
   </cc:Work>
  </rdf:RDF>
 </metadata>
 <defs>
  <style type="text/css">*{stroke-linejoin: round; stroke-linecap: butt}</style>
 </defs>
 <g id="figure_1">
  <g id="patch_1">
   <path d="M 0 360 
L 360 360 
L 360 0 
L 0 0 
z
" style="fill: #ffffff"/>
  </g>
  <g id="axes_1">
   <g id="patch_2">
    <path d="M 45 320.4 
L 324 320.4 
L 324 43.2 
L 45 43.2 
z
" style="fill: #ffffff"/>
   </g>
   <g id="PathCollection_1">
    <defs>
     <path id="me12723d4c8" d="M 0 0.5 
C 0.132602 0.5 0.25979 0.447317 0.353553 0.353553 
C 0.447317 0.25979 0.5 0.132602 0.5 0 
C 0.5 -0.132602 0.447317 -0.25979 0.353553 -0.353553 
C 0.25979 -0.447317 0.132602 -0.5 0 -0.5 
C -0.132602 -0.5 -0.25979 -0.447317 -0.353553 -0.353553 
C -0.447317 -0.25979 -0.5 -0.132602 -0.5 0 
C -0.5 0.132602 -0.447317 0.25979 -0.353553 0.353553 
C -0.25979 0.447317 -0.132602 0.5 0 0.5 
z
" style="stroke: #ff0000"/>
    </defs>
    <g clip-path="url(#p86617b1272)">
     <use xlink:href="#me12723d4c8" x="237.061561" y="181.568614" style="fill: #ff0000; stroke: #ff0000"/>
     <use xlink:href="#me12723d4c8" x="237.801777" y="176.375506" style="fill: #ff0000; stroke: #ff0000"/>
     <use xlink:href="#me12723d4c8" x="237.69627" y="171.101511" style="fill: #ff0000; stroke: #ff0000"/>
     <use xlink:href="#me12723d4c8" x="236.849806" y="165.861117" style="fill: #ff0000; stroke: #ff0000"/>
     <use xlink:href="#me12723d4c8" x="235.416777" y="160.710105" style="fill: #ff0000; stroke: #ff0000"/>
     <use xlink:href="#me12723d4c8" x="233.497212" y="155.671702" style="fill: #ff0000; stroke: #ff0000"/>
     <use xlink:href="#me12723d4c8" x="231.07638" y="150.802662" style="fill: #ff0000; stroke: #ff0000"/>
     <use xlink:href="#me12723d4c8" x="228.047347" y="146.250693" style="fill: #ff0000; stroke: #ff0000"/>
     <use xlink:href="#me12723d4c8" x="224.306068" y="142.250746" style="fill: #ff0000; stroke: #ff0000"/>
     <use xlink:href="#me12723d4c8" x="219.858346" y="139.044252" style="fill: #ff0000; stroke: #ff0000"/>
     <use xlink:href="#me12723d4c8" x="214.865794" y="136.762482" style="fill: #ff0000; stroke: #ff0000"/>
     <use xlink:href="#me12723d4c8" x="209.59818" y="135.349052" style="fill: #ff0000; stroke: #ff0000"/>
     <use xlink:href="#me12723d4c8" x="204.324092" y="134.576408" style="fill: #ff0000; stroke: #ff0000"/>
     <use xlink:href="#me12723d4c8" x="199.210569" y="134.150009" style="fill: #ff0000; stroke: #ff0000"/>
     <use xlink:href="#me12723d4c8" x="194.288501" y="133.839235" style="fill: #ff0000; stroke: #ff0000"/>
     <use xlink:href="#me12723d4c8" x="189.491534" y="133.564981" style="fill: #ff0000; stroke: #ff0000"/>
     <use xlink:href="#me12723d4c8" x="184.732888" y="133.409609" style="fill: #ff0000; stroke: #ff0000"/>
     <use xlink:href="#me12723d4c8" x="179.97387" y="133.561224" style="fill: #ff0000; stroke: #ff0000"/>
     <use xlink:href="#me12723d4c8" x="175.255265" y="134.228788" style="fill: #ff0000; stroke: #ff0000"/>
     <use xlink:href="#me12723d4c8" x="170.686638" y="135.563069" style="fill: #ff0000; stroke: #ff0000"/>
     <use xlink:href="#me12723d4c8" x="166.405034" y="137.606727" style="fill: #ff0000; stroke: #ff0000"/>
     <use xlink:href="#me12723d4c8" x="162.52369" y="140.286194" style="fill: #ff0000; stroke: #ff0000"/>
     <use xlink:href="#me12723d4c8" x="159.094904" y="143.446207" style="fill: #ff0000; stroke: #ff0000"/>
     <use xlink:href="#me12723d4c8" x="156.105721" y="146.911357" style="fill: #ff0000; stroke: #ff0000"/>
     <use xlink:href="#me12723d4c8" x="153.508086" y="150.545262" style="fill: #ff0000; stroke: #ff0000"/>
     <use xlink:href="#me12723d4c8" x="151.264439" y="154.278973" style="fill: #ff0000; stroke: #ff0000"/>
     <use xlink:href="#me12723d4c8" x="149.379515" y="158.098648" style="fill: #ff0000; stroke: #ff0000"/>
     <use xlink:href="#me12723d4c8" x="147.898189" y="162.00708" style="fill: #ff0000; stroke: #ff0000"/>
     <use xlink:href="#me12723d4c8" x="146.871881" y="165.987249" style="fill: #ff0000; stroke: #ff0000"/>
     <use xlink:href="#me12723d4c8" x="146.31654" y="169.990326" style="fill: #ff0000; stroke: #ff0000"/>
     <use xlink:href="#me12723d4c8" x="146.190204" y="173.95146" style="fill: #ff0000; stroke: #ff0000"/>
     <use xlink:href="#me12723d4c8" x="146.406294" y="177.818128" style="fill: #ff0000; stroke: #ff0000"/>
     <use xlink:href="#me12723d4c8" x="146.877788" y="181.568614" style="fill: #ff0000; stroke: #ff0000"/>
     <use xlink:href="#me12723d4c8" x="147.567819" y="185.205438" style="fill: #ff0000; stroke: #ff0000"/>
     <use xlink:href="#me12723d4c8" x="148.514284" y="188.726463" style="fill: #ff0000; stroke: #ff0000"/>
     <use xlink:href="#me12723d4c8" x="149.807627" y="192.094725" style="fill: #ff0000; stroke: #ff0000"/>
     <use xlink:href="#me12723d4c8" x="151.529106" y="195.233339" style="fill: #ff0000; stroke: #ff0000"/>
     <use xlink:href="#me12723d4c8" x="153.684093" y="198.057471" style="fill: #ff0000; stroke: #ff0000"/>
     <use xlink:href="#me12723d4c8" x="156.17062" y="200.530185" style="fill: #ff0000; stroke: #ff0000"/>
     <use xlink:href="#me12723d4c8" x="158.803441" y="202.711073" style="fill: #ff0000; stroke: #ff0000"/>
     <use xlink:href="#me12723d4c8" x="161.383795" y="204.767069" style="fill: #ff0000; stroke: #ff0000"/>
     <use xlink:href="#me12723d4c8" x="163.783569" y="206.930745" style="fill: #ff0000; stroke: #ff0000"/>
     <use xlink:href="#me12723d4c8" x="166.006526" y="209.413783" style="fill: #ff0000; stroke: #ff0000"/>
     <use xlink:href="#me12723d4c8" x="168.197085" y="212.305337" style="fill: #ff0000; stroke: #ff0000"/>
     <use xlink:href="#me12723d4c8" x="170.586911" y="215.499692" style="fill: #ff0000; stroke: #ff0000"/>
     <use xlink:href="#me12723d4c8" x="173.397754" y="218.694466" style="fill: #ff0000; stroke: #ff0000"/>
     <use xlink:href="#me12723d4c8" x="176.743714" y="221.47378" style="fill: #ff0000; stroke: #ff0000"/>
     <use xlink:href="#me12723d4c8" x="180.581197" y="223.449492" style="fill: #ff0000; stroke: #ff0000"/>
     <use xlink:href="#me12723d4c8" x="184.732888" y="224.400248" style="fill: #ff0000; stroke: #ff0000"/>
     <use xlink:href="#me12723d4c8" x="188.973222" y="224.343689" style="fill: #ff0000; stroke: #ff0000"/>
     <use xlink:href="#me12723d4c8" x="193.129073" y="223.506759" style="fill: #ff0000; stroke: #ff0000"/>
     <use xlink:href="#me12723d4c8" x="197.140985" y="222.20873" style="fill: #ff0000; stroke: #ff0000"/>
     <use xlink:href="#me12723d4c8" x="201.053199" y="220.715132" style="fill: #ff0000; stroke: #ff0000"/>
     <use xlink:href="#me12723d4c8" x="204.942724" y="219.134624" style="fill: #ff0000; stroke: #ff0000"/>
     <use xlink:href="#me12723d4c8" x="208.834615" y="217.406683" style="fill: #ff0000; stroke: #ff0000"/>
     <use xlink:href="#me12723d4c8" x="212.659945" y="215.378288" style="fill: #ff0000; stroke: #ff0000"/>
     <use xlink:href="#me12723d4c8" x="216.28676" y="212.918913" style="fill: #ff0000; stroke: #ff0000"/>
     <use xlink:href="#me12723d4c8" x="219.605194" y="210.002938" style="fill: #ff0000; stroke: #ff0000"/>
     <use xlink:href="#me12723d4c8" x="222.606155" y="206.711457" style="fill: #ff0000; stroke: #ff0000"/>
     <use xlink:href="#me12723d4c8" x="225.390853" y="203.160542" style="fill: #ff0000; stroke: #ff0000"/>
     <use xlink:href="#me12723d4c8" x="228.094403" y="199.413665" style="fill: #ff0000; stroke: #ff0000"/>
     <use xlink:href="#me12723d4c8" x="230.770972" y="195.444014" style="fill: #ff0000; stroke: #ff0000"/>
     <use xlink:href="#me12723d4c8" x="233.32008" y="191.170855" style="fill: #ff0000; stroke: #ff0000"/>
     <use xlink:href="#me12723d4c8" x="235.506508" y="186.537116" style="fill: #ff0000; stroke: #ff0000"/>
    </g>
   </g>
   <g id="matplotlib.axis_1">
    <g id="xtick_1">
     <g id="line2d_1">
      <defs>
       <path id="mc16ef86a2a" d="M 0 0 
L 0 3.5 
" style="stroke: #000000; stroke-width: 0.8"/>
      </defs>
      <g>
       <use xlink:href="#mc16ef86a2a" x="45" y="320.4" style="stroke: #000000; stroke-width: 0.8"/>
      </g>
     </g>
     <g id="text_1">
      <!-- −3 -->
      <g transform="translate(37.628906 334.998438)scale(0.1 -0.1)">
       <defs>
        <path id="DejaVuSans-2212" d="M 678 2272 
L 4684 2272 
L 4684 1741 
L 678 1741 
L 678 2272 
z
" transform="scale(0.015625)"/>
        <path id="DejaVuSans-33" d="M 2597 2516 
Q 3050 2419 3304 2112 
Q 3559 1806 3559 1356 
Q 3559 666 3084 287 
Q 2609 -91 1734 -91 
Q 1441 -91 1130 -33 
Q 819 25 488 141 
L 488 750 
Q 750 597 1062 519 
Q 1375 441 1716 441 
Q 2309 441 2620 675 
Q 2931 909 2931 1356 
Q 2931 1769 2642 2001 
Q 2353 2234 1838 2234 
L 1294 2234 
L 1294 2753 
L 1863 2753 
Q 2328 2753 2575 2939 
Q 2822 3125 2822 3475 
Q 2822 3834 2567 4026 
Q 2313 4219 1838 4219 
Q 1578 4219 1281 4162 
Q 984 4106 628 3988 
L 628 4550 
Q 988 4650 1302 4700 
Q 1616 4750 1894 4750 
Q 2613 4750 3031 4423 
Q 3450 4097 3450 3541 
Q 3450 3153 3228 2886 
Q 3006 2619 2597 2516 
z
" transform="scale(0.015625)"/>
       </defs>
       <use xlink:href="#DejaVuSans-2212"/>
       <use xlink:href="#DejaVuSans-33" x="83.789062"/>
      </g>
     </g>
    </g>
    <g id="xtick_2">
     <g id="line2d_2">
      <g>
       <use xlink:href="#mc16ef86a2a" x="91.577629" y="320.4" style="stroke: #000000; stroke-width: 0.8"/>
      </g>
     </g>
     <g id="text_2">
      <!-- −2 -->
      <g transform="translate(84.206536 334.998438)scale(0.1 -0.1)">
       <defs>
        <path id="DejaVuSans-32" d="M 1228 531 
L 3431 531 
L 3431 0 
L 469 0 
L 469 531 
Q 828 903 1448 1529 
Q 2069 2156 2228 2338 
Q 2531 2678 2651 2914 
Q 2772 3150 2772 3378 
Q 2772 3750 2511 3984 
Q 2250 4219 1831 4219 
Q 1534 4219 1204 4116 
Q 875 4013 500 3803 
L 500 4441 
Q 881 4594 1212 4672 
Q 1544 4750 1819 4750 
Q 2544 4750 2975 4387 
Q 3406 4025 3406 3419 
Q 3406 3131 3298 2873 
Q 3191 2616 2906 2266 
Q 2828 2175 2409 1742 
Q 1991 1309 1228 531 
z
" transform="scale(0.015625)"/>
       </defs>
       <use xlink:href="#DejaVuSans-2212"/>
       <use xlink:href="#DejaVuSans-32" x="83.789062"/>
      </g>
     </g>
    </g>
    <g id="xtick_3">
     <g id="line2d_3">
      <g>
       <use xlink:href="#mc16ef86a2a" x="138.155259" y="320.4" style="stroke: #000000; stroke-width: 0.8"/>
      </g>
     </g>
     <g id="text_3">
      <!-- −1 -->
      <g transform="translate(130.784165 334.998438)scale(0.1 -0.1)">
       <defs>
        <path id="DejaVuSans-31" d="M 794 531 
L 1825 531 
L 1825 4091 
L 703 3866 
L 703 4441 
L 1819 4666 
L 2450 4666 
L 2450 531 
L 3481 531 
L 3481 0 
L 794 0 
L 794 531 
z
" transform="scale(0.015625)"/>
       </defs>
       <use xlink:href="#DejaVuSans-2212"/>
       <use xlink:href="#DejaVuSans-31" x="83.789062"/>
      </g>
     </g>
    </g>
    <g id="xtick_4">
     <g id="line2d_4">
      <g>
       <use xlink:href="#mc16ef86a2a" x="184.732888" y="320.4" style="stroke: #000000; stroke-width: 0.8"/>
      </g>
     </g>
     <g id="text_4">
      <!-- 0 -->
      <g transform="translate(181.551638 334.998438)scale(0.1 -0.1)">
       <defs>
        <path id="DejaVuSans-30" d="M 2034 4250 
Q 1547 4250 1301 3770 
Q 1056 3291 1056 2328 
Q 1056 1369 1301 889 
Q 1547 409 2034 409 
Q 2525 409 2770 889 
Q 3016 1369 3016 2328 
Q 3016 3291 2770 3770 
Q 2525 4250 2034 4250 
z
M 2034 4750 
Q 2819 4750 3233 4129 
Q 3647 3509 3647 2328 
Q 3647 1150 3233 529 
Q 2819 -91 2034 -91 
Q 1250 -91 836 529 
Q 422 1150 422 2328 
Q 422 3509 836 4129 
Q 1250 4750 2034 4750 
z
" transform="scale(0.015625)"/>
       </defs>
       <use xlink:href="#DejaVuSans-30"/>
      </g>
     </g>
    </g>
    <g id="xtick_5">
     <g id="line2d_5">
      <g>
       <use xlink:href="#mc16ef86a2a" x="231.310518" y="320.4" style="stroke: #000000; stroke-width: 0.8"/>
      </g>
     </g>
     <g id="text_5">
      <!-- 1 -->
      <g transform="translate(228.129268 334.998438)scale(0.1 -0.1)">
       <use xlink:href="#DejaVuSans-31"/>
      </g>
     </g>
    </g>
    <g id="xtick_6">
     <g id="line2d_6">
      <g>
       <use xlink:href="#mc16ef86a2a" x="277.888147" y="320.4" style="stroke: #000000; stroke-width: 0.8"/>
      </g>
     </g>
     <g id="text_6">
      <!-- 2 -->
      <g transform="translate(274.706897 334.998438)scale(0.1 -0.1)">
       <use xlink:href="#DejaVuSans-32"/>
      </g>
     </g>
    </g>
   </g>
   <g id="matplotlib.axis_2">
    <g id="ytick_1">
     <g id="line2d_7">
      <defs>
       <path id="m0efc700cd0" d="M 0 0 
L -3.5 0 
" style="stroke: #000000; stroke-width: 0.8"/>
      </defs>
      <g>
       <use xlink:href="#m0efc700cd0" x="45" y="320.4" style="stroke: #000000; stroke-width: 0.8"/>
      </g>
     </g>
     <g id="text_7">
      <!-- −3 -->
      <g transform="translate(23.257812 324.199219)scale(0.1 -0.1)">
       <use xlink:href="#DejaVuSans-2212"/>
       <use xlink:href="#DejaVuSans-33" x="83.789062"/>
      </g>
     </g>
    </g>
    <g id="ytick_2">
     <g id="line2d_8">
      <g>
       <use xlink:href="#m0efc700cd0" x="45" y="274.122871" style="stroke: #000000; stroke-width: 0.8"/>
      </g>
     </g>
     <g id="text_8">
      <!-- −2 -->
      <g transform="translate(23.257812 277.92209)scale(0.1 -0.1)">
       <use xlink:href="#DejaVuSans-2212"/>
       <use xlink:href="#DejaVuSans-32" x="83.789062"/>
      </g>
     </g>
    </g>
    <g id="ytick_3">
     <g id="line2d_9">
      <g>
       <use xlink:href="#m0efc700cd0" x="45" y="227.845743" style="stroke: #000000; stroke-width: 0.8"/>
      </g>
     </g>
     <g id="text_9">
      <!-- −1 -->
      <g transform="translate(23.257812 231.644962)scale(0.1 -0.1)">
       <use xlink:href="#DejaVuSans-2212"/>
       <use xlink:href="#DejaVuSans-31" x="83.789062"/>
      </g>
     </g>
    </g>
    <g id="ytick_4">
     <g id="line2d_10">
      <g>
       <use xlink:href="#m0efc700cd0" x="45" y="181.568614" style="stroke: #000000; stroke-width: 0.8"/>
      </g>
     </g>
     <g id="text_10">
      <!-- 0 -->
      <g transform="translate(31.6375 185.367833)scale(0.1 -0.1)">
       <use xlink:href="#DejaVuSans-30"/>
      </g>
     </g>
    </g>
    <g id="ytick_5">
     <g id="line2d_11">
      <g>
       <use xlink:href="#m0efc700cd0" x="45" y="135.291486" style="stroke: #000000; stroke-width: 0.8"/>
      </g>
     </g>
     <g id="text_11">
      <!-- 1 -->
      <g transform="translate(31.6375 139.090705)scale(0.1 -0.1)">
       <use xlink:href="#DejaVuSans-31"/>
      </g>
     </g>
    </g>
    <g id="ytick_6">
     <g id="line2d_12">
      <g>
       <use xlink:href="#m0efc700cd0" x="45" y="89.014357" style="stroke: #000000; stroke-width: 0.8"/>
      </g>
     </g>
     <g id="text_12">
      <!-- 2 -->
      <g transform="translate(31.6375 92.813576)scale(0.1 -0.1)">
       <use xlink:href="#DejaVuSans-32"/>
      </g>
     </g>
    </g>
   </g>
   <g id="PathCollection_2">
    <path d="M 189.856427 199.719001 
L 189.701754 199.616694 
L 189.390651 199.410917 
L 189.009008 199.153923 
L 188.924875 199.064056 
L 188.595638 198.691152 
L 188.459098 198.536506 
L 188.187057 198.228381 
L 187.993322 198.008946 
L 187.74724 197.765609 
L 187.527546 197.574516 
L 187.192317 197.302838 
L 187.06177 197.215464 
L 186.629491 196.840067 
L 186.595993 196.810485 
L 186.170187 196.377295 
L 186.130217 196.336631 
L 185.715326 195.914524 
L 185.664441 195.862755 
L 185.260456 195.451753 
L 185.198664 195.388887 
L 184.804383 194.988982 
L 184.732888 194.918969 
L 184.267112 194.572715 
L 184.202259 194.52621 
L 183.801336 194.238721 
L 183.60907 194.063439 
L 183.335559 193.811309 
L 183.166995 193.600668 
L 182.869783 193.229258 
L 182.781684 193.137896 
L 182.404007 192.832342 
L 182.18904 192.675125 
L 181.93823 192.49271 
L 181.552753 192.212354 
L 181.472454 192.153952 
L 181.006678 191.815256 
L 180.915021 191.749583 
L 180.540902 191.48149 
L 180.269187 191.286811 
L 180.075125 191.147769 
L 179.623293 190.82404 
L 179.609349 190.814049 
L 179.143573 190.48033 
L 178.977401 190.361269 
L 178.677796 190.146605 
L 178.331507 189.898497 
L 178.21202 189.812887 
L 177.746244 189.479165 
L 177.685616 189.435726 
L 177.280467 189.145446 
L 177.045963 188.972955 
L 176.814691 188.673022 
L 176.699315 188.510184 
L 176.371422 188.047412 
L 176.348915 188.015646 
L 176.043529 187.584641 
L 175.883139 187.385419 
L 175.679462 187.12187 
L 175.417362 186.926179 
L 175.10591 186.659098 
L 174.951586 186.526764 
L 174.566246 186.196327 
L 174.48581 186.127351 
L 174.026587 185.733556 
L 174.020033 185.727936 
L 173.554257 185.328521 
L 173.486929 185.270785 
L 173.088481 184.929103 
L 172.947271 184.808013 
L 172.622705 184.529691 
L 172.407614 184.345242 
L 172.156928 184.13027 
L 171.867957 183.882471 
L 171.691152 183.730858 
L 171.328294 183.419699 
L 171.225376 183.331443 
L 170.788641 182.956928 
L 170.759599 182.932024 
L 170.293823 182.532608 
L 170.249343 182.494157 
L 169.828047 182.13249 
L 169.711604 182.031386 
L 169.36227 181.713256 
L 169.257351 181.568614 
L 169.104328 181.105843 
L 168.951303 180.643072 
L 168.896494 180.477317 
L 168.798283 180.180301 
L 168.645258 179.717529 
L 168.492233 179.254758 
L 168.430718 179.034782 
L 168.364267 178.791987 
L 168.274411 178.329215 
L 168.184553 177.866444 
L 168.142096 177.403673 
L 168.133522 176.940902 
L 168.171423 176.47813 
L 168.256572 176.015359 
L 168.344407 175.552588 
L 168.430718 175.372135 
L 168.587509 175.089816 
L 168.858077 174.627045 
L 168.896494 174.561336 
L 169.12864 174.164274 
L 169.36227 173.764673 
L 169.399203 173.701503 
L 169.669774 173.238731 
L 169.828047 172.968018 
L 169.940334 172.77596 
L 170.180321 172.313189 
L 170.20265 171.850417 
L 170.220629 171.387646 
L 170.293823 170.951837 
L 170.29787 170.924875 
L 170.417207 170.462104 
L 170.563616 169.999332 
L 170.759599 169.571155 
L 170.775453 169.536561 
L 170.987542 169.07379 
L 171.199629 168.611018 
L 171.225376 168.554838 
L 171.411709 168.148247 
L 171.623798 167.685476 
L 171.691152 167.538507 
L 171.835881 167.222705 
L 172.048914 166.759933 
L 172.156928 166.544942 
L 172.277549 166.297162 
L 172.517289 165.834391 
L 172.622705 165.630909 
L 172.757033 165.371619 
L 172.976244 164.908848 
L 173.088481 164.636762 
L 173.167139 164.446077 
L 173.359042 163.983306 
L 173.554257 163.604051 
L 173.598163 163.520534 
L 173.841451 163.057763 
L 174.020033 162.718068 
L 174.084736 162.594992 
L 174.328026 162.13222 
L 174.48581 161.832092 
L 174.571313 161.669449 
L 174.814599 161.206678 
L 174.951586 160.946108 
L 175.057889 160.743907 
L 175.301176 160.281135 
L 175.417362 160.066245 
L 175.562688 159.818364 
L 175.883139 159.372327 
L 175.896468 159.355593 
L 176.348915 158.900002 
L 176.360435 158.892821 
L 176.814691 158.609661 
L 177.102821 158.43005 
L 177.280467 158.319311 
L 177.746244 158.028955 
L 177.845184 157.967279 
L 178.21202 157.738606 
L 178.587554 157.504508 
L 178.677796 157.448252 
L 179.143573 157.090219 
L 179.609349 157.073737 
L 180.075125 157.062148 
L 180.540902 157.049278 
L 181.006678 157.069725 
L 181.472454 157.143514 
L 181.93823 157.202851 
L 182.404007 157.238428 
L 182.869783 157.274006 
L 183.335559 157.30958 
L 183.801336 157.345155 
L 184.267112 157.38024 
L 184.732888 157.399602 
L 185.198664 157.386397 
L 185.664441 157.362864 
L 186.130217 157.328114 
L 186.595993 157.281004 
L 187.06177 157.188872 
L 187.527546 157.093243 
L 187.778422 157.041736 
L 187.993322 156.997616 
L 188.459098 156.901988 
L 188.924875 156.806363 
L 189.390651 156.837403 
L 189.856427 156.870769 
L 190.322204 156.904141 
L 190.78798 156.937504 
L 191.253756 156.970872 
L 191.719533 157.004245 
L 192.185309 157.037607 
L 192.236626 157.041736 
L 192.651085 157.076434 
L 193.116861 157.126534 
L 193.582638 157.176631 
L 194.048414 157.226728 
L 194.51419 157.276828 
L 194.979967 157.326928 
L 195.445743 157.377023 
L 195.911519 157.427122 
L 196.377295 157.477222 
L 196.631001 157.504508 
L 196.843072 157.527315 
L 197.308848 157.577414 
L 197.774624 157.620583 
L 198.240401 157.645285 
L 198.706177 157.649665 
L 199.171953 157.533203 
L 199.2598 157.504508 
L 199.63773 157.370337 
L 200.103506 157.225574 
L 200.569282 157.087193 
L 200.734942 157.041736 
L 201.035058 156.961268 
L 201.500835 156.851624 
L 201.966611 157.024367 
L 202.008352 157.041736 
L 202.432387 157.211071 
L 202.898164 157.417833 
L 203.065566 157.504508 
L 203.36394 157.651268 
L 203.829716 157.900684 
L 203.957426 157.967279 
L 204.295492 158.135191 
L 204.761269 158.384749 
L 204.847821 158.43005 
L 205.227045 158.618904 
L 205.692821 158.868072 
L 205.739882 158.892821 
L 206.158598 159.102402 
L 206.624374 159.351175 
L 206.632415 159.355593 
L 207.09015 159.595704 
L 207.495478 159.818364 
L 207.555927 159.850796 
L 208.021703 160.099802 
L 208.335735 160.281135 
L 208.487479 160.387211 
L 208.8402 160.743907 
L 208.953255 160.858237 
L 209.297814 161.206678 
L 209.419032 161.329264 
L 209.755424 161.669449 
L 209.884808 161.80029 
L 210.213039 162.13222 
L 210.350584 162.271316 
L 210.670654 162.594992 
L 210.816361 162.742341 
L 211.083465 163.057763 
L 211.282137 163.501494 
L 211.289391 163.520534 
L 211.465699 163.983306 
L 211.642006 164.446077 
L 211.747913 164.724076 
L 211.818305 164.908848 
L 211.994612 165.371619 
L 212.170297 165.834391 
L 212.213689 165.998861 
L 212.283683 166.297162 
L 212.390196 166.759933 
L 212.509904 167.222705 
L 212.604219 167.685476 
L 212.628628 168.148247 
L 212.679466 168.523347 
L 212.697218 168.611018 
L 212.814176 169.07379 
L 212.935428 169.536561 
L 213.069687 169.999332 
L 213.145242 170.244303 
L 213.212418 170.462104 
L 213.355158 170.924875 
L 213.497892 171.387646 
L 213.611018 171.692794 
L 213.669233 171.850417 
L 213.752066 172.313189 
L 213.611018 172.649691 
L 213.558092 172.77596 
L 213.488194 173.238731 
L 213.43214 173.701503 
L 213.372257 174.164274 
L 213.311822 174.627045 
L 213.247689 175.089816 
L 213.159064 175.552588 
L 213.145242 175.624766 
L 213.070444 176.015359 
L 213.145242 176.442378 
L 213.152042 176.47813 
L 213.275705 176.940902 
L 213.359914 177.403673 
L 213.43973 177.866444 
L 213.519535 178.329215 
L 213.599345 178.791987 
L 213.611018 178.85967 
L 213.679161 179.254758 
L 213.672724 179.717529 
L 213.611018 179.826596 
L 213.373475 180.180301 
L 213.145242 180.54047 
L 213.077681 180.643072 
L 212.763958 181.105843 
L 212.679466 181.232287 
L 212.446775 181.568614 
L 212.213689 181.923786 
L 212.140487 182.031386 
L 211.785201 182.494157 
L 211.747913 182.538255 
L 211.378151 182.956928 
L 211.282137 183.065644 
L 210.969453 183.419699 
L 210.816361 183.593048 
L 210.586439 183.882471 
L 210.350584 184.180793 
L 210.228064 184.345242 
L 209.884808 184.794477 
L 209.874657 184.808013 
L 209.510433 185.270785 
L 209.419032 185.386791 
L 209.145815 185.733556 
L 208.953255 185.977947 
L 208.781191 186.196327 
L 208.487479 186.569104 
L 208.418656 186.659098 
L 208.051942 187.12187 
L 208.021703 187.160249 
L 207.692 187.584641 
L 207.555927 187.756674 
L 207.334712 188.047412 
L 207.09015 188.353432 
L 206.969469 188.510184 
L 206.624374 188.957414 
L 206.612403 188.972955 
L 206.259442 189.435726 
L 206.158598 189.582801 
L 205.952981 189.898497 
L 205.692821 190.311287 
L 205.664938 190.361269 
L 205.423009 190.82404 
L 205.227045 191.198887 
L 205.181079 191.286811 
L 204.94013 191.749583 
L 204.761269 192.089836 
L 204.697218 192.212354 
L 204.485999 192.675125 
L 204.295492 192.917862 
L 204.048541 193.137896 
L 203.829716 193.309668 
L 203.453097 193.600668 
L 203.36394 193.674996 
L 202.983479 194.063439 
L 202.898164 194.221431 
L 202.767557 194.52621 
L 202.562132 194.988982 
L 202.432387 195.221726 
L 202.268867 195.451753 
L 201.966611 195.773428 
L 201.807317 195.914524 
L 201.500835 196.18599 
L 201.284852 196.377295 
L 201.035058 196.598556 
L 200.762402 196.840067 
L 200.569282 196.984904 
L 200.103506 197.186093 
L 199.71143 197.302838 
L 199.63773 197.326715 
L 199.171953 197.502968 
L 198.706177 197.679294 
L 198.47818 197.765609 
L 198.240401 197.855627 
L 197.774624 198.031957 
L 197.308848 198.208284 
L 197.255762 198.228381 
L 196.843072 198.384615 
L 196.377295 198.560945 
L 196.033349 198.691152 
L 195.911519 198.737273 
L 195.445743 198.913601 
L 194.979967 199.08993 
L 194.81093 199.153923 
L 194.51419 199.266262 
L 194.048414 199.441351 
L 193.588525 199.616694 
L 193.582638 199.618923 
L 193.116861 199.747182 
L 192.651085 199.882037 
L 192.185309 199.944755 
L 191.719533 200.017658 
L 191.253756 199.99561 
L 190.78798 199.957711 
L 190.322204 199.916053 
L 189.856427 199.719001 
z
" clip-path="url(#p86617b1272)" style="fill: none; stroke-dasharray: 5.55,2.4; stroke-dashoffset: 0; stroke: #000000; stroke-width: 1.5"/>
   </g>
   <g id="PathCollection_3">
    <path d="M 185.198664 225.156727 
L 182.869783 224.595033 
L 173.554257 218.353637 
L 172.047471 217.202003 
L 170.759488 215.813689 
L 168.430718 213.33451 
L 167.600826 212.111519 
L 165.518274 208.87212 
L 155.352205 199.153923 
L 154.397171 198.228381 
L 151.662771 194.945938 
L 150.938158 193.600668 
L 149.241155 189.435726 
L 147.152355 181.568614 
L 146.670082 178.791987 
L 146.821245 173.238731 
L 146.581724 169.536561 
L 146.914274 167.222705 
L 147.518847 163.983306 
L 149.799666 156.970054 
L 150.265442 156.050778 
L 155.388982 147.317944 
L 160.98772 140.38197 
L 164.813803 137.605342 
L 165.663606 137.142571 
L 168.896494 135.540458 
L 170.293823 135.284869 
L 170.759599 135.259266 
L 171.691152 135.029446 
L 180.540902 133.296752 
L 186.130217 133.59262 
L 190.78798 133.089087 
L 193.582638 133.115875 
L 200.103506 133.209005 
L 201.187503 133.440401 
L 203.829716 134.063484 
L 208.021703 135.001344 
L 209.419032 135.257377 
L 210.40613 135.291486 
L 211.927629 135.754257 
L 215.941983 137.142571 
L 217.337229 137.899574 
L 221.281341 140.38197 
L 222.263927 141.307513 
L 229.913189 147.931608 
L 230.632539 149.174624 
L 232.467618 152.876795 
L 234.003378 156.116194 
L 237.967756 166.759933 
L 238.043009 167.685476 
L 237.907105 169.07379 
L 237.86634 169.999332 
L 237.437709 173.701503 
L 236.564723 181.105843 
L 235.703362 185.733556 
L 234.739417 187.584641 
L 233.983804 190.361269 
L 232.491771 193.137896 
L 227.230814 202.393322 
L 227.064495 202.856093 
L 226.186978 203.947147 
L 223.679191 206.558264 
L 222.460768 208.102908 
L 220.597663 209.67135 
L 218.159484 211.648748 
L 216.871452 213.063307 
L 213.611018 215.221997 
L 211.747913 216.320204 
L 210.816361 216.861789 
L 209.38825 217.664775 
L 205.35657 219.978631 
L 205.227045 220.004856 
L 200.905044 221.829716 
L 198.706177 222.785639 
L 196.377295 223.768819 
L 194.979967 224.171194 
L 186.595993 225.46615 
L 185.198664 225.156727 
L 185.198664 225.156727 
" clip-path="url(#p86617b1272)" style="fill: none; stroke: #000000; stroke-width: 1.5"/>
   </g>
   <g id="PathCollection_4">
    <path d="M 182.404007 247.802813 
L 182.07428 247.744908 
L 181.93823 247.719733 
L 181.472454 247.609605 
L 181.006678 247.499475 
L 180.540902 247.389345 
L 180.087494 247.282137 
L 180.075125 247.279212 
L 179.609349 247.169083 
L 179.143573 247.058951 
L 178.677796 246.94882 
L 178.21202 246.838692 
L 178.130292 246.819366 
L 177.746244 246.728552 
L 177.280467 246.618425 
L 176.814691 246.508295 
L 176.348915 246.398163 
L 176.173114 246.356594 
L 175.883139 246.288029 
L 175.417362 246.177899 
L 174.951586 246.067769 
L 174.48581 245.957639 
L 174.215911 245.893823 
L 174.020033 245.847509 
L 173.554257 245.737375 
L 173.088481 245.627248 
L 172.660846 245.431052 
L 172.622705 245.41089 
L 172.156928 245.138154 
L 171.866827 244.96828 
L 171.691152 244.865412 
L 171.225376 244.592677 
L 171.076507 244.505509 
L 170.759599 244.319951 
L 170.293823 244.047224 
L 170.286162 244.042738 
L 169.828047 243.774479 
L 169.49587 243.579967 
L 169.36227 243.501736 
L 168.896494 243.229011 
L 168.705538 243.117195 
L 168.430718 242.956273 
L 167.964942 242.683534 
L 167.915228 242.654424 
L 167.499165 242.4108 
L 167.124899 242.191653 
L 167.033389 242.13807 
L 166.567613 241.865335 
L 166.334579 241.728881 
L 166.101836 241.592601 
L 165.63606 241.319656 
L 165.545459 241.26611 
L 165.170284 241.042321 
L 164.779132 240.803339 
L 164.704508 240.757748 
L 164.238731 240.473191 
L 164.021657 240.340568 
L 163.772955 240.190073 
L 163.307179 239.906462 
L 163.260715 239.877796 
L 162.841402 239.619096 
L 162.510632 239.415025 
L 162.375626 239.331731 
L 161.90985 239.044363 
L 161.760555 238.952254 
L 161.444073 238.75699 
L 161.022091 238.489482 
L 160.978297 238.461475 
L 160.512521 238.162662 
L 160.303705 238.026711 
L 160.046745 237.839243 
L 159.748192 237.56394 
L 159.580968 237.409737 
L 159.246343 237.101169 
L 159.115192 236.980232 
L 158.744489 236.638397 
L 158.649416 236.55073 
L 158.242634 236.175626 
L 158.183639 236.121224 
L 157.740782 235.712855 
L 157.717863 235.691721 
L 157.252087 235.262232 
L 157.238912 235.250083 
L 156.786311 234.832728 
L 156.737059 234.787312 
L 156.320534 234.403221 
L 156.23521 234.324541 
L 155.854758 233.973707 
L 155.733364 233.86177 
L 155.388982 233.544209 
L 155.231509 233.398998 
L 154.923205 233.114705 
L 154.729653 232.936227 
L 154.457429 232.685203 
L 154.227801 232.473456 
L 153.991653 232.255693 
L 153.72595 232.010684 
L 153.525876 231.824287 
L 153.275153 231.547913 
L 153.0601 231.275958 
L 152.909211 231.085142 
L 152.594324 230.686943 
L 152.543261 230.622371 
L 152.17732 230.159599 
L 152.128548 230.097923 
L 151.811373 229.696828 
L 151.662771 229.508904 
L 151.445436 229.234057 
L 151.196995 228.919885 
L 151.079486 228.771285 
L 150.731219 228.330867 
L 150.713542 228.308514 
L 150.3476 227.845743 
L 150.265442 227.741845 
L 149.981661 227.382972 
L 149.799666 227.147891 
L 149.63428 226.9202 
L 149.33389 226.457921 
L 149.33357 226.457429 
L 149.033256 225.994658 
L 148.868114 225.74025 
L 148.732944 225.531886 
L 148.432737 225.069115 
L 148.402337 225.024459 
L 148.057626 224.606344 
L 147.936561 224.487185 
L 147.587463 224.143573 
L 147.470785 224.028728 
L 147.117304 223.680801 
L 147.005008 223.570274 
L 146.64713 223.21803 
L 146.539232 223.111828 
L 146.176965 222.755259 
L 146.073456 222.653377 
L 145.706805 222.292487 
L 145.607679 222.194924 
L 145.236633 221.829716 
L 145.141903 221.736475 
L 144.766474 221.366945 
L 144.676127 221.27802 
L 144.296297 220.904174 
L 144.210351 220.819577 
L 143.826135 220.441402 
L 143.744574 220.361126 
L 143.355977 219.978631 
L 143.278798 219.902666 
L 142.885804 219.51586 
L 142.813022 219.444222 
L 142.415651 219.053088 
L 142.347245 218.985758 
L 141.945482 218.590317 
L 141.881469 218.527311 
L 141.475319 218.127546 
L 141.415693 218.068858 
L 141.005138 217.664775 
L 140.949917 217.610421 
L 140.534972 217.202003 
L 140.48414 217.151971 
L 140.064819 216.739232 
L 140.018364 216.693508 
L 139.594649 216.276461 
L 139.552588 216.234755 
L 139.168736 215.813689 
L 139.086811 215.715462 
L 138.782773 215.350918 
L 138.621035 215.156998 
L 138.396806 214.888147 
L 138.155259 214.598529 
L 138.010841 214.425376 
L 137.689482 214.040072 
L 137.624872 213.962604 
L 137.238899 213.499833 
L 137.223706 213.481754 
L 136.831874 213.037062 
L 136.75793 212.953865 
L 136.420564 212.57429 
L 136.292154 212.429816 
L 136.00926 212.111519 
L 135.826377 211.905753 
L 135.597948 211.648748 
L 135.360601 211.381702 
L 135.186646 211.185977 
L 134.894825 210.857632 
L 134.775349 210.723205 
L 134.429048 210.333583 
L 134.364034 210.260434 
L 133.963272 209.809529 
L 133.952725 209.797663 
L 133.614226 209.334891 
L 133.497496 209.120488 
L 133.36227 208.87212 
L 133.110314 208.409349 
L 133.03172 208.264988 
L 132.858363 207.946578 
L 132.606412 207.483806 
L 132.565943 207.409474 
L 132.354465 207.021035 
L 132.102502 206.558264 
L 132.100167 206.553975 
L 131.850551 206.095492 
L 131.634391 205.698449 
L 131.598607 205.632721 
L 131.346656 205.16995 
L 131.168614 204.842925 
L 131.094708 204.707179 
L 130.842755 204.244407 
L 130.702838 203.987414 
L 130.590804 203.781636 
L 130.328045 203.318865 
L 130.237062 203.160933 
L 130.061449 202.856093 
L 129.794857 202.393322 
L 129.771285 202.352407 
L 129.528259 201.930551 
L 129.305509 201.543879 
L 129.261669 201.46778 
L 128.995072 201.005008 
L 128.839733 200.735367 
L 128.72847 200.542237 
L 128.461876 200.079466 
L 128.373957 199.926851 
L 128.195277 199.616694 
L 127.928687 199.153923 
L 127.90818 199.118327 
L 127.662089 198.691152 
L 127.442404 198.237519 
L 127.438081 198.228381 
L 127.232677 197.765609 
L 127.025343 197.302838 
L 126.976628 197.197501 
L 126.811323 196.840067 
L 126.597308 196.377295 
L 126.510851 196.190349 
L 126.386097 195.914524 
L 126.217056 195.451753 
L 126.064259 194.988982 
L 126.045075 194.914723 
L 125.94471 194.52621 
L 125.825164 194.063439 
L 125.705617 193.600668 
L 125.586066 193.137896 
L 125.579299 193.111703 
L 125.466045 192.675125 
L 125.338235 192.212354 
L 125.201287 191.749583 
L 125.113523 191.453006 
L 125.064341 191.286811 
L 124.927393 190.82404 
L 124.790436 190.361269 
L 124.653488 189.898497 
L 124.647746 189.879095 
L 124.51654 189.435726 
L 124.379593 188.972955 
L 124.24265 188.510184 
L 124.18197 188.30514 
L 124.105697 188.047412 
L 123.968748 187.584641 
L 123.831802 187.12187 
L 123.716194 186.731199 
L 123.694857 186.659098 
L 123.569512 186.196327 
L 123.469043 185.733556 
L 123.45546 185.270785 
L 123.492356 184.808013 
L 123.497875 184.345242 
L 123.49437 183.882471 
L 123.490868 183.419699 
L 123.487359 182.956928 
L 123.483855 182.494157 
L 123.480349 182.031386 
L 123.476843 181.568614 
L 123.473338 181.105843 
L 123.469829 180.643072 
L 123.466323 180.180301 
L 123.462821 179.717529 
L 123.459311 179.254758 
L 123.455802 178.791987 
L 123.452293 178.329215 
L 123.44879 177.866444 
L 123.445287 177.403673 
L 123.441778 176.940902 
L 123.438273 176.47813 
L 123.43477 176.015359 
L 123.436741 175.552588 
L 123.444838 175.089816 
L 123.45293 174.627045 
L 123.461024 174.164274 
L 123.469118 173.701503 
L 123.47721 173.238731 
L 123.485302 172.77596 
L 123.493399 172.313189 
L 123.501489 171.850417 
L 123.505898 171.387646 
L 123.544944 170.924875 
L 123.571251 170.462104 
L 123.597553 169.999332 
L 123.623859 169.536561 
L 123.65016 169.07379 
L 123.676463 168.611018 
L 123.702772 168.148247 
L 123.716194 167.912103 
L 123.729074 167.685476 
L 123.755371 167.222705 
L 123.781678 166.759933 
L 123.807985 166.297162 
L 123.834284 165.834391 
L 123.860589 165.371619 
L 123.886894 164.908848 
L 123.913194 164.446077 
L 123.985352 163.983306 
L 124.102942 163.520534 
L 124.18197 163.209535 
L 124.220537 163.057763 
L 124.338126 162.594992 
L 124.455718 162.13222 
L 124.57331 161.669449 
L 124.647746 161.376503 
L 124.690898 161.206678 
L 124.808492 160.743907 
L 124.926082 160.281135 
L 125.043672 159.818364 
L 125.113523 159.543485 
L 125.161268 159.355593 
L 125.278855 158.892821 
L 125.39644 158.43005 
L 125.514033 157.967279 
L 125.579299 157.710417 
L 125.631619 157.504508 
L 125.749219 157.041736 
L 125.849784 156.578965 
L 125.924237 156.116194 
L 125.991493 155.653422 
L 126.045075 155.284773 
L 126.058788 155.190651 
L 126.130803 154.72788 
L 126.204614 154.265109 
L 126.278414 153.802337 
L 126.354816 153.339566 
L 126.439292 152.876795 
L 126.510851 152.519541 
L 126.532062 152.414023 
L 126.6411 151.951252 
L 126.750137 151.488481 
L 126.877542 151.02571 
L 126.976628 150.785796 
L 127.074262 150.562938 
L 127.277004 150.100167 
L 127.442404 149.72264 
L 127.479751 149.637396 
L 127.68249 149.174624 
L 127.885232 148.711853 
L 127.90818 148.659474 
L 128.087977 148.249082 
L 128.290721 147.786311 
L 128.373957 147.596318 
L 128.49346 147.323539 
L 128.696204 146.860768 
L 128.839733 146.533148 
L 128.898942 146.397997 
L 129.10168 145.935225 
L 129.304418 145.472454 
L 129.305509 145.469963 
L 129.507158 145.009683 
L 129.7099 144.546912 
L 129.771285 144.406789 
L 129.912636 144.08414 
L 130.115381 143.621369 
L 130.237062 143.400813 
L 130.382286 143.158598 
L 130.663527 142.695826 
L 130.702838 142.631142 
L 130.944768 142.233055 
L 131.168614 141.864753 
L 131.226029 141.770284 
L 131.50727 141.307513 
L 131.634391 141.098335 
L 131.788505 140.844741 
L 132.069753 140.38197 
L 132.100167 140.331927 
L 132.350999 139.919199 
L 132.565943 139.565521 
L 132.632246 139.456427 
L 132.913493 138.993656 
L 133.03172 138.799126 
L 133.194746 138.530885 
L 133.497496 138.068183 
L 133.497544 138.068114 
L 133.847054 137.605342 
L 133.963272 137.451461 
L 134.196567 137.142571 
L 134.429048 136.834752 
L 134.546077 136.6798 
L 134.894825 136.218051 
L 134.895597 136.217028 
L 135.245104 135.754257 
L 135.360601 135.60133 
L 135.594615 135.291486 
L 135.826377 134.984622 
L 135.944127 134.828715 
L 136.292154 134.367901 
L 136.293633 134.365943 
L 136.643154 133.903172 
L 136.75793 133.751202 
L 136.992661 133.440401 
L 137.223706 133.134482 
L 137.342171 132.977629 
L 137.689482 132.517775 
L 137.691685 132.514858 
L 138.041195 132.052087 
L 138.155259 131.901061 
L 138.390701 131.589316 
L 138.621035 131.284349 
L 138.740222 131.126544 
L 139.086736 130.663773 
L 139.086811 130.663666 
L 139.406827 130.201002 
L 139.552588 129.990271 
L 139.726918 129.73823 
L 140.018364 129.31688 
L 140.047014 129.275459 
L 140.367095 128.812688 
L 140.48414 128.643464 
L 140.687181 128.349917 
L 140.949917 127.968904 
L 141.005949 127.887145 
L 141.290793 127.424374 
L 141.415693 127.213877 
L 141.605988 126.961603 
L 141.881469 126.717348 
L 142.172423 126.498831 
L 142.347245 126.36833 
L 142.79235 126.03606 
L 142.813022 126.020366 
L 143.278798 125.657386 
L 143.385174 125.573289 
L 143.744574 125.289158 
L 143.970534 125.110518 
L 144.210351 124.92092 
L 144.555885 124.647746 
L 144.676127 124.552685 
L 145.141248 124.184975 
L 145.141903 124.184457 
L 145.607679 123.816221 
L 145.726605 123.722204 
L 146.073456 123.447992 
L 146.311962 123.259432 
L 146.539232 123.079754 
L 146.897314 122.796661 
L 147.005008 122.711522 
L 147.470785 122.343287 
L 147.482671 122.33389 
L 147.936561 121.975064 
L 148.068039 121.871119 
L 148.402337 121.606822 
L 148.65338 121.408347 
L 148.868114 121.23858 
L 149.238733 120.945576 
L 149.33389 120.870349 
L 149.799666 120.502124 
L 149.824103 120.482805 
L 150.265442 120.133897 
L 150.409468 120.020033 
L 150.731219 119.765655 
L 150.994811 119.557262 
L 151.196995 119.397425 
L 151.580179 119.094491 
L 151.662771 119.029194 
L 152.128548 118.660965 
L 152.16554 118.63172 
L 152.594324 118.292735 
L 152.76758 118.168948 
L 153.0601 117.978263 
L 153.525876 117.714027 
L 153.539713 117.706177 
L 153.991653 117.449792 
L 154.355464 117.243406 
L 154.457429 117.18556 
L 154.923205 116.921326 
L 155.171209 116.780634 
L 155.388982 116.65709 
L 155.854758 116.392856 
L 155.986951 116.317863 
L 156.320534 116.128624 
L 156.786311 115.864389 
L 156.802699 115.855092 
L 157.252087 115.60015 
L 157.618444 115.392321 
L 157.717863 115.336498 
L 158.183639 115.12015 
L 158.641781 114.929549 
L 158.649416 114.926373 
L 159.115192 114.732583 
L 159.580968 114.538798 
L 159.75407 114.466778 
L 160.046745 114.345007 
L 160.512521 114.151211 
L 160.866321 114.004007 
L 160.978297 113.957419 
L 161.444073 113.763634 
L 161.90985 113.569847 
L 162.13047 113.541235 
L 162.375626 113.511974 
L 162.841402 113.45766 
L 163.307179 113.403342 
L 163.772955 113.349027 
L 164.238731 113.294709 
L 164.704508 113.240392 
L 165.170284 113.186077 
L 165.63606 113.131762 
L 166.093032 113.078464 
L 166.101836 113.077437 
L 166.567613 113.02313 
L 167.033389 112.968802 
L 167.499165 112.914491 
L 167.964942 112.86017 
L 168.430718 112.805857 
L 168.896494 112.751538 
L 169.36227 112.697221 
L 169.828047 112.642903 
L 170.061386 112.615693 
L 170.293823 112.588588 
L 170.759599 112.53427 
L 171.225376 112.468196 
L 171.691152 112.382636 
L 172.156928 112.293776 
L 172.622705 112.156089 
L 172.633399 112.152922 
L 173.088481 112.018151 
L 173.554257 111.880206 
L 174.020033 111.742267 
L 174.196003 111.69015 
L 174.48581 111.60432 
L 174.951586 111.466376 
L 175.417362 111.328429 
L 175.75857 111.227379 
L 175.883139 111.190488 
L 176.348915 111.052545 
L 176.814691 110.914602 
L 177.280467 110.776657 
L 177.321156 110.764608 
L 177.746244 110.638722 
L 178.21202 110.500772 
L 178.677796 110.362835 
L 178.883762 110.301836 
L 179.143573 110.22489 
L 179.609349 110.086947 
L 180.075125 109.947703 
L 180.435597 109.839065 
L 180.540902 109.807231 
L 181.006678 109.700147 
L 181.472454 109.63944 
L 181.93823 109.590533 
L 182.404007 109.569294 
L 182.869783 109.551909 
L 183.335559 109.534533 
L 183.801336 109.517153 
L 184.267112 109.499777 
L 184.732888 109.482399 
L 185.198664 109.465014 
L 185.664441 109.447637 
L 186.130217 109.430261 
L 186.595993 109.41288 
L 187.06177 109.411645 
L 187.527546 109.428045 
L 187.993322 109.444446 
L 188.459098 109.460862 
L 188.924875 109.477262 
L 189.390651 109.493204 
L 189.856427 109.50611 
L 190.322204 109.518256 
L 190.78798 109.560156 
L 191.253756 109.649533 
L 191.719533 109.738902 
L 192.185309 109.828272 
L 192.239886 109.839065 
L 192.651085 109.918169 
L 193.116861 109.973437 
L 193.582638 110.028707 
L 194.048414 110.083971 
L 194.51419 110.139244 
L 194.979967 110.19451 
L 195.445743 110.249778 
L 195.884409 110.301836 
L 195.911519 110.305054 
L 196.377295 110.360321 
L 196.843072 110.415582 
L 197.308848 110.470855 
L 197.774624 110.518133 
L 198.240401 110.55323 
L 198.706177 110.588338 
L 199.171953 110.623436 
L 199.63773 110.728943 
L 199.790842 110.764608 
L 200.103506 110.83744 
L 200.569282 110.945924 
L 201.035058 111.054414 
L 201.500835 111.16291 
L 201.777637 111.227379 
L 201.966611 111.271393 
L 202.432387 111.376639 
L 202.898164 111.47345 
L 203.36394 111.566129 
L 203.829716 111.660687 
L 203.990797 111.69015 
L 204.295492 111.744898 
L 204.761269 111.80736 
L 205.227045 111.869044 
L 205.692821 111.93074 
L 206.158598 111.992426 
L 206.624374 112.054117 
L 207.09015 112.115807 
L 207.370408 112.152922 
L 207.555927 112.17749 
L 208.021703 112.239179 
L 208.487479 112.300876 
L 208.953255 112.362563 
L 209.419032 112.424257 
L 209.884808 112.485978 
L 210.350584 112.547798 
L 210.816361 112.609608 
L 210.862214 112.615693 
L 211.282137 112.671416 
L 211.747913 112.733231 
L 212.213689 112.795048 
L 212.679466 112.856858 
L 213.145242 112.918676 
L 213.611018 112.980489 
L 214.076795 113.042304 
L 214.349282 113.078464 
L 214.542571 113.104114 
L 215.008347 113.16849 
L 215.474124 113.275286 
L 215.9399 113.382077 
L 216.405676 113.488874 
L 216.634066 113.541235 
L 216.871452 113.59566 
L 217.337229 113.702452 
L 217.803005 113.850036 
L 218.259384 114.004007 
L 218.268781 114.007177 
L 218.734558 114.164305 
L 219.200334 114.252265 
L 219.66611 114.315218 
L 220.131886 114.378167 
L 220.597663 114.441114 
L 220.703316 114.466778 
L 221.063439 114.561366 
L 221.529215 114.704736 
L 221.994992 114.848104 
L 222.259567 114.929549 
L 222.460768 114.991485 
L 222.926544 115.134841 
L 223.392321 115.278221 
L 223.763036 115.392321 
L 223.858097 115.421578 
L 224.323873 115.564955 
L 224.789649 115.70832 
L 225.144757 115.855092 
L 225.255426 115.903917 
L 225.721202 116.134299 
L 226.092331 116.317863 
L 226.186978 116.364679 
L 226.652755 116.594623 
L 227.059924 116.780634 
L 227.118531 116.80687 
L 227.584307 117.015367 
L 228.050083 117.224198 
L 228.092547 117.243406 
L 228.51586 117.435161 
L 228.981636 117.646139 
L 229.114176 117.706177 
L 229.447412 117.857131 
L 229.913189 118.06811 
L 230.135793 118.168948 
L 230.378965 118.279101 
L 230.844741 118.490081 
L 231.15743 118.63172 
L 231.310518 118.701066 
L 231.776294 118.912043 
L 232.183286 119.094491 
L 232.24207 119.120309 
L 232.707846 119.317628 
L 233.173623 119.514955 
L 233.270096 119.557262 
L 233.639399 119.719653 
L 234.105175 119.936996 
L 234.283142 120.020033 
L 234.570952 120.154322 
L 235.036728 120.371656 
L 235.274941 120.482805 
L 235.502504 120.588982 
L 235.96828 120.809277 
L 236.225821 120.945576 
L 236.434057 121.079 
L 236.782083 121.408347 
L 236.899833 121.533375 
L 237.217919 121.871119 
L 237.365609 122.027941 
L 237.653746 122.33389 
L 237.831386 122.522521 
L 238.089567 122.796661 
L 238.297162 123.017076 
L 238.525393 123.259432 
L 238.762938 123.51167 
L 238.961229 123.722204 
L 239.228715 124.00622 
L 239.397061 124.184975 
L 239.694491 124.500792 
L 239.832887 124.647746 
L 240.160267 124.995361 
L 240.268721 125.110518 
L 240.626043 125.489918 
L 240.705885 125.573289 
L 241.09182 125.96081 
L 241.167761 126.03606 
L 241.557596 126.422358 
L 241.634769 126.498831 
L 242.023372 126.883903 
L 242.101785 126.961603 
L 242.489149 127.345448 
L 242.568799 127.424374 
L 242.954925 127.806997 
L 243.035805 127.887145 
L 243.420701 128.268549 
L 243.502813 128.349917 
L 243.886477 128.730087 
L 243.969838 128.812688 
L 244.352254 129.191634 
L 244.436845 129.275459 
L 244.81803 129.653195 
L 244.903842 129.73823 
L 245.283806 130.114744 
L 245.370857 130.201002 
L 245.749583 130.576282 
L 245.837871 130.663773 
L 246.215359 131.037852 
L 246.304864 131.126544 
L 246.681135 131.499399 
L 246.771876 131.589316 
L 247.146912 131.960945 
L 247.238888 132.052087 
L 247.612688 132.422492 
L 247.705902 132.514858 
L 248.078464 132.884046 
L 248.172824 132.977629 
L 248.513233 133.440401 
L 248.54424 133.506306 
L 248.72491 133.903172 
L 248.935591 134.365943 
L 249.010017 134.529426 
L 249.146265 134.828715 
L 249.356935 135.291486 
L 249.475793 135.552571 
L 249.567612 135.754257 
L 249.778283 136.217028 
L 249.941569 136.57571 
L 249.989225 136.6798 
L 250.20701 137.142571 
L 250.407346 137.556905 
L 250.430766 137.605342 
L 250.654528 138.068114 
L 250.873122 138.520216 
L 250.87828 138.530885 
L 251.102039 138.993656 
L 251.325809 139.456427 
L 251.338898 139.483497 
L 251.549561 139.919199 
L 251.773315 140.38197 
L 251.804674 140.446826 
L 251.997075 140.844741 
L 252.220838 141.307513 
L 252.270451 141.410124 
L 252.444594 141.770284 
L 252.668351 142.233055 
L 252.736227 142.373431 
L 252.892109 142.695826 
L 253.115866 143.158598 
L 253.202003 143.336732 
L 253.339637 143.621369 
L 253.563393 144.08414 
L 253.66778 144.300034 
L 253.787149 144.546912 
L 254.010913 145.009683 
L 254.133556 145.263319 
L 254.23468 145.472454 
L 254.458436 145.935225 
L 254.599332 146.226618 
L 254.682201 146.397997 
L 254.905959 146.860768 
L 255.065109 147.189914 
L 255.129716 147.323539 
L 255.353474 147.786311 
L 255.530885 148.172033 
L 255.564374 148.249082 
L 255.751588 148.711853 
L 255.938806 149.174624 
L 255.996661 149.317633 
L 256.126027 149.637396 
L 256.313243 150.100167 
L 256.462437 150.468936 
L 256.500468 150.562938 
L 256.687685 151.02571 
L 256.874898 151.488481 
L 256.928214 151.620264 
L 257.062121 151.951252 
L 257.249333 152.414023 
L 257.39399 152.771591 
L 257.436551 152.876795 
L 257.623776 153.339566 
L 257.810992 153.802337 
L 257.859766 153.922903 
L 257.998205 154.265109 
L 258.185432 154.72788 
L 258.325543 155.074224 
L 258.372643 155.190651 
L 258.559867 155.653422 
L 258.74709 156.116194 
L 258.791319 156.225516 
L 258.934309 156.578965 
L 259.121526 157.041736 
L 259.257095 157.376831 
L 259.30875 157.504508 
L 259.495965 157.967279 
L 259.646081 158.43005 
L 259.722871 158.672014 
L 259.792949 158.892821 
L 259.939822 159.355593 
L 260.086689 159.818364 
L 260.188648 160.139624 
L 260.233273 160.281135 
L 260.311401 160.743907 
L 260.389574 161.206678 
L 260.522892 161.669449 
L 260.654424 162.125992 
L 260.656219 162.13222 
L 260.789534 162.594992 
L 260.922863 163.057763 
L 261.056183 163.520534 
L 261.1202 163.926483 
L 261.128828 163.983306 
L 261.168758 164.446077 
L 261.216609 164.908848 
L 261.264455 165.371619 
L 261.312303 165.834391 
L 261.360157 166.297162 
L 261.408004 166.759933 
L 261.45585 167.222705 
L 261.503705 167.685476 
L 261.551543 168.148247 
L 261.585977 168.481184 
L 261.599405 168.611018 
L 261.648047 169.07379 
L 261.697729 169.536561 
L 261.747614 169.999332 
L 261.79758 170.462104 
L 261.847549 170.924875 
L 261.897518 171.387646 
L 261.913077 171.850417 
L 261.860514 172.313189 
L 261.812506 172.77596 
L 261.764441 173.238731 
L 261.710109 173.701503 
L 261.655774 174.164274 
L 261.601439 174.627045 
L 261.585977 174.758748 
L 261.547107 175.089816 
L 261.492773 175.552588 
L 261.43844 176.015359 
L 261.384103 176.47813 
L 261.329773 176.940902 
L 261.237403 177.403673 
L 261.134126 177.866444 
L 261.1202 177.92884 
L 261.030841 178.329215 
L 260.92756 178.791987 
L 260.82428 179.254758 
L 260.721002 179.717529 
L 260.654424 180.015853 
L 260.617723 180.180301 
L 260.514446 180.643072 
L 260.411163 181.105843 
L 260.330268 181.568614 
L 260.252552 182.031386 
L 260.188648 182.411881 
L 260.17483 182.494157 
L 260.097123 182.956928 
L 260.019409 183.419699 
L 259.941699 183.882471 
L 259.863989 184.345242 
L 259.786275 184.808013 
L 259.722871 185.179568 
L 259.707281 185.270785 
L 259.626453 185.733556 
L 259.545623 186.196327 
L 259.464784 186.659098 
L 259.383959 187.12187 
L 259.303132 187.584641 
L 259.257095 187.8482 
L 259.222298 188.047412 
L 259.141471 188.510184 
L 259.060639 188.972955 
L 258.862194 189.435726 
L 258.791319 189.572214 
L 258.621885 189.898497 
L 258.381581 190.361269 
L 258.325543 190.481273 
L 258.169596 190.82404 
L 258.025297 191.286811 
L 257.880996 191.749583 
L 257.859766 191.817667 
L 257.736694 192.212354 
L 257.592398 192.675125 
L 257.448101 193.137896 
L 257.39399 193.311432 
L 257.303802 193.600668 
L 257.1595 194.063439 
L 257.015202 194.52621 
L 256.928214 194.805193 
L 256.870906 194.988982 
L 256.726601 195.451753 
L 256.582301 195.914524 
L 256.462437 196.298931 
L 256.438003 196.377295 
L 256.293697 196.840067 
L 256.149402 197.302838 
L 256.005102 197.765609 
L 255.996661 197.792678 
L 255.860799 198.228381 
L 255.716502 198.691152 
L 255.568476 199.153923 
L 255.530885 199.268099 
L 255.415902 199.616694 
L 255.263267 200.079466 
L 255.110628 200.542237 
L 255.065109 200.670699 
L 254.936782 201.005008 
L 254.696674 201.46778 
L 254.599332 201.655395 
L 254.45657 201.930551 
L 254.216458 202.393322 
L 254.133556 202.553101 
L 253.976349 202.856093 
L 253.736247 203.318865 
L 253.66778 203.450826 
L 253.496138 203.781636 
L 253.256029 204.244407 
L 253.202003 204.349251 
L 253.020109 204.707179 
L 252.785604 205.16995 
L 252.736227 205.259231 
L 252.519954 205.632721 
L 252.270451 206.051635 
L 252.24433 206.095492 
L 251.968707 206.558264 
L 251.804674 206.833678 
L 251.693089 207.021035 
L 251.41747 207.483806 
L 251.338898 207.615731 
L 251.141852 207.946578 
L 250.873122 208.397771 
L 250.866226 208.409349 
L 250.590609 208.87212 
L 250.407346 209.179816 
L 250.314982 209.334891 
L 250.039363 209.797663 
L 249.941569 209.961859 
L 249.763735 210.260434 
L 249.488113 210.723205 
L 249.475793 210.74389 
L 249.212494 211.185977 
L 249.010017 211.525941 
L 248.936873 211.648748 
L 248.661254 212.111519 
L 248.54424 212.307977 
L 248.38562 212.57429 
L 248.11 213.037062 
L 248.078464 213.090011 
L 247.834385 213.499833 
L 247.612688 213.826771 
L 247.514591 213.962604 
L 247.158647 214.425376 
L 247.146912 214.440634 
L 246.802697 214.888147 
L 246.681135 215.046196 
L 246.446756 215.350918 
L 246.215359 215.651753 
L 246.090805 215.813689 
L 245.749583 216.257324 
L 245.734864 216.276461 
L 245.378907 216.739232 
L 245.283806 216.862875 
L 245.022967 217.202003 
L 244.81803 217.468439 
L 244.667014 217.664775 
L 244.352254 218.069486 
L 244.302653 218.127546 
L 243.886477 218.523171 
L 243.821497 218.590317 
L 243.420701 219.051622 
L 243.419427 219.053088 
L 243.01736 219.51586 
L 242.954925 219.587724 
L 242.615307 219.978631 
L 242.489149 220.123837 
L 242.213237 220.441402 
L 242.023372 220.659937 
L 241.811176 220.904174 
L 241.557596 221.196042 
L 241.409113 221.366945 
L 241.09182 221.732144 
L 241.007048 221.829716 
L 240.626043 222.268245 
L 240.604981 222.292487 
L 240.202915 222.755259 
L 240.160267 222.804345 
L 239.800856 223.21803 
L 239.694491 223.340458 
L 239.398786 223.680801 
L 239.228715 223.876541 
L 238.996709 224.143573 
L 238.762938 224.412649 
L 238.594655 224.606344 
L 238.297162 224.94876 
L 238.192399 225.069115 
L 237.831386 225.466691 
L 237.768184 225.531886 
L 237.365609 225.94715 
L 237.319554 225.994658 
L 236.899833 226.427619 
L 236.870935 226.457429 
L 236.434057 226.908087 
L 236.422314 226.9202 
L 235.973701 227.382972 
L 235.96828 227.388563 
L 235.525074 227.845743 
L 235.502504 227.869025 
L 235.076458 228.308514 
L 235.036728 228.349497 
L 234.627831 228.771285 
L 234.570952 228.829958 
L 234.179223 229.234057 
L 234.105175 229.310441 
L 233.730603 229.696828 
L 233.639399 229.79091 
L 233.173623 230.155409 
L 233.166431 230.159599 
L 232.707846 230.419055 
L 232.348489 230.622371 
L 232.24207 230.682579 
L 231.776294 230.946103 
L 231.530545 231.085142 
L 231.310518 231.209629 
L 230.844741 231.486047 
L 230.755427 231.547913 
L 230.378965 231.818162 
L 230.110772 232.010684 
L 229.913189 232.152523 
L 229.466114 232.473456 
L 229.447412 232.486881 
L 228.981636 232.821252 
L 228.821472 232.936227 
L 228.51586 233.155608 
L 228.176813 233.398998 
L 228.050083 233.489974 
L 227.584307 233.824331 
L 227.532155 233.86177 
L 227.118531 234.158695 
L 226.855279 234.324541 
L 226.652755 234.447358 
L 226.186978 234.683653 
L 225.9889 234.787312 
L 225.721202 234.930649 
L 225.255426 235.191373 
L 225.151276 235.250083 
L 224.789649 235.458849 
L 224.356768 235.712855 
L 224.323873 235.732157 
L 223.858097 236.005479 
L 223.568136 236.175626 
L 223.392321 236.278791 
L 222.926544 236.552023 
L 222.779239 236.638397 
L 222.460768 236.825152 
L 221.994992 237.098256 
L 221.990024 237.101169 
L 221.529215 237.371324 
L 221.200679 237.56394 
L 221.063439 237.644405 
L 220.597663 237.917483 
L 220.411365 238.026711 
L 220.131886 238.190573 
L 219.66611 238.463599 
L 219.619533 238.489482 
L 219.200334 238.714033 
L 218.734558 238.897719 
L 218.595647 238.952254 
L 218.268781 239.080503 
L 217.803005 239.271647 
L 217.469936 239.415025 
L 217.337229 239.472152 
L 216.871452 239.672662 
L 216.405676 239.873173 
L 216.396655 239.877796 
L 215.9399 240.116523 
L 215.542654 240.340568 
L 215.474124 240.379219 
L 215.008347 240.641916 
L 214.722116 240.803339 
L 214.542571 240.904596 
L 214.076795 241.167295 
L 213.901584 241.26611 
L 213.611018 241.415451 
L 213.145242 241.609538 
L 212.855439 241.728881 
L 212.679466 241.801349 
L 212.213689 241.993164 
L 211.747913 242.184967 
L 211.731678 242.191653 
L 211.282137 242.376779 
L 210.816361 242.568596 
L 210.607936 242.654424 
L 210.350584 242.7604 
L 209.884808 242.952213 
L 209.484178 243.117195 
L 209.419032 243.144023 
L 208.953255 243.335838 
L 208.487479 243.52765 
L 208.360442 243.579967 
L 208.021703 243.719467 
L 207.555927 243.911276 
L 207.236698 244.042738 
L 207.09015 244.103088 
L 206.624374 244.251488 
L 206.158598 244.381228 
L 205.71244 244.505509 
L 205.692821 244.510974 
L 205.227045 244.640714 
L 204.761269 244.770451 
L 204.295492 244.900193 
L 204.051056 244.96828 
L 203.829716 245.029934 
L 203.36394 245.159673 
L 202.898164 245.289416 
L 202.432387 245.419153 
L 202.389671 245.431052 
L 201.966611 245.548892 
L 201.500835 245.677967 
L 201.035058 245.745896 
L 200.569282 245.805387 
L 200.103506 245.864869 
L 199.876797 245.893823 
L 199.63773 245.924357 
L 199.171953 245.983846 
L 198.706177 246.043331 
L 198.240401 246.102823 
L 197.774624 246.162306 
L 197.308848 246.221793 
L 196.843072 246.281287 
L 196.377295 246.340777 
L 196.253452 246.356594 
L 195.911519 246.400265 
L 195.445743 246.459747 
L 194.979967 246.519237 
L 194.51419 246.578721 
L 194.048414 246.638214 
L 193.582638 246.697702 
L 193.116861 246.75719 
L 192.651085 246.816675 
L 192.630022 246.819366 
L 192.185309 246.876164 
L 191.719533 246.935645 
L 191.253756 246.995136 
L 190.78798 247.054622 
L 190.322204 247.114116 
L 189.856427 247.173598 
L 189.390651 247.233091 
L 189.006634 247.282137 
L 188.924875 247.292579 
L 188.459098 247.352067 
L 187.993322 247.411553 
L 187.527546 247.471044 
L 187.06177 247.539468 
L 186.595993 247.610995 
L 186.130217 247.682517 
L 185.684168 247.744908 
L 185.664441 247.747681 
L 185.198664 247.755559 
L 184.732888 247.763439 
L 184.267112 247.771311 
L 183.801336 247.779191 
L 183.335559 247.787071 
L 182.869783 247.794949 
L 182.404007 247.802813 
z
" clip-path="url(#p86617b1272)" style="fill: none; stroke: #000000; stroke-width: 1.5"/>
   </g>
   <g id="patch_3">
    <path d="M 45 320.4 
L 45 43.2 
" style="fill: none; stroke: #000000; stroke-width: 0.8; stroke-linejoin: miter; stroke-linecap: square"/>
   </g>
   <g id="patch_4">
    <path d="M 324 320.4 
L 324 43.2 
" style="fill: none; stroke: #000000; stroke-width: 0.8; stroke-linejoin: miter; stroke-linecap: square"/>
   </g>
   <g id="patch_5">
    <path d="M 45 320.4 
L 324 320.4 
" style="fill: none; stroke: #000000; stroke-width: 0.8; stroke-linejoin: miter; stroke-linecap: square"/>
   </g>
   <g id="patch_6">
    <path d="M 45 43.2 
L 324 43.2 
" style="fill: none; stroke: #000000; stroke-width: 0.8; stroke-linejoin: miter; stroke-linecap: square"/>
   </g>
  </g>
 </g>
 <defs>
  <clipPath id="p86617b1272">
   <rect x="45" y="43.2" width="279" height="277.2"/>
  </clipPath>
 </defs>
</svg>
