<?xml version="1.0" encoding="utf-8" standalone="no"?>
<!DOCTYPE svg PUBLIC "-//W3C//DTD SVG 1.1//EN"
  "http://www.w3.org/Graphics/SVG/1.1/DTD/svg11.dtd">
<svg xmlns:xlink="http://www.w3.org/1999/xlink" width="360pt" height="360pt" viewBox="0 0 360 360" xmlns="http://www.w3.org/2000/svg" version="1.1">
 <metadata>
  <rdf:RDF xmlns:dc="http://purl.org/dc/elements/1.1/" xmlns:cc="http://creativecommons.org/ns#" xmlns:rdf="http://www.w3.org/1999/02/22-rdf-syntax-ns#">
   <cc:Work>
    <dc:type rdf:resource="http://purl.org/dc/dcmitype/StillImage"/>
    <dc:date>2022-04-03T22:41:40.161303</dc:date>
    <dc:format>image/svg+xml</dc:format>
    <dc:creator>
     <cc:Agent>
      <dc:title>Matplotlib v3.5.1, https://matplotlib.org/</dc:title>
     </cc:Agent>
    </dc:creator>
   </cc:Work>
  </rdf:RDF>
 </metadata>
 <defs>
  <style type="text/css">*{stroke-linejoin: round; stroke-linecap: butt}</style>
 </defs>
 <g id="figure_1">
  <g id="patch_1">
   <path d="M 0 360 
L 360 360 
L 360 0 
L 0 0 
z
" style="fill: #ffffff"/>
  </g>
  <g id="axes_1">
   <g id="patch_2">
    <path d="M 45 320.4 
L 324 320.4 
L 324 43.2 
L 45 43.2 
z
" style="fill: #ffffff"/>
   </g>
   <g id="PathCollection_1">
    <defs>
     <path id="m1675949418" d="M 0 0.5 
C 0.132602 0.5 0.25979 0.447317 0.353553 0.353553 
C 0.447317 0.25979 0.5 0.132602 0.5 0 
C 0.5 -0.132602 0.447317 -0.25979 0.353553 -0.353553 
C 0.25979 -0.447317 0.132602 -0.5 0 -0.5 
C -0.132602 -0.5 -0.25979 -0.447317 -0.353553 -0.353553 
C -0.447317 -0.25979 -0.5 -0.132602 -0.5 0 
C -0.5 0.132602 -0.447317 0.25979 -0.353553 0.353553 
C -0.25979 0.447317 -0.132602 0.5 0 0.5 
z
" style="stroke: #ff0000"/>
    </defs>
    <g clip-path="url(#pa57e0097a0)">
     <use xlink:href="#m1675949418" x="229.264732" y="181.568614" style="fill: #ff0000; stroke: #ff0000"/>
     <use xlink:href="#m1675949418" x="228.684545" y="177.267682" style="fill: #ff0000; stroke: #ff0000"/>
     <use xlink:href="#m1675949418" x="227.864077" y="173.044638" style="fill: #ff0000; stroke: #ff0000"/>
     <use xlink:href="#m1675949418" x="226.780743" y="168.895828" style="fill: #ff0000; stroke: #ff0000"/>
     <use xlink:href="#m1675949418" x="225.450803" y="164.811514" style="fill: #ff0000; stroke: #ff0000"/>
     <use xlink:href="#m1675949418" x="223.908084" y="160.76413" style="fill: #ff0000; stroke: #ff0000"/>
     <use xlink:href="#m1675949418" x="222.158446" y="156.722991" style="fill: #ff0000; stroke: #ff0000"/>
     <use xlink:href="#m1675949418" x="220.14944" y="152.690521" style="fill: #ff0000; stroke: #ff0000"/>
     <use xlink:href="#m1675949418" x="217.778938" y="148.735765" style="fill: #ff0000; stroke: #ff0000"/>
     <use xlink:href="#m1675949418" x="214.936222" y="145.003183" style="fill: #ff0000; stroke: #ff0000"/>
     <use xlink:href="#m1675949418" x="211.550219" y="141.692578" style="fill: #ff0000; stroke: #ff0000"/>
     <use xlink:href="#m1675949418" x="207.622521" y="139.021404" style="fill: #ff0000; stroke: #ff0000"/>
     <use xlink:href="#m1675949418" x="203.237648" y="137.182395" style="fill: #ff0000; stroke: #ff0000"/>
     <use xlink:href="#m1675949418" x="198.553307" y="136.302733" style="fill: #ff0000; stroke: #ff0000"/>
     <use xlink:href="#m1675949418" x="193.774096" y="136.408639" style="fill: #ff0000; stroke: #ff0000"/>
     <use xlink:href="#m1675949418" x="189.110897" y="137.404728" style="fill: #ff0000; stroke: #ff0000"/>
     <use xlink:href="#m1675949418" x="184.732888" y="139.080937" style="fill: #ff0000; stroke: #ff0000"/>
     <use xlink:href="#m1675949418" x="180.726318" y="141.151669" style="fill: #ff0000; stroke: #ff0000"/>
     <use xlink:href="#m1675949418" x="177.074638" y="143.316383" style="fill: #ff0000; stroke: #ff0000"/>
     <use xlink:href="#m1675949418" x="173.666224" y="145.32208" style="fill: #ff0000; stroke: #ff0000"/>
     <use xlink:href="#m1675949418" x="170.325937" y="147.011554" style="fill: #ff0000; stroke: #ff0000"/>
     <use xlink:href="#m1675949418" x="166.861822" y="148.349907" style="fill: #ff0000; stroke: #ff0000"/>
     <use xlink:href="#m1675949418" x="163.117423" y="149.427493" style="fill: #ff0000; stroke: #ff0000"/>
     <use xlink:href="#m1675949418" x="159.020542" y="150.440162" style="fill: #ff0000; stroke: #ff0000"/>
     <use xlink:href="#m1675949418" x="154.620391" y="151.650391" style="fill: #ff0000; stroke: #ff0000"/>
     <use xlink:href="#m1675949418" x="150.106516" y="153.334821" style="fill: #ff0000; stroke: #ff0000"/>
     <use xlink:href="#m1675949418" x="145.802825" y="155.724199" style="fill: #ff0000; stroke: #ff0000"/>
     <use xlink:href="#m1675949418" x="142.129665" y="158.943633" style="fill: #ff0000; stroke: #ff0000"/>
     <use xlink:href="#m1675949418" x="139.531246" y="162.966275" style="fill: #ff0000; stroke: #ff0000"/>
     <use xlink:href="#m1675949418" x="138.377739" y="167.597654" style="fill: #ff0000; stroke: #ff0000"/>
     <use xlink:href="#m1675949418" x="138.866271" y="172.504038" style="fill: #ff0000; stroke: #ff0000"/>
     <use xlink:href="#m1675949418" x="140.953016" y="177.284492" style="fill: #ff0000; stroke: #ff0000"/>
     <use xlink:href="#m1675949418" x="144.342945" y="181.568614" style="fill: #ff0000; stroke: #ff0000"/>
     <use xlink:href="#m1675949418" x="148.545237" y="185.109792" style="fill: #ff0000; stroke: #ff0000"/>
     <use xlink:href="#m1675949418" x="152.978752" y="187.844155" style="fill: #ff0000; stroke: #ff0000"/>
     <use xlink:href="#m1675949418" x="157.094178" y="189.898634" style="fill: #ff0000; stroke: #ff0000"/>
     <use xlink:href="#m1675949418" x="160.47667" y="191.551048" style="fill: #ff0000; stroke: #ff0000"/>
     <use xlink:href="#m1675949418" x="162.906446" y="193.159823" style="fill: #ff0000; stroke: #ff0000"/>
     <use xlink:href="#m1675949418" x="164.375264" y="195.083386" style="fill: #ff0000; stroke: #ff0000"/>
     <use xlink:href="#m1675949418" x="165.068976" y="197.602256" style="fill: #ff0000; stroke: #ff0000"/>
     <use xlink:href="#m1675949418" x="165.324215" y="200.852071" style="fill: #ff0000; stroke: #ff0000"/>
     <use xlink:href="#m1675949418" x="165.559921" y="204.780218" style="fill: #ff0000; stroke: #ff0000"/>
     <use xlink:href="#m1675949418" x="166.187132" y="209.145232" style="fill: #ff0000; stroke: #ff0000"/>
     <use xlink:href="#m1675949418" x="167.515831" y="213.571652" style="fill: #ff0000; stroke: #ff0000"/>
     <use xlink:href="#m1675949418" x="169.690454" y="217.649968" style="fill: #ff0000; stroke: #ff0000"/>
     <use xlink:href="#m1675949418" x="172.679607" y="221.046606" style="fill: #ff0000; stroke: #ff0000"/>
     <use xlink:href="#m1675949418" x="176.321591" y="223.582246" style="fill: #ff0000; stroke: #ff0000"/>
     <use xlink:href="#m1675949418" x="180.402547" y="225.251654" style="fill: #ff0000; stroke: #ff0000"/>
     <use xlink:href="#m1675949418" x="184.732888" y="226.182744" style="fill: #ff0000; stroke: #ff0000"/>
     <use xlink:href="#m1675949418" x="189.192409" y="226.554772" style="fill: #ff0000; stroke: #ff0000"/>
     <use xlink:href="#m1675949418" x="193.730504" y="226.510853" style="fill: #ff0000; stroke: #ff0000"/>
     <use xlink:href="#m1675949418" x="198.330026" y="226.103186" style="fill: #ff0000; stroke: #ff0000"/>
     <use xlink:href="#m1675949418" x="202.961785" y="225.293138" style="fill: #ff0000; stroke: #ff0000"/>
     <use xlink:href="#m1675949418" x="207.558251" y="223.99636" style="fill: #ff0000; stroke: #ff0000"/>
     <use xlink:href="#m1675949418" x="212.015969" y="222.137198" style="fill: #ff0000; stroke: #ff0000"/>
     <use xlink:href="#m1675949418" x="216.21264" y="219.679331" style="fill: #ff0000; stroke: #ff0000"/>
     <use xlink:href="#m1675949418" x="220.019389" y="216.62746" style="fill: #ff0000; stroke: #ff0000"/>
     <use xlink:href="#m1675949418" x="223.305338" y="213.019976" style="fill: #ff0000; stroke: #ff0000"/>
     <use xlink:href="#m1675949418" x="225.949821" y="208.931209" style="fill: #ff0000; stroke: #ff0000"/>
     <use xlink:href="#m1675949418" x="227.874262" y="204.479388" style="fill: #ff0000; stroke: #ff0000"/>
     <use xlink:href="#m1675949418" x="229.081591" y="199.819933" style="fill: #ff0000; stroke: #ff0000"/>
     <use xlink:href="#m1675949418" x="229.671087" y="195.11252" style="fill: #ff0000; stroke: #ff0000"/>
     <use xlink:href="#m1675949418" x="229.805256" y="190.476224" style="fill: #ff0000; stroke: #ff0000"/>
     <use xlink:href="#m1675949418" x="229.640443" y="185.963087" style="fill: #ff0000; stroke: #ff0000"/>
    </g>
   </g>
   <g id="matplotlib.axis_1">
    <g id="xtick_1">
     <g id="line2d_1">
      <defs>
       <path id="m1a0f69e776" d="M 0 0 
L 0 3.5 
" style="stroke: #000000; stroke-width: 0.8"/>
      </defs>
      <g>
       <use xlink:href="#m1a0f69e776" x="45" y="320.4" style="stroke: #000000; stroke-width: 0.8"/>
      </g>
     </g>
     <g id="text_1">
      <!-- −3 -->
      <g transform="translate(37.628906 334.998438)scale(0.1 -0.1)">
       <defs>
        <path id="DejaVuSans-2212" d="M 678 2272 
L 4684 2272 
L 4684 1741 
L 678 1741 
L 678 2272 
z
" transform="scale(0.015625)"/>
        <path id="DejaVuSans-33" d="M 2597 2516 
Q 3050 2419 3304 2112 
Q 3559 1806 3559 1356 
Q 3559 666 3084 287 
Q 2609 -91 1734 -91 
Q 1441 -91 1130 -33 
Q 819 25 488 141 
L 488 750 
Q 750 597 1062 519 
Q 1375 441 1716 441 
Q 2309 441 2620 675 
Q 2931 909 2931 1356 
Q 2931 1769 2642 2001 
Q 2353 2234 1838 2234 
L 1294 2234 
L 1294 2753 
L 1863 2753 
Q 2328 2753 2575 2939 
Q 2822 3125 2822 3475 
Q 2822 3834 2567 4026 
Q 2313 4219 1838 4219 
Q 1578 4219 1281 4162 
Q 984 4106 628 3988 
L 628 4550 
Q 988 4650 1302 4700 
Q 1616 4750 1894 4750 
Q 2613 4750 3031 4423 
Q 3450 4097 3450 3541 
Q 3450 3153 3228 2886 
Q 3006 2619 2597 2516 
z
" transform="scale(0.015625)"/>
       </defs>
       <use xlink:href="#DejaVuSans-2212"/>
       <use xlink:href="#DejaVuSans-33" x="83.789062"/>
      </g>
     </g>
    </g>
    <g id="xtick_2">
     <g id="line2d_2">
      <g>
       <use xlink:href="#m1a0f69e776" x="91.577629" y="320.4" style="stroke: #000000; stroke-width: 0.8"/>
      </g>
     </g>
     <g id="text_2">
      <!-- −2 -->
      <g transform="translate(84.206536 334.998438)scale(0.1 -0.1)">
       <defs>
        <path id="DejaVuSans-32" d="M 1228 531 
L 3431 531 
L 3431 0 
L 469 0 
L 469 531 
Q 828 903 1448 1529 
Q 2069 2156 2228 2338 
Q 2531 2678 2651 2914 
Q 2772 3150 2772 3378 
Q 2772 3750 2511 3984 
Q 2250 4219 1831 4219 
Q 1534 4219 1204 4116 
Q 875 4013 500 3803 
L 500 4441 
Q 881 4594 1212 4672 
Q 1544 4750 1819 4750 
Q 2544 4750 2975 4387 
Q 3406 4025 3406 3419 
Q 3406 3131 3298 2873 
Q 3191 2616 2906 2266 
Q 2828 2175 2409 1742 
Q 1991 1309 1228 531 
z
" transform="scale(0.015625)"/>
       </defs>
       <use xlink:href="#DejaVuSans-2212"/>
       <use xlink:href="#DejaVuSans-32" x="83.789062"/>
      </g>
     </g>
    </g>
    <g id="xtick_3">
     <g id="line2d_3">
      <g>
       <use xlink:href="#m1a0f69e776" x="138.155259" y="320.4" style="stroke: #000000; stroke-width: 0.8"/>
      </g>
     </g>
     <g id="text_3">
      <!-- −1 -->
      <g transform="translate(130.784165 334.998438)scale(0.1 -0.1)">
       <defs>
        <path id="DejaVuSans-31" d="M 794 531 
L 1825 531 
L 1825 4091 
L 703 3866 
L 703 4441 
L 1819 4666 
L 2450 4666 
L 2450 531 
L 3481 531 
L 3481 0 
L 794 0 
L 794 531 
z
" transform="scale(0.015625)"/>
       </defs>
       <use xlink:href="#DejaVuSans-2212"/>
       <use xlink:href="#DejaVuSans-31" x="83.789062"/>
      </g>
     </g>
    </g>
    <g id="xtick_4">
     <g id="line2d_4">
      <g>
       <use xlink:href="#m1a0f69e776" x="184.732888" y="320.4" style="stroke: #000000; stroke-width: 0.8"/>
      </g>
     </g>
     <g id="text_4">
      <!-- 0 -->
      <g transform="translate(181.551638 334.998438)scale(0.1 -0.1)">
       <defs>
        <path id="DejaVuSans-30" d="M 2034 4250 
Q 1547 4250 1301 3770 
Q 1056 3291 1056 2328 
Q 1056 1369 1301 889 
Q 1547 409 2034 409 
Q 2525 409 2770 889 
Q 3016 1369 3016 2328 
Q 3016 3291 2770 3770 
Q 2525 4250 2034 4250 
z
M 2034 4750 
Q 2819 4750 3233 4129 
Q 3647 3509 3647 2328 
Q 3647 1150 3233 529 
Q 2819 -91 2034 -91 
Q 1250 -91 836 529 
Q 422 1150 422 2328 
Q 422 3509 836 4129 
Q 1250 4750 2034 4750 
z
" transform="scale(0.015625)"/>
       </defs>
       <use xlink:href="#DejaVuSans-30"/>
      </g>
     </g>
    </g>
    <g id="xtick_5">
     <g id="line2d_5">
      <g>
       <use xlink:href="#m1a0f69e776" x="231.310518" y="320.4" style="stroke: #000000; stroke-width: 0.8"/>
      </g>
     </g>
     <g id="text_5">
      <!-- 1 -->
      <g transform="translate(228.129268 334.998438)scale(0.1 -0.1)">
       <use xlink:href="#DejaVuSans-31"/>
      </g>
     </g>
    </g>
    <g id="xtick_6">
     <g id="line2d_6">
      <g>
       <use xlink:href="#m1a0f69e776" x="277.888147" y="320.4" style="stroke: #000000; stroke-width: 0.8"/>
      </g>
     </g>
     <g id="text_6">
      <!-- 2 -->
      <g transform="translate(274.706897 334.998438)scale(0.1 -0.1)">
       <use xlink:href="#DejaVuSans-32"/>
      </g>
     </g>
    </g>
   </g>
   <g id="matplotlib.axis_2">
    <g id="ytick_1">
     <g id="line2d_7">
      <defs>
       <path id="me97d37e6cc" d="M 0 0 
L -3.5 0 
" style="stroke: #000000; stroke-width: 0.8"/>
      </defs>
      <g>
       <use xlink:href="#me97d37e6cc" x="45" y="320.4" style="stroke: #000000; stroke-width: 0.8"/>
      </g>
     </g>
     <g id="text_7">
      <!-- −3 -->
      <g transform="translate(23.257812 324.199219)scale(0.1 -0.1)">
       <use xlink:href="#DejaVuSans-2212"/>
       <use xlink:href="#DejaVuSans-33" x="83.789062"/>
      </g>
     </g>
    </g>
    <g id="ytick_2">
     <g id="line2d_8">
      <g>
       <use xlink:href="#me97d37e6cc" x="45" y="274.122871" style="stroke: #000000; stroke-width: 0.8"/>
      </g>
     </g>
     <g id="text_8">
      <!-- −2 -->
      <g transform="translate(23.257812 277.92209)scale(0.1 -0.1)">
       <use xlink:href="#DejaVuSans-2212"/>
       <use xlink:href="#DejaVuSans-32" x="83.789062"/>
      </g>
     </g>
    </g>
    <g id="ytick_3">
     <g id="line2d_9">
      <g>
       <use xlink:href="#me97d37e6cc" x="45" y="227.845743" style="stroke: #000000; stroke-width: 0.8"/>
      </g>
     </g>
     <g id="text_9">
      <!-- −1 -->
      <g transform="translate(23.257812 231.644962)scale(0.1 -0.1)">
       <use xlink:href="#DejaVuSans-2212"/>
       <use xlink:href="#DejaVuSans-31" x="83.789062"/>
      </g>
     </g>
    </g>
    <g id="ytick_4">
     <g id="line2d_10">
      <g>
       <use xlink:href="#me97d37e6cc" x="45" y="181.568614" style="stroke: #000000; stroke-width: 0.8"/>
      </g>
     </g>
     <g id="text_10">
      <!-- 0 -->
      <g transform="translate(31.6375 185.367833)scale(0.1 -0.1)">
       <use xlink:href="#DejaVuSans-30"/>
      </g>
     </g>
    </g>
    <g id="ytick_5">
     <g id="line2d_11">
      <g>
       <use xlink:href="#me97d37e6cc" x="45" y="135.291486" style="stroke: #000000; stroke-width: 0.8"/>
      </g>
     </g>
     <g id="text_11">
      <!-- 1 -->
      <g transform="translate(31.6375 139.090705)scale(0.1 -0.1)">
       <use xlink:href="#DejaVuSans-31"/>
      </g>
     </g>
    </g>
    <g id="ytick_6">
     <g id="line2d_12">
      <g>
       <use xlink:href="#me97d37e6cc" x="45" y="89.014357" style="stroke: #000000; stroke-width: 0.8"/>
      </g>
     </g>
     <g id="text_12">
      <!-- 2 -->
      <g transform="translate(31.6375 92.813576)scale(0.1 -0.1)">
       <use xlink:href="#DejaVuSans-32"/>
      </g>
     </g>
    </g>
   </g>
   <g id="PathCollection_2">
    <path d="M 194.048414 203.799568 
L 192.149647 202.856093 
L 191.094684 202.393322 
L 190.78798 202.255328 
L 190.242468 201.46778 
L 188.834513 199.153923 
L 188.557456 197.765609 
L 188.422108 196.840067 
L 188.596867 194.52621 
L 188.294414 193.137896 
L 187.993322 192.106753 
L 187.036807 190.361269 
L 185.484667 188.510184 
L 185.161346 187.584641 
L 184.573461 185.733556 
L 183.801336 183.804377 
L 182.869783 182.382022 
L 181.984029 181.105843 
L 181.432875 180.180301 
L 180.934282 179.717529 
L 176.121908 177.403673 
L 175.386201 176.015359 
L 174.196692 174.164274 
L 174.663938 169.999332 
L 175.417362 168.958407 
L 176.348915 168.542412 
L 178.677796 167.68374 
L 183.894356 164.908848 
L 191.719533 160.045966 
L 193.116861 159.553163 
L 195.445743 159.058061 
L 197.623944 160.743907 
L 199.244901 162.13222 
L 202.046162 165.834391 
L 203.370818 169.536561 
L 203.36394 170.993936 
L 203.829716 172.108894 
L 204.061218 172.77596 
L 205.105679 177.866444 
L 205.692821 179.29262 
L 206.476928 181.105843 
L 206.478401 182.031386 
L 205.974154 187.584641 
L 206.700384 194.52621 
L 206.522553 196.840067 
L 206.292647 197.765609 
L 205.493671 199.616694 
L 204.162745 201.005008 
L 202.898164 201.954479 
L 201.500835 203.02452 
L 200.36995 203.318865 
L 199.171953 203.50132 
L 197.308848 203.586171 
L 194.979967 204.210132 
L 194.048414 203.799568 
L 194.048414 203.799568 
" clip-path="url(#pa57e0097a0)" style="fill: none; stroke-dasharray: 5.55,2.4; stroke-dashoffset: 0; stroke: #000000; stroke-width: 1.5"/>
   </g>
   <g id="PathCollection_3">
    <path d="M 186.595993 226.922625 
L 186.540228 226.9202 
L 186.130217 226.695419 
L 184.732888 226.48157 
L 184.222208 226.457429 
L 183.801336 226.118613 
L 182.839246 225.994658 
L 182.404007 225.635576 
L 181.453034 225.531886 
L 181.006678 225.156415 
L 180.064559 225.069115 
L 179.609349 224.680127 
L 178.674449 224.606344 
L 178.21202 224.206014 
L 177.280467 224.129612 
L 176.814691 223.700919 
L 176.581166 223.680801 
L 174.951586 222.534197 
L 174.48581 222.252607 
L 173.088481 220.881829 
L 170.293823 217.391072 
L 169.674607 216.276461 
L 168.894652 214.888147 
L 167.956005 213.499833 
L 167.384392 212.57429 
L 167.151357 211.648748 
L 166.567613 207.590771 
L 166.020064 203.318865 
L 165.542411 201.930551 
L 164.662727 200.079466 
L 163.278633 198.228381 
L 160.849556 195.451753 
L 159.115192 193.851618 
L 154.923205 190.279597 
L 153.956324 189.435726 
L 152.594324 188.253839 
L 152.124618 188.047412 
L 149.799666 185.96369 
L 149.328177 185.733556 
L 147.005008 183.728682 
L 146.073456 183.025174 
L 145.141903 182.176275 
L 144.646488 182.031386 
L 144.210351 181.65148 
L 143.702627 181.568614 
L 143.278798 181.18128 
L 142.758181 181.105843 
L 142.347245 180.709365 
L 141.828463 180.643072 
L 141.415693 180.235243 
L 140.9054 180.180301 
L 140.48414 179.7657 
L 140.157598 179.717529 
L 140.018364 179.567672 
L 139.792184 178.791987 
L 139.541997 178.329215 
L 139.533601 177.866444 
L 138.355042 174.627045 
L 136.992655 170.924875 
L 137.246915 169.999332 
L 137.996255 168.148247 
L 138.433223 166.297162 
L 139.278542 164.446077 
L 140.003238 163.057763 
L 140.133467 162.594992 
L 140.464279 162.13222 
L 140.564987 161.669449 
L 140.92551 161.206678 
L 140.996506 160.743907 
L 141.389771 160.281135 
L 141.502663 159.818364 
L 142.303731 158.892821 
L 142.347245 158.429952 
L 143.216888 157.504508 
L 143.278798 157.038346 
L 145.141903 156.281598 
L 145.616974 156.116194 
L 147.005008 154.83371 
L 147.614646 154.265109 
L 147.936561 153.981198 
L 148.868114 153.700496 
L 149.33389 153.477976 
L 149.957381 153.339566 
L 150.265442 153.097643 
L 151.196995 152.784669 
L 153.991653 151.686966 
L 154.923205 151.53281 
L 156.320534 151.341668 
L 158.183639 151.154454 
L 159.580968 150.990949 
L 160.046745 150.768922 
L 161.537195 150.562938 
L 161.90985 150.336501 
L 163.458503 150.100167 
L 163.772955 149.830563 
L 164.410107 149.637396 
L 164.704508 149.355873 
L 165.334783 149.174624 
L 165.63606 148.887179 
L 166.258568 148.711853 
L 166.567613 148.41775 
L 167.181283 148.249082 
L 167.499165 147.947443 
L 168.102699 147.786311 
L 168.430718 147.476084 
L 169.022486 147.323539 
L 169.36227 147.003414 
L 169.940235 146.860768 
L 170.293823 146.529126 
L 170.855364 146.397997 
L 171.225376 146.052178 
L 171.759991 145.935225 
L 172.156928 145.55941 
L 172.649464 145.472454 
L 173.088481 145.059054 
L 173.554257 144.90336 
L 178.21202 141.478656 
L 179.245032 140.844741 
L 181.472454 140.203677 
L 182.404007 139.839461 
L 187.70777 138.068114 
L 193.582638 136.107354 
L 195.520663 136.217028 
L 201.035058 137.050242 
L 203.36394 137.306754 
L 204.761269 138.029444 
L 208.487479 140.019132 
L 210.422933 140.844741 
L 211.283391 141.770284 
L 215.626996 147.323539 
L 219.66611 150.786963 
L 220.836409 151.951252 
L 221.353741 153.339566 
L 223.11888 158.43005 
L 225.428293 163.057763 
L 226.505959 165.371619 
L 226.6544 165.834391 
L 226.972141 168.611018 
L 227.671619 173.701503 
L 229.022249 179.254758 
L 229.213533 182.494157 
L 229.591786 186.659098 
L 229.661918 190.361269 
L 230.236681 193.137896 
L 230.378302 194.063439 
L 230.094688 195.914524 
L 229.165008 198.691152 
L 228.847453 199.616694 
L 228.204151 202.393322 
L 227.564395 204.707179 
L 227.584307 206.632368 
L 227.247179 207.021035 
L 227.118531 207.542399 
L 226.733386 207.946578 
L 226.564602 208.409349 
L 225.830326 209.334891 
L 225.721202 209.85125 
L 225.340508 210.260434 
L 225.255426 210.743582 
L 224.438433 211.648748 
L 224.114771 212.111519 
L 222.641027 213.499833 
L 220.852844 214.425376 
L 220.597663 214.939744 
L 219.66611 215.47624 
L 218.268781 217.366836 
L 217.706611 217.664775 
L 216.871452 218.443225 
L 214.076795 220.194748 
L 211.282137 221.750756 
L 206.786928 224.143573 
L 206.624374 224.152924 
L 205.905419 224.606344 
L 205.692821 224.615998 
L 204.981271 225.069115 
L 204.295492 225.108318 
L 203.631356 225.531886 
L 202.898164 225.566178 
L 202.432387 225.681702 
L 201.966611 225.996718 
L 200.103506 226.078714 
L 199.420612 226.457429 
L 197.774624 226.514782 
L 196.377295 226.931332 
L 189.856427 227.015468 
L 187.993322 226.934345 
L 186.595993 226.922625 
L 186.595993 226.922625 
" clip-path="url(#pa57e0097a0)" style="fill: none; stroke: #000000; stroke-width: 1.5"/>
   </g>
   <g id="PathCollection_4">
    <path d="M 187.06177 249.157653 
L 186.689824 249.133222 
L 186.595993 249.127059 
L 186.130217 249.096475 
L 185.664441 249.065888 
L 185.198664 249.0353 
L 184.732888 249.004707 
L 184.267112 248.974121 
L 183.801336 248.943534 
L 183.335559 248.912953 
L 182.869783 248.882361 
L 182.404007 248.857949 
L 181.93823 248.840084 
L 181.472454 248.826839 
L 181.006678 248.813598 
L 180.540902 248.800356 
L 180.075125 248.787109 
L 179.609349 248.773868 
L 179.143573 248.760623 
L 178.677796 248.747376 
L 178.21202 248.734135 
L 177.746244 248.720889 
L 177.280467 248.707647 
L 176.814691 248.6944 
L 176.348915 248.681157 
L 175.972362 248.670451 
L 175.883139 248.667914 
L 175.417362 248.654668 
L 174.951586 248.641427 
L 174.48581 248.587933 
L 174.020033 248.434967 
L 173.554257 248.282 
L 173.327951 248.207679 
L 173.088481 248.129039 
L 172.622705 247.97607 
L 172.156928 247.823112 
L 172.015567 247.744908 
L 171.691152 247.554294 
L 171.267763 247.282137 
L 171.225376 247.25489 
L 170.759599 246.955491 
L 170.547828 246.819366 
L 170.293823 246.656089 
L 169.828047 246.35669 
L 169.827898 246.356594 
L 169.36227 246.057289 
L 169.10797 245.893823 
L 168.896494 245.757888 
L 168.430718 245.45849 
L 168.388032 245.431052 
L 167.964942 245.159091 
L 167.6681 244.96828 
L 167.499165 244.859688 
L 167.033389 244.56029 
L 166.948165 244.505509 
L 166.567613 244.260894 
L 166.228239 244.042738 
L 166.101836 243.961485 
L 165.63606 243.661224 
L 165.510972 243.579967 
L 165.170284 243.358659 
L 164.79858 243.117195 
L 164.704508 243.056084 
L 164.238731 242.753525 
L 164.086175 242.654424 
L 163.772955 242.450958 
L 163.373778 242.191653 
L 163.307179 242.148388 
L 162.841402 241.845828 
L 162.661376 241.728881 
L 162.375626 241.543257 
L 161.948982 241.26611 
L 161.90985 241.24069 
L 161.444073 240.938123 
L 161.236581 240.803339 
L 160.978297 240.635558 
L 160.524199 240.340568 
L 160.512521 240.332982 
L 160.046745 240.03042 
L 159.811792 239.877796 
L 159.580968 239.727853 
L 159.115192 239.425286 
L 159.099395 239.415025 
L 158.649416 239.122724 
L 158.372277 238.952254 
L 158.183639 238.833814 
L 157.812784 238.489482 
L 157.717863 238.38001 
L 157.411522 238.026711 
L 157.252087 237.842846 
L 157.010241 237.56394 
L 156.786311 237.305682 
L 156.609064 237.101169 
L 156.320534 236.768449 
L 156.208112 236.638397 
L 155.854758 236.231022 
L 155.805167 236.175626 
L 155.389575 235.712855 
L 155.388982 235.712198 
L 154.961984 235.250083 
L 154.923205 235.208118 
L 154.534363 234.787312 
L 154.457429 234.699614 
L 154.147353 234.324541 
L 153.991653 234.149618 
L 153.693904 233.86177 
L 153.525876 233.701776 
L 153.207887 233.398998 
L 153.0601 233.258283 
L 152.72187 232.936227 
L 152.594324 232.814776 
L 152.235848 232.473456 
L 152.128548 232.371288 
L 151.749846 232.010684 
L 151.662771 231.927777 
L 151.263827 231.547913 
L 151.196995 231.484277 
L 150.777803 231.085142 
L 150.731219 231.040785 
L 150.291821 230.622371 
L 150.265442 230.597254 
L 149.808167 230.159599 
L 149.799666 230.149542 
L 149.490608 229.696828 
L 149.33389 229.467218 
L 149.174785 229.234057 
L 148.868114 228.784663 
L 148.859001 228.771285 
L 148.547147 228.308514 
L 148.402337 228.093363 
L 148.235682 227.845743 
L 147.936561 227.401309 
L 147.92424 227.382972 
L 147.680273 226.9202 
L 147.502305 226.457429 
L 147.470785 226.375462 
L 147.324347 225.994658 
L 147.146389 225.531886 
L 147.005008 225.164245 
L 146.968424 225.069115 
L 146.790466 224.606344 
L 146.612504 224.143573 
L 146.539232 223.953039 
L 146.434543 223.680801 
L 146.256591 223.21803 
L 146.078629 222.755259 
L 146.073456 222.741807 
L 145.900668 222.292487 
L 145.722703 221.829716 
L 145.607679 221.530603 
L 145.544745 221.366945 
L 145.366785 220.904174 
L 145.18883 220.441402 
L 145.141903 220.319368 
L 145.010876 219.978631 
L 144.832907 219.51586 
L 144.676127 219.09266 
L 144.662001 219.053088 
L 144.498319 218.590317 
L 144.2947 218.127546 
L 144.210351 217.978084 
L 144.026527 217.664775 
L 143.755012 217.202003 
L 143.744574 217.184213 
L 143.483499 216.739232 
L 143.278798 216.390346 
L 143.21198 216.276461 
L 142.94047 215.813689 
L 142.813022 215.596473 
L 142.668951 215.350918 
L 142.397431 214.888147 
L 142.347245 214.802609 
L 142.125922 214.425376 
L 141.881469 214.008739 
L 141.854401 213.962604 
L 141.575834 213.499833 
L 141.415693 213.257055 
L 141.26807 213.037062 
L 140.949917 212.646067 
L 140.886537 212.57429 
L 140.48414 212.148936 
L 140.449101 212.111519 
L 140.086266 211.648748 
L 140.018364 211.55101 
L 139.764754 211.185977 
L 139.552588 210.880586 
L 139.44203 210.723205 
L 139.111434 210.260434 
L 139.086811 210.226047 
L 138.78006 209.797663 
L 138.621035 209.575577 
L 138.448699 209.334891 
L 138.155259 208.925103 
L 138.117317 208.87212 
L 137.785967 208.409349 
L 137.689482 208.274611 
L 137.454584 207.946578 
L 137.223706 207.624141 
L 137.123219 207.483806 
L 136.791853 207.021035 
L 136.75793 206.973659 
L 136.460471 206.558264 
L 136.292154 206.323204 
L 136.129098 206.095492 
L 135.826377 205.688454 
L 135.782972 205.632721 
L 135.360601 205.201179 
L 135.330038 205.16995 
L 134.894825 204.72526 
L 134.877127 204.707179 
L 134.429048 204.253675 
L 134.419888 204.244407 
L 134.005895 203.781636 
L 133.963272 203.729581 
L 133.626978 203.318865 
L 133.497496 203.160719 
L 133.248076 202.856093 
L 133.03172 202.591853 
L 132.869163 202.393322 
L 132.565943 202.05098 
L 132.460233 201.930551 
L 132.100167 201.550627 
L 132.021647 201.46778 
L 131.634391 201.079311 
L 131.557941 201.005008 
L 131.168614 200.664626 
L 131.028625 200.542237 
L 130.702838 200.25742 
L 130.499286 200.079466 
L 130.237062 199.850214 
L 129.969963 199.616694 
L 129.771285 199.443003 
L 129.44063 199.153923 
L 129.305509 199.035788 
L 128.911313 198.691152 
L 128.839733 198.627405 
L 128.382147 198.228381 
L 128.373957 198.22096 
L 127.90818 197.805232 
L 127.862725 197.765609 
L 127.442404 197.384934 
L 127.350406 197.302838 
L 126.976628 196.964706 
L 126.83876 196.840067 
L 126.510851 196.543448 
L 126.327176 196.377295 
L 126.045075 196.122106 
L 125.815594 195.914524 
L 125.579299 195.70078 
L 125.304 195.451753 
L 125.113523 195.279445 
L 124.792426 194.988982 
L 124.647746 194.85811 
L 124.280849 194.52621 
L 124.18197 194.436764 
L 123.769254 194.063439 
L 123.716194 194.015441 
L 123.257696 193.600668 
L 123.250417 193.594083 
L 122.784641 193.172748 
L 122.748865 193.137896 
L 122.387113 192.675125 
L 122.318865 192.573307 
L 122.076918 192.212354 
L 121.853088 191.87841 
L 121.766741 191.749583 
L 121.4633 191.286811 
L 121.387312 191.167342 
L 121.185853 190.82404 
L 120.921536 190.373625 
L 120.914285 190.361269 
L 120.642704 189.898497 
L 120.45576 189.579913 
L 120.371148 189.435726 
L 120.099573 188.972955 
L 119.989983 188.786198 
L 119.828129 188.510184 
L 119.556461 188.047412 
L 119.524207 187.992449 
L 119.285222 187.584641 
L 119.058431 187.138286 
L 119.050746 187.12187 
L 118.900749 186.659098 
L 118.750736 186.196327 
L 118.60073 185.733556 
L 118.592654 185.708643 
L 118.45073 185.270785 
L 118.300722 184.808013 
L 118.126878 184.495488 
L 118.036905 184.345242 
L 117.661102 183.981363 
L 117.558705 183.882471 
L 117.202734 183.419699 
L 117.195326 183.395096 
L 117.063372 182.956928 
L 116.924003 182.494157 
L 116.784649 182.031386 
L 116.729549 181.848419 
L 116.645287 181.568614 
L 116.507066 181.105843 
L 116.369915 180.643072 
L 116.263773 180.284932 
L 116.232764 180.180301 
L 116.095617 179.717529 
L 115.958466 179.254758 
L 115.821334 178.791987 
L 115.797997 178.71324 
L 115.684186 178.329215 
L 115.549072 177.866444 
L 115.441164 177.403673 
L 115.343365 176.940902 
L 115.33222 176.88817 
L 115.24556 176.47813 
L 115.14775 176.015359 
L 115.049943 175.552588 
L 115.006142 175.089816 
L 115.00332 174.627045 
L 115.000227 174.164274 
L 114.997064 173.701503 
L 114.993109 173.238731 
L 114.9891 172.77596 
L 114.97972 172.313189 
L 114.967835 171.850417 
L 114.955943 171.387646 
L 114.944046 170.924875 
L 114.932154 170.462104 
L 114.920268 169.999332 
L 114.908379 169.536561 
L 114.896487 169.07379 
L 114.884593 168.611018 
L 114.888014 168.148247 
L 114.917606 167.685476 
L 114.942444 167.222705 
L 114.960315 166.759933 
L 114.97818 166.297162 
L 114.996049 165.834391 
L 115.013919 165.371619 
L 115.031782 164.908848 
L 115.077811 164.446077 
L 115.165195 163.983306 
L 115.252586 163.520534 
L 115.33222 163.09884 
L 115.339978 163.057763 
L 115.427366 162.594992 
L 115.514025 162.13222 
L 115.597774 161.669449 
L 115.665743 161.206678 
L 115.738761 160.743907 
L 115.797997 160.575743 
L 115.911586 160.281135 
L 116.090709 159.818364 
L 116.263773 159.370554 
L 116.269521 159.355593 
L 116.448409 158.892821 
L 116.627259 158.43005 
L 116.729549 158.165376 
L 116.805925 157.967279 
L 116.984959 157.504508 
L 117.163437 157.041736 
L 117.195326 156.960205 
L 117.342662 156.578965 
L 117.51981 156.116194 
L 117.661102 155.755012 
L 117.700271 155.653422 
L 117.876159 155.190651 
L 118.056123 154.72788 
L 118.126878 154.543889 
L 118.232459 154.265109 
L 118.416916 153.802337 
L 118.592654 153.438885 
L 118.643792 153.339566 
L 118.885917 152.876795 
L 119.058431 152.54769 
L 119.127242 152.414023 
L 119.369735 151.951252 
L 119.524207 151.65651 
L 119.610693 151.488481 
L 119.853565 151.02571 
L 119.989983 150.765367 
L 120.094154 150.562938 
L 120.337406 150.100167 
L 120.45576 149.874244 
L 120.577614 149.637396 
L 120.821238 149.174624 
L 120.921536 149.014401 
L 121.123058 148.711853 
L 121.387312 148.355965 
L 121.464814 148.249082 
L 121.799081 147.786311 
L 121.853088 147.713593 
L 122.135923 147.323539 
L 122.318865 147.071242 
L 122.471484 146.860768 
L 122.784641 146.428907 
L 122.807055 146.397997 
L 123.14261 145.935225 
L 123.250417 145.78655 
L 123.478174 145.472454 
L 123.716194 145.144197 
L 123.813732 145.009683 
L 124.149293 144.546912 
L 124.18197 144.504113 
L 124.544975 144.08414 
L 124.647746 143.983894 
L 125.019397 143.621369 
L 125.113523 143.529555 
L 125.493818 143.158598 
L 125.579299 143.075216 
L 125.968245 142.695826 
L 126.045075 142.620884 
L 126.442677 142.233055 
L 126.510851 142.166557 
L 126.917103 141.770284 
L 126.976628 141.71222 
L 127.391523 141.307513 
L 127.442404 141.25788 
L 127.865954 140.844741 
L 127.90818 140.803553 
L 128.340379 140.38197 
L 128.373957 140.349216 
L 128.814795 139.919199 
L 128.839733 139.894874 
L 129.28922 139.456427 
L 129.305509 139.440538 
L 129.763628 138.993656 
L 129.771285 138.986187 
L 130.237062 138.577332 
L 130.304023 138.530885 
L 130.702838 138.266119 
L 130.992792 138.068114 
L 131.168614 137.934614 
L 131.634391 137.672066 
L 131.789334 137.605342 
L 132.100167 137.473207 
L 132.565943 137.275204 
L 132.877949 137.142571 
L 133.03172 137.077204 
L 133.497496 136.879196 
L 133.963272 136.684911 
L 133.976015 136.6798 
L 134.429048 136.502187 
L 134.894825 136.319572 
L 135.156371 136.217028 
L 135.360601 136.136955 
L 135.826377 135.954341 
L 136.292154 135.7716 
L 136.336148 135.754257 
L 136.75793 135.587557 
L 137.223706 135.40391 
L 137.507149 135.291486 
L 137.689482 135.219165 
L 138.155259 135.034417 
L 138.621035 134.849668 
L 138.67357 134.828715 
L 139.086811 134.663392 
L 139.552588 134.47346 
L 139.816225 134.365943 
L 140.018364 134.283507 
L 140.48414 134.093566 
L 140.949917 133.903627 
L 140.950831 133.903172 
L 141.415693 133.629512 
L 141.722593 133.440401 
L 141.881469 133.3425 
L 142.347245 133.055491 
L 142.473603 132.977629 
L 142.813022 132.768485 
L 143.224622 132.514858 
L 143.278798 132.481475 
L 143.744574 132.19447 
L 143.975646 132.052087 
L 144.210351 131.907464 
L 144.676127 131.620455 
L 144.726662 131.589316 
L 145.141903 131.333446 
L 145.477672 131.126544 
L 145.607679 131.046435 
L 146.073456 130.759432 
L 146.228696 130.663773 
L 146.539232 130.472419 
L 146.979708 130.201002 
L 147.005008 130.185412 
L 147.470785 129.916273 
L 147.915676 129.73823 
L 147.936561 129.729873 
L 148.402337 129.543473 
L 148.868114 129.357074 
L 149.072048 129.275459 
L 149.33389 129.170671 
L 149.799666 128.984277 
L 150.228405 128.812688 
L 150.265442 128.797865 
L 150.731219 128.611482 
L 151.196995 128.425081 
L 151.384811 128.349917 
L 151.662771 128.238677 
L 152.128548 128.050264 
L 152.529784 127.887145 
L 152.594324 127.860729 
L 153.0601 127.670338 
L 153.525876 127.480788 
L 153.66071 127.424374 
L 153.991653 127.282162 
L 154.457429 127.045004 
L 154.620236 126.961603 
L 154.923205 126.805509 
L 155.388982 126.567739 
L 155.523401 126.498831 
L 155.854758 126.328676 
L 156.320534 126.090177 
L 156.426099 126.03606 
L 156.786311 125.851402 
L 157.252087 125.612614 
L 157.328797 125.573289 
L 157.717863 125.373836 
L 158.183639 125.135052 
L 158.231495 125.110518 
L 158.649416 124.896273 
L 159.115192 124.657498 
L 159.134215 124.647746 
L 159.580968 124.418712 
L 160.036896 124.184975 
L 160.046745 124.180111 
L 160.512521 123.98285 
L 160.978297 123.833278 
L 161.320074 123.722204 
L 161.444073 123.681522 
L 161.90985 123.528992 
L 162.375626 123.376917 
L 162.736392 123.259432 
L 162.841402 123.224597 
L 163.307179 123.068751 
L 163.772955 122.908426 
L 164.097622 122.796661 
L 164.238731 122.748069 
L 164.704508 122.587671 
L 165.170284 122.427273 
L 165.441428 122.33389 
L 165.63606 122.266858 
L 166.101836 122.098942 
L 166.567613 121.90354 
L 166.640987 121.871119 
L 167.033389 121.697731 
L 167.499165 121.491946 
L 167.688366 121.408347 
L 167.964942 121.286141 
L 168.430718 121.080344 
L 168.735725 120.945576 
L 168.896494 120.875641 
L 169.36227 120.712933 
L 169.828047 120.567615 
L 170.099866 120.482805 
L 170.293823 120.422287 
L 170.759599 120.276952 
L 171.225376 120.131612 
L 171.58297 120.020033 
L 171.691152 119.986279 
L 172.156928 119.840949 
L 172.622705 119.695615 
L 173.066104 119.557262 
L 173.088481 119.55028 
L 173.554257 119.404945 
L 174.020033 119.259612 
L 174.48581 119.114272 
L 174.549209 119.094491 
L 174.951586 118.968947 
L 175.417362 118.821477 
L 175.883139 118.671092 
L 176.003658 118.63172 
L 176.348915 118.517337 
L 176.814691 118.363033 
L 177.280467 118.208721 
L 177.400529 118.168948 
L 177.746244 118.054424 
L 178.21202 117.900114 
L 178.677796 117.745809 
L 178.797424 117.706177 
L 179.143573 117.591501 
L 179.609349 117.437195 
L 180.075125 117.282885 
L 180.194298 117.243406 
L 180.540902 117.128584 
L 181.006678 116.974271 
L 181.472454 116.819961 
L 181.591159 116.780634 
L 181.93823 116.665652 
L 182.404007 116.510339 
L 182.869783 116.350816 
L 182.96329 116.317863 
L 183.335559 116.186669 
L 183.801336 116.022531 
L 184.267112 115.858391 
L 184.276475 115.855092 
L 184.732888 115.694256 
L 185.198664 115.53012 
L 185.589705 115.392321 
L 185.664441 115.365984 
L 186.130217 115.201838 
L 186.595993 115.0377 
L 186.902904 114.929549 
L 187.06177 114.873567 
L 187.527546 114.709432 
L 187.993322 114.545292 
L 188.216119 114.466778 
L 188.459098 114.381152 
L 188.924875 114.217012 
L 189.390651 114.052867 
L 189.5293 114.004007 
L 189.856427 113.888726 
L 190.322204 113.724592 
L 190.78798 113.579393 
L 190.924795 113.541235 
L 191.253756 113.44949 
L 191.719533 113.319577 
L 192.185309 113.189674 
L 192.584042 113.078464 
L 192.651085 113.059765 
L 193.116861 112.929854 
L 193.582638 112.799945 
L 194.048414 112.699893 
L 194.337703 112.615693 
L 194.51419 112.564253 
L 194.979967 112.502954 
L 195.445743 112.441734 
L 195.911519 112.380519 
L 196.377295 112.41075 
L 196.843072 112.470656 
L 197.308848 112.530555 
L 197.774624 112.590458 
L 197.970859 112.615693 
L 198.240401 112.650354 
L 198.706177 112.710264 
L 199.171953 112.770162 
L 199.63773 112.830059 
L 200.103506 112.889954 
L 200.569282 112.94986 
L 201.035058 113.009759 
L 201.500835 113.069672 
L 201.550086 113.078464 
L 201.966611 113.156293 
L 202.432387 113.257867 
L 202.898164 113.359444 
L 203.36394 113.46102 
L 203.731787 113.541235 
L 203.829716 113.562591 
L 204.295492 113.664173 
L 204.761269 113.765746 
L 205.227045 113.86732 
L 205.692821 113.968897 
L 205.853813 114.004007 
L 206.158598 114.070475 
L 206.624374 114.172053 
L 207.09015 114.257314 
L 207.555927 114.339117 
L 208.021703 114.420918 
L 208.282845 114.466778 
L 208.487479 114.502714 
L 208.953255 114.584521 
L 209.419032 114.666312 
L 209.884808 114.748107 
L 210.350584 114.829902 
L 210.816361 114.911715 
L 210.917919 114.929549 
L 211.282137 114.993505 
L 211.747913 115.07552 
L 212.213689 115.157537 
L 212.679466 115.239553 
L 213.145242 115.321575 
L 213.54701 115.392321 
L 213.611018 115.403592 
L 214.076795 115.485615 
L 214.542571 115.567627 
L 215.008347 115.649649 
L 215.474124 115.731667 
L 215.9399 115.851707 
L 215.949297 115.855092 
L 216.405676 116.019494 
L 216.871452 116.191676 
L 217.210876 116.317863 
L 217.337229 116.366352 
L 217.803005 116.684724 
L 217.925102 116.780634 
L 218.268781 117.050611 
L 218.514219 117.243406 
L 218.734558 117.416969 
L 219.089763 117.706177 
L 219.200334 117.799078 
L 219.640557 118.168948 
L 219.66611 118.190417 
L 220.131886 118.581769 
L 220.191337 118.63172 
L 220.597663 118.973111 
L 220.742125 119.094491 
L 221.063439 119.374798 
L 221.239769 119.557262 
L 221.529215 119.860307 
L 221.750907 120.020033 
L 221.994992 120.195889 
L 222.348579 120.482805 
L 222.460768 120.573855 
L 222.901235 120.945576 
L 222.926544 120.966934 
L 223.392321 121.360026 
L 223.449577 121.408347 
L 223.858097 121.753123 
L 223.997909 121.871119 
L 224.323873 122.146218 
L 224.546238 122.33389 
L 224.789649 122.539317 
L 225.094582 122.796661 
L 225.255426 122.932406 
L 225.642914 123.259432 
L 225.721202 123.325504 
L 226.186978 123.718596 
L 226.191253 123.722204 
L 226.652755 124.111693 
L 226.739584 124.184975 
L 227.118531 124.50479 
L 227.284196 124.647746 
L 227.584307 124.908954 
L 227.807833 125.110518 
L 228.050083 125.328885 
L 228.32121 125.573289 
L 228.51586 125.753608 
L 228.808756 126.03606 
L 228.981636 126.205199 
L 229.281761 126.498831 
L 229.447412 126.660892 
L 229.754774 126.961603 
L 229.913189 127.116594 
L 230.227776 127.424374 
L 230.378965 127.572291 
L 230.70078 127.887145 
L 230.844741 128.027989 
L 231.173801 128.349917 
L 231.310518 128.483675 
L 231.646808 128.812688 
L 231.776294 128.939368 
L 232.119807 129.275459 
L 232.24207 129.39508 
L 232.592822 129.73823 
L 232.707846 129.850765 
L 233.065812 130.201002 
L 233.173623 130.306478 
L 233.538823 130.663773 
L 233.639399 130.762174 
L 234.011834 131.126544 
L 234.105175 131.217865 
L 234.484841 131.589316 
L 234.570952 131.673562 
L 234.957845 132.052087 
L 235.036728 132.129263 
L 235.430855 132.514858 
L 235.502504 132.584956 
L 235.903863 132.977629 
L 235.96828 133.040656 
L 236.37687 133.440401 
L 236.434057 133.496348 
L 236.819177 133.903172 
L 236.899833 133.997543 
L 237.211439 134.365943 
L 237.365609 134.548205 
L 237.602889 134.828715 
L 237.831386 135.098849 
L 237.994328 135.291486 
L 238.297162 135.649511 
L 238.385762 135.754257 
L 238.762938 136.200155 
L 238.777211 136.217028 
L 239.168647 136.6798 
L 239.228715 136.750815 
L 239.553741 137.142571 
L 239.694491 137.4116 
L 239.779266 137.605342 
L 239.991921 138.068114 
L 240.160267 138.434467 
L 240.204573 138.530885 
L 240.41724 138.993656 
L 240.626043 139.448054 
L 240.629891 139.456427 
L 240.842552 139.919199 
L 241.05521 140.38197 
L 241.09182 140.461637 
L 241.267873 140.844741 
L 241.480529 141.307513 
L 241.557596 141.475223 
L 241.693184 141.770284 
L 241.905839 142.233055 
L 242.023372 142.488818 
L 242.118503 142.695826 
L 242.331173 143.158598 
L 242.489149 143.502383 
L 242.543824 143.621369 
L 242.768422 144.08414 
L 242.954925 144.435257 
L 243.014269 144.546912 
L 243.260842 145.009683 
L 243.420701 145.375525 
L 243.460722 145.472454 
L 243.608702 145.935225 
L 243.756689 146.397997 
L 243.886477 146.803877 
L 243.90467 146.860768 
L 244.052651 147.323539 
L 244.200634 147.786311 
L 244.348618 148.249082 
L 244.352254 148.260452 
L 244.496604 148.711853 
L 244.646698 149.174624 
L 244.808008 149.637396 
L 244.81803 149.666146 
L 244.96933 150.100167 
L 245.130651 150.562938 
L 245.283806 151.002262 
L 245.29198 151.02571 
L 245.45329 151.488481 
L 245.614608 151.951252 
L 245.749583 152.338435 
L 245.775933 152.414023 
L 245.937254 152.876795 
L 246.098577 153.339566 
L 246.215359 153.674577 
L 246.259894 153.802337 
L 246.421213 154.265109 
L 246.613127 154.72788 
L 246.681135 154.884987 
L 246.813452 155.190651 
L 247.013957 155.653422 
L 247.146912 155.958848 
L 247.215378 156.116194 
L 247.416916 156.578965 
L 247.612688 157.028498 
L 247.618453 157.041736 
L 247.819986 157.504508 
L 248.018468 157.967279 
L 248.078464 158.108308 
L 248.215338 158.43005 
L 248.412194 158.892821 
L 248.54424 159.203205 
L 248.609071 159.355593 
L 248.805936 159.818364 
L 249.002802 160.281135 
L 249.010017 160.298095 
L 249.199666 160.743907 
L 249.39652 161.206678 
L 249.475793 161.393019 
L 249.593393 161.669449 
L 249.693028 162.13222 
L 249.74957 162.594992 
L 249.806112 163.057763 
L 249.862649 163.520534 
L 249.919198 163.983306 
L 249.941569 164.166393 
L 249.975743 164.446077 
L 250.03228 164.908848 
L 250.088825 165.371619 
L 250.145367 165.834391 
L 250.201906 166.297162 
L 250.267419 166.759933 
L 250.397632 167.222705 
L 250.407346 167.246914 
L 250.583314 167.685476 
L 250.743165 168.148247 
L 250.873122 168.586517 
L 250.880387 168.611018 
L 251.017616 169.07379 
L 251.154839 169.536561 
L 251.29207 169.999332 
L 251.338898 170.157249 
L 251.429299 170.462104 
L 251.566513 170.924875 
L 251.703739 171.387646 
L 251.804674 171.728035 
L 251.840964 171.850417 
L 251.978184 172.313189 
L 252.115408 172.77596 
L 252.252644 173.238731 
L 252.270451 173.298782 
L 252.389867 173.701503 
L 252.527083 174.164274 
L 252.586488 174.627045 
L 252.633038 175.089816 
L 252.656708 175.552588 
L 252.661185 176.015359 
L 252.665659 176.47813 
L 252.670134 176.940902 
L 252.674611 177.403673 
L 252.670005 177.866444 
L 252.676916 178.329215 
L 252.683898 178.791987 
L 252.690877 179.254758 
L 252.697855 179.717529 
L 252.704837 180.180301 
L 252.711999 180.643072 
L 252.720056 181.105843 
L 252.728126 181.568614 
L 252.736188 182.031386 
L 252.736227 182.03361 
L 252.74425 182.494157 
L 252.752315 182.956928 
L 252.760377 183.419699 
L 252.768447 183.882471 
L 252.776507 184.345242 
L 252.784572 184.808013 
L 252.792639 185.270785 
L 252.800703 185.733556 
L 252.808759 186.196327 
L 252.816826 186.659098 
L 252.824892 187.12187 
L 252.832959 187.584641 
L 252.844647 188.047412 
L 252.86401 188.510184 
L 252.883904 188.972955 
L 252.903794 189.435726 
L 252.923692 189.898497 
L 252.943591 190.361269 
L 252.963478 190.82404 
L 252.983368 191.286811 
L 253.003267 191.749583 
L 253.041254 192.212354 
L 253.123569 192.675125 
L 253.202003 193.116043 
L 253.205891 193.137896 
L 253.288215 193.600668 
L 253.370542 194.063439 
L 253.452859 194.52621 
L 253.535183 194.988982 
L 253.617508 195.451753 
L 253.66778 195.734317 
L 253.700039 195.914524 
L 253.786832 196.377295 
L 253.873786 196.840067 
L 253.915514 197.302838 
L 253.860784 197.765609 
L 253.806054 198.228381 
L 253.751328 198.691152 
L 253.696597 199.153923 
L 253.66778 199.397592 
L 253.641868 199.616694 
L 253.587143 200.079466 
L 253.532417 200.542237 
L 253.449669 201.005008 
L 253.296311 201.46778 
L 253.202003 201.752366 
L 253.142957 201.930551 
L 252.993949 202.393322 
L 252.84914 202.856093 
L 252.736227 203.216939 
L 252.704333 203.318865 
L 252.559523 203.781636 
L 252.414715 204.244407 
L 252.270451 204.705457 
L 252.269912 204.707179 
L 252.125107 205.16995 
L 251.980301 205.632721 
L 251.835491 206.095492 
L 251.804674 206.193975 
L 251.690686 206.558264 
L 251.545881 207.021035 
L 251.401081 207.483806 
L 251.338898 207.682513 
L 251.256264 207.946578 
L 251.111464 208.409349 
L 250.966656 208.87212 
L 250.873122 209.171032 
L 250.821847 209.334891 
L 250.677041 209.797663 
L 250.532232 210.260434 
L 250.407346 210.659553 
L 250.387429 210.723205 
L 250.242621 211.185977 
L 250.097812 211.648748 
L 249.95301 212.111519 
L 249.941569 212.148082 
L 249.79957 212.57429 
L 249.608139 213.037062 
L 249.4814 213.499833 
L 249.475793 213.521888 
L 249.363758 213.962604 
L 249.24612 214.425376 
L 249.128481 214.888147 
L 249.010837 215.350918 
L 249.010017 215.354146 
L 248.893198 215.813689 
L 248.775553 216.276461 
L 248.584481 216.739232 
L 248.54424 216.803368 
L 248.293853 217.202003 
L 248.078464 217.529693 
L 247.988409 217.664775 
L 247.679158 218.127546 
L 247.612688 218.227016 
L 247.369908 218.590317 
L 247.146912 218.924012 
L 247.061862 219.053088 
L 246.807209 219.51586 
L 246.681135 219.759341 
L 246.555057 219.978631 
L 246.284467 220.441402 
L 246.215359 220.559816 
L 246.014378 220.904174 
L 245.749583 221.357881 
L 245.744292 221.366945 
L 245.474211 221.829716 
L 245.283806 222.15594 
L 245.204108 222.292487 
L 244.934019 222.755259 
L 244.81803 222.953988 
L 244.663923 223.21803 
L 244.393834 223.680801 
L 244.352254 223.738987 
L 244.041134 224.143573 
L 243.886477 224.340351 
L 243.677427 224.606344 
L 243.420701 224.932991 
L 243.313715 225.069115 
L 242.954925 225.525645 
L 242.950019 225.531886 
L 242.586304 225.994658 
L 242.489149 226.106679 
L 242.157506 226.457429 
L 242.023372 226.595231 
L 241.706701 226.9202 
L 241.557596 227.073209 
L 241.255732 227.382972 
L 241.09182 227.551177 
L 240.804761 227.845743 
L 240.626043 228.029132 
L 240.353789 228.308514 
L 240.160267 228.507102 
L 239.902821 228.771285 
L 239.694491 228.994238 
L 239.515625 229.234057 
L 239.240407 229.696828 
L 239.228715 229.715496 
L 238.948259 230.159599 
L 238.762938 230.452134 
L 238.655091 230.622371 
L 238.36192 231.085142 
L 238.297162 231.187365 
L 238.043024 231.547913 
L 237.831386 231.808481 
L 237.665617 232.010684 
L 237.365609 232.376615 
L 237.286218 232.473456 
L 236.906837 232.936227 
L 236.899833 232.944771 
L 236.527441 233.398998 
L 236.434057 233.512573 
L 236.144001 233.86177 
L 235.96828 234.069631 
L 235.752791 234.324541 
L 235.502504 234.620612 
L 235.361582 234.787312 
L 235.036728 235.171597 
L 234.970377 235.250083 
L 234.579162 235.712855 
L 234.570952 235.722445 
L 234.14685 236.175626 
L 234.105175 236.209163 
L 233.639399 236.482503 
L 233.369172 236.638397 
L 233.173623 236.746172 
L 232.707846 236.937771 
L 232.310617 237.101169 
L 232.24207 237.129365 
L 231.776294 237.320968 
L 231.310518 237.512561 
L 231.185616 237.56394 
L 230.844741 237.704163 
L 230.378965 237.919027 
L 230.200724 238.026711 
L 229.913189 238.198557 
L 229.447412 238.458882 
L 229.392661 238.489482 
L 228.981636 238.71921 
L 228.564663 238.952254 
L 228.51586 238.97953 
L 228.050083 239.239864 
L 227.736667 239.415025 
L 227.584307 239.500179 
L 227.118531 239.760507 
L 226.908674 239.877796 
L 226.652755 240.020832 
L 226.186978 240.281154 
L 226.080674 240.340568 
L 225.721202 240.541479 
L 225.255426 240.801808 
L 225.252686 240.803339 
L 224.789649 241.062124 
L 224.424675 241.26611 
L 224.323873 241.32245 
L 223.858097 241.582779 
L 223.596688 241.728881 
L 223.392321 241.843104 
L 222.926544 242.103425 
L 222.768688 242.191653 
L 222.460768 242.36375 
L 221.994992 242.624073 
L 221.940688 242.654424 
L 221.529215 242.884396 
L 221.075023 243.117195 
L 221.063439 243.122974 
L 220.597663 243.342218 
L 220.131886 243.561456 
L 220.09256 243.579967 
L 219.66611 243.780691 
L 219.200334 243.999928 
L 219.109387 244.042738 
L 218.734558 244.209937 
L 218.268781 244.356245 
L 217.803005 244.487025 
L 217.737173 244.505509 
L 217.337229 244.617806 
L 216.871452 244.748591 
L 216.405676 244.891136 
L 216.176932 244.96828 
L 215.9399 245.048489 
L 215.474124 245.206105 
L 215.008347 245.363719 
L 214.809365 245.431052 
L 214.542571 245.521328 
L 214.076795 245.678938 
L 213.611018 245.836541 
L 213.441748 245.893823 
L 213.145242 245.994162 
L 212.679466 246.151771 
L 212.213689 246.309387 
L 212.074185 246.356594 
L 211.747913 246.467003 
L 211.282137 246.624613 
L 210.816361 246.782228 
L 210.706611 246.819366 
L 210.350584 246.939839 
L 209.884808 247.097455 
L 209.419032 247.255071 
L 209.339045 247.282137 
L 208.953255 247.41268 
L 208.487479 247.570295 
L 208.021703 247.72791 
L 207.971471 247.744908 
L 207.555927 247.885516 
L 207.09015 247.998179 
L 206.624374 248.073014 
L 206.158598 248.147855 
L 205.786254 248.207679 
L 205.692821 248.222692 
L 205.227045 248.297532 
L 204.761269 248.372367 
L 204.295492 248.447205 
L 203.829716 248.522048 
L 203.36394 248.596887 
L 202.906108 248.670451 
L 202.898164 248.671727 
L 202.432387 248.746564 
L 201.966611 248.821399 
L 201.500835 248.89624 
L 201.035058 248.971077 
L 200.569282 249.045917 
L 200.103506 249.120752 
L 199.934359 249.133222 
L 199.63773 249.154595 
L 199.171953 249.156535 
L 198.706177 249.158472 
L 198.240401 249.160416 
L 197.774624 249.162356 
L 197.308848 249.164296 
L 196.843072 249.166227 
L 196.377295 249.168172 
L 195.911519 249.170114 
L 195.445743 249.172049 
L 194.979967 249.173992 
L 194.51419 249.175931 
L 194.048414 249.177873 
L 193.582638 249.179812 
L 193.116861 249.181747 
L 192.651085 249.183692 
L 192.185309 249.185634 
L 191.719533 249.187566 
L 191.253756 249.189724 
L 190.78798 249.219809 
L 190.322204 249.264124 
L 189.856427 249.308636 
L 189.390651 249.310582 
L 188.924875 249.279995 
L 188.459098 249.249409 
L 187.993322 249.218826 
L 187.527546 249.188236 
L 187.06177 249.157653 
z
" clip-path="url(#pa57e0097a0)" style="fill: none; stroke: #000000; stroke-width: 1.5"/>
   </g>
   <g id="patch_3">
    <path d="M 45 320.4 
L 45 43.2 
" style="fill: none; stroke: #000000; stroke-width: 0.8; stroke-linejoin: miter; stroke-linecap: square"/>
   </g>
   <g id="patch_4">
    <path d="M 324 320.4 
L 324 43.2 
" style="fill: none; stroke: #000000; stroke-width: 0.8; stroke-linejoin: miter; stroke-linecap: square"/>
   </g>
   <g id="patch_5">
    <path d="M 45 320.4 
L 324 320.4 
" style="fill: none; stroke: #000000; stroke-width: 0.8; stroke-linejoin: miter; stroke-linecap: square"/>
   </g>
   <g id="patch_6">
    <path d="M 45 43.2 
L 324 43.2 
" style="fill: none; stroke: #000000; stroke-width: 0.8; stroke-linejoin: miter; stroke-linecap: square"/>
   </g>
  </g>
 </g>
 <defs>
  <clipPath id="pa57e0097a0">
   <rect x="45" y="43.2" width="279" height="277.2"/>
  </clipPath>
 </defs>
</svg>
