<?xml version="1.0" encoding="utf-8" standalone="no"?>
<!DOCTYPE svg PUBLIC "-//W3C//DTD SVG 1.1//EN"
  "http://www.w3.org/Graphics/SVG/1.1/DTD/svg11.dtd">
<svg xmlns:xlink="http://www.w3.org/1999/xlink" width="360pt" height="360pt" viewBox="0 0 360 360" xmlns="http://www.w3.org/2000/svg" version="1.1">
 <metadata>
  <rdf:RDF xmlns:dc="http://purl.org/dc/elements/1.1/" xmlns:cc="http://creativecommons.org/ns#" xmlns:rdf="http://www.w3.org/1999/02/22-rdf-syntax-ns#">
   <cc:Work>
    <dc:type rdf:resource="http://purl.org/dc/dcmitype/StillImage"/>
    <dc:date>2022-04-10T19:53:26.555371</dc:date>
    <dc:format>image/svg+xml</dc:format>
    <dc:creator>
     <cc:Agent>
      <dc:title>Matplotlib v3.5.1, https://matplotlib.org/</dc:title>
     </cc:Agent>
    </dc:creator>
   </cc:Work>
  </rdf:RDF>
 </metadata>
 <defs>
  <style type="text/css">*{stroke-linejoin: round; stroke-linecap: butt}</style>
 </defs>
 <g id="figure_1">
  <g id="patch_1">
   <path d="M 0 360 
L 360 360 
L 360 0 
L 0 0 
z
" style="fill: #ffffff"/>
  </g>
  <g id="axes_1">
   <g id="patch_2">
    <path d="M 45 320.4 
L 324 320.4 
L 324 43.2 
L 45 43.2 
z
" style="fill: #ffffff"/>
   </g>
   <g id="PathCollection_1">
    <defs>
     <path id="m51a300d57e" d="M 0 0.5 
C 0.132602 0.5 0.25979 0.447317 0.353553 0.353553 
C 0.447317 0.25979 0.5 0.132602 0.5 0 
C 0.5 -0.132602 0.447317 -0.25979 0.353553 -0.353553 
C 0.25979 -0.447317 0.132602 -0.5 0 -0.5 
C -0.132602 -0.5 -0.25979 -0.447317 -0.353553 -0.353553 
C -0.447317 -0.25979 -0.5 -0.132602 -0.5 0 
C -0.5 0.132602 -0.447317 0.25979 -0.353553 0.353553 
C -0.25979 0.447317 -0.132602 0.5 0 0.5 
z
" style="stroke: #ff0000"/>
    </defs>
    <g clip-path="url(#p5d3dece9e2)">
     <use xlink:href="#m51a300d57e" x="223.143234" y="181.336455" style="fill: #ff0000; stroke: #ff0000"/>
     <use xlink:href="#m51a300d57e" x="223.821786" y="177.534238" style="fill: #ff0000; stroke: #ff0000"/>
     <use xlink:href="#m51a300d57e" x="224.375295" y="173.548143" style="fill: #ff0000; stroke: #ff0000"/>
     <use xlink:href="#m51a300d57e" x="224.679668" y="169.367335" style="fill: #ff0000; stroke: #ff0000"/>
     <use xlink:href="#m51a300d57e" x="224.590727" y="165.029475" style="fill: #ff0000; stroke: #ff0000"/>
     <use xlink:href="#m51a300d57e" x="223.957577" y="160.629778" style="fill: #ff0000; stroke: #ff0000"/>
     <use xlink:href="#m51a300d57e" x="222.646382" y="156.322031" style="fill: #ff0000; stroke: #ff0000"/>
     <use xlink:href="#m51a300d57e" x="220.578506" y="152.299037" style="fill: #ff0000; stroke: #ff0000"/>
     <use xlink:href="#m51a300d57e" x="217.768906" y="148.745732" style="fill: #ff0000; stroke: #ff0000"/>
     <use xlink:href="#m51a300d57e" x="214.338189" y="145.777915" style="fill: #ff0000; stroke: #ff0000"/>
     <use xlink:href="#m51a300d57e" x="210.479774" y="143.399569" style="fill: #ff0000; stroke: #ff0000"/>
     <use xlink:href="#m51a300d57e" x="206.391027" y="141.512684" style="fill: #ff0000; stroke: #ff0000"/>
     <use xlink:href="#m51a300d57e" x="202.205277" y="139.987002" style="fill: #ff0000; stroke: #ff0000"/>
     <use xlink:href="#m51a300d57e" x="197.967327" y="138.755156" style="fill: #ff0000; stroke: #ff0000"/>
     <use xlink:href="#m51a300d57e" x="193.668386" y="137.871634" style="fill: #ff0000; stroke: #ff0000"/>
     <use xlink:href="#m51a300d57e" x="189.313178" y="137.489179" style="fill: #ff0000; stroke: #ff0000"/>
     <use xlink:href="#m51a300d57e" x="184.966555" y="137.761918" style="fill: #ff0000; stroke: #ff0000"/>
     <use xlink:href="#m51a300d57e" x="180.743956" y="138.740288" style="fill: #ff0000; stroke: #ff0000"/>
     <use xlink:href="#m51a300d57e" x="176.757026" y="140.330637" style="fill: #ff0000; stroke: #ff0000"/>
     <use xlink:href="#m51a300d57e" x="173.060929" y="142.342075" style="fill: #ff0000; stroke: #ff0000"/>
     <use xlink:href="#m51a300d57e" x="169.641573" y="144.57737" style="fill: #ff0000; stroke: #ff0000"/>
     <use xlink:href="#m51a300d57e" x="166.440493" y="146.900243" style="fill: #ff0000; stroke: #ff0000"/>
     <use xlink:href="#m51a300d57e" x="163.384393" y="149.244853" style="fill: #ff0000; stroke: #ff0000"/>
     <use xlink:href="#m51a300d57e" x="160.393725" y="151.58755" style="fill: #ff0000; stroke: #ff0000"/>
     <use xlink:href="#m51a300d57e" x="157.377579" y="153.925472" style="fill: #ff0000; stroke: #ff0000"/>
     <use xlink:href="#m51a300d57e" x="154.243274" y="156.28518" style="fill: #ff0000; stroke: #ff0000"/>
     <use xlink:href="#m51a300d57e" x="150.937125" y="158.745412" style="fill: #ff0000; stroke: #ff0000"/>
     <use xlink:href="#m51a300d57e" x="147.501171" y="161.439988" style="fill: #ff0000; stroke: #ff0000"/>
     <use xlink:href="#m51a300d57e" x="144.109856" y="164.522239" style="fill: #ff0000; stroke: #ff0000"/>
     <use xlink:href="#m51a300d57e" x="141.057147" y="168.102615" style="fill: #ff0000; stroke: #ff0000"/>
     <use xlink:href="#m51a300d57e" x="138.68979" y="172.190821" style="fill: #ff0000; stroke: #ff0000"/>
     <use xlink:href="#m51a300d57e" x="137.308891" y="176.672868" style="fill: #ff0000; stroke: #ff0000"/>
     <use xlink:href="#m51a300d57e" x="137.078127" y="181.336455" style="fill: #ff0000; stroke: #ff0000"/>
     <use xlink:href="#m51a300d57e" x="137.977522" y="185.934613" style="fill: #ff0000; stroke: #ff0000"/>
     <use xlink:href="#m51a300d57e" x="139.8238" y="190.257975" style="fill: #ff0000; stroke: #ff0000"/>
     <use xlink:href="#m51a300d57e" x="142.347451" y="194.18141" style="fill: #ff0000; stroke: #ff0000"/>
     <use xlink:href="#m51a300d57e" x="145.290044" y="197.664974" style="fill: #ff0000; stroke: #ff0000"/>
     <use xlink:href="#m51a300d57e" x="148.479267" y="200.713492" style="fill: #ff0000; stroke: #ff0000"/>
     <use xlink:href="#m51a300d57e" x="151.854138" y="203.318722" style="fill: #ff0000; stroke: #ff0000"/>
     <use xlink:href="#m51a300d57e" x="155.43594" y="205.415249" style="fill: #ff0000; stroke: #ff0000"/>
     <use xlink:href="#m51a300d57e" x="159.26059" y="206.876575" style="fill: #ff0000; stroke: #ff0000"/>
     <use xlink:href="#m51a300d57e" x="163.30267" y="207.563669" style="fill: #ff0000; stroke: #ff0000"/>
     <use xlink:href="#m51a300d57e" x="167.42882" y="207.414195" style="fill: #ff0000; stroke: #ff0000"/>
     <use xlink:href="#m51a300d57e" x="171.411351" y="206.532845" style="fill: #ff0000; stroke: #ff0000"/>
     <use xlink:href="#m51a300d57e" x="175.005825" y="205.228641" style="fill: #ff0000; stroke: #ff0000"/>
     <use xlink:href="#m51a300d57e" x="178.058558" y="203.962149" style="fill: #ff0000; stroke: #ff0000"/>
     <use xlink:href="#m51a300d57e" x="180.586962" y="203.212105" style="fill: #ff0000; stroke: #ff0000"/>
     <use xlink:href="#m51a300d57e" x="182.78752" y="203.317837" style="fill: #ff0000; stroke: #ff0000"/>
     <use xlink:href="#m51a300d57e" x="184.966555" y="204.36764" style="fill: #ff0000; stroke: #ff0000"/>
     <use xlink:href="#m51a300d57e" x="187.428959" y="206.176359" style="fill: #ff0000; stroke: #ff0000"/>
     <use xlink:href="#m51a300d57e" x="190.375006" y="208.351151" style="fill: #ff0000; stroke: #ff0000"/>
     <use xlink:href="#m51a300d57e" x="193.843605" y="210.411367" style="fill: #ff0000; stroke: #ff0000"/>
     <use xlink:href="#m51a300d57e" x="197.715758" y="211.917177" style="fill: #ff0000; stroke: #ff0000"/>
     <use xlink:href="#m51a300d57e" x="201.767464" y="212.565956" style="fill: #ff0000; stroke: #ff0000"/>
     <use xlink:href="#m51a300d57e" x="205.743569" y="212.230841" style="fill: #ff0000; stroke: #ff0000"/>
     <use xlink:href="#m51a300d57e" x="209.420042" y="210.940878" style="fill: #ff0000; stroke: #ff0000"/>
     <use xlink:href="#m51a300d57e" x="212.636144" y="208.82753" style="fill: #ff0000; stroke: #ff0000"/>
     <use xlink:href="#m51a300d57e" x="215.301161" y="206.07081" style="fill: #ff0000; stroke: #ff0000"/>
     <use xlink:href="#m51a300d57e" x="217.392968" y="202.863306" style="fill: #ff0000; stroke: #ff0000"/>
     <use xlink:href="#m51a300d57e" x="218.957663" y="199.387864" style="fill: #ff0000; stroke: #ff0000"/>
     <use xlink:href="#m51a300d57e" x="220.10316" y="195.796616" style="fill: #ff0000; stroke: #ff0000"/>
     <use xlink:href="#m51a300d57e" x="220.9753" y="192.189116" style="fill: #ff0000; stroke: #ff0000"/>
     <use xlink:href="#m51a300d57e" x="221.717493" y="188.599508" style="fill: #ff0000; stroke: #ff0000"/>
     <use xlink:href="#m51a300d57e" x="222.429521" y="185.00243" style="fill: #ff0000; stroke: #ff0000"/>
    </g>
   </g>
   <g id="matplotlib.axis_1">
    <g id="xtick_1">
     <g id="line2d_1">
      <defs>
       <path id="mb333be4fce" d="M 0 0 
L 0 3.5 
" style="stroke: #000000; stroke-width: 0.8"/>
      </defs>
      <g>
       <use xlink:href="#mb333be4fce" x="45" y="320.4" style="stroke: #000000; stroke-width: 0.8"/>
      </g>
     </g>
     <g id="text_1">
      <!-- −3 -->
      <g transform="translate(37.628906 334.998438)scale(0.1 -0.1)">
       <defs>
        <path id="DejaVuSans-2212" d="M 678 2272 
L 4684 2272 
L 4684 1741 
L 678 1741 
L 678 2272 
z
" transform="scale(0.015625)"/>
        <path id="DejaVuSans-33" d="M 2597 2516 
Q 3050 2419 3304 2112 
Q 3559 1806 3559 1356 
Q 3559 666 3084 287 
Q 2609 -91 1734 -91 
Q 1441 -91 1130 -33 
Q 819 25 488 141 
L 488 750 
Q 750 597 1062 519 
Q 1375 441 1716 441 
Q 2309 441 2620 675 
Q 2931 909 2931 1356 
Q 2931 1769 2642 2001 
Q 2353 2234 1838 2234 
L 1294 2234 
L 1294 2753 
L 1863 2753 
Q 2328 2753 2575 2939 
Q 2822 3125 2822 3475 
Q 2822 3834 2567 4026 
Q 2313 4219 1838 4219 
Q 1578 4219 1281 4162 
Q 984 4106 628 3988 
L 628 4550 
Q 988 4650 1302 4700 
Q 1616 4750 1894 4750 
Q 2613 4750 3031 4423 
Q 3450 4097 3450 3541 
Q 3450 3153 3228 2886 
Q 3006 2619 2597 2516 
z
" transform="scale(0.015625)"/>
       </defs>
       <use xlink:href="#DejaVuSans-2212"/>
       <use xlink:href="#DejaVuSans-33" x="83.789062"/>
      </g>
     </g>
    </g>
    <g id="xtick_2">
     <g id="line2d_2">
      <g>
       <use xlink:href="#mb333be4fce" x="91.655518" y="320.4" style="stroke: #000000; stroke-width: 0.8"/>
      </g>
     </g>
     <g id="text_2">
      <!-- −2 -->
      <g transform="translate(84.284425 334.998438)scale(0.1 -0.1)">
       <defs>
        <path id="DejaVuSans-32" d="M 1228 531 
L 3431 531 
L 3431 0 
L 469 0 
L 469 531 
Q 828 903 1448 1529 
Q 2069 2156 2228 2338 
Q 2531 2678 2651 2914 
Q 2772 3150 2772 3378 
Q 2772 3750 2511 3984 
Q 2250 4219 1831 4219 
Q 1534 4219 1204 4116 
Q 875 4013 500 3803 
L 500 4441 
Q 881 4594 1212 4672 
Q 1544 4750 1819 4750 
Q 2544 4750 2975 4387 
Q 3406 4025 3406 3419 
Q 3406 3131 3298 2873 
Q 3191 2616 2906 2266 
Q 2828 2175 2409 1742 
Q 1991 1309 1228 531 
z
" transform="scale(0.015625)"/>
       </defs>
       <use xlink:href="#DejaVuSans-2212"/>
       <use xlink:href="#DejaVuSans-32" x="83.789062"/>
      </g>
     </g>
    </g>
    <g id="xtick_3">
     <g id="line2d_3">
      <g>
       <use xlink:href="#mb333be4fce" x="138.311037" y="320.4" style="stroke: #000000; stroke-width: 0.8"/>
      </g>
     </g>
     <g id="text_3">
      <!-- −1 -->
      <g transform="translate(130.939943 334.998438)scale(0.1 -0.1)">
       <defs>
        <path id="DejaVuSans-31" d="M 794 531 
L 1825 531 
L 1825 4091 
L 703 3866 
L 703 4441 
L 1819 4666 
L 2450 4666 
L 2450 531 
L 3481 531 
L 3481 0 
L 794 0 
L 794 531 
z
" transform="scale(0.015625)"/>
       </defs>
       <use xlink:href="#DejaVuSans-2212"/>
       <use xlink:href="#DejaVuSans-31" x="83.789062"/>
      </g>
     </g>
    </g>
    <g id="xtick_4">
     <g id="line2d_4">
      <g>
       <use xlink:href="#mb333be4fce" x="184.966555" y="320.4" style="stroke: #000000; stroke-width: 0.8"/>
      </g>
     </g>
     <g id="text_4">
      <!-- 0 -->
      <g transform="translate(181.785305 334.998438)scale(0.1 -0.1)">
       <defs>
        <path id="DejaVuSans-30" d="M 2034 4250 
Q 1547 4250 1301 3770 
Q 1056 3291 1056 2328 
Q 1056 1369 1301 889 
Q 1547 409 2034 409 
Q 2525 409 2770 889 
Q 3016 1369 3016 2328 
Q 3016 3291 2770 3770 
Q 2525 4250 2034 4250 
z
M 2034 4750 
Q 2819 4750 3233 4129 
Q 3647 3509 3647 2328 
Q 3647 1150 3233 529 
Q 2819 -91 2034 -91 
Q 1250 -91 836 529 
Q 422 1150 422 2328 
Q 422 3509 836 4129 
Q 1250 4750 2034 4750 
z
" transform="scale(0.015625)"/>
       </defs>
       <use xlink:href="#DejaVuSans-30"/>
      </g>
     </g>
    </g>
    <g id="xtick_5">
     <g id="line2d_5">
      <g>
       <use xlink:href="#mb333be4fce" x="231.622074" y="320.4" style="stroke: #000000; stroke-width: 0.8"/>
      </g>
     </g>
     <g id="text_5">
      <!-- 1 -->
      <g transform="translate(228.440824 334.998438)scale(0.1 -0.1)">
       <use xlink:href="#DejaVuSans-31"/>
      </g>
     </g>
    </g>
    <g id="xtick_6">
     <g id="line2d_6">
      <g>
       <use xlink:href="#mb333be4fce" x="278.277592" y="320.4" style="stroke: #000000; stroke-width: 0.8"/>
      </g>
     </g>
     <g id="text_6">
      <!-- 2 -->
      <g transform="translate(275.096342 334.998438)scale(0.1 -0.1)">
       <use xlink:href="#DejaVuSans-32"/>
      </g>
     </g>
    </g>
   </g>
   <g id="matplotlib.axis_2">
    <g id="ytick_1">
     <g id="line2d_7">
      <defs>
       <path id="mdaa5227542" d="M 0 0 
L -3.5 0 
" style="stroke: #000000; stroke-width: 0.8"/>
      </defs>
      <g>
       <use xlink:href="#mdaa5227542" x="45" y="320.4" style="stroke: #000000; stroke-width: 0.8"/>
      </g>
     </g>
     <g id="text_7">
      <!-- −3 -->
      <g transform="translate(23.257812 324.199219)scale(0.1 -0.1)">
       <use xlink:href="#DejaVuSans-2212"/>
       <use xlink:href="#DejaVuSans-33" x="83.789062"/>
      </g>
     </g>
    </g>
    <g id="ytick_2">
     <g id="line2d_8">
      <g>
       <use xlink:href="#mdaa5227542" x="45" y="274.045485" style="stroke: #000000; stroke-width: 0.8"/>
      </g>
     </g>
     <g id="text_8">
      <!-- −2 -->
      <g transform="translate(23.257812 277.844704)scale(0.1 -0.1)">
       <use xlink:href="#DejaVuSans-2212"/>
       <use xlink:href="#DejaVuSans-32" x="83.789062"/>
      </g>
     </g>
    </g>
    <g id="ytick_3">
     <g id="line2d_9">
      <g>
       <use xlink:href="#mdaa5227542" x="45" y="227.69097" style="stroke: #000000; stroke-width: 0.8"/>
      </g>
     </g>
     <g id="text_9">
      <!-- −1 -->
      <g transform="translate(23.257812 231.490189)scale(0.1 -0.1)">
       <use xlink:href="#DejaVuSans-2212"/>
       <use xlink:href="#DejaVuSans-31" x="83.789062"/>
      </g>
     </g>
    </g>
    <g id="ytick_4">
     <g id="line2d_10">
      <g>
       <use xlink:href="#mdaa5227542" x="45" y="181.336455" style="stroke: #000000; stroke-width: 0.8"/>
      </g>
     </g>
     <g id="text_10">
      <!-- 0 -->
      <g transform="translate(31.6375 185.135674)scale(0.1 -0.1)">
       <use xlink:href="#DejaVuSans-30"/>
      </g>
     </g>
    </g>
    <g id="ytick_5">
     <g id="line2d_11">
      <g>
       <use xlink:href="#mdaa5227542" x="45" y="134.98194" style="stroke: #000000; stroke-width: 0.8"/>
      </g>
     </g>
     <g id="text_11">
      <!-- 1 -->
      <g transform="translate(31.6375 138.781159)scale(0.1 -0.1)">
       <use xlink:href="#DejaVuSans-31"/>
      </g>
     </g>
    </g>
    <g id="ytick_6">
     <g id="line2d_12">
      <g>
       <use xlink:href="#mdaa5227542" x="45" y="88.627425" style="stroke: #000000; stroke-width: 0.8"/>
      </g>
     </g>
     <g id="text_12">
      <!-- 2 -->
      <g transform="translate(31.6375 92.426643)scale(0.1 -0.1)">
       <use xlink:href="#DejaVuSans-32"/>
      </g>
     </g>
    </g>
   </g>
   <g id="PathCollection_2">
    <path d="M 194.297659 183.529894 
L 193.380252 183.190635 
L 193.364548 183.184828 
L 192.431438 182.839753 
L 191.498328 182.495186 
L 190.833269 182.263545 
L 190.565217 182.179464 
L 189.632107 182.05192 
L 188.698997 182.014624 
L 187.765886 181.988958 
L 186.832776 181.963248 
L 185.899666 181.955451 
L 184.966555 181.958684 
L 184.033445 181.990094 
L 183.100334 182.006954 
L 182.167224 182.023878 
L 181.234114 182.037804 
L 180.301003 182.083415 
L 179.367893 182.184214 
L 178.434783 182.257033 
L 178.267069 182.263545 
L 177.501672 182.292177 
L 176.568562 182.329473 
L 175.635452 182.370669 
L 174.702341 182.4256 
L 173.769231 182.496795 
L 172.83612 182.522349 
L 171.90301 182.515225 
L 170.9699 182.394135 
L 170.138554 182.263545 
L 170.036789 182.247556 
L 169.103679 182.108626 
L 168.170569 181.912706 
L 167.237458 181.620468 
L 166.576187 181.336455 
L 166.304348 181.155857 
L 165.637063 180.409365 
L 165.960985 179.482274 
L 166.249514 178.555184 
L 166.304348 178.359075 
L 166.50714 177.628094 
L 166.974816 176.701003 
L 167.237458 176.343654 
L 167.566911 175.773913 
L 168.170569 175.018799 
L 168.361032 174.846823 
L 169.103679 174.24225 
L 169.51763 173.919732 
L 170.036789 173.5512 
L 170.88999 172.992642 
L 170.9699 172.938507 
L 171.759302 172.065552 
L 171.90301 171.872501 
L 172.41787 171.138462 
L 172.83612 170.61718 
L 173.157227 170.211371 
L 173.769231 169.531513 
L 174.142472 169.284281 
L 174.702341 169.01366 
L 175.635452 168.598859 
L 176.216064 168.357191 
L 176.568562 168.215365 
L 177.501672 167.816506 
L 178.32587 167.4301 
L 178.434783 167.376153 
L 179.367893 166.923815 
L 180.301003 166.506652 
L 180.310209 166.50301 
L 181.234114 166.070728 
L 182.0362 165.57592 
L 182.167224 165.487005 
L 183.100334 164.866375 
L 183.446204 164.648829 
L 184.033445 164.292035 
L 184.966555 163.963521 
L 185.672843 163.721739 
L 185.899666 163.644099 
L 186.832776 163.475525 
L 187.765886 163.304226 
L 188.698997 163.148675 
L 189.632107 162.944543 
L 190.359694 162.794649 
L 190.565217 162.752129 
L 191.498328 162.606391 
L 192.431438 162.546479 
L 193.364548 162.502069 
L 194.297659 162.545465 
L 195.230769 162.648158 
L 195.842091 162.794649 
L 196.16388 162.882075 
L 197.09699 163.652848 
L 197.150234 163.721739 
L 197.720126 164.648829 
L 198.0301 165.210007 
L 198.226801 165.57592 
L 198.638778 166.50301 
L 198.963211 167.183603 
L 199.096873 167.4301 
L 199.767928 168.357191 
L 199.896321 168.50395 
L 200.487422 169.284281 
L 200.363066 170.211371 
L 200.02121 171.138462 
L 199.896321 171.433174 
L 199.640652 172.065552 
L 199.253103 172.992642 
L 198.963211 173.664673 
L 198.864497 173.919732 
L 198.663038 174.846823 
L 198.499442 175.773913 
L 198.483368 176.701003 
L 198.551663 177.628094 
L 198.541818 178.555184 
L 198.107128 179.482274 
L 198.0301 179.646559 
L 197.672448 180.409365 
L 197.237774 181.336455 
L 197.09699 181.69141 
L 196.888333 182.263545 
L 196.507655 183.190635 
L 196.16388 183.710584 
L 195.230769 183.829964 
L 194.297659 183.529894 
z
" clip-path="url(#p5d3dece9e2)" style="fill: none; stroke-dasharray: 5.55,2.4; stroke-dashoffset: 0; stroke: #000000; stroke-width: 1.5"/>
   </g>
   <g id="PathCollection_3">
    <path d="M 200.829431 211.163259 
L 198.963211 210.700381 
L 197.09699 210.29752 
L 195.230769 209.830744 
L 193.364548 209.445226 
L 191.498328 208.937438 
L 190.565217 208.670095 
L 189.507248 208.222074 
L 187.765886 207.734781 
L 181.234114 205.418057 
L 179.367893 205.159054 
L 177.501672 205.262463 
L 174.702341 205.427477 
L 171.90301 205.381006 
L 169.103679 205.357401 
L 159.772575 205.099369 
L 157.906355 204.492323 
L 155.107023 203.257621 
L 153.240803 202.487886 
L 152.307692 202.155285 
L 147.64214 199.562447 
L 146.70903 198.831379 
L 142.043478 194.027111 
L 139.23989 191.534448 
L 138.311037 189.102914 
L 137.895403 187.826087 
L 137.647137 186.898997 
L 137.256533 183.190635 
L 136.678317 178.555184 
L 136.681323 177.628094 
L 136.978728 175.773913 
L 137.924177 172.992642 
L 140.890589 167.4301 
L 142.090893 166.50301 
L 145.77592 163.590945 
L 147.835237 161.867559 
L 149.643108 160.013378 
L 153.240803 156.870578 
L 154.173913 156.187477 
L 156.973244 153.31742 
L 159.772575 151.395634 
L 162.571906 149.60315 
L 163.838829 148.888294 
L 165.371237 147.690054 
L 169.103679 144.653135 
L 173.79553 141.471572 
L 176.663962 139.617391 
L 177.501672 139.197621 
L 181.234114 138.350415 
L 184.205981 137.763211 
L 184.966555 137.54464 
L 189.632107 137.716932 
L 191.498328 138.099522 
L 194.297659 138.797395 
L 195.230769 138.918834 
L 198.0301 138.650658 
L 199.064358 138.690301 
L 201.762542 139.322632 
L 203.628763 139.952182 
L 206.428094 140.803022 
L 208.027693 141.471572 
L 212.959866 144.479026 
L 215.80242 146.107023 
L 220.424749 152.112889 
L 222.29097 154.672689 
L 223.663222 158.159197 
L 225.376928 164.648829 
L 225.498658 166.50301 
L 225.658071 167.4301 
L 225.454665 169.284281 
L 224.157191 175.670587 
L 223.875013 176.701003 
L 223.629188 177.628094 
L 222.942162 185.044816 
L 220.971881 190.607358 
L 219.896473 193.388629 
L 219.175663 195.242809 
L 218.924036 196.1699 
L 216.935545 200.805351 
L 216.454389 201.732441 
L 215.467585 203.586622 
L 214.307344 205.440803 
L 211.47559 209.149164 
L 211.093645 209.493335 
L 208.294314 210.745381 
L 206.428094 211.41955 
L 205.494983 211.678691 
L 204.561873 211.79852 
L 202.695652 211.614123 
L 200.829431 211.163259 
L 200.829431 211.163259 
" clip-path="url(#p5d3dece9e2)" style="fill: none; stroke: #000000; stroke-width: 1.5"/>
   </g>
   <g id="PathCollection_4">
    <path d="M 204.561873 234.208771 
L 204.235183 234.180602 
L 203.628763 234.127234 
L 202.695652 234.045105 
L 201.762542 233.962989 
L 200.829431 233.880874 
L 199.896321 233.798691 
L 198.963211 233.714615 
L 198.0301 233.611147 
L 197.09699 233.490496 
L 196.16388 233.37137 
L 195.230769 233.25372 
L 195.229145 233.253512 
L 194.297659 233.130879 
L 193.364548 233.006526 
L 192.431438 232.883734 
L 191.498328 232.762493 
L 190.565217 232.661967 
L 189.632107 232.6221 
L 188.698997 232.581075 
L 187.765886 232.531001 
L 186.832776 232.450248 
L 185.899666 232.364399 
L 184.966555 232.335605 
L 184.641771 232.326421 
L 184.033445 232.309249 
L 183.100334 232.282822 
L 182.167224 232.25632 
L 181.234114 232.230103 
L 180.301003 232.210368 
L 179.367893 232.191282 
L 178.434783 232.081565 
L 177.501672 231.896116 
L 176.568562 231.654209 
L 175.635452 231.417634 
L 175.549246 231.399331 
L 174.702341 231.219519 
L 173.769231 231.021416 
L 172.83612 230.879997 
L 171.90301 230.769878 
L 170.9699 230.658796 
L 170.036789 230.547703 
L 169.529847 230.472241 
L 169.103679 230.408408 
L 168.170569 230.222535 
L 167.237458 230.036682 
L 166.304348 229.892347 
L 165.371237 229.882245 
L 164.438127 229.881335 
L 163.505017 229.880409 
L 162.571906 229.879467 
L 161.638796 229.877984 
L 160.705686 229.876222 
L 159.772575 229.864362 
L 158.839465 229.833254 
L 157.906355 229.737325 
L 157.004625 229.545151 
L 156.973244 229.538316 
L 156.040134 229.304717 
L 155.107023 229.065275 
L 154.173913 228.823396 
L 153.38302 228.61806 
L 153.240803 228.580838 
L 152.307692 228.334541 
L 151.374582 228.087134 
L 150.441472 227.833895 
L 149.959024 227.69097 
L 149.508361 227.554088 
L 148.575251 227.269593 
L 147.64214 226.985091 
L 147.028518 226.76388 
L 146.70903 226.648301 
L 145.77592 226.306717 
L 144.842809 225.965217 
L 144.491912 225.836789 
L 143.909699 225.624003 
L 142.976589 225.219175 
L 142.401591 224.909699 
L 142.043478 224.717859 
L 141.110368 224.186959 
L 140.788644 223.982609 
L 140.177258 223.590092 
L 139.344597 223.055518 
L 139.244147 222.991136 
L 138.311037 222.400399 
L 137.883547 222.128428 
L 137.377926 221.800792 
L 136.481344 221.201338 
L 136.444816 221.171744 
L 135.590853 220.274247 
L 135.511706 220.185708 
L 134.762111 219.347157 
L 134.578595 219.141893 
L 133.930486 218.420067 
L 133.645485 218.102966 
L 133.097243 217.492977 
L 132.712375 217.095939 
L 132.109769 216.565886 
L 131.779264 216.314519 
L 130.890791 215.638796 
L 130.846154 215.604847 
L 129.913043 214.895173 
L 129.67181 214.711706 
L 128.979933 214.185495 
L 128.452844 213.784615 
L 128.046823 213.475822 
L 127.233851 212.857525 
L 127.113712 212.731726 
L 126.523389 211.930435 
L 126.180602 211.449926 
L 125.87672 211.003344 
L 125.288088 210.076254 
L 125.247492 210.011339 
L 124.708294 209.149164 
L 124.314381 208.517257 
L 124.13048 208.222074 
L 123.508543 207.294983 
L 123.381271 207.12889 
L 122.795475 206.367893 
L 122.448161 205.919651 
L 122.069906 205.440803 
L 121.51505 204.752178 
L 121.322912 204.513712 
L 120.58194 203.594093 
L 120.57592 203.586622 
L 119.828919 202.659532 
L 119.648829 202.272815 
L 119.440981 201.732441 
L 119.122888 200.805351 
L 118.715719 199.989369 
L 118.660278 199.878261 
L 118.197694 198.951171 
L 117.782609 198.119319 
L 117.735086 198.02408 
L 117.266847 197.09699 
L 116.849498 196.308064 
L 116.774124 196.1699 
L 116.255814 195.242809 
L 115.916388 194.598851 
L 115.77226 194.315719 
L 115.420804 193.388629 
L 115.147416 192.461538 
L 115.009751 191.534448 
L 114.983278 191.360034 
L 114.868673 190.607358 
L 114.720156 189.680268 
L 114.57062 188.753177 
L 114.421916 187.826087 
L 114.27806 186.898997 
L 114.131678 185.971906 
L 114.050167 185.626276 
L 113.91304 185.044816 
L 113.713185 184.117726 
L 113.846154 183.190635 
L 114.021777 182.263545 
L 114.050167 181.622297 
L 114.063949 181.336455 
L 114.050167 180.886612 
L 114.03544 180.409365 
L 114.050167 179.811464 
L 114.05789 179.482274 
L 114.050167 179.171819 
L 114.035385 178.555184 
L 114.02198 177.628094 
L 114.008339 176.701003 
L 113.986847 175.773913 
L 113.97507 174.846823 
L 113.980587 173.919732 
L 114.050167 173.618154 
L 114.203614 172.992642 
L 114.431958 172.065552 
L 114.657777 171.138462 
L 114.869495 170.211371 
L 114.983278 169.708927 
L 115.083191 169.284281 
L 115.345908 168.357191 
L 115.618075 167.4301 
L 115.886322 166.50301 
L 115.916388 166.39959 
L 116.159229 165.57592 
L 116.432137 164.648829 
L 116.701144 163.721739 
L 116.849498 163.211926 
L 116.97264 162.794649 
L 117.246301 161.867559 
L 117.568938 160.940468 
L 117.782609 160.435859 
L 117.970078 160.013378 
L 118.387341 159.086288 
L 118.715719 158.355637 
L 118.808886 158.159197 
L 119.586526 157.232107 
L 119.648829 157.167121 
L 120.475349 156.305017 
L 120.58194 156.193834 
L 121.364162 155.377926 
L 121.51505 155.220541 
L 122.252989 154.450836 
L 122.448161 154.247261 
L 123.134161 153.523746 
L 123.381271 153.246899 
L 123.953147 152.596656 
L 124.314381 152.185914 
L 124.768493 151.669565 
L 125.247492 151.124931 
L 125.583859 150.742475 
L 126.180602 150.063953 
L 126.399206 149.815385 
L 127.113712 149.002971 
L 127.21625 148.888294 
L 128.046823 147.968999 
L 128.053511 147.961204 
L 128.743002 147.034114 
L 128.979933 146.71707 
L 129.441838 146.107023 
L 129.913043 145.484529 
L 130.195991 145.179933 
L 130.846154 144.683609 
L 131.449094 144.252843 
L 131.779264 144.016957 
L 132.712375 143.350297 
L 132.74673 143.325753 
L 133.645485 142.683639 
L 134.044351 142.398662 
L 134.578595 142.016973 
L 135.322585 141.471572 
L 135.511706 141.331654 
L 136.444816 140.638774 
L 136.5718 140.544482 
L 137.377926 139.945882 
L 137.820307 139.617391 
L 138.311037 139.209217 
L 138.821362 138.690301 
L 139.244147 138.228533 
L 139.670183 137.763211 
L 140.177258 137.209372 
L 140.512044 136.83612 
L 141.110368 136.125876 
L 141.305135 135.90903 
L 142.043478 135.172431 
L 142.23726 134.98194 
L 142.976589 134.255188 
L 143.189322 134.054849 
L 143.909699 133.449439 
L 144.303917 133.127759 
L 144.842809 132.688039 
L 145.463041 132.200669 
L 145.77592 131.974226 
L 146.70903 131.414313 
L 146.943573 131.273579 
L 147.64214 130.853746 
L 148.485088 130.346488 
L 148.575251 130.292195 
L 149.508361 129.730293 
L 150.024661 129.419398 
L 150.441472 129.168709 
L 151.371265 128.492308 
L 151.374582 128.489558 
L 152.307692 127.691296 
L 152.47086 127.565217 
L 153.240803 127.020676 
L 153.866852 126.638127 
L 154.173913 126.450499 
L 155.107023 125.898813 
L 155.442136 125.711037 
L 156.040134 125.375952 
L 156.973244 124.829463 
L 157.04464 124.783946 
L 157.906355 124.238402 
L 158.491265 123.856856 
L 158.839465 123.637144 
L 159.772575 123.0879 
L 159.976787 122.929766 
L 160.705686 122.35421 
L 161.150872 122.002676 
L 161.638796 121.617392 
L 162.324955 121.075585 
L 162.571906 120.88059 
L 163.499051 120.148495 
L 163.505017 120.143989 
L 164.438127 119.606693 
L 165.345744 119.221405 
L 165.371237 119.210421 
L 166.304348 118.834781 
L 167.237458 118.506515 
L 167.900286 118.294314 
L 168.170569 118.207565 
L 169.103679 117.904836 
L 170.036789 117.584876 
L 170.657606 117.367224 
L 170.9699 117.257736 
L 171.90301 116.930597 
L 172.83612 116.603461 
L 173.302005 116.440134 
L 173.769231 116.276334 
L 174.702341 115.949188 
L 175.635452 115.625401 
L 176.100825 115.513043 
L 176.568562 115.405543 
L 177.501672 115.192547 
L 178.434783 114.960611 
L 179.367893 114.708359 
L 180.301003 114.616716 
L 180.646196 114.585953 
L 181.234114 114.533559 
L 182.167224 114.444874 
L 183.100334 114.299985 
L 184.033445 114.150901 
L 184.966555 114.040528 
L 185.899666 114.08524 
L 186.832776 114.184177 
L 187.765886 114.230712 
L 188.698997 114.275213 
L 189.632107 114.319714 
L 190.565217 114.364221 
L 191.498328 114.408708 
L 192.431438 114.453198 
L 193.364548 114.498181 
L 194.297659 114.542907 
L 195.167248 114.585953 
L 195.230769 114.589206 
L 196.16388 114.672484 
L 197.09699 114.827267 
L 198.0301 115.003509 
L 198.963211 115.203887 
L 199.896321 115.446362 
L 200.131927 115.513043 
L 200.829431 115.712829 
L 201.762542 116.000773 
L 202.695652 116.151752 
L 203.628763 116.411755 
L 203.729557 116.440134 
L 204.561873 116.674477 
L 205.494983 116.937197 
L 206.428094 117.199926 
L 207.049902 117.367224 
L 207.361204 117.451282 
L 208.294314 117.661905 
L 209.227425 117.833108 
L 210.160535 118.055992 
L 210.974726 118.294314 
L 211.093645 118.330074 
L 212.026756 118.653397 
L 212.959866 118.97673 
L 213.666005 119.221405 
L 213.892977 119.298788 
L 214.826087 119.619767 
L 215.759197 120.03934 
L 215.948542 120.148495 
L 216.692308 120.571144 
L 217.576785 121.075585 
L 217.625418 121.103264 
L 218.558528 121.647207 
L 219.167397 122.002676 
L 219.491639 122.191971 
L 220.424749 122.736027 
L 220.785589 122.929766 
L 221.35786 123.223502 
L 222.29097 123.671684 
L 222.673186 123.856856 
L 223.22408 124.122864 
L 224.157191 124.584017 
L 224.558555 124.783946 
L 225.090301 125.044898 
L 226.023411 125.557264 
L 226.28201 125.711037 
L 226.956522 126.112481 
L 227.841025 126.638127 
L 227.889632 126.667165 
L 228.822742 127.227381 
L 229.381254 127.565217 
L 229.755853 127.791816 
L 230.688963 128.436521 
L 230.749188 128.492308 
L 231.622074 129.372779 
L 231.668291 129.419398 
L 232.467503 130.346488 
L 232.555184 130.458651 
L 233.184599 131.273579 
L 233.488294 131.647291 
L 233.944205 132.200669 
L 234.421405 132.782141 
L 234.704281 133.127759 
L 235.354515 133.92294 
L 235.462383 134.054849 
L 236.22051 134.98194 
L 236.287625 135.064014 
L 236.978617 135.90903 
L 237.220736 136.205107 
L 237.73675 136.83612 
L 238.153846 137.346195 
L 238.50989 137.763211 
L 239.086957 138.444957 
L 239.304338 138.690301 
L 240.020067 139.502929 
L 240.12141 139.617391 
L 240.942421 140.544482 
L 240.953177 140.558291 
L 241.547881 141.471572 
L 241.886288 142.181793 
L 241.98615 142.398662 
L 242.408318 143.325753 
L 242.819398 144.15561 
L 242.870679 144.252843 
L 243.410576 145.179933 
L 243.752508 145.773427 
L 243.942555 146.107023 
L 244.397204 147.034114 
L 244.685619 147.62933 
L 244.846459 147.961204 
L 245.295741 148.888294 
L 245.618729 149.742823 
L 245.644997 149.815385 
L 245.964784 150.742475 
L 246.284565 151.669565 
L 246.551839 152.444437 
L 246.604345 152.596656 
L 246.900437 153.523746 
L 247.179104 154.450836 
L 247.446233 155.377926 
L 247.48495 155.514214 
L 247.709611 156.305017 
L 247.972981 157.232107 
L 248.227393 158.159197 
L 248.41806 158.989909 
L 248.440276 159.086288 
L 248.606238 160.013378 
L 248.641941 160.940468 
L 248.66339 161.867559 
L 248.684837 162.794649 
L 248.705407 163.721739 
L 248.794061 164.648829 
L 248.920911 165.57592 
L 248.912515 166.50301 
L 248.777858 167.4301 
L 248.624664 168.357191 
L 248.470886 169.284281 
L 248.41806 169.602741 
L 248.317103 170.211371 
L 248.163326 171.138462 
L 248.009538 172.065552 
L 247.855763 172.992642 
L 247.701978 173.919732 
L 247.548195 174.846823 
L 247.48495 175.228102 
L 247.394414 175.773913 
L 247.240629 176.701003 
L 247.086853 177.628094 
L 246.939032 178.555184 
L 246.941728 179.482274 
L 246.992658 180.409365 
L 247.043572 181.336455 
L 247.063307 182.263545 
L 247.068133 183.190635 
L 247.033515 184.117726 
L 246.966635 185.044816 
L 246.911896 185.971906 
L 246.881166 186.898997 
L 246.850438 187.826087 
L 246.819715 188.753177 
L 246.788992 189.680268 
L 246.751977 190.607358 
L 246.551839 191.124303 
L 246.376508 191.534448 
L 245.972969 192.461538 
L 245.618729 193.282197 
L 245.574212 193.388629 
L 245.256712 194.315719 
L 244.94162 195.242809 
L 244.685619 195.874683 
L 244.572198 196.1699 
L 244.202801 197.09699 
L 243.834518 198.02408 
L 243.752508 198.272102 
L 243.528878 198.951171 
L 243.287553 199.878261 
L 243.046238 200.805351 
L 242.819398 201.676844 
L 242.804212 201.732441 
L 242.519122 202.659532 
L 242.211556 203.586622 
L 241.889638 204.513712 
L 241.886288 204.522685 
L 241.547784 205.440803 
L 241.259333 206.367893 
L 240.99907 207.294983 
L 240.953177 207.46496 
L 240.74617 208.222074 
L 240.380423 209.149164 
L 240.020067 209.970374 
L 239.973606 210.076254 
L 239.55092 211.003344 
L 239.098785 211.930435 
L 239.086957 211.954689 
L 238.646665 212.857525 
L 238.176994 213.784615 
L 238.153846 213.827618 
L 237.660902 214.711706 
L 237.220736 215.422947 
L 237.085239 215.638796 
L 236.459237 216.565886 
L 236.287625 216.820038 
L 235.845859 217.492977 
L 235.354515 218.18815 
L 235.180211 218.420067 
L 234.483727 219.347157 
L 234.421405 219.43017 
L 233.800741 220.274247 
L 233.488294 220.708552 
L 233.134607 221.201338 
L 232.555184 222.11563 
L 232.547639 222.128428 
L 231.957508 223.055518 
L 231.622074 223.518866 
L 231.238997 223.982609 
L 230.688963 224.599502 
L 230.412548 224.909699 
L 229.755853 225.631925 
L 229.554321 225.836789 
L 228.822742 226.486043 
L 228.46746 226.76388 
L 227.889632 227.2063 
L 227.24687 227.69097 
L 226.956522 227.909903 
L 226.023411 228.613485 
L 226.017363 228.61806 
L 225.090301 229.317102 
L 224.787878 229.545151 
L 224.157191 230.020729 
L 223.273842 230.472241 
L 223.22408 230.493551 
L 222.29097 230.834713 
L 221.35786 231.173773 
L 220.750644 231.399331 
L 220.424749 231.518678 
L 219.491639 231.850597 
L 218.558528 232.172747 
L 218.115884 232.326421 
L 217.625418 232.493637 
L 216.692308 232.810405 
L 215.759197 233.135317 
L 215.414084 233.253512 
L 214.826087 233.451242 
L 213.892977 233.77067 
L 212.959866 234.075088 
L 212.616154 234.180602 
L 212.026756 234.355981 
L 211.093645 234.480386 
L 210.160535 234.465816 
L 209.227425 234.444252 
L 208.294314 234.398769 
L 207.361204 234.303859 
L 206.428094 234.287249 
L 205.494983 234.264651 
L 204.561873 234.208771 
z
" clip-path="url(#p5d3dece9e2)" style="fill: none; stroke: #000000; stroke-width: 1.5"/>
   </g>
   <g id="patch_3">
    <path d="M 45 320.4 
L 45 43.2 
" style="fill: none; stroke: #000000; stroke-width: 0.8; stroke-linejoin: miter; stroke-linecap: square"/>
   </g>
   <g id="patch_4">
    <path d="M 324 320.4 
L 324 43.2 
" style="fill: none; stroke: #000000; stroke-width: 0.8; stroke-linejoin: miter; stroke-linecap: square"/>
   </g>
   <g id="patch_5">
    <path d="M 45 320.4 
L 324 320.4 
" style="fill: none; stroke: #000000; stroke-width: 0.8; stroke-linejoin: miter; stroke-linecap: square"/>
   </g>
   <g id="patch_6">
    <path d="M 45 43.2 
L 324 43.2 
" style="fill: none; stroke: #000000; stroke-width: 0.8; stroke-linejoin: miter; stroke-linecap: square"/>
   </g>
  </g>
 </g>
 <defs>
  <clipPath id="p5d3dece9e2">
   <rect x="45" y="43.2" width="279" height="277.2"/>
  </clipPath>
 </defs>
</svg>
