<?xml version="1.0" encoding="utf-8" standalone="no"?>
<!DOCTYPE svg PUBLIC "-//W3C//DTD SVG 1.1//EN"
  "http://www.w3.org/Graphics/SVG/1.1/DTD/svg11.dtd">
<svg xmlns:xlink="http://www.w3.org/1999/xlink" width="360pt" height="360pt" viewBox="0 0 360 360" xmlns="http://www.w3.org/2000/svg" version="1.1">
 <metadata>
  <rdf:RDF xmlns:dc="http://purl.org/dc/elements/1.1/" xmlns:cc="http://creativecommons.org/ns#" xmlns:rdf="http://www.w3.org/1999/02/22-rdf-syntax-ns#">
   <cc:Work>
    <dc:type rdf:resource="http://purl.org/dc/dcmitype/StillImage"/>
    <dc:date>2022-04-10T19:53:30.373142</dc:date>
    <dc:format>image/svg+xml</dc:format>
    <dc:creator>
     <cc:Agent>
      <dc:title>Matplotlib v3.5.1, https://matplotlib.org/</dc:title>
     </cc:Agent>
    </dc:creator>
   </cc:Work>
  </rdf:RDF>
 </metadata>
 <defs>
  <style type="text/css">*{stroke-linejoin: round; stroke-linecap: butt}</style>
 </defs>
 <g id="figure_1">
  <g id="patch_1">
   <path d="M 0 360 
L 360 360 
L 360 0 
L 0 0 
z
" style="fill: #ffffff"/>
  </g>
  <g id="axes_1">
   <g id="patch_2">
    <path d="M 45 320.4 
L 324 320.4 
L 324 43.2 
L 45 43.2 
z
" style="fill: #ffffff"/>
   </g>
   <g id="PathCollection_1">
    <defs>
     <path id="mf98487b5eb" d="M 0 0.5 
C 0.132602 0.5 0.25979 0.447317 0.353553 0.353553 
C 0.447317 0.25979 0.5 0.132602 0.5 0 
C 0.5 -0.132602 0.447317 -0.25979 0.353553 -0.353553 
C 0.25979 -0.447317 0.132602 -0.5 0 -0.5 
C -0.132602 -0.5 -0.25979 -0.447317 -0.353553 -0.353553 
C -0.447317 -0.25979 -0.5 -0.132602 -0.5 0 
C -0.5 0.132602 -0.447317 0.25979 -0.353553 0.353553 
C -0.25979 0.447317 -0.132602 0.5 0 0.5 
z
" style="stroke: #ff0000"/>
    </defs>
    <g clip-path="url(#p9d3e93819a)">
     <use xlink:href="#mf98487b5eb" x="206.05278" y="181.336455" style="fill: #ff0000; stroke: #ff0000"/>
     <use xlink:href="#mf98487b5eb" x="205.807249" y="179.297068" style="fill: #ff0000; stroke: #ff0000"/>
     <use xlink:href="#mf98487b5eb" x="206.201113" y="177.139889" style="fill: #ff0000; stroke: #ff0000"/>
     <use xlink:href="#mf98487b5eb" x="207.109126" y="174.662914" style="fill: #ff0000; stroke: #ff0000"/>
     <use xlink:href="#mf98487b5eb" x="208.319034" y="171.725947" style="fill: #ff0000; stroke: #ff0000"/>
     <use xlink:href="#mf98487b5eb" x="209.589395" y="168.260183" style="fill: #ff0000; stroke: #ff0000"/>
     <use xlink:href="#mf98487b5eb" x="210.685152" y="164.262706" style="fill: #ff0000; stroke: #ff0000"/>
     <use xlink:href="#mf98487b5eb" x="211.387618" y="159.79314" style="fill: #ff0000; stroke: #ff0000"/>
     <use xlink:href="#mf98487b5eb" x="211.494929" y="154.979231" style="fill: #ff0000; stroke: #ff0000"/>
     <use xlink:href="#mf98487b5eb" x="210.833164" y="150.021246" style="fill: #ff0000; stroke: #ff0000"/>
     <use xlink:href="#mf98487b5eb" x="209.283852" y="145.177845" style="fill: #ff0000; stroke: #ff0000"/>
     <use xlink:href="#mf98487b5eb" x="206.813853" y="140.726735" style="fill: #ff0000; stroke: #ff0000"/>
     <use xlink:href="#mf98487b5eb" x="203.486927" y="136.912788" style="fill: #ff0000; stroke: #ff0000"/>
     <use xlink:href="#mf98487b5eb" x="199.447623" y="133.906756" style="fill: #ff0000; stroke: #ff0000"/>
     <use xlink:href="#mf98487b5eb" x="194.88564" y="131.791567" style="fill: #ff0000; stroke: #ff0000"/>
     <use xlink:href="#mf98487b5eb" x="189.998335" y="130.577542" style="fill: #ff0000; stroke: #ff0000"/>
     <use xlink:href="#mf98487b5eb" x="184.966555" y="130.234206" style="fill: #ff0000; stroke: #ff0000"/>
     <use xlink:href="#mf98487b5eb" x="179.948924" y="130.720267" style="fill: #ff0000; stroke: #ff0000"/>
     <use xlink:href="#mf98487b5eb" x="175.088377" y="131.995894" style="fill: #ff0000; stroke: #ff0000"/>
     <use xlink:href="#mf98487b5eb" x="170.517602" y="134.011942" style="fill: #ff0000; stroke: #ff0000"/>
     <use xlink:href="#mf98487b5eb" x="166.351578" y="136.685864" style="fill: #ff0000; stroke: #ff0000"/>
     <use xlink:href="#mf98487b5eb" x="162.666392" y="139.88495" style="fill: #ff0000; stroke: #ff0000"/>
     <use xlink:href="#mf98487b5eb" x="159.477236" y="143.435106" style="fill: #ff0000; stroke: #ff0000"/>
     <use xlink:href="#mf98487b5eb" x="156.733758" y="147.156639" style="fill: #ff0000; stroke: #ff0000"/>
     <use xlink:href="#mf98487b5eb" x="154.341498" y="150.908978" style="fill: #ff0000; stroke: #ff0000"/>
     <use xlink:href="#mf98487b5eb" x="152.200035" y="154.619155" style="fill: #ff0000; stroke: #ff0000"/>
     <use xlink:href="#mf98487b5eb" x="150.236361" y="158.280197" style="fill: #ff0000; stroke: #ff0000"/>
     <use xlink:href="#mf98487b5eb" x="148.415875" y="161.925753" style="fill: #ff0000; stroke: #ff0000"/>
     <use xlink:href="#mf98487b5eb" x="146.729468" y="165.600318" style="fill: #ff0000; stroke: #ff0000"/>
     <use xlink:href="#mf98487b5eb" x="145.170468" y="169.342328" style="fill: #ff0000; stroke: #ff0000"/>
     <use xlink:href="#mf98487b5eb" x="143.72019" y="173.184974" style="fill: #ff0000; stroke: #ff0000"/>
     <use xlink:href="#mf98487b5eb" x="142.354493" y="177.16661" style="fill: #ff0000; stroke: #ff0000"/>
     <use xlink:href="#mf98487b5eb" x="141.070381" y="181.336455" style="fill: #ff0000; stroke: #ff0000"/>
     <use xlink:href="#mf98487b5eb" x="139.917562" y="185.744768" style="fill: #ff0000; stroke: #ff0000"/>
     <use xlink:href="#mf98487b5eb" x="139.012753" y="190.418262" style="fill: #ff0000; stroke: #ff0000"/>
     <use xlink:href="#mf98487b5eb" x="138.521961" y="195.334373" style="fill: #ff0000; stroke: #ff0000"/>
     <use xlink:href="#mf98487b5eb" x="138.616254" y="200.411514" style="fill: #ff0000; stroke: #ff0000"/>
     <use xlink:href="#mf98487b5eb" x="139.424915" y="205.52192" style="fill: #ff0000; stroke: #ff0000"/>
     <use xlink:href="#mf98487b5eb" x="141.010909" y="210.517194" style="fill: #ff0000; stroke: #ff0000"/>
     <use xlink:href="#mf98487b5eb" x="143.37603" y="215.248708" style="fill: #ff0000; stroke: #ff0000"/>
     <use xlink:href="#mf98487b5eb" x="146.4825" y="219.572225" style="fill: #ff0000; stroke: #ff0000"/>
     <use xlink:href="#mf98487b5eb" x="150.270314" y="223.341188" style="fill: #ff0000; stroke: #ff0000"/>
     <use xlink:href="#mf98487b5eb" x="154.658639" y="226.402818" style="fill: #ff0000; stroke: #ff0000"/>
     <use xlink:href="#mf98487b5eb" x="159.53502" y="228.608549" style="fill: #ff0000; stroke: #ff0000"/>
     <use xlink:href="#mf98487b5eb" x="164.745509" y="229.839424" style="fill: #ff0000; stroke: #ff0000"/>
     <use xlink:href="#mf98487b5eb" x="170.097268" y="230.037685" style="fill: #ff0000; stroke: #ff0000"/>
     <use xlink:href="#mf98487b5eb" x="175.377315" y="229.233801" style="fill: #ff0000; stroke: #ff0000"/>
     <use xlink:href="#mf98487b5eb" x="180.384303" y="227.560687" style="fill: #ff0000; stroke: #ff0000"/>
     <use xlink:href="#mf98487b5eb" x="184.966555" y="225.247844" style="fill: #ff0000; stroke: #ff0000"/>
     <use xlink:href="#mf98487b5eb" x="189.055835" y="222.587748" style="fill: #ff0000; stroke: #ff0000"/>
     <use xlink:href="#mf98487b5eb" x="192.681648" y="219.872612" style="fill: #ff0000; stroke: #ff0000"/>
     <use xlink:href="#mf98487b5eb" x="195.951686" y="217.315945" style="fill: #ff0000; stroke: #ff0000"/>
     <use xlink:href="#mf98487b5eb" x="198.997432" y="214.991448" style="fill: #ff0000; stroke: #ff0000"/>
     <use xlink:href="#mf98487b5eb" x="201.90575" y="212.823001" style="fill: #ff0000; stroke: #ff0000"/>
     <use xlink:href="#mf98487b5eb" x="204.670364" y="210.635038" style="fill: #ff0000; stroke: #ff0000"/>
     <use xlink:href="#mf98487b5eb" x="207.187015" y="208.237482" style="fill: #ff0000; stroke: #ff0000"/>
     <use xlink:href="#mf98487b5eb" x="209.289298" y="205.502277" style="fill: #ff0000; stroke: #ff0000"/>
     <use xlink:href="#mf98487b5eb" x="210.801974" y="202.402244" style="fill: #ff0000; stroke: #ff0000"/>
     <use xlink:href="#mf98487b5eb" x="211.590738" y="199.011393" style="fill: #ff0000; stroke: #ff0000"/>
     <use xlink:href="#mf98487b5eb" x="211.602826" y="195.481984" style="fill: #ff0000; stroke: #ff0000"/>
     <use xlink:href="#mf98487b5eb" x="210.899771" y="192.009042" style="fill: #ff0000; stroke: #ff0000"/>
     <use xlink:href="#mf98487b5eb" x="209.673949" y="188.783007" style="fill: #ff0000; stroke: #ff0000"/>
     <use xlink:href="#mf98487b5eb" x="208.229965" y="185.933981" style="fill: #ff0000; stroke: #ff0000"/>
     <use xlink:href="#mf98487b5eb" x="206.920401" y="183.48477" style="fill: #ff0000; stroke: #ff0000"/>
    </g>
   </g>
   <g id="matplotlib.axis_1">
    <g id="xtick_1">
     <g id="line2d_1">
      <defs>
       <path id="m2cc94eb337" d="M 0 0 
L 0 3.5 
" style="stroke: #000000; stroke-width: 0.8"/>
      </defs>
      <g>
       <use xlink:href="#m2cc94eb337" x="45" y="320.4" style="stroke: #000000; stroke-width: 0.8"/>
      </g>
     </g>
     <g id="text_1">
      <!-- −3 -->
      <g transform="translate(37.628906 334.998438)scale(0.1 -0.1)">
       <defs>
        <path id="DejaVuSans-2212" d="M 678 2272 
L 4684 2272 
L 4684 1741 
L 678 1741 
L 678 2272 
z
" transform="scale(0.015625)"/>
        <path id="DejaVuSans-33" d="M 2597 2516 
Q 3050 2419 3304 2112 
Q 3559 1806 3559 1356 
Q 3559 666 3084 287 
Q 2609 -91 1734 -91 
Q 1441 -91 1130 -33 
Q 819 25 488 141 
L 488 750 
Q 750 597 1062 519 
Q 1375 441 1716 441 
Q 2309 441 2620 675 
Q 2931 909 2931 1356 
Q 2931 1769 2642 2001 
Q 2353 2234 1838 2234 
L 1294 2234 
L 1294 2753 
L 1863 2753 
Q 2328 2753 2575 2939 
Q 2822 3125 2822 3475 
Q 2822 3834 2567 4026 
Q 2313 4219 1838 4219 
Q 1578 4219 1281 4162 
Q 984 4106 628 3988 
L 628 4550 
Q 988 4650 1302 4700 
Q 1616 4750 1894 4750 
Q 2613 4750 3031 4423 
Q 3450 4097 3450 3541 
Q 3450 3153 3228 2886 
Q 3006 2619 2597 2516 
z
" transform="scale(0.015625)"/>
       </defs>
       <use xlink:href="#DejaVuSans-2212"/>
       <use xlink:href="#DejaVuSans-33" x="83.789062"/>
      </g>
     </g>
    </g>
    <g id="xtick_2">
     <g id="line2d_2">
      <g>
       <use xlink:href="#m2cc94eb337" x="91.655518" y="320.4" style="stroke: #000000; stroke-width: 0.8"/>
      </g>
     </g>
     <g id="text_2">
      <!-- −2 -->
      <g transform="translate(84.284425 334.998438)scale(0.1 -0.1)">
       <defs>
        <path id="DejaVuSans-32" d="M 1228 531 
L 3431 531 
L 3431 0 
L 469 0 
L 469 531 
Q 828 903 1448 1529 
Q 2069 2156 2228 2338 
Q 2531 2678 2651 2914 
Q 2772 3150 2772 3378 
Q 2772 3750 2511 3984 
Q 2250 4219 1831 4219 
Q 1534 4219 1204 4116 
Q 875 4013 500 3803 
L 500 4441 
Q 881 4594 1212 4672 
Q 1544 4750 1819 4750 
Q 2544 4750 2975 4387 
Q 3406 4025 3406 3419 
Q 3406 3131 3298 2873 
Q 3191 2616 2906 2266 
Q 2828 2175 2409 1742 
Q 1991 1309 1228 531 
z
" transform="scale(0.015625)"/>
       </defs>
       <use xlink:href="#DejaVuSans-2212"/>
       <use xlink:href="#DejaVuSans-32" x="83.789062"/>
      </g>
     </g>
    </g>
    <g id="xtick_3">
     <g id="line2d_3">
      <g>
       <use xlink:href="#m2cc94eb337" x="138.311037" y="320.4" style="stroke: #000000; stroke-width: 0.8"/>
      </g>
     </g>
     <g id="text_3">
      <!-- −1 -->
      <g transform="translate(130.939943 334.998438)scale(0.1 -0.1)">
       <defs>
        <path id="DejaVuSans-31" d="M 794 531 
L 1825 531 
L 1825 4091 
L 703 3866 
L 703 4441 
L 1819 4666 
L 2450 4666 
L 2450 531 
L 3481 531 
L 3481 0 
L 794 0 
L 794 531 
z
" transform="scale(0.015625)"/>
       </defs>
       <use xlink:href="#DejaVuSans-2212"/>
       <use xlink:href="#DejaVuSans-31" x="83.789062"/>
      </g>
     </g>
    </g>
    <g id="xtick_4">
     <g id="line2d_4">
      <g>
       <use xlink:href="#m2cc94eb337" x="184.966555" y="320.4" style="stroke: #000000; stroke-width: 0.8"/>
      </g>
     </g>
     <g id="text_4">
      <!-- 0 -->
      <g transform="translate(181.785305 334.998438)scale(0.1 -0.1)">
       <defs>
        <path id="DejaVuSans-30" d="M 2034 4250 
Q 1547 4250 1301 3770 
Q 1056 3291 1056 2328 
Q 1056 1369 1301 889 
Q 1547 409 2034 409 
Q 2525 409 2770 889 
Q 3016 1369 3016 2328 
Q 3016 3291 2770 3770 
Q 2525 4250 2034 4250 
z
M 2034 4750 
Q 2819 4750 3233 4129 
Q 3647 3509 3647 2328 
Q 3647 1150 3233 529 
Q 2819 -91 2034 -91 
Q 1250 -91 836 529 
Q 422 1150 422 2328 
Q 422 3509 836 4129 
Q 1250 4750 2034 4750 
z
" transform="scale(0.015625)"/>
       </defs>
       <use xlink:href="#DejaVuSans-30"/>
      </g>
     </g>
    </g>
    <g id="xtick_5">
     <g id="line2d_5">
      <g>
       <use xlink:href="#m2cc94eb337" x="231.622074" y="320.4" style="stroke: #000000; stroke-width: 0.8"/>
      </g>
     </g>
     <g id="text_5">
      <!-- 1 -->
      <g transform="translate(228.440824 334.998438)scale(0.1 -0.1)">
       <use xlink:href="#DejaVuSans-31"/>
      </g>
     </g>
    </g>
    <g id="xtick_6">
     <g id="line2d_6">
      <g>
       <use xlink:href="#m2cc94eb337" x="278.277592" y="320.4" style="stroke: #000000; stroke-width: 0.8"/>
      </g>
     </g>
     <g id="text_6">
      <!-- 2 -->
      <g transform="translate(275.096342 334.998438)scale(0.1 -0.1)">
       <use xlink:href="#DejaVuSans-32"/>
      </g>
     </g>
    </g>
   </g>
   <g id="matplotlib.axis_2">
    <g id="ytick_1">
     <g id="line2d_7">
      <defs>
       <path id="mdb6b349787" d="M 0 0 
L -3.5 0 
" style="stroke: #000000; stroke-width: 0.8"/>
      </defs>
      <g>
       <use xlink:href="#mdb6b349787" x="45" y="320.4" style="stroke: #000000; stroke-width: 0.8"/>
      </g>
     </g>
     <g id="text_7">
      <!-- −3 -->
      <g transform="translate(23.257812 324.199219)scale(0.1 -0.1)">
       <use xlink:href="#DejaVuSans-2212"/>
       <use xlink:href="#DejaVuSans-33" x="83.789062"/>
      </g>
     </g>
    </g>
    <g id="ytick_2">
     <g id="line2d_8">
      <g>
       <use xlink:href="#mdb6b349787" x="45" y="274.045485" style="stroke: #000000; stroke-width: 0.8"/>
      </g>
     </g>
     <g id="text_8">
      <!-- −2 -->
      <g transform="translate(23.257812 277.844704)scale(0.1 -0.1)">
       <use xlink:href="#DejaVuSans-2212"/>
       <use xlink:href="#DejaVuSans-32" x="83.789062"/>
      </g>
     </g>
    </g>
    <g id="ytick_3">
     <g id="line2d_9">
      <g>
       <use xlink:href="#mdb6b349787" x="45" y="227.69097" style="stroke: #000000; stroke-width: 0.8"/>
      </g>
     </g>
     <g id="text_9">
      <!-- −1 -->
      <g transform="translate(23.257812 231.490189)scale(0.1 -0.1)">
       <use xlink:href="#DejaVuSans-2212"/>
       <use xlink:href="#DejaVuSans-31" x="83.789062"/>
      </g>
     </g>
    </g>
    <g id="ytick_4">
     <g id="line2d_10">
      <g>
       <use xlink:href="#mdb6b349787" x="45" y="181.336455" style="stroke: #000000; stroke-width: 0.8"/>
      </g>
     </g>
     <g id="text_10">
      <!-- 0 -->
      <g transform="translate(31.6375 185.135674)scale(0.1 -0.1)">
       <use xlink:href="#DejaVuSans-30"/>
      </g>
     </g>
    </g>
    <g id="ytick_5">
     <g id="line2d_11">
      <g>
       <use xlink:href="#mdb6b349787" x="45" y="134.98194" style="stroke: #000000; stroke-width: 0.8"/>
      </g>
     </g>
     <g id="text_11">
      <!-- 1 -->
      <g transform="translate(31.6375 138.781159)scale(0.1 -0.1)">
       <use xlink:href="#DejaVuSans-31"/>
      </g>
     </g>
    </g>
    <g id="ytick_6">
     <g id="line2d_12">
      <g>
       <use xlink:href="#mdb6b349787" x="45" y="88.627425" style="stroke: #000000; stroke-width: 0.8"/>
      </g>
     </g>
     <g id="text_12">
      <!-- 2 -->
      <g transform="translate(31.6375 92.426643)scale(0.1 -0.1)">
       <use xlink:href="#DejaVuSans-32"/>
      </g>
     </g>
    </g>
   </g>
   <g id="PathCollection_2">
    <path d="M 165.371237 204.878601 
L 164.953904 204.513712 
L 164.438127 204.069738 
L 163.936273 203.586622 
L 163.505017 203.155377 
L 163.01323 202.659532 
L 162.571906 202.148758 
L 162.222863 201.732441 
L 161.9174 200.805351 
L 161.900622 199.878261 
L 161.883836 198.951171 
L 161.867056 198.02408 
L 162.086945 197.09699 
L 162.391141 196.1699 
L 162.571906 195.81285 
L 162.796355 195.242809 
L 163.190136 194.315719 
L 163.505017 193.696915 
L 163.674538 193.388629 
L 164.081461 192.461538 
L 164.385436 191.534448 
L 164.438127 191.363465 
L 164.660099 190.607358 
L 164.828786 189.680268 
L 164.959944 188.753177 
L 165.113629 187.826087 
L 165.302353 186.898997 
L 165.371237 186.564066 
L 165.491786 185.971906 
L 165.673462 185.044816 
L 165.832562 184.117726 
L 165.961676 183.190635 
L 166.092821 182.263545 
L 166.233347 181.336455 
L 166.304348 180.879878 
L 166.376712 180.409365 
L 166.519489 179.482274 
L 166.662315 178.555184 
L 166.805141 177.628094 
L 166.946802 176.701003 
L 167.237458 176.118115 
L 167.424525 175.773913 
L 168.164731 174.846823 
L 168.170569 174.839625 
L 169.098638 173.919732 
L 169.103679 173.914565 
L 169.986064 172.992642 
L 170.036789 172.885498 
L 170.37966 172.065552 
L 170.772606 171.138462 
L 170.9699 170.729984 
L 171.212283 170.211371 
L 171.589174 169.284281 
L 171.897771 168.357191 
L 171.90301 168.342303 
L 172.190183 167.4301 
L 172.482042 166.50301 
L 172.774945 165.57592 
L 172.83612 165.378385 
L 173.066322 164.648829 
L 173.371996 163.721739 
L 173.667477 162.794649 
L 173.769231 162.463549 
L 173.996369 161.867559 
L 174.37104 160.940468 
L 174.702341 160.197989 
L 174.799176 160.013378 
L 175.384906 159.086288 
L 175.635452 158.750397 
L 176.157547 158.159197 
L 176.568562 157.744297 
L 177.244621 157.232107 
L 177.501672 157.024422 
L 178.434783 156.542935 
L 179.367893 156.313943 
L 179.416565 156.305017 
L 180.301003 156.137747 
L 181.234114 155.751275 
L 181.978839 155.377926 
L 182.167224 155.28512 
L 183.100334 154.933301 
L 183.798444 155.377926 
L 184.033445 155.622757 
L 184.461032 156.305017 
L 184.966555 157.191401 
L 184.990589 157.232107 
L 185.522121 158.159197 
L 185.899666 158.901187 
L 185.978827 159.086288 
L 186.315631 160.013378 
L 186.652814 160.940468 
L 186.832776 161.434068 
L 186.978939 161.867559 
L 187.266553 162.794649 
L 187.370127 163.721739 
L 187.384658 164.648829 
L 187.423614 165.57592 
L 187.490057 166.50301 
L 187.549803 167.4301 
L 187.564021 168.357191 
L 187.515766 169.284281 
L 187.246021 170.211371 
L 186.991759 171.138462 
L 186.832776 171.786207 
L 186.762468 172.065552 
L 186.637726 172.992642 
L 186.522519 173.919732 
L 186.414404 174.846823 
L 186.304545 175.773913 
L 186.163473 176.701003 
L 186.051864 177.628094 
L 185.928808 178.555184 
L 185.899666 178.750578 
L 185.792168 179.482274 
L 185.693663 180.409365 
L 185.69025 181.336455 
L 185.800918 182.263545 
L 185.899666 182.812446 
L 185.965407 183.190635 
L 186.169585 184.117726 
L 186.349747 185.044816 
L 186.497578 185.971906 
L 186.638766 186.898997 
L 186.774186 187.826087 
L 186.832776 188.435207 
L 186.861804 188.753177 
L 186.893896 189.680268 
L 186.888945 190.607358 
L 186.860789 191.534448 
L 186.845071 192.461538 
L 186.901479 193.388629 
L 186.949923 194.315719 
L 186.832776 194.727579 
L 186.652334 195.242809 
L 186.138292 196.1699 
L 185.899666 196.500009 
L 185.243798 197.09699 
L 184.966555 197.350307 
L 184.228127 198.02408 
L 184.033445 198.187756 
L 183.100334 198.946352 
L 183.092681 198.951171 
L 182.167224 199.495069 
L 181.492067 199.878261 
L 181.234114 200.035953 
L 180.301003 200.636297 
L 180.032235 200.805351 
L 179.367893 201.223211 
L 178.540192 201.732441 
L 178.434783 201.793738 
L 177.501672 202.252673 
L 176.568562 202.612658 
L 176.410643 202.659532 
L 175.635452 202.889625 
L 174.702341 203.166591 
L 173.769231 203.442014 
L 173.03244 203.586622 
L 172.83612 203.626787 
L 171.90301 203.8065 
L 170.9699 204.100349 
L 170.036789 204.398911 
L 169.677992 204.513712 
L 169.103679 204.686379 
L 168.170569 204.948925 
L 167.237458 205.161387 
L 166.304348 205.239727 
L 165.371237 204.878601 
z
" clip-path="url(#p9d3e93819a)" style="fill: none; stroke-dasharray: 5.55,2.4; stroke-dashoffset: 0; stroke: #000000; stroke-width: 1.5"/>
   </g>
   <g id="PathCollection_3">
    <path d="M 164.438127 231.408731 
L 164.374822 231.399331 
L 163.505017 231.12565 
L 162.571906 230.801311 
L 161.805802 230.472241 
L 161.638796 230.378048 
L 160.705686 229.889552 
L 160.132909 229.545151 
L 159.772575 229.313098 
L 158.839465 228.827835 
L 158.395932 228.61806 
L 157.906355 228.384256 
L 156.973244 228.03873 
L 156.207019 227.69097 
L 156.040134 227.593094 
L 155.107023 227.227942 
L 154.173913 226.795517 
L 154.081725 226.76388 
L 153.240803 226.351803 
L 152.391216 225.836789 
L 152.307692 225.770201 
L 151.374582 225.245285 
L 150.825156 224.909699 
L 150.441472 224.659317 
L 149.589349 223.982609 
L 149.508361 223.906636 
L 148.575251 223.179979 
L 148.432524 223.055518 
L 147.64214 222.417315 
L 147.324794 222.128428 
L 146.70903 221.604575 
L 146.304429 221.201338 
L 145.77592 220.511555 
L 145.5961 220.274247 
L 145.066727 219.347157 
L 144.842809 219.027562 
L 144.461971 218.420067 
L 143.978318 217.492977 
L 143.909699 217.406904 
L 143.452002 216.565886 
L 142.976589 215.760823 
L 142.92905 215.638796 
L 142.414926 214.711706 
L 142.043478 214.086472 
L 141.894211 213.784615 
L 141.386369 212.857525 
L 141.110368 212.415553 
L 140.865248 211.930435 
L 140.480243 211.003344 
L 140.235056 210.076254 
L 140.177258 209.896898 
L 140.073838 209.149164 
L 139.823783 208.222074 
L 139.604313 207.294983 
L 139.282632 206.367893 
L 139.244147 206.297162 
L 138.935231 205.440803 
L 138.748136 204.513712 
L 138.575865 203.586622 
L 138.360306 202.659532 
L 138.311037 202.492652 
L 138.208052 201.732441 
L 138.085015 200.805351 
L 138.01427 199.878261 
L 137.973909 198.951171 
L 137.941691 198.02408 
L 138.152124 197.09699 
L 138.278618 196.1699 
L 138.293188 195.242809 
L 138.302651 194.315719 
L 138.306469 193.388629 
L 138.309104 192.461538 
L 138.311037 192.215496 
L 138.36309 191.534448 
L 138.449192 190.607358 
L 138.553721 189.680268 
L 138.633789 188.753177 
L 138.787528 187.826087 
L 139.069832 186.898997 
L 139.238987 185.971906 
L 139.244147 185.872747 
L 139.519829 185.044816 
L 139.862242 184.117726 
L 140.177258 183.341226 
L 140.255414 183.190635 
L 140.599785 182.263545 
L 140.94023 181.336455 
L 141.110368 180.844878 
L 141.277784 180.409365 
L 141.684532 179.482274 
L 142.043478 178.817084 
L 142.205739 178.555184 
L 142.68932 177.628094 
L 142.976589 177.108606 
L 143.207854 176.701003 
L 143.589222 175.773913 
L 143.909699 174.957478 
L 143.970064 174.846823 
L 144.278637 173.919732 
L 144.588845 172.992642 
L 144.842809 172.146338 
L 144.875275 172.065552 
L 145.221743 171.138462 
L 145.565066 170.211371 
L 145.77592 169.745432 
L 145.984056 169.284281 
L 146.28993 168.357191 
L 146.673222 167.4301 
L 146.70903 167.368182 
L 147.077152 166.50301 
L 147.481978 165.57592 
L 147.64214 165.349057 
L 148.106658 164.648829 
L 148.575251 164.070925 
L 148.873593 163.721739 
L 149.508361 162.843117 
L 149.564153 162.794649 
L 150.145501 161.867559 
L 150.441472 161.444854 
L 150.714121 160.940468 
L 151.150329 160.013378 
L 151.374582 159.666943 
L 151.661132 159.086288 
L 152.074037 158.159197 
L 152.307692 157.778346 
L 152.579259 157.232107 
L 152.9604 156.305017 
L 153.240803 155.786972 
L 153.445613 155.377926 
L 153.683648 154.450836 
L 153.997159 153.523746 
L 154.173913 153.109106 
L 154.375578 152.596656 
L 154.611615 151.669565 
L 154.916747 150.742475 
L 155.107023 150.328429 
L 155.324555 149.815385 
L 155.551372 148.888294 
L 155.830581 147.961204 
L 156.040134 147.608111 
L 156.374642 147.034114 
L 156.973244 146.147707 
L 157.007022 146.107023 
L 157.600132 145.179933 
L 157.906355 144.777392 
L 158.26384 144.252843 
L 158.839465 143.451431 
L 158.94551 143.325753 
L 159.772575 142.516178 
L 159.893855 142.398662 
L 160.705686 141.604115 
L 160.849288 141.471572 
L 161.638796 140.733477 
L 161.842955 140.544482 
L 162.571906 139.903793 
L 162.928305 139.617391 
L 163.505017 139.181039 
L 164.134711 138.690301 
L 164.438127 138.43373 
L 165.287565 137.763211 
L 165.371237 137.689481 
L 166.304348 136.879233 
L 166.348044 136.83612 
L 167.237458 135.914503 
L 167.242906 135.90903 
L 168.170569 135.143626 
L 168.379859 134.98194 
L 169.103679 134.437615 
L 169.612663 134.054849 
L 170.036789 133.725372 
L 170.9699 133.191385 
L 171.063584 133.127759 
L 171.90301 132.704246 
L 172.83612 132.319982 
L 173.079371 132.200669 
L 173.769231 131.909896 
L 174.702341 131.64168 
L 175.635452 131.345806 
L 175.94304 131.273579 
L 176.568562 131.153854 
L 177.501672 131.040716 
L 178.434783 130.962889 
L 179.367893 130.931845 
L 180.301003 130.909347 
L 181.234114 130.887067 
L 182.167224 130.86796 
L 183.100334 130.881857 
L 184.033445 130.922134 
L 184.966555 130.851832 
L 185.899666 130.774232 
L 186.832776 130.694028 
L 187.765886 130.613247 
L 188.698997 130.54428 
L 189.632107 130.467633 
L 190.565217 130.371814 
L 191.498328 130.483144 
L 192.431438 130.582079 
L 193.364548 130.809477 
L 194.297659 131.061417 
L 194.748356 131.273579 
L 195.230769 131.515783 
L 196.16388 131.974505 
L 196.648391 132.200669 
L 197.09699 132.408609 
L 198.0301 132.904281 
L 198.393383 133.127759 
L 198.963211 133.469821 
L 199.839171 134.054849 
L 199.896321 134.104883 
L 200.829431 134.742541 
L 201.173681 134.98194 
L 201.762542 135.372917 
L 202.695652 135.897497 
L 202.715043 135.90903 
L 203.469809 136.83612 
L 203.628763 137.008992 
L 204.238516 137.763211 
L 204.561873 138.166496 
L 205.005998 138.690301 
L 205.494983 139.21853 
L 205.882836 139.617391 
L 206.428094 140.240463 
L 206.677729 140.544482 
L 207.361204 141.423467 
L 207.401231 141.471572 
L 208.110359 142.398662 
L 208.294314 142.627693 
L 208.692448 143.325753 
L 208.918481 144.252843 
L 209.227425 145.089089 
L 209.244998 145.179933 
L 209.565095 146.107023 
L 209.839298 147.034114 
L 210.160535 147.808943 
L 210.227306 147.961204 
L 210.602982 148.888294 
L 210.923346 149.815385 
L 211.093645 150.150901 
L 211.321891 150.742475 
L 211.499576 151.669565 
L 211.521406 152.596656 
L 211.492786 153.523746 
L 211.449082 154.450836 
L 211.42184 155.377926 
L 211.402876 156.305017 
L 211.383371 157.232107 
L 211.363313 158.159197 
L 211.335101 159.086288 
L 211.290255 160.013378 
L 211.243344 160.940468 
L 211.187038 161.867559 
L 211.093645 162.784318 
L 211.091811 162.794649 
L 210.949043 163.721739 
L 210.907481 164.648829 
L 210.915541 165.57592 
L 210.850181 166.50301 
L 210.766654 167.4301 
L 210.556418 168.357191 
L 210.197232 169.284281 
L 210.160535 169.362681 
L 209.839561 170.211371 
L 209.522914 171.138462 
L 209.227425 172.010008 
L 209.204672 172.065552 
L 208.945816 172.992642 
L 208.820549 173.919732 
L 208.713287 174.846823 
L 208.584989 175.773913 
L 208.423233 176.701003 
L 208.371494 177.628094 
L 208.324565 178.555184 
L 208.294314 179.375988 
L 208.290541 179.482274 
L 208.294314 179.538184 
L 208.352961 180.409365 
L 208.420442 181.336455 
L 208.485097 182.263545 
L 208.542588 183.190635 
L 208.593254 184.117726 
L 208.67578 185.044816 
L 208.749792 185.971906 
L 208.819439 186.898997 
L 208.887927 187.826087 
L 208.966374 188.753177 
L 209.045155 189.680268 
L 209.173651 190.607358 
L 209.227425 190.807516 
L 209.421134 191.534448 
L 209.622816 192.461538 
L 209.784175 193.388629 
L 209.917262 194.315719 
L 210.025396 195.242809 
L 210.13224 196.1699 
L 210.160535 196.401987 
L 210.258284 197.09699 
L 210.331693 198.02408 
L 210.399754 198.951171 
L 210.463211 199.878261 
L 210.50832 200.805351 
L 210.31416 201.732441 
L 210.160535 202.270794 
L 210.073961 202.659532 
L 209.854151 203.586622 
L 209.611638 204.513712 
L 209.227425 205.115091 
L 209.023254 205.440803 
L 208.439591 206.367893 
L 208.294314 206.548207 
L 207.79998 207.294983 
L 207.361204 207.948259 
L 207.17756 208.222074 
L 206.578622 209.149164 
L 206.428094 209.351194 
L 205.939088 210.076254 
L 205.494983 210.692529 
L 205.270413 211.003344 
L 204.561873 211.753904 
L 204.365544 211.930435 
L 203.628763 212.554666 
L 203.294791 212.857525 
L 202.695652 213.429868 
L 202.352803 213.784615 
L 201.762542 214.438213 
L 201.516203 214.711706 
L 200.829431 215.514845 
L 200.722885 215.638796 
L 199.925269 216.565886 
L 199.896321 216.597949 
L 198.996494 217.492977 
L 198.963211 217.517991 
L 198.0301 217.911407 
L 197.09699 218.291681 
L 196.842678 218.420067 
L 196.16388 218.745078 
L 195.230769 219.183968 
L 194.901703 219.347157 
L 194.297659 219.644509 
L 193.364548 220.113889 
L 193.107542 220.274247 
L 192.431438 220.682364 
L 191.537494 221.201338 
L 191.498328 221.222783 
L 190.565217 221.787178 
L 190.039482 222.128428 
L 189.632107 222.412137 
L 188.698997 223.051963 
L 188.693725 223.055518 
L 187.765886 223.53967 
L 186.832776 223.941689 
L 186.762342 223.982609 
L 185.899666 224.388603 
L 184.966555 224.782473 
L 184.723966 224.909699 
L 184.033445 225.236831 
L 183.100334 225.664698 
L 182.823701 225.836789 
L 182.167224 226.210048 
L 181.234114 226.680017 
L 181.100534 226.76388 
L 180.301003 227.166489 
L 179.367893 227.595522 
L 179.219006 227.69097 
L 178.434783 228.092267 
L 177.501672 228.511323 
L 177.338466 228.61806 
L 176.568562 229.018224 
L 175.635452 229.431826 
L 175.458945 229.545151 
L 174.702341 229.920919 
L 173.769231 230.321986 
L 173.505787 230.472241 
L 172.83612 230.740813 
L 171.90301 230.890195 
L 170.9699 231.014317 
L 170.036789 231.109829 
L 169.103679 231.210972 
L 168.170569 231.350628 
L 167.920211 231.399331 
L 167.237458 231.455383 
L 166.304348 231.611867 
L 165.371237 231.599626 
L 164.438127 231.408731 
z
" clip-path="url(#p9d3e93819a)" style="fill: none; stroke: #000000; stroke-width: 1.5"/>
   </g>
   <g id="PathCollection_4">
    <path d="M 161.638796 253.814833 
L 161.046851 253.649498 
L 160.705686 253.554206 
L 159.772575 253.293564 
L 158.839465 253.032924 
L 157.906355 252.763274 
L 157.773912 252.722408 
L 156.973244 252.472756 
L 156.040134 252.173244 
L 155.107023 251.869258 
L 154.880058 251.795318 
L 154.173913 251.565271 
L 153.240803 251.261241 
L 152.371837 250.868227 
L 152.307692 250.837113 
L 151.374582 250.393952 
L 150.441472 249.968217 
L 150.388593 249.941137 
L 149.508361 249.464338 
L 148.575251 249.029206 
L 148.531419 249.014047 
L 147.64214 248.706249 
L 146.70903 248.355047 
L 146.025389 248.086957 
L 145.77592 247.989129 
L 144.842809 247.60606 
L 143.909699 247.183445 
L 143.86661 247.159866 
L 142.976589 246.652035 
L 142.241819 246.232776 
L 142.043478 246.119602 
L 141.110368 245.587166 
L 140.61706 245.305686 
L 140.177258 245.052651 
L 139.244147 244.506745 
L 139.032356 244.378595 
L 138.311037 243.92838 
L 137.562629 243.451505 
L 137.377926 243.333814 
L 136.444816 242.704738 
L 136.229305 242.524415 
L 135.511706 241.872552 
L 135.211961 241.597324 
L 134.578595 241.015758 
L 134.202292 240.670234 
L 133.645485 240.158108 
L 133.198122 239.743144 
L 132.712375 239.292367 
L 132.197573 238.816054 
L 131.779264 238.429358 
L 131.19418 237.888963 
L 130.846154 237.563273 
L 130.20742 236.961873 
L 129.913043 236.679331 
L 129.243275 236.034783 
L 128.979933 235.779813 
L 128.291973 235.107692 
L 128.046823 234.807615 
L 127.634015 234.180602 
L 127.113712 233.27521 
L 127.100981 233.253512 
L 126.513375 232.326421 
L 126.180602 231.801385 
L 125.92578 231.399331 
L 125.338167 230.472241 
L 125.247492 230.329177 
L 124.754959 229.545151 
L 124.314381 228.853627 
L 124.170063 228.61806 
L 123.590203 227.69097 
L 123.381271 227.346777 
L 123.049153 226.76388 
L 122.597095 225.836789 
L 122.448161 225.532696 
L 122.152026 224.909699 
L 121.714173 223.982609 
L 121.51505 223.618596 
L 121.185413 223.055518 
L 120.587404 222.128428 
L 120.58194 222.116733 
L 120.232016 221.201338 
L 119.974491 220.274247 
L 119.648829 219.371358 
L 119.6401 219.347157 
L 119.312841 218.420067 
L 119.008231 217.492977 
L 118.715719 216.60208 
L 118.703649 216.565886 
L 118.385566 215.638796 
L 118.067488 214.711706 
L 117.782609 213.881409 
L 117.749272 213.784615 
L 117.514699 212.857525 
L 117.35686 211.930435 
L 117.180001 211.003344 
L 117.002092 210.076254 
L 116.849498 209.285354 
L 116.823078 209.149164 
L 116.643229 208.222074 
L 116.463632 207.294983 
L 116.291259 206.367893 
L 116.121439 205.440803 
L 115.916388 204.582028 
L 115.900082 204.513712 
L 115.665577 203.586622 
L 115.514612 202.659532 
L 115.451659 201.732441 
L 115.388701 200.805351 
L 115.325736 199.878261 
L 115.256644 198.951171 
L 115.098406 198.02408 
L 115.100746 197.09699 
L 115.135921 196.1699 
L 115.171253 195.242809 
L 115.206607 194.315719 
L 115.241923 193.388629 
L 115.277266 192.461538 
L 115.312603 191.534448 
L 115.347941 190.607358 
L 115.387783 189.680268 
L 115.45185 188.753177 
L 115.525053 187.826087 
L 115.598253 186.898997 
L 115.66988 185.971906 
L 115.769265 185.044816 
L 115.916388 184.304592 
L 115.953529 184.117726 
L 116.136538 183.190635 
L 116.332131 182.263545 
L 116.621235 181.336455 
L 116.849498 180.839293 
L 117.026172 180.409365 
L 117.505095 179.482274 
L 117.782609 178.945081 
L 117.984027 178.555184 
L 118.462712 177.628094 
L 118.715719 177.121636 
L 118.926233 176.701003 
L 119.299131 175.773913 
L 119.557669 174.846823 
L 119.648829 174.514472 
L 119.812292 173.919732 
L 120.04383 172.992642 
L 120.313892 172.065552 
L 120.58194 171.236379 
L 120.613594 171.138462 
L 120.824698 170.211371 
L 120.938836 169.284281 
L 121.056153 168.357191 
L 121.326643 167.4301 
L 121.51505 166.990282 
L 121.725068 166.50301 
L 122.123018 165.57592 
L 122.448161 164.817176 
L 122.5203 164.648829 
L 122.907671 163.721739 
L 123.289422 162.794649 
L 123.381271 162.571583 
L 123.652189 161.867559 
L 123.915293 160.940468 
L 124.170478 160.013378 
L 124.314381 159.490573 
L 124.430464 159.086288 
L 124.744596 158.159197 
L 125.247492 157.401571 
L 125.360252 157.232107 
L 125.977131 156.305017 
L 126.180602 155.999232 
L 126.594012 155.377926 
L 127.113712 154.59689 
L 127.210898 154.450836 
L 127.82777 153.523746 
L 128.046823 153.194542 
L 128.404451 152.596656 
L 128.842897 151.669565 
L 128.979933 151.377755 
L 129.278267 150.742475 
L 129.717315 149.815385 
L 129.913043 149.405818 
L 130.162787 148.888294 
L 130.610177 147.961204 
L 130.846154 147.472561 
L 131.062002 147.034114 
L 131.569532 146.107023 
L 131.779264 145.736457 
L 132.094234 145.179933 
L 132.616923 144.252843 
L 132.712375 144.079976 
L 133.095757 143.325753 
L 133.492474 142.398662 
L 133.645485 142.047017 
L 133.89588 141.471572 
L 134.293593 140.544482 
L 134.578595 139.809867 
L 134.651219 139.617391 
L 135.001043 138.690301 
L 135.350858 137.763211 
L 135.511706 137.336919 
L 135.700665 136.83612 
L 136.227091 135.90903 
L 136.444816 135.59066 
L 136.861105 134.98194 
L 137.377926 134.22619 
L 137.4951 134.054849 
L 138.129113 133.127759 
L 138.311037 132.861742 
L 138.763126 132.200669 
L 139.244147 131.497287 
L 139.397135 131.273579 
L 139.987908 130.346488 
L 140.177258 130.022775 
L 140.522841 129.419398 
L 141.053849 128.492308 
L 141.110368 128.395986 
L 141.62816 127.565217 
L 142.043478 126.983575 
L 142.308511 126.638127 
L 142.976589 125.96208 
L 143.296809 125.711037 
L 143.909699 125.241068 
L 144.505462 124.783946 
L 144.842809 124.534069 
L 145.77592 123.869122 
L 145.793432 123.856856 
L 146.70903 123.216502 
L 147.119028 122.929766 
L 147.64214 122.56392 
L 148.441399 122.002676 
L 148.575251 121.906781 
L 149.508361 121.218814 
L 149.702462 121.075585 
L 150.441472 120.512646 
L 150.897403 120.148495 
L 151.374582 119.767363 
L 152.058122 119.221405 
L 152.307692 119.022069 
L 153.218848 118.294314 
L 153.240803 118.276779 
L 154.173913 117.53148 
L 154.390718 117.367224 
L 155.107023 116.822361 
L 155.619528 116.440134 
L 156.040134 116.126454 
L 156.862623 115.513043 
L 156.973244 115.430543 
L 157.906355 114.844425 
L 158.433684 114.585953 
L 158.839465 114.387062 
L 159.772575 113.929707 
L 160.32514 113.658863 
L 160.705686 113.472334 
L 161.638796 113.009333 
L 162.225737 112.731773 
L 162.571906 112.569337 
L 163.505017 112.113822 
L 164.127643 111.804682 
L 164.438127 111.65082 
L 165.371237 111.188407 
L 165.998434 110.877592 
L 166.304348 110.732636 
L 167.237458 110.40933 
L 168.170569 110.109284 
L 168.610608 109.950502 
L 169.103679 109.771394 
L 170.036789 109.42319 
L 170.9699 109.096788 
L 171.179655 109.023411 
L 171.90301 108.759272 
L 172.83612 108.355967 
L 173.769231 108.259171 
L 174.702341 108.217941 
L 175.635452 108.239303 
L 176.568562 108.279829 
L 177.501672 108.320341 
L 178.434783 108.36085 
L 179.367893 108.401365 
L 180.301003 108.446293 
L 181.234114 108.537842 
L 182.167224 108.621242 
L 183.100334 108.700585 
L 184.033445 108.637146 
L 184.966555 108.535528 
L 185.899666 108.380704 
L 186.832776 108.225883 
L 187.613637 108.096321 
L 187.765886 108.071142 
L 188.698997 107.918043 
L 189.632107 107.767011 
L 190.565217 107.62862 
L 191.498328 107.515626 
L 192.431438 107.402634 
L 193.364548 107.289656 
L 194.297659 107.348001 
L 195.230769 107.572364 
L 196.16388 107.800254 
L 197.09699 108.03444 
L 197.299563 108.096321 
L 198.0301 108.319308 
L 198.963211 108.60452 
L 199.896321 108.842842 
L 200.582561 109.023411 
L 200.829431 109.088167 
L 201.762542 109.352304 
L 202.695652 109.61643 
L 203.628763 109.88057 
L 203.817525 109.950502 
L 204.561873 110.251816 
L 205.494983 110.734448 
L 205.770725 110.877592 
L 206.428094 111.21885 
L 207.361204 111.70616 
L 207.530956 111.804682 
L 208.294314 112.258759 
L 209.08953 112.731773 
L 209.227425 112.813796 
L 210.160535 113.368857 
L 210.648097 113.658863 
L 211.093645 113.928002 
L 212.026756 114.508375 
L 212.149402 114.585953 
L 212.959866 115.098591 
L 213.615087 115.513043 
L 213.892977 115.68882 
L 214.826087 116.279055 
L 215.080229 116.440134 
L 215.759197 116.85554 
L 216.393842 117.367224 
L 216.692308 117.675634 
L 217.273919 118.294314 
L 217.625418 118.668218 
L 218.14546 119.221405 
L 218.558528 119.654301 
L 219.063231 120.148495 
L 219.491639 120.564649 
L 219.980573 121.075585 
L 220.424749 121.569998 
L 220.795745 122.002676 
L 221.35786 122.658259 
L 221.590655 122.929766 
L 222.29097 123.746525 
L 222.385572 123.856856 
L 223.179897 124.783946 
L 223.22408 124.834935 
L 223.982072 125.711037 
L 224.157191 125.904384 
L 224.830967 126.638127 
L 225.090301 126.917945 
L 225.692045 127.565217 
L 226.023411 127.918294 
L 226.575364 128.492308 
L 226.956522 128.888488 
L 227.466555 129.419398 
L 227.889632 130.212817 
L 227.946274 130.346488 
L 228.367379 131.273579 
L 228.790425 132.200669 
L 228.822742 132.271319 
L 229.222221 133.127759 
L 229.635785 134.054849 
L 229.755853 134.341102 
L 230.020648 134.98194 
L 230.403735 135.90903 
L 230.688963 136.600228 
L 230.786268 136.83612 
L 231.158541 137.763211 
L 231.509497 138.690301 
L 231.622074 139.016551 
L 231.828239 139.617391 
L 232.152004 140.544482 
L 232.514651 141.471572 
L 232.555184 141.572936 
L 232.878857 142.398662 
L 233.113508 143.325753 
L 233.315566 144.252843 
L 233.488294 145.097763 
L 233.505168 145.179933 
L 233.696827 146.107023 
L 233.890581 147.034114 
L 234.074987 147.961204 
L 234.146474 148.888294 
L 234.28747 149.815385 
L 234.380642 150.742475 
L 234.421405 151.186355 
L 234.464254 151.669565 
L 234.534369 152.596656 
L 234.590594 153.523746 
L 234.646744 154.450836 
L 234.702852 155.377926 
L 234.757183 156.305017 
L 234.808435 157.232107 
L 234.859673 158.159197 
L 234.909983 159.086288 
L 234.959673 160.013378 
L 235.004761 160.940468 
L 235.023871 161.867559 
L 235.026556 162.794649 
L 235.023348 163.721739 
L 235.020127 164.648829 
L 235.016919 165.57592 
L 234.923905 166.50301 
L 234.672524 167.4301 
L 234.421405 168.356267 
L 234.421154 168.357191 
L 234.16976 169.284281 
L 233.98023 170.211371 
L 233.839838 171.138462 
L 233.752335 172.065552 
L 233.664843 172.992642 
L 233.577342 173.919732 
L 233.539836 174.846823 
L 233.531675 175.773913 
L 233.522395 176.701003 
L 233.513111 177.628094 
L 233.503827 178.555184 
L 233.494391 179.482274 
L 233.488294 179.71244 
L 233.469734 180.409365 
L 233.443997 181.336455 
L 233.419007 182.263545 
L 233.39401 183.190635 
L 233.368999 184.117726 
L 233.342052 185.044816 
L 233.270641 185.971906 
L 233.192934 186.898997 
L 233.115223 187.826087 
L 233.046087 188.753177 
L 233.038941 189.680268 
L 233.080671 190.607358 
L 233.160257 191.534448 
L 233.241302 192.461538 
L 233.325394 193.388629 
L 233.418786 194.315719 
L 233.488294 194.999199 
L 233.513521 195.242809 
L 233.609523 196.1699 
L 233.728099 197.09699 
L 233.841655 198.02408 
L 233.866648 198.951171 
L 233.880397 199.878261 
L 233.891737 200.805351 
L 233.886898 201.732441 
L 233.864343 202.659532 
L 233.885079 203.586622 
L 233.914347 204.513712 
L 233.940575 205.440803 
L 233.953965 206.367893 
L 233.766586 207.294983 
L 233.488294 208.029512 
L 233.416012 208.222074 
L 233.042893 209.149164 
L 232.602693 210.076254 
L 232.555184 210.175088 
L 232.157038 211.003344 
L 231.711396 211.930435 
L 231.622074 212.108863 
L 231.245602 212.857525 
L 230.740693 213.784615 
L 230.688963 213.87895 
L 230.218596 214.711706 
L 229.755853 215.450857 
L 229.648034 215.638796 
L 229.159418 216.565886 
L 228.822742 217.127659 
L 228.588905 217.492977 
L 227.995472 218.420067 
L 227.889632 218.601486 
L 227.459425 219.347157 
L 226.956522 220.114747 
L 226.842963 220.274247 
L 226.177533 221.201338 
L 226.023411 221.416056 
L 225.512075 222.128428 
L 225.090301 222.716049 
L 224.846644 223.055518 
L 224.181219 223.982609 
L 224.157191 224.016084 
L 223.515764 224.909699 
L 223.22408 225.316077 
L 222.850339 225.836789 
L 222.29097 226.545467 
L 222.11147 226.76388 
L 221.35786 227.649764 
L 221.322575 227.69097 
L 220.534131 228.61806 
L 220.424749 228.746636 
L 219.745446 229.545151 
L 219.491639 229.807878 
L 218.726987 230.472241 
L 218.558528 230.614463 
L 217.625418 231.355664 
L 217.567459 231.399331 
L 216.692308 232.053316 
L 216.328696 232.326421 
L 215.759197 232.752543 
L 215.093009 233.253512 
L 214.826087 233.453476 
L 213.892977 234.155707 
L 213.859778 234.180602 
L 212.959866 234.855447 
L 212.637928 235.107692 
L 212.026756 235.616213 
L 211.562758 236.034783 
L 211.093645 236.477992 
L 210.505392 236.961873 
L 210.160535 237.200892 
L 209.227425 237.731199 
L 208.949826 237.888963 
L 208.294314 238.259446 
L 207.361204 238.753657 
L 207.245329 238.816054 
L 206.428094 239.245054 
L 205.501332 239.743144 
L 205.494983 239.746544 
L 204.561873 240.249549 
L 203.781474 240.670234 
L 203.628763 240.752557 
L 202.695652 241.245944 
L 201.94409 241.597324 
L 201.762542 241.681526 
L 200.829431 242.140154 
L 200.068404 242.524415 
L 199.896321 242.611329 
L 198.963211 243.083411 
L 198.23566 243.451505 
L 198.0301 243.555503 
L 197.09699 244.019915 
L 196.358719 244.378595 
L 196.16388 244.473256 
L 195.230769 244.926593 
L 194.450482 245.305686 
L 194.297659 245.378442 
L 193.364548 245.690015 
L 192.431438 246.120667 
L 192.222491 246.232776 
L 191.498328 246.629755 
L 190.565217 247.144486 
L 190.536898 247.159866 
L 189.632107 247.656244 
L 188.786694 248.086957 
L 188.698997 248.131693 
L 187.765886 248.568415 
L 186.832776 249.007098 
L 186.818006 249.014047 
L 185.899666 249.4461 
L 184.966555 249.856862 
L 184.761538 249.941137 
L 184.033445 250.24043 
L 183.100334 250.623986 
L 182.506146 250.868227 
L 182.167224 251.00754 
L 181.234114 251.3911 
L 180.301003 251.774661 
L 180.250748 251.795318 
L 179.367893 252.150429 
L 178.434783 252.306546 
L 177.501672 252.412977 
L 176.568562 252.485595 
L 175.635452 252.558218 
L 174.702341 252.631304 
L 174.061115 252.722408 
L 173.769231 252.762904 
L 172.83612 252.911234 
L 171.90301 253.050129 
L 170.9699 253.175331 
L 170.036789 253.282635 
L 169.103679 253.389946 
L 168.170569 253.497257 
L 167.237458 253.604554 
L 166.846672 253.649498 
L 166.304348 253.711871 
L 165.371237 253.819182 
L 164.438127 253.92648 
L 163.505017 254.024683 
L 162.571906 254.00241 
L 161.638796 253.814833 
z
" clip-path="url(#p9d3e93819a)" style="fill: none; stroke: #000000; stroke-width: 1.5"/>
   </g>
   <g id="patch_3">
    <path d="M 45 320.4 
L 45 43.2 
" style="fill: none; stroke: #000000; stroke-width: 0.8; stroke-linejoin: miter; stroke-linecap: square"/>
   </g>
   <g id="patch_4">
    <path d="M 324 320.4 
L 324 43.2 
" style="fill: none; stroke: #000000; stroke-width: 0.8; stroke-linejoin: miter; stroke-linecap: square"/>
   </g>
   <g id="patch_5">
    <path d="M 45 320.4 
L 324 320.4 
" style="fill: none; stroke: #000000; stroke-width: 0.8; stroke-linejoin: miter; stroke-linecap: square"/>
   </g>
   <g id="patch_6">
    <path d="M 45 43.2 
L 324 43.2 
" style="fill: none; stroke: #000000; stroke-width: 0.8; stroke-linejoin: miter; stroke-linecap: square"/>
   </g>
  </g>
 </g>
 <defs>
  <clipPath id="p9d3e93819a">
   <rect x="45" y="43.2" width="279" height="277.2"/>
  </clipPath>
 </defs>
</svg>
