<?xml version="1.0" encoding="utf-8" standalone="no"?>
<!DOCTYPE svg PUBLIC "-//W3C//DTD SVG 1.1//EN"
  "http://www.w3.org/Graphics/SVG/1.1/DTD/svg11.dtd">
<svg xmlns:xlink="http://www.w3.org/1999/xlink" width="360pt" height="360pt" viewBox="0 0 360 360" xmlns="http://www.w3.org/2000/svg" version="1.1">
 <metadata>
  <rdf:RDF xmlns:dc="http://purl.org/dc/elements/1.1/" xmlns:cc="http://creativecommons.org/ns#" xmlns:rdf="http://www.w3.org/1999/02/22-rdf-syntax-ns#">
   <cc:Work>
    <dc:type rdf:resource="http://purl.org/dc/dcmitype/StillImage"/>
    <dc:date>2022-04-03T22:41:40.784447</dc:date>
    <dc:format>image/svg+xml</dc:format>
    <dc:creator>
     <cc:Agent>
      <dc:title>Matplotlib v3.5.1, https://matplotlib.org/</dc:title>
     </cc:Agent>
    </dc:creator>
   </cc:Work>
  </rdf:RDF>
 </metadata>
 <defs>
  <style type="text/css">*{stroke-linejoin: round; stroke-linecap: butt}</style>
 </defs>
 <g id="figure_1">
  <g id="patch_1">
   <path d="M 0 360 
L 360 360 
L 360 0 
L 0 0 
z
" style="fill: #ffffff"/>
  </g>
  <g id="axes_1">
   <g id="patch_2">
    <path d="M 45 320.4 
L 324 320.4 
L 324 43.2 
L 45 43.2 
z
" style="fill: #ffffff"/>
   </g>
   <g id="PathCollection_1">
    <defs>
     <path id="me7bdfc5b57" d="M 0 0.5 
C 0.132602 0.5 0.25979 0.447317 0.353553 0.353553 
C 0.447317 0.25979 0.5 0.132602 0.5 0 
C 0.5 -0.132602 0.447317 -0.25979 0.353553 -0.353553 
C 0.25979 -0.447317 0.132602 -0.5 0 -0.5 
C -0.132602 -0.5 -0.25979 -0.447317 -0.353553 -0.353553 
C -0.447317 -0.25979 -0.5 -0.132602 -0.5 0 
C -0.5 0.132602 -0.447317 0.25979 -0.353553 0.353553 
C -0.25979 0.447317 -0.132602 0.5 0 0.5 
z
" style="stroke: #ff0000"/>
    </defs>
    <g clip-path="url(#p6a78bfed33)">
     <use xlink:href="#me7bdfc5b57" x="230.466836" y="181.568614" style="fill: #ff0000; stroke: #ff0000"/>
     <use xlink:href="#me7bdfc5b57" x="230.515147" y="177.088547" style="fill: #ff0000; stroke: #ff0000"/>
     <use xlink:href="#me7bdfc5b57" x="230.869803" y="172.450619" style="fill: #ff0000; stroke: #ff0000"/>
     <use xlink:href="#me7bdfc5b57" x="231.361654" y="167.515189" style="fill: #ff0000; stroke: #ff0000"/>
     <use xlink:href="#me7bdfc5b57" x="231.697967" y="162.240549" style="fill: #ff0000; stroke: #ff0000"/>
     <use xlink:href="#me7bdfc5b57" x="231.533507" y="156.714553" style="fill: #ff0000; stroke: #ff0000"/>
     <use xlink:href="#me7bdfc5b57" x="230.565406" y="151.141881" style="fill: #ff0000; stroke: #ff0000"/>
     <use xlink:href="#me7bdfc5b57" x="228.615538" y="145.7874" style="fill: #ff0000; stroke: #ff0000"/>
     <use xlink:href="#me7bdfc5b57" x="225.666987" y="140.898606" style="fill: #ff0000; stroke: #ff0000"/>
     <use xlink:href="#me7bdfc5b57" x="221.842998" y="136.641549" style="fill: #ff0000; stroke: #ff0000"/>
     <use xlink:href="#me7bdfc5b57" x="217.343513" y="133.078238" style="fill: #ff0000; stroke: #ff0000"/>
     <use xlink:href="#me7bdfc5b57" x="212.372382" y="130.192371" style="fill: #ff0000; stroke: #ff0000"/>
     <use xlink:href="#me7bdfc5b57" x="207.088955" y="127.944502" style="fill: #ff0000; stroke: #ff0000"/>
     <use xlink:href="#me7bdfc5b57" x="201.600732" y="126.321532" style="fill: #ff0000; stroke: #ff0000"/>
     <use xlink:href="#me7bdfc5b57" x="195.988015" y="125.350322" style="fill: #ff0000; stroke: #ff0000"/>
     <use xlink:href="#me7bdfc5b57" x="190.333572" y="125.070789" style="fill: #ff0000; stroke: #ff0000"/>
     <use xlink:href="#me7bdfc5b57" x="184.732888" y="125.492668" style="fill: #ff0000; stroke: #ff0000"/>
     <use xlink:href="#me7bdfc5b57" x="179.280892" y="126.570696" style="fill: #ff0000; stroke: #ff0000"/>
     <use xlink:href="#me7bdfc5b57" x="174.051575" y="128.216468" style="fill: #ff0000; stroke: #ff0000"/>
     <use xlink:href="#me7bdfc5b57" x="169.09052" y="130.335322" style="fill: #ff0000; stroke: #ff0000"/>
     <use xlink:href="#me7bdfc5b57" x="164.425354" y="132.85819" style="fill: #ff0000; stroke: #ff0000"/>
     <use xlink:href="#me7bdfc5b57" x="160.081266" y="135.746222" style="fill: #ff0000; stroke: #ff0000"/>
     <use xlink:href="#me7bdfc5b57" x="156.085303" y="138.971081" style="fill: #ff0000; stroke: #ff0000"/>
     <use xlink:href="#me7bdfc5b57" x="152.455915" y="142.492748" style="fill: #ff0000; stroke: #ff0000"/>
     <use xlink:href="#me7bdfc5b57" x="149.189523" y="146.254561" style="fill: #ff0000; stroke: #ff0000"/>
     <use xlink:href="#me7bdfc5b57" x="146.259559" y="150.198074" style="fill: #ff0000; stroke: #ff0000"/>
     <use xlink:href="#me7bdfc5b57" x="143.634688" y="154.284842" style="fill: #ff0000; stroke: #ff0000"/>
     <use xlink:href="#me7bdfc5b57" x="141.310164" y="158.508426" style="fill: #ff0000; stroke: #ff0000"/>
     <use xlink:href="#me7bdfc5b57" x="139.336394" y="162.886086" style="fill: #ff0000; stroke: #ff0000"/>
     <use xlink:href="#me7bdfc5b57" x="137.824868" y="167.431025" style="fill: #ff0000; stroke: #ff0000"/>
     <use xlink:href="#me7bdfc5b57" x="136.918407" y="172.119083" style="fill: #ff0000; stroke: #ff0000"/>
     <use xlink:href="#me7bdfc5b57" x="136.733186" y="176.871557" style="fill: #ff0000; stroke: #ff0000"/>
     <use xlink:href="#me7bdfc5b57" x="137.303778" y="181.568614" style="fill: #ff0000; stroke: #ff0000"/>
     <use xlink:href="#me7bdfc5b57" x="138.566963" y="186.086226" style="fill: #ff0000; stroke: #ff0000"/>
     <use xlink:href="#me7bdfc5b57" x="140.394679" y="190.331133" style="fill: #ff0000; stroke: #ff0000"/>
     <use xlink:href="#me7bdfc5b57" x="142.650066" y="194.25194" style="fill: #ff0000; stroke: #ff0000"/>
     <use xlink:href="#me7bdfc5b57" x="145.226728" y="197.827028" style="fill: #ff0000; stroke: #ff0000"/>
     <use xlink:href="#me7bdfc5b57" x="148.052416" y="201.048244" style="fill: #ff0000; stroke: #ff0000"/>
     <use xlink:href="#me7bdfc5b57" x="151.071905" y="203.915058" style="fill: #ff0000; stroke: #ff0000"/>
     <use xlink:href="#me7bdfc5b57" x="154.236191" y="206.435136" style="fill: #ff0000; stroke: #ff0000"/>
     <use xlink:href="#me7bdfc5b57" x="157.507606" y="208.61825" style="fill: #ff0000; stroke: #ff0000"/>
     <use xlink:href="#me7bdfc5b57" x="160.866129" y="210.46272" style="fill: #ff0000; stroke: #ff0000"/>
     <use xlink:href="#me7bdfc5b57" x="164.299818" y="211.951572" style="fill: #ff0000; stroke: #ff0000"/>
     <use xlink:href="#me7bdfc5b57" x="167.783236" y="213.074599" style="fill: #ff0000; stroke: #ff0000"/>
     <use xlink:href="#me7bdfc5b57" x="171.26697" y="213.868476" style="fill: #ff0000; stroke: #ff0000"/>
     <use xlink:href="#me7bdfc5b57" x="174.695424" y="214.444223" style="fill: #ff0000; stroke: #ff0000"/>
     <use xlink:href="#me7bdfc5b57" x="178.044844" y="214.974759" style="fill: #ff0000; stroke: #ff0000"/>
     <use xlink:href="#me7bdfc5b57" x="181.354998" y="215.643638" style="fill: #ff0000; stroke: #ff0000"/>
     <use xlink:href="#me7bdfc5b57" x="184.732888" y="216.582351" style="fill: #ff0000; stroke: #ff0000"/>
     <use xlink:href="#me7bdfc5b57" x="188.327106" y="217.825886" style="fill: #ff0000; stroke: #ff0000"/>
     <use xlink:href="#me7bdfc5b57" x="192.286478" y="219.298079" style="fill: #ff0000; stroke: #ff0000"/>
     <use xlink:href="#me7bdfc5b57" x="196.716886" y="220.819685" style="fill: #ff0000; stroke: #ff0000"/>
     <use xlink:href="#me7bdfc5b57" x="201.642364" y="222.128326" style="fill: #ff0000; stroke: #ff0000"/>
     <use xlink:href="#me7bdfc5b57" x="206.973108" y="222.908697" style="fill: #ff0000; stroke: #ff0000"/>
     <use xlink:href="#me7bdfc5b57" x="212.488911" y="222.840439" style="fill: #ff0000; stroke: #ff0000"/>
     <use xlink:href="#me7bdfc5b57" x="217.854084" y="221.666532" style="fill: #ff0000; stroke: #ff0000"/>
     <use xlink:href="#me7bdfc5b57" x="222.675907" y="219.266839" style="fill: #ff0000; stroke: #ff0000"/>
     <use xlink:href="#me7bdfc5b57" x="226.598332" y="215.705031" style="fill: #ff0000; stroke: #ff0000"/>
     <use xlink:href="#me7bdfc5b57" x="229.398363" y="211.220585" style="fill: #ff0000; stroke: #ff0000"/>
     <use xlink:href="#me7bdfc5b57" x="231.044554" y="206.163012" style="fill: #ff0000; stroke: #ff0000"/>
     <use xlink:href="#me7bdfc5b57" x="231.694168" y="200.895117" style="fill: #ff0000; stroke: #ff0000"/>
     <use xlink:href="#me7bdfc5b57" x="231.636499" y="195.704875" style="fill: #ff0000; stroke: #ff0000"/>
     <use xlink:href="#me7bdfc5b57" x="231.212609" y="190.754358" style="fill: #ff0000; stroke: #ff0000"/>
     <use xlink:href="#me7bdfc5b57" x="230.741736" y="186.070855" style="fill: #ff0000; stroke: #ff0000"/>
    </g>
   </g>
   <g id="matplotlib.axis_1">
    <g id="xtick_1">
     <g id="line2d_1">
      <defs>
       <path id="m384dbc7695" d="M 0 0 
L 0 3.5 
" style="stroke: #000000; stroke-width: 0.8"/>
      </defs>
      <g>
       <use xlink:href="#m384dbc7695" x="45" y="320.4" style="stroke: #000000; stroke-width: 0.8"/>
      </g>
     </g>
     <g id="text_1">
      <!-- −3 -->
      <g transform="translate(37.628906 334.998438)scale(0.1 -0.1)">
       <defs>
        <path id="DejaVuSans-2212" d="M 678 2272 
L 4684 2272 
L 4684 1741 
L 678 1741 
L 678 2272 
z
" transform="scale(0.015625)"/>
        <path id="DejaVuSans-33" d="M 2597 2516 
Q 3050 2419 3304 2112 
Q 3559 1806 3559 1356 
Q 3559 666 3084 287 
Q 2609 -91 1734 -91 
Q 1441 -91 1130 -33 
Q 819 25 488 141 
L 488 750 
Q 750 597 1062 519 
Q 1375 441 1716 441 
Q 2309 441 2620 675 
Q 2931 909 2931 1356 
Q 2931 1769 2642 2001 
Q 2353 2234 1838 2234 
L 1294 2234 
L 1294 2753 
L 1863 2753 
Q 2328 2753 2575 2939 
Q 2822 3125 2822 3475 
Q 2822 3834 2567 4026 
Q 2313 4219 1838 4219 
Q 1578 4219 1281 4162 
Q 984 4106 628 3988 
L 628 4550 
Q 988 4650 1302 4700 
Q 1616 4750 1894 4750 
Q 2613 4750 3031 4423 
Q 3450 4097 3450 3541 
Q 3450 3153 3228 2886 
Q 3006 2619 2597 2516 
z
" transform="scale(0.015625)"/>
       </defs>
       <use xlink:href="#DejaVuSans-2212"/>
       <use xlink:href="#DejaVuSans-33" x="83.789062"/>
      </g>
     </g>
    </g>
    <g id="xtick_2">
     <g id="line2d_2">
      <g>
       <use xlink:href="#m384dbc7695" x="91.577629" y="320.4" style="stroke: #000000; stroke-width: 0.8"/>
      </g>
     </g>
     <g id="text_2">
      <!-- −2 -->
      <g transform="translate(84.206536 334.998438)scale(0.1 -0.1)">
       <defs>
        <path id="DejaVuSans-32" d="M 1228 531 
L 3431 531 
L 3431 0 
L 469 0 
L 469 531 
Q 828 903 1448 1529 
Q 2069 2156 2228 2338 
Q 2531 2678 2651 2914 
Q 2772 3150 2772 3378 
Q 2772 3750 2511 3984 
Q 2250 4219 1831 4219 
Q 1534 4219 1204 4116 
Q 875 4013 500 3803 
L 500 4441 
Q 881 4594 1212 4672 
Q 1544 4750 1819 4750 
Q 2544 4750 2975 4387 
Q 3406 4025 3406 3419 
Q 3406 3131 3298 2873 
Q 3191 2616 2906 2266 
Q 2828 2175 2409 1742 
Q 1991 1309 1228 531 
z
" transform="scale(0.015625)"/>
       </defs>
       <use xlink:href="#DejaVuSans-2212"/>
       <use xlink:href="#DejaVuSans-32" x="83.789062"/>
      </g>
     </g>
    </g>
    <g id="xtick_3">
     <g id="line2d_3">
      <g>
       <use xlink:href="#m384dbc7695" x="138.155259" y="320.4" style="stroke: #000000; stroke-width: 0.8"/>
      </g>
     </g>
     <g id="text_3">
      <!-- −1 -->
      <g transform="translate(130.784165 334.998438)scale(0.1 -0.1)">
       <defs>
        <path id="DejaVuSans-31" d="M 794 531 
L 1825 531 
L 1825 4091 
L 703 3866 
L 703 4441 
L 1819 4666 
L 2450 4666 
L 2450 531 
L 3481 531 
L 3481 0 
L 794 0 
L 794 531 
z
" transform="scale(0.015625)"/>
       </defs>
       <use xlink:href="#DejaVuSans-2212"/>
       <use xlink:href="#DejaVuSans-31" x="83.789062"/>
      </g>
     </g>
    </g>
    <g id="xtick_4">
     <g id="line2d_4">
      <g>
       <use xlink:href="#m384dbc7695" x="184.732888" y="320.4" style="stroke: #000000; stroke-width: 0.8"/>
      </g>
     </g>
     <g id="text_4">
      <!-- 0 -->
      <g transform="translate(181.551638 334.998438)scale(0.1 -0.1)">
       <defs>
        <path id="DejaVuSans-30" d="M 2034 4250 
Q 1547 4250 1301 3770 
Q 1056 3291 1056 2328 
Q 1056 1369 1301 889 
Q 1547 409 2034 409 
Q 2525 409 2770 889 
Q 3016 1369 3016 2328 
Q 3016 3291 2770 3770 
Q 2525 4250 2034 4250 
z
M 2034 4750 
Q 2819 4750 3233 4129 
Q 3647 3509 3647 2328 
Q 3647 1150 3233 529 
Q 2819 -91 2034 -91 
Q 1250 -91 836 529 
Q 422 1150 422 2328 
Q 422 3509 836 4129 
Q 1250 4750 2034 4750 
z
" transform="scale(0.015625)"/>
       </defs>
       <use xlink:href="#DejaVuSans-30"/>
      </g>
     </g>
    </g>
    <g id="xtick_5">
     <g id="line2d_5">
      <g>
       <use xlink:href="#m384dbc7695" x="231.310518" y="320.4" style="stroke: #000000; stroke-width: 0.8"/>
      </g>
     </g>
     <g id="text_5">
      <!-- 1 -->
      <g transform="translate(228.129268 334.998438)scale(0.1 -0.1)">
       <use xlink:href="#DejaVuSans-31"/>
      </g>
     </g>
    </g>
    <g id="xtick_6">
     <g id="line2d_6">
      <g>
       <use xlink:href="#m384dbc7695" x="277.888147" y="320.4" style="stroke: #000000; stroke-width: 0.8"/>
      </g>
     </g>
     <g id="text_6">
      <!-- 2 -->
      <g transform="translate(274.706897 334.998438)scale(0.1 -0.1)">
       <use xlink:href="#DejaVuSans-32"/>
      </g>
     </g>
    </g>
   </g>
   <g id="matplotlib.axis_2">
    <g id="ytick_1">
     <g id="line2d_7">
      <defs>
       <path id="maa51ca12de" d="M 0 0 
L -3.5 0 
" style="stroke: #000000; stroke-width: 0.8"/>
      </defs>
      <g>
       <use xlink:href="#maa51ca12de" x="45" y="320.4" style="stroke: #000000; stroke-width: 0.8"/>
      </g>
     </g>
     <g id="text_7">
      <!-- −3 -->
      <g transform="translate(23.257812 324.199219)scale(0.1 -0.1)">
       <use xlink:href="#DejaVuSans-2212"/>
       <use xlink:href="#DejaVuSans-33" x="83.789062"/>
      </g>
     </g>
    </g>
    <g id="ytick_2">
     <g id="line2d_8">
      <g>
       <use xlink:href="#maa51ca12de" x="45" y="274.122871" style="stroke: #000000; stroke-width: 0.8"/>
      </g>
     </g>
     <g id="text_8">
      <!-- −2 -->
      <g transform="translate(23.257812 277.92209)scale(0.1 -0.1)">
       <use xlink:href="#DejaVuSans-2212"/>
       <use xlink:href="#DejaVuSans-32" x="83.789062"/>
      </g>
     </g>
    </g>
    <g id="ytick_3">
     <g id="line2d_9">
      <g>
       <use xlink:href="#maa51ca12de" x="45" y="227.845743" style="stroke: #000000; stroke-width: 0.8"/>
      </g>
     </g>
     <g id="text_9">
      <!-- −1 -->
      <g transform="translate(23.257812 231.644962)scale(0.1 -0.1)">
       <use xlink:href="#DejaVuSans-2212"/>
       <use xlink:href="#DejaVuSans-31" x="83.789062"/>
      </g>
     </g>
    </g>
    <g id="ytick_4">
     <g id="line2d_10">
      <g>
       <use xlink:href="#maa51ca12de" x="45" y="181.568614" style="stroke: #000000; stroke-width: 0.8"/>
      </g>
     </g>
     <g id="text_10">
      <!-- 0 -->
      <g transform="translate(31.6375 185.367833)scale(0.1 -0.1)">
       <use xlink:href="#DejaVuSans-30"/>
      </g>
     </g>
    </g>
    <g id="ytick_5">
     <g id="line2d_11">
      <g>
       <use xlink:href="#maa51ca12de" x="45" y="135.291486" style="stroke: #000000; stroke-width: 0.8"/>
      </g>
     </g>
     <g id="text_11">
      <!-- 1 -->
      <g transform="translate(31.6375 139.090705)scale(0.1 -0.1)">
       <use xlink:href="#DejaVuSans-31"/>
      </g>
     </g>
    </g>
    <g id="ytick_6">
     <g id="line2d_12">
      <g>
       <use xlink:href="#maa51ca12de" x="45" y="89.014357" style="stroke: #000000; stroke-width: 0.8"/>
      </g>
     </g>
     <g id="text_12">
      <!-- 2 -->
      <g transform="translate(31.6375 92.813576)scale(0.1 -0.1)">
       <use xlink:href="#DejaVuSans-32"/>
      </g>
     </g>
    </g>
   </g>
   <g id="PathCollection_2">
    <path d="M 198.240401 199.158317 
L 198.223605 199.153923 
L 197.774624 199.041608 
L 197.308848 198.824697 
L 197.036845 198.691152 
L 196.843072 198.585492 
L 196.377295 198.321574 
L 196.218084 198.228381 
L 195.911519 198.048936 
L 195.445743 197.776296 
L 195.427486 197.765609 
L 194.979967 197.503661 
L 194.554509 197.302838 
L 194.51419 197.285048 
L 194.048414 197.085403 
L 193.582638 196.885759 
L 193.476038 196.840067 
L 193.116861 196.675233 
L 192.651085 196.448268 
L 192.509818 196.377295 
L 192.185309 196.214263 
L 191.719533 195.980262 
L 191.588683 195.914524 
L 191.253756 195.746261 
L 190.78798 195.51226 
L 190.667541 195.451753 
L 190.322204 195.278257 
L 189.856427 195.044252 
L 189.746411 194.988982 
L 189.390651 194.810257 
L 188.924875 194.576251 
L 188.825271 194.52621 
L 188.459098 194.342245 
L 187.993322 194.191807 
L 187.527546 194.136009 
L 187.06177 194.081404 
L 186.908527 194.063439 
L 186.595993 194.026801 
L 186.130217 193.972195 
L 185.664441 193.917591 
L 185.198664 193.862984 
L 184.732888 193.808378 
L 184.267112 193.753772 
L 183.801336 193.699175 
L 183.335559 193.644564 
L 182.947204 193.600668 
L 182.869783 193.59188 
L 182.404007 193.497554 
L 181.93823 193.309011 
L 181.523715 193.137896 
L 181.472454 193.116736 
L 181.006678 192.943513 
L 180.540902 192.828918 
L 180.075125 192.713972 
L 179.918377 192.675125 
L 179.609349 192.598912 
L 179.143573 192.484321 
L 178.677796 192.369826 
L 178.21202 192.254618 
L 178.041719 192.212354 
L 177.746244 192.139535 
L 177.280467 192.0255 
L 176.814691 191.910754 
L 176.348915 191.801069 
L 175.915836 191.749583 
L 175.883139 191.745761 
L 175.417362 191.691556 
L 174.951586 191.623697 
L 174.48581 191.399661 
L 174.264141 191.286811 
L 174.020033 191.163152 
L 173.554257 190.925533 
L 173.354825 190.82404 
L 173.088481 190.689167 
L 172.622705 190.45148 
L 172.445408 190.361269 
L 172.156928 190.215176 
L 171.691152 189.977482 
L 171.535921 189.898497 
L 171.225376 189.741171 
L 170.759599 189.503487 
L 170.626427 189.435726 
L 170.293823 189.267161 
L 169.828047 189.029493 
L 169.716933 188.972955 
L 169.36227 188.793139 
L 168.966724 188.510184 
L 168.896494 188.452535 
L 168.460015 188.047412 
L 168.430718 188.020264 
L 167.964942 187.587923 
L 167.961405 187.584641 
L 167.499165 187.156187 
L 167.462176 187.12187 
L 167.033389 186.724696 
L 166.962692 186.659098 
L 166.567613 186.293101 
L 166.463332 186.196327 
L 166.101836 185.861408 
L 165.964077 185.733556 
L 165.63606 185.429613 
L 165.464943 185.270785 
L 165.170284 184.99772 
L 164.965928 184.808013 
L 164.704508 184.565728 
L 164.466634 184.345242 
L 164.238731 184.134014 
L 163.967327 183.882471 
L 163.772955 183.702323 
L 163.468017 183.419699 
L 163.307179 183.172817 
L 163.208001 182.956928 
L 163.032308 182.494157 
L 162.856342 182.031386 
L 162.841402 181.992095 
L 162.672817 181.568614 
L 162.471352 181.105843 
L 162.375626 180.761081 
L 162.342282 180.643072 
L 162.231645 180.180301 
L 162.107147 179.717529 
L 161.954357 179.254758 
L 161.90985 179.131503 
L 161.786991 178.791987 
L 161.641199 178.329215 
L 161.524689 177.866444 
L 161.444073 177.60204 
L 161.375281 177.403673 
L 161.214799 176.940902 
L 161.054313 176.47813 
L 160.978297 176.258924 
L 160.893833 176.015359 
L 160.733344 175.552588 
L 160.643813 175.089816 
L 160.716929 174.627045 
L 160.790049 174.164274 
L 160.863166 173.701503 
L 160.936284 173.238731 
L 160.978297 172.972836 
L 161.009405 172.77596 
L 161.082401 172.313189 
L 161.191885 171.850417 
L 161.276218 171.387646 
L 161.379093 170.924875 
L 161.444073 170.764602 
L 161.597504 170.462104 
L 161.90985 170.024689 
L 161.927957 169.999332 
L 162.258413 169.536561 
L 162.375626 169.372415 
L 162.588872 169.07379 
L 162.841402 168.720151 
L 162.919334 168.611018 
L 163.249788 168.148247 
L 163.307179 168.055646 
L 163.520435 167.685476 
L 163.759999 167.222705 
L 163.772955 167.197679 
L 163.999581 166.759933 
L 164.238731 166.297986 
L 164.239158 166.297162 
L 164.478733 165.834391 
L 164.704508 165.400493 
L 164.718291 165.371619 
L 164.909082 164.908848 
L 165.099879 164.446077 
L 165.170284 164.306641 
L 165.343846 163.983306 
L 165.581953 163.520534 
L 165.63606 163.369454 
L 165.74541 163.057763 
L 166.021941 162.594992 
L 166.101836 162.487883 
L 166.367134 162.13222 
L 166.567613 161.863468 
L 166.712343 161.669449 
L 167.033389 161.257414 
L 167.071658 161.206678 
L 167.499165 160.764034 
L 167.518586 160.743907 
L 167.964942 160.281768 
L 167.965553 160.281135 
L 168.412522 159.818364 
L 168.430718 159.799525 
L 168.859491 159.355593 
L 168.896494 159.315374 
L 169.213921 158.892821 
L 169.36227 158.688657 
L 169.550177 158.43005 
L 169.828047 158.047633 
L 169.886434 157.967279 
L 170.222693 157.504508 
L 170.293823 157.406616 
L 170.558948 157.041736 
L 170.759599 156.765583 
L 170.897617 156.578965 
L 171.225376 156.200812 
L 171.303896 156.116194 
L 171.691152 155.69887 
L 171.733325 155.653422 
L 172.156928 155.196925 
L 172.16275 155.190651 
L 172.592176 154.72788 
L 172.622705 154.695607 
L 173.078852 154.265109 
L 173.088481 154.256488 
L 173.554257 153.839513 
L 173.595784 153.802337 
L 174.020033 153.422534 
L 174.101418 153.339566 
L 174.48581 152.991252 
L 174.596205 152.876795 
L 174.951586 152.524979 
L 175.058807 152.414023 
L 175.417362 152.042981 
L 175.506003 151.951252 
L 175.883139 151.560978 
L 175.971344 151.488481 
L 176.348915 151.238464 
L 176.781099 151.02571 
L 176.814691 151.009173 
L 177.280467 150.821366 
L 177.746244 150.713296 
L 178.21202 150.612249 
L 178.677796 150.563504 
L 178.683517 150.562938 
L 179.143573 150.517465 
L 179.609349 150.471431 
L 180.075125 150.425391 
L 180.540902 150.379352 
L 181.006678 150.333317 
L 181.472454 150.287281 
L 181.93823 150.241243 
L 182.404007 150.15548 
L 182.604305 150.100167 
L 182.869783 150.026855 
L 183.335559 149.898226 
L 183.801336 149.769604 
L 184.267112 149.640979 
L 184.280087 149.637396 
L 184.732888 149.497175 
L 185.198664 149.353648 
L 185.664441 149.210824 
L 185.782865 149.174624 
L 186.130217 149.056591 
L 186.595993 148.898317 
L 187.06177 148.740047 
L 187.144743 148.711853 
L 187.527546 148.581776 
L 187.993322 148.423501 
L 188.459098 148.286704 
L 188.924875 148.276211 
L 189.390651 148.267255 
L 189.856427 148.307049 
L 190.322204 148.404954 
L 190.78798 148.50285 
L 191.253756 148.600746 
L 191.715375 148.711853 
L 191.719533 148.713006 
L 192.185309 148.864272 
L 192.651085 149.015536 
L 193.116861 149.166801 
L 193.14157 149.174624 
L 193.582638 149.278036 
L 194.048414 149.381253 
L 194.51419 149.484469 
L 194.979967 149.587688 
L 195.445743 149.598633 
L 195.911519 149.529486 
L 196.377295 149.460338 
L 196.843072 149.391188 
L 197.308848 149.32734 
L 197.774624 149.324064 
L 198.240401 149.350855 
L 198.706177 149.402997 
L 199.171953 149.452838 
L 199.63773 149.490364 
L 200.103506 149.511432 
L 200.569282 149.56731 
L 200.798908 149.637396 
L 201.035058 149.694024 
L 201.500835 149.835239 
L 201.966611 150.007197 
L 202.175061 150.100167 
L 202.432387 150.242401 
L 202.898164 150.499857 
L 203.012285 150.562938 
L 203.36394 150.757316 
L 203.686247 151.02571 
L 203.829716 151.206312 
L 204.104573 151.488481 
L 204.295492 151.617862 
L 204.761269 151.911814 
L 204.813305 151.951252 
L 205.227045 152.269867 
L 205.35863 152.414023 
L 205.692821 152.780145 
L 205.781041 152.876795 
L 206.158598 153.290436 
L 206.203443 153.339566 
L 206.530835 153.802337 
L 206.624374 154.008341 
L 206.733991 154.265109 
L 206.953977 154.72788 
L 207.09015 155.014333 
L 207.173968 155.190651 
L 207.393948 155.653422 
L 207.555927 155.99416 
L 207.613938 156.116194 
L 207.833918 156.578965 
L 208.021703 156.973982 
L 208.053913 157.041736 
L 208.273902 157.504508 
L 208.487479 157.953794 
L 208.493889 157.967279 
L 208.685445 158.43005 
L 208.724102 158.892821 
L 208.755364 159.355593 
L 208.786625 159.818364 
L 208.817885 160.281135 
L 208.849147 160.743907 
L 208.88041 161.206678 
L 208.911672 161.669449 
L 208.941111 162.13222 
L 208.922234 162.594992 
L 208.879983 163.057763 
L 208.847133 163.520534 
L 208.814287 163.983306 
L 208.781437 164.446077 
L 208.748584 164.908848 
L 208.715737 165.371619 
L 208.682886 165.834391 
L 208.650038 166.297162 
L 208.617189 166.759933 
L 208.564764 167.222705 
L 208.505072 167.685476 
L 208.487479 167.812129 
L 208.436783 168.148247 
L 208.36699 168.611018 
L 208.297193 169.07379 
L 208.227407 169.536561 
L 208.157606 169.999332 
L 208.087819 170.462104 
L 208.021703 170.900518 
L 208.01803 170.924875 
L 207.948231 171.387646 
L 207.878441 171.850417 
L 207.80865 172.313189 
L 207.738855 172.77596 
L 207.669061 173.238731 
L 207.599273 173.701503 
L 207.555927 173.988907 
L 207.529478 174.164274 
L 207.459687 174.627045 
L 207.38989 175.089816 
L 207.320098 175.552588 
L 207.250303 176.015359 
L 207.166135 176.47813 
L 207.09015 176.659423 
L 206.972001 176.940902 
L 206.77776 177.403673 
L 206.624374 177.769107 
L 206.583517 177.866444 
L 206.389267 178.329215 
L 206.334443 178.791987 
L 206.357279 179.254758 
L 206.393477 179.717529 
L 206.469531 180.180301 
L 206.560601 180.643072 
L 206.624374 180.967163 
L 206.651663 181.105843 
L 206.742726 181.568614 
L 206.833792 182.031386 
L 206.924858 182.494157 
L 207.015922 182.956928 
L 207.09015 183.334111 
L 207.106994 183.419699 
L 207.239896 183.882471 
L 207.449786 184.345242 
L 207.555927 184.579272 
L 207.659669 184.808013 
L 207.869552 185.270785 
L 208.021703 185.606263 
L 208.079434 185.733556 
L 208.289317 186.196327 
L 208.487479 186.633252 
L 208.499201 186.659098 
L 208.709088 187.12187 
L 208.915098 187.584641 
L 208.953255 187.685122 
L 209.080676 188.047412 
L 209.243437 188.510184 
L 209.406201 188.972955 
L 209.419032 189.009436 
L 209.568961 189.435726 
L 209.739317 189.898497 
L 209.884808 190.231433 
L 209.941547 190.361269 
L 209.884808 190.62201 
L 209.816035 190.82404 
L 209.590668 191.286811 
L 209.471307 191.749583 
L 209.419032 191.972404 
L 209.363492 192.212354 
L 209.232458 192.675125 
L 209.098116 193.137896 
L 208.963769 193.600668 
L 208.953255 193.636884 
L 208.829429 194.063439 
L 208.695083 194.52621 
L 208.556839 194.988982 
L 208.487479 195.09886 
L 208.220931 195.451753 
L 208.021703 195.715524 
L 207.875625 195.914524 
L 207.627503 196.377295 
L 207.555927 196.538984 
L 207.413215 196.840067 
L 207.182203 197.302838 
L 207.09015 197.431909 
L 206.728067 197.765609 
L 206.624374 197.837854 
L 206.158598 198.162361 
L 206.06384 198.228381 
L 205.692821 198.43596 
L 205.227045 198.646145 
L 205.112303 198.691152 
L 204.761269 198.82695 
L 204.295492 199.007139 
L 203.916063 199.153923 
L 203.829716 199.187327 
L 203.36394 199.294294 
L 202.898164 199.329467 
L 202.432387 199.362833 
L 201.966611 199.395929 
L 201.500835 199.427067 
L 201.035058 199.445945 
L 200.569282 199.442644 
L 200.103506 199.439339 
L 199.63773 199.436031 
L 199.171953 199.357632 
L 198.706177 199.257844 
L 198.240401 199.158317 
z
" clip-path="url(#p6a78bfed33)" style="fill: none; stroke-dasharray: 5.55,2.4; stroke-dashoffset: 0; stroke: #000000; stroke-width: 1.5"/>
   </g>
   <g id="PathCollection_3">
    <path d="M 201.966611 223.220358 
L 201.951243 223.21803 
L 201.500835 222.840945 
L 200.521937 222.755259 
L 200.103506 222.436615 
L 199.171953 222.301479 
L 198.70062 222.292487 
L 198.240401 221.879963 
L 197.171379 221.829716 
L 196.377295 221.41086 
L 195.365487 221.366945 
L 194.979967 221.089108 
L 194.51419 220.945325 
L 193.557778 220.904174 
L 193.116861 220.503156 
L 192.170256 220.441402 
L 191.719533 220.030663 
L 190.777445 219.978631 
L 190.322204 219.562802 
L 189.384387 219.51586 
L 188.924875 219.095197 
L 187.991101 219.053088 
L 187.527546 218.628046 
L 186.595993 218.577548 
L 186.130217 218.161744 
L 185.198664 218.087276 
L 184.732888 217.689495 
L 184.250297 217.664775 
L 183.801336 217.286187 
L 182.869783 217.145303 
L 182.404007 216.76831 
L 181.815246 216.739232 
L 179.609349 215.824041 
L 179.143573 215.75665 
L 178.677796 215.400536 
L 177.746244 215.302356 
L 177.280467 215.014457 
L 176.348915 214.892104 
L 175.883139 214.818479 
L 175.417362 214.521205 
L 171.691152 213.971719 
L 170.293823 213.867791 
L 169.828047 213.799796 
L 169.36227 213.580467 
L 167.964942 213.512526 
L 166.542823 213.499833 
L 166.101836 213.346215 
L 165.63606 213.059629 
L 165.129305 213.037062 
L 161.444073 211.665193 
L 160.978297 211.642103 
L 160.046745 211.200702 
L 159.580968 211.170622 
L 158.649416 210.736406 
L 158.183639 210.645807 
L 157.717863 210.282611 
L 157.252087 210.180547 
L 153.0601 206.671092 
L 152.594324 206.514099 
L 150.715684 204.707179 
L 148.868114 202.987477 
L 148.402337 202.624089 
L 147.004759 201.46778 
L 143.73908 198.228381 
L 143.693787 197.765609 
L 143.269321 197.302838 
L 143.170203 196.840067 
L 142.347245 195.880734 
L 142.322768 195.451753 
L 141.87805 194.988982 
L 141.850584 194.52621 
L 141.412439 194.063439 
L 141.38779 193.600668 
L 140.947343 193.137896 
L 140.92488 192.675125 
L 140.482212 192.212354 
L 140.461658 191.749583 
L 140.016745 191.286811 
L 139.995557 190.82404 
L 139.550541 190.361269 
L 139.516848 189.898497 
L 139.084449 189.435726 
L 139.031224 188.510184 
L 138.617644 188.047412 
L 138.548279 187.12187 
L 138.15069 186.659098 
L 138.054637 185.733556 
L 137.68359 185.270785 
L 137.537928 184.345242 
L 137.216314 183.882471 
L 137.194932 183.419699 
L 136.748824 182.494157 
L 136.722776 182.031386 
L 136.291056 181.568614 
L 136.248533 180.643072 
L 135.826377 179.998818 
L 135.744449 176.015359 
L 135.441791 175.552588 
L 135.372283 174.627045 
L 135.506568 171.387646 
L 135.739628 170.924875 
L 135.967588 169.07379 
L 136.240603 168.611018 
L 136.466288 167.222705 
L 136.71239 166.759933 
L 136.844697 165.834391 
L 137.430132 164.446077 
L 138.128064 163.057763 
L 138.251419 162.594992 
L 138.649677 161.669449 
L 140.092185 158.892821 
L 141.873062 156.578965 
L 141.881469 156.522482 
L 142.802619 155.190651 
L 142.813022 155.085037 
L 143.560946 153.802337 
L 144.731126 151.488481 
L 145.664925 150.100167 
L 146.073456 149.504128 
L 147.165299 147.786311 
L 152.712772 142.233055 
L 159.070787 136.217028 
L 159.115192 136.076125 
L 161.444073 133.556041 
L 164.238731 131.586876 
L 165.170284 131.116995 
L 167.094497 130.201002 
L 167.499165 130.131757 
L 168.126235 129.73823 
L 168.430718 129.71401 
L 169.169862 129.275459 
L 169.36227 129.265929 
L 170.30082 128.812688 
L 170.759599 128.760043 
L 171.456202 128.349917 
L 171.691152 128.339213 
L 172.622705 127.886831 
L 173.088481 127.835961 
L 173.767081 127.424374 
L 174.020033 127.41319 
L 174.951586 126.960793 
L 175.417362 126.912034 
L 176.254047 126.498831 
L 177.280467 126.435311 
L 177.746244 126.240174 
L 181.472454 125.830906 
L 182.404007 125.571288 
L 183.335559 125.526795 
L 183.801336 125.283317 
L 185.198664 125.096799 
L 185.664441 125.040871 
L 186.130217 124.833505 
L 187.527546 124.640013 
L 187.993322 124.612168 
L 188.459098 124.448932 
L 189.856427 124.493476 
L 197.774624 124.994878 
L 199.215768 125.573289 
L 201.966611 126.844711 
L 202.898164 127.186094 
L 204.761269 127.329197 
L 205.692821 127.502258 
L 208.021703 128.38018 
L 209.884808 129.175238 
L 211.31801 129.73823 
L 214.076795 130.809642 
L 217.337229 132.217522 
L 218.540049 132.977629 
L 219.986041 134.365943 
L 222.175952 136.217028 
L 223.033985 137.142571 
L 224.989404 138.993656 
L 226.652755 142.084737 
L 228.063378 145.472454 
L 228.569217 146.860768 
L 229.244108 148.711853 
L 229.913189 150.389274 
L 231.517015 154.72788 
L 232.108879 159.818364 
L 232.416894 162.13222 
L 232.522901 168.611018 
L 232.41441 169.999332 
L 232.085474 171.850417 
L 231.023706 176.015359 
L 230.57067 180.643072 
L 231.425541 196.377295 
L 232.382469 201.005008 
L 232.142395 201.930551 
L 231.795894 203.318865 
L 231.014457 207.021035 
L 228.936178 212.57429 
L 225.654801 216.739232 
L 224.789649 217.732268 
L 221.529215 219.895871 
L 220.597663 220.28273 
L 215.008347 222.103349 
L 210.350584 223.218601 
L 201.966611 223.220358 
L 201.966611 223.220358 
" clip-path="url(#p6a78bfed33)" style="fill: none; stroke: #000000; stroke-width: 1.5"/>
   </g>
   <g id="PathCollection_4">
    <path d="M 197.308848 245.928384 
L 197.112096 245.893823 
L 196.843072 245.846567 
L 196.377295 245.764506 
L 195.911519 245.590927 
L 195.488049 245.431052 
L 195.445743 245.41508 
L 194.979967 245.239236 
L 194.51419 245.0634 
L 194.262237 244.96828 
L 194.048414 244.887556 
L 193.582638 244.711709 
L 193.116861 244.535867 
L 193.036446 244.505509 
L 192.651085 244.360026 
L 192.185309 244.184169 
L 191.810685 244.042738 
L 191.719533 244.008323 
L 191.253756 243.832463 
L 190.78798 243.656606 
L 190.584992 243.579967 
L 190.322204 243.480753 
L 189.856427 243.304896 
L 189.390651 243.12904 
L 189.359278 243.117195 
L 188.924875 242.953181 
L 188.459098 242.77733 
L 188.133581 242.654424 
L 187.993322 242.601466 
L 187.527546 242.425611 
L 187.06177 242.249762 
L 186.90786 242.191653 
L 186.595993 242.073903 
L 186.130217 241.898043 
L 185.682177 241.728881 
L 185.664441 241.722185 
L 185.198664 241.546328 
L 184.732888 241.370475 
L 184.456476 241.26611 
L 184.267112 241.194614 
L 183.801336 241.018764 
L 183.335559 240.842899 
L 183.230776 240.803339 
L 182.869783 240.667049 
L 182.404007 240.491192 
L 182.005067 240.340568 
L 181.93823 240.315332 
L 181.472454 240.13947 
L 181.006678 239.963617 
L 180.779374 239.877796 
L 180.540902 239.787757 
L 180.075125 239.611898 
L 179.609349 239.436041 
L 179.553687 239.415025 
L 179.143573 239.260185 
L 178.677796 239.084328 
L 178.327984 238.952254 
L 178.21202 238.908471 
L 177.746244 238.760342 
L 177.280467 238.627109 
L 176.814691 238.500304 
L 176.77338 238.489482 
L 176.348915 238.379982 
L 175.883139 238.261615 
L 175.417362 238.143252 
L 174.95877 238.026711 
L 174.951586 238.024886 
L 174.48581 237.906523 
L 174.020033 237.788159 
L 173.554257 237.669796 
L 173.137712 237.56394 
L 173.088481 237.551429 
L 172.622705 237.433065 
L 172.156928 237.314701 
L 171.691152 237.201927 
L 171.233279 237.101169 
L 171.225376 237.099429 
L 170.759599 236.996926 
L 170.293823 236.894429 
L 169.828047 236.791924 
L 169.36227 236.689426 
L 169.13038 236.638397 
L 168.896494 236.58693 
L 168.430718 236.48443 
L 167.964942 236.381933 
L 167.499165 236.279432 
L 167.033389 236.209861 
L 166.76124 236.175626 
L 166.567613 236.151268 
L 166.101836 236.092681 
L 165.63606 236.034087 
L 165.170284 235.975492 
L 164.704508 235.9169 
L 164.238731 235.858309 
L 163.772955 235.799717 
L 163.307179 235.741119 
L 163.082487 235.712855 
L 162.841402 235.682359 
L 162.375626 235.62016 
L 161.90985 235.544086 
L 161.444073 235.467779 
L 160.978297 235.392342 
L 160.512521 235.316903 
L 160.099999 235.250083 
L 160.046745 235.241457 
L 159.580968 235.166019 
L 159.115192 235.056592 
L 158.649416 234.873807 
L 158.429009 234.787312 
L 158.183639 234.690597 
L 157.717863 234.506533 
L 157.258842 234.324541 
L 157.252087 234.32186 
L 156.786311 234.13701 
L 156.320534 233.952156 
L 156.092794 233.86177 
L 155.854758 233.767299 
L 155.388982 233.582454 
L 154.926747 233.398998 
L 154.923205 233.397593 
L 154.457429 233.212753 
L 153.991653 233.027889 
L 153.760684 232.936227 
L 153.525876 232.843043 
L 153.0601 232.658196 
L 152.594598 232.473456 
L 152.594324 232.473347 
L 152.128548 232.288486 
L 151.662771 232.103639 
L 151.428558 232.010684 
L 151.196995 231.918783 
L 150.731219 231.733938 
L 150.265442 231.549083 
L 150.262495 231.547913 
L 149.799666 231.364236 
L 149.33389 231.179386 
L 149.096429 231.085142 
L 148.868114 230.994528 
L 148.402337 230.809681 
L 147.936561 230.624834 
L 147.930354 230.622371 
L 147.470785 230.431012 
L 147.01607 230.159599 
L 147.005008 230.152726 
L 146.539232 229.863284 
L 146.27137 229.696828 
L 146.073456 229.573838 
L 145.607679 229.266255 
L 145.567196 229.234057 
L 145.141903 228.874642 
L 145.019601 228.771285 
L 144.676127 228.480983 
L 144.472072 228.308514 
L 144.210351 228.086082 
L 143.927634 227.845743 
L 143.744574 227.689515 
L 143.385383 227.382972 
L 143.278798 227.292008 
L 142.84314 226.9202 
L 142.813022 226.894496 
L 142.347245 226.496981 
L 142.300902 226.457429 
L 141.881469 226.099469 
L 141.760166 225.994658 
L 141.415693 225.668575 
L 141.278942 225.531886 
L 140.949917 225.230805 
L 140.768105 225.069115 
L 140.48414 224.819091 
L 140.242681 224.606344 
L 140.018364 224.408784 
L 139.717371 224.143573 
L 139.552588 223.998378 
L 139.192161 223.680801 
L 139.086811 223.587977 
L 138.666944 223.21803 
L 138.621035 223.177578 
L 138.155259 222.767168 
L 138.141743 222.755259 
L 137.689482 222.356762 
L 137.616536 222.292487 
L 137.223706 221.956302 
L 137.077354 221.829716 
L 136.75793 221.559572 
L 136.530156 221.366945 
L 136.292154 221.165666 
L 135.977135 220.904174 
L 135.826377 220.780861 
L 135.402958 220.441402 
L 135.360601 220.407444 
L 134.894825 220.034017 
L 134.82574 219.978631 
L 134.429048 219.660593 
L 134.248526 219.51586 
L 133.963272 219.287167 
L 133.671299 219.053088 
L 133.497496 218.913747 
L 133.094082 218.590317 
L 133.03172 218.54032 
L 132.565943 218.166887 
L 132.516873 218.127546 
L 132.100167 217.79348 
L 131.939629 217.664775 
L 131.634391 217.420058 
L 131.362411 217.202003 
L 131.168614 217.04663 
L 130.785204 216.739232 
L 130.702838 216.673198 
L 130.237062 216.299778 
L 130.207978 216.276461 
L 129.771285 215.926348 
L 129.630765 215.813689 
L 129.305509 215.552926 
L 129.053535 215.350918 
L 128.839733 215.17951 
L 128.476315 214.888147 
L 128.373957 214.806084 
L 127.90818 214.432657 
L 127.899098 214.425376 
L 127.442404 214.059236 
L 127.321874 213.962604 
L 126.976628 213.685814 
L 126.744654 213.499833 
L 126.510851 213.312386 
L 126.167434 213.037062 
L 126.045075 212.938966 
L 125.705928 212.57429 
L 125.579299 212.33088 
L 125.469601 212.111519 
L 125.247366 211.648748 
L 125.113523 211.370025 
L 125.025141 211.185977 
L 124.800648 210.723205 
L 124.647746 210.419318 
L 124.566239 210.260434 
L 124.328849 209.797663 
L 124.18197 209.511338 
L 124.091455 209.334891 
L 123.854065 208.87212 
L 123.716194 208.603355 
L 123.616673 208.409349 
L 123.37928 207.946578 
L 123.250417 207.695374 
L 123.141889 207.483806 
L 122.904492 207.021035 
L 122.784641 206.7874 
L 122.667102 206.558264 
L 122.430033 206.095492 
L 122.318865 205.877741 
L 122.193776 205.632721 
L 121.957519 205.16995 
L 121.853088 204.965392 
L 121.721266 204.707179 
L 121.485011 204.244407 
L 121.387312 204.05304 
L 121.248759 203.781636 
L 121.012512 203.318865 
L 120.921536 203.140662 
L 120.776258 202.856093 
L 120.540004 202.393322 
L 120.45576 202.228313 
L 120.303741 201.930551 
L 120.067487 201.46778 
L 119.989983 201.315964 
L 119.831234 201.005008 
L 119.594978 200.542237 
L 119.524207 200.403613 
L 119.358721 200.079466 
L 119.122457 199.616694 
L 119.058431 199.49128 
L 118.886206 199.153923 
L 118.649951 198.691152 
L 118.592654 198.578921 
L 118.413698 198.228381 
L 118.17744 197.765609 
L 118.126878 197.666569 
L 117.941191 197.302838 
L 117.704937 196.840067 
L 117.661102 196.667203 
L 117.593419 196.377295 
L 117.488251 195.914524 
L 117.383077 195.451753 
L 117.277906 194.988982 
L 117.195326 194.625608 
L 117.172736 194.52621 
L 117.065424 194.063439 
L 116.932237 193.600668 
L 116.799051 193.137896 
L 116.729549 192.896395 
L 116.665869 192.675125 
L 116.532672 192.212354 
L 116.399491 191.749583 
L 116.266303 191.286811 
L 116.263773 191.278023 
L 116.133103 190.82404 
L 115.999925 190.361269 
L 115.866735 189.898497 
L 115.797997 189.659669 
L 115.734515 189.435726 
L 115.609098 188.972955 
L 115.495531 188.510184 
L 115.382021 188.047412 
L 115.33222 187.84436 
L 115.268523 187.584641 
L 115.155021 187.12187 
L 115.041526 186.659098 
L 114.928021 186.196327 
L 114.866444 185.94527 
L 114.814519 185.733556 
L 114.686238 185.270785 
L 114.555968 184.808013 
L 114.425708 184.345242 
L 114.400668 184.256282 
L 114.295446 183.882471 
L 114.165187 183.419699 
L 114.034918 182.956928 
L 113.934891 182.601548 
L 113.904665 182.494157 
L 113.774402 182.031386 
L 113.644146 181.568614 
L 113.559343 181.105843 
L 113.510158 180.643072 
L 113.469115 180.256838 
L 113.460982 180.180301 
L 113.411797 179.717529 
L 113.362614 179.254758 
L 113.313438 178.791987 
L 113.264257 178.329215 
L 113.215075 177.866444 
L 113.165896 177.403673 
L 113.116718 176.940902 
L 113.06754 176.47813 
L 113.018359 176.015359 
L 113.003339 175.894581 
L 112.960695 175.552588 
L 112.901099 175.089816 
L 112.841504 174.627045 
L 112.789134 174.164274 
L 112.788276 173.701503 
L 112.787413 173.238731 
L 112.786551 172.77596 
L 112.78569 172.313189 
L 112.784825 171.850417 
L 112.783961 171.387646 
L 112.783101 170.924875 
L 112.782236 170.462104 
L 112.781377 169.999332 
L 112.780518 169.536561 
L 112.779653 169.07379 
L 112.793128 168.611018 
L 112.839253 168.148247 
L 112.88699 167.685476 
L 113.003339 167.253669 
L 113.011999 167.222705 
L 113.14143 166.759933 
L 113.270863 166.297162 
L 113.418374 165.834391 
L 113.469115 165.678521 
L 113.569021 165.371619 
L 113.719665 164.908848 
L 113.870314 164.446077 
L 113.934891 164.247697 
L 114.020956 163.983306 
L 114.171601 163.520534 
L 114.322245 163.057763 
L 114.400668 162.816857 
L 114.472894 162.594992 
L 114.623544 162.13222 
L 114.774194 161.669449 
L 114.866444 161.386064 
L 114.924839 161.206678 
L 115.075482 160.743907 
L 115.232094 160.281135 
L 115.33222 160.011586 
L 115.404918 159.818364 
L 115.579034 159.355593 
L 115.753148 158.892821 
L 115.797997 158.773622 
L 115.927261 158.43005 
L 116.101368 157.967279 
L 116.263773 157.535621 
L 116.275479 157.504508 
L 116.4496 157.041736 
L 116.623712 156.578965 
L 116.729549 156.297651 
L 116.797818 156.116194 
L 116.971942 155.653422 
L 117.146057 155.190651 
L 117.195326 155.059697 
L 117.320166 154.72788 
L 117.494277 154.265109 
L 117.661102 153.821708 
L 117.66839 153.802337 
L 117.842501 153.339566 
L 118.016614 152.876795 
L 118.126878 152.583721 
L 118.190726 152.414023 
L 118.364839 151.951252 
L 118.538953 151.488481 
L 118.592654 151.34575 
L 118.713067 151.02571 
L 118.887177 150.562938 
L 119.058431 150.107779 
L 119.061295 150.100167 
L 119.235408 149.637396 
L 119.409513 149.174624 
L 119.524207 148.987419 
L 119.719942 148.711853 
L 119.989983 148.34956 
L 120.064874 148.249082 
L 120.409608 147.786311 
L 120.45576 147.724413 
L 120.747573 147.323539 
L 120.921536 147.067045 
L 121.060962 146.860768 
L 121.374178 146.397997 
L 121.387312 146.378493 
L 121.685461 145.935225 
L 121.853088 145.686454 
L 121.9971 145.472454 
L 122.309098 145.009683 
L 122.318865 144.995179 
L 122.620735 144.546912 
L 122.784641 144.303524 
L 122.93238 144.08414 
L 123.24401 143.621369 
L 123.250417 143.611855 
L 123.55565 143.158598 
L 123.716194 142.892063 
L 123.827542 142.695826 
L 124.062499 142.233055 
L 124.18197 141.997726 
L 124.297437 141.770284 
L 124.532382 141.307513 
L 124.647746 141.080277 
L 124.767326 140.844741 
L 125.002263 140.38197 
L 125.113523 140.162828 
L 125.237214 139.919199 
L 125.472151 139.456427 
L 125.579299 139.245393 
L 125.707109 138.993656 
L 125.942051 138.530885 
L 126.045075 138.347125 
L 126.214258 138.068114 
L 126.510851 137.627377 
L 126.525617 137.605342 
L 126.832246 137.142571 
L 126.976628 136.923193 
L 127.136817 136.6798 
L 127.441374 136.217028 
L 127.442404 136.215463 
L 127.745956 135.754257 
L 127.90818 135.507769 
L 128.050528 135.291486 
L 128.3551 134.828715 
L 128.373957 134.800064 
L 128.657662 134.365943 
L 128.839733 134.027428 
L 128.906493 133.903172 
L 129.241086 133.440401 
L 129.305509 133.354929 
L 129.589895 132.977629 
L 129.771285 132.736981 
L 129.938711 132.514858 
L 130.237062 132.119031 
L 130.287521 132.052087 
L 130.636331 131.589316 
L 130.702838 131.509135 
L 131.06969 131.126544 
L 131.168614 131.025917 
L 131.524636 130.663773 
L 131.634391 130.557795 
L 132.021799 130.201002 
L 132.100167 130.130031 
L 132.532815 129.73823 
L 132.565943 129.70823 
L 133.03172 129.286417 
L 133.04382 129.275459 
L 133.497496 128.864606 
L 133.554826 128.812688 
L 133.963272 128.442802 
L 134.065837 128.349917 
L 134.429048 128.021001 
L 134.576861 127.887145 
L 134.894825 127.599196 
L 135.087865 127.424374 
L 135.360601 127.177375 
L 135.59886 126.961603 
L 135.826377 126.755567 
L 136.109876 126.498831 
L 136.292154 126.333761 
L 136.620893 126.03606 
L 136.75793 125.911959 
L 137.131901 125.573289 
L 137.223706 125.490149 
L 137.642905 125.110518 
L 137.689482 125.068337 
L 138.153913 124.647746 
L 138.155259 124.646486 
L 138.619085 124.184975 
L 138.621035 124.18299 
L 139.073656 123.722204 
L 139.086811 123.708811 
L 139.528223 123.259432 
L 139.552588 123.234629 
L 139.982795 122.796661 
L 140.018364 122.760451 
L 140.437349 122.33389 
L 140.48414 122.286253 
L 140.891916 121.871119 
L 140.949917 121.812071 
L 141.346486 121.408347 
L 141.415693 121.337892 
L 141.801064 120.945576 
L 141.881469 120.863719 
L 142.255631 120.482805 
L 142.347245 120.389534 
L 142.710183 120.020033 
L 142.813022 119.915338 
L 143.164756 119.557262 
L 143.278798 119.441163 
L 143.619313 119.094491 
L 143.744574 118.966965 
L 144.096543 118.63172 
L 144.210351 118.542801 
L 144.676127 118.225788 
L 144.759636 118.168948 
L 145.141903 117.908764 
L 145.439557 117.706177 
L 145.607679 117.591749 
L 146.073456 117.274724 
L 146.11947 117.243406 
L 146.539232 116.957707 
L 146.799391 116.780634 
L 147.005008 116.640684 
L 147.470785 116.32367 
L 147.479317 116.317863 
L 147.936561 116.006648 
L 148.151405 115.855092 
L 148.402337 115.674045 
L 148.770219 115.392321 
L 148.868114 115.317352 
L 149.33389 114.960656 
L 149.374509 114.929549 
L 149.799666 114.603959 
L 149.978797 114.466778 
L 150.265442 114.247261 
L 150.583157 114.004007 
L 150.731219 113.890623 
L 151.188232 113.541235 
L 151.196995 113.534528 
L 151.662771 113.179611 
L 151.795539 113.078464 
L 152.128548 112.824757 
L 152.402975 112.615693 
L 152.594324 112.469917 
L 153.010429 112.152922 
L 153.0601 112.115081 
L 153.525876 111.772995 
L 153.698663 111.69015 
L 153.991653 111.562127 
L 154.457429 111.35861 
L 154.757772 111.227379 
L 154.923205 111.155099 
L 155.388982 110.951575 
L 155.81689 110.764608 
L 155.854758 110.748062 
L 156.320534 110.544539 
L 156.786311 110.34103 
L 156.876011 110.301836 
L 157.252087 110.137508 
L 157.717863 109.933976 
L 157.935093 109.839065 
L 158.183639 109.730474 
L 158.649416 109.526956 
L 158.994225 109.376294 
L 159.115192 109.323437 
L 159.580968 109.11992 
L 160.046745 108.916415 
L 160.053365 108.913523 
L 160.512521 108.71289 
L 160.978297 108.50937 
L 161.112458 108.450751 
L 161.444073 108.305867 
L 161.90985 108.102344 
L 162.171608 107.98798 
L 162.375626 107.898843 
L 162.841402 107.69532 
L 163.230725 107.525209 
L 163.307179 107.493681 
L 163.772955 107.333792 
L 164.238731 107.181338 
L 164.601976 107.062437 
L 164.704508 107.028876 
L 165.170284 106.87617 
L 165.63606 106.721586 
L 166.001115 106.599666 
L 166.101836 106.566028 
L 166.567613 106.41048 
L 167.033389 106.254929 
L 167.38681 106.136895 
L 167.499165 106.099371 
L 167.964942 105.943813 
L 168.430718 105.78826 
L 168.77249 105.674124 
L 168.896494 105.632712 
L 169.36227 105.477147 
L 169.828047 105.31951 
L 170.142405 105.211352 
L 170.293823 105.159095 
L 170.759599 104.998343 
L 171.225376 104.837579 
L 171.483243 104.748581 
L 171.691152 104.676826 
L 172.156928 104.516074 
L 172.622705 104.355322 
L 172.824101 104.28581 
L 173.088481 104.194561 
L 173.554257 104.033809 
L 174.020033 103.873058 
L 174.162071 103.823038 
L 174.48581 103.705501 
L 174.951586 103.535591 
L 175.417362 103.398322 
L 175.57533 103.360267 
L 175.883139 103.286556 
L 176.348915 103.197847 
L 176.814691 103.109148 
L 177.280467 103.020438 
L 177.746244 102.931733 
L 177.926007 102.897496 
L 178.21202 102.843022 
L 178.677796 102.754318 
L 179.143573 102.718526 
L 179.609349 102.702491 
L 180.075125 102.650618 
L 180.540902 102.584709 
L 181.006678 102.518805 
L 181.472454 102.453206 
L 181.7176 102.434725 
L 181.93823 102.417997 
L 182.404007 102.38531 
L 182.869783 102.352612 
L 183.335559 102.319913 
L 183.801336 102.287229 
L 184.267112 102.24712 
L 184.732888 102.192008 
L 185.198664 102.1369 
L 185.664441 102.11652 
L 186.130217 102.128419 
L 186.595993 102.14033 
L 187.06177 102.152239 
L 187.527546 102.164159 
L 187.993322 102.176065 
L 188.459098 102.187969 
L 188.924875 102.199885 
L 189.390651 102.222067 
L 189.856427 102.268834 
L 190.322204 102.315903 
L 190.78798 102.362974 
L 191.253756 102.367416 
L 191.719533 102.364389 
L 192.185309 102.361369 
L 192.651085 102.358328 
L 193.116861 102.355307 
L 193.582638 102.352284 
L 194.048414 102.348521 
L 194.51419 102.329416 
L 194.979967 102.309462 
L 195.445743 102.289515 
L 195.911519 102.269563 
L 196.377295 102.249601 
L 196.843072 102.229645 
L 197.308848 102.20969 
L 197.774624 102.189737 
L 198.240401 102.169785 
L 198.706177 102.149828 
L 199.171953 102.129873 
L 199.63773 102.109918 
L 200.103506 102.089962 
L 200.569282 102.08126 
L 201.035058 102.095737 
L 201.500835 102.110205 
L 201.966611 102.124681 
L 202.432387 102.139156 
L 202.898164 102.15378 
L 203.36394 102.168433 
L 203.829716 102.183076 
L 204.295492 102.197728 
L 204.761269 102.212376 
L 205.227045 102.227023 
L 205.692821 102.24167 
L 206.158598 102.307473 
L 206.624374 102.390983 
L 206.782487 102.434725 
L 207.09015 102.520411 
L 207.555927 102.694787 
L 208.021703 102.888497 
L 208.035142 102.897496 
L 208.487479 103.240549 
L 208.625771 103.360267 
L 208.953255 103.643756 
L 209.16036 103.823038 
L 209.419032 104.046965 
L 209.694932 104.28581 
L 209.884808 104.450184 
L 210.229506 104.748581 
L 210.350584 104.853394 
L 210.816361 105.121307 
L 211.050867 105.211352 
L 211.282137 105.300151 
L 211.747913 105.478982 
L 212.213689 105.657821 
L 212.25615 105.674124 
L 212.679466 105.836648 
L 213.145242 106.01549 
L 213.461447 106.136895 
L 213.611018 106.194321 
L 214.076795 106.373155 
L 214.542571 106.551991 
L 214.66673 106.599666 
L 215.008347 106.730837 
L 215.474124 106.909674 
L 215.871997 107.062437 
L 215.9399 107.088508 
L 216.405676 107.267347 
L 216.871452 107.446186 
L 217.077277 107.525209 
L 217.337229 107.62501 
L 217.803005 107.803843 
L 218.268781 107.982672 
L 218.282605 107.98798 
L 218.734558 108.16152 
L 219.200334 108.339071 
L 219.515208 108.450751 
L 219.66611 108.504005 
L 220.131886 108.668382 
L 220.597663 108.83481 
L 220.816376 108.913523 
L 221.063439 109.002438 
L 221.529215 109.170087 
L 221.994992 109.337714 
L 222.102182 109.376294 
L 222.460768 109.505357 
L 222.926544 109.672998 
L 223.387954 109.839065 
L 223.392321 109.840637 
L 223.858097 110.00828 
L 224.323873 110.175917 
L 224.673727 110.301836 
L 224.789649 110.344737 
L 225.255426 110.583475 
L 225.585964 110.764608 
L 225.721202 110.838713 
L 226.186978 111.093955 
L 226.430447 111.227379 
L 226.652755 111.349205 
L 227.118531 111.604448 
L 227.274927 111.69015 
L 227.584307 111.859689 
L 228.050083 112.114927 
L 228.119416 112.152922 
L 228.51586 112.370178 
L 228.963875 112.615693 
L 228.981636 112.625426 
L 229.447412 112.880669 
L 229.808364 113.078464 
L 229.913189 113.135907 
L 230.378965 113.391155 
L 230.652827 113.541235 
L 230.844741 113.646407 
L 231.310518 113.901643 
L 231.49731 114.004007 
L 231.776294 114.156891 
L 232.24207 114.412131 
L 232.342562 114.466778 
L 232.707846 114.661548 
L 233.110763 114.929549 
L 233.173623 114.982228 
L 233.593441 115.392321 
L 233.639399 115.437214 
L 234.067198 115.855092 
L 234.105175 115.892189 
L 234.540927 116.317863 
L 234.570952 116.348187 
L 234.975168 116.780634 
L 235.036728 116.848374 
L 235.406777 117.243406 
L 235.502504 117.345594 
L 235.840284 117.706177 
L 235.96828 117.842819 
L 236.27379 118.168948 
L 236.434057 118.340032 
L 236.708993 118.63172 
L 236.899833 118.813295 
L 237.22355 119.094491 
L 237.365609 119.217897 
L 237.756278 119.557262 
L 237.831386 119.622504 
L 238.289008 120.020033 
L 238.297162 120.027117 
L 238.762938 120.431714 
L 238.821754 120.482805 
L 239.228715 120.83632 
L 239.354488 120.945576 
L 239.694491 121.240923 
L 239.887226 121.408347 
L 240.160267 121.645531 
L 240.419966 121.871119 
L 240.626043 122.050128 
L 240.952707 122.33389 
L 241.09182 122.457146 
L 241.468312 122.796661 
L 241.557596 122.877186 
L 241.981429 123.259432 
L 242.023372 123.29726 
L 242.489149 123.717308 
L 242.494577 123.722204 
L 242.954925 124.137392 
L 243.004541 124.184975 
L 243.339637 124.647746 
L 243.420701 124.793045 
L 243.597824 125.110518 
L 243.855995 125.573289 
L 243.886477 125.627926 
L 244.114182 126.03606 
L 244.352254 126.462802 
L 244.372354 126.498831 
L 244.630535 126.961603 
L 244.81803 127.297674 
L 244.888716 127.424374 
L 245.146899 127.887145 
L 245.283806 128.13255 
L 245.405069 128.349917 
L 245.663248 128.812688 
L 245.749583 128.967435 
L 245.92143 129.275459 
L 246.179608 129.73823 
L 246.215359 129.802315 
L 246.437778 130.201002 
L 246.681135 130.63721 
L 246.695955 130.663773 
L 246.954136 131.126544 
L 247.146912 131.472085 
L 247.212313 131.589316 
L 247.470493 132.052087 
L 247.612688 132.306959 
L 247.728986 132.514858 
L 247.990044 132.977629 
L 248.078464 133.133273 
L 248.252941 133.440401 
L 248.515838 133.903172 
L 248.54424 133.953166 
L 248.778749 134.365943 
L 249.010017 134.816491 
L 249.016297 134.828715 
L 249.253285 135.291486 
L 249.475793 135.726009 
L 249.490258 135.754257 
L 249.727245 136.217028 
L 249.941569 136.635557 
L 249.964225 136.6798 
L 250.201209 137.142571 
L 250.407346 137.545106 
L 250.438192 137.605342 
L 250.675174 138.068114 
L 250.873122 138.513176 
L 250.880727 138.530885 
L 251.031782 138.993656 
L 251.18283 139.456427 
L 251.33389 139.919199 
L 251.338898 139.934407 
L 251.490673 140.38197 
L 251.652855 140.844741 
L 251.804674 141.277952 
L 251.815034 141.307513 
L 251.977223 141.770284 
L 252.139406 142.233055 
L 252.270451 142.606973 
L 252.301591 142.695826 
L 252.463778 143.158598 
L 252.625968 143.621369 
L 252.736227 143.928369 
L 252.792145 144.08414 
L 252.964414 144.546912 
L 253.136685 145.009683 
L 253.202003 145.185136 
L 253.308972 145.472454 
L 253.48125 145.935225 
L 253.653526 146.397997 
L 253.66778 146.436287 
L 253.825788 146.860768 
L 253.998059 147.323539 
L 254.133556 147.687506 
L 254.170338 147.786311 
L 254.342612 148.249082 
L 254.513399 148.711853 
L 254.599332 148.974378 
L 254.662479 149.174624 
L 254.808394 149.637396 
L 254.954502 150.100167 
L 255.065109 150.547178 
L 255.068697 150.562938 
L 255.118377 151.02571 
L 255.102284 151.488481 
L 255.086194 151.951252 
L 255.070099 152.414023 
L 255.065109 152.55757 
L 255.054009 152.876795 
L 255.037917 153.339566 
L 255.021826 153.802337 
L 255.005727 154.265109 
L 254.989641 154.72788 
L 254.973545 155.190651 
L 254.957451 155.653422 
L 254.941361 156.116194 
L 254.92527 156.578965 
L 254.909177 157.041736 
L 254.893079 157.504508 
L 254.87699 157.967279 
L 254.8609 158.43005 
L 254.844806 158.892821 
L 254.828715 159.355593 
L 254.81262 159.818364 
L 254.796527 160.281135 
L 254.784345 160.743907 
L 254.781544 161.206678 
L 254.778744 161.669449 
L 254.775938 162.13222 
L 254.773133 162.594992 
L 254.770339 163.057763 
L 254.767544 163.520534 
L 254.76474 163.983306 
L 254.763457 164.446077 
L 254.77934 164.908848 
L 254.795613 165.371619 
L 254.811884 165.834391 
L 254.82814 166.297162 
L 254.842933 166.759933 
L 254.829112 167.222705 
L 254.812005 167.685476 
L 254.794898 168.148247 
L 254.777797 168.611018 
L 254.760685 169.07379 
L 254.743585 169.536561 
L 254.726472 169.999332 
L 254.709371 170.462104 
L 254.634401 170.924875 
L 254.599332 171.115896 
L 254.549443 171.387646 
L 254.534483 171.850417 
L 254.524968 172.313189 
L 254.515462 172.77596 
L 254.505951 173.238731 
L 254.496436 173.701503 
L 254.486921 174.164274 
L 254.47741 174.627045 
L 254.4679 175.089816 
L 254.458388 175.552588 
L 254.448879 176.015359 
L 254.439364 176.47813 
L 254.429854 176.940902 
L 254.420341 177.403673 
L 254.410835 177.866444 
L 254.401318 178.329215 
L 254.391804 178.791987 
L 254.382292 179.254758 
L 254.372785 179.717529 
L 254.36327 180.180301 
L 254.353756 180.643072 
L 254.344244 181.105843 
L 254.334736 181.568614 
L 254.325228 182.031386 
L 254.315717 182.494157 
L 254.306287 182.956928 
L 254.388966 183.419699 
L 254.479404 183.882471 
L 254.569841 184.345242 
L 254.599332 184.496153 
L 254.660302 184.808013 
L 254.76103 185.270785 
L 254.785551 185.733556 
L 254.797306 186.196327 
L 254.816196 186.659098 
L 254.84251 187.12187 
L 254.863653 187.584641 
L 254.875437 188.047412 
L 254.887217 188.510184 
L 254.898998 188.972955 
L 254.912053 189.435726 
L 254.928753 189.898497 
L 254.94707 190.361269 
L 254.965391 190.82404 
L 254.983702 191.286811 
L 255.002014 191.749583 
L 255.020325 192.212354 
L 255.038647 192.675125 
L 255.056961 193.137896 
L 255.065109 193.343787 
L 255.075274 193.600668 
L 255.093591 194.063439 
L 255.111907 194.52621 
L 255.130222 194.988982 
L 255.148534 195.451753 
L 255.166851 195.914524 
L 255.185161 196.377295 
L 255.203479 196.840067 
L 255.221792 197.302838 
L 255.240109 197.765609 
L 255.258418 198.228381 
L 255.276737 198.691152 
L 255.295051 199.153923 
L 255.313367 199.616694 
L 255.331675 200.079466 
L 255.349993 200.542237 
L 255.369892 201.005008 
L 255.408588 201.46778 
L 255.447701 201.930551 
L 255.486811 202.393322 
L 255.477187 202.856093 
L 255.362093 203.318865 
L 255.246995 203.781636 
L 255.131906 204.244407 
L 255.065109 204.512984 
L 255.01681 204.707179 
L 254.901715 205.16995 
L 254.786621 205.632721 
L 254.671532 206.095492 
L 254.599332 206.385779 
L 254.556431 206.558264 
L 254.441334 207.021035 
L 254.326239 207.483806 
L 254.211146 207.946578 
L 254.133556 208.258552 
L 254.096052 208.409349 
L 253.980955 208.87212 
L 253.865861 209.334891 
L 253.750766 209.797663 
L 253.66778 210.131322 
L 253.635667 210.260434 
L 253.522619 210.723205 
L 253.456031 211.185977 
L 253.382128 211.648748 
L 253.27681 212.111519 
L 253.202003 212.440215 
L 253.171491 212.57429 
L 253.066183 213.037062 
L 252.960874 213.499833 
L 252.855554 213.962604 
L 252.750241 214.425376 
L 252.736227 214.486956 
L 252.644928 214.888147 
L 252.539615 215.350918 
L 252.434305 215.813689 
L 252.328989 216.276461 
L 252.270451 216.533684 
L 252.223674 216.739232 
L 252.118363 217.202003 
L 251.969836 217.664775 
L 251.804674 218.061469 
L 251.777163 218.127546 
L 251.584481 218.590317 
L 251.391805 219.053088 
L 251.338898 219.18016 
L 251.199125 219.51586 
L 251.006445 219.978631 
L 250.873122 220.298851 
L 250.813769 220.441402 
L 250.62108 220.904174 
L 250.428408 221.366945 
L 250.407346 221.417534 
L 250.235732 221.829716 
L 250.043053 222.292487 
L 249.941569 222.536229 
L 249.850373 222.755259 
L 249.657697 223.21803 
L 249.475793 223.654916 
L 249.465015 223.680801 
L 249.272339 224.143573 
L 249.035573 224.606344 
L 249.010017 224.643001 
L 248.703669 225.069115 
L 248.54424 225.290873 
L 248.370969 225.531886 
L 248.078464 225.938754 
L 248.038274 225.994658 
L 247.705578 226.457429 
L 247.612688 226.586638 
L 247.372885 226.9202 
L 247.146912 227.23453 
L 247.040196 227.382972 
L 246.707506 227.845743 
L 246.681135 227.882425 
L 246.374809 228.308514 
L 246.215359 228.517955 
L 246.015809 228.771285 
L 245.749583 229.096464 
L 245.636929 229.234057 
L 245.283806 229.665348 
L 245.258032 229.696828 
L 244.879147 230.159599 
L 244.81803 230.234247 
L 244.497906 230.622371 
L 244.352254 230.798532 
L 244.11522 231.085142 
L 243.886477 231.361731 
L 243.7325 231.547913 
L 243.420701 231.924927 
L 243.34978 232.010684 
L 242.967062 232.473456 
L 242.954925 232.488132 
L 242.554946 232.936227 
L 242.489149 232.996953 
L 242.023372 233.391244 
L 242.014212 233.398998 
L 241.557596 233.785542 
L 241.467548 233.86177 
L 241.09182 234.179838 
L 240.920881 234.324541 
L 240.626043 234.571362 
L 240.339798 234.787312 
L 240.160267 234.916377 
L 239.696087 235.250083 
L 239.694491 235.251231 
L 239.228715 235.586078 
L 239.052363 235.712855 
L 238.762938 235.920917 
L 238.408647 236.175626 
L 238.297162 236.255775 
L 237.831386 236.590621 
L 237.764927 236.638397 
L 237.365609 236.925064 
L 237.120641 237.101169 
L 236.899833 237.259232 
L 236.474159 237.56394 
L 236.434057 237.592646 
L 235.96828 237.926054 
L 235.827666 238.026711 
L 235.502504 238.259475 
L 235.18118 238.489482 
L 235.036728 238.59288 
L 234.570952 238.926284 
L 234.534672 238.952254 
L 234.105175 239.259701 
L 233.888192 239.415025 
L 233.639399 239.593115 
L 233.241698 239.877796 
L 233.173623 239.926527 
L 232.707846 240.255295 
L 232.581856 240.340568 
L 232.24207 240.570541 
L 231.898121 240.803339 
L 231.776294 240.885795 
L 231.310518 241.201032 
L 231.214363 241.26611 
L 230.844741 241.516273 
L 230.530621 241.728881 
L 230.378965 241.831526 
L 229.913189 242.14676 
L 229.84686 242.191653 
L 229.447412 242.46201 
L 229.159485 242.654424 
L 228.981636 242.754547 
L 228.51586 242.966281 
L 228.151112 243.117195 
L 228.050083 243.157894 
L 227.584307 243.324678 
L 227.118531 243.489973 
L 226.86319 243.579967 
L 226.652755 243.655209 
L 226.186978 243.821745 
L 225.721202 243.988375 
L 225.527579 244.042738 
L 225.255426 244.116946 
L 224.789649 244.209886 
L 224.323873 244.302832 
L 223.858097 244.395785 
L 223.392321 244.488733 
L 223.308246 244.505509 
L 222.926544 244.581676 
L 222.460768 244.674624 
L 221.994992 244.76757 
L 221.529215 244.861694 
L 221.133825 244.96828 
L 221.063439 244.988793 
L 220.597663 245.124535 
L 220.131886 245.209291 
L 219.66611 245.267125 
L 219.200334 245.32495 
L 218.734558 245.382776 
L 218.345713 245.431052 
L 218.268781 245.440602 
L 217.803005 245.498144 
L 217.337229 245.536243 
L 216.871452 245.534636 
L 216.405676 245.53304 
L 215.9399 245.531444 
L 215.474124 245.529839 
L 215.008347 245.528235 
L 214.542571 245.526635 
L 214.076795 245.525033 
L 213.611018 245.523437 
L 213.145242 245.521833 
L 212.679466 245.520227 
L 212.213689 245.51863 
L 211.747913 245.517032 
L 211.282137 245.515427 
L 210.816361 245.51383 
L 210.350584 245.512222 
L 209.884808 245.510621 
L 209.419032 245.509017 
L 208.953255 245.50742 
L 208.487479 245.505817 
L 208.021703 245.504215 
L 207.555927 245.502622 
L 207.09015 245.501013 
L 206.624374 245.499415 
L 206.158598 245.497815 
L 205.692821 245.496208 
L 205.227045 245.51354 
L 204.761269 245.563096 
L 204.295492 245.612649 
L 203.829716 245.662192 
L 203.36394 245.711747 
L 202.898164 245.761292 
L 202.432387 245.810846 
L 201.966611 245.860392 
L 201.500835 245.878177 
L 201.035058 245.872073 
L 200.569282 245.866979 
L 200.158025 245.893823 
L 200.103506 245.897373 
L 199.63773 245.928773 
L 199.171953 245.960169 
L 198.706177 245.991566 
L 198.240401 246.022971 
L 197.774624 246.010194 
L 197.308848 245.928384 
z
" clip-path="url(#p6a78bfed33)" style="fill: none; stroke: #000000; stroke-width: 1.5"/>
   </g>
   <g id="patch_3">
    <path d="M 45 320.4 
L 45 43.2 
" style="fill: none; stroke: #000000; stroke-width: 0.8; stroke-linejoin: miter; stroke-linecap: square"/>
   </g>
   <g id="patch_4">
    <path d="M 324 320.4 
L 324 43.2 
" style="fill: none; stroke: #000000; stroke-width: 0.8; stroke-linejoin: miter; stroke-linecap: square"/>
   </g>
   <g id="patch_5">
    <path d="M 45 320.4 
L 324 320.4 
" style="fill: none; stroke: #000000; stroke-width: 0.8; stroke-linejoin: miter; stroke-linecap: square"/>
   </g>
   <g id="patch_6">
    <path d="M 45 43.2 
L 324 43.2 
" style="fill: none; stroke: #000000; stroke-width: 0.8; stroke-linejoin: miter; stroke-linecap: square"/>
   </g>
  </g>
 </g>
 <defs>
  <clipPath id="p6a78bfed33">
   <rect x="45" y="43.2" width="279" height="277.2"/>
  </clipPath>
 </defs>
</svg>
