<?xml version="1.0" encoding="utf-8" standalone="no"?>
<!DOCTYPE svg PUBLIC "-//W3C//DTD SVG 1.1//EN"
  "http://www.w3.org/Graphics/SVG/1.1/DTD/svg11.dtd">
<svg xmlns:xlink="http://www.w3.org/1999/xlink" width="360pt" height="360pt" viewBox="0 0 360 360" xmlns="http://www.w3.org/2000/svg" version="1.1">
 <metadata>
  <rdf:RDF xmlns:dc="http://purl.org/dc/elements/1.1/" xmlns:cc="http://creativecommons.org/ns#" xmlns:rdf="http://www.w3.org/1999/02/22-rdf-syntax-ns#">
   <cc:Work>
    <dc:type rdf:resource="http://purl.org/dc/dcmitype/StillImage"/>
    <dc:date>2022-04-03T22:41:46.383584</dc:date>
    <dc:format>image/svg+xml</dc:format>
    <dc:creator>
     <cc:Agent>
      <dc:title>Matplotlib v3.5.1, https://matplotlib.org/</dc:title>
     </cc:Agent>
    </dc:creator>
   </cc:Work>
  </rdf:RDF>
 </metadata>
 <defs>
  <style type="text/css">*{stroke-linejoin: round; stroke-linecap: butt}</style>
 </defs>
 <g id="figure_1">
  <g id="patch_1">
   <path d="M 0 360 
L 360 360 
L 360 0 
L 0 0 
z
" style="fill: #ffffff"/>
  </g>
  <g id="axes_1">
   <g id="patch_2">
    <path d="M 45 320.4 
L 324 320.4 
L 324 43.2 
L 45 43.2 
z
" style="fill: #ffffff"/>
   </g>
   <g id="PathCollection_1">
    <defs>
     <path id="m493ca53835" d="M 0 0.5 
C 0.132602 0.5 0.25979 0.447317 0.353553 0.353553 
C 0.447317 0.25979 0.5 0.132602 0.5 0 
C 0.5 -0.132602 0.447317 -0.25979 0.353553 -0.353553 
C 0.25979 -0.447317 0.132602 -0.5 0 -0.5 
C -0.132602 -0.5 -0.25979 -0.447317 -0.353553 -0.353553 
C -0.447317 -0.25979 -0.5 -0.132602 -0.5 0 
C -0.5 0.132602 -0.447317 0.25979 -0.353553 0.353553 
C -0.25979 0.447317 -0.132602 0.5 0 0.5 
z
" style="stroke: #ff0000"/>
    </defs>
    <g clip-path="url(#pb689eb871c)">
     <use xlink:href="#m493ca53835" x="250.14225" y="181.568614" style="fill: #ff0000; stroke: #ff0000"/>
     <use xlink:href="#m493ca53835" x="249.195338" y="175.260578" style="fill: #ff0000; stroke: #ff0000"/>
     <use xlink:href="#m493ca53835" x="247.632818" y="169.13776" style="fill: #ff0000; stroke: #ff0000"/>
     <use xlink:href="#m493ca53835" x="245.307033" y="163.312197" style="fill: #ff0000; stroke: #ff0000"/>
     <use xlink:href="#m493ca53835" x="242.119441" y="157.951683" style="fill: #ff0000; stroke: #ff0000"/>
     <use xlink:href="#m493ca53835" x="238.094893" y="153.230045" style="fill: #ff0000; stroke: #ff0000"/>
     <use xlink:href="#m493ca53835" x="233.393205" y="149.264596" style="fill: #ff0000; stroke: #ff0000"/>
     <use xlink:href="#m493ca53835" x="228.264378" y="146.07373" style="fill: #ff0000; stroke: #ff0000"/>
     <use xlink:href="#m493ca53835" x="222.976601" y="143.571635" style="fill: #ff0000; stroke: #ff0000"/>
     <use xlink:href="#m493ca53835" x="217.747659" y="141.599539" style="fill: #ff0000; stroke: #ff0000"/>
     <use xlink:href="#m493ca53835" x="212.701045" y="139.981357" style="fill: #ff0000; stroke: #ff0000"/>
     <use xlink:href="#m493ca53835" x="207.857798" y="138.584072" style="fill: #ff0000; stroke: #ff0000"/>
     <use xlink:href="#m493ca53835" x="203.164369" y="137.358164" style="fill: #ff0000; stroke: #ff0000"/>
     <use xlink:href="#m493ca53835" x="198.543153" y="136.33599" style="fill: #ff0000; stroke: #ff0000"/>
     <use xlink:href="#m493ca53835" x="193.939319" y="135.583367" style="fill: #ff0000; stroke: #ff0000"/>
     <use xlink:href="#m493ca53835" x="189.336515" y="135.128767" style="fill: #ff0000; stroke: #ff0000"/>
     <use xlink:href="#m493ca53835" x="184.732888" y="134.9171" style="fill: #ff0000; stroke: #ff0000"/>
     <use xlink:href="#m493ca53835" x="180.099478" y="134.828315" style="fill: #ff0000; stroke: #ff0000"/>
     <use xlink:href="#m493ca53835" x="175.361657" y="134.760202" style="fill: #ff0000; stroke: #ff0000"/>
     <use xlink:href="#m493ca53835" x="170.430849" y="134.725287" style="fill: #ff0000; stroke: #ff0000"/>
     <use xlink:href="#m493ca53835" x="165.273918" y="134.893589" style="fill: #ff0000; stroke: #ff0000"/>
     <use xlink:href="#m493ca53835" x="159.973025" y="135.545023" style="fill: #ff0000; stroke: #ff0000"/>
     <use xlink:href="#m493ca53835" x="154.729897" y="136.955659" style="fill: #ff0000; stroke: #ff0000"/>
     <use xlink:href="#m493ca53835" x="149.806263" y="139.284967" style="fill: #ff0000; stroke: #ff0000"/>
     <use xlink:href="#m493ca53835" x="145.436257" y="142.52551" style="fill: #ff0000; stroke: #ff0000"/>
     <use xlink:href="#m493ca53835" x="141.761992" y="146.530829" style="fill: #ff0000; stroke: #ff0000"/>
     <use xlink:href="#m493ca53835" x="138.821034" y="151.089213" style="fill: #ff0000; stroke: #ff0000"/>
     <use xlink:href="#m493ca53835" x="136.57623" y="155.994411" style="fill: #ff0000; stroke: #ff0000"/>
     <use xlink:href="#m493ca53835" x="134.955814" y="161.083297" style="fill: #ff0000; stroke: #ff0000"/>
     <use xlink:href="#m493ca53835" x="133.878565" y="166.24165" style="fill: #ff0000; stroke: #ff0000"/>
     <use xlink:href="#m493ca53835" x="133.26192" y="171.396455" style="fill: #ff0000; stroke: #ff0000"/>
     <use xlink:href="#m493ca53835" x="133.02729" y="176.508913" style="fill: #ff0000; stroke: #ff0000"/>
     <use xlink:href="#m493ca53835" x="133.114876" y="181.568614" style="fill: #ff0000; stroke: #ff0000"/>
     <use xlink:href="#m493ca53835" x="133.505923" y="186.581479" style="fill: #ff0000; stroke: #ff0000"/>
     <use xlink:href="#m493ca53835" x="134.237026" y="191.548064" style="fill: #ff0000; stroke: #ff0000"/>
     <use xlink:href="#m493ca53835" x="135.388691" y="196.440443" style="fill: #ff0000; stroke: #ff0000"/>
     <use xlink:href="#m493ca53835" x="137.042522" y="201.195166" style="fill: #ff0000; stroke: #ff0000"/>
     <use xlink:href="#m493ca53835" x="139.224078" y="205.736645" style="fill: #ff0000; stroke: #ff0000"/>
     <use xlink:href="#m493ca53835" x="141.8673" y="210.025699" style="fill: #ff0000; stroke: #ff0000"/>
     <use xlink:href="#m493ca53835" x="144.831902" y="214.103244" style="fill: #ff0000; stroke: #ff0000"/>
     <use xlink:href="#m493ca53835" x="147.972722" y="218.091619" style="fill: #ff0000; stroke: #ff0000"/>
     <use xlink:href="#m493ca53835" x="151.221728" y="222.13864" style="fill: #ff0000; stroke: #ff0000"/>
     <use xlink:href="#m493ca53835" x="154.631075" y="226.328513" style="fill: #ff0000; stroke: #ff0000"/>
     <use xlink:href="#m493ca53835" x="158.35024" y="230.608635" style="fill: #ff0000; stroke: #ff0000"/>
     <use xlink:href="#m493ca53835" x="162.551782" y="234.773059" style="fill: #ff0000; stroke: #ff0000"/>
     <use xlink:href="#m493ca53835" x="167.347558" y="238.510613" style="fill: #ff0000; stroke: #ff0000"/>
     <use xlink:href="#m493ca53835" x="172.735705" y="241.493403" style="fill: #ff0000; stroke: #ff0000"/>
     <use xlink:href="#m493ca53835" x="178.596714" y="243.46829" style="fill: #ff0000; stroke: #ff0000"/>
     <use xlink:href="#m493ca53835" x="184.732888" y="244.320171" style="fill: #ff0000; stroke: #ff0000"/>
     <use xlink:href="#m493ca53835" x="190.930782" y="244.090894" style="fill: #ff0000; stroke: #ff0000"/>
     <use xlink:href="#m493ca53835" x="197.022289" y="242.953003" style="fill: #ff0000; stroke: #ff0000"/>
     <use xlink:href="#m493ca53835" x="202.924053" y="241.149955" style="fill: #ff0000; stroke: #ff0000"/>
     <use xlink:href="#m493ca53835" x="208.643852" y="238.922361" style="fill: #ff0000; stroke: #ff0000"/>
     <use xlink:href="#m493ca53835" x="214.253417" y="236.441323" style="fill: #ff0000; stroke: #ff0000"/>
     <use xlink:href="#m493ca53835" x="219.836292" y="233.765629" style="fill: #ff0000; stroke: #ff0000"/>
     <use xlink:href="#m493ca53835" x="225.42577" y="230.833135" style="fill: #ff0000; stroke: #ff0000"/>
     <use xlink:href="#m493ca53835" x="230.952725" y="227.490259" style="fill: #ff0000; stroke: #ff0000"/>
     <use xlink:href="#m493ca53835" x="236.225855" y="223.55516" style="fill: #ff0000; stroke: #ff0000"/>
     <use xlink:href="#m493ca53835" x="240.962346" y="218.897541" style="fill: #ff0000; stroke: #ff0000"/>
     <use xlink:href="#m493ca53835" x="244.868945" y="213.50463" style="fill: #ff0000; stroke: #ff0000"/>
     <use xlink:href="#m493ca53835" x="247.744701" y="207.500573" style="fill: #ff0000; stroke: #ff0000"/>
     <use xlink:href="#m493ca53835" x="249.554116" y="201.105059" style="fill: #ff0000; stroke: #ff0000"/>
     <use xlink:href="#m493ca53835" x="250.425089" y="194.551302" style="fill: #ff0000; stroke: #ff0000"/>
     <use xlink:href="#m493ca53835" x="250.565391" y="188.010718" style="fill: #ff0000; stroke: #ff0000"/>
    </g>
   </g>
   <g id="matplotlib.axis_1">
    <g id="xtick_1">
     <g id="line2d_1">
      <defs>
       <path id="ma4e4d767f3" d="M 0 0 
L 0 3.5 
" style="stroke: #000000; stroke-width: 0.8"/>
      </defs>
      <g>
       <use xlink:href="#ma4e4d767f3" x="45" y="320.4" style="stroke: #000000; stroke-width: 0.8"/>
      </g>
     </g>
     <g id="text_1">
      <!-- −3 -->
      <g transform="translate(37.628906 334.998438)scale(0.1 -0.1)">
       <defs>
        <path id="DejaVuSans-2212" d="M 678 2272 
L 4684 2272 
L 4684 1741 
L 678 1741 
L 678 2272 
z
" transform="scale(0.015625)"/>
        <path id="DejaVuSans-33" d="M 2597 2516 
Q 3050 2419 3304 2112 
Q 3559 1806 3559 1356 
Q 3559 666 3084 287 
Q 2609 -91 1734 -91 
Q 1441 -91 1130 -33 
Q 819 25 488 141 
L 488 750 
Q 750 597 1062 519 
Q 1375 441 1716 441 
Q 2309 441 2620 675 
Q 2931 909 2931 1356 
Q 2931 1769 2642 2001 
Q 2353 2234 1838 2234 
L 1294 2234 
L 1294 2753 
L 1863 2753 
Q 2328 2753 2575 2939 
Q 2822 3125 2822 3475 
Q 2822 3834 2567 4026 
Q 2313 4219 1838 4219 
Q 1578 4219 1281 4162 
Q 984 4106 628 3988 
L 628 4550 
Q 988 4650 1302 4700 
Q 1616 4750 1894 4750 
Q 2613 4750 3031 4423 
Q 3450 4097 3450 3541 
Q 3450 3153 3228 2886 
Q 3006 2619 2597 2516 
z
" transform="scale(0.015625)"/>
       </defs>
       <use xlink:href="#DejaVuSans-2212"/>
       <use xlink:href="#DejaVuSans-33" x="83.789062"/>
      </g>
     </g>
    </g>
    <g id="xtick_2">
     <g id="line2d_2">
      <g>
       <use xlink:href="#ma4e4d767f3" x="91.577629" y="320.4" style="stroke: #000000; stroke-width: 0.8"/>
      </g>
     </g>
     <g id="text_2">
      <!-- −2 -->
      <g transform="translate(84.206536 334.998438)scale(0.1 -0.1)">
       <defs>
        <path id="DejaVuSans-32" d="M 1228 531 
L 3431 531 
L 3431 0 
L 469 0 
L 469 531 
Q 828 903 1448 1529 
Q 2069 2156 2228 2338 
Q 2531 2678 2651 2914 
Q 2772 3150 2772 3378 
Q 2772 3750 2511 3984 
Q 2250 4219 1831 4219 
Q 1534 4219 1204 4116 
Q 875 4013 500 3803 
L 500 4441 
Q 881 4594 1212 4672 
Q 1544 4750 1819 4750 
Q 2544 4750 2975 4387 
Q 3406 4025 3406 3419 
Q 3406 3131 3298 2873 
Q 3191 2616 2906 2266 
Q 2828 2175 2409 1742 
Q 1991 1309 1228 531 
z
" transform="scale(0.015625)"/>
       </defs>
       <use xlink:href="#DejaVuSans-2212"/>
       <use xlink:href="#DejaVuSans-32" x="83.789062"/>
      </g>
     </g>
    </g>
    <g id="xtick_3">
     <g id="line2d_3">
      <g>
       <use xlink:href="#ma4e4d767f3" x="138.155259" y="320.4" style="stroke: #000000; stroke-width: 0.8"/>
      </g>
     </g>
     <g id="text_3">
      <!-- −1 -->
      <g transform="translate(130.784165 334.998438)scale(0.1 -0.1)">
       <defs>
        <path id="DejaVuSans-31" d="M 794 531 
L 1825 531 
L 1825 4091 
L 703 3866 
L 703 4441 
L 1819 4666 
L 2450 4666 
L 2450 531 
L 3481 531 
L 3481 0 
L 794 0 
L 794 531 
z
" transform="scale(0.015625)"/>
       </defs>
       <use xlink:href="#DejaVuSans-2212"/>
       <use xlink:href="#DejaVuSans-31" x="83.789062"/>
      </g>
     </g>
    </g>
    <g id="xtick_4">
     <g id="line2d_4">
      <g>
       <use xlink:href="#ma4e4d767f3" x="184.732888" y="320.4" style="stroke: #000000; stroke-width: 0.8"/>
      </g>
     </g>
     <g id="text_4">
      <!-- 0 -->
      <g transform="translate(181.551638 334.998438)scale(0.1 -0.1)">
       <defs>
        <path id="DejaVuSans-30" d="M 2034 4250 
Q 1547 4250 1301 3770 
Q 1056 3291 1056 2328 
Q 1056 1369 1301 889 
Q 1547 409 2034 409 
Q 2525 409 2770 889 
Q 3016 1369 3016 2328 
Q 3016 3291 2770 3770 
Q 2525 4250 2034 4250 
z
M 2034 4750 
Q 2819 4750 3233 4129 
Q 3647 3509 3647 2328 
Q 3647 1150 3233 529 
Q 2819 -91 2034 -91 
Q 1250 -91 836 529 
Q 422 1150 422 2328 
Q 422 3509 836 4129 
Q 1250 4750 2034 4750 
z
" transform="scale(0.015625)"/>
       </defs>
       <use xlink:href="#DejaVuSans-30"/>
      </g>
     </g>
    </g>
    <g id="xtick_5">
     <g id="line2d_5">
      <g>
       <use xlink:href="#ma4e4d767f3" x="231.310518" y="320.4" style="stroke: #000000; stroke-width: 0.8"/>
      </g>
     </g>
     <g id="text_5">
      <!-- 1 -->
      <g transform="translate(228.129268 334.998438)scale(0.1 -0.1)">
       <use xlink:href="#DejaVuSans-31"/>
      </g>
     </g>
    </g>
    <g id="xtick_6">
     <g id="line2d_6">
      <g>
       <use xlink:href="#ma4e4d767f3" x="277.888147" y="320.4" style="stroke: #000000; stroke-width: 0.8"/>
      </g>
     </g>
     <g id="text_6">
      <!-- 2 -->
      <g transform="translate(274.706897 334.998438)scale(0.1 -0.1)">
       <use xlink:href="#DejaVuSans-32"/>
      </g>
     </g>
    </g>
   </g>
   <g id="matplotlib.axis_2">
    <g id="ytick_1">
     <g id="line2d_7">
      <defs>
       <path id="md8b7fd39bc" d="M 0 0 
L -3.5 0 
" style="stroke: #000000; stroke-width: 0.8"/>
      </defs>
      <g>
       <use xlink:href="#md8b7fd39bc" x="45" y="320.4" style="stroke: #000000; stroke-width: 0.8"/>
      </g>
     </g>
     <g id="text_7">
      <!-- −3 -->
      <g transform="translate(23.257812 324.199219)scale(0.1 -0.1)">
       <use xlink:href="#DejaVuSans-2212"/>
       <use xlink:href="#DejaVuSans-33" x="83.789062"/>
      </g>
     </g>
    </g>
    <g id="ytick_2">
     <g id="line2d_8">
      <g>
       <use xlink:href="#md8b7fd39bc" x="45" y="274.122871" style="stroke: #000000; stroke-width: 0.8"/>
      </g>
     </g>
     <g id="text_8">
      <!-- −2 -->
      <g transform="translate(23.257812 277.92209)scale(0.1 -0.1)">
       <use xlink:href="#DejaVuSans-2212"/>
       <use xlink:href="#DejaVuSans-32" x="83.789062"/>
      </g>
     </g>
    </g>
    <g id="ytick_3">
     <g id="line2d_9">
      <g>
       <use xlink:href="#md8b7fd39bc" x="45" y="227.845743" style="stroke: #000000; stroke-width: 0.8"/>
      </g>
     </g>
     <g id="text_9">
      <!-- −1 -->
      <g transform="translate(23.257812 231.644962)scale(0.1 -0.1)">
       <use xlink:href="#DejaVuSans-2212"/>
       <use xlink:href="#DejaVuSans-31" x="83.789062"/>
      </g>
     </g>
    </g>
    <g id="ytick_4">
     <g id="line2d_10">
      <g>
       <use xlink:href="#md8b7fd39bc" x="45" y="181.568614" style="stroke: #000000; stroke-width: 0.8"/>
      </g>
     </g>
     <g id="text_10">
      <!-- 0 -->
      <g transform="translate(31.6375 185.367833)scale(0.1 -0.1)">
       <use xlink:href="#DejaVuSans-30"/>
      </g>
     </g>
    </g>
    <g id="ytick_5">
     <g id="line2d_11">
      <g>
       <use xlink:href="#md8b7fd39bc" x="45" y="135.291486" style="stroke: #000000; stroke-width: 0.8"/>
      </g>
     </g>
     <g id="text_11">
      <!-- 1 -->
      <g transform="translate(31.6375 139.090705)scale(0.1 -0.1)">
       <use xlink:href="#DejaVuSans-31"/>
      </g>
     </g>
    </g>
    <g id="ytick_6">
     <g id="line2d_12">
      <g>
       <use xlink:href="#md8b7fd39bc" x="45" y="89.014357" style="stroke: #000000; stroke-width: 0.8"/>
      </g>
     </g>
     <g id="text_12">
      <!-- 2 -->
      <g transform="translate(31.6375 92.813576)scale(0.1 -0.1)">
       <use xlink:href="#DejaVuSans-32"/>
      </g>
     </g>
    </g>
   </g>
   <g id="PathCollection_2">
    <path d="M 187.06177 220.969304 
L 185.198664 220.214633 
L 178.677796 217.882044 
L 173.088481 214.048294 
L 169.828047 209.771535 
L 167.73966 206.558264 
L 167.416327 205.632721 
L 165.861838 202.856093 
L 162.586949 195.914524 
L 157.485031 186.659098 
L 155.019805 181.568614 
L 154.580341 178.791987 
L 154.457429 177.800059 
L 154.73003 176.015359 
L 158.07869 168.611018 
L 158.510813 167.222705 
L 159.296226 163.520534 
L 161.990506 158.892821 
L 162.841402 158.408172 
L 164.238731 158.014868 
L 165.63606 157.728332 
L 169.36227 157.612524 
L 174.020033 157.533927 
L 178.677796 159.144828 
L 180.075125 159.21746 
L 181.93823 158.873403 
L 187.06177 158.052625 
L 189.503804 157.967279 
L 190.78798 158.506871 
L 197.774624 161.515239 
L 199.171953 161.993135 
L 205.692821 162.170803 
L 210.350584 162.882633 
L 213.014805 163.520534 
L 216.871452 165.080234 
L 217.441316 165.834391 
L 218.352835 167.222705 
L 219.672558 168.611018 
L 220.597663 169.540589 
L 222.141208 170.924875 
L 223.569077 173.238731 
L 225.326096 178.329215 
L 226.209143 181.105843 
L 226.391262 184.345242 
L 226.354928 185.270785 
L 227.118531 189.086932 
L 227.621964 190.82404 
L 227.690581 191.749583 
L 227.405266 196.840067 
L 227.422646 197.302838 
L 227.032034 198.691152 
L 225.721202 200.307796 
L 221.529215 205.456236 
L 220.131886 207.547234 
L 217.803005 208.498495 
L 211.747913 211.880233 
L 210.350584 212.82972 
L 207.274809 213.962604 
L 205.540168 214.888147 
L 202.432387 217.203616 
L 201.500835 217.504657 
L 199.171953 218.004144 
L 197.774624 218.176571 
L 196.843072 218.169495 
L 194.39048 219.053088 
L 191.253756 220.099077 
L 187.993322 221.17305 
L 187.527546 221.185899 
L 187.06177 220.969304 
L 187.06177 220.969304 
" clip-path="url(#pb689eb871c)" style="fill: none; stroke-dasharray: 5.55,2.4; stroke-dashoffset: 0; stroke: #000000; stroke-width: 1.5"/>
   </g>
   <g id="PathCollection_3">
    <path d="M 184.732888 245.432093 
L 183.335559 245.374367 
L 182.869783 245.123628 
L 181.416813 244.96828 
L 181.006678 244.624489 
L 180.074447 244.505509 
L 179.609349 244.078653 
L 179.039479 244.042738 
L 178.21202 243.600931 
L 177.730529 243.579967 
L 177.280467 243.187116 
L 176.346627 243.117195 
L 175.883139 242.690658 
L 175.324318 242.654424 
L 174.951586 242.394468 
L 174.48581 242.2132 
L 174.002559 242.191653 
L 173.554257 241.797553 
L 172.618916 241.728881 
L 172.156928 241.302645 
L 171.605633 241.26611 
L 171.225376 240.983729 
L 170.759599 240.821855 
L 170.290345 240.803339 
L 169.36227 239.953865 
L 168.892429 239.877796 
L 167.499165 238.655315 
L 167.024935 238.489482 
L 165.63606 237.217555 
L 165.165513 237.101169 
L 163.772955 235.771659 
L 163.307179 235.587539 
L 162.345531 234.787312 
L 161.444073 233.990678 
L 160.969584 233.86177 
L 159.580968 232.547369 
L 159.115192 232.428139 
L 157.705695 231.085142 
L 154.457429 227.784936 
L 153.776232 226.9202 
L 153.014369 225.994658 
L 152.582819 225.531886 
L 152.443785 225.069115 
L 151.65714 224.143573 
L 151.607747 223.680801 
L 151.184051 223.21803 
L 150.981955 222.755259 
L 150.255611 221.829716 
L 150.171867 221.366945 
L 149.326358 220.441402 
L 149.271644 219.978631 
L 148.845648 219.51586 
L 148.647551 219.053088 
L 147.451914 217.664775 
L 147.266809 217.202003 
L 146.050559 215.813689 
L 145.521222 214.888147 
L 144.64895 213.962604 
L 143.692375 212.57429 
L 142.813022 211.596081 
L 142.696039 211.185977 
L 142.306576 210.723205 
L 141.388895 209.334891 
L 141.282932 208.87212 
L 140.48414 207.942417 
L 140.415571 207.483806 
L 139.992477 207.021035 
L 139.866559 206.558264 
L 139.073908 205.632721 
L 139.014559 205.16995 
L 138.596179 204.707179 
L 138.447858 204.244407 
L 137.674664 203.318865 
L 137.612383 202.856093 
L 137.200025 202.393322 
L 137.018934 201.930551 
L 136.27887 201.005008 
L 136.224522 200.542237 
L 135.813698 200.079466 
L 135.767466 199.616694 
L 135.351823 199.153923 
L 135.31034 198.691152 
L 134.889295 198.228381 
L 134.771765 196.840067 
L 134.427278 196.377295 
L 134.366879 194.063439 
L 133.958747 192.675125 
L 133.88775 190.82404 
L 133.589178 190.361269 
L 133.494539 189.435726 
L 133.384195 187.584641 
L 133.160879 187.12187 
L 133.025856 185.270785 
L 132.90806 184.345242 
L 131.984303 178.791987 
L 131.661615 176.940902 
L 132.815921 169.07379 
L 133.404464 166.297162 
L 133.963272 165.575298 
L 135.478718 163.983306 
L 135.947202 163.057763 
L 135.989144 162.13222 
L 135.965348 159.818364 
L 136.488034 157.967279 
L 137.288594 155.653422 
L 138.084554 152.876795 
L 138.347624 151.951252 
L 139.086811 150.50839 
L 145.052494 141.770284 
L 146.073456 140.735903 
L 148.402337 139.148713 
L 149.33389 138.525536 
L 151.662771 137.604131 
L 153.152551 137.142571 
L 154.457429 136.679336 
L 156.320534 136.057733 
L 159.755017 134.828715 
L 160.046745 134.810731 
L 161.444073 134.361906 
L 162.375626 134.08964 
L 164.502215 133.440401 
L 165.170284 133.340949 
L 166.116648 132.977629 
L 167.033389 132.979291 
L 171.691152 133.86912 
L 174.020033 134.06211 
L 184.267112 135.245224 
L 186.595993 135.336215 
L 187.993322 135.231112 
L 192.185309 135.337204 
L 203.367601 137.605342 
L 206.624374 138.715268 
L 209.419032 139.337253 
L 212.679466 139.667923 
L 213.744107 139.919199 
L 221.529215 142.876044 
L 229.913189 146.894352 
L 234.570952 149.365731 
L 237.899558 151.951252 
L 239.696721 154.72788 
L 240.665938 156.116194 
L 241.634466 157.504508 
L 246.215359 164.934783 
L 246.851138 166.297162 
L 247.612688 167.777854 
L 248.228651 169.536561 
L 249.638521 174.164274 
L 249.801934 176.47813 
L 250.366748 178.791987 
L 250.776815 180.180301 
L 250.980487 181.105843 
L 251.213334 182.494157 
L 250.302558 191.749583 
L 250.221669 192.212354 
L 250.45034 195.451753 
L 249.604578 198.691152 
L 247.468038 207.021035 
L 246.524833 209.334891 
L 241.675389 217.664775 
L 241.249499 218.127546 
L 240.558944 218.590317 
L 237.941022 220.904174 
L 226.652755 229.051977 
L 218.734558 235.470151 
L 217.803005 235.881612 
L 208.953255 238.281513 
L 207.09015 238.762195 
L 203.829716 239.759476 
L 198.706177 242.356521 
L 191.502941 244.042738 
L 190.78798 244.137763 
L 189.390651 244.506861 
L 188.459098 244.541722 
L 187.993322 244.777751 
L 187.06177 244.970145 
L 185.664441 245.062759 
L 185.198664 245.372153 
L 184.732888 245.432093 
L 184.732888 245.432093 
" clip-path="url(#pb689eb871c)" style="fill: none; stroke: #000000; stroke-width: 1.5"/>
   </g>
   <g id="PathCollection_4">
    <path d="M 179.609349 267.254205 
L 167.033389 263.57813 
L 160.190623 260.239733 
L 156.786311 258.216496 
L 153.525876 256.056844 
L 148.402337 252.344862 
L 140.48414 246.067356 
L 133.300896 238.026711 
L 132.236644 236.638397 
L 128.839733 231.328075 
L 121.387312 221.334583 
L 116.663822 213.962604 
L 115.741689 212.111519 
L 111.801845 199.153923 
L 110.017803 189.898497 
L 109.182543 185.733556 
L 108.710439 183.419699 
L 109.966838 167.685476 
L 111.140234 163.854952 
L 111.586092 162.13222 
L 111.544024 160.281135 
L 111.553398 158.892821 
L 111.90456 157.041736 
L 112.301308 155.653422 
L 112.537563 151.425474 
L 113.54637 149.174624 
L 115.33222 145.538204 
L 117.720664 140.844741 
L 122.318865 133.742832 
L 124.203666 130.663773 
L 126.510851 127.66624 
L 127.166663 126.961603 
L 129.305509 125.219573 
L 134.894825 120.887569 
L 140.878021 117.706177 
L 149.799666 114.162557 
L 154.457429 112.989582 
L 160.512521 111.584585 
L 166.567613 111.765815 
L 170.293823 111.420773 
L 186.595993 112.037998 
L 193.116861 112.922672 
L 194.51419 113.287473 
L 200.103506 113.937975 
L 204.295492 114.242097 
L 210.350584 114.582945 
L 214.542571 115.665602 
L 219.66611 117.861444 
L 226.186978 119.392254 
L 232.24207 121.915896 
L 236.434057 124.098175 
L 245.283806 128.884676 
L 246.367368 129.73823 
L 257.444051 139.456427 
L 257.867215 139.919199 
L 259.90169 143.621369 
L 264.031453 150.562938 
L 269.96995 161.929689 
L 270.914185 163.983306 
L 274.161937 171.869428 
L 274.531681 173.238731 
L 274.873433 175.552588 
L 275.239613 176.940902 
L 275.523407 179.254758 
L 275.940225 182.031386 
L 275.291026 189.898497 
L 273.723707 196.377295 
L 273.753445 198.228381 
L 272.360044 203.781636 
L 269.697793 214.425376 
L 268.106845 219.990195 
L 267.175292 221.623573 
L 262.726349 228.771285 
L 261.45703 230.159599 
L 259.722871 231.682924 
L 243.886477 247.524489 
L 237.831386 251.944915 
L 223.858097 257.331406 
L 221.994992 258.110221 
L 218.734558 259.119156 
L 214.542571 260.849893 
L 205.692821 264.026278 
L 190.322204 266.523748 
L 184.267112 267.566401 
L 180.075125 267.386938 
L 179.609349 267.254205 
L 179.609349 267.254205 
" clip-path="url(#pb689eb871c)" style="fill: none; stroke: #000000; stroke-width: 1.5"/>
   </g>
   <g id="patch_3">
    <path d="M 45 320.4 
L 45 43.2 
" style="fill: none; stroke: #000000; stroke-width: 0.8; stroke-linejoin: miter; stroke-linecap: square"/>
   </g>
   <g id="patch_4">
    <path d="M 324 320.4 
L 324 43.2 
" style="fill: none; stroke: #000000; stroke-width: 0.8; stroke-linejoin: miter; stroke-linecap: square"/>
   </g>
   <g id="patch_5">
    <path d="M 45 320.4 
L 324 320.4 
" style="fill: none; stroke: #000000; stroke-width: 0.8; stroke-linejoin: miter; stroke-linecap: square"/>
   </g>
   <g id="patch_6">
    <path d="M 45 43.2 
L 324 43.2 
" style="fill: none; stroke: #000000; stroke-width: 0.8; stroke-linejoin: miter; stroke-linecap: square"/>
   </g>
  </g>
 </g>
 <defs>
  <clipPath id="pb689eb871c">
   <rect x="45" y="43.2" width="279" height="277.2"/>
  </clipPath>
 </defs>
</svg>
