<?xml version="1.0" encoding="utf-8" standalone="no"?>
<!DOCTYPE svg PUBLIC "-//W3C//DTD SVG 1.1//EN"
  "http://www.w3.org/Graphics/SVG/1.1/DTD/svg11.dtd">
<svg xmlns:xlink="http://www.w3.org/1999/xlink" width="360pt" height="360pt" viewBox="0 0 360 360" xmlns="http://www.w3.org/2000/svg" version="1.1">
 <metadata>
  <rdf:RDF xmlns:dc="http://purl.org/dc/elements/1.1/" xmlns:cc="http://creativecommons.org/ns#" xmlns:rdf="http://www.w3.org/1999/02/22-rdf-syntax-ns#">
   <cc:Work>
    <dc:type rdf:resource="http://purl.org/dc/dcmitype/StillImage"/>
    <dc:date>2022-04-10T19:53:34.005776</dc:date>
    <dc:format>image/svg+xml</dc:format>
    <dc:creator>
     <cc:Agent>
      <dc:title>Matplotlib v3.5.1, https://matplotlib.org/</dc:title>
     </cc:Agent>
    </dc:creator>
   </cc:Work>
  </rdf:RDF>
 </metadata>
 <defs>
  <style type="text/css">*{stroke-linejoin: round; stroke-linecap: butt}</style>
 </defs>
 <g id="figure_1">
  <g id="patch_1">
   <path d="M 0 360 
L 360 360 
L 360 0 
L 0 0 
z
" style="fill: #ffffff"/>
  </g>
  <g id="axes_1">
   <g id="patch_2">
    <path d="M 45 320.4 
L 324 320.4 
L 324 43.2 
L 45 43.2 
z
" style="fill: #ffffff"/>
   </g>
   <g id="PathCollection_1">
    <defs>
     <path id="mc27f80cb64" d="M 0 0.5 
C 0.132602 0.5 0.25979 0.447317 0.353553 0.353553 
C 0.447317 0.25979 0.5 0.132602 0.5 0 
C 0.5 -0.132602 0.447317 -0.25979 0.353553 -0.353553 
C 0.25979 -0.447317 0.132602 -0.5 0 -0.5 
C -0.132602 -0.5 -0.25979 -0.447317 -0.353553 -0.353553 
C -0.447317 -0.25979 -0.5 -0.132602 -0.5 0 
C -0.5 0.132602 -0.447317 0.25979 -0.353553 0.353553 
C -0.25979 0.447317 -0.132602 0.5 0 0.5 
z
" style="stroke: #ff0000"/>
    </defs>
    <g clip-path="url(#p8074b49c3a)">
     <use xlink:href="#mc27f80cb64" x="231.537304" y="181.336455" style="fill: #ff0000; stroke: #ff0000"/>
     <use xlink:href="#mc27f80cb64" x="232.443435" y="176.690559" style="fill: #ff0000; stroke: #ff0000"/>
     <use xlink:href="#mc27f80cb64" x="232.848229" y="171.873645" style="fill: #ff0000; stroke: #ff0000"/>
     <use xlink:href="#mc27f80cb64" x="232.484606" y="167.015008" style="fill: #ff0000; stroke: #ff0000"/>
     <use xlink:href="#mc27f80cb64" x="231.166893" y="162.323112" style="fill: #ff0000; stroke: #ff0000"/>
     <use xlink:href="#mc27f80cb64" x="228.840178" y="158.036811" style="fill: #ff0000; stroke: #ff0000"/>
     <use xlink:href="#mc27f80cb64" x="225.580732" y="154.37401" style="fill: #ff0000; stroke: #ff0000"/>
     <use xlink:href="#mc27f80cb64" x="221.561466" y="151.497547" style="fill: #ff0000; stroke: #ff0000"/>
     <use xlink:href="#mc27f80cb64" x="217.010643" y="149.499103" style="fill: #ff0000; stroke: #ff0000"/>
     <use xlink:href="#mc27f80cb64" x="212.18167" y="148.388688" style="fill: #ff0000; stroke: #ff0000"/>
     <use xlink:href="#mc27f80cb64" x="207.330552" y="148.082305" style="fill: #ff0000; stroke: #ff0000"/>
     <use xlink:href="#mc27f80cb64" x="202.687438" y="148.396907" style="fill: #ff0000; stroke: #ff0000"/>
     <use xlink:href="#mc27f80cb64" x="198.418031" y="149.071235" style="fill: #ff0000; stroke: #ff0000"/>
     <use xlink:href="#mc27f80cb64" x="194.588558" y="149.821604" style="fill: #ff0000; stroke: #ff0000"/>
     <use xlink:href="#mc27f80cb64" x="191.156499" y="150.418273" style="fill: #ff0000; stroke: #ff0000"/>
     <use xlink:href="#mc27f80cb64" x="187.998793" y="150.748253" style="fill: #ff0000; stroke: #ff0000"/>
     <use xlink:href="#mc27f80cb64" x="184.966555" y="150.831312" style="fill: #ff0000; stroke: #ff0000"/>
     <use xlink:href="#mc27f80cb64" x="181.937492" y="150.780278" style="fill: #ff0000; stroke: #ff0000"/>
     <use xlink:href="#mc27f80cb64" x="178.83897" y="150.72975" style="fill: #ff0000; stroke: #ff0000"/>
     <use xlink:href="#mc27f80cb64" x="175.635949" y="150.776014" style="fill: #ff0000; stroke: #ff0000"/>
     <use xlink:href="#mc27f80cb64" x="172.303065" y="150.961327" style="fill: #ff0000; stroke: #ff0000"/>
     <use xlink:href="#mc27f80cb64" x="168.810053" y="151.304776" style="fill: #ff0000; stroke: #ff0000"/>
     <use xlink:href="#mc27f80cb64" x="165.137495" y="151.851629" style="fill: #ff0000; stroke: #ff0000"/>
     <use xlink:href="#mc27f80cb64" x="161.315231" y="152.703163" style="fill: #ff0000; stroke: #ff0000"/>
     <use xlink:href="#mc27f80cb64" x="157.4563" y="154.003685" style="fill: #ff0000; stroke: #ff0000"/>
     <use xlink:href="#mc27f80cb64" x="153.758348" y="155.88978" style="fill: #ff0000; stroke: #ff0000"/>
     <use xlink:href="#mc27f80cb64" x="150.46286" y="158.430563" style="fill: #ff0000; stroke: #ff0000"/>
     <use xlink:href="#mc27f80cb64" x="147.788092" y="161.592361" style="fill: #ff0000; stroke: #ff0000"/>
     <use xlink:href="#mc27f80cb64" x="145.866321" y="165.245097" style="fill: #ff0000; stroke: #ff0000"/>
     <use xlink:href="#mc27f80cb64" x="144.710929" y="169.203827" style="fill: #ff0000; stroke: #ff0000"/>
     <use xlink:href="#mc27f80cb64" x="144.220923" y="173.283934" style="fill: #ff0000; stroke: #ff0000"/>
     <use xlink:href="#mc27f80cb64" x="144.214481" y="177.348621" style="fill: #ff0000; stroke: #ff0000"/>
     <use xlink:href="#mc27f80cb64" x="144.47737" y="181.336455" style="fill: #ff0000; stroke: #ff0000"/>
     <use xlink:href="#mc27f80cb64" x="144.813891" y="185.265633" style="fill: #ff0000; stroke: #ff0000"/>
     <use xlink:href="#mc27f80cb64" x="145.091192" y="189.216985" style="fill: #ff0000; stroke: #ff0000"/>
     <use xlink:href="#mc27f80cb64" x="145.270098" y="193.300554" style="fill: #ff0000; stroke: #ff0000"/>
     <use xlink:href="#mc27f80cb64" x="145.417652" y="197.612459" style="fill: #ff0000; stroke: #ff0000"/>
     <use xlink:href="#mc27f80cb64" x="145.698039" y="202.190498" style="fill: #ff0000; stroke: #ff0000"/>
     <use xlink:href="#mc27f80cb64" x="146.339482" y="206.979725" style="fill: #ff0000; stroke: #ff0000"/>
     <use xlink:href="#mc27f80cb64" x="147.57842" y="211.822145" style="fill: #ff0000; stroke: #ff0000"/>
     <use xlink:href="#mc27f80cb64" x="149.592475" y="216.482315" style="fill: #ff0000; stroke: #ff0000"/>
     <use xlink:href="#mc27f80cb64" x="152.446253" y="220.706905" style="fill: #ff0000; stroke: #ff0000"/>
     <use xlink:href="#mc27f80cb64" x="156.075821" y="224.295539" style="fill: #ff0000; stroke: #ff0000"/>
     <use xlink:href="#mc27f80cb64" x="160.320723" y="227.148085" style="fill: #ff0000; stroke: #ff0000"/>
     <use xlink:href="#mc27f80cb64" x="164.985244" y="229.264387" style="fill: #ff0000; stroke: #ff0000"/>
     <use xlink:href="#mc27f80cb64" x="169.894514" y="230.701762" style="fill: #ff0000; stroke: #ff0000"/>
     <use xlink:href="#mc27f80cb64" x="174.919312" y="231.521482" style="fill: #ff0000; stroke: #ff0000"/>
     <use xlink:href="#mc27f80cb64" x="179.968238" y="231.757812" style="fill: #ff0000; stroke: #ff0000"/>
     <use xlink:href="#mc27f80cb64" x="184.966555" y="231.422754" style="fill: #ff0000; stroke: #ff0000"/>
     <use xlink:href="#mc27f80cb64" x="189.843578" y="230.534227" style="fill: #ff0000; stroke: #ff0000"/>
     <use xlink:href="#mc27f80cb64" x="194.537504" y="229.142437" style="fill: #ff0000; stroke: #ff0000"/>
     <use xlink:href="#mc27f80cb64" x="199.01018" y="227.333401" style="fill: #ff0000; stroke: #ff0000"/>
     <use xlink:href="#mc27f80cb64" x="203.255409" y="225.204794" style="fill: #ff0000; stroke: #ff0000"/>
     <use xlink:href="#mc27f80cb64" x="207.288202" y="222.827895" style="fill: #ff0000; stroke: #ff0000"/>
     <use xlink:href="#mc27f80cb64" x="211.116324" y="220.21986" style="fill: #ff0000; stroke: #ff0000"/>
     <use xlink:href="#mc27f80cb64" x="214.710563" y="217.345807" style="fill: #ff0000; stroke: #ff0000"/>
     <use xlink:href="#mc27f80cb64" x="217.995426" y="214.152236" style="fill: #ff0000; stroke: #ff0000"/>
     <use xlink:href="#mc27f80cb64" x="220.872368" y="210.613484" style="fill: #ff0000; stroke: #ff0000"/>
     <use xlink:href="#mc27f80cb64" x="223.268057" y="206.763589" style="fill: #ff0000; stroke: #ff0000"/>
     <use xlink:href="#mc27f80cb64" x="225.182262" y="202.693516" style="fill: #ff0000; stroke: #ff0000"/>
     <use xlink:href="#mc27f80cb64" x="226.705832" y="198.513887" style="fill: #ff0000; stroke: #ff0000"/>
     <use xlink:href="#mc27f80cb64" x="227.993095" y="194.304207" style="fill: #ff0000; stroke: #ff0000"/>
     <use xlink:href="#mc27f80cb64" x="229.197016" y="190.077679" style="fill: #ff0000; stroke: #ff0000"/>
     <use xlink:href="#mc27f80cb64" x="230.394901" y="185.78189" style="fill: #ff0000; stroke: #ff0000"/>
    </g>
   </g>
   <g id="matplotlib.axis_1">
    <g id="xtick_1">
     <g id="line2d_1">
      <defs>
       <path id="md1b5be30b1" d="M 0 0 
L 0 3.5 
" style="stroke: #000000; stroke-width: 0.8"/>
      </defs>
      <g>
       <use xlink:href="#md1b5be30b1" x="45" y="320.4" style="stroke: #000000; stroke-width: 0.8"/>
      </g>
     </g>
     <g id="text_1">
      <!-- −3 -->
      <g transform="translate(37.628906 334.998438)scale(0.1 -0.1)">
       <defs>
        <path id="DejaVuSans-2212" d="M 678 2272 
L 4684 2272 
L 4684 1741 
L 678 1741 
L 678 2272 
z
" transform="scale(0.015625)"/>
        <path id="DejaVuSans-33" d="M 2597 2516 
Q 3050 2419 3304 2112 
Q 3559 1806 3559 1356 
Q 3559 666 3084 287 
Q 2609 -91 1734 -91 
Q 1441 -91 1130 -33 
Q 819 25 488 141 
L 488 750 
Q 750 597 1062 519 
Q 1375 441 1716 441 
Q 2309 441 2620 675 
Q 2931 909 2931 1356 
Q 2931 1769 2642 2001 
Q 2353 2234 1838 2234 
L 1294 2234 
L 1294 2753 
L 1863 2753 
Q 2328 2753 2575 2939 
Q 2822 3125 2822 3475 
Q 2822 3834 2567 4026 
Q 2313 4219 1838 4219 
Q 1578 4219 1281 4162 
Q 984 4106 628 3988 
L 628 4550 
Q 988 4650 1302 4700 
Q 1616 4750 1894 4750 
Q 2613 4750 3031 4423 
Q 3450 4097 3450 3541 
Q 3450 3153 3228 2886 
Q 3006 2619 2597 2516 
z
" transform="scale(0.015625)"/>
       </defs>
       <use xlink:href="#DejaVuSans-2212"/>
       <use xlink:href="#DejaVuSans-33" x="83.789062"/>
      </g>
     </g>
    </g>
    <g id="xtick_2">
     <g id="line2d_2">
      <g>
       <use xlink:href="#md1b5be30b1" x="91.655518" y="320.4" style="stroke: #000000; stroke-width: 0.8"/>
      </g>
     </g>
     <g id="text_2">
      <!-- −2 -->
      <g transform="translate(84.284425 334.998438)scale(0.1 -0.1)">
       <defs>
        <path id="DejaVuSans-32" d="M 1228 531 
L 3431 531 
L 3431 0 
L 469 0 
L 469 531 
Q 828 903 1448 1529 
Q 2069 2156 2228 2338 
Q 2531 2678 2651 2914 
Q 2772 3150 2772 3378 
Q 2772 3750 2511 3984 
Q 2250 4219 1831 4219 
Q 1534 4219 1204 4116 
Q 875 4013 500 3803 
L 500 4441 
Q 881 4594 1212 4672 
Q 1544 4750 1819 4750 
Q 2544 4750 2975 4387 
Q 3406 4025 3406 3419 
Q 3406 3131 3298 2873 
Q 3191 2616 2906 2266 
Q 2828 2175 2409 1742 
Q 1991 1309 1228 531 
z
" transform="scale(0.015625)"/>
       </defs>
       <use xlink:href="#DejaVuSans-2212"/>
       <use xlink:href="#DejaVuSans-32" x="83.789062"/>
      </g>
     </g>
    </g>
    <g id="xtick_3">
     <g id="line2d_3">
      <g>
       <use xlink:href="#md1b5be30b1" x="138.311037" y="320.4" style="stroke: #000000; stroke-width: 0.8"/>
      </g>
     </g>
     <g id="text_3">
      <!-- −1 -->
      <g transform="translate(130.939943 334.998438)scale(0.1 -0.1)">
       <defs>
        <path id="DejaVuSans-31" d="M 794 531 
L 1825 531 
L 1825 4091 
L 703 3866 
L 703 4441 
L 1819 4666 
L 2450 4666 
L 2450 531 
L 3481 531 
L 3481 0 
L 794 0 
L 794 531 
z
" transform="scale(0.015625)"/>
       </defs>
       <use xlink:href="#DejaVuSans-2212"/>
       <use xlink:href="#DejaVuSans-31" x="83.789062"/>
      </g>
     </g>
    </g>
    <g id="xtick_4">
     <g id="line2d_4">
      <g>
       <use xlink:href="#md1b5be30b1" x="184.966555" y="320.4" style="stroke: #000000; stroke-width: 0.8"/>
      </g>
     </g>
     <g id="text_4">
      <!-- 0 -->
      <g transform="translate(181.785305 334.998438)scale(0.1 -0.1)">
       <defs>
        <path id="DejaVuSans-30" d="M 2034 4250 
Q 1547 4250 1301 3770 
Q 1056 3291 1056 2328 
Q 1056 1369 1301 889 
Q 1547 409 2034 409 
Q 2525 409 2770 889 
Q 3016 1369 3016 2328 
Q 3016 3291 2770 3770 
Q 2525 4250 2034 4250 
z
M 2034 4750 
Q 2819 4750 3233 4129 
Q 3647 3509 3647 2328 
Q 3647 1150 3233 529 
Q 2819 -91 2034 -91 
Q 1250 -91 836 529 
Q 422 1150 422 2328 
Q 422 3509 836 4129 
Q 1250 4750 2034 4750 
z
" transform="scale(0.015625)"/>
       </defs>
       <use xlink:href="#DejaVuSans-30"/>
      </g>
     </g>
    </g>
    <g id="xtick_5">
     <g id="line2d_5">
      <g>
       <use xlink:href="#md1b5be30b1" x="231.622074" y="320.4" style="stroke: #000000; stroke-width: 0.8"/>
      </g>
     </g>
     <g id="text_5">
      <!-- 1 -->
      <g transform="translate(228.440824 334.998438)scale(0.1 -0.1)">
       <use xlink:href="#DejaVuSans-31"/>
      </g>
     </g>
    </g>
    <g id="xtick_6">
     <g id="line2d_6">
      <g>
       <use xlink:href="#md1b5be30b1" x="278.277592" y="320.4" style="stroke: #000000; stroke-width: 0.8"/>
      </g>
     </g>
     <g id="text_6">
      <!-- 2 -->
      <g transform="translate(275.096342 334.998438)scale(0.1 -0.1)">
       <use xlink:href="#DejaVuSans-32"/>
      </g>
     </g>
    </g>
   </g>
   <g id="matplotlib.axis_2">
    <g id="ytick_1">
     <g id="line2d_7">
      <defs>
       <path id="mdf27d6642c" d="M 0 0 
L -3.5 0 
" style="stroke: #000000; stroke-width: 0.8"/>
      </defs>
      <g>
       <use xlink:href="#mdf27d6642c" x="45" y="320.4" style="stroke: #000000; stroke-width: 0.8"/>
      </g>
     </g>
     <g id="text_7">
      <!-- −3 -->
      <g transform="translate(23.257812 324.199219)scale(0.1 -0.1)">
       <use xlink:href="#DejaVuSans-2212"/>
       <use xlink:href="#DejaVuSans-33" x="83.789062"/>
      </g>
     </g>
    </g>
    <g id="ytick_2">
     <g id="line2d_8">
      <g>
       <use xlink:href="#mdf27d6642c" x="45" y="274.045485" style="stroke: #000000; stroke-width: 0.8"/>
      </g>
     </g>
     <g id="text_8">
      <!-- −2 -->
      <g transform="translate(23.257812 277.844704)scale(0.1 -0.1)">
       <use xlink:href="#DejaVuSans-2212"/>
       <use xlink:href="#DejaVuSans-32" x="83.789062"/>
      </g>
     </g>
    </g>
    <g id="ytick_3">
     <g id="line2d_9">
      <g>
       <use xlink:href="#mdf27d6642c" x="45" y="227.69097" style="stroke: #000000; stroke-width: 0.8"/>
      </g>
     </g>
     <g id="text_9">
      <!-- −1 -->
      <g transform="translate(23.257812 231.490189)scale(0.1 -0.1)">
       <use xlink:href="#DejaVuSans-2212"/>
       <use xlink:href="#DejaVuSans-31" x="83.789062"/>
      </g>
     </g>
    </g>
    <g id="ytick_4">
     <g id="line2d_10">
      <g>
       <use xlink:href="#mdf27d6642c" x="45" y="181.336455" style="stroke: #000000; stroke-width: 0.8"/>
      </g>
     </g>
     <g id="text_10">
      <!-- 0 -->
      <g transform="translate(31.6375 185.135674)scale(0.1 -0.1)">
       <use xlink:href="#DejaVuSans-30"/>
      </g>
     </g>
    </g>
    <g id="ytick_5">
     <g id="line2d_11">
      <g>
       <use xlink:href="#mdf27d6642c" x="45" y="134.98194" style="stroke: #000000; stroke-width: 0.8"/>
      </g>
     </g>
     <g id="text_11">
      <!-- 1 -->
      <g transform="translate(31.6375 138.781159)scale(0.1 -0.1)">
       <use xlink:href="#DejaVuSans-31"/>
      </g>
     </g>
    </g>
    <g id="ytick_6">
     <g id="line2d_12">
      <g>
       <use xlink:href="#mdf27d6642c" x="45" y="88.627425" style="stroke: #000000; stroke-width: 0.8"/>
      </g>
     </g>
     <g id="text_12">
      <!-- 2 -->
      <g transform="translate(31.6375 92.426643)scale(0.1 -0.1)">
       <use xlink:href="#DejaVuSans-32"/>
      </g>
     </g>
    </g>
   </g>
   <g id="PathCollection_2">
    <path d="M 179.367893 210.330483 
L 178.434783 209.992704 
L 175.270515 208.222074 
L 173.769231 207.179011 
L 172.301998 205.440803 
L 171.630681 204.513712 
L 170.331593 202.659532 
L 170.098964 201.732441 
L 169.87093 198.02408 
L 169.226225 195.242809 
L 169.061733 194.315719 
L 168.420413 192.461538 
L 168.170569 189.655982 
L 166.993289 183.190635 
L 166.632525 181.336455 
L 166.844716 177.628094 
L 166.980531 176.701003 
L 167.412725 175.773913 
L 168.201191 174.846823 
L 169.324096 173.919732 
L 170.036789 173.489658 
L 171.192347 172.992642 
L 171.90301 172.77428 
L 172.83612 172.63472 
L 176.568562 172.677748 
L 179.367893 173.388299 
L 181.234114 174.026498 
L 184.033445 175.148178 
L 185.899666 175.590623 
L 187.765886 175.317839 
L 190.565217 174.672402 
L 192.431438 173.815933 
L 196.16388 172.472124 
L 198.0301 171.931281 
L 199.896321 171.812797 
L 207.361204 171.446426 
L 207.952103 172.065552 
L 209.227425 174.209177 
L 209.494675 174.846823 
L 209.593691 175.773913 
L 209.227425 177.894863 
L 208.717024 179.482274 
L 208.319739 182.263545 
L 208.016253 184.117726 
L 206.428094 186.156463 
L 201.762542 193.500336 
L 200.654848 196.1699 
L 199.881304 197.09699 
L 195.847436 200.805351 
L 192.431438 203.967043 
L 191.498328 204.55056 
L 187.765886 206.519259 
L 186.688178 207.294983 
L 184.966555 208.751566 
L 183.100334 209.574691 
L 181.234114 210.157396 
L 179.367893 210.330483 
L 179.367893 210.330483 
" clip-path="url(#p8074b49c3a)" style="fill: none; stroke-dasharray: 5.55,2.4; stroke-dashoffset: 0; stroke: #000000; stroke-width: 1.5"/>
   </g>
   <g id="PathCollection_3">
    <path d="M 174.702341 233.266175 
L 173.769231 233.174339 
L 171.90301 232.689052 
L 163.505017 229.22 
L 161.638796 228.151634 
L 159.772575 226.610443 
L 157.906355 225.552584 
L 154.173913 222.298289 
L 154.023157 222.128428 
L 152.307692 219.798144 
L 151.951126 219.347157 
L 149.03233 214.711706 
L 147.874961 211.003344 
L 146.335219 206.367893 
L 145.662545 203.586622 
L 145.311981 200.805351 
L 145.348715 198.02408 
L 145.294576 197.09699 
L 144.842809 194.999577 
L 144.365048 193.388629 
L 144.185 191.534448 
L 143.185598 180.409365 
L 142.878367 178.555184 
L 142.486296 176.701003 
L 142.976589 175.021418 
L 143.057393 174.846823 
L 143.943448 172.065552 
L 145.039676 169.284281 
L 146.227184 164.648829 
L 147.839509 161.867559 
L 149.508361 159.79203 
L 151.876531 157.232107 
L 153.240803 155.67922 
L 155.107023 154.30408 
L 157.906355 153.189796 
L 160.807296 152.596656 
L 163.505017 152.096807 
L 165.743453 151.669565 
L 167.237458 151.27976 
L 170.9699 151.444781 
L 173.618162 151.669565 
L 174.702341 151.729892 
L 178.434783 151.776985 
L 180.301003 151.930724 
L 182.167224 151.879225 
L 186.832776 150.882023 
L 187.765886 150.501844 
L 190.565217 149.573354 
L 193.364548 148.751714 
L 198.963211 148.299964 
L 201.762542 148.158 
L 204.561873 147.713678 
L 205.494983 147.676462 
L 213.892977 149.718231 
L 215.759197 150.014549 
L 216.692308 150.11164 
L 219.491639 151.062448 
L 221.35786 151.816625 
L 223.755596 152.596656 
L 224.157191 152.807388 
L 225.134352 153.523746 
L 230.404691 159.086288 
L 230.889013 160.013378 
L 232.555184 164.776513 
L 233.041965 167.4301 
L 233.189099 168.357191 
L 233.091424 172.065552 
L 232.9631 175.773913 
L 232.836956 176.701003 
L 232.32945 178.555184 
L 231.760875 181.336455 
L 231.080106 189.680268 
L 230.24345 191.534448 
L 229.327459 193.388629 
L 227.742748 197.09699 
L 226.956522 199.559318 
L 226.365401 200.805351 
L 221.35786 209.203032 
L 219.297356 211.930435 
L 216.390518 215.638796 
L 211.093645 220.11436 
L 208.560174 222.128428 
L 206.377823 223.982609 
L 205.300677 224.909699 
L 204.561873 225.390555 
L 202.695652 226.060061 
L 198.0301 227.920113 
L 194.297659 229.695841 
L 191.156104 231.399331 
L 189.632107 231.823437 
L 185.899666 232.744708 
L 178.434783 233.695622 
L 176.568562 233.581088 
L 174.702341 233.266175 
L 174.702341 233.266175 
" clip-path="url(#p8074b49c3a)" style="fill: none; stroke: #000000; stroke-width: 1.5"/>
   </g>
   <g id="PathCollection_4">
    <path d="M 172.83612 255.620501 
L 172.185075 255.503679 
L 171.90301 255.453066 
L 170.9699 255.284768 
L 170.036789 255.110568 
L 169.103679 254.935043 
L 168.170569 254.759151 
L 167.237458 254.588535 
L 167.168583 254.576589 
L 166.304348 254.426688 
L 165.371237 254.264819 
L 164.438127 254.051184 
L 163.505017 253.743269 
L 163.220858 253.649498 
L 162.571906 253.43535 
L 161.638796 253.123903 
L 160.705686 252.791104 
L 160.555645 252.722408 
L 159.772575 252.367399 
L 158.839465 251.944182 
L 158.511351 251.795318 
L 157.906355 251.520829 
L 156.973244 251.097478 
L 156.467976 250.868227 
L 156.040134 250.674102 
L 155.107023 250.250747 
L 154.424633 249.941137 
L 154.173913 249.827382 
L 153.240803 249.404029 
L 152.381271 249.014047 
L 152.307692 248.980663 
L 151.374582 248.557308 
L 150.521116 248.086957 
L 150.441472 248.039355 
L 149.508361 247.428066 
L 149.013479 247.159866 
L 148.575251 246.944778 
L 147.64214 246.534196 
L 147.053113 246.232776 
L 146.70903 246.05015 
L 145.77592 245.502207 
L 145.460657 245.305686 
L 144.842809 244.920552 
L 143.973384 244.378595 
L 143.909699 244.338897 
L 142.976589 243.738465 
L 142.617279 243.451505 
L 142.043478 242.946754 
L 141.563364 242.524415 
L 141.110368 242.125938 
L 140.509431 241.597324 
L 140.177258 241.300304 
L 139.487403 240.670234 
L 139.244147 240.44404 
L 138.495689 239.743144 
L 138.311037 239.567921 
L 137.522715 238.816054 
L 137.377926 238.678974 
L 136.556643 237.888963 
L 136.444816 237.783009 
L 135.591615 236.961873 
L 135.511706 236.885429 
L 134.627986 236.034783 
L 134.578595 235.968002 
L 134.063357 235.107692 
L 133.645485 234.370916 
L 133.539203 234.180602 
L 133.026414 233.253512 
L 132.712375 232.621274 
L 132.568702 232.326421 
L 132.117006 231.399331 
L 131.779264 230.707535 
L 131.664393 230.472241 
L 131.211791 229.545151 
L 130.846154 228.868889 
L 130.705952 228.61806 
L 130.128085 227.69097 
L 129.913043 227.345968 
L 129.550225 226.76388 
L 128.979933 225.839269 
L 128.978386 225.836789 
L 128.377987 224.909699 
L 128.046823 224.412678 
L 127.793974 223.982609 
L 127.463833 223.055518 
L 127.133699 222.128428 
L 127.113712 222.072301 
L 126.803566 221.201338 
L 126.473438 220.274247 
L 126.180602 219.451924 
L 126.142939 219.347157 
L 125.815726 218.420067 
L 125.540862 217.492977 
L 125.265243 216.565886 
L 125.247492 216.506425 
L 124.986117 215.638796 
L 124.692361 214.711706 
L 124.367139 213.784615 
L 124.314381 213.634283 
L 124.04179 212.857525 
L 123.716441 211.930435 
L 123.509973 211.003344 
L 123.381271 210.240288 
L 123.353603 210.076254 
L 123.194432 209.149164 
L 123.018288 208.222074 
L 122.844978 207.294983 
L 122.671682 206.367893 
L 122.531451 205.440803 
L 122.448161 204.821008 
L 122.406865 204.513712 
L 122.227366 203.586622 
L 122.053755 202.659532 
L 122.054216 201.732441 
L 122.06169 200.805351 
L 122.06843 199.878261 
L 121.922782 198.951171 
L 121.74314 198.02408 
L 121.586729 197.09699 
L 121.51505 196.624165 
L 121.444551 196.1699 
L 121.282464 195.242809 
L 121.120484 194.315719 
L 120.958498 193.388629 
L 120.895115 192.461538 
L 120.906881 191.534448 
L 120.918644 190.607358 
L 120.930402 189.680268 
L 120.964979 188.753177 
L 121.016123 187.826087 
L 120.987714 186.898997 
L 120.741714 185.971906 
L 120.599942 185.044816 
L 120.58194 184.917211 
L 120.469705 184.117726 
L 120.36049 183.190635 
L 120.30392 182.263545 
L 120.274387 181.336455 
L 120.328185 180.409365 
L 120.32692 179.482274 
L 120.305799 178.555184 
L 120.285534 177.628094 
L 120.265282 176.701003 
L 120.245024 175.773913 
L 120.224761 174.846823 
L 120.204741 173.919732 
L 120.184731 172.992642 
L 120.308488 172.065552 
L 120.512473 171.138462 
L 120.58194 170.822731 
L 120.716453 170.211371 
L 120.920435 169.284281 
L 121.124417 168.357191 
L 121.328409 167.4301 
L 121.51505 166.581792 
L 121.532383 166.50301 
L 121.736371 165.57592 
L 121.940349 164.648829 
L 122.144339 163.721739 
L 122.35241 162.794649 
L 122.448161 162.376839 
L 122.567566 161.867559 
L 122.77694 160.940468 
L 122.976338 160.013378 
L 123.173851 159.086288 
L 123.371372 158.159197 
L 123.381271 158.115508 
L 123.613083 157.232107 
L 124.185806 156.305017 
L 124.314381 156.097399 
L 124.75995 155.377926 
L 125.247492 154.59071 
L 125.328537 154.450836 
L 125.769357 153.523746 
L 126.180602 152.65036 
L 126.205915 152.596656 
L 126.645077 151.669565 
L 127.088981 150.742475 
L 127.113712 150.698454 
L 127.66847 149.815385 
L 128.046823 149.291199 
L 128.337632 148.888294 
L 128.979933 147.998406 
L 129.006941 147.961204 
L 129.684661 147.034114 
L 129.913043 146.724443 
L 130.370232 146.107023 
L 130.846154 145.495293 
L 131.113276 145.179933 
L 131.779264 144.448623 
L 131.957553 144.252843 
L 132.712375 143.379953 
L 132.756572 143.325753 
L 133.490448 142.398662 
L 133.645485 142.226159 
L 134.368991 141.471572 
L 134.578595 141.266496 
L 135.342921 140.544482 
L 135.511706 140.385033 
L 136.310415 139.617391 
L 136.444816 139.484291 
L 137.377926 138.707018 
L 137.402052 138.690301 
L 138.311037 138.062304 
L 138.743938 137.763211 
L 139.244147 137.417614 
L 140.085787 136.83612 
L 140.177258 136.772923 
L 141.110368 136.128245 
L 141.427658 135.90903 
L 142.043478 135.483558 
L 142.769537 134.98194 
L 142.976589 134.838889 
L 143.909699 134.194178 
L 144.246761 134.054849 
L 144.842809 133.846186 
L 145.77592 133.568609 
L 146.70903 133.291019 
L 147.257834 133.127759 
L 147.64214 133.011343 
L 148.575251 132.720103 
L 149.508361 132.432194 
L 150.118105 132.200669 
L 150.441472 132.072187 
L 151.374582 131.701305 
L 152.307692 131.330191 
L 152.449993 131.273579 
L 153.240803 130.96747 
L 154.173913 130.624259 
L 155.012703 130.346488 
L 155.107023 130.314606 
L 156.040134 130.000973 
L 156.973244 129.687332 
L 157.770402 129.419398 
L 157.906355 129.373514 
L 158.839465 129.041662 
L 159.772575 128.784193 
L 160.705686 128.565238 
L 161.008562 128.492308 
L 161.638796 128.345365 
L 162.571906 128.272645 
L 163.505017 128.230631 
L 164.438127 128.208459 
L 165.371237 128.186287 
L 166.304348 128.143487 
L 167.237458 128.087015 
L 168.170569 128.030533 
L 169.103679 127.974062 
L 170.036789 127.975073 
L 170.9699 128.059478 
L 171.90301 128.143404 
L 172.83612 128.23241 
L 173.769231 128.324396 
L 174.702341 128.364023 
L 175.635452 128.389576 
L 176.568562 128.408775 
L 177.501672 128.424314 
L 178.434783 128.376699 
L 179.367893 128.240285 
L 180.301003 128.104198 
L 181.234114 127.988486 
L 182.167224 127.879711 
L 183.100334 127.769048 
L 184.033445 127.650593 
L 184.740766 127.565217 
L 184.966555 127.537924 
L 185.899666 127.435381 
L 186.832776 127.332884 
L 187.765886 127.15165 
L 188.698997 126.850424 
L 189.329395 126.638127 
L 189.632107 126.536184 
L 190.565217 126.225106 
L 191.498328 126.075932 
L 192.431438 125.944372 
L 193.364548 125.812768 
L 194.085776 125.711037 
L 194.297659 125.681149 
L 195.230769 125.549528 
L 196.16388 125.417914 
L 197.09699 125.286295 
L 198.0301 125.153792 
L 198.963211 125.038264 
L 199.896321 124.983357 
L 200.829431 124.873798 
L 201.762542 124.789132 
L 201.819685 124.783946 
L 202.695652 124.704464 
L 203.628763 124.618912 
L 204.561873 124.584236 
L 205.494983 124.549801 
L 206.428094 124.546955 
L 207.361204 124.571494 
L 208.294314 124.596045 
L 209.227425 124.782178 
L 209.233415 124.783946 
L 210.160535 125.062883 
L 211.093645 125.336359 
L 212.026756 125.561079 
L 212.644687 125.711037 
L 212.959866 125.787565 
L 213.892977 126.014133 
L 214.826087 126.240696 
L 215.759197 126.466722 
L 216.5481 126.638127 
L 216.692308 126.669656 
L 217.625418 126.84864 
L 218.558528 126.978823 
L 219.491639 127.109002 
L 220.424749 127.239185 
L 221.35786 127.369371 
L 222.29097 127.513536 
L 222.539133 127.565217 
L 223.22408 127.707271 
L 224.157191 127.898028 
L 225.090301 128.127939 
L 225.928155 128.492308 
L 226.023411 128.534084 
L 226.956522 128.979098 
L 227.888679 129.419398 
L 227.889632 129.419829 
L 228.822742 129.78826 
L 229.755853 130.156695 
L 230.236535 130.346488 
L 230.688963 130.525123 
L 231.622074 130.909207 
L 232.362108 131.273579 
L 232.555184 131.370038 
L 233.488294 131.836232 
L 234.217758 132.200669 
L 234.421405 132.302409 
L 235.354515 132.768579 
L 236.076937 133.127759 
L 236.287625 133.245741 
L 237.220736 133.798014 
L 237.580885 134.054849 
L 238.153846 134.527144 
L 238.561222 134.98194 
L 239.086957 135.568869 
L 239.391656 135.90903 
L 240.020067 136.610601 
L 240.222068 136.83612 
L 240.953177 137.652344 
L 241.055133 137.763211 
L 241.886288 138.565377 
L 242.02262 138.690301 
L 242.819398 139.420376 
L 243.034413 139.617391 
L 243.752508 140.279681 
L 244.032951 140.544482 
L 244.685619 141.16274 
L 245.01165 141.471572 
L 245.618729 142.046638 
L 245.990339 142.398662 
L 246.551839 142.929127 
L 246.982744 143.325753 
L 247.48495 143.798782 
L 247.944628 144.252843 
L 248.41806 144.73394 
L 248.839831 145.179933 
L 249.351171 145.925286 
L 249.457056 146.107023 
L 249.997186 147.034114 
L 250.284281 147.526877 
L 250.537328 147.961204 
L 251.036963 148.888294 
L 251.217391 149.27368 
L 251.467025 149.815385 
L 251.89427 150.742475 
L 252.150502 151.291386 
L 252.327595 151.669565 
L 252.758731 152.596656 
L 253.083612 153.295287 
L 253.189856 153.523746 
L 253.601793 154.450836 
L 253.993634 155.377926 
L 254.016722 155.444958 
L 254.296993 156.305017 
L 254.554194 157.232107 
L 254.809278 158.159197 
L 254.949833 158.669995 
L 255.064381 159.086288 
L 255.318155 160.013378 
L 255.566657 160.940468 
L 255.798552 161.867559 
L 255.882943 162.352304 
L 255.955762 162.794649 
L 256.014707 163.721739 
L 256.073674 164.648829 
L 256.130124 165.57592 
L 256.177642 166.50301 
L 256.205952 167.4301 
L 256.199564 168.357191 
L 256.185272 169.284281 
L 256.170975 170.211371 
L 256.156688 171.138462 
L 256.16548 172.065552 
L 256.174316 172.992642 
L 256.183141 173.919732 
L 256.206212 174.846823 
L 256.075719 175.773913 
L 255.956885 176.701003 
L 255.882943 177.277844 
L 255.838046 177.628094 
L 255.719208 178.555184 
L 255.600387 179.482274 
L 255.481548 180.409365 
L 255.361289 181.336455 
L 255.201933 182.263545 
L 255.133601 183.190635 
L 255.090869 184.117726 
L 255.038903 185.044816 
L 254.986957 185.971906 
L 254.949833 186.63417 
L 254.934987 186.898997 
L 254.883018 187.826087 
L 254.817108 188.753177 
L 254.716011 189.680268 
L 254.619384 190.607358 
L 254.541215 191.534448 
L 254.463224 192.461538 
L 254.385389 193.388629 
L 254.295985 194.315719 
L 254.14683 195.242809 
L 254.016722 195.856912 
L 253.943986 196.1699 
L 253.503414 197.09699 
L 253.104184 198.02408 
L 253.083612 198.075528 
L 252.733916 198.951171 
L 252.367912 199.878261 
L 252.150502 200.428961 
L 252.001907 200.805351 
L 251.617842 201.732441 
L 251.217391 202.610488 
L 251.194251 202.659532 
L 250.756823 203.586622 
L 250.319384 204.513712 
L 250.284281 204.595606 
L 249.934189 205.440803 
L 249.585945 206.367893 
L 249.351171 206.992928 
L 249.237711 207.294983 
L 248.89035 208.222074 
L 248.528183 209.149164 
L 248.41806 209.424618 
L 248.157544 210.076254 
L 247.786911 211.003344 
L 247.48495 211.765378 
L 247.42198 211.930435 
L 247.074198 212.857525 
L 246.712546 213.784615 
L 246.551839 214.169919 
L 246.325869 214.711706 
L 245.895598 215.638796 
L 245.618729 216.142521 
L 245.37255 216.565886 
L 244.819398 217.492977 
L 244.685619 217.664434 
L 244.04383 218.420067 
L 243.752508 218.742228 
L 243.205484 219.347157 
L 242.819398 219.760334 
L 242.307511 220.274247 
L 241.886288 220.68977 
L 241.367306 221.201338 
L 240.953177 221.609614 
L 240.473347 222.128428 
L 240.020067 222.694503 
L 239.731856 223.055518 
L 239.086957 223.957718 
L 239.070311 223.982609 
L 238.483381 224.909699 
L 238.153846 225.430234 
L 237.896472 225.836789 
L 237.309571 226.76388 
L 237.220736 226.897621 
L 236.641179 227.69097 
L 236.287625 228.143502 
L 235.916864 228.61806 
L 235.354515 229.337849 
L 235.192559 229.545151 
L 234.468262 230.472241 
L 234.421405 230.528945 
L 233.671147 231.399331 
L 233.488294 231.597406 
L 232.815288 232.326421 
L 232.555184 232.608174 
L 231.961473 233.253512 
L 231.622074 233.625878 
L 231.047223 234.180602 
L 230.688963 234.484784 
L 229.937003 235.107692 
L 229.755853 235.257319 
L 228.822742 236.007456 
L 228.787938 236.034783 
L 227.889632 236.738422 
L 227.60521 236.961873 
L 226.956522 237.47032 
L 226.423965 237.888963 
L 226.023411 238.203103 
L 225.244187 238.816054 
L 225.090301 238.936819 
L 224.157191 239.670338 
L 224.071397 239.743144 
L 223.22408 240.508765 
L 223.045957 240.670234 
L 222.29097 241.355402 
L 222.016036 241.597324 
L 221.35786 242.176456 
L 220.960959 242.524415 
L 220.424749 242.988243 
L 219.901409 243.451505 
L 219.491639 243.815413 
L 218.857492 244.378595 
L 218.558528 244.644105 
L 217.813584 245.305686 
L 217.625418 245.458169 
L 216.692308 245.948756 
L 216.055772 246.232776 
L 215.759197 246.365108 
L 214.826087 246.781495 
L 213.975641 247.159866 
L 213.892977 247.196554 
L 212.959866 247.582602 
L 212.026756 247.934768 
L 211.597608 248.086957 
L 211.093645 248.264072 
L 210.160535 248.592023 
L 209.227425 248.919963 
L 208.959718 249.014047 
L 208.294314 249.247899 
L 207.361204 249.573465 
L 206.428094 249.882429 
L 206.24983 249.941137 
L 205.494983 250.18969 
L 204.561873 250.471108 
L 203.628763 250.705667 
L 203.056404 250.868227 
L 202.695652 250.974385 
L 201.762542 251.309282 
L 200.829431 251.644203 
L 200.408394 251.795318 
L 199.896321 251.980828 
L 198.963211 252.476417 
L 198.460556 252.722408 
L 198.0301 252.92308 
L 197.09699 253.123438 
L 196.16388 253.301106 
L 195.230769 253.477484 
L 194.297659 253.621554 
L 194.115017 253.649498 
L 193.364548 253.76567 
L 192.431438 253.891946 
L 191.498328 253.960908 
L 190.565217 254.08172 
L 189.632107 254.203099 
L 188.698997 254.325135 
L 187.765886 254.447171 
L 186.832776 254.569216 
L 186.775219 254.576589 
L 185.899666 254.685307 
L 184.966555 254.751709 
L 184.033445 254.842114 
L 183.100334 254.986923 
L 182.167224 255.128505 
L 181.234114 255.262174 
L 180.301003 255.392558 
L 179.505652 255.503679 
L 179.367893 255.522926 
L 178.434783 255.653301 
L 177.501672 255.78367 
L 176.568562 255.914046 
L 175.635452 255.963105 
L 174.702341 255.893959 
L 173.769231 255.767538 
L 172.83612 255.620501 
z
" clip-path="url(#p8074b49c3a)" style="fill: none; stroke: #000000; stroke-width: 1.5"/>
   </g>
   <g id="patch_3">
    <path d="M 45 320.4 
L 45 43.2 
" style="fill: none; stroke: #000000; stroke-width: 0.8; stroke-linejoin: miter; stroke-linecap: square"/>
   </g>
   <g id="patch_4">
    <path d="M 324 320.4 
L 324 43.2 
" style="fill: none; stroke: #000000; stroke-width: 0.8; stroke-linejoin: miter; stroke-linecap: square"/>
   </g>
   <g id="patch_5">
    <path d="M 45 320.4 
L 324 320.4 
" style="fill: none; stroke: #000000; stroke-width: 0.8; stroke-linejoin: miter; stroke-linecap: square"/>
   </g>
   <g id="patch_6">
    <path d="M 45 43.2 
L 324 43.2 
" style="fill: none; stroke: #000000; stroke-width: 0.8; stroke-linejoin: miter; stroke-linecap: square"/>
   </g>
  </g>
 </g>
 <defs>
  <clipPath id="p8074b49c3a">
   <rect x="45" y="43.2" width="279" height="277.2"/>
  </clipPath>
 </defs>
</svg>
