<?xml version="1.0" encoding="utf-8" standalone="no"?>
<!DOCTYPE svg PUBLIC "-//W3C//DTD SVG 1.1//EN"
  "http://www.w3.org/Graphics/SVG/1.1/DTD/svg11.dtd">
<svg xmlns:xlink="http://www.w3.org/1999/xlink" width="360pt" height="360pt" viewBox="0 0 360 360" xmlns="http://www.w3.org/2000/svg" version="1.1">
 <metadata>
  <rdf:RDF xmlns:dc="http://purl.org/dc/elements/1.1/" xmlns:cc="http://creativecommons.org/ns#" xmlns:rdf="http://www.w3.org/1999/02/22-rdf-syntax-ns#">
   <cc:Work>
    <dc:type rdf:resource="http://purl.org/dc/dcmitype/StillImage"/>
    <dc:date>2022-04-10T19:53:33.703034</dc:date>
    <dc:format>image/svg+xml</dc:format>
    <dc:creator>
     <cc:Agent>
      <dc:title>Matplotlib v3.5.1, https://matplotlib.org/</dc:title>
     </cc:Agent>
    </dc:creator>
   </cc:Work>
  </rdf:RDF>
 </metadata>
 <defs>
  <style type="text/css">*{stroke-linejoin: round; stroke-linecap: butt}</style>
 </defs>
 <g id="figure_1">
  <g id="patch_1">
   <path d="M 0 360 
L 360 360 
L 360 0 
L 0 0 
z
" style="fill: #ffffff"/>
  </g>
  <g id="axes_1">
   <g id="patch_2">
    <path d="M 45 320.4 
L 324 320.4 
L 324 43.2 
L 45 43.2 
z
" style="fill: #ffffff"/>
   </g>
   <g id="PathCollection_1">
    <defs>
     <path id="m4cffe4d8ea" d="M 0 0.5 
C 0.132602 0.5 0.25979 0.447317 0.353553 0.353553 
C 0.447317 0.25979 0.5 0.132602 0.5 0 
C 0.5 -0.132602 0.447317 -0.25979 0.353553 -0.353553 
C 0.25979 -0.447317 0.132602 -0.5 0 -0.5 
C -0.132602 -0.5 -0.25979 -0.447317 -0.353553 -0.353553 
C -0.447317 -0.25979 -0.5 -0.132602 -0.5 0 
C -0.5 0.132602 -0.447317 0.25979 -0.353553 0.353553 
C -0.25979 0.447317 -0.132602 0.5 0 0.5 
z
" style="stroke: #ff0000"/>
    </defs>
    <g clip-path="url(#p2c0da142b8)">
     <use xlink:href="#m4cffe4d8ea" x="230.654709" y="181.336455" style="fill: #ff0000; stroke: #ff0000"/>
     <use xlink:href="#m4cffe4d8ea" x="231.435485" y="176.789192" style="fill: #ff0000; stroke: #ff0000"/>
     <use xlink:href="#m4cffe4d8ea" x="231.074181" y="172.224248" style="fill: #ff0000; stroke: #ff0000"/>
     <use xlink:href="#m4cffe4d8ea" x="229.687772" y="167.857945" style="fill: #ff0000; stroke: #ff0000"/>
     <use xlink:href="#m4cffe4d8ea" x="227.499353" y="163.832456" style="fill: #ff0000; stroke: #ff0000"/>
     <use xlink:href="#m4cffe4d8ea" x="224.754667" y="160.206474" style="fill: #ff0000; stroke: #ff0000"/>
     <use xlink:href="#m4cffe4d8ea" x="221.667563" y="156.971837" style="fill: #ff0000; stroke: #ff0000"/>
     <use xlink:href="#m4cffe4d8ea" x="218.397591" y="154.07732" style="fill: #ff0000; stroke: #ff0000"/>
     <use xlink:href="#m4cffe4d8ea" x="215.044987" y="151.452078" style="fill: #ff0000; stroke: #ff0000"/>
     <use xlink:href="#m4cffe4d8ea" x="211.650911" y="149.031248" style="fill: #ff0000; stroke: #ff0000"/>
     <use xlink:href="#m4cffe4d8ea" x="208.204176" y="146.783269" style="fill: #ff0000; stroke: #ff0000"/>
     <use xlink:href="#m4cffe4d8ea" x="204.661369" y="144.727768" style="fill: #ff0000; stroke: #ff0000"/>
     <use xlink:href="#m4cffe4d8ea" x="200.977868" y="142.931113" style="fill: #ff0000; stroke: #ff0000"/>
     <use xlink:href="#m4cffe4d8ea" x="197.13487" y="141.481695" style="fill: #ff0000; stroke: #ff0000"/>
     <use xlink:href="#m4cffe4d8ea" x="193.14915" y="140.465172" style="fill: #ff0000; stroke: #ff0000"/>
     <use xlink:href="#m4cffe4d8ea" x="189.068249" y="139.959933" style="fill: #ff0000; stroke: #ff0000"/>
     <use xlink:href="#m4cffe4d8ea" x="184.966555" y="140.051448" style="fill: #ff0000; stroke: #ff0000"/>
     <use xlink:href="#m4cffe4d8ea" x="180.952209" y="140.841074" style="fill: #ff0000; stroke: #ff0000"/>
     <use xlink:href="#m4cffe4d8ea" x="177.176018" y="142.423463" style="fill: #ff0000; stroke: #ff0000"/>
     <use xlink:href="#m4cffe4d8ea" x="173.820791" y="144.830845" style="fill: #ff0000; stroke: #ff0000"/>
     <use xlink:href="#m4cffe4d8ea" x="171.057347" y="147.9733" style="fill: #ff0000; stroke: #ff0000"/>
     <use xlink:href="#m4cffe4d8ea" x="168.977838" y="151.616655" style="fill: #ff0000; stroke: #ff0000"/>
     <use xlink:href="#m4cffe4d8ea" x="167.539058" y="155.422634" style="fill: #ff0000; stroke: #ff0000"/>
     <use xlink:href="#m4cffe4d8ea" x="166.549805" y="159.04036" style="fill: #ff0000; stroke: #ff0000"/>
     <use xlink:href="#m4cffe4d8ea" x="165.715131" y="162.209233" style="fill: #ff0000; stroke: #ff0000"/>
     <use xlink:href="#m4cffe4d8ea" x="164.721345" y="164.828833" style="fill: #ff0000; stroke: #ff0000"/>
     <use xlink:href="#m4cffe4d8ea" x="163.326787" y="166.970509" style="fill: #ff0000; stroke: #ff0000"/>
     <use xlink:href="#m4cffe4d8ea" x="161.422676" y="168.833179" style="fill: #ff0000; stroke: #ff0000"/>
     <use xlink:href="#m4cffe4d8ea" x="159.042966" y="170.667829" style="fill: #ff0000; stroke: #ff0000"/>
     <use xlink:href="#m4cffe4d8ea" x="156.324972" y="172.704179" style="fill: #ff0000; stroke: #ff0000"/>
     <use xlink:href="#m4cffe4d8ea" x="153.445" y="175.10688" style="fill: #ff0000; stroke: #ff0000"/>
     <use xlink:href="#m4cffe4d8ea" x="150.564239" y="177.969983" style="fill: #ff0000; stroke: #ff0000"/>
     <use xlink:href="#m4cffe4d8ea" x="147.811319" y="181.336455" style="fill: #ff0000; stroke: #ff0000"/>
     <use xlink:href="#m4cffe4d8ea" x="145.302507" y="185.217819" style="fill: #ff0000; stroke: #ff0000"/>
     <use xlink:href="#m4cffe4d8ea" x="143.17578" y="189.595526" style="fill: #ff0000; stroke: #ff0000"/>
     <use xlink:href="#m4cffe4d8ea" x="141.608594" y="194.404094" style="fill: #ff0000; stroke: #ff0000"/>
     <use xlink:href="#m4cffe4d8ea" x="140.802946" y="199.5116" style="fill: #ff0000; stroke: #ff0000"/>
     <use xlink:href="#m4cffe4d8ea" x="140.94232" y="204.716083" style="fill: #ff0000; stroke: #ff0000"/>
     <use xlink:href="#m4cffe4d8ea" x="142.139196" y="209.76816" style="fill: #ff0000; stroke: #ff0000"/>
     <use xlink:href="#m4cffe4d8ea" x="144.39496" y="214.417888" style="fill: #ff0000; stroke: #ff0000"/>
     <use xlink:href="#m4cffe4d8ea" x="147.589214" y="218.472652" style="fill: #ff0000; stroke: #ff0000"/>
     <use xlink:href="#m4cffe4d8ea" x="151.505581" y="221.845723" style="fill: #ff0000; stroke: #ff0000"/>
     <use xlink:href="#m4cffe4d8ea" x="155.887781" y="224.575146" style="fill: #ff0000; stroke: #ff0000"/>
     <use xlink:href="#m4cffe4d8ea" x="160.506869" y="226.802078" style="fill: #ff0000; stroke: #ff0000"/>
     <use xlink:href="#m4cffe4d8ea" x="165.214891" y="228.713548" style="fill: #ff0000; stroke: #ff0000"/>
     <use xlink:href="#m4cffe4d8ea" x="169.965767" y="230.468387" style="fill: #ff0000; stroke: #ff0000"/>
     <use xlink:href="#m4cffe4d8ea" x="174.797509" y="232.129876" style="fill: #ff0000; stroke: #ff0000"/>
     <use xlink:href="#m4cffe4d8ea" x="179.783124" y="233.62518" style="fill: #ff0000; stroke: #ff0000"/>
     <use xlink:href="#m4cffe4d8ea" x="184.966555" y="234.744909" style="fill: #ff0000; stroke: #ff0000"/>
     <use xlink:href="#m4cffe4d8ea" x="190.3049" y="235.187896" style="fill: #ff0000; stroke: #ff0000"/>
     <use xlink:href="#m4cffe4d8ea" x="195.638909" y="234.643849" style="fill: #ff0000; stroke: #ff0000"/>
     <use xlink:href="#m4cffe4d8ea" x="200.707175" y="232.891552" style="fill: #ff0000; stroke: #ff0000"/>
     <use xlink:href="#m4cffe4d8ea" x="205.204779" y="229.880629" style="fill: #ff0000; stroke: #ff0000"/>
     <use xlink:href="#m4cffe4d8ea" x="208.87" y="225.768137" style="fill: #ff0000; stroke: #ff0000"/>
     <use xlink:href="#m4cffe4d8ea" x="211.571404" y="220.896541" style="fill: #ff0000; stroke: #ff0000"/>
     <use xlink:href="#m4cffe4d8ea" x="213.366469" y="215.718589" style="fill: #ff0000; stroke: #ff0000"/>
     <use xlink:href="#m4cffe4d8ea" x="214.50995" y="210.689247" style="fill: #ff0000; stroke: #ff0000"/>
     <use xlink:href="#m4cffe4d8ea" x="215.40214" y="206.153146" style="fill: #ff0000; stroke: #ff0000"/>
     <use xlink:href="#m4cffe4d8ea" x="216.483083" y="202.259263" style="fill: #ff0000; stroke: #ff0000"/>
     <use xlink:href="#m4cffe4d8ea" x="218.098567" y="198.93163" style="fill: #ff0000; stroke: #ff0000"/>
     <use xlink:href="#m4cffe4d8ea" x="220.381199" y="195.91104" style="fill: #ff0000; stroke: #ff0000"/>
     <use xlink:href="#m4cffe4d8ea" x="223.193796" y="192.857748" style="fill: #ff0000; stroke: #ff0000"/>
     <use xlink:href="#m4cffe4d8ea" x="226.163931" y="189.478254" style="fill: #ff0000; stroke: #ff0000"/>
     <use xlink:href="#m4cffe4d8ea" x="228.801739" y="185.625989" style="fill: #ff0000; stroke: #ff0000"/>
    </g>
   </g>
   <g id="matplotlib.axis_1">
    <g id="xtick_1">
     <g id="line2d_1">
      <defs>
       <path id="m8570807d17" d="M 0 0 
L 0 3.5 
" style="stroke: #000000; stroke-width: 0.8"/>
      </defs>
      <g>
       <use xlink:href="#m8570807d17" x="45" y="320.4" style="stroke: #000000; stroke-width: 0.8"/>
      </g>
     </g>
     <g id="text_1">
      <!-- −3 -->
      <g transform="translate(37.628906 334.998438)scale(0.1 -0.1)">
       <defs>
        <path id="DejaVuSans-2212" d="M 678 2272 
L 4684 2272 
L 4684 1741 
L 678 1741 
L 678 2272 
z
" transform="scale(0.015625)"/>
        <path id="DejaVuSans-33" d="M 2597 2516 
Q 3050 2419 3304 2112 
Q 3559 1806 3559 1356 
Q 3559 666 3084 287 
Q 2609 -91 1734 -91 
Q 1441 -91 1130 -33 
Q 819 25 488 141 
L 488 750 
Q 750 597 1062 519 
Q 1375 441 1716 441 
Q 2309 441 2620 675 
Q 2931 909 2931 1356 
Q 2931 1769 2642 2001 
Q 2353 2234 1838 2234 
L 1294 2234 
L 1294 2753 
L 1863 2753 
Q 2328 2753 2575 2939 
Q 2822 3125 2822 3475 
Q 2822 3834 2567 4026 
Q 2313 4219 1838 4219 
Q 1578 4219 1281 4162 
Q 984 4106 628 3988 
L 628 4550 
Q 988 4650 1302 4700 
Q 1616 4750 1894 4750 
Q 2613 4750 3031 4423 
Q 3450 4097 3450 3541 
Q 3450 3153 3228 2886 
Q 3006 2619 2597 2516 
z
" transform="scale(0.015625)"/>
       </defs>
       <use xlink:href="#DejaVuSans-2212"/>
       <use xlink:href="#DejaVuSans-33" x="83.789062"/>
      </g>
     </g>
    </g>
    <g id="xtick_2">
     <g id="line2d_2">
      <g>
       <use xlink:href="#m8570807d17" x="91.655518" y="320.4" style="stroke: #000000; stroke-width: 0.8"/>
      </g>
     </g>
     <g id="text_2">
      <!-- −2 -->
      <g transform="translate(84.284425 334.998438)scale(0.1 -0.1)">
       <defs>
        <path id="DejaVuSans-32" d="M 1228 531 
L 3431 531 
L 3431 0 
L 469 0 
L 469 531 
Q 828 903 1448 1529 
Q 2069 2156 2228 2338 
Q 2531 2678 2651 2914 
Q 2772 3150 2772 3378 
Q 2772 3750 2511 3984 
Q 2250 4219 1831 4219 
Q 1534 4219 1204 4116 
Q 875 4013 500 3803 
L 500 4441 
Q 881 4594 1212 4672 
Q 1544 4750 1819 4750 
Q 2544 4750 2975 4387 
Q 3406 4025 3406 3419 
Q 3406 3131 3298 2873 
Q 3191 2616 2906 2266 
Q 2828 2175 2409 1742 
Q 1991 1309 1228 531 
z
" transform="scale(0.015625)"/>
       </defs>
       <use xlink:href="#DejaVuSans-2212"/>
       <use xlink:href="#DejaVuSans-32" x="83.789062"/>
      </g>
     </g>
    </g>
    <g id="xtick_3">
     <g id="line2d_3">
      <g>
       <use xlink:href="#m8570807d17" x="138.311037" y="320.4" style="stroke: #000000; stroke-width: 0.8"/>
      </g>
     </g>
     <g id="text_3">
      <!-- −1 -->
      <g transform="translate(130.939943 334.998438)scale(0.1 -0.1)">
       <defs>
        <path id="DejaVuSans-31" d="M 794 531 
L 1825 531 
L 1825 4091 
L 703 3866 
L 703 4441 
L 1819 4666 
L 2450 4666 
L 2450 531 
L 3481 531 
L 3481 0 
L 794 0 
L 794 531 
z
" transform="scale(0.015625)"/>
       </defs>
       <use xlink:href="#DejaVuSans-2212"/>
       <use xlink:href="#DejaVuSans-31" x="83.789062"/>
      </g>
     </g>
    </g>
    <g id="xtick_4">
     <g id="line2d_4">
      <g>
       <use xlink:href="#m8570807d17" x="184.966555" y="320.4" style="stroke: #000000; stroke-width: 0.8"/>
      </g>
     </g>
     <g id="text_4">
      <!-- 0 -->
      <g transform="translate(181.785305 334.998438)scale(0.1 -0.1)">
       <defs>
        <path id="DejaVuSans-30" d="M 2034 4250 
Q 1547 4250 1301 3770 
Q 1056 3291 1056 2328 
Q 1056 1369 1301 889 
Q 1547 409 2034 409 
Q 2525 409 2770 889 
Q 3016 1369 3016 2328 
Q 3016 3291 2770 3770 
Q 2525 4250 2034 4250 
z
M 2034 4750 
Q 2819 4750 3233 4129 
Q 3647 3509 3647 2328 
Q 3647 1150 3233 529 
Q 2819 -91 2034 -91 
Q 1250 -91 836 529 
Q 422 1150 422 2328 
Q 422 3509 836 4129 
Q 1250 4750 2034 4750 
z
" transform="scale(0.015625)"/>
       </defs>
       <use xlink:href="#DejaVuSans-30"/>
      </g>
     </g>
    </g>
    <g id="xtick_5">
     <g id="line2d_5">
      <g>
       <use xlink:href="#m8570807d17" x="231.622074" y="320.4" style="stroke: #000000; stroke-width: 0.8"/>
      </g>
     </g>
     <g id="text_5">
      <!-- 1 -->
      <g transform="translate(228.440824 334.998438)scale(0.1 -0.1)">
       <use xlink:href="#DejaVuSans-31"/>
      </g>
     </g>
    </g>
    <g id="xtick_6">
     <g id="line2d_6">
      <g>
       <use xlink:href="#m8570807d17" x="278.277592" y="320.4" style="stroke: #000000; stroke-width: 0.8"/>
      </g>
     </g>
     <g id="text_6">
      <!-- 2 -->
      <g transform="translate(275.096342 334.998438)scale(0.1 -0.1)">
       <use xlink:href="#DejaVuSans-32"/>
      </g>
     </g>
    </g>
   </g>
   <g id="matplotlib.axis_2">
    <g id="ytick_1">
     <g id="line2d_7">
      <defs>
       <path id="mfac1ad29a1" d="M 0 0 
L -3.5 0 
" style="stroke: #000000; stroke-width: 0.8"/>
      </defs>
      <g>
       <use xlink:href="#mfac1ad29a1" x="45" y="320.4" style="stroke: #000000; stroke-width: 0.8"/>
      </g>
     </g>
     <g id="text_7">
      <!-- −3 -->
      <g transform="translate(23.257812 324.199219)scale(0.1 -0.1)">
       <use xlink:href="#DejaVuSans-2212"/>
       <use xlink:href="#DejaVuSans-33" x="83.789062"/>
      </g>
     </g>
    </g>
    <g id="ytick_2">
     <g id="line2d_8">
      <g>
       <use xlink:href="#mfac1ad29a1" x="45" y="274.045485" style="stroke: #000000; stroke-width: 0.8"/>
      </g>
     </g>
     <g id="text_8">
      <!-- −2 -->
      <g transform="translate(23.257812 277.844704)scale(0.1 -0.1)">
       <use xlink:href="#DejaVuSans-2212"/>
       <use xlink:href="#DejaVuSans-32" x="83.789062"/>
      </g>
     </g>
    </g>
    <g id="ytick_3">
     <g id="line2d_9">
      <g>
       <use xlink:href="#mfac1ad29a1" x="45" y="227.69097" style="stroke: #000000; stroke-width: 0.8"/>
      </g>
     </g>
     <g id="text_9">
      <!-- −1 -->
      <g transform="translate(23.257812 231.490189)scale(0.1 -0.1)">
       <use xlink:href="#DejaVuSans-2212"/>
       <use xlink:href="#DejaVuSans-31" x="83.789062"/>
      </g>
     </g>
    </g>
    <g id="ytick_4">
     <g id="line2d_10">
      <g>
       <use xlink:href="#mfac1ad29a1" x="45" y="181.336455" style="stroke: #000000; stroke-width: 0.8"/>
      </g>
     </g>
     <g id="text_10">
      <!-- 0 -->
      <g transform="translate(31.6375 185.135674)scale(0.1 -0.1)">
       <use xlink:href="#DejaVuSans-30"/>
      </g>
     </g>
    </g>
    <g id="ytick_5">
     <g id="line2d_11">
      <g>
       <use xlink:href="#mfac1ad29a1" x="45" y="134.98194" style="stroke: #000000; stroke-width: 0.8"/>
      </g>
     </g>
     <g id="text_11">
      <!-- 1 -->
      <g transform="translate(31.6375 138.781159)scale(0.1 -0.1)">
       <use xlink:href="#DejaVuSans-31"/>
      </g>
     </g>
    </g>
    <g id="ytick_6">
     <g id="line2d_12">
      <g>
       <use xlink:href="#mfac1ad29a1" x="45" y="88.627425" style="stroke: #000000; stroke-width: 0.8"/>
      </g>
     </g>
     <g id="text_12">
      <!-- 2 -->
      <g transform="translate(31.6375 92.426643)scale(0.1 -0.1)">
       <use xlink:href="#DejaVuSans-32"/>
      </g>
     </g>
    </g>
   </g>
   <g id="PathCollection_2">
    <path d="M 180.301003 210.092336 
L 180.25702 210.076254 
L 179.367893 209.752043 
L 178.434783 209.264898 
L 178.218132 209.149164 
L 177.501672 208.768345 
L 176.568562 208.287141 
L 176.442281 208.222074 
L 175.635452 207.806351 
L 174.702341 207.325562 
L 174.642994 207.294983 
L 173.769231 206.827438 
L 172.98918 206.367893 
L 172.83612 206.289664 
L 171.90301 206.042179 
L 170.9699 205.830367 
L 170.036789 205.453675 
L 170.009862 205.440803 
L 169.103679 204.912819 
L 168.435745 204.513712 
L 168.170569 204.357869 
L 167.237458 203.801327 
L 166.872179 203.586622 
L 166.304348 203.155296 
L 165.97687 202.659532 
L 165.866601 201.732441 
L 165.804078 200.805351 
L 165.744338 199.878261 
L 165.786613 198.951171 
L 165.859064 198.02408 
L 165.93057 197.09699 
L 166.209952 196.1699 
L 166.304348 195.919051 
L 166.615998 195.242809 
L 167.125266 194.315719 
L 167.237458 194.222081 
L 168.170569 193.538638 
L 168.340112 193.388629 
L 169.103679 192.610325 
L 169.24965 192.461538 
L 170.036789 191.659203 
L 170.162596 191.534448 
L 170.9699 190.824778 
L 171.227135 190.607358 
L 171.90301 190.03609 
L 172.336584 189.680268 
L 172.83612 189.298353 
L 173.769231 188.854781 
L 174.021698 188.753177 
L 174.702341 188.451937 
L 175.524237 187.826087 
L 175.635452 187.736081 
L 176.568562 186.957094 
L 176.624197 186.898997 
L 177.405282 185.971906 
L 177.501672 185.830973 
L 177.99296 185.044816 
L 178.434783 184.280808 
L 178.5331 184.117726 
L 179.107397 183.190635 
L 179.367893 182.788121 
L 179.722973 182.263545 
L 180.301003 181.397073 
L 180.34045 181.336455 
L 180.94414 180.409365 
L 181.234114 179.980121 
L 181.579258 179.482274 
L 182.076967 178.555184 
L 182.167224 178.37329 
L 182.548439 177.628094 
L 182.861766 176.701003 
L 183.100334 175.912295 
L 183.157506 175.773913 
L 183.533058 174.846823 
L 183.964382 173.919732 
L 184.033445 173.785101 
L 184.451695 172.992642 
L 184.966555 172.070881 
L 184.969589 172.065552 
L 185.487952 171.138462 
L 185.899666 170.453227 
L 186.197357 170.211371 
L 186.832776 169.700809 
L 187.55444 169.284281 
L 187.765886 169.157328 
L 188.698997 168.783716 
L 189.450593 168.357191 
L 189.632107 168.030633 
L 190.176676 167.4301 
L 190.565217 166.67142 
L 190.77551 166.50301 
L 191.498328 166.342294 
L 191.745224 166.50301 
L 192.431438 167.012471 
L 193.364548 167.31834 
L 193.870102 167.4301 
L 194.297659 167.516101 
L 195.230769 168.003171 
L 195.75642 168.357191 
L 196.16388 168.572949 
L 197.09699 169.084712 
L 197.505826 169.284281 
L 198.0301 169.541548 
L 198.963211 170.078587 
L 199.1885 170.211371 
L 199.896321 170.638731 
L 200.829431 171.097927 
L 200.920983 171.138462 
L 201.762542 171.527317 
L 202.695652 171.964784 
L 202.927404 172.065552 
L 203.628763 172.411876 
L 204.482482 172.992642 
L 204.561873 173.444729 
L 204.617355 173.919732 
L 204.700359 174.846823 
L 204.74144 175.773913 
L 204.561873 176.215704 
L 204.330129 176.701003 
L 203.741462 177.628094 
L 203.628763 177.805585 
L 203.139857 178.555184 
L 202.695652 179.145606 
L 202.438096 179.482274 
L 201.883014 180.409365 
L 201.762542 180.640953 
L 201.423952 181.336455 
L 200.978622 182.263545 
L 200.829431 182.567252 
L 200.521779 183.190635 
L 200.063295 184.117726 
L 199.896321 184.515863 
L 199.697756 185.044816 
L 199.425237 185.971906 
L 199.152369 186.898997 
L 198.963211 187.54167 
L 198.879499 187.826087 
L 198.600812 188.753177 
L 198.307356 189.680268 
L 198.0301 190.507008 
L 197.992311 190.607358 
L 197.620861 191.534448 
L 197.301412 192.461538 
L 197.09699 193.026062 
L 196.962696 193.388629 
L 196.619315 194.315719 
L 196.273642 195.242809 
L 196.16388 195.447437 
L 195.788705 196.1699 
L 195.254528 197.09699 
L 195.230769 197.138739 
L 194.736208 198.02408 
L 194.297659 198.898273 
L 194.273261 198.951171 
L 193.881567 199.878261 
L 193.473437 200.805351 
L 193.364548 201.060347 
L 193.08108 201.732441 
L 192.739438 202.659532 
L 192.431438 203.510033 
L 192.403743 203.586622 
L 192.165183 204.513712 
L 191.898773 205.440803 
L 191.578976 206.367893 
L 191.498328 206.601622 
L 191.240041 207.294983 
L 190.824442 208.222074 
L 190.565217 208.513585 
L 189.632107 208.886361 
L 188.874184 209.149164 
L 188.698997 209.202102 
L 187.765886 209.462055 
L 186.832776 209.722004 
L 185.899666 210.015935 
L 185.736858 210.076254 
L 184.966555 210.361651 
L 184.033445 210.724521 
L 183.100334 210.780971 
L 182.167224 210.683254 
L 181.234114 210.428838 
L 180.301003 210.092336 
z
" clip-path="url(#p2c0da142b8)" style="fill: none; stroke-dasharray: 5.55,2.4; stroke-dashoffset: 0; stroke: #000000; stroke-width: 1.5"/>
   </g>
   <g id="PathCollection_3">
    <path d="M 184.033445 234.366602 
L 183.253623 234.180602 
L 183.100334 234.112624 
L 182.167224 233.875898 
L 181.234114 233.670451 
L 180.301003 233.330059 
L 179.657064 233.253512 
L 179.367893 233.14807 
L 178.434783 232.944816 
L 177.501672 232.72181 
L 176.568562 232.494672 
L 175.635452 232.333859 
L 175.483727 232.326421 
L 174.702341 232.122461 
L 173.769231 231.904789 
L 172.83612 231.536925 
L 172.306405 231.399331 
L 171.90301 231.250737 
L 170.9699 231.00507 
L 170.036789 230.751684 
L 169.15358 230.472241 
L 169.103679 230.453124 
L 168.170569 230.170463 
L 167.237458 229.899996 
L 166.478521 229.545151 
L 166.304348 229.462346 
L 165.371237 229.148513 
L 164.438127 228.682245 
L 164.305965 228.61806 
L 163.505017 228.335714 
L 162.571906 227.72503 
L 162.513614 227.69097 
L 161.638796 227.356327 
L 160.705686 226.937847 
L 160.329493 226.76388 
L 159.772575 226.580096 
L 158.839465 226.238426 
L 158.057943 225.836789 
L 157.906355 225.760528 
L 156.973244 225.498465 
L 156.040134 225.099975 
L 155.710031 224.909699 
L 155.107023 224.621176 
L 154.173913 224.07225 
L 154.03732 223.982609 
L 153.240803 223.5102 
L 152.696128 223.055518 
L 152.307692 222.77071 
L 151.549371 222.128428 
L 151.374582 221.975593 
L 150.441472 221.281824 
L 150.328203 221.201338 
L 149.508361 220.673377 
L 149.09824 220.274247 
L 148.575251 219.730363 
L 148.210031 219.347157 
L 147.64214 218.727867 
L 147.349398 218.420067 
L 146.70903 217.659065 
L 146.567168 217.492977 
L 145.810515 216.565886 
L 145.77592 216.531474 
L 145.056399 215.638796 
L 144.842809 215.401152 
L 144.259714 214.711706 
L 143.909699 214.272684 
L 143.494462 213.784615 
L 142.976589 212.886456 
L 142.966964 212.857525 
L 142.565909 211.930435 
L 142.331356 211.003344 
L 142.043478 210.251628 
L 141.990151 210.076254 
L 141.649578 209.149164 
L 141.411091 208.222074 
L 141.163699 207.294983 
L 141.110368 207.141594 
L 140.881811 206.367893 
L 140.759476 205.440803 
L 140.66946 204.513712 
L 140.700723 203.586622 
L 140.753235 202.659532 
L 140.810002 201.732441 
L 141.060858 200.805351 
L 141.110368 200.606538 
L 141.328486 199.878261 
L 141.473761 198.951171 
L 141.515881 198.02408 
L 141.531256 197.09699 
L 141.558739 196.1699 
L 141.602806 195.242809 
L 141.647387 194.315719 
L 141.68288 193.388629 
L 141.714659 192.461538 
L 141.876963 191.534448 
L 142.043478 191.046077 
L 142.228739 190.607358 
L 142.494096 189.680268 
L 142.967495 188.753177 
L 142.976589 188.730512 
L 143.487757 187.826087 
L 143.909699 187.163102 
L 144.102645 186.898997 
L 144.667455 185.971906 
L 144.842809 185.740677 
L 145.305103 185.044816 
L 145.77592 184.366331 
L 145.961565 184.117726 
L 146.538454 183.190635 
L 146.70903 182.962185 
L 147.224158 182.263545 
L 147.64214 181.861905 
L 148.420834 181.336455 
L 148.575251 181.205222 
L 149.508361 180.559836 
L 149.678244 180.409365 
L 150.441472 179.630914 
L 150.585518 179.482274 
L 151.374582 178.687289 
L 151.522924 178.555184 
L 152.307692 177.841946 
L 152.573497 177.628094 
L 153.240803 177.044811 
L 153.68646 176.701003 
L 154.173913 176.29683 
L 154.917082 175.773913 
L 155.107023 175.612104 
L 156.040134 174.853114 
L 156.046419 174.846823 
L 156.708978 173.919732 
L 156.973244 173.617163 
L 157.471047 172.992642 
L 157.906355 172.50077 
L 158.260585 172.065552 
L 158.839465 171.413729 
L 159.066363 171.138462 
L 159.772575 170.318099 
L 159.853225 170.211371 
L 160.215206 169.284281 
L 160.705686 168.367001 
L 160.711199 168.357191 
L 161.044679 167.4301 
L 161.624184 166.50301 
L 161.638796 166.482701 
L 162.328357 165.57592 
L 162.571906 165.309733 
L 163.012917 164.648829 
L 163.505017 163.926039 
L 163.617038 163.721739 
L 164.152293 162.794649 
L 164.438127 162.419458 
L 164.777825 161.867559 
L 165.347166 160.940468 
L 165.371237 160.909418 
L 165.891475 160.013378 
L 166.304348 159.412715 
L 166.501042 159.086288 
L 166.856878 158.159197 
L 167.206932 157.232107 
L 167.237458 157.163975 
L 167.52343 156.305017 
L 167.815402 155.377926 
L 168.170569 154.510871 
L 168.200744 154.450836 
L 168.519959 153.523746 
L 168.868352 152.596656 
L 169.103679 152.266446 
L 169.521078 151.669565 
L 170.036789 150.925552 
L 170.168476 150.742475 
L 170.812387 149.815385 
L 170.9699 149.601991 
L 171.373993 148.888294 
L 171.901301 147.961204 
L 171.90301 147.958613 
L 172.391149 147.034114 
L 172.83612 146.37732 
L 173.032789 146.107023 
L 173.769231 145.227152 
L 173.817549 145.179933 
L 174.559577 144.252843 
L 174.702341 144.091481 
L 175.36529 143.325753 
L 175.635452 143.04693 
L 176.568562 142.417679 
L 176.59586 142.398662 
L 177.501672 141.945735 
L 178.434783 141.611332 
L 178.736746 141.471572 
L 179.367893 141.213079 
L 180.301003 140.880613 
L 181.234114 140.663749 
L 181.623754 140.544482 
L 182.167224 140.397224 
L 183.100334 140.298314 
L 184.033445 140.253202 
L 184.966555 140.236819 
L 185.899666 140.22083 
L 186.832776 140.205228 
L 187.765886 140.189988 
L 188.698997 140.173697 
L 189.632107 140.155333 
L 190.565217 140.248029 
L 191.498328 140.393797 
L 192.213924 140.544482 
L 192.431438 140.606328 
L 193.364548 140.84101 
L 194.297659 141.098555 
L 195.230769 141.359762 
L 195.513227 141.471572 
L 196.16388 141.702849 
L 197.09699 142.037138 
L 197.842404 142.398662 
L 198.0301 142.504331 
L 198.963211 142.917297 
L 199.896321 143.147817 
L 200.404608 143.325753 
L 200.829431 143.476464 
L 201.762542 143.772173 
L 202.695652 144.086061 
L 203.095353 144.252843 
L 203.628763 144.471152 
L 204.561873 144.700189 
L 205.494983 144.898517 
L 206.19372 145.179933 
L 206.428094 145.312094 
L 207.335468 146.107023 
L 207.361204 146.129885 
L 208.294314 146.988644 
L 208.351027 147.034114 
L 209.227425 147.596499 
L 209.786967 147.961204 
L 210.160535 148.195098 
L 211.093645 148.797815 
L 211.219971 148.888294 
L 212.026756 149.402582 
L 212.668856 149.815385 
L 212.959866 150.000866 
L 213.892977 150.593111 
L 214.091792 150.742475 
L 214.826087 151.229646 
L 215.460756 151.669565 
L 215.759197 151.872404 
L 216.692308 152.517779 
L 216.791242 152.596656 
L 217.625418 153.184042 
L 218.107783 153.523746 
L 218.558528 153.814423 
L 219.491639 154.233331 
L 219.874086 154.450836 
L 220.424749 154.82228 
L 220.952133 155.377926 
L 221.35786 155.804645 
L 221.832579 156.305017 
L 222.29097 156.778802 
L 222.721515 157.232107 
L 223.22408 157.751172 
L 223.615335 158.159197 
L 224.157191 158.718637 
L 224.518359 159.086288 
L 225.090301 159.677115 
L 225.422434 160.013378 
L 226.023411 160.656381 
L 226.284324 160.940468 
L 226.806186 161.867559 
L 226.956522 162.052269 
L 227.39139 162.794649 
L 227.831489 163.721739 
L 227.889632 163.789224 
L 228.340267 164.648829 
L 228.697648 165.57592 
L 228.822742 165.782764 
L 229.147145 166.50301 
L 229.511053 167.4301 
L 229.755853 168.042934 
L 229.883507 168.357191 
L 230.212953 169.284281 
L 230.518596 170.211371 
L 230.688963 170.675977 
L 230.836814 171.138462 
L 230.880221 172.065552 
L 230.723186 172.992642 
L 230.688963 173.131438 
L 230.485934 173.919732 
L 230.331503 174.846823 
L 230.152715 175.773913 
L 229.984424 176.701003 
L 229.783539 177.628094 
L 229.755853 177.716521 
L 229.520042 178.555184 
L 229.284613 179.482274 
L 229.060348 180.409365 
L 228.822742 181.224147 
L 228.779398 181.336455 
L 228.503392 182.263545 
L 227.949011 183.190635 
L 227.889632 183.286543 
L 227.465986 184.117726 
L 227.006985 185.044816 
L 226.956522 185.131495 
L 226.578602 185.971906 
L 226.180391 186.898997 
L 226.023411 187.182335 
L 225.736834 187.826087 
L 225.310277 188.753177 
L 225.090301 189.099693 
L 224.790784 189.680268 
L 224.335342 190.607358 
L 224.157191 190.875445 
L 223.813232 191.534448 
L 223.329403 192.461538 
L 223.22408 192.611862 
L 222.78772 193.388629 
L 222.29097 194.142783 
L 222.168259 194.315719 
L 221.603293 195.242809 
L 221.35786 195.560094 
L 220.96043 196.1699 
L 220.424749 196.937692 
L 220.310469 197.09699 
L 219.701407 198.02408 
L 219.491639 198.290666 
L 219.082555 198.951171 
L 218.560396 199.878261 
L 218.558528 199.881888 
L 218.230223 200.805351 
L 217.902713 201.732441 
L 217.625418 202.491427 
L 217.560517 202.659532 
L 217.389807 203.586622 
L 217.223293 204.513712 
L 216.989442 205.440803 
L 216.692308 206.204809 
L 216.627443 206.367893 
L 216.383831 207.294983 
L 216.128471 208.222074 
L 215.852587 209.149164 
L 215.759197 209.408336 
L 215.562003 210.076254 
L 215.255863 211.003344 
L 214.855686 211.930435 
L 214.826087 211.99082 
L 214.457926 212.857525 
L 214.060499 213.784615 
L 213.892977 214.135085 
L 213.630216 214.711706 
L 213.193959 215.638796 
L 212.959866 216.099595 
L 212.737264 216.565886 
L 212.308859 217.492977 
L 212.026756 218.075856 
L 211.867825 218.420067 
L 211.534654 219.347157 
L 211.19568 220.274247 
L 211.093645 220.531067 
L 210.829309 221.201338 
L 210.35951 222.128428 
L 210.160535 222.482574 
L 209.863422 223.055518 
L 209.29023 223.982609 
L 209.227425 224.073449 
L 208.662716 224.909699 
L 208.294314 225.405558 
L 208.001634 225.836789 
L 207.361204 226.722829 
L 207.326017 226.76388 
L 206.814515 227.69097 
L 206.428094 228.206947 
L 206.091193 228.61806 
L 205.494983 229.303464 
L 205.292389 229.545151 
L 204.561873 230.396405 
L 204.480416 230.472241 
L 203.628763 231.10844 
L 203.140916 231.399331 
L 202.695652 231.684081 
L 201.762542 232.120277 
L 201.370549 232.326421 
L 200.829431 232.596556 
L 199.896321 232.958055 
L 199.210406 233.253512 
L 198.963211 233.332317 
L 198.0301 233.761636 
L 197.09699 234.046033 
L 196.621937 234.180602 
L 196.16388 234.219324 
L 195.230769 234.458905 
L 194.297659 234.613235 
L 193.364548 234.760362 
L 192.431438 234.877533 
L 191.498328 235.075929 
L 190.565217 235.002218 
L 189.632107 234.899736 
L 188.698997 234.808997 
L 187.765886 234.772847 
L 186.832776 234.753416 
L 185.899666 234.725396 
L 184.966555 234.65551 
L 184.033445 234.366602 
z
" clip-path="url(#p2c0da142b8)" style="fill: none; stroke: #000000; stroke-width: 1.5"/>
   </g>
   <g id="PathCollection_4">
    <path d="M 182.167224 257.377031 
L 180.301003 257.273941 
L 178.434783 256.846736 
L 170.036789 254.759229 
L 163.892303 253.649498 
L 160.705686 252.524598 
L 153.01659 249.014047 
L 150.877397 248.086957 
L 146.70903 246.915162 
L 145.345041 246.232776 
L 140.177258 243.012703 
L 139.244147 242.351794 
L 131.472995 235.107692 
L 130.844858 234.180602 
L 124.314381 226.37058 
L 122.623141 223.982609 
L 122.145683 223.055518 
L 120.508722 217.492977 
L 118.66692 211.930435 
L 118.134774 208.222074 
L 117.932399 206.367893 
L 117.936221 204.513712 
L 117.888731 203.586622 
L 118.162573 200.805351 
L 118.147608 196.1699 
L 118.381129 190.607358 
L 118.516603 187.826087 
L 119.353885 185.044816 
L 120.112841 183.190635 
L 121.055047 181.336455 
L 126.426315 172.065552 
L 127.514657 169.284281 
L 128.234721 168.357191 
L 130.617623 165.57592 
L 133.387999 161.867559 
L 140.437717 154.450836 
L 142.789748 151.669565 
L 143.909699 149.550052 
L 145.77592 144.645362 
L 146.911393 140.544482 
L 148.074034 138.690301 
L 152.217048 133.127759 
L 155.501729 129.419398 
L 156.973244 128.291659 
L 163.505017 123.706309 
L 166.304348 122.300586 
L 169.223083 120.148495 
L 170.9699 119.434797 
L 174.702341 118.207959 
L 177.501672 117.469114 
L 186.832776 116.738614 
L 187.765886 116.70322 
L 193.364548 117.070797 
L 198.963211 117.429921 
L 202.695652 117.980077 
L 204.561873 118.313163 
L 206.428094 119.242802 
L 210.160535 121.353785 
L 213.829896 122.929766 
L 215.759197 123.867138 
L 217.290973 124.783946 
L 221.35786 127.75389 
L 228.822742 132.333752 
L 233.488294 135.13188 
L 235.079216 136.83612 
L 239.086957 141.619005 
L 243.309237 146.107023 
L 246.551839 151.008961 
L 248.168834 153.523746 
L 249.195434 155.377926 
L 251.687543 161.867559 
L 252.907465 165.57592 
L 253.440697 169.284281 
L 252.560326 179.482274 
L 251.876118 187.826087 
L 251.15311 189.680268 
L 248.41806 195.791766 
L 246.765249 198.951171 
L 245.465951 201.732441 
L 241.630263 209.149164 
L 240.917622 211.003344 
L 239.784727 214.711706 
L 239.587035 215.638796 
L 238.800455 217.492977 
L 237.014706 221.201338 
L 235.354515 224.706653 
L 232.555184 230.487222 
L 229.755853 235.315716 
L 228.731309 236.961873 
L 225.090301 241.819235 
L 221.208012 246.232776 
L 216.692308 249.998206 
L 214.826087 251.042978 
L 206.428094 255.271299 
L 202.695652 256.819738 
L 198.0301 257.733658 
L 189.632107 257.39285 
L 186.832776 257.340108 
L 182.167224 257.377031 
L 182.167224 257.377031 
" clip-path="url(#p2c0da142b8)" style="fill: none; stroke: #000000; stroke-width: 1.5"/>
   </g>
   <g id="patch_3">
    <path d="M 45 320.4 
L 45 43.2 
" style="fill: none; stroke: #000000; stroke-width: 0.8; stroke-linejoin: miter; stroke-linecap: square"/>
   </g>
   <g id="patch_4">
    <path d="M 324 320.4 
L 324 43.2 
" style="fill: none; stroke: #000000; stroke-width: 0.8; stroke-linejoin: miter; stroke-linecap: square"/>
   </g>
   <g id="patch_5">
    <path d="M 45 320.4 
L 324 320.4 
" style="fill: none; stroke: #000000; stroke-width: 0.8; stroke-linejoin: miter; stroke-linecap: square"/>
   </g>
   <g id="patch_6">
    <path d="M 45 43.2 
L 324 43.2 
" style="fill: none; stroke: #000000; stroke-width: 0.8; stroke-linejoin: miter; stroke-linecap: square"/>
   </g>
  </g>
 </g>
 <defs>
  <clipPath id="p2c0da142b8">
   <rect x="45" y="43.2" width="279" height="277.2"/>
  </clipPath>
 </defs>
</svg>
