<?xml version="1.0" encoding="utf-8" standalone="no"?>
<!DOCTYPE svg PUBLIC "-//W3C//DTD SVG 1.1//EN"
  "http://www.w3.org/Graphics/SVG/1.1/DTD/svg11.dtd">
<svg xmlns:xlink="http://www.w3.org/1999/xlink" width="360pt" height="360pt" viewBox="0 0 360 360" xmlns="http://www.w3.org/2000/svg" version="1.1">
 <metadata>
  <rdf:RDF xmlns:dc="http://purl.org/dc/elements/1.1/" xmlns:cc="http://creativecommons.org/ns#" xmlns:rdf="http://www.w3.org/1999/02/22-rdf-syntax-ns#">
   <cc:Work>
    <dc:type rdf:resource="http://purl.org/dc/dcmitype/StillImage"/>
    <dc:date>2022-04-03T22:41:42.186599</dc:date>
    <dc:format>image/svg+xml</dc:format>
    <dc:creator>
     <cc:Agent>
      <dc:title>Matplotlib v3.5.1, https://matplotlib.org/</dc:title>
     </cc:Agent>
    </dc:creator>
   </cc:Work>
  </rdf:RDF>
 </metadata>
 <defs>
  <style type="text/css">*{stroke-linejoin: round; stroke-linecap: butt}</style>
 </defs>
 <g id="figure_1">
  <g id="patch_1">
   <path d="M 0 360 
L 360 360 
L 360 0 
L 0 0 
z
" style="fill: #ffffff"/>
  </g>
  <g id="axes_1">
   <g id="patch_2">
    <path d="M 45 320.4 
L 324 320.4 
L 324 43.2 
L 45 43.2 
z
" style="fill: #ffffff"/>
   </g>
   <g id="PathCollection_1">
    <defs>
     <path id="mf4ecdd83bb" d="M 0 0.5 
C 0.132602 0.5 0.25979 0.447317 0.353553 0.353553 
C 0.447317 0.25979 0.5 0.132602 0.5 0 
C 0.5 -0.132602 0.447317 -0.25979 0.353553 -0.353553 
C 0.25979 -0.447317 0.132602 -0.5 0 -0.5 
C -0.132602 -0.5 -0.25979 -0.447317 -0.353553 -0.353553 
C -0.447317 -0.25979 -0.5 -0.132602 -0.5 0 
C -0.5 0.132602 -0.447317 0.25979 -0.353553 0.353553 
C -0.25979 0.447317 -0.132602 0.5 0 0.5 
z
" style="stroke: #ff0000"/>
    </defs>
    <g clip-path="url(#p9b3b27f3e7)">
     <use xlink:href="#mf4ecdd83bb" x="230.48995" y="181.568614" style="fill: #ff0000; stroke: #ff0000"/>
     <use xlink:href="#mf4ecdd83bb" x="231.099232" y="177.031391" style="fill: #ff0000; stroke: #ff0000"/>
     <use xlink:href="#mf4ecdd83bb" x="231.019132" y="172.421108" style="fill: #ff0000; stroke: #ff0000"/>
     <use xlink:href="#mf4ecdd83bb" x="230.423293" y="167.798001" style="fill: #ff0000; stroke: #ff0000"/>
     <use xlink:href="#mf4ecdd83bb" x="229.435571" y="163.171618" style="fill: #ff0000; stroke: #ff0000"/>
     <use xlink:href="#mf4ecdd83bb" x="228.054345" y="158.562206" style="fill: #ff0000; stroke: #ff0000"/>
     <use xlink:href="#mf4ecdd83bb" x="226.159771" y="154.06664" style="fill: #ff0000; stroke: #ff0000"/>
     <use xlink:href="#mf4ecdd83bb" x="223.591719" y="149.883742" style="fill: #ff0000; stroke: #ff0000"/>
     <use xlink:href="#mf4ecdd83bb" x="220.250428" y="146.28022" style="fill: #ff0000; stroke: #ff0000"/>
     <use xlink:href="#mf4ecdd83bb" x="216.168163" y="143.511744" style="fill: #ff0000; stroke: #ff0000"/>
     <use xlink:href="#mf4ecdd83bb" x="211.522601" y="141.733644" style="fill: #ff0000; stroke: #ff0000"/>
     <use xlink:href="#mf4ecdd83bb" x="206.592414" y="140.936164" style="fill: #ff0000; stroke: #ff0000"/>
     <use xlink:href="#mf4ecdd83bb" x="201.676593" y="140.9268" style="fill: #ff0000; stroke: #ff0000"/>
     <use xlink:href="#mf4ecdd83bb" x="197.007272" y="141.366446" style="fill: #ff0000; stroke: #ff0000"/>
     <use xlink:href="#mf4ecdd83bb" x="192.684233" y="141.852403" style="fill: #ff0000; stroke: #ff0000"/>
     <use xlink:href="#mf4ecdd83bb" x="188.652414" y="142.029749" style="fill: #ff0000; stroke: #ff0000"/>
     <use xlink:href="#mf4ecdd83bb" x="184.732888" y="141.701264" style="fill: #ff0000; stroke: #ff0000"/>
     <use xlink:href="#mf4ecdd83bb" x="180.701193" y="140.898216" style="fill: #ff0000; stroke: #ff0000"/>
     <use xlink:href="#mf4ecdd83bb" x="176.386558" y="139.879486" style="fill: #ff0000; stroke: #ff0000"/>
     <use xlink:href="#mf4ecdd83bb" x="171.751523" y="139.050877" style="fill: #ff0000; stroke: #ff0000"/>
     <use xlink:href="#mf4ecdd83bb" x="166.915663" y="138.831541" style="fill: #ff0000; stroke: #ff0000"/>
     <use xlink:href="#mf4ecdd83bb" x="162.111531" y="139.520074" style="fill: #ff0000; stroke: #ff0000"/>
     <use xlink:href="#mf4ecdd83bb" x="157.593241" y="141.213309" style="fill: #ff0000; stroke: #ff0000"/>
     <use xlink:href="#mf4ecdd83bb" x="153.540384" y="143.805652" style="fill: #ff0000; stroke: #ff0000"/>
     <use xlink:href="#mf4ecdd83bb" x="149.999901" y="147.059711" style="fill: #ff0000; stroke: #ff0000"/>
     <use xlink:href="#mf4ecdd83bb" x="146.886194" y="150.709022" style="fill: #ff0000; stroke: #ff0000"/>
     <use xlink:href="#mf4ecdd83bb" x="144.029192" y="154.546741" style="fill: #ff0000; stroke: #ff0000"/>
     <use xlink:href="#mf4ecdd83bb" x="141.241141" y="158.471771" style="fill: #ff0000; stroke: #ff0000"/>
     <use xlink:href="#mf4ecdd83bb" x="138.376433" y="162.491022" style="fill: #ff0000; stroke: #ff0000"/>
     <use xlink:href="#mf4ecdd83bb" x="135.376174" y="166.693014" style="fill: #ff0000; stroke: #ff0000"/>
     <use xlink:href="#mf4ecdd83bb" x="132.300529" y="171.206456" style="fill: #ff0000; stroke: #ff0000"/>
     <use xlink:href="#mf4ecdd83bb" x="129.345511" y="176.148629" style="fill: #ff0000; stroke: #ff0000"/>
     <use xlink:href="#mf4ecdd83bb" x="126.826754" y="181.568614" style="fill: #ff0000; stroke: #ff0000"/>
     <use xlink:href="#mf4ecdd83bb" x="125.112851" y="187.402791" style="fill: #ff0000; stroke: #ff0000"/>
     <use xlink:href="#mf4ecdd83bb" x="124.516591" y="193.469105" style="fill: #ff0000; stroke: #ff0000"/>
     <use xlink:href="#mf4ecdd83bb" x="125.188026" y="199.514817" style="fill: #ff0000; stroke: #ff0000"/>
     <use xlink:href="#mf4ecdd83bb" x="127.066578" y="205.300678" style="fill: #ff0000; stroke: #ff0000"/>
     <use xlink:href="#mf4ecdd83bb" x="129.921677" y="210.676803" style="fill: #ff0000; stroke: #ff0000"/>
     <use xlink:href="#mf4ecdd83bb" x="133.459079" y="215.607645" style="fill: #ff0000; stroke: #ff0000"/>
     <use xlink:href="#mf4ecdd83bb" x="137.432701" y="220.136434" style="fill: #ff0000; stroke: #ff0000"/>
     <use xlink:href="#mf4ecdd83bb" x="141.706176" y="224.317735" style="fill: #ff0000; stroke: #ff0000"/>
     <use xlink:href="#mf4ecdd83bb" x="146.246644" y="228.161687" style="fill: #ff0000; stroke: #ff0000"/>
     <use xlink:href="#mf4ecdd83bb" x="151.073725" y="231.618115" style="fill: #ff0000; stroke: #ff0000"/>
     <use xlink:href="#mf4ecdd83bb" x="156.203418" y="234.599145" style="fill: #ff0000; stroke: #ff0000"/>
     <use xlink:href="#mf4ecdd83bb" x="161.616364" y="237.016788" style="fill: #ff0000; stroke: #ff0000"/>
     <use xlink:href="#mf4ecdd83bb" x="167.256652" y="238.808359" style="fill: #ff0000; stroke: #ff0000"/>
     <use xlink:href="#mf4ecdd83bb" x="173.047653" y="239.935255" style="fill: #ff0000; stroke: #ff0000"/>
     <use xlink:href="#mf4ecdd83bb" x="178.904862" y="240.359791" style="fill: #ff0000; stroke: #ff0000"/>
     <use xlink:href="#mf4ecdd83bb" x="184.732888" y="240.020339" style="fill: #ff0000; stroke: #ff0000"/>
     <use xlink:href="#mf4ecdd83bb" x="190.409177" y="238.829122" style="fill: #ff0000; stroke: #ff0000"/>
     <use xlink:href="#mf4ecdd83bb" x="195.771488" y="236.705373" style="fill: #ff0000; stroke: #ff0000"/>
     <use xlink:href="#mf4ecdd83bb" x="200.628985" y="233.632944" style="fill: #ff0000; stroke: #ff0000"/>
     <use xlink:href="#mf4ecdd83bb" x="204.803404" y="229.710517" style="fill: #ff0000; stroke: #ff0000"/>
     <use xlink:href="#mf4ecdd83bb" x="208.185424" y="225.162148" style="fill: #ff0000; stroke: #ff0000"/>
     <use xlink:href="#mf4ecdd83bb" x="210.779652" y="220.298857" style="fill: #ff0000; stroke: #ff0000"/>
     <use xlink:href="#mf4ecdd83bb" x="212.718971" y="215.449747" style="fill: #ff0000; stroke: #ff0000"/>
     <use xlink:href="#mf4ecdd83bb" x="214.245686" y="210.891007" style="fill: #ff0000; stroke: #ff0000"/>
     <use xlink:href="#mf4ecdd83bb" x="215.665354" y="206.790455" style="fill: #ff0000; stroke: #ff0000"/>
     <use xlink:href="#mf4ecdd83bb" x="217.276713" y="203.173412" style="fill: #ff0000; stroke: #ff0000"/>
     <use xlink:href="#mf4ecdd83bb" x="219.283732" y="199.917278" style="fill: #ff0000; stroke: #ff0000"/>
     <use xlink:href="#mf4ecdd83bb" x="221.714224" y="196.787958" style="fill: #ff0000; stroke: #ff0000"/>
     <use xlink:href="#mf4ecdd83bb" x="224.388153" y="193.520299" style="fill: #ff0000; stroke: #ff0000"/>
     <use xlink:href="#mf4ecdd83bb" x="226.969247" y="189.915746" style="fill: #ff0000; stroke: #ff0000"/>
     <use xlink:href="#mf4ecdd83bb" x="229.089778" y="185.909201" style="fill: #ff0000; stroke: #ff0000"/>
    </g>
   </g>
   <g id="matplotlib.axis_1">
    <g id="xtick_1">
     <g id="line2d_1">
      <defs>
       <path id="m53422ab329" d="M 0 0 
L 0 3.5 
" style="stroke: #000000; stroke-width: 0.8"/>
      </defs>
      <g>
       <use xlink:href="#m53422ab329" x="45" y="320.4" style="stroke: #000000; stroke-width: 0.8"/>
      </g>
     </g>
     <g id="text_1">
      <!-- −3 -->
      <g transform="translate(37.628906 334.998438)scale(0.1 -0.1)">
       <defs>
        <path id="DejaVuSans-2212" d="M 678 2272 
L 4684 2272 
L 4684 1741 
L 678 1741 
L 678 2272 
z
" transform="scale(0.015625)"/>
        <path id="DejaVuSans-33" d="M 2597 2516 
Q 3050 2419 3304 2112 
Q 3559 1806 3559 1356 
Q 3559 666 3084 287 
Q 2609 -91 1734 -91 
Q 1441 -91 1130 -33 
Q 819 25 488 141 
L 488 750 
Q 750 597 1062 519 
Q 1375 441 1716 441 
Q 2309 441 2620 675 
Q 2931 909 2931 1356 
Q 2931 1769 2642 2001 
Q 2353 2234 1838 2234 
L 1294 2234 
L 1294 2753 
L 1863 2753 
Q 2328 2753 2575 2939 
Q 2822 3125 2822 3475 
Q 2822 3834 2567 4026 
Q 2313 4219 1838 4219 
Q 1578 4219 1281 4162 
Q 984 4106 628 3988 
L 628 4550 
Q 988 4650 1302 4700 
Q 1616 4750 1894 4750 
Q 2613 4750 3031 4423 
Q 3450 4097 3450 3541 
Q 3450 3153 3228 2886 
Q 3006 2619 2597 2516 
z
" transform="scale(0.015625)"/>
       </defs>
       <use xlink:href="#DejaVuSans-2212"/>
       <use xlink:href="#DejaVuSans-33" x="83.789062"/>
      </g>
     </g>
    </g>
    <g id="xtick_2">
     <g id="line2d_2">
      <g>
       <use xlink:href="#m53422ab329" x="91.577629" y="320.4" style="stroke: #000000; stroke-width: 0.8"/>
      </g>
     </g>
     <g id="text_2">
      <!-- −2 -->
      <g transform="translate(84.206536 334.998438)scale(0.1 -0.1)">
       <defs>
        <path id="DejaVuSans-32" d="M 1228 531 
L 3431 531 
L 3431 0 
L 469 0 
L 469 531 
Q 828 903 1448 1529 
Q 2069 2156 2228 2338 
Q 2531 2678 2651 2914 
Q 2772 3150 2772 3378 
Q 2772 3750 2511 3984 
Q 2250 4219 1831 4219 
Q 1534 4219 1204 4116 
Q 875 4013 500 3803 
L 500 4441 
Q 881 4594 1212 4672 
Q 1544 4750 1819 4750 
Q 2544 4750 2975 4387 
Q 3406 4025 3406 3419 
Q 3406 3131 3298 2873 
Q 3191 2616 2906 2266 
Q 2828 2175 2409 1742 
Q 1991 1309 1228 531 
z
" transform="scale(0.015625)"/>
       </defs>
       <use xlink:href="#DejaVuSans-2212"/>
       <use xlink:href="#DejaVuSans-32" x="83.789062"/>
      </g>
     </g>
    </g>
    <g id="xtick_3">
     <g id="line2d_3">
      <g>
       <use xlink:href="#m53422ab329" x="138.155259" y="320.4" style="stroke: #000000; stroke-width: 0.8"/>
      </g>
     </g>
     <g id="text_3">
      <!-- −1 -->
      <g transform="translate(130.784165 334.998438)scale(0.1 -0.1)">
       <defs>
        <path id="DejaVuSans-31" d="M 794 531 
L 1825 531 
L 1825 4091 
L 703 3866 
L 703 4441 
L 1819 4666 
L 2450 4666 
L 2450 531 
L 3481 531 
L 3481 0 
L 794 0 
L 794 531 
z
" transform="scale(0.015625)"/>
       </defs>
       <use xlink:href="#DejaVuSans-2212"/>
       <use xlink:href="#DejaVuSans-31" x="83.789062"/>
      </g>
     </g>
    </g>
    <g id="xtick_4">
     <g id="line2d_4">
      <g>
       <use xlink:href="#m53422ab329" x="184.732888" y="320.4" style="stroke: #000000; stroke-width: 0.8"/>
      </g>
     </g>
     <g id="text_4">
      <!-- 0 -->
      <g transform="translate(181.551638 334.998438)scale(0.1 -0.1)">
       <defs>
        <path id="DejaVuSans-30" d="M 2034 4250 
Q 1547 4250 1301 3770 
Q 1056 3291 1056 2328 
Q 1056 1369 1301 889 
Q 1547 409 2034 409 
Q 2525 409 2770 889 
Q 3016 1369 3016 2328 
Q 3016 3291 2770 3770 
Q 2525 4250 2034 4250 
z
M 2034 4750 
Q 2819 4750 3233 4129 
Q 3647 3509 3647 2328 
Q 3647 1150 3233 529 
Q 2819 -91 2034 -91 
Q 1250 -91 836 529 
Q 422 1150 422 2328 
Q 422 3509 836 4129 
Q 1250 4750 2034 4750 
z
" transform="scale(0.015625)"/>
       </defs>
       <use xlink:href="#DejaVuSans-30"/>
      </g>
     </g>
    </g>
    <g id="xtick_5">
     <g id="line2d_5">
      <g>
       <use xlink:href="#m53422ab329" x="231.310518" y="320.4" style="stroke: #000000; stroke-width: 0.8"/>
      </g>
     </g>
     <g id="text_5">
      <!-- 1 -->
      <g transform="translate(228.129268 334.998438)scale(0.1 -0.1)">
       <use xlink:href="#DejaVuSans-31"/>
      </g>
     </g>
    </g>
    <g id="xtick_6">
     <g id="line2d_6">
      <g>
       <use xlink:href="#m53422ab329" x="277.888147" y="320.4" style="stroke: #000000; stroke-width: 0.8"/>
      </g>
     </g>
     <g id="text_6">
      <!-- 2 -->
      <g transform="translate(274.706897 334.998438)scale(0.1 -0.1)">
       <use xlink:href="#DejaVuSans-32"/>
      </g>
     </g>
    </g>
   </g>
   <g id="matplotlib.axis_2">
    <g id="ytick_1">
     <g id="line2d_7">
      <defs>
       <path id="mdfacf285c8" d="M 0 0 
L -3.5 0 
" style="stroke: #000000; stroke-width: 0.8"/>
      </defs>
      <g>
       <use xlink:href="#mdfacf285c8" x="45" y="320.4" style="stroke: #000000; stroke-width: 0.8"/>
      </g>
     </g>
     <g id="text_7">
      <!-- −3 -->
      <g transform="translate(23.257812 324.199219)scale(0.1 -0.1)">
       <use xlink:href="#DejaVuSans-2212"/>
       <use xlink:href="#DejaVuSans-33" x="83.789062"/>
      </g>
     </g>
    </g>
    <g id="ytick_2">
     <g id="line2d_8">
      <g>
       <use xlink:href="#mdfacf285c8" x="45" y="274.122871" style="stroke: #000000; stroke-width: 0.8"/>
      </g>
     </g>
     <g id="text_8">
      <!-- −2 -->
      <g transform="translate(23.257812 277.92209)scale(0.1 -0.1)">
       <use xlink:href="#DejaVuSans-2212"/>
       <use xlink:href="#DejaVuSans-32" x="83.789062"/>
      </g>
     </g>
    </g>
    <g id="ytick_3">
     <g id="line2d_9">
      <g>
       <use xlink:href="#mdfacf285c8" x="45" y="227.845743" style="stroke: #000000; stroke-width: 0.8"/>
      </g>
     </g>
     <g id="text_9">
      <!-- −1 -->
      <g transform="translate(23.257812 231.644962)scale(0.1 -0.1)">
       <use xlink:href="#DejaVuSans-2212"/>
       <use xlink:href="#DejaVuSans-31" x="83.789062"/>
      </g>
     </g>
    </g>
    <g id="ytick_4">
     <g id="line2d_10">
      <g>
       <use xlink:href="#mdfacf285c8" x="45" y="181.568614" style="stroke: #000000; stroke-width: 0.8"/>
      </g>
     </g>
     <g id="text_10">
      <!-- 0 -->
      <g transform="translate(31.6375 185.367833)scale(0.1 -0.1)">
       <use xlink:href="#DejaVuSans-30"/>
      </g>
     </g>
    </g>
    <g id="ytick_5">
     <g id="line2d_11">
      <g>
       <use xlink:href="#mdfacf285c8" x="45" y="135.291486" style="stroke: #000000; stroke-width: 0.8"/>
      </g>
     </g>
     <g id="text_11">
      <!-- 1 -->
      <g transform="translate(31.6375 139.090705)scale(0.1 -0.1)">
       <use xlink:href="#DejaVuSans-31"/>
      </g>
     </g>
    </g>
    <g id="ytick_6">
     <g id="line2d_12">
      <g>
       <use xlink:href="#mdfacf285c8" x="45" y="89.014357" style="stroke: #000000; stroke-width: 0.8"/>
      </g>
     </g>
     <g id="text_12">
      <!-- 2 -->
      <g transform="translate(31.6375 92.813576)scale(0.1 -0.1)">
       <use xlink:href="#DejaVuSans-32"/>
      </g>
     </g>
    </g>
   </g>
   <g id="PathCollection_2">
    <path d="M 179.143573 218.156647 
L 176.814691 217.572564 
L 172.547823 215.350918 
L 169.221416 212.57429 
L 167.964942 211.7234 
L 166.567613 210.992175 
L 164.883272 210.723205 
L 161.90985 210.858648 
L 160.250981 209.797663 
L 159.115192 208.970745 
L 156.545992 207.021035 
L 153.327732 202.856093 
L 151.92185 201.005008 
L 150.059276 199.153923 
L 149.433726 197.765609 
L 149.091084 196.840067 
L 148.667614 195.451753 
L 147.306222 192.675125 
L 146.947993 191.749583 
L 146.85226 191.286811 
L 147.017116 190.82404 
L 149.931146 186.659098 
L 150.731219 185.194926 
L 158.183639 175.359191 
L 159.901865 172.77596 
L 161.516153 170.462104 
L 161.997424 169.999332 
L 165.170284 164.846541 
L 165.63606 164.27624 
L 168.430718 162.11591 
L 168.896494 161.850382 
L 170.293823 161.823728 
L 171.691152 161.909513 
L 173.088481 162.22612 
L 176.814691 163.741179 
L 177.746244 164.178619 
L 179.609349 164.552236 
L 180.540902 164.473674 
L 185.198664 163.448407 
L 188.587546 162.594992 
L 190.322204 162.294459 
L 193.582638 162.269602 
L 196.377295 162.786777 
L 198.240401 163.116506 
L 200.569282 163.564035 
L 205.227045 165.885489 
L 206.75832 167.222705 
L 207.327235 168.148247 
L 207.739192 169.07379 
L 207.929203 170.924875 
L 208.021703 172.524468 
L 208.07812 174.164274 
L 207.707315 176.015359 
L 206.392415 178.791987 
L 204.858782 181.568614 
L 204.553713 182.031386 
L 202.138247 185.270785 
L 201.81447 186.196327 
L 201.035058 186.987783 
L 199.97493 188.047412 
L 199.171953 189.202266 
L 198.354481 190.82404 
L 193.075458 200.079466 
L 191.426007 208.409349 
L 190.78798 210.283473 
L 189.85263 212.111519 
L 188.924875 213.070734 
L 186.330391 215.350918 
L 186.130217 215.434293 
L 185.198664 215.669149 
L 184.061563 216.276461 
L 181.472454 218.19861 
L 180.075125 218.383292 
L 179.143573 218.156647 
L 179.143573 218.156647 
" clip-path="url(#p9b3b27f3e7)" style="fill: none; stroke-dasharray: 5.55,2.4; stroke-dashoffset: 0; stroke: #000000; stroke-width: 1.5"/>
   </g>
   <g id="PathCollection_3">
    <path d="M 178.21202 241.730555 
L 177.956936 241.728881 
L 177.746244 241.702022 
L 177.280467 241.650386 
L 176.814691 241.607277 
L 176.348915 241.531883 
L 175.883139 241.325266 
L 175.417362 241.267129 
L 175.391844 241.26611 
L 174.951586 241.117885 
L 174.48581 240.975662 
L 174.020033 240.817273 
L 173.87899 240.803339 
L 173.554257 240.696191 
L 173.088481 240.574286 
L 172.622705 240.434164 
L 172.285594 240.340568 
L 172.156928 240.296169 
L 171.691152 240.166234 
L 171.225376 240.036617 
L 170.759599 239.902732 
L 170.670865 239.877796 
L 170.293823 239.758333 
L 169.828047 239.634663 
L 169.36227 239.500294 
L 169.06669 239.415025 
L 168.896494 239.356807 
L 168.430718 239.229872 
L 167.964942 239.09719 
L 167.499165 238.962825 
L 167.462522 238.952254 
L 167.033389 238.818236 
L 166.567613 238.694089 
L 166.101836 238.559725 
L 165.858346 238.489482 
L 165.63606 238.414621 
L 165.170284 238.290992 
L 164.704508 238.156624 
L 164.25417 238.026711 
L 164.238731 238.02108 
L 163.772955 237.87878 
L 163.307179 237.75416 
L 162.841402 237.620118 
L 162.646194 237.56394 
L 162.375626 237.472972 
L 161.90985 237.324348 
L 161.444073 237.150306 
L 161.312577 237.101169 
L 160.978297 236.97496 
L 160.512521 236.771703 
L 160.280821 236.638397 
L 160.046745 236.501248 
L 159.580968 236.238274 
L 159.434581 236.175626 
L 159.115192 236.034642 
L 158.649416 235.865658 
L 158.262349 235.712855 
L 158.183639 235.671311 
L 157.717863 235.481959 
L 157.252087 235.314019 
L 157.090132 235.250083 
L 156.786311 235.097211 
L 156.320534 234.936091 
L 155.923508 234.787312 
L 155.854758 234.748252 
L 155.388982 234.533043 
L 154.923205 234.394629 
L 154.745673 234.324541 
L 154.457429 234.155911 
L 153.991653 233.977537 
L 153.599945 233.86177 
L 153.525876 233.826233 
L 153.0601 233.576916 
L 152.594324 233.429626 
L 152.499833 233.398998 
L 152.128548 233.203046 
L 151.743728 232.936227 
L 151.662771 232.861165 
L 151.244607 232.473456 
L 151.196995 232.429311 
L 150.745483 232.010684 
L 150.731219 231.997459 
L 150.265442 231.565593 
L 150.246373 231.547913 
L 149.799666 231.133749 
L 149.747241 231.085142 
L 149.33389 230.7019 
L 149.248113 230.622371 
L 148.868114 230.272822 
L 148.742515 230.159599 
L 148.402337 229.853379 
L 148.22843 229.696828 
L 147.936561 229.434092 
L 147.712222 229.234057 
L 147.470785 229.02262 
L 147.173505 228.771285 
L 147.005008 228.629103 
L 146.60495 228.308514 
L 146.539232 228.260187 
L 146.073456 227.917662 
L 145.975657 227.845743 
L 145.607679 227.575142 
L 145.346359 227.382972 
L 145.141903 227.23262 
L 144.717054 226.9202 
L 144.676127 226.890103 
L 144.210351 226.54758 
L 144.087759 226.457429 
L 143.744574 226.205056 
L 143.458464 225.994658 
L 143.278798 225.862535 
L 142.82916 225.531886 
L 142.813022 225.520019 
L 142.347245 225.155556 
L 142.252773 225.069115 
L 141.881469 224.709616 
L 141.774806 224.606344 
L 141.415693 224.258648 
L 141.296838 224.143573 
L 140.949917 223.807688 
L 140.813413 223.680801 
L 140.48414 223.371853 
L 140.313991 223.21803 
L 140.018364 222.950771 
L 139.802096 222.755259 
L 139.552588 222.529691 
L 139.290207 222.292487 
L 139.086811 222.10861 
L 138.778308 221.829716 
L 138.621035 221.687536 
L 138.266416 221.366945 
L 138.155259 221.266456 
L 137.75452 220.904174 
L 137.689482 220.845377 
L 137.242632 220.441402 
L 137.223706 220.424293 
L 136.75793 220.003219 
L 136.730732 219.978631 
L 136.292154 219.582133 
L 136.218846 219.51586 
L 135.826377 219.238637 
L 135.589347 219.053088 
L 135.360601 218.854968 
L 135.066611 218.590317 
L 134.894825 218.435672 
L 134.552537 218.127546 
L 134.429048 218.016386 
L 134.038443 217.664775 
L 133.963272 217.597106 
L 133.524362 217.202003 
L 133.497496 217.177409 
L 133.03172 216.758018 
L 133.01111 216.739232 
L 132.565943 216.276805 
L 132.565782 216.276461 
L 132.123428 215.813689 
L 132.100167 215.789345 
L 131.681246 215.350918 
L 131.634391 215.301879 
L 131.23908 214.888147 
L 131.168614 214.814399 
L 130.876023 214.425376 
L 130.702838 214.090364 
L 130.695707 213.962604 
L 130.370226 213.499833 
L 130.237062 213.268275 
L 130.212158 213.037062 
L 129.837973 212.57429 
L 129.771285 212.458323 
L 129.639285 212.111519 
L 129.305736 211.648748 
L 129.305509 211.648353 
L 129.039603 211.185977 
L 128.839733 210.838414 
L 128.832844 210.723205 
L 128.568431 210.260434 
L 128.373957 209.802334 
L 128.3738 209.797663 
L 128.179647 209.334891 
L 127.979051 208.87212 
L 127.90818 208.705187 
L 127.850456 208.409349 
L 127.630556 207.946578 
L 127.502308 207.483806 
L 127.442404 207.267661 
L 127.433251 207.021035 
L 127.255132 206.558264 
L 127.117538 206.095492 
L 126.989283 205.632721 
L 126.976628 205.587059 
L 126.95396 205.16995 
L 126.743122 204.707179 
L 126.60452 204.244407 
L 126.510851 203.906445 
L 126.507966 203.781636 
L 126.451253 203.318865 
L 126.230625 202.856093 
L 126.091498 202.393322 
L 126.045075 202.225823 
L 126.036109 201.930551 
L 125.885292 201.46778 
L 125.717627 201.005008 
L 125.579299 200.609998 
L 125.577655 200.542237 
L 125.51025 200.079466 
L 125.264173 199.616694 
L 125.113523 199.181653 
L 125.112887 199.153923 
L 125.080096 198.691152 
L 124.865083 198.228381 
L 124.688797 197.765609 
L 124.647746 197.625661 
L 124.638433 197.302838 
L 124.482637 196.840067 
L 124.355639 196.377295 
L 124.193873 195.914524 
L 124.18197 195.869593 
L 124.16499 195.451753 
L 124.00127 194.988982 
L 123.873834 194.52621 
L 123.716194 194.07411 
L 123.7159 194.063439 
L 123.680291 193.600668 
L 123.520215 193.137896 
L 123.454429 192.675125 
L 123.397114 192.212354 
L 123.446905 191.749583 
L 123.499344 191.286811 
L 123.5467 190.82404 
L 123.589681 190.361269 
L 123.682078 189.898497 
L 123.716194 189.438455 
L 123.716909 189.435726 
L 123.878284 188.972955 
L 124.005595 188.510184 
L 124.156462 188.047412 
L 124.18197 187.686631 
L 124.211175 187.584641 
L 124.369862 187.12187 
L 124.494828 186.659098 
L 124.633304 186.196327 
L 124.647746 185.957964 
L 124.715323 185.733556 
L 124.868233 185.270785 
L 124.987007 184.808013 
L 125.108183 184.345242 
L 125.113523 184.217079 
L 125.226091 183.882471 
L 125.369574 183.419699 
L 125.529595 182.956928 
L 125.579299 182.519603 
L 125.586997 182.494157 
L 125.753478 182.031386 
L 125.88054 181.568614 
L 126.034494 181.105843 
L 126.045075 180.872625 
L 126.129367 180.643072 
L 126.272982 180.180301 
L 126.469112 179.717529 
L 126.50984 179.254758 
L 126.510851 179.217557 
L 126.669222 178.791987 
L 126.940979 178.329215 
L 126.976628 178.066782 
L 127.098177 177.866444 
L 127.432217 177.403673 
L 127.442404 177.315874 
L 127.712881 176.940902 
L 127.90818 176.643375 
L 128.032706 176.47813 
L 128.365856 176.015359 
L 128.373957 175.941135 
L 128.656272 175.552588 
L 128.839733 175.272007 
L 128.976643 175.089816 
L 129.29926 174.627045 
L 129.305509 174.566396 
L 129.599838 174.164274 
L 129.771285 173.90102 
L 129.920787 173.701503 
L 130.23247 173.238731 
L 130.237062 173.191664 
L 130.543576 172.77596 
L 130.702838 172.530427 
L 130.865142 172.313189 
L 131.165511 171.850417 
L 131.168614 171.816919 
L 131.487502 171.387646 
L 131.634391 171.160249 
L 131.809715 170.924875 
L 132.099468 170.462104 
L 132.100167 170.456535 
L 132.4862 169.999332 
L 132.565943 169.858024 
L 132.826994 169.536561 
L 133.03172 169.234856 
L 133.157727 169.07379 
L 133.494001 168.611018 
L 133.497496 168.588624 
L 133.858715 168.148247 
L 133.963272 167.997233 
L 134.210543 167.685476 
L 134.429048 167.351008 
L 134.526395 167.222705 
L 134.889085 166.759933 
L 134.894825 166.74223 
L 135.252194 166.297162 
L 135.360601 166.133703 
L 135.591118 165.834391 
L 135.826377 165.509316 
L 135.93085 165.371619 
L 136.284154 164.908848 
L 136.292154 164.897055 
L 136.644387 164.446077 
L 136.75793 164.27359 
L 136.959145 163.983306 
L 137.223706 163.601625 
L 137.279914 163.520534 
L 137.607144 163.057763 
L 137.689482 162.929662 
L 137.921461 162.594992 
L 138.155259 162.257698 
L 138.242233 162.13222 
L 138.564815 161.669449 
L 138.621035 161.585738 
L 138.88378 161.206678 
L 139.086811 160.913767 
L 139.204552 160.743907 
L 139.525323 160.281135 
L 139.552588 160.241801 
L 139.846101 159.818364 
L 140.018364 159.588694 
L 140.200252 159.355593 
L 140.48414 159.026063 
L 140.622579 158.892821 
L 140.949917 158.584613 
L 141.092975 158.43005 
L 141.415693 157.979511 
L 141.424455 157.967279 
L 141.755923 157.504508 
L 141.881469 157.329236 
L 142.087401 157.041736 
L 142.347245 156.678967 
L 142.418876 156.578965 
L 142.752669 156.116194 
L 142.813022 156.028693 
L 143.081823 155.653422 
L 143.278798 155.378424 
L 143.413296 155.190651 
L 143.744574 154.728157 
L 143.744762 154.72788 
L 144.037318 154.265109 
L 144.210351 153.931583 
L 144.284083 153.802337 
L 144.573244 153.339566 
L 144.676127 153.134174 
L 144.828572 152.876795 
L 145.119257 152.414023 
L 145.141903 152.328472 
L 145.384231 151.951252 
L 145.607679 151.490309 
L 145.608726 151.488481 
L 145.919634 151.02571 
L 146.073456 150.74588 
L 146.189272 150.562938 
L 146.52647 150.100167 
L 146.539232 150.076138 
L 146.974331 149.637396 
L 147.005008 149.597642 
L 147.422761 149.174624 
L 147.470785 149.106599 
L 147.857719 148.711853 
L 147.936561 148.598802 
L 148.275757 148.249082 
L 148.402337 148.105518 
L 148.711928 147.786311 
L 148.868114 147.624677 
L 149.161392 147.323539 
L 149.33389 147.181546 
L 149.648307 146.860768 
L 149.799666 146.739407 
L 150.141889 146.397997 
L 150.265442 146.295029 
L 150.6994 145.935225 
L 150.731219 145.90873 
L 151.196995 145.542321 
L 151.273648 145.472454 
L 151.662771 145.163427 
L 151.856366 145.009683 
L 152.128548 144.793527 
L 152.538748 144.546912 
L 152.594324 144.517497 
L 153.0601 144.286652 
L 153.46909 144.08414 
L 153.525876 144.056022 
L 153.991653 143.825383 
L 154.403681 143.621369 
L 154.457429 143.594756 
L 154.923205 143.364125 
L 155.338274 143.158598 
L 155.388982 143.133489 
L 155.854758 142.90286 
L 156.272869 142.695826 
L 156.320534 142.672225 
L 156.786311 142.256806 
L 156.836589 142.233055 
L 157.252087 141.864522 
L 157.717863 141.778352 
L 157.72837 141.770284 
L 158.183639 141.330838 
L 158.2165 141.307513 
L 158.649416 140.89615 
L 159.115192 140.858271 
L 159.149476 140.844741 
L 159.580968 140.444003 
L 160.046745 140.403837 
L 160.121775 140.38197 
L 160.512521 140.039352 
L 160.978297 139.952852 
L 161.173308 139.919199 
L 161.444073 139.702249 
L 161.90985 139.521904 
L 162.375626 139.486562 
L 162.841402 139.481619 
L 163.307179 139.477401 
L 163.772955 139.471201 
L 164.238731 139.461189 
L 164.391148 139.456427 
L 164.704508 139.380982 
L 165.170284 139.268849 
L 165.63606 139.18476 
L 166.101836 139.146153 
L 166.567613 139.107564 
L 167.033389 139.058004 
L 167.499165 138.997424 
L 167.535045 138.993656 
L 167.964942 138.953982 
L 168.349435 138.993656 
L 168.430718 139.002044 
L 168.896494 139.050121 
L 169.36227 139.098183 
L 169.828047 139.146254 
L 170.293823 139.131915 
L 170.750349 138.993656 
L 170.759599 138.990602 
L 171.225376 138.836815 
L 171.691152 138.654434 
L 171.91895 138.530885 
L 172.156928 138.412573 
L 172.622705 138.327648 
L 173.088481 138.368223 
L 173.554257 138.406134 
L 174.020033 138.466492 
L 174.48581 138.514309 
L 174.792987 138.530885 
L 174.951586 138.57038 
L 175.417362 138.710088 
L 175.883139 138.834736 
L 176.348915 138.936759 
L 176.651436 138.993656 
L 176.814691 139.034309 
L 177.280467 139.150286 
L 177.746244 139.285697 
L 178.21202 139.396317 
L 178.509875 139.456427 
L 178.677796 139.498242 
L 179.143573 139.614224 
L 179.609349 139.734589 
L 180.075125 139.855375 
L 180.368334 139.919199 
L 180.540902 139.962168 
L 181.006678 140.078159 
L 181.472454 140.194137 
L 181.93823 140.313795 
L 182.226745 140.38197 
L 182.404007 140.42611 
L 182.869783 140.542089 
L 183.335559 140.658073 
L 183.801336 140.774057 
L 184.085198 140.844741 
L 184.267112 140.890039 
L 184.732888 141.006019 
L 185.198664 141.122004 
L 185.664441 141.237987 
L 185.943664 141.307513 
L 186.130217 141.353964 
L 186.595993 141.469951 
L 187.06177 141.58594 
L 187.527546 141.664303 
L 187.993322 141.674029 
L 188.459098 141.59261 
L 188.924875 141.498878 
L 189.390651 141.405148 
L 189.856427 141.31142 
L 189.875845 141.307513 
L 190.322204 141.217686 
L 190.78798 141.123956 
L 191.253756 141.030225 
L 191.719533 140.936492 
L 192.175461 140.844741 
L 192.185309 140.842796 
L 192.651085 140.749028 
L 193.116861 140.6553 
L 193.582638 140.568687 
L 194.048414 140.549698 
L 194.51419 140.513835 
L 194.979967 140.46881 
L 195.445743 140.423794 
L 195.878501 140.38197 
L 195.911519 140.378779 
L 196.377295 140.333755 
L 196.843072 140.288732 
L 197.308848 140.243715 
L 197.774624 140.198693 
L 198.240401 140.15367 
L 198.706177 140.10865 
L 199.171953 140.063627 
L 199.63773 140.018613 
L 200.103506 139.973586 
L 200.569282 139.928565 
L 200.68375 139.919199 
L 201.035058 139.890948 
L 201.500835 139.863434 
L 201.966611 139.913502 
L 202.01483 139.919199 
L 202.432387 139.96853 
L 202.898164 140.023555 
L 203.36394 140.078583 
L 203.829716 140.13361 
L 204.295492 140.188632 
L 204.761269 140.243656 
L 205.227045 140.298685 
L 205.692821 140.353711 
L 205.932014 140.38197 
L 206.158598 140.408739 
L 206.624374 140.550168 
L 207.09015 140.676545 
L 207.555927 140.778853 
L 207.821997 140.844741 
L 208.021703 140.895393 
L 208.487479 141.018748 
L 208.953255 141.142109 
L 209.419032 141.265466 
L 209.577792 141.307513 
L 209.884808 141.388822 
L 210.350584 141.517234 
L 210.816361 141.657471 
L 211.184055 141.770284 
L 211.282137 141.800377 
L 211.747913 141.943279 
L 212.213689 142.086194 
L 212.679466 142.229093 
L 212.692379 142.233055 
L 213.145242 142.371996 
L 213.611018 142.514899 
L 214.076795 142.657808 
L 214.200713 142.695826 
L 214.542571 142.801068 
L 215.008347 142.969422 
L 215.474124 143.144283 
L 215.512253 143.158598 
L 215.9399 143.319147 
L 216.405676 143.494012 
L 216.744915 143.621369 
L 216.871452 143.676155 
L 217.337229 144.048936 
L 217.370366 144.08414 
L 217.78053 144.546912 
L 217.803005 144.572029 
L 218.181355 145.009683 
L 218.268781 145.110813 
L 218.581423 145.472454 
L 218.734558 145.643956 
L 219.007502 145.935225 
L 219.200334 146.133942 
L 219.45657 146.397997 
L 219.66611 146.613928 
L 219.905639 146.860768 
L 220.131886 147.093924 
L 220.354702 147.323539 
L 220.597663 147.57391 
L 220.803774 147.786311 
L 221.063439 148.053896 
L 221.252846 148.249082 
L 221.529215 148.533886 
L 221.701914 148.711853 
L 221.994992 149.013872 
L 222.150986 149.174624 
L 222.460768 149.493856 
L 222.600057 149.637396 
L 222.926544 149.973848 
L 223.049123 150.100167 
L 223.392321 150.453837 
L 223.498194 150.562938 
L 223.858097 150.941253 
L 223.938525 151.02571 
L 224.323873 151.460675 
L 224.348504 151.488481 
L 224.758279 151.951252 
L 224.789649 151.986687 
L 225.167986 152.414023 
L 225.255426 152.519528 
L 225.489343 152.876795 
L 225.691172 153.339566 
L 225.721202 153.408423 
L 225.892993 153.802337 
L 226.094821 154.265109 
L 226.186978 154.476421 
L 226.296643 154.72788 
L 226.498469 155.190651 
L 226.652755 155.544417 
L 226.700294 155.653422 
L 226.902117 156.116194 
L 227.10394 156.578965 
L 227.118531 156.612421 
L 227.305765 157.041736 
L 227.507587 157.504508 
L 227.584307 157.680423 
L 227.709416 157.967279 
L 227.911244 158.43005 
L 228.050083 158.748403 
L 228.113067 158.892821 
L 228.314894 159.355593 
L 228.51586 159.816391 
L 228.51672 159.818364 
L 228.718548 160.281135 
L 228.920374 160.743907 
L 228.981636 160.884378 
L 229.122198 161.206678 
L 229.324022 161.669449 
L 229.447412 161.95238 
L 229.525845 162.13222 
L 229.727671 162.594992 
L 229.913189 163.020374 
L 229.929494 163.057763 
L 230.131321 163.520534 
L 230.272473 163.983306 
L 230.378965 164.410668 
L 230.387788 164.446077 
L 230.5031 164.908848 
L 230.619711 165.371619 
L 230.704892 165.834391 
L 230.71905 166.297162 
L 230.733213 166.759933 
L 230.749374 167.222705 
L 230.775477 167.685476 
L 230.822791 168.148247 
L 230.844741 168.38444 
L 230.865487 168.611018 
L 230.907865 169.07379 
L 230.950239 169.536561 
L 230.992614 169.999332 
L 231.034985 170.462104 
L 231.077364 170.924875 
L 231.119737 171.387646 
L 231.16211 171.850417 
L 231.163278 172.313189 
L 231.093984 172.77596 
L 231.024695 173.238731 
L 230.954871 173.701503 
L 230.883125 174.164274 
L 230.844741 174.409779 
L 230.810154 174.627045 
L 230.736488 175.089816 
L 230.662823 175.552588 
L 230.589154 176.015359 
L 230.486809 176.47813 
L 230.378965 176.80358 
L 230.333462 176.940902 
L 230.180114 177.403673 
L 230.026772 177.866444 
L 229.913189 178.209228 
L 229.87343 178.329215 
L 229.72008 178.791987 
L 229.566736 179.254758 
L 229.447412 179.614847 
L 229.413386 179.717529 
L 229.299966 180.180301 
L 229.252485 180.643072 
L 229.205007 181.105843 
L 229.114345 181.568614 
L 228.990305 182.031386 
L 228.981636 182.063156 
L 228.863129 182.494157 
L 228.735195 182.956928 
L 228.604991 183.419699 
L 228.51586 183.736462 
L 228.474775 183.882471 
L 228.344573 184.345242 
L 228.214364 184.808013 
L 228.084156 185.270785 
L 228.050083 185.391887 
L 227.953951 185.733556 
L 227.823743 186.196327 
L 227.693533 186.659098 
L 227.584307 187.047316 
L 227.563331 187.12187 
L 227.433122 187.584641 
L 227.302918 188.047412 
L 227.172704 188.510184 
L 227.118531 188.702726 
L 227.042501 188.972955 
L 226.912295 189.435726 
L 226.782092 189.898497 
L 226.652755 190.358186 
L 226.651887 190.361269 
L 226.521742 190.82404 
L 226.392156 191.286811 
L 226.262679 191.749583 
L 226.186978 191.89533 
L 226.011055 192.212354 
L 225.721202 192.662154 
L 225.712843 192.675125 
L 225.414621 193.137896 
L 225.255426 193.384934 
L 225.116402 193.600668 
L 224.818179 194.063439 
L 224.789649 194.107711 
L 224.519966 194.52621 
L 224.323873 194.830503 
L 224.221747 194.988982 
L 223.923525 195.451753 
L 223.858097 195.553283 
L 223.625306 195.914524 
L 223.392321 196.276066 
L 223.327087 196.377295 
L 223.028868 196.840067 
L 222.926544 196.998848 
L 222.705653 197.302838 
L 222.460768 197.619042 
L 222.339296 197.765609 
L 221.994992 198.186335 
L 221.961375 198.228381 
L 221.597372 198.691152 
L 221.529215 198.777802 
L 221.233371 199.153923 
L 221.063439 199.369962 
L 220.869365 199.616694 
L 220.597663 199.962111 
L 220.505353 200.079466 
L 220.14135 200.542237 
L 220.131886 200.55431 
L 219.805789 201.005008 
L 219.66611 201.247214 
L 219.538912 201.46778 
L 219.27204 201.930551 
L 219.200334 202.054893 
L 219.005167 202.393322 
L 218.738289 202.856093 
L 218.734558 202.862564 
L 218.471415 203.318865 
L 218.268781 203.670234 
L 218.204536 203.781636 
L 217.937665 204.244407 
L 217.803005 204.477919 
L 217.670797 204.707179 
L 217.403921 205.16995 
L 217.337229 205.285597 
L 217.137048 205.632721 
L 216.879514 206.095492 
L 216.871452 206.110269 
L 216.627037 206.558264 
L 216.405676 206.964012 
L 216.374567 207.021035 
L 216.122091 207.483806 
L 215.9399 207.81775 
L 215.869615 207.946578 
L 215.617139 208.409349 
L 215.474124 208.681421 
L 215.374731 208.87212 
L 215.148635 209.334891 
L 215.008347 209.622032 
L 214.922538 209.797663 
L 214.69644 210.260434 
L 214.542571 210.575368 
L 214.47034 210.723205 
L 214.243807 211.185977 
L 214.076795 211.494977 
L 213.99594 211.648748 
L 213.739952 212.111519 
L 213.611018 212.344604 
L 213.483964 212.57429 
L 213.227983 213.037062 
L 213.145242 213.18664 
L 212.971996 213.499833 
L 212.716005 213.962604 
L 212.679466 214.028662 
L 212.460028 214.425376 
L 212.213689 214.870705 
L 212.204041 214.888147 
L 211.94806 215.350918 
L 211.747913 215.712734 
L 211.692068 215.813689 
L 211.436091 216.276461 
L 211.282137 216.554773 
L 211.1801 216.739232 
L 210.924119 217.202003 
L 210.816361 217.39681 
L 210.668136 217.664775 
L 210.412147 218.127546 
L 210.350584 218.23884 
L 210.156163 218.590317 
L 209.90018 219.053088 
L 209.884808 219.080879 
L 209.644195 219.51586 
L 209.419032 219.922906 
L 209.388207 219.978631 
L 209.132221 220.441402 
L 208.953255 220.764939 
L 208.876236 220.904174 
L 208.620252 221.366945 
L 208.487479 221.616125 
L 208.372422 221.829716 
L 208.131075 222.292487 
L 208.021703 222.502195 
L 207.889718 222.755259 
L 207.648368 223.21803 
L 207.555927 223.395278 
L 207.407013 223.680801 
L 207.165664 224.143573 
L 207.09015 224.288362 
L 206.950019 224.606344 
L 206.724729 225.069115 
L 206.624374 225.248988 
L 206.466536 225.531886 
L 206.208351 225.994658 
L 206.158598 226.082275 
L 205.944364 226.457429 
L 205.692821 226.896587 
L 205.679296 226.9202 
L 205.414232 227.382972 
L 205.227045 227.709775 
L 205.149166 227.845743 
L 204.884103 228.308514 
L 204.761269 228.522965 
L 204.628126 228.771285 
L 204.478706 229.234057 
L 204.532506 229.696828 
L 204.34514 230.159599 
L 204.295492 230.238817 
L 204.055112 230.622371 
L 203.829716 230.982007 
L 203.765079 231.085142 
L 203.475052 231.547913 
L 203.36394 231.725203 
L 203.17454 232.010684 
L 202.898164 232.436562 
L 202.861325 232.473456 
L 202.432387 232.903032 
L 202.406007 232.936227 
L 202.033082 233.398998 
L 201.966611 233.454744 
L 201.500835 233.708904 
L 201.220683 233.86177 
L 201.035058 233.963057 
L 200.569282 234.217216 
L 200.372592 234.324541 
L 200.103506 234.471369 
L 199.63773 234.725531 
L 199.524507 234.787312 
L 199.171953 234.96813 
L 198.706177 235.115823 
L 198.356586 235.250083 
L 198.240401 235.300275 
L 197.774624 235.49234 
L 197.308848 235.676424 
L 197.216671 235.712855 
L 196.843072 235.860508 
L 196.377295 236.044588 
L 196.045731 236.175626 
L 195.911519 236.228667 
L 195.445743 236.412751 
L 194.979967 236.596827 
L 194.874785 236.638397 
L 194.51419 236.793518 
L 194.048414 236.983293 
L 193.735878 237.101169 
L 193.582638 237.159893 
L 193.116861 237.338392 
L 192.651085 237.515728 
L 192.527112 237.56394 
L 192.185309 237.694105 
L 191.719533 237.860175 
L 191.253756 237.966641 
L 190.96724 238.026711 
L 190.78798 238.05112 
L 190.322204 238.161935 
L 189.856427 238.269488 
L 189.390651 238.397491 
L 189.094625 238.489482 
L 188.924875 238.509932 
L 188.459098 238.722174 
L 187.993322 238.892714 
L 187.848019 238.952254 
L 187.527546 238.969216 
L 187.06177 239.306432 
L 186.841436 239.415025 
L 186.595993 239.425377 
L 186.130302 239.877796 
L 186.130217 239.87784 
L 185.664441 239.921899 
L 185.225923 240.340568 
L 185.198664 240.347609 
L 184.732888 240.371416 
L 184.267112 240.694376 
L 184.087992 240.803339 
L 183.801336 240.814481 
L 183.335559 240.843064 
L 182.881357 241.26611 
L 182.869783 241.26979 
L 182.404007 241.280774 
L 181.93823 241.303509 
L 181.472454 241.32384 
L 181.006678 241.368022 
L 180.540902 241.545276 
L 180.108846 241.728881 
L 180.075125 241.729829 
L 179.609349 241.733137 
L 179.143573 241.736694 
L 178.677796 241.733644 
L 178.21202 241.730555 
z
" clip-path="url(#p9b3b27f3e7)" style="fill: none; stroke: #000000; stroke-width: 1.5"/>
   </g>
   <g id="PathCollection_4">
    <path d="M 174.48581 263.480787 
L 172.156928 263.349717 
L 155.974718 258.851419 
L 148.868114 256.942376 
L 146.073456 255.647136 
L 142.347245 254.197787 
L 139.888113 252.372621 
L 126.334258 241.728881 
L 122.231629 238.026711 
L 121.387312 237.206094 
L 118.11751 233.398998 
L 114.694307 228.771285 
L 113.762915 227.845743 
L 107.8798 218.870449 
L 106.189732 216.276461 
L 102.290484 205.457906 
L 101.702767 203.781636 
L 101.221434 201.46778 
L 100.53128 196.840067 
L 100.427379 193.381199 
L 101.403456 187.12187 
L 108.133418 166.297162 
L 109.277129 164.379295 
L 119.628028 148.249082 
L 120.921536 146.723229 
L 123.879084 142.695826 
L 126.510851 138.961303 
L 127.960326 136.6798 
L 130.702838 133.858043 
L 132.601864 132.052087 
L 139.631101 125.110518 
L 141.616732 123.722204 
L 148.868114 119.838794 
L 154.923205 117.4392 
L 155.854758 117.194757 
L 160.512521 116.691256 
L 163.307179 116.252265 
L 173.554257 115.996661 
L 179.609349 116.418297 
L 186.595993 117.40338 
L 191.719533 118.284536 
L 194.048414 118.4642 
L 197.774624 118.414182 
L 199.171953 118.49276 
L 201.500835 118.247714 
L 208.021703 117.556587 
L 210.350584 117.671806 
L 212.679466 117.954586 
L 219.66611 120.249682 
L 223.392321 121.533325 
L 228.050083 123.745734 
L 232.707846 125.638128 
L 236.576904 129.275459 
L 244.318477 137.605342 
L 244.81803 138.628741 
L 250.664119 151.02571 
L 253.435489 157.967279 
L 254.938915 166.297162 
L 254.850199 168.611018 
L 254.220927 172.313189 
L 253.864139 175.552588 
L 254.126935 182.956928 
L 253.622236 185.733556 
L 252.079882 191.286811 
L 250.394732 196.840067 
L 247.146912 202.0616 
L 240.074982 213.499833 
L 236.899833 219.207899 
L 235.036728 222.976316 
L 227.800727 237.56394 
L 226.643769 239.415025 
L 224.194829 242.654424 
L 221.529215 247.192124 
L 220.597663 247.963275 
L 219.644467 248.207679 
L 216.871452 251.096368 
L 215.9399 252.008484 
L 206.624374 257.722697 
L 202.898164 259.404319 
L 201.500835 260.010916 
L 197.308848 260.960107 
L 190.78798 262.113134 
L 184.732888 263.717889 
L 183.335559 263.732424 
L 174.48581 263.480787 
L 174.48581 263.480787 
" clip-path="url(#p9b3b27f3e7)" style="fill: none; stroke: #000000; stroke-width: 1.5"/>
   </g>
   <g id="patch_3">
    <path d="M 45 320.4 
L 45 43.2 
" style="fill: none; stroke: #000000; stroke-width: 0.8; stroke-linejoin: miter; stroke-linecap: square"/>
   </g>
   <g id="patch_4">
    <path d="M 324 320.4 
L 324 43.2 
" style="fill: none; stroke: #000000; stroke-width: 0.8; stroke-linejoin: miter; stroke-linecap: square"/>
   </g>
   <g id="patch_5">
    <path d="M 45 320.4 
L 324 320.4 
" style="fill: none; stroke: #000000; stroke-width: 0.8; stroke-linejoin: miter; stroke-linecap: square"/>
   </g>
   <g id="patch_6">
    <path d="M 45 43.2 
L 324 43.2 
" style="fill: none; stroke: #000000; stroke-width: 0.8; stroke-linejoin: miter; stroke-linecap: square"/>
   </g>
  </g>
 </g>
 <defs>
  <clipPath id="p9b3b27f3e7">
   <rect x="45" y="43.2" width="279" height="277.2"/>
  </clipPath>
 </defs>
</svg>
