<?xml version="1.0" encoding="utf-8" standalone="no"?>
<!DOCTYPE svg PUBLIC "-//W3C//DTD SVG 1.1//EN"
  "http://www.w3.org/Graphics/SVG/1.1/DTD/svg11.dtd">
<svg xmlns:xlink="http://www.w3.org/1999/xlink" width="360pt" height="360pt" viewBox="0 0 360 360" xmlns="http://www.w3.org/2000/svg" version="1.1">
 <metadata>
  <rdf:RDF xmlns:dc="http://purl.org/dc/elements/1.1/" xmlns:cc="http://creativecommons.org/ns#" xmlns:rdf="http://www.w3.org/1999/02/22-rdf-syntax-ns#">
   <cc:Work>
    <dc:type rdf:resource="http://purl.org/dc/dcmitype/StillImage"/>
    <dc:date>2022-04-10T19:53:27.398110</dc:date>
    <dc:format>image/svg+xml</dc:format>
    <dc:creator>
     <cc:Agent>
      <dc:title>Matplotlib v3.5.1, https://matplotlib.org/</dc:title>
     </cc:Agent>
    </dc:creator>
   </cc:Work>
  </rdf:RDF>
 </metadata>
 <defs>
  <style type="text/css">*{stroke-linejoin: round; stroke-linecap: butt}</style>
 </defs>
 <g id="figure_1">
  <g id="patch_1">
   <path d="M 0 360 
L 360 360 
L 360 0 
L 0 0 
z
" style="fill: #ffffff"/>
  </g>
  <g id="axes_1">
   <g id="patch_2">
    <path d="M 45 320.4 
L 324 320.4 
L 324 43.2 
L 45 43.2 
z
" style="fill: #ffffff"/>
   </g>
   <g id="PathCollection_1">
    <defs>
     <path id="m2b7e785909" d="M 0 0.5 
C 0.132602 0.5 0.25979 0.447317 0.353553 0.353553 
C 0.447317 0.25979 0.5 0.132602 0.5 0 
C 0.5 -0.132602 0.447317 -0.25979 0.353553 -0.353553 
C 0.25979 -0.447317 0.132602 -0.5 0 -0.5 
C -0.132602 -0.5 -0.25979 -0.447317 -0.353553 -0.353553 
C -0.447317 -0.25979 -0.5 -0.132602 -0.5 0 
C -0.5 0.132602 -0.447317 0.25979 -0.353553 0.353553 
C -0.25979 0.447317 -0.132602 0.5 0 0.5 
z
" style="stroke: #ff0000"/>
    </defs>
    <g clip-path="url(#pdac364f8f1)">
     <use xlink:href="#m2b7e785909" x="241.136558" y="181.336455" style="fill: #ff0000; stroke: #ff0000"/>
     <use xlink:href="#m2b7e785909" x="242.582174" y="175.698422" style="fill: #ff0000; stroke: #ff0000"/>
     <use xlink:href="#m2b7e785909" x="243.167969" y="169.834164" style="fill: #ff0000; stroke: #ff0000"/>
     <use xlink:href="#m2b7e785909" x="242.863166" y="163.887018" style="fill: #ff0000; stroke: #ff0000"/>
     <use xlink:href="#m2b7e785909" x="241.678585" y="157.997117" style="fill: #ff0000; stroke: #ff0000"/>
     <use xlink:href="#m2b7e785909" x="239.650676" y="152.295759" style="fill: #ff0000; stroke: #ff0000"/>
     <use xlink:href="#m2b7e785909" x="236.829368" y="146.906403" style="fill: #ff0000; stroke: #ff0000"/>
     <use xlink:href="#m2b7e785909" x="233.274627" y="141.946821" style="fill: #ff0000; stroke: #ff0000"/>
     <use xlink:href="#m2b7e785909" x="229.06222" y="137.525279" style="fill: #ff0000; stroke: #ff0000"/>
     <use xlink:href="#m2b7e785909" x="224.29267" y="133.7266" style="fill: #ff0000; stroke: #ff0000"/>
     <use xlink:href="#m2b7e785909" x="219.092372" y="130.593064" style="fill: #ff0000; stroke: #ff0000"/>
     <use xlink:href="#m2b7e785909" x="213.598722" y="128.115032" style="fill: #ff0000; stroke: #ff0000"/>
     <use xlink:href="#m2b7e785909" x="207.934142" y="126.245528" style="fill: #ff0000; stroke: #ff0000"/>
     <use xlink:href="#m2b7e785909" x="202.186508" y="124.936114" style="fill: #ff0000; stroke: #ff0000"/>
     <use xlink:href="#m2b7e785909" x="196.411341" y="124.170837" style="fill: #ff0000; stroke: #ff0000"/>
     <use xlink:href="#m2b7e785909" x="190.653165" y="123.971839" style="fill: #ff0000; stroke: #ff0000"/>
     <use xlink:href="#m2b7e785909" x="184.966555" y="124.370784" style="fill: #ff0000; stroke: #ff0000"/>
     <use xlink:href="#m2b7e785909" x="179.41826" y="125.367109" style="fill: #ff0000; stroke: #ff0000"/>
     <use xlink:href="#m2b7e785909" x="174.068916" y="126.903783" style="fill: #ff0000; stroke: #ff0000"/>
     <use xlink:href="#m2b7e785909" x="168.949906" y="128.877281" style="fill: #ff0000; stroke: #ff0000"/>
     <use xlink:href="#m2b7e785909" x="164.054278" y="131.175473" style="fill: #ff0000; stroke: #ff0000"/>
     <use xlink:href="#m2b7e785909" x="159.351155" y="133.722592" style="fill: #ff0000; stroke: #ff0000"/>
     <use xlink:href="#m2b7e785909" x="154.820146" y="136.510244" style="fill: #ff0000; stroke: #ff0000"/>
     <use xlink:href="#m2b7e785909" x="150.492987" y="139.601298" style="fill: #ff0000; stroke: #ff0000"/>
     <use xlink:href="#m2b7e785909" x="146.484641" y="143.102811" style="fill: #ff0000; stroke: #ff0000"/>
     <use xlink:href="#m2b7e785909" x="142.995594" y="147.114001" style="fill: #ff0000; stroke: #ff0000"/>
     <use xlink:href="#m2b7e785909" x="140.273532" y="151.666195" style="fill: #ff0000; stroke: #ff0000"/>
     <use xlink:href="#m2b7e785909" x="138.53809" y="156.68003" style="fill: #ff0000; stroke: #ff0000"/>
     <use xlink:href="#m2b7e785909" x="137.89243" y="161.963512" style="fill: #ff0000; stroke: #ff0000"/>
     <use xlink:href="#m2b7e785909" x="138.258633" y="167.259173" style="fill: #ff0000; stroke: #ff0000"/>
     <use xlink:href="#m2b7e785909" x="139.36974" y="172.325199" style="fill: #ff0000; stroke: #ff0000"/>
     <use xlink:href="#m2b7e785909" x="140.82893" y="177.017324" style="fill: #ff0000; stroke: #ff0000"/>
     <use xlink:href="#m2b7e785909" x="142.218041" y="181.336455" style="fill: #ff0000; stroke: #ff0000"/>
     <use xlink:href="#m2b7e785909" x="143.21812" y="185.421789" style="fill: #ff0000; stroke: #ff0000"/>
     <use xlink:href="#m2b7e785909" x="143.701554" y="189.491618" style="fill: #ff0000; stroke: #ff0000"/>
     <use xlink:href="#m2b7e785909" x="143.765893" y="193.753906" style="fill: #ff0000; stroke: #ff0000"/>
     <use xlink:href="#m2b7e785909" x="143.697755" y="198.320267" style="fill: #ff0000; stroke: #ff0000"/>
     <use xlink:href="#m2b7e785909" x="143.877512" y="203.157312" style="fill: #ff0000; stroke: #ff0000"/>
     <use xlink:href="#m2b7e785909" x="144.65755" y="208.096306" style="fill: #ff0000; stroke: #ff0000"/>
     <use xlink:href="#m2b7e785909" x="146.259733" y="212.897382" style="fill: #ff0000; stroke: #ff0000"/>
     <use xlink:href="#m2b7e785909" x="148.730785" y="217.338446" style="fill: #ff0000; stroke: #ff0000"/>
     <use xlink:href="#m2b7e785909" x="151.966917" y="221.287209" style="fill: #ff0000; stroke: #ff0000"/>
     <use xlink:href="#m2b7e785909" x="155.786167" y="224.726241" style="fill: #ff0000; stroke: #ff0000"/>
     <use xlink:href="#m2b7e785909" x="160.00893" y="227.727645" style="fill: #ff0000; stroke: #ff0000"/>
     <use xlink:href="#m2b7e785909" x="164.513201" y="230.396648" style="fill: #ff0000; stroke: #ff0000"/>
     <use xlink:href="#m2b7e785909" x="169.251054" y="232.80928" style="fill: #ff0000; stroke: #ff0000"/>
     <use xlink:href="#m2b7e785909" x="174.230452" y="234.962272" style="fill: #ff0000; stroke: #ff0000"/>
     <use xlink:href="#m2b7e785909" x="179.473774" y="236.745799" style="fill: #ff0000; stroke: #ff0000"/>
     <use xlink:href="#m2b7e785909" x="184.966555" y="237.947771" style="fill: #ff0000; stroke: #ff0000"/>
     <use xlink:href="#m2b7e785909" x="190.613068" y="238.29659" style="fill: #ff0000; stroke: #ff0000"/>
     <use xlink:href="#m2b7e785909" x="196.218695" y="237.539825" style="fill: #ff0000; stroke: #ff0000"/>
     <use xlink:href="#m2b7e785909" x="201.515493" y="235.539027" style="fill: #ff0000; stroke: #ff0000"/>
     <use xlink:href="#m2b7e785909" x="206.232205" y="232.345051" style="fill: #ff0000; stroke: #ff0000"/>
     <use xlink:href="#m2b7e785909" x="210.1871" y="228.21636" style="fill: #ff0000; stroke: #ff0000"/>
     <use xlink:href="#m2b7e785909" x="213.364099" y="223.56219" style="fill: #ff0000; stroke: #ff0000"/>
     <use xlink:href="#m2b7e785909" x="215.933536" y="218.826389" style="fill: #ff0000; stroke: #ff0000"/>
     <use xlink:href="#m2b7e785909" x="218.201804" y="214.357282" style="fill: #ff0000; stroke: #ff0000"/>
     <use xlink:href="#m2b7e785909" x="220.507561" y="210.316025" style="fill: #ff0000; stroke: #ff0000"/>
     <use xlink:href="#m2b7e785909" x="223.107489" y="206.656993" style="fill: #ff0000; stroke: #ff0000"/>
     <use xlink:href="#m2b7e785909" x="226.098509" y="203.1801" style="fill: #ff0000; stroke: #ff0000"/>
     <use xlink:href="#m2b7e785909" x="229.403705" y="199.624173" style="fill: #ff0000; stroke: #ff0000"/>
     <use xlink:href="#m2b7e785909" x="232.816751" y="195.758007" style="fill: #ff0000; stroke: #ff0000"/>
     <use xlink:href="#m2b7e785909" x="236.073679" y="191.436708" style="fill: #ff0000; stroke: #ff0000"/>
     <use xlink:href="#m2b7e785909" x="238.917314" y="186.615859" style="fill: #ff0000; stroke: #ff0000"/>
    </g>
   </g>
   <g id="matplotlib.axis_1">
    <g id="xtick_1">
     <g id="line2d_1">
      <defs>
       <path id="mfe84b1e78a" d="M 0 0 
L 0 3.5 
" style="stroke: #000000; stroke-width: 0.8"/>
      </defs>
      <g>
       <use xlink:href="#mfe84b1e78a" x="45" y="320.4" style="stroke: #000000; stroke-width: 0.8"/>
      </g>
     </g>
     <g id="text_1">
      <!-- −3 -->
      <g transform="translate(37.628906 334.998438)scale(0.1 -0.1)">
       <defs>
        <path id="DejaVuSans-2212" d="M 678 2272 
L 4684 2272 
L 4684 1741 
L 678 1741 
L 678 2272 
z
" transform="scale(0.015625)"/>
        <path id="DejaVuSans-33" d="M 2597 2516 
Q 3050 2419 3304 2112 
Q 3559 1806 3559 1356 
Q 3559 666 3084 287 
Q 2609 -91 1734 -91 
Q 1441 -91 1130 -33 
Q 819 25 488 141 
L 488 750 
Q 750 597 1062 519 
Q 1375 441 1716 441 
Q 2309 441 2620 675 
Q 2931 909 2931 1356 
Q 2931 1769 2642 2001 
Q 2353 2234 1838 2234 
L 1294 2234 
L 1294 2753 
L 1863 2753 
Q 2328 2753 2575 2939 
Q 2822 3125 2822 3475 
Q 2822 3834 2567 4026 
Q 2313 4219 1838 4219 
Q 1578 4219 1281 4162 
Q 984 4106 628 3988 
L 628 4550 
Q 988 4650 1302 4700 
Q 1616 4750 1894 4750 
Q 2613 4750 3031 4423 
Q 3450 4097 3450 3541 
Q 3450 3153 3228 2886 
Q 3006 2619 2597 2516 
z
" transform="scale(0.015625)"/>
       </defs>
       <use xlink:href="#DejaVuSans-2212"/>
       <use xlink:href="#DejaVuSans-33" x="83.789062"/>
      </g>
     </g>
    </g>
    <g id="xtick_2">
     <g id="line2d_2">
      <g>
       <use xlink:href="#mfe84b1e78a" x="91.655518" y="320.4" style="stroke: #000000; stroke-width: 0.8"/>
      </g>
     </g>
     <g id="text_2">
      <!-- −2 -->
      <g transform="translate(84.284425 334.998438)scale(0.1 -0.1)">
       <defs>
        <path id="DejaVuSans-32" d="M 1228 531 
L 3431 531 
L 3431 0 
L 469 0 
L 469 531 
Q 828 903 1448 1529 
Q 2069 2156 2228 2338 
Q 2531 2678 2651 2914 
Q 2772 3150 2772 3378 
Q 2772 3750 2511 3984 
Q 2250 4219 1831 4219 
Q 1534 4219 1204 4116 
Q 875 4013 500 3803 
L 500 4441 
Q 881 4594 1212 4672 
Q 1544 4750 1819 4750 
Q 2544 4750 2975 4387 
Q 3406 4025 3406 3419 
Q 3406 3131 3298 2873 
Q 3191 2616 2906 2266 
Q 2828 2175 2409 1742 
Q 1991 1309 1228 531 
z
" transform="scale(0.015625)"/>
       </defs>
       <use xlink:href="#DejaVuSans-2212"/>
       <use xlink:href="#DejaVuSans-32" x="83.789062"/>
      </g>
     </g>
    </g>
    <g id="xtick_3">
     <g id="line2d_3">
      <g>
       <use xlink:href="#mfe84b1e78a" x="138.311037" y="320.4" style="stroke: #000000; stroke-width: 0.8"/>
      </g>
     </g>
     <g id="text_3">
      <!-- −1 -->
      <g transform="translate(130.939943 334.998438)scale(0.1 -0.1)">
       <defs>
        <path id="DejaVuSans-31" d="M 794 531 
L 1825 531 
L 1825 4091 
L 703 3866 
L 703 4441 
L 1819 4666 
L 2450 4666 
L 2450 531 
L 3481 531 
L 3481 0 
L 794 0 
L 794 531 
z
" transform="scale(0.015625)"/>
       </defs>
       <use xlink:href="#DejaVuSans-2212"/>
       <use xlink:href="#DejaVuSans-31" x="83.789062"/>
      </g>
     </g>
    </g>
    <g id="xtick_4">
     <g id="line2d_4">
      <g>
       <use xlink:href="#mfe84b1e78a" x="184.966555" y="320.4" style="stroke: #000000; stroke-width: 0.8"/>
      </g>
     </g>
     <g id="text_4">
      <!-- 0 -->
      <g transform="translate(181.785305 334.998438)scale(0.1 -0.1)">
       <defs>
        <path id="DejaVuSans-30" d="M 2034 4250 
Q 1547 4250 1301 3770 
Q 1056 3291 1056 2328 
Q 1056 1369 1301 889 
Q 1547 409 2034 409 
Q 2525 409 2770 889 
Q 3016 1369 3016 2328 
Q 3016 3291 2770 3770 
Q 2525 4250 2034 4250 
z
M 2034 4750 
Q 2819 4750 3233 4129 
Q 3647 3509 3647 2328 
Q 3647 1150 3233 529 
Q 2819 -91 2034 -91 
Q 1250 -91 836 529 
Q 422 1150 422 2328 
Q 422 3509 836 4129 
Q 1250 4750 2034 4750 
z
" transform="scale(0.015625)"/>
       </defs>
       <use xlink:href="#DejaVuSans-30"/>
      </g>
     </g>
    </g>
    <g id="xtick_5">
     <g id="line2d_5">
      <g>
       <use xlink:href="#mfe84b1e78a" x="231.622074" y="320.4" style="stroke: #000000; stroke-width: 0.8"/>
      </g>
     </g>
     <g id="text_5">
      <!-- 1 -->
      <g transform="translate(228.440824 334.998438)scale(0.1 -0.1)">
       <use xlink:href="#DejaVuSans-31"/>
      </g>
     </g>
    </g>
    <g id="xtick_6">
     <g id="line2d_6">
      <g>
       <use xlink:href="#mfe84b1e78a" x="278.277592" y="320.4" style="stroke: #000000; stroke-width: 0.8"/>
      </g>
     </g>
     <g id="text_6">
      <!-- 2 -->
      <g transform="translate(275.096342 334.998438)scale(0.1 -0.1)">
       <use xlink:href="#DejaVuSans-32"/>
      </g>
     </g>
    </g>
   </g>
   <g id="matplotlib.axis_2">
    <g id="ytick_1">
     <g id="line2d_7">
      <defs>
       <path id="m05e30a7c4b" d="M 0 0 
L -3.5 0 
" style="stroke: #000000; stroke-width: 0.8"/>
      </defs>
      <g>
       <use xlink:href="#m05e30a7c4b" x="45" y="320.4" style="stroke: #000000; stroke-width: 0.8"/>
      </g>
     </g>
     <g id="text_7">
      <!-- −3 -->
      <g transform="translate(23.257812 324.199219)scale(0.1 -0.1)">
       <use xlink:href="#DejaVuSans-2212"/>
       <use xlink:href="#DejaVuSans-33" x="83.789062"/>
      </g>
     </g>
    </g>
    <g id="ytick_2">
     <g id="line2d_8">
      <g>
       <use xlink:href="#m05e30a7c4b" x="45" y="274.045485" style="stroke: #000000; stroke-width: 0.8"/>
      </g>
     </g>
     <g id="text_8">
      <!-- −2 -->
      <g transform="translate(23.257812 277.844704)scale(0.1 -0.1)">
       <use xlink:href="#DejaVuSans-2212"/>
       <use xlink:href="#DejaVuSans-32" x="83.789062"/>
      </g>
     </g>
    </g>
    <g id="ytick_3">
     <g id="line2d_9">
      <g>
       <use xlink:href="#m05e30a7c4b" x="45" y="227.69097" style="stroke: #000000; stroke-width: 0.8"/>
      </g>
     </g>
     <g id="text_9">
      <!-- −1 -->
      <g transform="translate(23.257812 231.490189)scale(0.1 -0.1)">
       <use xlink:href="#DejaVuSans-2212"/>
       <use xlink:href="#DejaVuSans-31" x="83.789062"/>
      </g>
     </g>
    </g>
    <g id="ytick_4">
     <g id="line2d_10">
      <g>
       <use xlink:href="#m05e30a7c4b" x="45" y="181.336455" style="stroke: #000000; stroke-width: 0.8"/>
      </g>
     </g>
     <g id="text_10">
      <!-- 0 -->
      <g transform="translate(31.6375 185.135674)scale(0.1 -0.1)">
       <use xlink:href="#DejaVuSans-30"/>
      </g>
     </g>
    </g>
    <g id="ytick_5">
     <g id="line2d_11">
      <g>
       <use xlink:href="#m05e30a7c4b" x="45" y="134.98194" style="stroke: #000000; stroke-width: 0.8"/>
      </g>
     </g>
     <g id="text_11">
      <!-- 1 -->
      <g transform="translate(31.6375 138.781159)scale(0.1 -0.1)">
       <use xlink:href="#DejaVuSans-31"/>
      </g>
     </g>
    </g>
    <g id="ytick_6">
     <g id="line2d_12">
      <g>
       <use xlink:href="#m05e30a7c4b" x="45" y="88.627425" style="stroke: #000000; stroke-width: 0.8"/>
      </g>
     </g>
     <g id="text_12">
      <!-- 2 -->
      <g transform="translate(31.6375 92.426643)scale(0.1 -0.1)">
       <use xlink:href="#DejaVuSans-32"/>
      </g>
     </g>
    </g>
   </g>
   <g id="PathCollection_2">
    <path d="M 186.832776 215.723126 
L 184.966555 215.200873 
L 183.100334 214.47456 
L 181.234114 213.493165 
L 176.568562 210.77743 
L 175.526955 210.076254 
L 169.793238 204.513712 
L 168.72092 200.805351 
L 167.637883 196.1699 
L 167.481332 194.315719 
L 167.438307 193.388629 
L 167.886494 188.753177 
L 167.578893 185.971906 
L 167.237458 184.750997 
L 164.407971 178.555184 
L 163.321311 174.846823 
L 162.571906 172.742829 
L 161.950062 169.284281 
L 162.365835 167.4301 
L 162.831987 165.57592 
L 163.027293 163.721739 
L 162.906194 161.867559 
L 164.089217 159.086288 
L 166.304348 156.196684 
L 170.284834 152.596656 
L 171.90301 151.508739 
L 174.702341 149.795477 
L 177.501672 148.808744 
L 183.100334 147.003589 
L 185.899666 146.234436 
L 190.565217 144.930447 
L 191.498328 144.792393 
L 192.431438 144.535401 
L 193.364548 144.533533 
L 194.297659 144.77831 
L 196.16388 145.61688 
L 197.09699 146.145345 
L 198.10038 147.034114 
L 199.944471 147.961204 
L 202.695652 149.355887 
L 203.628763 149.886479 
L 205.89641 150.742475 
L 208.537511 151.669565 
L 212.959866 153.772509 
L 217.90198 160.013378 
L 218.591951 160.940468 
L 219.020193 161.867559 
L 219.659031 164.648829 
L 220.163515 168.357191 
L 220.250232 170.211371 
L 220.210485 171.138462 
L 219.309758 173.919732 
L 218.714404 175.773913 
L 217.625418 177.007809 
L 210.160535 184.575165 
L 207.160644 187.826087 
L 205.494983 190.632191 
L 204.147284 193.388629 
L 202.695652 197.441359 
L 201.563011 198.951171 
L 195.821927 206.367893 
L 194.082373 208.222074 
L 192.431438 210.25784 
L 189.062659 214.711706 
L 187.765886 215.53335 
L 186.832776 215.723126 
L 186.832776 215.723126 
" clip-path="url(#pdac364f8f1)" style="fill: none; stroke-dasharray: 5.55,2.4; stroke-dashoffset: 0; stroke: #000000; stroke-width: 1.5"/>
   </g>
   <g id="PathCollection_3">
    <path d="M 183.100334 238.822613 
L 182.917817 238.816054 
L 182.167224 238.563942 
L 181.234114 238.239898 
L 180.301003 237.88979 
L 180.271324 237.888963 
L 179.367893 237.578896 
L 178.434783 237.236061 
L 177.501672 236.964221 
L 177.36402 236.961873 
L 176.568562 236.801477 
L 175.635452 236.672751 
L 174.702341 236.505893 
L 173.769231 236.144317 
L 173.043509 236.034783 
L 172.83612 235.948374 
L 171.90301 235.579522 
L 171.015926 235.107692 
L 170.9699 235.074879 
L 170.036789 234.588577 
L 169.267721 234.180602 
L 169.103679 234.074513 
L 168.170569 233.627883 
L 167.518532 233.253512 
L 167.237458 233.086039 
L 166.304348 232.659413 
L 165.804993 232.326421 
L 165.371237 232.052678 
L 164.582624 231.399331 
L 164.438127 231.27761 
L 163.505017 230.636671 
L 163.284377 230.472241 
L 162.571906 229.996586 
L 162.031341 229.545151 
L 161.638796 229.225343 
L 160.966397 228.61806 
L 160.705686 228.400028 
L 159.919258 227.69097 
L 159.772575 227.561308 
L 158.878504 226.76388 
L 158.839465 226.725093 
L 157.906355 225.924948 
L 157.803223 225.836789 
L 156.973244 225.155298 
L 156.687765 224.909699 
L 156.040134 224.402368 
L 155.558873 223.982609 
L 155.107023 223.596011 
L 154.494118 223.055518 
L 154.173913 222.794684 
L 153.393408 222.128428 
L 153.240803 222.008168 
L 152.309362 221.201338 
L 152.307692 221.199669 
L 151.508624 220.274247 
L 151.374582 219.967551 
L 151.022778 219.347157 
L 150.492712 218.420067 
L 150.441472 218.347559 
L 149.834433 217.492977 
L 149.508361 216.985154 
L 149.170342 216.565886 
L 148.575251 215.818747 
L 148.426583 215.638796 
L 147.700213 214.711706 
L 147.64214 214.629389 
L 147.099359 213.784615 
L 146.802487 212.857525 
L 146.70903 212.66978 
L 146.330101 211.930435 
L 146.011978 211.003344 
L 145.77592 210.246318 
L 145.703129 210.076254 
L 145.306854 209.149164 
L 145.033353 208.222074 
L 144.842809 207.528511 
L 144.757151 207.294983 
L 144.423327 206.367893 
L 144.188438 205.440803 
L 143.983859 204.513712 
L 143.909699 204.314855 
L 143.616426 203.586622 
L 143.424726 202.659532 
L 143.311908 201.732441 
L 143.274305 200.805351 
L 143.281663 199.878261 
L 143.288966 198.951171 
L 143.297802 198.02408 
L 143.279634 197.09699 
L 143.236914 196.1699 
L 143.199733 195.242809 
L 143.158119 194.315719 
L 143.075644 193.388629 
L 142.976589 192.503298 
L 142.971881 192.461538 
L 142.865074 191.534448 
L 142.772806 190.607358 
L 142.69682 189.680268 
L 142.627104 188.753177 
L 142.520232 187.826087 
L 142.429755 186.898997 
L 142.372463 185.971906 
L 142.073586 185.044816 
L 142.043478 184.991702 
L 141.703515 184.117726 
L 141.521811 183.190635 
L 141.449404 182.263545 
L 141.304365 181.336455 
L 141.110368 180.567818 
L 141.099633 180.409365 
L 140.931523 179.482274 
L 140.718243 178.555184 
L 140.607218 177.628094 
L 140.506943 176.701003 
L 140.384595 175.773913 
L 140.192353 174.846823 
L 140.177258 174.813737 
L 139.876682 173.919732 
L 139.314308 172.992642 
L 139.244147 172.883971 
L 138.848613 172.065552 
L 138.424262 171.138462 
L 138.311037 170.954441 
L 137.936226 170.211371 
L 137.477768 169.284281 
L 137.377926 168.821144 
L 137.362622 168.357191 
L 137.28029 167.4301 
L 137.078142 166.50301 
L 136.928873 165.57592 
L 137.006604 164.648829 
L 137.291388 163.721739 
L 137.367992 162.794649 
L 137.377926 162.455517 
L 137.519753 161.867559 
L 137.672353 160.940468 
L 137.78209 160.013378 
L 137.934728 159.086288 
L 138.175467 158.159197 
L 138.29184 157.232107 
L 138.311037 156.680215 
L 138.394947 156.305017 
L 138.590671 155.377926 
L 138.837639 154.450836 
L 139.155257 153.523746 
L 139.244147 153.007507 
L 139.395797 152.596656 
L 139.609179 151.669565 
L 140.153159 150.742475 
L 140.177258 150.690627 
L 140.789066 149.815385 
L 141.110368 149.360652 
L 141.441638 148.888294 
L 142.043478 148.039208 
L 142.113768 147.961204 
L 142.743773 147.034114 
L 142.976589 146.712587 
L 143.399459 146.107023 
L 143.909699 145.381387 
L 144.068307 145.179933 
L 144.670646 144.252843 
L 144.842809 144.031271 
L 145.406244 143.325753 
L 145.77592 142.891842 
L 146.198272 142.398662 
L 146.70903 141.803143 
L 147.031564 141.471572 
L 147.64214 140.956502 
L 148.172421 140.544482 
L 148.575251 140.218636 
L 149.358028 139.617391 
L 149.508361 139.488928 
L 150.441472 138.768274 
L 150.550825 138.690301 
L 151.374582 138.147353 
L 151.965903 137.763211 
L 152.307692 137.529662 
L 153.240803 137.008688 
L 153.557156 136.83612 
L 154.173913 136.505934 
L 155.107023 136.052422 
L 155.360008 135.90903 
L 156.040134 135.552556 
L 156.973244 135.093843 
L 157.152138 134.98194 
L 157.906355 134.541566 
L 158.593021 134.054849 
L 158.839465 133.868129 
L 159.772575 133.226645 
L 159.90093 133.127759 
L 160.705686 132.557331 
L 161.187135 132.200669 
L 161.638796 131.854277 
L 162.388246 131.273579 
L 162.571906 131.123777 
L 163.505017 130.386411 
L 163.549505 130.346488 
L 164.438127 129.632582 
L 164.758692 129.419398 
L 165.371237 129.033168 
L 166.304348 128.526837 
L 166.357274 128.492308 
L 167.237458 128.014811 
L 168.170569 127.741279 
L 168.929343 127.565217 
L 169.103679 127.525742 
L 170.036789 127.318801 
L 170.9699 127.131701 
L 171.90301 126.926919 
L 172.83612 126.745147 
L 173.246069 126.638127 
L 173.769231 126.519607 
L 174.702341 126.364467 
L 175.635452 126.203797 
L 176.568562 126.028532 
L 177.501672 125.887188 
L 178.160496 125.711037 
L 178.434783 125.638306 
L 179.367893 125.39868 
L 180.301003 125.167684 
L 181.234114 124.964176 
L 182.167224 124.799337 
L 182.235097 124.783946 
L 183.100334 124.636688 
L 184.033445 124.497114 
L 184.966555 124.336731 
L 185.899666 124.126793 
L 186.832776 123.909808 
L 186.985265 123.856856 
L 187.765886 123.658224 
L 188.698997 123.447725 
L 189.632107 123.221115 
L 190.565217 123.016891 
L 190.839458 122.929766 
L 191.498328 122.767441 
L 192.431438 122.60505 
L 193.364548 122.429414 
L 194.297659 122.34969 
L 195.230769 122.416736 
L 196.16388 122.514816 
L 197.09699 122.620386 
L 198.0301 122.749531 
L 198.645162 122.929766 
L 198.963211 123.048137 
L 199.896321 123.320977 
L 200.829431 123.713964 
L 201.117826 123.856856 
L 201.762542 124.170803 
L 202.695652 124.639144 
L 202.972545 124.783946 
L 203.628763 125.115886 
L 204.561873 125.513531 
L 205.2972 125.711037 
L 205.494983 125.777882 
L 206.428094 126.003055 
L 207.361204 126.343442 
L 208.066906 126.638127 
L 208.294314 126.751199 
L 209.227425 127.103829 
L 210.160535 127.47023 
L 210.457517 127.565217 
L 211.093645 127.770017 
L 212.026756 127.919993 
L 212.959866 128.095984 
L 213.892977 128.269707 
L 214.826087 128.478016 
L 214.884633 128.492308 
L 215.759197 128.782111 
L 216.692308 129.136067 
L 217.416931 129.419398 
L 217.625418 129.51804 
L 218.558528 129.884088 
L 219.491639 130.272609 
L 219.670321 130.346488 
L 220.424749 130.660024 
L 221.35786 131.125434 
L 221.575296 131.273579 
L 222.29097 131.912994 
L 222.571408 132.200669 
L 223.22408 132.856991 
L 223.492355 133.127759 
L 224.157191 133.798783 
L 224.421706 134.054849 
L 225.090301 134.608416 
L 225.650246 134.98194 
L 226.023411 135.221982 
L 226.956522 135.65918 
L 227.484466 135.90903 
L 227.889632 136.143832 
L 228.822742 136.618765 
L 229.066001 136.83612 
L 229.755853 137.609193 
L 229.894451 137.763211 
L 230.688963 138.646849 
L 230.729752 138.690301 
L 231.622074 139.603419 
L 231.635869 139.617391 
L 232.555184 140.542114 
L 232.557154 140.544482 
L 233.344439 141.471572 
L 233.488294 141.616801 
L 234.158623 142.398662 
L 234.421405 142.705169 
L 234.953452 143.325753 
L 235.354515 143.793542 
L 235.692723 144.252843 
L 236.099016 145.179933 
L 236.287625 145.441243 
L 236.670566 146.107023 
L 237.21979 147.034114 
L 237.220736 147.035048 
L 237.776126 147.961204 
L 238.153846 148.596039 
L 238.350658 148.888294 
L 238.823147 149.815385 
L 239.086957 150.229493 
L 239.399342 150.742475 
L 239.802447 151.669565 
L 240.020067 152.065918 
L 240.276497 152.596656 
L 240.630238 153.523746 
L 240.953177 154.26522 
L 241.045005 154.450836 
L 241.499189 155.377926 
L 241.733276 156.305017 
L 241.886288 156.828876 
L 241.989648 157.232107 
L 242.191756 158.159197 
L 242.404396 159.086288 
L 242.587857 160.013378 
L 242.818142 160.940468 
L 242.819398 160.943989 
L 243.02954 161.867559 
L 243.20596 162.794649 
L 243.362905 163.721739 
L 243.478778 164.648829 
L 243.58191 165.57592 
L 243.703235 166.50301 
L 243.752508 166.790065 
L 243.838464 167.4301 
L 243.924684 168.357191 
L 243.995317 169.284281 
L 243.794232 170.211371 
L 243.752508 170.349294 
L 243.536529 171.138462 
L 243.370633 172.065552 
L 243.198025 172.992642 
L 243.010585 173.919732 
L 242.819398 174.673626 
L 242.764458 174.846823 
L 242.566322 175.773913 
L 242.400713 176.701003 
L 242.222031 177.628094 
L 242.000851 178.555184 
L 241.886288 178.950489 
L 241.735138 179.482274 
L 241.586239 180.409365 
L 241.404812 181.336455 
L 240.953177 182.109567 
L 240.844992 182.263545 
L 240.096505 183.190635 
L 240.020067 183.270718 
L 239.273655 184.117726 
L 239.086957 184.32007 
L 238.478802 185.044816 
L 238.153846 185.411095 
L 237.681903 185.971906 
L 237.220736 186.524051 
L 236.912037 186.898997 
L 236.287625 187.650784 
L 236.144522 187.826087 
L 235.366147 188.753177 
L 235.354515 188.767661 
L 234.716848 189.680268 
L 234.421405 190.107729 
L 234.111917 190.607358 
L 233.50131 191.534448 
L 233.488294 191.552513 
L 232.937505 192.461538 
L 232.555184 193.021122 
L 232.333182 193.388629 
L 231.750427 194.315719 
L 231.622074 194.492138 
L 231.163641 195.242809 
L 230.688963 195.912565 
L 230.516459 196.1699 
L 229.829514 197.09699 
L 229.755853 197.187424 
L 229.15945 198.02408 
L 228.822742 198.42877 
L 228.43206 198.951171 
L 227.889632 199.623007 
L 227.690204 199.878261 
L 226.956522 200.769787 
L 226.926316 200.805351 
L 226.196054 201.732441 
L 226.023411 201.928074 
L 225.477108 202.659532 
L 225.090301 203.145928 
L 224.766222 203.586622 
L 224.171225 204.513712 
L 224.157191 204.534238 
L 223.689204 205.440803 
L 223.254876 206.367893 
L 223.22408 206.418412 
L 222.776573 207.294983 
L 222.29097 208.157074 
L 222.249395 208.222074 
L 221.736539 209.149164 
L 221.35786 209.791823 
L 221.180244 210.076254 
L 220.593219 211.003344 
L 220.424749 211.277652 
L 220.030999 211.930435 
L 219.491639 212.783916 
L 219.444235 212.857525 
L 218.870763 213.784615 
L 218.558528 214.281115 
L 218.296427 214.711706 
L 217.668751 215.638796 
L 217.625418 215.703211 
L 217.097796 216.565886 
L 216.692308 217.246764 
L 216.553171 217.492977 
L 215.95385 218.420067 
L 215.759197 218.704744 
L 215.342012 219.347157 
L 214.826087 220.099745 
L 214.704481 220.274247 
L 214.086197 221.201338 
L 213.892977 221.489631 
L 213.498072 222.128428 
L 212.959866 222.946291 
L 212.880028 223.055518 
L 212.31227 223.982609 
L 212.026756 224.427747 
L 211.738381 224.909699 
L 211.093645 225.697947 
L 210.971163 225.836789 
L 210.160535 226.728003 
L 210.124391 226.76388 
L 209.297571 227.69097 
L 209.227425 227.769701 
L 208.482954 228.61806 
L 208.294314 228.824298 
L 207.641134 229.545151 
L 207.361204 229.841259 
L 206.787061 230.472241 
L 206.428094 230.851038 
L 205.927291 231.399331 
L 205.494983 231.857109 
L 205.087327 232.326421 
L 204.561873 232.934635 
L 204.319985 233.253512 
L 203.628763 234.145401 
L 203.594117 234.180602 
L 202.871568 235.107692 
L 202.695652 235.297224 
L 201.787903 236.034783 
L 201.762542 236.039298 
L 200.829431 236.544365 
L 199.896321 236.954266 
L 199.885194 236.961873 
L 198.963211 237.405508 
L 198.0301 237.745713 
L 197.749526 237.888963 
L 197.09699 238.105081 
L 196.16388 238.495455 
L 195.230769 238.808931 
L 195.21636 238.816054 
L 194.297659 239.012501 
L 193.364548 239.125356 
L 192.431438 239.214301 
L 191.498328 239.262743 
L 190.565217 239.224349 
L 189.632107 239.193367 
L 188.698997 239.123423 
L 187.765886 239.055646 
L 186.832776 238.996513 
L 185.899666 238.937318 
L 184.966555 238.871729 
L 184.033445 238.844306 
L 183.100334 238.822613 
z
" clip-path="url(#pdac364f8f1)" style="fill: none; stroke: #000000; stroke-width: 1.5"/>
   </g>
   <g id="PathCollection_4">
    <path d="M 196.16388 261.099773 
L 191.498328 260.928779 
L 188.698997 260.901342 
L 183.100334 260.655076 
L 180.301003 260.590809 
L 178.434783 260.407191 
L 177.501672 260.324745 
L 168.170569 257.824182 
L 162.571906 256.235309 
L 160.705686 255.279646 
L 150.441472 249.520889 
L 148.575251 248.271238 
L 145.77592 246.087971 
L 143.909699 244.564008 
L 140.177258 242.314833 
L 138.205312 240.670234 
L 132.712375 235.611707 
L 132.234904 235.107692 
L 131.248562 233.253512 
L 129.309011 229.545151 
L 127.572107 226.76388 
L 126.497077 224.909699 
L 122.293247 213.784615 
L 121.479441 211.930435 
L 120.770997 209.149164 
L 119.957483 202.659532 
L 119.630238 200.805351 
L 119.441779 196.1699 
L 119.472422 190.607358 
L 119.08221 187.826087 
L 118.919912 184.117726 
L 118.608338 183.190635 
L 116.805355 179.482274 
L 116.607998 178.555184 
L 116.535169 177.628094 
L 115.554781 172.992642 
L 114.867406 160.940468 
L 116.257987 153.523746 
L 117.062906 147.034114 
L 117.380129 144.252843 
L 117.782609 143.318402 
L 122.089322 136.83612 
L 126.329195 130.346488 
L 128.046823 128.092466 
L 130.865432 124.783946 
L 133.645485 122.628056 
L 137.377926 119.901382 
L 140.177258 117.893415 
L 144.378499 115.513043 
L 147.64214 113.444126 
L 151.693954 110.877592 
L 154.173913 109.327733 
L 156.040134 108.172075 
L 159.478302 106.24214 
L 159.772575 106.127053 
L 166.304348 104.609133 
L 172.399923 103.46087 
L 177.501672 102.039912 
L 179.367893 101.570337 
L 182.167224 101.250682 
L 188.698997 100.609973 
L 190.565217 100.316729 
L 193.364548 100.329971 
L 199.933249 100.679599 
L 203.628763 101.236709 
L 207.361204 101.404036 
L 209.227425 101.761275 
L 218.233902 105.31505 
L 222.29097 106.801682 
L 226.956522 108.717121 
L 233.054693 111.804682 
L 239.086957 115.353573 
L 241.193857 116.440134 
L 242.234139 117.367224 
L 252.506329 128.492308 
L 253.4326 129.419398 
L 254.126121 130.346488 
L 257.910836 136.83612 
L 259.615385 139.966808 
L 261.481605 143.361598 
L 263.470157 148.888294 
L 263.86319 150.742475 
L 264.280936 152.86003 
L 265.479158 157.232107 
L 265.849827 159.086288 
L 266.234591 161.867559 
L 266.894028 165.57592 
L 267.184798 167.4301 
L 267.056876 169.284281 
L 265.92684 177.628094 
L 263.829355 186.898997 
L 263.347826 187.874807 
L 261.754902 190.607358 
L 260.095319 194.315719 
L 258.637312 197.09699 
L 256.816054 199.92621 
L 254.915089 202.659532 
L 252.968214 205.440803 
L 250.284281 209.556886 
L 248.024726 212.857525 
L 242.819398 220.647467 
L 239.325614 225.836789 
L 237.220736 229.124888 
L 232.116994 236.034783 
L 226.641654 244.378595 
L 221.35786 249.273188 
L 217.366234 252.722408 
L 213.892977 255.33167 
L 203.628763 259.763228 
L 200.829431 260.773469 
L 197.09699 261.116927 
L 196.16388 261.099773 
L 196.16388 261.099773 
" clip-path="url(#pdac364f8f1)" style="fill: none; stroke: #000000; stroke-width: 1.5"/>
   </g>
   <g id="patch_3">
    <path d="M 45 320.4 
L 45 43.2 
" style="fill: none; stroke: #000000; stroke-width: 0.8; stroke-linejoin: miter; stroke-linecap: square"/>
   </g>
   <g id="patch_4">
    <path d="M 324 320.4 
L 324 43.2 
" style="fill: none; stroke: #000000; stroke-width: 0.8; stroke-linejoin: miter; stroke-linecap: square"/>
   </g>
   <g id="patch_5">
    <path d="M 45 320.4 
L 324 320.4 
" style="fill: none; stroke: #000000; stroke-width: 0.8; stroke-linejoin: miter; stroke-linecap: square"/>
   </g>
   <g id="patch_6">
    <path d="M 45 43.2 
L 324 43.2 
" style="fill: none; stroke: #000000; stroke-width: 0.8; stroke-linejoin: miter; stroke-linecap: square"/>
   </g>
  </g>
 </g>
 <defs>
  <clipPath id="pdac364f8f1">
   <rect x="45" y="43.2" width="279" height="277.2"/>
  </clipPath>
 </defs>
</svg>
