<?xml version="1.0" encoding="utf-8" standalone="no"?>
<!DOCTYPE svg PUBLIC "-//W3C//DTD SVG 1.1//EN"
  "http://www.w3.org/Graphics/SVG/1.1/DTD/svg11.dtd">
<svg xmlns:xlink="http://www.w3.org/1999/xlink" width="360pt" height="360pt" viewBox="0 0 360 360" xmlns="http://www.w3.org/2000/svg" version="1.1">
 <metadata>
  <rdf:RDF xmlns:dc="http://purl.org/dc/elements/1.1/" xmlns:cc="http://creativecommons.org/ns#" xmlns:rdf="http://www.w3.org/1999/02/22-rdf-syntax-ns#">
   <cc:Work>
    <dc:type rdf:resource="http://purl.org/dc/dcmitype/StillImage"/>
    <dc:date>2022-04-10T19:53:28.172829</dc:date>
    <dc:format>image/svg+xml</dc:format>
    <dc:creator>
     <cc:Agent>
      <dc:title>Matplotlib v3.5.1, https://matplotlib.org/</dc:title>
     </cc:Agent>
    </dc:creator>
   </cc:Work>
  </rdf:RDF>
 </metadata>
 <defs>
  <style type="text/css">*{stroke-linejoin: round; stroke-linecap: butt}</style>
 </defs>
 <g id="figure_1">
  <g id="patch_1">
   <path d="M 0 360 
L 360 360 
L 360 0 
L 0 0 
z
" style="fill: #ffffff"/>
  </g>
  <g id="axes_1">
   <g id="patch_2">
    <path d="M 45 320.4 
L 324 320.4 
L 324 43.2 
L 45 43.2 
z
" style="fill: #ffffff"/>
   </g>
   <g id="PathCollection_1">
    <defs>
     <path id="mfa15405250" d="M 0 0.5 
C 0.132602 0.5 0.25979 0.447317 0.353553 0.353553 
C 0.447317 0.25979 0.5 0.132602 0.5 0 
C 0.5 -0.132602 0.447317 -0.25979 0.353553 -0.353553 
C 0.25979 -0.447317 0.132602 -0.5 0 -0.5 
C -0.132602 -0.5 -0.25979 -0.447317 -0.353553 -0.353553 
C -0.447317 -0.25979 -0.5 -0.132602 -0.5 0 
C -0.5 0.132602 -0.447317 0.25979 -0.353553 0.353553 
C -0.25979 0.447317 -0.132602 0.5 0 0.5 
z
" style="stroke: #ff0000"/>
    </defs>
    <g clip-path="url(#p57eedf4e16)">
     <use xlink:href="#mfa15405250" x="244.876641" y="181.336455" style="fill: #ff0000; stroke: #ff0000"/>
     <use xlink:href="#mfa15405250" x="244.712783" y="175.489929" style="fill: #ff0000; stroke: #ff0000"/>
     <use xlink:href="#mfa15405250" x="243.312144" y="169.805671" style="fill: #ff0000; stroke: #ff0000"/>
     <use xlink:href="#mfa15405250" x="240.739247" y="164.527145" style="fill: #ff0000; stroke: #ff0000"/>
     <use xlink:href="#mfa15405250" x="237.155678" y="159.85848" style="fill: #ff0000; stroke: #ff0000"/>
     <use xlink:href="#mfa15405250" x="232.815729" y="155.925544" style="fill: #ff0000; stroke: #ff0000"/>
     <use xlink:href="#mfa15405250" x="228.032791" y="152.746167" style="fill: #ff0000; stroke: #ff0000"/>
     <use xlink:href="#mfa15405250" x="223.116262" y="150.229791" style="fill: #ff0000; stroke: #ff0000"/>
     <use xlink:href="#mfa15405250" x="218.302433" y="148.215647" style="fill: #ff0000; stroke: #ff0000"/>
     <use xlink:href="#mfa15405250" x="213.714216" y="146.533323" style="fill: #ff0000; stroke: #ff0000"/>
     <use xlink:href="#mfa15405250" x="209.367981" y="145.052748" style="fill: #ff0000; stroke: #ff0000"/>
     <use xlink:href="#mfa15405250" x="205.213927" y="143.700674" style="fill: #ff0000; stroke: #ff0000"/>
     <use xlink:href="#mfa15405250" x="201.178911" y="142.448883" style="fill: #ff0000; stroke: #ff0000"/>
     <use xlink:href="#mfa15405250" x="197.19094" y="141.298048" style="fill: #ff0000; stroke: #ff0000"/>
     <use xlink:href="#mfa15405250" x="193.187415" y="140.274039" style="fill: #ff0000; stroke: #ff0000"/>
     <use xlink:href="#mfa15405250" x="189.120619" y="139.431647" style="fill: #ff0000; stroke: #ff0000"/>
     <use xlink:href="#mfa15405250" x="184.966555" y="138.848338" style="fill: #ff0000; stroke: #ff0000"/>
     <use xlink:href="#mfa15405250" x="180.73005" y="138.600007" style="fill: #ff0000; stroke: #ff0000"/>
     <use xlink:href="#mfa15405250" x="176.436728" y="138.730778" style="fill: #ff0000; stroke: #ff0000"/>
     <use xlink:href="#mfa15405250" x="172.113408" y="139.238669" style="fill: #ff0000; stroke: #ff0000"/>
     <use xlink:href="#mfa15405250" x="167.770235" y="140.088707" style="fill: #ff0000; stroke: #ff0000"/>
     <use xlink:href="#mfa15405250" x="163.398378" y="141.245563" style="fill: #ff0000; stroke: #ff0000"/>
     <use xlink:href="#mfa15405250" x="158.987244" y="142.706511" style="fill: #ff0000; stroke: #ff0000"/>
     <use xlink:href="#mfa15405250" x="154.555252" y="144.519248" style="fill: #ff0000; stroke: #ff0000"/>
     <use xlink:href="#mfa15405250" x="150.184458" y="146.778759" style="fill: #ff0000; stroke: #ff0000"/>
     <use xlink:href="#mfa15405250" x="146.048013" y="149.602895" style="fill: #ff0000; stroke: #ff0000"/>
     <use xlink:href="#mfa15405250" x="142.416445" y="153.088807" style="fill: #ff0000; stroke: #ff0000"/>
     <use xlink:href="#mfa15405250" x="139.628059" y="157.258872" style="fill: #ff0000; stroke: #ff0000"/>
     <use xlink:href="#mfa15405250" x="138.017779" y="162.015098" style="fill: #ff0000; stroke: #ff0000"/>
     <use xlink:href="#mfa15405250" x="137.817056" y="167.126086" style="fill: #ff0000; stroke: #ff0000"/>
     <use xlink:href="#mfa15405250" x="139.056316" y="172.263257" style="fill: #ff0000; stroke: #ff0000"/>
     <use xlink:href="#mfa15405250" x="141.511249" y="177.084094" style="fill: #ff0000; stroke: #ff0000"/>
     <use xlink:href="#mfa15405250" x="144.728133" y="181.336455" style="fill: #ff0000; stroke: #ff0000"/>
     <use xlink:href="#mfa15405250" x="148.136655" y="184.940481" style="fill: #ff0000; stroke: #ff0000"/>
     <use xlink:href="#mfa15405250" x="151.216839" y="188.00638" style="fill: #ff0000; stroke: #ff0000"/>
     <use xlink:href="#mfa15405250" x="153.651976" y="190.774344" style="fill: #ff0000; stroke: #ff0000"/>
     <use xlink:href="#mfa15405250" x="155.399387" y="193.504563" style="fill: #ff0000; stroke: #ff0000"/>
     <use xlink:href="#mfa15405250" x="156.652228" y="196.373137" style="fill: #ff0000; stroke: #ff0000"/>
     <use xlink:href="#mfa15405250" x="157.722907" y="199.422636" style="fill: #ff0000; stroke: #ff0000"/>
     <use xlink:href="#mfa15405250" x="158.913245" y="202.579909" style="fill: #ff0000; stroke: #ff0000"/>
     <use xlink:href="#mfa15405250" x="160.428433" y="205.716266" style="fill: #ff0000; stroke: #ff0000"/>
     <use xlink:href="#mfa15405250" x="162.354335" y="208.711763" style="fill: #ff0000; stroke: #ff0000"/>
     <use xlink:href="#mfa15405250" x="164.682499" y="211.497838" style="fill: #ff0000; stroke: #ff0000"/>
     <use xlink:href="#mfa15405250" x="167.355748" y="214.071393" style="fill: #ff0000; stroke: #ff0000"/>
     <use xlink:href="#mfa15405250" x="170.31478" y="216.480759" style="fill: #ff0000; stroke: #ff0000"/>
     <use xlink:href="#mfa15405250" x="173.533655" y="218.782519" style="fill: #ff0000; stroke: #ff0000"/>
     <use xlink:href="#mfa15405250" x="177.030628" y="220.975659" style="fill: #ff0000; stroke: #ff0000"/>
     <use xlink:href="#mfa15405250" x="180.842156" y="222.942015" style="fill: #ff0000; stroke: #ff0000"/>
     <use xlink:href="#mfa15405250" x="184.966555" y="224.438923" style="fill: #ff0000; stroke: #ff0000"/>
     <use xlink:href="#mfa15405250" x="189.312125" y="225.17311" style="fill: #ff0000; stroke: #ff0000"/>
     <use xlink:href="#mfa15405250" x="193.694776" y="224.933089" style="fill: #ff0000; stroke: #ff0000"/>
     <use xlink:href="#mfa15405250" x="197.903278" y="223.707974" style="fill: #ff0000; stroke: #ff0000"/>
     <use xlink:href="#mfa15405250" x="201.801584" y="221.717595" style="fill: #ff0000; stroke: #ff0000"/>
     <use xlink:href="#mfa15405250" x="205.406111" y="219.329466" style="fill: #ff0000; stroke: #ff0000"/>
     <use xlink:href="#mfa15405250" x="208.887633" y="216.905907" style="fill: #ff0000; stroke: #ff0000"/>
     <use xlink:href="#mfa15405250" x="212.493108" y="214.661262" style="fill: #ff0000; stroke: #ff0000"/>
     <use xlink:href="#mfa15405250" x="216.428792" y="212.59571" style="fill: #ff0000; stroke: #ff0000"/>
     <use xlink:href="#mfa15405250" x="220.763974" y="210.525101" style="fill: #ff0000; stroke: #ff0000"/>
     <use xlink:href="#mfa15405250" x="225.397966" y="208.177567" style="fill: #ff0000; stroke: #ff0000"/>
     <use xlink:href="#mfa15405250" x="230.095137" y="205.30256" style="fill: #ff0000; stroke: #ff0000"/>
     <use xlink:href="#mfa15405250" x="234.55737" y="201.745119" style="fill: #ff0000; stroke: #ff0000"/>
     <use xlink:href="#mfa15405250" x="238.491624" y="197.468354" style="fill: #ff0000; stroke: #ff0000"/>
     <use xlink:href="#mfa15405250" x="241.647091" y="192.538176" style="fill: #ff0000; stroke: #ff0000"/>
     <use xlink:href="#mfa15405250" x="243.824577" y="187.096064" style="fill: #ff0000; stroke: #ff0000"/>
    </g>
   </g>
   <g id="matplotlib.axis_1">
    <g id="xtick_1">
     <g id="line2d_1">
      <defs>
       <path id="m277ff66175" d="M 0 0 
L 0 3.5 
" style="stroke: #000000; stroke-width: 0.8"/>
      </defs>
      <g>
       <use xlink:href="#m277ff66175" x="45" y="320.4" style="stroke: #000000; stroke-width: 0.8"/>
      </g>
     </g>
     <g id="text_1">
      <!-- −3 -->
      <g transform="translate(37.628906 334.998438)scale(0.1 -0.1)">
       <defs>
        <path id="DejaVuSans-2212" d="M 678 2272 
L 4684 2272 
L 4684 1741 
L 678 1741 
L 678 2272 
z
" transform="scale(0.015625)"/>
        <path id="DejaVuSans-33" d="M 2597 2516 
Q 3050 2419 3304 2112 
Q 3559 1806 3559 1356 
Q 3559 666 3084 287 
Q 2609 -91 1734 -91 
Q 1441 -91 1130 -33 
Q 819 25 488 141 
L 488 750 
Q 750 597 1062 519 
Q 1375 441 1716 441 
Q 2309 441 2620 675 
Q 2931 909 2931 1356 
Q 2931 1769 2642 2001 
Q 2353 2234 1838 2234 
L 1294 2234 
L 1294 2753 
L 1863 2753 
Q 2328 2753 2575 2939 
Q 2822 3125 2822 3475 
Q 2822 3834 2567 4026 
Q 2313 4219 1838 4219 
Q 1578 4219 1281 4162 
Q 984 4106 628 3988 
L 628 4550 
Q 988 4650 1302 4700 
Q 1616 4750 1894 4750 
Q 2613 4750 3031 4423 
Q 3450 4097 3450 3541 
Q 3450 3153 3228 2886 
Q 3006 2619 2597 2516 
z
" transform="scale(0.015625)"/>
       </defs>
       <use xlink:href="#DejaVuSans-2212"/>
       <use xlink:href="#DejaVuSans-33" x="83.789062"/>
      </g>
     </g>
    </g>
    <g id="xtick_2">
     <g id="line2d_2">
      <g>
       <use xlink:href="#m277ff66175" x="91.655518" y="320.4" style="stroke: #000000; stroke-width: 0.8"/>
      </g>
     </g>
     <g id="text_2">
      <!-- −2 -->
      <g transform="translate(84.284425 334.998438)scale(0.1 -0.1)">
       <defs>
        <path id="DejaVuSans-32" d="M 1228 531 
L 3431 531 
L 3431 0 
L 469 0 
L 469 531 
Q 828 903 1448 1529 
Q 2069 2156 2228 2338 
Q 2531 2678 2651 2914 
Q 2772 3150 2772 3378 
Q 2772 3750 2511 3984 
Q 2250 4219 1831 4219 
Q 1534 4219 1204 4116 
Q 875 4013 500 3803 
L 500 4441 
Q 881 4594 1212 4672 
Q 1544 4750 1819 4750 
Q 2544 4750 2975 4387 
Q 3406 4025 3406 3419 
Q 3406 3131 3298 2873 
Q 3191 2616 2906 2266 
Q 2828 2175 2409 1742 
Q 1991 1309 1228 531 
z
" transform="scale(0.015625)"/>
       </defs>
       <use xlink:href="#DejaVuSans-2212"/>
       <use xlink:href="#DejaVuSans-32" x="83.789062"/>
      </g>
     </g>
    </g>
    <g id="xtick_3">
     <g id="line2d_3">
      <g>
       <use xlink:href="#m277ff66175" x="138.311037" y="320.4" style="stroke: #000000; stroke-width: 0.8"/>
      </g>
     </g>
     <g id="text_3">
      <!-- −1 -->
      <g transform="translate(130.939943 334.998438)scale(0.1 -0.1)">
       <defs>
        <path id="DejaVuSans-31" d="M 794 531 
L 1825 531 
L 1825 4091 
L 703 3866 
L 703 4441 
L 1819 4666 
L 2450 4666 
L 2450 531 
L 3481 531 
L 3481 0 
L 794 0 
L 794 531 
z
" transform="scale(0.015625)"/>
       </defs>
       <use xlink:href="#DejaVuSans-2212"/>
       <use xlink:href="#DejaVuSans-31" x="83.789062"/>
      </g>
     </g>
    </g>
    <g id="xtick_4">
     <g id="line2d_4">
      <g>
       <use xlink:href="#m277ff66175" x="184.966555" y="320.4" style="stroke: #000000; stroke-width: 0.8"/>
      </g>
     </g>
     <g id="text_4">
      <!-- 0 -->
      <g transform="translate(181.785305 334.998438)scale(0.1 -0.1)">
       <defs>
        <path id="DejaVuSans-30" d="M 2034 4250 
Q 1547 4250 1301 3770 
Q 1056 3291 1056 2328 
Q 1056 1369 1301 889 
Q 1547 409 2034 409 
Q 2525 409 2770 889 
Q 3016 1369 3016 2328 
Q 3016 3291 2770 3770 
Q 2525 4250 2034 4250 
z
M 2034 4750 
Q 2819 4750 3233 4129 
Q 3647 3509 3647 2328 
Q 3647 1150 3233 529 
Q 2819 -91 2034 -91 
Q 1250 -91 836 529 
Q 422 1150 422 2328 
Q 422 3509 836 4129 
Q 1250 4750 2034 4750 
z
" transform="scale(0.015625)"/>
       </defs>
       <use xlink:href="#DejaVuSans-30"/>
      </g>
     </g>
    </g>
    <g id="xtick_5">
     <g id="line2d_5">
      <g>
       <use xlink:href="#m277ff66175" x="231.622074" y="320.4" style="stroke: #000000; stroke-width: 0.8"/>
      </g>
     </g>
     <g id="text_5">
      <!-- 1 -->
      <g transform="translate(228.440824 334.998438)scale(0.1 -0.1)">
       <use xlink:href="#DejaVuSans-31"/>
      </g>
     </g>
    </g>
    <g id="xtick_6">
     <g id="line2d_6">
      <g>
       <use xlink:href="#m277ff66175" x="278.277592" y="320.4" style="stroke: #000000; stroke-width: 0.8"/>
      </g>
     </g>
     <g id="text_6">
      <!-- 2 -->
      <g transform="translate(275.096342 334.998438)scale(0.1 -0.1)">
       <use xlink:href="#DejaVuSans-32"/>
      </g>
     </g>
    </g>
   </g>
   <g id="matplotlib.axis_2">
    <g id="ytick_1">
     <g id="line2d_7">
      <defs>
       <path id="m0e0388e89f" d="M 0 0 
L -3.5 0 
" style="stroke: #000000; stroke-width: 0.8"/>
      </defs>
      <g>
       <use xlink:href="#m0e0388e89f" x="45" y="320.4" style="stroke: #000000; stroke-width: 0.8"/>
      </g>
     </g>
     <g id="text_7">
      <!-- −3 -->
      <g transform="translate(23.257812 324.199219)scale(0.1 -0.1)">
       <use xlink:href="#DejaVuSans-2212"/>
       <use xlink:href="#DejaVuSans-33" x="83.789062"/>
      </g>
     </g>
    </g>
    <g id="ytick_2">
     <g id="line2d_8">
      <g>
       <use xlink:href="#m0e0388e89f" x="45" y="274.045485" style="stroke: #000000; stroke-width: 0.8"/>
      </g>
     </g>
     <g id="text_8">
      <!-- −2 -->
      <g transform="translate(23.257812 277.844704)scale(0.1 -0.1)">
       <use xlink:href="#DejaVuSans-2212"/>
       <use xlink:href="#DejaVuSans-32" x="83.789062"/>
      </g>
     </g>
    </g>
    <g id="ytick_3">
     <g id="line2d_9">
      <g>
       <use xlink:href="#m0e0388e89f" x="45" y="227.69097" style="stroke: #000000; stroke-width: 0.8"/>
      </g>
     </g>
     <g id="text_9">
      <!-- −1 -->
      <g transform="translate(23.257812 231.490189)scale(0.1 -0.1)">
       <use xlink:href="#DejaVuSans-2212"/>
       <use xlink:href="#DejaVuSans-31" x="83.789062"/>
      </g>
     </g>
    </g>
    <g id="ytick_4">
     <g id="line2d_10">
      <g>
       <use xlink:href="#m0e0388e89f" x="45" y="181.336455" style="stroke: #000000; stroke-width: 0.8"/>
      </g>
     </g>
     <g id="text_10">
      <!-- 0 -->
      <g transform="translate(31.6375 185.135674)scale(0.1 -0.1)">
       <use xlink:href="#DejaVuSans-30"/>
      </g>
     </g>
    </g>
    <g id="ytick_5">
     <g id="line2d_11">
      <g>
       <use xlink:href="#m0e0388e89f" x="45" y="134.98194" style="stroke: #000000; stroke-width: 0.8"/>
      </g>
     </g>
     <g id="text_11">
      <!-- 1 -->
      <g transform="translate(31.6375 138.781159)scale(0.1 -0.1)">
       <use xlink:href="#DejaVuSans-31"/>
      </g>
     </g>
    </g>
    <g id="ytick_6">
     <g id="line2d_12">
      <g>
       <use xlink:href="#m0e0388e89f" x="45" y="88.627425" style="stroke: #000000; stroke-width: 0.8"/>
      </g>
     </g>
     <g id="text_12">
      <!-- 2 -->
      <g transform="translate(31.6375 92.426643)scale(0.1 -0.1)">
       <use xlink:href="#DejaVuSans-32"/>
      </g>
     </g>
    </g>
   </g>
   <g id="PathCollection_2">
    <path d="M 191.498328 199.225705 
L 190.565217 198.797831 
L 189.187936 198.02408 
L 188.000744 197.09699 
L 186.649516 196.1699 
L 185.735441 195.242809 
L 183.351385 192.461538 
L 182.894343 191.534448 
L 182.167224 190.540128 
L 179.299651 187.826087 
L 176.361041 184.117726 
L 171.579956 177.628094 
L 170.036789 174.786006 
L 167.892306 172.065552 
L 167.567061 171.138462 
L 167.335553 169.284281 
L 167.865244 166.50301 
L 167.919594 165.57592 
L 168.170569 165.022359 
L 168.52912 164.648829 
L 173.769231 161.637769 
L 174.702341 161.502058 
L 175.635452 161.231446 
L 176.568562 161.245882 
L 183.100334 162.179359 
L 185.899666 162.464714 
L 188.698997 163.371564 
L 190.565217 163.753886 
L 193.364548 164.733038 
L 198.963211 166.363316 
L 199.896321 166.827789 
L 204.561873 168.524271 
L 208.294314 170.012912 
L 214.083771 172.065552 
L 215.997099 172.992642 
L 216.692308 173.49315 
L 217.014982 173.919732 
L 220.605047 177.628094 
L 221.482288 179.482274 
L 221.35786 180.587551 
L 220.987973 181.336455 
L 219.491639 183.437679 
L 215.759197 187.866424 
L 213.892977 189.132963 
L 210.160535 190.808367 
L 208.294314 191.70117 
L 203.628763 194.454696 
L 200.829431 196.232529 
L 198.963211 197.397665 
L 197.09699 198.448815 
L 196.16388 198.736045 
L 191.498328 199.225705 
L 191.498328 199.225705 
" clip-path="url(#p57eedf4e16)" style="fill: none; stroke-dasharray: 5.55,2.4; stroke-dashoffset: 0; stroke: #000000; stroke-width: 1.5"/>
   </g>
   <g id="PathCollection_3">
    <path d="M 182.167224 225.173222 
L 181.333075 224.909699 
L 181.234114 224.869866 
L 180.301003 224.405301 
L 179.464716 223.982609 
L 179.367893 223.926034 
L 178.434783 223.446071 
L 177.817816 223.055518 
L 177.501672 222.864217 
L 176.584181 222.128428 
L 176.568562 222.113274 
L 175.635452 221.2295 
L 175.604391 221.201338 
L 174.702341 220.331938 
L 174.645312 220.274247 
L 173.769231 219.395447 
L 173.723751 219.347157 
L 172.8561 218.420067 
L 172.83612 218.398872 
L 171.904226 217.492977 
L 171.90301 217.491845 
L 170.9699 216.642679 
L 170.885457 216.565886 
L 170.036789 215.794098 
L 169.866018 215.638796 
L 169.103679 214.945517 
L 168.846575 214.711706 
L 168.170569 214.019793 
L 167.945707 213.784615 
L 167.237458 213.041018 
L 167.055913 212.857525 
L 166.304348 212.104455 
L 166.128472 211.930435 
L 165.371237 211.180693 
L 165.192459 211.003344 
L 164.438127 210.251535 
L 164.299796 210.076254 
L 163.863391 209.149164 
L 163.505017 208.247775 
L 163.494524 208.222074 
L 163.140704 207.294983 
L 162.772783 206.367893 
L 162.571906 205.70576 
L 162.475783 205.440803 
L 162.11223 204.513712 
L 161.675853 203.586622 
L 161.638796 203.506839 
L 161.108562 202.659532 
L 160.705686 202.121838 
L 160.408467 201.732441 
L 159.775662 200.805351 
L 159.772575 200.797882 
L 159.299747 199.878261 
L 158.845637 198.951171 
L 158.839465 198.936191 
L 158.379479 198.02408 
L 157.906355 197.101596 
L 157.903529 197.09699 
L 157.289205 196.1699 
L 156.973244 195.689048 
L 156.688845 195.242809 
L 156.128827 194.315719 
L 156.040134 194.148235 
L 155.602668 193.388629 
L 155.107023 192.713908 
L 154.92649 192.461538 
L 154.197153 191.534448 
L 154.173913 191.501552 
L 153.448723 190.607358 
L 153.240803 190.31085 
L 152.732408 189.680268 
L 152.307692 189.121812 
L 152.020233 188.753177 
L 151.374582 187.923144 
L 151.29627 187.826087 
L 150.474544 186.898997 
L 150.441472 186.865765 
L 149.598766 185.971906 
L 149.508361 185.875727 
L 148.726537 185.044816 
L 148.575251 184.883597 
L 147.856145 184.117726 
L 147.64214 183.889659 
L 146.98583 183.190635 
L 146.70903 182.918461 
L 146.030036 182.263545 
L 145.77592 182.038806 
L 145.003571 181.336455 
L 144.842809 181.186883 
L 143.909699 180.500815 
L 143.807024 180.409365 
L 142.976589 179.635341 
L 142.829506 179.482274 
L 142.15353 178.555184 
L 142.043478 178.416285 
L 141.505691 177.628094 
L 141.110368 176.765746 
L 141.092027 176.701003 
L 140.494983 175.773913 
L 140.177258 175.347853 
L 139.796418 174.846823 
L 139.306698 173.919732 
L 139.244147 173.835714 
L 138.787479 172.992642 
L 138.576798 172.065552 
L 138.370267 171.138462 
L 138.38924 170.211371 
L 138.439805 169.284281 
L 138.346993 168.357191 
L 138.311037 168.062266 
L 138.302343 167.4301 
L 138.286837 166.50301 
L 138.27279 165.57592 
L 138.24428 164.648829 
L 138.214086 163.721739 
L 138.218695 162.794649 
L 138.287351 161.867559 
L 138.311037 161.529923 
L 138.538012 160.940468 
L 138.778766 160.013378 
L 139.155726 159.086288 
L 139.244147 158.648488 
L 139.47458 158.159197 
L 139.841622 157.232107 
L 140.177258 156.436392 
L 140.253169 156.305017 
L 140.790605 155.377926 
L 141.110368 155.034068 
L 141.752692 154.450836 
L 142.043478 154.195499 
L 142.735258 153.523746 
L 142.976589 153.284733 
L 143.681524 152.596656 
L 143.909699 152.368012 
L 144.621908 151.669565 
L 144.842809 151.443818 
L 145.5462 150.742475 
L 145.77592 150.501551 
L 146.456372 149.815385 
L 146.70903 149.548756 
L 147.359616 148.888294 
L 147.64214 148.578018 
L 148.391798 147.961204 
L 148.575251 147.820727 
L 149.508361 147.276173 
L 149.926972 147.034114 
L 150.441472 146.689538 
L 151.374582 146.264343 
L 151.62503 146.107023 
L 152.307692 145.684803 
L 153.240803 145.204433 
L 153.269198 145.179933 
L 154.173913 144.576545 
L 154.734031 144.252843 
L 155.107023 144.009873 
L 156.040134 143.572192 
L 156.534594 143.325753 
L 156.973244 143.06963 
L 157.906355 142.658357 
L 158.438337 142.398662 
L 158.839465 142.164512 
L 159.772575 141.77347 
L 160.46989 141.471572 
L 160.705686 141.346336 
L 161.638796 140.968793 
L 162.571906 140.731056 
L 163.3733 140.544482 
L 163.505017 140.512158 
L 164.438127 140.305446 
L 165.371237 140.106685 
L 166.304348 139.900413 
L 167.237458 139.65813 
L 167.338163 139.617391 
L 168.170569 139.366677 
L 169.103679 139.309881 
L 170.036789 139.340068 
L 170.9699 139.357283 
L 171.90301 139.288741 
L 172.83612 139.161024 
L 173.769231 139.03512 
L 174.702341 138.989403 
L 175.635452 138.964004 
L 176.568562 138.898938 
L 177.501672 138.854527 
L 178.434783 138.807028 
L 179.367893 138.753119 
L 180.28909 138.690301 
L 180.301003 138.689601 
L 181.234114 138.6774 
L 182.167224 138.678214 
L 183.100334 138.675094 
L 184.033445 138.673418 
L 184.966555 138.673206 
L 185.32418 138.690301 
L 185.899666 138.723816 
L 186.832776 138.716798 
L 187.765886 138.894785 
L 188.698997 139.042531 
L 189.632107 139.253719 
L 190.565217 139.470077 
L 191.177068 139.617391 
L 191.498328 139.708551 
L 192.431438 139.873507 
L 193.364548 140.009813 
L 194.297659 140.224783 
L 195.230769 140.415573 
L 195.67357 140.544482 
L 196.16388 140.712716 
L 197.09699 140.927096 
L 198.0301 141.182111 
L 198.748565 141.471572 
L 198.963211 141.58667 
L 199.896321 141.918405 
L 200.829431 142.24555 
L 201.313337 142.398662 
L 201.762542 142.567807 
L 202.695652 142.709663 
L 203.628763 142.87365 
L 204.561873 143.191922 
L 204.831136 143.325753 
L 205.494983 143.735303 
L 206.345223 144.252843 
L 206.428094 144.303285 
L 207.361204 144.958774 
L 207.659048 145.179933 
L 208.294314 145.535873 
L 209.227425 145.936857 
L 209.598165 146.107023 
L 210.160535 146.347619 
L 211.093645 146.742981 
L 211.904034 147.034114 
L 212.026756 147.090082 
L 212.959866 147.29384 
L 213.892977 147.495308 
L 214.826087 147.698967 
L 215.759197 147.926024 
L 215.880242 147.961204 
L 216.692308 148.187981 
L 217.625418 148.482993 
L 218.558528 148.781513 
L 218.851747 148.888294 
L 219.491639 149.115836 
L 220.424749 149.398931 
L 221.35786 149.712909 
L 221.626442 149.815385 
L 222.29097 150.058971 
L 223.22408 150.343108 
L 224.157191 150.637883 
L 224.394312 150.742475 
L 225.090301 151.029002 
L 226.023411 151.359615 
L 226.785629 151.669565 
L 226.956522 151.764688 
L 227.889632 152.135778 
L 228.822742 152.54648 
L 228.94456 152.596656 
L 229.755853 152.973077 
L 230.688963 153.465137 
L 230.790218 153.523746 
L 231.622074 153.970254 
L 232.298307 154.450836 
L 232.555184 154.698763 
L 233.162987 155.377926 
L 233.488294 155.72079 
L 234.04855 156.305017 
L 234.421405 156.707805 
L 234.906741 157.232107 
L 235.354515 157.724602 
L 235.75564 158.159197 
L 236.287625 158.752062 
L 236.599187 159.086288 
L 237.220736 159.795549 
L 237.422813 160.013378 
L 238.137594 160.940468 
L 238.153846 160.956385 
L 238.77833 161.867559 
L 239.086957 162.4889 
L 239.257859 162.794649 
L 239.681673 163.721739 
L 240.020067 164.304374 
L 240.266937 164.648829 
L 240.743487 165.57592 
L 240.953177 165.871109 
L 241.378332 166.50301 
L 241.861054 167.4301 
L 241.886288 167.461991 
L 242.426671 168.357191 
L 242.819398 169.253721 
L 242.836179 169.284281 
L 243.286464 170.211371 
L 243.639141 171.138462 
L 243.752508 171.355023 
L 244.110922 172.065552 
L 244.453919 172.992642 
L 244.685619 173.857959 
L 244.707753 173.919732 
L 244.948351 174.846823 
L 245.173272 175.773913 
L 245.215266 176.701003 
L 245.243108 177.628094 
L 245.237042 178.555184 
L 245.222644 179.482274 
L 245.197494 180.409365 
L 245.130403 181.336455 
L 245.041903 182.263545 
L 244.920651 183.190635 
L 244.693935 184.117726 
L 244.685619 184.148049 
L 244.487792 185.044816 
L 244.400875 185.971906 
L 244.117784 186.898997 
L 243.752508 187.402117 
L 243.5062 187.826087 
L 243.011641 188.753177 
L 242.819398 189.031647 
L 242.473338 189.680268 
L 241.88862 190.607358 
L 241.886288 190.611276 
L 241.485607 191.534448 
L 240.953177 192.437372 
L 240.934073 192.461538 
L 240.441571 193.388629 
L 240.020067 193.900227 
L 239.736337 194.315719 
L 239.086957 195.167505 
L 239.019594 195.242809 
L 238.392521 196.1699 
L 238.153846 196.436942 
L 237.608705 197.09699 
L 237.220736 197.526951 
L 236.813246 198.02408 
L 236.287625 198.582914 
L 235.968699 198.951171 
L 235.354515 199.625655 
L 235.132541 199.878261 
L 234.421405 200.735728 
L 234.36098 200.805351 
L 233.525868 201.732441 
L 233.488294 201.769163 
L 232.555184 202.64492 
L 232.539593 202.659532 
L 231.622074 203.519293 
L 231.547354 203.586622 
L 230.688963 204.349444 
L 230.49989 204.513712 
L 229.755853 205.173327 
L 229.366768 205.440803 
L 228.822742 205.809095 
L 227.889632 206.342725 
L 227.848336 206.367893 
L 226.956522 206.838519 
L 226.026493 207.294983 
L 226.023411 207.296943 
L 225.090301 207.791102 
L 224.229233 208.222074 
L 224.157191 208.267499 
L 223.22408 208.824929 
L 222.704192 209.149164 
L 222.29097 209.42586 
L 221.35786 210.010412 
L 221.262221 210.076254 
L 220.424749 210.633187 
L 219.846074 211.003344 
L 219.491639 211.238858 
L 218.558528 211.843739 
L 218.421996 211.930435 
L 217.625418 212.444067 
L 216.909248 212.857525 
L 216.692308 212.98674 
L 215.759197 213.526993 
L 215.29676 213.784615 
L 214.826087 214.059282 
L 213.892977 214.592194 
L 213.725346 214.711706 
L 212.959866 215.326032 
L 212.526324 215.638796 
L 212.026756 215.98693 
L 211.135271 216.565886 
L 211.093645 216.594335 
L 210.160535 217.25972 
L 209.826016 217.492977 
L 209.227425 217.903917 
L 208.294314 218.377321 
L 208.187046 218.420067 
L 207.361204 218.690246 
L 206.428094 218.965347 
L 205.494983 219.187228 
L 205.058549 219.347157 
L 204.561873 219.516252 
L 203.628763 219.972462 
L 202.979765 220.274247 
L 202.695652 220.417351 
L 201.762542 220.853668 
L 200.867853 221.201338 
L 200.829431 221.215604 
L 199.896321 221.604833 
L 198.963211 221.94018 
L 198.579946 222.128428 
L 198.0301 222.392577 
L 197.09699 222.862059 
L 196.750184 223.055518 
L 196.16388 223.378953 
L 195.230769 223.839642 
L 194.865935 223.982609 
L 194.297659 224.180056 
L 193.364548 224.358285 
L 192.431438 224.551224 
L 191.498328 224.778445 
L 191.12196 224.909699 
L 190.565217 225.055877 
L 189.632107 225.352326 
L 188.698997 225.52604 
L 187.765886 225.604361 
L 186.832776 225.699944 
L 185.899666 225.794807 
L 184.966555 225.631784 
L 184.033445 225.516679 
L 183.100334 225.34516 
L 182.167224 225.173222 
z
" clip-path="url(#p57eedf4e16)" style="fill: none; stroke: #000000; stroke-width: 1.5"/>
   </g>
   <g id="PathCollection_4">
    <path d="M 180.301003 248.264356 
L 179.587806 248.086957 
L 179.367893 248.032257 
L 178.434783 247.800145 
L 177.501672 247.568033 
L 176.568562 247.33085 
L 175.906433 247.159866 
L 175.635452 247.089891 
L 174.702341 246.818588 
L 173.769231 246.437651 
L 173.26738 246.232776 
L 172.83612 246.056718 
L 171.90301 245.675681 
L 171.071836 245.305686 
L 170.9699 245.256928 
L 170.036789 244.715434 
L 169.456596 244.378595 
L 169.103679 244.173709 
L 168.170569 243.631964 
L 167.897293 243.451505 
L 167.237458 242.991024 
L 166.602557 242.524415 
L 166.304348 242.302267 
L 165.386113 241.597324 
L 165.371237 241.585774 
L 164.438127 240.912073 
L 164.069378 240.670234 
L 163.505017 240.307536 
L 162.597639 239.743144 
L 162.571906 239.727215 
L 161.638796 239.113531 
L 161.205964 238.816054 
L 160.705686 238.47287 
L 159.879127 237.888963 
L 159.772575 237.808053 
L 158.839465 237.017887 
L 158.776405 236.961873 
L 157.906355 236.188439 
L 157.735398 236.034783 
L 156.973244 235.356411 
L 156.697681 235.107692 
L 156.040134 234.521598 
L 155.66282 234.180602 
L 155.107023 233.682532 
L 154.631206 233.253512 
L 154.173913 232.843215 
L 153.589395 232.326421 
L 153.240803 232.015351 
L 152.564215 231.399331 
L 152.307692 231.159313 
L 151.59557 230.472241 
L 151.374582 230.25903 
L 150.63469 229.545151 
L 150.441472 229.358721 
L 149.673829 228.61806 
L 149.508361 228.458414 
L 148.712943 227.69097 
L 148.575251 227.537478 
L 148.002473 226.76388 
L 147.64214 226.257404 
L 147.342895 225.836789 
L 146.70903 224.94582 
L 146.683332 224.909699 
L 146.023748 223.982609 
L 145.77592 223.621445 
L 145.404478 223.055518 
L 144.842809 222.217305 
L 144.770615 222.128428 
L 144.22669 221.201338 
L 143.909699 220.49251 
L 143.812091 220.274247 
L 143.303809 219.347157 
L 142.976589 218.783078 
L 142.767604 218.420067 
L 142.210789 217.492977 
L 142.043478 217.269319 
L 141.473417 216.565886 
L 141.110368 216.119769 
L 140.719045 215.638796 
L 140.177258 214.973077 
L 139.964545 214.711706 
L 139.244147 213.826538 
L 139.211352 213.784615 
L 138.535504 212.857525 
L 138.311037 212.543372 
L 137.872778 211.930435 
L 137.377926 211.243346 
L 137.204426 211.003344 
L 136.535084 210.076254 
L 136.444816 209.899622 
L 136.106566 209.149164 
L 135.729069 208.222074 
L 135.511706 207.682787 
L 135.355675 207.294983 
L 135.010118 206.367893 
L 134.590876 205.440803 
L 134.578595 205.418579 
L 134.074975 204.513712 
L 133.645485 203.750749 
L 133.551166 203.586622 
L 133.018154 202.659532 
L 132.712375 202.119352 
L 132.491918 201.732441 
L 131.963664 200.805351 
L 131.779264 200.508662 
L 131.334155 199.878261 
L 130.846154 199.265948 
L 130.595287 198.951171 
L 129.913043 198.095148 
L 129.856403 198.02408 
L 129.117536 197.09699 
L 128.979933 196.924334 
L 128.37867 196.1699 
L 128.046823 195.761734 
L 127.584332 195.242809 
L 127.113712 194.779735 
L 126.642137 194.315719 
L 126.180602 193.861595 
L 125.709019 193.388629 
L 125.247492 192.917227 
L 124.808531 192.461538 
L 124.314381 191.944881 
L 123.969276 191.534448 
L 123.418216 190.607358 
L 123.381271 190.556305 
L 122.832436 189.680268 
L 122.448161 188.923896 
L 122.361427 188.753177 
L 121.890402 187.826087 
L 121.51505 187.087276 
L 121.419395 186.898997 
L 120.953536 185.971906 
L 120.58194 185.45185 
L 120.252759 185.044816 
L 119.648829 184.359969 
L 119.436304 184.117726 
L 118.715719 183.230829 
L 118.683062 183.190635 
L 118.030826 182.263545 
L 117.782609 181.65864 
L 117.657608 181.336455 
L 117.325732 180.409365 
L 117.031155 179.482274 
L 116.849498 178.640451 
L 116.831011 178.555184 
L 116.612203 177.628094 
L 116.399664 176.701003 
L 116.189694 175.773913 
L 115.980145 174.846823 
L 115.916388 174.531028 
L 115.795622 173.919732 
L 115.622547 172.992642 
L 115.450277 172.065552 
L 115.278008 171.138462 
L 115.105745 170.211371 
L 114.983278 169.552321 
L 114.933469 169.284281 
L 114.761197 168.357191 
L 114.580544 167.4301 
L 114.464477 166.50301 
L 114.488678 165.57592 
L 114.515492 164.648829 
L 114.551348 163.721739 
L 114.59434 162.794649 
L 114.744374 161.867559 
L 114.957013 160.940468 
L 114.983278 160.825955 
L 115.169649 160.013378 
L 115.382271 159.086288 
L 115.594905 158.159197 
L 115.807547 157.232107 
L 115.916388 156.757518 
L 116.020165 156.305017 
L 116.256795 155.377926 
L 116.581515 154.450836 
L 116.849498 153.756557 
L 116.935015 153.523746 
L 117.182843 152.596656 
L 117.430662 151.669565 
L 117.679442 150.742475 
L 117.782609 150.378598 
L 117.947376 149.815385 
L 118.218602 148.888294 
L 118.489822 147.961204 
L 118.715719 147.188984 
L 118.761023 147.034114 
L 119.164825 146.107023 
L 119.648829 145.411586 
L 119.818184 145.179933 
L 120.58194 144.339361 
L 120.666546 144.252843 
L 121.51505 143.389666 
L 121.577877 143.325753 
L 122.448161 142.440394 
L 122.489183 142.398662 
L 123.270825 141.471572 
L 123.381271 141.318749 
L 123.940818 140.544482 
L 124.314381 140.027569 
L 124.610816 139.617391 
L 125.247492 138.736432 
L 125.28083 138.690301 
L 125.948119 137.763211 
L 126.180602 137.439324 
L 126.613573 136.83612 
L 127.113712 136.139329 
L 127.279017 135.90903 
L 127.94589 134.98194 
L 128.046823 134.841941 
L 128.628296 134.054849 
L 128.979933 133.589233 
L 129.332161 133.127759 
L 129.913043 132.458312 
L 130.161341 132.200669 
L 130.846154 131.514793 
L 131.096209 131.273579 
L 131.779264 130.686338 
L 132.22119 130.346488 
L 132.712375 130.000696 
L 133.58273 129.419398 
L 133.645485 129.377094 
L 134.578595 128.806039 
L 135.091228 128.492308 
L 135.511706 128.234976 
L 136.444816 127.663928 
L 136.620862 127.565217 
L 137.377926 127.171787 
L 138.311037 126.773432 
L 138.627983 126.638127 
L 139.244147 126.373091 
L 140.177258 125.906635 
L 140.557207 125.711037 
L 141.110368 125.428779 
L 142.043478 124.94743 
L 142.361684 124.783946 
L 142.976589 124.465913 
L 143.909699 123.979334 
L 144.144353 123.856856 
L 144.842809 123.492297 
L 145.77592 123.005278 
L 145.920595 122.929766 
L 146.70903 122.518245 
L 147.64214 122.038814 
L 147.715753 122.002676 
L 148.575251 121.601699 
L 149.508361 121.281221 
L 150.279811 121.075585 
L 150.441472 121.033269 
L 151.374582 120.788043 
L 152.307692 120.542953 
L 153.240803 120.297864 
L 153.809499 120.148495 
L 154.173913 120.052097 
L 155.107023 119.783169 
L 156.040134 119.473076 
L 156.796537 119.221405 
L 156.973244 119.16261 
L 157.906355 118.852133 
L 158.839465 118.541649 
L 159.549054 118.294314 
L 159.772575 118.211841 
L 160.705686 117.815342 
L 161.638796 117.553743 
L 162.433727 117.367224 
L 162.571906 117.334802 
L 163.505017 117.230548 
L 164.438127 117.208394 
L 165.371237 117.171123 
L 166.304348 117.131158 
L 167.237458 117.091185 
L 168.170569 116.954786 
L 169.103679 116.761203 
L 170.036789 116.569304 
L 170.9699 116.502025 
L 171.640185 116.440134 
L 171.90301 116.415866 
L 172.83612 116.329705 
L 173.769231 116.242529 
L 174.702341 116.1538 
L 175.635452 116.060305 
L 176.568562 115.965961 
L 177.501672 115.871621 
L 178.434783 115.777272 
L 179.367893 115.682938 
L 180.301003 115.542538 
L 180.456462 115.513043 
L 181.234114 115.365783 
L 182.167224 115.186119 
L 183.100334 115.007317 
L 184.033445 114.888174 
L 184.966555 114.770518 
L 185.899666 114.652077 
L 186.415029 114.585953 
L 186.832776 114.532354 
L 187.765886 114.41261 
L 188.698997 114.449837 
L 189.396578 114.585953 
L 189.632107 114.632026 
L 190.565217 114.825735 
L 191.498328 115.07104 
L 192.431438 115.338723 
L 193.059892 115.513043 
L 193.364548 115.597973 
L 194.297659 115.870304 
L 195.230769 116.170376 
L 196.048407 116.440134 
L 196.16388 116.47823 
L 197.09699 116.786101 
L 198.0301 117.093959 
L 198.929232 117.367224 
L 198.963211 117.377274 
L 199.896321 117.627558 
L 200.829431 117.879049 
L 201.762542 118.079741 
L 202.695652 118.219622 
L 203.188199 118.294314 
L 203.628763 118.363257 
L 204.561873 118.584353 
L 205.494983 118.854859 
L 206.40594 119.221405 
L 206.428094 119.230398 
L 207.361204 119.61114 
L 208.294314 119.99267 
L 208.569067 120.148495 
L 209.227425 120.52108 
L 210.160535 121.013319 
L 210.354513 121.075585 
L 211.093645 121.308097 
L 212.026756 121.58314 
L 212.959866 121.858196 
L 213.449986 122.002676 
L 213.892977 122.133261 
L 214.826087 122.408311 
L 215.759197 122.683363 
L 216.595082 122.929766 
L 216.692308 122.958426 
L 217.625418 123.233474 
L 218.558528 123.50854 
L 219.491639 123.771203 
L 219.809507 123.856856 
L 220.424749 124.022782 
L 221.35786 124.272336 
L 222.29097 124.475545 
L 223.22408 124.672232 
L 223.687925 124.783946 
L 224.157191 124.903004 
L 225.090301 125.230837 
L 226.023411 125.558925 
L 226.416444 125.711037 
L 226.956522 125.91852 
L 227.889632 126.290081 
L 228.645375 126.638127 
L 228.822742 126.725852 
L 229.755853 127.284647 
L 230.23339 127.565217 
L 230.688963 127.835725 
L 231.622074 128.395665 
L 231.782983 128.492308 
L 232.555184 128.956088 
L 233.326564 129.419398 
L 233.488294 129.540529 
L 234.421405 130.286412 
L 234.49349 130.346488 
L 235.354515 131.064071 
L 235.612919 131.273579 
L 236.287625 131.744783 
L 237.089451 132.200669 
L 237.220736 132.263463 
L 238.153846 132.700018 
L 239.066414 133.127759 
L 239.086957 133.13732 
L 240.020067 133.566016 
L 240.953177 133.987358 
L 241.102647 134.054849 
L 241.886288 134.408695 
L 242.819398 134.830044 
L 243.155786 134.98194 
L 243.752508 135.251384 
L 244.685619 135.67273 
L 245.208941 135.90903 
L 245.618729 136.094063 
L 246.551839 136.539622 
L 246.939675 136.83612 
L 247.48495 137.366281 
L 247.872943 137.763211 
L 248.41806 138.320889 
L 248.779164 138.690301 
L 249.351171 139.275476 
L 249.685382 139.617391 
L 250.284281 140.234361 
L 250.579076 140.544482 
L 251.217391 141.217815 
L 251.457946 141.471572 
L 252.150502 142.202119 
L 252.336488 142.398662 
L 253.083612 143.194536 
L 253.206387 143.325753 
L 254.016722 144.191792 
L 254.073847 144.252843 
L 254.949833 145.179468 
L 254.950288 145.179933 
L 255.871665 146.107023 
L 255.882943 146.118372 
L 256.793013 147.034114 
L 256.816054 147.0657 
L 257.335227 147.961204 
L 257.749164 148.630499 
L 257.915302 148.888294 
L 258.529357 149.815385 
L 258.682274 150.049059 
L 259.132395 150.742475 
L 259.615385 151.629864 
L 259.636082 151.669565 
L 260.116975 152.596656 
L 260.548495 153.428563 
L 260.600284 153.523746 
L 261.163808 154.450836 
L 261.481605 154.971458 
L 261.729721 155.377926 
L 262.287962 156.305017 
L 262.414716 156.515893 
L 262.845223 157.232107 
L 263.347826 158.094893 
L 263.383049 158.159197 
L 263.77415 159.086288 
L 264.142082 160.013378 
L 264.280936 160.363278 
L 264.508139 160.940468 
L 264.866874 161.867559 
L 265.214047 162.609369 
L 265.298904 162.794649 
L 265.735845 163.721739 
L 266.129096 164.648829 
L 266.147157 164.692787 
L 266.51488 165.57592 
L 266.884972 166.50301 
L 267.080268 167.201901 
L 267.140936 167.4301 
L 267.364628 168.357191 
L 267.587459 169.284281 
L 267.798554 170.211371 
L 268.007508 171.138462 
L 268.013378 171.164504 
L 268.216538 172.065552 
L 268.42592 172.992642 
L 268.635297 173.919732 
L 268.604789 174.846823 
L 268.504027 175.773913 
L 268.412109 176.701003 
L 268.436362 177.628094 
L 268.460598 178.555184 
L 268.484844 179.482274 
L 268.509097 180.409365 
L 268.506561 181.336455 
L 268.478382 182.263545 
L 268.438992 183.190635 
L 268.394849 184.117726 
L 268.335669 185.044816 
L 268.268708 185.971906 
L 268.20177 186.898997 
L 268.134812 187.826087 
L 268.067861 188.753177 
L 268.013378 189.507475 
L 268.000897 189.680268 
L 267.916155 190.607358 
L 267.785826 191.534448 
L 267.623396 192.461538 
L 267.086207 193.388629 
L 267.080268 193.3984 
L 266.522625 194.315719 
L 266.147157 194.951171 
L 265.976818 195.242809 
L 265.477004 196.1699 
L 265.214047 196.668626 
L 264.986593 197.09699 
L 264.564109 198.02408 
L 264.280936 198.645451 
L 264.141618 198.951171 
L 263.719149 199.878261 
L 263.347826 200.693101 
L 263.296674 200.805351 
L 262.874191 201.732441 
L 262.445762 202.659532 
L 262.414716 202.725839 
L 262.011683 203.586622 
L 261.577584 204.513712 
L 261.481605 204.715972 
L 261.126138 205.440803 
L 260.673746 206.367893 
L 260.548495 206.566041 
L 260.075442 207.294983 
L 259.615385 208.0039 
L 259.473794 208.222074 
L 258.800684 209.149164 
L 258.682274 209.286979 
L 257.996844 210.076254 
L 257.749164 210.358491 
L 257.183278 211.003344 
L 256.816054 211.421799 
L 256.369686 211.930435 
L 255.882943 212.485086 
L 255.556105 212.857525 
L 254.949833 213.548385 
L 254.742526 213.784615 
L 254.016722 214.611676 
L 253.928751 214.711706 
L 253.083612 215.582788 
L 253.026706 215.638796 
L 252.150502 216.460113 
L 252.037661 216.565886 
L 251.217391 217.33478 
L 251.051874 217.492977 
L 250.284281 218.261606 
L 250.127155 218.420067 
L 249.351171 219.202632 
L 249.20786 219.347157 
L 248.41806 220.143648 
L 248.279924 220.274247 
L 247.48495 220.990074 
L 247.249537 221.201338 
L 246.551839 221.848723 
L 246.254662 222.128428 
L 245.618729 222.755536 
L 245.314329 223.055518 
L 244.685619 223.674825 
L 244.303781 223.982609 
L 243.752508 224.35711 
L 242.819398 224.903156 
L 242.807751 224.909699 
L 241.886288 225.42467 
L 241.156121 225.836789 
L 240.953177 225.950697 
L 240.020067 226.46043 
L 239.432176 226.76388 
L 239.086957 226.935285 
L 238.153846 227.446565 
L 237.709562 227.69097 
L 237.220736 227.95808 
L 236.287625 228.472919 
L 236.023397 228.61806 
L 235.354515 228.983592 
L 234.421405 229.498041 
L 234.342907 229.545151 
L 233.488294 230.13098 
L 233.003731 230.472241 
L 232.555184 230.788139 
L 231.687317 231.399331 
L 231.622074 231.44528 
L 230.688963 232.104652 
L 230.393033 232.326421 
L 229.755853 232.797944 
L 229.123279 233.253512 
L 228.822742 233.471986 
L 227.889632 234.169755 
L 227.875487 234.180602 
L 226.956522 234.847865 
L 226.581937 235.107692 
L 226.023411 235.495117 
L 225.236786 236.034783 
L 225.090301 236.136052 
L 224.157191 236.763214 
L 223.861475 236.961873 
L 223.22408 237.390057 
L 222.48141 237.888963 
L 222.29097 238.016896 
L 221.35786 238.686553 
L 221.107877 238.816054 
L 220.424749 239.1112 
L 219.491639 239.458174 
L 218.725282 239.743144 
L 218.558528 239.804826 
L 217.625418 240.147358 
L 216.692308 240.485496 
L 216.17741 240.670234 
L 215.759197 240.819696 
L 214.826087 241.137792 
L 213.892977 241.448007 
L 213.443854 241.597324 
L 212.959866 241.758232 
L 212.026756 242.068019 
L 211.093645 242.37756 
L 210.650956 242.524415 
L 210.160535 242.687101 
L 209.227425 242.996667 
L 208.294314 243.306208 
L 207.856349 243.451505 
L 207.361204 243.615769 
L 206.428094 243.930413 
L 205.494983 244.335985 
L 205.399703 244.378595 
L 204.561873 244.753281 
L 203.628763 245.137987 
L 203.200458 245.305686 
L 202.695652 245.501776 
L 201.762542 245.956107 
L 200.901204 246.232776 
L 200.829431 246.25395 
L 199.896321 246.413303 
L 198.963211 246.572978 
L 198.0301 246.743575 
L 197.09699 246.970903 
L 196.347916 247.159866 
L 196.16388 247.206291 
L 195.230769 247.44171 
L 194.297659 247.659776 
L 193.364548 247.817812 
L 192.431438 247.950126 
L 191.498328 248.051884 
L 191.182925 248.086957 
L 190.565217 248.156859 
L 189.632107 248.247842 
L 188.698997 248.311735 
L 187.765886 248.36902 
L 186.832776 248.418149 
L 185.899666 248.465912 
L 184.966555 248.513702 
L 184.033445 248.561491 
L 183.100334 248.609265 
L 182.167224 248.589128 
L 181.234114 248.429627 
L 180.301003 248.264356 
z
" clip-path="url(#p57eedf4e16)" style="fill: none; stroke: #000000; stroke-width: 1.5"/>
   </g>
   <g id="patch_3">
    <path d="M 45 320.4 
L 45 43.2 
" style="fill: none; stroke: #000000; stroke-width: 0.8; stroke-linejoin: miter; stroke-linecap: square"/>
   </g>
   <g id="patch_4">
    <path d="M 324 320.4 
L 324 43.2 
" style="fill: none; stroke: #000000; stroke-width: 0.8; stroke-linejoin: miter; stroke-linecap: square"/>
   </g>
   <g id="patch_5">
    <path d="M 45 320.4 
L 324 320.4 
" style="fill: none; stroke: #000000; stroke-width: 0.8; stroke-linejoin: miter; stroke-linecap: square"/>
   </g>
   <g id="patch_6">
    <path d="M 45 43.2 
L 324 43.2 
" style="fill: none; stroke: #000000; stroke-width: 0.8; stroke-linejoin: miter; stroke-linecap: square"/>
   </g>
  </g>
 </g>
 <defs>
  <clipPath id="p57eedf4e16">
   <rect x="45" y="43.2" width="279" height="277.2"/>
  </clipPath>
 </defs>
</svg>
