<?xml version="1.0" encoding="utf-8" standalone="no"?>
<!DOCTYPE svg PUBLIC "-//W3C//DTD SVG 1.1//EN"
  "http://www.w3.org/Graphics/SVG/1.1/DTD/svg11.dtd">
<svg xmlns:xlink="http://www.w3.org/1999/xlink" width="360pt" height="360pt" viewBox="0 0 360 360" xmlns="http://www.w3.org/2000/svg" version="1.1">
 <metadata>
  <rdf:RDF xmlns:dc="http://purl.org/dc/elements/1.1/" xmlns:cc="http://creativecommons.org/ns#" xmlns:rdf="http://www.w3.org/1999/02/22-rdf-syntax-ns#">
   <cc:Work>
    <dc:type rdf:resource="http://purl.org/dc/dcmitype/StillImage"/>
    <dc:date>2022-04-03T22:41:44.361171</dc:date>
    <dc:format>image/svg+xml</dc:format>
    <dc:creator>
     <cc:Agent>
      <dc:title>Matplotlib v3.5.1, https://matplotlib.org/</dc:title>
     </cc:Agent>
    </dc:creator>
   </cc:Work>
  </rdf:RDF>
 </metadata>
 <defs>
  <style type="text/css">*{stroke-linejoin: round; stroke-linecap: butt}</style>
 </defs>
 <g id="figure_1">
  <g id="patch_1">
   <path d="M 0 360 
L 360 360 
L 360 0 
L 0 0 
z
" style="fill: #ffffff"/>
  </g>
  <g id="axes_1">
   <g id="patch_2">
    <path d="M 45 320.4 
L 324 320.4 
L 324 43.2 
L 45 43.2 
z
" style="fill: #ffffff"/>
   </g>
   <g id="PathCollection_1">
    <defs>
     <path id="mf38a797a02" d="M 0 0.5 
C 0.132602 0.5 0.25979 0.447317 0.353553 0.353553 
C 0.447317 0.25979 0.5 0.132602 0.5 0 
C 0.5 -0.132602 0.447317 -0.25979 0.353553 -0.353553 
C 0.25979 -0.447317 0.132602 -0.5 0 -0.5 
C -0.132602 -0.5 -0.25979 -0.447317 -0.353553 -0.353553 
C -0.447317 -0.25979 -0.5 -0.132602 -0.5 0 
C -0.5 0.132602 -0.447317 0.25979 -0.353553 0.353553 
C -0.25979 0.447317 -0.132602 0.5 0 0.5 
z
" style="stroke: #ff0000"/>
    </defs>
    <g clip-path="url(#p71a2de8fc3)">
     <use xlink:href="#mf38a797a02" x="239.612904" y="181.568614" style="fill: #ff0000; stroke: #ff0000"/>
     <use xlink:href="#mf38a797a02" x="239.209089" y="176.237793" style="fill: #ff0000; stroke: #ff0000"/>
     <use xlink:href="#mf38a797a02" x="237.490004" y="171.142275" style="fill: #ff0000; stroke: #ff0000"/>
     <use xlink:href="#mf38a797a02" x="234.517335" y="166.564099" style="fill: #ff0000; stroke: #ff0000"/>
     <use xlink:href="#mf38a797a02" x="230.508655" y="162.73" style="fill: #ff0000; stroke: #ff0000"/>
     <use xlink:href="#mf38a797a02" x="225.821403" y="159.748038" style="fill: #ff0000; stroke: #ff0000"/>
     <use xlink:href="#mf38a797a02" x="220.89095" y="157.564441" style="fill: #ff0000; stroke: #ff0000"/>
     <use xlink:href="#mf38a797a02" x="216.136684" y="155.962459" style="fill: #ff0000; stroke: #ff0000"/>
     <use xlink:href="#mf38a797a02" x="211.863957" y="154.612584" style="fill: #ff0000; stroke: #ff0000"/>
     <use xlink:href="#mf38a797a02" x="208.195601" y="153.163663" style="fill: #ff0000; stroke: #ff0000"/>
     <use xlink:href="#mf38a797a02" x="205.058863" y="151.344901" style="fill: #ff0000; stroke: #ff0000"/>
     <use xlink:href="#mf38a797a02" x="202.231856" y="149.041563" style="fill: #ff0000; stroke: #ff0000"/>
     <use xlink:href="#mf38a797a02" x="199.428613" y="146.31889" style="fill: #ff0000; stroke: #ff0000"/>
     <use xlink:href="#mf38a797a02" x="196.388517" y="143.39305" style="fill: #ff0000; stroke: #ff0000"/>
     <use xlink:href="#mf38a797a02" x="192.941237" y="140.568692" style="fill: #ff0000; stroke: #ff0000"/>
     <use xlink:href="#mf38a797a02" x="189.035318" y="138.167141" style="fill: #ff0000; stroke: #ff0000"/>
     <use xlink:href="#mf38a797a02" x="184.732888" y="136.459211" style="fill: #ff0000; stroke: #ff0000"/>
     <use xlink:href="#mf38a797a02" x="180.176746" y="135.607771" style="fill: #ff0000; stroke: #ff0000"/>
     <use xlink:href="#mf38a797a02" x="175.535764" y="135.629853" style="fill: #ff0000; stroke: #ff0000"/>
     <use xlink:href="#mf38a797a02" x="170.941793" y="136.398776" style="fill: #ff0000; stroke: #ff0000"/>
     <use xlink:href="#mf38a797a02" x="166.444797" y="137.702103" style="fill: #ff0000; stroke: #ff0000"/>
     <use xlink:href="#mf38a797a02" x="162.015801" y="139.342132" style="fill: #ff0000; stroke: #ff0000"/>
     <use xlink:href="#mf38a797a02" x="157.605769" y="141.231938" style="fill: #ff0000; stroke: #ff0000"/>
     <use xlink:href="#mf38a797a02" x="153.232796" y="143.433273" style="fill: #ff0000; stroke: #ff0000"/>
     <use xlink:href="#mf38a797a02" x="149.047424" y="146.113379" style="fill: #ff0000; stroke: #ff0000"/>
     <use xlink:href="#mf38a797a02" x="145.33479" y="149.444032" style="fill: #ff0000; stroke: #ff0000"/>
     <use xlink:href="#mf38a797a02" x="142.445517" y="153.49539" style="fill: #ff0000; stroke: #ff0000"/>
     <use xlink:href="#mf38a797a02" x="140.6823" y="158.174991" style="fill: #ff0000; stroke: #ff0000"/>
     <use xlink:href="#mf38a797a02" x="140.18825" y="163.23666" style="fill: #ff0000; stroke: #ff0000"/>
     <use xlink:href="#mf38a797a02" x="140.88237" y="168.352524" style="fill: #ff0000; stroke: #ff0000"/>
     <use xlink:href="#mf38a797a02" x="142.469935" y="173.216226" style="fill: #ff0000; stroke: #ff0000"/>
     <use xlink:href="#mf38a797a02" x="144.526852" y="177.634213" style="fill: #ff0000; stroke: #ff0000"/>
     <use xlink:href="#mf38a797a02" x="146.627678" y="181.568614" style="fill: #ff0000; stroke: #ff0000"/>
     <use xlink:href="#mf38a797a02" x="148.470546" y="185.117101" style="fill: #ff0000; stroke: #ff0000"/>
     <use xlink:href="#mf38a797a02" x="149.956093" y="188.44152" style="fill: #ff0000; stroke: #ff0000"/>
     <use xlink:href="#mf38a797a02" x="151.196203" y="191.676223" style="fill: #ff0000; stroke: #ff0000"/>
     <use xlink:href="#mf38a797a02" x="152.451277" y="194.853828" style="fill: #ff0000; stroke: #ff0000"/>
     <use xlink:href="#mf38a797a02" x="154.016747" y="197.88081" style="fill: #ff0000; stroke: #ff0000"/>
     <use xlink:href="#mf38a797a02" x="156.099587" y="200.577341" style="fill: #ff0000; stroke: #ff0000"/>
     <use xlink:href="#mf38a797a02" x="158.73645" y="202.765696" style="fill: #ff0000; stroke: #ff0000"/>
     <use xlink:href="#mf38a797a02" x="161.792231" y="204.361267" style="fill: #ff0000; stroke: #ff0000"/>
     <use xlink:href="#mf38a797a02" x="165.037498" y="205.412685" style="fill: #ff0000; stroke: #ff0000"/>
     <use xlink:href="#mf38a797a02" x="168.257146" y="206.067224" style="fill: #ff0000; stroke: #ff0000"/>
     <use xlink:href="#mf38a797a02" x="171.326478" y="206.488427" style="fill: #ff0000; stroke: #ff0000"/>
     <use xlink:href="#mf38a797a02" x="174.219942" y="206.785366" style="fill: #ff0000; stroke: #ff0000"/>
     <use xlink:href="#mf38a797a02" x="176.968417" y="206.999509" style="fill: #ff0000; stroke: #ff0000"/>
     <use xlink:href="#mf38a797a02" x="179.611933" y="207.147299" style="fill: #ff0000; stroke: #ff0000"/>
     <use xlink:href="#mf38a797a02" x="182.18467" y="207.274189" style="fill: #ff0000; stroke: #ff0000"/>
     <use xlink:href="#mf38a797a02" x="184.732888" y="207.471312" style="fill: #ff0000; stroke: #ff0000"/>
     <use xlink:href="#mf38a797a02" x="187.337082" y="207.838856" style="fill: #ff0000; stroke: #ff0000"/>
     <use xlink:href="#mf38a797a02" x="190.109086" y="208.422212" style="fill: #ff0000; stroke: #ff0000"/>
     <use xlink:href="#mf38a797a02" x="193.159013" y="209.166618" style="fill: #ff0000; stroke: #ff0000"/>
     <use xlink:href="#mf38a797a02" x="196.553415" y="209.92178" style="fill: #ff0000; stroke: #ff0000"/>
     <use xlink:href="#mf38a797a02" x="200.293649" y="210.492931" style="fill: #ff0000; stroke: #ff0000"/>
     <use xlink:href="#mf38a797a02" x="204.327615" y="210.704998" style="fill: #ff0000; stroke: #ff0000"/>
     <use xlink:href="#mf38a797a02" x="208.582229" y="210.441633" style="fill: #ff0000; stroke: #ff0000"/>
     <use xlink:href="#mf38a797a02" x="212.988967" y="209.642396" style="fill: #ff0000; stroke: #ff0000"/>
     <use xlink:href="#mf38a797a02" x="217.482652" y="208.272251" style="fill: #ff0000; stroke: #ff0000"/>
     <use xlink:href="#mf38a797a02" x="221.977725" y="206.294262" style="fill: #ff0000; stroke: #ff0000"/>
     <use xlink:href="#mf38a797a02" x="226.345299" y="203.667413" style="fill: #ff0000; stroke: #ff0000"/>
     <use xlink:href="#mf38a797a02" x="230.411224" y="200.367132" style="fill: #ff0000; stroke: #ff0000"/>
     <use xlink:href="#mf38a797a02" x="233.974322" y="196.409471" style="fill: #ff0000; stroke: #ff0000"/>
     <use xlink:href="#mf38a797a02" x="236.827499" y="191.864023" style="fill: #ff0000; stroke: #ff0000"/>
     <use xlink:href="#mf38a797a02" x="238.769324" y="186.856402" style="fill: #ff0000; stroke: #ff0000"/>
    </g>
   </g>
   <g id="matplotlib.axis_1">
    <g id="xtick_1">
     <g id="line2d_1">
      <defs>
       <path id="mbcbe34ec88" d="M 0 0 
L 0 3.5 
" style="stroke: #000000; stroke-width: 0.8"/>
      </defs>
      <g>
       <use xlink:href="#mbcbe34ec88" x="45" y="320.4" style="stroke: #000000; stroke-width: 0.8"/>
      </g>
     </g>
     <g id="text_1">
      <!-- −3 -->
      <g transform="translate(37.628906 334.998438)scale(0.1 -0.1)">
       <defs>
        <path id="DejaVuSans-2212" d="M 678 2272 
L 4684 2272 
L 4684 1741 
L 678 1741 
L 678 2272 
z
" transform="scale(0.015625)"/>
        <path id="DejaVuSans-33" d="M 2597 2516 
Q 3050 2419 3304 2112 
Q 3559 1806 3559 1356 
Q 3559 666 3084 287 
Q 2609 -91 1734 -91 
Q 1441 -91 1130 -33 
Q 819 25 488 141 
L 488 750 
Q 750 597 1062 519 
Q 1375 441 1716 441 
Q 2309 441 2620 675 
Q 2931 909 2931 1356 
Q 2931 1769 2642 2001 
Q 2353 2234 1838 2234 
L 1294 2234 
L 1294 2753 
L 1863 2753 
Q 2328 2753 2575 2939 
Q 2822 3125 2822 3475 
Q 2822 3834 2567 4026 
Q 2313 4219 1838 4219 
Q 1578 4219 1281 4162 
Q 984 4106 628 3988 
L 628 4550 
Q 988 4650 1302 4700 
Q 1616 4750 1894 4750 
Q 2613 4750 3031 4423 
Q 3450 4097 3450 3541 
Q 3450 3153 3228 2886 
Q 3006 2619 2597 2516 
z
" transform="scale(0.015625)"/>
       </defs>
       <use xlink:href="#DejaVuSans-2212"/>
       <use xlink:href="#DejaVuSans-33" x="83.789062"/>
      </g>
     </g>
    </g>
    <g id="xtick_2">
     <g id="line2d_2">
      <g>
       <use xlink:href="#mbcbe34ec88" x="91.577629" y="320.4" style="stroke: #000000; stroke-width: 0.8"/>
      </g>
     </g>
     <g id="text_2">
      <!-- −2 -->
      <g transform="translate(84.206536 334.998438)scale(0.1 -0.1)">
       <defs>
        <path id="DejaVuSans-32" d="M 1228 531 
L 3431 531 
L 3431 0 
L 469 0 
L 469 531 
Q 828 903 1448 1529 
Q 2069 2156 2228 2338 
Q 2531 2678 2651 2914 
Q 2772 3150 2772 3378 
Q 2772 3750 2511 3984 
Q 2250 4219 1831 4219 
Q 1534 4219 1204 4116 
Q 875 4013 500 3803 
L 500 4441 
Q 881 4594 1212 4672 
Q 1544 4750 1819 4750 
Q 2544 4750 2975 4387 
Q 3406 4025 3406 3419 
Q 3406 3131 3298 2873 
Q 3191 2616 2906 2266 
Q 2828 2175 2409 1742 
Q 1991 1309 1228 531 
z
" transform="scale(0.015625)"/>
       </defs>
       <use xlink:href="#DejaVuSans-2212"/>
       <use xlink:href="#DejaVuSans-32" x="83.789062"/>
      </g>
     </g>
    </g>
    <g id="xtick_3">
     <g id="line2d_3">
      <g>
       <use xlink:href="#mbcbe34ec88" x="138.155259" y="320.4" style="stroke: #000000; stroke-width: 0.8"/>
      </g>
     </g>
     <g id="text_3">
      <!-- −1 -->
      <g transform="translate(130.784165 334.998438)scale(0.1 -0.1)">
       <defs>
        <path id="DejaVuSans-31" d="M 794 531 
L 1825 531 
L 1825 4091 
L 703 3866 
L 703 4441 
L 1819 4666 
L 2450 4666 
L 2450 531 
L 3481 531 
L 3481 0 
L 794 0 
L 794 531 
z
" transform="scale(0.015625)"/>
       </defs>
       <use xlink:href="#DejaVuSans-2212"/>
       <use xlink:href="#DejaVuSans-31" x="83.789062"/>
      </g>
     </g>
    </g>
    <g id="xtick_4">
     <g id="line2d_4">
      <g>
       <use xlink:href="#mbcbe34ec88" x="184.732888" y="320.4" style="stroke: #000000; stroke-width: 0.8"/>
      </g>
     </g>
     <g id="text_4">
      <!-- 0 -->
      <g transform="translate(181.551638 334.998438)scale(0.1 -0.1)">
       <defs>
        <path id="DejaVuSans-30" d="M 2034 4250 
Q 1547 4250 1301 3770 
Q 1056 3291 1056 2328 
Q 1056 1369 1301 889 
Q 1547 409 2034 409 
Q 2525 409 2770 889 
Q 3016 1369 3016 2328 
Q 3016 3291 2770 3770 
Q 2525 4250 2034 4250 
z
M 2034 4750 
Q 2819 4750 3233 4129 
Q 3647 3509 3647 2328 
Q 3647 1150 3233 529 
Q 2819 -91 2034 -91 
Q 1250 -91 836 529 
Q 422 1150 422 2328 
Q 422 3509 836 4129 
Q 1250 4750 2034 4750 
z
" transform="scale(0.015625)"/>
       </defs>
       <use xlink:href="#DejaVuSans-30"/>
      </g>
     </g>
    </g>
    <g id="xtick_5">
     <g id="line2d_5">
      <g>
       <use xlink:href="#mbcbe34ec88" x="231.310518" y="320.4" style="stroke: #000000; stroke-width: 0.8"/>
      </g>
     </g>
     <g id="text_5">
      <!-- 1 -->
      <g transform="translate(228.129268 334.998438)scale(0.1 -0.1)">
       <use xlink:href="#DejaVuSans-31"/>
      </g>
     </g>
    </g>
    <g id="xtick_6">
     <g id="line2d_6">
      <g>
       <use xlink:href="#mbcbe34ec88" x="277.888147" y="320.4" style="stroke: #000000; stroke-width: 0.8"/>
      </g>
     </g>
     <g id="text_6">
      <!-- 2 -->
      <g transform="translate(274.706897 334.998438)scale(0.1 -0.1)">
       <use xlink:href="#DejaVuSans-32"/>
      </g>
     </g>
    </g>
   </g>
   <g id="matplotlib.axis_2">
    <g id="ytick_1">
     <g id="line2d_7">
      <defs>
       <path id="m50ea80edd5" d="M 0 0 
L -3.5 0 
" style="stroke: #000000; stroke-width: 0.8"/>
      </defs>
      <g>
       <use xlink:href="#m50ea80edd5" x="45" y="320.4" style="stroke: #000000; stroke-width: 0.8"/>
      </g>
     </g>
     <g id="text_7">
      <!-- −3 -->
      <g transform="translate(23.257812 324.199219)scale(0.1 -0.1)">
       <use xlink:href="#DejaVuSans-2212"/>
       <use xlink:href="#DejaVuSans-33" x="83.789062"/>
      </g>
     </g>
    </g>
    <g id="ytick_2">
     <g id="line2d_8">
      <g>
       <use xlink:href="#m50ea80edd5" x="45" y="274.122871" style="stroke: #000000; stroke-width: 0.8"/>
      </g>
     </g>
     <g id="text_8">
      <!-- −2 -->
      <g transform="translate(23.257812 277.92209)scale(0.1 -0.1)">
       <use xlink:href="#DejaVuSans-2212"/>
       <use xlink:href="#DejaVuSans-32" x="83.789062"/>
      </g>
     </g>
    </g>
    <g id="ytick_3">
     <g id="line2d_9">
      <g>
       <use xlink:href="#m50ea80edd5" x="45" y="227.845743" style="stroke: #000000; stroke-width: 0.8"/>
      </g>
     </g>
     <g id="text_9">
      <!-- −1 -->
      <g transform="translate(23.257812 231.644962)scale(0.1 -0.1)">
       <use xlink:href="#DejaVuSans-2212"/>
       <use xlink:href="#DejaVuSans-31" x="83.789062"/>
      </g>
     </g>
    </g>
    <g id="ytick_4">
     <g id="line2d_10">
      <g>
       <use xlink:href="#m50ea80edd5" x="45" y="181.568614" style="stroke: #000000; stroke-width: 0.8"/>
      </g>
     </g>
     <g id="text_10">
      <!-- 0 -->
      <g transform="translate(31.6375 185.367833)scale(0.1 -0.1)">
       <use xlink:href="#DejaVuSans-30"/>
      </g>
     </g>
    </g>
    <g id="ytick_5">
     <g id="line2d_11">
      <g>
       <use xlink:href="#m50ea80edd5" x="45" y="135.291486" style="stroke: #000000; stroke-width: 0.8"/>
      </g>
     </g>
     <g id="text_11">
      <!-- 1 -->
      <g transform="translate(31.6375 139.090705)scale(0.1 -0.1)">
       <use xlink:href="#DejaVuSans-31"/>
      </g>
     </g>
    </g>
    <g id="ytick_6">
     <g id="line2d_12">
      <g>
       <use xlink:href="#m50ea80edd5" x="45" y="89.014357" style="stroke: #000000; stroke-width: 0.8"/>
      </g>
     </g>
     <g id="text_12">
      <!-- 2 -->
      <g transform="translate(31.6375 92.813576)scale(0.1 -0.1)">
       <use xlink:href="#DejaVuSans-32"/>
      </g>
     </g>
    </g>
   </g>
   <g id="PathCollection_2">
    <path d="M 202.898164 188.064987 
L 201.035058 187.925533 
L 197.774624 186.956041 
L 194.979967 186.049838 
L 187.527546 185.355233 
L 176.814691 183.526383 
L 175.883139 183.250522 
L 174.48581 182.293569 
L 171.85933 180.180301 
L 171.66097 179.717529 
L 171.412267 176.47813 
L 170.987782 175.552588 
L 170.293823 174.493697 
L 168.986821 173.238731 
L 167.137934 171.387646 
L 166.083892 169.999332 
L 164.598923 167.222705 
L 164.332193 165.371619 
L 164.271214 164.446077 
L 164.462345 163.520534 
L 164.929579 162.13222 
L 165.274861 161.669449 
L 166.567613 161.039628 
L 175.417362 158.840664 
L 176.348915 159.039008 
L 179.166759 159.818364 
L 181.93823 160.650069 
L 184.267112 161.697874 
L 187.159449 163.520534 
L 189.185335 164.446077 
L 190.322204 164.739968 
L 191.253756 165.036441 
L 193.116861 166.197508 
L 195.220451 167.685476 
L 196.843072 169.165401 
L 197.473963 169.536561 
L 200.431996 173.238731 
L 201.966611 174.320827 
L 205.692821 176.215193 
L 209.554339 178.791987 
L 211.550113 180.180301 
L 212.855061 182.031386 
L 212.956289 182.956928 
L 212.984472 184.808013 
L 212.679466 185.073117 
L 209.884808 185.881003 
L 207.555927 187.230971 
L 205.227045 188.10268 
L 202.898164 188.064987 
L 202.898164 188.064987 
" clip-path="url(#p71a2de8fc3)" style="fill: none; stroke-dasharray: 5.55,2.4; stroke-dashoffset: 0; stroke: #000000; stroke-width: 1.5"/>
   </g>
   <g id="PathCollection_3">
    <path d="M 195.445743 210.26137 
L 195.064572 210.260434 
L 194.979967 210.256149 
L 194.51419 210.232566 
L 194.048414 210.208981 
L 193.582638 210.185394 
L 193.116861 210.153266 
L 192.651085 210.087919 
L 192.185309 210.005657 
L 191.719533 209.833926 
L 191.253756 209.806684 
L 190.78798 209.799107 
L 190.631239 209.797663 
L 190.322204 209.74968 
L 189.856427 209.667904 
L 189.390651 209.577494 
L 188.924875 209.471855 
L 188.459098 209.35469 
L 187.993322 209.339156 
L 187.650631 209.334891 
L 187.527546 209.315782 
L 187.06177 209.24347 
L 186.595993 209.152323 
L 186.130217 209.068869 
L 185.664441 208.961711 
L 185.198664 208.888823 
L 184.732888 208.876442 
L 184.327515 208.87212 
L 184.267112 208.864739 
L 183.801336 208.807827 
L 183.335559 208.745435 
L 182.869783 208.679436 
L 182.404007 208.62198 
L 181.93823 208.533203 
L 181.472454 208.433832 
L 181.006678 208.418824 
L 180.540902 208.41288 
L 180.075125 208.409578 
L 180.050736 208.409349 
L 179.609349 208.320177 
L 179.143573 208.241483 
L 178.677796 208.092216 
L 178.21202 207.974012 
L 177.746244 207.957894 
L 177.280467 207.950826 
L 176.878774 207.946578 
L 176.814691 207.933649 
L 176.348915 207.848041 
L 175.883139 207.77485 
L 175.417362 207.531034 
L 174.951586 207.503276 
L 174.48581 207.492497 
L 174.020033 207.486342 
L 173.726396 207.483806 
L 173.554257 207.452321 
L 173.088481 207.375466 
L 172.622705 207.100269 
L 172.156928 207.050886 
L 171.691152 207.03496 
L 171.225376 207.027031 
L 170.759599 207.022389 
L 170.57405 207.021035 
L 170.293823 206.974158 
L 169.828047 206.698094 
L 169.36227 206.601718 
L 168.896494 206.57845 
L 168.430718 206.568208 
L 167.964942 206.562447 
L 167.499165 206.558546 
L 167.48852 206.558264 
L 167.033389 206.35925 
L 166.567613 206.151748 
L 166.101836 206.12026 
L 165.63606 206.1076 
L 165.170284 206.100767 
L 164.704508 206.095737 
L 164.702657 206.095492 
L 164.238731 205.724198 
L 163.772955 205.656316 
L 163.307179 205.640459 
L 163.246036 205.632721 
L 162.841402 205.300096 
L 162.375626 205.177087 
L 162.346983 205.16995 
L 161.90985 204.778795 
L 161.444073 204.711822 
L 161.429696 204.707179 
L 160.978297 204.290642 
L 160.512521 204.245907 
L 160.510136 204.244407 
L 160.046745 203.79313 
L 160.022037 203.781636 
L 159.580968 203.361208 
L 159.173296 203.318865 
L 159.115192 203.277067 
L 158.649416 202.860856 
L 158.641336 202.856093 
L 158.183639 202.412681 
L 158.124853 202.393322 
L 157.717863 202.017232 
L 157.252087 201.931145 
L 157.251196 201.930551 
L 156.786311 201.476957 
L 156.768574 201.46778 
L 156.320534 201.037414 
L 156.063891 201.005008 
L 155.854758 200.839933 
L 155.388982 200.545463 
L 155.383811 200.542237 
L 154.923205 200.094455 
L 154.887305 200.079466 
L 154.457429 199.673175 
L 154.011387 199.616694 
L 153.991653 199.6007 
L 153.525876 199.154661 
L 153.52518 199.153923 
L 153.0601 198.691319 
L 153.059942 198.691152 
L 152.603162 198.228381 
L 152.594324 198.218957 
L 152.498555 197.765609 
L 152.128548 197.364147 
L 152.111265 197.302838 
L 151.662771 196.844896 
L 151.659978 196.840067 
L 151.61721 196.377295 
L 151.212678 195.914524 
L 151.196995 195.854655 
L 151.192935 195.451753 
L 151.185778 194.988982 
L 151.172985 194.52621 
L 151.121844 194.063439 
L 150.731219 193.603063 
L 150.730905 193.600668 
L 150.726199 193.137896 
L 150.719721 192.675125 
L 150.703544 192.212354 
L 150.591016 191.749583 
L 150.265442 191.30146 
L 150.26455 191.286811 
L 150.260621 190.82404 
L 150.247747 190.361269 
L 150.102785 189.898497 
L 149.799666 189.457528 
L 149.798539 189.435726 
L 149.790915 188.972955 
L 149.75475 188.510184 
L 149.352379 188.047412 
L 149.33389 188.005087 
L 149.321593 187.584641 
L 148.941928 187.12187 
L 148.868114 186.972194 
L 148.85838 186.659098 
L 148.461323 186.196327 
L 148.402337 186.083823 
L 148.391153 185.733556 
L 147.976057 185.270785 
L 147.936561 185.195453 
L 147.923844 184.808013 
L 147.492655 184.345242 
L 147.470785 184.303689 
L 147.456446 183.882471 
L 147.019679 183.419699 
L 147.005008 183.39248 
L 146.988953 182.956928 
L 146.547076 182.494157 
L 146.539232 182.479921 
L 146.521354 182.031386 
L 146.074805 181.568614 
L 146.073456 181.566215 
L 146.053641 181.105843 
L 145.607679 180.643464 
L 145.607524 180.643072 
L 145.585803 180.180301 
L 145.141903 179.718452 
L 145.141545 179.717529 
L 145.117826 179.254758 
L 144.676127 178.793481 
L 144.675561 178.791987 
L 144.649696 178.329215 
L 144.210351 177.868554 
L 144.20957 177.866444 
L 144.181634 177.403673 
L 143.744574 176.944283 
L 143.743356 176.940902 
L 143.702036 176.47813 
L 143.278798 176.031094 
L 143.273799 176.015359 
L 143.237388 175.552588 
L 142.81505 175.089816 
L 142.813022 175.085449 
L 142.798142 174.627045 
L 142.474505 174.164274 
L 142.347245 173.910244 
L 142.341894 173.701503 
L 142.30382 173.238731 
L 141.905149 172.77596 
L 141.881469 172.721475 
L 141.868455 172.313189 
L 141.563089 171.850417 
L 141.415693 171.589137 
L 141.408317 171.387646 
L 141.107105 170.924875 
L 140.949917 170.608999 
L 140.946456 170.462104 
L 140.939111 169.999332 
L 140.926209 169.536561 
L 140.887345 169.07379 
L 140.711199 168.611018 
L 140.663757 168.148247 
L 140.609287 167.685476 
L 140.573027 167.222705 
L 140.539501 166.759933 
L 140.505965 166.297162 
L 140.48414 165.995928 
L 140.482689 165.834391 
L 140.469221 165.371619 
L 140.414294 164.908848 
L 140.377497 164.446077 
L 140.338308 163.983306 
L 140.304779 163.520534 
L 140.274821 163.057763 
L 140.276638 162.594992 
L 140.289606 162.13222 
L 140.35287 161.669449 
L 140.416125 161.206678 
L 140.47939 160.743907 
L 140.48414 160.709153 
L 140.542647 160.281135 
L 140.614806 159.818364 
L 140.743476 159.355593 
L 140.882929 158.892821 
L 140.949917 158.684655 
L 141.032884 158.43005 
L 141.200257 157.967279 
L 141.367629 157.504508 
L 141.415693 157.371615 
L 141.535001 157.041736 
L 141.699052 156.578965 
L 141.856996 156.116194 
L 141.881469 156.044487 
L 142.015867 155.653422 
L 142.237899 155.190651 
L 142.347245 154.98638 
L 142.485621 154.72788 
L 142.80371 154.265109 
L 142.813022 154.2557 
L 143.274593 153.802337 
L 143.278798 153.797927 
L 143.677749 153.339566 
L 143.744574 153.261647 
L 144.059437 152.876795 
L 144.210351 152.686721 
L 144.426864 152.414023 
L 144.676127 152.070915 
L 144.750127 151.951252 
L 144.957493 151.488481 
L 145.141903 151.03029 
L 145.143747 151.02571 
L 145.330019 150.562938 
L 145.516535 150.100167 
L 145.607679 149.874155 
L 145.703159 149.637396 
L 145.889778 149.174624 
L 146.073456 148.719149 
L 146.076398 148.711853 
L 146.263022 148.249082 
L 146.468191 147.786311 
L 146.539232 147.681259 
L 146.841172 147.323539 
L 147.005008 147.166939 
L 147.400737 146.860768 
L 147.470785 146.806573 
L 147.936561 146.446207 
L 147.998873 146.397997 
L 148.402337 146.085835 
L 148.596999 145.935225 
L 148.868114 145.725466 
L 149.195132 145.472454 
L 149.33389 145.365098 
L 149.799666 145.036663 
L 149.854652 145.009683 
L 150.265442 144.831319 
L 150.731219 144.621396 
L 150.887411 144.546912 
L 151.196995 144.390695 
L 151.662771 144.121679 
L 151.724772 144.08414 
L 152.128548 143.839673 
L 152.489106 143.621369 
L 152.594324 143.557662 
L 153.0601 143.275655 
L 153.253432 143.158598 
L 153.525876 142.993639 
L 153.991653 142.711634 
L 154.018342 142.695826 
L 154.457429 142.445417 
L 154.867558 142.233055 
L 154.923205 142.204241 
L 155.388982 141.963058 
L 155.761294 141.770284 
L 155.854758 141.723512 
L 156.320534 141.506429 
L 156.786311 141.310231 
L 156.792765 141.307513 
L 157.252087 141.114031 
L 157.717863 140.917831 
L 157.891385 140.844741 
L 158.183639 140.721638 
L 158.649416 140.525437 
L 158.990003 140.38197 
L 159.115192 140.329237 
L 159.580968 140.13304 
L 160.046745 139.936845 
L 160.088636 139.919199 
L 160.512521 139.740648 
L 160.978297 139.544451 
L 161.187266 139.456427 
L 161.444073 139.350018 
L 161.90985 139.152058 
L 162.264323 138.993656 
L 162.375626 138.946135 
L 162.841402 138.721229 
L 163.244295 138.530885 
L 163.307179 138.505388 
L 163.772955 138.281119 
L 164.223823 138.068114 
L 164.238731 138.062379 
L 164.704508 137.841014 
L 165.170284 137.620961 
L 165.203343 137.605342 
L 165.63606 137.409037 
L 166.101836 137.180852 
L 166.182863 137.142571 
L 166.567613 136.977984 
L 167.033389 136.74069 
L 167.185773 136.6798 
L 167.499165 136.574287 
L 167.964942 136.465861 
L 168.430718 136.3494 
L 168.896494 136.240777 
L 168.996635 136.217028 
L 169.36227 136.146167 
L 169.828047 136.03577 
L 170.293823 135.906853 
L 170.759599 135.795474 
L 170.93197 135.754257 
L 171.225376 135.698371 
L 171.691152 135.591932 
L 172.156928 135.461353 
L 172.622705 135.349974 
L 172.867311 135.291486 
L 173.088481 135.25007 
L 173.554257 135.147389 
L 174.020033 135.016653 
L 174.48581 134.904484 
L 174.951586 134.82959 
L 175.417362 134.829936 
L 175.883139 134.830282 
L 176.348915 134.830639 
L 176.814691 134.830985 
L 177.280467 134.83575 
L 177.746244 134.888667 
L 178.21202 134.942373 
L 178.677796 134.996066 
L 179.143573 135.049772 
L 179.609349 135.103468 
L 180.075125 135.16431 
L 180.540902 135.227879 
L 180.865639 135.291486 
L 181.006678 135.322553 
L 181.472454 135.425146 
L 181.93823 135.527746 
L 182.404007 135.711425 
L 182.509869 135.754257 
L 182.869783 135.913611 
L 183.335559 136.119842 
L 183.555056 136.217028 
L 183.801336 136.326073 
L 184.267112 136.532299 
L 184.600242 136.6798 
L 184.732888 136.738531 
L 185.198664 136.944762 
L 185.645434 137.142571 
L 185.664441 137.150986 
L 186.130217 137.357217 
L 186.595993 137.563449 
L 186.690609 137.605342 
L 187.06177 137.769679 
L 187.527546 137.975909 
L 187.735794 138.068114 
L 187.993322 138.182137 
L 188.459098 138.383892 
L 188.780976 138.530885 
L 188.924875 138.594596 
L 189.390651 138.780184 
L 189.856427 138.978431 
L 189.894966 138.993656 
L 190.322204 139.162444 
L 190.78798 139.346456 
L 191.066344 139.456427 
L 191.253756 139.530467 
L 191.719533 139.714474 
L 192.184496 139.919199 
L 192.185309 139.919622 
L 192.651085 140.280775 
L 192.771249 140.38197 
L 193.116861 140.673022 
L 193.320773 140.844741 
L 193.582638 141.065264 
L 193.870289 141.307513 
L 194.048414 141.457526 
L 194.419796 141.770284 
L 194.51419 141.849776 
L 194.969301 142.233055 
L 194.979967 142.242037 
L 195.445743 142.596521 
L 195.581404 142.695826 
L 195.911519 142.937897 
L 196.187977 143.158598 
L 196.377295 143.313866 
L 196.752236 143.621369 
L 196.843072 143.695868 
L 197.308848 144.077877 
L 197.316484 144.08414 
L 197.774624 144.459875 
L 197.87696 144.546912 
L 198.240401 144.895762 
L 198.350786 145.009683 
L 198.706177 145.376461 
L 198.799193 145.472454 
L 199.171953 145.856469 
L 199.24827 145.935225 
L 199.63773 146.333631 
L 199.700122 146.397997 
L 200.103506 146.81056 
L 200.152931 146.860768 
L 200.569282 147.233398 
L 200.697314 147.323539 
L 201.035058 147.562546 
L 201.358257 147.786311 
L 201.500835 147.868146 
L 201.966611 148.121993 
L 202.204566 148.249082 
L 202.432387 148.372773 
L 202.898164 148.654691 
L 202.992428 148.711853 
L 203.36394 148.935399 
L 203.756493 149.174624 
L 203.829716 149.218904 
L 204.295492 149.50065 
L 204.521755 149.637396 
L 204.761269 149.781022 
L 205.227045 150.063593 
L 205.287618 150.100167 
L 205.692821 150.344829 
L 206.05405 150.562938 
L 206.158598 150.625809 
L 206.624374 150.907301 
L 206.820482 151.02571 
L 207.09015 151.188534 
L 207.555927 151.460141 
L 207.606572 151.488481 
L 208.021703 151.71798 
L 208.339963 151.951252 
L 208.487479 152.089617 
L 208.833347 152.414023 
L 208.953255 152.526494 
L 209.326713 152.876795 
L 209.419032 152.957345 
L 209.884808 153.32129 
L 209.91226 153.339566 
L 210.350584 153.607918 
L 210.804562 153.802337 
L 210.816361 153.80739 
L 211.282137 154.006858 
L 211.747913 154.206328 
L 211.88517 154.265109 
L 212.213689 154.405797 
L 212.679466 154.605272 
L 212.965765 154.72788 
L 213.145242 154.80474 
L 213.611018 155.004207 
L 214.046366 155.190651 
L 214.076795 155.203683 
L 214.542571 155.403149 
L 215.008347 155.602621 
L 215.126971 155.653422 
L 215.474124 155.802094 
L 215.9399 156.001565 
L 216.207559 156.116194 
L 216.405676 156.201039 
L 216.871452 156.400511 
L 217.33243 156.578965 
L 217.337229 156.580517 
L 217.803005 156.715339 
L 218.268781 156.850168 
L 218.734558 156.984993 
L 218.930596 157.041736 
L 219.200334 157.119813 
L 219.66611 157.254643 
L 220.131886 157.389469 
L 220.529304 157.504508 
L 220.597663 157.524295 
L 221.063439 157.659124 
L 221.529215 157.793949 
L 221.994992 157.928776 
L 222.128004 157.967279 
L 222.460768 158.063604 
L 222.926544 158.198428 
L 223.392321 158.333255 
L 223.724588 158.43005 
L 223.858097 158.468913 
L 224.323873 158.605332 
L 224.789649 158.741754 
L 225.255426 158.87895 
L 225.305381 158.892821 
L 225.721202 159.015689 
L 226.186978 159.1735 
L 226.652755 159.336973 
L 226.72444 159.355593 
L 227.118531 159.489118 
L 227.584307 159.649143 
L 228.050083 159.815495 
L 228.090301 159.818364 
L 228.51586 159.983883 
L 228.981636 160.254287 
L 229.03174 160.281135 
L 229.447412 160.547365 
L 229.773117 160.743907 
L 229.913189 160.831704 
L 230.378965 161.162723 
L 230.493645 161.206678 
L 230.844741 161.468183 
L 231.112737 161.669449 
L 231.310518 161.890474 
L 231.507028 162.13222 
L 231.776294 162.429738 
L 231.913309 162.594992 
L 232.24207 162.954863 
L 232.319169 163.057763 
L 232.707846 163.475569 
L 232.719312 163.520534 
L 233.173623 163.982665 
L 233.173938 163.983306 
L 233.552066 164.446077 
L 233.639399 164.543175 
L 233.94169 164.908848 
L 234.105175 165.088875 
L 234.340734 165.371619 
L 234.570952 165.625236 
L 234.71772 165.834391 
L 235.036728 166.19617 
L 235.05347 166.297162 
L 235.473625 166.759933 
L 235.502504 166.804693 
L 235.54302 167.222705 
L 235.864558 167.685476 
L 235.96828 167.891375 
L 235.981661 168.148247 
L 236.241806 168.611018 
L 236.434057 168.985648 
L 236.437263 169.07379 
L 236.539925 169.536561 
L 236.842706 169.999332 
L 236.899833 170.115803 
L 236.924939 170.462104 
L 237.214102 170.924875 
L 237.365609 171.213123 
L 237.373655 171.387646 
L 237.599396 171.850417 
L 237.823374 172.313189 
L 237.831386 172.330001 
L 237.882244 172.77596 
L 238.188422 173.238731 
L 238.297162 173.447967 
L 238.312589 173.701503 
L 238.568643 174.164274 
L 238.762938 174.572784 
L 238.764942 174.627045 
L 238.837321 175.089816 
L 239.087733 175.552588 
L 239.228715 175.861361 
L 239.235202 176.015359 
L 239.398005 176.47813 
L 239.629012 176.940902 
L 239.694491 177.101329 
L 239.709477 177.403673 
L 239.731669 177.866444 
L 239.800326 178.329215 
L 239.974241 178.791987 
L 240.033591 179.254758 
L 240.093956 179.717529 
L 240.133355 180.180301 
L 240.090657 180.643072 
L 240.050359 181.105843 
L 240.029183 181.568614 
L 239.921576 182.031386 
L 239.739506 182.494157 
L 239.709727 182.956928 
L 239.699547 183.419699 
L 239.698703 183.882471 
L 239.701499 184.345242 
L 239.704753 184.808013 
L 239.708587 185.270785 
L 239.713173 185.733556 
L 239.718755 186.196327 
L 239.709212 186.659098 
L 239.698633 187.12187 
L 239.694491 187.153682 
L 239.350574 187.584641 
L 239.2574 188.047412 
L 239.239102 188.510184 
L 239.231343 188.972955 
L 239.228715 188.983163 
L 238.819264 189.435726 
L 238.779823 189.898497 
L 238.762938 190.015043 
L 238.477619 190.361269 
L 238.316777 190.82404 
L 238.297162 190.995129 
L 238.071939 191.286811 
L 237.853509 191.749583 
L 237.831386 192.039546 
L 237.714067 192.212354 
L 237.38817 192.675125 
L 237.365609 192.750731 
L 237.00477 193.137896 
L 236.908196 193.600668 
L 236.899833 193.616304 
L 236.462157 194.063439 
L 236.434057 194.187559 
L 236.137047 194.52621 
L 235.984179 194.988982 
L 235.96828 195.118089 
L 235.703143 195.451753 
L 235.520055 195.914524 
L 235.502504 195.953567 
L 235.08559 196.377295 
L 235.036728 196.507198 
L 234.71964 196.840067 
L 234.573063 197.302838 
L 234.570952 197.305575 
L 234.112152 197.765609 
L 234.105175 197.775534 
L 233.655263 198.228381 
L 233.639399 198.255847 
L 233.210092 198.691152 
L 233.173623 198.781707 
L 232.8076 199.153923 
L 232.707846 199.571168 
L 232.666261 199.616694 
L 232.244666 200.079466 
L 232.24207 200.083236 
L 231.785633 200.542237 
L 231.776294 200.559236 
L 231.32138 201.005008 
L 231.310518 201.010397 
L 230.844741 201.401355 
L 230.75225 201.46778 
L 230.378965 201.541144 
L 229.954668 201.930551 
L 229.913189 201.942276 
L 229.448293 202.393322 
L 229.447412 202.393787 
L 228.981636 202.695898 
L 228.758907 202.856093 
L 228.51586 202.884462 
L 228.058128 203.318865 
L 228.050083 203.322013 
L 227.584307 203.692756 
L 227.455778 203.781636 
L 227.118531 203.910883 
L 226.71483 204.244407 
L 226.652755 204.254063 
L 226.186978 204.659041 
L 226.117368 204.707179 
L 225.721202 204.981136 
L 225.448153 205.16995 
L 225.255426 205.204492 
L 224.789649 205.625325 
L 224.778953 205.632721 
L 224.323873 205.947419 
L 224.109746 206.095492 
L 223.858097 206.269513 
L 223.440536 206.558264 
L 223.392321 206.563272 
L 222.926544 206.913699 
L 222.771329 207.021035 
L 222.460768 207.235795 
L 222.040763 207.483806 
L 221.994992 207.485489 
L 221.529215 207.599254 
L 221.063439 207.83281 
L 220.740228 207.946578 
L 220.597663 207.950665 
L 220.131886 208.091231 
L 219.66611 208.324663 
L 219.425524 208.409349 
L 219.200334 208.415946 
L 218.734558 208.588481 
L 218.268781 208.816511 
L 218.110794 208.87212 
L 217.803005 208.881337 
L 217.337229 209.092545 
L 216.871452 209.308353 
L 216.796055 209.334891 
L 216.405676 209.346847 
L 215.9399 209.6057 
L 215.479594 209.797663 
L 215.474124 209.797763 
L 215.008347 209.801761 
L 214.542571 209.808316 
L 214.076795 209.824613 
L 213.611018 209.886743 
L 213.145242 210.119642 
L 212.679466 210.19139 
L 212.213689 210.256239 
L 212.183556 210.260434 
L 211.747913 210.263593 
L 211.282137 210.269853 
L 210.816361 210.285755 
L 210.350584 210.29032 
L 209.884808 210.281718 
L 209.419032 210.275279 
L 208.953255 210.270143 
L 208.487479 210.270796 
L 208.021703 210.281243 
L 207.555927 210.294737 
L 207.09015 210.308818 
L 206.624374 210.324627 
L 206.158598 210.351023 
L 205.692821 210.386891 
L 205.227045 210.424387 
L 204.761269 210.532898 
L 204.295492 210.577058 
L 203.829716 210.578861 
L 203.36394 210.580635 
L 202.898164 210.582381 
L 202.432387 210.584103 
L 201.966611 210.585797 
L 201.500835 210.587462 
L 201.035058 210.575836 
L 200.569282 210.54564 
L 200.103506 210.477878 
L 199.63773 210.365354 
L 199.171953 210.316634 
L 198.706177 210.295571 
L 198.240401 210.282875 
L 197.774624 210.275532 
L 197.308848 210.270747 
L 196.843072 210.267381 
L 196.377295 210.264733 
L 195.911519 210.262613 
L 195.445743 210.26137 
z
" clip-path="url(#p71a2de8fc3)" style="fill: none; stroke: #000000; stroke-width: 1.5"/>
   </g>
   <g id="PathCollection_4">
    <path d="M 201.035058 233.941717 
L 200.631098 233.86177 
L 200.569282 233.849536 
L 200.103506 233.757368 
L 199.63773 233.665192 
L 199.171953 233.573017 
L 198.706177 233.480846 
L 198.292609 233.398998 
L 198.240401 233.388666 
L 197.774624 233.296492 
L 197.308848 233.204317 
L 196.843072 233.112145 
L 196.377295 233.019968 
L 195.954123 232.936227 
L 195.911519 232.927796 
L 195.445743 232.835623 
L 194.979967 232.743447 
L 194.51419 232.651269 
L 194.048414 232.559095 
L 193.615634 232.473456 
L 193.582638 232.466926 
L 193.116861 232.374748 
L 192.651085 232.282576 
L 192.185309 232.190401 
L 191.719533 232.098242 
L 191.253756 232.016429 
L 191.214515 232.010684 
L 190.78798 231.948246 
L 190.322204 231.880057 
L 189.856427 231.811873 
L 189.390651 231.743689 
L 188.924875 231.675505 
L 188.459098 231.607317 
L 188.053297 231.547913 
L 187.993322 231.539134 
L 187.527546 231.47574 
L 187.06177 231.418736 
L 186.595993 231.361738 
L 186.130217 231.310845 
L 185.664441 231.270345 
L 185.198664 231.233825 
L 184.732888 231.197309 
L 184.267112 231.160793 
L 183.801336 231.124278 
L 183.335559 231.087761 
L 183.302156 231.085142 
L 182.869783 231.051241 
L 182.404007 231.014494 
L 181.93823 230.976979 
L 181.472454 230.937172 
L 181.006678 230.897366 
L 180.540902 230.857561 
L 180.075125 230.817758 
L 179.609349 230.777951 
L 179.143573 230.738145 
L 178.677796 230.698343 
L 178.21202 230.658539 
L 177.788858 230.622371 
L 177.746244 230.618728 
L 177.280467 230.578928 
L 176.814691 230.539121 
L 176.348915 230.499313 
L 175.883139 230.459506 
L 175.417362 230.419701 
L 174.951586 230.379895 
L 174.48581 230.340091 
L 174.020033 230.300282 
L 173.554257 230.256584 
L 173.088481 230.203013 
L 172.712726 230.159599 
L 172.622705 230.149198 
L 172.156928 230.09538 
L 171.691152 230.041554 
L 171.225376 229.987729 
L 170.759599 229.93391 
L 170.293823 229.88009 
L 169.828047 229.815003 
L 169.36227 229.748731 
L 168.997512 229.696828 
L 168.896494 229.682442 
L 168.430718 229.616112 
L 167.964942 229.549787 
L 167.499165 229.483496 
L 167.033389 229.418075 
L 166.567613 229.353851 
L 166.101836 229.291794 
L 165.662389 229.234057 
L 165.63606 229.23066 
L 165.170284 229.170555 
L 164.704508 229.11047 
L 164.238731 229.050412 
L 163.772955 228.95902 
L 163.307179 228.853849 
L 162.941067 228.771285 
L 162.841402 228.748767 
L 162.375626 228.643522 
L 161.90985 228.538281 
L 161.444073 228.431611 
L 160.978297 228.31671 
L 160.945793 228.308514 
L 160.512521 228.197663 
L 160.046745 228.078497 
L 159.580968 227.959328 
L 159.137032 227.845743 
L 159.115192 227.840155 
L 158.649416 227.720985 
L 158.183639 227.601816 
L 157.717863 227.48265 
L 157.32829 227.382972 
L 157.252087 227.363474 
L 156.786311 227.244305 
L 156.320534 227.125138 
L 155.854758 227.005967 
L 155.519536 226.9202 
L 155.388982 226.886798 
L 154.923205 226.757381 
L 154.457429 226.51965 
L 154.339796 226.457429 
L 153.991653 226.273287 
L 153.525876 226.026922 
L 153.464879 225.994658 
L 153.0601 225.780552 
L 152.594324 225.534192 
L 152.589966 225.531886 
L 152.128548 225.287828 
L 151.715047 225.069115 
L 151.662771 225.041464 
L 151.196995 224.795094 
L 150.84014 224.606344 
L 150.731219 224.544533 
L 150.265442 224.208752 
L 150.175272 224.143573 
L 149.799666 223.87207 
L 149.535051 223.680801 
L 149.33389 223.535399 
L 148.894831 223.21803 
L 148.868114 223.198717 
L 148.402337 222.862048 
L 148.254597 222.755259 
L 147.936561 222.525375 
L 147.61437 222.292487 
L 147.470785 222.188702 
L 147.005008 221.852016 
L 146.974156 221.829716 
L 146.539232 221.515354 
L 146.333919 221.366945 
L 146.073456 221.178669 
L 145.69371 220.904174 
L 145.607679 220.84199 
L 145.141903 220.505319 
L 145.053476 220.441402 
L 144.676127 220.168649 
L 144.413243 219.978631 
L 144.210351 219.831977 
L 143.773017 219.51586 
L 143.744574 219.495301 
L 143.278798 219.158621 
L 143.132798 219.053088 
L 142.813022 218.821948 
L 142.492569 218.590317 
L 142.347245 218.485273 
L 141.881469 218.148596 
L 141.852347 218.127546 
L 141.415693 217.811928 
L 141.21211 217.664775 
L 140.949917 217.475251 
L 140.571892 217.202003 
L 140.48414 217.138575 
L 140.020186 216.739232 
L 140.018364 216.737475 
L 139.552588 216.286462 
L 139.542259 216.276461 
L 139.086811 215.835435 
L 139.064354 215.813689 
L 138.621035 215.384408 
L 138.58645 215.350918 
L 138.155259 214.933392 
L 138.108534 214.888147 
L 137.689482 214.482374 
L 137.630618 214.425376 
L 137.223706 214.031346 
L 137.152717 213.962604 
L 136.75793 213.580327 
L 136.674804 213.499833 
L 136.292154 213.129306 
L 136.196889 213.037062 
L 135.826377 212.657327 
L 135.750351 212.57429 
L 135.360601 212.129185 
L 135.345132 212.111519 
L 134.93992 211.648748 
L 134.894825 211.597248 
L 134.534704 211.185977 
L 134.429048 211.065313 
L 134.12949 210.723205 
L 133.963272 210.533377 
L 133.740338 210.260434 
L 133.506016 209.797663 
L 133.497496 209.777699 
L 133.308521 209.334891 
L 133.111024 208.87212 
L 133.03172 208.686282 
L 132.913538 208.409349 
L 132.716038 207.946578 
L 132.565943 207.594863 
L 132.518549 207.483806 
L 132.321048 207.021035 
L 132.123553 206.558264 
L 132.100167 206.503467 
L 131.926057 206.095492 
L 131.728565 205.632721 
L 131.634391 205.412047 
L 131.531075 205.16995 
L 131.333587 204.707179 
L 131.168614 204.32063 
L 131.136096 204.244407 
L 130.919137 203.781636 
L 130.702838 203.364853 
L 130.679006 203.318865 
L 130.439199 202.856093 
L 130.237062 202.466187 
L 130.199299 202.393322 
L 130.011094 201.930551 
L 129.84874 201.46778 
L 129.771285 201.247023 
L 129.686372 201.005008 
L 129.524016 200.542237 
L 129.361649 200.079466 
L 129.305509 199.919446 
L 129.199294 199.616694 
L 129.036932 199.153923 
L 128.87457 198.691152 
L 128.839733 198.591856 
L 128.712209 198.228381 
L 128.549845 197.765609 
L 128.387489 197.302838 
L 128.373957 197.264267 
L 128.225123 196.840067 
L 128.062754 196.377295 
L 127.90818 195.936703 
L 127.900399 195.914524 
L 127.738035 195.451753 
L 127.528934 194.988982 
L 127.442404 194.813815 
L 127.300331 194.52621 
L 127.071728 194.063439 
L 126.976628 193.870924 
L 126.843121 193.600668 
L 126.614521 193.137896 
L 126.510851 192.928043 
L 126.385907 192.675125 
L 126.156973 192.212354 
L 126.045075 191.993824 
L 125.917104 191.749583 
L 125.674617 191.286811 
L 125.579299 191.10489 
L 125.432148 190.82404 
L 125.189666 190.361269 
L 125.113523 190.215949 
L 124.947186 189.898497 
L 124.704711 189.435726 
L 124.647746 189.327007 
L 124.462235 188.972955 
L 124.219757 188.510184 
L 124.18197 188.438067 
L 123.977275 188.047412 
L 123.734793 187.584641 
L 123.716194 187.549145 
L 123.492318 187.12187 
L 123.250417 186.660183 
L 123.249849 186.659098 
L 123.007375 186.196327 
L 122.784641 185.771238 
L 122.764897 185.733556 
L 122.522419 185.270785 
L 122.318865 184.88229 
L 122.279947 184.808013 
L 122.037462 184.345242 
L 121.853088 183.993356 
L 121.794989 183.882471 
L 121.552507 183.419699 
L 121.387312 183.104424 
L 121.31003 182.956928 
L 121.067555 182.494157 
L 120.921536 182.215478 
L 120.825077 182.031386 
L 120.582604 181.568614 
L 120.45576 181.326533 
L 120.340123 181.105843 
L 120.097645 180.643072 
L 119.989983 180.437603 
L 119.855162 180.180301 
L 119.62495 179.717529 
L 119.524207 179.455677 
L 119.446908 179.254758 
L 119.26888 178.791987 
L 119.090844 178.329215 
L 119.058431 178.244963 
L 118.912808 177.866444 
L 118.734766 177.403673 
L 118.592654 176.954625 
L 118.588668 176.940902 
L 118.556995 176.47813 
L 118.525326 176.015359 
L 118.493645 175.552588 
L 118.456277 175.089816 
L 118.403205 174.627045 
L 118.350133 174.164274 
L 118.297057 173.701503 
L 118.24398 173.238731 
L 118.190903 172.77596 
L 118.137837 172.313189 
L 118.126878 172.217649 
L 118.084755 171.850417 
L 118.031683 171.387646 
L 117.978609 170.924875 
L 117.925533 170.462104 
L 117.881353 169.999332 
L 117.864162 169.536561 
L 117.846962 169.07379 
L 117.82977 168.611018 
L 117.812576 168.148247 
L 117.795382 167.685476 
L 117.772882 167.222705 
L 117.746477 166.759933 
L 117.720066 166.297162 
L 117.693657 165.834391 
L 117.667249 165.371619 
L 117.661102 165.263892 
L 117.640843 164.908848 
L 117.614431 164.446077 
L 117.588022 163.983306 
L 117.561615 163.520534 
L 117.573607 163.057763 
L 117.600642 162.594992 
L 117.627674 162.13222 
L 117.654718 161.669449 
L 117.661102 161.590042 
L 117.691963 161.206678 
L 117.730723 160.743907 
L 117.769493 160.281135 
L 117.807359 159.818364 
L 117.842458 159.355593 
L 117.875886 158.892821 
L 117.899032 158.43005 
L 117.922178 157.967279 
L 117.946318 157.504508 
L 117.972092 157.041736 
L 117.996975 156.578965 
L 118.02392 156.116194 
L 118.053888 155.653422 
L 118.083851 155.190651 
L 118.113815 154.72788 
L 118.126878 154.294628 
L 118.127709 154.265109 
L 118.130787 153.802337 
L 118.133862 153.339566 
L 118.13694 152.876795 
L 118.180256 152.414023 
L 118.263643 151.951252 
L 118.347043 151.488481 
L 118.430198 151.02571 
L 118.511413 150.562938 
L 118.592569 150.100167 
L 118.592654 150.099679 
L 118.67717 149.637396 
L 118.76219 149.174624 
L 118.847636 148.711853 
L 118.933511 148.249082 
L 119.019814 147.786311 
L 119.058431 147.579984 
L 119.107065 147.323539 
L 119.194825 146.860768 
L 119.282597 146.397997 
L 119.370361 145.935225 
L 119.458129 145.472454 
L 119.524207 145.123995 
L 119.545884 145.009683 
L 119.63365 144.546912 
L 119.72723 144.08414 
L 119.905758 143.621369 
L 119.989983 143.441284 
L 120.11771 143.158598 
L 120.34451 142.695826 
L 120.45576 142.468897 
L 120.571374 142.233055 
L 120.800658 141.770284 
L 120.921536 141.616598 
L 121.211921 141.307513 
L 121.387312 141.115394 
L 121.608127 140.844741 
L 121.853088 140.467375 
L 121.907252 140.38197 
L 122.213643 139.919199 
L 122.318865 139.771014 
L 122.564392 139.456427 
L 122.784641 139.187306 
L 122.943118 138.993656 
L 123.250417 138.618157 
L 123.32184 138.530885 
L 123.700563 138.068114 
L 123.716194 138.049014 
L 124.07928 137.605342 
L 124.18197 137.47986 
L 124.458002 137.142571 
L 124.647746 136.910717 
L 124.836722 136.6798 
L 125.113523 136.341569 
L 125.215445 136.217028 
L 125.579299 135.772428 
L 125.594169 135.754257 
L 125.972889 135.291486 
L 126.045075 135.203281 
L 126.351613 134.828715 
L 126.510851 134.634136 
L 126.73034 134.365943 
L 126.976628 134.065003 
L 127.107029 133.903172 
L 127.442404 133.486985 
L 127.479874 133.440401 
L 127.90818 132.980639 
L 127.911476 132.977629 
L 128.373957 132.582184 
L 128.452697 132.514858 
L 128.839733 132.183922 
L 128.993919 132.052087 
L 129.305509 131.785661 
L 129.535134 131.589316 
L 129.771285 131.38739 
L 130.07634 131.126544 
L 130.237062 130.987445 
L 130.563788 130.663773 
L 130.702838 130.511789 
L 130.995147 130.201002 
L 131.168614 130.010868 
L 131.423635 129.73823 
L 131.634391 129.497853 
L 131.809511 129.275459 
L 132.100167 128.89379 
L 132.17182 128.812688 
L 132.565943 128.419497 
L 132.635691 128.349917 
L 133.03172 127.954828 
L 133.099562 127.887145 
L 133.497496 127.482236 
L 133.55413 127.424374 
L 133.963272 127.00153 
L 134.012885 126.961603 
L 134.429048 126.702181 
L 134.806744 126.498831 
L 134.894825 126.451409 
L 135.360601 126.200621 
L 135.666252 126.03606 
L 135.826377 125.949848 
L 136.292154 125.699069 
L 136.525768 125.573289 
L 136.75793 125.448292 
L 137.223706 125.197513 
L 137.385287 125.110518 
L 137.689482 124.946393 
L 138.155259 124.693443 
L 138.239323 124.647746 
L 138.621035 124.440253 
L 139.086811 124.18706 
L 139.090647 124.184975 
L 139.552588 123.933866 
L 139.941963 123.722204 
L 140.018364 123.680672 
L 140.48414 123.427482 
L 140.792327 123.259432 
L 140.949917 123.170683 
L 141.415693 122.900131 
L 141.593824 122.796661 
L 141.881469 122.629581 
L 142.347245 122.35903 
L 142.391308 122.33389 
L 142.813022 122.10955 
L 143.278798 121.912651 
L 143.377046 121.871119 
L 143.744574 121.715759 
L 144.210351 121.518872 
L 144.471808 121.408347 
L 144.676127 121.321975 
L 145.141903 121.125082 
L 145.566567 120.945576 
L 145.607679 120.928198 
L 146.073456 120.7313 
L 146.539232 120.534407 
L 146.661311 120.482805 
L 147.005008 120.337524 
L 147.470785 120.140618 
L 147.756028 120.020033 
L 147.936561 119.943713 
L 148.402337 119.746823 
L 148.850741 119.557262 
L 148.868114 119.549918 
L 149.33389 119.35303 
L 149.799666 119.156131 
L 149.945488 119.094491 
L 150.265442 118.959244 
L 150.731219 118.76234 
L 151.040214 118.63172 
L 151.196995 118.565444 
L 151.662771 118.368545 
L 152.128548 118.171655 
L 152.134951 118.168948 
L 152.594324 117.974758 
L 153.0601 117.777868 
L 153.229692 117.706177 
L 153.525876 117.580973 
L 153.991653 117.384078 
L 154.324422 117.243406 
L 154.457429 117.187178 
L 154.923205 116.990293 
L 155.388982 116.793407 
L 155.419195 116.780634 
L 155.854758 116.5965 
L 156.320534 116.399618 
L 156.513933 116.317863 
L 156.786311 116.20272 
L 157.252087 116.005826 
L 157.626726 115.855092 
L 157.717863 115.819528 
L 158.183639 115.657929 
L 158.649416 115.496334 
L 158.949231 115.392321 
L 159.115192 115.334744 
L 159.580968 115.173145 
L 160.046745 115.011544 
L 160.283085 114.929549 
L 160.512521 114.849949 
L 160.978297 114.688351 
L 161.444073 114.526752 
L 161.616932 114.466778 
L 161.90985 114.365149 
L 162.375626 114.203555 
L 162.841402 114.041957 
L 162.950789 114.004007 
L 163.307179 113.880361 
L 163.772955 113.718759 
L 164.238731 113.557165 
L 164.284645 113.541235 
L 164.704508 113.395567 
L 165.170284 113.233966 
L 165.618485 113.078464 
L 165.63606 113.072366 
L 166.101836 112.910764 
L 166.567613 112.749167 
L 166.952332 112.615693 
L 167.033389 112.587571 
L 167.499165 112.425974 
L 167.964942 112.264375 
L 168.380847 112.152922 
L 168.430718 112.139466 
L 168.896494 112.065859 
L 169.36227 111.992262 
L 169.828047 111.918651 
L 170.293823 111.84505 
L 170.759599 111.771452 
L 171.225376 111.697842 
L 171.274052 111.69015 
L 171.691152 111.624241 
L 172.156928 111.550639 
L 172.622705 111.47704 
L 173.088481 111.403436 
L 173.554257 111.329831 
L 174.020033 111.293723 
L 174.48581 111.278203 
L 174.951586 111.297415 
L 175.417362 111.38345 
L 175.883139 111.469475 
L 176.348915 111.555504 
L 176.814691 111.641536 
L 177.077881 111.69015 
L 177.280467 111.72757 
L 177.746244 111.813595 
L 178.21202 111.899626 
L 178.677796 111.985664 
L 179.143573 112.071688 
L 179.583381 112.152922 
L 179.609349 112.157718 
L 180.075125 112.243749 
L 180.540902 112.329778 
L 181.006678 112.415805 
L 181.472454 112.501842 
L 181.93823 112.587871 
L 182.088855 112.615693 
L 182.404007 112.673904 
L 182.869783 112.759929 
L 183.335559 112.84597 
L 183.801336 112.931999 
L 184.267112 113.01803 
L 184.59432 113.078464 
L 184.732888 113.104058 
L 185.198664 113.190083 
L 185.664441 113.274666 
L 186.130217 113.35465 
L 186.595993 113.433767 
L 187.06177 113.512889 
L 187.228634 113.541235 
L 187.527546 113.592013 
L 187.993322 113.671133 
L 188.459098 113.765844 
L 188.924875 113.876379 
L 189.362994 114.004007 
L 189.390651 114.012334 
L 189.856427 114.160623 
L 190.322204 114.308914 
L 190.78798 114.457198 
L 190.818071 114.466778 
L 191.253756 114.605481 
L 191.719533 114.763573 
L 192.132115 114.929549 
L 192.185309 114.950948 
L 192.651085 115.138323 
L 193.116861 115.325396 
L 193.300223 115.392321 
L 193.582638 115.495858 
L 194.048414 115.66455 
L 194.51419 115.833253 
L 194.574488 115.855092 
L 194.979967 116.001952 
L 195.445743 116.170655 
L 195.852188 116.317863 
L 195.911519 116.339352 
L 196.377295 116.508062 
L 196.843072 116.676768 
L 197.143678 116.780634 
L 197.308848 116.837573 
L 197.774624 116.981353 
L 198.240401 117.125128 
L 198.62357 117.243406 
L 198.706177 117.268941 
L 199.171953 117.413452 
L 199.63773 117.559267 
L 200.103506 117.705209 
L 200.106596 117.706177 
L 200.569282 117.851155 
L 201.035058 117.997096 
L 201.500835 118.143137 
L 201.583109 118.168948 
L 201.966611 118.289262 
L 202.432387 118.435389 
L 202.898164 118.581532 
L 203.058154 118.63172 
L 203.36394 118.727642 
L 203.829716 118.873771 
L 204.295492 119.019898 
L 204.533251 119.094491 
L 204.761269 119.168947 
L 205.227045 119.443962 
L 205.404196 119.557262 
L 205.692821 119.741853 
L 206.127737 120.020033 
L 206.158598 120.039772 
L 206.624374 120.342985 
L 206.798582 120.482805 
L 207.09015 120.756346 
L 207.269023 120.945576 
L 207.555927 121.249101 
L 207.706454 121.408347 
L 208.021703 121.740852 
L 208.152443 121.871119 
L 208.487479 122.201105 
L 208.6223 122.33389 
L 208.953255 122.659844 
L 209.092167 122.796661 
L 209.419032 123.1186 
L 209.562024 123.259432 
L 209.884808 123.577344 
L 210.031884 123.722204 
L 210.350584 124.036093 
L 210.501747 124.184975 
L 210.816361 124.494847 
L 210.971604 124.647746 
L 211.282137 124.953591 
L 211.441465 125.110518 
L 211.747913 125.412339 
L 211.911327 125.573289 
L 212.213689 125.87109 
L 212.381187 126.03606 
L 212.679466 126.329835 
L 212.851051 126.498831 
L 213.145242 126.788584 
L 213.320918 126.961603 
L 213.611018 127.247324 
L 213.790776 127.424374 
L 214.076795 127.705523 
L 214.263871 127.887145 
L 214.542571 128.145653 
L 214.774743 128.349917 
L 215.008347 128.555434 
L 215.300751 128.812688 
L 215.474124 128.965219 
L 215.826753 129.275459 
L 215.9399 129.375007 
L 216.327562 129.73823 
L 216.405676 129.817452 
L 216.795986 130.201002 
L 216.871452 130.270578 
L 217.337229 130.614606 
L 217.403861 130.663773 
L 217.803005 130.934079 
L 218.134229 131.126544 
L 218.268781 131.203251 
L 218.734558 131.468783 
L 218.945986 131.589316 
L 219.200334 131.726461 
L 219.66611 131.882789 
L 220.131886 132.024192 
L 220.223779 132.052087 
L 220.597663 132.165582 
L 221.063439 132.306982 
L 221.529215 132.448378 
L 221.748203 132.514858 
L 221.994992 132.58978 
L 222.460768 132.731187 
L 222.926544 132.872588 
L 223.272575 132.977629 
L 223.392321 133.01398 
L 223.858097 133.155382 
L 224.323873 133.296786 
L 224.789649 133.438185 
L 224.796946 133.440401 
L 225.255426 133.579596 
L 225.721202 133.720995 
L 226.186978 133.862394 
L 226.312845 133.903172 
L 226.652755 134.015515 
L 227.118531 134.205213 
L 227.500042 134.365943 
L 227.584307 134.401552 
L 228.050083 134.600636 
L 228.51586 134.799718 
L 228.5837 134.828715 
L 228.981636 134.998802 
L 229.447412 135.212688 
L 229.59114 135.291486 
L 229.913189 135.484207 
L 230.358702 135.754257 
L 230.378965 135.765763 
L 230.844741 136.023425 
L 231.194732 136.217028 
L 231.310518 136.281078 
L 231.776294 136.538733 
L 232.031306 136.6798 
L 232.24207 136.796388 
L 232.707846 137.05404 
L 232.86789 137.142571 
L 233.173623 137.311693 
L 233.639399 137.569352 
L 233.704458 137.605342 
L 234.105175 137.827015 
L 234.541024 138.068114 
L 234.570952 138.085779 
L 235.036728 138.360237 
L 235.327079 138.530885 
L 235.502504 138.639726 
L 235.96828 138.928703 
L 236.072973 138.993656 
L 236.434057 139.217677 
L 236.818873 139.456427 
L 236.899833 139.506655 
L 237.365609 139.795624 
L 237.564795 139.919199 
L 237.831386 140.084596 
L 238.297162 140.373578 
L 238.310689 140.38197 
L 238.762938 140.662554 
L 239.056582 140.844741 
L 239.228715 140.95154 
L 239.694491 141.240517 
L 239.80247 141.307513 
L 240.160267 141.529494 
L 240.548383 141.770284 
L 240.626043 141.818465 
L 241.09182 142.107441 
L 241.294286 142.233055 
L 241.557596 142.396418 
L 242.023372 142.685397 
L 242.040184 142.695826 
L 242.489149 142.974369 
L 242.786094 143.158598 
L 242.954925 143.26334 
L 243.420701 143.552321 
L 243.531996 143.621369 
L 243.886477 143.841294 
L 244.277886 144.08414 
L 244.352254 144.128733 
L 244.81803 144.409581 
L 245.040292 144.546912 
L 245.283806 144.694711 
L 245.749583 144.994273 
L 245.773436 145.009683 
L 246.215359 145.259939 
L 246.617105 145.472454 
L 246.681135 145.504884 
L 247.146912 145.814985 
L 247.274621 145.935225 
L 247.612688 146.325219 
L 247.675773 146.397997 
L 248.076913 146.860768 
L 248.078464 146.862558 
L 248.478054 147.323539 
L 248.54424 147.399892 
L 248.879201 147.786311 
L 249.010017 147.937225 
L 249.280338 148.249082 
L 249.475793 148.474567 
L 249.681479 148.711853 
L 249.941569 149.011899 
L 250.082626 149.174624 
L 250.407346 149.549239 
L 250.483761 149.637396 
L 250.873122 150.086568 
L 250.88491 150.100167 
L 251.286047 150.562938 
L 251.338898 150.623909 
L 251.687188 151.02571 
L 251.804674 151.161246 
L 252.088329 151.488481 
L 252.270451 151.698582 
L 252.489478 151.951252 
L 252.736227 152.235912 
L 252.888086 152.414023 
L 253.202003 152.812003 
L 253.250997 152.876795 
L 253.600932 153.339566 
L 253.66778 153.427969 
L 253.950875 153.802337 
L 254.133556 154.043924 
L 254.300806 154.265109 
L 254.599332 154.659903 
L 254.650736 154.72788 
L 255.000678 155.190651 
L 255.065109 155.275853 
L 255.350627 155.653422 
L 255.530885 155.891811 
L 255.700553 156.116194 
L 255.996661 156.507775 
L 256.050495 156.578965 
L 256.400439 157.041736 
L 256.462437 157.144498 
L 256.667642 157.504508 
L 256.842829 157.967279 
L 256.928214 158.192828 
L 257.018015 158.43005 
L 257.19319 158.892821 
L 257.368377 159.355593 
L 257.39399 159.420471 
L 257.552001 159.818364 
L 257.744659 160.281135 
L 257.859766 160.557604 
L 257.937332 160.743907 
L 258.129997 161.206678 
L 258.322665 161.669449 
L 258.325543 161.67636 
L 258.515328 162.13222 
L 258.708007 162.594992 
L 258.791319 162.795105 
L 258.900668 163.057763 
L 259.093334 163.520534 
L 259.257095 163.913862 
L 259.285823 163.983306 
L 259.462918 164.446077 
L 259.62104 164.908848 
L 259.722871 165.206884 
L 259.779159 165.371619 
L 259.937282 165.834391 
L 260.095401 166.297162 
L 260.188648 166.570069 
L 260.253522 166.759933 
L 260.411642 167.222705 
L 260.569772 167.685476 
L 260.654424 167.933233 
L 260.727888 168.148247 
L 260.886007 168.611018 
L 261.044127 169.07379 
L 261.1202 169.296419 
L 261.202257 169.536561 
L 261.360373 169.999332 
L 261.51849 170.462104 
L 261.585977 170.65961 
L 261.676616 170.924875 
L 261.834741 171.387646 
L 261.992859 171.850417 
L 262.051753 172.022778 
L 262.150981 172.313189 
L 262.309101 172.77596 
L 262.46723 173.238731 
L 262.517529 173.385953 
L 262.625339 173.701503 
L 262.783462 174.164274 
L 262.94159 174.627045 
L 262.983306 174.749133 
L 263.099711 175.089816 
L 263.257828 175.552588 
L 263.415944 176.015359 
L 263.449082 176.150967 
L 263.525159 176.47813 
L 263.570922 176.940902 
L 263.616674 177.403673 
L 263.662437 177.866444 
L 263.708197 178.329215 
L 263.765005 178.791987 
L 263.837905 179.254758 
L 263.910814 179.717529 
L 263.914858 179.743199 
L 263.983718 180.180301 
L 264.056461 180.643072 
L 264.034748 181.105843 
L 264.008855 181.568614 
L 263.982966 182.031386 
L 263.957076 182.494157 
L 263.931181 182.956928 
L 263.914858 183.248644 
L 263.905286 183.419699 
L 263.879391 183.882471 
L 263.8535 184.345242 
L 263.827604 184.808013 
L 263.801707 185.270785 
L 263.775813 185.733556 
L 263.749918 186.196327 
L 263.724216 186.659098 
L 263.541553 187.12187 
L 263.449082 187.346795 
L 263.351301 187.584641 
L 263.161044 188.047412 
L 262.983306 188.479731 
L 262.970785 188.510184 
L 262.780524 188.972955 
L 262.590264 189.435726 
L 262.517529 189.612639 
L 262.400006 189.898497 
L 262.209756 190.361269 
L 262.051753 190.74558 
L 262.019494 190.82404 
L 261.818818 191.286811 
L 261.585977 191.738361 
L 261.580103 191.749583 
L 261.337863 192.212354 
L 261.1202 192.674348 
L 261.119869 192.675125 
L 260.995919 193.137896 
L 260.871981 193.600668 
L 260.748044 194.063439 
L 260.654424 194.413022 
L 260.624112 194.52621 
L 260.502558 194.988982 
L 260.389151 195.451753 
L 260.276767 195.914524 
L 260.188648 196.277407 
L 260.164392 196.377295 
L 260.052011 196.840067 
L 259.939629 197.302838 
L 259.811387 197.765609 
L 259.722871 198.002485 
L 259.638461 198.228381 
L 259.465532 198.691152 
L 259.292607 199.153923 
L 259.257095 199.248957 
L 259.11968 199.616694 
L 258.946755 200.079466 
L 258.791319 200.495442 
L 258.773833 200.542237 
L 258.600901 201.005008 
L 258.42797 201.46778 
L 258.325543 201.741898 
L 258.25505 201.930551 
L 258.052531 202.393322 
L 257.859766 202.743816 
L 257.798011 202.856093 
L 257.543501 203.318865 
L 257.39399 203.590713 
L 257.288929 203.781636 
L 257.034453 204.244407 
L 256.928214 204.437592 
L 256.779816 204.707179 
L 256.525242 205.16995 
L 256.462437 205.284188 
L 256.270648 205.632721 
L 255.996661 206.040414 
L 255.95593 206.095492 
L 255.579351 206.558264 
L 255.530885 206.617824 
L 255.214784 207.021035 
L 255.065109 207.247247 
L 254.915186 207.483806 
L 254.621903 207.946578 
L 254.599332 207.982192 
L 254.328616 208.409349 
L 254.133556 208.717133 
L 254.035332 208.87212 
L 253.742042 209.334891 
L 253.66778 209.45207 
L 253.448761 209.797663 
L 253.202003 210.187007 
L 253.155468 210.260434 
L 252.862187 210.723205 
L 252.736227 210.921958 
L 252.568907 211.185977 
L 252.275618 211.648748 
L 252.270451 211.656901 
L 251.980133 212.111519 
L 251.804674 212.328222 
L 251.587989 212.57429 
L 251.338898 212.857159 
L 251.180475 213.037062 
L 250.873122 213.386088 
L 250.772956 213.499833 
L 250.407346 213.915012 
L 250.365436 213.962604 
L 249.957915 214.425376 
L 249.941569 214.443937 
L 249.550396 214.888147 
L 249.475793 214.972868 
L 249.142887 215.350918 
L 249.010017 215.501802 
L 248.735364 215.813689 
L 248.54424 216.030721 
L 248.327834 216.276461 
L 248.078464 216.559637 
L 247.920313 216.739232 
L 247.612688 217.088564 
L 247.511274 217.202003 
L 247.146912 217.598716 
L 247.081354 217.664775 
L 246.681135 218.068052 
L 246.622092 218.127546 
L 246.215359 218.53737 
L 246.162813 218.590317 
L 245.749583 219.00672 
L 245.703566 219.053088 
L 245.283806 219.476045 
L 245.244293 219.51586 
L 244.81803 219.945384 
L 244.785035 219.978631 
L 244.352254 220.414705 
L 244.325759 220.441402 
L 243.886477 220.884034 
L 243.86649 220.904174 
L 243.420701 221.353361 
L 243.40722 221.366945 
L 242.954925 221.822697 
L 242.947959 221.829716 
L 242.489149 222.292021 
L 242.488686 222.292487 
L 242.029421 222.755259 
L 242.023372 222.761353 
L 241.570155 223.21803 
L 241.557596 223.230685 
L 241.104836 223.680801 
L 241.09182 223.690588 
L 240.626043 223.948547 
L 240.273889 224.143573 
L 240.160267 224.206496 
L 239.694491 224.464451 
L 239.438278 224.606344 
L 239.228715 224.722404 
L 238.762938 224.980357 
L 238.602671 225.069115 
L 238.297162 225.23831 
L 237.831386 225.498043 
L 237.752366 225.531886 
L 237.365609 225.691352 
L 236.899833 225.866456 
L 236.558823 225.994658 
L 236.434057 226.041565 
L 235.96828 226.216667 
L 235.502504 226.391779 
L 235.327872 226.457429 
L 235.036728 226.566879 
L 234.570952 226.74199 
L 234.105175 226.917098 
L 234.096923 226.9202 
L 233.639399 227.092206 
L 233.173623 227.267306 
L 232.865968 227.382972 
L 232.707846 227.442419 
L 232.24207 227.617524 
L 231.776294 227.792637 
L 231.635031 227.845743 
L 231.310518 227.967738 
L 230.844741 228.142848 
L 230.404073 228.308514 
L 230.378965 228.317954 
L 229.913189 228.493063 
L 229.447412 228.668173 
L 229.173146 228.771285 
L 228.981636 228.843282 
L 228.51586 229.018377 
L 228.050083 229.196755 
L 227.963751 229.234057 
L 227.584307 229.397285 
L 227.118531 229.569849 
L 226.775776 229.696828 
L 226.652755 229.742404 
L 226.186978 229.914961 
L 225.721202 230.087519 
L 225.526642 230.159599 
L 225.255426 230.26008 
L 224.789649 230.432634 
L 224.323873 230.605195 
L 224.277512 230.622371 
L 223.858097 230.777752 
L 223.392321 230.950306 
L 223.028368 231.085142 
L 222.926544 231.122865 
L 222.460768 231.28952 
L 221.994992 231.455197 
L 221.734338 231.547913 
L 221.529215 231.620877 
L 221.063439 231.786552 
L 220.597663 231.952236 
L 220.433345 232.010684 
L 220.131886 232.117914 
L 219.66611 232.283592 
L 219.200334 232.449276 
L 219.066107 232.473456 
L 218.734558 232.531412 
L 218.268781 232.60907 
L 217.803005 232.686734 
L 217.337229 232.764395 
L 216.871452 232.84205 
L 216.405676 232.919704 
L 216.306577 232.936227 
L 215.9399 232.997364 
L 215.474124 233.075029 
L 215.008347 233.152691 
L 214.542571 233.230351 
L 214.076795 233.308007 
L 213.611018 233.38567 
L 213.531082 233.398998 
L 213.145242 233.463334 
L 212.679466 233.54099 
L 212.213689 233.61865 
L 211.747913 233.696312 
L 211.282137 233.752805 
L 210.816361 233.76545 
L 210.350584 233.77809 
L 209.884808 233.790731 
L 209.419032 233.80338 
L 208.953255 233.816021 
L 208.487479 233.828662 
L 208.021703 233.841306 
L 207.555927 233.853947 
L 207.267705 233.86177 
L 207.09015 233.866589 
L 206.624374 233.879232 
L 206.158598 233.895678 
L 205.692821 233.923062 
L 205.227045 233.950442 
L 204.761269 233.977832 
L 204.295492 234.005217 
L 203.829716 234.032604 
L 203.36394 234.061569 
L 202.898164 234.075735 
L 202.432387 234.089896 
L 201.966611 234.107795 
L 201.500835 234.03389 
L 201.035058 233.941717 
z
" clip-path="url(#p71a2de8fc3)" style="fill: none; stroke: #000000; stroke-width: 1.5"/>
   </g>
   <g id="patch_3">
    <path d="M 45 320.4 
L 45 43.2 
" style="fill: none; stroke: #000000; stroke-width: 0.8; stroke-linejoin: miter; stroke-linecap: square"/>
   </g>
   <g id="patch_4">
    <path d="M 324 320.4 
L 324 43.2 
" style="fill: none; stroke: #000000; stroke-width: 0.8; stroke-linejoin: miter; stroke-linecap: square"/>
   </g>
   <g id="patch_5">
    <path d="M 45 320.4 
L 324 320.4 
" style="fill: none; stroke: #000000; stroke-width: 0.8; stroke-linejoin: miter; stroke-linecap: square"/>
   </g>
   <g id="patch_6">
    <path d="M 45 43.2 
L 324 43.2 
" style="fill: none; stroke: #000000; stroke-width: 0.8; stroke-linejoin: miter; stroke-linecap: square"/>
   </g>
  </g>
 </g>
 <defs>
  <clipPath id="p71a2de8fc3">
   <rect x="45" y="43.2" width="279" height="277.2"/>
  </clipPath>
 </defs>
</svg>
